<svg class="main-svg" xmlns="http://www.w3.org/2000/svg" xmlns:xlink="http://www.w3.org/1999/xlink" width="300" height="135" style="" viewBox="0 0 300 135"><rect x="0" y="0" width="300" height="135" style="fill: rgb(255, 255, 255); fill-opacity: 1;"/><defs id="defs-586dbb"><g class="clips"><clipPath id="clip586dbbxyplot" class="plotclip"><rect width="280" height="75"/></clipPath><clipPath class="axesclip" id="clip586dbbx"><rect x="10" y="0" width="280" height="135"/></clipPath><clipPath class="axesclip" id="clip586dbby"><rect x="0" y="50" width="300" height="75"/></clipPath><clipPath class="axesclip" id="clip586dbbxy"><rect x="10" y="50" width="280" height="75"/></clipPath></g><g class="gradients"/><g class="patterns"/></defs><g class="bglayer"/><g class="layer-below"><g class="imagelayer"/><g class="shapelayer"/></g><g class="cartesianlayer"><g class="subplot xy"><g class="layer-subplot"><g class="shapelayer"/><g class="imagelayer"/></g><g class="minor-gridlayer"><g class="x"/><g class="y"/></g><g class="gridlayer"><g class="x"><path class="xgrid crisp" transform="translate(64.35,0)" d="M0,50v75" style="stroke: rgb(235, 240, 248); stroke-opacity: 1; stroke-width: 1px;"/><path class="xgrid crisp" transform="translate(164.82,0)" d="M0,50v75" style="stroke: rgb(235, 240, 248); stroke-opacity: 1; stroke-width: 1px;"/><path class="xgrid crisp" transform="translate(266.94,0)" d="M0,50v75" style="stroke: rgb(235, 240, 248); stroke-opacity: 1; stroke-width: 1px;"/></g><g class="y"><path class="ygrid crisp" transform="translate(0,105.15)" d="M10,0h280" style="stroke: rgb(235, 240, 248); stroke-opacity: 1; stroke-width: 1px;"/><path class="ygrid crisp" transform="translate(0,85.31)" d="M10,0h280" style="stroke: rgb(235, 240, 248); stroke-opacity: 1; stroke-width: 1px;"/><path class="ygrid crisp" transform="translate(0,65.46000000000001)" d="M10,0h280" style="stroke: rgb(235, 240, 248); stroke-opacity: 1; stroke-width: 1px;"/></g></g><g class="zerolinelayer"><path class="yzl zl crisp" transform="translate(0,125)" d="M10,0h280" style="stroke: rgb(235, 240, 248); stroke-opacity: 1; stroke-width: 2px;"/></g><path class="xlines-below"/><path class="ylines-below"/><g class="overlines-below"/><g class="xaxislayer-below"/><g class="yaxislayer-below"/><g class="overaxes-below"/><g class="plot" transform="translate(10,50)" clip-path="url(#clip586dbbxyplot)"><g class="scatterlayer mlayer"><g class="trace scatter trace9b69e1" style="stroke-miterlimit: 2; opacity: 1;"><g class="fills"/><g class="errorbars"/><g class="lines"><path class="js-line" d="M0,5.54L39.53,6.33L41.18,7.12L51.06,7.12L52.71,8.71L56,15.66L57.65,15.66L64.24,16.85L65.88,17.44L70.82,18.04L72.47,18.04L98.82,19.03L100.47,20.22L103.76,20.22L105.41,22.21L107.06,22.21L108.71,23.99L112,27.17L113.65,27.57L141.65,27.57L143.29,23.99L144.94,21.22L146.59,22.21L153.18,20.22L154.82,20.22L220.71,19.03L222.35,16.25L225.65,13.67L227.29,13.08L233.88,13.08L235.53,4.54L280,3.75" style="vector-effect: non-scaling-stroke; fill: none; stroke: rgb(99, 110, 250); stroke-opacity: 1; stroke-width: 5px; opacity: 1;"/></g><g class="points"/><g class="text"/></g><g class="trace scatter tracecbba34" style="stroke-miterlimit: 2; opacity: 1;"><g class="fills"/><g class="errorbars"/><g class="lines"><path class="js-line" d="M0,30.54L98.82,29.75L100.47,27.57L103.76,27.57L105.41,25.78L107.06,25.78L108.71,21.61L112,13.67L113.65,11.69L126.82,10.89L128.47,10.1L141.65,10.1L143.29,11.69L146.59,15.66L148.24,15.66L220.71,16.25L222.35,17.44L227.29,18.04L228.94,18.04L232.24,18.64L233.88,18.04L235.53,23.6L237.18,24.59L243.76,24.99L245.41,24.99L250.35,27.57L252,28.16L255.29,28.96L256.94,28.96L276.71,28.96L278.35,30.54L280,31.73" style="vector-effect: non-scaling-stroke; fill: none; stroke: rgb(239, 85, 59); stroke-opacity: 1; stroke-width: 5px; opacity: 1;"/></g><g class="points"/><g class="text"/></g><g class="trace scatter tracea8438e" style="stroke-miterlimit: 2; opacity: 1;"><g class="fills"/><g class="errorbars"/><g class="lines"><path class="js-line" d="M0,62.69L52.71,63.09L54.35,64.48L57.65,65.47L59.29,65.47L103.76,65.47L105.41,60.71L110.35,61.5L112,62.1L115.29,62.1L116.94,62.1L123.53,61.5L125.18,60.71L187.76,60.71L189.41,59.12L192.71,54.56L194.35,54.56L215.76,54.56L217.41,52.97L220.71,52.18L222.35,51.18L225.65,49.99L227.29,48.6L230.59,47.61L232.24,45.83L235.53,45.63L237.18,45.63L243.76,45.03L245.41,45.03L278.35,45.83L280,46.42" style="vector-effect: non-scaling-stroke; fill: none; stroke: rgb(0, 204, 150); stroke-opacity: 1; stroke-width: 5px; opacity: 1;"/></g><g class="points"/><g class="text"/></g><g class="trace scatter tracee34396" style="stroke-miterlimit: 2; opacity: 1;"><g class="fills"/><g class="errorbars"/><g class="lines"><path class="js-line" d="M0,68.45L51.06,68.45L52.71,66.07L56,64.88L57.65,64.88L65.88,63.69L67.53,63.09L110.35,63.09L112,64.28L116.94,64.88L118.59,64.88L125.18,64.48L126.82,64.28L143.29,63.09L144.94,64.48L148.24,65.47L149.88,65.47L224,66.07L225.65,66.27L230.59,66.66L232.24,66.47L250.35,64.88L252,64.88L276.71,63.69L278.35,59.92L280,54.56" style="vector-effect: non-scaling-stroke; fill: none; stroke: rgb(171, 99, 250); stroke-opacity: 1; stroke-width: 5px; opacity: 1;"/></g><g class="points"/><g class="text"/></g><g class="trace scatter trace38864d" style="stroke-miterlimit: 2; opacity: 1;"><g class="fills"/><g class="errorbars"/><g class="lines"><path class="js-line" d="M0,61.5L65.88,61.5L67.53,62.1L187.76,63.09L189.41,63.69L196,64.08L197.65,64.08L232.24,65.08L233.88,65.47L240.47,66.07L242.12,66.07L280,66.07" style="vector-effect: non-scaling-stroke; fill: none; stroke: rgb(255, 161, 90); stroke-opacity: 1; stroke-width: 5px; opacity: 1;"/></g><g class="points"/><g class="text"/></g></g></g><g class="overplot"/><path class="xlines-above crisp" d="M0,0" style="fill: none;"/><path class="ylines-above crisp" d="M0,0" style="fill: none;"/><g class="overlines-above"/><g class="xaxislayer-above"/><g class="yaxislayer-above"/><g class="overaxes-above"/></g></g><g class="polarlayer"/><g class="smithlayer"/><g class="ternarylayer"/><g class="geolayer"/><g class="funnelarealayer"/><g class="pielayer"/><g class="iciclelayer"/><g class="treemaplayer"/><g class="sunburstlayer"/><g class="glimages"/><defs id="topdefs-586dbb"><g class="clips"/></defs><g class="layer-above"><g class="imagelayer"/><g class="shapelayer"/></g><g class="infolayer"><g class="g-gtitle"><text class="gtitle" x="15" y="25" text-anchor="start" dy="0em" style="font-family: Ubuntu, verdana, arial, sans-serif; font-size: 16px; fill: rgb(233, 84, 32); opacity: 1; font-weight: normal; white-space: pre;">Prezident/ka ČR 2023</text></g><g class="g-xtitle"/><g class="g-ytitle"/></g></svg>