<svg class="main-svg" xmlns="http://www.w3.org/2000/svg" xmlns:xlink="http://www.w3.org/1999/xlink" width="300" height="135" style="" viewBox="0 0 300 135"><rect x="0" y="0" width="300" height="135" style="fill: rgb(255, 255, 255); fill-opacity: 1;"/><defs id="defs-20dffe"><g class="clips"><clipPath id="clip20dffexyplot" class="plotclip"><rect width="280" height="75"/></clipPath><clipPath class="axesclip" id="clip20dffex"><rect x="10" y="0" width="280" height="135"/></clipPath><clipPath class="axesclip" id="clip20dffey"><rect x="0" y="50" width="300" height="75"/></clipPath><clipPath class="axesclip" id="clip20dffexy"><rect x="10" y="50" width="280" height="75"/></clipPath></g><g class="gradients"/><g class="patterns"/></defs><g class="bglayer"/><g class="layer-below"><g class="imagelayer"/><g class="shapelayer"/></g><g class="cartesianlayer"><g class="subplot xy"><g class="layer-subplot"><g class="shapelayer"/><g class="imagelayer"/></g><g class="minor-gridlayer"><g class="x"/><g class="y"/></g><g class="gridlayer"><g class="x"><path class="xgrid crisp" transform="translate(48.66,0)" d="M0,50v75" style="stroke: rgb(235, 240, 248); stroke-opacity: 1; stroke-width: 1px;"/><path class="xgrid crisp" transform="translate(120.13,0)" d="M0,50v75" style="stroke: rgb(235, 240, 248); stroke-opacity: 1; stroke-width: 1px;"/><path class="xgrid crisp" transform="translate(192.76,0)" d="M0,50v75" style="stroke: rgb(235, 240, 248); stroke-opacity: 1; stroke-width: 1px;"/><path class="xgrid crisp" transform="translate(264.23,0)" d="M0,50v75" style="stroke: rgb(235, 240, 248); stroke-opacity: 1; stroke-width: 1px;"/></g><g class="y"><path class="ygrid crisp" transform="translate(0,97.65)" d="M10,0h280" style="stroke: rgb(235, 240, 248); stroke-opacity: 1; stroke-width: 1px;"/><path class="ygrid crisp" transform="translate(0,70.3)" d="M10,0h280" style="stroke: rgb(235, 240, 248); stroke-opacity: 1; stroke-width: 1px;"/></g></g><g class="zerolinelayer"><path class="yzl zl crisp" transform="translate(0,125)" d="M10,0h280" style="stroke: rgb(235, 240, 248); stroke-opacity: 1; stroke-width: 2px;"/></g><path class="xlines-below"/><path class="ylines-below"/><g class="overlines-below"/><g class="xaxislayer-below"/><g class="yaxislayer-below"/><g class="overaxes-below"/><g class="plot" transform="translate(10,50)" clip-path="url(#clip20dffexyplot)"><g class="scatterlayer mlayer"><g class="trace scatter trace127c76" style="stroke-miterlimit: 2; opacity: 1;"><g class="fills"/><g class="errorbars"/><g class="lines"><path class="js-line" d="M0,15.92L28.12,16.61L29.29,17.29L36.32,17.29L37.49,18.66L41,24.54L42.18,24.54L49.21,26.59L50.38,26.59L70.29,27.55L71.46,28.37L73.81,28.37L74.98,30.14L76.15,30.14L77.32,31.79L79.67,34.25L80.84,34.66L100.75,34.66L101.92,31.79L103.1,29.32L104.27,30.14L110.13,28.37L111.3,28.37L156.99,27.55L158.16,25.08L160.5,22.9L161.67,22.35L166.36,22.35L167.53,15.24L220.25,14.42L221.42,15.92L226.11,17.29L227.28,17.29L230.79,17.29L231.97,15.24L234.31,12.91L235.48,12.91L236.65,12.91L237.82,10.45L241.34,3.75L242.51,3.75L243.68,3.75L253.05,11.27L255.4,12.91L257.74,12.91L260.08,11.27L261.26,12.09L263.6,19.89L264.77,17.29L280,17.29" style="vector-effect: non-scaling-stroke; fill: none; stroke: rgb(99, 110, 250); stroke-opacity: 1; stroke-width: 5px; opacity: 1;"/></g><g class="points"/><g class="text"/></g><g class="trace scatter trace257550" style="stroke-miterlimit: 2; opacity: 1;"><g class="fills"/><g class="errorbars"/><g class="lines"><path class="js-line" d="M0,64.47L37.49,64.88L38.66,65.97L41,66.93L42.18,66.93L73.81,66.93L74.98,62.83L79.67,63.92L80.84,64.47L84.35,63.92L85.52,63.92L133.56,62.83L134.73,61.6L137.07,57.63L138.24,57.63L155.82,56.4L156.99,55.58L166.36,49.84L167.53,49.97L200.33,49.56L201.51,48.06L221.42,47.1L222.59,46.14L223.77,46.14L224.94,47.51L227.28,48.06L228.45,46.55L230.79,44.78L231.97,43.96L234.31,43.14L235.48,43.14L237.82,43.55L239,41.36L241.34,38.35L242.51,38.35L243.68,38.35L253.05,43.68L255.4,44.78L257.74,44.78L260.08,45.46L261.26,45.05L264.77,40.4L265.94,40.4L280,39.85" style="vector-effect: non-scaling-stroke; fill: none; stroke: rgb(239, 85, 59); stroke-opacity: 1; stroke-width: 5px; opacity: 1;"/></g><g class="points"/><g class="text"/></g><g class="trace scatter trace0dd254" style="stroke-miterlimit: 2; opacity: 1;"><g class="fills"/><g class="errorbars"/><g class="lines"><path class="js-line" d="M0,37.12L70.29,36.57L71.46,34.66L73.81,34.66L74.98,33.29L76.15,33.29L77.32,29.73L79.67,22.9L80.84,21.12L101.92,21.12L103.1,23.44L105.44,24.54L106.61,24.54L156.99,25.08L158.16,26.04L161.67,26.59L162.85,26.59L166.36,26.59L167.53,31.37L171.05,32.47L172.22,32.47L175.73,33.56L176.9,34.66L196.82,35.89L197.99,37.12L199.16,38.35L200.33,41.77L202.68,44.78L203.85,44.78L216.74,44.78L217.91,46.55L220.25,48.06L221.42,47.65L228.45,49.97L229.62,50.79L230.79,50.79L231.97,52.98L234.31,54.76L235.48,54.76L237.82,54.76L239,57.08L241.34,58.86L242.51,58.86L243.68,58.86L253.05,39.44L255.4,36.57L257.74,36.57L260.08,39.44L261.26,39.44L267.11,40.4L268.28,40.4L280,40.95" style="vector-effect: non-scaling-stroke; fill: none; stroke: rgb(0, 204, 150); stroke-opacity: 1; stroke-width: 5px; opacity: 1;"/></g><g class="points"/><g class="text"/></g><g class="trace scatter trace649c64" style="stroke-miterlimit: 2; opacity: 1;"><g class="fills"/><g class="errorbars"/><g class="lines"><path class="js-line" d="M0,63.51L76.15,63.92L77.32,64.2L83.18,64.47L84.35,64.47L159.33,65.7L160.5,65.84L179.25,67.48L180.42,67.48L220.25,66.66L221.42,65.29L227.28,66.38L228.45,66.38L237.82,66.38L239,67.89L241.34,69.53L242.51,69.53L280,70.49" style="vector-effect: non-scaling-stroke; fill: none; stroke: rgb(171, 99, 250); stroke-opacity: 1; stroke-width: 5px; opacity: 1;"/></g><g class="points"/><g class="text"/></g><g class="trace scatter traceca91a4" style="stroke-miterlimit: 2; opacity: 1;"><g class="fills"/><g class="errorbars"/><g class="lines"><path class="js-line" d="M0,71.58L134.73,71.03L135.9,70.49L263.6,71.58L264.77,71.72L276.49,71.85L277.66,71.85L280,71.85" style="vector-effect: non-scaling-stroke; fill: none; stroke: rgb(255, 161, 90); stroke-opacity: 1; stroke-width: 5px; opacity: 1;"/></g><g class="points"/><g class="text"/></g></g></g><g class="overplot"/><path class="xlines-above crisp" d="M0,0" style="fill: none;"/><path class="ylines-above crisp" d="M0,0" style="fill: none;"/><g class="overlines-above"/><g class="xaxislayer-above"/><g class="yaxislayer-above"/><g class="overaxes-above"/></g></g><g class="polarlayer"/><g class="smithlayer"/><g class="ternarylayer"/><g class="geolayer"/><g class="funnelarealayer"/><g class="pielayer"/><g class="iciclelayer"/><g class="treemaplayer"/><g class="sunburstlayer"/><g class="glimages"/><defs id="topdefs-20dffe"><g class="clips"/></defs><g class="layer-above"><g class="imagelayer"/><g class="shapelayer"/></g><g class="infolayer"><g class="g-gtitle"><text class="gtitle" x="15" y="25" text-anchor="start" dy="0em" style="font-family: Ubuntu, verdana, arial, sans-serif; font-size: 16px; fill: rgb(233, 84, 32); opacity: 1; font-weight: normal; white-space: pre;">Prezident/ka ČR 2023</text></g><g class="g-xtitle"/><g class="g-ytitle"/></g></svg>