<svg class="main-svg" xmlns="http://www.w3.org/2000/svg" xmlns:xlink="http://www.w3.org/1999/xlink" width="300" height="135" style="" viewBox="0 0 300 135"><rect x="0" y="0" width="300" height="135" style="fill: rgb(255, 255, 255); fill-opacity: 1;"/><defs id="defs-0bde85"><g class="clips"><clipPath id="clip0bde85xyplot" class="plotclip"><rect width="280" height="75"/></clipPath><clipPath class="axesclip" id="clip0bde85x"><rect x="10" y="0" width="280" height="135"/></clipPath><clipPath class="axesclip" id="clip0bde85y"><rect x="0" y="50" width="300" height="75"/></clipPath><clipPath class="axesclip" id="clip0bde85xy"><rect x="10" y="50" width="280" height="75"/></clipPath></g><g class="gradients"/><g class="patterns"/></defs><g class="bglayer"/><g class="layer-below"><g class="imagelayer"/><g class="shapelayer"/></g><g class="cartesianlayer"><g class="subplot xy"><g class="layer-subplot"><g class="shapelayer"/><g class="imagelayer"/></g><g class="minor-gridlayer"><g class="x"/><g class="y"/></g><g class="gridlayer"><g class="x"><path class="xgrid crisp" transform="translate(62.8,0)" d="M0,50v75" style="stroke: rgb(235, 240, 248); stroke-opacity: 1; stroke-width: 1px;"/><path class="xgrid crisp" transform="translate(160.4,0)" d="M0,50v75" style="stroke: rgb(235, 240, 248); stroke-opacity: 1; stroke-width: 1px;"/><path class="xgrid crisp" transform="translate(259.6,0)" d="M0,50v75" style="stroke: rgb(235, 240, 248); stroke-opacity: 1; stroke-width: 1px;"/></g><g class="y"><path class="ygrid crisp" transform="translate(0,105.64)" d="M10,0h280" style="stroke: rgb(235, 240, 248); stroke-opacity: 1; stroke-width: 1px;"/><path class="ygrid crisp" transform="translate(0,86.28)" d="M10,0h280" style="stroke: rgb(235, 240, 248); stroke-opacity: 1; stroke-width: 1px;"/><path class="ygrid crisp" transform="translate(0,66.92)" d="M10,0h280" style="stroke: rgb(235, 240, 248); stroke-opacity: 1; stroke-width: 1px;"/></g></g><g class="zerolinelayer"><path class="yzl zl crisp" transform="translate(0,125)" d="M10,0h280" style="stroke: rgb(235, 240, 248); stroke-opacity: 1; stroke-width: 2px;"/></g><path class="xlines-below"/><path class="ylines-below"/><g class="overlines-below"/><g class="xaxislayer-below"/><g class="yaxislayer-below"/><g class="overaxes-below"/><g class="plot" transform="translate(10,50)" clip-path="url(#clip0bde85xyplot)"><g class="scatterlayer mlayer"><g class="trace scatter traceb8a965" style="stroke-miterlimit: 2; opacity: 1;"><g class="fills"/><g class="errorbars"/><g class="lines"><path class="js-line" d="M0,5.49L38.4,6.27L40,7.24L49.6,7.24L51.2,8.78L54.4,15.56L56,15.56L59.2,16.33L60.8,16.92L75.2,18.08L76.8,18.66L83.2,19.05L84.8,19.05L100.8,20.21L102.4,22.14L104,22.14L105.6,24.08L108.8,27.18L110.4,27.56L137.6,27.56L139.2,24.08L140.8,21.18L142.4,22.14L150.4,20.21L152,20.21L214.4,19.05L216,16.33L219.2,13.62L220.8,13.04L227.2,13.04L228.8,4.72L280,3.75" style="vector-effect: non-scaling-stroke; fill: none; stroke: rgb(99, 110, 250); stroke-opacity: 1; stroke-width: 5px; opacity: 1;"/></g><g class="points"/><g class="text"/></g><g class="trace scatter trace00567f" style="stroke-miterlimit: 2; opacity: 1;"><g class="fills"/><g class="errorbars"/><g class="lines"><path class="js-line" d="M0,30.47L96,29.69L97.6,27.56L100.8,27.56L102.4,25.82L104,25.82L105.6,21.76L108.8,13.62L110.4,11.69L123.2,10.91L124.8,10.33L137.6,10.33L139.2,11.69L142.4,15.56L144,15.56L214.4,16.33L216,17.5L220.8,18.08L222.4,18.08L225.6,18.66L227.2,18.08L228.8,23.69L230.4,24.66L236.8,25.05L238.4,25.05L244.8,28.34L246.4,29.11L268.8,29.11L270.4,30.47L272,31.82L273.6,35.89L275.2,39.38L276.8,39.38L280,39.38" style="vector-effect: non-scaling-stroke; fill: none; stroke: rgb(239, 85, 59); stroke-opacity: 1; stroke-width: 5px; opacity: 1;"/></g><g class="points"/><g class="text"/></g><g class="trace scatter trace491002" style="stroke-miterlimit: 2; opacity: 1;"><g class="fills"/><g class="errorbars"/><g class="lines"><path class="js-line" d="M0,62.61L51.2,63.19L52.8,64.35L56,65.51L57.6,65.51L100.8,65.51L102.4,60.67L107.2,61.45L108.8,62.03L112,62.03L113.6,62.03L120,61.45L121.6,60.67L182.4,60.67L184,59.12L187.2,54.67L188.8,54.67L209.6,54.67L211.2,53.12L214.4,52.15L216,51.19L219.2,50.02L220.8,48.67L224,47.51L225.6,45.96L228.8,45.57L230.4,45.57L236.8,44.99L238.4,44.99L270.4,45.76L272,46.54L276.8,43.25L278.4,43.25L280,43.25" style="vector-effect: non-scaling-stroke; fill: none; stroke: rgb(0, 204, 150); stroke-opacity: 1; stroke-width: 5px; opacity: 1;"/></g><g class="points"/><g class="text"/></g><g class="trace scatter trace394b08" style="stroke-miterlimit: 2; opacity: 1;"><g class="fills"/><g class="errorbars"/><g class="lines"><path class="js-line" d="M0,68.61L49.6,68.61L51.2,66.09L54.4,64.74L56,64.74L64,63.58L65.6,63.19L107.2,63.19L108.8,64.16L113.6,64.74L115.2,64.74L121.6,64.35L123.2,64.16L139.2,63.19L140.8,64.35L144,65.51L145.6,65.51L184,65.51L185.6,66.09L232,65.51L233.6,64.74L268.8,63.58L270.4,60.09L272,54.67L273.6,54.67L280,54.67" style="vector-effect: non-scaling-stroke; fill: none; stroke: rgb(171, 99, 250); stroke-opacity: 1; stroke-width: 5px; opacity: 1;"/></g><g class="points"/><g class="text"/></g><g class="trace scatter trace2e9b4a" style="stroke-miterlimit: 2; opacity: 1;"><g class="fills"/><g class="errorbars"/><g class="lines"><path class="js-line" d="M0,61.45L64,61.45L65.6,62.03L182.4,63.19L184,63.58L190.4,63.96L192,63.96L225.6,65.13L227.2,65.51L233.6,66.09L235.2,66.09L280,66.67" style="vector-effect: non-scaling-stroke; fill: none; stroke: rgb(255, 161, 90); stroke-opacity: 1; stroke-width: 5px; opacity: 1;"/></g><g class="points"/><g class="text"/></g></g></g><g class="overplot"/><path class="xlines-above crisp" d="M0,0" style="fill: none;"/><path class="ylines-above crisp" d="M0,0" style="fill: none;"/><g class="overlines-above"/><g class="xaxislayer-above"/><g class="yaxislayer-above"/><g class="overaxes-above"/></g></g><g class="polarlayer"/><g class="smithlayer"/><g class="ternarylayer"/><g class="geolayer"/><g class="funnelarealayer"/><g class="pielayer"/><g class="iciclelayer"/><g class="treemaplayer"/><g class="sunburstlayer"/><g class="glimages"/><defs id="topdefs-0bde85"><g class="clips"/></defs><g class="layer-above"><g class="imagelayer"/><g class="shapelayer"/></g><g class="infolayer"><g class="g-gtitle"><text class="gtitle" x="15" y="25" text-anchor="start" dy="0em" style="font-family: Ubuntu, verdana, arial, sans-serif; font-size: 16px; fill: rgb(233, 84, 32); opacity: 1; font-weight: normal; white-space: pre;">Prezident/ka ČR 2023</text></g><g class="g-xtitle"/><g class="g-ytitle"/></g></svg>