<svg class="main-svg" xmlns="http://www.w3.org/2000/svg" xmlns:xlink="http://www.w3.org/1999/xlink" width="300" height="135" style="" viewBox="0 0 300 135"><rect x="0" y="0" width="300" height="135" style="fill: rgb(255, 255, 255); fill-opacity: 1;"/><defs id="defs-942cbf"><g class="clips"><clipPath id="clip942cbfxyplot" class="plotclip"><rect width="280" height="75"/></clipPath><clipPath class="axesclip" id="clip942cbfx"><rect x="10" y="0" width="280" height="135"/></clipPath><clipPath class="axesclip" id="clip942cbfy"><rect x="0" y="50" width="300" height="75"/></clipPath><clipPath class="axesclip" id="clip942cbfxy"><rect x="10" y="50" width="280" height="75"/></clipPath></g><g class="gradients"/><g class="patterns"/></defs><g class="bglayer"/><g class="layer-below"><g class="imagelayer"/><g class="shapelayer"/></g><g class="cartesianlayer"><g class="subplot xy"><g class="layer-subplot"><g class="shapelayer"/><g class="imagelayer"/></g><g class="minor-gridlayer"><g class="x"/><g class="y"/></g><g class="gridlayer"><g class="x"><path class="xgrid crisp" transform="translate(15.92,0)" d="M0,50v75" style="stroke: rgb(235, 240, 248); stroke-opacity: 1; stroke-width: 1px;"/><path class="xgrid crisp" transform="translate(75.07,0)" d="M0,50v75" style="stroke: rgb(235, 240, 248); stroke-opacity: 1; stroke-width: 1px;"/><path class="xgrid crisp" transform="translate(136.2,0)" d="M0,50v75" style="stroke: rgb(235, 240, 248); stroke-opacity: 1; stroke-width: 1px;"/><path class="xgrid crisp" transform="translate(195.35,0)" d="M0,50v75" style="stroke: rgb(235, 240, 248); stroke-opacity: 1; stroke-width: 1px;"/><path class="xgrid crisp" transform="translate(256.48,0)" d="M0,50v75" style="stroke: rgb(235, 240, 248); stroke-opacity: 1; stroke-width: 1px;"/></g><g class="y"><path class="ygrid crisp" transform="translate(0,105.43)" d="M10,0h280" style="stroke: rgb(235, 240, 248); stroke-opacity: 1; stroke-width: 1px;"/><path class="ygrid crisp" transform="translate(0,85.85)" d="M10,0h280" style="stroke: rgb(235, 240, 248); stroke-opacity: 1; stroke-width: 1px;"/><path class="ygrid crisp" transform="translate(0,66.28)" d="M10,0h280" style="stroke: rgb(235, 240, 248); stroke-opacity: 1; stroke-width: 1px;"/></g></g><g class="zerolinelayer"><path class="yzl zl crisp" transform="translate(0,125)" d="M10,0h280" style="stroke: rgb(235, 240, 248); stroke-opacity: 1; stroke-width: 2px;"/></g><path class="xlines-below"/><path class="ylines-below"/><g class="overlines-below"/><g class="xaxislayer-below"/><g class="yaxislayer-below"/><g class="overaxes-below"/><g class="plot" transform="translate(10,50)" clip-path="url(#clip942cbfxyplot)"><g class="scatterlayer mlayer"><g class="trace scatter traced0f528" style="stroke-miterlimit: 2; opacity: 1;"><g class="fills"/><g class="errorbars"/><g class="lines"><path class="js-line" d="M0,3.75L47.32,4.53L49.3,5.32L61.13,5.32L63.1,7.08L67.04,14.12L69.01,14.12L76.9,15.3L78.87,15.89L84.79,16.47L86.76,16.47L118.31,17.65L120.28,18.82L124.23,18.82L126.2,20.78L128.17,20.78L130.14,22.74L134.08,25.87L136.06,26.26L169.58,26.26L171.55,22.74L173.52,19.8L175.49,20.78L185.35,18.82L187.32,18.82L264.23,17.65L266.2,14.71L270.14,12.17L272.11,11.38L280,11.38" style="vector-effect: non-scaling-stroke; fill: none; stroke: rgb(99, 110, 250); stroke-opacity: 1; stroke-width: 5px; opacity: 1;"/></g><g class="points"/><g class="text"/></g><g class="trace scatter traceabd522" style="stroke-miterlimit: 2; opacity: 1;"><g class="fills"/><g class="errorbars"/><g class="lines"><path class="js-line" d="M0,29.39L118.31,28.61L120.28,26.26L124.23,26.26L126.2,24.5L128.17,24.5L130.14,20.39L134.08,12.17L136.06,10.01L151.83,9.23L153.8,8.64L169.58,8.64L171.55,10.01L175.49,14.12L177.46,14.12L264.23,14.71L266.2,15.89L272.11,16.47L274.08,16.47L278.03,17.06L280,16.47" style="vector-effect: non-scaling-stroke; fill: none; stroke: rgb(239, 85, 59); stroke-opacity: 1; stroke-width: 5px; opacity: 1;"/></g><g class="points"/><g class="text"/></g><g class="trace scatter trace7f34e0" style="stroke-miterlimit: 2; opacity: 1;"><g class="fills"/><g class="errorbars"/><g class="lines"><path class="js-line" d="M0,62.28L63.1,62.86L65.07,64.23L69.01,65.21L70.99,65.21L124.23,65.21L126.2,60.32L132.11,61.1L134.08,61.69L138.03,61.69L140,61.69L147.89,61.1L149.86,60.32L224.79,60.32L226.76,58.75L230.7,54.06L232.68,54.06L258.31,54.06L260.28,52.49L264.23,51.71L266.2,50.73L268.17,50.73L270.14,49.36L274.08,47.99L276.06,46.81L280,44.46" style="vector-effect: non-scaling-stroke; fill: none; stroke: rgb(0, 204, 150); stroke-opacity: 1; stroke-width: 5px; opacity: 1;"/></g><g class="points"/><g class="text"/></g><g class="trace scatter trace630d8d" style="stroke-miterlimit: 2; opacity: 1;"><g class="fills"/><g class="errorbars"/><g class="lines"><path class="js-line" d="M0,61.1L78.87,61.1L80.85,61.69L224.79,62.86L226.76,63.26L232.68,63.84L234.65,63.84L278.03,64.82L280,65.21" style="vector-effect: non-scaling-stroke; fill: none; stroke: rgb(171, 99, 250); stroke-opacity: 1; stroke-width: 5px; opacity: 1;"/></g><g class="points"/><g class="text"/></g><g class="trace scatter tracedf6956" style="stroke-miterlimit: 2; opacity: 1;"><g class="fills"/><g class="errorbars"/><g class="lines"><path class="js-line" d="M0,68.34L61.13,68.34L63.1,65.8L67.04,64.63L69.01,64.63L76.9,63.84L78.87,63.26L86.76,62.86L88.73,62.86L132.11,62.86L134.08,64.04L140,64.63L141.97,64.63L149.86,64.23L151.83,64.04L171.55,62.86L173.52,64.23L177.46,65.21L179.44,65.21L268.17,65.8L270.14,66.19L280,66.19" style="vector-effect: non-scaling-stroke; fill: none; stroke: rgb(255, 161, 90); stroke-opacity: 1; stroke-width: 5px; opacity: 1;"/></g><g class="points"/><g class="text"/></g></g></g><g class="overplot"/><path class="xlines-above crisp" d="M0,0" style="fill: none;"/><path class="ylines-above crisp" d="M0,0" style="fill: none;"/><g class="overlines-above"/><g class="xaxislayer-above"/><g class="yaxislayer-above"/><g class="overaxes-above"/></g></g><g class="polarlayer"/><g class="smithlayer"/><g class="ternarylayer"/><g class="geolayer"/><g class="funnelarealayer"/><g class="pielayer"/><g class="iciclelayer"/><g class="treemaplayer"/><g class="sunburstlayer"/><g class="glimages"/><defs id="topdefs-942cbf"><g class="clips"/></defs><g class="layer-above"><g class="imagelayer"/><g class="shapelayer"/></g><g class="infolayer"><g class="g-gtitle"><text class="gtitle" x="15" y="25" text-anchor="start" dy="0em" style="font-family: Ubuntu, verdana, arial, sans-serif; font-size: 16px; fill: rgb(233, 84, 32); opacity: 1; font-weight: normal; white-space: pre;">Prezident/ka ČR 2023</text></g><g class="g-xtitle"/><g class="g-ytitle"/></g></svg>