<svg class="main-svg" xmlns="http://www.w3.org/2000/svg" xmlns:xlink="http://www.w3.org/1999/xlink" width="300" height="135" style="" viewBox="0 0 300 135"><rect x="0" y="0" width="300" height="135" style="fill: rgb(255, 255, 255); fill-opacity: 1;"/><defs id="defs-632f1a"><g class="clips"><clipPath id="clip632f1axyplot" class="plotclip"><rect width="280" height="75"/></clipPath><clipPath class="axesclip" id="clip632f1ax"><rect x="10" y="0" width="280" height="135"/></clipPath><clipPath class="axesclip" id="clip632f1ay"><rect x="0" y="50" width="300" height="75"/></clipPath><clipPath class="axesclip" id="clip632f1axy"><rect x="10" y="50" width="280" height="75"/></clipPath></g><g class="gradients"/><g class="patterns"/></defs><g class="bglayer"/><g class="layer-below"><g class="imagelayer"/><g class="shapelayer"/></g><g class="cartesianlayer"><g class="subplot xy"><g class="layer-subplot"><g class="shapelayer"/><g class="imagelayer"/></g><g class="minor-gridlayer"><g class="x"/><g class="y"/></g><g class="gridlayer"><g class="x"><path class="xgrid crisp" transform="translate(61.33,0)" d="M0,50v75" style="stroke: rgb(235, 240, 248); stroke-opacity: 1; stroke-width: 1px;"/><path class="xgrid crisp" transform="translate(156.22,0)" d="M0,50v75" style="stroke: rgb(235, 240, 248); stroke-opacity: 1; stroke-width: 1px;"/><path class="xgrid crisp" transform="translate(252.67,0)" d="M0,50v75" style="stroke: rgb(235, 240, 248); stroke-opacity: 1; stroke-width: 1px;"/></g><g class="y"><path class="ygrid crisp" transform="translate(0,105.59)" d="M10,0h280" style="stroke: rgb(235, 240, 248); stroke-opacity: 1; stroke-width: 1px;"/><path class="ygrid crisp" transform="translate(0,86.17)" d="M10,0h280" style="stroke: rgb(235, 240, 248); stroke-opacity: 1; stroke-width: 1px;"/><path class="ygrid crisp" transform="translate(0,66.76)" d="M10,0h280" style="stroke: rgb(235, 240, 248); stroke-opacity: 1; stroke-width: 1px;"/></g></g><g class="zerolinelayer"><path class="yzl zl crisp" transform="translate(0,125)" d="M10,0h280" style="stroke: rgb(235, 240, 248); stroke-opacity: 1; stroke-width: 2px;"/></g><path class="xlines-below"/><path class="ylines-below"/><g class="overlines-below"/><g class="xaxislayer-below"/><g class="yaxislayer-below"/><g class="overaxes-below"/><g class="plot" transform="translate(10,50)" clip-path="url(#clip632f1axyplot)"><g class="scatterlayer mlayer"><g class="trace scatter trace3bc23b" style="stroke-miterlimit: 2; opacity: 1;"><g class="fills"/><g class="errorbars"/><g class="lines"><path class="js-line" d="M0,5.5L37.33,6.47L38.89,7.24L48.22,7.24L49.78,8.8L52.89,15.79L54.44,15.79L60.67,16.95L62.22,17.53L66.89,18.12L68.44,18.12L93.33,19.09L94.89,20.25L98,20.25L99.56,22.19L101.11,22.19L102.67,24.13L105.78,27.24L107.33,27.63L133.78,27.63L135.33,24.13L136.89,21.22L138.44,22.19L146.22,20.25L147.78,20.25L208.44,19.09L210,16.37L213.11,13.85L214.67,13.07L220.89,13.07L222.44,4.72L280,3.75" style="vector-effect: non-scaling-stroke; fill: none; stroke: rgb(99, 110, 250); stroke-opacity: 1; stroke-width: 5px; opacity: 1;"/></g><g class="points"/><g class="text"/></g><g class="trace scatter trace64a80f" style="stroke-miterlimit: 2; opacity: 1;"><g class="fills"/><g class="errorbars"/><g class="lines"><path class="js-line" d="M0,30.54L93.33,29.76L94.89,27.63L98,27.63L99.56,25.88L101.11,25.88L102.67,21.81L105.78,13.85L107.33,11.71L119.78,10.93L121.33,10.35L133.78,10.35L135.33,11.71L138.44,15.79L140,15.79L208.44,16.37L210,17.53L214.67,18.12L216.22,18.12L219.33,18.7L220.89,18.12L222.44,23.75L224,24.52L228.67,25.11L230.22,25.11L233.33,26.27L234.89,27.63L238,28.41L239.56,28.99L261.33,28.99L262.89,30.54L264.44,31.9L266,35.98L267.56,39.47L269.11,39.47L280,39.47" style="vector-effect: non-scaling-stroke; fill: none; stroke: rgb(239, 85, 59); stroke-opacity: 1; stroke-width: 5px; opacity: 1;"/></g><g class="points"/><g class="text"/></g><g class="trace scatter trace39f47d" style="stroke-miterlimit: 2; opacity: 1;"><g class="fills"/><g class="errorbars"/><g class="lines"><path class="js-line" d="M0,62.57L49.78,63.16L51.33,64.52L54.44,65.49L56,65.49L98,65.49L99.56,60.83L105.78,61.99L107.33,62.57L112,61.99L113.56,61.99L177.33,60.83L178.89,59.27L182,54.62L183.56,54.62L203.78,54.62L205.33,53.06L208.44,52.29L210,51.31L211.56,51.31L213.11,49.96L216.22,48.6L217.78,47.63L220.89,45.3L222.44,45.68L262.89,45.88L264.44,46.46L269.11,43.35L270.67,43.35L280,43.35" style="vector-effect: non-scaling-stroke; fill: none; stroke: rgb(0, 204, 150); stroke-opacity: 1; stroke-width: 5px; opacity: 1;"/></g><g class="points"/><g class="text"/></g><g class="trace scatter trace40cbaa" style="stroke-miterlimit: 2; opacity: 1;"><g class="fills"/><g class="errorbars"/><g class="lines"><path class="js-line" d="M0,68.59L48.22,68.59L49.78,66.07L52.89,64.9L54.44,64.9L60.67,64.13L62.22,63.55L68.44,63.16L70,63.16L104.22,63.16L105.78,64.32L110.44,64.9L112,64.9L118.22,64.52L119.78,64.32L135.33,63.16L136.89,64.52L140,65.49L141.56,65.49L211.56,66.07L213.11,66.46L222.44,66.65L224,66.46L228.67,64.9L230.22,64.9L259.78,64.13L261.33,63.55L264.44,54.62L266,54.62L280,54.62" style="vector-effect: non-scaling-stroke; fill: none; stroke: rgb(171, 99, 250); stroke-opacity: 1; stroke-width: 5px; opacity: 1;"/></g><g class="points"/><g class="text"/></g><g class="trace scatter trace412f0a" style="stroke-miterlimit: 2; opacity: 1;"><g class="fills"/><g class="errorbars"/><g class="lines"><path class="js-line" d="M0,61.41L101.11,61.99L102.67,62.38L113.56,62.57L115.11,62.57L121.33,63.16L122.89,63.16L213.11,64.32L214.67,64.52L220.89,65.49L222.44,65.88L233.33,66.07L234.89,66.07L280,66.65" style="vector-effect: non-scaling-stroke; fill: none; stroke: rgb(255, 161, 90); stroke-opacity: 1; stroke-width: 5px; opacity: 1;"/></g><g class="points"/><g class="text"/></g></g></g><g class="overplot"/><path class="xlines-above crisp" d="M0,0" style="fill: none;"/><path class="ylines-above crisp" d="M0,0" style="fill: none;"/><g class="overlines-above"/><g class="xaxislayer-above"/><g class="yaxislayer-above"/><g class="overaxes-above"/></g></g><g class="polarlayer"/><g class="smithlayer"/><g class="ternarylayer"/><g class="geolayer"/><g class="funnelarealayer"/><g class="pielayer"/><g class="iciclelayer"/><g class="treemaplayer"/><g class="sunburstlayer"/><g class="glimages"/><defs id="topdefs-632f1a"><g class="clips"/></defs><g class="layer-above"><g class="imagelayer"/><g class="shapelayer"/></g><g class="infolayer"><g class="g-gtitle"><text class="gtitle" x="15" y="25" text-anchor="start" dy="0em" style="font-family: Ubuntu, verdana, arial, sans-serif; font-size: 16px; fill: rgb(233, 84, 32); opacity: 1; font-weight: normal; white-space: pre;">Prezident/ka ČR 2023</text></g><g class="g-xtitle"/><g class="g-ytitle"/></g></svg>