<svg class="main-svg" xmlns="http://www.w3.org/2000/svg" xmlns:xlink="http://www.w3.org/1999/xlink" width="300" height="135" style="" viewBox="0 0 300 135"><rect x="0" y="0" width="300" height="135" style="fill: rgb(255, 255, 255); fill-opacity: 1;"/><defs id="defs-73cac1"><g class="clips"><clipPath id="clip73cac1xyplot" class="plotclip"><rect width="280" height="75"/></clipPath><clipPath class="axesclip" id="clip73cac1x"><rect x="10" y="0" width="280" height="135"/></clipPath><clipPath class="axesclip" id="clip73cac1y"><rect x="0" y="50" width="300" height="75"/></clipPath><clipPath class="axesclip" id="clip73cac1xy"><rect x="10" y="50" width="280" height="75"/></clipPath></g><g class="gradients"/><g class="patterns"/></defs><g class="bglayer"/><g class="layer-below"><g class="imagelayer"/><g class="shapelayer"/></g><g class="cartesianlayer"><g class="subplot xy"><g class="layer-subplot"><g class="shapelayer"/><g class="imagelayer"/></g><g class="minor-gridlayer"><g class="x"/><g class="y"/></g><g class="gridlayer"><g class="x"><path class="xgrid crisp" transform="translate(58.38,0)" d="M0,50v75" style="stroke: rgb(235, 240, 248); stroke-opacity: 1; stroke-width: 1px;"/><path class="xgrid crisp" transform="translate(147.8,0)" d="M0,50v75" style="stroke: rgb(235, 240, 248); stroke-opacity: 1; stroke-width: 1px;"/><path class="xgrid crisp" transform="translate(238.69,0)" d="M0,50v75" style="stroke: rgb(235, 240, 248); stroke-opacity: 1; stroke-width: 1px;"/></g><g class="y"><path class="ygrid crisp" transform="translate(0,105.85)" d="M10,0h280" style="stroke: rgb(235, 240, 248); stroke-opacity: 1; stroke-width: 1px;"/><path class="ygrid crisp" transform="translate(0,86.69)" d="M10,0h280" style="stroke: rgb(235, 240, 248); stroke-opacity: 1; stroke-width: 1px;"/><path class="ygrid crisp" transform="translate(0,67.53999999999999)" d="M10,0h280" style="stroke: rgb(235, 240, 248); stroke-opacity: 1; stroke-width: 1px;"/></g></g><g class="zerolinelayer"><path class="yzl zl crisp" transform="translate(0,125)" d="M10,0h280" style="stroke: rgb(235, 240, 248); stroke-opacity: 1; stroke-width: 2px;"/></g><path class="xlines-below"/><path class="ylines-below"/><g class="overlines-below"/><g class="xaxislayer-below"/><g class="yaxislayer-below"/><g class="overaxes-below"/><g class="plot" transform="translate(10,50)" clip-path="url(#clip73cac1xyplot)"><g class="scatterlayer mlayer"><g class="trace scatter traceda2cd9" style="stroke-miterlimit: 2; opacity: 1;"><g class="fills"/><g class="errorbars"/><g class="lines"><path class="js-line" d="M0,5.47L35.18,6.43L36.65,7.2L45.45,7.2L46.91,8.73L49.84,15.63L51.31,15.63L54.24,16.2L55.71,16.97L68.9,18.11L70.37,18.69L74.76,19.26L76.23,19.26L92.36,20.22L93.82,22.33L95.29,22.33L96.75,24.24L99.69,27.12L101.15,27.5L126.07,27.5L127.54,24.24L129.01,21.37L130.47,22.33L136.34,20.22L137.8,20.22L196.44,19.26L197.91,16.2L200.84,13.71L202.3,13.14L208.17,13.14L209.63,4.71L275.6,3.75L277.07,5.47L278.53,6.43L280,5.47" style="vector-effect: non-scaling-stroke; fill: none; stroke: rgb(99, 110, 250); stroke-opacity: 1; stroke-width: 5px; opacity: 1;"/></g><g class="points"/><g class="text"/></g><g class="trace scatter tracec88be7" style="stroke-miterlimit: 2; opacity: 1;"><g class="fills"/><g class="errorbars"/><g class="lines"><path class="js-line" d="M0,62.55L46.91,63.13L48.38,64.47L51.31,65.42L52.77,65.42L92.36,65.42L93.82,60.83L99.69,61.98L101.15,62.55L105.55,61.98L107.02,61.98L167.12,60.83L168.59,59.1L171.52,54.7L172.98,54.7L192.04,54.7L193.51,53.17L196.44,52.21L197.91,51.25L200.84,50.1L202.3,48.57L205.24,47.61L206.7,45.89L209.63,45.7L211.1,45.7L215.5,45.12L216.96,45.12L247.75,45.89L249.21,46.46L253.61,43.4L255.08,43.4L277.07,42.25L278.53,41.1L280,41.1" style="vector-effect: non-scaling-stroke; fill: none; stroke: rgb(239, 85, 59); stroke-opacity: 1; stroke-width: 5px; opacity: 1;"/></g><g class="points"/><g class="text"/></g><g class="trace scatter trace271561" style="stroke-miterlimit: 2; opacity: 1;"><g class="fills"/><g class="errorbars"/><g class="lines"><path class="js-line" d="M0,30.56L87.96,29.8L89.42,27.5L92.36,27.5L93.82,25.97L95.29,25.97L96.75,21.75L99.69,13.71L101.15,11.79L112.88,11.03L114.35,10.26L126.07,10.26L127.54,11.79L130.47,15.63L131.94,15.63L196.44,16.2L197.91,17.54L202.3,18.11L203.77,18.11L206.7,18.69L208.17,18.11L211.1,24.63L212.57,25.01L218.43,25.01L219.9,26.35L224.29,28.27L225.76,29.03L246.28,29.03L247.75,30.56L249.21,31.91L250.68,35.93L252.15,39.38L253.61,39.38L271.2,39.38L272.67,41.48L275.6,43.4L277.07,42.82L280,43.4" style="vector-effect: non-scaling-stroke; fill: none; stroke: rgb(0, 204, 150); stroke-opacity: 1; stroke-width: 5px; opacity: 1;"/></g><g class="points"/><g class="text"/></g><g class="trace scatter tracebbf9bc" style="stroke-miterlimit: 2; opacity: 1;"><g class="fills"/><g class="errorbars"/><g class="lines"><path class="js-line" d="M0,68.49L45.45,68.49L46.91,66.19L49.84,64.85L51.31,64.85L58.64,63.7L60.1,63.13L98.22,63.13L99.69,64.27L104.08,64.85L105.55,64.85L111.41,64.47L112.88,64.27L127.54,63.13L129.01,64.47L131.94,65.42L133.4,65.42L168.59,65.42L170.05,66.19L211.1,66.57L212.57,65.42L216.96,64.85L218.43,64.85L246.28,63.7L247.75,60.06L249.21,54.7L250.68,54.7L271.2,54.7L272.67,53.17L275.6,51.25L277.07,51.25L280,51.25" style="vector-effect: non-scaling-stroke; fill: none; stroke: rgb(171, 99, 250); stroke-opacity: 1; stroke-width: 5px; opacity: 1;"/></g><g class="points"/><g class="text"/></g><g class="trace scatter traced2c051" style="stroke-miterlimit: 2; opacity: 1;"><g class="fills"/><g class="errorbars"/><g class="lines"><path class="js-line" d="M0,61.4L95.29,61.98L96.75,62.36L107.02,62.55L108.48,62.55L114.35,63.13L115.81,63.13L200.84,64.27L202.3,64.47L208.17,65.42L209.63,66L219.9,66.19L221.36,66.19L274.14,66.57L275.6,65.23L277.07,63.7L278.53,64.08L280,64.08" style="vector-effect: non-scaling-stroke; fill: none; stroke: rgb(255, 161, 90); stroke-opacity: 1; stroke-width: 5px; opacity: 1;"/></g><g class="points"/><g class="text"/></g></g></g><g class="overplot"/><path class="xlines-above crisp" d="M0,0" style="fill: none;"/><path class="ylines-above crisp" d="M0,0" style="fill: none;"/><g class="overlines-above"/><g class="xaxislayer-above"/><g class="yaxislayer-above"/><g class="overaxes-above"/></g></g><g class="polarlayer"/><g class="smithlayer"/><g class="ternarylayer"/><g class="geolayer"/><g class="funnelarealayer"/><g class="pielayer"/><g class="iciclelayer"/><g class="treemaplayer"/><g class="sunburstlayer"/><g class="glimages"/><defs id="topdefs-73cac1"><g class="clips"/></defs><g class="layer-above"><g class="imagelayer"/><g class="shapelayer"/></g><g class="infolayer"><g class="g-gtitle"><text class="gtitle" x="15" y="25" text-anchor="start" dy="0em" style="font-family: Ubuntu, verdana, arial, sans-serif; font-size: 16px; fill: rgb(233, 84, 32); opacity: 1; font-weight: normal; white-space: pre;">Prezident/ka ČR 2023</text></g><g class="g-xtitle"/><g class="g-ytitle"/></g></svg>