<svg class="main-svg" xmlns="http://www.w3.org/2000/svg" xmlns:xlink="http://www.w3.org/1999/xlink" width="400" height="400" style="" viewBox="0 0 400 400"><rect x="0" y="0" width="400" height="400" style="fill: rgb(255, 255, 255); fill-opacity: 1;"/><defs id="defs-4f24fd"><g class="clips"><clipPath id="clip4f24fdxyplot" class="plotclip"><rect width="191" height="330"/></clipPath><clipPath class="axesclip" id="clip4f24fdx"><rect x="50" y="0" width="191" height="400"/></clipPath><clipPath class="axesclip" id="clip4f24fdy"><rect x="0" y="20" width="400" height="330"/></clipPath><clipPath class="axesclip" id="clip4f24fdxy"><rect x="50" y="20" width="191" height="330"/></clipPath></g><g class="gradients"/><g class="patterns"/></defs><g class="bglayer"/><g class="layer-below"><g class="imagelayer"/><g class="shapelayer"/></g><g class="cartesianlayer"><g class="subplot xy"><g class="layer-subplot"><g class="shapelayer"/><g class="imagelayer"/></g><g class="minor-gridlayer"><g class="x"/><g class="y"/></g><g class="gridlayer"><g class="x"><path class="xgrid crisp" transform="translate(71.73,0)" d="M0,20v330" style="stroke: rgb(235, 240, 248); stroke-opacity: 1; stroke-width: 1px;"/><path class="xgrid crisp" transform="translate(111.91,0)" d="M0,20v330" style="stroke: rgb(235, 240, 248); stroke-opacity: 1; stroke-width: 1px;"/><path class="xgrid crisp" transform="translate(152.74,0)" d="M0,20v330" style="stroke: rgb(235, 240, 248); stroke-opacity: 1; stroke-width: 1px;"/><path class="xgrid crisp" transform="translate(192.92,0)" d="M0,20v330" style="stroke: rgb(235, 240, 248); stroke-opacity: 1; stroke-width: 1px;"/><path class="xgrid crisp" transform="translate(233.1,0)" d="M0,20v330" style="stroke: rgb(235, 240, 248); stroke-opacity: 1; stroke-width: 1px;"/></g><g class="y"><path class="ygrid crisp" transform="translate(0,280.18)" d="M50,0h191" style="stroke: rgb(235, 240, 248); stroke-opacity: 1; stroke-width: 1px;"/><path class="ygrid crisp" transform="translate(0,210.36)" d="M50,0h191" style="stroke: rgb(235, 240, 248); stroke-opacity: 1; stroke-width: 1px;"/><path class="ygrid crisp" transform="translate(0,140.53)" d="M50,0h191" style="stroke: rgb(235, 240, 248); stroke-opacity: 1; stroke-width: 1px;"/><path class="ygrid crisp" transform="translate(0,70.71000000000001)" d="M50,0h191" style="stroke: rgb(235, 240, 248); stroke-opacity: 1; stroke-width: 1px;"/></g></g><g class="zerolinelayer"><path class="yzl zl crisp" transform="translate(0,350)" d="M50,0h191" style="stroke: rgb(235, 240, 248); stroke-opacity: 1; stroke-width: 2px;"/></g><path class="xlines-below"/><path class="ylines-below"/><g class="overlines-below"/><g class="xaxislayer-below"/><g class="yaxislayer-below"/><g class="overaxes-below"/><g class="plot" transform="translate(50,20)" clip-path="url(#clip4f24fdxyplot)"><g class="scatterlayer mlayer"><g class="trace scatter trace2511ef" style="stroke-miterlimit: 2; opacity: 1;"><g class="fills"/><g class="errorbars"/><g class="lines"><path class="js-line" d="M0,54.9L15.15,54.9L15.81,57.69L17.12,61.19L17.78,61.19L20.42,61.19L21.08,67.47L23.05,94.7L23.71,94.7L27,104.48L27.66,104.48L30.96,104.48L31.61,106.57L32.93,108.66L33.59,108.66L39.52,108.66L40.18,112.85L41.49,112.85L42.15,121.23L42.81,121.23L43.47,128.21L45.44,142.18L46.1,142.18L56.64,142.18L57.3,128.21L57.96,117.04L58.62,121.23L59.28,119.14L60.59,112.85L61.25,112.85L64.54,112.85L65.2,110.76L66.52,108.66L67.18,108.66L75.74,108.66L76.4,110.76L77.72,112.85L78.38,112.85L87.6,112.85L88.26,108.66L90.89,84.93L91.55,84.93L93.52,84.93L94.18,51.41L94.84,51.41L95.5,47.92L123.82,47.92L124.48,54.9L125.14,57.69L125.8,54.9L127.11,61.19L127.77,61.19L129.75,61.19L130.41,51.41L131.72,40.24L132.38,40.24L133.04,40.24L133.7,29.07L135.02,16.5" style="vector-effect: non-scaling-stroke; fill: none; stroke: rgb(99, 110, 250); stroke-opacity: 1; stroke-width: 5px; opacity: 1;"/></g><g class="points"/><g class="text"/></g><g class="trace scatter trace117f1f" style="stroke-miterlimit: 2; opacity: 1;"><g class="fills"/><g class="errorbars"/><g class="lines"><path class="js-line" d="M0,281.12L3.29,281.12L3.95,283.22L21.08,283.22L21.73,288.11L23.05,292.3L23.71,292.3L41.49,292.3L42.15,273.44L42.81,273.44L43.47,274.84L45.44,281.12L46.1,279.03L48.74,279.03L49.4,276.24L50.71,273.44L51.37,273.44L75.08,273.44L75.74,267.16L77.72,249.7L78.38,249.7L86.28,249.7L86.94,243.42L87.6,243.42L88.26,239.93L93.52,212.7L94.18,213.4L94.84,213.4L95.5,212L97.48,211.3L98.13,211.3L110.65,211.3L111.31,214.1L111.97,216.89L112.62,211.3L113.94,204.32L114.6,204.32L123.82,204.32L124.48,200.13L125.8,195.94L126.46,201.53L127.77,204.32L128.43,197.34L130.41,185.47L131.07,181.28L133.04,181.28L133.7,183.37L135.02,158.94" style="vector-effect: non-scaling-stroke; fill: none; stroke: rgb(239, 85, 59); stroke-opacity: 1; stroke-width: 5px; opacity: 1;"/></g><g class="points"/><g class="text"/></g><g class="trace scatter trace02d128" style="stroke-miterlimit: 2; opacity: 1;"><g class="fills"/><g class="errorbars"/><g class="lines"><path class="js-line" d="M0,153.35L15.15,153.35L15.81,151.95L17.78,150.56L18.44,150.56L39.52,150.56L40.18,142.18L41.49,142.18L42.15,135.2L42.81,135.2L43.47,119.14L45.44,79.34L46.1,79.34L50.06,79.34L50.71,76.55L52.03,73.75L52.69,73.75L56.64,73.75L57.3,79.34L59.28,94.7L59.93,94.7L87.6,94.7L88.26,97.49L90.23,104.48L90.89,104.48L91.55,104.48L92.21,106.57L92.87,106.57L93.52,104.48L95.5,131.71L96.16,131.71L98.13,131.71L98.79,137.29L101.43,147.77L102.09,147.77L110.65,147.77L111.31,153.35L111.97,158.94L112.62,175.69L113.94,188.96L114.6,188.96L121.84,188.96L122.5,197.34L123.82,204.32L124.48,202.23L125.8,204.32L126.46,204.32L127.11,204.32L127.77,209.91L129.75,216.89L130.41,227.36L131.72,235.74L132.38,235.74L133.7,235.74L134.36,246.21L135.02,254.59" style="vector-effect: non-scaling-stroke; fill: none; stroke: rgb(0, 204, 150); stroke-opacity: 1; stroke-width: 5px; opacity: 1;"/></g><g class="points"/><g class="text"/></g><g class="trace scatter trace99bddc" style="stroke-miterlimit: 2; opacity: 1;"><g class="fills"/><g class="errorbars"/><g class="lines"><path class="js-line" d="M0,323.72L21.08,323.72L21.73,325.11L23.71,326.51L24.37,326.51L123.82,325.81L124.48,323.72L127.77,296.49L128.43,295.79L132.38,289.5L133.04,289.5L133.7,289.5L134.36,290.9L135.02,292.3" style="vector-effect: non-scaling-stroke; fill: none; stroke: rgb(171, 99, 250); stroke-opacity: 1; stroke-width: 5px; opacity: 1;"/></g><g class="points"/><g class="text"/></g><g class="trace scatter tracefb5987" style="stroke-miterlimit: 2; opacity: 1;"><g class="fills"/><g class="errorbars"/><g class="lines"><path class="js-line" d="M0,276.24L3.29,276.24L3.95,273.44L25.69,273.44L26.34,276.24L27.66,279.03L28.32,279.03L43.47,279.73L44.13,281.12L49.4,281.82L50.06,283.22L75.08,283.22L75.74,284.62L77.06,286.71L77.72,286.71L90.23,287.41L90.89,288.11L92.21,288.81L92.87,290.9L95.5,294.39L96.16,294.39L112.62,294.39L113.28,296.49L123.16,296.49L123.82,290.9L124.48,284.62L125.14,286.71L125.8,286.71L126.46,286.71L127.11,289.5L133.7,289.5L134.36,296.49L135.02,302.07" style="vector-effect: non-scaling-stroke; fill: none; stroke: rgb(255, 161, 90); stroke-opacity: 1; stroke-width: 5px; opacity: 1;"/></g><g class="points"/><g class="text"/></g><g class="trace scatter trace03228c" style="stroke-miterlimit: 2; opacity: 1;"><g class="fills"/><g class="errorbars"/><g class="lines"><path class="js-line" d="M0,304.17L20.42,304.17L21.08,294.39L22.39,289.5L23.05,289.5L23.71,289.5L24.37,288.11L27.66,283.22L28.32,283.22L30.96,283.22L31.61,281.82L33.59,279.03L34.25,279.03L41.49,279.03L42.15,281.12L43.47,281.12L44.13,283.22L46.1,289.5L46.76,289.5L47.42,289.5L48.08,288.11L48.74,286.71L49.4,287.41L50.06,288.11L52.69,286.71L53.35,286.71L54.67,286.71L55.32,284.62L57.3,283.22L57.96,288.11L59.28,292.3L59.93,292.3L63.89,292.3L64.54,290.9L66.52,289.5L67.18,289.5L75.08,289.5L75.74,292.3L77.06,294.39L77.72,294.39L89.57,294.39L90.23,295.79L92.21,296.49L92.87,296.49L93.52,295.79L94.18,297.18L94.84,296.49L95.5,292.3L96.82,289.5L97.48,289.5L105.38,289.5L106.04,288.11L108.01,286.71L108.67,286.71L109.99,286.71L110.65,284.62L112.62,249.7L113.28,249.7L121.84,249.7L122.5,243.42L123.82,235.74L124.48,235.74L127.77,235.74L128.43,249.7L131.07,276.24L131.72,276.24L133.04,276.24L133.7,286.01L135.02,302.07" style="vector-effect: non-scaling-stroke; fill: none; stroke: rgb(25, 211, 243); stroke-opacity: 1; stroke-width: 5px; opacity: 1;"/></g><g class="points"/><g class="text"/></g><g class="trace scatter trace8a2569" style="stroke-miterlimit: 2; opacity: 1;"><g class="fills"/><g class="errorbars"/><g class="lines"><path class="js-line" d="M0,314.64L21.73,315.34L22.39,316.04L57.3,316.04L57.96,314.64L59.93,313.94L60.59,313.94L75.08,313.94L75.74,311.85L77.06,309.05L77.72,309.05L93.52,309.75L94.18,308.36L112.62,309.05L113.28,309.75L124.48,310.45L125.14,312.54L127.11,313.94L127.77,313.94L135.02,313.94" style="vector-effect: non-scaling-stroke; fill: none; stroke: rgb(255, 102, 146); stroke-opacity: 1; stroke-width: 5px; opacity: 1;"/></g><g class="points"/><g class="text"/></g><g class="trace scatter trace8395f4" style="stroke-miterlimit: 2; opacity: 1;"><g class="fills"/><g class="errorbars"/><g class="lines"><path class="js-line" d="M106.7,307.66L115.92,308.36L116.58,309.75L118.55,311.15L119.21,311.15L124.48,311.15L125.14,312.54L127.77,316.04L128.43,316.04L135.02,316.04" style="vector-effect: non-scaling-stroke; fill: none; stroke: rgb(182, 232, 128); stroke-opacity: 1; stroke-width: 5px; opacity: 1;"/></g><g class="points"/><g class="text"/></g><g class="trace scatter traceabecd1" style="stroke-miterlimit: 2; opacity: 1;"><g class="fills"/><g class="errorbars"/><g class="lines"><path class="js-line" d="M0,323.72L92.21,324.41L92.87,325.11L93.52,325.11L94.18,323.02L96.16,315.34L96.82,315.34L98.13,315.34L98.79,313.24L101.43,307.66L102.09,307.66L106.04,307.66L106.7,304.86L108.01,302.07L108.67,302.07L110.65,302.07L111.31,304.86L112.62,307.66L113.28,304.86L115.92,303.47L116.58,299.98L118.55,298.58L119.21,298.58L123.82,298.58L124.48,306.26L126.46,313.94L127.11,313.94L134.36,314.64L135.02,316.04" style="vector-effect: non-scaling-stroke; fill: none; stroke: rgb(255, 151, 255); stroke-opacity: 1; stroke-width: 5px; opacity: 1;"/></g><g class="points"/><g class="text"/></g></g></g><g class="overplot"/><path class="xlines-above crisp" d="M0,0" style="fill: none;"/><path class="ylines-above crisp" d="M0,0" style="fill: none;"/><g class="overlines-above"/><g class="xaxislayer-above"><g class="xtick"><text text-anchor="middle" x="0" y="363" transform="translate(71.73,0)" style="font-family: 'Open Sans', verdana, arial, sans-serif; font-size: 12px; fill: rgb(42, 63, 95); fill-opacity: 1; white-space: pre; opacity: 1;">1.5.22</text></g><g class="xtick"><text text-anchor="middle" x="0" y="363" style="font-family: 'Open Sans', verdana, arial, sans-serif; font-size: 12px; fill: rgb(42, 63, 95); fill-opacity: 1; white-space: pre; opacity: 1;" transform="translate(111.91,0)">1.7.22</text></g><g class="xtick"><text text-anchor="middle" x="0" y="363" style="font-family: 'Open Sans', verdana, arial, sans-serif; font-size: 12px; fill: rgb(42, 63, 95); fill-opacity: 1; white-space: pre; opacity: 1;" transform="translate(152.74,0)">1.9.22</text></g><g class="xtick"><text text-anchor="middle" x="0" y="363" style="font-family: 'Open Sans', verdana, arial, sans-serif; font-size: 12px; fill: rgb(42, 63, 95); fill-opacity: 1; white-space: pre; opacity: 1;" transform="translate(192.92,0)">1.11.22</text></g><g class="xtick"><text text-anchor="middle" x="0" y="363" style="font-family: 'Open Sans', verdana, arial, sans-serif; font-size: 12px; fill: rgb(42, 63, 95); fill-opacity: 1; white-space: pre; opacity: 1;" transform="translate(233.1,0)">1.1.23</text></g></g><g class="yaxislayer-above"><g class="ytick"><text text-anchor="end" x="49" y="4.199999999999999" transform="translate(0,350)" style="font-family: 'Open Sans', verdana, arial, sans-serif; font-size: 12px; fill: rgb(42, 63, 95); fill-opacity: 1; white-space: pre; opacity: 1;">0%</text></g><g class="ytick"><text text-anchor="end" x="49" y="4.199999999999999" style="font-family: 'Open Sans', verdana, arial, sans-serif; font-size: 12px; fill: rgb(42, 63, 95); fill-opacity: 1; white-space: pre; opacity: 1;" transform="translate(0,280.18)">10%</text></g><g class="ytick"><text text-anchor="end" x="49" y="4.199999999999999" style="font-family: 'Open Sans', verdana, arial, sans-serif; font-size: 12px; fill: rgb(42, 63, 95); fill-opacity: 1; white-space: pre; opacity: 1;" transform="translate(0,210.36)">20%</text></g><g class="ytick"><text text-anchor="end" x="49" y="4.199999999999999" style="font-family: 'Open Sans', verdana, arial, sans-serif; font-size: 12px; fill: rgb(42, 63, 95); fill-opacity: 1; white-space: pre; opacity: 1;" transform="translate(0,140.53)">30%</text></g><g class="ytick"><text text-anchor="end" x="49" y="4.199999999999999" style="font-family: 'Open Sans', verdana, arial, sans-serif; font-size: 12px; fill: rgb(42, 63, 95); fill-opacity: 1; white-space: pre; opacity: 1;" transform="translate(0,70.71000000000001)">40%</text></g></g><g class="overaxes-above"/></g></g><g class="polarlayer"/><g class="smithlayer"/><g class="ternarylayer"/><g class="geolayer"/><g class="funnelarealayer"/><g class="pielayer"/><g class="iciclelayer"/><g class="treemaplayer"/><g class="sunburstlayer"/><g class="glimages"/><defs id="topdefs-4f24fd"><g class="clips"/><clipPath id="legend4f24fd"><rect width="143" height="181" x="0" y="0"/></clipPath></defs><g class="layer-above"><g class="imagelayer"/><g class="shapelayer"/></g><g class="infolayer"><g class="legend" pointer-events="all" transform="translate(244.82,20)"><rect class="bg" shape-rendering="crispEdges" width="143" height="181" x="0" y="0" style="stroke: rgb(68, 68, 68); stroke-opacity: 1; fill: rgb(255, 255, 255); fill-opacity: 1; stroke-width: 0px;"/><g class="scrollbox" transform="" clip-path="url(#legend4f24fd)"><g class="groups"><g class="traces" transform="translate(0,14.5)" style="opacity: 1;"><text class="legendtext" text-anchor="start" x="40" y="4.680000000000001" style="font-family: 'Open Sans', verdana, arial, sans-serif; font-size: 12px; fill: rgb(42, 63, 95); fill-opacity: 1; white-space: pre;">Pavel Petr</text><g class="layers" style="opacity: 1;"><g class="legendfill"/><g class="legendlines"><path class="js-line" d="M5,0h30" style="fill: none; stroke: rgb(99, 110, 250); stroke-opacity: 1; stroke-width: 5px;"/></g><g class="legendsymbols"><g class="legendpoints"/></g></g><rect class="legendtoggle" x="0" y="-9.5" width="137.0625" height="19" style="fill: rgb(0, 0, 0); fill-opacity: 0;"/></g><g class="traces" transform="translate(0,33.5)" style="opacity: 1;"><text class="legendtext" text-anchor="start" x="40" y="4.680000000000001" style="font-family: 'Open Sans', verdana, arial, sans-serif; font-size: 12px; fill: rgb(42, 63, 95); fill-opacity: 1; white-space: pre;">Nerudová Danuše</text><g class="layers" style="opacity: 1;"><g class="legendfill"/><g class="legendlines"><path class="js-line" d="M5,0h30" style="fill: none; stroke: rgb(239, 85, 59); stroke-opacity: 1; stroke-width: 5px;"/></g><g class="legendsymbols"><g class="legendpoints"/></g></g><rect class="legendtoggle" x="0" y="-9.5" width="137.0625" height="19" style="fill: rgb(0, 0, 0); fill-opacity: 0;"/></g><g class="traces" transform="translate(0,52.5)" style="opacity: 1;"><text class="legendtext" text-anchor="start" x="40" y="4.680000000000001" style="font-family: 'Open Sans', verdana, arial, sans-serif; font-size: 12px; fill: rgb(42, 63, 95); fill-opacity: 1; white-space: pre;">Babiš Andrej</text><g class="layers" style="opacity: 1;"><g class="legendfill"/><g class="legendlines"><path class="js-line" d="M5,0h30" style="fill: none; stroke: rgb(0, 204, 150); stroke-opacity: 1; stroke-width: 5px;"/></g><g class="legendsymbols"><g class="legendpoints"/></g></g><rect class="legendtoggle" x="0" y="-9.5" width="137.0625" height="19" style="fill: rgb(0, 0, 0); fill-opacity: 0;"/></g><g class="traces" transform="translate(0,71.5)" style="opacity: 1;"><text class="legendtext" text-anchor="start" x="40" y="4.680000000000001" style="font-family: 'Open Sans', verdana, arial, sans-serif; font-size: 12px; fill: rgb(42, 63, 95); fill-opacity: 1; white-space: pre;">Stropnický Martin</text><g class="layers" style="opacity: 1;"><g class="legendfill"/><g class="legendlines"><path class="js-line" d="M5,0h30" style="fill: none; stroke: rgb(171, 99, 250); stroke-opacity: 1; stroke-width: 5px;"/></g><g class="legendsymbols"><g class="legendpoints"/></g></g><rect class="legendtoggle" x="0" y="-9.5" width="137.0625" height="19" style="fill: rgb(0, 0, 0); fill-opacity: 0;"/></g><g class="traces" transform="translate(0,90.5)" style="opacity: 1;"><text class="legendtext" text-anchor="start" x="40" y="4.680000000000001" style="font-family: 'Open Sans', verdana, arial, sans-serif; font-size: 12px; fill: rgb(42, 63, 95); fill-opacity: 1; white-space: pre;">Fischer Pavel</text><g class="layers" style="opacity: 1;"><g class="legendfill"/><g class="legendlines"><path class="js-line" d="M5,0h30" style="fill: none; stroke: rgb(255, 161, 90); stroke-opacity: 1; stroke-width: 5px;"/></g><g class="legendsymbols"><g class="legendpoints"/></g></g><rect class="legendtoggle" x="0" y="-9.5" width="137.0625" height="19" style="fill: rgb(0, 0, 0); fill-opacity: 0;"/></g><g class="traces" transform="translate(0,109.5)" style="opacity: 1;"><text class="legendtext" text-anchor="start" x="40" y="4.680000000000001" style="font-family: 'Open Sans', verdana, arial, sans-serif; font-size: 12px; fill: rgb(42, 63, 95); fill-opacity: 1; white-space: pre;">Středula Josef</text><g class="layers" style="opacity: 1;"><g class="legendfill"/><g class="legendlines"><path class="js-line" d="M5,0h30" style="fill: none; stroke: rgb(25, 211, 243); stroke-opacity: 1; stroke-width: 5px;"/></g><g class="legendsymbols"><g class="legendpoints"/></g></g><rect class="legendtoggle" x="0" y="-9.5" width="137.0625" height="19" style="fill: rgb(0, 0, 0); fill-opacity: 0;"/></g><g class="traces" transform="translate(0,128.5)" style="opacity: 1;"><text class="legendtext" text-anchor="start" x="40" y="4.680000000000001" style="font-family: 'Open Sans', verdana, arial, sans-serif; font-size: 12px; fill: rgb(42, 63, 95); fill-opacity: 1; white-space: pre;">Hilšer Marek</text><g class="layers" style="opacity: 1;"><g class="legendfill"/><g class="legendlines"><path class="js-line" d="M5,0h30" style="fill: none; stroke: rgb(255, 102, 146); stroke-opacity: 1; stroke-width: 5px;"/></g><g class="legendsymbols"><g class="legendpoints"/></g></g><rect class="legendtoggle" x="0" y="-9.5" width="137.0625" height="19" style="fill: rgb(0, 0, 0); fill-opacity: 0;"/></g><g class="traces" transform="translate(0,147.5)" style="opacity: 1;"><text class="legendtext" text-anchor="start" x="40" y="4.680000000000001" style="font-family: 'Open Sans', verdana, arial, sans-serif; font-size: 12px; fill: rgb(42, 63, 95); fill-opacity: 1; white-space: pre;">Havlíček Karel</text><g class="layers" style="opacity: 1;"><g class="legendfill"/><g class="legendlines"><path class="js-line" d="M5,0h30" style="fill: none; stroke: rgb(182, 232, 128); stroke-opacity: 1; stroke-width: 5px;"/></g><g class="legendsymbols"><g class="legendpoints"/></g></g><rect class="legendtoggle" x="0" y="-9.5" width="137.0625" height="19" style="fill: rgb(0, 0, 0); fill-opacity: 0;"/></g><g class="traces" transform="translate(0,166.5)" style="opacity: 1;"><text class="legendtext" text-anchor="start" x="40" y="4.680000000000001" style="font-family: 'Open Sans', verdana, arial, sans-serif; font-size: 12px; fill: rgb(42, 63, 95); fill-opacity: 1; white-space: pre;">Schillerová Alena</text><g class="layers" style="opacity: 1;"><g class="legendfill"/><g class="legendlines"><path class="js-line" d="M5,0h30" style="fill: none; stroke: rgb(255, 151, 255); stroke-opacity: 1; stroke-width: 5px;"/></g><g class="legendsymbols"><g class="legendpoints"/></g></g><rect class="legendtoggle" x="0" y="-9.5" width="137.0625" height="19" style="fill: rgb(0, 0, 0); fill-opacity: 0;"/></g></g></g><rect class="scrollbar" rx="20" ry="3" width="0" height="0" x="0" y="0" style="fill: rgb(128, 139, 164); fill-opacity: 1;"/></g><g class="g-gtitle"/><g class="g-xtitle"/><g class="g-ytitle"/></g></svg>