<svg class="main-svg" xmlns="http://www.w3.org/2000/svg" xmlns:xlink="http://www.w3.org/1999/xlink" width="1200" height="600" style="" viewBox="0 0 1200 600"><rect x="0" y="0" width="1200" height="600" style="fill: rgb(255, 255, 255); fill-opacity: 1;"/><defs id="defs-4a759c"><g class="clips"><clipPath id="clip4a759cxyplot" class="plotclip"><rect width="975" height="530"/></clipPath><clipPath class="axesclip" id="clip4a759cx"><rect x="50" y="0" width="975" height="600"/></clipPath><clipPath class="axesclip" id="clip4a759cy"><rect x="0" y="20" width="1200" height="530"/></clipPath><clipPath class="axesclip" id="clip4a759cxy"><rect x="50" y="20" width="975" height="530"/></clipPath></g><g class="gradients"/><g class="patterns"/></defs><g class="bglayer"/><g class="layer-below"><g class="imagelayer"/><g class="shapelayer"/></g><g class="cartesianlayer"><g class="subplot xy"><g class="layer-subplot"><g class="shapelayer"/><g class="imagelayer"/></g><g class="minor-gridlayer"><g class="x"/><g class="y"/></g><g class="gridlayer"><g class="x"><path class="xgrid crisp" transform="translate(60.09,0)" d="M0,20v530" style="stroke: rgb(235, 240, 248); stroke-opacity: 1; stroke-width: 1px;"/><path class="xgrid crisp" transform="translate(160.95,0)" d="M0,20v530" style="stroke: rgb(235, 240, 248); stroke-opacity: 1; stroke-width: 1px;"/><path class="xgrid crisp" transform="translate(265.16999999999996,0)" d="M0,20v530" style="stroke: rgb(235, 240, 248); stroke-opacity: 1; stroke-width: 1px;"/><path class="xgrid crisp" transform="translate(366.03,0)" d="M0,20v530" style="stroke: rgb(235, 240, 248); stroke-opacity: 1; stroke-width: 1px;"/><path class="xgrid crisp" transform="translate(470.26,0)" d="M0,20v530" style="stroke: rgb(235, 240, 248); stroke-opacity: 1; stroke-width: 1px;"/><path class="xgrid crisp" transform="translate(574.48,0)" d="M0,20v530" style="stroke: rgb(235, 240, 248); stroke-opacity: 1; stroke-width: 1px;"/><path class="xgrid crisp" transform="translate(675.34,0)" d="M0,20v530" style="stroke: rgb(235, 240, 248); stroke-opacity: 1; stroke-width: 1px;"/><path class="xgrid crisp" transform="translate(779.57,0)" d="M0,20v530" style="stroke: rgb(235, 240, 248); stroke-opacity: 1; stroke-width: 1px;"/><path class="xgrid crisp" transform="translate(880.43,0)" d="M0,20v530" style="stroke: rgb(235, 240, 248); stroke-opacity: 1; stroke-width: 1px;"/><path class="xgrid crisp" transform="translate(984.66,0)" d="M0,20v530" style="stroke: rgb(235, 240, 248); stroke-opacity: 1; stroke-width: 1px;"/></g><g class="y"><path class="ygrid crisp" transform="translate(0,458.79)" d="M50,0h975" style="stroke: rgb(235, 240, 248); stroke-opacity: 1; stroke-width: 1px;"/><path class="ygrid crisp" transform="translate(0,367.57)" d="M50,0h975" style="stroke: rgb(235, 240, 248); stroke-opacity: 1; stroke-width: 1px;"/><path class="ygrid crisp" transform="translate(0,276.36)" d="M50,0h975" style="stroke: rgb(235, 240, 248); stroke-opacity: 1; stroke-width: 1px;"/><path class="ygrid crisp" transform="translate(0,185.14)" d="M50,0h975" style="stroke: rgb(235, 240, 248); stroke-opacity: 1; stroke-width: 1px;"/><path class="ygrid crisp" transform="translate(0,93.93)" d="M50,0h975" style="stroke: rgb(235, 240, 248); stroke-opacity: 1; stroke-width: 1px;"/></g></g><g class="zerolinelayer"><path class="yzl zl crisp" transform="translate(0,550)" d="M50,0h975" style="stroke: rgb(235, 240, 248); stroke-opacity: 1; stroke-width: 2px;"/></g><path class="xlines-below"/><path class="ylines-below"/><g class="overlines-below"/><g class="xaxislayer-below"/><g class="yaxislayer-below"/><g class="overaxes-below"/><g class="plot" transform="translate(50,20)" clip-path="url(#clip4a759cxyplot)"><g class="scatterlayer mlayer"><g class="trace scatter tracea249c6" style="stroke-miterlimit: 2; opacity: 1;"><g class="fills"/><g class="errorbars"/><g class="lines"><path class="js-line" d="M0,112.24L77.33,112.24L80.69,117.71L84.05,122.27L87.41,122.27L104.22,122.27L107.59,132.31L114.31,173.35L117.67,173.35L121.03,173.35L124.4,177L127.76,180.65L131.12,180.65L137.84,187.95L141.21,187.95L158.02,187.95L161.38,190.68L164.74,194.33L168.1,194.33L201.72,194.33L205.09,200.72L211.81,200.72L215.17,212.58L218.53,212.58L221.9,224.43L225.26,237.2L228.62,242.68L231.98,244.5L235.34,244.5L289.14,244.5L292.5,224.43L295.86,207.1L299.22,212.58L302.59,209.84L305.95,200.72L329.48,200.72L332.84,197.98L336.21,194.33L339.57,194.33L386.64,194.33L390,197.98L393.36,200.72L396.72,200.72L447.16,200.72L450.52,194.33L457.24,166.06L460.6,161.5L463.97,157.85L467.33,157.85L477.41,157.85L480.78,107.68L484.14,107.68L487.5,102.21L632.07,102.21L635.43,112.24L638.79,117.71L642.16,112.24L645.52,122.27L648.88,122.27L662.33,122.27L665.69,107.68L669.05,91.26L672.41,91.26L679.14,91.26L682.5,73.93L689.22,41.09L692.59,26.5L699.31,26.5L726.21,79.4L732.93,91.26L739.66,91.26L743.02,79.4L746.38,79.4L749.74,85.79L753.1,112.24L756.47,141.43L759.83,122.27L803.53,122.27L806.9,117.71L810.26,107.68L813.62,102.21L816.98,102.21L820.34,149.64L833.79,149.64L843.88,187.95L850.6,194.33L853.97,194.33L860.69,244.5L864.05,244.5L874.14,244.5L877.5,234.47L880.86,244.5L884.22,244.5L887.59,249.06L890.95,229.91L894.31,218.96L897.67,200.72L901.03,173.35L904.4,173.35L927.93,173.35L931.29,157.85L934.66,157.85L938.02,145.08L941.38,132.31L944.74,132.31L948.1,132.31L951.47,67.55" style="vector-effect: non-scaling-stroke; fill: none; stroke: rgb(99, 110, 250); stroke-opacity: 1; stroke-width: 5px; opacity: 1;"/></g><g class="points"/><g class="text"/></g><g class="trace scatter tracecdd4fc" style="stroke-miterlimit: 2; opacity: 1;"><g class="fills"/><g class="errorbars"/><g class="lines"><path class="js-line" d="M0,455.2L16.81,455.2L20.17,458.85L107.59,458.85L110.95,466.15L114.31,472.54L117.67,472.54L211.81,472.54L215.17,444.26L218.53,444.26L221.9,446.08L231.98,455.2L235.34,452.47L248.79,452.47L252.16,448.82L255.52,444.26L258.88,444.26L383.28,444.26L386.64,435.14L390,415.98L393.36,407.77L440.43,407.77L443.79,398.65L447.16,398.65L450.52,393.18L453.88,387.71L457.24,387.71L463.97,371.29L467.33,371.29L470.69,365.82L474.05,355.78L477.41,352.13L480.78,353.96L484.14,353.96L487.5,351.22L490.86,349.4L494.22,349.4L564.83,349.4L568.19,354.87L571.55,358.52L574.91,349.4L578.28,339.36L581.64,339.36L632.07,339.36L635.43,332.98L638.79,326.59L642.16,326.59L645.52,335.71L648.88,339.36L652.24,339.36L655.6,328.42L658.97,315.65L662.33,315.65L669.05,304.7L672.41,304.7L679.14,304.7L682.5,307.44L689.22,270.95L692.59,270.95L699.31,270.95L726.21,308.35L729.57,315.65L732.93,315.65L739.66,315.65L743.02,321.12L746.38,321.12L749.74,318.38L753.1,307.44L756.47,285.55L780,285.55L783.36,281.9L800.17,281.9L803.53,280.07L806.9,278.25L810.26,274.6L813.62,278.25L816.98,270.95L820.34,253.62L823.71,253.62L833.79,253.62L843.88,212.58L850.6,200.72L853.97,200.72L860.69,112.24L864.05,112.24L874.14,112.24L877.5,122.27L884.22,102.21L887.59,102.21L897.67,157.85L901.03,173.35L927.93,173.35L931.29,187.95L934.66,187.95L938.02,200.72L941.38,212.58L944.74,212.58L948.1,212.58L951.47,270.95" style="vector-effect: non-scaling-stroke; fill: none; stroke: rgb(239, 85, 59); stroke-opacity: 1; stroke-width: 5px; opacity: 1;"/></g><g class="points"/><g class="text"/></g><g class="trace scatter trace4c76ba" style="stroke-miterlimit: 2; opacity: 1;"><g class="fills"/><g class="errorbars"/><g class="lines"><path class="js-line" d="M0,262.74L77.33,262.74L80.69,260.01L84.05,258.18L87.41,258.18L201.72,258.18L205.09,244.5L211.81,244.5L215.17,234.47L218.53,234.47L221.9,209.84L225.26,177L228.62,161.5L231.98,149.64L235.34,149.64L255.52,149.64L258.88,145.08L262.24,141.43L265.6,141.43L289.14,141.43L292.5,149.64L295.86,166.06L299.22,173.35L447.16,173.35L450.52,177L453.88,184.3L457.24,187.95L467.33,187.95L470.69,190.68L474.05,190.68L477.41,187.95L480.78,221.7L484.14,227.17L487.5,229.91L490.86,229.91L500.95,229.91L504.31,237.2L507.67,244.5L511.03,244.5L517.76,253.62L521.12,253.62L564.83,253.62L568.19,262.74L571.55,270.95L574.91,295.58L578.28,315.65L581.64,315.65L621.98,315.65L625.34,328.42L628.71,339.36L632.07,339.36L635.43,336.63L638.79,339.36L648.88,339.36L652.24,347.57L658.97,358.52L662.33,358.52L669.05,387.71L672.41,387.71L682.5,387.71L685.86,403.21L689.22,415.98L692.59,415.98L699.31,415.98L726.21,278.25L729.57,264.57L732.93,258.18L739.66,258.18L743.02,278.25L749.74,278.25L753.1,281.9L756.47,285.55L759.83,285.55L780,285.55L783.36,289.2L803.53,289.2L806.9,291.02L810.26,289.2L813.62,285.55L816.98,285.55L820.34,253.62L833.79,253.62L843.88,249.06L853.97,249.06L857.33,272.78L860.69,298.32L864.05,298.32L880.86,298.32L884.22,304.7L894.31,304.7L897.67,310.17L901.03,315.65L904.4,315.65L927.93,315.65L931.29,326.59L934.66,326.59L938.02,323.86L941.38,321.12L944.74,321.12L948.1,321.12L951.47,339.36" style="vector-effect: non-scaling-stroke; fill: none; stroke: rgb(0, 204, 150); stroke-opacity: 1; stroke-width: 5px; opacity: 1;"/></g><g class="points"/><g class="text"/></g></g></g><g class="overplot"/><path class="xlines-above crisp" d="M0,0" style="fill: none;"/><path class="ylines-above crisp" d="M0,0" style="fill: none;"/><g class="overlines-above"/><g class="xaxislayer-above"><g class="xtick"><text text-anchor="middle" x="0" y="563" transform="translate(60.09,0)" style="font-family: 'Open Sans', verdana, arial, sans-serif; font-size: 12px; fill: rgb(42, 63, 95); fill-opacity: 1; white-space: pre; opacity: 1;">1.4.22</text></g><g class="xtick"><text text-anchor="middle" x="0" y="563" style="font-family: 'Open Sans', verdana, arial, sans-serif; font-size: 12px; fill: rgb(42, 63, 95); fill-opacity: 1; white-space: pre; opacity: 1;" transform="translate(160.95,0)">1.5.22</text></g><g class="xtick"><text text-anchor="middle" x="0" y="563" style="font-family: 'Open Sans', verdana, arial, sans-serif; font-size: 12px; fill: rgb(42, 63, 95); fill-opacity: 1; white-space: pre; opacity: 1;" transform="translate(265.16999999999996,0)">1.6.22</text></g><g class="xtick"><text text-anchor="middle" x="0" y="563" style="font-family: 'Open Sans', verdana, arial, sans-serif; font-size: 12px; fill: rgb(42, 63, 95); fill-opacity: 1; white-space: pre; opacity: 1;" transform="translate(366.03,0)">1.7.22</text></g><g class="xtick"><text text-anchor="middle" x="0" y="563" style="font-family: 'Open Sans', verdana, arial, sans-serif; font-size: 12px; fill: rgb(42, 63, 95); fill-opacity: 1; white-space: pre; opacity: 1;" transform="translate(470.26,0)">1.8.22</text></g><g class="xtick"><text text-anchor="middle" x="0" y="563" style="font-family: 'Open Sans', verdana, arial, sans-serif; font-size: 12px; fill: rgb(42, 63, 95); fill-opacity: 1; white-space: pre; opacity: 1;" transform="translate(574.48,0)">1.9.22</text></g><g class="xtick"><text text-anchor="middle" x="0" y="563" style="font-family: 'Open Sans', verdana, arial, sans-serif; font-size: 12px; fill: rgb(42, 63, 95); fill-opacity: 1; white-space: pre; opacity: 1;" transform="translate(675.34,0)">1.10.22</text></g><g class="xtick"><text text-anchor="middle" x="0" y="563" style="font-family: 'Open Sans', verdana, arial, sans-serif; font-size: 12px; fill: rgb(42, 63, 95); fill-opacity: 1; white-space: pre; opacity: 1;" transform="translate(779.57,0)">1.11.22</text></g><g class="xtick"><text text-anchor="middle" x="0" y="563" style="font-family: 'Open Sans', verdana, arial, sans-serif; font-size: 12px; fill: rgb(42, 63, 95); fill-opacity: 1; white-space: pre; opacity: 1;" transform="translate(880.43,0)">1.12.22</text></g><g class="xtick"><text text-anchor="middle" x="0" y="563" style="font-family: 'Open Sans', verdana, arial, sans-serif; font-size: 12px; fill: rgb(42, 63, 95); fill-opacity: 1; white-space: pre; opacity: 1;" transform="translate(984.66,0)">1.1.23</text></g></g><g class="yaxislayer-above"><g class="ytick"><text text-anchor="end" x="49" y="4.199999999999999" transform="translate(0,550)" style="font-family: 'Open Sans', verdana, arial, sans-serif; font-size: 12px; fill: rgb(42, 63, 95); fill-opacity: 1; white-space: pre; opacity: 1;">0%</text></g><g class="ytick"><text text-anchor="end" x="49" y="4.199999999999999" style="font-family: 'Open Sans', verdana, arial, sans-serif; font-size: 12px; fill: rgb(42, 63, 95); fill-opacity: 1; white-space: pre; opacity: 1;" transform="translate(0,458.79)">10%</text></g><g class="ytick"><text text-anchor="end" x="49" y="4.199999999999999" style="font-family: 'Open Sans', verdana, arial, sans-serif; font-size: 12px; fill: rgb(42, 63, 95); fill-opacity: 1; white-space: pre; opacity: 1;" transform="translate(0,367.57)">20%</text></g><g class="ytick"><text text-anchor="end" x="49" y="4.199999999999999" style="font-family: 'Open Sans', verdana, arial, sans-serif; font-size: 12px; fill: rgb(42, 63, 95); fill-opacity: 1; white-space: pre; opacity: 1;" transform="translate(0,276.36)">30%</text></g><g class="ytick"><text text-anchor="end" x="49" y="4.199999999999999" style="font-family: 'Open Sans', verdana, arial, sans-serif; font-size: 12px; fill: rgb(42, 63, 95); fill-opacity: 1; white-space: pre; opacity: 1;" transform="translate(0,185.14)">40%</text></g><g class="ytick"><text text-anchor="end" x="49" y="4.199999999999999" style="font-family: 'Open Sans', verdana, arial, sans-serif; font-size: 12px; fill: rgb(42, 63, 95); fill-opacity: 1; white-space: pre; opacity: 1;" transform="translate(0,93.93)">50%</text></g></g><g class="overaxes-above"/></g></g><g class="polarlayer"/><g class="smithlayer"/><g class="ternarylayer"/><g class="geolayer"/><g class="funnelarealayer"/><g class="pielayer"/><g class="iciclelayer"/><g class="treemaplayer"/><g class="sunburstlayer"/><g class="glimages"/><defs id="topdefs-4a759c"><g class="clips"/><clipPath id="legend4a759c"><rect width="143" height="67" x="0" y="0"/></clipPath></defs><g class="layer-above"><g class="imagelayer"/><g class="shapelayer"/></g><g class="infolayer"><g class="legend" pointer-events="all" transform="translate(1044.5,20)"><rect class="bg" shape-rendering="crispEdges" style="stroke: rgb(68, 68, 68); stroke-opacity: 1; fill: rgb(255, 255, 255); fill-opacity: 1; stroke-width: 0px;" width="143" height="67" x="0" y="0"/><g class="scrollbox" transform="" clip-path="url(#legend4a759c)"><g class="groups"><g class="traces" transform="translate(0,14.5)" style="opacity: 1;"><text class="legendtext" text-anchor="start" x="40" y="4.680000000000001" style="font-family: 'Open Sans', verdana, arial, sans-serif; font-size: 12px; fill: rgb(42, 63, 95); fill-opacity: 1; white-space: pre;">Pavel Petr</text><g class="layers" style="opacity: 1;"><g class="legendfill"/><g class="legendlines"><path class="js-line" d="M5,0h30" style="fill: none; stroke: rgb(99, 110, 250); stroke-opacity: 1; stroke-width: 5px;"/></g><g class="legendsymbols"><g class="legendpoints"/></g></g><rect class="legendtoggle" x="0" y="-9.5" width="137.0625" height="19" style="fill: rgb(0, 0, 0); fill-opacity: 0;"/></g><g class="traces" transform="translate(0,33.5)" style="opacity: 1;"><text class="legendtext" text-anchor="start" x="40" y="4.680000000000001" style="font-family: 'Open Sans', verdana, arial, sans-serif; font-size: 12px; fill: rgb(42, 63, 95); fill-opacity: 1; white-space: pre;">Nerudová Danuše</text><g class="layers" style="opacity: 1;"><g class="legendfill"/><g class="legendlines"><path class="js-line" d="M5,0h30" style="fill: none; stroke: rgb(239, 85, 59); stroke-opacity: 1; stroke-width: 5px;"/></g><g class="legendsymbols"><g class="legendpoints"/></g></g><rect class="legendtoggle" x="0" y="-9.5" width="137.0625" height="19" style="fill: rgb(0, 0, 0); fill-opacity: 0;"/></g><g class="traces" transform="translate(0,52.5)" style="opacity: 1;"><text class="legendtext" text-anchor="start" x="40" y="4.680000000000001" style="font-family: 'Open Sans', verdana, arial, sans-serif; font-size: 12px; fill: rgb(42, 63, 95); fill-opacity: 1; white-space: pre;">Babiš Andrej</text><g class="layers" style="opacity: 1;"><g class="legendfill"/><g class="legendlines"><path class="js-line" d="M5,0h30" style="fill: none; stroke: rgb(0, 204, 150); stroke-opacity: 1; stroke-width: 5px;"/></g><g class="legendsymbols"><g class="legendpoints"/></g></g><rect class="legendtoggle" x="0" y="-9.5" width="137.0625" height="19" style="fill: rgb(0, 0, 0); fill-opacity: 0;"/></g></g></g><rect class="scrollbar" rx="20" ry="3" width="0" height="0" style="fill: rgb(128, 139, 164); fill-opacity: 1;" x="0" y="0"/></g><g class="g-gtitle"/><g class="g-xtitle"/><g class="g-ytitle"/></g></svg>