<svg class="main-svg" xmlns="http://www.w3.org/2000/svg" xmlns:xlink="http://www.w3.org/1999/xlink" width="300" height="135" style="" viewBox="0 0 300 135"><rect x="0" y="0" width="300" height="135" style="fill: rgb(255, 255, 255); fill-opacity: 1;"/><defs id="defs-a1e493"><g class="clips"><clipPath id="clipa1e493xyplot" class="plotclip"><rect width="280" height="75"/></clipPath><clipPath class="axesclip" id="clipa1e493x"><rect x="10" y="0" width="280" height="135"/></clipPath><clipPath class="axesclip" id="clipa1e493y"><rect x="0" y="50" width="300" height="75"/></clipPath><clipPath class="axesclip" id="clipa1e493xy"><rect x="10" y="50" width="280" height="75"/></clipPath></g><g class="gradients"/><g class="patterns"/></defs><g class="bglayer"/><g class="layer-below"><g class="imagelayer"/><g class="shapelayer"/></g><g class="cartesianlayer"><g class="subplot xy"><g class="layer-subplot"><g class="shapelayer"/><g class="imagelayer"/></g><g class="minor-gridlayer"><g class="x"/><g class="y"/></g><g class="gridlayer"><g class="x"><path class="xgrid crisp" transform="translate(45.54,0)" d="M0,50v75" style="stroke: rgb(235, 240, 248); stroke-opacity: 1; stroke-width: 1px;"/><path class="xgrid crisp" transform="translate(111.23,0)" d="M0,50v75" style="stroke: rgb(235, 240, 248); stroke-opacity: 1; stroke-width: 1px;"/><path class="xgrid crisp" transform="translate(178,0)" d="M0,50v75" style="stroke: rgb(235, 240, 248); stroke-opacity: 1; stroke-width: 1px;"/><path class="xgrid crisp" transform="translate(243.69,0)" d="M0,50v75" style="stroke: rgb(235, 240, 248); stroke-opacity: 1; stroke-width: 1px;"/></g><g class="y"><path class="ygrid crisp" transform="translate(0,98.56)" d="M10,0h280" style="stroke: rgb(235, 240, 248); stroke-opacity: 1; stroke-width: 1px;"/><path class="ygrid crisp" transform="translate(0,72.12)" d="M10,0h280" style="stroke: rgb(235, 240, 248); stroke-opacity: 1; stroke-width: 1px;"/></g></g><g class="zerolinelayer"><path class="yzl zl crisp" transform="translate(0,125)" d="M10,0h280" style="stroke: rgb(235, 240, 248); stroke-opacity: 1; stroke-width: 2px;"/></g><path class="xlines-below"/><path class="ylines-below"/><g class="overlines-below"/><g class="xaxislayer-below"/><g class="yaxislayer-below"/><g class="overaxes-below"/><g class="plot" transform="translate(10,50)" clip-path="url(#clipa1e493xyplot)"><g class="scatterlayer mlayer"><g class="trace scatter trace4dc2e4" style="stroke-miterlimit: 2; opacity: 1;"><g class="fills"/><g class="errorbars"/><g class="lines"><path class="js-line" d="M0,64.42L34.46,64.95L35.54,66.01L37.69,66.94L38.77,66.94L67.85,66.94L68.92,62.84L73.23,64.03L74.31,64.42L78.62,64.03L79.69,64.03L84,62.84L85.08,62.84L122.77,62.84L123.85,61.52L126,57.68L127.08,57.68L141.08,57.68L142.15,56.36L144.31,55.57L145.38,54.78L147.54,53.72L148.62,52.53L150.77,51.73L151.85,50.28L155.08,50.02L156.15,49.62L166.92,49.49L168,49.49L182,50.15L183.08,50.81L186.31,48.03L187.38,48.03L203.54,47.11L204.62,46.18L205.69,46.18L206.77,47.5L208.92,48.03L210,46.45L212.15,44.73L213.23,43.94L215.38,43.14L216.46,43.14L218.62,43.54L219.69,41.29L221.85,38.25L222.92,38.25L224,38.25L232.62,43.67L234.77,44.73L236.92,44.73L239.08,45.52L240.15,45.13L243.38,40.37L244.46,40.37L258.46,39.44L259.54,38.78L260.62,39.44L261.69,38.25L263.85,35.87L264.92,35.87L267.08,35.87L270.31,30.19L273.54,28.47L274.62,22.92L276.77,15.91L277.85,15.91L280,15.91" style="vector-effect: non-scaling-stroke; fill: none; stroke: rgb(99, 110, 250); stroke-opacity: 1; stroke-width: 5px; opacity: 1;"/></g><g class="points"/><g class="text"/></g><g class="trace scatter traceb1bde0" style="stroke-miterlimit: 2; opacity: 1;"><g class="fills"/><g class="errorbars"/><g class="lines"><path class="js-line" d="M0,15.91L25.85,16.57L26.92,17.37L33.38,17.37L34.46,18.69L37.69,24.5L38.77,24.5L45.23,26.62L46.31,26.62L64.62,27.54L65.69,28.47L67.85,28.47L68.92,30.19L70,30.19L71.08,31.77L73.23,34.29L74.31,34.68L92.62,34.68L93.69,31.77L94.77,29.26L95.85,30.19L100.15,28.47L101.23,28.47L144.31,27.54L145.38,25.03L148.62,22.39L149.69,22.39L152.92,22.39L154,15.25L202.46,14.46L203.54,15.91L207.85,17.37L208.92,17.37L212.15,17.37L213.23,15.25L215.38,12.87L216.46,12.87L217.54,12.87L218.62,10.36L221.85,3.75L222.92,3.75L224,3.75L232.62,11.28L234.77,12.87L236.92,12.87L239.08,11.28L240.15,12.08L242.31,20.01L243.38,17.37L258.46,16.57L259.54,15.25L261.69,14.46L262.77,21.2L267.08,21.2L270.31,26.62L273.54,27.54L274.62,31.38L276.77,34.68L277.85,34.68L280,34.68" style="vector-effect: non-scaling-stroke; fill: none; stroke: rgb(239, 85, 59); stroke-opacity: 1; stroke-width: 5px; opacity: 1;"/></g><g class="points"/><g class="text"/></g><g class="trace scatter trace97b795" style="stroke-miterlimit: 2; opacity: 1;"><g class="fills"/><g class="errorbars"/><g class="lines"><path class="js-line" d="M0,37.19L64.62,36.53L65.69,34.68L67.85,34.68L68.92,33.23L70,33.23L71.08,29.66L74.31,21.2L75.38,21.2L93.69,21.2L94.77,23.45L96.92,24.5L98,24.5L144.31,25.03L145.38,26.09L148.62,26.62L149.69,26.62L152.92,26.62L154,31.38L157.23,32.57L158.31,32.57L161.54,33.62L162.62,34.68L180.92,35.87L182,37.19L183.08,38.25L184.15,41.82L186.31,44.73L187.38,44.73L199.23,44.73L200.31,46.45L202.46,48.03L203.54,47.64L210,50.02L211.08,50.81L212.15,50.81L213.23,52.92L215.38,54.78L216.46,54.78L218.62,54.78L219.69,57.02L221.85,58.87L222.92,58.87L224,58.87L232.62,39.44L234.77,36.53L236.92,36.53L239.08,39.44L240.15,39.44L245.54,40.37L246.62,40.37L261.69,40.37L262.77,35.87L273.54,35.34L274.62,38.52L276.77,42.22L277.85,42.22L280,42.22" style="vector-effect: non-scaling-stroke; fill: none; stroke: rgb(0, 204, 150); stroke-opacity: 1; stroke-width: 5px; opacity: 1;"/></g><g class="points"/><g class="text"/></g></g></g><g class="overplot"/><path class="xlines-above crisp" d="M0,0" style="fill: none;"/><path class="ylines-above crisp" d="M0,0" style="fill: none;"/><g class="overlines-above"/><g class="xaxislayer-above"/><g class="yaxislayer-above"/><g class="overaxes-above"/></g></g><g class="polarlayer"/><g class="smithlayer"/><g class="ternarylayer"/><g class="geolayer"/><g class="funnelarealayer"/><g class="pielayer"/><g class="iciclelayer"/><g class="treemaplayer"/><g class="sunburstlayer"/><g class="glimages"/><defs id="topdefs-a1e493"><g class="clips"/></defs><g class="layer-above"><g class="imagelayer"/><g class="shapelayer"/></g><g class="infolayer"><g class="g-gtitle"><text class="gtitle" x="15" y="25" text-anchor="start" dy="0em" style="font-family: Ubuntu, verdana, arial, sans-serif; font-size: 16px; fill: rgb(233, 84, 32); opacity: 1; font-weight: normal; white-space: pre;">Prezident/ka ČR 2023</text></g><g class="g-xtitle"/><g class="g-ytitle"/></g></svg>