<svg class="main-svg" xmlns="http://www.w3.org/2000/svg" xmlns:xlink="http://www.w3.org/1999/xlink" width="300" height="135" style="" viewBox="0 0 300 135"><rect x="0" y="0" width="300" height="135" style="fill: rgb(255, 255, 255); fill-opacity: 1;"/><defs id="defs-6bf52d"><g class="clips"><clipPath id="clip6bf52dxyplot" class="plotclip"><rect width="280" height="75"/></clipPath><clipPath class="axesclip" id="clip6bf52dx"><rect x="10" y="0" width="280" height="135"/></clipPath><clipPath class="axesclip" id="clip6bf52dy"><rect x="0" y="50" width="300" height="75"/></clipPath><clipPath class="axesclip" id="clip6bf52dxy"><rect x="10" y="50" width="280" height="75"/></clipPath></g><g class="gradients"/><g class="patterns"/></defs><g class="bglayer"/><g class="layer-below"><g class="imagelayer"/><g class="shapelayer"/></g><g class="cartesianlayer"><g class="subplot xy"><g class="layer-subplot"><g class="shapelayer"/><g class="imagelayer"/></g><g class="minor-gridlayer"><g class="x"/><g class="y"/></g><g class="gridlayer"><g class="x"><path class="xgrid crisp" transform="translate(47.26,0)" d="M0,50v75" style="stroke: rgb(235, 240, 248); stroke-opacity: 1; stroke-width: 1px;"/><path class="xgrid crisp" transform="translate(116.13,0)" d="M0,50v75" style="stroke: rgb(235, 240, 248); stroke-opacity: 1; stroke-width: 1px;"/><path class="xgrid crisp" transform="translate(186.13,0)" d="M0,50v75" style="stroke: rgb(235, 240, 248); stroke-opacity: 1; stroke-width: 1px;"/><path class="xgrid crisp" transform="translate(255,0)" d="M0,50v75" style="stroke: rgb(235, 240, 248); stroke-opacity: 1; stroke-width: 1px;"/></g><g class="y"><path class="ygrid crisp" transform="translate(0,97.17)" d="M10,0h280" style="stroke: rgb(235, 240, 248); stroke-opacity: 1; stroke-width: 1px;"/><path class="ygrid crisp" transform="translate(0,69.34)" d="M10,0h280" style="stroke: rgb(235, 240, 248); stroke-opacity: 1; stroke-width: 1px;"/></g></g><g class="zerolinelayer"><path class="yzl zl crisp" transform="translate(0,125)" d="M10,0h280" style="stroke: rgb(235, 240, 248); stroke-opacity: 1; stroke-width: 2px;"/></g><path class="xlines-below"/><path class="ylines-below"/><g class="overlines-below"/><g class="xaxislayer-below"/><g class="yaxislayer-below"/><g class="overaxes-below"/><g class="plot" transform="translate(10,50)" clip-path="url(#clip6bf52dxyplot)"><g class="scatterlayer mlayer"><g class="trace scatter trace655ba0" style="stroke-miterlimit: 2; opacity: 1;"><g class="fills"/><g class="errorbars"/><g class="lines"><path class="js-line" d="M0,15.86L27.1,16.55L28.23,17.25L35,17.25L36.13,18.64L39.52,24.48L40.65,24.48L47.42,26.57L48.55,26.57L67.74,27.41L68.87,28.38L71.13,28.38L72.26,30.05L73.39,30.05L74.52,31.72L76.77,34.23L77.9,34.64L97.1,34.64L98.23,31.72L99.35,29.22L100.48,30.05L106.13,28.38L107.26,28.38L151.29,27.41L152.42,25.04L155.81,22.26L156.94,22.26L160.32,22.26L161.45,15.16L212.26,14.33L213.39,15.86L217.9,17.25L219.03,17.25L222.42,17.25L223.55,15.16L225.81,12.8L226.94,12.8L228.06,12.8L229.19,10.29L232.58,3.75L233.71,3.75L234.84,3.75L243.87,11.26L248.39,12.8L249.52,11.26L251.77,11.96L252.9,15.86L254.03,19.89L255.16,17.25L270.97,16.55L272.1,15.16L274.35,14.33L275.48,21.15L280,21.15" style="vector-effect: non-scaling-stroke; fill: none; stroke: rgb(99, 110, 250); stroke-opacity: 1; stroke-width: 5px; opacity: 1;"/></g><g class="points"/><g class="text"/></g><g class="trace scatter trace414891" style="stroke-miterlimit: 2; opacity: 1;"><g class="fills"/><g class="errorbars"/><g class="lines"><path class="js-line" d="M0,37.15L67.74,36.45L68.87,34.64L71.13,34.64L72.26,33.25L73.39,33.25L74.52,29.63L76.77,22.81L77.9,21.15L86.94,20.45L88.06,19.89L97.1,19.89L98.23,21.15L100.48,24.48L101.61,24.48L151.29,25.04L152.42,26.02L155.81,26.57L156.94,26.57L160.32,26.57L161.45,31.3L164.84,32.42L165.97,32.42L169.35,33.53L170.48,34.64L172.74,35.2L173.87,35.9L190.81,37.15L191.94,38.26L194.19,44.66L195.32,44.66L208.87,44.66L210,46.47L212.26,48L213.39,47.59L220.16,49.95L221.29,50.79L222.42,50.79L223.55,53.01L225.81,54.82L226.94,54.82L229.19,54.82L230.32,57.05L232.58,58.86L233.71,58.86L234.84,58.86L243.87,39.38L246.13,36.45L248.39,36.45L250.65,39.38L251.77,39.38L257.42,40.35L258.55,40.35L274.35,40.35L275.48,35.9L280,35.9" style="vector-effect: non-scaling-stroke; fill: none; stroke: rgb(239, 85, 59); stroke-opacity: 1; stroke-width: 5px; opacity: 1;"/></g><g class="points"/><g class="text"/></g><g class="trace scatter trace6bf5a5" style="stroke-miterlimit: 2; opacity: 1;"><g class="fills"/><g class="errorbars"/><g class="lines"><path class="js-line" d="M0,64.42L36.13,64.84L37.26,65.95L39.52,66.93L40.65,66.93L71.13,66.93L72.26,62.89L76.77,64.01L77.9,64.42L82.42,64.01L83.55,64.01L88.06,62.89L89.19,62.89L128.71,62.89L129.84,61.5L132.1,57.74L133.23,57.74L147.9,57.74L149.03,56.35L151.29,55.66L152.42,54.82L154.68,53.71L155.81,52.6L158.06,51.62L159.19,50.23L163.71,49.67L164.84,49.53L190.81,50.09L191.94,50.79L195.32,48L196.45,48L213.39,47.17L214.52,46.19L215.65,46.19L216.77,47.45L219.03,48L220.16,46.47L222.42,44.66L223.55,43.97L225.81,43.13L226.94,43.13L229.19,43.55L230.32,41.32L232.58,38.26L233.71,38.26L234.84,38.26L243.87,43.69L246.13,44.66L248.39,44.66L250.65,45.5L251.77,45.08L255.16,40.35L256.29,40.35L270.97,39.38L272.1,38.82L273.23,39.38L274.35,38.26L276.61,35.9L277.74,35.9L280,35.9" style="vector-effect: non-scaling-stroke; fill: none; stroke: rgb(0, 204, 150); stroke-opacity: 1; stroke-width: 5px; opacity: 1;"/></g><g class="points"/><g class="text"/></g><g class="trace scatter trace03d29e" style="stroke-miterlimit: 2; opacity: 1;"><g class="fills"/><g class="errorbars"/><g class="lines"><path class="js-line" d="M0,63.45L73.39,64.01L74.52,64.28L89.19,64.84L90.32,64.84L156.94,65.95L158.06,66.23L164.84,67.49L165.97,67.49L212.26,66.65L213.39,65.26L219.03,66.37L220.16,66.37L229.19,66.37L230.32,67.9L232.58,69.43L233.71,69.43L274.35,70.55L275.48,71.94L280,71.94" style="vector-effect: non-scaling-stroke; fill: none; stroke: rgb(171, 99, 250); stroke-opacity: 1; stroke-width: 5px; opacity: 1;"/></g><g class="points"/><g class="text"/></g><g class="trace scatter tracebfe96d" style="stroke-miterlimit: 2; opacity: 1;"><g class="fills"/><g class="errorbars"/><g class="lines"><path class="js-line" d="M0,71.66L129.84,71.1L130.97,70.55L254.03,71.52L255.16,71.66L266.45,71.8L267.58,71.8L280,72.63" style="vector-effect: non-scaling-stroke; fill: none; stroke: rgb(255, 161, 90); stroke-opacity: 1; stroke-width: 5px; opacity: 1;"/></g><g class="points"/><g class="text"/></g></g></g><g class="overplot"/><path class="xlines-above crisp" d="M0,0" style="fill: none;"/><path class="ylines-above crisp" d="M0,0" style="fill: none;"/><g class="overlines-above"/><g class="xaxislayer-above"/><g class="yaxislayer-above"/><g class="overaxes-above"/></g></g><g class="polarlayer"/><g class="smithlayer"/><g class="ternarylayer"/><g class="geolayer"/><g class="funnelarealayer"/><g class="pielayer"/><g class="iciclelayer"/><g class="treemaplayer"/><g class="sunburstlayer"/><g class="glimages"/><defs id="topdefs-6bf52d"><g class="clips"/></defs><g class="layer-above"><g class="imagelayer"/><g class="shapelayer"/></g><g class="infolayer"><g class="g-gtitle"><text class="gtitle" x="15" y="25" text-anchor="start" dy="0em" style="font-family: Ubuntu, verdana, arial, sans-serif; font-size: 16px; fill: rgb(233, 84, 32); opacity: 1; font-weight: normal; white-space: pre;">Prezident/ka ČR 2023</text></g><g class="g-xtitle"/><g class="g-ytitle"/></g></svg>