<svg class="main-svg" xmlns="http://www.w3.org/2000/svg" xmlns:xlink="http://www.w3.org/1999/xlink" width="1200" height="600" style="" viewBox="0 0 1200 600"><rect x="0" y="0" width="1200" height="600" style="fill: rgb(255, 255, 255); fill-opacity: 1;"/><defs id="defs-2ef93f"><g class="clips"><clipPath id="clip2ef93fxyplot" class="plotclip"><rect width="975" height="530"/></clipPath><clipPath class="axesclip" id="clip2ef93fx"><rect x="50" y="0" width="975" height="600"/></clipPath><clipPath class="axesclip" id="clip2ef93fy"><rect x="0" y="20" width="1200" height="530"/></clipPath><clipPath class="axesclip" id="clip2ef93fxy"><rect x="50" y="20" width="975" height="530"/></clipPath></g><g class="gradients"/><g class="patterns"/></defs><g class="bglayer"/><g class="layer-below"><g class="imagelayer"/><g class="shapelayer"/></g><g class="cartesianlayer"><g class="subplot xy"><g class="layer-subplot"><g class="shapelayer"/><g class="imagelayer"/></g><g class="minor-gridlayer"><g class="x"/><g class="y"/></g><g class="gridlayer"><g class="x"><path class="xgrid crisp" transform="translate(60.09,0)" d="M0,20v530" style="stroke: rgb(235, 240, 248); stroke-opacity: 1; stroke-width: 1px;"/><path class="xgrid crisp" transform="translate(160.95,0)" d="M0,20v530" style="stroke: rgb(235, 240, 248); stroke-opacity: 1; stroke-width: 1px;"/><path class="xgrid crisp" transform="translate(265.16999999999996,0)" d="M0,20v530" style="stroke: rgb(235, 240, 248); stroke-opacity: 1; stroke-width: 1px;"/><path class="xgrid crisp" transform="translate(366.03,0)" d="M0,20v530" style="stroke: rgb(235, 240, 248); stroke-opacity: 1; stroke-width: 1px;"/><path class="xgrid crisp" transform="translate(470.26,0)" d="M0,20v530" style="stroke: rgb(235, 240, 248); stroke-opacity: 1; stroke-width: 1px;"/><path class="xgrid crisp" transform="translate(574.48,0)" d="M0,20v530" style="stroke: rgb(235, 240, 248); stroke-opacity: 1; stroke-width: 1px;"/><path class="xgrid crisp" transform="translate(675.34,0)" d="M0,20v530" style="stroke: rgb(235, 240, 248); stroke-opacity: 1; stroke-width: 1px;"/><path class="xgrid crisp" transform="translate(779.57,0)" d="M0,20v530" style="stroke: rgb(235, 240, 248); stroke-opacity: 1; stroke-width: 1px;"/><path class="xgrid crisp" transform="translate(880.43,0)" d="M0,20v530" style="stroke: rgb(235, 240, 248); stroke-opacity: 1; stroke-width: 1px;"/><path class="xgrid crisp" transform="translate(984.66,0)" d="M0,20v530" style="stroke: rgb(235, 240, 248); stroke-opacity: 1; stroke-width: 1px;"/></g><g class="y"><path class="ygrid crisp" transform="translate(0,451.66)" d="M50,0h975" style="stroke: rgb(235, 240, 248); stroke-opacity: 1; stroke-width: 1px;"/><path class="ygrid crisp" transform="translate(0,353.32)" d="M50,0h975" style="stroke: rgb(235, 240, 248); stroke-opacity: 1; stroke-width: 1px;"/><path class="ygrid crisp" transform="translate(0,254.98)" d="M50,0h975" style="stroke: rgb(235, 240, 248); stroke-opacity: 1; stroke-width: 1px;"/><path class="ygrid crisp" transform="translate(0,156.64)" d="M50,0h975" style="stroke: rgb(235, 240, 248); stroke-opacity: 1; stroke-width: 1px;"/><path class="ygrid crisp" transform="translate(0,58.3)" d="M50,0h975" style="stroke: rgb(235, 240, 248); stroke-opacity: 1; stroke-width: 1px;"/></g></g><g class="zerolinelayer"><path class="yzl zl crisp" transform="translate(0,550)" d="M50,0h975" style="stroke: rgb(235, 240, 248); stroke-opacity: 1; stroke-width: 2px;"/></g><path class="xlines-below"/><path class="ylines-below"/><g class="overlines-below"/><g class="xaxislayer-below"/><g class="yaxislayer-below"/><g class="overaxes-below"/><g class="plot" transform="translate(50,20)" clip-path="url(#clip2ef93fxyplot)"><g class="scatterlayer mlayer"><g class="trace scatter trace81982e" style="stroke-miterlimit: 2; opacity: 1;"><g class="fills"/><g class="errorbars"/><g class="lines"><path class="js-line" d="M0,113.04L77.33,113.04L80.69,117.96L84.05,122.87L87.41,122.87L104.22,122.87L107.59,131.72L114.31,174.01L117.67,174.01L121.03,174.01L124.4,176.96L127.76,180.89L131.12,180.89L137.84,187.78L141.21,187.78L158.02,187.78L161.38,190.73L164.74,194.66L168.1,194.66L201.72,194.66L205.09,200.56L211.81,200.56L215.17,213.35L218.53,213.35L221.9,224.16L225.26,237.93L228.62,242.85L231.98,244.81L235.34,244.81L289.14,244.81L292.5,224.16L295.86,207.45L299.22,213.35L302.59,210.4L305.95,200.56L329.48,200.56L332.84,197.61L336.21,194.66L339.57,194.66L386.64,194.66L390,197.61L393.36,200.56L396.72,200.56L447.16,200.56L450.52,194.66L453.88,176.96L457.24,166.14L463.97,158.28L467.33,158.28L477.41,158.28L480.78,107.14L484.14,107.14L487.5,102.22L632.07,102.22L635.43,113.04L638.79,117.96L642.16,113.04L645.52,122.87L648.88,122.87L662.33,122.87L665.69,107.14L669.05,91.4L672.41,91.4L679.14,91.4L682.5,73.7L689.22,41.25L692.59,26.5L699.31,26.5L726.21,79.6L732.93,91.4L739.66,91.4L743.02,79.6L746.38,79.6" style="vector-effect: non-scaling-stroke; fill: none; stroke: rgb(99, 110, 250); stroke-opacity: 1; stroke-width: 5px; opacity: 1;"/></g><g class="points"/><g class="text"/></g><g class="trace scatter tracef0b4ec" style="stroke-miterlimit: 2; opacity: 1;"><g class="fills"/><g class="errorbars"/><g class="lines"><path class="js-line" d="M0,262.52L77.33,262.52L80.69,260.55L84.05,258.58L87.41,258.58L201.72,258.58L205.09,244.81L211.81,244.81L215.17,234.98L218.53,234.98L221.9,210.4L225.26,176.96L228.62,162.21L231.98,149.42L235.34,149.42L255.52,149.42L258.88,145.49L262.24,141.56L265.6,141.56L289.14,141.56L292.5,149.42L295.86,166.14L299.22,174.01L447.16,174.01L450.52,176.96L453.88,184.83L457.24,187.78L467.33,187.78L470.69,190.73L474.05,190.73L477.41,187.78L480.78,222.2L484.14,227.11L487.5,230.06L490.86,230.06L500.95,230.06L504.31,237.93L507.67,244.81L511.03,244.81L517.76,253.67L521.12,253.67L564.83,253.67L568.19,262.52L571.55,270.38L574.91,295.95L578.28,316.6L581.64,316.6L621.98,316.6L625.34,328.4L628.71,340.2L632.07,340.2L635.43,336.27L638.79,340.2L648.88,340.2L652.24,348.07L658.97,358.89L662.33,358.89L669.05,387.41L672.41,387.41L682.5,387.41L685.86,403.14L689.22,415.93L692.59,415.93L699.31,415.93L726.21,278.25L729.57,264.48L732.93,258.58L739.66,258.58L743.02,278.25L746.38,278.25" style="vector-effect: non-scaling-stroke; fill: none; stroke: rgb(239, 85, 59); stroke-opacity: 1; stroke-width: 5px; opacity: 1;"/></g><g class="points"/><g class="text"/></g><g class="trace scatter tracee3c3bc" style="stroke-miterlimit: 2; opacity: 1;"><g class="fills"/><g class="errorbars"/><g class="lines"><path class="js-line" d="M0,455.26L16.81,455.26L20.17,459.2L107.59,459.2L110.95,467.06L114.31,472.96L117.67,472.96L211.81,472.96L215.17,444.44L218.53,444.44L221.9,446.41L225.26,448.38L228.62,452.31L231.98,455.26L235.34,452.31L248.79,452.31L252.16,448.38L255.52,444.44L258.88,444.44L383.28,444.44L386.64,434.61L390,415.93L393.36,408.06L440.43,408.06L443.79,398.22L447.16,398.22L450.52,393.31L453.88,387.41L457.24,387.41L463.97,371.67L467.33,371.67L470.69,365.77L474.05,354.96L477.41,352L480.78,353.97L484.14,353.97L487.5,351.02L494.22,350.04L497.59,350.04L564.83,350.04L568.19,354.96L571.55,358.89L574.91,350.04L578.28,340.2L581.64,340.2L632.07,340.2L635.43,333.32L638.79,326.44L642.16,326.44L645.52,335.29L648.88,340.2L652.24,340.2L655.6,328.4L658.97,316.6L662.33,316.6L669.05,304.8L672.41,304.8L679.14,304.8L682.5,307.75L689.22,270.38L692.59,270.38L699.31,270.38L726.21,308.74L729.57,316.6L732.93,316.6L739.66,316.6L743.02,321.52L746.38,321.52" style="vector-effect: non-scaling-stroke; fill: none; stroke: rgb(0, 204, 150); stroke-opacity: 1; stroke-width: 5px; opacity: 1;"/></g><g class="points"/><g class="text"/></g><g class="trace scatter trace8de1ea" style="stroke-miterlimit: 2; opacity: 1;"><g class="fills"/><g class="errorbars"/><g class="lines"><path class="js-line" d="M0,448.38L16.81,448.38L20.17,444.44L131.12,444.44L134.48,448.38L137.84,452.31L141.21,452.31L218.53,452.31L221.9,454.28L228.62,455.26L231.98,455.26L248.79,455.26L252.16,457.23L255.52,459.2L258.88,459.2L383.28,459.2L386.64,461.16L390,464.11L393.36,464.11L460.6,465.1L463.97,467.06L470.69,468.05L474.05,471L484.14,476.9L487.5,476.9L574.91,476.9L578.28,479.85L628.71,479.85L632.07,471L635.43,461.16L638.79,464.11L645.52,464.11L648.88,469.03L682.5,469.03L685.86,479.85L689.22,489.68L692.59,490.66L699.31,490.66L726.21,495.58L732.93,497.55L739.66,497.55L746.38,497.55" style="vector-effect: non-scaling-stroke; fill: none; stroke: rgb(171, 99, 250); stroke-opacity: 1; stroke-width: 5px; opacity: 1;"/></g><g class="points"/><g class="text"/></g><g class="trace scatter trace585b01" style="stroke-miterlimit: 2; opacity: 1;"><g class="fills"/><g class="errorbars"/><g class="lines"><path class="js-line" d="M0,506.4L110.95,507.38L114.31,508.37L295.86,507.38L299.22,505.42L383.28,505.42L386.64,502.46L390,498.53L393.36,498.53L477.41,499.51L480.78,497.55L574.91,498.53L578.28,499.51L635.43,500.5L638.79,503.45L642.16,505.42L645.52,505.42L746.38,505.42" style="vector-effect: non-scaling-stroke; fill: none; stroke: rgb(255, 161, 90); stroke-opacity: 1; stroke-width: 5px; opacity: 1;"/></g><g class="points"/><g class="text"/></g><g class="trace scatter tracea2772b" style="stroke-miterlimit: 2; opacity: 1;"><g class="fills"/><g class="errorbars"/><g class="lines"><path class="js-line" d="M0,490.66L104.22,490.66L107.59,476.9L110.95,469.03L114.31,469.03L121.03,469.03L124.4,467.06L127.76,464.11L131.12,464.11L137.84,459.2L141.21,459.2L158.02,459.2L161.38,457.23L168.1,452.31L171.47,452.31L211.81,452.31L215.17,455.26L221.9,455.26L225.26,459.2L231.98,469.03L235.34,469.03L242.07,469.03L245.43,467.06L248.79,464.11L252.16,465.1L255.52,467.06L258.88,465.1L265.6,464.11L268.97,464.11L279.05,464.11L282.41,461.16L285.78,459.2L289.14,459.2L292.5,459.2L295.86,467.06L299.22,472.96L302.59,472.96L326.12,472.96L329.48,471L332.84,469.03L336.21,469.03L383.28,469.03L386.64,472.96L390,476.9L393.36,476.9L460.6,477.88L463.97,479.85L474.05,478.86L477.41,477.88L480.78,480.83L484.14,478.86L490.86,469.03L494.22,469.03L537.93,469.03L541.29,467.06L544.66,464.11L548.02,464.11L561.47,464.11L564.83,461.16L568.19,439.53L571.55,408.06L621.98,408.06L625.34,398.22L628.71,387.41L632.07,387.41L652.24,387.41L655.6,408.06L658.97,422.81L662.33,422.81L669.05,448.38L672.41,448.38L679.14,448.38L682.5,463.13L685.86,480.83L689.22,487.71L699.31,487.71L726.21,514.27L746.38,514.27" style="vector-effect: non-scaling-stroke; fill: none; stroke: rgb(25, 211, 243); stroke-opacity: 1; stroke-width: 5px; opacity: 1;"/></g><g class="points"/><g class="text"/></g></g></g><g class="overplot"/><path class="xlines-above crisp" d="M0,0" style="fill: none;"/><path class="ylines-above crisp" d="M0,0" style="fill: none;"/><g class="overlines-above"/><g class="xaxislayer-above"><g class="xtick"><text text-anchor="middle" x="0" y="563" transform="translate(60.09,0)" style="font-family: 'Open Sans', verdana, arial, sans-serif; font-size: 12px; fill: rgb(42, 63, 95); fill-opacity: 1; white-space: pre; opacity: 1;">1.4.22</text></g><g class="xtick"><text text-anchor="middle" x="0" y="563" style="font-family: 'Open Sans', verdana, arial, sans-serif; font-size: 12px; fill: rgb(42, 63, 95); fill-opacity: 1; white-space: pre; opacity: 1;" transform="translate(160.95,0)">1.5.22</text></g><g class="xtick"><text text-anchor="middle" x="0" y="563" style="font-family: 'Open Sans', verdana, arial, sans-serif; font-size: 12px; fill: rgb(42, 63, 95); fill-opacity: 1; white-space: pre; opacity: 1;" transform="translate(265.16999999999996,0)">1.6.22</text></g><g class="xtick"><text text-anchor="middle" x="0" y="563" style="font-family: 'Open Sans', verdana, arial, sans-serif; font-size: 12px; fill: rgb(42, 63, 95); fill-opacity: 1; white-space: pre; opacity: 1;" transform="translate(366.03,0)">1.7.22</text></g><g class="xtick"><text text-anchor="middle" x="0" y="563" style="font-family: 'Open Sans', verdana, arial, sans-serif; font-size: 12px; fill: rgb(42, 63, 95); fill-opacity: 1; white-space: pre; opacity: 1;" transform="translate(470.26,0)">1.8.22</text></g><g class="xtick"><text text-anchor="middle" x="0" y="563" style="font-family: 'Open Sans', verdana, arial, sans-serif; font-size: 12px; fill: rgb(42, 63, 95); fill-opacity: 1; white-space: pre; opacity: 1;" transform="translate(574.48,0)">1.9.22</text></g><g class="xtick"><text text-anchor="middle" x="0" y="563" style="font-family: 'Open Sans', verdana, arial, sans-serif; font-size: 12px; fill: rgb(42, 63, 95); fill-opacity: 1; white-space: pre; opacity: 1;" transform="translate(675.34,0)">1.10.22</text></g><g class="xtick"><text text-anchor="middle" x="0" y="563" style="font-family: 'Open Sans', verdana, arial, sans-serif; font-size: 12px; fill: rgb(42, 63, 95); fill-opacity: 1; white-space: pre; opacity: 1;" transform="translate(779.57,0)">1.11.22</text></g><g class="xtick"><text text-anchor="middle" x="0" y="563" style="font-family: 'Open Sans', verdana, arial, sans-serif; font-size: 12px; fill: rgb(42, 63, 95); fill-opacity: 1; white-space: pre; opacity: 1;" transform="translate(880.43,0)">1.12.22</text></g><g class="xtick"><text text-anchor="middle" x="0" y="563" style="font-family: 'Open Sans', verdana, arial, sans-serif; font-size: 12px; fill: rgb(42, 63, 95); fill-opacity: 1; white-space: pre; opacity: 1;" transform="translate(984.66,0)">1.1.23</text></g></g><g class="yaxislayer-above"><g class="ytick"><text text-anchor="end" x="49" y="4.199999999999999" transform="translate(0,550)" style="font-family: 'Open Sans', verdana, arial, sans-serif; font-size: 12px; fill: rgb(42, 63, 95); fill-opacity: 1; white-space: pre; opacity: 1;">0%</text></g><g class="ytick"><text text-anchor="end" x="49" y="4.199999999999999" style="font-family: 'Open Sans', verdana, arial, sans-serif; font-size: 12px; fill: rgb(42, 63, 95); fill-opacity: 1; white-space: pre; opacity: 1;" transform="translate(0,451.66)">10%</text></g><g class="ytick"><text text-anchor="end" x="49" y="4.199999999999999" style="font-family: 'Open Sans', verdana, arial, sans-serif; font-size: 12px; fill: rgb(42, 63, 95); fill-opacity: 1; white-space: pre; opacity: 1;" transform="translate(0,353.32)">20%</text></g><g class="ytick"><text text-anchor="end" x="49" y="4.199999999999999" style="font-family: 'Open Sans', verdana, arial, sans-serif; font-size: 12px; fill: rgb(42, 63, 95); fill-opacity: 1; white-space: pre; opacity: 1;" transform="translate(0,254.98)">30%</text></g><g class="ytick"><text text-anchor="end" x="49" y="4.199999999999999" style="font-family: 'Open Sans', verdana, arial, sans-serif; font-size: 12px; fill: rgb(42, 63, 95); fill-opacity: 1; white-space: pre; opacity: 1;" transform="translate(0,156.64)">40%</text></g><g class="ytick"><text text-anchor="end" x="49" y="4.199999999999999" style="font-family: 'Open Sans', verdana, arial, sans-serif; font-size: 12px; fill: rgb(42, 63, 95); fill-opacity: 1; white-space: pre; opacity: 1;" transform="translate(0,58.3)">50%</text></g></g><g class="overaxes-above"/></g></g><g class="polarlayer"/><g class="smithlayer"/><g class="ternarylayer"/><g class="geolayer"/><g class="funnelarealayer"/><g class="pielayer"/><g class="iciclelayer"/><g class="treemaplayer"/><g class="sunburstlayer"/><g class="glimages"/><defs id="topdefs-2ef93f"><g class="clips"/><clipPath id="legend2ef93f"><rect width="143" height="124" x="0" y="0"/></clipPath></defs><g class="layer-above"><g class="imagelayer"/><g class="shapelayer"/></g><g class="infolayer"><g class="legend" pointer-events="all" transform="translate(1044.5,20)"><rect class="bg" shape-rendering="crispEdges" style="stroke: rgb(68, 68, 68); stroke-opacity: 1; fill: rgb(255, 255, 255); fill-opacity: 1; stroke-width: 0px;" width="143" height="124" x="0" y="0"/><g class="scrollbox" transform="" clip-path="url(#legend2ef93f)"><g class="groups"><g class="traces" transform="translate(0,14.5)" style="opacity: 1;"><text class="legendtext" text-anchor="start" x="40" y="4.680000000000001" style="font-family: 'Open Sans', verdana, arial, sans-serif; font-size: 12px; fill: rgb(42, 63, 95); fill-opacity: 1; white-space: pre;">Pavel Petr</text><g class="layers" style="opacity: 1;"><g class="legendfill"/><g class="legendlines"><path class="js-line" d="M5,0h30" style="fill: none; stroke: rgb(99, 110, 250); stroke-opacity: 1; stroke-width: 5px;"/></g><g class="legendsymbols"><g class="legendpoints"/></g></g><rect class="legendtoggle" x="0" y="-9.5" width="137.0625" height="19" style="fill: rgb(0, 0, 0); fill-opacity: 0;"/></g><g class="traces" transform="translate(0,33.5)" style="opacity: 1;"><text class="legendtext" text-anchor="start" x="40" y="4.680000000000001" style="font-family: 'Open Sans', verdana, arial, sans-serif; font-size: 12px; fill: rgb(42, 63, 95); fill-opacity: 1; white-space: pre;">Babiš Andrej</text><g class="layers" style="opacity: 1;"><g class="legendfill"/><g class="legendlines"><path class="js-line" d="M5,0h30" style="fill: none; stroke: rgb(239, 85, 59); stroke-opacity: 1; stroke-width: 5px;"/></g><g class="legendsymbols"><g class="legendpoints"/></g></g><rect class="legendtoggle" x="0" y="-9.5" width="137.0625" height="19" style="fill: rgb(0, 0, 0); fill-opacity: 0;"/></g><g class="traces" transform="translate(0,52.5)" style="opacity: 1;"><text class="legendtext" text-anchor="start" x="40" y="4.680000000000001" style="font-family: 'Open Sans', verdana, arial, sans-serif; font-size: 12px; fill: rgb(42, 63, 95); fill-opacity: 1; white-space: pre;">Nerudová Danuše</text><g class="layers" style="opacity: 1;"><g class="legendfill"/><g class="legendlines"><path class="js-line" d="M5,0h30" style="fill: none; stroke: rgb(0, 204, 150); stroke-opacity: 1; stroke-width: 5px;"/></g><g class="legendsymbols"><g class="legendpoints"/></g></g><rect class="legendtoggle" x="0" y="-9.5" width="137.0625" height="19" style="fill: rgb(0, 0, 0); fill-opacity: 0;"/></g><g class="traces" transform="translate(0,71.5)" style="opacity: 1;"><text class="legendtext" text-anchor="start" x="40" y="4.680000000000001" style="font-family: 'Open Sans', verdana, arial, sans-serif; font-size: 12px; fill: rgb(42, 63, 95); fill-opacity: 1; white-space: pre;">Fischer Pavel</text><g class="layers" style="opacity: 1;"><g class="legendfill"/><g class="legendlines"><path class="js-line" d="M5,0h30" style="fill: none; stroke: rgb(171, 99, 250); stroke-opacity: 1; stroke-width: 5px;"/></g><g class="legendsymbols"><g class="legendpoints"/></g></g><rect class="legendtoggle" x="0" y="-9.5" width="137.0625" height="19" style="fill: rgb(0, 0, 0); fill-opacity: 0;"/></g><g class="traces" transform="translate(0,90.5)" style="opacity: 1;"><text class="legendtext" text-anchor="start" x="40" y="4.680000000000001" style="font-family: 'Open Sans', verdana, arial, sans-serif; font-size: 12px; fill: rgb(42, 63, 95); fill-opacity: 1; white-space: pre;">Hilšer Marek</text><g class="layers" style="opacity: 1;"><g class="legendfill"/><g class="legendlines"><path class="js-line" d="M5,0h30" style="fill: none; stroke: rgb(255, 161, 90); stroke-opacity: 1; stroke-width: 5px;"/></g><g class="legendsymbols"><g class="legendpoints"/></g></g><rect class="legendtoggle" x="0" y="-9.5" width="137.0625" height="19" style="fill: rgb(0, 0, 0); fill-opacity: 0;"/></g><g class="traces" transform="translate(0,109.5)" style="opacity: 1;"><text class="legendtext" text-anchor="start" x="40" y="4.680000000000001" style="font-family: 'Open Sans', verdana, arial, sans-serif; font-size: 12px; fill: rgb(42, 63, 95); fill-opacity: 1; white-space: pre;">Středula Josef</text><g class="layers" style="opacity: 1;"><g class="legendfill"/><g class="legendlines"><path class="js-line" d="M5,0h30" style="fill: none; stroke: rgb(25, 211, 243); stroke-opacity: 1; stroke-width: 5px;"/></g><g class="legendsymbols"><g class="legendpoints"/></g></g><rect class="legendtoggle" x="0" y="-9.5" width="137.0625" height="19" style="fill: rgb(0, 0, 0); fill-opacity: 0;"/></g></g></g><rect class="scrollbar" rx="20" ry="3" width="0" height="0" style="fill: rgb(128, 139, 164); fill-opacity: 1;" x="0" y="0"/></g><g class="g-gtitle"/><g class="g-xtitle"/><g class="g-ytitle"/></g></svg>