<svg class="main-svg" xmlns="http://www.w3.org/2000/svg" xmlns:xlink="http://www.w3.org/1999/xlink" width="300" height="135" style="" viewBox="0 0 300 135"><rect x="0" y="0" width="300" height="135" style="fill: rgb(255, 255, 255); fill-opacity: 1;"/><defs id="defs-1b4b93"><g class="clips"><clipPath id="clip1b4b93xyplot" class="plotclip"><rect width="280" height="75"/></clipPath><clipPath class="axesclip" id="clip1b4b93x"><rect x="10" y="0" width="280" height="135"/></clipPath><clipPath class="axesclip" id="clip1b4b93y"><rect x="0" y="50" width="300" height="75"/></clipPath><clipPath class="axesclip" id="clip1b4b93xy"><rect x="10" y="50" width="280" height="75"/></clipPath></g><g class="gradients"/><g class="patterns"/></defs><g class="bglayer"/><g class="layer-below"><g class="imagelayer"/><g class="shapelayer"/></g><g class="cartesianlayer"><g class="subplot xy"><g class="layer-subplot"><g class="shapelayer"/><g class="imagelayer"/></g><g class="minor-gridlayer"><g class="x"/><g class="y"/></g><g class="gridlayer"><g class="x"><path class="xgrid crisp" transform="translate(45.68,0)" d="M0,50v75" style="stroke: rgb(235, 240, 248); stroke-opacity: 1; stroke-width: 1px;"/><path class="xgrid crisp" transform="translate(111.62,0)" d="M0,50v75" style="stroke: rgb(235, 240, 248); stroke-opacity: 1; stroke-width: 1px;"/><path class="xgrid crisp" transform="translate(178.65,0)" d="M0,50v75" style="stroke: rgb(235, 240, 248); stroke-opacity: 1; stroke-width: 1px;"/><path class="xgrid crisp" transform="translate(244.59,0)" d="M0,50v75" style="stroke: rgb(235, 240, 248); stroke-opacity: 1; stroke-width: 1px;"/></g><g class="y"><path class="ygrid crisp" transform="translate(0,98.56)" d="M10,0h280" style="stroke: rgb(235, 240, 248); stroke-opacity: 1; stroke-width: 1px;"/><path class="ygrid crisp" transform="translate(0,72.12)" d="M10,0h280" style="stroke: rgb(235, 240, 248); stroke-opacity: 1; stroke-width: 1px;"/></g></g><g class="zerolinelayer"><path class="yzl zl crisp" transform="translate(0,125)" d="M10,0h280" style="stroke: rgb(235, 240, 248); stroke-opacity: 1; stroke-width: 2px;"/></g><path class="xlines-below"/><path class="ylines-below"/><g class="overlines-below"/><g class="xaxislayer-below"/><g class="yaxislayer-below"/><g class="overaxes-below"/><g class="plot" transform="translate(10,50)" clip-path="url(#clip1b4b93xyplot)"><g class="scatterlayer mlayer"><g class="trace scatter tracebce8b3" style="stroke-miterlimit: 2; opacity: 1;"><g class="fills"/><g class="errorbars"/><g class="lines"><path class="js-line" d="M0,64.42L34.59,64.95L35.68,66.01L37.84,66.94L38.92,66.94L68.11,66.94L69.19,62.84L73.51,64.03L74.59,64.42L78.92,64.03L80,64.03L84.32,62.84L85.41,62.84L123.24,62.84L124.32,61.52L126.49,57.68L127.57,57.68L141.62,57.68L142.7,56.36L144.86,55.57L145.95,54.78L148.11,53.72L149.19,52.53L151.35,51.73L152.43,50.28L155.68,50.02L156.76,49.62L167.57,49.49L168.65,49.49L182.7,50.15L183.78,50.81L187.03,48.03L188.11,48.03L204.32,47.11L205.41,46.18L206.49,46.18L207.57,47.5L209.73,48.03L210.81,46.45L212.97,44.73L214.05,43.94L216.22,43.14L217.3,43.14L219.46,43.54L220.54,41.29L222.7,38.25L223.78,38.25L224.86,38.25L233.51,43.67L235.68,44.73L237.84,44.73L240,45.52L241.08,45.13L244.32,40.37L245.41,40.37L259.46,39.44L260.54,38.78L261.62,39.44L262.7,38.25L264.86,35.87L265.95,35.87L268.11,35.87L271.35,30.19L274.59,28.47L275.68,22.92L277.84,15.91L278.92,15.91L280,15.91" style="vector-effect: non-scaling-stroke; fill: none; stroke: rgb(99, 110, 250); stroke-opacity: 1; stroke-width: 5px; opacity: 1;"/></g><g class="points"/><g class="text"/></g><g class="trace scatter traceef1811" style="stroke-miterlimit: 2; opacity: 1;"><g class="fills"/><g class="errorbars"/><g class="lines"><path class="js-line" d="M0,15.91L25.95,16.57L27.03,17.37L33.51,17.37L34.59,18.69L37.84,24.5L38.92,24.5L45.41,26.62L46.49,26.62L64.86,27.54L65.95,28.47L68.11,28.47L69.19,30.19L70.27,30.19L71.35,31.77L73.51,34.29L74.59,34.68L92.97,34.68L94.05,31.77L95.14,29.26L96.22,30.19L100.54,28.47L101.62,28.47L144.86,27.54L145.95,25.03L149.19,22.39L150.27,22.39L153.51,22.39L154.59,15.25L203.24,14.46L204.32,15.91L208.65,17.37L209.73,17.37L212.97,17.37L214.05,15.25L216.22,12.87L217.3,12.87L218.38,12.87L219.46,10.36L222.7,3.75L223.78,3.75L224.86,3.75L233.51,11.28L235.68,12.87L237.84,12.87L240,11.28L241.08,12.08L243.24,20.01L244.32,17.37L259.46,16.57L260.54,15.25L262.7,14.46L263.78,21.2L268.11,21.2L271.35,26.62L274.59,27.54L275.68,31.38L277.84,34.68L278.92,34.68L280,34.68" style="vector-effect: non-scaling-stroke; fill: none; stroke: rgb(239, 85, 59); stroke-opacity: 1; stroke-width: 5px; opacity: 1;"/></g><g class="points"/><g class="text"/></g><g class="trace scatter trace20e906" style="stroke-miterlimit: 2; opacity: 1;"><g class="fills"/><g class="errorbars"/><g class="lines"><path class="js-line" d="M0,37.19L64.86,36.53L65.95,34.68L68.11,34.68L69.19,33.23L70.27,33.23L71.35,29.66L74.59,21.2L75.68,21.2L94.05,21.2L95.14,23.45L97.3,24.5L98.38,24.5L144.86,25.03L145.95,26.09L149.19,26.62L150.27,26.62L153.51,26.62L154.59,31.38L157.84,32.57L158.92,32.57L162.16,33.62L163.24,34.68L181.62,35.87L182.7,37.19L183.78,38.25L184.86,41.82L187.03,44.73L188.11,44.73L200,44.73L201.08,46.45L203.24,48.03L204.32,47.64L210.81,50.02L211.89,50.81L212.97,50.81L214.05,52.92L216.22,54.78L217.3,54.78L219.46,54.78L220.54,57.02L222.7,58.87L223.78,58.87L224.86,58.87L233.51,39.44L235.68,36.53L237.84,36.53L240,39.44L241.08,39.44L246.49,40.37L247.57,40.37L262.7,40.37L263.78,35.87L274.59,35.34L275.68,38.52L277.84,42.22L278.92,42.22L280,42.22" style="vector-effect: non-scaling-stroke; fill: none; stroke: rgb(0, 204, 150); stroke-opacity: 1; stroke-width: 5px; opacity: 1;"/></g><g class="points"/><g class="text"/></g></g></g><g class="overplot"/><path class="xlines-above crisp" d="M0,0" style="fill: none;"/><path class="ylines-above crisp" d="M0,0" style="fill: none;"/><g class="overlines-above"/><g class="xaxislayer-above"/><g class="yaxislayer-above"/><g class="overaxes-above"/></g></g><g class="polarlayer"/><g class="smithlayer"/><g class="ternarylayer"/><g class="geolayer"/><g class="funnelarealayer"/><g class="pielayer"/><g class="iciclelayer"/><g class="treemaplayer"/><g class="sunburstlayer"/><g class="glimages"/><defs id="topdefs-1b4b93"><g class="clips"/></defs><g class="layer-above"><g class="imagelayer"/><g class="shapelayer"/></g><g class="infolayer"><g class="g-gtitle"><text class="gtitle" x="15" y="25" text-anchor="start" dy="0em" style="font-family: Ubuntu, verdana, arial, sans-serif; font-size: 16px; fill: rgb(233, 84, 32); opacity: 1; font-weight: normal; white-space: pre;">Prezident/ka ČR 2023</text></g><g class="g-xtitle"/><g class="g-ytitle"/></g></svg>