<svg class="main-svg" xmlns="http://www.w3.org/2000/svg" xmlns:xlink="http://www.w3.org/1999/xlink" width="1200" height="600" style="" viewBox="0 0 1200 600"><rect x="0" y="0" width="1200" height="600" style="fill: rgb(255, 255, 255); fill-opacity: 1;"/><defs id="defs-38398e"><g class="clips"><clipPath id="clip38398exyplot" class="plotclip"><rect width="975" height="530"/></clipPath><clipPath class="axesclip" id="clip38398ex"><rect x="50" y="0" width="975" height="600"/></clipPath><clipPath class="axesclip" id="clip38398ey"><rect x="0" y="20" width="1200" height="530"/></clipPath><clipPath class="axesclip" id="clip38398exy"><rect x="50" y="20" width="975" height="530"/></clipPath></g><g class="gradients"/><g class="patterns"/></defs><g class="bglayer"/><g class="layer-below"><g class="imagelayer"/><g class="shapelayer"/></g><g class="cartesianlayer"><g class="subplot xy"><g class="layer-subplot"><g class="shapelayer"/><g class="imagelayer"/></g><g class="minor-gridlayer"><g class="x"/><g class="y"/></g><g class="gridlayer"><g class="x"><path class="xgrid crisp" transform="translate(60.09,0)" d="M0,20v530" style="stroke: rgb(235, 240, 248); stroke-opacity: 1; stroke-width: 1px;"/><path class="xgrid crisp" transform="translate(160.95,0)" d="M0,20v530" style="stroke: rgb(235, 240, 248); stroke-opacity: 1; stroke-width: 1px;"/><path class="xgrid crisp" transform="translate(265.16999999999996,0)" d="M0,20v530" style="stroke: rgb(235, 240, 248); stroke-opacity: 1; stroke-width: 1px;"/><path class="xgrid crisp" transform="translate(366.03,0)" d="M0,20v530" style="stroke: rgb(235, 240, 248); stroke-opacity: 1; stroke-width: 1px;"/><path class="xgrid crisp" transform="translate(470.26,0)" d="M0,20v530" style="stroke: rgb(235, 240, 248); stroke-opacity: 1; stroke-width: 1px;"/><path class="xgrid crisp" transform="translate(574.48,0)" d="M0,20v530" style="stroke: rgb(235, 240, 248); stroke-opacity: 1; stroke-width: 1px;"/><path class="xgrid crisp" transform="translate(675.34,0)" d="M0,20v530" style="stroke: rgb(235, 240, 248); stroke-opacity: 1; stroke-width: 1px;"/><path class="xgrid crisp" transform="translate(779.57,0)" d="M0,20v530" style="stroke: rgb(235, 240, 248); stroke-opacity: 1; stroke-width: 1px;"/><path class="xgrid crisp" transform="translate(880.43,0)" d="M0,20v530" style="stroke: rgb(235, 240, 248); stroke-opacity: 1; stroke-width: 1px;"/><path class="xgrid crisp" transform="translate(984.66,0)" d="M0,20v530" style="stroke: rgb(235, 240, 248); stroke-opacity: 1; stroke-width: 1px;"/></g><g class="y"><path class="ygrid crisp" transform="translate(0,466.22)" d="M50,0h975" style="stroke: rgb(235, 240, 248); stroke-opacity: 1; stroke-width: 1px;"/><path class="ygrid crisp" transform="translate(0,382.45)" d="M50,0h975" style="stroke: rgb(235, 240, 248); stroke-opacity: 1; stroke-width: 1px;"/><path class="ygrid crisp" transform="translate(0,298.67)" d="M50,0h975" style="stroke: rgb(235, 240, 248); stroke-opacity: 1; stroke-width: 1px;"/><path class="ygrid crisp" transform="translate(0,214.89)" d="M50,0h975" style="stroke: rgb(235, 240, 248); stroke-opacity: 1; stroke-width: 1px;"/><path class="ygrid crisp" transform="translate(0,131.11)" d="M50,0h975" style="stroke: rgb(235, 240, 248); stroke-opacity: 1; stroke-width: 1px;"/><path class="ygrid crisp" transform="translate(0,47.34)" d="M50,0h975" style="stroke: rgb(235, 240, 248); stroke-opacity: 1; stroke-width: 1px;"/></g></g><g class="zerolinelayer"><path class="yzl zl crisp" transform="translate(0,550)" d="M50,0h975" style="stroke: rgb(235, 240, 248); stroke-opacity: 1; stroke-width: 2px;"/></g><path class="xlines-below"/><path class="ylines-below"/><g class="overlines-below"/><g class="xaxislayer-below"/><g class="yaxislayer-below"/><g class="overaxes-below"/><g class="plot" transform="translate(50,20)" clip-path="url(#clip38398exyplot)"><g class="scatterlayer mlayer"><g class="trace scatter trace79bb88" style="stroke-miterlimit: 2; opacity: 1;"><g class="fills"/><g class="errorbars"/><g class="lines"><path class="js-line" d="M0,142.11L77.33,142.11L80.69,147.14L84.05,151.33L87.41,151.33L104.22,151.33L107.59,160.54L114.31,199.08L117.67,199.08L121.03,199.08L124.4,202.43L127.76,205.78L131.12,205.78L137.84,211.65L141.21,211.65L158.02,211.65L161.38,215L164.74,218.35L168.1,218.35L201.72,218.35L205.09,224.21L211.81,224.21L215.17,235.1L218.53,235.1L221.9,246L225.26,258.56L228.62,262.75L231.98,265.26L235.34,265.26L289.14,265.26L292.5,246L295.86,230.08L299.22,235.1L302.59,232.59L305.95,224.21L329.48,224.21L332.84,220.86L336.21,218.35L339.57,218.35L386.64,218.35L390,220.86L393.36,224.21L396.72,224.21L447.16,224.21L450.52,218.35L457.24,191.54L460.6,188.19L463.97,184L467.33,184L477.41,184L480.78,137.09L484.14,137.09L487.5,132.06L632.07,132.06L635.43,142.11L638.79,147.14L642.16,142.11L645.52,151.33L648.88,151.33L662.33,151.33L665.69,137.09L669.05,122.01L672.41,122.01L679.14,122.01L682.5,106.09L689.22,75.93L692.59,62.52L699.31,62.52L726.21,111.11L732.93,122.01L739.66,122.01L743.02,111.11L746.38,111.11L749.74,116.98L753.1,142.11L756.47,168.92L759.83,151.33L803.53,151.33L806.9,147.14L810.26,137.09L813.62,132.06L816.98,132.06L820.34,176.46L833.79,176.46L843.88,211.65L850.6,218.35L853.97,218.35L860.69,265.26L864.05,265.26L874.14,265.26L877.5,256.05L880.86,265.26L884.22,265.26L887.59,269.45L890.95,251.02L894.31,240.97L897.67,224.21L901.03,199.08L904.4,199.08L927.93,199.08L931.29,184L934.66,184L938.02,172.27L941.38,160.54L944.74,160.54L948.1,160.54L951.47,100.22L954.83,88.5L958.19,88.5L961.55,65.88L964.91,33.2L968.28,26.5" style="vector-effect: non-scaling-stroke; fill: none; stroke: rgb(99, 110, 250); stroke-opacity: 1; stroke-width: 5px; opacity: 1;"/></g><g class="points"/><g class="text"/></g><g class="trace scatter traceb46d26" style="stroke-miterlimit: 2; opacity: 1;"><g class="fills"/><g class="errorbars"/><g class="lines"><path class="js-line" d="M0,281.18L77.33,281.18L80.69,279.51L84.05,277.83L87.41,277.83L201.72,277.83L205.09,265.26L211.81,265.26L215.17,256.05L218.53,256.05L221.9,232.59L225.26,202.43L228.62,188.19L231.98,176.46L235.34,176.46L255.52,176.46L258.88,172.27L262.24,168.92L265.6,168.92L289.14,168.92L292.5,176.46L295.86,191.54L299.22,199.08L447.16,199.08L450.52,202.43L453.88,209.13L457.24,211.65L467.33,211.65L470.69,215L474.05,215L477.41,211.65L480.78,243.48L484.14,248.51L487.5,251.02L490.86,251.02L500.95,251.02L504.31,258.56L507.67,265.26L511.03,265.26L517.76,273.64L521.12,273.64L564.83,273.64L568.19,281.18L571.55,288.72L574.91,312.18L578.28,331.45L581.64,331.45L621.98,331.45L625.34,343.18L628.71,353.23L632.07,353.23L635.43,350.72L638.79,353.23L648.88,353.23L652.24,360.77L658.97,370.82L662.33,370.82L669.05,397.63L672.41,397.63L682.5,397.63L685.86,411.87L689.22,423.6L692.59,423.6L699.31,423.6L726.21,296.26L729.57,283.7L732.93,277.83L739.66,277.83L743.02,296.26L749.74,296.26L753.1,299.61L756.47,302.96L759.83,302.96L780,302.96L783.36,306.32L803.53,306.32L806.9,307.99L810.26,306.32L813.62,302.96L816.98,302.96L820.34,273.64L833.79,273.64L843.88,269.45L853.97,269.45L857.33,291.24L860.69,314.69L864.05,314.69L880.86,314.69L884.22,320.56L894.31,320.56L897.67,326.42L901.03,331.45L904.4,331.45L927.93,331.45L931.29,340.66L934.66,340.66L938.02,338.15L941.38,336.48L944.74,336.48L948.1,336.48L951.47,353.23L958.19,353.23L961.55,293.75L964.91,285.37L968.28,288.72" style="vector-effect: non-scaling-stroke; fill: none; stroke: rgb(239, 85, 59); stroke-opacity: 1; stroke-width: 5px; opacity: 1;"/></g><g class="points"/><g class="text"/></g><g class="trace scatter tracef1abbe" style="stroke-miterlimit: 2; opacity: 1;"><g class="fills"/><g class="errorbars"/><g class="lines"><path class="js-line" d="M0,460.47L16.81,460.47L20.17,463.82L107.59,463.82L110.95,471.36L114.31,477.22L117.67,477.22L211.81,477.22L215.17,450.41L218.53,450.41L221.9,452.09L231.98,460.47L235.34,457.95L248.79,457.95L252.16,454.6L255.52,450.41L258.88,450.41L383.28,450.41L386.64,442.03L390,423.6L393.36,416.06L440.43,416.06L443.79,407.69L447.16,407.69L450.52,402.66L453.88,397.63L457.24,397.63L463.97,382.55L467.33,382.55L470.69,376.69L474.05,367.47L477.41,364.12L480.78,365.8L484.14,365.8L487.5,363.28L494.22,362.45L497.59,362.45L564.83,362.45L568.19,366.63L571.55,370.82L574.91,362.45L578.28,353.23L581.64,353.23L632.07,353.23L635.43,347.37L638.79,340.66L642.16,340.66L645.52,349.04L648.88,353.23L652.24,353.23L655.6,343.18L658.97,331.45L662.33,331.45L669.05,320.56L672.41,320.56L679.14,320.56L682.5,323.07L685.86,308.83L689.22,288.72L699.31,288.72L726.21,324.75L729.57,331.45L732.93,331.45L739.66,331.45L743.02,336.48L746.38,336.48L749.74,333.96L753.1,323.07L756.47,302.96L780,302.96L783.36,299.61L800.17,299.61L803.53,297.94L806.9,296.26L810.26,292.91L813.62,296.26L816.98,288.72L820.34,273.64L823.71,273.64L833.79,273.64L843.88,235.1L850.6,224.21L853.97,224.21L860.69,142.11L864.05,142.11L874.14,142.11L877.5,151.33L884.22,132.06L887.59,132.06L897.67,184L901.03,199.08L927.93,199.08L931.29,211.65L934.66,211.65L938.02,224.21L941.38,235.1L944.74,235.1L948.1,235.1L951.47,288.72L954.83,302.96L958.19,302.96L961.55,386.74L964.91,430.31L968.28,436.17" style="vector-effect: non-scaling-stroke; fill: none; stroke: rgb(0, 204, 150); stroke-opacity: 1; stroke-width: 5px; opacity: 1;"/></g><g class="points"/><g class="text"/></g></g></g><g class="overplot"/><path class="xlines-above crisp" d="M0,0" style="fill: none;"/><path class="ylines-above crisp" d="M0,0" style="fill: none;"/><g class="overlines-above"/><g class="xaxislayer-above"><g class="xtick"><text text-anchor="middle" x="0" y="563" transform="translate(60.09,0)" style="font-family: 'Open Sans', verdana, arial, sans-serif; font-size: 12px; fill: rgb(42, 63, 95); fill-opacity: 1; white-space: pre; opacity: 1;">1.4.22</text></g><g class="xtick"><text text-anchor="middle" x="0" y="563" style="font-family: 'Open Sans', verdana, arial, sans-serif; font-size: 12px; fill: rgb(42, 63, 95); fill-opacity: 1; white-space: pre; opacity: 1;" transform="translate(160.95,0)">1.5.22</text></g><g class="xtick"><text text-anchor="middle" x="0" y="563" style="font-family: 'Open Sans', verdana, arial, sans-serif; font-size: 12px; fill: rgb(42, 63, 95); fill-opacity: 1; white-space: pre; opacity: 1;" transform="translate(265.16999999999996,0)">1.6.22</text></g><g class="xtick"><text text-anchor="middle" x="0" y="563" style="font-family: 'Open Sans', verdana, arial, sans-serif; font-size: 12px; fill: rgb(42, 63, 95); fill-opacity: 1; white-space: pre; opacity: 1;" transform="translate(366.03,0)">1.7.22</text></g><g class="xtick"><text text-anchor="middle" x="0" y="563" style="font-family: 'Open Sans', verdana, arial, sans-serif; font-size: 12px; fill: rgb(42, 63, 95); fill-opacity: 1; white-space: pre; opacity: 1;" transform="translate(470.26,0)">1.8.22</text></g><g class="xtick"><text text-anchor="middle" x="0" y="563" style="font-family: 'Open Sans', verdana, arial, sans-serif; font-size: 12px; fill: rgb(42, 63, 95); fill-opacity: 1; white-space: pre; opacity: 1;" transform="translate(574.48,0)">1.9.22</text></g><g class="xtick"><text text-anchor="middle" x="0" y="563" style="font-family: 'Open Sans', verdana, arial, sans-serif; font-size: 12px; fill: rgb(42, 63, 95); fill-opacity: 1; white-space: pre; opacity: 1;" transform="translate(675.34,0)">1.10.22</text></g><g class="xtick"><text text-anchor="middle" x="0" y="563" style="font-family: 'Open Sans', verdana, arial, sans-serif; font-size: 12px; fill: rgb(42, 63, 95); fill-opacity: 1; white-space: pre; opacity: 1;" transform="translate(779.57,0)">1.11.22</text></g><g class="xtick"><text text-anchor="middle" x="0" y="563" style="font-family: 'Open Sans', verdana, arial, sans-serif; font-size: 12px; fill: rgb(42, 63, 95); fill-opacity: 1; white-space: pre; opacity: 1;" transform="translate(880.43,0)">1.12.22</text></g><g class="xtick"><text text-anchor="middle" x="0" y="563" style="font-family: 'Open Sans', verdana, arial, sans-serif; font-size: 12px; fill: rgb(42, 63, 95); fill-opacity: 1; white-space: pre; opacity: 1;" transform="translate(984.66,0)">1.1.23</text></g></g><g class="yaxislayer-above"><g class="ytick"><text text-anchor="end" x="49" y="4.199999999999999" transform="translate(0,550)" style="font-family: 'Open Sans', verdana, arial, sans-serif; font-size: 12px; fill: rgb(42, 63, 95); fill-opacity: 1; white-space: pre; opacity: 1;">0%</text></g><g class="ytick"><text text-anchor="end" x="49" y="4.199999999999999" style="font-family: 'Open Sans', verdana, arial, sans-serif; font-size: 12px; fill: rgb(42, 63, 95); fill-opacity: 1; white-space: pre; opacity: 1;" transform="translate(0,466.22)">10%</text></g><g class="ytick"><text text-anchor="end" x="49" y="4.199999999999999" style="font-family: 'Open Sans', verdana, arial, sans-serif; font-size: 12px; fill: rgb(42, 63, 95); fill-opacity: 1; white-space: pre; opacity: 1;" transform="translate(0,382.45)">20%</text></g><g class="ytick"><text text-anchor="end" x="49" y="4.199999999999999" style="font-family: 'Open Sans', verdana, arial, sans-serif; font-size: 12px; fill: rgb(42, 63, 95); fill-opacity: 1; white-space: pre; opacity: 1;" transform="translate(0,298.67)">30%</text></g><g class="ytick"><text text-anchor="end" x="49" y="4.199999999999999" style="font-family: 'Open Sans', verdana, arial, sans-serif; font-size: 12px; fill: rgb(42, 63, 95); fill-opacity: 1; white-space: pre; opacity: 1;" transform="translate(0,214.89)">40%</text></g><g class="ytick"><text text-anchor="end" x="49" y="4.199999999999999" style="font-family: 'Open Sans', verdana, arial, sans-serif; font-size: 12px; fill: rgb(42, 63, 95); fill-opacity: 1; white-space: pre; opacity: 1;" transform="translate(0,131.11)">50%</text></g><g class="ytick"><text text-anchor="end" x="49" y="4.199999999999999" style="font-family: 'Open Sans', verdana, arial, sans-serif; font-size: 12px; fill: rgb(42, 63, 95); fill-opacity: 1; white-space: pre; opacity: 1;" transform="translate(0,47.34)">60%</text></g></g><g class="overaxes-above"/></g></g><g class="polarlayer"/><g class="smithlayer"/><g class="ternarylayer"/><g class="geolayer"/><g class="funnelarealayer"/><g class="pielayer"/><g class="iciclelayer"/><g class="treemaplayer"/><g class="sunburstlayer"/><g class="glimages"/><defs id="topdefs-38398e"><g class="clips"/><clipPath id="legend38398e"><rect width="143" height="67" x="0" y="0"/></clipPath></defs><g class="layer-above"><g class="imagelayer"/><g class="shapelayer"/></g><g class="infolayer"><g class="legend" pointer-events="all" transform="translate(1044.5,20)"><rect class="bg" shape-rendering="crispEdges" style="stroke: rgb(68, 68, 68); stroke-opacity: 1; fill: rgb(255, 255, 255); fill-opacity: 1; stroke-width: 0px;" width="143" height="67" x="0" y="0"/><g class="scrollbox" transform="" clip-path="url(#legend38398e)"><g class="groups"><g class="traces" transform="translate(0,14.5)" style="opacity: 1;"><text class="legendtext" text-anchor="start" x="40" y="4.680000000000001" style="font-family: 'Open Sans', verdana, arial, sans-serif; font-size: 12px; fill: rgb(42, 63, 95); fill-opacity: 1; white-space: pre;">Pavel Petr</text><g class="layers" style="opacity: 1;"><g class="legendfill"/><g class="legendlines"><path class="js-line" d="M5,0h30" style="fill: none; stroke: rgb(99, 110, 250); stroke-opacity: 1; stroke-width: 5px;"/></g><g class="legendsymbols"><g class="legendpoints"/></g></g><rect class="legendtoggle" x="0" y="-9.5" width="137.0625" height="19" style="fill: rgb(0, 0, 0); fill-opacity: 0;"/></g><g class="traces" transform="translate(0,33.5)" style="opacity: 1;"><text class="legendtext" text-anchor="start" x="40" y="4.680000000000001" style="font-family: 'Open Sans', verdana, arial, sans-serif; font-size: 12px; fill: rgb(42, 63, 95); fill-opacity: 1; white-space: pre;">Babiš Andrej</text><g class="layers" style="opacity: 1;"><g class="legendfill"/><g class="legendlines"><path class="js-line" d="M5,0h30" style="fill: none; stroke: rgb(239, 85, 59); stroke-opacity: 1; stroke-width: 5px;"/></g><g class="legendsymbols"><g class="legendpoints"/></g></g><rect class="legendtoggle" x="0" y="-9.5" width="137.0625" height="19" style="fill: rgb(0, 0, 0); fill-opacity: 0;"/></g><g class="traces" transform="translate(0,52.5)" style="opacity: 1;"><text class="legendtext" text-anchor="start" x="40" y="4.680000000000001" style="font-family: 'Open Sans', verdana, arial, sans-serif; font-size: 12px; fill: rgb(42, 63, 95); fill-opacity: 1; white-space: pre;">Nerudová Danuše</text><g class="layers" style="opacity: 1;"><g class="legendfill"/><g class="legendlines"><path class="js-line" d="M5,0h30" style="fill: none; stroke: rgb(0, 204, 150); stroke-opacity: 1; stroke-width: 5px;"/></g><g class="legendsymbols"><g class="legendpoints"/></g></g><rect class="legendtoggle" x="0" y="-9.5" width="137.0625" height="19" style="fill: rgb(0, 0, 0); fill-opacity: 0;"/></g></g></g><rect class="scrollbar" rx="20" ry="3" width="0" height="0" style="fill: rgb(128, 139, 164); fill-opacity: 1;" x="0" y="0"/></g><g class="g-gtitle"/><g class="g-xtitle"/><g class="g-ytitle"/></g></svg>