<svg class="main-svg" xmlns="http://www.w3.org/2000/svg" xmlns:xlink="http://www.w3.org/1999/xlink" width="300" height="135" style="" viewBox="0 0 300 135"><rect x="0" y="0" width="300" height="135" style="fill: rgb(255, 255, 255); fill-opacity: 1;"/><defs id="defs-732cce"><g class="clips"><clipPath id="clip732ccexyplot" class="plotclip"><rect width="280" height="75"/></clipPath><clipPath class="axesclip" id="clip732ccex"><rect x="10" y="0" width="280" height="135"/></clipPath><clipPath class="axesclip" id="clip732ccey"><rect x="0" y="50" width="300" height="75"/></clipPath><clipPath class="axesclip" id="clip732ccexy"><rect x="10" y="50" width="280" height="75"/></clipPath></g><g class="gradients"/><g class="patterns"/></defs><g class="bglayer"/><g class="layer-below"><g class="imagelayer"/><g class="shapelayer"/></g><g class="cartesianlayer"><g class="subplot xy"><g class="layer-subplot"><g class="shapelayer"/><g class="imagelayer"/></g><g class="minor-gridlayer"><g class="x"/><g class="y"/></g><g class="gridlayer"><g class="x"><path class="xgrid crisp" transform="translate(43.85,0)" d="M0,50v75" style="stroke: rgb(235, 240, 248); stroke-opacity: 1; stroke-width: 1px;"/><path class="xgrid crisp" transform="translate(106.41,0)" d="M0,50v75" style="stroke: rgb(235, 240, 248); stroke-opacity: 1; stroke-width: 1px;"/><path class="xgrid crisp" transform="translate(170,0)" d="M0,50v75" style="stroke: rgb(235, 240, 248); stroke-opacity: 1; stroke-width: 1px;"/><path class="xgrid crisp" transform="translate(232.56,0)" d="M0,50v75" style="stroke: rgb(235, 240, 248); stroke-opacity: 1; stroke-width: 1px;"/></g><g class="y"><path class="ygrid crisp" transform="translate(0,98.75999999999999)" d="M10,0h280" style="stroke: rgb(235, 240, 248); stroke-opacity: 1; stroke-width: 1px;"/><path class="ygrid crisp" transform="translate(0,72.51)" d="M10,0h280" style="stroke: rgb(235, 240, 248); stroke-opacity: 1; stroke-width: 1px;"/></g></g><g class="zerolinelayer"><path class="yzl zl crisp" transform="translate(0,125)" d="M10,0h280" style="stroke: rgb(235, 240, 248); stroke-opacity: 1; stroke-width: 2px;"/></g><path class="xlines-below"/><path class="ylines-below"/><g class="overlines-below"/><g class="xaxislayer-below"/><g class="yaxislayer-below"/><g class="overaxes-below"/><g class="plot" transform="translate(10,50)" clip-path="url(#clip732ccexyplot)"><g class="scatterlayer mlayer"><g class="trace scatter trace927c5a" style="stroke-miterlimit: 2; opacity: 1;"><g class="fills"/><g class="errorbars"/><g class="lines"><path class="js-line" d="M0,64.5L32.82,64.9L33.85,66.08L36.92,66.86L37.95,66.86L64.62,66.86L65.64,62.93L69.74,63.98L70.77,64.5L73.85,63.98L74.87,63.98L116.92,62.93L117.95,61.48L120,57.68L121.03,57.68L134.36,57.68L135.38,56.37L137.44,55.58L138.46,54.79L140.51,53.74L141.54,52.56L143.59,51.64L144.62,50.33L147.69,50.07L148.72,49.68L157.95,49.54L158.97,49.54L175.38,49.54L176.41,48.1L193.85,47.18L194.87,46.13L195.9,46.13L196.92,47.44L198.97,48.1L200,46.53L202.05,44.69L203.08,43.9L205.13,43.11L206.15,43.11L208.21,43.51L209.23,41.41L211.28,38.26L212.31,38.26L213.33,38.26L221.54,43.64L223.59,44.69L225.64,44.69L227.69,45.48L228.72,45.08L231.79,40.36L232.82,40.36L246.15,39.44L247.18,38.78L248.21,39.44L249.23,38.26L251.28,35.9L252.31,35.9L254.36,35.9L257.44,30.12L260.51,28.42L261.54,22.91L263.59,15.95L264.62,15.95L266.67,15.95L267.69,17.27L270.77,14.38L271.79,17.27L275.9,24.48L276.92,24.48L280,24.48" style="vector-effect: non-scaling-stroke; fill: none; stroke: rgb(99, 110, 250); stroke-opacity: 1; stroke-width: 5px; opacity: 1;"/></g><g class="points"/><g class="text"/></g><g class="trace scatter trace8fff8a" style="stroke-miterlimit: 2; opacity: 1;"><g class="fills"/><g class="errorbars"/><g class="lines"><path class="js-line" d="M0,15.95L24.62,16.61L25.64,17.27L31.79,17.27L32.82,18.71L35.9,24.48L36.92,24.48L43.08,26.58L44.1,26.58L61.54,27.5L62.56,28.42L64.62,28.42L65.64,30.12L66.67,30.12L67.69,31.7L69.74,34.32L70.77,34.59L88.21,34.59L89.23,31.7L90.26,29.34L91.28,30.12L92.31,29.73L94.36,28.42L95.38,28.42L137.44,27.5L138.46,25.01L141.54,22.38L142.56,22.38L145.64,22.38L146.67,15.17L192.82,14.38L193.85,15.95L197.95,17.27L198.97,17.27L202.05,17.27L203.08,15.17L205.13,12.94L206.15,12.94L207.18,12.94L208.21,10.44L211.28,3.75L212.31,3.75L213.33,3.75L221.54,11.23L223.59,12.94L225.64,12.94L227.69,11.23L228.72,12.02L230.77,19.89L231.79,17.27L246.15,16.61L247.18,15.17L249.23,14.38L250.26,21.2L254.36,21.2L257.44,26.58L260.51,27.5L261.54,31.31L263.59,34.59L264.62,34.59L266.67,34.59L267.69,33.27L270.77,35.24L271.79,32.49L273.85,28.42L274.87,24.48L280,24.48" style="vector-effect: non-scaling-stroke; fill: none; stroke: rgb(239, 85, 59); stroke-opacity: 1; stroke-width: 5px; opacity: 1;"/></g><g class="points"/><g class="text"/></g><g class="trace scatter trace8733d6" style="stroke-miterlimit: 2; opacity: 1;"><g class="fills"/><g class="errorbars"/><g class="lines"><path class="js-line" d="M0,37.21L61.54,36.55L62.56,34.59L64.62,34.59L65.64,33.27L66.67,33.27L67.69,29.73L70.77,21.2L71.79,21.2L78.97,20.55L80,19.89L88.21,19.89L89.23,21.2L91.28,24.48L92.31,24.48L137.44,25.01L138.46,26.06L141.54,26.58L142.56,26.58L145.64,26.58L146.67,31.31L149.74,32.49L150.77,32.49L153.85,33.54L154.87,34.59L156.92,35.24L157.95,35.9L172.31,35.9L173.33,37.21L174.36,38.26L175.38,41.8L177.44,44.69L178.46,44.69L189.74,44.69L190.77,46.53L192.82,48.1L193.85,47.58L196.92,48.1L197.95,48.1L201.03,50.73L202.05,50.73L205.13,54.79L206.15,54.79L208.21,54.79L209.23,57.02L211.28,58.86L212.31,58.86L213.33,58.86L221.54,39.44L223.59,36.55L225.64,36.55L227.69,39.44L228.72,39.44L233.85,40.36L234.87,40.36L249.23,40.36L250.26,35.9L260.51,35.24L261.54,38.52L263.59,42.33L264.62,42.33L272.82,43.11L273.85,43.9L275.9,44.69L276.92,44.69L280,44.69" style="vector-effect: non-scaling-stroke; fill: none; stroke: rgb(0, 204, 150); stroke-opacity: 1; stroke-width: 5px; opacity: 1;"/></g><g class="points"/><g class="text"/></g></g></g><g class="overplot"/><path class="xlines-above crisp" d="M0,0" style="fill: none;"/><path class="ylines-above crisp" d="M0,0" style="fill: none;"/><g class="overlines-above"/><g class="xaxislayer-above"/><g class="yaxislayer-above"/><g class="overaxes-above"/></g></g><g class="polarlayer"/><g class="smithlayer"/><g class="ternarylayer"/><g class="geolayer"/><g class="funnelarealayer"/><g class="pielayer"/><g class="iciclelayer"/><g class="treemaplayer"/><g class="sunburstlayer"/><g class="glimages"/><defs id="topdefs-732cce"><g class="clips"/></defs><g class="layer-above"><g class="imagelayer"/><g class="shapelayer"/></g><g class="infolayer"><g class="g-gtitle"><text class="gtitle" x="15" y="25" text-anchor="start" dy="0em" style="font-family: Ubuntu, verdana, arial, sans-serif; font-size: 16px; fill: rgb(233, 84, 32); opacity: 1; font-weight: normal; white-space: pre;">Prezident/ka ČR 2023</text></g><g class="g-xtitle"/><g class="g-ytitle"/></g></svg>