<svg class="main-svg" xmlns="http://www.w3.org/2000/svg" xmlns:xlink="http://www.w3.org/1999/xlink" width="300" height="135" style="" viewBox="0 0 300 135"><rect x="0" y="0" width="300" height="135" style="fill: rgb(255, 255, 255); fill-opacity: 1;"/><defs id="defs-17c455"><g class="clips"><clipPath id="clip17c455xyplot" class="plotclip"><rect width="280" height="75"/></clipPath><clipPath class="axesclip" id="clip17c455x"><rect x="10" y="0" width="280" height="135"/></clipPath><clipPath class="axesclip" id="clip17c455y"><rect x="0" y="50" width="300" height="75"/></clipPath><clipPath class="axesclip" id="clip17c455xy"><rect x="10" y="50" width="280" height="75"/></clipPath></g><g class="gradients"/><g class="patterns"/></defs><g class="bglayer"/><g class="layer-below"><g class="imagelayer"/><g class="shapelayer"/></g><g class="cartesianlayer"><g class="subplot xy"><g class="layer-subplot"><g class="shapelayer"/><g class="imagelayer"/></g><g class="minor-gridlayer"><g class="x"/><g class="y"/></g><g class="gridlayer"><g class="x"><path class="xgrid crisp" transform="translate(51.62,0)" d="M0,50v75" style="stroke: rgb(235, 240, 248); stroke-opacity: 1; stroke-width: 1px;"/><path class="xgrid crisp" transform="translate(128.56,0)" d="M0,50v75" style="stroke: rgb(235, 240, 248); stroke-opacity: 1; stroke-width: 1px;"/><path class="xgrid crisp" transform="translate(206.76,0)" d="M0,50v75" style="stroke: rgb(235, 240, 248); stroke-opacity: 1; stroke-width: 1px;"/><path class="xgrid crisp" transform="translate(283.69,0)" d="M0,50v75" style="stroke: rgb(235, 240, 248); stroke-opacity: 1; stroke-width: 1px;"/></g><g class="y"><path class="ygrid crisp" transform="translate(0,97.17)" d="M10,0h280" style="stroke: rgb(235, 240, 248); stroke-opacity: 1; stroke-width: 1px;"/><path class="ygrid crisp" transform="translate(0,69.34)" d="M10,0h280" style="stroke: rgb(235, 240, 248); stroke-opacity: 1; stroke-width: 1px;"/></g></g><g class="zerolinelayer"><path class="yzl zl crisp" transform="translate(0,125)" d="M10,0h280" style="stroke: rgb(235, 240, 248); stroke-opacity: 1; stroke-width: 2px;"/></g><path class="xlines-below"/><path class="ylines-below"/><g class="overlines-below"/><g class="xaxislayer-below"/><g class="yaxislayer-below"/><g class="overaxes-below"/><g class="plot" transform="translate(10,50)" clip-path="url(#clip17c455xyplot)"><g class="scatterlayer mlayer"><g class="trace scatter trace433354" style="stroke-miterlimit: 2; opacity: 1;"><g class="fills"/><g class="errorbars"/><g class="lines"><path class="js-line" d="M0,16L30.27,16.69L31.53,17.39L40.36,18.64L41.62,21.84L44.14,24.62L45.41,24.62L54.23,26.57L55.5,26.57L75.68,27.55L76.94,28.38L79.46,28.38L80.72,30.19L81.98,30.19L83.24,31.72L85.77,34.37L87.03,34.64L108.47,34.64L109.73,31.72L110.99,29.36L112.25,30.19L118.56,28.38L119.82,28.38L169.01,27.55L170.27,25.04L174.05,22.4L175.32,22.4L179.1,22.4L180.36,15.16L237.12,14.47L238.38,16L243.42,17.39L244.68,17.39L248.47,17.39L249.73,15.16L252.25,12.93L253.51,12.93L254.77,12.93L256.04,10.43L259.82,3.75L261.08,3.75L262.34,3.75L272.43,11.26L274.95,12.93L277.48,12.93L280,11.26" style="vector-effect: non-scaling-stroke; fill: none; stroke: rgb(99, 110, 250); stroke-opacity: 1; stroke-width: 5px; opacity: 1;"/></g><g class="points"/><g class="text"/></g><g class="trace scatter traceb6d272" style="stroke-miterlimit: 2; opacity: 1;"><g class="fills"/><g class="errorbars"/><g class="lines"><path class="js-line" d="M0,37.15L75.68,36.59L76.94,34.64L79.46,34.64L80.72,33.25L81.98,33.25L83.24,29.77L85.77,22.95L87.03,21.15L109.73,21.15L110.99,23.51L113.51,24.62L114.77,24.62L169.01,25.04L170.27,26.15L176.58,26.99L177.84,26.99L179.1,26.57L180.36,31.44L184.14,32.56L185.41,32.56L189.19,33.67L190.45,34.64L192.97,35.34L194.23,35.9L213.15,37.15L214.41,38.26L216.94,44.8L218.2,44.8L233.33,44.8L234.59,46.47L237.12,48.14L238.38,47.59L242.16,48.14L243.42,48.14L247.21,50.79L248.47,50.79L250.99,54.82L252.25,54.82L256.04,54.82L257.3,57.05L259.82,58.86L261.08,58.86L262.34,58.86L272.43,39.38L274.95,36.59L277.48,36.59L280,39.38" style="vector-effect: non-scaling-stroke; fill: none; stroke: rgb(239, 85, 59); stroke-opacity: 1; stroke-width: 5px; opacity: 1;"/></g><g class="points"/><g class="text"/></g><g class="trace scatter tracead28cc" style="stroke-miterlimit: 2; opacity: 1;"><g class="fills"/><g class="errorbars"/><g class="lines"><path class="js-line" d="M0,64.42L40.36,64.98L41.62,66.09L44.14,66.93L45.41,66.93L79.46,66.93L80.72,62.89L85.77,64.01L87.03,64.42L92.07,64.01L93.33,64.01L98.38,62.89L99.64,62.89L143.78,62.89L145.05,61.5L147.57,57.74L148.83,57.74L165.23,57.74L166.49,56.35L169.01,55.66L170.27,54.82L172.79,53.71L174.05,52.6L176.58,51.76L177.84,50.23L182.88,49.67L184.14,49.53L213.15,50.23L214.41,50.79L218.2,48.14L219.46,48.14L238.38,47.17L239.64,46.19L240.9,46.19L242.16,47.45L244.68,48.14L245.95,46.47L248.47,44.8L249.73,43.97L252.25,43.13L253.51,43.13L256.04,43.55L257.3,41.32L259.82,38.26L261.08,38.26L262.34,38.26L272.43,43.69L274.95,44.8L277.48,44.8L280,45.5" style="vector-effect: non-scaling-stroke; fill: none; stroke: rgb(0, 204, 150); stroke-opacity: 1; stroke-width: 5px; opacity: 1;"/></g><g class="points"/><g class="text"/></g><g class="trace scatter tracea12dcf" style="stroke-miterlimit: 2; opacity: 1;"><g class="fills"/><g class="errorbars"/><g class="lines"><path class="js-line" d="M0,63.45L81.98,64.01L83.24,64.28L99.64,64.98L100.9,64.98L176.58,66.23L177.84,66.65L186.67,67.49L187.93,67.49L237.12,66.65L238.38,65.26L244.68,66.37L245.95,66.37L256.04,66.37L257.3,67.9L259.82,69.43L261.08,69.43L280,70.41" style="vector-effect: non-scaling-stroke; fill: none; stroke: rgb(171, 99, 250); stroke-opacity: 1; stroke-width: 5px; opacity: 1;"/></g><g class="points"/><g class="text"/></g><g class="trace scatter trace969077" style="stroke-miterlimit: 2; opacity: 1;"><g class="fills"/><g class="errorbars"/><g class="lines"><path class="js-line" d="M0,71.66L145.05,71.1L146.31,70.55L280,71.52" style="vector-effect: non-scaling-stroke; fill: none; stroke: rgb(255, 161, 90); stroke-opacity: 1; stroke-width: 5px; opacity: 1;"/></g><g class="points"/><g class="text"/></g></g></g><g class="overplot"/><path class="xlines-above crisp" d="M0,0" style="fill: none;"/><path class="ylines-above crisp" d="M0,0" style="fill: none;"/><g class="overlines-above"/><g class="xaxislayer-above"/><g class="yaxislayer-above"/><g class="overaxes-above"/></g></g><g class="polarlayer"/><g class="smithlayer"/><g class="ternarylayer"/><g class="geolayer"/><g class="funnelarealayer"/><g class="pielayer"/><g class="iciclelayer"/><g class="treemaplayer"/><g class="sunburstlayer"/><g class="glimages"/><defs id="topdefs-17c455"><g class="clips"/></defs><g class="layer-above"><g class="imagelayer"/><g class="shapelayer"/></g><g class="infolayer"><g class="g-gtitle"><text class="gtitle" x="15" y="25" text-anchor="start" dy="0em" style="font-family: Ubuntu, verdana, arial, sans-serif; font-size: 16px; fill: rgb(233, 84, 32); opacity: 1; font-weight: normal; white-space: pre;">Prezident/ka ČR 2023</text></g><g class="g-xtitle"/><g class="g-ytitle"/></g></svg>