<svg class="main-svg" xmlns="http://www.w3.org/2000/svg" xmlns:xlink="http://www.w3.org/1999/xlink" width="400" height="400" style="" viewBox="0 0 400 400"><rect x="0" y="0" width="400" height="400" style="fill: rgb(255, 255, 255); fill-opacity: 1;"/><defs id="defs-17f072"><g class="clips"><clipPath id="clip17f072xyplot" class="plotclip"><rect width="181" height="330"/></clipPath><clipPath class="axesclip" id="clip17f072x"><rect x="50" y="0" width="181" height="400"/></clipPath><clipPath class="axesclip" id="clip17f072y"><rect x="0" y="20" width="400" height="330"/></clipPath><clipPath class="axesclip" id="clip17f072xy"><rect x="50" y="20" width="181" height="330"/></clipPath></g><g class="gradients"/><g class="patterns"/></defs><g class="bglayer"/><g class="layer-below"><g class="imagelayer"/><g class="shapelayer"/></g><g class="cartesianlayer"><g class="subplot xy"><g class="layer-subplot"><g class="shapelayer"/><g class="imagelayer"/></g><g class="gridlayer"><g class="x"><path class="xgrid crisp" transform="translate(70.6,0)" d="M0,20v330" style="stroke: rgb(235, 240, 248); stroke-opacity: 1; stroke-width: 1px;"/><path class="xgrid crisp" transform="translate(108.67,0)" d="M0,20v330" style="stroke: rgb(235, 240, 248); stroke-opacity: 1; stroke-width: 1px;"/><path class="xgrid crisp" transform="translate(147.37,0)" d="M0,20v330" style="stroke: rgb(235, 240, 248); stroke-opacity: 1; stroke-width: 1px;"/><path class="xgrid crisp" transform="translate(185.44,0)" d="M0,20v330" style="stroke: rgb(235, 240, 248); stroke-opacity: 1; stroke-width: 1px;"/><path class="xgrid crisp" transform="translate(223.51,0)" d="M0,20v330" style="stroke: rgb(235, 240, 248); stroke-opacity: 1; stroke-width: 1px;"/></g><g class="y"><path class="ygrid crisp" transform="translate(0,293.51)" d="M50,0h181" style="stroke: rgb(235, 240, 248); stroke-opacity: 1; stroke-width: 1px;"/><path class="ygrid crisp" transform="translate(0,237.03)" d="M50,0h181" style="stroke: rgb(235, 240, 248); stroke-opacity: 1; stroke-width: 1px;"/><path class="ygrid crisp" transform="translate(0,180.54)" d="M50,0h181" style="stroke: rgb(235, 240, 248); stroke-opacity: 1; stroke-width: 1px;"/><path class="ygrid crisp" transform="translate(0,124.05)" d="M50,0h181" style="stroke: rgb(235, 240, 248); stroke-opacity: 1; stroke-width: 1px;"/><path class="ygrid crisp" transform="translate(0,67.57)" d="M50,0h181" style="stroke: rgb(235, 240, 248); stroke-opacity: 1; stroke-width: 1px;"/></g></g><g class="zerolinelayer"><path class="yzl zl crisp" transform="translate(0,350)" d="M50,0h181" style="stroke: rgb(235, 240, 248); stroke-opacity: 1; stroke-width: 2px;"/></g><path class="xlines-below"/><path class="ylines-below"/><g class="overlines-below"/><g class="xaxislayer-below"/><g class="yaxislayer-below"/><g class="overaxes-below"/><g class="plot" transform="translate(50,20)" clip-path="url(#clip17f072xyplot)"><g class="scatterlayer mlayer"><g class="trace scatter tracea495f8" style="stroke-miterlimit: 2; opacity: 1;"><g class="fills"/><g class="errorbars"/><g class="lines"><path class="js-line" d="M0,70.16L14.36,70.16L14.98,72.99L16.85,76.38L17.48,76.38L19.35,76.38L19.97,82.02L21.84,108.01L22.47,108.01L26.21,117.05L26.84,117.05L29.33,117.05L29.96,118.74L31.83,121L32.46,121L37.45,121L38.07,124.95L39.32,124.95L39.94,132.86L40.57,132.86L41.19,139.64L43.07,152.07L43.69,152.07L53.68,152.07L54.3,139.64L54.92,128.91L55.55,132.86L56.17,130.6L58.04,124.95L58.67,124.95L61.17,124.95L61.79,123.26L63.66,121L64.29,121L71.78,121L72.4,123.26L74.27,124.95L74.9,124.95L83.01,124.95L83.63,121L86.13,98.41L86.76,98.41L88.63,98.41L89.25,66.77L89.88,66.77L90.5,63.38L117.34,63.38L117.96,70.16L120.46,76.38L121.08,76.38L122.96,76.38L123.58,66.77L125.45,56.61L126.08,56.61L129.2,16.5L129.82,16.5L136.06,56.61L137.31,56.61L138.56,49.26L139.18,53.22L140.43,87.67L141.06,76.38L141.68,76.38L149.17,76.38L149.79,72.99L151.67,63.38L152.29,93.32L154.79,93.32L156.66,117.05L158.53,121L159.16,137.95L161.03,152.07L161.65,152.07L162.28,152.07L162.9,146.42L164.77,155.46L165.4,143.03L166.64,124.95L167.27,108.01L172.26,108.01L172.89,98.41L173.51,98.41L174.13,90.5L176.01,82.02L176.63,41.92L178.5,16.5" style="vector-effect: non-scaling-stroke; fill: none; stroke: rgb(99, 110, 250); stroke-opacity: 1; stroke-width: 5px; opacity: 1;"/></g><g class="points"/><g class="text"/></g><g class="trace scatter tracea5f9af" style="stroke-miterlimit: 2; opacity: 1;"><g class="fills"/><g class="errorbars"/><g class="lines"><path class="js-line" d="M0,163.36L14.98,162.24L15.6,160.54L37.45,160.54L38.07,152.07L39.32,152.07L39.94,146.42L40.57,146.42L41.19,130.6L43.07,93.32L43.69,93.32L47.43,93.32L48.06,90.5L49.93,87.67L50.56,87.67L53.68,87.67L54.3,93.32L56.17,108.01L56.8,108.01L83.01,108.01L83.63,110.27L85.51,117.05L86.13,117.05L86.76,117.05L87.38,118.74L88,118.74L88.63,117.05L90.5,143.03L91.12,143.03L93,143.03L93.62,147.55L96.12,158.28L96.74,158.28L104.86,158.28L105.48,163.36L106.73,183.7L107.35,196.69L115.47,196.69L116.09,204.6L117.34,211.38L117.96,209.68L119.83,211.38L120.46,211.38L124.83,241.32L125.45,241.32L126.7,241.32L127.32,250.92L129.2,258.83L129.82,258.83L136.06,160.54L137.31,160.54L139.18,172.97L139.81,175.23L141.68,177.49L142.3,177.49L144.8,177.49L145.42,179.75L150.42,179.75L151.04,177.49L151.67,177.49L152.29,158.28L154.79,158.28L156.66,155.46L158.53,155.46L159.16,169.58L161.03,185.96L161.65,185.96L163.52,185.96L164.15,189.91L166.02,189.91L166.64,193.3L168.52,196.69L169.14,196.69L172.26,196.69L172.89,202.91L174.13,201.78L174.76,200.08L176.01,200.08L176.63,211.38L177.88,211.38L178.5,189.91" style="vector-effect: non-scaling-stroke; fill: none; stroke: rgb(239, 85, 59); stroke-opacity: 1; stroke-width: 5px; opacity: 1;"/></g><g class="points"/><g class="text"/></g><g class="trace scatter trace8be602" style="stroke-miterlimit: 2; opacity: 1;"><g class="fills"/><g class="errorbars"/><g class="lines"><path class="js-line" d="M0,283.68L3.12,283.68L3.74,285.38L19.97,285.38L20.6,290.46L22.47,294.41L23.09,294.41L39.32,294.41L39.94,276.9L41.19,278.03L41.82,279.16L43.07,283.68L43.69,281.42L44.31,281.42L46.19,281.42L46.81,279.16L48.68,276.9L49.31,276.9L71.15,276.9L71.78,270.69L73.65,253.74L74.27,253.74L81.76,253.74L82.39,248.09L83.01,248.09L83.63,244.71L88.63,218.72L89.25,219.85L89.88,219.85L91.75,217.59L92.37,217.59L104.86,217.59L105.48,220.42L106.1,223.24L106.73,217.59L108.6,211.38L109.22,211.38L117.34,211.38L117.96,207.42L119.21,202.91L119.83,209.12L121.08,211.38L121.71,204.6L123.58,193.3L124.2,189.91L126.08,189.91L126.7,191.61L129.2,168.45L129.82,168.45L136.06,196.69L137.31,196.69L138.56,200.08L139.18,198.39L141.68,177.49L142.3,177.49L144.8,177.49L145.42,175.23L149.17,174.1L149.79,172.97L151.67,168.45L152.29,158.28L154.79,158.28L156.66,132.86L158.53,124.95L159.16,100.66L161.03,70.16L161.65,70.16L162.28,70.16L162.9,76.38L164.77,63.38L165.4,76.38L167.89,108.01L168.52,108.01L172.26,108.01L172.89,117.05L173.51,117.05L174.13,124.95L176.01,132.86L176.63,168.45L177.88,177.49L178.5,218.72" style="vector-effect: non-scaling-stroke; fill: none; stroke: rgb(0, 204, 150); stroke-opacity: 1; stroke-width: 5px; opacity: 1;"/></g><g class="points"/><g class="text"/></g></g></g><g class="overplot"/><path class="xlines-above crisp" d="M0,0" style="fill: none;"/><path class="ylines-above crisp" d="M0,0" style="fill: none;"/><g class="overlines-above"/><g class="xaxislayer-above"><g class="xtick"><text text-anchor="start" x="0" y="363" transform="translate(70.6,0) rotate(30,0,357)" style="font-family: 'Open Sans', verdana, arial, sans-serif; font-size: 12px; fill: rgb(42, 63, 95); fill-opacity: 1; white-space: pre; opacity: 1;">1.5.22</text></g><g class="xtick"><text text-anchor="start" x="0" y="363" style="font-family: 'Open Sans', verdana, arial, sans-serif; font-size: 12px; fill: rgb(42, 63, 95); fill-opacity: 1; white-space: pre; opacity: 1;" transform="translate(108.67,0) rotate(30,0,357)">1.7.22</text></g><g class="xtick"><text text-anchor="start" x="0" y="363" style="font-family: 'Open Sans', verdana, arial, sans-serif; font-size: 12px; fill: rgb(42, 63, 95); fill-opacity: 1; white-space: pre; opacity: 1;" transform="translate(147.37,0) rotate(30,0,357)">1.9.22</text></g><g class="xtick"><text text-anchor="start" x="0" y="363" style="font-family: 'Open Sans', verdana, arial, sans-serif; font-size: 12px; fill: rgb(42, 63, 95); fill-opacity: 1; white-space: pre; opacity: 1;" transform="translate(185.44,0) rotate(30,0,357)">1.11.22</text></g><g class="xtick"><text text-anchor="start" x="0" y="363" style="font-family: 'Open Sans', verdana, arial, sans-serif; font-size: 12px; fill: rgb(42, 63, 95); fill-opacity: 1; white-space: pre; opacity: 1;" transform="translate(223.51,0) rotate(30,0,357)">1.1.23</text></g></g><g class="yaxislayer-above"><g class="ytick"><text text-anchor="end" x="49" y="4.199999999999999" transform="translate(0,350)" style="font-family: 'Open Sans', verdana, arial, sans-serif; font-size: 12px; fill: rgb(42, 63, 95); fill-opacity: 1; white-space: pre; opacity: 1;">0%</text></g><g class="ytick"><text text-anchor="end" x="49" y="4.199999999999999" style="font-family: 'Open Sans', verdana, arial, sans-serif; font-size: 12px; fill: rgb(42, 63, 95); fill-opacity: 1; white-space: pre; opacity: 1;" transform="translate(0,293.51)">10%</text></g><g class="ytick"><text text-anchor="end" x="49" y="4.199999999999999" style="font-family: 'Open Sans', verdana, arial, sans-serif; font-size: 12px; fill: rgb(42, 63, 95); fill-opacity: 1; white-space: pre; opacity: 1;" transform="translate(0,237.03)">20%</text></g><g class="ytick"><text text-anchor="end" x="49" y="4.199999999999999" style="font-family: 'Open Sans', verdana, arial, sans-serif; font-size: 12px; fill: rgb(42, 63, 95); fill-opacity: 1; white-space: pre; opacity: 1;" transform="translate(0,180.54)">30%</text></g><g class="ytick"><text text-anchor="end" x="49" y="4.199999999999999" style="font-family: 'Open Sans', verdana, arial, sans-serif; font-size: 12px; fill: rgb(42, 63, 95); fill-opacity: 1; white-space: pre; opacity: 1;" transform="translate(0,124.05)">40%</text></g><g class="ytick"><text text-anchor="end" x="49" y="4.199999999999999" style="font-family: 'Open Sans', verdana, arial, sans-serif; font-size: 12px; fill: rgb(42, 63, 95); fill-opacity: 1; white-space: pre; opacity: 1;" transform="translate(0,67.57)">50%</text></g></g><g class="overaxes-above"/></g></g><g class="polarlayer"/><g class="smithlayer"/><g class="ternarylayer"/><g class="geolayer"/><g class="funnelarealayer"/><g class="pielayer"/><g class="iciclelayer"/><g class="treemaplayer"/><g class="sunburstlayer"/><g class="glimages"/><defs id="topdefs-17f072"><g class="clips"/><clipPath id="legend17f072"><rect width="153" height="67" x="0" y="0"/></clipPath></defs><g class="layer-above"><g class="imagelayer"/><g class="shapelayer"/></g><g class="infolayer"><g class="legend" pointer-events="all" transform="translate(234.62,20)"><rect class="bg" shape-rendering="crispEdges" width="153" height="67" x="0" y="0" style="stroke: rgb(68, 68, 68); stroke-opacity: 1; fill: rgb(255, 255, 255); fill-opacity: 1; stroke-width: 0px;"/><g class="scrollbox" transform="" clip-path="url(#legend17f072)"><g class="groups"><g class="traces" transform="translate(0,14.5)" style="opacity: 1;"><text class="legendtext" text-anchor="start" x="40" y="4.680000000000001" style="font-family: 'Open Sans', verdana, arial, sans-serif; font-size: 12px; fill: rgb(42, 63, 95); fill-opacity: 1; white-space: pre;">Pavel Petr</text><g class="layers" style="opacity: 1;"><g class="legendfill"/><g class="legendlines"><path class="js-line" d="M5,0h30" style="fill: none; stroke: rgb(99, 110, 250); stroke-opacity: 1; stroke-width: 5px;"/></g><g class="legendsymbols"><g class="legendpoints"/></g></g><rect class="legendtoggle" x="0" y="-9.5" width="147.09375" height="19" style="fill: rgb(0, 0, 0); fill-opacity: 0;"/></g><g class="traces" transform="translate(0,33.5)" style="opacity: 1;"><text class="legendtext" text-anchor="start" x="40" y="4.680000000000001" style="font-family: 'Open Sans', verdana, arial, sans-serif; font-size: 12px; fill: rgb(42, 63, 95); fill-opacity: 1; white-space: pre;">Babiš Andrej</text><g class="layers" style="opacity: 1;"><g class="legendfill"/><g class="legendlines"><path class="js-line" d="M5,0h30" style="fill: none; stroke: rgb(239, 85, 59); stroke-opacity: 1; stroke-width: 5px;"/></g><g class="legendsymbols"><g class="legendpoints"/></g></g><rect class="legendtoggle" x="0" y="-9.5" width="147.09375" height="19" style="fill: rgb(0, 0, 0); fill-opacity: 0;"/></g><g class="traces" transform="translate(0,52.5)" style="opacity: 1;"><text class="legendtext" text-anchor="start" x="40" y="4.680000000000001" style="font-family: 'Open Sans', verdana, arial, sans-serif; font-size: 12px; fill: rgb(42, 63, 95); fill-opacity: 1; white-space: pre;">Nerudová Danuše</text><g class="layers" style="opacity: 1;"><g class="legendfill"/><g class="legendlines"><path class="js-line" d="M5,0h30" style="fill: none; stroke: rgb(0, 204, 150); stroke-opacity: 1; stroke-width: 5px;"/></g><g class="legendsymbols"><g class="legendpoints"/></g></g><rect class="legendtoggle" x="0" y="-9.5" width="147.09375" height="19" style="fill: rgb(0, 0, 0); fill-opacity: 0;"/></g></g></g><rect class="scrollbar" rx="20" ry="3" width="0" height="0" x="0" y="0" style="fill: rgb(128, 139, 164); fill-opacity: 1;"/></g><g class="g-gtitle"/><g class="g-xtitle"/><g class="g-ytitle"/></g></svg>