<svg class="main-svg" xmlns="http://www.w3.org/2000/svg" xmlns:xlink="http://www.w3.org/1999/xlink" width="300" height="135" style="" viewBox="0 0 300 135"><rect x="0" y="0" width="300" height="135" style="fill: rgb(255, 255, 255); fill-opacity: 1;"/><defs id="defs-605134"><g class="clips"><clipPath id="clip605134xyplot" class="plotclip"><rect width="280" height="75"/></clipPath><clipPath class="axesclip" id="clip605134x"><rect x="10" y="0" width="280" height="135"/></clipPath><clipPath class="axesclip" id="clip605134y"><rect x="0" y="50" width="300" height="75"/></clipPath><clipPath class="axesclip" id="clip605134xy"><rect x="10" y="50" width="280" height="75"/></clipPath></g><g class="gradients"/><g class="patterns"/></defs><g class="bglayer"/><g class="layer-below"><g class="imagelayer"/><g class="shapelayer"/></g><g class="cartesianlayer"><g class="subplot xy"><g class="layer-subplot"><g class="shapelayer"/><g class="imagelayer"/></g><g class="minor-gridlayer"><g class="x"/><g class="y"/></g><g class="gridlayer"><g class="x"><path class="xgrid crisp" transform="translate(60.22,0)" d="M0,50v75" style="stroke: rgb(235, 240, 248); stroke-opacity: 1; stroke-width: 1px;"/><path class="xgrid crisp" transform="translate(153.04,0)" d="M0,50v75" style="stroke: rgb(235, 240, 248); stroke-opacity: 1; stroke-width: 1px;"/><path class="xgrid crisp" transform="translate(247.39,0)" d="M0,50v75" style="stroke: rgb(235, 240, 248); stroke-opacity: 1; stroke-width: 1px;"/></g><g class="y"><path class="ygrid crisp" transform="translate(0,105.59)" d="M10,0h280" style="stroke: rgb(235, 240, 248); stroke-opacity: 1; stroke-width: 1px;"/><path class="ygrid crisp" transform="translate(0,86.17)" d="M10,0h280" style="stroke: rgb(235, 240, 248); stroke-opacity: 1; stroke-width: 1px;"/><path class="ygrid crisp" transform="translate(0,66.76)" d="M10,0h280" style="stroke: rgb(235, 240, 248); stroke-opacity: 1; stroke-width: 1px;"/></g></g><g class="zerolinelayer"><path class="yzl zl crisp" transform="translate(0,125)" d="M10,0h280" style="stroke: rgb(235, 240, 248); stroke-opacity: 1; stroke-width: 2px;"/></g><path class="xlines-below"/><path class="ylines-below"/><g class="overlines-below"/><g class="xaxislayer-below"/><g class="yaxislayer-below"/><g class="overaxes-below"/><g class="plot" transform="translate(10,50)" clip-path="url(#clip605134xyplot)"><g class="scatterlayer mlayer"><g class="trace scatter trace8cebb2" style="stroke-miterlimit: 2; opacity: 1;"><g class="fills"/><g class="errorbars"/><g class="lines"><path class="js-line" d="M0,5.5L36.52,6.47L38.04,7.24L47.17,7.24L48.7,8.8L51.74,15.79L53.26,15.79L59.35,16.95L60.87,17.53L65.43,18.12L66.96,18.12L91.3,19.09L92.83,20.25L95.87,20.25L97.39,22.19L98.91,22.19L100.43,24.13L103.48,27.24L105,27.63L130.87,27.63L132.39,24.13L133.91,21.22L135.43,22.19L143.04,20.25L144.57,20.25L203.91,19.09L205.43,16.37L208.48,13.85L210,13.07L216.09,13.07L217.61,4.72L280,3.75" style="vector-effect: non-scaling-stroke; fill: none; stroke: rgb(99, 110, 250); stroke-opacity: 1; stroke-width: 5px; opacity: 1;"/></g><g class="points"/><g class="text"/></g><g class="trace scatter trace68a84e" style="stroke-miterlimit: 2; opacity: 1;"><g class="fills"/><g class="errorbars"/><g class="lines"><path class="js-line" d="M0,30.54L91.3,29.76L92.83,27.63L95.87,27.63L97.39,25.88L98.91,25.88L100.43,21.81L103.48,13.85L105,11.71L117.17,10.93L118.7,10.35L130.87,10.35L132.39,11.71L135.43,15.79L136.96,15.79L203.91,16.37L205.43,17.53L210,18.12L211.52,18.12L214.57,18.7L216.09,18.12L217.61,23.75L219.13,24.52L223.7,25.11L225.22,25.11L228.26,26.27L229.78,27.63L232.83,28.41L234.35,28.99L255.65,28.99L257.17,30.54L258.7,31.9L260.22,35.98L261.74,39.47L263.26,39.47L280,39.47" style="vector-effect: non-scaling-stroke; fill: none; stroke: rgb(239, 85, 59); stroke-opacity: 1; stroke-width: 5px; opacity: 1;"/></g><g class="points"/><g class="text"/></g><g class="trace scatter trace8d0dc3" style="stroke-miterlimit: 2; opacity: 1;"><g class="fills"/><g class="errorbars"/><g class="lines"><path class="js-line" d="M0,62.57L48.7,63.16L50.22,64.52L53.26,65.49L54.78,65.49L95.87,65.49L97.39,60.83L103.48,61.99L105,62.57L109.57,61.99L111.09,61.99L173.48,60.83L175,59.27L178.04,54.62L179.57,54.62L199.35,54.62L200.87,53.06L203.91,52.29L205.43,51.31L206.96,51.31L208.48,49.96L211.52,48.6L213.04,47.63L216.09,45.3L217.61,45.68L257.17,45.88L258.7,46.46L263.26,43.35L264.78,43.35L280,43.35" style="vector-effect: non-scaling-stroke; fill: none; stroke: rgb(0, 204, 150); stroke-opacity: 1; stroke-width: 5px; opacity: 1;"/></g><g class="points"/><g class="text"/></g><g class="trace scatter trace8a0ed2" style="stroke-miterlimit: 2; opacity: 1;"><g class="fills"/><g class="errorbars"/><g class="lines"><path class="js-line" d="M0,68.59L47.17,68.59L48.7,66.07L51.74,64.9L53.26,64.9L59.35,64.13L60.87,63.55L66.96,63.16L68.48,63.16L101.96,63.16L103.48,64.32L108.04,64.9L109.57,64.9L115.65,64.52L117.17,64.32L132.39,63.16L133.91,64.52L136.96,65.49L138.48,65.49L206.96,66.07L208.48,66.46L217.61,66.65L219.13,66.46L223.7,64.9L225.22,64.9L254.13,64.13L255.65,63.55L258.7,54.62L260.22,54.62L280,54.62" style="vector-effect: non-scaling-stroke; fill: none; stroke: rgb(171, 99, 250); stroke-opacity: 1; stroke-width: 5px; opacity: 1;"/></g><g class="points"/><g class="text"/></g><g class="trace scatter trace13af40" style="stroke-miterlimit: 2; opacity: 1;"><g class="fills"/><g class="errorbars"/><g class="lines"><path class="js-line" d="M0,61.41L98.91,61.99L100.43,62.38L111.09,62.57L112.61,62.57L118.7,63.16L120.22,63.16L208.48,64.32L210,64.52L216.09,65.49L217.61,65.88L228.26,66.07L229.78,66.07L280,66.65" style="vector-effect: non-scaling-stroke; fill: none; stroke: rgb(255, 161, 90); stroke-opacity: 1; stroke-width: 5px; opacity: 1;"/></g><g class="points"/><g class="text"/></g></g></g><g class="overplot"/><path class="xlines-above crisp" d="M0,0" style="fill: none;"/><path class="ylines-above crisp" d="M0,0" style="fill: none;"/><g class="overlines-above"/><g class="xaxislayer-above"/><g class="yaxislayer-above"/><g class="overaxes-above"/></g></g><g class="polarlayer"/><g class="smithlayer"/><g class="ternarylayer"/><g class="geolayer"/><g class="funnelarealayer"/><g class="pielayer"/><g class="iciclelayer"/><g class="treemaplayer"/><g class="sunburstlayer"/><g class="glimages"/><defs id="topdefs-605134"><g class="clips"/></defs><g class="layer-above"><g class="imagelayer"/><g class="shapelayer"/></g><g class="infolayer"><g class="g-gtitle"><text class="gtitle" x="15" y="25" text-anchor="start" dy="0em" style="font-family: Ubuntu, verdana, arial, sans-serif; font-size: 16px; fill: rgb(233, 84, 32); opacity: 1; font-weight: normal; white-space: pre;">Prezident/ka ČR 2023</text></g><g class="g-xtitle"/><g class="g-ytitle"/></g></svg>