<svg class="main-svg" xmlns="http://www.w3.org/2000/svg" xmlns:xlink="http://www.w3.org/1999/xlink" width="300" height="135" style="" viewBox="0 0 300 135"><rect x="0" y="0" width="300" height="135" style="fill: rgb(255, 255, 255); fill-opacity: 1;"/><defs id="defs-30eee8"><g class="clips"><clipPath id="clip30eee8xyplot" class="plotclip"><rect width="280" height="75"/></clipPath><clipPath class="axesclip" id="clip30eee8x"><rect x="10" y="0" width="280" height="135"/></clipPath><clipPath class="axesclip" id="clip30eee8y"><rect x="0" y="50" width="300" height="75"/></clipPath><clipPath class="axesclip" id="clip30eee8xy"><rect x="10" y="50" width="280" height="75"/></clipPath></g><g class="gradients"/><g class="patterns"/></defs><g class="bglayer"/><g class="layer-below"><g class="imagelayer"/><g class="shapelayer"/></g><g class="cartesianlayer"><g class="subplot xy"><g class="layer-subplot"><g class="shapelayer"/><g class="imagelayer"/></g><g class="minor-gridlayer"><g class="x"/><g class="y"/></g><g class="gridlayer"><g class="x"><path class="xgrid crisp" transform="translate(64.03999999999999,0)" d="M0,50v75" style="stroke: rgb(235, 240, 248); stroke-opacity: 1; stroke-width: 1px;"/><path class="xgrid crisp" transform="translate(163.92,0)" d="M0,50v75" style="stroke: rgb(235, 240, 248); stroke-opacity: 1; stroke-width: 1px;"/><path class="xgrid crisp" transform="translate(265.44,0)" d="M0,50v75" style="stroke: rgb(235, 240, 248); stroke-opacity: 1; stroke-width: 1px;"/></g><g class="y"><path class="ygrid crisp" transform="translate(0,105.43)" d="M10,0h280" style="stroke: rgb(235, 240, 248); stroke-opacity: 1; stroke-width: 1px;"/><path class="ygrid crisp" transform="translate(0,85.85)" d="M10,0h280" style="stroke: rgb(235, 240, 248); stroke-opacity: 1; stroke-width: 1px;"/><path class="ygrid crisp" transform="translate(0,66.28)" d="M10,0h280" style="stroke: rgb(235, 240, 248); stroke-opacity: 1; stroke-width: 1px;"/></g></g><g class="zerolinelayer"><path class="yzl zl crisp" transform="translate(0,125)" d="M10,0h280" style="stroke: rgb(235, 240, 248); stroke-opacity: 1; stroke-width: 2px;"/></g><path class="xlines-below"/><path class="ylines-below"/><g class="overlines-below"/><g class="xaxislayer-below"/><g class="yaxislayer-below"/><g class="overaxes-below"/><g class="plot" transform="translate(10,50)" clip-path="url(#clip30eee8xyplot)"><g class="scatterlayer mlayer"><g class="trace scatter tracea492a3" style="stroke-miterlimit: 2; opacity: 1;"><g class="fills"/><g class="errorbars"/><g class="lines"><path class="js-line" d="M0,5.51L39.3,6.29L40.94,7.08L50.76,7.08L52.4,8.64L55.67,15.69L57.31,15.69L63.86,16.86L65.5,17.45L70.41,18.04L72.05,18.04L98.25,19.02L99.88,20.19L103.16,20.19L104.8,22.15L106.43,22.15L108.07,24.11L111.35,27.04L112.98,27.43L140.82,27.43L142.46,24.11L144.09,21.17L145.73,22.15L153.92,20.19L155.56,20.19L219.42,19.02L221.05,16.28L224.33,13.73L225.96,12.95L232.51,12.95L234.15,4.53L280,3.75" style="vector-effect: non-scaling-stroke; fill: none; stroke: rgb(99, 110, 250); stroke-opacity: 1; stroke-width: 5px; opacity: 1;"/></g><g class="points"/><g class="text"/></g><g class="trace scatter trace214e60" style="stroke-miterlimit: 2; opacity: 1;"><g class="fills"/><g class="errorbars"/><g class="lines"><path class="js-line" d="M0,30.37L98.25,29.78L99.88,27.43L103.16,27.43L104.8,25.87L106.43,25.87L108.07,21.76L111.35,13.73L112.98,11.58L126.08,10.99L127.72,10.21L140.82,10.21L142.46,11.58L145.73,15.69L147.37,15.69L219.42,16.28L221.05,17.45L225.96,18.04L227.6,18.04L230.88,18.63L232.51,18.04L234.15,23.72L235.79,24.5L240.7,25.09L242.34,25.09L245.61,26.26L247.25,27.43L250.53,28.22L252.16,29L275.09,29L276.73,30.37L278.36,31.74L280,36.05" style="vector-effect: non-scaling-stroke; fill: none; stroke: rgb(239, 85, 59); stroke-opacity: 1; stroke-width: 5px; opacity: 1;"/></g><g class="points"/><g class="text"/></g><g class="trace scatter trace8f896f" style="stroke-miterlimit: 2; opacity: 1;"><g class="fills"/><g class="errorbars"/><g class="lines"><path class="js-line" d="M0,62.67L52.4,63.06L54.04,64.43L57.31,65.41L58.95,65.41L103.16,65.41L104.8,60.71L109.71,61.49L111.35,62.08L114.62,62.08L116.26,62.08L122.81,61.49L124.44,60.71L186.67,60.71L188.3,59.14L191.58,54.64L193.22,54.64L214.5,54.64L216.14,53.08L219.42,52.29L221.05,51.32L222.69,51.32L224.33,49.95L227.6,48.57L229.24,47.6L232.51,45.25L234.15,45.64L276.73,45.83L278.36,46.42L280,45.05" style="vector-effect: non-scaling-stroke; fill: none; stroke: rgb(0, 204, 150); stroke-opacity: 1; stroke-width: 5px; opacity: 1;"/></g><g class="points"/><g class="text"/></g><g class="trace scatter tracee3559a" style="stroke-miterlimit: 2; opacity: 1;"><g class="fills"/><g class="errorbars"/><g class="lines"><path class="js-line" d="M0,68.54L50.76,68.54L52.4,66L55.67,64.82L57.31,64.82L65.5,63.65L67.13,63.06L109.71,63.06L111.35,64.23L116.26,64.82L117.89,64.82L124.44,64.43L126.08,64.23L142.46,63.06L144.09,64.43L147.37,65.41L149.01,65.41L222.69,66L224.33,66.39L235.79,66.58L237.43,65.41L242.34,64.82L243.98,64.82L275.09,63.65L276.73,59.93L278.36,54.64L280,54.64" style="vector-effect: non-scaling-stroke; fill: none; stroke: rgb(171, 99, 250); stroke-opacity: 1; stroke-width: 5px; opacity: 1;"/></g><g class="points"/><g class="text"/></g><g class="trace scatter tracef991d1" style="stroke-miterlimit: 2; opacity: 1;"><g class="fills"/><g class="errorbars"/><g class="lines"><path class="js-line" d="M0,61.49L65.5,61.49L67.13,62.08L186.67,63.06L188.3,63.65L194.85,64.04L196.49,64.04L230.88,65.21L232.51,65.41L237.43,66L239.06,66L280,66" style="vector-effect: non-scaling-stroke; fill: none; stroke: rgb(255, 161, 90); stroke-opacity: 1; stroke-width: 5px; opacity: 1;"/></g><g class="points"/><g class="text"/></g></g></g><g class="overplot"/><path class="xlines-above crisp" d="M0,0" style="fill: none;"/><path class="ylines-above crisp" d="M0,0" style="fill: none;"/><g class="overlines-above"/><g class="xaxislayer-above"/><g class="yaxislayer-above"/><g class="overaxes-above"/></g></g><g class="polarlayer"/><g class="smithlayer"/><g class="ternarylayer"/><g class="geolayer"/><g class="funnelarealayer"/><g class="pielayer"/><g class="iciclelayer"/><g class="treemaplayer"/><g class="sunburstlayer"/><g class="glimages"/><defs id="topdefs-30eee8"><g class="clips"/></defs><g class="layer-above"><g class="imagelayer"/><g class="shapelayer"/></g><g class="infolayer"><g class="g-gtitle"><text class="gtitle" x="15" y="25" text-anchor="start" dy="0em" style="font-family: Ubuntu, verdana, arial, sans-serif; font-size: 16px; fill: rgb(233, 84, 32); opacity: 1; font-weight: normal; white-space: pre;">Prezident/ka ČR 2023</text></g><g class="g-xtitle"/><g class="g-ytitle"/></g></svg>