<svg class="main-svg" xmlns="http://www.w3.org/2000/svg" xmlns:xlink="http://www.w3.org/1999/xlink" width="300" height="135" style="" viewBox="0 0 300 135"><rect x="0" y="0" width="300" height="135" style="fill: rgb(255, 255, 255); fill-opacity: 1;"/><defs id="defs-0e8419"><g class="clips"><clipPath id="clip0e8419xyplot" class="plotclip"><rect width="280" height="75"/></clipPath><clipPath class="axesclip" id="clip0e8419x"><rect x="10" y="0" width="280" height="135"/></clipPath><clipPath class="axesclip" id="clip0e8419y"><rect x="0" y="50" width="300" height="75"/></clipPath><clipPath class="axesclip" id="clip0e8419xy"><rect x="10" y="50" width="280" height="75"/></clipPath></g><g class="gradients"/><g class="patterns"/></defs><g class="bglayer"/><g class="layer-below"><g class="imagelayer"/><g class="shapelayer"/></g><g class="cartesianlayer"><g class="subplot xy"><g class="layer-subplot"><g class="shapelayer"/><g class="imagelayer"/></g><g class="minor-gridlayer"><g class="x"/><g class="y"/></g><g class="gridlayer"><g class="x"><path class="xgrid crisp" transform="translate(50.88,0)" d="M0,50v75" style="stroke: rgb(235, 240, 248); stroke-opacity: 1; stroke-width: 1px;"/><path class="xgrid crisp" transform="translate(126.46,0)" d="M0,50v75" style="stroke: rgb(235, 240, 248); stroke-opacity: 1; stroke-width: 1px;"/><path class="xgrid crisp" transform="translate(203.27,0)" d="M0,50v75" style="stroke: rgb(235, 240, 248); stroke-opacity: 1; stroke-width: 1px;"/><path class="xgrid crisp" transform="translate(278.85,0)" d="M0,50v75" style="stroke: rgb(235, 240, 248); stroke-opacity: 1; stroke-width: 1px;"/></g><g class="y"><path class="ygrid crisp" transform="translate(0,97.6)" d="M10,0h280" style="stroke: rgb(235, 240, 248); stroke-opacity: 1; stroke-width: 1px;"/><path class="ygrid crisp" transform="translate(0,70.19)" d="M10,0h280" style="stroke: rgb(235, 240, 248); stroke-opacity: 1; stroke-width: 1px;"/></g></g><g class="zerolinelayer"><path class="yzl zl crisp" transform="translate(0,125)" d="M10,0h280" style="stroke: rgb(235, 240, 248); stroke-opacity: 1; stroke-width: 2px;"/></g><path class="xlines-below"/><path class="ylines-below"/><g class="overlines-below"/><g class="xaxislayer-below"/><g class="yaxislayer-below"/><g class="overaxes-below"/><g class="plot" transform="translate(10,50)" clip-path="url(#clip0e8419xyplot)"><g class="scatterlayer mlayer"><g class="trace scatter trace4fa931" style="stroke-miterlimit: 2; opacity: 1;"><g class="fills"/><g class="errorbars"/><g class="lines"><path class="js-line" d="M0,15.94L29.73,16.63L30.97,17.31L38.41,17.31L39.65,18.69L43.36,24.58L44.6,24.58L53.27,26.5L54.51,26.5L74.34,27.45L75.58,28.41L78.05,28.41L79.29,30.19L80.53,30.19L81.77,31.7L84.25,34.31L85.49,34.58L106.55,34.58L107.79,31.7L109.03,29.24L110.27,30.19L115.22,28.41L116.46,28.41L166.02,27.45L167.26,24.99L170.97,22.38L172.21,22.38L175.93,22.38L177.17,15.12L232.92,14.44L234.16,15.94L239.12,17.31L240.35,17.31L244.07,17.31L245.31,15.12L247.79,12.93L249.03,12.93L250.27,12.93L251.5,10.33L255.22,3.75L256.46,3.75L257.7,3.75L267.61,11.29L270.09,12.93L272.57,12.93L275.04,11.29L276.28,12.11L278.76,19.92L280,17.31" style="vector-effect: non-scaling-stroke; fill: none; stroke: rgb(99, 110, 250); stroke-opacity: 1; stroke-width: 5px; opacity: 1;"/></g><g class="points"/><g class="text"/></g><g class="trace scatter trace9ad35c" style="stroke-miterlimit: 2; opacity: 1;"><g class="fills"/><g class="errorbars"/><g class="lines"><path class="js-line" d="M0,37.18L74.34,36.5L75.58,34.58L78.05,34.58L79.29,33.21L80.53,33.21L81.77,29.65L84.25,22.93L85.49,21.15L107.79,21.15L109.03,23.48L111.5,24.58L112.74,24.58L166.02,24.99L167.26,26.08L173.45,27.04L174.69,27.04L175.93,26.5L177.17,31.29L180.88,32.52L182.12,32.52L185.84,33.62L187.08,34.58L189.56,35.26L190.8,35.95L209.38,37.18L210.62,38.28L213.1,44.72L214.34,44.72L229.2,44.72L230.44,46.5L232.92,48.14L234.16,47.6L237.88,48.14L239.12,48.14L242.83,50.75L244.07,50.75L247.79,54.86L249.03,54.86L251.5,54.86L252.74,57.05L255.22,58.83L256.46,58.83L257.7,58.83L267.61,39.38L270.09,36.5L272.57,36.5L275.04,39.38L276.28,39.38L280,40.33" style="vector-effect: non-scaling-stroke; fill: none; stroke: rgb(239, 85, 59); stroke-opacity: 1; stroke-width: 5px; opacity: 1;"/></g><g class="points"/><g class="text"/></g><g class="trace scatter trace9e0ad4" style="stroke-miterlimit: 2; opacity: 1;"><g class="fills"/><g class="errorbars"/><g class="lines"><path class="js-line" d="M0,64.45L39.65,64.86L40.88,66.09L43.36,66.92L44.6,66.92L78.05,66.92L79.29,62.94L84.25,64.04L85.49,64.45L90.44,64.04L91.68,64.04L96.64,62.94L97.88,62.94L141.24,62.94L142.48,61.57L144.96,57.74L146.19,57.74L162.3,57.74L163.54,56.37L166.02,55.68L167.26,54.86L169.73,53.76L170.97,52.53L173.45,51.71L174.69,50.34L177.17,50.06L178.41,50.06L183.36,49.51L184.6,49.51L211.86,49.51L213.1,48.14L234.16,47.19L235.4,46.09L236.64,46.09L237.88,47.46L240.35,48.14L241.59,46.5L244.07,44.72L245.31,43.9L247.79,43.07L249.03,43.07L251.5,43.49L252.74,41.29L255.22,38.28L256.46,38.28L257.7,38.28L267.61,43.62L270.09,44.72L272.57,44.72L275.04,45.4L276.28,45.13L280,40.33" style="vector-effect: non-scaling-stroke; fill: none; stroke: rgb(0, 204, 150); stroke-opacity: 1; stroke-width: 5px; opacity: 1;"/></g><g class="points"/><g class="text"/></g><g class="trace scatter traceb49e3a" style="stroke-miterlimit: 2; opacity: 1;"><g class="fills"/><g class="errorbars"/><g class="lines"><path class="js-line" d="M0,63.49L81.77,64.18L83.01,64.45L168.5,65.68L169.73,65.82L182.12,67.46L183.36,67.46L232.92,66.64L234.16,65.27L240.35,66.37L241.59,66.37L251.5,66.37L252.74,67.88L255.22,69.52L256.46,69.52L280,70.48" style="vector-effect: non-scaling-stroke; fill: none; stroke: rgb(171, 99, 250); stroke-opacity: 1; stroke-width: 5px; opacity: 1;"/></g><g class="points"/><g class="text"/></g><g class="trace scatter traceed4352" style="stroke-miterlimit: 2; opacity: 1;"><g class="fills"/><g class="errorbars"/><g class="lines"><path class="js-line" d="M0,71.57L142.48,71.03L143.72,70.48L278.76,71.57L280,71.71" style="vector-effect: non-scaling-stroke; fill: none; stroke: rgb(255, 161, 90); stroke-opacity: 1; stroke-width: 5px; opacity: 1;"/></g><g class="points"/><g class="text"/></g></g></g><g class="overplot"/><path class="xlines-above crisp" d="M0,0" style="fill: none;"/><path class="ylines-above crisp" d="M0,0" style="fill: none;"/><g class="overlines-above"/><g class="xaxislayer-above"/><g class="yaxislayer-above"/><g class="overaxes-above"/></g></g><g class="polarlayer"/><g class="smithlayer"/><g class="ternarylayer"/><g class="geolayer"/><g class="funnelarealayer"/><g class="pielayer"/><g class="iciclelayer"/><g class="treemaplayer"/><g class="sunburstlayer"/><g class="glimages"/><defs id="topdefs-0e8419"><g class="clips"/></defs><g class="layer-above"><g class="imagelayer"/><g class="shapelayer"/></g><g class="infolayer"><g class="g-gtitle"><text class="gtitle" x="15" y="25" text-anchor="start" dy="0em" style="font-family: Ubuntu, verdana, arial, sans-serif; font-size: 16px; fill: rgb(233, 84, 32); opacity: 1; font-weight: normal; white-space: pre;">Prezident/ka ČR 2023</text></g><g class="g-xtitle"/><g class="g-ytitle"/></g></svg>