<svg class="main-svg" xmlns="http://www.w3.org/2000/svg" xmlns:xlink="http://www.w3.org/1999/xlink" width="300" height="135" style="" viewBox="0 0 300 135"><rect x="0" y="0" width="300" height="135" style="fill: rgb(255, 255, 255); fill-opacity: 1;"/><defs id="defs-503965"><g class="clips"><clipPath id="clip503965xyplot" class="plotclip"><rect width="280" height="75"/></clipPath><clipPath class="axesclip" id="clip503965x"><rect x="10" y="0" width="280" height="135"/></clipPath><clipPath class="axesclip" id="clip503965y"><rect x="0" y="50" width="300" height="75"/></clipPath><clipPath class="axesclip" id="clip503965xy"><rect x="10" y="50" width="280" height="75"/></clipPath></g><g class="gradients"/><g class="patterns"/></defs><g class="bglayer"/><g class="layer-below"><g class="imagelayer"/><g class="shapelayer"/></g><g class="cartesianlayer"><g class="subplot xy"><g class="layer-subplot"><g class="shapelayer"/><g class="imagelayer"/></g><g class="minor-gridlayer"><g class="x"/><g class="y"/></g><g class="gridlayer"><g class="x"><path class="xgrid crisp" transform="translate(45.81,0)" d="M0,50v75" style="stroke: rgb(235, 240, 248); stroke-opacity: 1; stroke-width: 1px;"/><path class="xgrid crisp" transform="translate(112.02,0)" d="M0,50v75" style="stroke: rgb(235, 240, 248); stroke-opacity: 1; stroke-width: 1px;"/><path class="xgrid crisp" transform="translate(179.3,0)" d="M0,50v75" style="stroke: rgb(235, 240, 248); stroke-opacity: 1; stroke-width: 1px;"/><path class="xgrid crisp" transform="translate(245.5,0)" d="M0,50v75" style="stroke: rgb(235, 240, 248); stroke-opacity: 1; stroke-width: 1px;"/></g><g class="y"><path class="ygrid crisp" transform="translate(0,98.56)" d="M10,0h280" style="stroke: rgb(235, 240, 248); stroke-opacity: 1; stroke-width: 1px;"/><path class="ygrid crisp" transform="translate(0,72.12)" d="M10,0h280" style="stroke: rgb(235, 240, 248); stroke-opacity: 1; stroke-width: 1px;"/></g></g><g class="zerolinelayer"><path class="yzl zl crisp" transform="translate(0,125)" d="M10,0h280" style="stroke: rgb(235, 240, 248); stroke-opacity: 1; stroke-width: 2px;"/></g><path class="xlines-below"/><path class="ylines-below"/><g class="overlines-below"/><g class="xaxislayer-below"/><g class="yaxislayer-below"/><g class="overaxes-below"/><g class="plot" transform="translate(10,50)" clip-path="url(#clip503965xyplot)"><g class="scatterlayer mlayer"><g class="trace scatter trace162b68" style="stroke-miterlimit: 2; opacity: 1;"><g class="fills"/><g class="errorbars"/><g class="lines"><path class="js-line" d="M0,64.42L34.73,64.95L35.81,66.01L37.98,66.94L39.07,66.94L68.37,66.94L69.46,62.84L73.8,64.03L74.88,64.42L79.22,64.03L80.31,64.03L84.65,62.84L85.74,62.84L123.72,62.84L124.81,61.52L126.98,57.68L128.06,57.68L142.17,57.68L143.26,56.36L145.43,55.57L146.51,54.78L148.68,53.72L149.77,52.53L151.94,51.73L153.02,50.28L156.28,50.02L157.36,49.62L168.22,49.49L169.3,49.49L183.41,50.15L184.5,50.81L187.75,48.03L188.84,48.03L205.12,47.11L206.2,46.18L207.29,46.18L208.37,47.5L210.54,48.03L211.63,46.45L213.8,44.73L214.88,43.94L217.05,43.14L218.14,43.14L220.31,43.54L221.4,41.29L223.57,38.25L224.65,38.25L225.74,38.25L234.42,43.67L236.59,44.73L238.76,44.73L240.93,45.52L242.02,45.13L245.27,40.37L246.36,40.37L260.47,39.44L261.55,38.78L262.64,39.44L263.72,38.25L265.89,35.87L266.98,35.87L269.15,35.87L272.4,30.19L275.66,28.47L276.74,22.92L278.91,15.91L280,15.91" style="vector-effect: non-scaling-stroke; fill: none; stroke: rgb(99, 110, 250); stroke-opacity: 1; stroke-width: 5px; opacity: 1;"/></g><g class="points"/><g class="text"/></g><g class="trace scatter trace30ac9a" style="stroke-miterlimit: 2; opacity: 1;"><g class="fills"/><g class="errorbars"/><g class="lines"><path class="js-line" d="M0,15.91L26.05,16.57L27.13,17.37L33.64,17.37L34.73,18.69L37.98,24.5L39.07,24.5L45.58,26.62L46.67,26.62L65.12,27.54L66.2,28.47L68.37,28.47L69.46,30.19L70.54,30.19L71.63,31.77L73.8,34.29L74.88,34.68L93.33,34.68L94.42,31.77L95.5,29.26L96.59,30.19L100.93,28.47L102.02,28.47L145.43,27.54L146.51,25.03L149.77,22.39L150.85,22.39L154.11,22.39L155.19,15.25L204.03,14.46L205.12,15.91L209.46,17.37L210.54,17.37L213.8,17.37L214.88,15.25L217.05,12.87L218.14,12.87L219.22,12.87L220.31,10.36L223.57,3.75L224.65,3.75L225.74,3.75L234.42,11.28L236.59,12.87L238.76,12.87L240.93,11.28L242.02,12.08L244.19,20.01L245.27,17.37L260.47,16.57L261.55,15.25L263.72,14.46L264.81,21.2L269.15,21.2L272.4,26.62L275.66,27.54L276.74,31.38L278.91,34.68L280,34.68" style="vector-effect: non-scaling-stroke; fill: none; stroke: rgb(239, 85, 59); stroke-opacity: 1; stroke-width: 5px; opacity: 1;"/></g><g class="points"/><g class="text"/></g><g class="trace scatter traceac55a0" style="stroke-miterlimit: 2; opacity: 1;"><g class="fills"/><g class="errorbars"/><g class="lines"><path class="js-line" d="M0,37.19L65.12,36.53L66.2,34.68L68.37,34.68L69.46,33.23L70.54,33.23L71.63,29.66L74.88,21.2L75.97,21.2L94.42,21.2L95.5,23.45L97.67,24.5L98.76,24.5L145.43,25.03L146.51,26.09L149.77,26.62L150.85,26.62L154.11,26.62L155.19,31.38L158.45,32.57L159.53,32.57L162.79,33.62L163.88,34.68L182.33,35.87L183.41,37.19L184.5,38.25L185.58,41.82L187.75,44.73L188.84,44.73L200.78,44.73L201.86,46.45L204.03,48.03L205.12,47.64L211.63,50.02L212.71,50.81L213.8,50.81L214.88,52.92L217.05,54.78L218.14,54.78L220.31,54.78L221.4,57.02L223.57,58.87L224.65,58.87L225.74,58.87L234.42,39.44L236.59,36.53L238.76,36.53L240.93,39.44L242.02,39.44L247.44,40.37L248.53,40.37L263.72,40.37L264.81,35.87L275.66,35.34L276.74,38.52L278.91,42.22L280,42.22" style="vector-effect: non-scaling-stroke; fill: none; stroke: rgb(0, 204, 150); stroke-opacity: 1; stroke-width: 5px; opacity: 1;"/></g><g class="points"/><g class="text"/></g></g></g><g class="overplot"/><path class="xlines-above crisp" d="M0,0" style="fill: none;"/><path class="ylines-above crisp" d="M0,0" style="fill: none;"/><g class="overlines-above"/><g class="xaxislayer-above"/><g class="yaxislayer-above"/><g class="overaxes-above"/></g></g><g class="polarlayer"/><g class="smithlayer"/><g class="ternarylayer"/><g class="geolayer"/><g class="funnelarealayer"/><g class="pielayer"/><g class="iciclelayer"/><g class="treemaplayer"/><g class="sunburstlayer"/><g class="glimages"/><defs id="topdefs-503965"><g class="clips"/></defs><g class="layer-above"><g class="imagelayer"/><g class="shapelayer"/></g><g class="infolayer"><g class="g-gtitle"><text class="gtitle" x="15" y="25" text-anchor="start" dy="0em" style="font-family: Ubuntu, verdana, arial, sans-serif; font-size: 16px; fill: rgb(233, 84, 32); opacity: 1; font-weight: normal; white-space: pre;">Prezident/ka ČR 2023</text></g><g class="g-xtitle"/><g class="g-ytitle"/></g></svg>