<svg class="main-svg" xmlns="http://www.w3.org/2000/svg" xmlns:xlink="http://www.w3.org/1999/xlink" width="300" height="135" style="" viewBox="0 0 300 135"><rect x="0" y="0" width="300" height="135" style="fill: rgb(255, 255, 255); fill-opacity: 1;"/><defs id="defs-28b99a"><g class="clips"><clipPath id="clip28b99axyplot" class="plotclip"><rect width="280" height="75"/></clipPath><clipPath class="axesclip" id="clip28b99ax"><rect x="10" y="0" width="280" height="135"/></clipPath><clipPath class="axesclip" id="clip28b99ay"><rect x="0" y="50" width="300" height="75"/></clipPath><clipPath class="axesclip" id="clip28b99axy"><rect x="10" y="50" width="280" height="75"/></clipPath></g><g class="gradients"/><g class="patterns"/></defs><g class="bglayer"/><g class="layer-below"><g class="imagelayer"/><g class="shapelayer"/></g><g class="cartesianlayer"><g class="subplot xy"><g class="layer-subplot"><g class="shapelayer"/><g class="imagelayer"/></g><g class="minor-gridlayer"><g class="x"/><g class="y"/></g><g class="gridlayer"><g class="x"><path class="xgrid crisp" transform="translate(45.95,0)" d="M0,50v75" style="stroke: rgb(235, 240, 248); stroke-opacity: 1; stroke-width: 1px;"/><path class="xgrid crisp" transform="translate(112.41,0)" d="M0,50v75" style="stroke: rgb(235, 240, 248); stroke-opacity: 1; stroke-width: 1px;"/><path class="xgrid crisp" transform="translate(179.96,0)" d="M0,50v75" style="stroke: rgb(235, 240, 248); stroke-opacity: 1; stroke-width: 1px;"/><path class="xgrid crisp" transform="translate(246.42,0)" d="M0,50v75" style="stroke: rgb(235, 240, 248); stroke-opacity: 1; stroke-width: 1px;"/></g><g class="y"><path class="ygrid crisp" transform="translate(0,98.56)" d="M10,0h280" style="stroke: rgb(235, 240, 248); stroke-opacity: 1; stroke-width: 1px;"/><path class="ygrid crisp" transform="translate(0,72.12)" d="M10,0h280" style="stroke: rgb(235, 240, 248); stroke-opacity: 1; stroke-width: 1px;"/></g></g><g class="zerolinelayer"><path class="yzl zl crisp" transform="translate(0,125)" d="M10,0h280" style="stroke: rgb(235, 240, 248); stroke-opacity: 1; stroke-width: 2px;"/></g><path class="xlines-below"/><path class="ylines-below"/><g class="overlines-below"/><g class="xaxislayer-below"/><g class="yaxislayer-below"/><g class="overaxes-below"/><g class="plot" transform="translate(10,50)" clip-path="url(#clip28b99axyplot)"><g class="scatterlayer mlayer"><g class="trace scatter trace4682c9" style="stroke-miterlimit: 2; opacity: 1;"><g class="fills"/><g class="errorbars"/><g class="lines"><path class="js-line" d="M0,64.42L34.86,64.95L35.95,66.01L38.13,66.94L39.22,66.94L68.64,66.94L69.73,62.84L74.09,64.03L75.18,64.42L79.53,64.03L80.62,64.03L84.98,62.84L86.07,62.84L124.2,62.84L125.29,61.52L127.47,57.68L128.56,57.68L142.72,57.68L143.81,56.36L145.99,55.57L147.08,54.78L149.26,53.72L150.35,52.53L152.53,51.73L153.62,50.28L156.89,50.02L157.98,49.62L168.87,49.49L169.96,49.49L184.12,50.15L185.21,50.81L188.48,48.03L189.57,48.03L205.91,47.11L207,46.18L208.09,46.18L209.18,47.5L211.36,48.03L212.45,46.45L214.63,44.73L215.72,43.94L217.9,43.14L218.99,43.14L221.17,43.54L222.26,41.29L224.44,38.25L225.53,38.25L226.61,38.25L235.33,43.67L237.51,44.73L239.69,44.73L241.87,45.52L242.96,45.13L246.23,40.37L247.32,40.37L261.48,39.44L262.57,38.78L263.66,39.44L264.75,38.25L266.93,35.87L268.02,35.87L270.19,35.87L273.46,30.19L276.73,28.47L277.82,22.92L280,15.91" style="vector-effect: non-scaling-stroke; fill: none; stroke: rgb(99, 110, 250); stroke-opacity: 1; stroke-width: 5px; opacity: 1;"/></g><g class="points"/><g class="text"/></g><g class="trace scatter trace1e2519" style="stroke-miterlimit: 2; opacity: 1;"><g class="fills"/><g class="errorbars"/><g class="lines"><path class="js-line" d="M0,15.91L26.15,16.57L27.24,17.37L33.77,17.37L34.86,18.69L38.13,24.5L39.22,24.5L45.76,26.62L46.85,26.62L65.37,27.54L66.46,28.47L68.64,28.47L69.73,30.19L70.82,30.19L71.91,31.77L74.09,34.29L75.18,34.68L93.7,34.68L94.79,31.77L95.88,29.26L96.96,30.19L101.32,28.47L102.41,28.47L145.99,27.54L147.08,25.03L150.35,22.39L151.44,22.39L154.71,22.39L155.8,15.25L204.82,14.46L205.91,15.91L210.27,17.37L211.36,17.37L214.63,17.37L215.72,15.25L217.9,12.87L218.99,12.87L220.08,12.87L221.17,10.36L224.44,3.75L225.53,3.75L226.61,3.75L235.33,11.28L237.51,12.87L239.69,12.87L241.87,11.28L242.96,12.08L245.14,20.01L246.23,17.37L261.48,16.57L262.57,15.25L264.75,14.46L265.84,21.2L270.19,21.2L273.46,26.62L276.73,27.54L277.82,31.38L280,34.68" style="vector-effect: non-scaling-stroke; fill: none; stroke: rgb(239, 85, 59); stroke-opacity: 1; stroke-width: 5px; opacity: 1;"/></g><g class="points"/><g class="text"/></g><g class="trace scatter tracee99795" style="stroke-miterlimit: 2; opacity: 1;"><g class="fills"/><g class="errorbars"/><g class="lines"><path class="js-line" d="M0,37.19L65.37,36.53L66.46,34.68L68.64,34.68L69.73,33.23L70.82,33.23L71.91,29.66L75.18,21.2L76.26,21.2L94.79,21.2L95.88,23.45L98.05,24.5L99.14,24.5L145.99,25.03L147.08,26.09L150.35,26.62L151.44,26.62L154.71,26.62L155.8,31.38L159.07,32.57L160.16,32.57L163.42,33.62L164.51,34.68L183.04,35.87L184.12,37.19L185.21,38.25L186.3,41.82L188.48,44.73L189.57,44.73L201.56,44.73L202.65,46.45L204.82,48.03L205.91,47.64L212.45,50.02L213.54,50.81L214.63,50.81L215.72,52.92L217.9,54.78L218.99,54.78L221.17,54.78L222.26,57.02L224.44,58.87L225.53,58.87L226.61,58.87L235.33,39.44L237.51,36.53L239.69,36.53L241.87,39.44L242.96,39.44L248.4,40.37L249.49,40.37L264.75,40.37L265.84,35.87L276.73,35.34L277.82,38.52L280,42.22" style="vector-effect: non-scaling-stroke; fill: none; stroke: rgb(0, 204, 150); stroke-opacity: 1; stroke-width: 5px; opacity: 1;"/></g><g class="points"/><g class="text"/></g></g></g><g class="overplot"/><path class="xlines-above crisp" d="M0,0" style="fill: none;"/><path class="ylines-above crisp" d="M0,0" style="fill: none;"/><g class="overlines-above"/><g class="xaxislayer-above"/><g class="yaxislayer-above"/><g class="overaxes-above"/></g></g><g class="polarlayer"/><g class="smithlayer"/><g class="ternarylayer"/><g class="geolayer"/><g class="funnelarealayer"/><g class="pielayer"/><g class="iciclelayer"/><g class="treemaplayer"/><g class="sunburstlayer"/><g class="glimages"/><defs id="topdefs-28b99a"><g class="clips"/></defs><g class="layer-above"><g class="imagelayer"/><g class="shapelayer"/></g><g class="infolayer"><g class="g-gtitle"><text class="gtitle" x="15" y="25" text-anchor="start" dy="0em" style="font-family: Ubuntu, verdana, arial, sans-serif; font-size: 16px; fill: rgb(233, 84, 32); opacity: 1; font-weight: normal; white-space: pre;">Prezident/ka ČR 2023</text></g><g class="g-xtitle"/><g class="g-ytitle"/></g></svg>