<svg class="main-svg" xmlns="http://www.w3.org/2000/svg" xmlns:xlink="http://www.w3.org/1999/xlink" width="300" height="135" style="" viewBox="0 0 300 135"><rect x="0" y="0" width="300" height="135" style="fill: rgb(255, 255, 255); fill-opacity: 1;"/><defs id="defs-722ca5"><g class="clips"><clipPath id="clip722ca5xyplot" class="plotclip"><rect width="280" height="75"/></clipPath><clipPath class="axesclip" id="clip722ca5x"><rect x="10" y="0" width="280" height="135"/></clipPath><clipPath class="axesclip" id="clip722ca5y"><rect x="0" y="50" width="300" height="75"/></clipPath><clipPath class="axesclip" id="clip722ca5xy"><rect x="10" y="50" width="280" height="75"/></clipPath></g><g class="gradients"/><g class="patterns"/></defs><g class="bglayer"/><g class="layer-below"><g class="imagelayer"/><g class="shapelayer"/></g><g class="cartesianlayer"><g class="subplot xy"><g class="layer-subplot"><g class="shapelayer"/><g class="imagelayer"/></g><g class="minor-gridlayer"><g class="x"/><g class="y"/></g><g class="gridlayer"><g class="x"><path class="xgrid crisp" transform="translate(60.49,0)" d="M0,50v75" style="stroke: rgb(235, 240, 248); stroke-opacity: 1; stroke-width: 1px;"/><path class="xgrid crisp" transform="translate(153.83,0)" d="M0,50v75" style="stroke: rgb(235, 240, 248); stroke-opacity: 1; stroke-width: 1px;"/><path class="xgrid crisp" transform="translate(248.69,0)" d="M0,50v75" style="stroke: rgb(235, 240, 248); stroke-opacity: 1; stroke-width: 1px;"/></g><g class="y"><path class="ygrid crisp" transform="translate(0,105.59)" d="M10,0h280" style="stroke: rgb(235, 240, 248); stroke-opacity: 1; stroke-width: 1px;"/><path class="ygrid crisp" transform="translate(0,86.17)" d="M10,0h280" style="stroke: rgb(235, 240, 248); stroke-opacity: 1; stroke-width: 1px;"/><path class="ygrid crisp" transform="translate(0,66.76)" d="M10,0h280" style="stroke: rgb(235, 240, 248); stroke-opacity: 1; stroke-width: 1px;"/></g></g><g class="zerolinelayer"><path class="yzl zl crisp" transform="translate(0,125)" d="M10,0h280" style="stroke: rgb(235, 240, 248); stroke-opacity: 1; stroke-width: 2px;"/></g><path class="xlines-below"/><path class="ylines-below"/><g class="overlines-below"/><g class="xaxislayer-below"/><g class="yaxislayer-below"/><g class="overaxes-below"/><g class="plot" transform="translate(10,50)" clip-path="url(#clip722ca5xyplot)"><g class="scatterlayer mlayer"><g class="trace scatter trace4e0d9b" style="stroke-miterlimit: 2; opacity: 1;"><g class="fills"/><g class="errorbars"/><g class="lines"><path class="js-line" d="M0,5.5L36.72,6.47L38.25,7.24L47.43,7.24L48.96,8.8L52.02,15.79L53.55,15.79L59.67,16.95L61.2,17.53L65.79,18.12L67.32,18.12L91.8,19.09L93.33,20.25L96.39,20.25L97.92,22.19L99.45,22.19L100.98,24.13L104.04,27.24L105.57,27.63L131.58,27.63L133.11,24.13L134.64,21.22L136.17,22.19L143.83,20.25L145.36,20.25L205.03,19.09L206.56,16.37L209.62,13.85L211.15,13.07L217.27,13.07L218.8,4.72L280,3.75" style="vector-effect: non-scaling-stroke; fill: none; stroke: rgb(99, 110, 250); stroke-opacity: 1; stroke-width: 5px; opacity: 1;"/></g><g class="points"/><g class="text"/></g><g class="trace scatter trace713657" style="stroke-miterlimit: 2; opacity: 1;"><g class="fills"/><g class="errorbars"/><g class="lines"><path class="js-line" d="M0,30.54L91.8,29.76L93.33,27.63L96.39,27.63L97.92,25.88L99.45,25.88L100.98,21.81L104.04,13.85L105.57,11.71L117.81,10.93L119.34,10.35L131.58,10.35L133.11,11.71L136.17,15.79L137.7,15.79L205.03,16.37L206.56,17.53L211.15,18.12L212.68,18.12L215.74,18.7L217.27,18.12L218.8,23.75L220.33,24.52L224.92,25.11L226.45,25.11L229.51,26.27L231.04,27.63L234.1,28.41L235.63,28.99L257.05,28.99L258.58,30.54L260.11,31.9L261.64,35.98L263.17,39.47L264.7,39.47L280,39.47" style="vector-effect: non-scaling-stroke; fill: none; stroke: rgb(239, 85, 59); stroke-opacity: 1; stroke-width: 5px; opacity: 1;"/></g><g class="points"/><g class="text"/></g><g class="trace scatter trace9ba587" style="stroke-miterlimit: 2; opacity: 1;"><g class="fills"/><g class="errorbars"/><g class="lines"><path class="js-line" d="M0,62.57L48.96,63.16L50.49,64.52L53.55,65.49L55.08,65.49L96.39,65.49L97.92,60.83L104.04,61.99L105.57,62.57L110.16,61.99L111.69,61.99L174.43,60.83L175.96,59.27L179.02,54.62L180.55,54.62L200.44,54.62L201.97,53.06L205.03,52.29L206.56,51.31L208.09,51.31L209.62,49.96L212.68,48.6L214.21,47.63L217.27,45.3L218.8,45.68L258.58,45.88L260.11,46.46L264.7,43.35L266.23,43.35L280,43.35" style="vector-effect: non-scaling-stroke; fill: none; stroke: rgb(0, 204, 150); stroke-opacity: 1; stroke-width: 5px; opacity: 1;"/></g><g class="points"/><g class="text"/></g><g class="trace scatter tracec4e50a" style="stroke-miterlimit: 2; opacity: 1;"><g class="fills"/><g class="errorbars"/><g class="lines"><path class="js-line" d="M0,68.59L47.43,68.59L48.96,66.07L52.02,64.9L53.55,64.9L59.67,64.13L61.2,63.55L67.32,63.16L68.85,63.16L102.51,63.16L104.04,64.32L108.63,64.9L110.16,64.9L116.28,64.52L117.81,64.32L133.11,63.16L134.64,64.52L137.7,65.49L139.23,65.49L208.09,66.07L209.62,66.46L218.8,66.65L220.33,66.46L224.92,64.9L226.45,64.9L255.52,64.13L257.05,63.55L260.11,54.62L261.64,54.62L280,54.62" style="vector-effect: non-scaling-stroke; fill: none; stroke: rgb(171, 99, 250); stroke-opacity: 1; stroke-width: 5px; opacity: 1;"/></g><g class="points"/><g class="text"/></g><g class="trace scatter trace319ac8" style="stroke-miterlimit: 2; opacity: 1;"><g class="fills"/><g class="errorbars"/><g class="lines"><path class="js-line" d="M0,61.41L99.45,61.99L100.98,62.38L111.69,62.57L113.22,62.57L119.34,63.16L120.87,63.16L209.62,64.32L211.15,64.52L217.27,65.49L218.8,65.88L229.51,66.07L231.04,66.07L280,66.65" style="vector-effect: non-scaling-stroke; fill: none; stroke: rgb(255, 161, 90); stroke-opacity: 1; stroke-width: 5px; opacity: 1;"/></g><g class="points"/><g class="text"/></g></g></g><g class="overplot"/><path class="xlines-above crisp" d="M0,0" style="fill: none;"/><path class="ylines-above crisp" d="M0,0" style="fill: none;"/><g class="overlines-above"/><g class="xaxislayer-above"/><g class="yaxislayer-above"/><g class="overaxes-above"/></g></g><g class="polarlayer"/><g class="smithlayer"/><g class="ternarylayer"/><g class="geolayer"/><g class="funnelarealayer"/><g class="pielayer"/><g class="iciclelayer"/><g class="treemaplayer"/><g class="sunburstlayer"/><g class="glimages"/><defs id="topdefs-722ca5"><g class="clips"/></defs><g class="layer-above"><g class="imagelayer"/><g class="shapelayer"/></g><g class="infolayer"><g class="g-gtitle"><text class="gtitle" x="15" y="25" text-anchor="start" dy="0em" style="font-family: Ubuntu, verdana, arial, sans-serif; font-size: 16px; fill: rgb(233, 84, 32); opacity: 1; font-weight: normal; white-space: pre;">Prezident/ka ČR 2023</text></g><g class="g-xtitle"/><g class="g-ytitle"/></g></svg>