<svg class="main-svg" xmlns="http://www.w3.org/2000/svg" xmlns:xlink="http://www.w3.org/1999/xlink" width="1200" height="600" style="" viewBox="0 0 1200 600"><rect x="0" y="0" width="1200" height="600" style="fill: rgb(255, 255, 255); fill-opacity: 1;"/><defs id="defs-e03ffd"><g class="clips"><clipPath id="clipe03ffdxyplot" class="plotclip"><rect width="975" height="530"/></clipPath><clipPath class="axesclip" id="clipe03ffdx"><rect x="50" y="0" width="975" height="600"/></clipPath><clipPath class="axesclip" id="clipe03ffdy"><rect x="0" y="20" width="1200" height="530"/></clipPath><clipPath class="axesclip" id="clipe03ffdxy"><rect x="50" y="20" width="975" height="530"/></clipPath></g><g class="gradients"/><g class="patterns"/></defs><g class="bglayer"/><g class="layer-below"><g class="imagelayer"/><g class="shapelayer"/></g><g class="cartesianlayer"><g class="subplot xy"><g class="layer-subplot"><g class="shapelayer"/><g class="imagelayer"/></g><g class="minor-gridlayer"><g class="x"/><g class="y"/></g><g class="gridlayer"><g class="x"><path class="xgrid crisp" transform="translate(60.09,0)" d="M0,20v530" style="stroke: rgb(235, 240, 248); stroke-opacity: 1; stroke-width: 1px;"/><path class="xgrid crisp" transform="translate(160.95,0)" d="M0,20v530" style="stroke: rgb(235, 240, 248); stroke-opacity: 1; stroke-width: 1px;"/><path class="xgrid crisp" transform="translate(265.16999999999996,0)" d="M0,20v530" style="stroke: rgb(235, 240, 248); stroke-opacity: 1; stroke-width: 1px;"/><path class="xgrid crisp" transform="translate(366.03,0)" d="M0,20v530" style="stroke: rgb(235, 240, 248); stroke-opacity: 1; stroke-width: 1px;"/><path class="xgrid crisp" transform="translate(470.26,0)" d="M0,20v530" style="stroke: rgb(235, 240, 248); stroke-opacity: 1; stroke-width: 1px;"/><path class="xgrid crisp" transform="translate(574.48,0)" d="M0,20v530" style="stroke: rgb(235, 240, 248); stroke-opacity: 1; stroke-width: 1px;"/><path class="xgrid crisp" transform="translate(675.34,0)" d="M0,20v530" style="stroke: rgb(235, 240, 248); stroke-opacity: 1; stroke-width: 1px;"/><path class="xgrid crisp" transform="translate(779.57,0)" d="M0,20v530" style="stroke: rgb(235, 240, 248); stroke-opacity: 1; stroke-width: 1px;"/><path class="xgrid crisp" transform="translate(880.43,0)" d="M0,20v530" style="stroke: rgb(235, 240, 248); stroke-opacity: 1; stroke-width: 1px;"/><path class="xgrid crisp" transform="translate(984.66,0)" d="M0,20v530" style="stroke: rgb(235, 240, 248); stroke-opacity: 1; stroke-width: 1px;"/></g><g class="y"><path class="ygrid crisp" transform="translate(0,451.08)" d="M50,0h975" style="stroke: rgb(235, 240, 248); stroke-opacity: 1; stroke-width: 1px;"/><path class="ygrid crisp" transform="translate(0,352.16)" d="M50,0h975" style="stroke: rgb(235, 240, 248); stroke-opacity: 1; stroke-width: 1px;"/><path class="ygrid crisp" transform="translate(0,253.24)" d="M50,0h975" style="stroke: rgb(235, 240, 248); stroke-opacity: 1; stroke-width: 1px;"/><path class="ygrid crisp" transform="translate(0,154.32)" d="M50,0h975" style="stroke: rgb(235, 240, 248); stroke-opacity: 1; stroke-width: 1px;"/><path class="ygrid crisp" transform="translate(0,55.4)" d="M50,0h975" style="stroke: rgb(235, 240, 248); stroke-opacity: 1; stroke-width: 1px;"/></g></g><g class="zerolinelayer"><path class="yzl zl crisp" transform="translate(0,550)" d="M50,0h975" style="stroke: rgb(235, 240, 248); stroke-opacity: 1; stroke-width: 2px;"/></g><path class="xlines-below"/><path class="ylines-below"/><g class="overlines-below"/><g class="xaxislayer-below"/><g class="yaxislayer-below"/><g class="overaxes-below"/><g class="plot" transform="translate(50,20)" clip-path="url(#clipe03ffdxyplot)"><g class="scatterlayer mlayer"><g class="trace scatter tracec6d05a" style="stroke-miterlimit: 2; opacity: 1;"><g class="fills"/><g class="errorbars"/><g class="lines"><path class="js-line" d="M0,112.56L77.33,112.56L80.69,117.51L84.05,122.45L87.41,122.45L104.22,122.45L107.59,132.34L114.31,173.89L117.67,173.89L121.03,173.89L124.4,176.86L127.76,180.81L131.12,180.81L137.84,187.74L141.21,187.74L158.02,187.74L161.38,191.7L164.74,194.66L168.1,194.66L201.72,194.66L205.09,200.6L211.81,200.6L215.17,213.46L218.53,213.46L221.9,224.34L225.26,237.2L228.62,242.14L231.98,245.11L235.34,245.11L289.14,245.11L292.5,224.34L295.86,207.52L299.22,213.46L302.59,210.49L305.95,200.6L329.48,200.6L332.84,197.63L336.21,194.66L339.57,194.66L386.64,194.66L390,197.63L393.36,200.6L396.72,200.6L447.16,200.6L450.52,194.66L453.88,176.86L457.24,165.98L463.97,158.06L467.33,158.06L477.41,158.06L480.78,107.61L484.14,107.61L487.5,102.67L632.07,102.67L635.43,112.56L638.79,117.51L642.16,112.56L645.52,122.45L648.88,122.45L662.33,122.45L665.69,107.61L669.05,91.79L672.41,91.79L679.14,91.79L682.5,73.98L689.22,41.34L692.59,26.5L699.31,26.5L726.21,79.92L732.93,91.79L739.66,91.79L743.02,79.92L746.38,79.92L749.74,85.85L753.1,112.56L756.47,141.25L759.83,122.45L803.53,122.45L806.9,117.51L810.26,107.61L813.62,102.67L816.98,102.67L820.34,150.15L833.79,150.15L843.88,187.74L847.24,187.74" style="vector-effect: non-scaling-stroke; fill: none; stroke: rgb(99, 110, 250); stroke-opacity: 1; stroke-width: 5px; opacity: 1;"/></g><g class="points"/><g class="text"/></g><g class="trace scatter tracef9254f" style="stroke-miterlimit: 2; opacity: 1;"><g class="fills"/><g class="errorbars"/><g class="lines"><path class="js-line" d="M0,455.81L16.81,455.81L20.17,458.78L107.59,458.78L110.95,466.69L114.31,472.63L117.67,472.63L211.81,472.63L215.17,444.93L218.53,444.93L221.9,446.91L228.62,451.85L231.98,455.81L235.34,451.85L238.71,451.85L248.79,451.85L252.16,448.89L255.52,444.93L258.88,444.93L383.28,444.93L386.64,435.04L390,416.24L393.36,407.34L440.43,407.34L443.79,398.44L447.16,398.44L450.52,393.49L453.88,387.56L457.24,387.56L463.97,371.73L467.33,371.73L470.69,365.79L474.05,355.9L477.41,351.94L480.78,353.92L484.14,353.92L487.5,350.96L494.22,349.97L497.59,349.97L564.83,349.97L568.19,354.91L571.55,358.87L574.91,349.97L578.28,340.07L581.64,340.07L632.07,340.07L635.43,333.15L638.79,326.23L642.16,326.23L645.52,335.13L648.88,340.07L652.24,340.07L655.6,329.19L658.97,316.33L662.33,316.33L669.05,304.46L672.41,304.46L679.14,304.46L682.5,307.43L685.86,292.59L689.22,270.83L699.31,270.83L726.21,308.42L729.57,316.33L732.93,316.33L739.66,316.33L743.02,321.28L746.38,321.28L749.74,319.3L753.1,307.43L756.47,285.67L780,285.67L783.36,281.71L803.53,280.72L806.9,278.74L810.26,274.79L813.62,278.74L816.98,270.83L820.34,254.01L833.79,254.01L843.88,213.46L847.24,213.46" style="vector-effect: non-scaling-stroke; fill: none; stroke: rgb(239, 85, 59); stroke-opacity: 1; stroke-width: 5px; opacity: 1;"/></g><g class="points"/><g class="text"/></g><g class="trace scatter traced28b62" style="stroke-miterlimit: 2; opacity: 1;"><g class="fills"/><g class="errorbars"/><g class="lines"><path class="js-line" d="M0,262.92L77.33,262.92L80.69,260.94L84.05,258.96L87.41,258.96L201.72,258.96L205.09,245.11L211.81,245.11L215.17,235.22L218.53,235.22L221.9,210.49L225.26,176.86L228.62,162.02L231.98,150.15L235.34,150.15L255.52,150.15L258.88,145.2L262.24,141.25L265.6,141.25L289.14,141.25L292.5,150.15L295.86,165.98L299.22,173.89L447.16,173.89L450.52,176.86L453.88,184.77L457.24,187.74L467.33,187.74L470.69,191.7L474.05,191.7L477.41,187.74L480.78,221.37L484.14,227.31L487.5,230.27L490.86,230.27L500.95,230.27L504.31,237.2L507.67,245.11L511.03,245.11L517.76,254.01L521.12,254.01L564.83,254.01L568.19,262.92L571.55,270.83L574.91,295.56L578.28,316.33L581.64,316.33L621.98,316.33L625.34,329.19L628.71,340.07L632.07,340.07L635.43,337.11L638.79,340.07L648.88,340.07L652.24,347.99L658.97,358.87L662.33,358.87L669.05,387.56L672.41,387.56L682.5,387.56L685.86,403.38L689.22,416.24L692.59,416.24L699.31,416.24L726.21,278.74L729.57,264.9L732.93,258.96L739.66,258.96L743.02,278.74L749.74,278.74L753.1,281.71L756.47,285.67L759.83,285.67L780,285.67L783.36,288.64L803.53,288.64L806.9,290.61L813.62,285.67L816.98,285.67L820.34,254.01L823.71,254.01L833.79,254.01L843.88,250.06L847.24,250.06" style="vector-effect: non-scaling-stroke; fill: none; stroke: rgb(0, 204, 150); stroke-opacity: 1; stroke-width: 5px; opacity: 1;"/></g><g class="points"/><g class="text"/></g><g class="trace scatter traceebfeab" style="stroke-miterlimit: 2; opacity: 1;"><g class="fills"/><g class="errorbars"/><g class="lines"><path class="js-line" d="M0,448.89L16.81,448.89L20.17,444.93L131.12,444.93L134.48,448.89L137.84,451.85L141.21,451.85L218.53,451.85L221.9,453.83L225.26,455.81L228.62,455.81L252.16,456.8L255.52,458.78L383.28,458.78L386.64,461.75L390,463.72L393.36,463.72L457.24,463.72L460.6,465.7L470.69,467.68L474.05,470.65L484.14,476.58L487.5,476.58L574.91,476.58L578.28,479.55L628.71,479.55L632.07,470.65L635.43,461.75L638.79,463.72L645.52,463.72L648.88,468.67L682.5,468.67L685.86,479.55L689.22,489.44L692.59,491.42L699.31,491.42L726.21,495.38L732.93,497.36L739.66,497.36L816.98,498.35L820.34,508.24L847.24,508.24" style="vector-effect: non-scaling-stroke; fill: none; stroke: rgb(171, 99, 250); stroke-opacity: 1; stroke-width: 5px; opacity: 1;"/></g><g class="points"/><g class="text"/></g><g class="trace scatter trace5e28bf" style="stroke-miterlimit: 2; opacity: 1;"><g class="fills"/><g class="errorbars"/><g class="lines"><path class="js-line" d="M0,506.26L110.95,507.25L114.31,508.24L295.86,507.25L299.22,505.27L383.28,505.27L386.64,502.3L390,498.35L393.36,498.35L477.41,499.33L480.78,497.36L574.91,498.35L578.28,499.33L635.43,500.32L638.79,503.29L642.16,505.27L645.52,505.27L759.83,506.26L763.19,507.25L816.98,507.25L820.34,513.18L847.24,513.18" style="vector-effect: non-scaling-stroke; fill: none; stroke: rgb(255, 161, 90); stroke-opacity: 1; stroke-width: 5px; opacity: 1;"/></g><g class="points"/><g class="text"/></g><g class="trace scatter trace904c0f" style="stroke-miterlimit: 2; opacity: 1;"><g class="fills"/><g class="errorbars"/><g class="lines"><path class="js-line" d="M0,491.42L104.22,491.42L107.59,476.58L110.95,468.67L114.31,468.67L121.03,468.67L124.4,466.69L127.76,463.72L131.12,463.72L137.84,458.78L141.21,458.78L158.02,458.78L161.38,456.8L168.1,451.85L171.47,451.85L211.81,451.85L215.17,455.81L221.9,455.81L225.26,458.78L228.62,465.7L231.98,468.67L242.07,468.67L245.43,466.69L248.79,463.72L252.16,465.7L255.52,466.69L258.88,465.7L262.24,463.72L265.6,463.72L279.05,463.72L282.41,461.75L285.78,458.78L289.14,458.78L292.5,458.78L295.86,466.69L299.22,472.63L302.59,472.63L326.12,472.63L329.48,470.65L332.84,468.67L336.21,468.67L383.28,468.67L386.64,472.63L390,476.58L393.36,476.58L457.24,476.58L460.6,478.56L467.33,479.55L470.69,479.55L477.41,478.56L480.78,480.54L484.14,478.56L487.5,472.63L490.86,468.67L494.22,468.67L537.93,468.67L541.29,466.69L544.66,463.72L548.02,463.72L561.47,463.72L564.83,461.75L568.19,439.98L571.55,407.34L621.98,407.34L625.34,398.44L628.71,387.56L632.07,387.56L652.24,387.56L655.6,407.34L658.97,423.17L662.33,423.17L669.05,448.89L672.41,448.89L679.14,448.89L682.5,462.73L685.86,481.53L689.22,487.46L699.31,487.46L726.21,514.17L816.98,514.17L820.34,518.13L847.24,518.13" style="vector-effect: non-scaling-stroke; fill: none; stroke: rgb(25, 211, 243); stroke-opacity: 1; stroke-width: 5px; opacity: 1;"/></g><g class="points"/><g class="text"/></g></g></g><g class="overplot"/><path class="xlines-above crisp" d="M0,0" style="fill: none;"/><path class="ylines-above crisp" d="M0,0" style="fill: none;"/><g class="overlines-above"/><g class="xaxislayer-above"><g class="xtick"><text text-anchor="middle" x="0" y="563" transform="translate(60.09,0)" style="font-family: 'Open Sans', verdana, arial, sans-serif; font-size: 12px; fill: rgb(42, 63, 95); fill-opacity: 1; white-space: pre; opacity: 1;">1.4.22</text></g><g class="xtick"><text text-anchor="middle" x="0" y="563" style="font-family: 'Open Sans', verdana, arial, sans-serif; font-size: 12px; fill: rgb(42, 63, 95); fill-opacity: 1; white-space: pre; opacity: 1;" transform="translate(160.95,0)">1.5.22</text></g><g class="xtick"><text text-anchor="middle" x="0" y="563" style="font-family: 'Open Sans', verdana, arial, sans-serif; font-size: 12px; fill: rgb(42, 63, 95); fill-opacity: 1; white-space: pre; opacity: 1;" transform="translate(265.16999999999996,0)">1.6.22</text></g><g class="xtick"><text text-anchor="middle" x="0" y="563" style="font-family: 'Open Sans', verdana, arial, sans-serif; font-size: 12px; fill: rgb(42, 63, 95); fill-opacity: 1; white-space: pre; opacity: 1;" transform="translate(366.03,0)">1.7.22</text></g><g class="xtick"><text text-anchor="middle" x="0" y="563" style="font-family: 'Open Sans', verdana, arial, sans-serif; font-size: 12px; fill: rgb(42, 63, 95); fill-opacity: 1; white-space: pre; opacity: 1;" transform="translate(470.26,0)">1.8.22</text></g><g class="xtick"><text text-anchor="middle" x="0" y="563" style="font-family: 'Open Sans', verdana, arial, sans-serif; font-size: 12px; fill: rgb(42, 63, 95); fill-opacity: 1; white-space: pre; opacity: 1;" transform="translate(574.48,0)">1.9.22</text></g><g class="xtick"><text text-anchor="middle" x="0" y="563" style="font-family: 'Open Sans', verdana, arial, sans-serif; font-size: 12px; fill: rgb(42, 63, 95); fill-opacity: 1; white-space: pre; opacity: 1;" transform="translate(675.34,0)">1.10.22</text></g><g class="xtick"><text text-anchor="middle" x="0" y="563" style="font-family: 'Open Sans', verdana, arial, sans-serif; font-size: 12px; fill: rgb(42, 63, 95); fill-opacity: 1; white-space: pre; opacity: 1;" transform="translate(779.57,0)">1.11.22</text></g><g class="xtick"><text text-anchor="middle" x="0" y="563" style="font-family: 'Open Sans', verdana, arial, sans-serif; font-size: 12px; fill: rgb(42, 63, 95); fill-opacity: 1; white-space: pre; opacity: 1;" transform="translate(880.43,0)">1.12.22</text></g><g class="xtick"><text text-anchor="middle" x="0" y="563" style="font-family: 'Open Sans', verdana, arial, sans-serif; font-size: 12px; fill: rgb(42, 63, 95); fill-opacity: 1; white-space: pre; opacity: 1;" transform="translate(984.66,0)">1.1.23</text></g></g><g class="yaxislayer-above"><g class="ytick"><text text-anchor="end" x="49" y="4.199999999999999" transform="translate(0,550)" style="font-family: 'Open Sans', verdana, arial, sans-serif; font-size: 12px; fill: rgb(42, 63, 95); fill-opacity: 1; white-space: pre; opacity: 1;">0%</text></g><g class="ytick"><text text-anchor="end" x="49" y="4.199999999999999" style="font-family: 'Open Sans', verdana, arial, sans-serif; font-size: 12px; fill: rgb(42, 63, 95); fill-opacity: 1; white-space: pre; opacity: 1;" transform="translate(0,451.08)">10%</text></g><g class="ytick"><text text-anchor="end" x="49" y="4.199999999999999" style="font-family: 'Open Sans', verdana, arial, sans-serif; font-size: 12px; fill: rgb(42, 63, 95); fill-opacity: 1; white-space: pre; opacity: 1;" transform="translate(0,352.16)">20%</text></g><g class="ytick"><text text-anchor="end" x="49" y="4.199999999999999" style="font-family: 'Open Sans', verdana, arial, sans-serif; font-size: 12px; fill: rgb(42, 63, 95); fill-opacity: 1; white-space: pre; opacity: 1;" transform="translate(0,253.24)">30%</text></g><g class="ytick"><text text-anchor="end" x="49" y="4.199999999999999" style="font-family: 'Open Sans', verdana, arial, sans-serif; font-size: 12px; fill: rgb(42, 63, 95); fill-opacity: 1; white-space: pre; opacity: 1;" transform="translate(0,154.32)">40%</text></g><g class="ytick"><text text-anchor="end" x="49" y="4.199999999999999" style="font-family: 'Open Sans', verdana, arial, sans-serif; font-size: 12px; fill: rgb(42, 63, 95); fill-opacity: 1; white-space: pre; opacity: 1;" transform="translate(0,55.4)">50%</text></g></g><g class="overaxes-above"/></g></g><g class="polarlayer"/><g class="smithlayer"/><g class="ternarylayer"/><g class="geolayer"/><g class="funnelarealayer"/><g class="pielayer"/><g class="iciclelayer"/><g class="treemaplayer"/><g class="sunburstlayer"/><g class="glimages"/><defs id="topdefs-e03ffd"><g class="clips"/><clipPath id="legende03ffd"><rect width="143" height="124" x="0" y="0"/></clipPath></defs><g class="layer-above"><g class="imagelayer"/><g class="shapelayer"/></g><g class="infolayer"><g class="legend" pointer-events="all" transform="translate(1044.5,20)"><rect class="bg" shape-rendering="crispEdges" style="stroke: rgb(68, 68, 68); stroke-opacity: 1; fill: rgb(255, 255, 255); fill-opacity: 1; stroke-width: 0px;" width="143" height="124" x="0" y="0"/><g class="scrollbox" transform="" clip-path="url(#legende03ffd)"><g class="groups"><g class="traces" transform="translate(0,14.5)" style="opacity: 1;"><text class="legendtext" text-anchor="start" x="40" y="4.680000000000001" style="font-family: 'Open Sans', verdana, arial, sans-serif; font-size: 12px; fill: rgb(42, 63, 95); fill-opacity: 1; white-space: pre;">Pavel Petr</text><g class="layers" style="opacity: 1;"><g class="legendfill"/><g class="legendlines"><path class="js-line" d="M5,0h30" style="fill: none; stroke: rgb(99, 110, 250); stroke-opacity: 1; stroke-width: 5px;"/></g><g class="legendsymbols"><g class="legendpoints"/></g></g><rect class="legendtoggle" x="0" y="-9.5" width="137.0625" height="19" style="fill: rgb(0, 0, 0); fill-opacity: 0;"/></g><g class="traces" transform="translate(0,33.5)" style="opacity: 1;"><text class="legendtext" text-anchor="start" x="40" y="4.680000000000001" style="font-family: 'Open Sans', verdana, arial, sans-serif; font-size: 12px; fill: rgb(42, 63, 95); fill-opacity: 1; white-space: pre;">Nerudová Danuše</text><g class="layers" style="opacity: 1;"><g class="legendfill"/><g class="legendlines"><path class="js-line" d="M5,0h30" style="fill: none; stroke: rgb(239, 85, 59); stroke-opacity: 1; stroke-width: 5px;"/></g><g class="legendsymbols"><g class="legendpoints"/></g></g><rect class="legendtoggle" x="0" y="-9.5" width="137.0625" height="19" style="fill: rgb(0, 0, 0); fill-opacity: 0;"/></g><g class="traces" transform="translate(0,52.5)" style="opacity: 1;"><text class="legendtext" text-anchor="start" x="40" y="4.680000000000001" style="font-family: 'Open Sans', verdana, arial, sans-serif; font-size: 12px; fill: rgb(42, 63, 95); fill-opacity: 1; white-space: pre;">Babiš Andrej</text><g class="layers" style="opacity: 1;"><g class="legendfill"/><g class="legendlines"><path class="js-line" d="M5,0h30" style="fill: none; stroke: rgb(0, 204, 150); stroke-opacity: 1; stroke-width: 5px;"/></g><g class="legendsymbols"><g class="legendpoints"/></g></g><rect class="legendtoggle" x="0" y="-9.5" width="137.0625" height="19" style="fill: rgb(0, 0, 0); fill-opacity: 0;"/></g><g class="traces" transform="translate(0,71.5)" style="opacity: 1;"><text class="legendtext" text-anchor="start" x="40" y="4.680000000000001" style="font-family: 'Open Sans', verdana, arial, sans-serif; font-size: 12px; fill: rgb(42, 63, 95); fill-opacity: 1; white-space: pre;">Fischer Pavel</text><g class="layers" style="opacity: 1;"><g class="legendfill"/><g class="legendlines"><path class="js-line" d="M5,0h30" style="fill: none; stroke: rgb(171, 99, 250); stroke-opacity: 1; stroke-width: 5px;"/></g><g class="legendsymbols"><g class="legendpoints"/></g></g><rect class="legendtoggle" x="0" y="-9.5" width="137.0625" height="19" style="fill: rgb(0, 0, 0); fill-opacity: 0;"/></g><g class="traces" transform="translate(0,90.5)" style="opacity: 1;"><text class="legendtext" text-anchor="start" x="40" y="4.680000000000001" style="font-family: 'Open Sans', verdana, arial, sans-serif; font-size: 12px; fill: rgb(42, 63, 95); fill-opacity: 1; white-space: pre;">Hilšer Marek</text><g class="layers" style="opacity: 1;"><g class="legendfill"/><g class="legendlines"><path class="js-line" d="M5,0h30" style="fill: none; stroke: rgb(255, 161, 90); stroke-opacity: 1; stroke-width: 5px;"/></g><g class="legendsymbols"><g class="legendpoints"/></g></g><rect class="legendtoggle" x="0" y="-9.5" width="137.0625" height="19" style="fill: rgb(0, 0, 0); fill-opacity: 0;"/></g><g class="traces" transform="translate(0,109.5)" style="opacity: 1;"><text class="legendtext" text-anchor="start" x="40" y="4.680000000000001" style="font-family: 'Open Sans', verdana, arial, sans-serif; font-size: 12px; fill: rgb(42, 63, 95); fill-opacity: 1; white-space: pre;">Středula Josef</text><g class="layers" style="opacity: 1;"><g class="legendfill"/><g class="legendlines"><path class="js-line" d="M5,0h30" style="fill: none; stroke: rgb(25, 211, 243); stroke-opacity: 1; stroke-width: 5px;"/></g><g class="legendsymbols"><g class="legendpoints"/></g></g><rect class="legendtoggle" x="0" y="-9.5" width="137.0625" height="19" style="fill: rgb(0, 0, 0); fill-opacity: 0;"/></g></g></g><rect class="scrollbar" rx="20" ry="3" width="0" height="0" style="fill: rgb(128, 139, 164); fill-opacity: 1;" x="0" y="0"/></g><g class="g-gtitle"/><g class="g-xtitle"/><g class="g-ytitle"/></g></svg>