<svg class="main-svg" xmlns="http://www.w3.org/2000/svg" xmlns:xlink="http://www.w3.org/1999/xlink" width="400" height="400" style="" viewBox="0 0 400 400"><rect x="0" y="0" width="400" height="400" style="fill: rgb(255, 255, 255); fill-opacity: 1;"/><defs id="defs-da9c7f"><g class="clips"><clipPath id="clipda9c7fxyplot" class="plotclip"><rect width="191" height="330"/></clipPath><clipPath class="axesclip" id="clipda9c7fx"><rect x="50" y="0" width="191" height="400"/></clipPath><clipPath class="axesclip" id="clipda9c7fy"><rect x="0" y="20" width="400" height="330"/></clipPath><clipPath class="axesclip" id="clipda9c7fxy"><rect x="50" y="20" width="191" height="330"/></clipPath></g><g class="gradients"/><g class="patterns"/></defs><g class="bglayer"/><g class="layer-below"><g class="imagelayer"/><g class="shapelayer"/></g><g class="cartesianlayer"><g class="subplot xy"><g class="layer-subplot"><g class="shapelayer"/><g class="imagelayer"/></g><g class="minor-gridlayer"><g class="x"/><g class="y"/></g><g class="gridlayer"><g class="x"><path class="xgrid crisp" transform="translate(71.73,0)" d="M0,20v330" style="stroke: rgb(235, 240, 248); stroke-opacity: 1; stroke-width: 1px;"/><path class="xgrid crisp" transform="translate(111.91,0)" d="M0,20v330" style="stroke: rgb(235, 240, 248); stroke-opacity: 1; stroke-width: 1px;"/><path class="xgrid crisp" transform="translate(152.74,0)" d="M0,20v330" style="stroke: rgb(235, 240, 248); stroke-opacity: 1; stroke-width: 1px;"/><path class="xgrid crisp" transform="translate(192.92,0)" d="M0,20v330" style="stroke: rgb(235, 240, 248); stroke-opacity: 1; stroke-width: 1px;"/><path class="xgrid crisp" transform="translate(233.1,0)" d="M0,20v330" style="stroke: rgb(235, 240, 248); stroke-opacity: 1; stroke-width: 1px;"/></g><g class="y"><path class="ygrid crisp" transform="translate(0,303.56)" d="M50,0h191" style="stroke: rgb(235, 240, 248); stroke-opacity: 1; stroke-width: 1px;"/><path class="ygrid crisp" transform="translate(0,257.11)" d="M50,0h191" style="stroke: rgb(235, 240, 248); stroke-opacity: 1; stroke-width: 1px;"/><path class="ygrid crisp" transform="translate(0,210.67)" d="M50,0h191" style="stroke: rgb(235, 240, 248); stroke-opacity: 1; stroke-width: 1px;"/><path class="ygrid crisp" transform="translate(0,164.22)" d="M50,0h191" style="stroke: rgb(235, 240, 248); stroke-opacity: 1; stroke-width: 1px;"/><path class="ygrid crisp" transform="translate(0,117.78)" d="M50,0h191" style="stroke: rgb(235, 240, 248); stroke-opacity: 1; stroke-width: 1px;"/><path class="ygrid crisp" transform="translate(0,71.33)" d="M50,0h191" style="stroke: rgb(235, 240, 248); stroke-opacity: 1; stroke-width: 1px;"/><path class="ygrid crisp" transform="translate(0,24.89)" d="M50,0h191" style="stroke: rgb(235, 240, 248); stroke-opacity: 1; stroke-width: 1px;"/></g></g><g class="zerolinelayer"><path class="yzl zl crisp" transform="translate(0,350)" d="M50,0h191" style="stroke: rgb(235, 240, 248); stroke-opacity: 1; stroke-width: 2px;"/></g><path class="xlines-below"/><path class="ylines-below"/><g class="overlines-below"/><g class="xaxislayer-below"/><g class="yaxislayer-below"/><g class="overaxes-below"/><g class="plot" transform="translate(50,20)" clip-path="url(#clipda9c7fxyplot)"><g class="scatterlayer mlayer"><g class="trace scatter trace25de52" style="stroke-miterlimit: 2; opacity: 1;"><g class="fills"/><g class="errorbars"/><g class="lines"><path class="js-line" d="M0,114.5L15.15,114.5L15.81,117.28L17.12,119.61L17.78,119.61L20.42,119.61L21.08,124.72L23.05,146.08L23.71,146.08L27.66,153.51L28.32,153.51L30.96,153.51L31.61,154.9L33.59,156.76L34.25,156.76L39.52,156.76L40.18,160.01L41.49,160.01L42.15,166.52L42.81,166.52L43.47,172.09L45.44,182.77L46.1,182.77L56.64,182.77L57.3,172.09L57.96,163.26L58.62,166.52L59.28,164.66L60.59,160.01L61.25,160.01L64.54,160.01L65.2,158.62L67.18,156.76L67.84,156.76L75.74,156.76L76.4,158.62L78.38,160.01L79.03,160.01L87.6,160.01L88.26,156.76L90.89,137.72L91.55,137.72L93.52,137.72L94.18,111.71L94.84,111.71L95.5,108.92L123.82,108.92L124.48,114.5L125.14,117.28L125.8,114.5L127.11,119.61L127.77,119.61L129.75,119.61L130.41,111.71L131.72,103.35L132.38,103.35L133.04,103.35L133.7,94.53L136.33,70.38L136.99,70.38L143.58,103.35L144.9,103.35L146.21,97.31L146.87,100.56L148.19,129.36L148.85,119.61L149.51,119.61L157.41,119.61L158.07,117.28L160.04,108.92L160.7,133.54L163.34,133.54L165.31,153.51L167.29,156.76L167.95,170.7L169.27,182.77L169.92,182.77L171.24,182.77L171.9,177.66L173.88,185.09L174.53,174.88L175.85,160.01L176.51,146.08L181.78,146.08L182.44,137.72L183.1,137.72L183.76,131.68L185.07,124.72L185.73,124.72L187.71,84.77L188.37,72.23L191,16.5" style="vector-effect: non-scaling-stroke; fill: none; stroke: rgb(99, 110, 250); stroke-opacity: 1; stroke-width: 5px; opacity: 1;"/></g><g class="points"/><g class="text"/></g><g class="trace scatter tracee60654" style="stroke-miterlimit: 2; opacity: 1;"><g class="fills"/><g class="errorbars"/><g class="lines"><path class="js-line" d="M0,192.06L15.15,192.06L15.81,190.67L17.78,189.74L18.44,189.74L39.52,189.74L40.18,182.77L41.49,182.77L42.15,177.66L42.81,177.66L43.47,164.66L45.44,133.54L46.1,133.54L50.06,133.54L50.71,131.68L52.03,129.36L52.69,129.36L56.64,129.36L57.3,133.54L59.28,146.08L59.93,146.08L87.6,146.08L88.26,147.94L90.23,153.51L90.89,153.51L91.55,153.51L92.21,154.9L92.87,154.9L93.52,153.51L95.5,174.88L96.16,174.88L98.13,174.88L98.79,179.06L101.43,187.42L102.09,187.42L110.65,187.42L111.31,192.06L111.97,196.24L112.62,208.78L113.94,219.46L114.6,219.46L121.84,219.46L122.5,225.96L123.82,232L124.48,230.14L126.46,232L127.11,232L131.72,256.15L132.38,256.15L133.7,256.15L134.36,264.51L135.68,271.02L136.33,271.02L136.99,271.02L142.26,199.96L143.58,189.74L144.9,189.74L146.21,199.96L146.87,199.96L149.51,203.67L150.17,203.67L152.8,203.67L153.46,205.53L158.73,205.53L159.39,203.67L160.04,203.67L160.7,187.42L163.34,187.42L165.31,185.09L167.29,185.09L167.95,197.17L169.27,210.64L169.92,210.64L172.56,210.64L173.22,213.89L175.19,213.89L175.85,216.68L177.17,219.46L177.83,219.46L181.78,219.46L182.44,225.04L183.1,225.04L183.76,223.64L185.73,222.25L186.39,232L187.71,232L188.37,198.56L189.02,193.92L189.68,196.24L190.34,205.06L191,206.46" style="vector-effect: non-scaling-stroke; fill: none; stroke: rgb(239, 85, 59); stroke-opacity: 1; stroke-width: 5px; opacity: 1;"/></g><g class="points"/><g class="text"/></g><g class="trace scatter trace860ba7" style="stroke-miterlimit: 2; opacity: 1;"><g class="fills"/><g class="errorbars"/><g class="lines"><path class="js-line" d="M0,291.45L3.29,291.45L3.95,293.31L21.08,293.31L21.73,297.49L23.05,300.74L23.71,300.74L41.49,300.74L42.15,285.88L43.47,286.81L44.13,287.74L45.44,291.45L46.1,290.06L48.74,290.06L49.4,287.74L51.37,285.88L52.03,285.88L75.08,285.88L75.74,280.77L77.72,266.84L78.38,266.84L86.28,266.84L86.94,262.19L87.6,262.19L88.26,259.4L93.52,238.04L94.18,238.97L94.84,238.97L95.5,237.58L98.13,237.11L98.79,237.11L110.65,237.11L111.31,239.43L111.97,241.76L112.62,237.11L113.94,232L114.6,232L123.82,232L124.48,228.29L125.8,225.04L126.46,229.68L127.77,232L128.43,225.96L130.41,216.68L131.07,213.89L133.04,213.89L133.7,215.28L135.68,196.24L136.33,196.24L136.99,196.24L142.26,215.75L143.58,219.46L144.9,219.46L146.21,222.25L146.87,220.86L148.85,203.67L149.51,203.67L152.8,203.67L153.46,201.81L157.41,200.88L158.07,199.96L160.04,196.24L160.7,187.42L163.34,187.42L165.31,166.52L167.29,160.01L167.95,140.04L169.27,114.5L169.92,114.5L171.24,114.5L171.9,119.61L173.88,108.92L174.53,119.61L177.17,146.08L177.83,146.08L181.78,146.08L182.44,153.51L183.1,153.51L183.76,160.01L185.07,166.52L185.73,166.52L189.02,274.73L189.68,277.98L191,302.6" style="vector-effect: non-scaling-stroke; fill: none; stroke: rgb(0, 204, 150); stroke-opacity: 1; stroke-width: 5px; opacity: 1;"/></g><g class="points"/><g class="text"/></g></g></g><g class="overplot"/><path class="xlines-above crisp" d="M0,0" style="fill: none;"/><path class="ylines-above crisp" d="M0,0" style="fill: none;"/><g class="overlines-above"/><g class="xaxislayer-above"><g class="xtick"><text text-anchor="middle" x="0" y="363" transform="translate(71.73,0)" style="font-family: 'Open Sans', verdana, arial, sans-serif; font-size: 12px; fill: rgb(42, 63, 95); fill-opacity: 1; white-space: pre; opacity: 1;">1.5.22</text></g><g class="xtick"><text text-anchor="middle" x="0" y="363" style="font-family: 'Open Sans', verdana, arial, sans-serif; font-size: 12px; fill: rgb(42, 63, 95); fill-opacity: 1; white-space: pre; opacity: 1;" transform="translate(111.91,0)">1.7.22</text></g><g class="xtick"><text text-anchor="middle" x="0" y="363" style="font-family: 'Open Sans', verdana, arial, sans-serif; font-size: 12px; fill: rgb(42, 63, 95); fill-opacity: 1; white-space: pre; opacity: 1;" transform="translate(152.74,0)">1.9.22</text></g><g class="xtick"><text text-anchor="middle" x="0" y="363" style="font-family: 'Open Sans', verdana, arial, sans-serif; font-size: 12px; fill: rgb(42, 63, 95); fill-opacity: 1; white-space: pre; opacity: 1;" transform="translate(192.92,0)">1.11.22</text></g><g class="xtick"><text text-anchor="middle" x="0" y="363" style="font-family: 'Open Sans', verdana, arial, sans-serif; font-size: 12px; fill: rgb(42, 63, 95); fill-opacity: 1; white-space: pre; opacity: 1;" transform="translate(233.1,0)">1.1.23</text></g></g><g class="yaxislayer-above"><g class="ytick"><text text-anchor="end" x="49" y="4.199999999999999" transform="translate(0,350)" style="font-family: 'Open Sans', verdana, arial, sans-serif; font-size: 12px; fill: rgb(42, 63, 95); fill-opacity: 1; white-space: pre; opacity: 1;">0%</text></g><g class="ytick"><text text-anchor="end" x="49" y="4.199999999999999" style="font-family: 'Open Sans', verdana, arial, sans-serif; font-size: 12px; fill: rgb(42, 63, 95); fill-opacity: 1; white-space: pre; opacity: 1;" transform="translate(0,303.56)">10%</text></g><g class="ytick"><text text-anchor="end" x="49" y="4.199999999999999" style="font-family: 'Open Sans', verdana, arial, sans-serif; font-size: 12px; fill: rgb(42, 63, 95); fill-opacity: 1; white-space: pre; opacity: 1;" transform="translate(0,257.11)">20%</text></g><g class="ytick"><text text-anchor="end" x="49" y="4.199999999999999" style="font-family: 'Open Sans', verdana, arial, sans-serif; font-size: 12px; fill: rgb(42, 63, 95); fill-opacity: 1; white-space: pre; opacity: 1;" transform="translate(0,210.67)">30%</text></g><g class="ytick"><text text-anchor="end" x="49" y="4.199999999999999" style="font-family: 'Open Sans', verdana, arial, sans-serif; font-size: 12px; fill: rgb(42, 63, 95); fill-opacity: 1; white-space: pre; opacity: 1;" transform="translate(0,164.22)">40%</text></g><g class="ytick"><text text-anchor="end" x="49" y="4.199999999999999" style="font-family: 'Open Sans', verdana, arial, sans-serif; font-size: 12px; fill: rgb(42, 63, 95); fill-opacity: 1; white-space: pre; opacity: 1;" transform="translate(0,117.78)">50%</text></g><g class="ytick"><text text-anchor="end" x="49" y="4.199999999999999" style="font-family: 'Open Sans', verdana, arial, sans-serif; font-size: 12px; fill: rgb(42, 63, 95); fill-opacity: 1; white-space: pre; opacity: 1;" transform="translate(0,71.33)">60%</text></g><g class="ytick"><text text-anchor="end" x="49" y="4.199999999999999" style="font-family: 'Open Sans', verdana, arial, sans-serif; font-size: 12px; fill: rgb(42, 63, 95); fill-opacity: 1; white-space: pre; opacity: 1;" transform="translate(0,24.89)">70%</text></g></g><g class="overaxes-above"/></g></g><g class="polarlayer"/><g class="smithlayer"/><g class="ternarylayer"/><g class="geolayer"/><g class="funnelarealayer"/><g class="pielayer"/><g class="iciclelayer"/><g class="treemaplayer"/><g class="sunburstlayer"/><g class="glimages"/><defs id="topdefs-da9c7f"><g class="clips"/><clipPath id="legendda9c7f"><rect width="143" height="67" x="0" y="0"/></clipPath></defs><g class="layer-above"><g class="imagelayer"/><g class="shapelayer"/></g><g class="infolayer"><g class="legend" pointer-events="all" transform="translate(244.82,20)"><rect class="bg" shape-rendering="crispEdges" width="143" height="67" x="0" y="0" style="stroke: rgb(68, 68, 68); stroke-opacity: 1; fill: rgb(255, 255, 255); fill-opacity: 1; stroke-width: 0px;"/><g class="scrollbox" transform="" clip-path="url(#legendda9c7f)"><g class="groups"><g class="traces" transform="translate(0,14.5)" style="opacity: 1;"><text class="legendtext" text-anchor="start" x="40" y="4.680000000000001" style="font-family: 'Open Sans', verdana, arial, sans-serif; font-size: 12px; fill: rgb(42, 63, 95); fill-opacity: 1; white-space: pre;">Pavel Petr</text><g class="layers" style="opacity: 1;"><g class="legendfill"/><g class="legendlines"><path class="js-line" d="M5,0h30" style="fill: none; stroke: rgb(99, 110, 250); stroke-opacity: 1; stroke-width: 5px;"/></g><g class="legendsymbols"><g class="legendpoints"/></g></g><rect class="legendtoggle" x="0" y="-9.5" width="137.0625" height="19" style="fill: rgb(0, 0, 0); fill-opacity: 0;"/></g><g class="traces" transform="translate(0,33.5)" style="opacity: 1;"><text class="legendtext" text-anchor="start" x="40" y="4.680000000000001" style="font-family: 'Open Sans', verdana, arial, sans-serif; font-size: 12px; fill: rgb(42, 63, 95); fill-opacity: 1; white-space: pre;">Babiš Andrej</text><g class="layers" style="opacity: 1;"><g class="legendfill"/><g class="legendlines"><path class="js-line" d="M5,0h30" style="fill: none; stroke: rgb(239, 85, 59); stroke-opacity: 1; stroke-width: 5px;"/></g><g class="legendsymbols"><g class="legendpoints"/></g></g><rect class="legendtoggle" x="0" y="-9.5" width="137.0625" height="19" style="fill: rgb(0, 0, 0); fill-opacity: 0;"/></g><g class="traces" transform="translate(0,52.5)" style="opacity: 1;"><text class="legendtext" text-anchor="start" x="40" y="4.680000000000001" style="font-family: 'Open Sans', verdana, arial, sans-serif; font-size: 12px; fill: rgb(42, 63, 95); fill-opacity: 1; white-space: pre;">Nerudová Danuše</text><g class="layers" style="opacity: 1;"><g class="legendfill"/><g class="legendlines"><path class="js-line" d="M5,0h30" style="fill: none; stroke: rgb(0, 204, 150); stroke-opacity: 1; stroke-width: 5px;"/></g><g class="legendsymbols"><g class="legendpoints"/></g></g><rect class="legendtoggle" x="0" y="-9.5" width="137.0625" height="19" style="fill: rgb(0, 0, 0); fill-opacity: 0;"/></g></g></g><rect class="scrollbar" rx="20" ry="3" width="0" height="0" x="0" y="0" style="fill: rgb(128, 139, 164); fill-opacity: 1;"/></g><g class="g-gtitle"/><g class="g-xtitle"/><g class="g-ytitle"/></g></svg>