<svg class="main-svg" xmlns="http://www.w3.org/2000/svg" xmlns:xlink="http://www.w3.org/1999/xlink" width="300" height="135" style="" viewBox="0 0 300 135"><rect x="0" y="0" width="300" height="135" style="fill: rgb(255, 255, 255); fill-opacity: 1;"/><defs id="defs-b6ab7f"><g class="clips"><clipPath id="clipb6ab7fxyplot" class="plotclip"><rect width="280" height="75"/></clipPath><clipPath class="axesclip" id="clipb6ab7fx"><rect x="10" y="0" width="280" height="135"/></clipPath><clipPath class="axesclip" id="clipb6ab7fy"><rect x="0" y="50" width="300" height="75"/></clipPath><clipPath class="axesclip" id="clipb6ab7fxy"><rect x="10" y="50" width="280" height="75"/></clipPath></g><g class="gradients"/><g class="patterns"/></defs><g class="bglayer"/><g class="layer-below"><g class="imagelayer"/><g class="shapelayer"/></g><g class="cartesianlayer"><g class="subplot xy"><g class="layer-subplot"><g class="shapelayer"/><g class="imagelayer"/></g><g class="minor-gridlayer"><g class="x"/><g class="y"/></g><g class="gridlayer"><g class="x"><path class="xgrid crisp" transform="translate(58.89,0)" d="M0,50v75" style="stroke: rgb(235, 240, 248); stroke-opacity: 1; stroke-width: 1px;"/><path class="xgrid crisp" transform="translate(149.26,0)" d="M0,50v75" style="stroke: rgb(235, 240, 248); stroke-opacity: 1; stroke-width: 1px;"/><path class="xgrid crisp" transform="translate(241.11,0)" d="M0,50v75" style="stroke: rgb(235, 240, 248); stroke-opacity: 1; stroke-width: 1px;"/></g><g class="y"><path class="ygrid crisp" transform="translate(0,105.85)" d="M10,0h280" style="stroke: rgb(235, 240, 248); stroke-opacity: 1; stroke-width: 1px;"/><path class="ygrid crisp" transform="translate(0,86.69)" d="M10,0h280" style="stroke: rgb(235, 240, 248); stroke-opacity: 1; stroke-width: 1px;"/><path class="ygrid crisp" transform="translate(0,67.53999999999999)" d="M10,0h280" style="stroke: rgb(235, 240, 248); stroke-opacity: 1; stroke-width: 1px;"/></g></g><g class="zerolinelayer"><path class="yzl zl crisp" transform="translate(0,125)" d="M10,0h280" style="stroke: rgb(235, 240, 248); stroke-opacity: 1; stroke-width: 2px;"/></g><path class="xlines-below"/><path class="ylines-below"/><g class="overlines-below"/><g class="xaxislayer-below"/><g class="yaxislayer-below"/><g class="overaxes-below"/><g class="plot" transform="translate(10,50)" clip-path="url(#clipb6ab7fxyplot)"><g class="scatterlayer mlayer"><g class="trace scatter trace22a77d" style="stroke-miterlimit: 2; opacity: 1;"><g class="fills"/><g class="errorbars"/><g class="lines"><path class="js-line" d="M0,5.47L35.56,6.24L37.04,7.2L45.93,7.2L47.41,8.73L50.37,15.63L51.85,15.63L57.78,16.77L59.26,17.35L63.7,17.92L65.19,17.92L88.89,19.07L90.37,20.22L93.33,20.22L94.81,22.14L96.3,22.14L97.78,24.05L100.74,27.12L102.22,27.5L127.41,27.5L128.89,24.05L130.37,21.18L131.85,22.14L139.26,20.22L140.74,20.22L198.52,19.07L200,16.2L202.96,13.71L204.44,13.14L210.37,13.14L211.85,4.71L278.52,3.75L280,5.47" style="vector-effect: non-scaling-stroke; fill: none; stroke: rgb(99, 110, 250); stroke-opacity: 1; stroke-width: 5px; opacity: 1;"/></g><g class="points"/><g class="text"/></g><g class="trace scatter trace7bdda3" style="stroke-miterlimit: 2; opacity: 1;"><g class="fills"/><g class="errorbars"/><g class="lines"><path class="js-line" d="M0,62.55L47.41,63.13L48.89,64.47L51.85,65.42L53.33,65.42L93.33,65.42L94.81,60.83L100.74,61.98L102.22,62.55L106.67,61.98L108.15,61.98L168.89,60.83L170.37,59.1L173.33,54.7L174.81,54.7L194.07,54.7L195.56,53.17L198.52,52.21L200,51.25L201.48,51.25L202.96,49.91L205.93,48.57L207.41,47.61L210.37,45.31L211.85,45.7L250.37,45.7L251.85,46.46L256.3,43.4L257.78,43.4L280,42.25" style="vector-effect: non-scaling-stroke; fill: none; stroke: rgb(239, 85, 59); stroke-opacity: 1; stroke-width: 5px; opacity: 1;"/></g><g class="points"/><g class="text"/></g><g class="trace scatter tracee303b2" style="stroke-miterlimit: 2; opacity: 1;"><g class="fills"/><g class="errorbars"/><g class="lines"><path class="js-line" d="M0,30.56L88.89,29.8L90.37,27.5L93.33,27.5L94.81,25.78L96.3,25.78L97.78,21.75L100.74,13.71L102.22,11.6L114.07,11.03L115.56,10.26L127.41,10.26L128.89,11.6L131.85,15.63L133.33,15.63L198.52,16.2L200,17.35L204.44,17.92L205.93,17.92L208.89,18.5L210.37,17.92L213.33,24.63L214.81,25.01L220.74,25.01L222.22,26.35L226.67,28.27L228.15,29.03L248.89,29.03L250.37,30.56L251.85,31.91L253.33,35.93L254.81,39.38L256.3,39.38L274.07,39.38L275.56,41.48L278.52,43.4L280,42.82" style="vector-effect: non-scaling-stroke; fill: none; stroke: rgb(0, 204, 150); stroke-opacity: 1; stroke-width: 5px; opacity: 1;"/></g><g class="points"/><g class="text"/></g><g class="trace scatter tracecce1e5" style="stroke-miterlimit: 2; opacity: 1;"><g class="fills"/><g class="errorbars"/><g class="lines"><path class="js-line" d="M0,68.49L45.93,68.49L47.41,66.19L50.37,64.85L51.85,64.85L57.78,64.08L59.26,63.51L65.19,63.13L66.67,63.13L99.26,63.13L100.74,64.27L105.19,64.85L106.67,64.85L112.59,64.47L114.07,64.27L128.89,63.13L130.37,64.47L133.33,65.42L134.81,65.42L170.37,65.42L171.85,66.19L213.33,66.57L214.81,65.42L219.26,64.85L220.74,64.85L247.41,64.08L248.89,63.51L251.85,54.7L253.33,54.7L274.07,54.7L275.56,53.17L278.52,51.25L280,51.25" style="vector-effect: non-scaling-stroke; fill: none; stroke: rgb(171, 99, 250); stroke-opacity: 1; stroke-width: 5px; opacity: 1;"/></g><g class="points"/><g class="text"/></g><g class="trace scatter trace3a61d8" style="stroke-miterlimit: 2; opacity: 1;"><g class="fills"/><g class="errorbars"/><g class="lines"><path class="js-line" d="M0,61.4L96.3,61.98L97.78,62.36L108.15,62.55L109.63,62.55L115.56,63.13L117.04,63.13L202.96,64.27L204.44,64.47L210.37,65.42L211.85,66L222.22,66.19L223.7,66.19L277.04,66.57L278.52,65.23L280,63.51" style="vector-effect: non-scaling-stroke; fill: none; stroke: rgb(255, 161, 90); stroke-opacity: 1; stroke-width: 5px; opacity: 1;"/></g><g class="points"/><g class="text"/></g></g></g><g class="overplot"/><path class="xlines-above crisp" d="M0,0" style="fill: none;"/><path class="ylines-above crisp" d="M0,0" style="fill: none;"/><g class="overlines-above"/><g class="xaxislayer-above"/><g class="yaxislayer-above"/><g class="overaxes-above"/></g></g><g class="polarlayer"/><g class="smithlayer"/><g class="ternarylayer"/><g class="geolayer"/><g class="funnelarealayer"/><g class="pielayer"/><g class="iciclelayer"/><g class="treemaplayer"/><g class="sunburstlayer"/><g class="glimages"/><defs id="topdefs-b6ab7f"><g class="clips"/></defs><g class="layer-above"><g class="imagelayer"/><g class="shapelayer"/></g><g class="infolayer"><g class="g-gtitle"><text class="gtitle" x="15" y="25" text-anchor="start" dy="0em" style="font-family: Ubuntu, verdana, arial, sans-serif; font-size: 16px; fill: rgb(233, 84, 32); opacity: 1; font-weight: normal; white-space: pre;">Prezident/ka ČR 2023</text></g><g class="g-xtitle"/><g class="g-ytitle"/></g></svg>