<svg class="main-svg" xmlns="http://www.w3.org/2000/svg" xmlns:xlink="http://www.w3.org/1999/xlink" width="300" height="135" style="" viewBox="0 0 300 135"><rect x="0" y="0" width="300" height="135" style="fill: rgb(255, 255, 255); fill-opacity: 1;"/><defs id="defs-e6c2af"><g class="clips"><clipPath id="clipe6c2afxyplot" class="plotclip"><rect width="280" height="75"/></clipPath><clipPath class="axesclip" id="clipe6c2afx"><rect x="10" y="0" width="280" height="135"/></clipPath><clipPath class="axesclip" id="clipe6c2afy"><rect x="0" y="50" width="300" height="75"/></clipPath><clipPath class="axesclip" id="clipe6c2afxy"><rect x="10" y="50" width="280" height="75"/></clipPath></g><g class="gradients"/><g class="patterns"/></defs><g class="bglayer"/><g class="layer-below"><g class="imagelayer"/><g class="shapelayer"/></g><g class="cartesianlayer"><g class="subplot xy"><g class="layer-subplot"><g class="shapelayer"/><g class="imagelayer"/></g><g class="minor-gridlayer"><g class="x"/><g class="y"/></g><g class="gridlayer"><g class="x"><path class="xgrid crisp" transform="translate(59.68,0)" d="M0,50v75" style="stroke: rgb(235, 240, 248); stroke-opacity: 1; stroke-width: 1px;"/><path class="xgrid crisp" transform="translate(151.51,0)" d="M0,50v75" style="stroke: rgb(235, 240, 248); stroke-opacity: 1; stroke-width: 1px;"/><path class="xgrid crisp" transform="translate(244.84,0)" d="M0,50v75" style="stroke: rgb(235, 240, 248); stroke-opacity: 1; stroke-width: 1px;"/></g><g class="y"><path class="ygrid crisp" transform="translate(0,105.59)" d="M10,0h280" style="stroke: rgb(235, 240, 248); stroke-opacity: 1; stroke-width: 1px;"/><path class="ygrid crisp" transform="translate(0,86.17)" d="M10,0h280" style="stroke: rgb(235, 240, 248); stroke-opacity: 1; stroke-width: 1px;"/><path class="ygrid crisp" transform="translate(0,66.76)" d="M10,0h280" style="stroke: rgb(235, 240, 248); stroke-opacity: 1; stroke-width: 1px;"/></g></g><g class="zerolinelayer"><path class="yzl zl crisp" transform="translate(0,125)" d="M10,0h280" style="stroke: rgb(235, 240, 248); stroke-opacity: 1; stroke-width: 2px;"/></g><path class="xlines-below"/><path class="ylines-below"/><g class="overlines-below"/><g class="xaxislayer-below"/><g class="yaxislayer-below"/><g class="overaxes-below"/><g class="plot" transform="translate(10,50)" clip-path="url(#clipe6c2afxyplot)"><g class="scatterlayer mlayer"><g class="trace scatter traceb3a6ef" style="stroke-miterlimit: 2; opacity: 1;"><g class="fills"/><g class="errorbars"/><g class="lines"><path class="js-line" d="M0,5.5L36.13,6.47L37.63,7.24L46.67,7.24L48.17,8.8L51.18,15.79L52.69,15.79L58.71,16.95L60.22,17.53L64.73,18.12L66.24,18.12L90.32,19.09L91.83,20.25L94.84,20.25L96.34,22.19L97.85,22.19L99.35,24.13L102.37,27.24L103.87,27.63L129.46,27.63L130.97,24.13L132.47,21.22L133.98,22.19L141.51,20.25L143.01,20.25L201.72,19.09L203.23,16.37L206.24,13.85L207.74,13.07L213.76,13.07L215.27,4.72L280,3.75" style="vector-effect: non-scaling-stroke; fill: none; stroke: rgb(99, 110, 250); stroke-opacity: 1; stroke-width: 5px; opacity: 1;"/></g><g class="points"/><g class="text"/></g><g class="trace scatter trace8d4bcd" style="stroke-miterlimit: 2; opacity: 1;"><g class="fills"/><g class="errorbars"/><g class="lines"><path class="js-line" d="M0,30.54L90.32,29.76L91.83,27.63L94.84,27.63L96.34,25.88L97.85,25.88L99.35,21.81L102.37,13.85L103.87,11.71L115.91,10.93L117.42,10.35L129.46,10.35L130.97,11.71L133.98,15.79L135.48,15.79L201.72,16.37L203.23,17.53L207.74,18.12L209.25,18.12L212.26,18.7L213.76,18.12L216.77,24.52L218.28,25.11L225.81,26.27L227.31,27.63L230.32,28.41L231.83,28.99L252.9,28.99L254.41,30.54L255.91,31.9L257.42,35.98L258.92,39.47L260.43,39.47L280,39.47" style="vector-effect: non-scaling-stroke; fill: none; stroke: rgb(239, 85, 59); stroke-opacity: 1; stroke-width: 5px; opacity: 1;"/></g><g class="points"/><g class="text"/></g><g class="trace scatter trace4abc57" style="stroke-miterlimit: 2; opacity: 1;"><g class="fills"/><g class="errorbars"/><g class="lines"><path class="js-line" d="M0,62.57L48.17,63.16L49.68,64.52L52.69,65.49L54.19,65.49L94.84,65.49L96.34,60.83L102.37,61.99L103.87,62.57L108.39,61.99L109.89,61.99L171.61,60.83L173.12,59.27L176.13,54.62L177.63,54.62L197.2,54.62L198.71,53.06L201.72,52.29L203.23,51.31L204.73,51.31L206.24,49.96L209.25,48.6L210.75,47.63L213.76,45.3L215.27,45.68L254.41,45.88L255.91,46.46L260.43,43.35L261.94,43.35L280,43.35" style="vector-effect: non-scaling-stroke; fill: none; stroke: rgb(0, 204, 150); stroke-opacity: 1; stroke-width: 5px; opacity: 1;"/></g><g class="points"/><g class="text"/></g><g class="trace scatter trace53ef6c" style="stroke-miterlimit: 2; opacity: 1;"><g class="fills"/><g class="errorbars"/><g class="lines"><path class="js-line" d="M0,68.59L46.67,68.59L48.17,66.07L51.18,64.9L52.69,64.9L58.71,64.13L60.22,63.55L66.24,63.16L67.74,63.16L100.86,63.16L102.37,64.32L106.88,64.9L108.39,64.9L114.41,64.52L115.91,64.32L130.97,63.16L132.47,64.52L135.48,65.49L136.99,65.49L204.73,66.07L206.24,66.46L215.27,66.65L216.77,66.46L221.29,64.9L222.8,64.9L251.4,64.13L252.9,63.55L255.91,54.62L257.42,54.62L280,54.62" style="vector-effect: non-scaling-stroke; fill: none; stroke: rgb(171, 99, 250); stroke-opacity: 1; stroke-width: 5px; opacity: 1;"/></g><g class="points"/><g class="text"/></g><g class="trace scatter trace3e5ad6" style="stroke-miterlimit: 2; opacity: 1;"><g class="fills"/><g class="errorbars"/><g class="lines"><path class="js-line" d="M0,61.41L97.85,61.99L99.35,62.38L109.89,62.57L111.4,62.57L117.42,63.16L118.92,63.16L206.24,64.32L207.74,64.52L213.76,65.49L215.27,65.88L225.81,66.07L227.31,66.07L280,66.65" style="vector-effect: non-scaling-stroke; fill: none; stroke: rgb(255, 161, 90); stroke-opacity: 1; stroke-width: 5px; opacity: 1;"/></g><g class="points"/><g class="text"/></g></g></g><g class="overplot"/><path class="xlines-above crisp" d="M0,0" style="fill: none;"/><path class="ylines-above crisp" d="M0,0" style="fill: none;"/><g class="overlines-above"/><g class="xaxislayer-above"/><g class="yaxislayer-above"/><g class="overaxes-above"/></g></g><g class="polarlayer"/><g class="smithlayer"/><g class="ternarylayer"/><g class="geolayer"/><g class="funnelarealayer"/><g class="pielayer"/><g class="iciclelayer"/><g class="treemaplayer"/><g class="sunburstlayer"/><g class="glimages"/><defs id="topdefs-e6c2af"><g class="clips"/></defs><g class="layer-above"><g class="imagelayer"/><g class="shapelayer"/></g><g class="infolayer"><g class="g-gtitle"><text class="gtitle" x="15" y="25" text-anchor="start" dy="0em" style="font-family: Ubuntu, verdana, arial, sans-serif; font-size: 16px; fill: rgb(233, 84, 32); opacity: 1; font-weight: normal; white-space: pre;">Prezident/ka ČR 2023</text></g><g class="g-xtitle"/><g class="g-ytitle"/></g></svg>