<svg class="main-svg" xmlns="http://www.w3.org/2000/svg" xmlns:xlink="http://www.w3.org/1999/xlink" width="400" height="400" style="" viewBox="0 0 400 400"><rect x="0" y="0" width="400" height="400" style="fill: rgb(255, 255, 255); fill-opacity: 1;"/><defs id="defs-4c4eba"><g class="clips"><clipPath id="clip4c4ebaxyplot" class="plotclip"><rect width="191" height="330"/></clipPath><clipPath class="axesclip" id="clip4c4ebax"><rect x="50" y="0" width="191" height="400"/></clipPath><clipPath class="axesclip" id="clip4c4ebay"><rect x="0" y="20" width="400" height="330"/></clipPath><clipPath class="axesclip" id="clip4c4ebaxy"><rect x="50" y="20" width="191" height="330"/></clipPath></g><g class="gradients"/><g class="patterns"/></defs><g class="bglayer"/><g class="layer-below"><g class="imagelayer"/><g class="shapelayer"/></g><g class="cartesianlayer"><g class="subplot xy"><g class="layer-subplot"><g class="shapelayer"/><g class="imagelayer"/></g><g class="minor-gridlayer"><g class="x"/><g class="y"/></g><g class="gridlayer"><g class="x"><path class="xgrid crisp" transform="translate(71.73,0)" d="M0,20v330" style="stroke: rgb(235, 240, 248); stroke-opacity: 1; stroke-width: 1px;"/><path class="xgrid crisp" transform="translate(111.91,0)" d="M0,20v330" style="stroke: rgb(235, 240, 248); stroke-opacity: 1; stroke-width: 1px;"/><path class="xgrid crisp" transform="translate(152.74,0)" d="M0,20v330" style="stroke: rgb(235, 240, 248); stroke-opacity: 1; stroke-width: 1px;"/><path class="xgrid crisp" transform="translate(192.92,0)" d="M0,20v330" style="stroke: rgb(235, 240, 248); stroke-opacity: 1; stroke-width: 1px;"/><path class="xgrid crisp" transform="translate(233.1,0)" d="M0,20v330" style="stroke: rgb(235, 240, 248); stroke-opacity: 1; stroke-width: 1px;"/></g><g class="y"><path class="ygrid crisp" transform="translate(0,292.48)" d="M50,0h191" style="stroke: rgb(235, 240, 248); stroke-opacity: 1; stroke-width: 1px;"/><path class="ygrid crisp" transform="translate(0,234.95)" d="M50,0h191" style="stroke: rgb(235, 240, 248); stroke-opacity: 1; stroke-width: 1px;"/><path class="ygrid crisp" transform="translate(0,177.43)" d="M50,0h191" style="stroke: rgb(235, 240, 248); stroke-opacity: 1; stroke-width: 1px;"/><path class="ygrid crisp" transform="translate(0,119.91)" d="M50,0h191" style="stroke: rgb(235, 240, 248); stroke-opacity: 1; stroke-width: 1px;"/><path class="ygrid crisp" transform="translate(0,62.39)" d="M50,0h191" style="stroke: rgb(235, 240, 248); stroke-opacity: 1; stroke-width: 1px;"/></g></g><g class="zerolinelayer"><path class="yzl zl crisp" transform="translate(0,350)" d="M50,0h191" style="stroke: rgb(235, 240, 248); stroke-opacity: 1; stroke-width: 2px;"/></g><path class="xlines-below"/><path class="ylines-below"/><g class="overlines-below"/><g class="xaxislayer-below"/><g class="yaxislayer-below"/><g class="overaxes-below"/><g class="plot" transform="translate(50,20)" clip-path="url(#clip4c4ebaxyplot)"><g class="scatterlayer mlayer"><g class="trace scatter trace89e43b" style="stroke-miterlimit: 2; opacity: 1;"><g class="fills"/><g class="errorbars"/><g class="lines"><path class="js-line" d="M0,70L15.15,70L15.81,73.45L17.12,76.32L17.78,76.32L20.42,76.32L21.08,82.08L23.05,107.96L23.71,107.96L27,116.59L27.66,116.59L30.96,116.59L31.61,118.89L32.93,121.19L33.59,121.19L39.52,121.19L40.18,125.22L41.49,125.22L42.15,132.7L42.81,132.7L43.47,139.6L45.44,152.25L46.1,152.25L56.64,152.25L57.3,139.6L57.96,128.67L58.62,132.7L59.28,130.97L60.59,125.22L61.25,125.22L64.54,125.22L65.2,122.92L67.18,121.19L67.84,121.19L75.74,121.19L76.4,122.92L77.72,125.22L78.38,125.22L87.6,125.22L88.26,121.19L90.23,101.06L90.89,98.18L93.52,98.18L94.18,66.54L94.84,66.54L95.5,63.67L123.82,63.67L124.48,70L125.14,73.45L125.8,70L127.11,76.32L127.77,76.32L129.75,76.32L130.41,66.54L131.72,56.77L132.38,56.77L133.04,56.77L133.7,45.84L136.33,16.5L136.99,16.5L143.58,56.77L144.9,56.77L146.21,49.29L146.87,53.31L148.19,87.83L148.85,76.32L149.51,76.32L157.41,76.32L158.07,73.45L160.04,63.67L160.7,93.01L163.34,93.01L165.31,116.59L167.29,121.19L167.95,137.87L169.27,152.25L169.92,152.25L171.24,152.25L171.9,146.5L173.88,155.13L174.53,143.05L175.85,125.22L176.51,107.96L181.78,107.96L182.44,98.18L183.1,98.18L183.76,90.7L184.41,82.08" style="vector-effect: non-scaling-stroke; fill: none; stroke: rgb(99, 110, 250); stroke-opacity: 1; stroke-width: 5px; opacity: 1;"/></g><g class="points"/><g class="text"/></g><g class="trace scatter trace98dcfc" style="stroke-miterlimit: 2; opacity: 1;"><g class="fills"/><g class="errorbars"/><g class="lines"><path class="js-line" d="M0,283.41L3.29,283.41L3.95,285.71L21.08,285.71L21.73,290.31L23.05,294.34L23.71,294.34L41.49,294.34L42.15,276.5L42.81,276.5L43.47,278.23L45.44,283.41L46.1,281.68L48.74,281.68L49.4,279.38L50.71,276.5L51.37,276.5L75.08,276.5L75.74,270.75L77.72,254.07L78.38,254.07L86.28,254.07L86.94,247.74L87.6,247.74L88.26,244.87L93.52,218.98L94.18,220.13L94.84,220.13L95.5,218.41L97.48,217.83L98.13,217.83L110.65,217.83L111.31,220.71L111.97,223.58L112.62,217.83L113.94,211.5L114.6,211.5L123.82,211.5L124.48,207.48L125.8,202.87L126.46,208.63L127.77,211.5L128.43,204.6L130.41,193.1L131.07,189.64L133.04,189.64L133.7,191.37L135.68,168.36L136.33,168.36L136.99,168.36L142.26,191.94L143.58,196.55L144.9,196.55L146.21,200L146.87,198.27L148.85,177.56L149.51,177.56L152.8,177.56L153.46,175.26L157.41,174.69L158.07,173.54L158.73,170.66L159.39,173.54L161.36,158.01L162.02,158.01L163.34,158.01L165.31,132.7L167.29,125.22L167.95,101.06L169.27,70L169.92,70L171.24,70L171.9,76.32L173.88,63.67L174.53,76.32L177.17,107.96L177.83,107.96L181.78,107.96L182.44,116.59L183.1,116.59L183.76,125.22L184.41,132.7" style="vector-effect: non-scaling-stroke; fill: none; stroke: rgb(239, 85, 59); stroke-opacity: 1; stroke-width: 5px; opacity: 1;"/></g><g class="points"/><g class="text"/></g><g class="trace scatter trace480356" style="stroke-miterlimit: 2; opacity: 1;"><g class="fills"/><g class="errorbars"/><g class="lines"><path class="js-line" d="M0,163.18L15.81,162.03L16.47,160.88L39.52,160.88L40.18,152.25L41.49,152.25L42.15,146.5L42.81,146.5L43.47,130.97L45.44,93.01L46.1,93.01L50.06,93.01L50.71,90.7L52.03,87.83L52.69,87.83L56.64,87.83L57.3,93.01L59.28,107.96L59.93,107.96L87.6,107.96L88.26,110.26L90.23,116.59L90.89,116.59L91.55,116.59L92.21,118.89L92.87,118.89L93.52,116.59L95.5,143.05L96.16,143.05L98.13,143.05L98.79,147.65L101.43,158.01L102.09,158.01L110.65,158.01L111.31,163.18L111.97,168.36L112.62,183.89L113.94,196.55L114.6,196.55L121.84,196.55L122.5,204.6L123.82,211.5L124.48,209.78L126.46,211.5L127.11,211.5L131.72,241.41L132.38,241.41L133.7,241.41L134.36,251.19L135.68,258.67L136.33,258.67L136.99,258.67L142.26,173.54L143.58,160.88L144.9,160.88L146.21,173.54L146.87,173.54L149.51,177.56L150.17,177.56L152.8,177.56L153.46,179.87L158.73,179.87L159.39,177.56L160.04,177.56L160.7,158.01L163.34,158.01L165.31,155.13L167.29,155.13L167.95,169.51L169.27,186.19L169.92,186.19L172.56,186.19L173.22,189.64L175.19,189.64L175.85,193.1L177.17,196.55L177.83,196.55L181.78,196.55L182.44,202.87L183.76,201.72L184.41,200" style="vector-effect: non-scaling-stroke; fill: none; stroke: rgb(0, 204, 150); stroke-opacity: 1; stroke-width: 5px; opacity: 1;"/></g><g class="points"/><g class="text"/></g></g></g><g class="overplot"/><path class="xlines-above crisp" d="M0,0" style="fill: none;"/><path class="ylines-above crisp" d="M0,0" style="fill: none;"/><g class="overlines-above"/><g class="xaxislayer-above"><g class="xtick"><text text-anchor="middle" x="0" y="363" transform="translate(71.73,0)" style="font-family: 'Open Sans', verdana, arial, sans-serif; font-size: 12px; fill: rgb(42, 63, 95); fill-opacity: 1; white-space: pre; opacity: 1;">1.5.22</text></g><g class="xtick"><text text-anchor="middle" x="0" y="363" style="font-family: 'Open Sans', verdana, arial, sans-serif; font-size: 12px; fill: rgb(42, 63, 95); fill-opacity: 1; white-space: pre; opacity: 1;" transform="translate(111.91,0)">1.7.22</text></g><g class="xtick"><text text-anchor="middle" x="0" y="363" style="font-family: 'Open Sans', verdana, arial, sans-serif; font-size: 12px; fill: rgb(42, 63, 95); fill-opacity: 1; white-space: pre; opacity: 1;" transform="translate(152.74,0)">1.9.22</text></g><g class="xtick"><text text-anchor="middle" x="0" y="363" style="font-family: 'Open Sans', verdana, arial, sans-serif; font-size: 12px; fill: rgb(42, 63, 95); fill-opacity: 1; white-space: pre; opacity: 1;" transform="translate(192.92,0)">1.11.22</text></g><g class="xtick"><text text-anchor="middle" x="0" y="363" style="font-family: 'Open Sans', verdana, arial, sans-serif; font-size: 12px; fill: rgb(42, 63, 95); fill-opacity: 1; white-space: pre; opacity: 1;" transform="translate(233.1,0)">1.1.23</text></g></g><g class="yaxislayer-above"><g class="ytick"><text text-anchor="end" x="49" y="4.199999999999999" transform="translate(0,350)" style="font-family: 'Open Sans', verdana, arial, sans-serif; font-size: 12px; fill: rgb(42, 63, 95); fill-opacity: 1; white-space: pre; opacity: 1;">0%</text></g><g class="ytick"><text text-anchor="end" x="49" y="4.199999999999999" style="font-family: 'Open Sans', verdana, arial, sans-serif; font-size: 12px; fill: rgb(42, 63, 95); fill-opacity: 1; white-space: pre; opacity: 1;" transform="translate(0,292.48)">10%</text></g><g class="ytick"><text text-anchor="end" x="49" y="4.199999999999999" style="font-family: 'Open Sans', verdana, arial, sans-serif; font-size: 12px; fill: rgb(42, 63, 95); fill-opacity: 1; white-space: pre; opacity: 1;" transform="translate(0,234.95)">20%</text></g><g class="ytick"><text text-anchor="end" x="49" y="4.199999999999999" style="font-family: 'Open Sans', verdana, arial, sans-serif; font-size: 12px; fill: rgb(42, 63, 95); fill-opacity: 1; white-space: pre; opacity: 1;" transform="translate(0,177.43)">30%</text></g><g class="ytick"><text text-anchor="end" x="49" y="4.199999999999999" style="font-family: 'Open Sans', verdana, arial, sans-serif; font-size: 12px; fill: rgb(42, 63, 95); fill-opacity: 1; white-space: pre; opacity: 1;" transform="translate(0,119.91)">40%</text></g><g class="ytick"><text text-anchor="end" x="49" y="4.199999999999999" style="font-family: 'Open Sans', verdana, arial, sans-serif; font-size: 12px; fill: rgb(42, 63, 95); fill-opacity: 1; white-space: pre; opacity: 1;" transform="translate(0,62.39)">50%</text></g></g><g class="overaxes-above"/></g></g><g class="polarlayer"/><g class="smithlayer"/><g class="ternarylayer"/><g class="geolayer"/><g class="funnelarealayer"/><g class="pielayer"/><g class="iciclelayer"/><g class="treemaplayer"/><g class="sunburstlayer"/><g class="glimages"/><defs id="topdefs-4c4eba"><g class="clips"/><clipPath id="legend4c4eba"><rect width="143" height="67" x="0" y="0"/></clipPath></defs><g class="layer-above"><g class="imagelayer"/><g class="shapelayer"/></g><g class="infolayer"><g class="legend" pointer-events="all" transform="translate(244.82,20)"><rect class="bg" shape-rendering="crispEdges" width="143" height="67" x="0" y="0" style="stroke: rgb(68, 68, 68); stroke-opacity: 1; fill: rgb(255, 255, 255); fill-opacity: 1; stroke-width: 0px;"/><g class="scrollbox" transform="" clip-path="url(#legend4c4eba)"><g class="groups"><g class="traces" transform="translate(0,14.5)" style="opacity: 1;"><text class="legendtext" text-anchor="start" x="40" y="4.680000000000001" style="font-family: 'Open Sans', verdana, arial, sans-serif; font-size: 12px; fill: rgb(42, 63, 95); fill-opacity: 1; white-space: pre;">Pavel Petr</text><g class="layers" style="opacity: 1;"><g class="legendfill"/><g class="legendlines"><path class="js-line" d="M5,0h30" style="fill: none; stroke: rgb(99, 110, 250); stroke-opacity: 1; stroke-width: 5px;"/></g><g class="legendsymbols"><g class="legendpoints"/></g></g><rect class="legendtoggle" x="0" y="-9.5" width="137.0625" height="19" style="fill: rgb(0, 0, 0); fill-opacity: 0;"/></g><g class="traces" transform="translate(0,33.5)" style="opacity: 1;"><text class="legendtext" text-anchor="start" x="40" y="4.680000000000001" style="font-family: 'Open Sans', verdana, arial, sans-serif; font-size: 12px; fill: rgb(42, 63, 95); fill-opacity: 1; white-space: pre;">Nerudová Danuše</text><g class="layers" style="opacity: 1;"><g class="legendfill"/><g class="legendlines"><path class="js-line" d="M5,0h30" style="fill: none; stroke: rgb(239, 85, 59); stroke-opacity: 1; stroke-width: 5px;"/></g><g class="legendsymbols"><g class="legendpoints"/></g></g><rect class="legendtoggle" x="0" y="-9.5" width="137.0625" height="19" style="fill: rgb(0, 0, 0); fill-opacity: 0;"/></g><g class="traces" transform="translate(0,52.5)" style="opacity: 1;"><text class="legendtext" text-anchor="start" x="40" y="4.680000000000001" style="font-family: 'Open Sans', verdana, arial, sans-serif; font-size: 12px; fill: rgb(42, 63, 95); fill-opacity: 1; white-space: pre;">Babiš Andrej</text><g class="layers" style="opacity: 1;"><g class="legendfill"/><g class="legendlines"><path class="js-line" d="M5,0h30" style="fill: none; stroke: rgb(0, 204, 150); stroke-opacity: 1; stroke-width: 5px;"/></g><g class="legendsymbols"><g class="legendpoints"/></g></g><rect class="legendtoggle" x="0" y="-9.5" width="137.0625" height="19" style="fill: rgb(0, 0, 0); fill-opacity: 0;"/></g></g></g><rect class="scrollbar" rx="20" ry="3" width="0" height="0" x="0" y="0" style="fill: rgb(128, 139, 164); fill-opacity: 1;"/></g><g class="g-gtitle"/><g class="g-xtitle"/><g class="g-ytitle"/></g></svg>