<svg class="main-svg" xmlns="http://www.w3.org/2000/svg" xmlns:xlink="http://www.w3.org/1999/xlink" width="300" height="135" style="" viewBox="0 0 300 135"><rect x="0" y="0" width="300" height="135" style="fill: rgb(255, 255, 255); fill-opacity: 1;"/><defs id="defs-124f02"><g class="clips"><clipPath id="clip124f02xyplot" class="plotclip"><rect width="280" height="75"/></clipPath><clipPath class="axesclip" id="clip124f02x"><rect x="10" y="0" width="280" height="135"/></clipPath><clipPath class="axesclip" id="clip124f02y"><rect x="0" y="50" width="300" height="75"/></clipPath><clipPath class="axesclip" id="clip124f02xy"><rect x="10" y="50" width="280" height="75"/></clipPath></g><g class="gradients"/><g class="patterns"/></defs><g class="bglayer"/><g class="layer-below"><g class="imagelayer"/><g class="shapelayer"/></g><g class="cartesianlayer"><g class="subplot xy"><g class="layer-subplot"><g class="shapelayer"/><g class="imagelayer"/></g><g class="minor-gridlayer"><g class="x"/><g class="y"/></g><g class="gridlayer"><g class="x"><path class="xgrid crisp" transform="translate(40.5,0)" d="M0,50v75" style="stroke: rgb(235, 240, 248); stroke-opacity: 1; stroke-width: 1px;"/><path class="xgrid crisp" transform="translate(96.86,0)" d="M0,50v75" style="stroke: rgb(235, 240, 248); stroke-opacity: 1; stroke-width: 1px;"/><path class="xgrid crisp" transform="translate(154.16,0)" d="M0,50v75" style="stroke: rgb(235, 240, 248); stroke-opacity: 1; stroke-width: 1px;"/><path class="xgrid crisp" transform="translate(210.53,0)" d="M0,50v75" style="stroke: rgb(235, 240, 248); stroke-opacity: 1; stroke-width: 1px;"/><path class="xgrid crisp" transform="translate(266.9,0)" d="M0,50v75" style="stroke: rgb(235, 240, 248); stroke-opacity: 1; stroke-width: 1px;"/></g><g class="y"><path class="ygrid crisp" transform="translate(0,109.46000000000001)" d="M10,0h280" style="stroke: rgb(235, 240, 248); stroke-opacity: 1; stroke-width: 1px;"/><path class="ygrid crisp" transform="translate(0,93.92)" d="M10,0h280" style="stroke: rgb(235, 240, 248); stroke-opacity: 1; stroke-width: 1px;"/><path class="ygrid crisp" transform="translate(0,78.38)" d="M10,0h280" style="stroke: rgb(235, 240, 248); stroke-opacity: 1; stroke-width: 1px;"/><path class="ygrid crisp" transform="translate(0,62.84)" d="M10,0h280" style="stroke: rgb(235, 240, 248); stroke-opacity: 1; stroke-width: 1px;"/></g></g><g class="zerolinelayer"><path class="yzl zl crisp" transform="translate(0,125)" d="M10,0h280" style="stroke: rgb(235, 240, 248); stroke-opacity: 1; stroke-width: 2px;"/></g><path class="xlines-below"/><path class="ylines-below"/><g class="overlines-below"/><g class="xaxislayer-below"/><g class="yaxislayer-below"/><g class="overaxes-below"/><g class="plot" transform="translate(10,50)" clip-path="url(#clip124f02xyplot)"><g class="scatterlayer mlayer"><g class="trace scatter trace014956" style="stroke-miterlimit: 2; opacity: 1;"><g class="fills"/><g class="errorbars"/><g class="lines"><path class="js-line" d="M0,38.87L28.65,39.72L29.57,40.5L32.34,44.15L33.27,44.15L40.66,45.4L41.58,45.4L58.22,46.48L59.14,47.57L60.99,48.5L61.91,49.67L66.53,50.29L67.46,50.29L79.47,50.29L80.4,48.5L82.24,47.57L83.17,47.26L85.94,46.48L86.86,46.48L123.83,45.94L124.75,44.46L127.52,42.75L128.45,42.75L131.22,42.75L132.15,38.4L174.65,38.87L175.58,39.26L177.43,39.72L178.35,39.72L182.05,39.72L182.97,38.4L184.82,37.01L185.74,37.01L186.67,37.01L187.59,35.45L191.29,31.41L192.21,31.41L203.3,37.01L204.22,36L206.07,36.54L207,38.87L207.92,41.28L208.84,39.72L221.78,39.26L222.71,38.4L224.55,37.94L225.48,42.06L229.17,42.06L231.95,45.4L234.72,45.94L235.64,48.27L237.49,50.29L238.42,50.29L243.96,50.68L244.88,48.97L246.73,46.48L247.66,44.15L255.05,44.15L255.97,42.75L257.82,41.67L258.75,40.5L260.59,40.5L261.52,34.91L264.29,31.8L265.21,28.69L266.14,28.07L267.06,23.17L267.99,22.48L269.83,9.34L272.61,11.13L273.53,11.13L275.38,9.81L276.3,7.32L280,3.75" style="vector-effect: non-scaling-stroke; fill: none; stroke: rgb(99, 110, 250); stroke-opacity: 1; stroke-width: 5px; opacity: 1;"/></g><g class="points"/><g class="text"/></g><g class="trace scatter trace3a1921" style="stroke-miterlimit: 2; opacity: 1;"><g class="fills"/><g class="errorbars"/><g class="lines"><path class="js-line" d="M0,51.85L55.45,51.46L56.37,50.29L60.07,49.44L60.99,47.26L63.76,42.06L64.69,42.06L80.4,42.06L81.32,43.45L84.09,44.15L85.02,44.15L128.45,45.4L129.37,45.63L131.22,45.4L132.15,48.27L135.84,48.97L136.77,48.97L138.61,49.67L139.54,50.29L155.25,51.07L156.17,51.85L158.02,54.72L158.94,56.51L171.88,57.6L172.81,58.53L179.27,59.23L180.2,59.69L182.97,61.56L183.89,62.65L187.59,62.65L188.51,64.04L190.36,65.13L191.29,65.13L192.21,65.13L199.6,53.17L201.45,51.46L203.3,51.46L205.15,53.17L206.07,53.17L210.69,53.87L211.62,53.87L224.55,53.87L225.48,51.07L234.72,50.68L235.64,52.7L237.49,54.95L238.42,54.95L246.73,55.96L247.66,56.51L260.59,56.9L261.52,58.53L263.37,58.53L264.29,52.93L266.14,52.54L267.06,54.02L267.99,54.25L269.83,62.65L272.61,59.23L273.53,59.46L280,68.55" style="vector-effect: non-scaling-stroke; fill: none; stroke: rgb(239, 85, 59); stroke-opacity: 1; stroke-width: 5px; opacity: 1;"/></g><g class="points"/><g class="text"/></g></g></g><g class="overplot"/><path class="xlines-above crisp" d="M0,0" style="fill: none;"/><path class="ylines-above crisp" d="M0,0" style="fill: none;"/><g class="overlines-above"/><g class="xaxislayer-above"/><g class="yaxislayer-above"/><g class="overaxes-above"/></g></g><g class="polarlayer"/><g class="smithlayer"/><g class="ternarylayer"/><g class="geolayer"/><g class="funnelarealayer"/><g class="pielayer"/><g class="iciclelayer"/><g class="treemaplayer"/><g class="sunburstlayer"/><g class="glimages"/><defs id="topdefs-124f02"><g class="clips"/></defs><g class="layer-above"><g class="imagelayer"/><g class="shapelayer"/></g><g class="infolayer"><g class="g-gtitle"><text class="gtitle" x="15" y="25" text-anchor="start" dy="0em" style="font-family: Ubuntu, verdana, arial, sans-serif; font-size: 16px; fill: rgb(233, 84, 32); opacity: 1; font-weight: normal; white-space: pre;">Prezident/ka ČR 2023</text></g><g class="g-xtitle"/><g class="g-ytitle"/></g></svg>