<svg class="main-svg" xmlns="http://www.w3.org/2000/svg" xmlns:xlink="http://www.w3.org/1999/xlink" width="300" height="135" style="" viewBox="0 0 300 135"><rect x="0" y="0" width="300" height="135" style="fill: rgb(255, 255, 255); fill-opacity: 1;"/><defs id="defs-9d2a35"><g class="clips"><clipPath id="clip9d2a35xyplot" class="plotclip"><rect width="280" height="75"/></clipPath><clipPath class="axesclip" id="clip9d2a35x"><rect x="10" y="0" width="280" height="135"/></clipPath><clipPath class="axesclip" id="clip9d2a35y"><rect x="0" y="50" width="300" height="75"/></clipPath><clipPath class="axesclip" id="clip9d2a35xy"><rect x="10" y="50" width="280" height="75"/></clipPath></g><g class="gradients"/><g class="patterns"/></defs><g class="bglayer"/><g class="layer-below"><g class="imagelayer"/><g class="shapelayer"/></g><g class="cartesianlayer"><g class="subplot xy"><g class="layer-subplot"><g class="shapelayer"/><g class="imagelayer"/></g><g class="minor-gridlayer"><g class="x"/><g class="y"/></g><g class="gridlayer"><g class="x"><path class="xgrid crisp" transform="translate(43.12,0)" d="M0,50v75" style="stroke: rgb(235, 240, 248); stroke-opacity: 1; stroke-width: 1px;"/><path class="xgrid crisp" transform="translate(104.34,0)" d="M0,50v75" style="stroke: rgb(235, 240, 248); stroke-opacity: 1; stroke-width: 1px;"/><path class="xgrid crisp" transform="translate(166.56,0)" d="M0,50v75" style="stroke: rgb(235, 240, 248); stroke-opacity: 1; stroke-width: 1px;"/><path class="xgrid crisp" transform="translate(227.78,0)" d="M0,50v75" style="stroke: rgb(235, 240, 248); stroke-opacity: 1; stroke-width: 1px;"/></g><g class="y"><path class="ygrid crisp" transform="translate(0,99)" d="M10,0h280" style="stroke: rgb(235, 240, 248); stroke-opacity: 1; stroke-width: 1px;"/><path class="ygrid crisp" transform="translate(0,72.99)" d="M10,0h280" style="stroke: rgb(235, 240, 248); stroke-opacity: 1; stroke-width: 1px;"/></g></g><g class="zerolinelayer"><path class="yzl zl crisp" transform="translate(0,125)" d="M10,0h280" style="stroke: rgb(235, 240, 248); stroke-opacity: 1; stroke-width: 2px;"/></g><path class="xlines-below"/><path class="ylines-below"/><g class="overlines-below"/><g class="xaxislayer-below"/><g class="yaxislayer-below"/><g class="overaxes-below"/><g class="plot" transform="translate(10,50)" clip-path="url(#clip9d2a35xyplot)"><g class="scatterlayer mlayer"><g class="trace scatter trace52edd9" style="stroke-miterlimit: 2; opacity: 1;"><g class="fills"/><g class="errorbars"/><g class="lines"><path class="js-line" d="M0,15.84L24.09,16.62L25.09,17.27L31.11,17.27L32.11,18.57L35.13,24.55L36.13,24.55L42.15,26.5L43.15,26.5L60.22,27.41L61.22,28.45L63.23,28.45L64.23,30.14L65.23,30.14L66.24,31.7L68.24,34.3L69.25,34.56L86.31,34.56L87.31,31.7L88.32,29.23L89.32,30.14L94.34,28.45L95.34,28.45L134.48,27.41L135.48,25.07L138.49,22.34L139.5,22.34L142.51,22.34L143.51,15.19L188.67,14.41L189.68,15.84L192.69,17.27L193.69,17.27L197.71,17.27L198.71,15.19L200.72,12.85L201.72,12.85L202.72,12.85L203.73,10.38L206.74,3.75L207.74,3.75L208.75,3.75L216.77,11.16L218.78,12.85L220.79,12.85L222.8,11.16L223.8,12.07L225.81,19.87L226.81,17.27L240.86,16.62L241.86,15.19L243.87,14.41L244.87,21.17L248.89,21.17L251.9,26.5L254.91,27.41L255.91,31.31L257.92,34.56L258.92,34.56L260.93,34.56L261.94,33.26L264.95,35.21L265.95,32.48L267.96,28.45L268.96,24.55L276.99,24.55L277.99,22.34L280,22.34" style="vector-effect: non-scaling-stroke; fill: none; stroke: rgb(99, 110, 250); stroke-opacity: 1; stroke-width: 5px; opacity: 1;"/></g><g class="points"/><g class="text"/></g><g class="trace scatter tracea0e35c" style="stroke-miterlimit: 2; opacity: 1;"><g class="fills"/><g class="errorbars"/><g class="lines"><path class="js-line" d="M0,64.47L32.11,64.86L33.12,66.03L35.13,66.94L36.13,66.94L63.23,66.94L64.23,62.91L68.24,63.95L69.25,64.47L72.26,63.95L73.26,63.95L114.41,62.91L115.41,61.48L117.42,57.71L118.42,57.71L131.47,57.71L132.47,56.41L134.48,55.63L135.48,54.85L137.49,53.68L138.49,52.51L140.5,51.73L141.51,50.3L144.52,50.04L145.52,49.65L155.56,49.52L156.56,49.52L169.61,50.17L170.61,50.82L173.62,48.09L174.62,48.09L189.68,47.18L190.68,46.14L191.68,46.14L192.69,47.44L194.7,48.09L195.7,46.53L197.71,44.71L198.71,43.93L201.72,43.15L202.72,43.15L203.73,43.54L204.73,41.33L206.74,38.33L207.74,38.33L208.75,38.33L216.77,43.67L218.78,44.71L220.79,44.71L222.8,45.49L223.8,45.1L226.81,40.42L227.81,40.42L240.86,39.38L241.86,38.85L242.87,39.38L243.87,38.33L245.88,35.86L246.88,35.86L248.89,35.86L251.9,30.14L254.91,28.45L255.91,22.86L257.92,15.84L258.92,15.84L260.93,15.84L261.94,17.27L264.95,14.41L265.95,17.27L269.96,24.55L270.97,24.55L276.99,24.55L277.99,26.5L280,26.5" style="vector-effect: non-scaling-stroke; fill: none; stroke: rgb(239, 85, 59); stroke-opacity: 1; stroke-width: 5px; opacity: 1;"/></g><g class="points"/><g class="text"/></g><g class="trace scatter trace0a5a1f" style="stroke-miterlimit: 2; opacity: 1;"><g class="fills"/><g class="errorbars"/><g class="lines"><path class="js-line" d="M0,37.16L60.22,36.51L61.22,34.56L63.23,34.56L64.23,33.26L65.23,33.26L66.24,29.75L69.25,21.17L70.25,21.17L77.28,20.52L78.28,19.87L86.31,19.87L87.31,21.17L89.32,24.55L90.32,24.55L134.48,25.07L135.48,25.98L138.49,26.5L139.5,26.5L141.51,27.02L142.51,26.5L144.52,32.09L145.52,32.48L150.54,33.52L151.54,34.56L153.55,35.21L154.55,35.86L168.6,35.86L169.61,37.16L170.61,38.33L171.61,41.85L173.62,44.71L174.62,44.71L185.66,44.71L186.67,46.53L188.67,48.09L189.68,47.57L192.69,48.09L193.69,48.09L196.7,50.82L197.71,50.82L200.72,54.85L201.72,54.85L203.73,54.85L204.73,57.06L206.74,58.88L207.74,58.88L208.75,58.88L216.77,39.38L218.78,36.51L220.79,36.51L222.8,39.38L223.8,39.38L227.81,40.42L228.82,40.42L243.87,40.42L244.87,35.86L254.91,35.21L255.91,38.59L257.92,42.24L258.92,42.24L266.95,43.15L267.96,43.93L270.97,44.71L271.97,44.71L276.99,44.71L277.99,46.14L280,46.14" style="vector-effect: non-scaling-stroke; fill: none; stroke: rgb(0, 204, 150); stroke-opacity: 1; stroke-width: 5px; opacity: 1;"/></g><g class="points"/><g class="text"/></g></g></g><g class="overplot"/><path class="xlines-above crisp" d="M0,0" style="fill: none;"/><path class="ylines-above crisp" d="M0,0" style="fill: none;"/><g class="overlines-above"/><g class="xaxislayer-above"/><g class="yaxislayer-above"/><g class="overaxes-above"/></g></g><g class="polarlayer"/><g class="smithlayer"/><g class="ternarylayer"/><g class="geolayer"/><g class="funnelarealayer"/><g class="pielayer"/><g class="iciclelayer"/><g class="treemaplayer"/><g class="sunburstlayer"/><g class="glimages"/><defs id="topdefs-9d2a35"><g class="clips"/></defs><g class="layer-above"><g class="imagelayer"/><g class="shapelayer"/></g><g class="infolayer"><g class="g-gtitle"><text class="gtitle" x="15" y="25" text-anchor="start" dy="0em" style="font-family: Ubuntu, verdana, arial, sans-serif; font-size: 16px; fill: rgb(233, 84, 32); opacity: 1; font-weight: normal; white-space: pre;">Prezident/ka ČR 2023</text></g><g class="g-xtitle"/><g class="g-ytitle"/></g></svg>