<svg class="main-svg" xmlns="http://www.w3.org/2000/svg" xmlns:xlink="http://www.w3.org/1999/xlink" width="300" height="135" style="" viewBox="0 0 300 135"><rect x="0" y="0" width="300" height="135" style="fill: rgb(255, 255, 255); fill-opacity: 1;"/><defs id="defs-ef8015"><g class="clips"><clipPath id="clipef8015xyplot" class="plotclip"><rect width="280" height="75"/></clipPath><clipPath class="axesclip" id="clipef8015x"><rect x="10" y="0" width="280" height="135"/></clipPath><clipPath class="axesclip" id="clipef8015y"><rect x="0" y="50" width="300" height="75"/></clipPath><clipPath class="axesclip" id="clipef8015xy"><rect x="10" y="50" width="280" height="75"/></clipPath></g><g class="gradients"/><g class="patterns"/></defs><g class="bglayer"/><g class="layer-below"><g class="imagelayer"/><g class="shapelayer"/></g><g class="cartesianlayer"><g class="subplot xy"><g class="layer-subplot"><g class="shapelayer"/><g class="imagelayer"/></g><g class="minor-gridlayer"><g class="x"/><g class="y"/></g><g class="gridlayer"><g class="x"><path class="xgrid crisp" transform="translate(19.77,0)" d="M0,50v75" style="stroke: rgb(235, 240, 248); stroke-opacity: 1; stroke-width: 1px;"/><path class="xgrid crisp" transform="translate(117.44,0)" d="M0,50v75" style="stroke: rgb(235, 240, 248); stroke-opacity: 1; stroke-width: 1px;"/><path class="xgrid crisp" transform="translate(218.37,0)" d="M0,50v75" style="stroke: rgb(235, 240, 248); stroke-opacity: 1; stroke-width: 1px;"/></g><g class="y"><path class="ygrid crisp" transform="translate(0,105.37)" d="M10,0h280" style="stroke: rgb(235, 240, 248); stroke-opacity: 1; stroke-width: 1px;"/><path class="ygrid crisp" transform="translate(0,85.74000000000001)" d="M10,0h280" style="stroke: rgb(235, 240, 248); stroke-opacity: 1; stroke-width: 1px;"/><path class="ygrid crisp" transform="translate(0,66.12)" d="M10,0h280" style="stroke: rgb(235, 240, 248); stroke-opacity: 1; stroke-width: 1px;"/></g></g><g class="zerolinelayer"><path class="yzl zl crisp" transform="translate(0,125)" d="M10,0h280" style="stroke: rgb(235, 240, 248); stroke-opacity: 1; stroke-width: 2px;"/></g><path class="xlines-below"/><path class="ylines-below"/><g class="overlines-below"/><g class="xaxislayer-below"/><g class="yaxislayer-below"/><g class="overaxes-below"/><g class="plot" transform="translate(10,50)" clip-path="url(#clipef8015xyplot)"><g class="scatterlayer mlayer"><g class="trace scatter trace369fba" style="stroke-miterlimit: 2; opacity: 1;"><g class="fills"/><g class="errorbars"/><g class="lines"><path class="js-line" d="M0,29.27L195.35,28.68L198.6,26.32L205.12,26.32L208.37,24.56L211.63,24.56L214.88,20.43L218.14,14.74L221.4,12.19L224.65,10.03L227.91,10.03L250.7,9.25L253.95,8.66L280,8.66" style="vector-effect: non-scaling-stroke; fill: none; stroke: rgb(99, 110, 250); stroke-opacity: 1; stroke-width: 5px; opacity: 1;"/></g><g class="points"/><g class="text"/></g><g class="trace scatter trace660e50" style="stroke-miterlimit: 2; opacity: 1;"><g class="fills"/><g class="errorbars"/><g class="lines"><path class="js-line" d="M0,3.75L78.14,4.54L81.4,5.52L100.93,5.52L104.19,7.09L110.7,14.15L113.95,14.15L126.98,15.33L130.23,15.92L140,16.51L143.26,16.51L195.35,17.69L198.6,18.86L205.12,18.86L208.37,20.83L211.63,20.83L214.88,22.79L218.14,25.14L221.4,25.93L234.42,26.32L237.67,26.32L280,26.32" style="vector-effect: non-scaling-stroke; fill: none; stroke: rgb(239, 85, 59); stroke-opacity: 1; stroke-width: 5px; opacity: 1;"/></g><g class="points"/><g class="text"/></g><g class="trace scatter trace596f16" style="stroke-miterlimit: 2; opacity: 1;"><g class="fills"/><g class="errorbars"/><g class="lines"><path class="js-line" d="M0,62.24L104.19,62.83L107.44,64.2L113.95,65.19L117.21,65.19L205.12,65.19L208.37,60.48L221.4,61.65L224.65,62.24L234.42,61.65L237.67,61.65L280,60.48" style="vector-effect: non-scaling-stroke; fill: none; stroke: rgb(0, 204, 150); stroke-opacity: 1; stroke-width: 5px; opacity: 1;"/></g><g class="points"/><g class="text"/></g><g class="trace scatter tracec454e1" style="stroke-miterlimit: 2; opacity: 1;"><g class="fills"/><g class="errorbars"/><g class="lines"><path class="js-line" d="M0,61.06L211.63,61.65L214.88,62.05L237.67,62.24L240.93,62.24L253.95,62.83L257.21,62.83L280,62.83" style="vector-effect: non-scaling-stroke; fill: none; stroke: rgb(171, 99, 250); stroke-opacity: 1; stroke-width: 5px; opacity: 1;"/></g><g class="points"/><g class="text"/></g><g class="trace scatter trace31f6bb" style="stroke-miterlimit: 2; opacity: 1;"><g class="fills"/><g class="errorbars"/><g class="lines"><path class="js-line" d="M0,68.33L100.93,68.33L104.19,65.77L110.7,64.6L113.95,64.6L126.98,63.81L130.23,63.22L143.26,62.83L146.51,62.83L218.14,62.83L221.4,64.01L231.16,64.6L234.42,64.6L247.44,64.2L250.7,64.01L280,62.83" style="vector-effect: non-scaling-stroke; fill: none; stroke: rgb(255, 161, 90); stroke-opacity: 1; stroke-width: 5px; opacity: 1;"/></g><g class="points"/><g class="text"/></g></g></g><g class="overplot"/><path class="xlines-above crisp" d="M0,0" style="fill: none;"/><path class="ylines-above crisp" d="M0,0" style="fill: none;"/><g class="overlines-above"/><g class="xaxislayer-above"/><g class="yaxislayer-above"/><g class="overaxes-above"/></g></g><g class="polarlayer"/><g class="smithlayer"/><g class="ternarylayer"/><g class="geolayer"/><g class="funnelarealayer"/><g class="pielayer"/><g class="iciclelayer"/><g class="treemaplayer"/><g class="sunburstlayer"/><g class="glimages"/><defs id="topdefs-ef8015"><g class="clips"/></defs><g class="layer-above"><g class="imagelayer"/><g class="shapelayer"/></g><g class="infolayer"><g class="g-gtitle"><text class="gtitle" x="15" y="25" text-anchor="start" dy="0em" style="font-family: Ubuntu, verdana, arial, sans-serif; font-size: 16px; fill: rgb(233, 84, 32); opacity: 1; font-weight: normal; white-space: pre;">Prezident/ka ČR 2023</text></g><g class="g-xtitle"/><g class="g-ytitle"/></g></svg>