<svg class="main-svg" xmlns="http://www.w3.org/2000/svg" xmlns:xlink="http://www.w3.org/1999/xlink" width="300" height="135" style="" viewBox="0 0 300 135"><rect x="0" y="0" width="300" height="135" style="fill: rgb(255, 255, 255); fill-opacity: 1;"/><defs id="defs-90993f"><g class="clips"><clipPath id="clip90993fxyplot" class="plotclip"><rect width="280" height="75"/></clipPath><clipPath class="axesclip" id="clip90993fx"><rect x="10" y="0" width="280" height="135"/></clipPath><clipPath class="axesclip" id="clip90993fy"><rect x="0" y="50" width="300" height="75"/></clipPath><clipPath class="axesclip" id="clip90993fxy"><rect x="10" y="50" width="280" height="75"/></clipPath></g><g class="gradients"/><g class="patterns"/></defs><g class="bglayer"/><g class="layer-below"><g class="imagelayer"/><g class="shapelayer"/></g><g class="cartesianlayer"><g class="subplot xy"><g class="layer-subplot"><g class="shapelayer"/><g class="imagelayer"/></g><g class="minor-gridlayer"><g class="x"/><g class="y"/></g><g class="gridlayer"><g class="x"><path class="xgrid crisp" transform="translate(41.22,0)" d="M0,50v75" style="stroke: rgb(235, 240, 248); stroke-opacity: 1; stroke-width: 1px;"/><path class="xgrid crisp" transform="translate(98.92,0)" d="M0,50v75" style="stroke: rgb(235, 240, 248); stroke-opacity: 1; stroke-width: 1px;"/><path class="xgrid crisp" transform="translate(157.57,0)" d="M0,50v75" style="stroke: rgb(235, 240, 248); stroke-opacity: 1; stroke-width: 1px;"/><path class="xgrid crisp" transform="translate(215.27,0)" d="M0,50v75" style="stroke: rgb(235, 240, 248); stroke-opacity: 1; stroke-width: 1px;"/><path class="xgrid crisp" transform="translate(272.97,0)" d="M0,50v75" style="stroke: rgb(235, 240, 248); stroke-opacity: 1; stroke-width: 1px;"/></g><g class="y"><path class="ygrid crisp" transform="translate(0,107.72999999999999)" d="M10,0h280" style="stroke: rgb(235, 240, 248); stroke-opacity: 1; stroke-width: 1px;"/><path class="ygrid crisp" transform="translate(0,90.45)" d="M10,0h280" style="stroke: rgb(235, 240, 248); stroke-opacity: 1; stroke-width: 1px;"/><path class="ygrid crisp" transform="translate(0,73.18)" d="M10,0h280" style="stroke: rgb(235, 240, 248); stroke-opacity: 1; stroke-width: 1px;"/><path class="ygrid crisp" transform="translate(0,55.91)" d="M10,0h280" style="stroke: rgb(235, 240, 248); stroke-opacity: 1; stroke-width: 1px;"/></g></g><g class="zerolinelayer"><path class="yzl zl crisp" transform="translate(0,125)" d="M10,0h280" style="stroke: rgb(235, 240, 248); stroke-opacity: 1; stroke-width: 2px;"/></g><path class="xlines-below"/><path class="ylines-below"/><g class="overlines-below"/><g class="xaxislayer-below"/><g class="yaxislayer-below"/><g class="overaxes-below"/><g class="plot" transform="translate(10,50)" clip-path="url(#clip90993fxyplot)"><g class="scatterlayer mlayer"><g class="trace scatter trace8b0bbd" style="stroke-miterlimit: 2; opacity: 1;"><g class="fills"/><g class="errorbars"/><g class="lines"><path class="js-line" d="M0,35.79L29.32,36.74L30.27,37.6L33.11,41.49L34.05,41.49L40.68,42.87L41.62,42.87L59.59,44.08L60.54,45.2L62.43,46.33L63.38,47.54L67.16,48.23L68.11,48.23L81.35,48.23L82.3,46.33L84.19,45.2L85.14,44.95L87.03,44.08L87.97,44.08L126.76,43.48L127.7,41.84L130.54,40.02L131.49,40.02L134.32,40.02L135.27,35.36L178.78,35.79L179.73,36.31L180.68,35.79L181.62,36.74L186.35,36.74L187.3,35.36L189.19,33.8L190.14,33.8L191.08,33.8L192.03,32.16L194.86,27.76L195.81,27.76L196.76,27.76L204.32,32.68L208.11,33.8L209.05,32.68L210.95,33.29L211.89,35.79L212.84,38.47L213.78,36.74L227.03,36.31L227.97,35.36L229.86,34.84L230.81,39.25L234.59,39.25L237.43,42.87L240.27,43.48L241.22,46.07L243.11,48.23L244.05,48.23L248.78,48.23L249.73,48.66L254.46,41.49L255.41,41.49L261.08,41.49L262.03,40.02L263.92,38.9L264.86,37.6L266.76,37.6L267.7,31.56L270.54,28.1L271.49,24.82L272.43,24.13L273.38,18.78L274.32,18L276.22,3.75L279.05,5.74L280,5.74" style="vector-effect: non-scaling-stroke; fill: none; stroke: rgb(99, 110, 250); stroke-opacity: 1; stroke-width: 5px; opacity: 1;"/></g><g class="points"/><g class="text"/></g><g class="trace scatter trace1d91ba" style="stroke-miterlimit: 2; opacity: 1;"><g class="fills"/><g class="errorbars"/><g class="lines"><path class="js-line" d="M0,49.87L56.76,49.52L57.7,48.23L61.49,47.28L62.43,44.95L65.27,39.25L66.22,39.25L82.3,39.25L83.24,40.8L86.08,41.49L87.03,41.49L127.7,42.53L128.65,42.87L134.32,42.87L135.27,46.07L139.05,46.85L140,46.85L141.89,47.54L142.84,48.23L158.92,49.09L159.86,49.87L161.76,52.98L162.7,54.88L175.95,56.09L176.89,57.12L183.51,57.9L184.46,58.42L187.3,60.4L188.24,61.61L192.03,61.61L192.97,63.08L194.86,64.29L195.81,64.29L196.76,64.29L204.32,51.34L206.22,49.52L208.11,49.52L210,51.34L210.95,51.34L215.68,52.03L216.62,52.03L229.86,52.03L230.81,49.09L240.27,48.66L241.22,50.82L243.11,53.32L244.05,53.32L252.57,54.36L253.51,54.88L266.76,55.4L267.7,57.12L269.59,57.12L270.54,51.08L272.43,50.65L273.38,52.29L274.32,52.55L276.22,61.61L279.05,57.9L280,57.9" style="vector-effect: non-scaling-stroke; fill: none; stroke: rgb(239, 85, 59); stroke-opacity: 1; stroke-width: 5px; opacity: 1;"/></g><g class="points"/><g class="text"/></g></g></g><g class="overplot"/><path class="xlines-above crisp" d="M0,0" style="fill: none;"/><path class="ylines-above crisp" d="M0,0" style="fill: none;"/><g class="overlines-above"/><g class="xaxislayer-above"/><g class="yaxislayer-above"/><g class="overaxes-above"/></g></g><g class="polarlayer"/><g class="smithlayer"/><g class="ternarylayer"/><g class="geolayer"/><g class="funnelarealayer"/><g class="pielayer"/><g class="iciclelayer"/><g class="treemaplayer"/><g class="sunburstlayer"/><g class="glimages"/><defs id="topdefs-90993f"><g class="clips"/></defs><g class="layer-above"><g class="imagelayer"/><g class="shapelayer"/></g><g class="infolayer"><g class="g-gtitle"><text class="gtitle" x="15" y="25" text-anchor="start" dy="0em" style="font-family: Ubuntu, verdana, arial, sans-serif; font-size: 16px; fill: rgb(233, 84, 32); opacity: 1; font-weight: normal; white-space: pre;">Prezident/ka ČR 2023</text></g><g class="g-xtitle"/><g class="g-ytitle"/></g></svg>