<svg class="main-svg" xmlns="http://www.w3.org/2000/svg" xmlns:xlink="http://www.w3.org/1999/xlink" width="300" height="135" style="" viewBox="0 0 300 135"><rect x="0" y="0" width="300" height="135" style="fill: rgb(255, 255, 255); fill-opacity: 1;"/><defs id="defs-dba39b"><g class="clips"><clipPath id="clipdba39bxyplot" class="plotclip"><rect width="280" height="75"/></clipPath><clipPath class="axesclip" id="clipdba39bx"><rect x="10" y="0" width="280" height="135"/></clipPath><clipPath class="axesclip" id="clipdba39by"><rect x="0" y="50" width="300" height="75"/></clipPath><clipPath class="axesclip" id="clipdba39bxy"><rect x="10" y="50" width="280" height="75"/></clipPath></g><g class="gradients"/><g class="patterns"/></defs><g class="bglayer"/><g class="layer-below"><g class="imagelayer"/><g class="shapelayer"/></g><g class="cartesianlayer"><g class="subplot xy"><g class="layer-subplot"><g class="shapelayer"/><g class="imagelayer"/></g><g class="minor-gridlayer"><g class="x"/><g class="y"/></g><g class="gridlayer"><g class="x"><path class="xgrid crisp" transform="translate(40.9,0)" d="M0,50v75" style="stroke: rgb(235, 240, 248); stroke-opacity: 1; stroke-width: 1px;"/><path class="xgrid crisp" transform="translate(98.03,0)" d="M0,50v75" style="stroke: rgb(235, 240, 248); stroke-opacity: 1; stroke-width: 1px;"/><path class="xgrid crisp" transform="translate(156.09,0)" d="M0,50v75" style="stroke: rgb(235, 240, 248); stroke-opacity: 1; stroke-width: 1px;"/><path class="xgrid crisp" transform="translate(213.21,0)" d="M0,50v75" style="stroke: rgb(235, 240, 248); stroke-opacity: 1; stroke-width: 1px;"/><path class="xgrid crisp" transform="translate(270.33,0)" d="M0,50v75" style="stroke: rgb(235, 240, 248); stroke-opacity: 1; stroke-width: 1px;"/></g><g class="y"><path class="ygrid crisp" transform="translate(0,108.14)" d="M10,0h280" style="stroke: rgb(235, 240, 248); stroke-opacity: 1; stroke-width: 1px;"/><path class="ygrid crisp" transform="translate(0,91.27000000000001)" d="M10,0h280" style="stroke: rgb(235, 240, 248); stroke-opacity: 1; stroke-width: 1px;"/><path class="ygrid crisp" transform="translate(0,74.41)" d="M10,0h280" style="stroke: rgb(235, 240, 248); stroke-opacity: 1; stroke-width: 1px;"/><path class="ygrid crisp" transform="translate(0,57.54)" d="M10,0h280" style="stroke: rgb(235, 240, 248); stroke-opacity: 1; stroke-width: 1px;"/></g></g><g class="zerolinelayer"><path class="yzl zl crisp" transform="translate(0,125)" d="M10,0h280" style="stroke: rgb(235, 240, 248); stroke-opacity: 1; stroke-width: 2px;"/></g><path class="xlines-below"/><path class="ylines-below"/><g class="overlines-below"/><g class="xaxislayer-below"/><g class="yaxislayer-below"/><g class="overaxes-below"/><g class="plot" transform="translate(10,50)" clip-path="url(#clipdba39bxyplot)"><g class="scatterlayer mlayer"><g class="trace scatter tracebd7f04" style="stroke-miterlimit: 2; opacity: 1;"><g class="fills"/><g class="errorbars"/><g class="lines"><path class="js-line" d="M0,36.38L29.03,37.31L29.97,38.24L32.78,42.03L33.71,42.03L40.27,43.38L41.2,43.38L59,44.56L59.93,45.74L61.81,46.75L62.74,47.93L66.49,48.61L67.42,48.61L80.54,48.61L81.47,46.75L82.41,45.15L83.34,45.74L84.28,45.4L87.09,44.56L88.03,44.56L125.48,43.97L126.42,42.37L129.23,40.6L130.17,40.6L132.98,40.6L133.91,35.96L176.99,36.38L177.93,36.89L178.86,36.38L179.8,37.31L184.48,37.31L185.42,35.96L187.29,34.44L188.23,34.44L189.16,34.44L190.1,32.84L192.91,28.46L193.85,28.46L194.78,28.46L202.27,33.35L206.02,34.44L206.96,33.35L208.83,33.94L209.77,36.38L210.7,39.08L211.64,37.31L224.75,36.89L225.69,35.96L227.56,35.45L228.49,39.84L232.24,39.84L235.05,43.38L237.86,43.97L238.8,46.5L240.67,48.61L241.61,48.61L246.29,48.61L247.22,49.03L251.91,42.03L252.84,42.03L258.46,42.03L259.4,40.6L261.27,39.42L262.21,38.24L264.08,38.24L265.02,32.25L267.83,28.88L268.76,25.59L269.7,24.91L270.64,19.69L271.57,18.93L273.44,4.93L276.25,6.79L277.19,6.79L280,3.75" style="vector-effect: non-scaling-stroke; fill: none; stroke: rgb(99, 110, 250); stroke-opacity: 1; stroke-width: 5px; opacity: 1;"/></g><g class="points"/><g class="text"/></g><g class="trace scatter trace421e3b" style="stroke-miterlimit: 2; opacity: 1;"><g class="fills"/><g class="errorbars"/><g class="lines"><path class="js-line" d="M0,50.29L56.19,49.87L57.12,48.61L60.87,47.76L61.81,45.4L64.62,39.84L65.55,39.84L81.47,39.84L82.41,41.36L85.22,42.03L86.15,42.03L126.42,43.04L127.36,43.38L132.98,43.38L133.91,46.5L137.66,47.26L138.6,47.26L140.47,47.93L141.4,48.61L157.32,49.45L158.26,50.29L160.13,53.33L161.07,55.27L174.18,56.37L175.12,57.46L181.67,58.14L182.61,58.73L185.42,60.58L186.35,61.85L190.1,61.85L191.04,63.28L192.91,64.46L193.85,64.46L194.78,64.46L202.27,51.73L204.15,49.87L206.02,49.87L207.89,51.73L208.83,51.73L213.51,52.4L214.45,52.4L227.56,52.4L228.49,49.45L237.86,49.03L238.8,51.22L240.67,53.67L241.61,53.67L250.03,54.76L250.97,55.27L264.08,55.69L265.02,57.46L266.89,57.46L267.83,51.47L269.7,51.05L270.64,52.66L271.57,52.91L273.44,61.76L276.25,58.14L277.19,58.39L280,61.93" style="vector-effect: non-scaling-stroke; fill: none; stroke: rgb(239, 85, 59); stroke-opacity: 1; stroke-width: 5px; opacity: 1;"/></g><g class="points"/><g class="text"/></g></g></g><g class="overplot"/><path class="xlines-above crisp" d="M0,0" style="fill: none;"/><path class="ylines-above crisp" d="M0,0" style="fill: none;"/><g class="overlines-above"/><g class="xaxislayer-above"/><g class="yaxislayer-above"/><g class="overaxes-above"/></g></g><g class="polarlayer"/><g class="smithlayer"/><g class="ternarylayer"/><g class="geolayer"/><g class="funnelarealayer"/><g class="pielayer"/><g class="iciclelayer"/><g class="treemaplayer"/><g class="sunburstlayer"/><g class="glimages"/><defs id="topdefs-dba39b"><g class="clips"/></defs><g class="layer-above"><g class="imagelayer"/><g class="shapelayer"/></g><g class="infolayer"><g class="g-gtitle"><text class="gtitle" x="15" y="25" text-anchor="start" dy="0em" style="font-family: Ubuntu, verdana, arial, sans-serif; font-size: 16px; fill: rgb(233, 84, 32); opacity: 1; font-weight: normal; white-space: pre;">Prezident/ka ČR 2023</text></g><g class="g-xtitle"/><g class="g-ytitle"/></g></svg>