<svg class="main-svg" xmlns="http://www.w3.org/2000/svg" xmlns:xlink="http://www.w3.org/1999/xlink" width="300" height="135" style="" viewBox="0 0 300 135"><rect x="0" y="0" width="300" height="135" style="fill: rgb(255, 255, 255); fill-opacity: 1;"/><defs id="defs-3e8816"><g class="clips"><clipPath id="clip3e8816xyplot" class="plotclip"><rect width="280" height="75"/></clipPath><clipPath class="axesclip" id="clip3e8816x"><rect x="10" y="0" width="280" height="135"/></clipPath><clipPath class="axesclip" id="clip3e8816y"><rect x="0" y="50" width="300" height="75"/></clipPath><clipPath class="axesclip" id="clip3e8816xy"><rect x="10" y="50" width="280" height="75"/></clipPath></g><g class="gradients"/><g class="patterns"/></defs><g class="bglayer"/><g class="layer-below"><g class="imagelayer"/><g class="shapelayer"/></g><g class="cartesianlayer"><g class="subplot xy"><g class="layer-subplot"><g class="shapelayer"/><g class="imagelayer"/></g><g class="minor-gridlayer"><g class="x"/><g class="y"/></g><g class="gridlayer"><g class="x"><path class="xgrid crisp" transform="translate(55.74,0)" d="M0,50v75" style="stroke: rgb(235, 240, 248); stroke-opacity: 1; stroke-width: 1px;"/><path class="xgrid crisp" transform="translate(140.3,0)" d="M0,50v75" style="stroke: rgb(235, 240, 248); stroke-opacity: 1; stroke-width: 1px;"/><path class="xgrid crisp" transform="translate(226.24,0)" d="M0,50v75" style="stroke: rgb(235, 240, 248); stroke-opacity: 1; stroke-width: 1px;"/></g><g class="y"><path class="ygrid crisp" transform="translate(0,107.45)" d="M10,0h280" style="stroke: rgb(235, 240, 248); stroke-opacity: 1; stroke-width: 1px;"/><path class="ygrid crisp" transform="translate(0,89.9)" d="M10,0h280" style="stroke: rgb(235, 240, 248); stroke-opacity: 1; stroke-width: 1px;"/><path class="ygrid crisp" transform="translate(0,72.35)" d="M10,0h280" style="stroke: rgb(235, 240, 248); stroke-opacity: 1; stroke-width: 1px;"/><path class="ygrid crisp" transform="translate(0,54.8)" d="M10,0h280" style="stroke: rgb(235, 240, 248); stroke-opacity: 1; stroke-width: 1px;"/></g></g><g class="zerolinelayer"><path class="yzl zl crisp" transform="translate(0,125)" d="M10,0h280" style="stroke: rgb(235, 240, 248); stroke-opacity: 1; stroke-width: 2px;"/></g><path class="xlines-below"/><path class="ylines-below"/><g class="overlines-below"/><g class="xaxislayer-below"/><g class="yaxislayer-below"/><g class="overaxes-below"/><g class="plot" transform="translate(10,50)" clip-path="url(#clip3e8816xyplot)"><g class="scatterlayer mlayer"><g class="trace scatter trace9b3730" style="stroke-miterlimit: 2; opacity: 1;"><g class="fills"/><g class="errorbars"/><g class="lines"><path class="js-line" d="M0,7.26L33.27,7.96L34.65,8.84L42.97,8.84L44.36,10.42L47.13,17.09L48.51,17.09L54.06,18.32L55.45,18.84L59.6,19.37L60.99,19.37L83.17,20.42L84.55,21.47L87.33,21.47L88.71,23.58L90.1,23.58L91.49,25.34L94.26,28.32L95.64,28.67L119.21,28.67L120.59,25.34L121.98,22.53L123.37,23.58L128.91,21.47L130.3,21.47L185.74,20.42L187.13,17.61L189.9,15.16L191.29,14.63L196.83,14.63L198.22,6.38L260.59,5.5L261.98,7.26L267.52,8.84L268.91,8.84L273.07,8.84L274.46,6.38L277.23,3.75L278.61,3.75L280,3.75" style="vector-effect: non-scaling-stroke; fill: none; stroke: rgb(99, 110, 250); stroke-opacity: 1; stroke-width: 5px; opacity: 1;"/></g><g class="points"/><g class="text"/></g><g class="trace scatter tracee62629" style="stroke-miterlimit: 2; opacity: 1;"><g class="fills"/><g class="errorbars"/><g class="lines"><path class="js-line" d="M0,62.89L44.36,63.42L45.74,64.65L48.51,65.7L49.9,65.7L87.33,65.7L88.71,61.14L94.26,62.36L95.64,62.89L99.8,62.36L101.19,62.36L158.02,61.14L159.41,59.56L162.18,55.17L163.56,55.17L181.58,55.17L182.97,53.59L185.74,52.71L187.13,51.83L189.9,50.61L191.29,49.2L194.06,48.33L195.45,46.57L198.22,46.39L199.6,46.39L203.76,45.69L205.15,45.69L234.26,46.57L235.64,47.27L239.8,44.11L241.19,44.11L261.98,43.06L263.37,41.83L264.75,41.83L266.14,43.41L268.91,44.11L270.3,42.36L273.07,40.25L274.46,39.38L277.23,38.5L278.61,38.5L280,38.5" style="vector-effect: non-scaling-stroke; fill: none; stroke: rgb(239, 85, 59); stroke-opacity: 1; stroke-width: 5px; opacity: 1;"/></g><g class="points"/><g class="text"/></g><g class="trace scatter tracee06d1d" style="stroke-miterlimit: 2; opacity: 1;"><g class="fills"/><g class="errorbars"/><g class="lines"><path class="js-line" d="M0,31.65L83.17,30.95L84.55,28.67L87.33,28.67L88.71,27.09L90.1,27.09L91.49,23.05L94.26,15.16L95.64,13.23L106.73,12.52L108.12,11.82L119.21,11.82L120.59,13.23L123.37,17.09L124.75,17.09L185.74,17.61L187.13,18.84L191.29,19.37L192.67,19.37L195.45,19.9L196.83,19.37L199.6,25.86L200.99,26.21L207.92,27.44L209.31,28.67L212.08,29.37L213.47,30.25L232.87,30.25L234.26,31.65L235.64,32.88L237.03,36.92L238.42,40.25L239.8,40.25L256.44,40.25L257.82,42.36L260.59,44.11L261.98,43.59L266.14,44.11L267.52,44.11L271.68,47.27L273.07,47.27L275.84,51.83L277.23,51.83L280,51.83" style="vector-effect: non-scaling-stroke; fill: none; stroke: rgb(0, 204, 150); stroke-opacity: 1; stroke-width: 5px; opacity: 1;"/></g><g class="points"/><g class="text"/></g><g class="trace scatter tracee9e0f8" style="stroke-miterlimit: 2; opacity: 1;"><g class="fills"/><g class="errorbars"/><g class="lines"><path class="js-line" d="M0,68.68L42.97,68.68L44.36,66.4L47.13,65L48.51,65L55.45,63.94L56.83,63.42L92.87,63.42L94.26,64.47L98.42,65L99.8,65L106.73,64.47L108.12,64.29L121.98,64.65L123.37,65.7L159.41,65.7L160.79,66.4L200.99,65.7L202.38,65L232.87,63.94L234.26,60.43L235.64,55.17L237.03,55.17L256.44,55.17L257.82,53.59L260.59,51.83L261.98,51.83L268.91,51.83L270.3,55.17L273.07,57.63L274.46,59.91L277.23,61.84L278.61,61.84L280,61.84" style="vector-effect: non-scaling-stroke; fill: none; stroke: rgb(171, 99, 250); stroke-opacity: 1; stroke-width: 5px; opacity: 1;"/></g><g class="points"/><g class="text"/></g><g class="trace scatter tracec56369" style="stroke-miterlimit: 2; opacity: 1;"><g class="fills"/><g class="errorbars"/><g class="lines"><path class="js-line" d="M0,61.84L90.1,62.36L91.49,62.72L106.73,63.42L108.12,63.42L192.67,64.65L194.06,64.82L200.99,66.4L202.38,66.4L259.21,66.75L260.59,65.35L263.37,64.29L264.75,64.29L280,65" style="vector-effect: non-scaling-stroke; fill: none; stroke: rgb(255, 161, 90); stroke-opacity: 1; stroke-width: 5px; opacity: 1;"/></g><g class="points"/><g class="text"/></g></g></g><g class="overplot"/><path class="xlines-above crisp" d="M0,0" style="fill: none;"/><path class="ylines-above crisp" d="M0,0" style="fill: none;"/><g class="overlines-above"/><g class="xaxislayer-above"/><g class="yaxislayer-above"/><g class="overaxes-above"/></g></g><g class="polarlayer"/><g class="smithlayer"/><g class="ternarylayer"/><g class="geolayer"/><g class="funnelarealayer"/><g class="pielayer"/><g class="iciclelayer"/><g class="treemaplayer"/><g class="sunburstlayer"/><g class="glimages"/><defs id="topdefs-3e8816"><g class="clips"/></defs><g class="layer-above"><g class="imagelayer"/><g class="shapelayer"/></g><g class="infolayer"><g class="g-gtitle"><text class="gtitle" x="15" y="25" text-anchor="start" dy="0em" style="font-family: Ubuntu, verdana, arial, sans-serif; font-size: 16px; fill: rgb(233, 84, 32); opacity: 1; font-weight: normal; white-space: pre;">Prezident/ka ČR 2023</text></g><g class="g-xtitle"/><g class="g-ytitle"/></g></svg>