<svg class="main-svg" xmlns="http://www.w3.org/2000/svg" xmlns:xlink="http://www.w3.org/1999/xlink" width="400" height="400" style="" viewBox="0 0 400 400"><rect x="0" y="0" width="400" height="400" style="fill: rgb(255, 255, 255); fill-opacity: 1;"/><defs id="defs-d15e5a"><g class="clips"><clipPath id="clipd15e5axyplot" class="plotclip"><rect width="191" height="330"/></clipPath><clipPath class="axesclip" id="clipd15e5ax"><rect x="50" y="0" width="191" height="400"/></clipPath><clipPath class="axesclip" id="clipd15e5ay"><rect x="0" y="20" width="400" height="330"/></clipPath><clipPath class="axesclip" id="clipd15e5axy"><rect x="50" y="20" width="191" height="330"/></clipPath></g><g class="gradients"/><g class="patterns"/></defs><g class="bglayer"/><g class="layer-below"><g class="imagelayer"/><g class="shapelayer"/></g><g class="cartesianlayer"><g class="subplot xy"><g class="layer-subplot"><g class="shapelayer"/><g class="imagelayer"/></g><g class="minor-gridlayer"><g class="x"/><g class="y"/></g><g class="gridlayer"><g class="x"><path class="xgrid crisp" transform="translate(71.73,0)" d="M0,20v330" style="stroke: rgb(235, 240, 248); stroke-opacity: 1; stroke-width: 1px;"/><path class="xgrid crisp" transform="translate(111.91,0)" d="M0,20v330" style="stroke: rgb(235, 240, 248); stroke-opacity: 1; stroke-width: 1px;"/><path class="xgrid crisp" transform="translate(152.74,0)" d="M0,20v330" style="stroke: rgb(235, 240, 248); stroke-opacity: 1; stroke-width: 1px;"/><path class="xgrid crisp" transform="translate(192.92,0)" d="M0,20v330" style="stroke: rgb(235, 240, 248); stroke-opacity: 1; stroke-width: 1px;"/><path class="xgrid crisp" transform="translate(233.1,0)" d="M0,20v330" style="stroke: rgb(235, 240, 248); stroke-opacity: 1; stroke-width: 1px;"/></g><g class="y"><path class="ygrid crisp" transform="translate(0,288.41)" d="M50,0h191" style="stroke: rgb(235, 240, 248); stroke-opacity: 1; stroke-width: 1px;"/><path class="ygrid crisp" transform="translate(0,226.82)" d="M50,0h191" style="stroke: rgb(235, 240, 248); stroke-opacity: 1; stroke-width: 1px;"/><path class="ygrid crisp" transform="translate(0,165.23)" d="M50,0h191" style="stroke: rgb(235, 240, 248); stroke-opacity: 1; stroke-width: 1px;"/><path class="ygrid crisp" transform="translate(0,103.63)" d="M50,0h191" style="stroke: rgb(235, 240, 248); stroke-opacity: 1; stroke-width: 1px;"/><path class="ygrid crisp" transform="translate(0,42.04)" d="M50,0h191" style="stroke: rgb(235, 240, 248); stroke-opacity: 1; stroke-width: 1px;"/></g></g><g class="zerolinelayer"><path class="yzl zl crisp" transform="translate(0,350)" d="M50,0h191" style="stroke: rgb(235, 240, 248); stroke-opacity: 1; stroke-width: 2px;"/></g><path class="xlines-below"/><path class="ylines-below"/><g class="overlines-below"/><g class="xaxislayer-below"/><g class="yaxislayer-below"/><g class="overaxes-below"/><g class="plot" transform="translate(50,20)" clip-path="url(#clipd15e5axyplot)"><g class="scatterlayer mlayer"><g class="trace scatter trace884af6" style="stroke-miterlimit: 2; opacity: 1;"><g class="fills"/><g class="errorbars"/><g class="lines"><path class="js-line" d="M0,70.08L15.15,70.08L15.81,73.16L17.12,76.24L17.78,76.24L20.42,76.24L21.08,82.4L23.05,108.27L23.71,108.27L27.66,116.89L28.32,116.89L30.96,116.89L31.61,119.36L33.59,121.21L34.25,121.21L39.52,121.21L40.18,124.9L41.49,124.9L42.15,132.91L42.81,132.91L43.47,139.68L45.44,152.62L46.1,152.62L56.64,152.62L57.3,139.68L57.96,129.21L58.62,132.91L59.28,131.06L60.59,124.9L61.25,124.9L64.54,124.9L65.2,123.05L67.18,121.21L67.84,121.21L75.74,121.21L76.4,123.05L78.38,124.9L79.03,124.9L87.6,124.9L88.26,121.21L90.23,100.88L90.89,98.42L93.52,98.42L94.18,67L94.84,67L95.5,63.93L123.82,63.93L124.48,70.08L125.14,73.16L125.8,70.08L127.11,76.24L127.77,76.24L129.75,76.24L130.41,67L131.72,57.15L132.38,57.15L133.04,57.15L133.7,46.06L136.33,16.5L136.99,16.5L143.58,57.15L144.9,57.15L146.21,49.76L146.87,53.45L148.19,87.95L148.85,76.24L149.51,76.24L157.41,76.24L158.07,73.16L160.04,63.93L160.7,93.49L163.34,93.49L165.31,116.89L165.97,116.89" style="vector-effect: non-scaling-stroke; fill: none; stroke: rgb(99, 110, 250); stroke-opacity: 1; stroke-width: 5px; opacity: 1;"/></g><g class="points"/><g class="text"/></g><g class="trace scatter tracee100f6" style="stroke-miterlimit: 2; opacity: 1;"><g class="fills"/><g class="errorbars"/><g class="lines"><path class="js-line" d="M0,283.81L3.29,283.81L3.95,285.65L21.08,285.65L21.73,290.58L23.05,294.28L23.71,294.28L41.49,294.28L42.15,277.03L43.47,278.26L44.13,279.5L45.44,283.81L46.1,281.34L48.74,281.34L49.4,279.5L50.71,277.03L51.37,277.03L75.08,277.03L75.74,270.87L77.72,253.63L78.38,253.63L86.28,253.63L86.94,248.08L87.6,248.08L88.26,245L93.52,219.14L94.18,220.37L94.84,220.37L95.5,218.52L97.48,217.9L98.13,217.9L110.65,217.9L111.31,220.98L111.97,223.45L112.62,217.9L113.94,211.74L114.6,211.74L123.82,211.74L124.48,207.43L125.8,203.12L126.46,208.67L127.77,211.74L128.43,204.97L130.41,193.27L131.07,189.57L133.04,189.57L133.7,191.42L135.68,168.63L136.33,168.63L136.99,168.63L142.26,192.04L143.58,196.96L144.9,196.96L146.21,200.04L146.87,198.81L148.85,177.87L149.51,177.87L152.8,177.87L153.46,175.41L157.41,174.79L158.07,173.56L158.73,171.09L159.39,173.56L161.36,158.16L162.02,158.16L163.34,158.16L165.31,132.91L165.97,132.91" style="vector-effect: non-scaling-stroke; fill: none; stroke: rgb(239, 85, 59); stroke-opacity: 1; stroke-width: 5px; opacity: 1;"/></g><g class="points"/><g class="text"/></g><g class="trace scatter trace2553b3" style="stroke-miterlimit: 2; opacity: 1;"><g class="fills"/><g class="errorbars"/><g class="lines"><path class="js-line" d="M0,163.7L15.81,162.47L16.47,161.24L39.52,161.24L40.18,152.62L41.49,152.62L42.15,146.46L42.81,146.46L43.47,131.06L45.44,93.49L46.1,93.49L50.06,93.49L50.71,90.41L52.03,87.95L52.69,87.95L56.64,87.95L57.3,93.49L59.28,108.27L59.93,108.27L87.6,108.27L88.26,110.12L90.23,116.89L90.89,116.89L91.55,116.89L92.21,119.36L92.87,119.36L93.52,116.89L95.5,143.38L96.16,143.38L98.13,143.38L98.79,147.69L101.43,158.16L102.09,158.16L110.65,158.16L111.31,163.7L111.97,168.63L112.62,184.03L113.94,196.96L114.6,196.96L121.84,196.96L122.5,204.97L123.82,211.74L124.48,209.9L126.46,211.74L127.11,211.74L131.72,241.31L132.38,241.31L133.7,241.31L134.36,251.16L135.68,259.17L136.33,259.17L136.99,259.17L142.26,173.56L143.58,161.24L144.9,161.24L146.21,173.56L146.87,173.56L149.51,177.87L150.17,177.87L152.8,177.87L153.46,179.72L158.73,179.72L159.39,177.87L160.04,177.87L160.7,158.16L163.34,158.16L165.31,155.7L165.97,155.7" style="vector-effect: non-scaling-stroke; fill: none; stroke: rgb(0, 204, 150); stroke-opacity: 1; stroke-width: 5px; opacity: 1;"/></g><g class="points"/><g class="text"/></g><g class="trace scatter trace04357e" style="stroke-miterlimit: 2; opacity: 1;"><g class="fills"/><g class="errorbars"/><g class="lines"><path class="js-line" d="M0,279.5L3.29,279.5L3.95,277.03L25.69,277.03L26.34,279.5L28.32,281.34L28.98,281.34L43.47,282.57L44.13,283.81L49.4,284.42L50.06,285.65L75.08,285.65L75.74,287.5L77.72,288.73L78.38,288.73L90.23,289.97L90.89,290.58L92.21,291.2L92.87,293.05L95.5,296.74L96.16,296.74L112.62,296.74L113.28,298.59L123.16,298.59L123.82,293.05L124.48,287.5L125.14,288.73L125.8,288.73L126.46,288.73L127.11,291.81L133.7,291.81L134.36,298.59L136.33,305.98L136.99,305.98L146.21,309.67L146.87,309.67L160.04,310.29L160.7,316.45L165.97,316.45" style="vector-effect: non-scaling-stroke; fill: none; stroke: rgb(171, 99, 250); stroke-opacity: 1; stroke-width: 5px; opacity: 1;"/></g><g class="points"/><g class="text"/></g><g class="trace scatter trace8a86ad" style="stroke-miterlimit: 2; opacity: 1;"><g class="fills"/><g class="errorbars"/><g class="lines"><path class="js-line" d="M0,315.22L57.96,315.83L58.62,314.6L75.08,314.6L75.74,312.75L77.06,310.29L77.72,310.29L123.82,310.91L124.48,311.52L126.46,314.6L127.11,314.6L160.04,315.83L160.7,319.53L165.97,319.53" style="vector-effect: non-scaling-stroke; fill: none; stroke: rgb(255, 161, 90); stroke-opacity: 1; stroke-width: 5px; opacity: 1;"/></g><g class="points"/><g class="text"/></g><g class="trace scatter trace2dbefd" style="stroke-miterlimit: 2; opacity: 1;"><g class="fills"/><g class="errorbars"/><g class="lines"><path class="js-line" d="M0,305.98L20.42,305.98L21.08,296.74L22.39,291.81L23.05,291.81L24.37,290.58L25.03,288.73L26.34,287.5L27,285.65L31.61,284.42L32.27,282.57L34.25,281.34L34.91,281.34L41.49,281.34L42.15,283.81L43.47,283.81L44.13,285.65L46.1,291.81L46.76,291.81L48.08,290.58L48.74,288.73L50.06,290.58L50.71,289.97L51.37,288.73L55.32,287.5L55.98,285.65L57.3,285.65L57.96,290.58L59.28,294.28L59.93,294.28L64.54,293.05L65.2,291.81L75.08,291.81L75.74,294.28L77.06,296.74L77.72,296.74L90.23,297.97L90.89,298.59L94.84,297.97L95.5,294.28L96.82,291.81L97.48,291.81L106.04,290.58L106.7,288.73L110.65,287.5L111.31,273.95L112.62,253.63L113.28,253.63L121.84,253.63L122.5,248.08L123.82,241.31L124.48,241.31L127.77,241.31L128.43,253.63L131.07,279.5L131.72,279.5L133.04,279.5L133.7,288.12L135.68,303.52L136.33,303.52L136.99,303.52L142.26,320.15L160.04,320.15L160.7,322.61L165.97,322.61" style="vector-effect: non-scaling-stroke; fill: none; stroke: rgb(25, 211, 243); stroke-opacity: 1; stroke-width: 5px; opacity: 1;"/></g><g class="points"/><g class="text"/></g></g></g><g class="overplot"/><path class="xlines-above crisp" d="M0,0" style="fill: none;"/><path class="ylines-above crisp" d="M0,0" style="fill: none;"/><g class="overlines-above"/><g class="xaxislayer-above"><g class="xtick"><text text-anchor="middle" x="0" y="363" transform="translate(71.73,0)" style="font-family: 'Open Sans', verdana, arial, sans-serif; font-size: 12px; fill: rgb(42, 63, 95); fill-opacity: 1; white-space: pre; opacity: 1;">1.5.22</text></g><g class="xtick"><text text-anchor="middle" x="0" y="363" style="font-family: 'Open Sans', verdana, arial, sans-serif; font-size: 12px; fill: rgb(42, 63, 95); fill-opacity: 1; white-space: pre; opacity: 1;" transform="translate(111.91,0)">1.7.22</text></g><g class="xtick"><text text-anchor="middle" x="0" y="363" style="font-family: 'Open Sans', verdana, arial, sans-serif; font-size: 12px; fill: rgb(42, 63, 95); fill-opacity: 1; white-space: pre; opacity: 1;" transform="translate(152.74,0)">1.9.22</text></g><g class="xtick"><text text-anchor="middle" x="0" y="363" style="font-family: 'Open Sans', verdana, arial, sans-serif; font-size: 12px; fill: rgb(42, 63, 95); fill-opacity: 1; white-space: pre; opacity: 1;" transform="translate(192.92,0)">1.11.22</text></g><g class="xtick"><text text-anchor="middle" x="0" y="363" style="font-family: 'Open Sans', verdana, arial, sans-serif; font-size: 12px; fill: rgb(42, 63, 95); fill-opacity: 1; white-space: pre; opacity: 1;" transform="translate(233.1,0)">1.1.23</text></g></g><g class="yaxislayer-above"><g class="ytick"><text text-anchor="end" x="49" y="4.199999999999999" transform="translate(0,350)" style="font-family: 'Open Sans', verdana, arial, sans-serif; font-size: 12px; fill: rgb(42, 63, 95); fill-opacity: 1; white-space: pre; opacity: 1;">0%</text></g><g class="ytick"><text text-anchor="end" x="49" y="4.199999999999999" style="font-family: 'Open Sans', verdana, arial, sans-serif; font-size: 12px; fill: rgb(42, 63, 95); fill-opacity: 1; white-space: pre; opacity: 1;" transform="translate(0,288.41)">10%</text></g><g class="ytick"><text text-anchor="end" x="49" y="4.199999999999999" style="font-family: 'Open Sans', verdana, arial, sans-serif; font-size: 12px; fill: rgb(42, 63, 95); fill-opacity: 1; white-space: pre; opacity: 1;" transform="translate(0,226.82)">20%</text></g><g class="ytick"><text text-anchor="end" x="49" y="4.199999999999999" style="font-family: 'Open Sans', verdana, arial, sans-serif; font-size: 12px; fill: rgb(42, 63, 95); fill-opacity: 1; white-space: pre; opacity: 1;" transform="translate(0,165.23)">30%</text></g><g class="ytick"><text text-anchor="end" x="49" y="4.199999999999999" style="font-family: 'Open Sans', verdana, arial, sans-serif; font-size: 12px; fill: rgb(42, 63, 95); fill-opacity: 1; white-space: pre; opacity: 1;" transform="translate(0,103.63)">40%</text></g><g class="ytick"><text text-anchor="end" x="49" y="4.199999999999999" style="font-family: 'Open Sans', verdana, arial, sans-serif; font-size: 12px; fill: rgb(42, 63, 95); fill-opacity: 1; white-space: pre; opacity: 1;" transform="translate(0,42.04)">50%</text></g></g><g class="overaxes-above"/></g></g><g class="polarlayer"/><g class="smithlayer"/><g class="ternarylayer"/><g class="geolayer"/><g class="funnelarealayer"/><g class="pielayer"/><g class="iciclelayer"/><g class="treemaplayer"/><g class="sunburstlayer"/><g class="glimages"/><defs id="topdefs-d15e5a"><g class="clips"/><clipPath id="legendd15e5a"><rect width="143" height="124" x="0" y="0"/></clipPath></defs><g class="layer-above"><g class="imagelayer"/><g class="shapelayer"/></g><g class="infolayer"><g class="legend" pointer-events="all" transform="translate(244.82,20)"><rect class="bg" shape-rendering="crispEdges" width="143" height="124" x="0" y="0" style="stroke: rgb(68, 68, 68); stroke-opacity: 1; fill: rgb(255, 255, 255); fill-opacity: 1; stroke-width: 0px;"/><g class="scrollbox" transform="" clip-path="url(#legendd15e5a)"><g class="groups"><g class="traces" transform="translate(0,14.5)" style="opacity: 1;"><text class="legendtext" text-anchor="start" x="40" y="4.680000000000001" style="font-family: 'Open Sans', verdana, arial, sans-serif; font-size: 12px; fill: rgb(42, 63, 95); fill-opacity: 1; white-space: pre;">Pavel Petr</text><g class="layers" style="opacity: 1;"><g class="legendfill"/><g class="legendlines"><path class="js-line" d="M5,0h30" style="fill: none; stroke: rgb(99, 110, 250); stroke-opacity: 1; stroke-width: 5px;"/></g><g class="legendsymbols"><g class="legendpoints"/></g></g><rect class="legendtoggle" x="0" y="-9.5" width="137.0625" height="19" style="fill: rgb(0, 0, 0); fill-opacity: 0;"/></g><g class="traces" transform="translate(0,33.5)" style="opacity: 1;"><text class="legendtext" text-anchor="start" x="40" y="4.680000000000001" style="font-family: 'Open Sans', verdana, arial, sans-serif; font-size: 12px; fill: rgb(42, 63, 95); fill-opacity: 1; white-space: pre;">Nerudová Danuše</text><g class="layers" style="opacity: 1;"><g class="legendfill"/><g class="legendlines"><path class="js-line" d="M5,0h30" style="fill: none; stroke: rgb(239, 85, 59); stroke-opacity: 1; stroke-width: 5px;"/></g><g class="legendsymbols"><g class="legendpoints"/></g></g><rect class="legendtoggle" x="0" y="-9.5" width="137.0625" height="19" style="fill: rgb(0, 0, 0); fill-opacity: 0;"/></g><g class="traces" transform="translate(0,52.5)" style="opacity: 1;"><text class="legendtext" text-anchor="start" x="40" y="4.680000000000001" style="font-family: 'Open Sans', verdana, arial, sans-serif; font-size: 12px; fill: rgb(42, 63, 95); fill-opacity: 1; white-space: pre;">Babiš Andrej</text><g class="layers" style="opacity: 1;"><g class="legendfill"/><g class="legendlines"><path class="js-line" d="M5,0h30" style="fill: none; stroke: rgb(0, 204, 150); stroke-opacity: 1; stroke-width: 5px;"/></g><g class="legendsymbols"><g class="legendpoints"/></g></g><rect class="legendtoggle" x="0" y="-9.5" width="137.0625" height="19" style="fill: rgb(0, 0, 0); fill-opacity: 0;"/></g><g class="traces" transform="translate(0,71.5)" style="opacity: 1;"><text class="legendtext" text-anchor="start" x="40" y="4.680000000000001" style="font-family: 'Open Sans', verdana, arial, sans-serif; font-size: 12px; fill: rgb(42, 63, 95); fill-opacity: 1; white-space: pre;">Fischer Pavel</text><g class="layers" style="opacity: 1;"><g class="legendfill"/><g class="legendlines"><path class="js-line" d="M5,0h30" style="fill: none; stroke: rgb(171, 99, 250); stroke-opacity: 1; stroke-width: 5px;"/></g><g class="legendsymbols"><g class="legendpoints"/></g></g><rect class="legendtoggle" x="0" y="-9.5" width="137.0625" height="19" style="fill: rgb(0, 0, 0); fill-opacity: 0;"/></g><g class="traces" transform="translate(0,90.5)" style="opacity: 1;"><text class="legendtext" text-anchor="start" x="40" y="4.680000000000001" style="font-family: 'Open Sans', verdana, arial, sans-serif; font-size: 12px; fill: rgb(42, 63, 95); fill-opacity: 1; white-space: pre;">Hilšer Marek</text><g class="layers" style="opacity: 1;"><g class="legendfill"/><g class="legendlines"><path class="js-line" d="M5,0h30" style="fill: none; stroke: rgb(255, 161, 90); stroke-opacity: 1; stroke-width: 5px;"/></g><g class="legendsymbols"><g class="legendpoints"/></g></g><rect class="legendtoggle" x="0" y="-9.5" width="137.0625" height="19" style="fill: rgb(0, 0, 0); fill-opacity: 0;"/></g><g class="traces" transform="translate(0,109.5)" style="opacity: 1;"><text class="legendtext" text-anchor="start" x="40" y="4.680000000000001" style="font-family: 'Open Sans', verdana, arial, sans-serif; font-size: 12px; fill: rgb(42, 63, 95); fill-opacity: 1; white-space: pre;">Středula Josef</text><g class="layers" style="opacity: 1;"><g class="legendfill"/><g class="legendlines"><path class="js-line" d="M5,0h30" style="fill: none; stroke: rgb(25, 211, 243); stroke-opacity: 1; stroke-width: 5px;"/></g><g class="legendsymbols"><g class="legendpoints"/></g></g><rect class="legendtoggle" x="0" y="-9.5" width="137.0625" height="19" style="fill: rgb(0, 0, 0); fill-opacity: 0;"/></g></g></g><rect class="scrollbar" rx="20" ry="3" width="0" height="0" x="0" y="0" style="fill: rgb(128, 139, 164); fill-opacity: 1;"/></g><g class="g-gtitle"/><g class="g-xtitle"/><g class="g-ytitle"/></g></svg>