<svg class="main-svg" xmlns="http://www.w3.org/2000/svg" xmlns:xlink="http://www.w3.org/1999/xlink" width="300" height="135" style="" viewBox="0 0 300 135"><rect x="0" y="0" width="300" height="135" style="fill: rgb(255, 255, 255); fill-opacity: 1;"/><defs id="defs-48ab9e"><g class="clips"><clipPath id="clip48ab9exyplot" class="plotclip"><rect width="280" height="75"/></clipPath><clipPath class="axesclip" id="clip48ab9ex"><rect x="10" y="0" width="280" height="135"/></clipPath><clipPath class="axesclip" id="clip48ab9ey"><rect x="0" y="50" width="300" height="75"/></clipPath><clipPath class="axesclip" id="clip48ab9exy"><rect x="10" y="50" width="280" height="75"/></clipPath></g><g class="gradients"/><g class="patterns"/></defs><g class="bglayer"/><g class="layer-below"><g class="imagelayer"/><g class="shapelayer"/></g><g class="cartesianlayer"><g class="subplot xy"><g class="layer-subplot"><g class="shapelayer"/><g class="imagelayer"/></g><g class="minor-gridlayer"><g class="x"/><g class="y"/></g><g class="gridlayer"><g class="x"><path class="xgrid crisp" transform="translate(15.559999999999999,0)" d="M0,50v75" style="stroke: rgb(235, 240, 248); stroke-opacity: 1; stroke-width: 1px;"/><path class="xgrid crisp" transform="translate(71.19,0)" d="M0,50v75" style="stroke: rgb(235, 240, 248); stroke-opacity: 1; stroke-width: 1px;"/><path class="xgrid crisp" transform="translate(128.68,0)" d="M0,50v75" style="stroke: rgb(235, 240, 248); stroke-opacity: 1; stroke-width: 1px;"/><path class="xgrid crisp" transform="translate(184.3,0)" d="M0,50v75" style="stroke: rgb(235, 240, 248); stroke-opacity: 1; stroke-width: 1px;"/><path class="xgrid crisp" transform="translate(241.79,0)" d="M0,50v75" style="stroke: rgb(235, 240, 248); stroke-opacity: 1; stroke-width: 1px;"/></g><g class="y"><path class="ygrid crisp" transform="translate(0,106.3)" d="M10,0h280" style="stroke: rgb(235, 240, 248); stroke-opacity: 1; stroke-width: 1px;"/><path class="ygrid crisp" transform="translate(0,87.6)" d="M10,0h280" style="stroke: rgb(235, 240, 248); stroke-opacity: 1; stroke-width: 1px;"/><path class="ygrid crisp" transform="translate(0,68.9)" d="M10,0h280" style="stroke: rgb(235, 240, 248); stroke-opacity: 1; stroke-width: 1px;"/></g></g><g class="zerolinelayer"><path class="yzl zl crisp" transform="translate(0,125)" d="M10,0h280" style="stroke: rgb(235, 240, 248); stroke-opacity: 1; stroke-width: 2px;"/></g><path class="xlines-below"/><path class="ylines-below"/><g class="overlines-below"/><g class="xaxislayer-below"/><g class="yaxislayer-below"/><g class="overaxes-below"/><g class="plot" transform="translate(10,50)" clip-path="url(#clip48ab9exyplot)"><g class="scatterlayer mlayer"><g class="trace scatter trace5ed3ea" style="stroke-miterlimit: 2; opacity: 1;"><g class="fills"/><g class="errorbars"/><g class="lines"><path class="js-line" d="M0,5.62L44.5,6.37L46.36,7.12L57.48,7.12L59.34,8.8L63.05,15.72L64.9,15.72L72.32,16.84L74.17,17.4L79.74,17.96L81.59,17.96L111.26,19.08L113.11,20.21L116.82,20.21L118.68,22.26L120.53,22.26L122.38,24.13L126.09,27.13L127.95,27.5L159.47,27.5L161.32,24.13L163.18,21.33L165.03,22.26L172.45,20.21L174.3,20.21L248.48,19.08L250.33,16.28L254.04,13.85L255.89,13.1L263.31,13.1L265.17,4.69L280,3.75" style="vector-effect: non-scaling-stroke; fill: none; stroke: rgb(99, 110, 250); stroke-opacity: 1; stroke-width: 5px; opacity: 1;"/></g><g class="points"/><g class="text"/></g><g class="trace scatter traceca1948" style="stroke-miterlimit: 2; opacity: 1;"><g class="fills"/><g class="errorbars"/><g class="lines"><path class="js-line" d="M0,30.49L111.26,29.74L113.11,27.5L116.82,27.5L118.68,25.82L120.53,25.82L122.38,21.7L126.09,13.85L127.95,11.79L142.78,11.04L144.64,10.3L159.47,10.3L161.32,11.79L165.03,15.72L166.89,15.72L248.48,16.28L250.33,17.4L255.89,17.96L257.75,17.96L261.46,18.52L263.31,17.96L265.17,23.76L267.02,24.51L272.58,25.07L274.44,25.07L276.29,25.07L278.15,26.38L280,27.5" style="vector-effect: non-scaling-stroke; fill: none; stroke: rgb(239, 85, 59); stroke-opacity: 1; stroke-width: 5px; opacity: 1;"/></g><g class="points"/><g class="text"/></g><g class="trace scatter trace6fa02b" style="stroke-miterlimit: 2; opacity: 1;"><g class="fills"/><g class="errorbars"/><g class="lines"><path class="js-line" d="M0,62.66L59.34,63.22L61.19,64.53L64.9,65.46L66.75,65.46L116.82,65.46L118.68,60.79L124.24,61.35L126.09,62.1L129.8,62.1L131.66,62.1L139.07,61.35L140.93,60.79L211.39,60.79L213.25,59.1L216.95,54.62L218.81,54.62L242.91,54.62L244.77,53.12L248.48,52.19L250.33,51.25L252.19,51.25L254.04,49.94L257.75,48.63L259.6,47.7L263.31,45.27L265.17,45.64L280,45.08" style="vector-effect: non-scaling-stroke; fill: none; stroke: rgb(0, 204, 150); stroke-opacity: 1; stroke-width: 5px; opacity: 1;"/></g><g class="points"/><g class="text"/></g><g class="trace scatter traced9a470" style="stroke-miterlimit: 2; opacity: 1;"><g class="fills"/><g class="errorbars"/><g class="lines"><path class="js-line" d="M0,68.45L57.48,68.45L59.34,66.02L63.05,64.9L64.9,64.9L72.32,63.97L74.17,63.59L81.59,63.22L83.44,63.22L124.24,63.22L126.09,64.34L131.66,64.9L133.51,64.9L139.07,64.34L140.93,64.53L161.32,63.22L163.18,64.53L166.89,65.46L168.74,65.46L252.19,66.02L254.04,66.4L267.02,66.58L268.87,65.46L274.44,64.9L276.29,64.9L280,64.9" style="vector-effect: non-scaling-stroke; fill: none; stroke: rgb(171, 99, 250); stroke-opacity: 1; stroke-width: 5px; opacity: 1;"/></g><g class="points"/><g class="text"/></g><g class="trace scatter trace05660d" style="stroke-miterlimit: 2; opacity: 1;"><g class="fills"/><g class="errorbars"/><g class="lines"><path class="js-line" d="M0,61.35L74.17,61.35L76.03,62.1L211.39,63.22L213.25,63.59L220.66,63.97L222.52,63.97L261.46,65.09L263.31,65.46L268.87,66.02L270.73,66.02L280,66.02" style="vector-effect: non-scaling-stroke; fill: none; stroke: rgb(255, 161, 90); stroke-opacity: 1; stroke-width: 5px; opacity: 1;"/></g><g class="points"/><g class="text"/></g></g></g><g class="overplot"/><path class="xlines-above crisp" d="M0,0" style="fill: none;"/><path class="ylines-above crisp" d="M0,0" style="fill: none;"/><g class="overlines-above"/><g class="xaxislayer-above"/><g class="yaxislayer-above"/><g class="overaxes-above"/></g></g><g class="polarlayer"/><g class="smithlayer"/><g class="ternarylayer"/><g class="geolayer"/><g class="funnelarealayer"/><g class="pielayer"/><g class="iciclelayer"/><g class="treemaplayer"/><g class="sunburstlayer"/><g class="glimages"/><defs id="topdefs-48ab9e"><g class="clips"/></defs><g class="layer-above"><g class="imagelayer"/><g class="shapelayer"/></g><g class="infolayer"><g class="g-gtitle"><text class="gtitle" x="15" y="25" text-anchor="start" dy="0em" style="font-family: Ubuntu, verdana, arial, sans-serif; font-size: 16px; fill: rgb(233, 84, 32); opacity: 1; font-weight: normal; white-space: pre;">Prezident/ka ČR 2023</text></g><g class="g-xtitle"/><g class="g-ytitle"/></g></svg>