<svg class="main-svg" xmlns="http://www.w3.org/2000/svg" xmlns:xlink="http://www.w3.org/1999/xlink" width="1200" height="600" style="" viewBox="0 0 1200 600"><rect x="0" y="0" width="1200" height="600" style="fill: rgb(255, 255, 255); fill-opacity: 1;"/><defs id="defs-7e3461"><g class="clips"><clipPath id="clip7e3461xyplot" class="plotclip"><rect width="975" height="530"/></clipPath><clipPath class="axesclip" id="clip7e3461x"><rect x="50" y="0" width="975" height="600"/></clipPath><clipPath class="axesclip" id="clip7e3461y"><rect x="0" y="20" width="1200" height="530"/></clipPath><clipPath class="axesclip" id="clip7e3461xy"><rect x="50" y="20" width="975" height="530"/></clipPath></g><g class="gradients"/><g class="patterns"/></defs><g class="bglayer"/><g class="layer-below"><g class="imagelayer"/><g class="shapelayer"/></g><g class="cartesianlayer"><g class="subplot xy"><g class="layer-subplot"><g class="shapelayer"/><g class="imagelayer"/></g><g class="minor-gridlayer"><g class="x"/><g class="y"/></g><g class="gridlayer"><g class="x"><path class="xgrid crisp" transform="translate(60.09,0)" d="M0,20v530" style="stroke: rgb(235, 240, 248); stroke-opacity: 1; stroke-width: 1px;"/><path class="xgrid crisp" transform="translate(160.95,0)" d="M0,20v530" style="stroke: rgb(235, 240, 248); stroke-opacity: 1; stroke-width: 1px;"/><path class="xgrid crisp" transform="translate(265.16999999999996,0)" d="M0,20v530" style="stroke: rgb(235, 240, 248); stroke-opacity: 1; stroke-width: 1px;"/><path class="xgrid crisp" transform="translate(366.03,0)" d="M0,20v530" style="stroke: rgb(235, 240, 248); stroke-opacity: 1; stroke-width: 1px;"/><path class="xgrid crisp" transform="translate(470.26,0)" d="M0,20v530" style="stroke: rgb(235, 240, 248); stroke-opacity: 1; stroke-width: 1px;"/><path class="xgrid crisp" transform="translate(574.48,0)" d="M0,20v530" style="stroke: rgb(235, 240, 248); stroke-opacity: 1; stroke-width: 1px;"/><path class="xgrid crisp" transform="translate(675.34,0)" d="M0,20v530" style="stroke: rgb(235, 240, 248); stroke-opacity: 1; stroke-width: 1px;"/><path class="xgrid crisp" transform="translate(779.57,0)" d="M0,20v530" style="stroke: rgb(235, 240, 248); stroke-opacity: 1; stroke-width: 1px;"/><path class="xgrid crisp" transform="translate(880.43,0)" d="M0,20v530" style="stroke: rgb(235, 240, 248); stroke-opacity: 1; stroke-width: 1px;"/><path class="xgrid crisp" transform="translate(984.66,0)" d="M0,20v530" style="stroke: rgb(235, 240, 248); stroke-opacity: 1; stroke-width: 1px;"/></g><g class="y"><path class="ygrid crisp" transform="translate(0,475.41)" d="M50,0h975" style="stroke: rgb(235, 240, 248); stroke-opacity: 1; stroke-width: 1px;"/><path class="ygrid crisp" transform="translate(0,400.81)" d="M50,0h975" style="stroke: rgb(235, 240, 248); stroke-opacity: 1; stroke-width: 1px;"/><path class="ygrid crisp" transform="translate(0,326.22)" d="M50,0h975" style="stroke: rgb(235, 240, 248); stroke-opacity: 1; stroke-width: 1px;"/><path class="ygrid crisp" transform="translate(0,251.63)" d="M50,0h975" style="stroke: rgb(235, 240, 248); stroke-opacity: 1; stroke-width: 1px;"/><path class="ygrid crisp" transform="translate(0,177.04)" d="M50,0h975" style="stroke: rgb(235, 240, 248); stroke-opacity: 1; stroke-width: 1px;"/><path class="ygrid crisp" transform="translate(0,102.44)" d="M50,0h975" style="stroke: rgb(235, 240, 248); stroke-opacity: 1; stroke-width: 1px;"/><path class="ygrid crisp" transform="translate(0,27.85)" d="M50,0h975" style="stroke: rgb(235, 240, 248); stroke-opacity: 1; stroke-width: 1px;"/></g></g><g class="zerolinelayer"><path class="yzl zl crisp" transform="translate(0,550)" d="M50,0h975" style="stroke: rgb(235, 240, 248); stroke-opacity: 1; stroke-width: 2px;"/></g><path class="xlines-below"/><path class="ylines-below"/><g class="overlines-below"/><g class="xaxislayer-below"/><g class="yaxislayer-below"/><g class="overaxes-below"/><g class="plot" transform="translate(50,20)" clip-path="url(#clip7e3461xyplot)"><g class="scatterlayer mlayer"><g class="trace scatter trace3617ca" style="stroke-miterlimit: 2; opacity: 1;"><g class="fills"/><g class="errorbars"/><g class="lines"><path class="js-line" d="M0,183.89L77.33,183.89L80.69,188.37L84.05,192.1L87.41,192.1L104.22,192.1L107.59,200.3L114.31,234.61L117.67,234.61L121.03,234.61L124.4,237.6L127.76,240.58L131.12,240.58L137.84,246.55L141.21,246.55L158.02,246.55L161.38,248.79L164.74,251.77L168.1,251.77L201.72,251.77L205.09,256.99L211.81,256.99L215.17,267.43L218.53,267.43L221.9,276.39L225.26,287.57L228.62,291.3L231.98,293.54L235.34,293.54L289.14,293.54L292.5,276.39L295.86,262.21L299.22,267.43L302.59,264.45L305.95,256.99L329.48,256.99L332.84,254.75L336.21,251.77L339.57,251.77L386.64,251.77L390,254.75L393.36,256.99L396.72,256.99L447.16,256.99L450.52,251.77L457.24,227.9L460.6,224.92L463.97,221.19L467.33,221.19L477.41,221.19L480.78,179.41L484.14,179.41L487.5,174.94L632.07,174.94L635.43,183.89L638.79,188.37L642.16,183.89L645.52,192.1L648.88,192.1L662.33,192.1L665.69,179.41L669.05,165.99L672.41,165.99L679.14,165.99L682.5,151.82L689.22,124.96L692.59,113.03L699.31,113.03L726.21,156.29L732.93,165.99L739.66,165.99L743.02,156.29L746.38,156.29L749.74,161.51L753.1,183.89L756.47,207.76L759.83,192.1L803.53,192.1L806.9,188.37L810.26,179.41L813.62,174.94L816.98,174.94L820.34,214.47L833.79,214.47L843.88,246.55L850.6,251.77L853.97,251.77L860.69,293.54L864.05,293.54L874.14,293.54L877.5,285.34L880.86,293.54L884.22,293.54L887.59,297.27L890.95,280.86L894.31,271.91L897.67,256.99L901.03,234.61L904.4,234.61L927.93,234.61L931.29,221.19L934.66,221.19L938.02,211.49L941.38,200.3L944.74,200.3L948.1,200.3L951.47,146.59L954.83,136.15L958.19,136.15L961.55,116.01L964.91,86.92L968.28,80.95L971.64,33.96L975,26.5" style="vector-effect: non-scaling-stroke; fill: none; stroke: rgb(99, 110, 250); stroke-opacity: 1; stroke-width: 5px; opacity: 1;"/></g><g class="points"/><g class="text"/></g><g class="trace scatter trace11627a" style="stroke-miterlimit: 2; opacity: 1;"><g class="fills"/><g class="errorbars"/><g class="lines"><path class="js-line" d="M0,308.46L77.33,308.46L80.69,306.22L84.05,304.73L87.41,304.73L201.72,304.73L205.09,293.54L211.81,293.54L215.17,285.34L218.53,285.34L221.9,264.45L225.26,237.6L228.62,224.92L231.98,214.47L235.34,214.47L255.52,214.47L258.88,211.49L262.24,207.76L265.6,207.76L289.14,207.76L292.5,214.47L295.86,227.9L299.22,234.61L447.16,234.61L450.52,237.6L453.88,243.56L457.24,246.55L467.33,246.55L470.69,248.79L474.05,248.79L477.41,246.55L480.78,274.15L484.14,278.62L487.5,280.86L490.86,280.86L500.95,280.86L504.31,287.57L507.67,293.54L511.03,293.54L517.76,301L521.12,301L564.83,301L568.19,308.46L571.55,315.17L574.91,335.31L578.28,352.47L581.64,352.47L621.98,352.47L625.34,362.91L628.71,372.61L632.07,372.61L635.43,369.63L638.79,372.61L648.88,372.61L652.24,379.32L658.97,388.27L662.33,388.27L669.05,411.4L672.41,411.4L682.5,411.4L685.86,424.82L689.22,435.27L692.59,435.27L699.31,435.27L726.21,321.14L729.57,309.95L732.93,304.73L739.66,304.73L743.02,321.14L749.74,321.14L753.1,324.12L756.47,327.11L759.83,327.11L780,327.11L783.36,330.09L803.53,330.09L806.9,331.58L810.26,330.09L813.62,327.11L816.98,327.11L820.34,301L833.79,301L843.88,297.27L853.97,297.27L857.33,316.67L860.69,338.3L864.05,338.3L880.86,338.3L884.22,343.52L894.31,343.52L897.67,347.99L901.03,352.47L904.4,352.47L927.93,352.47L931.29,361.42L934.66,361.42L938.02,359.18L941.38,356.95L944.74,356.95L948.1,356.95L951.47,372.61L958.19,372.61L961.55,318.9L964.91,311.44L968.28,315.17L971.64,329.35L975,331.58" style="vector-effect: non-scaling-stroke; fill: none; stroke: rgb(239, 85, 59); stroke-opacity: 1; stroke-width: 5px; opacity: 1;"/></g><g class="points"/><g class="text"/></g><g class="trace scatter tracee8f430" style="stroke-miterlimit: 2; opacity: 1;"><g class="fills"/><g class="errorbars"/><g class="lines"><path class="js-line" d="M0,468.09L16.81,468.09L20.17,471.07L107.59,471.07L110.95,477.79L114.31,483.01L117.67,483.01L211.81,483.01L215.17,459.14L218.53,459.14L221.9,460.63L225.26,462.12L228.62,465.85L231.98,468.09L235.34,465.85L248.79,465.85L252.16,462.12L255.52,459.14L258.88,459.14L383.28,459.14L386.64,450.93L390,435.27L393.36,428.55L440.43,428.55L443.79,421.09L447.16,421.09L450.52,416.62L453.88,411.4L457.24,411.4L463.97,398.72L467.33,398.72L470.69,393.5L474.05,385.29L477.41,382.31L480.78,383.8L484.14,383.8L487.5,381.56L494.22,380.81L497.59,380.81L564.83,380.81L568.19,384.54L571.55,388.27L574.91,380.81L578.28,372.61L581.64,372.61L632.07,372.61L635.43,366.64L638.79,361.42L642.16,361.42L645.52,368.88L648.88,372.61L652.24,372.61L655.6,362.91L658.97,352.47L662.33,352.47L669.05,343.52L672.41,343.52L679.14,343.52L682.5,345.76L685.86,333.08L689.22,315.17L699.31,315.17L726.21,346.5L729.57,352.47L732.93,352.47L739.66,352.47L743.02,356.95L746.38,356.95L749.74,354.71L753.1,345.76L756.47,327.11L780,327.11L783.36,324.12L800.17,324.12L803.53,322.63L806.9,321.14L810.26,318.16L813.62,321.14L816.98,315.17L820.34,301L823.71,301L833.79,301L843.88,267.43L850.6,256.99L853.97,256.99L860.69,183.89L864.05,183.89L874.14,183.89L877.5,192.1L884.22,174.94L887.59,174.94L897.67,221.19L901.03,234.61L927.93,234.61L931.29,246.55L934.66,246.55L938.02,256.99L941.38,267.43L944.74,267.43L948.1,267.43L951.47,315.17L954.83,327.11L958.19,327.11L961.55,402.45L964.91,441.23L968.28,446.46L971.64,480.77L975,485.99" style="vector-effect: non-scaling-stroke; fill: none; stroke: rgb(0, 204, 150); stroke-opacity: 1; stroke-width: 5px; opacity: 1;"/></g><g class="points"/><g class="text"/></g></g></g><g class="overplot"/><path class="xlines-above crisp" d="M0,0" style="fill: none;"/><path class="ylines-above crisp" d="M0,0" style="fill: none;"/><g class="overlines-above"/><g class="xaxislayer-above"><g class="xtick"><text text-anchor="middle" x="0" y="563" transform="translate(60.09,0)" style="font-family: 'Open Sans', verdana, arial, sans-serif; font-size: 12px; fill: rgb(42, 63, 95); fill-opacity: 1; white-space: pre; opacity: 1;">1.4.22</text></g><g class="xtick"><text text-anchor="middle" x="0" y="563" style="font-family: 'Open Sans', verdana, arial, sans-serif; font-size: 12px; fill: rgb(42, 63, 95); fill-opacity: 1; white-space: pre; opacity: 1;" transform="translate(160.95,0)">1.5.22</text></g><g class="xtick"><text text-anchor="middle" x="0" y="563" style="font-family: 'Open Sans', verdana, arial, sans-serif; font-size: 12px; fill: rgb(42, 63, 95); fill-opacity: 1; white-space: pre; opacity: 1;" transform="translate(265.16999999999996,0)">1.6.22</text></g><g class="xtick"><text text-anchor="middle" x="0" y="563" style="font-family: 'Open Sans', verdana, arial, sans-serif; font-size: 12px; fill: rgb(42, 63, 95); fill-opacity: 1; white-space: pre; opacity: 1;" transform="translate(366.03,0)">1.7.22</text></g><g class="xtick"><text text-anchor="middle" x="0" y="563" style="font-family: 'Open Sans', verdana, arial, sans-serif; font-size: 12px; fill: rgb(42, 63, 95); fill-opacity: 1; white-space: pre; opacity: 1;" transform="translate(470.26,0)">1.8.22</text></g><g class="xtick"><text text-anchor="middle" x="0" y="563" style="font-family: 'Open Sans', verdana, arial, sans-serif; font-size: 12px; fill: rgb(42, 63, 95); fill-opacity: 1; white-space: pre; opacity: 1;" transform="translate(574.48,0)">1.9.22</text></g><g class="xtick"><text text-anchor="middle" x="0" y="563" style="font-family: 'Open Sans', verdana, arial, sans-serif; font-size: 12px; fill: rgb(42, 63, 95); fill-opacity: 1; white-space: pre; opacity: 1;" transform="translate(675.34,0)">1.10.22</text></g><g class="xtick"><text text-anchor="middle" x="0" y="563" style="font-family: 'Open Sans', verdana, arial, sans-serif; font-size: 12px; fill: rgb(42, 63, 95); fill-opacity: 1; white-space: pre; opacity: 1;" transform="translate(779.57,0)">1.11.22</text></g><g class="xtick"><text text-anchor="middle" x="0" y="563" style="font-family: 'Open Sans', verdana, arial, sans-serif; font-size: 12px; fill: rgb(42, 63, 95); fill-opacity: 1; white-space: pre; opacity: 1;" transform="translate(880.43,0)">1.12.22</text></g><g class="xtick"><text text-anchor="middle" x="0" y="563" style="font-family: 'Open Sans', verdana, arial, sans-serif; font-size: 12px; fill: rgb(42, 63, 95); fill-opacity: 1; white-space: pre; opacity: 1;" transform="translate(984.66,0)">1.1.23</text></g></g><g class="yaxislayer-above"><g class="ytick"><text text-anchor="end" x="49" y="4.199999999999999" transform="translate(0,550)" style="font-family: 'Open Sans', verdana, arial, sans-serif; font-size: 12px; fill: rgb(42, 63, 95); fill-opacity: 1; white-space: pre; opacity: 1;">0%</text></g><g class="ytick"><text text-anchor="end" x="49" y="4.199999999999999" style="font-family: 'Open Sans', verdana, arial, sans-serif; font-size: 12px; fill: rgb(42, 63, 95); fill-opacity: 1; white-space: pre; opacity: 1;" transform="translate(0,475.41)">10%</text></g><g class="ytick"><text text-anchor="end" x="49" y="4.199999999999999" style="font-family: 'Open Sans', verdana, arial, sans-serif; font-size: 12px; fill: rgb(42, 63, 95); fill-opacity: 1; white-space: pre; opacity: 1;" transform="translate(0,400.81)">20%</text></g><g class="ytick"><text text-anchor="end" x="49" y="4.199999999999999" style="font-family: 'Open Sans', verdana, arial, sans-serif; font-size: 12px; fill: rgb(42, 63, 95); fill-opacity: 1; white-space: pre; opacity: 1;" transform="translate(0,326.22)">30%</text></g><g class="ytick"><text text-anchor="end" x="49" y="4.199999999999999" style="font-family: 'Open Sans', verdana, arial, sans-serif; font-size: 12px; fill: rgb(42, 63, 95); fill-opacity: 1; white-space: pre; opacity: 1;" transform="translate(0,251.63)">40%</text></g><g class="ytick"><text text-anchor="end" x="49" y="4.199999999999999" style="font-family: 'Open Sans', verdana, arial, sans-serif; font-size: 12px; fill: rgb(42, 63, 95); fill-opacity: 1; white-space: pre; opacity: 1;" transform="translate(0,177.04)">50%</text></g><g class="ytick"><text text-anchor="end" x="49" y="4.199999999999999" style="font-family: 'Open Sans', verdana, arial, sans-serif; font-size: 12px; fill: rgb(42, 63, 95); fill-opacity: 1; white-space: pre; opacity: 1;" transform="translate(0,102.44)">60%</text></g><g class="ytick"><text text-anchor="end" x="49" y="4.199999999999999" style="font-family: 'Open Sans', verdana, arial, sans-serif; font-size: 12px; fill: rgb(42, 63, 95); fill-opacity: 1; white-space: pre; opacity: 1;" transform="translate(0,27.85)">70%</text></g></g><g class="overaxes-above"/></g></g><g class="polarlayer"/><g class="smithlayer"/><g class="ternarylayer"/><g class="geolayer"/><g class="funnelarealayer"/><g class="pielayer"/><g class="iciclelayer"/><g class="treemaplayer"/><g class="sunburstlayer"/><g class="glimages"/><defs id="topdefs-7e3461"><g class="clips"/><clipPath id="legend7e3461"><rect width="143" height="67" x="0" y="0"/></clipPath></defs><g class="layer-above"><g class="imagelayer"/><g class="shapelayer"/></g><g class="infolayer"><g class="legend" pointer-events="all" transform="translate(1044.5,20)"><rect class="bg" shape-rendering="crispEdges" style="stroke: rgb(68, 68, 68); stroke-opacity: 1; fill: rgb(255, 255, 255); fill-opacity: 1; stroke-width: 0px;" width="143" height="67" x="0" y="0"/><g class="scrollbox" transform="" clip-path="url(#legend7e3461)"><g class="groups"><g class="traces" transform="translate(0,14.5)" style="opacity: 1;"><text class="legendtext" text-anchor="start" x="40" y="4.680000000000001" style="font-family: 'Open Sans', verdana, arial, sans-serif; font-size: 12px; fill: rgb(42, 63, 95); fill-opacity: 1; white-space: pre;">Pavel Petr</text><g class="layers" style="opacity: 1;"><g class="legendfill"/><g class="legendlines"><path class="js-line" d="M5,0h30" style="fill: none; stroke: rgb(99, 110, 250); stroke-opacity: 1; stroke-width: 5px;"/></g><g class="legendsymbols"><g class="legendpoints"/></g></g><rect class="legendtoggle" x="0" y="-9.5" width="137.0625" height="19" style="fill: rgb(0, 0, 0); fill-opacity: 0;"/></g><g class="traces" transform="translate(0,33.5)" style="opacity: 1;"><text class="legendtext" text-anchor="start" x="40" y="4.680000000000001" style="font-family: 'Open Sans', verdana, arial, sans-serif; font-size: 12px; fill: rgb(42, 63, 95); fill-opacity: 1; white-space: pre;">Babiš Andrej</text><g class="layers" style="opacity: 1;"><g class="legendfill"/><g class="legendlines"><path class="js-line" d="M5,0h30" style="fill: none; stroke: rgb(239, 85, 59); stroke-opacity: 1; stroke-width: 5px;"/></g><g class="legendsymbols"><g class="legendpoints"/></g></g><rect class="legendtoggle" x="0" y="-9.5" width="137.0625" height="19" style="fill: rgb(0, 0, 0); fill-opacity: 0;"/></g><g class="traces" transform="translate(0,52.5)" style="opacity: 1;"><text class="legendtext" text-anchor="start" x="40" y="4.680000000000001" style="font-family: 'Open Sans', verdana, arial, sans-serif; font-size: 12px; fill: rgb(42, 63, 95); fill-opacity: 1; white-space: pre;">Nerudová Danuše</text><g class="layers" style="opacity: 1;"><g class="legendfill"/><g class="legendlines"><path class="js-line" d="M5,0h30" style="fill: none; stroke: rgb(0, 204, 150); stroke-opacity: 1; stroke-width: 5px;"/></g><g class="legendsymbols"><g class="legendpoints"/></g></g><rect class="legendtoggle" x="0" y="-9.5" width="137.0625" height="19" style="fill: rgb(0, 0, 0); fill-opacity: 0;"/></g></g></g><rect class="scrollbar" rx="20" ry="3" width="0" height="0" style="fill: rgb(128, 139, 164); fill-opacity: 1;" x="0" y="0"/></g><g class="g-gtitle"/><g class="g-xtitle"/><g class="g-ytitle"/></g></svg>