<svg class="main-svg" xmlns="http://www.w3.org/2000/svg" xmlns:xlink="http://www.w3.org/1999/xlink" width="300" height="135" style="" viewBox="0 0 300 135"><rect x="0" y="0" width="300" height="135" style="fill: rgb(255, 255, 255); fill-opacity: 1;"/><defs id="defs-b832f0"><g class="clips"><clipPath id="clipb832f0xyplot" class="plotclip"><rect width="280" height="75"/></clipPath><clipPath class="axesclip" id="clipb832f0x"><rect x="10" y="0" width="280" height="135"/></clipPath><clipPath class="axesclip" id="clipb832f0y"><rect x="0" y="50" width="300" height="75"/></clipPath><clipPath class="axesclip" id="clipb832f0xy"><rect x="10" y="50" width="280" height="75"/></clipPath></g><g class="gradients"/><g class="patterns"/></defs><g class="bglayer"/><g class="layer-below"><g class="imagelayer"/><g class="shapelayer"/></g><g class="cartesianlayer"><g class="subplot xy"><g class="layer-subplot"><g class="shapelayer"/><g class="imagelayer"/></g><g class="minor-gridlayer"><g class="x"/><g class="y"/></g><g class="gridlayer"><g class="x"><path class="xgrid crisp" transform="translate(41.11,0)" d="M0,50v75" style="stroke: rgb(235, 240, 248); stroke-opacity: 1; stroke-width: 1px;"/><path class="xgrid crisp" transform="translate(98.62,0)" d="M0,50v75" style="stroke: rgb(235, 240, 248); stroke-opacity: 1; stroke-width: 1px;"/><path class="xgrid crisp" transform="translate(157.07,0)" d="M0,50v75" style="stroke: rgb(235, 240, 248); stroke-opacity: 1; stroke-width: 1px;"/><path class="xgrid crisp" transform="translate(214.58,0)" d="M0,50v75" style="stroke: rgb(235, 240, 248); stroke-opacity: 1; stroke-width: 1px;"/><path class="xgrid crisp" transform="translate(272.09,0)" d="M0,50v75" style="stroke: rgb(235, 240, 248); stroke-opacity: 1; stroke-width: 1px;"/></g><g class="y"><path class="ygrid crisp" transform="translate(0,107.95)" d="M10,0h280" style="stroke: rgb(235, 240, 248); stroke-opacity: 1; stroke-width: 1px;"/><path class="ygrid crisp" transform="translate(0,90.91)" d="M10,0h280" style="stroke: rgb(235, 240, 248); stroke-opacity: 1; stroke-width: 1px;"/><path class="ygrid crisp" transform="translate(0,73.86)" d="M10,0h280" style="stroke: rgb(235, 240, 248); stroke-opacity: 1; stroke-width: 1px;"/><path class="ygrid crisp" transform="translate(0,56.82)" d="M10,0h280" style="stroke: rgb(235, 240, 248); stroke-opacity: 1; stroke-width: 1px;"/></g></g><g class="zerolinelayer"><path class="yzl zl crisp" transform="translate(0,125)" d="M10,0h280" style="stroke: rgb(235, 240, 248); stroke-opacity: 1; stroke-width: 2px;"/></g><path class="xlines-below"/><path class="ylines-below"/><g class="overlines-below"/><g class="xaxislayer-below"/><g class="yaxislayer-below"/><g class="overaxes-below"/><g class="plot" transform="translate(10,50)" clip-path="url(#clipb832f0xyplot)"><g class="scatterlayer mlayer"><g class="trace scatter trace3c61b4" style="stroke-miterlimit: 2; opacity: 1;"><g class="fills"/><g class="errorbars"/><g class="lines"><path class="js-line" d="M0,35.8L29.23,36.73L30.17,37.59L33,41.51L33.94,41.51L40.54,42.87L41.48,42.87L59.39,44.06L60.34,45.26L62.22,46.28L63.16,47.47L66.94,48.24L67.88,48.24L81.08,48.24L82.02,46.28L82.96,44.66L83.91,45.26L84.85,44.91L86.73,44.06L87.68,44.06L126.33,43.47L127.27,41.85L130.1,40.06L131.04,40.06L133.87,40.06L134.81,35.28L178.18,35.8L179.12,36.22L181.01,36.73L181.95,36.73L185.72,36.73L186.67,35.28L188.55,33.75L189.49,33.75L190.44,33.75L191.38,32.13L194.21,27.7L195.15,27.7L196.09,27.7L203.64,32.64L207.41,33.75L208.35,32.64L210.24,33.24L211.18,35.8L212.12,38.44L213.06,36.73L226.26,36.22L227.21,35.28L229.09,34.77L230.03,39.29L233.8,39.29L236.63,42.87L239.46,43.47L240.4,46.02L242.29,48.24L243.23,48.24L247.95,48.24L248.89,48.66L253.6,41.51L254.55,41.51L260.2,41.51L261.14,40.06L263.03,38.86L263.97,37.59L265.86,37.59L266.8,31.53L269.63,28.12L270.57,24.72L271.52,24.12L272.46,18.75L273.4,17.98L275.29,3.75L278.11,5.71L279.06,5.71L280,5.11" style="vector-effect: non-scaling-stroke; fill: none; stroke: rgb(99, 110, 250); stroke-opacity: 1; stroke-width: 5px; opacity: 1;"/></g><g class="points"/><g class="text"/></g><g class="trace scatter trace928c34" style="stroke-miterlimit: 2; opacity: 1;"><g class="fills"/><g class="errorbars"/><g class="lines"><path class="js-line" d="M0,49.86L56.57,49.52L57.51,48.24L61.28,47.3L62.22,44.91L65.05,39.29L65.99,39.29L82.02,39.29L82.96,40.82L85.79,41.51L86.73,41.51L127.27,42.53L128.22,42.87L133.87,42.87L134.81,46.02L138.59,46.79L139.53,46.79L141.41,47.47L142.36,48.24L158.38,49.09L159.33,49.86L161.21,53.01L162.15,54.89L175.35,56.08L176.3,57.1L182.9,57.87L183.84,58.38L186.67,60.34L187.61,61.62L191.38,61.62L192.32,63.07L194.21,64.26L195.15,64.26L196.09,64.26L203.64,51.39L205.52,49.52L207.41,49.52L209.29,51.39L210.24,51.39L214.95,51.99L215.89,51.99L229.09,51.99L230.03,49.09L239.46,48.66L240.4,50.8L242.29,53.27L243.23,53.27L251.72,54.38L252.66,54.89L265.86,55.4L266.8,57.1L268.69,57.1L269.63,51.05L271.52,50.63L272.46,52.24L273.4,52.5L275.29,61.53L278.11,57.87L279.06,58.13L280,59.66" style="vector-effect: non-scaling-stroke; fill: none; stroke: rgb(239, 85, 59); stroke-opacity: 1; stroke-width: 5px; opacity: 1;"/></g><g class="points"/><g class="text"/></g></g></g><g class="overplot"/><path class="xlines-above crisp" d="M0,0" style="fill: none;"/><path class="ylines-above crisp" d="M0,0" style="fill: none;"/><g class="overlines-above"/><g class="xaxislayer-above"/><g class="yaxislayer-above"/><g class="overaxes-above"/></g></g><g class="polarlayer"/><g class="smithlayer"/><g class="ternarylayer"/><g class="geolayer"/><g class="funnelarealayer"/><g class="pielayer"/><g class="iciclelayer"/><g class="treemaplayer"/><g class="sunburstlayer"/><g class="glimages"/><defs id="topdefs-b832f0"><g class="clips"/></defs><g class="layer-above"><g class="imagelayer"/><g class="shapelayer"/></g><g class="infolayer"><g class="g-gtitle"><text class="gtitle" x="15" y="25" text-anchor="start" dy="0em" style="font-family: Ubuntu, verdana, arial, sans-serif; font-size: 16px; fill: rgb(233, 84, 32); opacity: 1; font-weight: normal; white-space: pre;">Prezident/ka ČR 2023</text></g><g class="g-xtitle"/><g class="g-ytitle"/></g></svg>