<svg class="main-svg" xmlns="http://www.w3.org/2000/svg" xmlns:xlink="http://www.w3.org/1999/xlink" width="300" height="135" style="" viewBox="0 0 300 135"><rect x="0" y="0" width="300" height="135" style="fill: rgb(255, 255, 255); fill-opacity: 1;"/><defs id="defs-86833e"><g class="clips"><clipPath id="clip86833exyplot" class="plotclip"><rect width="280" height="75"/></clipPath><clipPath class="axesclip" id="clip86833ex"><rect x="10" y="0" width="280" height="135"/></clipPath><clipPath class="axesclip" id="clip86833ey"><rect x="0" y="50" width="300" height="75"/></clipPath><clipPath class="axesclip" id="clip86833exy"><rect x="10" y="50" width="280" height="75"/></clipPath></g><g class="gradients"/><g class="patterns"/></defs><g class="bglayer"/><g class="layer-below"><g class="imagelayer"/><g class="shapelayer"/></g><g class="cartesianlayer"><g class="subplot xy"><g class="layer-subplot"><g class="shapelayer"/><g class="imagelayer"/></g><g class="minor-gridlayer"><g class="x"/><g class="y"/></g><g class="gridlayer"><g class="x"><path class="xgrid crisp" transform="translate(41.43,0)" d="M0,50v75" style="stroke: rgb(235, 240, 248); stroke-opacity: 1; stroke-width: 1px;"/><path class="xgrid crisp" transform="translate(99.52,0)" d="M0,50v75" style="stroke: rgb(235, 240, 248); stroke-opacity: 1; stroke-width: 1px;"/><path class="xgrid crisp" transform="translate(158.57,0)" d="M0,50v75" style="stroke: rgb(235, 240, 248); stroke-opacity: 1; stroke-width: 1px;"/><path class="xgrid crisp" transform="translate(216.67,0)" d="M0,50v75" style="stroke: rgb(235, 240, 248); stroke-opacity: 1; stroke-width: 1px;"/><path class="xgrid crisp" transform="translate(274.76,0)" d="M0,50v75" style="stroke: rgb(235, 240, 248); stroke-opacity: 1; stroke-width: 1px;"/></g><g class="y"><path class="ygrid crisp" transform="translate(0,107.77000000000001)" d="M10,0h280" style="stroke: rgb(235, 240, 248); stroke-opacity: 1; stroke-width: 1px;"/><path class="ygrid crisp" transform="translate(0,90.53999999999999)" d="M10,0h280" style="stroke: rgb(235, 240, 248); stroke-opacity: 1; stroke-width: 1px;"/><path class="ygrid crisp" transform="translate(0,73.31)" d="M10,0h280" style="stroke: rgb(235, 240, 248); stroke-opacity: 1; stroke-width: 1px;"/><path class="ygrid crisp" transform="translate(0,56.08)" d="M10,0h280" style="stroke: rgb(235, 240, 248); stroke-opacity: 1; stroke-width: 1px;"/></g></g><g class="zerolinelayer"><path class="yzl zl crisp" transform="translate(0,125)" d="M10,0h280" style="stroke: rgb(235, 240, 248); stroke-opacity: 1; stroke-width: 2px;"/></g><path class="xlines-below"/><path class="ylines-below"/><g class="overlines-below"/><g class="xaxislayer-below"/><g class="yaxislayer-below"/><g class="overaxes-below"/><g class="plot" transform="translate(10,50)" clip-path="url(#clip86833exyplot)"><g class="scatterlayer mlayer"><g class="trace scatter trace2248c2" style="stroke-miterlimit: 2; opacity: 1;"><g class="fills"/><g class="errorbars"/><g class="lines"><path class="js-line" d="M0,35.8L29.52,36.75L30.48,37.61L33.33,41.49L34.29,41.49L40.95,42.86L41.9,42.86L60,44.07L60.95,45.19L62.86,46.31L63.81,47.52L67.62,48.21L68.57,48.21L81.9,48.21L82.86,46.31L84.76,45.19L85.71,44.93L87.62,44.07L88.57,44.07L127.62,43.47L128.57,41.83L131.43,40.02L132.38,40.02L135.24,40.02L136.19,35.28L180,35.8L180.95,36.23L181.9,35.8L182.86,36.75L187.62,36.75L188.57,35.28L190.48,33.73L191.43,33.73L192.38,33.73L193.33,32.09L197.14,27.7L198.1,27.7L209.52,33.73L210.48,32.7L212.38,33.21L213.33,35.8L214.29,38.47L215.24,36.75L228.57,36.23L229.52,35.28L231.43,34.77L232.38,39.25L236.19,39.25L239.05,42.86L241.9,43.47L242.86,46.05L244.76,48.21L245.71,48.21L250.48,48.21L251.43,48.64L256.19,41.49L257.14,41.49L262.86,41.49L263.81,40.02L265.71,38.9L266.67,37.61L268.57,37.61L269.52,31.58L272.38,28.13L273.33,24.77L274.29,24.08L275.24,18.74L276.19,17.97L278.1,3.75L280,5.13" style="vector-effect: non-scaling-stroke; fill: none; stroke: rgb(99, 110, 250); stroke-opacity: 1; stroke-width: 5px; opacity: 1;"/></g><g class="points"/><g class="text"/></g><g class="trace scatter trace997295" style="stroke-miterlimit: 2; opacity: 1;"><g class="fills"/><g class="errorbars"/><g class="lines"><path class="js-line" d="M0,49.84L57.14,49.5L58.1,48.21L61.9,47.26L62.86,44.93L65.71,39.25L66.67,39.25L82.86,39.25L83.81,40.8L86.67,41.49L87.62,41.49L128.57,42.52L129.52,42.86L135.24,42.86L136.19,46.05L140,46.83L140.95,46.83L142.86,47.52L143.81,48.21L160,49.07L160.95,49.84L162.86,52.94L163.81,54.93L177.14,56.05L178.1,57.17L184.76,57.86L185.71,58.46L188.57,60.35L189.52,61.56L193.33,61.56L194.29,63.11L196.19,64.32L197.14,64.32L198.1,64.32L205.71,51.39L207.62,49.5L209.52,49.5L211.43,51.39L212.38,51.39L217.14,52L218.1,52L231.43,52L232.38,49.07L241.9,48.64L242.86,50.79L244.76,53.29L245.71,53.29L254.29,54.41L255.24,54.93L268.57,55.36L269.52,57.17L271.43,57.17L272.38,51.05L274.29,50.62L275.24,52.26L276.19,52.51L278.1,61.56L280,58.72" style="vector-effect: non-scaling-stroke; fill: none; stroke: rgb(239, 85, 59); stroke-opacity: 1; stroke-width: 5px; opacity: 1;"/></g><g class="points"/><g class="text"/></g></g></g><g class="overplot"/><path class="xlines-above crisp" d="M0,0" style="fill: none;"/><path class="ylines-above crisp" d="M0,0" style="fill: none;"/><g class="overlines-above"/><g class="xaxislayer-above"/><g class="yaxislayer-above"/><g class="overaxes-above"/></g></g><g class="polarlayer"/><g class="smithlayer"/><g class="ternarylayer"/><g class="geolayer"/><g class="funnelarealayer"/><g class="pielayer"/><g class="iciclelayer"/><g class="treemaplayer"/><g class="sunburstlayer"/><g class="glimages"/><defs id="topdefs-86833e"><g class="clips"/></defs><g class="layer-above"><g class="imagelayer"/><g class="shapelayer"/></g><g class="infolayer"><g class="g-gtitle"><text class="gtitle" x="15" y="25" text-anchor="start" dy="0em" style="font-family: Ubuntu, verdana, arial, sans-serif; font-size: 16px; fill: rgb(233, 84, 32); opacity: 1; font-weight: normal; white-space: pre;">Prezident/ka ČR 2023</text></g><g class="g-xtitle"/><g class="g-ytitle"/></g></svg>