<svg class="main-svg" xmlns="http://www.w3.org/2000/svg" xmlns:xlink="http://www.w3.org/1999/xlink" width="300" height="135" style="" viewBox="0 0 300 135"><rect x="0" y="0" width="300" height="135" style="fill: rgb(255, 255, 255); fill-opacity: 1;"/><defs id="defs-fb95c1"><g class="clips"><clipPath id="clipfb95c1xyplot" class="plotclip"><rect width="280" height="75"/></clipPath><clipPath class="axesclip" id="clipfb95c1x"><rect x="10" y="0" width="280" height="135"/></clipPath><clipPath class="axesclip" id="clipfb95c1y"><rect x="0" y="50" width="300" height="75"/></clipPath><clipPath class="axesclip" id="clipfb95c1xy"><rect x="10" y="50" width="280" height="75"/></clipPath></g><g class="gradients"/><g class="patterns"/></defs><g class="bglayer"/><g class="layer-below"><g class="imagelayer"/><g class="shapelayer"/></g><g class="cartesianlayer"><g class="subplot xy"><g class="layer-subplot"><g class="shapelayer"/><g class="imagelayer"/></g><g class="minor-gridlayer"><g class="x"/><g class="y"/></g><g class="gridlayer"><g class="x"><path class="xgrid crisp" transform="translate(54.42,0)" d="M0,50v75" style="stroke: rgb(235, 240, 248); stroke-opacity: 1; stroke-width: 1px;"/><path class="xgrid crisp" transform="translate(136.54000000000002,0)" d="M0,50v75" style="stroke: rgb(235, 240, 248); stroke-opacity: 1; stroke-width: 1px;"/><path class="xgrid crisp" transform="translate(220,0)" d="M0,50v75" style="stroke: rgb(235, 240, 248); stroke-opacity: 1; stroke-width: 1px;"/></g><g class="y"><path class="ygrid crisp" transform="translate(0,109.81)" d="M10,0h280" style="stroke: rgb(235, 240, 248); stroke-opacity: 1; stroke-width: 1px;"/><path class="ygrid crisp" transform="translate(0,94.62)" d="M10,0h280" style="stroke: rgb(235, 240, 248); stroke-opacity: 1; stroke-width: 1px;"/><path class="ygrid crisp" transform="translate(0,79.42)" d="M10,0h280" style="stroke: rgb(235, 240, 248); stroke-opacity: 1; stroke-width: 1px;"/><path class="ygrid crisp" transform="translate(0,64.23)" d="M10,0h280" style="stroke: rgb(235, 240, 248); stroke-opacity: 1; stroke-width: 1px;"/></g></g><g class="zerolinelayer"><path class="yzl zl crisp" transform="translate(0,125)" d="M10,0h280" style="stroke: rgb(235, 240, 248); stroke-opacity: 1; stroke-width: 2px;"/></g><path class="xlines-below"/><path class="ylines-below"/><g class="overlines-below"/><g class="xaxislayer-below"/><g class="yaxislayer-below"/><g class="overaxes-below"/><g class="plot" transform="translate(10,50)" clip-path="url(#clipfb95c1xyplot)"><g class="scatterlayer mlayer"><g class="trace scatter tracef86b4f" style="stroke-miterlimit: 2; opacity: 1;"><g class="fills"/><g class="errorbars"/><g class="lines"><path class="js-line" d="M0,15.9L32.31,16.66L33.65,17.27L41.73,17.27L43.08,18.64L45.77,24.56L47.12,24.56L52.5,25.63L53.85,26.08L57.88,26.54L59.23,26.54L80.77,27.45L82.12,28.36L84.81,28.36L86.15,30.18L87.5,30.18L88.85,31.7L91.54,34.29L92.88,34.59L115.77,34.59L117.12,31.7L118.46,29.27L119.81,30.18L125.19,28.36L126.54,28.36L180.38,27.45L181.73,25.02L185.77,22.28L187.12,22.28L191.15,22.28L192.5,15.14L253.08,14.38L254.42,15.9L255.77,16.66L257.12,15.9L259.81,17.27L261.15,17.27L265.19,17.27L266.54,15.14L269.23,12.87L270.58,12.87L271.92,12.87L273.27,10.43L277.31,3.75L278.65,3.75L280,3.75" style="vector-effect: non-scaling-stroke; fill: none; stroke: rgb(99, 110, 250); stroke-opacity: 1; stroke-width: 5px; opacity: 1;"/></g><g class="points"/><g class="text"/></g><g class="trace scatter trace5033e8" style="stroke-miterlimit: 2; opacity: 1;"><g class="fills"/><g class="errorbars"/><g class="lines"><path class="js-line" d="M0,64.52L43.08,64.97L44.42,66.04L47.12,66.95L48.46,66.95L84.81,66.95L86.15,62.85L91.54,64.06L92.88,64.52L96.92,64.06L98.27,64.06L153.46,62.85L154.81,61.48L157.5,57.68L158.85,57.68L176.35,57.68L177.69,56.31L180.38,55.55L181.73,54.79L184.42,53.73L185.77,52.52L188.46,51.76L189.81,50.24L195.19,49.63L196.54,49.48L227.5,50.24L228.85,50.84L232.88,48.11L234.23,48.11L254.42,47.2L255.77,46.14L257.12,46.14L258.46,47.5L261.15,48.11L262.5,46.44L265.19,44.77L266.54,44.01L269.23,43.1L270.58,43.1L273.27,43.55L274.62,41.43L277.31,38.24L278.65,38.24L280,38.24" style="vector-effect: non-scaling-stroke; fill: none; stroke: rgb(239, 85, 59); stroke-opacity: 1; stroke-width: 5px; opacity: 1;"/></g><g class="points"/><g class="text"/></g><g class="trace scatter trace454638" style="stroke-miterlimit: 2; opacity: 1;"><g class="fills"/><g class="errorbars"/><g class="lines"><path class="js-line" d="M0,37.17L80.77,36.56L82.12,34.59L84.81,34.59L86.15,33.22L87.5,33.22L88.85,29.73L91.54,22.89L92.88,21.22L117.12,21.22L118.46,23.5L121.15,24.56L122.5,24.56L180.38,25.02L181.73,26.08L185.77,26.54L187.12,26.54L189.81,26.99L191.15,26.54L193.85,32.16L195.19,32.46L201.92,33.68L203.27,34.59L205.96,35.35L207.31,35.96L227.5,37.17L228.85,38.24L231.54,44.77L232.88,44.77L249.04,44.77L250.38,46.44L253.08,48.11L254.42,47.65L258.46,48.11L259.81,48.11L266.54,52.97L267.88,54.79L273.27,54.79L274.62,57.07L277.31,58.9L278.65,58.9L280,58.9" style="vector-effect: non-scaling-stroke; fill: none; stroke: rgb(0, 204, 150); stroke-opacity: 1; stroke-width: 5px; opacity: 1;"/></g><g class="points"/><g class="text"/></g><g class="trace scatter tracecfbc10" style="stroke-miterlimit: 2; opacity: 1;"><g class="fills"/><g class="errorbars"/><g class="lines"><path class="js-line" d="M0,73.63L254.42,73.63L255.77,71.96L258.46,70.9L259.81,69.53L262.5,67.71L263.85,67.4L275.96,67.4L277.31,67.86L280,67.86" style="vector-effect: non-scaling-stroke; fill: none; stroke: rgb(171, 99, 250); stroke-opacity: 1; stroke-width: 5px; opacity: 1;"/></g><g class="points"/><g class="text"/></g><g class="trace scatter traceae4780" style="stroke-miterlimit: 2; opacity: 1;"><g class="fills"/><g class="errorbars"/><g class="lines"><path class="js-line" d="M0,69.53L41.73,69.53L43.08,67.4L45.77,66.34L47.12,66.34L53.85,65.28L55.19,64.97L90.19,64.97L91.54,65.88L95.58,66.34L96.92,66.34L105,65.73L106.35,65.73L118.46,66.04L119.81,66.95L183.08,67.4L184.42,67.71L193.85,67.71L195.19,66.95L199.23,66.34L200.58,66.34L226.15,65.28L227.5,62.24L228.85,57.68L230.19,57.68L249.04,57.68L250.38,56.31L253.08,54.79L254.42,54.79L261.15,54.79L262.5,57.68L266.54,61.93L267.88,63.45L271.92,63.45L273.27,65.43L275.96,68.92L277.31,68.92L280,68.92" style="vector-effect: non-scaling-stroke; fill: none; stroke: rgb(255, 161, 90); stroke-opacity: 1; stroke-width: 5px; opacity: 1;"/></g><g class="points"/><g class="text"/></g></g></g><g class="overplot"/><path class="xlines-above crisp" d="M0,0" style="fill: none;"/><path class="ylines-above crisp" d="M0,0" style="fill: none;"/><g class="overlines-above"/><g class="xaxislayer-above"/><g class="yaxislayer-above"/><g class="overaxes-above"/></g></g><g class="polarlayer"/><g class="smithlayer"/><g class="ternarylayer"/><g class="geolayer"/><g class="funnelarealayer"/><g class="pielayer"/><g class="iciclelayer"/><g class="treemaplayer"/><g class="sunburstlayer"/><g class="glimages"/><defs id="topdefs-fb95c1"><g class="clips"/></defs><g class="layer-above"><g class="imagelayer"/><g class="shapelayer"/></g><g class="infolayer"><g class="g-gtitle"><text class="gtitle" x="15" y="25" text-anchor="start" dy="0em" style="font-family: Ubuntu, verdana, arial, sans-serif; font-size: 16px; fill: rgb(233, 84, 32); opacity: 1; font-weight: normal; white-space: pre;">Prezident/ka ČR 2023</text></g><g class="g-xtitle"/><g class="g-ytitle"/></g></svg>