<svg class="main-svg" xmlns="http://www.w3.org/2000/svg" xmlns:xlink="http://www.w3.org/1999/xlink" width="300" height="135" style="" viewBox="0 0 300 135"><rect x="0" y="0" width="300" height="135" style="fill: rgb(255, 255, 255); fill-opacity: 1;"/><defs id="defs-5ef16f"><g class="clips"><clipPath id="clip5ef16fxyplot" class="plotclip"><rect width="280" height="75"/></clipPath><clipPath class="axesclip" id="clip5ef16fx"><rect x="10" y="0" width="280" height="135"/></clipPath><clipPath class="axesclip" id="clip5ef16fy"><rect x="0" y="50" width="300" height="75"/></clipPath><clipPath class="axesclip" id="clip5ef16fxy"><rect x="10" y="50" width="280" height="75"/></clipPath></g><g class="gradients"/><g class="patterns"/></defs><g class="bglayer"/><g class="layer-below"><g class="imagelayer"/><g class="shapelayer"/></g><g class="cartesianlayer"><g class="subplot xy"><g class="layer-subplot"><g class="shapelayer"/><g class="imagelayer"/></g><g class="minor-gridlayer"><g class="x"/><g class="y"/></g><g class="gridlayer"><g class="x"><path class="xgrid crisp" transform="translate(40.7,0)" d="M0,50v75" style="stroke: rgb(235, 240, 248); stroke-opacity: 1; stroke-width: 1px;"/><path class="xgrid crisp" transform="translate(97.44,0)" d="M0,50v75" style="stroke: rgb(235, 240, 248); stroke-opacity: 1; stroke-width: 1px;"/><path class="xgrid crisp" transform="translate(155.12,0)" d="M0,50v75" style="stroke: rgb(235, 240, 248); stroke-opacity: 1; stroke-width: 1px;"/><path class="xgrid crisp" transform="translate(211.86,0)" d="M0,50v75" style="stroke: rgb(235, 240, 248); stroke-opacity: 1; stroke-width: 1px;"/><path class="xgrid crisp" transform="translate(268.6,0)" d="M0,50v75" style="stroke: rgb(235, 240, 248); stroke-opacity: 1; stroke-width: 1px;"/></g><g class="y"><path class="ygrid crisp" transform="translate(0,108.99000000000001)" d="M10,0h280" style="stroke: rgb(235, 240, 248); stroke-opacity: 1; stroke-width: 1px;"/><path class="ygrid crisp" transform="translate(0,92.97999999999999)" d="M10,0h280" style="stroke: rgb(235, 240, 248); stroke-opacity: 1; stroke-width: 1px;"/><path class="ygrid crisp" transform="translate(0,76.97)" d="M10,0h280" style="stroke: rgb(235, 240, 248); stroke-opacity: 1; stroke-width: 1px;"/><path class="ygrid crisp" transform="translate(0,60.96)" d="M10,0h280" style="stroke: rgb(235, 240, 248); stroke-opacity: 1; stroke-width: 1px;"/></g></g><g class="zerolinelayer"><path class="yzl zl crisp" transform="translate(0,125)" d="M10,0h280" style="stroke: rgb(235, 240, 248); stroke-opacity: 1; stroke-width: 2px;"/></g><path class="xlines-below"/><path class="ylines-below"/><g class="overlines-below"/><g class="xaxislayer-below"/><g class="yaxislayer-below"/><g class="overaxes-below"/><g class="plot" transform="translate(10,50)" clip-path="url(#clip5ef16fxyplot)"><g class="scatterlayer mlayer"><g class="trace scatter tracea14e06" style="stroke-miterlimit: 2; opacity: 1;"><g class="fills"/><g class="errorbars"/><g class="lines"><path class="js-line" d="M0,38.25L28.84,39.13L29.77,40.02L32.56,43.62L33.49,43.62L40.93,44.9L41.86,44.9L58.6,46.02L59.53,47.14L61.4,48.1L62.33,49.3L66.98,49.94L67.91,49.94L80,49.94L80.93,48.1L82.79,47.14L83.72,46.82L86.51,46.02L87.44,46.02L124.65,45.46L125.58,43.94L128.37,42.26L129.3,42.26L132.09,42.26L133.02,37.85L175.81,38.25L176.74,38.73L178.6,39.13L179.53,39.13L183.26,39.13L184.19,37.85L186.05,36.41L186.98,36.41L187.91,36.41L188.84,34.89L192.56,30.73L193.49,30.73L204.65,36.41L205.58,35.37L207.44,35.93L208.37,38.25L209.3,40.82L210.23,39.13L223.26,38.73L224.19,37.85L226.05,37.37L226.98,41.54L230.7,41.54L233.49,44.9L236.28,45.46L237.21,47.86L239.07,49.94L240,49.94L244.65,49.94L245.58,50.34L250.23,43.62L251.16,43.62L256.74,43.62L257.67,42.26L259.53,41.14L260.47,40.02L262.33,40.02L263.26,34.33L266.05,31.05L266.98,27.93L267.91,27.37L268.84,22.32L269.77,21.6L271.63,8.31L274.42,10.07L275.35,10.07L277.21,8.79L278.14,6.23L280,3.75" style="vector-effect: non-scaling-stroke; fill: none; stroke: rgb(99, 110, 250); stroke-opacity: 1; stroke-width: 5px; opacity: 1;"/></g><g class="points"/><g class="text"/></g><g class="trace scatter trace80f278" style="stroke-miterlimit: 2; opacity: 1;"><g class="fills"/><g class="errorbars"/><g class="lines"><path class="js-line" d="M0,51.46L55.81,51.14L56.74,49.94L60.47,49.06L61.4,46.82L64.19,41.54L65.12,41.54L80.93,41.54L81.86,42.98L84.65,43.62L85.58,43.62L125.58,44.58L126.51,44.9L132.09,44.9L133.02,47.86L136.74,48.58L137.67,48.58L139.53,49.3L140.47,49.94L156.28,50.74L157.21,51.46L159.07,54.35L160,56.19L173.02,57.31L173.95,58.27L180.47,58.99L181.4,59.47L184.19,61.31L185.12,62.43L188.84,62.43L189.77,63.87L191.63,64.99L192.56,64.99L193.49,64.99L200.93,52.82L202.79,51.14L204.65,51.14L206.51,52.82L207.44,52.82L213.02,53.46L213.95,53.46L226.05,53.46L226.98,50.74L236.28,50.34L237.21,52.34L239.07,54.67L240,54.67L248.37,55.71L249.3,56.19L262.33,56.67L263.26,58.27L265.12,58.27L266.05,52.58L267.91,52.18L268.84,53.71L269.77,53.95L271.63,62.43L274.42,58.99L275.35,59.23L280,66.19" style="vector-effect: non-scaling-stroke; fill: none; stroke: rgb(239, 85, 59); stroke-opacity: 1; stroke-width: 5px; opacity: 1;"/></g><g class="points"/><g class="text"/></g></g></g><g class="overplot"/><path class="xlines-above crisp" d="M0,0" style="fill: none;"/><path class="ylines-above crisp" d="M0,0" style="fill: none;"/><g class="overlines-above"/><g class="xaxislayer-above"/><g class="yaxislayer-above"/><g class="overaxes-above"/></g></g><g class="polarlayer"/><g class="smithlayer"/><g class="ternarylayer"/><g class="geolayer"/><g class="funnelarealayer"/><g class="pielayer"/><g class="iciclelayer"/><g class="treemaplayer"/><g class="sunburstlayer"/><g class="glimages"/><defs id="topdefs-5ef16f"><g class="clips"/></defs><g class="layer-above"><g class="imagelayer"/><g class="shapelayer"/></g><g class="infolayer"><g class="g-gtitle"><text class="gtitle" x="15" y="25" text-anchor="start" dy="0em" style="font-family: Ubuntu, verdana, arial, sans-serif; font-size: 16px; fill: rgb(233, 84, 32); opacity: 1; font-weight: normal; white-space: pre;">Prezident/ka ČR 2023</text></g><g class="g-xtitle"/><g class="g-ytitle"/></g></svg>