<svg class="main-svg" xmlns="http://www.w3.org/2000/svg" xmlns:xlink="http://www.w3.org/1999/xlink" width="300" height="135" style="" viewBox="0 0 300 135"><rect x="0" y="0" width="300" height="135" style="fill: rgb(255, 255, 255); fill-opacity: 1;"/><defs id="defs-0ec475"><g class="clips"><clipPath id="clip0ec475xyplot" class="plotclip"><rect width="280" height="75"/></clipPath><clipPath class="axesclip" id="clip0ec475x"><rect x="10" y="0" width="280" height="135"/></clipPath><clipPath class="axesclip" id="clip0ec475y"><rect x="0" y="50" width="300" height="75"/></clipPath><clipPath class="axesclip" id="clip0ec475xy"><rect x="10" y="50" width="280" height="75"/></clipPath></g><g class="gradients"/><g class="patterns"/></defs><g class="bglayer"/><g class="layer-below"><g class="imagelayer"/><g class="shapelayer"/></g><g class="cartesianlayer"><g class="subplot xy"><g class="layer-subplot"><g class="shapelayer"/><g class="imagelayer"/></g><g class="minor-gridlayer"><g class="x"/><g class="y"/></g><g class="gridlayer"><g class="x"><path class="xgrid crisp" transform="translate(51.81,0)" d="M0,50v75" style="stroke: rgb(235, 240, 248); stroke-opacity: 1; stroke-width: 1px;"/><path class="xgrid crisp" transform="translate(129.1,0)" d="M0,50v75" style="stroke: rgb(235, 240, 248); stroke-opacity: 1; stroke-width: 1px;"/><path class="xgrid crisp" transform="translate(207.65,0)" d="M0,50v75" style="stroke: rgb(235, 240, 248); stroke-opacity: 1; stroke-width: 1px;"/><path class="xgrid crisp" transform="translate(284.93,0)" d="M0,50v75" style="stroke: rgb(235, 240, 248); stroke-opacity: 1; stroke-width: 1px;"/></g><g class="y"><path class="ygrid crisp" transform="translate(0,97.17)" d="M10,0h280" style="stroke: rgb(235, 240, 248); stroke-opacity: 1; stroke-width: 1px;"/><path class="ygrid crisp" transform="translate(0,69.34)" d="M10,0h280" style="stroke: rgb(235, 240, 248); stroke-opacity: 1; stroke-width: 1px;"/></g></g><g class="zerolinelayer"><path class="yzl zl crisp" transform="translate(0,125)" d="M10,0h280" style="stroke: rgb(235, 240, 248); stroke-opacity: 1; stroke-width: 2px;"/></g><path class="xlines-below"/><path class="ylines-below"/><g class="overlines-below"/><g class="xaxislayer-below"/><g class="yaxislayer-below"/><g class="overaxes-below"/><g class="plot" transform="translate(10,50)" clip-path="url(#clip0ec475xyplot)"><g class="scatterlayer mlayer"><g class="trace scatter tracefb6c35" style="stroke-miterlimit: 2; opacity: 1;"><g class="fills"/><g class="errorbars"/><g class="lines"><path class="js-line" d="M0,16L30.41,16.69L31.67,17.39L40.54,18.64L41.81,21.84L44.34,24.62L45.61,24.62L54.48,26.57L55.75,26.57L76.02,27.55L77.29,28.38L79.82,28.38L81.09,30.19L82.35,30.19L83.62,31.72L86.15,34.37L87.42,34.64L108.96,34.64L110.23,31.72L111.49,29.36L112.76,30.19L119.1,28.38L120.36,28.38L169.77,27.55L171.04,25.04L174.84,22.4L176.11,22.4L179.91,22.4L181.18,15.16L238.19,14.47L239.46,16L244.52,17.39L245.79,17.39L249.59,17.39L250.86,15.16L253.39,12.93L254.66,12.93L255.93,12.93L257.19,10.43L261,3.75L262.26,3.75L263.53,3.75L273.67,11.26L276.2,12.93L278.73,12.93L280,11.26" style="vector-effect: non-scaling-stroke; fill: none; stroke: rgb(99, 110, 250); stroke-opacity: 1; stroke-width: 5px; opacity: 1;"/></g><g class="points"/><g class="text"/></g><g class="trace scatter trace62bd01" style="stroke-miterlimit: 2; opacity: 1;"><g class="fills"/><g class="errorbars"/><g class="lines"><path class="js-line" d="M0,37.15L76.02,36.59L77.29,34.64L79.82,34.64L81.09,33.25L82.35,33.25L83.62,29.77L86.15,22.95L87.42,21.15L110.23,21.15L111.49,23.51L114.03,24.62L115.29,24.62L169.77,25.04L171.04,26.15L177.38,26.99L178.64,26.99L179.91,26.57L181.18,31.44L184.98,32.56L186.24,32.56L190.05,33.67L191.31,34.64L193.85,35.34L195.11,35.9L214.12,37.15L215.38,38.26L217.92,44.8L219.19,44.8L234.39,44.8L235.66,46.47L238.19,48.14L239.46,47.59L243.26,48.14L244.52,48.14L248.33,50.79L249.59,50.79L252.13,54.82L253.39,54.82L257.19,54.82L258.46,57.05L261,58.86L262.26,58.86L263.53,58.86L273.67,39.38L276.2,36.59L278.73,36.59L280,39.38" style="vector-effect: non-scaling-stroke; fill: none; stroke: rgb(239, 85, 59); stroke-opacity: 1; stroke-width: 5px; opacity: 1;"/></g><g class="points"/><g class="text"/></g><g class="trace scatter traceaccf7d" style="stroke-miterlimit: 2; opacity: 1;"><g class="fills"/><g class="errorbars"/><g class="lines"><path class="js-line" d="M0,64.42L40.54,64.98L41.81,66.09L44.34,66.93L45.61,66.93L79.82,66.93L81.09,62.89L86.15,64.01L87.42,64.42L92.49,64.01L93.76,64.01L98.82,62.89L100.09,62.89L144.43,62.89L145.7,61.5L148.24,57.74L149.5,57.74L165.97,57.74L167.24,56.35L169.77,55.66L171.04,54.82L173.57,53.71L174.84,52.6L177.38,51.76L178.64,50.23L183.71,49.67L184.98,49.53L214.12,50.23L215.38,50.79L219.19,48.14L220.45,48.14L239.46,47.17L240.72,46.19L241.99,46.19L243.26,47.45L245.79,48.14L247.06,46.47L249.59,44.8L250.86,43.97L253.39,43.13L254.66,43.13L257.19,43.55L258.46,41.32L261,38.26L262.26,38.26L263.53,38.26L273.67,43.69L276.2,44.8L278.73,44.8L280,45.5" style="vector-effect: non-scaling-stroke; fill: none; stroke: rgb(0, 204, 150); stroke-opacity: 1; stroke-width: 5px; opacity: 1;"/></g><g class="points"/><g class="text"/></g><g class="trace scatter trace05dfec" style="stroke-miterlimit: 2; opacity: 1;"><g class="fills"/><g class="errorbars"/><g class="lines"><path class="js-line" d="M0,63.45L82.35,64.01L83.62,64.28L101.36,64.98L102.62,64.98L177.38,66.23L178.64,66.65L187.51,67.49L188.78,67.49L238.19,66.65L239.46,65.26L245.79,66.37L247.06,66.37L257.19,66.37L258.46,67.9L261,69.43L262.26,69.43L280,70.41" style="vector-effect: non-scaling-stroke; fill: none; stroke: rgb(171, 99, 250); stroke-opacity: 1; stroke-width: 5px; opacity: 1;"/></g><g class="points"/><g class="text"/></g><g class="trace scatter trace9ce834" style="stroke-miterlimit: 2; opacity: 1;"><g class="fills"/><g class="errorbars"/><g class="lines"><path class="js-line" d="M0,71.66L145.7,71.1L146.97,70.55L280,71.52" style="vector-effect: non-scaling-stroke; fill: none; stroke: rgb(255, 161, 90); stroke-opacity: 1; stroke-width: 5px; opacity: 1;"/></g><g class="points"/><g class="text"/></g></g></g><g class="overplot"/><path class="xlines-above crisp" d="M0,0" style="fill: none;"/><path class="ylines-above crisp" d="M0,0" style="fill: none;"/><g class="overlines-above"/><g class="xaxislayer-above"/><g class="yaxislayer-above"/><g class="overaxes-above"/></g></g><g class="polarlayer"/><g class="smithlayer"/><g class="ternarylayer"/><g class="geolayer"/><g class="funnelarealayer"/><g class="pielayer"/><g class="iciclelayer"/><g class="treemaplayer"/><g class="sunburstlayer"/><g class="glimages"/><defs id="topdefs-0ec475"><g class="clips"/></defs><g class="layer-above"><g class="imagelayer"/><g class="shapelayer"/></g><g class="infolayer"><g class="g-gtitle"><text class="gtitle" x="15" y="25" text-anchor="start" dy="0em" style="font-family: Ubuntu, verdana, arial, sans-serif; font-size: 16px; fill: rgb(233, 84, 32); opacity: 1; font-weight: normal; white-space: pre;">Prezident/ka ČR 2023</text></g><g class="g-xtitle"/><g class="g-ytitle"/></g></svg>