<svg class="main-svg" xmlns="http://www.w3.org/2000/svg" xmlns:xlink="http://www.w3.org/1999/xlink" width="400" height="400" style="" viewBox="0 0 400 400"><rect x="0" y="0" width="400" height="400" style="fill: rgb(255, 255, 255); fill-opacity: 1;"/><defs id="defs-f2ffd0"><g class="clips"><clipPath id="clipf2ffd0xyplot" class="plotclip"><rect width="191" height="330"/></clipPath><clipPath class="axesclip" id="clipf2ffd0x"><rect x="50" y="0" width="191" height="400"/></clipPath><clipPath class="axesclip" id="clipf2ffd0y"><rect x="0" y="20" width="400" height="330"/></clipPath><clipPath class="axesclip" id="clipf2ffd0xy"><rect x="50" y="20" width="191" height="330"/></clipPath></g><g class="gradients"/><g class="patterns"/></defs><g class="bglayer"/><g class="layer-below"><g class="imagelayer"/><g class="shapelayer"/></g><g class="cartesianlayer"><g class="subplot xy"><g class="layer-subplot"><g class="shapelayer"/><g class="imagelayer"/></g><g class="minor-gridlayer"><g class="x"/><g class="y"/></g><g class="gridlayer"><g class="x"><path class="xgrid crisp" transform="translate(71.73,0)" d="M0,20v330" style="stroke: rgb(235, 240, 248); stroke-opacity: 1; stroke-width: 1px;"/><path class="xgrid crisp" transform="translate(111.91,0)" d="M0,20v330" style="stroke: rgb(235, 240, 248); stroke-opacity: 1; stroke-width: 1px;"/><path class="xgrid crisp" transform="translate(152.74,0)" d="M0,20v330" style="stroke: rgb(235, 240, 248); stroke-opacity: 1; stroke-width: 1px;"/><path class="xgrid crisp" transform="translate(192.92,0)" d="M0,20v330" style="stroke: rgb(235, 240, 248); stroke-opacity: 1; stroke-width: 1px;"/><path class="xgrid crisp" transform="translate(233.1,0)" d="M0,20v330" style="stroke: rgb(235, 240, 248); stroke-opacity: 1; stroke-width: 1px;"/></g><g class="y"><path class="ygrid crisp" transform="translate(0,303.14)" d="M50,0h191" style="stroke: rgb(235, 240, 248); stroke-opacity: 1; stroke-width: 1px;"/><path class="ygrid crisp" transform="translate(0,256.28)" d="M50,0h191" style="stroke: rgb(235, 240, 248); stroke-opacity: 1; stroke-width: 1px;"/><path class="ygrid crisp" transform="translate(0,209.42)" d="M50,0h191" style="stroke: rgb(235, 240, 248); stroke-opacity: 1; stroke-width: 1px;"/><path class="ygrid crisp" transform="translate(0,162.56)" d="M50,0h191" style="stroke: rgb(235, 240, 248); stroke-opacity: 1; stroke-width: 1px;"/><path class="ygrid crisp" transform="translate(0,115.7)" d="M50,0h191" style="stroke: rgb(235, 240, 248); stroke-opacity: 1; stroke-width: 1px;"/><path class="ygrid crisp" transform="translate(0,68.83)" d="M50,0h191" style="stroke: rgb(235, 240, 248); stroke-opacity: 1; stroke-width: 1px;"/><path class="ygrid crisp" transform="translate(0,21.97)" d="M50,0h191" style="stroke: rgb(235, 240, 248); stroke-opacity: 1; stroke-width: 1px;"/></g></g><g class="zerolinelayer"><path class="yzl zl crisp" transform="translate(0,350)" d="M50,0h191" style="stroke: rgb(235, 240, 248); stroke-opacity: 1; stroke-width: 2px;"/></g><path class="xlines-below"/><path class="ylines-below"/><g class="overlines-below"/><g class="xaxislayer-below"/><g class="yaxislayer-below"/><g class="overaxes-below"/><g class="plot" transform="translate(50,20)" clip-path="url(#clipf2ffd0xyplot)"><g class="scatterlayer mlayer"><g class="trace scatter traceb2dc9b" style="stroke-miterlimit: 2; opacity: 1;"><g class="fills"/><g class="errorbars"/><g class="lines"><path class="js-line" d="M0,113.03L15.15,113.03L15.81,115.38L17.12,118.19L17.78,118.19L20.42,118.19L21.08,122.87L23.05,144.43L23.71,144.43L27.66,151.93L28.32,151.93L30.96,151.93L31.61,153.8L33.59,155.21L34.25,155.21L39.52,155.21L40.18,158.96L41.49,158.96L42.15,165.05L42.81,165.05L43.47,171.14L45.44,181.45L46.1,181.45L56.64,181.45L57.3,171.14L57.96,161.77L58.62,165.05L59.28,163.64L60.59,158.96L61.25,158.96L64.54,158.96L65.2,157.08L67.18,155.21L67.84,155.21L75.74,155.21L76.4,157.08L78.38,158.96L79.03,158.96L87.6,158.96L88.26,155.21L90.23,138.34L90.89,136.46L93.52,136.46L94.18,110.22L94.84,110.22L95.5,107.41L123.82,107.41L124.48,113.03L125.14,115.38L125.8,113.03L127.11,118.19L127.77,118.19L129.75,118.19L130.41,110.22L131.72,101.79L132.38,101.79L133.04,101.79L133.7,92.41L136.33,68.05L136.99,68.05L143.58,101.79L144.9,101.79L146.21,95.7L146.87,98.51L148.19,127.56L148.85,118.19L149.51,118.19L157.41,118.19L158.07,115.38L160.04,107.41L160.7,132.25L163.34,132.25L165.31,151.93L167.29,155.21L167.95,169.74L169.27,181.45L169.92,181.45L171.24,181.45L171.9,176.3L173.88,184.26L174.53,173.95L175.85,158.96L176.51,144.43L181.78,144.43L182.44,136.46L183.1,136.46L183.76,129.9L185.07,122.87L185.73,122.87L187.71,82.57L188.37,70.39L191,16.5" style="vector-effect: non-scaling-stroke; fill: none; stroke: rgb(99, 110, 250); stroke-opacity: 1; stroke-width: 5px; opacity: 1;"/></g><g class="points"/><g class="text"/></g><g class="trace scatter trace63a91e" style="stroke-miterlimit: 2; opacity: 1;"><g class="fills"/><g class="errorbars"/><g class="lines"><path class="js-line" d="M0,190.82L15.81,189.89L16.47,188.48L39.52,188.48L40.18,181.45L41.49,181.45L42.15,176.3L42.81,176.3L43.47,163.64L45.44,132.25L46.1,132.25L50.06,132.25L50.71,129.9L52.03,127.56L52.69,127.56L56.64,127.56L57.3,132.25L59.28,144.43L59.93,144.43L87.6,144.43L88.26,146.3L90.23,151.93L90.89,151.93L91.55,151.93L92.21,153.8L92.87,153.8L93.52,151.93L95.5,173.95L96.16,173.95L98.13,173.95L98.79,177.7L101.43,186.61L102.09,186.61L110.65,186.61L111.31,190.82L111.97,195.04L112.62,208.16L113.94,218.47L114.6,218.47L121.84,218.47L122.5,225.03L123.82,231.12L124.48,229.25L126.46,231.12L127.11,231.12L131.72,255.96L132.38,255.96L133.7,255.96L134.36,263.93L135.68,270.49L136.33,270.49L136.99,270.49L142.26,199.26L143.58,188.48L144.9,188.48L146.21,199.26L146.87,199.26L149.51,203.01L150.17,203.01L152.8,203.01L153.46,204.41L158.73,204.41L159.39,203.01L160.04,203.01L160.7,186.61L163.34,186.61L165.31,184.26L167.29,184.26L167.95,195.98L169.27,209.57L169.92,209.57L172.56,209.57L173.22,212.85L175.19,212.85L175.85,215.66L177.17,218.47L177.83,218.47L181.78,218.47L182.44,224.09L183.1,224.09L183.76,222.69L185.73,221.28L186.39,231.12L187.71,231.12L188.37,197.38L189.02,193.17L189.68,195.04L190.34,203.94L191,204.41" style="vector-effect: non-scaling-stroke; fill: none; stroke: rgb(239, 85, 59); stroke-opacity: 1; stroke-width: 5px; opacity: 1;"/></g><g class="points"/><g class="text"/></g><g class="trace scatter trace31c2bb" style="stroke-miterlimit: 2; opacity: 1;"><g class="fills"/><g class="errorbars"/><g class="lines"><path class="js-line" d="M0,291.11L3.29,291.11L3.95,292.98L21.08,292.98L21.73,297.2L23.05,300.48L23.71,300.48L41.49,300.48L42.15,285.48L43.47,286.42L44.13,287.83L45.44,291.11L46.1,289.7L46.76,289.7L48.74,289.7L49.4,287.83L50.71,285.48L51.37,285.48L75.08,285.48L75.74,280.33L77.72,266.27L78.38,266.27L86.28,266.27L86.94,261.58L87.6,261.58L88.26,258.77L93.52,237.22L94.18,238.15L94.84,238.15L96.82,236.28L97.48,236.28L110.65,236.28L111.31,238.62L111.97,240.96L112.62,236.28L113.94,231.12L114.6,231.12L123.82,231.12L124.48,227.84L125.8,224.09L126.46,228.78L127.77,231.12L128.43,225.03L130.41,215.66L131.07,212.85L133.04,212.85L133.7,214.25L135.68,195.04L136.33,195.04L136.99,195.04L142.26,214.72L143.58,218.47L144.9,218.47L146.21,221.28L146.87,219.88L148.85,203.01L149.51,203.01L152.8,203.01L153.46,201.13L157.41,200.2L158.07,199.26L158.73,196.91L159.39,199.26L161.36,186.61L162.02,186.61L163.34,186.61L165.31,165.05L167.29,158.96L167.95,138.34L169.27,113.03L169.92,113.03L171.24,113.03L171.9,118.19L173.88,107.41L174.53,118.19L177.17,144.43L177.83,144.43L181.78,144.43L182.44,151.93L183.1,151.93L183.76,158.96L185.07,165.05L185.73,165.05L189.02,274.24L189.68,277.52L191,300.48" style="vector-effect: non-scaling-stroke; fill: none; stroke: rgb(0, 204, 150); stroke-opacity: 1; stroke-width: 5px; opacity: 1;"/></g><g class="points"/><g class="text"/></g></g></g><g class="overplot"/><path class="xlines-above crisp" d="M0,0" style="fill: none;"/><path class="ylines-above crisp" d="M0,0" style="fill: none;"/><g class="overlines-above"/><g class="xaxislayer-above"><g class="xtick"><text text-anchor="middle" x="0" y="363" transform="translate(71.73,0)" style="font-family: 'Open Sans', verdana, arial, sans-serif; font-size: 12px; fill: rgb(42, 63, 95); fill-opacity: 1; white-space: pre; opacity: 1;">1.5.22</text></g><g class="xtick"><text text-anchor="middle" x="0" y="363" style="font-family: 'Open Sans', verdana, arial, sans-serif; font-size: 12px; fill: rgb(42, 63, 95); fill-opacity: 1; white-space: pre; opacity: 1;" transform="translate(111.91,0)">1.7.22</text></g><g class="xtick"><text text-anchor="middle" x="0" y="363" style="font-family: 'Open Sans', verdana, arial, sans-serif; font-size: 12px; fill: rgb(42, 63, 95); fill-opacity: 1; white-space: pre; opacity: 1;" transform="translate(152.74,0)">1.9.22</text></g><g class="xtick"><text text-anchor="middle" x="0" y="363" style="font-family: 'Open Sans', verdana, arial, sans-serif; font-size: 12px; fill: rgb(42, 63, 95); fill-opacity: 1; white-space: pre; opacity: 1;" transform="translate(192.92,0)">1.11.22</text></g><g class="xtick"><text text-anchor="middle" x="0" y="363" style="font-family: 'Open Sans', verdana, arial, sans-serif; font-size: 12px; fill: rgb(42, 63, 95); fill-opacity: 1; white-space: pre; opacity: 1;" transform="translate(233.1,0)">1.1.23</text></g></g><g class="yaxislayer-above"><g class="ytick"><text text-anchor="end" x="49" y="4.199999999999999" transform="translate(0,350)" style="font-family: 'Open Sans', verdana, arial, sans-serif; font-size: 12px; fill: rgb(42, 63, 95); fill-opacity: 1; white-space: pre; opacity: 1;">0%</text></g><g class="ytick"><text text-anchor="end" x="49" y="4.199999999999999" style="font-family: 'Open Sans', verdana, arial, sans-serif; font-size: 12px; fill: rgb(42, 63, 95); fill-opacity: 1; white-space: pre; opacity: 1;" transform="translate(0,303.14)">10%</text></g><g class="ytick"><text text-anchor="end" x="49" y="4.199999999999999" style="font-family: 'Open Sans', verdana, arial, sans-serif; font-size: 12px; fill: rgb(42, 63, 95); fill-opacity: 1; white-space: pre; opacity: 1;" transform="translate(0,256.28)">20%</text></g><g class="ytick"><text text-anchor="end" x="49" y="4.199999999999999" style="font-family: 'Open Sans', verdana, arial, sans-serif; font-size: 12px; fill: rgb(42, 63, 95); fill-opacity: 1; white-space: pre; opacity: 1;" transform="translate(0,209.42)">30%</text></g><g class="ytick"><text text-anchor="end" x="49" y="4.199999999999999" style="font-family: 'Open Sans', verdana, arial, sans-serif; font-size: 12px; fill: rgb(42, 63, 95); fill-opacity: 1; white-space: pre; opacity: 1;" transform="translate(0,162.56)">40%</text></g><g class="ytick"><text text-anchor="end" x="49" y="4.199999999999999" style="font-family: 'Open Sans', verdana, arial, sans-serif; font-size: 12px; fill: rgb(42, 63, 95); fill-opacity: 1; white-space: pre; opacity: 1;" transform="translate(0,115.7)">50%</text></g><g class="ytick"><text text-anchor="end" x="49" y="4.199999999999999" style="font-family: 'Open Sans', verdana, arial, sans-serif; font-size: 12px; fill: rgb(42, 63, 95); fill-opacity: 1; white-space: pre; opacity: 1;" transform="translate(0,68.83)">60%</text></g><g class="ytick"><text text-anchor="end" x="49" y="4.199999999999999" style="font-family: 'Open Sans', verdana, arial, sans-serif; font-size: 12px; fill: rgb(42, 63, 95); fill-opacity: 1; white-space: pre; opacity: 1;" transform="translate(0,21.97)">70%</text></g></g><g class="overaxes-above"/></g></g><g class="polarlayer"/><g class="smithlayer"/><g class="ternarylayer"/><g class="geolayer"/><g class="funnelarealayer"/><g class="pielayer"/><g class="iciclelayer"/><g class="treemaplayer"/><g class="sunburstlayer"/><g class="glimages"/><defs id="topdefs-f2ffd0"><g class="clips"/><clipPath id="legendf2ffd0"><rect width="143" height="67" x="0" y="0"/></clipPath></defs><g class="layer-above"><g class="imagelayer"/><g class="shapelayer"/></g><g class="infolayer"><g class="legend" pointer-events="all" transform="translate(244.82,20)"><rect class="bg" shape-rendering="crispEdges" width="143" height="67" x="0" y="0" style="stroke: rgb(68, 68, 68); stroke-opacity: 1; fill: rgb(255, 255, 255); fill-opacity: 1; stroke-width: 0px;"/><g class="scrollbox" transform="" clip-path="url(#legendf2ffd0)"><g class="groups"><g class="traces" transform="translate(0,14.5)" style="opacity: 1;"><text class="legendtext" text-anchor="start" x="40" y="4.680000000000001" style="font-family: 'Open Sans', verdana, arial, sans-serif; font-size: 12px; fill: rgb(42, 63, 95); fill-opacity: 1; white-space: pre;">Pavel Petr</text><g class="layers" style="opacity: 1;"><g class="legendfill"/><g class="legendlines"><path class="js-line" d="M5,0h30" style="fill: none; stroke: rgb(99, 110, 250); stroke-opacity: 1; stroke-width: 5px;"/></g><g class="legendsymbols"><g class="legendpoints"/></g></g><rect class="legendtoggle" x="0" y="-9.5" width="137.0625" height="19" style="fill: rgb(0, 0, 0); fill-opacity: 0;"/></g><g class="traces" transform="translate(0,33.5)" style="opacity: 1;"><text class="legendtext" text-anchor="start" x="40" y="4.680000000000001" style="font-family: 'Open Sans', verdana, arial, sans-serif; font-size: 12px; fill: rgb(42, 63, 95); fill-opacity: 1; white-space: pre;">Babiš Andrej</text><g class="layers" style="opacity: 1;"><g class="legendfill"/><g class="legendlines"><path class="js-line" d="M5,0h30" style="fill: none; stroke: rgb(239, 85, 59); stroke-opacity: 1; stroke-width: 5px;"/></g><g class="legendsymbols"><g class="legendpoints"/></g></g><rect class="legendtoggle" x="0" y="-9.5" width="137.0625" height="19" style="fill: rgb(0, 0, 0); fill-opacity: 0;"/></g><g class="traces" transform="translate(0,52.5)" style="opacity: 1;"><text class="legendtext" text-anchor="start" x="40" y="4.680000000000001" style="font-family: 'Open Sans', verdana, arial, sans-serif; font-size: 12px; fill: rgb(42, 63, 95); fill-opacity: 1; white-space: pre;">Nerudová Danuše</text><g class="layers" style="opacity: 1;"><g class="legendfill"/><g class="legendlines"><path class="js-line" d="M5,0h30" style="fill: none; stroke: rgb(0, 204, 150); stroke-opacity: 1; stroke-width: 5px;"/></g><g class="legendsymbols"><g class="legendpoints"/></g></g><rect class="legendtoggle" x="0" y="-9.5" width="137.0625" height="19" style="fill: rgb(0, 0, 0); fill-opacity: 0;"/></g></g></g><rect class="scrollbar" rx="20" ry="3" width="0" height="0" x="0" y="0" style="fill: rgb(128, 139, 164); fill-opacity: 1;"/></g><g class="g-gtitle"/><g class="g-xtitle"/><g class="g-ytitle"/></g></svg>