<svg class="main-svg" xmlns="http://www.w3.org/2000/svg" xmlns:xlink="http://www.w3.org/1999/xlink" width="1200" height="600" style="" viewBox="0 0 1200 600"><rect x="0" y="0" width="1200" height="600" style="fill: rgb(255, 255, 255); fill-opacity: 1;"/><defs id="defs-a6bb2b"><g class="clips"><clipPath id="clipa6bb2bxyplot" class="plotclip"><rect width="975" height="530"/></clipPath><clipPath class="axesclip" id="clipa6bb2bx"><rect x="50" y="0" width="975" height="600"/></clipPath><clipPath class="axesclip" id="clipa6bb2by"><rect x="0" y="20" width="1200" height="530"/></clipPath><clipPath class="axesclip" id="clipa6bb2bxy"><rect x="50" y="20" width="975" height="530"/></clipPath></g><g class="gradients"/><g class="patterns"/></defs><g class="bglayer"/><g class="layer-below"><g class="imagelayer"/><g class="shapelayer"/></g><g class="cartesianlayer"><g class="subplot xy"><g class="layer-subplot"><g class="shapelayer"/><g class="imagelayer"/></g><g class="minor-gridlayer"><g class="x"/><g class="y"/></g><g class="gridlayer"><g class="x"><path class="xgrid crisp" transform="translate(60.09,0)" d="M0,20v530" style="stroke: rgb(235, 240, 248); stroke-opacity: 1; stroke-width: 1px;"/><path class="xgrid crisp" transform="translate(160.95,0)" d="M0,20v530" style="stroke: rgb(235, 240, 248); stroke-opacity: 1; stroke-width: 1px;"/><path class="xgrid crisp" transform="translate(265.16999999999996,0)" d="M0,20v530" style="stroke: rgb(235, 240, 248); stroke-opacity: 1; stroke-width: 1px;"/><path class="xgrid crisp" transform="translate(366.03,0)" d="M0,20v530" style="stroke: rgb(235, 240, 248); stroke-opacity: 1; stroke-width: 1px;"/><path class="xgrid crisp" transform="translate(470.26,0)" d="M0,20v530" style="stroke: rgb(235, 240, 248); stroke-opacity: 1; stroke-width: 1px;"/><path class="xgrid crisp" transform="translate(574.48,0)" d="M0,20v530" style="stroke: rgb(235, 240, 248); stroke-opacity: 1; stroke-width: 1px;"/><path class="xgrid crisp" transform="translate(675.34,0)" d="M0,20v530" style="stroke: rgb(235, 240, 248); stroke-opacity: 1; stroke-width: 1px;"/><path class="xgrid crisp" transform="translate(779.57,0)" d="M0,20v530" style="stroke: rgb(235, 240, 248); stroke-opacity: 1; stroke-width: 1px;"/><path class="xgrid crisp" transform="translate(880.43,0)" d="M0,20v530" style="stroke: rgb(235, 240, 248); stroke-opacity: 1; stroke-width: 1px;"/><path class="xgrid crisp" transform="translate(984.66,0)" d="M0,20v530" style="stroke: rgb(235, 240, 248); stroke-opacity: 1; stroke-width: 1px;"/></g><g class="y"><path class="ygrid crisp" transform="translate(0,452.23)" d="M50,0h975" style="stroke: rgb(235, 240, 248); stroke-opacity: 1; stroke-width: 1px;"/><path class="ygrid crisp" transform="translate(0,354.47)" d="M50,0h975" style="stroke: rgb(235, 240, 248); stroke-opacity: 1; stroke-width: 1px;"/><path class="ygrid crisp" transform="translate(0,256.7)" d="M50,0h975" style="stroke: rgb(235, 240, 248); stroke-opacity: 1; stroke-width: 1px;"/><path class="ygrid crisp" transform="translate(0,158.93)" d="M50,0h975" style="stroke: rgb(235, 240, 248); stroke-opacity: 1; stroke-width: 1px;"/><path class="ygrid crisp" transform="translate(0,61.17)" d="M50,0h975" style="stroke: rgb(235, 240, 248); stroke-opacity: 1; stroke-width: 1px;"/></g></g><g class="zerolinelayer"><path class="yzl zl crisp" transform="translate(0,550)" d="M50,0h975" style="stroke: rgb(235, 240, 248); stroke-opacity: 1; stroke-width: 2px;"/></g><path class="xlines-below"/><path class="ylines-below"/><g class="overlines-below"/><g class="xaxislayer-below"/><g class="yaxislayer-below"/><g class="overaxes-below"/><g class="plot" transform="translate(50,20)" clip-path="url(#clipa6bb2bxyplot)"><g class="scatterlayer mlayer"><g class="trace scatter trace198c1c" style="stroke-miterlimit: 2; opacity: 1;"><g class="fills"/><g class="errorbars"/><g class="lines"><path class="js-line" d="M0,112.53L77.33,112.53L80.69,117.42L84.05,122.31L87.41,122.31L104.22,122.31L107.59,131.11L114.31,173.15L117.67,173.15L121.03,173.15L124.4,177.06L127.76,179.99L131.12,179.99L137.84,187.82L141.21,187.82L158.02,187.82L161.38,190.75L164.74,193.68L168.1,193.68L201.72,193.68L205.09,200.53L211.81,200.53L215.17,212.26L218.53,212.26L221.9,223.99L225.26,236.7L228.62,241.59L231.98,244.52L235.34,244.52L289.14,244.52L292.5,223.99L295.86,206.39L299.22,212.26L302.59,209.32L305.95,200.53L329.48,200.53L332.84,197.59L336.21,193.68L339.57,193.68L386.64,193.68L390,197.59L393.36,200.53L396.72,200.53L447.16,200.53L450.52,193.68L457.24,165.33L460.6,161.42L463.97,157.51L467.33,157.51L477.41,157.51L480.78,106.67L484.14,106.67L487.5,101.78L632.07,101.78L635.43,112.53L638.79,117.42L642.16,112.53L645.52,122.31L648.88,122.31L662.33,122.31L665.69,106.67L669.05,91.03L672.41,91.03L679.14,91.03L682.5,73.43L689.22,40.19L692.59,26.5L699.31,26.5L726.21,79.29L732.93,91.03L739.66,91.03L743.02,79.29L746.38,79.29L749.74,85.16L753.1,112.53L756.47,140.89L759.83,122.31L803.53,122.31L806.9,117.42L810.26,112.53" style="vector-effect: non-scaling-stroke; fill: none; stroke: rgb(99, 110, 250); stroke-opacity: 1; stroke-width: 5px; opacity: 1;"/></g><g class="points"/><g class="text"/></g><g class="trace scatter tracefb90e1" style="stroke-miterlimit: 2; opacity: 1;"><g class="fills"/><g class="errorbars"/><g class="lines"><path class="js-line" d="M0,455.7L16.81,455.7L20.17,458.63L107.59,458.63L110.95,466.45L114.31,473.3L117.67,473.3L211.81,473.3L215.17,443.97L218.53,443.97L221.9,446.9L228.62,451.79L231.98,455.7L235.34,451.79L238.71,451.79L248.79,451.79L252.16,448.85L255.52,443.97L258.88,443.97L383.28,443.97L386.64,435.17L390,415.61L393.36,407.79L440.43,407.79L443.79,398.01L447.16,398.01L450.52,393.13L453.88,387.26L457.24,387.26L463.97,371.62L467.33,371.62L470.69,364.77L474.05,355L477.41,351.09L480.78,353.04L484.14,353.04L487.5,350.11L564.83,350.11L568.19,354.02L571.55,358.91L574.91,350.11L578.28,339.35L581.64,339.35L632.07,339.35L635.43,333.49L638.79,325.67L642.16,325.67L645.52,335.44L648.88,339.35L652.24,339.35L655.6,328.6L658.97,315.89L662.33,315.89L669.05,304.16L672.41,304.16L679.14,304.16L682.5,307.09L685.86,292.43L689.22,269.94L699.31,269.94L726.21,308.07L729.57,315.89L732.93,315.89L739.66,315.89L743.02,320.78L746.38,320.78L749.74,318.82L753.1,307.09L756.47,285.58L780,285.58L783.36,281.67L800.17,281.67L803.53,279.72L806.9,277.76L810.26,277.76" style="vector-effect: non-scaling-stroke; fill: none; stroke: rgb(239, 85, 59); stroke-opacity: 1; stroke-width: 5px; opacity: 1;"/></g><g class="points"/><g class="text"/></g><g class="trace scatter trace6a80e6" style="stroke-miterlimit: 2; opacity: 1;"><g class="fills"/><g class="errorbars"/><g class="lines"><path class="js-line" d="M0,262.12L77.33,262.12L80.69,260.16L84.05,258.21L87.41,258.21L201.72,258.21L205.09,244.52L211.81,244.52L215.17,234.74L218.53,234.74L221.9,209.32L225.26,177.06L228.62,161.42L231.98,149.69L235.34,149.69L255.52,149.69L258.88,144.8L262.24,140.89L265.6,140.89L289.14,140.89L292.5,149.69L295.86,165.33L299.22,173.15L447.16,173.15L450.52,177.06L453.88,183.9L457.24,187.82L467.33,187.82L470.69,190.75L474.05,190.75L477.41,187.82L480.78,221.06L484.14,226.92L487.5,229.86L490.86,229.86L500.95,229.86L504.31,236.7L507.67,244.52L511.03,244.52L517.76,253.32L521.12,253.32L564.83,253.32L568.19,262.12L571.55,269.94L574.91,295.36L578.28,315.89L581.64,315.89L621.98,315.89L625.34,328.6L628.71,339.35L632.07,339.35L635.43,336.42L638.79,339.35L648.88,339.35L652.24,348.15L658.97,358.91L662.33,358.91L669.05,387.26L672.41,387.26L682.5,387.26L685.86,402.9L689.22,415.61L692.59,415.61L699.31,415.61L726.21,277.76L729.57,264.07L732.93,258.21L739.66,258.21L743.02,277.76L749.74,277.76L753.1,281.67L756.47,285.58L759.83,285.58L780,285.58L783.36,288.52L803.53,288.52L806.9,290.47L810.26,292.43" style="vector-effect: non-scaling-stroke; fill: none; stroke: rgb(0, 204, 150); stroke-opacity: 1; stroke-width: 5px; opacity: 1;"/></g><g class="points"/><g class="text"/></g><g class="trace scatter tracedb703f" style="stroke-miterlimit: 2; opacity: 1;"><g class="fills"/><g class="errorbars"/><g class="lines"><path class="js-line" d="M0,448.85L16.81,448.85L20.17,443.97L131.12,443.97L134.48,448.85L137.84,451.79L141.21,451.79L218.53,451.79L221.9,453.74L225.26,455.7L228.62,455.7L252.16,456.67L255.52,458.63L383.28,458.63L386.64,461.56L390,464.5L393.36,464.5L460.6,465.47L463.97,466.45L470.69,467.43L474.05,471.34L484.14,476.23L487.5,476.23L574.91,476.23L578.28,479.16L628.71,479.16L632.07,471.34L635.43,461.56L638.79,464.5L645.52,464.5L648.88,468.41L682.5,468.41L685.86,479.16L689.22,488.94L692.59,490.89L699.31,490.89L726.21,495.78L732.93,496.76L739.66,496.76L759.83,497.74L763.19,498.71L810.26,498.71" style="vector-effect: non-scaling-stroke; fill: none; stroke: rgb(171, 99, 250); stroke-opacity: 1; stroke-width: 5px; opacity: 1;"/></g><g class="points"/><g class="text"/></g><g class="trace scatter trace4f7665" style="stroke-miterlimit: 2; opacity: 1;"><g class="fills"/><g class="errorbars"/><g class="lines"><path class="js-line" d="M0,506.54L110.95,507.51L114.31,508.49L295.86,507.51L299.22,505.56L383.28,505.56L386.64,502.63L390,498.71L393.36,498.71L477.41,499.69L480.78,497.74L487.5,496.76L490.86,498.71L632.07,499.69L635.43,500.67L642.16,505.56L645.52,505.56L759.83,506.54L763.19,507.51L810.26,507.51" style="vector-effect: non-scaling-stroke; fill: none; stroke: rgb(255, 161, 90); stroke-opacity: 1; stroke-width: 5px; opacity: 1;"/></g><g class="points"/><g class="text"/></g><g class="trace scatter traced29d9e" style="stroke-miterlimit: 2; opacity: 1;"><g class="fills"/><g class="errorbars"/><g class="lines"><path class="js-line" d="M0,490.89L104.22,490.89L107.59,476.23L110.95,468.41L114.31,468.41L121.03,468.41L124.4,466.45L127.76,464.5L131.12,464.5L137.84,458.63L141.21,458.63L158.02,458.63L161.38,456.67L168.1,451.79L171.47,451.79L211.81,451.79L215.17,455.7L221.9,455.7L225.26,458.63L228.62,465.47L231.98,468.41L242.07,468.41L245.43,466.45L248.79,464.5L252.16,465.47L255.52,466.45L258.88,465.47L265.6,464.5L268.97,464.5L279.05,464.5L282.41,461.56L285.78,458.63L289.14,458.63L292.5,458.63L295.86,466.45L299.22,473.3L302.59,473.3L326.12,473.3L329.48,471.34L332.84,468.41L336.21,468.41L383.28,468.41L386.64,473.3L390,476.23L393.36,476.23L457.24,476.23L460.6,478.18L467.33,479.16L470.69,479.16L477.41,478.18L480.78,480.14L484.14,479.16L487.5,473.3L490.86,468.41L494.22,468.41L537.93,468.41L541.29,466.45L544.66,464.5L548.02,464.5L561.47,464.5L564.83,461.56L568.19,440.05L571.55,407.79L621.98,407.79L625.34,398.01L628.71,387.26L632.07,387.26L652.24,387.26L655.6,407.79L658.97,422.46L662.33,422.46L669.05,448.85L672.41,448.85L679.14,448.85L682.5,462.54L685.86,481.12L689.22,486.98L699.31,486.98L726.21,514.36L810.26,514.36" style="vector-effect: non-scaling-stroke; fill: none; stroke: rgb(25, 211, 243); stroke-opacity: 1; stroke-width: 5px; opacity: 1;"/></g><g class="points"/><g class="text"/></g></g></g><g class="overplot"/><path class="xlines-above crisp" d="M0,0" style="fill: none;"/><path class="ylines-above crisp" d="M0,0" style="fill: none;"/><g class="overlines-above"/><g class="xaxislayer-above"><g class="xtick"><text text-anchor="middle" x="0" y="563" transform="translate(60.09,0)" style="font-family: 'Open Sans', verdana, arial, sans-serif; font-size: 12px; fill: rgb(42, 63, 95); fill-opacity: 1; white-space: pre; opacity: 1;">1.4.22</text></g><g class="xtick"><text text-anchor="middle" x="0" y="563" style="font-family: 'Open Sans', verdana, arial, sans-serif; font-size: 12px; fill: rgb(42, 63, 95); fill-opacity: 1; white-space: pre; opacity: 1;" transform="translate(160.95,0)">1.5.22</text></g><g class="xtick"><text text-anchor="middle" x="0" y="563" style="font-family: 'Open Sans', verdana, arial, sans-serif; font-size: 12px; fill: rgb(42, 63, 95); fill-opacity: 1; white-space: pre; opacity: 1;" transform="translate(265.16999999999996,0)">1.6.22</text></g><g class="xtick"><text text-anchor="middle" x="0" y="563" style="font-family: 'Open Sans', verdana, arial, sans-serif; font-size: 12px; fill: rgb(42, 63, 95); fill-opacity: 1; white-space: pre; opacity: 1;" transform="translate(366.03,0)">1.7.22</text></g><g class="xtick"><text text-anchor="middle" x="0" y="563" style="font-family: 'Open Sans', verdana, arial, sans-serif; font-size: 12px; fill: rgb(42, 63, 95); fill-opacity: 1; white-space: pre; opacity: 1;" transform="translate(470.26,0)">1.8.22</text></g><g class="xtick"><text text-anchor="middle" x="0" y="563" style="font-family: 'Open Sans', verdana, arial, sans-serif; font-size: 12px; fill: rgb(42, 63, 95); fill-opacity: 1; white-space: pre; opacity: 1;" transform="translate(574.48,0)">1.9.22</text></g><g class="xtick"><text text-anchor="middle" x="0" y="563" style="font-family: 'Open Sans', verdana, arial, sans-serif; font-size: 12px; fill: rgb(42, 63, 95); fill-opacity: 1; white-space: pre; opacity: 1;" transform="translate(675.34,0)">1.10.22</text></g><g class="xtick"><text text-anchor="middle" x="0" y="563" style="font-family: 'Open Sans', verdana, arial, sans-serif; font-size: 12px; fill: rgb(42, 63, 95); fill-opacity: 1; white-space: pre; opacity: 1;" transform="translate(779.57,0)">1.11.22</text></g><g class="xtick"><text text-anchor="middle" x="0" y="563" style="font-family: 'Open Sans', verdana, arial, sans-serif; font-size: 12px; fill: rgb(42, 63, 95); fill-opacity: 1; white-space: pre; opacity: 1;" transform="translate(880.43,0)">1.12.22</text></g><g class="xtick"><text text-anchor="middle" x="0" y="563" style="font-family: 'Open Sans', verdana, arial, sans-serif; font-size: 12px; fill: rgb(42, 63, 95); fill-opacity: 1; white-space: pre; opacity: 1;" transform="translate(984.66,0)">1.1.23</text></g></g><g class="yaxislayer-above"><g class="ytick"><text text-anchor="end" x="49" y="4.199999999999999" transform="translate(0,550)" style="font-family: 'Open Sans', verdana, arial, sans-serif; font-size: 12px; fill: rgb(42, 63, 95); fill-opacity: 1; white-space: pre; opacity: 1;">0%</text></g><g class="ytick"><text text-anchor="end" x="49" y="4.199999999999999" style="font-family: 'Open Sans', verdana, arial, sans-serif; font-size: 12px; fill: rgb(42, 63, 95); fill-opacity: 1; white-space: pre; opacity: 1;" transform="translate(0,452.23)">10%</text></g><g class="ytick"><text text-anchor="end" x="49" y="4.199999999999999" style="font-family: 'Open Sans', verdana, arial, sans-serif; font-size: 12px; fill: rgb(42, 63, 95); fill-opacity: 1; white-space: pre; opacity: 1;" transform="translate(0,354.47)">20%</text></g><g class="ytick"><text text-anchor="end" x="49" y="4.199999999999999" style="font-family: 'Open Sans', verdana, arial, sans-serif; font-size: 12px; fill: rgb(42, 63, 95); fill-opacity: 1; white-space: pre; opacity: 1;" transform="translate(0,256.7)">30%</text></g><g class="ytick"><text text-anchor="end" x="49" y="4.199999999999999" style="font-family: 'Open Sans', verdana, arial, sans-serif; font-size: 12px; fill: rgb(42, 63, 95); fill-opacity: 1; white-space: pre; opacity: 1;" transform="translate(0,158.93)">40%</text></g><g class="ytick"><text text-anchor="end" x="49" y="4.199999999999999" style="font-family: 'Open Sans', verdana, arial, sans-serif; font-size: 12px; fill: rgb(42, 63, 95); fill-opacity: 1; white-space: pre; opacity: 1;" transform="translate(0,61.17)">50%</text></g></g><g class="overaxes-above"/></g></g><g class="polarlayer"/><g class="smithlayer"/><g class="ternarylayer"/><g class="geolayer"/><g class="funnelarealayer"/><g class="pielayer"/><g class="iciclelayer"/><g class="treemaplayer"/><g class="sunburstlayer"/><g class="glimages"/><defs id="topdefs-a6bb2b"><g class="clips"/><clipPath id="legenda6bb2b"><rect width="143" height="124" x="0" y="0"/></clipPath></defs><g class="layer-above"><g class="imagelayer"/><g class="shapelayer"/></g><g class="infolayer"><g class="legend" pointer-events="all" transform="translate(1044.5,20)"><rect class="bg" shape-rendering="crispEdges" style="stroke: rgb(68, 68, 68); stroke-opacity: 1; fill: rgb(255, 255, 255); fill-opacity: 1; stroke-width: 0px;" width="143" height="124" x="0" y="0"/><g class="scrollbox" transform="" clip-path="url(#legenda6bb2b)"><g class="groups"><g class="traces" transform="translate(0,14.5)" style="opacity: 1;"><text class="legendtext" text-anchor="start" x="40" y="4.680000000000001" style="font-family: 'Open Sans', verdana, arial, sans-serif; font-size: 12px; fill: rgb(42, 63, 95); fill-opacity: 1; white-space: pre;">Pavel Petr</text><g class="layers" style="opacity: 1;"><g class="legendfill"/><g class="legendlines"><path class="js-line" d="M5,0h30" style="fill: none; stroke: rgb(99, 110, 250); stroke-opacity: 1; stroke-width: 5px;"/></g><g class="legendsymbols"><g class="legendpoints"/></g></g><rect class="legendtoggle" x="0" y="-9.5" width="137.0625" height="19" style="fill: rgb(0, 0, 0); fill-opacity: 0;"/></g><g class="traces" transform="translate(0,33.5)" style="opacity: 1;"><text class="legendtext" text-anchor="start" x="40" y="4.680000000000001" style="font-family: 'Open Sans', verdana, arial, sans-serif; font-size: 12px; fill: rgb(42, 63, 95); fill-opacity: 1; white-space: pre;">Nerudová Danuše</text><g class="layers" style="opacity: 1;"><g class="legendfill"/><g class="legendlines"><path class="js-line" d="M5,0h30" style="fill: none; stroke: rgb(239, 85, 59); stroke-opacity: 1; stroke-width: 5px;"/></g><g class="legendsymbols"><g class="legendpoints"/></g></g><rect class="legendtoggle" x="0" y="-9.5" width="137.0625" height="19" style="fill: rgb(0, 0, 0); fill-opacity: 0;"/></g><g class="traces" transform="translate(0,52.5)" style="opacity: 1;"><text class="legendtext" text-anchor="start" x="40" y="4.680000000000001" style="font-family: 'Open Sans', verdana, arial, sans-serif; font-size: 12px; fill: rgb(42, 63, 95); fill-opacity: 1; white-space: pre;">Babiš Andrej</text><g class="layers" style="opacity: 1;"><g class="legendfill"/><g class="legendlines"><path class="js-line" d="M5,0h30" style="fill: none; stroke: rgb(0, 204, 150); stroke-opacity: 1; stroke-width: 5px;"/></g><g class="legendsymbols"><g class="legendpoints"/></g></g><rect class="legendtoggle" x="0" y="-9.5" width="137.0625" height="19" style="fill: rgb(0, 0, 0); fill-opacity: 0;"/></g><g class="traces" transform="translate(0,71.5)" style="opacity: 1;"><text class="legendtext" text-anchor="start" x="40" y="4.680000000000001" style="font-family: 'Open Sans', verdana, arial, sans-serif; font-size: 12px; fill: rgb(42, 63, 95); fill-opacity: 1; white-space: pre;">Fischer Pavel</text><g class="layers" style="opacity: 1;"><g class="legendfill"/><g class="legendlines"><path class="js-line" d="M5,0h30" style="fill: none; stroke: rgb(171, 99, 250); stroke-opacity: 1; stroke-width: 5px;"/></g><g class="legendsymbols"><g class="legendpoints"/></g></g><rect class="legendtoggle" x="0" y="-9.5" width="137.0625" height="19" style="fill: rgb(0, 0, 0); fill-opacity: 0;"/></g><g class="traces" transform="translate(0,90.5)" style="opacity: 1;"><text class="legendtext" text-anchor="start" x="40" y="4.680000000000001" style="font-family: 'Open Sans', verdana, arial, sans-serif; font-size: 12px; fill: rgb(42, 63, 95); fill-opacity: 1; white-space: pre;">Hilšer Marek</text><g class="layers" style="opacity: 1;"><g class="legendfill"/><g class="legendlines"><path class="js-line" d="M5,0h30" style="fill: none; stroke: rgb(255, 161, 90); stroke-opacity: 1; stroke-width: 5px;"/></g><g class="legendsymbols"><g class="legendpoints"/></g></g><rect class="legendtoggle" x="0" y="-9.5" width="137.0625" height="19" style="fill: rgb(0, 0, 0); fill-opacity: 0;"/></g><g class="traces" transform="translate(0,109.5)" style="opacity: 1;"><text class="legendtext" text-anchor="start" x="40" y="4.680000000000001" style="font-family: 'Open Sans', verdana, arial, sans-serif; font-size: 12px; fill: rgb(42, 63, 95); fill-opacity: 1; white-space: pre;">Středula Josef</text><g class="layers" style="opacity: 1;"><g class="legendfill"/><g class="legendlines"><path class="js-line" d="M5,0h30" style="fill: none; stroke: rgb(25, 211, 243); stroke-opacity: 1; stroke-width: 5px;"/></g><g class="legendsymbols"><g class="legendpoints"/></g></g><rect class="legendtoggle" x="0" y="-9.5" width="137.0625" height="19" style="fill: rgb(0, 0, 0); fill-opacity: 0;"/></g></g></g><rect class="scrollbar" rx="20" ry="3" width="0" height="0" style="fill: rgb(128, 139, 164); fill-opacity: 1;" x="0" y="0"/></g><g class="g-gtitle"/><g class="g-xtitle"/><g class="g-ytitle"/></g></svg>