<svg class="main-svg" xmlns="http://www.w3.org/2000/svg" xmlns:xlink="http://www.w3.org/1999/xlink" width="300" height="135" style="" viewBox="0 0 300 135"><rect x="0" y="0" width="300" height="135" style="fill: rgb(255, 255, 255); fill-opacity: 1;"/><defs id="defs-fd3f43"><g class="clips"><clipPath id="clipfd3f43xyplot" class="plotclip"><rect width="280" height="75"/></clipPath><clipPath class="axesclip" id="clipfd3f43x"><rect x="10" y="0" width="280" height="135"/></clipPath><clipPath class="axesclip" id="clipfd3f43y"><rect x="0" y="50" width="300" height="75"/></clipPath><clipPath class="axesclip" id="clipfd3f43xy"><rect x="10" y="50" width="280" height="75"/></clipPath></g><g class="gradients"/><g class="patterns"/></defs><g class="bglayer"/><g class="layer-below"><g class="imagelayer"/><g class="shapelayer"/></g><g class="cartesianlayer"><g class="subplot xy"><g class="layer-subplot"><g class="shapelayer"/><g class="imagelayer"/></g><g class="minor-gridlayer"><g class="x"/><g class="y"/></g><g class="gridlayer"><g class="x"><path class="xgrid crisp" transform="translate(56.67,0)" d="M0,50v75" style="stroke: rgb(235, 240, 248); stroke-opacity: 1; stroke-width: 1px;"/><path class="xgrid crisp" transform="translate(142.93,0)" d="M0,50v75" style="stroke: rgb(235, 240, 248); stroke-opacity: 1; stroke-width: 1px;"/><path class="xgrid crisp" transform="translate(230.61,0)" d="M0,50v75" style="stroke: rgb(235, 240, 248); stroke-opacity: 1; stroke-width: 1px;"/></g><g class="y"><path class="ygrid crisp" transform="translate(0,107.00999999999999)" d="M10,0h280" style="stroke: rgb(235, 240, 248); stroke-opacity: 1; stroke-width: 1px;"/><path class="ygrid crisp" transform="translate(0,89.02000000000001)" d="M10,0h280" style="stroke: rgb(235, 240, 248); stroke-opacity: 1; stroke-width: 1px;"/><path class="ygrid crisp" transform="translate(0,71.02)" d="M10,0h280" style="stroke: rgb(235, 240, 248); stroke-opacity: 1; stroke-width: 1px;"/><path class="ygrid crisp" transform="translate(0,53.03)" d="M10,0h280" style="stroke: rgb(235, 240, 248); stroke-opacity: 1; stroke-width: 1px;"/></g></g><g class="zerolinelayer"><path class="yzl zl crisp" transform="translate(0,125)" d="M10,0h280" style="stroke: rgb(235, 240, 248); stroke-opacity: 1; stroke-width: 2px;"/></g><path class="xlines-below"/><path class="ylines-below"/><g class="overlines-below"/><g class="xaxislayer-below"/><g class="yaxislayer-below"/><g class="overaxes-below"/><g class="plot" transform="translate(10,50)" clip-path="url(#clipfd3f43xyplot)"><g class="scatterlayer mlayer"><g class="trace scatter tracefbf142" style="stroke-miterlimit: 2; opacity: 1;"><g class="fills"/><g class="errorbars"/><g class="lines"><path class="js-line" d="M0,5.55L33.94,6.27L35.35,7.17L43.84,7.17L45.25,8.79L48.08,15.63L49.49,15.63L55.15,16.88L56.57,17.42L60.81,17.96L62.22,17.96L84.85,19.04L86.26,20.12L89.09,20.12L90.51,22.28L91.92,22.28L93.33,24.08L96.16,27.14L97.58,27.5L121.62,27.5L123.03,24.08L124.44,21.2L125.86,22.28L131.52,20.12L132.93,20.12L189.49,19.04L190.91,16.16L193.74,13.65L195.15,13.11L200.81,13.11L202.22,4.65L265.86,3.75L267.27,5.55L268.69,6.27L270.1,5.55L272.93,7.17L274.34,7.17L278.59,7.17L280,4.65" style="vector-effect: non-scaling-stroke; fill: none; stroke: rgb(99, 110, 250); stroke-opacity: 1; stroke-width: 5px; opacity: 1;"/></g><g class="points"/><g class="text"/></g><g class="trace scatter trace3a2ee5" style="stroke-miterlimit: 2; opacity: 1;"><g class="fills"/><g class="errorbars"/><g class="lines"><path class="js-line" d="M0,62.59L45.25,63.13L46.67,64.38L49.49,65.46L50.91,65.46L89.09,65.46L90.51,60.79L94.75,61.51L96.16,62.05L98.99,62.05L100.4,62.05L106.06,61.51L107.47,60.79L161.21,60.79L162.63,59.17L165.45,54.67L166.87,54.67L185.25,54.67L186.67,53.05L189.49,52.15L190.91,51.25L192.32,51.25L193.74,49.99L196.57,48.55L197.98,47.65L200.81,45.31L202.22,45.67L238.99,45.85L240.4,46.57L244.65,43.33L246.06,43.33L267.27,42.25L268.69,40.99L270.1,40.99L271.52,42.61L274.34,43.33L275.76,41.53L278.59,39.38L280,38.48" style="vector-effect: non-scaling-stroke; fill: none; stroke: rgb(239, 85, 59); stroke-opacity: 1; stroke-width: 5px; opacity: 1;"/></g><g class="points"/><g class="text"/></g><g class="trace scatter traceb1f34d" style="stroke-miterlimit: 2; opacity: 1;"><g class="fills"/><g class="errorbars"/><g class="lines"><path class="js-line" d="M0,30.56L84.85,29.84L86.26,27.5L89.09,27.5L90.51,25.88L91.92,25.88L93.33,21.74L96.16,13.65L97.58,11.67L108.89,10.95L110.3,10.23L121.62,10.23L123.03,11.67L125.86,15.63L127.27,15.63L189.49,16.16L190.91,17.42L195.15,17.96L196.57,17.96L199.39,18.5L200.81,17.96L203.64,24.62L205.05,24.98L210.71,24.98L212.12,26.24L214.95,27.5L216.36,28.22L219.19,29.12L220.61,29.12L237.58,29.12L238.99,30.56L240.4,31.82L241.82,35.96L243.23,39.38L244.65,39.38L261.62,39.38L263.03,41.53L265.86,43.33L267.27,42.79L271.52,43.33L272.93,43.33L277.17,46.57L278.59,46.57L280,49.09" style="vector-effect: non-scaling-stroke; fill: none; stroke: rgb(0, 204, 150); stroke-opacity: 1; stroke-width: 5px; opacity: 1;"/></g><g class="points"/><g class="text"/></g><g class="trace scatter tracea5365b" style="stroke-miterlimit: 2; opacity: 1;"><g class="fills"/><g class="errorbars"/><g class="lines"><path class="js-line" d="M0,68.52L43.84,68.52L45.25,66.18L48.08,64.74L49.49,64.74L56.57,63.66L57.98,63.13L94.75,63.13L96.16,64.2L100.4,64.74L101.82,64.74L108.89,64.2L110.3,64.02L124.44,64.38L125.86,65.46L162.63,65.46L164.04,66.18L203.64,66.54L205.05,65.46L207.88,64.74L209.29,64.74L237.58,63.66L238.99,60.07L240.4,54.67L241.82,54.67L261.62,54.67L263.03,53.05L265.86,51.25L267.27,51.25L274.34,51.25L275.76,54.67L278.59,57.19L280,59.53" style="vector-effect: non-scaling-stroke; fill: none; stroke: rgb(171, 99, 250); stroke-opacity: 1; stroke-width: 5px; opacity: 1;"/></g><g class="points"/><g class="text"/></g><g class="trace scatter trace7d6b46" style="stroke-miterlimit: 2; opacity: 1;"><g class="fills"/><g class="errorbars"/><g class="lines"><path class="js-line" d="M0,61.51L56.57,61.51L57.98,62.05L161.21,63.13L162.63,63.66L168.28,64.02L169.7,64.02L199.39,65.1L200.81,65.46L205.05,66.18L206.46,66.18L264.44,66.54L265.86,65.1L267.27,63.66L268.69,64.02L280,64.74" style="vector-effect: non-scaling-stroke; fill: none; stroke: rgb(255, 161, 90); stroke-opacity: 1; stroke-width: 5px; opacity: 1;"/></g><g class="points"/><g class="text"/></g></g></g><g class="overplot"/><path class="xlines-above crisp" d="M0,0" style="fill: none;"/><path class="ylines-above crisp" d="M0,0" style="fill: none;"/><g class="overlines-above"/><g class="xaxislayer-above"/><g class="yaxislayer-above"/><g class="overaxes-above"/></g></g><g class="polarlayer"/><g class="smithlayer"/><g class="ternarylayer"/><g class="geolayer"/><g class="funnelarealayer"/><g class="pielayer"/><g class="iciclelayer"/><g class="treemaplayer"/><g class="sunburstlayer"/><g class="glimages"/><defs id="topdefs-fd3f43"><g class="clips"/></defs><g class="layer-above"><g class="imagelayer"/><g class="shapelayer"/></g><g class="infolayer"><g class="g-gtitle"><text class="gtitle" x="15" y="25" text-anchor="start" dy="0em" style="font-family: Ubuntu, verdana, arial, sans-serif; font-size: 16px; fill: rgb(233, 84, 32); opacity: 1; font-weight: normal; white-space: pre;">Prezident/ka ČR 2023</text></g><g class="g-xtitle"/><g class="g-ytitle"/></g></svg>