<svg class="main-svg" xmlns="http://www.w3.org/2000/svg" xmlns:xlink="http://www.w3.org/1999/xlink" width="1200" height="600" style="" viewBox="0 0 1200 600"><rect x="0" y="0" width="1200" height="600" style="fill: rgb(255, 255, 255); fill-opacity: 1;"/><defs id="defs-15d8d1"><g class="clips"><clipPath id="clip15d8d1xyplot" class="plotclip"><rect width="975" height="530"/></clipPath><clipPath class="axesclip" id="clip15d8d1x"><rect x="50" y="0" width="975" height="600"/></clipPath><clipPath class="axesclip" id="clip15d8d1y"><rect x="0" y="20" width="1200" height="530"/></clipPath><clipPath class="axesclip" id="clip15d8d1xy"><rect x="50" y="20" width="975" height="530"/></clipPath></g><g class="gradients"/><g class="patterns"/></defs><g class="bglayer"/><g class="layer-below"><g class="imagelayer"/><g class="shapelayer"/></g><g class="cartesianlayer"><g class="subplot xy"><g class="layer-subplot"><g class="shapelayer"/><g class="imagelayer"/></g><g class="minor-gridlayer"><g class="x"/><g class="y"/></g><g class="gridlayer"><g class="x"><path class="xgrid crisp" transform="translate(60.09,0)" d="M0,20v530" style="stroke: rgb(235, 240, 248); stroke-opacity: 1; stroke-width: 1px;"/><path class="xgrid crisp" transform="translate(160.95,0)" d="M0,20v530" style="stroke: rgb(235, 240, 248); stroke-opacity: 1; stroke-width: 1px;"/><path class="xgrid crisp" transform="translate(265.16999999999996,0)" d="M0,20v530" style="stroke: rgb(235, 240, 248); stroke-opacity: 1; stroke-width: 1px;"/><path class="xgrid crisp" transform="translate(366.03,0)" d="M0,20v530" style="stroke: rgb(235, 240, 248); stroke-opacity: 1; stroke-width: 1px;"/><path class="xgrid crisp" transform="translate(470.26,0)" d="M0,20v530" style="stroke: rgb(235, 240, 248); stroke-opacity: 1; stroke-width: 1px;"/><path class="xgrid crisp" transform="translate(574.48,0)" d="M0,20v530" style="stroke: rgb(235, 240, 248); stroke-opacity: 1; stroke-width: 1px;"/><path class="xgrid crisp" transform="translate(675.34,0)" d="M0,20v530" style="stroke: rgb(235, 240, 248); stroke-opacity: 1; stroke-width: 1px;"/><path class="xgrid crisp" transform="translate(779.57,0)" d="M0,20v530" style="stroke: rgb(235, 240, 248); stroke-opacity: 1; stroke-width: 1px;"/><path class="xgrid crisp" transform="translate(880.43,0)" d="M0,20v530" style="stroke: rgb(235, 240, 248); stroke-opacity: 1; stroke-width: 1px;"/><path class="xgrid crisp" transform="translate(984.66,0)" d="M0,20v530" style="stroke: rgb(235, 240, 248); stroke-opacity: 1; stroke-width: 1px;"/></g><g class="y"><path class="ygrid crisp" transform="translate(0,457.27)" d="M50,0h975" style="stroke: rgb(235, 240, 248); stroke-opacity: 1; stroke-width: 1px;"/><path class="ygrid crisp" transform="translate(0,364.55)" d="M50,0h975" style="stroke: rgb(235, 240, 248); stroke-opacity: 1; stroke-width: 1px;"/><path class="ygrid crisp" transform="translate(0,271.82)" d="M50,0h975" style="stroke: rgb(235, 240, 248); stroke-opacity: 1; stroke-width: 1px;"/><path class="ygrid crisp" transform="translate(0,179.1)" d="M50,0h975" style="stroke: rgb(235, 240, 248); stroke-opacity: 1; stroke-width: 1px;"/><path class="ygrid crisp" transform="translate(0,86.37)" d="M50,0h975" style="stroke: rgb(235, 240, 248); stroke-opacity: 1; stroke-width: 1px;"/></g></g><g class="zerolinelayer"><path class="yzl zl crisp" transform="translate(0,550)" d="M50,0h975" style="stroke: rgb(235, 240, 248); stroke-opacity: 1; stroke-width: 2px;"/></g><path class="xlines-below"/><path class="ylines-below"/><g class="overlines-below"/><g class="xaxislayer-below"/><g class="yaxislayer-below"/><g class="overaxes-below"/><g class="plot" transform="translate(50,20)" clip-path="url(#clip15d8d1xyplot)"><g class="scatterlayer mlayer"><g class="trace scatter trace9d7d01" style="stroke-miterlimit: 2; opacity: 1;"><g class="fills"/><g class="errorbars"/><g class="lines"><path class="js-line" d="M0,455.82L16.81,455.82L20.17,458.6L107.59,458.6L110.95,466.95L114.31,472.51L117.67,472.51L211.81,472.51L215.17,444.69L218.53,444.69L221.9,446.55L225.26,448.4L228.62,452.11L231.98,455.82L235.34,452.11L248.79,452.11L252.16,448.4L255.52,444.69L258.88,444.69L383.28,444.69L386.64,434.49L390,415.95L393.36,407.6L440.43,407.6L443.79,398.33L447.16,398.33L450.52,392.77L453.88,387.2L457.24,387.2L463.97,371.44L467.33,371.44L470.69,364.95L474.05,355.68L477.41,351.97L480.78,353.82L484.14,353.82L487.5,351.04L494.22,350.11L497.59,350.11L564.83,350.11L568.19,354.75L571.55,358.46L574.91,350.11L578.28,339.91L581.64,339.91L632.07,339.91L635.43,333.42L638.79,326L642.16,326L645.52,335.28L648.88,339.91L652.24,339.91L655.6,328.79L658.97,315.8L662.33,315.8L669.05,304.68L672.41,304.68L679.14,304.68L682.5,307.46L685.86,292.62L689.22,270.37L699.31,270.37L726.21,308.39L729.57,315.8L732.93,315.8L739.66,315.8L743.02,321.37L746.38,321.37L749.74,318.59L753.1,307.46L756.47,285.2L780,285.2L783.36,281.5L800.17,281.5L803.53,279.64L806.9,278.71L810.26,274.08L813.62,278.71L816.98,270.37L820.34,253.68L823.71,253.68L833.79,253.68L843.88,212.88L850.6,200.82L853.97,200.82L860.69,112.73L864.05,112.73L874.14,112.73L877.5,122.01L884.22,101.61L887.59,101.61L897.67,158.17L901.03,173.01L914.48,173.01" style="vector-effect: non-scaling-stroke; fill: none; stroke: rgb(99, 110, 250); stroke-opacity: 1; stroke-width: 5px; opacity: 1;"/></g><g class="points"/><g class="text"/></g><g class="trace scatter trace93b4bd" style="stroke-miterlimit: 2; opacity: 1;"><g class="fills"/><g class="errorbars"/><g class="lines"><path class="js-line" d="M0,112.73L77.33,112.73L80.69,117.37L84.05,122.01L87.41,122.01L104.22,122.01L107.59,132.21L114.31,173.01L117.67,173.01L121.03,173.01L124.4,176.72L127.76,180.42L131.12,180.42L137.84,187.84L141.21,187.84L158.02,187.84L161.38,190.62L164.74,194.33L168.1,194.33L201.72,194.33L205.09,200.82L211.81,200.82L215.17,212.88L218.53,212.88L221.9,224.01L225.26,236.99L228.62,242.55L231.98,244.41L235.34,244.41L289.14,244.41L292.5,224.01L295.86,207.31L299.22,212.88L302.59,210.1L305.95,200.82L329.48,200.82L332.84,198.04L336.21,194.33L339.57,194.33L386.64,194.33L390,198.04L393.36,200.82L396.72,200.82L447.16,200.82L450.52,194.33L457.24,165.59L460.6,161.88L463.97,158.17L467.33,158.17L477.41,158.17L480.78,107.17L484.14,107.17L487.5,101.61L632.07,101.61L635.43,112.73L638.79,117.37L642.16,112.73L645.52,122.01L648.88,122.01L662.33,122.01L665.69,107.17L669.05,91.41L672.41,91.41L679.14,91.41L682.5,73.79L689.22,41.34L692.59,26.5L699.31,26.5L726.21,79.35L732.93,91.41L739.66,91.41L743.02,79.35L746.38,79.35L749.74,84.92L753.1,112.73L756.47,140.55L759.83,122.01L803.53,122.01L806.9,117.37L810.26,107.17L813.62,101.61L816.98,101.61L820.34,149.83L833.79,149.83L843.88,187.84L850.6,194.33L853.97,194.33L860.69,244.41L864.05,244.41L874.14,244.41L877.5,235.13L880.86,244.41L884.22,244.41L887.59,249.04L890.95,229.57L894.31,218.44L897.67,200.82L901.03,173.01L904.4,173.01L914.48,173.01" style="vector-effect: non-scaling-stroke; fill: none; stroke: rgb(239, 85, 59); stroke-opacity: 1; stroke-width: 5px; opacity: 1;"/></g><g class="points"/><g class="text"/></g><g class="trace scatter traceacfc1b" style="stroke-miterlimit: 2; opacity: 1;"><g class="fills"/><g class="errorbars"/><g class="lines"><path class="js-line" d="M0,262.95L77.33,262.95L80.69,260.17L84.05,258.31L87.41,258.31L201.72,258.31L205.09,244.41L211.81,244.41L215.17,235.13L218.53,235.13L221.9,210.1L225.26,176.72L228.62,161.88L231.98,149.83L235.34,149.83L255.52,149.83L258.88,145.19L262.24,140.55L265.6,140.55L289.14,140.55L292.5,149.83L295.86,165.59L299.22,173.01L447.16,173.01L450.52,176.72L453.88,184.13L457.24,187.84L467.33,187.84L470.69,190.62L474.05,190.62L477.41,187.84L480.78,221.22L484.14,226.79L487.5,229.57L490.86,229.57L500.95,229.57L504.31,236.99L507.67,244.41L511.03,244.41L517.76,253.68L521.12,253.68L564.83,253.68L568.19,262.95L571.55,270.37L574.91,295.4L578.28,315.8L581.64,315.8L621.98,315.8L625.34,328.79L628.71,339.91L632.07,339.91L635.43,336.2L638.79,339.91L648.88,339.91L652.24,348.26L658.97,358.46L662.33,358.46L669.05,387.2L672.41,387.2L682.5,387.2L685.86,402.97L689.22,415.95L692.59,415.95L699.31,415.95L726.21,278.71L729.57,264.8L732.93,258.31L739.66,258.31L743.02,278.71L749.74,278.71L753.1,281.5L756.47,285.2L759.83,285.2L780,285.2L783.36,288.91L803.53,288.91L806.9,290.77L810.26,288.91L813.62,285.2L816.98,285.2L820.34,253.68L833.79,253.68L843.88,249.04L853.97,249.04L857.33,272.22L860.69,299.11L864.05,299.11L880.86,299.11L884.22,304.68L894.31,304.68L897.67,310.24L901.03,315.8L904.4,315.8L914.48,315.8" style="vector-effect: non-scaling-stroke; fill: none; stroke: rgb(0, 204, 150); stroke-opacity: 1; stroke-width: 5px; opacity: 1;"/></g><g class="points"/><g class="text"/></g></g></g><g class="overplot"/><path class="xlines-above crisp" d="M0,0" style="fill: none;"/><path class="ylines-above crisp" d="M0,0" style="fill: none;"/><g class="overlines-above"/><g class="xaxislayer-above"><g class="xtick"><text text-anchor="middle" x="0" y="563" transform="translate(60.09,0)" style="font-family: 'Open Sans', verdana, arial, sans-serif; font-size: 12px; fill: rgb(42, 63, 95); fill-opacity: 1; white-space: pre; opacity: 1;">1.4.22</text></g><g class="xtick"><text text-anchor="middle" x="0" y="563" style="font-family: 'Open Sans', verdana, arial, sans-serif; font-size: 12px; fill: rgb(42, 63, 95); fill-opacity: 1; white-space: pre; opacity: 1;" transform="translate(160.95,0)">1.5.22</text></g><g class="xtick"><text text-anchor="middle" x="0" y="563" style="font-family: 'Open Sans', verdana, arial, sans-serif; font-size: 12px; fill: rgb(42, 63, 95); fill-opacity: 1; white-space: pre; opacity: 1;" transform="translate(265.16999999999996,0)">1.6.22</text></g><g class="xtick"><text text-anchor="middle" x="0" y="563" style="font-family: 'Open Sans', verdana, arial, sans-serif; font-size: 12px; fill: rgb(42, 63, 95); fill-opacity: 1; white-space: pre; opacity: 1;" transform="translate(366.03,0)">1.7.22</text></g><g class="xtick"><text text-anchor="middle" x="0" y="563" style="font-family: 'Open Sans', verdana, arial, sans-serif; font-size: 12px; fill: rgb(42, 63, 95); fill-opacity: 1; white-space: pre; opacity: 1;" transform="translate(470.26,0)">1.8.22</text></g><g class="xtick"><text text-anchor="middle" x="0" y="563" style="font-family: 'Open Sans', verdana, arial, sans-serif; font-size: 12px; fill: rgb(42, 63, 95); fill-opacity: 1; white-space: pre; opacity: 1;" transform="translate(574.48,0)">1.9.22</text></g><g class="xtick"><text text-anchor="middle" x="0" y="563" style="font-family: 'Open Sans', verdana, arial, sans-serif; font-size: 12px; fill: rgb(42, 63, 95); fill-opacity: 1; white-space: pre; opacity: 1;" transform="translate(675.34,0)">1.10.22</text></g><g class="xtick"><text text-anchor="middle" x="0" y="563" style="font-family: 'Open Sans', verdana, arial, sans-serif; font-size: 12px; fill: rgb(42, 63, 95); fill-opacity: 1; white-space: pre; opacity: 1;" transform="translate(779.57,0)">1.11.22</text></g><g class="xtick"><text text-anchor="middle" x="0" y="563" style="font-family: 'Open Sans', verdana, arial, sans-serif; font-size: 12px; fill: rgb(42, 63, 95); fill-opacity: 1; white-space: pre; opacity: 1;" transform="translate(880.43,0)">1.12.22</text></g><g class="xtick"><text text-anchor="middle" x="0" y="563" style="font-family: 'Open Sans', verdana, arial, sans-serif; font-size: 12px; fill: rgb(42, 63, 95); fill-opacity: 1; white-space: pre; opacity: 1;" transform="translate(984.66,0)">1.1.23</text></g></g><g class="yaxislayer-above"><g class="ytick"><text text-anchor="end" x="49" y="4.199999999999999" transform="translate(0,550)" style="font-family: 'Open Sans', verdana, arial, sans-serif; font-size: 12px; fill: rgb(42, 63, 95); fill-opacity: 1; white-space: pre; opacity: 1;">0%</text></g><g class="ytick"><text text-anchor="end" x="49" y="4.199999999999999" style="font-family: 'Open Sans', verdana, arial, sans-serif; font-size: 12px; fill: rgb(42, 63, 95); fill-opacity: 1; white-space: pre; opacity: 1;" transform="translate(0,457.27)">10%</text></g><g class="ytick"><text text-anchor="end" x="49" y="4.199999999999999" style="font-family: 'Open Sans', verdana, arial, sans-serif; font-size: 12px; fill: rgb(42, 63, 95); fill-opacity: 1; white-space: pre; opacity: 1;" transform="translate(0,364.55)">20%</text></g><g class="ytick"><text text-anchor="end" x="49" y="4.199999999999999" style="font-family: 'Open Sans', verdana, arial, sans-serif; font-size: 12px; fill: rgb(42, 63, 95); fill-opacity: 1; white-space: pre; opacity: 1;" transform="translate(0,271.82)">30%</text></g><g class="ytick"><text text-anchor="end" x="49" y="4.199999999999999" style="font-family: 'Open Sans', verdana, arial, sans-serif; font-size: 12px; fill: rgb(42, 63, 95); fill-opacity: 1; white-space: pre; opacity: 1;" transform="translate(0,179.1)">40%</text></g><g class="ytick"><text text-anchor="end" x="49" y="4.199999999999999" style="font-family: 'Open Sans', verdana, arial, sans-serif; font-size: 12px; fill: rgb(42, 63, 95); fill-opacity: 1; white-space: pre; opacity: 1;" transform="translate(0,86.37)">50%</text></g></g><g class="overaxes-above"/></g></g><g class="polarlayer"/><g class="smithlayer"/><g class="ternarylayer"/><g class="geolayer"/><g class="funnelarealayer"/><g class="pielayer"/><g class="iciclelayer"/><g class="treemaplayer"/><g class="sunburstlayer"/><g class="glimages"/><defs id="topdefs-15d8d1"><g class="clips"/><clipPath id="legend15d8d1"><rect width="143" height="67" x="0" y="0"/></clipPath></defs><g class="layer-above"><g class="imagelayer"/><g class="shapelayer"/></g><g class="infolayer"><g class="legend" pointer-events="all" transform="translate(1044.5,20)"><rect class="bg" shape-rendering="crispEdges" style="stroke: rgb(68, 68, 68); stroke-opacity: 1; fill: rgb(255, 255, 255); fill-opacity: 1; stroke-width: 0px;" width="143" height="67" x="0" y="0"/><g class="scrollbox" transform="" clip-path="url(#legend15d8d1)"><g class="groups"><g class="traces" transform="translate(0,14.5)" style="opacity: 1;"><text class="legendtext" text-anchor="start" x="40" y="4.680000000000001" style="font-family: 'Open Sans', verdana, arial, sans-serif; font-size: 12px; fill: rgb(42, 63, 95); fill-opacity: 1; white-space: pre;">Nerudová Danuše</text><g class="layers" style="opacity: 1;"><g class="legendfill"/><g class="legendlines"><path class="js-line" d="M5,0h30" style="fill: none; stroke: rgb(99, 110, 250); stroke-opacity: 1; stroke-width: 5px;"/></g><g class="legendsymbols"><g class="legendpoints"/></g></g><rect class="legendtoggle" x="0" y="-9.5" width="137.0625" height="19" style="fill: rgb(0, 0, 0); fill-opacity: 0;"/></g><g class="traces" transform="translate(0,33.5)" style="opacity: 1;"><text class="legendtext" text-anchor="start" x="40" y="4.680000000000001" style="font-family: 'Open Sans', verdana, arial, sans-serif; font-size: 12px; fill: rgb(42, 63, 95); fill-opacity: 1; white-space: pre;">Pavel Petr</text><g class="layers" style="opacity: 1;"><g class="legendfill"/><g class="legendlines"><path class="js-line" d="M5,0h30" style="fill: none; stroke: rgb(239, 85, 59); stroke-opacity: 1; stroke-width: 5px;"/></g><g class="legendsymbols"><g class="legendpoints"/></g></g><rect class="legendtoggle" x="0" y="-9.5" width="137.0625" height="19" style="fill: rgb(0, 0, 0); fill-opacity: 0;"/></g><g class="traces" transform="translate(0,52.5)" style="opacity: 1;"><text class="legendtext" text-anchor="start" x="40" y="4.680000000000001" style="font-family: 'Open Sans', verdana, arial, sans-serif; font-size: 12px; fill: rgb(42, 63, 95); fill-opacity: 1; white-space: pre;">Babiš Andrej</text><g class="layers" style="opacity: 1;"><g class="legendfill"/><g class="legendlines"><path class="js-line" d="M5,0h30" style="fill: none; stroke: rgb(0, 204, 150); stroke-opacity: 1; stroke-width: 5px;"/></g><g class="legendsymbols"><g class="legendpoints"/></g></g><rect class="legendtoggle" x="0" y="-9.5" width="137.0625" height="19" style="fill: rgb(0, 0, 0); fill-opacity: 0;"/></g></g></g><rect class="scrollbar" rx="20" ry="3" width="0" height="0" style="fill: rgb(128, 139, 164); fill-opacity: 1;" x="0" y="0"/></g><g class="g-gtitle"/><g class="g-xtitle"/><g class="g-ytitle"/></g></svg>