<svg class="main-svg" xmlns="http://www.w3.org/2000/svg" xmlns:xlink="http://www.w3.org/1999/xlink" width="300" height="135" style="" viewBox="0 0 300 135"><rect x="0" y="0" width="300" height="135" style="fill: rgb(255, 255, 255); fill-opacity: 1;"/><defs id="defs-da1195"><g class="clips"><clipPath id="clipda1195xyplot" class="plotclip"><rect width="280" height="75"/></clipPath><clipPath class="axesclip" id="clipda1195x"><rect x="10" y="0" width="280" height="135"/></clipPath><clipPath class="axesclip" id="clipda1195y"><rect x="0" y="50" width="300" height="75"/></clipPath><clipPath class="axesclip" id="clipda1195xy"><rect x="10" y="50" width="280" height="75"/></clipPath></g><g class="gradients"/><g class="patterns"/></defs><g class="bglayer"/><g class="layer-below"><g class="imagelayer"/><g class="shapelayer"/></g><g class="cartesianlayer"><g class="subplot xy"><g class="layer-subplot"><g class="shapelayer"/><g class="imagelayer"/></g><g class="minor-gridlayer"><g class="x"/><g class="y"/></g><g class="gridlayer"><g class="x"><path class="xgrid crisp" transform="translate(77.78,0)" d="M0,50v75" style="stroke: rgb(235, 240, 248); stroke-opacity: 1; stroke-width: 1px;"/><path class="xgrid crisp" transform="translate(150.4,0)" d="M0,50v75" style="stroke: rgb(235, 240, 248); stroke-opacity: 1; stroke-width: 1px;"/><path class="xgrid crisp" transform="translate(223.83,0)" d="M0,50v75" style="stroke: rgb(235, 240, 248); stroke-opacity: 1; stroke-width: 1px;"/></g><g class="y"><path class="ygrid crisp" transform="translate(0,101.28)" d="M10,0h280" style="stroke: rgb(235, 240, 248); stroke-opacity: 1; stroke-width: 1px;"/><path class="ygrid crisp" transform="translate(0,77.56)" d="M10,0h280" style="stroke: rgb(235, 240, 248); stroke-opacity: 1; stroke-width: 1px;"/><path class="ygrid crisp" transform="translate(0,53.84)" d="M10,0h280" style="stroke: rgb(235, 240, 248); stroke-opacity: 1; stroke-width: 1px;"/></g></g><g class="zerolinelayer"><path class="yzl zl crisp" transform="translate(0,125)" d="M10,0h280" style="stroke: rgb(235, 240, 248); stroke-opacity: 1; stroke-width: 2px;"/></g><path class="xlines-below"/><path class="ylines-below"/><g class="overlines-below"/><g class="xaxislayer-below"/><g class="yaxislayer-below"/><g class="overaxes-below"/><g class="plot" transform="translate(10,50)" clip-path="url(#clipda1195xyplot)"><g class="scatterlayer mlayer"><g class="trace scatter trace0fb3b7" style="stroke-miterlimit: 2; opacity: 1;"><g class="fills"/><g class="errorbars"/><g class="lines"><path class="js-line" d="M0,10.8Q14.73,10.81 25.82,10.97C45.91,11.27 91.34,13.8 110.55,12.92C120.5,12.46 125.74,10.96 133.14,10.32C140.25,9.71 146.94,9.55 154.12,9.13C161.71,8.68 172.38,7.94 177.52,7.7C180.04,7.58 180.85,7.63 183.17,7.51C186.89,7.32 191.93,6.92 197.69,6.51C206.18,5.91 220.67,4.7 229.16,4.25C234.92,3.94 238.92,3.83 243.69,3.75C248.33,3.68 253.33,3.78 257.41,3.78C260.69,3.78 266.28,3.76 266.28,3.78C266.28,3.8 250.95,3.9 250.95,3.92C250.95,3.95 280,3.95 280,3.88Q280,3.85 275.16,3.76" style="vector-effect: non-scaling-stroke; fill: none; stroke: rgb(38, 16, 96); stroke-opacity: 1; stroke-width: 5px; opacity: 1;"/></g><g class="points"/><g class="text"/></g><g class="trace scatter tracee39107" style="stroke-miterlimit: 2; opacity: 1;"><g class="fills"/><g class="errorbars"/><g class="lines"><path class="js-line" d="M0,41.35Q14.76,40.3 25.82,38.81C45.95,36.09 91.27,26.51 110.55,24.2C120.44,23.01 125.75,22.94 133.14,22.66C140.26,22.39 147,21.56 154.12,22.49C161.77,23.49 172.35,28.18 177.52,28.89C180.02,29.23 180.87,28.67 183.17,28.93C186.91,29.35 191.89,31.19 197.69,32.16C206.15,33.58 220.66,35.21 229.16,35.75C234.92,36.12 238.92,36.03 243.69,35.96C248.33,35.89 253.34,35.3 257.41,35.36C260.69,35.41 266.28,35.94 266.28,36.03C266.27,36.15 250.95,35.81 250.95,35.72C250.95,35.6 279.99,35.27 280,35.43Q280,35.49 275.16,35.75" style="vector-effect: non-scaling-stroke; fill: none; stroke: rgb(0, 68, 148); stroke-opacity: 1; stroke-width: 5px; opacity: 1;"/></g><g class="points"/><g class="text"/></g><g class="trace scatter trace8ebd76" style="stroke-miterlimit: 2; opacity: 1;"><g class="fills"/><g class="errorbars"/><g class="lines"><path class="js-line" d="M0,52.24Q14.73,52.48 25.82,52.27C45.91,51.89 91.32,48.89 110.55,48.97C120.48,49.01 125.75,50.07 133.14,50.04C140.26,50.01 146.93,49.21 154.12,48.85C161.71,48.47 172.38,48.02 177.52,47.84C180.05,47.75 180.85,47.8 183.17,47.69C186.89,47.52 191.92,47.02 197.69,46.74C206.17,46.33 220.67,45.91 229.16,45.73C234.93,45.61 238.92,45.59 243.69,45.57C248.33,45.55 253.33,45.65 257.41,45.6C260.69,45.56 266.28,45.42 266.28,45.37C266.28,45.31 250.95,45.28 250.95,45.35C250.95,45.45 280,46.13 280,46.11Q280,46.1 275.16,45.95" style="vector-effect: non-scaling-stroke; fill: none; stroke: rgb(234, 35, 41); stroke-opacity: 1; stroke-width: 5px; opacity: 1;"/></g><g class="points"/><g class="text"/></g><g class="trace scatter traceeab8c0" style="stroke-miterlimit: 2; opacity: 1;"><g class="fills"/><g class="errorbars"/><g class="lines"><path class="js-line" d="M0,53.43Q14.72,54.67 25.82,55.19C45.9,56.12 91.31,56.98 110.55,57.29C120.48,57.45 125.75,57.38 133.14,57.46C140.26,57.54 146.96,58.25 154.12,57.76C161.73,57.23 172.37,54.8 177.52,54.17C180.04,53.86 180.85,53.92 183.17,53.65C186.89,53.22 191.91,52.09 197.69,51.66C206.16,51.03 220.67,51.25 229.16,51.27C234.93,51.29 238.92,51.44 243.69,51.53C248.33,51.62 253.33,51.76 257.41,51.8C260.69,51.83 266.28,51.83 266.28,51.79C266.28,51.74 250.95,51.46 250.95,51.43C250.95,51.39 280,51.87 280,51.8Q280,51.77 275.16,51.61" style="vector-effect: non-scaling-stroke; fill: none; stroke: rgb(0, 0, 0); stroke-opacity: 1; stroke-width: 5px; opacity: 1;"/></g><g class="points"/><g class="text"/></g><g class="trace scatter traced8b3bd" style="stroke-miterlimit: 2; opacity: 1;"><g class="fills"/><g class="errorbars"/><g class="lines"><path class="js-line" d="M0,56.26Q14.57,49.96 25.82,48.44C45.76,45.74 91.32,49.6 110.55,50.54C120.49,51.03 125.75,51.62 133.14,52.2C140.26,52.76 146.95,53.14 154.12,53.94C161.72,54.79 172.38,56.48 177.52,57.25C180.05,57.63 180.85,57.81 183.17,58.15C186.89,58.7 191.91,59.59 197.69,60.12C206.16,60.89 220.67,61.32 229.16,61.61C234.93,61.81 238.92,61.91 243.69,61.92C248.33,61.93 253.33,61.75 257.41,61.69C260.69,61.64 266.28,61.55 266.28,61.58C266.28,61.62 250.95,62.07 250.95,62.03C250.95,61.97 279.99,60.69 280,60.78Q280,60.82 275.16,61.15" style="vector-effect: non-scaling-stroke; fill: none; stroke: rgb(93, 140, 0); stroke-opacity: 1; stroke-width: 5px; opacity: 1;"/></g><g class="points"/><g class="text"/></g></g></g><g class="overplot"/><path class="xlines-above crisp" d="M0,0" style="fill: none;"/><path class="ylines-above crisp" d="M0,0" style="fill: none;"/><g class="overlines-above"/><g class="xaxislayer-above"/><g class="yaxislayer-above"/><g class="overaxes-above"/></g></g><g class="polarlayer"/><g class="smithlayer"/><g class="ternarylayer"/><g class="geolayer"/><g class="funnelarealayer"/><g class="pielayer"/><g class="iciclelayer"/><g class="treemaplayer"/><g class="sunburstlayer"/><g class="glimages"/><defs id="topdefs-da1195"><g class="clips"/></defs><g class="layer-above"><g class="imagelayer"/><g class="shapelayer"/></g><g class="infolayer"><g class="g-gtitle"><text class="gtitle" x="15" y="25" text-anchor="start" dy="0em" style="font-family: Ubuntu, verdana, arial, sans-serif; font-size: 16px; fill: rgb(233, 84, 32); opacity: 1; font-weight: normal; white-space: pre;">Sněmovna 2021-2025</text></g><g class="g-xtitle"/><g class="g-ytitle"/></g></svg>