<svg class="main-svg" xmlns="http://www.w3.org/2000/svg" xmlns:xlink="http://www.w3.org/1999/xlink" width="300" height="135" style="" viewBox="0 0 300 135"><rect x="0" y="0" width="300" height="135" style="fill: rgb(255, 255, 255); fill-opacity: 1;"/><defs id="defs-7e75fe"><g class="clips"><clipPath id="clip7e75fexyplot" class="plotclip"><rect width="280" height="75"/></clipPath><clipPath class="axesclip" id="clip7e75fex"><rect x="10" y="0" width="280" height="135"/></clipPath><clipPath class="axesclip" id="clip7e75fey"><rect x="0" y="50" width="300" height="75"/></clipPath><clipPath class="axesclip" id="clip7e75fexy"><rect x="10" y="50" width="280" height="75"/></clipPath></g><g class="gradients"/><g class="patterns"/></defs><g class="bglayer"/><g class="layer-below"><g class="imagelayer"/><g class="shapelayer"/></g><g class="cartesianlayer"><g class="subplot xy"><g class="layer-subplot"><g class="shapelayer"/><g class="imagelayer"/></g><g class="minor-gridlayer"><g class="x"/><g class="y"/></g><g class="gridlayer"><g class="x"><path class="xgrid crisp" transform="translate(27.71,0)" d="M0,50v75" style="stroke: rgb(235, 240, 248); stroke-opacity: 1; stroke-width: 1px;"/><path class="xgrid crisp" transform="translate(104.67,0)" d="M0,50v75" style="stroke: rgb(235, 240, 248); stroke-opacity: 1; stroke-width: 1px;"/><path class="xgrid crisp" transform="translate(181.63,0)" d="M0,50v75" style="stroke: rgb(235, 240, 248); stroke-opacity: 1; stroke-width: 1px;"/><path class="xgrid crisp" transform="translate(258.8,0)" d="M0,50v75" style="stroke: rgb(235, 240, 248); stroke-opacity: 1; stroke-width: 1px;"/></g><g class="y"><path class="ygrid crisp" transform="translate(0,104.16)" d="M10,0h280" style="stroke: rgb(235, 240, 248); stroke-opacity: 1; stroke-width: 1px;"/><path class="ygrid crisp" transform="translate(0,83.32)" d="M10,0h280" style="stroke: rgb(235, 240, 248); stroke-opacity: 1; stroke-width: 1px;"/><path class="ygrid crisp" transform="translate(0,62.480000000000004)" d="M10,0h280" style="stroke: rgb(235, 240, 248); stroke-opacity: 1; stroke-width: 1px;"/></g></g><g class="zerolinelayer"><path class="yzl zl crisp" transform="translate(0,125)" d="M10,0h280" style="stroke: rgb(235, 240, 248); stroke-opacity: 1; stroke-width: 2px;"/></g><path class="xlines-below"/><path class="ylines-below"/><g class="overlines-below"/><g class="xaxislayer-below"/><g class="yaxislayer-below"/><g class="overaxes-below"/><g class="plot" transform="translate(10,50)" clip-path="url(#clip7e75fexyplot)"><g class="scatterlayer mlayer"><g class="trace scatter traceb43f83" style="stroke-miterlimit: 2; opacity: 1;"><g class="fills"/><g class="errorbars"/><g class="lines"><path class="js-line" d="M0,18.53Q3.85,18.59 6.75,18.75C12,19.04 23.92,21.19 28.89,20.46C31.54,20.07 32.83,18.74 34.79,18.18C36.63,17.65 38.39,17.49 40.27,17.12C42.25,16.73 45.05,16.08 46.39,15.87C47.04,15.77 47.26,15.8 47.86,15.7C48.84,15.53 50.15,15.17 51.66,14.82C53.88,14.3 57.65,13.24 59.88,12.86C61.38,12.6 62.62,12.47 63.67,12.45C64.41,12.44 64.96,12.6 65.57,12.6C66.15,12.6 66.65,12.51 67.26,12.49C67.97,12.47 68.81,12.51 69.58,12.52C70.35,12.53 71.24,12.51 71.9,12.55C72.38,12.58 72.6,12.64 73.16,12.68C74.31,12.77 77.09,12.65 78.43,12.97C79.32,13.18 79.6,13.8 80.54,13.89C82.3,14.05 85.21,12.67 88.34,12.11C92.96,11.28 104.49,10.1 105.63,9.81C105.76,9.78 105.72,9.77 105.84,9.73C106.4,9.56 109.41,8.56 110.69,8.57C111.54,8.58 111.98,9.06 112.8,9.12C113.92,9.2 115.69,8.87 116.81,8.68C117.63,8.54 118.11,8.48 118.92,8.19C120.14,7.76 122.3,6.4 123.34,6.05C123.88,5.87 124.37,5.84 124.61,5.79C124.71,5.77 124.7,5.77 124.82,5.75C125.44,5.63 128.73,4.6 130.72,4.54C132.74,4.48 134.48,5.2 136.84,5.44C140.04,5.77 146.33,6.36 148.22,6.12C148.87,6.04 149.18,5.79 149.49,5.71C149.67,5.67 149.69,5.67 149.91,5.63C150.72,5.49 154.26,4.81 155.6,4.74C156.33,4.7 156.65,4.85 157.29,4.83C158.14,4.81 159.3,4.65 160.24,4.52C161.12,4.4 162.28,4.15 162.77,4.09C162.97,4.06 163.05,4.06 163.19,4.05C163.33,4.04 163.4,4.04 163.61,4.03C164.28,4.01 166.19,3.86 167.83,3.95C170.12,4.07 175.28,4.91 176.05,4.98C176.18,4.99 176.2,5 176.27,4.99C176.34,4.98 176.36,4.96 176.48,4.95C177.05,4.88 180.57,4.95 181.54,4.74C181.95,4.65 181.97,4.42 182.38,4.39C183.43,4.3 187.46,5.64 188.07,5.73C188.19,5.75 188.18,5.74 188.28,5.74C188.55,5.75 189.15,5.67 189.76,5.73C190.77,5.82 192.49,6.28 193.77,6.5C194.94,6.7 196,6.9 197.14,7.03C198.31,7.16 199.43,7.14 200.72,7.26C202.26,7.41 204.8,7.75 205.78,7.9C206.18,7.96 206.63,8.06 206.63,8.06C206.63,8.06 206.63,8.06 206.63,8.06C206.63,8.06 210.28,9.29 211.48,9.32C212.18,9.34 212.48,9.04 213.16,8.96C214.21,8.83 215.71,9.13 217.17,8.85C219.07,8.48 222.47,6.79 223.49,6.52C223.81,6.43 223.86,6.47 224.13,6.41C224.6,6.31 225.26,6.1 226.02,5.92C227.15,5.65 229.73,5.04 230.24,4.97C230.35,4.95 230.45,4.96 230.45,4.96C230.45,4.96 230.45,4.96 230.45,4.96C230.45,4.96 231.8,4.69 232.56,4.52C233.46,4.32 234.77,3.89 235.51,3.81C235.95,3.76 236.24,3.84 236.57,3.84C236.87,3.84 237.09,3.82 237.41,3.83C237.83,3.85 238.26,3.93 238.89,3.97C239.97,4.04 242.34,4.13 243.31,4.15C243.78,4.16 243.88,4.16 244.37,4.15C245.46,4.13 248.74,4 249.64,3.98C249.95,3.97 250.06,3.97 250.27,3.97C250.48,3.97 250.75,3.97 250.9,3.96C250.99,3.96 251.01,3.95 251.11,3.94C251.38,3.92 252.59,3.86 252.59,3.86C252.59,3.86 252.59,3.86 252.59,3.86C252.59,3.86 252.99,3.84 253.22,3.82C253.48,3.8 254.07,3.75 254.07,3.75C254.07,3.75 254.07,3.75 254.07,3.75C254.07,3.75 255.12,3.84 255.54,3.87C255.86,3.9 256.13,3.92 256.39,3.94C256.62,3.96 256.78,3.97 257.02,4C257.33,4.03 257.8,4.1 258.07,4.13C258.24,4.15 258.34,4.16 258.49,4.17C258.68,4.19 258.9,4.18 259.13,4.22C259.39,4.26 259.71,4.35 259.97,4.42C260.2,4.48 260.38,4.53 260.6,4.61C260.86,4.71 261.45,4.98 261.45,4.98C261.45,4.98 261.45,4.98 261.45,4.98C261.45,4.98 262.43,5.32 262.92,5.49C263.41,5.66 264.4,5.98 264.4,5.98C264.4,5.98 264.4,5.98 264.4,5.98C264.4,5.98 265.48,6.23 265.87,6.3C266.13,6.35 266.28,6.34 266.51,6.39C266.77,6.45 267.04,6.56 267.35,6.64C267.73,6.74 268.36,6.91 268.61,6.94C268.71,6.95 268.72,6.94 268.83,6.94C269.1,6.95 269.96,6.99 270.3,7C270.48,7.01 270.55,7.01 270.72,7.01C270.99,7.02 271.47,7.04 271.78,7.04C272.02,7.04 272.19,7.02 272.41,7.03C272.67,7.04 272.97,7.1 273.25,7.12C273.53,7.14 273.84,7.11 274.1,7.13C274.33,7.15 274.49,7.18 274.73,7.21C275.04,7.25 275.51,7.32 275.78,7.34C275.95,7.35 276.02,7.34 276.2,7.34C276.54,7.34 277.13,7.36 277.68,7.32Q278.37,7.27 280,7.04" style="vector-effect: none; fill: none; stroke: rgb(39, 42, 89); stroke-opacity: 1; stroke-width: 5px; opacity: 1;"/></g><g class="points"/><g class="text"/></g><g class="trace scatter tracea3e633" style="stroke-miterlimit: 2; opacity: 1;"><g class="fills"/><g class="errorbars"/><g class="lines"><path class="js-line" d="M0,17.28Q3.91,19.69 6.75,19.47C12.06,19.06 23.79,8.85 28.89,8.31C31.42,8.04 32.86,9.37 34.79,9.86C36.65,10.33 38.5,10.29 40.27,11.21C42.39,12.32 44.97,15.97 46.39,16.57C46.99,16.83 47.28,16.51 47.86,16.69C48.86,16.99 50.12,18.09 51.66,18.81C53.85,19.83 57.64,21.34 59.88,21.91C61.36,22.29 62.62,22.37 63.67,22.44C64.41,22.49 64.96,22.53 65.57,22.44C66.16,22.35 66.64,21.98 67.26,21.9C67.96,21.81 68.81,22.07 69.58,22.01C70.36,21.95 71.25,21.73 71.9,21.54C72.39,21.39 72.58,21.19 73.16,21.04C74.3,20.74 77.1,20.78 78.43,20.36C79.32,20.08 79.6,19.29 80.54,19.25C82.31,19.17 85.16,22.07 88.34,22.51C92.91,23.14 104.49,20.09 105.63,20.42C105.77,20.46 105.71,20.53 105.84,20.59C106.39,20.85 109.4,21.45 110.69,21.55C111.53,21.61 111.99,21.4 112.8,21.46C113.93,21.54 115.68,22.04 116.81,22.21C117.62,22.33 118.1,22.24 118.92,22.44C120.14,22.75 122.31,23.82 123.34,24.21C123.89,24.42 124.36,24.61 124.61,24.67C124.71,24.69 124.7,24.67 124.82,24.7C125.45,24.85 128.71,26.4 130.72,26.64C132.72,26.88 134.5,26.01 136.84,26.13C140.06,26.3 146.32,27.9 148.22,28.31C148.86,28.45 149.18,28.53 149.49,28.61C149.67,28.65 149.69,28.69 149.91,28.72C150.72,28.82 154.26,28.61 155.6,28.67C156.33,28.7 156.65,28.76 157.29,28.83C158.14,28.93 159.29,29.21 160.24,29.23C161.11,29.25 162.28,28.98 162.77,29.02C162.97,29.04 163.05,29.11 163.19,29.13C163.33,29.15 163.4,29.11 163.61,29.12C164.28,29.14 166.19,29.34 167.83,29.42C170.12,29.54 175.28,29.69 176.05,29.67C176.18,29.67 176.2,29.66 176.27,29.65C176.34,29.64 176.36,29.61 176.48,29.6C177.05,29.54 180.56,29.81 181.54,29.8C181.94,29.8 181.98,29.78 182.38,29.75C183.43,29.67 187.46,29.31 188.07,29.22C188.19,29.2 188.18,29.19 188.28,29.18C188.55,29.14 189.15,29.03 189.76,29.03C190.77,29.03 192.49,29.51 193.77,29.46C194.95,29.42 196,28.89 197.14,28.85C198.31,28.81 199.42,29.12 200.72,29.26C202.26,29.43 204.8,29.7 205.78,29.81C206.18,29.85 206.63,29.9 206.63,29.9C206.63,29.9 206.63,29.9 206.63,29.9C206.63,29.9 210.27,31.11 211.48,31.37C212.18,31.52 212.48,31.52 213.16,31.6C214.21,31.73 215.69,31.79 217.17,32.02C219.04,32.31 222.49,32.92 223.49,33.3C223.83,33.43 223.85,33.58 224.13,33.67C224.58,33.82 225.26,33.86 226.02,33.87C227.15,33.88 229.73,33.5 230.24,33.52C230.35,33.52 230.45,33.55 230.45,33.55C230.45,33.55 230.45,33.55 230.45,33.55C230.45,33.55 231.8,33.74 232.56,33.83C233.46,33.94 234.78,34 235.51,34.15C235.96,34.24 236.24,34.34 236.57,34.47C236.87,34.58 237.08,34.75 237.41,34.86C237.83,35 238.26,35.06 238.89,35.19C239.97,35.41 242.34,35.83 243.31,35.98C243.78,36.05 243.88,36.07 244.37,36.11C245.46,36.2 248.74,36.32 249.64,36.35C249.95,36.36 250.06,36.36 250.27,36.36C250.48,36.36 250.75,36.37 250.9,36.36C250.99,36.36 251.01,36.35 251.11,36.34C251.38,36.31 252.59,36.2 252.59,36.2C252.59,36.2 252.59,36.2 252.59,36.2C252.59,36.2 252.99,36.14 253.22,36.11C253.48,36.07 254.07,36 254.07,36C254.07,36 254.07,36 254.07,36C254.07,36 255.12,36 255.54,36.01C255.86,36.01 256.13,36.02 256.39,36.03C256.62,36.03 256.78,36.04 257.02,36.04C257.33,36.04 257.8,36.05 258.07,36.05C258.24,36.05 258.34,36.06 258.49,36.05C258.68,36.04 258.9,36.01 259.13,35.98C259.39,35.94 259.71,35.89 259.97,35.84C260.2,35.79 260.37,35.73 260.6,35.69C260.86,35.64 261.45,35.56 261.45,35.56C261.45,35.56 261.45,35.56 261.45,35.56C261.45,35.56 262.43,35.33 262.92,35.2C263.41,35.07 264.4,34.8 264.4,34.8C264.4,34.8 264.4,34.8 264.4,34.8C264.4,34.8 265.48,34.49 265.87,34.38C266.13,34.31 266.28,34.26 266.51,34.21C266.77,34.15 267.04,34.1 267.35,34.04C267.73,33.96 268.36,33.82 268.61,33.78C268.71,33.76 268.72,33.77 268.83,33.75C269.1,33.71 269.96,33.57 270.3,33.51C270.48,33.48 270.55,33.46 270.72,33.43C270.99,33.38 271.47,33.31 271.78,33.26C272.02,33.22 272.19,33.19 272.41,33.14C272.67,33.09 272.97,33.01 273.25,32.95C273.53,32.88 273.84,32.8 274.1,32.75C274.32,32.7 274.49,32.68 274.73,32.64C275.04,32.59 275.51,32.5 275.78,32.47C275.95,32.45 276.02,32.45 276.2,32.43C276.54,32.4 277.13,32.32 277.68,32.29Q278.37,32.25 280,32.27" style="vector-effect: none; fill: none; stroke: rgb(94, 102, 213); stroke-opacity: 1; stroke-width: 5px; opacity: 1;"/></g><g class="points"/><g class="text"/></g><g class="trace scatter traceb45abf" style="stroke-miterlimit: 2; opacity: 1;"><g class="fills"/><g class="errorbars"/><g class="lines"><path class="js-line" d="M0,54.99Q3.86,55.21 6.75,55.03C12.01,54.7 23.87,52.06 28.89,52.13C31.49,52.17 32.86,53.1 34.79,53.07C36.65,53.04 38.39,52.34 40.27,52.02C42.25,51.69 45.05,51.3 46.39,51.14C47.05,51.06 47.26,51.1 47.86,51.01C48.84,50.86 50.14,50.42 51.66,50.18C53.87,49.83 57.66,49.48 59.88,49.33C61.38,49.23 62.62,49.28 63.67,49.22C64.41,49.18 64.96,49.03 65.57,49.05C66.15,49.07 66.65,49.26 67.26,49.29C67.97,49.32 68.81,49.1 69.58,49.16C70.36,49.22 71.24,49.56 71.9,49.68C72.38,49.77 72.59,49.79 73.16,49.85C74.31,49.98 77.07,50.14 78.43,50.29C79.29,50.38 79.61,50.51 80.54,50.57C82.32,50.68 85.27,50.01 88.34,50.47C93.02,51.17 104.48,55.88 105.63,56.03C105.75,56.05 105.72,56.02 105.84,56.02C106.4,56.01 109.41,56.02 110.69,56.16C111.54,56.25 111.98,56.46 112.8,56.55C113.92,56.67 115.69,56.67 116.81,56.68C117.63,56.69 118.09,56.65 118.92,56.65C120.12,56.65 122.31,56.72 123.34,56.71C123.89,56.71 124.37,56.67 124.61,56.67C124.71,56.67 124.7,56.68 124.82,56.68C125.44,56.66 128.73,56.05 130.72,55.99C132.74,55.93 134.5,56.51 136.84,56.36C140.06,56.15 146.32,54.3 148.22,54.19C148.85,54.15 149.18,54.27 149.49,54.28C149.67,54.29 149.69,54.29 149.91,54.28C150.72,54.25 154.26,53.92 155.6,53.86C156.33,53.83 156.65,53.83 157.29,53.84C158.14,53.85 159.3,53.81 160.24,53.95C161.12,54.08 162.28,54.52 162.77,54.61C162.97,54.64 163.05,54.64 163.19,54.65C163.33,54.67 163.4,54.68 163.61,54.7C164.28,54.76 166.19,54.95 167.83,55C170.12,55.07 175.28,54.92 176.05,54.93C176.18,54.93 176.2,54.93 176.27,54.94C176.34,54.95 176.36,54.95 176.48,54.97C177.05,55.06 180.56,55.61 181.54,55.79C181.94,55.86 181.98,55.88 182.38,55.96C183.43,56.17 187.46,57.01 188.07,57.05C188.19,57.06 188.18,57.04 188.28,57.04C188.55,57.04 189.15,57.1 189.76,57.1C190.77,57.1 192.5,56.85 193.77,56.93C194.95,57 196.01,57.25 197.14,57.5C198.32,57.76 199.42,58.18 200.72,58.47C202.25,58.81 204.8,59.23 205.78,59.37C206.18,59.43 206.63,59.46 206.63,59.46C206.63,59.46 206.63,59.46 206.63,59.46C206.63,59.46 210.28,59.74 211.48,59.78C212.18,59.8 212.48,59.74 213.16,59.77C214.21,59.82 215.68,60.16 217.17,60.19C219.04,60.23 222.47,59.85 223.49,59.81C223.81,59.8 223.86,59.8 224.13,59.8C224.59,59.8 225.27,59.84 226.02,59.84C227.15,59.85 229.73,59.83 230.24,59.8C230.35,59.79 230.45,59.78 230.45,59.78C230.45,59.78 230.45,59.78 230.45,59.78C230.45,59.78 231.8,60.03 232.56,60.06C233.46,60.09 234.77,59.93 235.51,59.87C235.95,59.84 236.24,59.78 236.57,59.78C236.87,59.78 237.09,59.82 237.41,59.83C237.83,59.85 238.26,59.88 238.89,59.88C239.97,59.88 242.34,59.74 243.31,59.73C243.78,59.73 243.88,59.79 244.37,59.75C245.46,59.67 248.74,58.97 249.64,58.86C249.95,58.82 250.06,58.82 250.27,58.81C250.48,58.8 250.75,58.79 250.9,58.78C250.99,58.77 251.01,58.77 251.11,58.76C251.38,58.74 252.59,58.68 252.59,58.68C252.59,58.68 252.59,58.68 252.59,58.68C252.59,58.68 252.99,58.69 253.22,58.68C253.48,58.67 254.07,58.63 254.07,58.63C254.07,58.63 254.07,58.63 254.07,58.63C254.07,58.63 255.12,58.48 255.54,58.42C255.86,58.38 256.13,58.35 256.39,58.31C256.62,58.28 256.78,58.25 257.02,58.22C257.33,58.18 257.8,58.12 258.07,58.08C258.24,58.05 258.34,58.04 258.49,58.01C258.68,57.98 258.9,57.94 259.13,57.89C259.39,57.83 259.71,57.74 259.97,57.67C260.2,57.61 260.38,57.56 260.6,57.49C260.86,57.41 261.45,57.21 261.45,57.21C261.45,57.21 261.45,57.21 261.45,57.21C261.45,57.21 262.43,56.83 262.92,56.62C263.41,56.41 264.4,55.95 264.4,55.95C264.4,55.95 264.4,55.95 264.4,55.95C264.4,55.95 265.48,55.32 265.87,55.11C266.12,54.97 266.28,54.91 266.51,54.79C266.77,54.65 267.04,54.5 267.35,54.34C267.73,54.14 268.36,53.8 268.61,53.69C268.71,53.65 268.72,53.65 268.83,53.61C269.1,53.51 269.96,53.17 270.3,53.04C270.48,52.97 270.55,52.95 270.72,52.89C270.99,52.8 271.47,52.63 271.78,52.54C272.02,52.47 272.19,52.44 272.41,52.38C272.67,52.3 272.97,52.19 273.25,52.11C273.53,52.03 273.84,51.97 274.1,51.9C274.33,51.84 274.49,51.78 274.73,51.71C275.03,51.63 275.51,51.5 275.78,51.45C275.95,51.42 276.02,51.41 276.2,51.4C276.54,51.37 277.13,51.33 277.68,51.34Q278.37,51.36 280,51.56" style="vector-effect: none; fill: none; stroke: rgb(164, 125, 3); stroke-opacity: 1; stroke-width: 5px; opacity: 1;"/></g><g class="points"/><g class="text"/></g><g class="trace scatter traced3b02e" style="stroke-miterlimit: 2; opacity: 1;"><g class="fills"/><g class="errorbars"/><g class="lines"><path class="js-line" d="M0,62.29Q3.08,53.48 6.75,51.66C11.62,49.24 23.89,52.7 28.89,53.52C31.51,53.95 32.86,54.47 34.79,54.98C36.65,55.47 38.42,55.82 40.27,56.51C42.29,57.26 45.05,58.74 46.39,59.42C47.05,59.76 47.25,59.91 47.86,60.21C48.83,60.69 50.11,61.47 51.66,61.93C53.84,62.58 57.66,62.98 59.88,63.23C61.38,63.4 62.62,63.42 63.67,63.48C64.41,63.52 64.96,63.6 65.57,63.56C66.15,63.52 66.65,63.34 67.26,63.28C67.97,63.21 68.81,63.25 69.58,63.18C70.36,63.11 71.25,62.96 71.9,62.84C72.39,62.75 72.59,62.63 73.16,62.58C74.31,62.48 77.07,62.73 78.43,62.72C79.29,62.71 79.62,62.68 80.54,62.62C82.32,62.51 85.23,62.25 88.34,62C92.97,61.63 104.49,60.68 105.63,60.63C105.76,60.63 105.72,60.63 105.84,60.63C106.4,60.64 109.41,60.6 110.69,60.75C111.54,60.85 111.98,61.11 112.8,61.21C113.92,61.34 115.69,61.18 116.81,61.28C117.63,61.35 118.09,61.51 118.92,61.62C120.12,61.77 122.31,61.96 123.34,62.03C123.89,62.07 124.37,62.09 124.61,62.09C124.71,62.09 124.7,62.08 124.82,62.08C125.44,62.08 128.74,62.41 130.72,62.39C132.74,62.37 134.48,62.05 136.84,61.94C140.05,61.79 146.32,61.9 148.22,61.73C148.86,61.67 149.18,61.57 149.49,61.52C149.67,61.49 149.69,61.48 149.91,61.46C150.72,61.4 154.26,61.52 155.6,61.48C156.33,61.46 156.65,61.39 157.29,61.37C158.14,61.34 159.29,61.38 160.24,61.37C161.12,61.36 162.28,61.35 162.77,61.33C162.97,61.32 163.05,61.31 163.19,61.3C163.33,61.29 163.4,61.29 163.61,61.28C164.28,61.25 166.19,61.21 167.83,61.12C170.12,60.99 175.28,60.53 176.05,60.48C176.18,60.47 176.2,60.47 176.27,60.47C176.34,60.47 176.36,60.47 176.48,60.46C177.05,60.41 180.56,59.83 181.54,59.83C181.94,59.83 181.98,59.89 182.38,59.93C183.43,60.04 187.46,60.45 188.07,60.46C188.19,60.46 188.18,60.46 188.28,60.45C188.55,60.43 189.15,60.4 189.76,60.3C190.77,60.14 192.49,59.67 193.77,59.43C194.94,59.21 196,59.1 197.14,58.9C198.32,58.69 199.42,58.39 200.72,58.18C202.26,57.94 204.8,57.79 205.78,57.6C206.19,57.52 206.63,57.36 206.63,57.36C206.63,57.36 206.63,57.36 206.63,57.36C206.63,57.36 210.28,56.35 211.48,56.14C212.18,56.02 212.48,56.04 213.16,55.96C214.21,55.83 215.68,55.57 217.17,55.39C219.04,55.16 222.48,54.97 223.49,54.72C223.82,54.64 223.86,54.58 224.13,54.47C224.6,54.27 225.25,53.9 226.02,53.61C227.14,53.19 229.72,52.41 230.24,52.32C230.35,52.3 230.45,52.31 230.45,52.31C230.45,52.31 230.45,52.31 230.45,52.31C230.45,52.31 231.8,52.36 232.56,52.39C233.46,52.43 234.77,52.47 235.51,52.53C235.95,52.57 236.24,52.65 236.57,52.65C236.87,52.65 237.09,52.6 237.41,52.57C237.83,52.53 238.27,52.53 238.89,52.46C239.97,52.34 242.34,51.93 243.31,51.8C243.78,51.74 243.88,51.69 244.37,51.67C245.46,51.62 248.74,51.82 249.64,51.8C249.95,51.79 250.06,51.77 250.27,51.75C250.48,51.73 250.75,51.69 250.9,51.67C250.99,51.66 251.01,51.66 251.11,51.65C251.38,51.63 252.59,51.55 252.59,51.55C252.59,51.55 252.59,51.55 252.59,51.55C252.59,51.55 252.99,51.51 253.22,51.49C253.48,51.47 254.07,51.45 254.07,51.45C254.07,51.45 254.07,51.45 254.07,51.45C254.07,51.45 255.12,51.4 255.54,51.37C255.86,51.35 256.13,51.32 256.39,51.31C256.62,51.3 256.78,51.31 257.02,51.3C257.33,51.29 257.8,51.29 258.07,51.27C258.24,51.26 258.34,51.24 258.49,51.23C258.68,51.22 258.9,51.22 259.13,51.22C259.39,51.22 259.71,51.25 259.97,51.25C260.2,51.25 260.37,51.25 260.6,51.25C260.86,51.25 261.45,51.23 261.45,51.23C261.45,51.23 261.45,51.23 261.45,51.23C261.45,51.23 262.43,51.27 262.92,51.29C263.41,51.31 264.4,51.34 264.4,51.34C264.4,51.34 264.4,51.34 264.4,51.34C264.4,51.34 265.48,51.49 265.87,51.54C266.13,51.57 266.28,51.59 266.51,51.62C266.77,51.65 267.04,51.66 267.35,51.7C267.73,51.74 268.36,51.83 268.61,51.87C268.71,51.89 268.72,51.89 268.83,51.91C269.1,51.96 269.96,52.13 270.3,52.19C270.48,52.22 270.55,52.23 270.72,52.25C270.99,52.28 271.47,52.34 271.78,52.36C272.02,52.38 272.19,52.37 272.41,52.39C272.67,52.41 272.97,52.48 273.25,52.51C273.53,52.55 273.84,52.58 274.1,52.6C274.33,52.62 274.49,52.62 274.73,52.63C275.04,52.64 275.51,52.65 275.78,52.65C275.95,52.65 276.02,52.64 276.2,52.64C276.54,52.63 277.13,52.62 277.68,52.63Q278.37,52.65 280,52.77" style="vector-effect: none; fill: none; stroke: rgb(255, 26, 74); stroke-opacity: 1; stroke-width: 5px; opacity: 1;"/></g><g class="points"/><g class="text"/></g><g class="trace scatter trace885c16" style="stroke-miterlimit: 2; opacity: 1;"><g class="fills"/><g class="errorbars"/><g class="lines"><path class="js-line" d="M0,55.2Q3.8,56.96 6.75,57.6C11.95,58.72 23.86,59.17 28.89,59.44C31.48,59.58 32.86,59.52 34.79,59.59C36.65,59.66 38.45,60.24 40.27,59.84C42.31,59.39 45.03,57.24 46.39,56.68C47.03,56.42 47.26,56.45 47.86,56.22C48.84,55.84 50.11,54.86 51.66,54.48C53.84,53.95 57.66,54.09 59.88,54.09C61.38,54.09 62.62,54.28 63.67,54.28C64.41,54.28 64.96,54.14 65.57,54.17C66.15,54.2 66.65,54.4 67.26,54.44C67.97,54.48 68.81,54.41 69.58,54.35C70.35,54.29 71.24,54.12 71.9,54.09C72.38,54.07 72.6,54.16 73.16,54.12C74.32,54.03 77.07,53.38 78.43,53.19C79.29,53.07 79.62,52.95 80.54,52.97C82.32,53.01 85.22,53.94 88.34,54.15C92.96,54.46 104.49,54 105.63,53.86C105.76,53.84 105.72,53.82 105.84,53.81C106.4,53.75 109.41,54.11 110.69,53.98C111.54,53.89 111.98,53.62 112.8,53.47C113.92,53.27 115.69,53.12 116.81,52.99C117.63,52.89 118.09,52.82 118.92,52.75C120.12,52.64 122.31,52.56 123.34,52.47C123.89,52.42 124.37,52.36 124.61,52.34C124.71,52.33 124.7,52.33 124.82,52.32C125.44,52.28 128.74,52.21 130.72,52.13C132.74,52.05 134.5,51.68 136.84,51.84C140.06,52.06 146.32,53.81 148.22,53.98C148.85,54.04 149.18,53.94 149.49,53.97C149.67,53.99 149.69,54.04 149.91,54.06C150.72,54.13 154.27,54.03 155.6,53.89C156.33,53.81 156.65,53.69 157.29,53.59C158.14,53.46 159.29,53.32 160.24,53.19C161.12,53.07 162.28,52.88 162.77,52.82C162.97,52.8 163.05,52.79 163.19,52.78C163.33,52.77 163.4,52.78 163.61,52.78C164.28,52.77 166.19,52.77 167.83,52.71C170.12,52.63 175.28,52.25 176.05,52.25C176.18,52.25 176.2,52.25 176.27,52.26C176.34,52.27 176.36,52.29 176.48,52.31C177.05,52.41 180.56,52.79 181.54,52.93C181.94,52.99 181.97,53.03 182.38,53.07C183.43,53.18 187.46,53.24 188.07,53.27C188.19,53.27 188.18,53.28 188.28,53.28C188.55,53.29 189.15,53.31 189.76,53.35C190.77,53.42 192.49,53.59 193.77,53.68C194.94,53.76 196,53.72 197.14,53.86C198.32,54.01 199.42,54.3 200.72,54.56C202.26,54.87 204.8,55.45 205.78,55.58C206.18,55.63 206.63,55.64 206.63,55.64C206.63,55.64 206.63,55.64 206.63,55.64C206.63,55.64 210.29,56.43 211.48,56.74C212.19,56.92 212.48,57.05 213.16,57.23C214.21,57.51 215.68,57.86 217.17,58.2C219.04,58.62 222.47,59.34 223.49,59.53C223.81,59.59 223.86,59.59 224.13,59.64C224.59,59.73 225.27,59.85 226.02,60.05C227.15,60.35 229.72,61.25 230.24,61.35C230.35,61.37 230.45,61.37 230.45,61.37C230.45,61.37 230.45,61.37 230.45,61.37C230.45,61.37 231.8,61.45 232.56,61.5C233.46,61.56 234.77,61.62 235.51,61.69C235.95,61.73 236.24,61.79 236.57,61.82C236.87,61.85 237.09,61.87 237.41,61.88C237.83,61.9 238.27,61.89 238.89,61.91C239.97,61.95 242.34,62.08 243.31,62.11C243.78,62.13 243.88,62.13 244.37,62.13C245.46,62.14 248.74,62.12 249.64,62.13C249.95,62.13 250.06,62.14 250.27,62.15C250.48,62.16 250.75,62.2 250.9,62.21C250.99,62.22 251.01,62.22 251.11,62.23C251.38,62.26 252.59,62.38 252.59,62.38C252.59,62.38 252.59,62.38 252.59,62.38C252.59,62.38 252.99,62.38 253.22,62.39C253.48,62.4 254.07,62.46 254.07,62.46C254.07,62.46 254.07,62.46 254.07,62.46C254.07,62.46 255.12,62.46 255.54,62.45C255.86,62.44 256.13,62.44 256.39,62.42C256.62,62.41 256.78,62.39 257.02,62.37C257.33,62.34 257.8,62.3 258.07,62.27C258.24,62.25 258.34,62.24 258.49,62.23C258.68,62.21 258.9,62.19 259.13,62.18C259.39,62.16 259.71,62.15 259.97,62.14C260.2,62.13 260.37,62.15 260.6,62.14C260.86,62.13 261.45,62.1 261.45,62.1C261.45,62.1 261.45,62.1 261.45,62.1C261.45,62.1 262.43,62.04 262.92,62.01C263.41,61.98 264.4,61.93 264.4,61.93C264.4,61.93 264.4,61.93 264.4,61.93C264.4,61.93 265.48,61.94 265.87,61.94C266.13,61.94 266.28,61.95 266.51,61.95C266.77,61.95 267.04,61.96 267.35,61.96C267.73,61.97 268.36,61.98 268.61,61.98C268.71,61.98 268.72,61.97 268.83,61.97C269.1,61.97 269.96,61.99 270.3,61.99C270.48,61.99 270.55,61.99 270.72,61.98C270.99,61.97 271.47,61.94 271.78,61.93C272.02,61.92 272.18,61.91 272.41,61.9C272.67,61.89 272.97,61.88 273.25,61.87C273.53,61.86 273.84,61.86 274.1,61.85C274.33,61.84 274.49,61.83 274.73,61.82C275.04,61.81 275.51,61.81 275.78,61.8C275.95,61.8 276.02,61.79 276.2,61.79C276.54,61.79 277.13,61.82 277.68,61.83Q278.37,61.85 280,61.89" style="vector-effect: none; fill: none; stroke: rgb(17, 17, 17); stroke-opacity: 1; stroke-width: 5px; opacity: 1;"/></g><g class="points"/><g class="text"/></g></g></g><g class="overplot"/><path class="xlines-above crisp" d="M0,0" style="fill: none;"/><path class="ylines-above crisp" d="M0,0" style="fill: none;"/><g class="overlines-above"/><g class="xaxislayer-above"/><g class="yaxislayer-above"/><g class="overaxes-above"/></g></g><g class="polarlayer"/><g class="smithlayer"/><g class="ternarylayer"/><g class="geolayer"/><g class="funnelarealayer"/><g class="pielayer"/><g class="iciclelayer"/><g class="treemaplayer"/><g class="sunburstlayer"/><g class="glimages"/><defs id="topdefs-7e75fe"><g class="clips"/></defs><g class="layer-above"><g class="imagelayer"/><g class="shapelayer"/></g><g class="infolayer"><g class="g-gtitle"><text class="gtitle" x="15" y="25" text-anchor="start" dy="0em" style="font-family: Ubuntu, verdana, arial, sans-serif; font-size: 16px; fill: rgb(233, 84, 32); opacity: 1; font-weight: normal; white-space: pre;">Sněmovna volby 2025</text></g><g class="g-xtitle"/><g class="g-ytitle"/></g></svg>