<svg class="main-svg" xmlns="http://www.w3.org/2000/svg" xmlns:xlink="http://www.w3.org/1999/xlink" width="300" height="135" style="" viewBox="0 0 300 135"><rect x="0" y="0" width="300" height="135" style="fill: rgb(255, 255, 255); fill-opacity: 1;"/><defs id="defs-1097b8"><g class="clips"><clipPath id="clip1097b8xyplot" class="plotclip"><rect width="280" height="75"/></clipPath><clipPath class="axesclip" id="clip1097b8x"><rect x="10" y="0" width="280" height="135"/></clipPath><clipPath class="axesclip" id="clip1097b8y"><rect x="0" y="50" width="300" height="75"/></clipPath><clipPath class="axesclip" id="clip1097b8xy"><rect x="10" y="50" width="280" height="75"/></clipPath></g><g class="gradients"/><g class="patterns"/></defs><g class="bglayer"/><g class="layer-below"><g class="imagelayer"/><g class="shapelayer"/></g><g class="cartesianlayer"><g class="subplot xy"><g class="layer-subplot"><g class="shapelayer"/><g class="imagelayer"/></g><g class="minor-gridlayer"><g class="x"/><g class="y"/></g><g class="gridlayer"><g class="x"><path class="xgrid crisp" transform="translate(27.35,0)" d="M0,50v75" style="stroke: rgb(235, 240, 248); stroke-opacity: 1; stroke-width: 1px;"/><path class="xgrid crisp" transform="translate(102.71,0)" d="M0,50v75" style="stroke: rgb(235, 240, 248); stroke-opacity: 1; stroke-width: 1px;"/><path class="xgrid crisp" transform="translate(178.08,0)" d="M0,50v75" style="stroke: rgb(235, 240, 248); stroke-opacity: 1; stroke-width: 1px;"/><path class="xgrid crisp" transform="translate(253.66,0)" d="M0,50v75" style="stroke: rgb(235, 240, 248); stroke-opacity: 1; stroke-width: 1px;"/></g><g class="y"><path class="ygrid crisp" transform="translate(0,104.14)" d="M10,0h280" style="stroke: rgb(235, 240, 248); stroke-opacity: 1; stroke-width: 1px;"/><path class="ygrid crisp" transform="translate(0,83.28)" d="M10,0h280" style="stroke: rgb(235, 240, 248); stroke-opacity: 1; stroke-width: 1px;"/><path class="ygrid crisp" transform="translate(0,62.42)" d="M10,0h280" style="stroke: rgb(235, 240, 248); stroke-opacity: 1; stroke-width: 1px;"/></g></g><g class="zerolinelayer"><path class="yzl zl crisp" transform="translate(0,125)" d="M10,0h280" style="stroke: rgb(235, 240, 248); stroke-opacity: 1; stroke-width: 2px;"/></g><path class="xlines-below"/><path class="ylines-below"/><g class="overlines-below"/><g class="xaxislayer-below"/><g class="yaxislayer-below"/><g class="overaxes-below"/><g class="plot" transform="translate(10,50)" clip-path="url(#clip1097b8xyplot)"><g class="scatterlayer mlayer"><g class="trace scatter tracea9fa1c" style="stroke-miterlimit: 2; opacity: 1;"><g class="fills"/><g class="errorbars"/><g class="lines"><path class="js-line" d="M0,18.47Q3.77,18.53 6.61,18.69C11.75,18.98 23.42,21.13 28.29,20.4C30.89,20.01 32.15,18.68 34.07,18.12C35.87,17.59 37.6,17.44 39.44,17.07C41.38,16.68 44.11,16.03 45.43,15.81C46.07,15.7 46.28,15.74 46.87,15.64C47.83,15.47 49.11,15.11 50.59,14.75C52.76,14.23 56.46,13.17 58.64,12.79C60.11,12.53 61.33,12.39 62.36,12.38C63.09,12.37 63.62,12.53 64.22,12.54C64.79,12.55 65.28,12.45 65.87,12.43C66.57,12.41 67.38,12.45 68.14,12.46C68.9,12.47 69.77,12.45 70.41,12.49C70.89,12.52 71.09,12.57 71.65,12.61C72.78,12.7 75.5,12.58 76.81,12.9C77.68,13.11 77.95,13.74 78.88,13.83C80.6,14 83.46,12.61 86.52,12.04C91.04,11.21 102.32,10.03 103.45,9.74C103.58,9.71 103.54,9.7 103.66,9.66C104.21,9.49 107.15,8.5 108.41,8.51C109.24,8.52 109.67,9 110.47,9.06C111.56,9.14 113.3,8.8 114.4,8.61C115.2,8.47 115.67,8.41 116.46,8.12C117.66,7.69 119.78,6.33 120.8,5.98C121.32,5.8 121.8,5.77 122.04,5.72C122.14,5.7 122.13,5.7 122.24,5.68C122.84,5.56 126.07,4.53 128.02,4.47C129.99,4.41 131.7,5.13 134.01,5.37C137.15,5.7 143.31,6.29 145.16,6.05C145.79,5.97 146.1,5.72 146.4,5.64C146.57,5.6 146.59,5.6 146.81,5.56C147.6,5.42 151.08,4.74 152.39,4.67C153.1,4.63 153.41,4.78 154.04,4.76C154.87,4.74 156.01,4.58 156.93,4.45C157.79,4.33 158.93,4.08 159.41,4.02C159.6,3.99 159.68,3.99 159.82,3.98C159.96,3.97 160.03,3.97 160.24,3.96C160.91,3.94 162.77,3.79 164.37,3.88C166.61,4 171.67,4.84 172.42,4.91C172.54,4.92 172.56,4.93 172.63,4.92C172.7,4.91 172.72,4.89 172.83,4.88C173.38,4.81 176.84,4.88 177.79,4.67C178.19,4.58 178.21,4.35 178.61,4.32C179.63,4.23 183.58,5.57 184.19,5.66C184.31,5.68 184.3,5.67 184.4,5.67C184.67,5.68 185.25,5.6 185.84,5.66C186.83,5.75 188.51,6.21 189.76,6.43C190.91,6.63 191.95,6.83 193.07,6.96C194.22,7.09 195.31,7.07 196.58,7.19C198.09,7.34 200.57,7.69 201.53,7.84C201.92,7.9 202.36,7.99 202.36,7.99C202.36,7.99 202.36,7.99 202.36,7.99C202.36,7.99 205.93,9.22 207.11,9.25C207.8,9.27 208.09,8.98 208.76,8.9C209.78,8.78 211.25,9.06 212.68,8.78C214.54,8.41 217.88,6.72 218.88,6.45C219.19,6.37 219.24,6.4 219.5,6.34C219.96,6.24 220.62,6.03 221.36,5.85C222.46,5.58 224.99,4.96 225.49,4.9C225.6,4.89 225.69,4.9 225.69,4.9C225.69,4.9 225.69,4.9 225.69,4.9C225.69,4.9 227.01,4.63 227.76,4.46C228.64,4.26 229.93,3.83 230.65,3.75C231.08,3.7 231.36,3.78 231.68,3.78C231.97,3.78 232.2,3.76 232.51,3.77C232.92,3.79 233.34,3.87 233.95,3.91C235.01,3.98 237.34,4.07 238.29,4.1C238.75,4.11 238.85,4.11 239.32,4.11C240.38,4.1 243.59,3.99 244.48,3.96C244.79,3.95 244.89,3.94 245.1,3.94C245.31,3.94 245.57,3.95 245.72,3.94C245.81,3.94 245.83,3.93 245.93,3.92C246.2,3.9 247.37,3.85 247.37,3.85C247.37,3.85 247.37,3.85 247.37,3.85C247.37,3.85 247.77,3.83 247.99,3.82C248.25,3.8 248.82,3.75 248.82,3.75C248.82,3.75 248.82,3.75 248.82,3.75C248.82,3.75 249.86,3.85 250.27,3.89C250.58,3.92 250.84,3.94 251.09,3.97C251.31,3.99 251.48,4.01 251.71,4.04C252.01,4.08 252.4,4.14 252.74,4.18C253.09,4.22 253.51,4.25 253.78,4.3C253.95,4.33 254.05,4.37 254.19,4.41C254.33,4.45 254.45,4.48 254.6,4.52C254.79,4.57 255,4.64 255.22,4.72C255.48,4.82 256.05,5.09 256.05,5.09C256.05,5.09 256.05,5.09 256.05,5.09C256.05,5.09 257.49,5.62 257.49,5.62C257.49,5.62 257.49,5.62 257.49,5.62C257.49,5.62 258.94,6 258.94,6C258.94,6 258.94,6 258.94,6C258.94,6 260.38,6.21 261,6.36C261.53,6.49 262.45,6.81 262.45,6.81C262.45,6.81 262.45,6.81 262.45,6.81C262.45,6.81 262.82,6.93 263.07,6.97C263.45,7.03 264.13,7.05 264.51,7.07C264.76,7.08 264.88,7.09 265.13,7.1C265.51,7.12 266.58,7.19 266.58,7.19C266.58,7.19 266.58,7.19 266.58,7.19C266.58,7.19 266.68,7.18 266.78,7.18C267.04,7.18 267.96,7.25 268.23,7.26C268.33,7.27 268.34,7.26 268.44,7.27C268.73,7.3 269.56,7.47 270.09,7.52C270.59,7.57 271.53,7.59 271.53,7.59C271.53,7.59 271.53,7.59 271.53,7.59C271.53,7.59 272.3,7.61 272.57,7.63C272.74,7.65 272.98,7.69 272.98,7.69C272.98,7.69 272.98,7.69 272.98,7.69C272.98,7.69 273.88,7.68 274.22,7.7C274.46,7.71 274.62,7.75 274.84,7.76C275.09,7.78 275.35,7.78 275.66,7.78C276.07,7.78 276.77,7.73 277.11,7.71C277.29,7.7 277.35,7.68 277.52,7.67C277.79,7.65 278.18,7.65 278.55,7.62C278.99,7.59 280,7.49 280,7.49Q280,7.49 280,7.49" style="vector-effect: none; fill: none; stroke: rgb(39, 42, 89); stroke-opacity: 1; stroke-width: 5px; opacity: 1;"/></g><g class="points"/><g class="text"/></g><g class="trace scatter trace34d44b" style="stroke-miterlimit: 2; opacity: 1;"><g class="fills"/><g class="errorbars"/><g class="lines"><path class="js-line" d="M0,17.22Q3.83,19.63 6.61,19.41C11.81,19 23.29,8.79 28.29,8.25C30.76,7.98 32.18,9.3 34.07,9.79C35.89,10.26 37.71,10.22 39.44,11.14C41.52,12.25 44.04,15.91 45.43,16.51C46.02,16.76 46.3,16.45 46.87,16.63C47.85,16.93 49.08,18.03 50.59,18.75C52.73,19.77 56.44,21.29 58.64,21.86C60.09,22.24 61.33,22.32 62.36,22.39C63.08,22.44 63.63,22.47 64.22,22.38C64.79,22.29 65.27,21.93 65.87,21.85C66.56,21.76 67.39,22.02 68.14,21.96C68.9,21.9 69.77,21.68 70.41,21.49C70.89,21.34 71.08,21.14 71.65,20.99C72.77,20.7 75.5,20.73 76.81,20.31C77.69,20.03 77.96,19.23 78.88,19.19C80.61,19.11 83.4,22.01 86.52,22.45C90.99,23.08 102.32,20.02 103.45,20.36C103.59,20.4 103.53,20.48 103.66,20.54C104.2,20.8 107.15,21.39 108.41,21.49C109.23,21.56 109.68,21.35 110.47,21.41C111.57,21.49 113.3,21.98 114.4,22.15C115.19,22.27 115.66,22.19 116.46,22.39C117.66,22.7 119.79,23.77 120.8,24.16C121.34,24.37 121.8,24.56 122.04,24.62C122.13,24.64 122.13,24.62 122.24,24.65C122.85,24.8 126.05,26.36 128.02,26.6C129.97,26.83 131.72,25.96 134.01,26.08C137.16,26.25 143.3,27.85 145.16,28.26C145.78,28.4 146.1,28.48 146.4,28.56C146.57,28.6 146.59,28.64 146.81,28.67C147.6,28.77 151.08,28.56 152.39,28.62C153.1,28.65 153.41,28.72 154.04,28.79C154.87,28.89 156,29.16 156.93,29.18C157.79,29.2 158.93,28.93 159.41,28.97C159.61,28.99 159.68,29.06 159.82,29.08C159.96,29.1 160.03,29.06 160.24,29.07C160.91,29.09 162.76,29.29 164.37,29.37C166.61,29.49 171.67,29.65 172.42,29.63C172.54,29.63 172.56,29.62 172.63,29.61C172.7,29.6 172.72,29.56 172.83,29.55C173.38,29.48 176.83,29.75 177.79,29.75C178.18,29.75 178.22,29.74 178.61,29.71C179.64,29.64 183.59,29.27 184.19,29.18C184.31,29.16 184.3,29.15 184.4,29.14C184.66,29.1 185.24,28.99 185.84,28.99C186.83,28.99 188.51,29.46 189.76,29.41C190.91,29.37 191.95,28.85 193.07,28.81C194.22,28.77 195.31,29.08 196.58,29.22C198.09,29.39 200.57,29.67 201.53,29.77C201.92,29.81 202.36,29.85 202.36,29.85C202.36,29.85 202.36,29.85 202.36,29.85C202.36,29.85 205.93,31.07 207.11,31.33C207.79,31.48 208.09,31.48 208.76,31.56C209.79,31.69 211.23,31.75 212.68,31.97C214.52,32.25 217.9,32.86 218.88,33.25C219.21,33.38 219.22,33.54 219.5,33.63C219.94,33.78 220.62,33.82 221.36,33.83C222.47,33.84 224.99,33.44 225.49,33.47C225.6,33.48 225.69,33.51 225.69,33.51C225.69,33.51 225.69,33.51 225.69,33.51C225.69,33.51 227.01,33.69 227.76,33.78C228.64,33.89 229.94,33.95 230.65,34.1C231.09,34.19 231.36,34.3 231.68,34.42C231.98,34.53 232.19,34.69 232.51,34.8C232.92,34.94 233.34,35.01 233.95,35.13C235.01,35.35 237.34,35.77 238.29,35.91C238.75,35.98 238.84,35.99 239.32,36.03C240.38,36.11 243.59,36.22 244.48,36.25C244.79,36.26 244.89,36.26 245.1,36.26C245.31,36.26 245.57,36.26 245.72,36.25C245.81,36.25 245.83,36.24 245.93,36.23C246.2,36.2 247.37,36.09 247.37,36.09C247.37,36.09 247.37,36.09 247.37,36.09C247.37,36.09 247.77,36.02 247.99,35.99C248.25,35.95 248.82,35.87 248.82,35.87C248.82,35.87 248.82,35.87 248.82,35.87C248.82,35.87 249.86,35.86 250.27,35.86C250.58,35.86 250.84,35.86 251.09,35.86C251.31,35.86 251.48,35.86 251.71,35.86C252.01,35.86 252.4,35.86 252.74,35.85C253.09,35.84 253.51,35.83 253.78,35.82C253.95,35.81 254.05,35.81 254.19,35.79C254.33,35.77 254.45,35.74 254.6,35.71C254.79,35.67 255,35.6 255.22,35.55C255.48,35.49 256.05,35.39 256.05,35.39C256.05,35.39 256.05,35.39 256.05,35.39C256.05,35.39 257.49,35 257.49,35C257.49,35 257.49,35 257.49,35C257.49,35 258.94,34.62 258.94,34.62C258.94,34.62 258.94,34.62 258.94,34.62C258.94,34.62 260.37,34.18 261,34.01C261.52,33.87 262.45,33.66 262.45,33.66C262.45,33.66 262.45,33.66 262.45,33.66C262.45,33.66 262.82,33.57 263.07,33.52C263.45,33.44 264.13,33.32 264.51,33.24C264.76,33.19 264.88,33.16 265.13,33.11C265.51,33.03 266.58,32.83 266.58,32.83C266.58,32.83 266.58,32.83 266.58,32.83C266.58,32.83 266.68,32.8 266.78,32.78C267.04,32.71 267.96,32.48 268.23,32.41C268.33,32.39 268.34,32.38 268.44,32.36C268.73,32.3 269.56,32.15 270.09,32.06C270.59,31.98 271.53,31.86 271.53,31.86C271.53,31.86 271.53,31.86 271.53,31.86C271.53,31.86 272.3,31.76 272.57,31.73C272.74,31.71 272.98,31.69 272.98,31.69C272.98,31.69 272.98,31.69 272.98,31.69C272.98,31.69 273.88,31.7 274.22,31.71C274.46,31.71 274.62,31.72 274.84,31.72C275.09,31.71 275.35,31.68 275.66,31.67C276.07,31.66 276.77,31.67 277.11,31.67C277.29,31.67 277.35,31.66 277.52,31.66C277.79,31.65 278.18,31.65 278.55,31.64C278.99,31.63 280,31.61 280,31.61Q280,31.61 280,31.61" style="vector-effect: none; fill: none; stroke: rgb(94, 102, 213); stroke-opacity: 1; stroke-width: 5px; opacity: 1;"/></g><g class="points"/><g class="text"/></g><g class="trace scatter traceceaa8c" style="stroke-miterlimit: 2; opacity: 1;"><g class="fills"/><g class="errorbars"/><g class="lines"><path class="js-line" d="M0,54.97Q3.78,55.19 6.61,55.01C11.76,54.68 23.37,52.04 28.29,52.11C30.83,52.15 32.18,53.08 34.07,53.05C35.9,53.02 37.6,52.32 39.44,52C41.38,51.67 44.11,51.27 45.43,51.11C46.07,51.03 46.28,51.07 46.87,50.98C47.82,50.83 49.11,50.4 50.59,50.16C52.75,49.81 56.47,49.46 58.64,49.31C60.11,49.21 61.33,49.26 62.36,49.2C63.09,49.16 63.62,49.02 64.22,49.03C64.79,49.04 65.27,49.24 65.87,49.26C66.57,49.29 67.39,49.07 68.14,49.13C68.9,49.19 69.76,49.53 70.41,49.65C70.88,49.74 71.09,49.77 71.65,49.83C72.78,49.96 75.48,50.11 76.81,50.26C77.66,50.35 77.97,50.48 78.88,50.54C80.62,50.65 83.52,49.99 86.52,50.45C91.1,51.16 102.32,55.86 103.45,56.01C103.57,56.03 103.54,56 103.66,56C104.21,56 107.16,56 108.41,56.14C109.24,56.23 109.67,56.44 110.47,56.53C111.57,56.65 113.3,56.65 114.4,56.66C115.2,56.67 115.65,56.63 116.46,56.63C117.64,56.63 119.79,56.7 120.8,56.69C121.34,56.69 121.8,56.65 122.04,56.65C122.14,56.65 122.13,56.66 122.24,56.66C122.84,56.64 126.07,56.03 128.02,55.97C130,55.91 131.72,56.49 134.01,56.34C137.17,56.13 143.3,54.28 145.16,54.17C145.78,54.13 146.1,54.25 146.4,54.26C146.57,54.27 146.6,54.27 146.81,54.26C147.6,54.23 151.08,53.9 152.39,53.84C153.1,53.81 153.41,53.81 154.04,53.82C154.87,53.83 156.01,53.79 156.93,53.93C157.8,54.06 158.93,54.5 159.41,54.59C159.6,54.62 159.68,54.62 159.82,54.63C159.96,54.65 160.03,54.66 160.24,54.68C160.91,54.74 162.76,54.93 164.37,54.98C166.61,55.05 171.67,54.9 172.42,54.91C172.54,54.91 172.56,54.91 172.63,54.92C172.7,54.93 172.72,54.93 172.83,54.95C173.38,55.04 176.84,55.59 177.79,55.77C178.18,55.84 178.21,55.86 178.61,55.94C179.64,56.15 183.58,56.99 184.19,57.03C184.31,57.04 184.3,57.02 184.4,57.02C184.67,57.02 185.24,57.08 185.84,57.08C186.83,57.08 188.51,56.84 189.76,56.92C190.91,56.99 191.96,57.23 193.07,57.48C194.23,57.74 195.3,58.16 196.58,58.45C198.08,58.79 200.57,59.22 201.53,59.36C201.92,59.42 202.36,59.45 202.36,59.45C202.36,59.45 202.36,59.45 202.36,59.45C202.36,59.45 205.94,59.73 207.11,59.76C207.8,59.78 208.09,59.72 208.76,59.75C209.79,59.8 211.22,60.14 212.68,60.17C214.51,60.21 217.89,59.83 218.88,59.79C219.19,59.78 219.24,59.78 219.5,59.78C219.95,59.78 220.62,59.82 221.36,59.82C222.47,59.83 224.99,59.81 225.49,59.78C225.6,59.77 225.69,59.76 225.69,59.76C225.69,59.76 225.69,59.76 225.69,59.76C225.69,59.76 227.01,60.02 227.76,60.04C228.64,60.07 229.93,59.9 230.65,59.84C231.08,59.81 231.36,59.75 231.68,59.75C231.97,59.75 232.2,59.79 232.51,59.8C232.92,59.82 233.34,59.84 233.95,59.84C235.01,59.83 237.34,59.68 238.29,59.67C238.75,59.66 238.85,59.72 239.32,59.68C240.38,59.59 243.59,58.87 244.48,58.76C244.79,58.72 244.89,58.73 245.1,58.71C245.31,58.7 245.57,58.68 245.72,58.67C245.81,58.66 245.83,58.66 245.93,58.65C246.2,58.63 247.37,58.56 247.37,58.56C247.37,58.56 247.37,58.56 247.37,58.56C247.37,58.56 247.77,58.56 247.99,58.55C248.25,58.54 248.82,58.49 248.82,58.49C248.82,58.49 248.82,58.49 248.82,58.49C248.82,58.49 249.85,58.31 250.27,58.24C250.58,58.19 250.84,58.16 251.09,58.12C251.31,58.08 251.48,58.05 251.71,58.01C252.01,57.96 252.4,57.91 252.74,57.85C253.09,57.79 253.51,57.7 253.78,57.63C253.95,57.59 254.05,57.55 254.19,57.51C254.33,57.47 254.45,57.44 254.6,57.39C254.79,57.33 255,57.27 255.22,57.19C255.48,57.1 256.05,56.88 256.05,56.88C256.05,56.88 256.05,56.88 256.05,56.88C256.05,56.88 257.49,56.24 257.49,56.24C257.49,56.24 257.49,56.24 257.49,56.24C257.49,56.24 258.94,55.5 258.94,55.5C258.94,55.5 258.94,55.5 258.94,55.5C258.94,55.5 260.37,54.67 261,54.31C261.53,54 262.45,53.46 262.45,53.46C262.45,53.46 262.45,53.46 262.45,53.46C262.45,53.46 262.82,53.25 263.07,53.13C263.45,52.94 264.13,52.64 264.51,52.48C264.76,52.37 264.88,52.33 265.13,52.23C265.51,52.08 266.58,51.64 266.58,51.64C266.58,51.64 266.58,51.64 266.58,51.64C266.58,51.64 266.68,51.62 266.78,51.59C267.04,51.51 267.96,51.17 268.23,51.09C268.33,51.06 268.34,51.06 268.44,51.03C268.73,50.94 269.56,50.62 270.09,50.45C270.58,50.3 271.53,50.06 271.53,50.06C271.53,50.06 271.53,50.06 271.53,50.06C271.53,50.06 272.3,49.94 272.57,49.89C272.74,49.86 272.98,49.79 272.98,49.79C272.98,49.79 272.98,49.79 272.98,49.79C272.98,49.79 273.88,49.66 274.22,49.58C274.46,49.52 274.62,49.43 274.84,49.39C275.09,49.34 275.35,49.35 275.66,49.34C276.07,49.32 276.77,49.29 277.11,49.29C277.29,49.29 277.35,49.3 277.52,49.3C277.79,49.3 278.18,49.27 278.55,49.27C278.99,49.27 280,49.29 280,49.29Q280,49.29 280,49.29" style="vector-effect: none; fill: none; stroke: rgb(164, 125, 3); stroke-opacity: 1; stroke-width: 5px; opacity: 1;"/></g><g class="points"/><g class="text"/></g><g class="trace scatter tracedbf135" style="stroke-miterlimit: 2; opacity: 1;"><g class="fills"/><g class="errorbars"/><g class="lines"><path class="js-line" d="M0,62.28Q2.99,53.45 6.61,51.64C11.38,49.25 23.39,52.68 28.29,53.5C30.85,53.93 32.18,54.45 34.07,54.96C35.9,55.45 37.63,55.8 39.44,56.49C41.42,57.25 44.12,58.73 45.43,59.41C46.08,59.75 46.27,59.9 46.87,60.2C47.81,60.68 49.08,61.46 50.59,61.92C52.73,62.57 56.46,62.97 58.64,63.22C60.11,63.39 61.33,63.41 62.36,63.47C63.09,63.51 63.62,63.59 64.22,63.55C64.79,63.51 65.27,63.33 65.87,63.26C66.56,63.18 67.39,63.23 68.14,63.16C68.9,63.09 69.77,62.94 70.41,62.83C70.89,62.75 71.09,62.62 71.65,62.57C72.78,62.47 75.48,62.72 76.81,62.71C77.66,62.7 77.97,62.67 78.88,62.61C80.62,62.5 83.47,62.23 86.52,61.98C91.06,61.61 102.32,60.67 103.45,60.62C103.58,60.61 103.54,60.62 103.66,60.62C104.21,60.63 107.16,60.58 108.41,60.73C109.24,60.83 109.67,61.09 110.47,61.19C111.56,61.32 113.3,61.16 114.4,61.26C115.2,61.33 115.64,61.49 116.46,61.6C117.64,61.75 119.79,61.94 120.8,62.01C121.34,62.05 121.8,62.06 122.04,62.07C122.14,62.07 122.13,62.07 122.24,62.07C122.84,62.09 126.08,62.4 128.02,62.38C130,62.36 131.7,62.04 134.01,61.93C137.15,61.78 143.3,61.89 145.16,61.72C145.78,61.66 146.1,61.56 146.4,61.51C146.57,61.48 146.59,61.46 146.81,61.44C147.6,61.37 151.08,61.5 152.39,61.46C153.1,61.44 153.41,61.37 154.04,61.35C154.87,61.32 156,61.37 156.93,61.36C157.79,61.35 158.93,61.35 159.41,61.32C159.6,61.31 159.68,61.29 159.82,61.28C159.96,61.27 160.03,61.28 160.24,61.27C160.91,61.25 162.77,61.2 164.37,61.1C166.61,60.96 171.67,60.51 172.42,60.46C172.54,60.45 172.56,60.45 172.63,60.45C172.7,60.45 172.72,60.45 172.83,60.44C173.38,60.39 176.83,59.82 177.79,59.82C178.18,59.82 178.21,59.88 178.61,59.92C179.64,60.03 183.59,60.43 184.19,60.44C184.31,60.44 184.3,60.44 184.4,60.43C184.67,60.41 185.25,60.38 185.84,60.28C186.83,60.12 188.51,59.66 189.76,59.42C190.91,59.2 191.95,59.08 193.07,58.88C194.22,58.67 195.31,58.37 196.58,58.17C198.08,57.93 200.58,57.77 201.53,57.58C201.93,57.5 202.36,57.34 202.36,57.34C202.36,57.34 202.36,57.34 202.36,57.34C202.36,57.34 205.93,56.35 207.11,56.13C207.8,56 208.09,56.03 208.76,55.94C209.79,55.81 211.22,55.55 212.68,55.37C214.51,55.14 217.89,54.95 218.88,54.7C219.2,54.62 219.24,54.56 219.5,54.45C219.96,54.25 220.61,53.88 221.36,53.59C222.45,53.17 224.99,52.39 225.49,52.3C225.6,52.28 225.69,52.29 225.69,52.29C225.69,52.29 225.69,52.29 225.69,52.29C225.69,52.29 227.01,52.34 227.76,52.37C228.64,52.41 229.93,52.45 230.65,52.51C231.08,52.55 231.36,52.63 231.68,52.63C231.97,52.63 232.2,52.57 232.51,52.54C232.92,52.5 233.34,52.51 233.95,52.44C235.01,52.32 237.34,51.91 238.29,51.78C238.75,51.72 238.84,51.67 239.32,51.65C240.38,51.6 243.59,51.81 244.48,51.79C244.79,51.78 244.89,51.76 245.1,51.74C245.31,51.72 245.57,51.68 245.72,51.66C245.81,51.65 245.83,51.65 245.93,51.64C246.2,51.62 247.37,51.55 247.37,51.55C247.37,51.55 247.37,51.55 247.37,51.55C247.37,51.55 247.77,51.5 247.99,51.48C248.25,51.46 248.82,51.45 248.82,51.45C248.82,51.45 248.82,51.45 248.82,51.45C248.82,51.45 249.86,51.39 250.27,51.37C250.58,51.35 250.84,51.33 251.09,51.32C251.31,51.31 251.48,51.31 251.71,51.31C252.01,51.3 252.4,51.31 252.74,51.29C253.09,51.27 253.51,51.22 253.78,51.21C253.95,51.2 254.05,51.2 254.19,51.2C254.33,51.2 254.45,51.22 254.6,51.22C254.79,51.22 255,51.22 255.22,51.22C255.48,51.22 256.05,51.21 256.05,51.21C256.05,51.21 256.05,51.21 256.05,51.21C256.05,51.21 257.49,51.28 257.49,51.28C257.49,51.28 257.49,51.28 257.49,51.28C257.49,51.28 258.94,51.37 258.94,51.37C258.94,51.37 258.94,51.37 258.94,51.37C258.94,51.37 260.37,51.59 261,51.66C261.52,51.72 262.45,51.8 262.45,51.8C262.45,51.8 262.45,51.8 262.45,51.8C262.45,51.8 262.82,51.83 263.07,51.87C263.45,51.93 264.13,52.07 264.51,52.13C264.76,52.17 264.88,52.18 265.13,52.21C265.51,52.25 266.58,52.34 266.58,52.34C266.58,52.34 266.58,52.34 266.58,52.34C266.58,52.34 266.68,52.34 266.78,52.34C267.04,52.35 267.96,52.44 268.23,52.45C268.33,52.45 268.34,52.45 268.44,52.45C268.73,52.45 269.56,52.46 270.09,52.44C270.59,52.42 271.53,52.36 271.53,52.36C271.53,52.36 271.53,52.36 271.53,52.36C271.53,52.36 272.3,52.31 272.57,52.3C272.74,52.3 272.98,52.3 272.98,52.3C272.98,52.3 272.98,52.3 272.98,52.3C272.98,52.3 273.88,52.32 274.22,52.32C274.46,52.32 274.62,52.3 274.84,52.3C275.09,52.3 275.35,52.31 275.66,52.32C276.07,52.33 276.77,52.35 277.11,52.34C277.29,52.33 277.35,52.32 277.52,52.31C277.79,52.29 278.18,52.28 278.55,52.26C278.99,52.23 280,52.14 280,52.14Q280,52.14 280,52.14" style="vector-effect: none; fill: none; stroke: rgb(255, 26, 74); stroke-opacity: 1; stroke-width: 5px; opacity: 1;"/></g><g class="points"/><g class="text"/></g><g class="trace scatter trace90e306" style="stroke-miterlimit: 2; opacity: 1;"><g class="fills"/><g class="errorbars"/><g class="lines"><path class="js-line" d="M0,53.1Q3.62,56.1 6.61,57.05C11.63,58.65 23.37,58.79 28.29,58.8C30.83,58.8 32.19,58.61 34.07,58.35C35.9,58.1 37.64,57.91 39.44,57.29C41.43,56.6 44.12,54.93 45.43,54.23C46.08,53.88 46.28,53.76 46.87,53.43C47.82,52.9 49.05,51.8 50.59,51.32C52.71,50.66 56.47,50.63 58.64,50.63C60.12,50.63 61.33,50.86 62.36,50.96C63.09,51.03 63.63,51.01 64.22,51.15C64.8,51.29 65.26,51.68 65.87,51.8C66.56,51.93 67.39,51.9 68.14,51.81C68.9,51.72 69.76,51.32 70.41,51.23C70.88,51.17 71.1,51.25 71.65,51.21C72.78,51.14 75.48,50.6 76.81,50.61C77.66,50.62 77.98,50.71 78.88,50.89C80.63,51.25 83.44,52.69 86.52,52.97C91.03,53.37 102.32,51.77 103.45,51.49C103.58,51.46 103.54,51.43 103.66,51.4C104.21,51.28 107.16,51.39 108.41,51.26C109.24,51.17 109.68,51.07 110.47,50.89C111.57,50.64 113.29,50.07 114.4,49.83C115.19,49.66 115.64,49.57 116.46,49.48C117.64,49.36 119.8,49.47 120.8,49.3C121.35,49.2 121.8,48.97 122.04,48.91C122.13,48.89 122.13,48.89 122.24,48.87C122.84,48.77 126.07,48.31 128.02,48.18C130,48.05 131.71,47.95 134.01,48.12C137.16,48.35 143.3,49.64 145.16,49.88C145.78,49.96 146.1,49.94 146.4,50C146.58,50.04 146.59,50.08 146.81,50.13C147.6,50.3 151.08,50.72 152.39,50.74C153.1,50.75 153.42,50.71 154.04,50.62C154.87,50.5 156,50.19 156.93,49.98C157.79,49.79 158.93,49.52 159.41,49.43C159.6,49.39 159.68,49.37 159.82,49.36C159.96,49.35 160.03,49.39 160.24,49.4C160.91,49.43 162.77,49.46 164.37,49.44C166.61,49.41 171.67,49.11 172.42,49.17C172.54,49.18 172.56,49.19 172.63,49.21C172.7,49.23 172.71,49.27 172.83,49.3C173.38,49.44 176.84,49.58 177.79,49.72C178.18,49.78 178.21,49.88 178.61,49.89C179.64,49.92 183.58,49.07 184.19,49.02C184.31,49.01 184.3,49.02 184.4,49.02C184.67,49.02 185.24,49.04 185.84,49.06C186.83,49.09 188.51,49.15 189.76,49.22C190.91,49.29 191.96,49.27 193.07,49.46C194.23,49.66 195.3,50.13 196.58,50.44C198.08,50.81 200.57,51.35 201.53,51.49C201.92,51.55 202.36,51.56 202.36,51.56C202.36,51.56 202.36,51.56 202.36,51.56C202.36,51.56 205.93,52.89 207.11,53.18C207.79,53.35 208.09,53.31 208.76,53.43C209.79,53.61 211.23,53.9 212.68,54.22C214.51,54.62 217.89,55.4 218.88,55.66C219.2,55.74 219.24,55.75 219.5,55.84C219.96,55.99 220.63,56.22 221.36,56.53C222.47,57 224.99,58.33 225.49,58.47C225.6,58.5 225.69,58.49 225.69,58.49C225.69,58.49 225.69,58.49 225.69,58.49C225.69,58.49 227.01,58.65 227.76,58.67C228.64,58.69 229.93,58.55 230.65,58.56C231.08,58.57 231.36,58.6 231.68,58.63C231.97,58.66 232.2,58.72 232.51,58.72C232.92,58.73 233.34,58.62 233.95,58.6C235.01,58.57 237.34,58.67 238.29,58.68C238.75,58.68 238.85,58.68 239.32,58.68C240.38,58.69 243.59,58.7 244.48,58.73C244.79,58.74 244.89,58.74 245.1,58.76C245.31,58.78 245.57,58.82 245.72,58.84C245.81,58.85 245.83,58.85 245.93,58.87C246.2,58.91 247.37,59.12 247.37,59.12C247.37,59.12 247.37,59.12 247.37,59.12C247.37,59.12 247.77,59.17 247.99,59.2C248.25,59.23 248.82,59.29 248.82,59.29C248.82,59.29 248.82,59.29 248.82,59.29C248.82,59.29 249.86,59.38 250.27,59.41C250.58,59.43 250.84,59.46 251.09,59.47C251.31,59.47 251.48,59.46 251.71,59.45C252.01,59.44 252.4,59.45 252.74,59.43C253.09,59.41 253.51,59.37 253.78,59.35C253.95,59.34 254.05,59.33 254.19,59.33C254.33,59.33 254.45,59.34 254.6,59.34C254.79,59.34 255,59.35 255.22,59.35C255.48,59.35 256.05,59.33 256.05,59.33C256.05,59.33 256.05,59.33 256.05,59.33C256.05,59.33 257.49,59.21 257.49,59.21C257.49,59.21 257.49,59.21 257.49,59.21C257.49,59.21 258.94,59.1 258.94,59.1C258.94,59.1 258.94,59.1 258.94,59.1C258.94,59.1 260.37,59.12 261,59.11C261.53,59.1 262.45,59.06 262.45,59.06C262.45,59.06 262.45,59.06 262.45,59.06C262.45,59.06 262.82,59.07 263.07,59.08C263.45,59.1 264.13,59.16 264.51,59.16C264.76,59.16 264.88,59.16 265.13,59.14C265.51,59.11 266.58,58.97 266.58,58.97C266.58,58.97 266.58,58.97 266.58,58.97C266.58,58.97 266.68,58.95 266.78,58.94C267.04,58.91 267.96,58.84 268.23,58.82C268.33,58.81 268.34,58.81 268.44,58.81C268.73,58.8 269.56,58.8 270.09,58.79C270.59,58.79 271.53,58.78 271.53,58.78C271.53,58.78 271.53,58.78 271.53,58.78C271.53,58.78 272.3,58.76 272.57,58.74C272.74,58.73 272.98,58.7 272.98,58.7C272.98,58.7 272.98,58.7 272.98,58.7C272.98,58.7 273.88,58.58 274.22,58.54C274.46,58.51 274.62,58.5 274.84,58.48C275.09,58.45 275.35,58.42 275.66,58.39C276.07,58.35 276.77,58.27 277.11,58.25C277.29,58.24 277.35,58.23 277.52,58.24C277.79,58.25 278.18,58.3 278.55,58.33C278.99,58.37 280,58.46 280,58.46Q280,58.46 280,58.46" style="vector-effect: none; fill: none; stroke: rgb(17, 17, 17); stroke-opacity: 1; stroke-width: 5px; opacity: 1;"/></g><g class="points"/><g class="text"/></g></g></g><g class="overplot"/><path class="xlines-above crisp" d="M0,0" style="fill: none;"/><path class="ylines-above crisp" d="M0,0" style="fill: none;"/><g class="overlines-above"/><g class="xaxislayer-above"/><g class="yaxislayer-above"/><g class="overaxes-above"/></g></g><g class="polarlayer"/><g class="smithlayer"/><g class="ternarylayer"/><g class="geolayer"/><g class="funnelarealayer"/><g class="pielayer"/><g class="iciclelayer"/><g class="treemaplayer"/><g class="sunburstlayer"/><g class="glimages"/><defs id="topdefs-1097b8"><g class="clips"/></defs><g class="layer-above"><g class="imagelayer"/><g class="shapelayer"/></g><g class="infolayer"><g class="g-gtitle"><text class="gtitle" x="15" y="25" text-anchor="start" dy="0em" style="font-family: Ubuntu, verdana, arial, sans-serif; font-size: 16px; fill: rgb(233, 84, 32); opacity: 1; font-weight: normal; white-space: pre;">Sněmovna volby 2025</text></g><g class="g-xtitle"/><g class="g-ytitle"/></g></svg>