<svg class="main-svg" xmlns="http://www.w3.org/2000/svg" xmlns:xlink="http://www.w3.org/1999/xlink" width="300" height="135" style="" viewBox="0 0 300 135"><rect x="0" y="0" width="300" height="135" style="fill: rgb(255, 255, 255); fill-opacity: 1;"/><defs id="defs-bba925"><g class="clips"><clipPath id="clipbba925xyplot" class="plotclip"><rect width="280" height="75"/></clipPath><clipPath class="axesclip" id="clipbba925x"><rect x="10" y="0" width="280" height="135"/></clipPath><clipPath class="axesclip" id="clipbba925y"><rect x="0" y="50" width="300" height="75"/></clipPath><clipPath class="axesclip" id="clipbba925xy"><rect x="10" y="50" width="280" height="75"/></clipPath></g><g class="gradients"/><g class="patterns"/></defs><g class="bglayer"/><g class="layer-below"><g class="imagelayer"/><g class="shapelayer"/></g><g class="cartesianlayer"><g class="subplot xy"><g class="layer-subplot"><g class="shapelayer"/><g class="imagelayer"/></g><g class="minor-gridlayer"><g class="x"/><g class="y"/></g><g class="gridlayer"><g class="x"><path class="xgrid crisp" transform="translate(30.38,0)" d="M0,50v75" style="stroke: rgb(235, 240, 248); stroke-opacity: 1; stroke-width: 1px;"/><path class="xgrid crisp" transform="translate(118.94,0)" d="M0,50v75" style="stroke: rgb(235, 240, 248); stroke-opacity: 1; stroke-width: 1px;"/><path class="xgrid crisp" transform="translate(207.5,0)" d="M0,50v75" style="stroke: rgb(235, 240, 248); stroke-opacity: 1; stroke-width: 1px;"/></g><g class="y"><path class="ygrid crisp" transform="translate(0,104.31)" d="M10,0h280" style="stroke: rgb(235, 240, 248); stroke-opacity: 1; stroke-width: 1px;"/><path class="ygrid crisp" transform="translate(0,83.62)" d="M10,0h280" style="stroke: rgb(235, 240, 248); stroke-opacity: 1; stroke-width: 1px;"/><path class="ygrid crisp" transform="translate(0,62.94)" d="M10,0h280" style="stroke: rgb(235, 240, 248); stroke-opacity: 1; stroke-width: 1px;"/></g></g><g class="zerolinelayer"><path class="yzl zl crisp" transform="translate(0,125)" d="M10,0h280" style="stroke: rgb(235, 240, 248); stroke-opacity: 1; stroke-width: 2px;"/></g><path class="xlines-below"/><path class="ylines-below"/><g class="overlines-below"/><g class="xaxislayer-below"/><g class="yaxislayer-below"/><g class="overaxes-below"/><g class="plot" transform="translate(10,50)" clip-path="url(#clipbba925xyplot)"><g class="scatterlayer mlayer"><g class="trace scatter tracedfc6c1" style="stroke-miterlimit: 2; opacity: 1;"><g class="fills"/><g class="errorbars"/><g class="lines"><path class="js-line" d="M0,18.93Q4.43,19 7.76,19.16C13.8,19.45 27.5,21.59 33.24,20.85C36.28,20.46 37.79,19.15 40.03,18.59C42.15,18.06 44.18,17.91 46.34,17.54C48.62,17.15 51.83,16.51 53.38,16.3C54.14,16.2 54.39,16.23 55.08,16.13C56.2,15.96 57.72,15.6 59.45,15.25C62,14.73 66.35,13.69 68.91,13.31C70.64,13.05 72.07,12.91 73.28,12.9C74.13,12.89 74.75,13.04 75.46,13.05C76.13,13.06 76.7,12.97 77.4,12.95C78.22,12.93 79.18,12.96 80.07,12.97C80.96,12.98 81.99,12.97 82.74,13.01C83.3,13.04 83.54,13.09 84.19,13.13C85.52,13.22 88.71,13.1 90.26,13.42C91.27,13.63 91.61,14.24 92.69,14.33C94.72,14.5 98.07,13.12 101.66,12.56C106.98,11.73 120.25,10.57 121.56,10.28C121.71,10.25 121.67,10.24 121.8,10.2C122.44,10.03 125.9,9.05 127.38,9.06C128.36,9.07 128.87,9.54 129.81,9.6C131.1,9.68 133.13,9.35 134.42,9.16C135.36,9.02 135.91,8.96 136.85,8.67C138.25,8.24 140.74,6.9 141.94,6.55C142.56,6.37 143.12,6.33 143.4,6.29C143.51,6.27 143.51,6.28 143.64,6.26C144.36,6.15 148.14,5.11 150.43,5.05C152.75,4.99 154.76,5.71 157.47,5.95C161.16,6.28 168.39,6.86 170.57,6.62C171.31,6.54 171.67,6.29 172.03,6.21C172.23,6.17 172.26,6.18 172.51,6.14C173.44,6.01 177.52,5.32 179.06,5.25C179.9,5.21 180.27,5.36 181.01,5.34C181.99,5.32 183.31,5.16 184.4,5.03C185.41,4.91 186.74,4.67 187.31,4.61C187.54,4.58 187.64,4.58 187.8,4.57C187.96,4.56 188.04,4.56 188.28,4.55C189.05,4.53 191.26,4.38 193.14,4.46C195.78,4.58 201.73,5.42 202.6,5.49C202.74,5.5 202.76,5.51 202.84,5.5C202.92,5.49 202.95,5.47 203.08,5.45C203.73,5.37 207.79,5.46 208.91,5.25C209.38,5.16 209.41,4.94 209.88,4.91C211.09,4.83 215.73,6.15 216.43,6.23C216.56,6.25 216.55,6.24 216.67,6.24C216.98,6.25 217.67,6.17 218.37,6.23C219.53,6.32 221.51,6.78 222.98,7C224.33,7.2 225.54,7.4 226.86,7.53C228.21,7.66 229.5,7.64 230.99,7.76C232.77,7.91 235.69,8.26 236.81,8.41C237.27,8.47 237.78,8.56 237.78,8.56C237.78,8.56 237.78,8.56 237.78,8.56C237.78,8.56 241.98,9.82 243.36,9.86C244.17,9.88 244.51,9.59 245.3,9.52C246.51,9.41 248.22,9.75 249.91,9.48C252.08,9.13 256.02,7.44 257.19,7.17C257.55,7.09 257.61,7.12 257.92,7.06C258.45,6.96 259.23,6.76 260.1,6.57C261.4,6.29 264.37,5.61 264.96,5.55C265.09,5.54 265.2,5.55 265.2,5.55C265.2,5.55 265.2,5.55 265.2,5.55C265.2,5.55 266.76,5.26 267.63,5.02C268.67,4.73 270,4.09 271.02,3.89C271.82,3.73 272.28,3.74 273.21,3.75Q274.85,3.77 280,4.35" style="vector-effect: none; fill: none; stroke: rgb(38, 16, 96); stroke-opacity: 1; stroke-width: 5px; opacity: 1;"/></g><g class="points"/><g class="text"/></g><g class="trace scatter trace805eb6" style="stroke-miterlimit: 2; opacity: 1;"><g class="fills"/><g class="errorbars"/><g class="lines"><path class="js-line" d="M0,62.38Q3.72,53.7 7.76,51.83C13.41,49.22 27.48,52.85 33.24,53.67C36.25,54.1 37.81,54.62 40.03,55.12C42.18,55.61 44.21,55.95 46.34,56.64C48.65,57.39 51.84,58.86 53.38,59.53C54.15,59.86 54.38,60.02 55.08,60.32C56.19,60.8 57.68,61.57 59.45,62.03C61.97,62.68 66.35,63.06 68.91,63.31C70.64,63.48 72.07,63.5 73.28,63.56C74.13,63.6 74.76,63.69 75.46,63.65C76.13,63.61 76.7,63.43 77.4,63.36C78.22,63.28 79.18,63.33 80.07,63.26C80.96,63.19 81.99,63.04 82.74,62.93C83.3,62.85 83.54,62.72 84.19,62.67C85.52,62.57 88.69,62.82 90.26,62.81C91.25,62.8 91.63,62.77 92.69,62.71C94.74,62.6 98.08,62.34 101.66,62.09C106.99,61.72 120.25,60.75 121.56,60.73C121.7,60.73 121.67,60.74 121.8,60.74C122.44,60.76 125.91,60.7 127.38,60.85C128.36,60.95 128.87,61.22 129.81,61.31C131.1,61.44 133.13,61.27 134.42,61.37C135.36,61.44 135.89,61.6 136.85,61.71C138.23,61.86 140.76,62.05 141.94,62.12C142.57,62.16 143.12,62.17 143.4,62.18C143.51,62.18 143.51,62.18 143.64,62.18C144.36,62.2 148.15,62.5 150.43,62.48C152.76,62.46 154.76,62.14 157.47,62.03C161.16,61.88 168.39,62 170.57,61.83C171.3,61.77 171.68,61.67 172.03,61.62C172.23,61.59 172.26,61.58 172.51,61.56C173.44,61.5 177.52,61.61 179.06,61.57C179.9,61.55 180.27,61.49 181.01,61.47C181.98,61.45 183.31,61.48 184.4,61.47C185.41,61.46 186.75,61.45 187.31,61.43C187.54,61.42 187.64,61.41 187.8,61.4C187.96,61.39 188.04,61.39 188.28,61.38C189.05,61.35 191.25,61.31 193.14,61.22C195.77,61.09 201.73,60.63 202.6,60.58C202.74,60.57 202.76,60.57 202.84,60.57C202.92,60.57 202.95,60.57 203.08,60.56C203.74,60.51 207.78,59.96 208.91,59.95C209.37,59.95 209.41,60 209.88,60.04C211.09,60.14 215.73,60.55 216.43,60.56C216.56,60.56 216.55,60.56 216.67,60.55C216.98,60.53 217.67,60.5 218.37,60.4C219.53,60.24 221.51,59.79 222.98,59.55C224.33,59.33 225.55,59.22 226.86,59.02C228.22,58.81 229.49,58.52 230.99,58.32C232.76,58.08 235.69,57.93 236.81,57.74C237.27,57.66 237.78,57.5 237.78,57.5C237.78,57.5 237.78,57.5 237.78,57.5C237.78,57.5 241.98,56.52 243.36,56.31C244.17,56.19 244.52,56.22 245.3,56.14C246.51,56.01 248.2,55.77 249.91,55.59C252.06,55.37 256.03,55.21 257.19,54.95C257.57,54.87 257.61,54.8 257.92,54.68C258.45,54.47 259.22,54.08 260.1,53.75C261.39,53.27 264.37,52.33 264.96,52.21C265.09,52.18 265.2,52.19 265.2,52.19C265.2,52.19 265.2,52.19 265.2,52.19C265.2,52.19 266.75,52.16 267.63,52.13C268.67,52.1 270.01,52.01 271.02,51.99C271.83,51.97 272.28,51.99 273.21,51.99Q274.85,51.98 280,51.93" style="vector-effect: none; fill: none; stroke: rgb(206, 15, 104); stroke-opacity: 1; stroke-width: 5px; opacity: 1;"/></g><g class="points"/><g class="text"/></g><g class="trace scatter trace13bf2c" style="stroke-miterlimit: 2; opacity: 1;"><g class="fills"/><g class="errorbars"/><g class="lines"><path class="js-line" d="M0,55.14Q4.43,55.36 7.76,55.18C13.81,54.85 27.46,52.23 33.24,52.3C36.23,52.34 37.81,53.26 40.03,53.23C42.17,53.2 44.18,52.5 46.34,52.19C48.62,51.86 51.83,51.47 53.38,51.31C54.14,51.23 54.39,51.27 55.08,51.18C56.2,51.03 57.71,50.6 59.45,50.36C62,50.01 66.36,49.67 68.91,49.52C70.64,49.42 72.07,49.47 73.28,49.41C74.13,49.37 74.76,49.23 75.46,49.24C76.13,49.25 76.7,49.44 77.4,49.47C78.22,49.5 79.18,49.29 80.07,49.35C80.96,49.41 81.98,49.74 82.74,49.86C83.29,49.95 83.54,49.98 84.19,50.04C85.52,50.17 88.69,50.32 90.26,50.47C91.25,50.56 91.62,50.69 92.69,50.75C94.73,50.86 98.12,50.19 101.66,50.65C107.03,51.35 120.24,56.02 121.56,56.17C121.7,56.19 121.67,56.16 121.8,56.16C122.44,56.15 125.9,56.16 127.38,56.29C128.36,56.38 128.87,56.59 129.81,56.68C131.1,56.8 133.13,56.8 134.42,56.81C135.36,56.82 135.89,56.78 136.85,56.78C138.24,56.78 140.76,56.85 141.94,56.84C142.57,56.84 143.12,56.8 143.4,56.8C143.51,56.8 143.51,56.81 143.64,56.81C144.36,56.79 148.14,56.19 150.43,56.13C152.75,56.07 154.77,56.64 157.47,56.49C161.17,56.28 168.38,54.45 170.57,54.34C171.3,54.3 171.68,54.42 172.03,54.43C172.23,54.44 172.26,54.44 172.51,54.43C173.44,54.4 177.52,54.06 179.06,54.01C179.9,53.98 180.27,53.99 181.01,54C181.98,54.01 183.32,53.96 184.4,54.1C185.41,54.23 186.74,54.67 187.31,54.76C187.54,54.8 187.64,54.79 187.8,54.8C187.96,54.81 188.04,54.82 188.28,54.84C189.05,54.9 191.25,55.09 193.14,55.14C195.77,55.21 201.73,55.06 202.6,55.07C202.74,55.07 202.76,55.07 202.84,55.08C202.92,55.09 202.95,55.09 203.08,55.11C203.74,55.2 207.78,55.75 208.91,55.93C209.37,56 209.41,56.02 209.88,56.1C211.09,56.31 215.73,57.14 216.43,57.18C216.56,57.19 216.55,57.17 216.67,57.17C216.98,57.17 217.66,57.23 218.37,57.23C219.53,57.23 221.51,56.98 222.98,57.06C224.33,57.13 225.55,57.37 226.86,57.62C228.22,57.88 229.49,58.3 230.99,58.59C232.76,58.93 235.68,59.35 236.81,59.49C237.27,59.55 237.78,59.58 237.78,59.58C237.78,59.58 237.78,59.58 237.78,59.58C237.78,59.58 241.98,59.86 243.36,59.9C244.17,59.92 244.52,59.85 245.3,59.89C246.51,59.94 248.2,60.29 249.91,60.33C252.06,60.38 256.02,60.02 257.19,59.98C257.56,59.97 257.61,59.96 257.92,59.96C258.45,59.96 259.23,60.02 260.1,60.03C261.4,60.05 264.37,60.06 264.96,60.04C265.09,60.03 265.2,60.02 265.2,60.02C265.2,60.02 265.2,60.02 265.2,60.02C265.2,60.02 266.75,60.39 267.63,60.46C268.66,60.54 270.01,60.42 271.02,60.4C271.83,60.38 272.28,60.39 273.21,60.34Q274.85,60.25 280,59.76" style="vector-effect: none; fill: none; stroke: rgb(234, 35, 41); stroke-opacity: 1; stroke-width: 5px; opacity: 1;"/></g><g class="points"/><g class="text"/></g><g class="trace scatter trace4b0c65" style="stroke-miterlimit: 2; opacity: 1;"><g class="fills"/><g class="errorbars"/><g class="lines"><path class="js-line" d="M0,55.35Q4.38,57.1 7.76,57.73C13.76,58.85 27.45,59.29 33.24,59.56C36.22,59.7 37.81,59.63 40.03,59.7C42.17,59.76 44.23,60.36 46.34,59.95C48.67,59.5 51.82,57.37 53.38,56.82C54.13,56.55 54.39,56.59 55.08,56.36C56.21,55.98 57.68,55 59.45,54.62C61.97,54.08 66.36,54.24 68.91,54.24C70.64,54.24 72.07,54.43 73.28,54.43C74.13,54.43 74.76,54.29 75.46,54.32C76.13,54.35 76.7,54.55 77.4,54.59C78.22,54.63 79.18,54.56 80.07,54.5C80.96,54.44 81.98,54.27 82.74,54.24C83.3,54.22 83.54,54.31 84.19,54.27C85.52,54.18 88.69,53.54 90.26,53.35C91.25,53.23 91.63,53.11 92.69,53.13C94.74,53.17 98.07,54.09 101.66,54.3C106.98,54.61 120.25,54.13 121.56,54.01C121.71,54 121.67,53.98 121.8,53.97C122.44,53.93 125.91,54.27 127.38,54.14C128.36,54.05 128.87,53.78 129.81,53.63C131.1,53.43 133.13,53.28 134.42,53.15C135.36,53.05 135.89,52.98 136.85,52.91C138.24,52.8 140.76,52.71 141.94,52.63C142.57,52.59 143.12,52.53 143.4,52.51C143.51,52.5 143.51,52.5 143.64,52.49C144.36,52.45 148.15,52.38 150.43,52.3C152.76,52.22 154.77,51.85 157.47,52.01C161.17,52.23 168.38,53.96 170.57,54.13C171.3,54.19 171.68,54.09 172.03,54.12C172.23,54.14 172.26,54.19 172.51,54.21C173.44,54.28 177.52,54.18 179.06,54.04C179.9,53.96 180.27,53.84 181.01,53.74C181.98,53.61 183.31,53.48 184.4,53.35C185.41,53.23 186.75,53.04 187.31,52.98C187.54,52.96 187.64,52.95 187.8,52.94C187.96,52.93 188.04,52.94 188.28,52.94C189.05,52.93 191.25,52.93 193.14,52.87C195.77,52.79 201.73,52.44 202.6,52.42C202.74,52.42 202.76,52.41 202.84,52.42C202.92,52.43 202.95,52.46 203.08,52.48C203.73,52.59 207.79,52.94 208.91,53.08C209.37,53.14 209.41,53.19 209.88,53.23C211.09,53.34 215.73,53.42 216.43,53.43C216.56,53.43 216.55,53.43 216.67,53.43C216.98,53.44 217.67,53.47 218.37,53.51C219.53,53.58 221.51,53.75 222.98,53.83C224.33,53.91 225.55,53.86 226.86,54C228.22,54.14 229.5,54.44 230.99,54.69C232.76,54.99 235.68,55.56 236.81,55.69C237.27,55.74 237.78,55.74 237.78,55.74C237.78,55.74 237.78,55.74 237.78,55.74C237.78,55.74 241.98,56.5 243.36,56.8C244.18,56.98 244.51,57.1 245.3,57.27C246.51,57.54 248.2,57.86 249.91,58.18C252.06,58.58 256.02,59.25 257.19,59.43C257.56,59.49 257.61,59.48 257.92,59.53C258.45,59.61 259.24,59.72 260.1,59.92C261.41,60.22 264.37,61.18 264.96,61.29C265.09,61.31 265.2,61.31 265.2,61.31C265.2,61.31 265.2,61.31 265.2,61.31C265.2,61.31 266.75,61.36 267.63,61.39C268.67,61.42 270.01,61.43 271.02,61.5C271.83,61.56 272.28,61.67 273.21,61.75Q274.85,61.89 280,62.11" style="vector-effect: none; fill: none; stroke: rgb(0, 0, 0); stroke-opacity: 1; stroke-width: 5px; opacity: 1;"/></g><g class="points"/><g class="text"/></g><g class="trace scatter trace9d426e" style="stroke-miterlimit: 2; opacity: 1;"><g class="fills"/><g class="errorbars"/><g class="lines"><path class="js-line" d="M0,67.55Q4.43,67.58 7.76,67.81C13.81,68.22 27.45,70.26 33.24,70.41C36.22,70.49 37.81,70.13 40.03,70.08C42.17,70.03 44.18,70.17 46.34,70.08C48.62,69.99 51.83,69.57 53.38,69.51C54.14,69.48 54.38,69.53 55.08,69.52C56.2,69.51 57.72,69.45 59.45,69.43C62,69.4 66.36,69.44 68.91,69.4C70.64,69.37 72.07,69.24 73.28,69.26C74.13,69.27 74.76,69.32 75.46,69.39C76.13,69.46 76.7,69.62 77.4,69.67C78.22,69.73 79.19,69.56 80.07,69.67C80.97,69.78 81.98,70.23 82.74,70.32C83.29,70.39 83.54,70.34 84.19,70.33C85.52,70.32 88.69,70.26 90.26,70.16C91.25,70.1 91.63,70.08 92.69,69.93C94.74,69.64 98.06,68.48 101.66,68.22C106.97,67.83 120.25,69.15 121.56,69.07C121.71,69.06 121.67,69.04 121.8,69.03C122.44,68.97 125.9,68.9 127.38,68.86C128.36,68.84 128.87,68.86 129.81,68.81C131.1,68.74 133.13,68.42 134.42,68.38C135.36,68.35 135.89,68.47 136.85,68.45C138.24,68.43 140.76,68.18 141.94,68.12C142.57,68.09 143.12,68.07 143.4,68.07C143.51,68.07 143.51,68.07 143.64,68.08C144.36,68.12 148.14,68.53 150.43,68.58C152.75,68.63 154.76,68.52 157.47,68.38C161.17,68.19 168.38,67.39 170.57,67.37C171.3,67.36 171.68,67.41 172.03,67.45C172.23,67.47 172.26,67.5 172.51,67.53C173.44,67.65 177.52,68 179.06,68.08C179.9,68.13 180.27,68.1 181.01,68.13C181.98,68.16 183.31,68.25 184.4,68.28C185.41,68.31 186.75,68.3 187.31,68.32C187.54,68.33 187.64,68.34 187.8,68.34C187.96,68.34 188.04,68.34 188.28,68.32C189.06,68.25 191.25,67.79 193.14,67.59C195.77,67.31 201.73,67.03 202.6,67.02C202.74,67.02 202.76,67.02 202.84,67.03C202.92,67.04 202.95,67.06 203.08,67.07C203.73,67.14 207.78,67.29 208.91,67.36C209.37,67.39 209.41,67.43 209.88,67.44C211.09,67.46 215.73,67.08 216.43,67.08C216.56,67.08 216.55,67.08 216.67,67.09C216.98,67.11 217.66,67.23 218.37,67.28C219.53,67.36 221.51,67.39 222.98,67.43C224.33,67.46 225.55,67.57 226.86,67.49C228.22,67.4 229.49,67.09 230.99,66.9C232.76,66.67 235.68,66.29 236.81,66.23C237.27,66.21 237.78,66.24 237.78,66.24C237.78,66.24 237.78,66.24 237.78,66.24C237.78,66.24 241.98,65.64 243.36,65.55C244.17,65.5 244.52,65.58 245.3,65.55C246.51,65.5 248.2,65.21 249.91,65.18C252.06,65.15 256.02,65.49 257.19,65.53C257.56,65.54 257.61,65.54 257.92,65.55C258.45,65.56 259.23,65.59 260.1,65.61C261.4,65.64 264.37,65.74 264.96,65.71C265.09,65.7 265.2,65.68 265.2,65.68C265.2,65.68 265.2,65.68 265.2,65.68C265.2,65.68 266.75,65.59 267.63,65.57C268.67,65.55 270.02,65.64 271.02,65.56C271.83,65.5 272.28,65.32 273.21,65.22Q274.85,65.05 280,64.88" style="vector-effect: none; fill: none; stroke: rgb(140, 0, 0); stroke-opacity: 1; stroke-width: 5px; opacity: 1;"/></g><g class="points"/><g class="text"/></g></g></g><g class="overplot"/><path class="xlines-above crisp" d="M0,0" style="fill: none;"/><path class="ylines-above crisp" d="M0,0" style="fill: none;"/><g class="overlines-above"/><g class="xaxislayer-above"/><g class="yaxislayer-above"/><g class="overaxes-above"/></g></g><g class="polarlayer"/><g class="smithlayer"/><g class="ternarylayer"/><g class="geolayer"/><g class="funnelarealayer"/><g class="pielayer"/><g class="iciclelayer"/><g class="treemaplayer"/><g class="sunburstlayer"/><g class="glimages"/><defs id="topdefs-bba925"><g class="clips"/></defs><g class="layer-above"><g class="imagelayer"/><g class="shapelayer"/></g><g class="infolayer"><g class="g-gtitle"><text class="gtitle" x="15" y="25" text-anchor="start" dy="0em" style="font-family: Ubuntu, verdana, arial, sans-serif; font-size: 16px; fill: rgb(233, 84, 32); opacity: 1; font-weight: normal; white-space: pre;">Sněmovna 2021-2025</text></g><g class="g-xtitle"/><g class="g-ytitle"/></g></svg>