<svg class="main-svg" xmlns="http://www.w3.org/2000/svg" xmlns:xlink="http://www.w3.org/1999/xlink" width="300" height="135" style="" viewBox="0 0 300 135"><rect x="0" y="0" width="300" height="135" style="fill: rgb(255, 255, 255); fill-opacity: 1;"/><defs id="defs-d55869"><g class="clips"><clipPath id="clipd55869xyplot" class="plotclip"><rect width="280" height="75"/></clipPath><clipPath class="axesclip" id="clipd55869x"><rect x="10" y="0" width="280" height="135"/></clipPath><clipPath class="axesclip" id="clipd55869y"><rect x="0" y="50" width="300" height="75"/></clipPath><clipPath class="axesclip" id="clipd55869xy"><rect x="10" y="50" width="280" height="75"/></clipPath></g><g class="gradients"/><g class="patterns"/></defs><g class="bglayer"/><g class="layer-below"><g class="imagelayer"/><g class="shapelayer"/></g><g class="cartesianlayer"><g class="subplot xy"><g class="layer-subplot"><g class="shapelayer"/><g class="imagelayer"/></g><g class="minor-gridlayer"><g class="x"/><g class="y"/></g><g class="gridlayer"><g class="x"><path class="xgrid crisp" transform="translate(40.31,0)" d="M0,50v75" style="stroke: rgb(235, 240, 248); stroke-opacity: 1; stroke-width: 1px;"/><path class="xgrid crisp" transform="translate(105.62,0)" d="M0,50v75" style="stroke: rgb(235, 240, 248); stroke-opacity: 1; stroke-width: 1px;"/><path class="xgrid crisp" transform="translate(172.01,0)" d="M0,50v75" style="stroke: rgb(235, 240, 248); stroke-opacity: 1; stroke-width: 1px;"/><path class="xgrid crisp" transform="translate(237.32,0)" d="M0,50v75" style="stroke: rgb(235, 240, 248); stroke-opacity: 1; stroke-width: 1px;"/></g><g class="y"><path class="ygrid crisp" transform="translate(0,104.06)" d="M10,0h280" style="stroke: rgb(235, 240, 248); stroke-opacity: 1; stroke-width: 1px;"/><path class="ygrid crisp" transform="translate(0,83.12)" d="M10,0h280" style="stroke: rgb(235, 240, 248); stroke-opacity: 1; stroke-width: 1px;"/><path class="ygrid crisp" transform="translate(0,62.18)" d="M10,0h280" style="stroke: rgb(235, 240, 248); stroke-opacity: 1; stroke-width: 1px;"/></g></g><g class="zerolinelayer"><path class="yzl zl crisp" transform="translate(0,125)" d="M10,0h280" style="stroke: rgb(235, 240, 248); stroke-opacity: 1; stroke-width: 2px;"/></g><path class="xlines-below"/><path class="ylines-below"/><g class="overlines-below"/><g class="xaxislayer-below"/><g class="yaxislayer-below"/><g class="overaxes-below"/><g class="plot" transform="translate(10,50)" clip-path="url(#clipd55869xyplot)"><g class="scatterlayer mlayer"><g class="trace scatter trace458469" style="stroke-miterlimit: 2; opacity: 1;"><g class="fills"/><g class="errorbars"/><g class="lines"><path class="js-line" d="M0,18.25Q6.59,18.32 11.55,18.48C20.54,18.77 40.86,20.95 49.43,20.19C53.91,19.79 56.22,18.46 59.54,17.9C62.71,17.37 65.71,17.22 68.92,16.85C72.31,16.45 77.08,15.8 79.38,15.58C80.51,15.47 80.87,15.52 81.91,15.41C83.58,15.24 85.82,14.88 88.4,14.52C92.19,14 98.67,12.94 102.47,12.56C105.04,12.3 107.17,12.17 108.97,12.15C110.24,12.14 111.17,12.3 112.22,12.3C113.21,12.3 114.06,12.21 115.1,12.19C116.32,12.17 117.75,12.21 119.07,12.22C120.39,12.23 121.92,12.21 123.04,12.25C123.87,12.28 124.24,12.34 125.21,12.38C127.19,12.47 131.91,12.34 134.23,12.67C135.72,12.88 136.24,13.5 137.84,13.59C140.87,13.77 145.86,12.37 151.19,11.8C159.11,10.96 178.81,9.78 180.77,9.49C180.99,9.46 180.93,9.45 181.13,9.41C182.08,9.24 187.23,8.23 189.43,8.25C190.88,8.26 191.64,8.75 193.04,8.81C194.96,8.89 197.98,8.56 199.9,8.36C201.3,8.22 202.1,8.16 203.51,7.86C205.58,7.43 209.31,6.07 211.08,5.72C212.01,5.53 212.83,5.51 213.25,5.46C213.42,5.44 213.41,5.44 213.61,5.42C214.68,5.3 220.31,4.26 223.71,4.2C227.17,4.14 230.15,4.87 234.18,5.12C239.67,5.46 250.42,6.1 253.66,5.85C254.75,5.77 255.29,5.51 255.82,5.43C256.13,5.39 256.17,5.4 256.55,5.36C257.95,5.23 264,4.53 266.29,4.47C267.54,4.44 268.08,4.6 269.18,4.59C270.63,4.58 272.61,4.42 274.23,4.28C275.73,4.15 277.72,3.88 278.56,3.81C278.9,3.78 279.04,3.78 279.28,3.77Q279.52,3.76 280,3.75" style="vector-effect: none; fill: none; stroke: rgb(38, 16, 96); stroke-opacity: 1; stroke-width: 5px; opacity: 1;"/></g><g class="points"/><g class="text"/></g><g class="trace scatter trace958712" style="stroke-miterlimit: 2; opacity: 1;"><g class="fills"/><g class="errorbars"/><g class="lines"><path class="js-line" d="M0,46.52Q6.61,44.63 11.55,43.05C20.55,40.17 40.76,32.19 49.43,30.16C53.81,29.13 56.23,29.06 59.54,28.81C62.72,28.57 65.81,27.91 68.92,28.67C72.42,29.53 77.03,33.71 79.38,34.32C80.46,34.6 80.9,34.14 81.91,34.36C83.6,34.73 85.77,36.35 88.4,37.21C92.15,38.44 98.66,39.88 102.47,40.35C105.03,40.67 107.18,40.56 108.97,40.53C110.24,40.51 111.17,40.42 112.22,40.33C113.21,40.25 114.06,40.02 115.1,40.04C116.32,40.06 117.74,40.52 119.07,40.57C120.39,40.62 121.92,40.45 123.04,40.36C123.87,40.29 124.24,40.18 125.21,40.13C127.19,40.04 131.93,40.63 134.23,40.23C135.73,39.97 136.24,38.99 137.84,38.89C140.87,38.7 145.84,41.71 151.19,42C159.08,42.43 178.82,38.15 180.77,38.44C180.99,38.47 180.92,38.55 181.13,38.6C182.08,38.85 187.23,39.41 189.43,39.44C190.88,39.46 191.65,39.08 193.04,39.19C194.97,39.34 197.97,40.45 199.9,40.73C201.29,40.93 202.09,40.84 203.51,40.99C205.57,41.21 209.32,41.9 211.08,42.08C212.02,42.18 212.83,42.21 213.25,42.22C213.42,42.22 213.41,42.2 213.61,42.21C214.68,42.27 220.31,43.27 223.71,43.64C227.16,44.01 230.16,43.98 234.18,44.43C239.68,45.05 250.41,47.04 253.66,47.36C254.74,47.47 255.29,47.44 255.82,47.46C256.13,47.47 256.17,47.49 256.55,47.48C257.95,47.44 264,46.84 266.29,46.66C267.54,46.56 268.08,46.44 269.18,46.45C270.63,46.46 272.61,46.9 274.23,46.92C275.73,46.94 277.72,46.63 278.56,46.64C278.9,46.65 279.04,46.7 279.28,46.71Q279.52,46.72 280,46.72" style="vector-effect: none; fill: none; stroke: rgb(0, 68, 148); stroke-opacity: 1; stroke-width: 5px; opacity: 1;"/></g><g class="points"/><g class="text"/></g><g class="trace scatter trace498fef" style="stroke-miterlimit: 2; opacity: 1;"><g class="fills"/><g class="errorbars"/><g class="lines"><path class="js-line" d="M0,55.11Q6.56,56.88 11.55,57.52C20.5,58.67 40.83,59.1 49.43,59.37C53.87,59.51 56.23,59.44 59.54,59.51C62.73,59.58 65.74,60.2 68.92,59.77C72.35,59.31 77.07,57.15 79.38,56.59C80.5,56.32 80.88,56.36 81.91,56.13C83.58,55.75 85.8,54.76 88.4,54.38C92.17,53.83 98.67,53.99 102.47,53.99C105.05,53.99 107.18,54.18 108.97,54.18C110.24,54.18 111.17,54.04 112.22,54.07C113.21,54.1 114.06,54.3 115.1,54.34C116.32,54.38 117.75,54.31 119.07,54.25C120.39,54.19 121.91,54.02 123.04,53.99C123.87,53.97 124.24,54.06 125.21,54.02C127.19,53.93 131.9,53.28 134.23,53.09C135.7,52.97 136.26,52.84 137.84,52.86C140.89,52.9 145.86,53.84 151.19,54.05C159.11,54.36 178.81,53.91 180.77,53.76C180.99,53.74 180.93,53.72 181.13,53.71C182.08,53.65 187.24,54.01 189.43,53.88C190.88,53.79 191.64,53.52 193.04,53.37C194.96,53.17 197.98,53.02 199.9,52.89C201.29,52.79 202.09,52.72 203.51,52.64C205.57,52.53 209.32,52.45 211.08,52.36C212.02,52.31 212.83,52.25 213.25,52.23C213.42,52.22 213.41,52.22 213.61,52.21C214.68,52.17 220.31,52.1 223.71,52.02C227.17,51.94 230.16,51.56 234.18,51.73C239.68,51.96 250.41,53.73 253.66,53.91C254.74,53.97 255.29,53.88 255.82,53.91C256.13,53.93 256.17,53.98 256.55,54C257.94,54.08 264,54.02 266.29,53.88C267.54,53.81 268.08,53.67 269.18,53.57C270.63,53.44 272.61,53.32 274.23,53.18C275.73,53.05 277.72,52.82 278.56,52.76C278.9,52.73 279.04,52.72 279.28,52.72Q279.52,52.72 280,52.73" style="vector-effect: none; fill: none; stroke: rgb(0, 0, 0); stroke-opacity: 1; stroke-width: 5px; opacity: 1;"/></g><g class="points"/><g class="text"/></g><g class="trace scatter traceace12b" style="stroke-miterlimit: 2; opacity: 1;"><g class="fills"/><g class="errorbars"/><g class="lines"><path class="js-line" d="M0,54.9Q6.59,55.12 11.55,54.94C20.54,54.61 40.83,51.95 49.43,52.02C53.88,52.06 56.23,52.99 59.54,52.96C62.73,52.93 65.71,52.23 68.92,51.91C72.31,51.58 77.08,51.18 79.38,51.02C80.51,50.94 80.87,50.98 81.91,50.89C83.58,50.74 85.82,50.3 88.4,50.06C92.19,49.7 98.67,49.36 102.47,49.21C105.05,49.11 107.18,49.16 108.97,49.1C110.24,49.06 111.17,48.92 112.22,48.93C113.21,48.94 114.06,49.13 115.1,49.16C116.32,49.19 117.75,48.97 119.07,49.04C120.4,49.11 121.91,49.44 123.04,49.56C123.87,49.65 124.24,49.67 125.21,49.73C127.19,49.86 131.9,50.02 134.23,50.17C135.7,50.26 136.26,50.39 137.84,50.45C140.88,50.56 145.89,49.87 151.19,50.35C159.14,51.06 178.81,55.78 180.77,55.94C180.98,55.96 180.93,55.93 181.13,55.93C182.08,55.92 187.23,55.92 189.43,56.06C190.88,56.15 191.64,56.37 193.04,56.46C194.96,56.58 197.98,56.58 199.9,56.59C201.29,56.6 202.09,56.56 203.51,56.56C205.57,56.56 209.32,56.63 211.08,56.62C212.02,56.62 212.83,56.58 213.25,56.58C213.42,56.58 213.41,56.59 213.61,56.59C214.68,56.57 220.31,55.96 223.71,55.9C227.17,55.84 230.16,56.43 234.18,56.27C239.68,56.06 250.41,54.18 253.66,54.06C254.74,54.02 255.29,54.14 255.82,54.15C256.13,54.15 256.17,54.15 256.55,54.14C257.95,54.09 264,53.72 266.29,53.64C267.54,53.6 268.08,53.6 269.18,53.59C270.63,53.58 272.62,53.49 274.23,53.62C275.73,53.75 277.72,54.24 278.56,54.32C278.9,54.35 279.04,54.34 279.28,54.35Q279.52,54.36 280,54.39" style="vector-effect: none; fill: none; stroke: rgb(234, 35, 41); stroke-opacity: 1; stroke-width: 5px; opacity: 1;"/></g><g class="points"/><g class="text"/></g><g class="trace scatter trace5029fb" style="stroke-miterlimit: 2; opacity: 1;"><g class="fills"/><g class="errorbars"/><g class="lines"><path class="js-line" d="M0,62.23Q6.02,53.56 11.55,51.55C20.13,48.43 40.84,52.58 49.43,53.41C53.89,53.84 56.24,54.37 59.54,54.88C62.73,55.37 65.73,55.71 68.92,56.42C72.33,57.18 77.08,58.67 79.38,59.35C80.51,59.69 80.87,59.84 81.91,60.14C83.57,60.62 85.8,61.41 88.4,61.87C92.17,62.54 98.67,62.92 102.47,63.17C105.05,63.34 107.17,63.36 108.97,63.42C110.24,63.46 111.17,63.55 112.22,63.51C113.21,63.47 114.06,63.29 115.1,63.22C116.32,63.14 117.75,63.19 119.07,63.12C120.39,63.05 121.92,62.9 123.04,62.78C123.87,62.69 124.24,62.57 125.21,62.52C127.19,62.42 131.9,62.69 134.23,62.67C135.7,62.66 136.26,62.62 137.84,62.56C140.89,62.44 145.87,62.18 151.19,61.93C159.11,61.56 178.81,60.61 180.77,60.56C180.99,60.55 180.93,60.56 181.13,60.56C182.08,60.57 187.23,60.52 189.43,60.68C190.88,60.78 191.64,61.04 193.04,61.14C194.96,61.27 197.98,61.11 199.9,61.21C201.3,61.28 202.09,61.44 203.51,61.55C205.57,61.7 209.32,61.89 211.08,61.96C212.02,62 212.83,62.01 213.25,62.02C213.42,62.02 213.41,62.02 213.61,62.02C214.68,62.04 220.31,62.35 223.71,62.33C227.17,62.31 230.15,61.99 234.18,61.88C239.67,61.74 250.42,61.86 253.66,61.69C254.74,61.63 255.29,61.53 255.82,61.48C256.13,61.45 256.17,61.43 256.55,61.41C257.94,61.35 264,61.5 266.29,61.46C267.54,61.44 268.08,61.37 269.18,61.35C270.63,61.33 272.61,61.38 274.23,61.38C275.73,61.38 277.72,61.39 278.56,61.37C278.9,61.36 279.04,61.35 279.28,61.34Q279.52,61.33 280,61.33" style="vector-effect: none; fill: none; stroke: rgb(93, 140, 0); stroke-opacity: 1; stroke-width: 5px; opacity: 1;"/></g><g class="points"/><g class="text"/></g></g></g><g class="overplot"/><path class="xlines-above crisp" d="M0,0" style="fill: none;"/><path class="ylines-above crisp" d="M0,0" style="fill: none;"/><g class="overlines-above"/><g class="xaxislayer-above"/><g class="yaxislayer-above"/><g class="overaxes-above"/></g></g><g class="polarlayer"/><g class="smithlayer"/><g class="ternarylayer"/><g class="geolayer"/><g class="funnelarealayer"/><g class="pielayer"/><g class="iciclelayer"/><g class="treemaplayer"/><g class="sunburstlayer"/><g class="glimages"/><defs id="topdefs-d55869"><g class="clips"/></defs><g class="layer-above"><g class="imagelayer"/><g class="shapelayer"/></g><g class="infolayer"><g class="g-gtitle"><text class="gtitle" x="15" y="25" text-anchor="start" dy="0em" style="font-family: Ubuntu, verdana, arial, sans-serif; font-size: 16px; fill: rgb(233, 84, 32); opacity: 1; font-weight: normal; white-space: pre;">Sněmovna 2021-2025</text></g><g class="g-xtitle"/><g class="g-ytitle"/></g></svg>