<svg class="main-svg" xmlns="http://www.w3.org/2000/svg" xmlns:xlink="http://www.w3.org/1999/xlink" width="300" height="135" style="" viewBox="0 0 300 135"><rect x="0" y="0" width="300" height="135" style="fill: rgb(255, 255, 255); fill-opacity: 1;"/><defs id="defs-75420f"><g class="clips"><clipPath id="clip75420fxyplot" class="plotclip"><rect width="280" height="75"/></clipPath><clipPath class="axesclip" id="clip75420fx"><rect x="10" y="0" width="280" height="135"/></clipPath><clipPath class="axesclip" id="clip75420fy"><rect x="0" y="50" width="300" height="75"/></clipPath><clipPath class="axesclip" id="clip75420fxy"><rect x="10" y="50" width="280" height="75"/></clipPath></g><g class="gradients"/><g class="patterns"/></defs><g class="bglayer"/><g class="layer-below"><g class="imagelayer"/><g class="shapelayer"/></g><g class="cartesianlayer"><g class="subplot xy"><g class="layer-subplot"><g class="shapelayer"/><g class="imagelayer"/></g><g class="minor-gridlayer"><g class="x"/><g class="y"/></g><g class="gridlayer"><g class="x"><path class="xgrid crisp" transform="translate(49.73,0)" d="M0,50v75" style="stroke: rgb(235, 240, 248); stroke-opacity: 1; stroke-width: 1px;"/><path class="xgrid crisp" transform="translate(135.34,0)" d="M0,50v75" style="stroke: rgb(235, 240, 248); stroke-opacity: 1; stroke-width: 1px;"/><path class="xgrid crisp" transform="translate(222.36,0)" d="M0,50v75" style="stroke: rgb(235, 240, 248); stroke-opacity: 1; stroke-width: 1px;"/></g><g class="y"><path class="ygrid crisp" transform="translate(0,103.15)" d="M10,0h280" style="stroke: rgb(235, 240, 248); stroke-opacity: 1; stroke-width: 1px;"/><path class="ygrid crisp" transform="translate(0,81.31)" d="M10,0h280" style="stroke: rgb(235, 240, 248); stroke-opacity: 1; stroke-width: 1px;"/><path class="ygrid crisp" transform="translate(0,59.46)" d="M10,0h280" style="stroke: rgb(235, 240, 248); stroke-opacity: 1; stroke-width: 1px;"/></g></g><g class="zerolinelayer"><path class="yzl zl crisp" transform="translate(0,125)" d="M10,0h280" style="stroke: rgb(235, 240, 248); stroke-opacity: 1; stroke-width: 2px;"/></g><path class="xlines-below"/><path class="ylines-below"/><g class="overlines-below"/><g class="xaxislayer-below"/><g class="yaxislayer-below"/><g class="overaxes-below"/><g class="plot" transform="translate(10,50)" clip-path="url(#clip75420fxyplot)"><g class="scatterlayer mlayer"><g class="trace scatter trace8a7a1f" style="stroke-miterlimit: 2; opacity: 1;"><g class="fills"/><g class="errorbars"/><g class="lines"><path class="js-line" d="M0,15.79Q8.64,15.86 15.14,16.03C26.92,16.34 53.56,18.62 64.8,17.82C70.65,17.4 73.7,16.02 78.04,15.43C82.2,14.87 86.13,14.72 90.34,14.33C94.79,13.92 101.04,13.24 104.05,13.01C105.53,12.9 106,12.94 107.36,12.83C109.54,12.65 112.5,12.28 115.88,11.91C120.86,11.36 129.34,10.25 134.32,9.85C137.7,9.58 140.49,9.44 142.84,9.42C144.5,9.41 145.71,9.57 147.09,9.58C148.39,9.59 149.52,9.49 150.88,9.47C152.48,9.45 154.35,9.49 156.08,9.5C157.81,9.51 159.81,9.5 161.28,9.54C162.37,9.57 162.85,9.62 164.12,9.66C166.71,9.75 172.91,9.62 175.95,9.97C177.89,10.19 178.59,10.84 180.68,10.94C184.66,11.13 191.19,9.66 198.18,9.09C208.56,8.24 234.4,7.14 236.96,6.85C237.24,6.82 237.17,6.81 237.43,6.77C238.68,6.6 245.43,5.61 248.31,5.69C250.21,5.75 251.21,6.3 253.04,6.44C255.55,6.63 259.51,6.42 262.03,6.35C263.86,6.3 264.81,6.34 266.76,6.12C269.99,5.75 278.16,3.97 279.53,3.79Q279.79,3.76 280,3.75" style="vector-effect: none; fill: none; stroke: rgb(38, 16, 96); stroke-opacity: 1; stroke-width: 5px; opacity: 1;"/></g><g class="points"/><g class="text"/></g><g class="trace scatter trace58e103" style="stroke-miterlimit: 2; opacity: 1;"><g class="fills"/><g class="errorbars"/><g class="lines"><path class="js-line" d="M0,45.29Q8.65,43.32 15.14,41.67C26.93,38.66 53.47,30.34 64.8,28.22C70.56,27.14 73.7,27.07 78.04,26.81C82.21,26.56 86.22,25.85 90.34,26.67C94.88,27.58 100.99,31.9 104.05,32.55C105.49,32.86 106.02,32.36 107.36,32.6C109.57,32.99 112.46,34.68 115.88,35.58C120.81,36.87 129.33,38.35 134.32,38.85C137.69,39.18 140.49,39.07 142.84,39.04C144.5,39.02 145.71,38.92 147.09,38.83C148.39,38.74 149.52,38.5 150.88,38.52C152.48,38.54 154.34,39.02 156.08,39.08C157.81,39.14 159.81,38.96 161.28,38.86C162.37,38.79 162.85,38.66 164.12,38.61C166.71,38.51 172.92,39.16 175.95,38.73C177.91,38.45 178.59,37.43 180.68,37.32C184.65,37.11 191.18,40.27 198.18,40.56C208.54,40.99 234.4,36.4 236.96,36.69C237.25,36.72 237.16,36.8 237.43,36.85C238.67,37.1 245.43,37.63 248.31,37.61C250.21,37.6 251.22,37.15 253.04,37.22C255.56,37.32 259.5,38.47 262.03,38.7C263.85,38.87 264.8,38.7 266.76,38.79C269.98,38.94 278.16,39.74 279.53,39.73Q279.79,39.73 280,39.69" style="vector-effect: none; fill: none; stroke: rgb(0, 68, 148); stroke-opacity: 1; stroke-width: 5px; opacity: 1;"/></g><g class="points"/><g class="text"/></g><g class="trace scatter tracec28afd" style="stroke-miterlimit: 2; opacity: 1;"><g class="fills"/><g class="errorbars"/><g class="lines"><path class="js-line" d="M0,54.25Q8.61,56.09 15.14,56.76C26.89,57.96 53.53,58.41 64.8,58.69C70.62,58.84 73.71,58.77 78.04,58.84C82.22,58.91 86.16,59.56 90.34,59.11C94.82,58.63 101.03,56.38 104.05,55.8C105.52,55.52 106.01,55.56 107.36,55.32C109.55,54.93 112.48,53.88 115.88,53.48C120.83,52.9 129.35,53.08 134.32,53.08C137.7,53.08 140.49,53.29 142.84,53.28C144.5,53.28 145.71,53.13 147.09,53.16C148.39,53.19 149.52,53.4 150.88,53.44C152.48,53.49 154.35,53.41 156.08,53.35C157.81,53.29 159.81,53.11 161.28,53.08C162.37,53.06 162.85,53.16 164.12,53.11C166.71,53.02 172.89,52.34 175.95,52.14C177.88,52.01 178.61,51.88 180.68,51.9C184.67,51.94 191.2,52.93 198.18,53.15C208.56,53.48 234.4,53.02 236.96,52.87C237.24,52.85 237.17,52.83 237.43,52.82C238.68,52.77 245.43,53.19 248.31,53.05C250.21,52.96 251.21,52.65 253.04,52.49C255.56,52.27 259.51,52.12 262.03,51.97C263.86,51.86 264.8,51.78 266.76,51.68C269.98,51.51 278.16,51.2 279.53,51.13Q279.79,51.12 280,51.1" style="vector-effect: none; fill: none; stroke: rgb(0, 0, 0); stroke-opacity: 1; stroke-width: 5px; opacity: 1;"/></g><g class="points"/><g class="text"/></g><g class="trace scatter tracea0f2e5" style="stroke-miterlimit: 2; opacity: 1;"><g class="fills"/><g class="errorbars"/><g class="lines"><path class="js-line" d="M0,54.03Q8.64,54.26 15.14,54.07C26.92,53.73 53.53,50.96 64.8,51.03C70.62,51.07 73.71,52.04 78.04,52.01C82.22,51.98 86.13,51.24 90.34,50.91C94.78,50.56 101.04,50.14 104.05,49.98C105.53,49.9 106,49.95 107.36,49.85C109.54,49.7 112.49,49.23 115.88,48.98C120.85,48.61 129.34,48.24 134.32,48.09C137.7,47.99 140.49,48.04 142.84,47.98C144.5,47.93 145.71,47.79 147.09,47.8C148.39,47.81 149.52,48.01 150.88,48.04C152.48,48.07 154.35,47.84 156.08,47.91C157.82,47.98 159.81,48.32 161.28,48.45C162.37,48.54 162.85,48.57 164.12,48.64C166.71,48.78 172.9,48.94 175.95,49.09C177.88,49.19 178.6,49.32 180.68,49.38C184.67,49.49 191.22,48.77 198.18,49.27C208.59,50.02 234.39,54.94 236.96,55.1C237.24,55.12 237.17,55.09 237.43,55.09C238.68,55.08 245.43,55.07 248.31,55.22C250.21,55.32 251.21,55.56 253.04,55.66C255.56,55.8 259.51,55.81 262.03,55.82C263.86,55.83 264.8,55.78 266.76,55.78C269.98,55.79 278.16,55.89 279.53,55.94Q279.79,55.95 280,55.97" style="vector-effect: none; fill: none; stroke: rgb(234, 35, 41); stroke-opacity: 1; stroke-width: 5px; opacity: 1;"/></g><g class="points"/><g class="text"/></g><g class="trace scatter traceeb6274" style="stroke-miterlimit: 2; opacity: 1;"><g class="fills"/><g class="errorbars"/><g class="lines"><path class="js-line" d="M0,61.67Q8.14,52.69 15.14,50.54C26.53,47.05 53.54,51.61 64.8,52.48C70.63,52.93 73.71,53.48 78.04,54.01C82.22,54.52 86.15,54.88 90.34,55.62C94.8,56.41 101.04,57.96 104.05,58.67C105.53,59.02 106,59.19 107.36,59.5C109.54,60 112.48,60.82 115.88,61.3C120.84,62 129.34,62.4 134.32,62.66C137.7,62.84 140.49,62.86 142.84,62.92C144.5,62.96 145.71,63.05 147.09,63.01C148.39,62.97 149.52,62.78 150.88,62.71C152.48,62.63 154.35,62.68 156.08,62.6C157.81,62.52 159.81,62.37 161.28,62.25C162.37,62.16 162.85,62.03 164.12,61.98C166.71,61.87 172.9,62.15 175.95,62.13C177.88,62.12 178.61,62.08 180.68,62.02C184.67,61.9 191.2,61.62 198.18,61.36C208.57,60.97 234.4,59.93 236.96,59.88C237.24,59.87 237.17,59.88 237.43,59.88C238.68,59.88 245.43,59.8 248.31,59.95C250.21,60.05 251.21,60.33 253.04,60.42C255.56,60.54 259.51,60.31 262.03,60.4C263.86,60.47 264.8,60.64 266.76,60.75C269.98,60.93 278.16,61.19 279.53,61.2Q279.79,61.2 280,61.19" style="vector-effect: none; fill: none; stroke: rgb(93, 140, 0); stroke-opacity: 1; stroke-width: 5px; opacity: 1;"/></g><g class="points"/><g class="text"/></g></g></g><g class="overplot"/><path class="xlines-above crisp" d="M0,0" style="fill: none;"/><path class="ylines-above crisp" d="M0,0" style="fill: none;"/><g class="overlines-above"/><g class="xaxislayer-above"/><g class="yaxislayer-above"/><g class="overaxes-above"/></g></g><g class="polarlayer"/><g class="smithlayer"/><g class="ternarylayer"/><g class="geolayer"/><g class="funnelarealayer"/><g class="pielayer"/><g class="iciclelayer"/><g class="treemaplayer"/><g class="sunburstlayer"/><g class="glimages"/><defs id="topdefs-75420f"><g class="clips"/></defs><g class="layer-above"><g class="imagelayer"/><g class="shapelayer"/></g><g class="infolayer"><g class="g-gtitle"><text class="gtitle" x="15" y="25" text-anchor="start" dy="0em" style="font-family: Ubuntu, verdana, arial, sans-serif; font-size: 16px; fill: rgb(233, 84, 32); opacity: 1; font-weight: normal; white-space: pre;">Sněmovna 2021-2025</text></g><g class="g-xtitle"/><g class="g-ytitle"/></g></svg>