<svg class="main-svg" xmlns="http://www.w3.org/2000/svg" xmlns:xlink="http://www.w3.org/1999/xlink" width="300" height="135" style="" viewBox="0 0 300 135"><rect x="0" y="0" width="300" height="135" style="fill: rgb(255, 255, 255); fill-opacity: 1;"/><defs id="defs-d69025"><g class="clips"><clipPath id="clipd69025xyplot" class="plotclip"><rect width="280" height="75"/></clipPath><clipPath class="axesclip" id="clipd69025x"><rect x="10" y="0" width="280" height="135"/></clipPath><clipPath class="axesclip" id="clipd69025y"><rect x="0" y="50" width="300" height="75"/></clipPath><clipPath class="axesclip" id="clipd69025xy"><rect x="10" y="50" width="280" height="75"/></clipPath></g><g class="gradients"/><g class="patterns"/></defs><g class="bglayer"/><g class="layer-below"><g class="imagelayer"/><g class="shapelayer"/></g><g class="cartesianlayer"><g class="subplot xy"><g class="layer-subplot"><g class="shapelayer"/><g class="imagelayer"/></g><g class="minor-gridlayer"><g class="x"/><g class="y"/></g><g class="gridlayer"><g class="x"><path class="xgrid crisp" transform="translate(36.129999999999995,0)" d="M0,50v75" style="stroke: rgb(235, 240, 248); stroke-opacity: 1; stroke-width: 1px;"/><path class="xgrid crisp" transform="translate(92.44,0)" d="M0,50v75" style="stroke: rgb(235, 240, 248); stroke-opacity: 1; stroke-width: 1px;"/><path class="xgrid crisp" transform="translate(149.69,0)" d="M0,50v75" style="stroke: rgb(235, 240, 248); stroke-opacity: 1; stroke-width: 1px;"/><path class="xgrid crisp" transform="translate(206,0)" d="M0,50v75" style="stroke: rgb(235, 240, 248); stroke-opacity: 1; stroke-width: 1px;"/><path class="xgrid crisp" transform="translate(263.24,0)" d="M0,50v75" style="stroke: rgb(235, 240, 248); stroke-opacity: 1; stroke-width: 1px;"/></g><g class="y"><path class="ygrid crisp" transform="translate(0,104.18)" d="M10,0h280" style="stroke: rgb(235, 240, 248); stroke-opacity: 1; stroke-width: 1px;"/><path class="ygrid crisp" transform="translate(0,83.37)" d="M10,0h280" style="stroke: rgb(235, 240, 248); stroke-opacity: 1; stroke-width: 1px;"/><path class="ygrid crisp" transform="translate(0,62.55)" d="M10,0h280" style="stroke: rgb(235, 240, 248); stroke-opacity: 1; stroke-width: 1px;"/></g></g><g class="zerolinelayer"><path class="yzl zl crisp" transform="translate(0,125)" d="M10,0h280" style="stroke: rgb(235, 240, 248); stroke-opacity: 1; stroke-width: 2px;"/></g><path class="xlines-below"/><path class="ylines-below"/><g class="overlines-below"/><g class="xaxislayer-below"/><g class="yaxislayer-below"/><g class="overaxes-below"/><g class="plot" transform="translate(10,50)" clip-path="url(#clipd69025xyplot)"><g class="scatterlayer mlayer"><g class="trace scatter trace84dbf9" style="stroke-miterlimit: 2; opacity: 1;"><g class="fills"/><g class="errorbars"/><g class="lines"><path class="js-line" d="M0,18.59Q5.68,18.65 9.96,18.81C17.71,19.1 35.24,21.27 42.62,20.52C46.49,20.12 48.46,18.8 51.33,18.24C54.06,17.71 56.65,17.56 59.42,17.19C62.35,16.8 66.46,16.15 68.44,15.93C69.41,15.82 69.73,15.86 70.62,15.76C72.06,15.59 74,15.23 76.22,14.88C79.49,14.36 85.08,13.31 88.36,12.93C90.58,12.67 92.41,12.54 93.96,12.52C95.05,12.51 95.85,12.67 96.76,12.67C97.61,12.67 98.35,12.58 99.24,12.56C100.29,12.54 101.53,12.58 102.67,12.59C103.81,12.6 105.12,12.58 106.09,12.62C106.81,12.65 107.12,12.71 107.96,12.75C109.66,12.84 113.74,12.71 115.73,13.04C117.02,13.25 117.46,13.87 118.84,13.96C121.45,14.14 125.76,12.74 130.36,12.18C137.18,11.35 154.18,10.17 155.87,9.88C156.06,9.85 156.01,9.84 156.18,9.8C157,9.63 161.44,8.64 163.33,8.65C164.58,8.66 165.23,9.14 166.44,9.2C168.09,9.28 170.7,8.94 172.36,8.75C173.57,8.61 174.26,8.55 175.47,8.26C177.26,7.83 180.47,6.48 182,6.13C182.8,5.95 183.51,5.92 183.87,5.87C184.02,5.85 184.01,5.85 184.18,5.83C185.1,5.71 189.96,4.68 192.89,4.62C195.87,4.56 198.44,5.28 201.91,5.52C206.64,5.85 215.92,6.45 218.71,6.2C219.65,6.12 220.12,5.87 220.58,5.79C220.84,5.74 220.87,5.75 221.2,5.71C222.4,5.57 227.62,4.88 229.6,4.81C230.67,4.77 231.15,4.92 232.09,4.9C233.34,4.88 235.05,4.71 236.44,4.58C237.74,4.46 239.46,4.22 240.18,4.15C240.47,4.12 240.59,4.11 240.8,4.1C241.01,4.09 241.11,4.09 241.42,4.08C242.41,4.05 245.23,3.88 247.64,3.95C251.02,4.04 258.66,4.81 259.78,4.87C259.96,4.88 259.99,4.89 260.09,4.88C260.19,4.87 260.23,4.85 260.4,4.83C261.24,4.73 266.44,4.6 267.87,4.26C268.47,4.12 268.49,3.85 269.11,3.75C270.69,3.5 275.88,4.38 277.82,4.38Q278.79,4.38 280,4.22" style="vector-effect: none; fill: none; stroke: rgb(38, 16, 96); stroke-opacity: 1; stroke-width: 5px; opacity: 1;"/></g><g class="points"/><g class="text"/></g><g class="trace scatter traceff076f" style="stroke-miterlimit: 2; opacity: 1;"><g class="fills"/><g class="errorbars"/><g class="lines"><path class="js-line" d="M0,46.69Q5.7,44.81 9.96,43.24C17.73,40.37 35.13,32.45 42.62,30.43C46.38,29.42 48.47,29.32 51.33,29.08C54.07,28.85 56.76,28.21 59.42,28.95C62.47,29.79 66.4,33.96 68.44,34.56C69.36,34.83 69.75,34.38 70.62,34.6C72.09,34.97 73.94,36.58 76.22,37.44C79.44,38.65 85.07,40.09 88.36,40.56C90.56,40.87 92.41,40.76 93.96,40.73C95.05,40.71 95.86,40.63 96.76,40.54C97.61,40.46 98.35,40.22 99.24,40.24C100.29,40.26 101.52,40.73 102.67,40.78C103.81,40.83 105.12,40.65 106.09,40.56C106.81,40.49 107.12,40.38 107.96,40.33C109.66,40.24 113.75,40.83 115.73,40.44C117.03,40.18 117.45,39.2 118.84,39.1C121.44,38.91 125.73,41.9 130.36,42.19C137.16,42.61 154.19,38.39 155.87,38.66C156.06,38.69 156,38.76 156.18,38.81C157,39.05 161.43,39.62 163.33,39.65C164.58,39.67 165.25,39.3 166.44,39.4C168.11,39.55 170.69,40.66 172.36,40.94C173.55,41.14 174.25,41.05 175.47,41.2C177.25,41.42 180.48,42.1 182,42.28C182.81,42.37 183.51,42.4 183.87,42.41C184.02,42.41 184.01,42.39 184.18,42.4C185.1,42.46 189.95,43.46 192.89,43.83C195.86,44.21 198.45,44.18 201.91,44.63C206.66,45.25 215.9,47.2 218.71,47.52C219.64,47.62 220.12,47.6 220.58,47.62C220.84,47.63 220.88,47.64 221.2,47.63C222.4,47.58 227.63,47.03 229.6,46.86C230.67,46.77 231.15,46.66 232.09,46.67C233.34,46.69 235.04,47.08 236.44,47.11C237.73,47.14 239.46,46.86 240.18,46.88C240.47,46.89 240.59,46.94 240.8,46.95C241.01,46.96 241.11,46.95 241.42,46.96C242.42,46.98 245.22,47.08 247.64,47.07C251.02,47.05 258.67,46.79 259.78,46.74C259.96,46.73 259.99,46.73 260.09,46.72C260.19,46.71 260.23,46.68 260.4,46.66C261.24,46.57 266.43,46.57 267.87,46.42C268.46,46.36 268.51,46.3 269.11,46.2C270.7,45.94 275.89,45.18 277.82,44.85Q278.79,44.68 280,44.44" style="vector-effect: none; fill: none; stroke: rgb(0, 68, 148); stroke-opacity: 1; stroke-width: 5px; opacity: 1;"/></g><g class="points"/><g class="text"/></g><g class="trace scatter trace22358a" style="stroke-miterlimit: 2; opacity: 1;"><g class="fills"/><g class="errorbars"/><g class="lines"><path class="js-line" d="M0,55.22Q5.65,56.98 9.96,57.62C17.67,58.76 35.2,59.19 42.62,59.46C46.45,59.6 48.48,59.53 51.33,59.6C54.08,59.67 56.69,60.28 59.42,59.86C62.39,59.4 66.45,57.26 68.44,56.7C69.4,56.43 69.73,56.47 70.62,56.24C72.06,55.86 73.97,54.88 76.22,54.5C79.46,53.95 85.09,54.11 88.36,54.11C90.58,54.11 92.41,54.3 93.96,54.3C95.05,54.3 95.86,54.16 96.76,54.19C97.61,54.22 98.35,54.42 99.24,54.46C100.29,54.5 101.53,54.44 102.67,54.38C103.81,54.32 105.12,54.14 106.09,54.11C106.81,54.09 107.13,54.19 107.96,54.15C109.67,54.07 113.72,53.41 115.73,53.22C117,53.1 117.48,52.97 118.84,52.99C121.47,53.03 125.76,53.97 130.36,54.18C137.19,54.49 154.18,54 155.87,53.88C156.06,53.87 156.01,53.85 156.18,53.84C157,53.8 161.44,54.14 163.33,54.01C164.58,53.92 165.23,53.65 166.44,53.5C168.1,53.3 170.7,53.15 172.36,53.02C173.56,52.92 174.24,52.84 175.47,52.77C177.25,52.66 180.48,52.58 182,52.5C182.81,52.45 183.51,52.39 183.87,52.37C184.02,52.36 184.01,52.36 184.18,52.35C185.1,52.31 189.96,52.24 192.89,52.16C195.87,52.08 198.45,51.71 201.91,51.87C206.65,52.09 215.91,53.83 218.71,54C219.64,54.06 220.13,53.96 220.58,53.99C220.84,54.01 220.87,54.06 221.2,54.08C222.4,54.15 227.63,54.05 229.6,53.91C230.68,53.83 231.14,53.71 232.09,53.61C233.34,53.48 235.05,53.35 236.44,53.22C237.73,53.1 239.46,52.9 240.18,52.84C240.47,52.82 240.59,52.81 240.8,52.8C241.01,52.79 241.11,52.8 241.42,52.8C242.42,52.79 245.22,52.79 247.64,52.72C251.02,52.62 258.66,52.21 259.78,52.19C259.96,52.19 259.99,52.18 260.09,52.19C260.19,52.2 260.23,52.23 260.4,52.25C261.24,52.36 266.43,52.69 267.87,52.83C268.46,52.89 268.51,52.94 269.11,52.98C270.7,53.08 275.88,53.05 277.82,53.06Q278.79,53.07 280,53.07" style="vector-effect: none; fill: none; stroke: rgb(0, 0, 0); stroke-opacity: 1; stroke-width: 5px; opacity: 1;"/></g><g class="points"/><g class="text"/></g><g class="trace scatter trace8c5bda" style="stroke-miterlimit: 2; opacity: 1;"><g class="fills"/><g class="errorbars"/><g class="lines"><path class="js-line" d="M0,55.02Q5.69,55.24 9.96,55.06C17.71,54.73 35.21,52.09 42.62,52.16C46.45,52.19 48.48,53.12 51.33,53.09C54.08,53.06 56.65,52.36 59.42,52.05C62.34,51.72 66.46,51.32 68.44,51.16C69.41,51.08 69.73,51.12 70.62,51.03C72.06,50.88 73.99,50.45 76.22,50.21C79.49,49.86 85.08,49.51 88.36,49.36C90.58,49.26 92.41,49.31 93.96,49.25C95.05,49.21 95.86,49.06 96.76,49.08C97.61,49.1 98.35,49.29 99.24,49.32C100.29,49.35 101.53,49.13 102.67,49.19C103.81,49.25 105.12,49.59 106.09,49.71C106.81,49.8 107.12,49.82 107.96,49.88C109.66,50.01 113.72,50.17 115.73,50.32C117,50.41 117.47,50.54 118.84,50.6C121.46,50.71 125.8,50.03 130.36,50.5C137.23,51.21 154.18,55.9 155.87,56.05C156.05,56.07 156.01,56.04 156.18,56.04C157,56.03 161.44,56.04 163.33,56.18C164.58,56.27 165.24,56.48 166.44,56.57C168.1,56.69 170.7,56.69 172.36,56.7C173.56,56.71 174.24,56.67 175.47,56.67C177.25,56.67 180.48,56.74 182,56.73C182.81,56.73 183.51,56.69 183.87,56.69C184.02,56.69 184.01,56.7 184.18,56.7C185.1,56.68 189.96,56.07 192.89,56.01C195.87,55.95 198.45,56.53 201.91,56.38C206.65,56.17 215.91,54.32 218.71,54.21C219.64,54.17 220.12,54.29 220.58,54.3C220.84,54.31 220.88,54.31 221.2,54.3C222.4,54.27 227.63,53.93 229.6,53.87C230.67,53.84 231.15,53.84 232.09,53.85C233.34,53.86 235.05,53.81 236.44,53.95C237.74,54.08 239.46,54.53 240.18,54.61C240.47,54.64 240.59,54.63 240.8,54.64C241.01,54.65 241.11,54.67 241.42,54.69C242.41,54.75 245.22,54.92 247.64,54.95C251.02,54.99 258.66,54.74 259.78,54.73C259.96,54.73 259.99,54.73 260.09,54.73C260.19,54.73 260.23,54.75 260.4,54.76C261.24,54.83 266.43,55.21 267.87,55.34C268.46,55.39 268.51,55.41 269.11,55.46C270.7,55.6 275.89,55.93 277.82,56.13Q278.79,56.23 280,56.42" style="vector-effect: none; fill: none; stroke: rgb(234, 35, 41); stroke-opacity: 1; stroke-width: 5px; opacity: 1;"/></g><g class="points"/><g class="text"/></g><g class="trace scatter trace5b50a2" style="stroke-miterlimit: 2; opacity: 1;"><g class="fills"/><g class="errorbars"/><g class="lines"><path class="js-line" d="M0,62.3Q5.06,53.65 9.96,51.69C17.3,48.76 35.22,52.71 42.62,53.54C46.46,53.97 48.48,54.49 51.33,55C54.08,55.49 56.67,55.83 59.42,56.53C62.37,57.28 66.46,58.76 68.44,59.44C69.42,59.77 69.72,59.93 70.62,60.23C72.05,60.71 73.97,61.49 76.22,61.95C79.47,62.61 85.08,62.99 88.36,63.24C90.58,63.41 92.41,63.43 93.96,63.49C95.05,63.53 95.86,63.62 96.76,63.58C97.61,63.54 98.34,63.36 99.24,63.29C100.29,63.21 101.53,63.26 102.67,63.19C103.81,63.12 105.12,62.96 106.09,62.85C106.81,62.77 107.12,62.65 107.96,62.6C109.66,62.5 113.72,62.75 115.73,62.74C117,62.73 117.48,62.7 118.84,62.64C121.47,62.53 125.77,62.26 130.36,62.01C137.2,61.64 154.18,60.69 155.87,60.65C156.06,60.65 156.01,60.65 156.18,60.65C157,60.66 161.44,60.61 163.33,60.76C164.58,60.86 165.23,61.12 166.44,61.22C168.09,61.35 170.7,61.19 172.36,61.29C173.56,61.36 174.24,61.52 175.47,61.63C177.25,61.78 180.48,61.97 182,62.04C182.81,62.08 183.51,62.09 183.87,62.1C184.02,62.1 184.01,62.1 184.18,62.1C185.1,62.12 189.96,62.42 192.89,62.4C195.87,62.38 198.44,62.06 201.91,61.95C206.65,61.8 215.91,61.92 218.71,61.75C219.65,61.69 220.12,61.59 220.58,61.54C220.84,61.51 220.87,61.49 221.2,61.47C222.4,61.4 227.63,61.53 229.6,61.49C230.68,61.47 231.14,61.41 232.09,61.39C233.34,61.36 235.04,61.4 236.44,61.39C237.73,61.38 239.46,61.37 240.18,61.35C240.47,61.34 240.59,61.33 240.8,61.32C241.01,61.31 241.11,61.32 241.42,61.31C242.42,61.29 245.22,61.25 247.64,61.15C251.02,61.02 258.66,60.55 259.78,60.5C259.96,60.49 259.99,60.49 260.09,60.49C260.19,60.49 260.23,60.49 260.4,60.48C261.24,60.43 266.43,59.78 267.87,59.77C268.46,59.77 268.51,59.82 269.11,59.87C270.7,60 275.88,60.46 277.82,60.59Q278.79,60.66 280,60.71" style="vector-effect: none; fill: none; stroke: rgb(93, 140, 0); stroke-opacity: 1; stroke-width: 5px; opacity: 1;"/></g><g class="points"/><g class="text"/></g></g></g><g class="overplot"/><path class="xlines-above crisp" d="M0,0" style="fill: none;"/><path class="ylines-above crisp" d="M0,0" style="fill: none;"/><g class="overlines-above"/><g class="xaxislayer-above"/><g class="yaxislayer-above"/><g class="overaxes-above"/></g></g><g class="polarlayer"/><g class="smithlayer"/><g class="ternarylayer"/><g class="geolayer"/><g class="funnelarealayer"/><g class="pielayer"/><g class="iciclelayer"/><g class="treemaplayer"/><g class="sunburstlayer"/><g class="glimages"/><defs id="topdefs-d69025"><g class="clips"/></defs><g class="layer-above"><g class="imagelayer"/><g class="shapelayer"/></g><g class="infolayer"><g class="g-gtitle"><text class="gtitle" x="15" y="25" text-anchor="start" dy="0em" style="font-family: Ubuntu, verdana, arial, sans-serif; font-size: 16px; fill: rgb(233, 84, 32); opacity: 1; font-weight: normal; white-space: pre;">Sněmovna 2021-2025</text></g><g class="g-xtitle"/><g class="g-ytitle"/></g></svg>