<svg class="main-svg" xmlns="http://www.w3.org/2000/svg" xmlns:xlink="http://www.w3.org/1999/xlink" width="1200" height="600" style="" viewBox="0 0 1200 600"><rect x="0" y="0" width="1200" height="600" style="fill: rgb(255, 255, 255); fill-opacity: 1;"/><defs id="defs-26aeb6"><g class="clips"><clipPath id="clip26aeb6xyplot" class="plotclip"><rect width="987" height="530"/></clipPath><clipPath class="axesclip" id="clip26aeb6x"><rect x="50" y="0" width="987" height="600"/></clipPath><clipPath class="axesclip" id="clip26aeb6y"><rect x="0" y="20" width="1200" height="530"/></clipPath><clipPath class="axesclip" id="clip26aeb6xy"><rect x="50" y="20" width="987" height="530"/></clipPath></g><g class="gradients"/><g class="patterns"/></defs><g class="bglayer"/><g class="layer-below"><g class="imagelayer"/><g class="shapelayer"/></g><g class="cartesianlayer"><g class="subplot xy"><g class="layer-subplot"><g class="shapelayer"/><g class="imagelayer"/></g><g class="gridlayer"><g class="x"><path class="xgrid crisp" transform="translate(107.06,0)" d="M0,20v530" style="stroke: rgb(235, 240, 248); stroke-opacity: 1; stroke-width: 1px;"/><path class="xgrid crisp" transform="translate(230.01,0)" d="M0,20v530" style="stroke: rgb(235, 240, 248); stroke-opacity: 1; stroke-width: 1px;"/><path class="xgrid crisp" transform="translate(355,0)" d="M0,20v530" style="stroke: rgb(235, 240, 248); stroke-opacity: 1; stroke-width: 1px;"/><path class="xgrid crisp" transform="translate(477.95,0)" d="M0,20v530" style="stroke: rgb(235, 240, 248); stroke-opacity: 1; stroke-width: 1px;"/><path class="xgrid crisp" transform="translate(602.94,0)" d="M0,20v530" style="stroke: rgb(235, 240, 248); stroke-opacity: 1; stroke-width: 1px;"/><path class="xgrid crisp" transform="translate(726.57,0)" d="M0,20v530" style="stroke: rgb(235, 240, 248); stroke-opacity: 1; stroke-width: 1px;"/><path class="xgrid crisp" transform="translate(851.56,0)" d="M0,20v530" style="stroke: rgb(235, 240, 248); stroke-opacity: 1; stroke-width: 1px;"/><path class="xgrid crisp" transform="translate(974.51,0)" d="M0,20v530" style="stroke: rgb(235, 240, 248); stroke-opacity: 1; stroke-width: 1px;"/></g><g class="y"><path class="ygrid crisp" transform="translate(0,478.97)" d="M50,0h987" style="stroke: rgb(235, 240, 248); stroke-opacity: 1; stroke-width: 1px;"/><path class="ygrid crisp" transform="translate(0,407.94)" d="M50,0h987" style="stroke: rgb(235, 240, 248); stroke-opacity: 1; stroke-width: 1px;"/><path class="ygrid crisp" transform="translate(0,336.91)" d="M50,0h987" style="stroke: rgb(235, 240, 248); stroke-opacity: 1; stroke-width: 1px;"/><path class="ygrid crisp" transform="translate(0,265.87)" d="M50,0h987" style="stroke: rgb(235, 240, 248); stroke-opacity: 1; stroke-width: 1px;"/><path class="ygrid crisp" transform="translate(0,194.84)" d="M50,0h987" style="stroke: rgb(235, 240, 248); stroke-opacity: 1; stroke-width: 1px;"/><path class="ygrid crisp" transform="translate(0,123.81)" d="M50,0h987" style="stroke: rgb(235, 240, 248); stroke-opacity: 1; stroke-width: 1px;"/><path class="ygrid crisp" transform="translate(0,52.78)" d="M50,0h987" style="stroke: rgb(235, 240, 248); stroke-opacity: 1; stroke-width: 1px;"/></g></g><g class="zerolinelayer"><path class="yzl zl crisp" transform="translate(0,550)" d="M50,0h987" style="stroke: rgb(235, 240, 248); stroke-opacity: 1; stroke-width: 2px;"/></g><path class="xlines-below"/><path class="ylines-below"/><g class="overlines-below"/><g class="xaxislayer-below"/><g class="yaxislayer-below"/><g class="overaxes-below"/><g class="plot" transform="translate(50,20)" clip-path="url(#clip26aeb6xyplot)"><g class="scatterlayer mlayer"><g class="trace scatter trace6f7e26" style="stroke-miterlimit: 2; opacity: 1;"><g class="fills"><g><path class="js-fill" d="M0,69.76Q12.41,71.18 21.74,72.43C38.66,74.69 77.35,86.59 93.06,82.73C102.02,80.53 105.65,72.62 112.08,69C117.89,65.73 123.73,64.3 129.74,61.55C136.17,58.61 145.12,54.02 149.44,51.82C151.58,50.73 152.22,50.24 154.2,49.32C157.3,47.88 161.68,46.73 166.42,44.36C173.68,40.73 185.54,30.77 192.92,28.43C197.57,26.96 201.77,27.96 205.14,27.55C207.54,27.26 209.28,26.54 211.26,26.5C213.12,26.46 214.73,27.1 216.69,27.19C218.98,27.3 221.67,27.04 224.16,26.95C226.65,26.86 229.6,26.06 231.64,26.63C233.29,27.09 233.77,28.72 235.71,29.36C239.33,30.55 248.65,27.84 252.69,30.15C256.15,32.13 257.73,34.67 259.49,40.6C265.59,61.16 266.63,187.57 259.49,190.53C257.68,191.28 255.81,185.11 252.69,183.73C248.54,181.9 239.33,184.13 235.71,182.94C233.77,182.3 233.29,180.67 231.64,180.21C229.6,179.64 226.65,180.44 224.16,180.53C221.67,180.62 218.98,180.88 216.69,180.77C214.73,180.68 213.12,180.04 211.26,180.08C209.28,180.12 207.54,180.84 205.14,181.13C201.77,181.54 197.64,180.8 192.92,182.02C185.63,183.9 173.59,191.16 166.42,194.28C161.6,196.37 157.3,197.81 154.2,199.25C152.22,200.17 151.58,200.66 149.44,201.75C145.12,203.95 136.27,209.2 129.74,211.47C123.82,213.53 117.7,212.37 112.08,215.27C105.36,218.73 102.32,230.05 93.06,232.65C77.51,237.01 38.71,219.96 21.74,218.7Q12.46,218.01 0,219.68Z" style="fill: rgb(38, 16, 96); fill-opacity: 0.05; stroke-width: 0;"/></g></g><g class="errorbars"/><g class="lines"><path class="js-line" d="M0,69.76Q12.41,71.18 21.74,72.43C38.66,74.69 77.35,86.59 93.06,82.73C102.02,80.53 105.65,72.62 112.08,69C117.89,65.73 123.73,64.3 129.74,61.55C136.17,58.61 145.12,54.02 149.44,51.82C151.58,50.73 152.22,50.24 154.2,49.32C157.3,47.88 161.68,46.73 166.42,44.36C173.68,40.73 185.54,30.77 192.92,28.43C197.57,26.96 201.77,27.96 205.14,27.55C207.54,27.26 209.28,26.54 211.26,26.5C213.12,26.46 214.73,27.1 216.69,27.19C218.98,27.3 221.67,27.04 224.16,26.95C226.65,26.86 229.6,26.06 231.64,26.63C233.29,27.09 233.77,28.72 235.71,29.36C239.33,30.55 248.65,27.84 252.69,30.15C256.15,32.13 257.73,34.67 259.49,40.6C265.59,61.16 266.63,187.57 259.49,190.53C257.68,191.28 255.81,185.11 252.69,183.73C248.54,181.9 239.33,184.13 235.71,182.94C233.77,182.3 233.29,180.67 231.64,180.21C229.6,179.64 226.65,180.44 224.16,180.53C221.67,180.62 218.98,180.88 216.69,180.77C214.73,180.68 213.12,180.04 211.26,180.08C209.28,180.12 207.54,180.84 205.14,181.13C201.77,181.54 197.64,180.8 192.92,182.02C185.63,183.9 173.59,191.16 166.42,194.28C161.6,196.37 157.3,197.81 154.2,199.25C152.22,200.17 151.58,200.66 149.44,201.75C145.12,203.95 136.27,209.2 129.74,211.47C123.82,213.53 117.7,212.37 112.08,215.27C105.36,218.73 102.32,230.05 93.06,232.65C77.51,237.01 38.71,219.96 21.74,218.7Q12.46,218.01 0,219.68" style="vector-effect: non-scaling-stroke; fill: none; stroke: rgb(255, 255, 255); stroke-opacity: 0; stroke-width: 2px; opacity: 1;"/></g><g class="points"/><g class="text"/></g><g class="trace scatter trace6e699d" style="stroke-miterlimit: 2; opacity: 1;"><g class="fills"><g><path class="js-fill" d="M0,270.77Q13.09,262.1 21.74,253.09C39.56,234.52 75.76,174.14 93.06,157.71C100.65,150.5 105.55,146.75 112.08,144.95C117.82,143.37 124.55,142.4 129.74,145.9C138.15,151.58 144.09,184.88 149.44,188.06C151.15,189.08 152.55,186.89 154.2,187.77C157.93,189.76 160.85,201.99 166.42,208.65C173.1,216.64 185.35,227.61 192.92,231.3C197.45,233.51 201.79,234.04 205.14,233.79C207.56,233.61 209.27,232.2 211.26,231.54C213.11,230.93 214.77,229.78 216.69,229.95C219.02,230.16 221.62,233.45 224.16,233.71C226.61,233.96 229.55,232.48 231.64,231.73C233.23,231.16 233.84,230.42 235.71,229.84C239.38,228.7 248.64,229.61 252.69,226.98C256.11,224.75 257.76,216.18 259.49,216.7C265.06,218.38 265.06,326.16 259.49,344.69C257.76,350.44 256.13,353.22 252.69,354.97C248.65,357.02 239.38,353.45 235.71,354.17C233.83,354.54 233.23,355.49 231.64,356.06C229.55,356.81 226.61,358.29 224.16,358.04C221.62,357.78 219.02,354.49 216.69,354.28C214.77,354.11 213.11,355.26 211.26,355.87C209.27,356.52 207.56,357.93 205.14,358.11C201.79,358.36 197.52,357.64 192.92,355.63C185.47,352.38 173.16,343.41 166.42,336.63C160.99,331.18 157.78,321.12 154.2,319.41C152.5,318.6 151.2,320.66 149.44,319.71C144.34,316.94 137.68,289.78 129.74,284.85C124.46,281.58 117.93,282.74 112.08,283.9C105.69,285.17 100.68,287.25 93.06,293.01C75.83,306.02 39.48,358.51 21.74,373.76Q13.05,381.23 0,387.78Z" style="fill: rgb(0, 68, 148); fill-opacity: 0.05; stroke-width: 0;"/></g></g><g class="errorbars"/><g class="lines"><path class="js-line" d="M0,270.77Q13.09,262.1 21.74,253.09C39.56,234.52 75.76,174.14 93.06,157.71C100.65,150.5 105.55,146.75 112.08,144.95C117.82,143.37 124.55,142.4 129.74,145.9C138.15,151.58 144.09,184.88 149.44,188.06C151.15,189.08 152.55,186.89 154.2,187.77C157.93,189.76 160.85,201.99 166.42,208.65C173.1,216.64 185.35,227.61 192.92,231.3C197.45,233.51 201.79,234.04 205.14,233.79C207.56,233.61 209.27,232.2 211.26,231.54C213.11,230.93 214.77,229.78 216.69,229.95C219.02,230.16 221.62,233.45 224.16,233.71C226.61,233.96 229.55,232.48 231.64,231.73C233.23,231.16 233.84,230.42 235.71,229.84C239.38,228.7 248.64,229.61 252.69,226.98C256.11,224.75 257.76,216.18 259.49,216.7C265.06,218.38 265.06,326.16 259.49,344.69C257.76,350.44 256.13,353.22 252.69,354.97C248.65,357.02 239.38,353.45 235.71,354.17C233.83,354.54 233.23,355.49 231.64,356.06C229.55,356.81 226.61,358.29 224.16,358.04C221.62,357.78 219.02,354.49 216.69,354.28C214.77,354.11 213.11,355.26 211.26,355.87C209.27,356.52 207.56,357.93 205.14,358.11C201.79,358.36 197.52,357.64 192.92,355.63C185.47,352.38 173.16,343.41 166.42,336.63C160.99,331.18 157.78,321.12 154.2,319.41C152.5,318.6 151.2,320.66 149.44,319.71C144.34,316.94 137.68,289.78 129.74,284.85C124.46,281.58 117.93,282.74 112.08,283.9C105.69,285.17 100.68,287.25 93.06,293.01C75.83,306.02 39.48,358.51 21.74,373.76Q13.05,381.23 0,387.78" style="vector-effect: non-scaling-stroke; fill: none; stroke: rgb(255, 255, 255); stroke-opacity: 0; stroke-width: 2px; opacity: 1;"/></g><g class="points"/><g class="text"/></g><g class="trace scatter tracedf49e1" style="stroke-miterlimit: 2; opacity: 1;"><g class="fills"><g><path class="js-fill" d="M0,344.49Q12.56,345.87 21.74,344.32C38.82,341.44 76.95,319.55 93.06,320.22C101.51,320.57 105.85,328.45 112.08,328.47C118.07,328.49 123.7,323.56 129.74,320.96C136.13,318.21 145.06,312.86 149.44,312.37C151.52,312.14 152.36,313.69 154.2,313.27C157.47,312.53 161.25,306.53 166.42,304.26C173.31,301.23 185.75,299.56 192.92,299.1C197.75,298.79 201.81,300.41 205.14,299.87C207.58,299.47 209.28,297.41 211.26,297.39C213.12,297.37 214.73,299.45 216.69,299.46C218.98,299.47 221.7,296.57 224.16,296.71C226.68,296.85 229.54,299.32 231.64,300.48C233.22,301.35 233.81,302.14 235.71,302.94C239.36,304.47 248.3,306.2 252.69,307.25C255.46,307.92 257.68,306.52 259.49,308.79C266.67,317.78 265.84,415.35 259.49,418.49C257.72,419.37 255.68,414.38 252.69,413.3C248.47,411.78 239.35,413.73 235.71,412.64C233.79,412.06 233.22,411.05 231.64,410.18C229.54,409.02 226.68,406.55 224.16,406.41C221.7,406.27 218.98,409.17 216.69,409.16C214.73,409.15 213.12,407.07 211.26,407.09C209.28,407.11 207.58,409.18 205.14,409.58C201.81,410.12 197.75,408.49 192.92,408.8C185.75,409.26 173.47,411.76 166.42,413.96C161.47,415.51 157.37,418.95 154.2,419.31C152.29,419.53 151.56,418.35 149.44,418.41C145.1,418.54 136.05,421.23 129.74,423.35C123.61,425.41 118.16,430.36 112.08,430.86C105.94,431.37 101.43,426.29 93.06,426.27C76.87,426.22 38.74,441.01 21.74,443.05Q12.48,444.16 0,443.22Z" style="fill: rgb(234, 35, 41); fill-opacity: 0.05; stroke-width: 0;"/></g></g><g class="errorbars"/><g class="lines"><path class="js-line" d="M0,344.49Q12.56,345.87 21.74,344.32C38.82,341.44 76.95,319.55 93.06,320.22C101.51,320.57 105.85,328.45 112.08,328.47C118.07,328.49 123.7,323.56 129.74,320.96C136.13,318.21 145.06,312.86 149.44,312.37C151.52,312.14 152.36,313.69 154.2,313.27C157.47,312.53 161.25,306.53 166.42,304.26C173.31,301.23 185.75,299.56 192.92,299.1C197.75,298.79 201.81,300.41 205.14,299.87C207.58,299.47 209.28,297.41 211.26,297.39C213.12,297.37 214.73,299.45 216.69,299.46C218.98,299.47 221.7,296.57 224.16,296.71C226.68,296.85 229.54,299.32 231.64,300.48C233.22,301.35 233.81,302.14 235.71,302.94C239.36,304.47 248.3,306.2 252.69,307.25C255.46,307.92 257.68,306.52 259.49,308.79C266.67,317.78 265.84,415.35 259.49,418.49C257.72,419.37 255.68,414.38 252.69,413.3C248.47,411.78 239.35,413.73 235.71,412.64C233.79,412.06 233.22,411.05 231.64,410.18C229.54,409.02 226.68,406.55 224.16,406.41C221.7,406.27 218.98,409.17 216.69,409.16C214.73,409.15 213.12,407.07 211.26,407.09C209.28,407.11 207.58,409.18 205.14,409.58C201.81,410.12 197.75,408.49 192.92,408.8C185.75,409.26 173.47,411.76 166.42,413.96C161.47,415.51 157.37,418.95 154.2,419.31C152.29,419.53 151.56,418.35 149.44,418.41C145.1,418.54 136.05,421.23 129.74,423.35C123.61,425.41 118.16,430.36 112.08,430.86C105.94,431.37 101.43,426.29 93.06,426.27C76.87,426.22 38.74,441.01 21.74,443.05Q12.48,444.16 0,443.22" style="vector-effect: non-scaling-stroke; fill: none; stroke: rgb(255, 255, 255); stroke-opacity: 0; stroke-width: 2px; opacity: 1;"/></g><g class="points"/><g class="text"/></g><g class="trace scatter tracecfb643" style="stroke-miterlimit: 2; opacity: 1;"><g class="fills"><g><path class="js-fill" d="M0,352.03Q12.11,359.81 21.74,363.39C38.39,369.58 76.8,378.63 93.06,380.09C101.35,380.83 105.86,378.93 112.08,379.11C118.08,379.28 124.21,383.18 129.74,381.03C136.9,378.25 145.01,363.09 149.44,358.67C151.48,356.63 152.31,356.36 154.2,354.49C157.41,351.31 160.89,343.9 166.42,340.82C173.12,337.09 185.78,336.09 192.92,336.15C197.78,336.19 201.82,338.95 205.14,338.53C207.59,338.22 209.26,335.76 211.26,335.64C213.1,335.53 214.71,337.04 216.69,337.45C218.96,337.91 221.68,338.26 224.16,338.07C226.67,337.88 229.51,336.57 231.64,336.27C233.19,336.05 233.94,336.49 235.71,336.08C239.49,335.2 248.4,331.11 252.69,328.65C255.58,326.99 257.72,322.81 259.49,323.71C265.77,326.91 266.56,421.22 259.49,429.75C257.68,431.93 255.41,430.2 252.69,431.04C248.24,432.42 239.49,437.59 235.71,438.47C233.94,438.88 233.19,438.81 231.64,438.66C229.51,438.45 226.62,436.62 224.16,436.8C221.64,436.98 218.99,439.77 216.69,439.84C214.75,439.9 213.15,438.45 211.26,438.02C209.3,437.58 207.53,437.29 205.14,437.27C201.77,437.24 197.78,438.2 192.92,438.54C185.78,439.05 173.25,436.96 166.42,439.55C161.15,441.55 157.5,448.17 154.2,449.56C152.38,450.33 151.37,449.19 149.44,450.09C144.84,452.23 136.7,466.44 129.74,468.79C124.11,470.69 118.08,467.04 112.08,466.87C105.86,466.69 101.4,468.18 93.06,467.85C76.85,467.21 38.34,463.71 21.74,458.46Q12.05,455.4 0,447.1Z" style="fill: rgb(0, 0, 0); fill-opacity: 0.05; stroke-width: 0;"/></g></g><g class="errorbars"/><g class="lines"><path class="js-line" d="M0,352.03Q12.11,359.81 21.74,363.39C38.39,369.58 76.8,378.63 93.06,380.09C101.35,380.83 105.86,378.93 112.08,379.11C118.08,379.28 124.21,383.18 129.74,381.03C136.9,378.25 145.01,363.09 149.44,358.67C151.48,356.63 152.31,356.36 154.2,354.49C157.41,351.31 160.89,343.9 166.42,340.82C173.12,337.09 185.78,336.09 192.92,336.15C197.78,336.19 201.82,338.95 205.14,338.53C207.59,338.22 209.26,335.76 211.26,335.64C213.1,335.53 214.71,337.04 216.69,337.45C218.96,337.91 221.68,338.26 224.16,338.07C226.67,337.88 229.51,336.57 231.64,336.27C233.19,336.05 233.94,336.49 235.71,336.08C239.49,335.2 248.4,331.11 252.69,328.65C255.58,326.99 257.72,322.81 259.49,323.71C265.77,326.91 266.56,421.22 259.49,429.75C257.68,431.93 255.41,430.2 252.69,431.04C248.24,432.42 239.49,437.59 235.71,438.47C233.94,438.88 233.19,438.81 231.64,438.66C229.51,438.45 226.62,436.62 224.16,436.8C221.64,436.98 218.99,439.77 216.69,439.84C214.75,439.9 213.15,438.45 211.26,438.02C209.3,437.58 207.53,437.29 205.14,437.27C201.77,437.24 197.78,438.2 192.92,438.54C185.78,439.05 173.25,436.96 166.42,439.55C161.15,441.55 157.5,448.17 154.2,449.56C152.38,450.33 151.37,449.19 149.44,450.09C144.84,452.23 136.7,466.44 129.74,468.79C124.11,470.69 118.08,467.04 112.08,466.87C105.86,466.69 101.4,468.18 93.06,467.85C76.85,467.21 38.34,463.71 21.74,458.46Q12.05,455.4 0,447.1" style="vector-effect: non-scaling-stroke; fill: none; stroke: rgb(255, 255, 255); stroke-opacity: 0; stroke-width: 2px; opacity: 1;"/></g><g class="points"/><g class="text"/></g><g class="trace scatter trace9d2ca9" style="stroke-miterlimit: 2; opacity: 1;"><g class="fills"><g><path class="js-fill" d="M0,371.61Q7.76,323.46 21.74,316.1C37.24,307.95 77.22,326.09 93.06,332.71C101.84,336.38 105.87,340.73 112.08,344.71C118.09,348.56 124.07,351.12 129.74,356.2C136.63,362.37 145.09,375.05 149.44,380.24C151.55,382.76 152.24,383.55 154.2,385.81C157.32,389.4 160.96,395.98 166.42,399.67C173.15,404.22 185.7,407.25 192.92,409.08C197.71,410.29 201.83,409.93 205.14,410.99C207.6,411.78 209.25,413.9 211.26,414.06C213.09,414.21 214.75,413.04 216.69,412.35C219,411.52 221.63,410.08 224.16,409.34C226.62,408.62 229.56,408.6 231.64,407.93C233.24,407.41 233.83,406.32 235.71,406.03C239.38,405.46 248.38,408.93 252.69,408.24C255.55,407.78 257.75,403.88 259.49,404.97C265.16,408.53 265.52,479.72 259.49,485.42C257.73,487.08 255.46,485.29 252.69,485.03C248.3,484.62 239.38,482.25 235.71,482.82C233.83,483.11 233.24,484.2 231.64,484.72C229.56,485.39 226.62,485.41 224.16,486.13C221.63,486.87 219,488.31 216.69,489.14C214.75,489.83 213.09,491 211.26,490.85C209.25,490.69 207.6,488.57 205.14,487.78C201.83,486.72 197.76,486.77 192.92,485.87C185.76,484.53 173.26,483.47 166.42,480.12C161.18,477.56 157.46,471.86 154.2,469.91C152.35,468.8 151.44,469.21 149.44,468C144.95,465.29 136.44,455.47 129.74,451.27C123.95,447.63 118.08,446.08 112.08,443.44C105.86,440.7 101.63,437.72 93.06,435.1C77.06,430.21 37.34,414.58 21.74,422.14Q9.27,428.18 0,463.03Z" style="fill: rgb(93, 140, 0); fill-opacity: 0.05; stroke-width: 0;"/></g></g><g class="errorbars"/><g class="lines"><path class="js-line" d="M0,371.61Q7.76,323.46 21.74,316.1C37.24,307.95 77.22,326.09 93.06,332.71C101.84,336.38 105.87,340.73 112.08,344.71C118.09,348.56 124.07,351.12 129.74,356.2C136.63,362.37 145.09,375.05 149.44,380.24C151.55,382.76 152.24,383.55 154.2,385.81C157.32,389.4 160.96,395.98 166.42,399.67C173.15,404.22 185.7,407.25 192.92,409.08C197.71,410.29 201.83,409.93 205.14,410.99C207.6,411.78 209.25,413.9 211.26,414.06C213.09,414.21 214.75,413.04 216.69,412.35C219,411.52 221.63,410.08 224.16,409.34C226.62,408.62 229.56,408.6 231.64,407.93C233.24,407.41 233.83,406.32 235.71,406.03C239.38,405.46 248.38,408.93 252.69,408.24C255.55,407.78 257.75,403.88 259.49,404.97C265.16,408.53 265.52,479.72 259.49,485.42C257.73,487.08 255.46,485.29 252.69,485.03C248.3,484.62 239.38,482.25 235.71,482.82C233.83,483.11 233.24,484.2 231.64,484.72C229.56,485.39 226.62,485.41 224.16,486.13C221.63,486.87 219,488.31 216.69,489.14C214.75,489.83 213.09,491 211.26,490.85C209.25,490.69 207.6,488.57 205.14,487.78C201.83,486.72 197.76,486.77 192.92,485.87C185.76,484.53 173.26,483.47 166.42,480.12C161.18,477.56 157.46,471.86 154.2,469.91C152.35,468.8 151.44,469.21 149.44,468C144.95,465.29 136.44,455.47 129.74,451.27C123.95,447.63 118.08,446.08 112.08,443.44C105.86,440.7 101.63,437.72 93.06,435.1C77.06,430.21 37.34,414.58 21.74,422.14Q9.27,428.18 0,463.03" style="vector-effect: non-scaling-stroke; fill: none; stroke: rgb(255, 255, 255); stroke-opacity: 0; stroke-width: 2px; opacity: 1;"/></g><g class="points"/><g class="text"/></g><g class="trace scatter trace924962" style="stroke-miterlimit: 2; opacity: 1;"><g class="fills"><g><path class="js-fill" d="M0,386.28Q12.52,386.34 21.74,388.08C38.77,391.29 77.46,400.63 93.06,409.39C102.21,414.53 105.54,422.08 112.08,426.51C117.81,430.39 123.54,434.34 129.74,435.2C135.99,436.06 145.1,431.77 149.44,431.56C151.56,431.46 152.27,432.16 154.2,431.96C157.35,431.63 161.53,429.53 166.42,428.31C173.53,426.53 185.8,422.69 192.92,422.95C197.8,423.13 201.78,425.32 205.14,426.36C207.54,427.1 209.32,428.6 211.26,428.43C213.16,428.26 214.69,426.28 216.69,425.44C218.94,424.5 221.65,423.41 224.16,423.24C226.63,423.07 229.53,424.43 231.64,424.39C233.2,424.36 233.88,423.87 235.71,423.61C239.42,423.08 248.35,423.01 252.69,422.04C255.52,421.41 257.77,418.38 259.49,419.59C264.98,423.44 264.97,484.9 259.49,492.72C257.77,495.18 255.52,494.55 252.69,495.18C248.35,496.15 239.32,497.71 235.71,496.74C233.76,496.22 233.27,494.1 231.64,493.86C229.58,493.56 226.66,495.58 224.16,496.37C221.68,497.15 219,498.38 216.69,498.57C214.75,498.73 213.1,498.32 211.26,497.9C209.26,497.44 207.57,496.21 205.14,495.84C201.8,495.33 197.77,495.88 192.92,496.09C185.77,496.39 173.51,496.52 166.42,497.79C161.51,498.67 157.35,501.11 154.2,501.44C152.27,501.64 151.56,500.94 149.44,501.04C145.1,501.25 135.99,505.54 129.74,504.68C123.54,503.82 118.06,499 112.08,495.99C105.84,492.85 101.71,489.19 93.06,486.18C77.12,480.63 38.7,474.54 21.74,472.18Q12.45,470.89 0,470.38Z" style="fill: rgb(114, 55, 105); fill-opacity: 0.05; stroke-width: 0;"/></g></g><g class="errorbars"/><g class="lines"><path class="js-line" d="M0,386.28Q12.52,386.34 21.74,388.08C38.77,391.29 77.46,400.63 93.06,409.39C102.21,414.53 105.54,422.08 112.08,426.51C117.81,430.39 123.54,434.34 129.74,435.2C135.99,436.06 145.1,431.77 149.44,431.56C151.56,431.46 152.27,432.16 154.2,431.96C157.35,431.63 161.53,429.53 166.42,428.31C173.53,426.53 185.8,422.69 192.92,422.95C197.8,423.13 201.78,425.32 205.14,426.36C207.54,427.1 209.32,428.6 211.26,428.43C213.16,428.26 214.69,426.28 216.69,425.44C218.94,424.5 221.65,423.41 224.16,423.24C226.63,423.07 229.53,424.43 231.64,424.39C233.2,424.36 233.88,423.87 235.71,423.61C239.42,423.08 248.35,423.01 252.69,422.04C255.52,421.41 257.77,418.38 259.49,419.59C264.98,423.44 264.97,484.9 259.49,492.72C257.77,495.18 255.52,494.55 252.69,495.18C248.35,496.15 239.32,497.71 235.71,496.74C233.76,496.22 233.27,494.1 231.64,493.86C229.58,493.56 226.66,495.58 224.16,496.37C221.68,497.15 219,498.38 216.69,498.57C214.75,498.73 213.1,498.32 211.26,497.9C209.26,497.44 207.57,496.21 205.14,495.84C201.8,495.33 197.77,495.88 192.92,496.09C185.77,496.39 173.51,496.52 166.42,497.79C161.51,498.67 157.35,501.11 154.2,501.44C152.27,501.64 151.56,500.94 149.44,501.04C145.1,501.25 135.99,505.54 129.74,504.68C123.54,503.82 118.06,499 112.08,495.99C105.84,492.85 101.71,489.19 93.06,486.18C77.12,480.63 38.7,474.54 21.74,472.18Q12.45,470.89 0,470.38" style="vector-effect: non-scaling-stroke; fill: none; stroke: rgb(255, 255, 255); stroke-opacity: 0; stroke-width: 2px; opacity: 1;"/></g><g class="points"/><g class="text"/></g><g class="trace scatter tracee553ba" style="stroke-miterlimit: 2; opacity: 1;"><g class="fills"><g><path class="js-fill" d="M0,403.36Q10.57,426.68 21.74,431.49C37.6,438.32 77.03,422.33 93.06,424.39C101.59,425.48 105.78,429.72 112.08,431.43C118,433.04 123.67,433.75 129.74,434.55C136.11,435.39 145.12,436.49 149.44,436.26C151.58,436.15 152.24,435.43 154.2,435.34C157.32,435.2 161.56,436.19 166.42,436.61C173.56,437.22 185.78,437.73 192.92,438.4C197.78,438.86 201.76,439.61 205.14,439.88C207.52,440.07 209.33,440.54 211.26,440.13C213.18,439.72 214.7,438.23 216.69,437.45C218.95,436.56 221.64,435.48 224.16,435.22C226.63,434.96 229.67,436.65 231.64,435.85C233.43,435.13 233.6,432.43 235.71,431.18C239.25,429.08 248.43,426.64 252.69,427.45C255.61,428 257.8,428.84 259.49,432C264.41,441.21 264.41,498.85 259.49,501.48C257.8,502.38 255.61,497.48 252.69,496.93C248.43,496.12 239.43,499.78 235.71,500.65C233.88,501.08 233.18,501.17 231.64,501.67C229.5,502.37 226.69,504.44 224.16,504.69C221.7,504.93 218.94,502.96 216.69,503.27C214.69,503.54 213.18,505.55 211.26,505.96C209.33,506.37 207.52,505.89 205.14,505.7C201.76,505.42 197.78,504.68 192.92,504.22C185.78,503.55 173.54,501.98 166.42,502.43C161.54,502.74 157.26,505.33 154.2,504.82C152.17,504.48 151.67,502.78 149.44,502.08C145.2,500.75 136.13,500.55 129.74,500.37C123.7,500.2 117.98,501.87 112.08,500.91C105.76,499.88 101.59,494.96 93.06,493.87C77.03,491.81 38.04,505.74 21.74,500.97Q11.61,498.01 0,483.81Z" style="fill: rgb(230, 172, 33); fill-opacity: 0.05; stroke-width: 0;"/></g></g><g class="errorbars"/><g class="lines"><path class="js-line" d="M0,403.36Q10.57,426.68 21.74,431.49C37.6,438.32 77.03,422.33 93.06,424.39C101.59,425.48 105.78,429.72 112.08,431.43C118,433.04 123.67,433.75 129.74,434.55C136.11,435.39 145.12,436.49 149.44,436.26C151.58,436.15 152.24,435.43 154.2,435.34C157.32,435.2 161.56,436.19 166.42,436.61C173.56,437.22 185.78,437.73 192.92,438.4C197.78,438.86 201.76,439.61 205.14,439.88C207.52,440.07 209.33,440.54 211.26,440.13C213.18,439.72 214.7,438.23 216.69,437.45C218.95,436.56 221.64,435.48 224.16,435.22C226.63,434.96 229.67,436.65 231.64,435.85C233.43,435.13 233.6,432.43 235.71,431.18C239.25,429.08 248.43,426.64 252.69,427.45C255.61,428 257.8,428.84 259.49,432C264.41,441.21 264.41,498.85 259.49,501.48C257.8,502.38 255.61,497.48 252.69,496.93C248.43,496.12 239.43,499.78 235.71,500.65C233.88,501.08 233.18,501.17 231.64,501.67C229.5,502.37 226.69,504.44 224.16,504.69C221.7,504.93 218.94,502.96 216.69,503.27C214.69,503.54 213.18,505.55 211.26,505.96C209.33,506.37 207.52,505.89 205.14,505.7C201.76,505.42 197.78,504.68 192.92,504.22C185.78,503.55 173.54,501.98 166.42,502.43C161.54,502.74 157.26,505.33 154.2,504.82C152.17,504.48 151.67,502.78 149.44,502.08C145.2,500.75 136.13,500.55 129.74,500.37C123.7,500.2 117.98,501.87 112.08,500.91C105.76,499.88 101.59,494.96 93.06,493.87C77.03,491.81 38.04,505.74 21.74,500.97Q11.61,498.01 0,483.81" style="vector-effect: non-scaling-stroke; fill: none; stroke: rgb(255, 255, 255); stroke-opacity: 0; stroke-width: 2px; opacity: 1;"/></g><g class="points"/><g class="text"/></g><g class="trace scatter trace515c0e" style="stroke-miterlimit: 2; opacity: 1;"><g class="fills"><g><path class="js-fill" d="M0,429.39Q12.43,432.55 21.74,435.18C38.68,439.96 76.75,453.98 93.06,456.44C101.31,457.69 106,457.96 112.08,456.63C118.24,455.28 124.08,452.45 129.74,448.31C136.64,443.27 144.77,428.76 149.44,427.11C151.34,426.44 152.28,427.99 154.2,427.79C157.36,427.46 161.49,423.82 166.42,423.3C173.49,422.56 185.86,425.29 192.92,427.13C197.86,428.41 201.75,430.61 205.14,431.8C207.52,432.64 209.38,432.71 211.26,433.78C213.25,434.92 214.57,437.92 216.69,438.59C218.85,439.27 221.71,437.42 224.16,437.73C226.69,438.05 229.51,440.51 231.64,440.62C233.19,440.7 233.87,439.91 235.71,439.51C239.42,438.7 248.32,436.5 252.69,436.71C255.48,436.85 257.78,436.3 259.49,438.53C264.71,445.33 264.71,500.34 259.49,504.35C257.78,505.66 255.48,502.67 252.69,502.53C248.32,502.32 239.42,504.52 235.71,505.33C233.87,505.73 233.19,506.52 231.64,506.44C229.51,506.33 226.69,503.87 224.16,503.55C221.71,503.24 218.97,504.52 216.69,504.41C214.73,504.32 213.11,503.74 211.26,503.25C209.27,502.72 207.56,501.76 205.14,501.28C201.8,500.61 197.76,500.81 192.92,500.26C185.77,499.45 173.58,496.7 166.42,496.43C161.58,496.25 157.24,496.28 154.2,497.27C152.14,497.94 151.6,499.01 149.44,500.24C145.14,502.69 136.27,507.95 129.74,510.47C123.82,512.76 118.13,514.37 112.08,515.13C105.91,515.9 101.39,515.59 93.06,514.95C76.84,513.71 38.58,508.11 21.74,504.66Q12.33,502.73 0,498.87Z" style="fill: rgb(240, 125, 0); fill-opacity: 0.05; stroke-width: 0;"/></g></g><g class="errorbars"/><g class="lines"><path class="js-line" d="M0,429.39Q12.43,432.55 21.74,435.18C38.68,439.96 76.75,453.98 93.06,456.44C101.31,457.69 106,457.96 112.08,456.63C118.24,455.28 124.08,452.45 129.74,448.31C136.64,443.27 144.77,428.76 149.44,427.11C151.34,426.44 152.28,427.99 154.2,427.79C157.36,427.46 161.49,423.82 166.42,423.3C173.49,422.56 185.86,425.29 192.92,427.13C197.86,428.41 201.75,430.61 205.14,431.8C207.52,432.64 209.38,432.71 211.26,433.78C213.25,434.92 214.57,437.92 216.69,438.59C218.85,439.27 221.71,437.42 224.16,437.73C226.69,438.05 229.51,440.51 231.64,440.62C233.19,440.7 233.87,439.91 235.71,439.51C239.42,438.7 248.32,436.5 252.69,436.71C255.48,436.85 257.78,436.3 259.49,438.53C264.71,445.33 264.71,500.34 259.49,504.35C257.78,505.66 255.48,502.67 252.69,502.53C248.32,502.32 239.42,504.52 235.71,505.33C233.87,505.73 233.19,506.52 231.64,506.44C229.51,506.33 226.69,503.87 224.16,503.55C221.71,503.24 218.97,504.52 216.69,504.41C214.73,504.32 213.11,503.74 211.26,503.25C209.27,502.72 207.56,501.76 205.14,501.28C201.8,500.61 197.76,500.81 192.92,500.26C185.77,499.45 173.58,496.7 166.42,496.43C161.58,496.25 157.24,496.28 154.2,497.27C152.14,497.94 151.6,499.01 149.44,500.24C145.14,502.69 136.27,507.95 129.74,510.47C123.82,512.76 118.13,514.37 112.08,515.13C105.91,515.9 101.39,515.59 93.06,514.95C76.84,513.71 38.58,508.11 21.74,504.66Q12.33,502.73 0,498.87" style="vector-effect: non-scaling-stroke; fill: none; stroke: rgb(255, 255, 255); stroke-opacity: 0; stroke-width: 2px; opacity: 1;"/></g><g class="points"/><g class="text"/></g><g class="trace scatter traceb0c172" style="stroke-miterlimit: 2; opacity: 1;"><g class="fills"><g><path class="js-fill" d="M0,438.64Q11.53,452.84 21.74,456.51C38,462.35 76.89,457.77 93.06,456.67C101.45,456.1 105.88,453.75 112.08,454.03C118.1,454.31 123.68,456.85 129.74,458.16C136.12,459.54 145.18,460.61 149.44,462.1C151.64,462.87 152.17,464.04 154.2,464.55C157.26,465.32 161.64,465.44 166.42,464.73C173.64,463.66 185.72,457.95 192.92,456.29C197.72,455.18 201.76,454.62 205.14,454.5C207.52,454.41 209.28,454.89 211.26,454.94C213.12,454.99 214.74,454.8 216.69,454.82C218.98,454.84 221.67,455.13 224.16,455.12C226.65,455.11 229.52,454.81 231.64,454.78C233.2,454.76 233.95,454.42 235.71,454.85C239.5,455.79 248.21,462.56 252.69,463.39C255.38,463.89 257.81,461.19 259.49,462.71C264.24,467.01 264.24,512.32 259.49,517.56C257.81,519.41 255.44,518.49 252.69,518.24C248.27,517.84 239.46,513.92 235.71,513.36C233.91,513.09 233.2,513.27 231.64,513.29C229.52,513.32 226.65,513.62 224.16,513.63C221.67,513.64 218.98,513.35 216.69,513.33C214.74,513.31 213.12,513.5 211.26,513.45C209.28,513.4 207.52,512.91 205.14,513C201.76,513.12 197.76,514.01 192.92,514.8C185.77,515.97 173.59,518.99 166.42,519.58C161.59,519.98 157.26,520.18 154.2,519.41C152.17,518.9 151.66,517.51 149.44,516.96C145.19,515.9 136.09,517.45 129.74,516.67C123.65,515.92 118.1,512.82 112.08,512.54C105.88,512.25 101.45,514.6 93.06,515.17C76.89,516.27 38.36,518.86 21.74,515.02Q12.07,512.79 0,504.47Z" style="fill: rgb(0, 51, 255); fill-opacity: 0.05; stroke-width: 0;"/></g></g><g class="errorbars"/><g class="lines"><path class="js-line" d="M0,438.64Q11.53,452.84 21.74,456.51C38,462.35 76.89,457.77 93.06,456.67C101.45,456.1 105.88,453.75 112.08,454.03C118.1,454.31 123.68,456.85 129.74,458.16C136.12,459.54 145.18,460.61 149.44,462.1C151.64,462.87 152.17,464.04 154.2,464.55C157.26,465.32 161.64,465.44 166.42,464.73C173.64,463.66 185.72,457.95 192.92,456.29C197.72,455.18 201.76,454.62 205.14,454.5C207.52,454.41 209.28,454.89 211.26,454.94C213.12,454.99 214.74,454.8 216.69,454.82C218.98,454.84 221.67,455.13 224.16,455.12C226.65,455.11 229.52,454.81 231.64,454.78C233.2,454.76 233.95,454.42 235.71,454.85C239.5,455.79 248.21,462.56 252.69,463.39C255.38,463.89 257.81,461.19 259.49,462.71C264.24,467.01 264.24,512.32 259.49,517.56C257.81,519.41 255.44,518.49 252.69,518.24C248.27,517.84 239.46,513.92 235.71,513.36C233.91,513.09 233.2,513.27 231.64,513.29C229.52,513.32 226.65,513.62 224.16,513.63C221.67,513.64 218.98,513.35 216.69,513.33C214.74,513.31 213.12,513.5 211.26,513.45C209.28,513.4 207.52,512.91 205.14,513C201.76,513.12 197.76,514.01 192.92,514.8C185.77,515.97 173.59,518.99 166.42,519.58C161.59,519.98 157.26,520.18 154.2,519.41C152.17,518.9 151.66,517.51 149.44,516.96C145.19,515.9 136.09,517.45 129.74,516.67C123.65,515.92 118.1,512.82 112.08,512.54C105.88,512.25 101.45,514.6 93.06,515.17C76.89,516.27 38.36,518.86 21.74,515.02Q12.07,512.79 0,504.47" style="vector-effect: non-scaling-stroke; fill: none; stroke: rgb(255, 255, 255); stroke-opacity: 0; stroke-width: 2px; opacity: 1;"/></g><g class="points"/><g class="text"/></g><g class="trace scatter trace4af422" style="stroke-miterlimit: 2; opacity: 1;"><g class="fills"><g><path class="js-fill" d="M0,448.88Q12.58,446.37 21.74,447.74C38.84,450.3 76.79,473.01 93.06,473.74C101.35,474.11 105.8,469.48 112.08,468.67C118.02,467.9 123.72,469.24 129.74,468.73C136.15,468.18 145.1,465.69 149.44,465.28C151.56,465.08 152.26,465.46 154.2,465.21C157.35,464.8 161.52,462.78 166.42,462.2C173.52,461.36 185.78,462.07 192.92,462.35C197.78,462.54 201.77,463.36 205.14,463.24C207.53,463.16 209.41,461.76 211.26,462.37C213.31,463.04 214.69,465.9 216.69,467.69C218.94,469.7 221.49,472.79 224.16,473.77C226.51,474.63 229.52,473.97 231.64,473.92C233.2,473.88 233.89,473.71 235.71,473.65C239.43,473.53 248.37,474.54 252.69,473.64C255.54,473.05 257.85,469.61 259.49,470.69C263.81,473.52 264.03,517.8 259.49,521.89C257.83,523.38 255.47,521.32 252.69,521.17C248.31,520.94 239.43,521.06 235.71,521.19C233.89,521.25 233.2,521.42 231.64,521.46C229.52,521.51 226.62,521.73 224.16,521.31C221.64,520.88 218.98,519.6 216.69,518.88C214.74,518.26 213.14,517.37 211.26,517.22C209.3,517.07 207.53,518.01 205.14,518.09C201.77,518.21 197.78,517.39 192.92,517.2C185.78,516.92 173.52,516.21 166.42,517.05C161.52,517.63 157.23,520.68 154.2,520.06C152.12,519.63 151.73,517.03 149.44,516.48C145.24,515.47 136.15,519.37 129.74,519.92C123.72,520.43 118.07,519.66 112.08,519.87C105.85,520.09 101.39,521.63 93.06,521.28C76.84,520.6 38.69,510.8 21.74,509.9Q12.44,509.41 0,511.04Z" style="fill: rgb(140, 0, 0); fill-opacity: 0.05; stroke-width: 0;"/></g></g><g class="errorbars"/><g class="lines"><path class="js-line" d="M0,448.88Q12.58,446.37 21.74,447.74C38.84,450.3 76.79,473.01 93.06,473.74C101.35,474.11 105.8,469.48 112.08,468.67C118.02,467.9 123.72,469.24 129.74,468.73C136.15,468.18 145.1,465.69 149.44,465.28C151.56,465.08 152.26,465.46 154.2,465.21C157.35,464.8 161.52,462.78 166.42,462.2C173.52,461.36 185.78,462.07 192.92,462.35C197.78,462.54 201.77,463.36 205.14,463.24C207.53,463.16 209.41,461.76 211.26,462.37C213.31,463.04 214.69,465.9 216.69,467.69C218.94,469.7 221.49,472.79 224.16,473.77C226.51,474.63 229.52,473.97 231.64,473.92C233.2,473.88 233.89,473.71 235.71,473.65C239.43,473.53 248.37,474.54 252.69,473.64C255.54,473.05 257.85,469.61 259.49,470.69C263.81,473.52 264.03,517.8 259.49,521.89C257.83,523.38 255.47,521.32 252.69,521.17C248.31,520.94 239.43,521.06 235.71,521.19C233.89,521.25 233.2,521.42 231.64,521.46C229.52,521.51 226.62,521.73 224.16,521.31C221.64,520.88 218.98,519.6 216.69,518.88C214.74,518.26 213.14,517.37 211.26,517.22C209.3,517.07 207.53,518.01 205.14,518.09C201.77,518.21 197.78,517.39 192.92,517.2C185.78,516.92 173.52,516.21 166.42,517.05C161.52,517.63 157.23,520.68 154.2,520.06C152.12,519.63 151.73,517.03 149.44,516.48C145.24,515.47 136.15,519.37 129.74,519.92C123.72,520.43 118.07,519.66 112.08,519.87C105.85,520.09 101.39,521.63 93.06,521.28C76.84,520.6 38.69,510.8 21.74,509.9Q12.44,509.41 0,511.04" style="vector-effect: non-scaling-stroke; fill: none; stroke: rgb(255, 255, 255); stroke-opacity: 0; stroke-width: 2px; opacity: 1;"/></g><g class="points"/><g class="text"/></g><g class="trace scatter trace13740a" style="stroke-miterlimit: 2; opacity: 1;"><g class="fills"/><g class="errorbars"/><g class="lines"><path class="js-line" d="M0,145.54Q12.44,145.56 21.74,146.53C38.69,148.29 77.43,162.35 93.06,158.17C102.17,155.73 105.56,146.51 112.08,142.64C117.83,139.23 123.71,138 129.74,135.47C136.14,132.78 145.07,128.38 149.44,126.91C151.53,126.21 152.29,126.45 154.2,125.76C157.38,124.61 161.57,122.16 166.42,119.75C173.57,116.19 185.64,109.03 192.92,106.42C197.65,104.72 201.76,103.73 205.14,103.64C207.52,103.58 209.28,104.66 211.26,104.7C213.12,104.74 214.73,104.1 216.69,104.01C218.98,103.9 221.67,104.15 224.16,104.24C226.65,104.33 229.53,104.27 231.64,104.56C233.21,104.77 233.88,105.14 235.71,105.5C239.42,106.24 248.57,106.05 252.69,108.36Q255.89,110.15 259.49,116.19" style="vector-effect: non-scaling-stroke; fill: none; stroke: rgb(38, 16, 96); stroke-opacity: 1; stroke-width: 7px; opacity: 1;"/></g><g class="points"/><g class="text"/></g><g class="trace scatter trace7abc97" style="stroke-miterlimit: 2; opacity: 1;"><g class="fills"/><g class="errorbars"/><g class="lines"/><g class="points"><path class="point" transform="translate(0,145.01)" d="M7.5,0A7.5,7.5 0 1,1 0,-7.5A7.5,7.5 0 0,1 7.5,0Z" style="opacity: 1; stroke-width: 0px; fill: rgb(38, 16, 96); fill-opacity: 0.25;"/><path class="point" transform="translate(21.74,146.43)" d="M7.5,0A7.5,7.5 0 1,1 0,-7.5A7.5,7.5 0 0,1 7.5,0Z" style="opacity: 1; stroke-width: 0px; fill: rgb(38, 16, 96); fill-opacity: 0.25;"/><path class="point" transform="translate(93.06,174.84)" d="M7.5,0A7.5,7.5 0 1,1 0,-7.5A7.5,7.5 0 0,1 7.5,0Z" style="opacity: 1; stroke-width: 0px; fill: rgb(38, 16, 96); fill-opacity: 0.25;"/><path class="point" transform="translate(112.08,139.33)" d="M7.5,0A7.5,7.5 0 1,1 0,-7.5A7.5,7.5 0 0,1 7.5,0Z" style="opacity: 1; stroke-width: 0px; fill: rgb(38, 16, 96); fill-opacity: 0.25;"/><path class="point" transform="translate(129.74,139.33)" d="M7.5,0A7.5,7.5 0 1,1 0,-7.5A7.5,7.5 0 0,1 7.5,0Z" style="opacity: 1; stroke-width: 0px; fill: rgb(38, 16, 96); fill-opacity: 0.25;"/><path class="point" transform="translate(149.44,125.12)" d="M7.5,0A7.5,7.5 0 1,1 0,-7.5A7.5,7.5 0 0,1 7.5,0Z" style="opacity: 1; stroke-width: 0px; fill: rgb(38, 16, 96); fill-opacity: 0.25;"/><path class="point" transform="translate(154.2,132.22)" d="M7.5,0A7.5,7.5 0 1,1 0,-7.5A7.5,7.5 0 0,1 7.5,0Z" style="opacity: 1; stroke-width: 0px; fill: rgb(38, 16, 96); fill-opacity: 0.25;"/><path class="point" transform="translate(166.42,118.02)" d="M7.5,0A7.5,7.5 0 1,1 0,-7.5A7.5,7.5 0 0,1 7.5,0Z" style="opacity: 1; stroke-width: 0px; fill: rgb(38, 16, 96); fill-opacity: 0.25;"/><path class="point" transform="translate(192.92,103.81)" d="M7.5,0A7.5,7.5 0 1,1 0,-7.5A7.5,7.5 0 0,1 7.5,0Z" style="opacity: 1; stroke-width: 0px; fill: rgb(38, 16, 96); fill-opacity: 0.25;"/><path class="point" transform="translate(205.14,88.18)" d="M7.5,0A7.5,7.5 0 1,1 0,-7.5A7.5,7.5 0 0,1 7.5,0Z" style="opacity: 1; stroke-width: 0px; fill: rgb(38, 16, 96); fill-opacity: 0.25;"/><path class="point" transform="translate(211.26,118.02)" d="M7.5,0A7.5,7.5 0 1,1 0,-7.5A7.5,7.5 0 0,1 7.5,0Z" style="opacity: 1; stroke-width: 0px; fill: rgb(38, 16, 96); fill-opacity: 0.25;"/><path class="point" transform="translate(216.69,96.71)" d="M7.5,0A7.5,7.5 0 1,1 0,-7.5A7.5,7.5 0 0,1 7.5,0Z" style="opacity: 1; stroke-width: 0px; fill: rgb(38, 16, 96); fill-opacity: 0.25;"/><path class="point" transform="translate(224.16,103.81)" d="M7.5,0A7.5,7.5 0 1,1 0,-7.5A7.5,7.5 0 0,1 7.5,0Z" style="opacity: 1; stroke-width: 0px; fill: rgb(38, 16, 96); fill-opacity: 0.25;"/><path class="point" transform="translate(231.64,96.71)" d="M7.5,0A7.5,7.5 0 1,1 0,-7.5A7.5,7.5 0 0,1 7.5,0Z" style="opacity: 1; stroke-width: 0px; fill: rgb(38, 16, 96); fill-opacity: 0.25;"/><path class="point" transform="translate(235.71,110.91)" d="M7.5,0A7.5,7.5 0 1,1 0,-7.5A7.5,7.5 0 0,1 7.5,0Z" style="opacity: 1; stroke-width: 0px; fill: rgb(38, 16, 96); fill-opacity: 0.25;"/><path class="point" transform="translate(252.69,82.5)" d="M7.5,0A7.5,7.5 0 1,1 0,-7.5A7.5,7.5 0 0,1 7.5,0Z" style="opacity: 1; stroke-width: 0px; fill: rgb(38, 16, 96); fill-opacity: 0.25;"/><path class="point" transform="translate(259.49,153.53)" d="M7.5,0A7.5,7.5 0 1,1 0,-7.5A7.5,7.5 0 0,1 7.5,0Z" style="opacity: 1; stroke-width: 0px; fill: rgb(38, 16, 96); fill-opacity: 0.25;"/></g><g class="text"/></g><g class="trace scatter trace7b000f" style="stroke-miterlimit: 2; opacity: 1;"><g class="fills"/><g class="errorbars"/><g class="lines"><path class="js-line" d="M0,328.49Q13.09,321.29 21.74,313.25C39.57,296.68 75.65,239.54 93.06,225.8C100.59,219.86 105.69,218.26 112.08,216.62C117.93,215.12 124.51,212.67 129.74,215.67C137.9,220.35 144.22,250.54 149.44,253.95C151.18,255.09 152.53,253.26 154.2,254.25C157.86,256.42 160.91,267.43 166.42,273.59C173.13,281.09 185.37,291.76 192.92,294.82C197.46,296.66 201.78,296.21 205.14,295.99C207.54,295.83 209.3,295.17 211.26,294.58C213.14,294.01 214.75,292.44 216.69,292.52C219,292.61 221.62,295.78 224.16,296.06C226.61,296.33 229.55,295.07 231.64,294.39C233.23,293.87 233.83,293.06 235.71,292.62C239.38,291.77 248.68,294.26 252.69,291.83Q256.27,289.66 259.49,280.17" style="vector-effect: non-scaling-stroke; fill: none; stroke: rgb(0, 68, 148); stroke-opacity: 1; stroke-width: 7px; opacity: 1;"/></g><g class="points"/><g class="text"/></g><g class="trace scatter tracea33606" style="stroke-miterlimit: 2; opacity: 1;"><g class="fills"/><g class="errorbars"/><g class="lines"/><g class="points"><path class="point" transform="translate(0,336.79)" d="M7.5,0A7.5,7.5 0 1,1 0,-7.5A7.5,7.5 0 0,1 7.5,0Z" style="opacity: 1; stroke-width: 0px; fill: rgb(0, 68, 148); fill-opacity: 0.25;"/><path class="point" transform="translate(21.74,309.8)" d="M7.5,0A7.5,7.5 0 1,1 0,-7.5A7.5,7.5 0 0,1 7.5,0Z" style="opacity: 1; stroke-width: 0px; fill: rgb(0, 68, 148); fill-opacity: 0.25;"/><path class="point" transform="translate(93.06,231.67)" d="M7.5,0A7.5,7.5 0 1,1 0,-7.5A7.5,7.5 0 0,1 7.5,0Z" style="opacity: 1; stroke-width: 0px; fill: rgb(0, 68, 148); fill-opacity: 0.25;"/><path class="point" transform="translate(112.08,210.36)" d="M7.5,0A7.5,7.5 0 1,1 0,-7.5A7.5,7.5 0 0,1 7.5,0Z" style="opacity: 1; stroke-width: 0px; fill: rgb(0, 68, 148); fill-opacity: 0.25;"/><path class="point" transform="translate(129.74,160.64)" d="M7.5,0A7.5,7.5 0 1,1 0,-7.5A7.5,7.5 0 0,1 7.5,0Z" style="opacity: 1; stroke-width: 0px; fill: rgb(0, 68, 148); fill-opacity: 0.25;"/><path class="point" transform="translate(149.44,295.6)" d="M7.5,0A7.5,7.5 0 1,1 0,-7.5A7.5,7.5 0 0,1 7.5,0Z" style="opacity: 1; stroke-width: 0px; fill: rgb(0, 68, 148); fill-opacity: 0.25;"/><path class="point" transform="translate(154.2,210.36)" d="M7.5,0A7.5,7.5 0 1,1 0,-7.5A7.5,7.5 0 0,1 7.5,0Z" style="opacity: 1; stroke-width: 0px; fill: rgb(0, 68, 148); fill-opacity: 0.25;"/><path class="point" transform="translate(166.42,301.28)" d="M7.5,0A7.5,7.5 0 1,1 0,-7.5A7.5,7.5 0 0,1 7.5,0Z" style="opacity: 1; stroke-width: 0px; fill: rgb(0, 68, 148); fill-opacity: 0.25;"/><path class="point" transform="translate(192.92,309.8)" d="M7.5,0A7.5,7.5 0 1,1 0,-7.5A7.5,7.5 0 0,1 7.5,0Z" style="opacity: 1; stroke-width: 0px; fill: rgb(0, 68, 148); fill-opacity: 0.25;"/><path class="point" transform="translate(205.14,309.8)" d="M7.5,0A7.5,7.5 0 1,1 0,-7.5A7.5,7.5 0 0,1 7.5,0Z" style="opacity: 1; stroke-width: 0px; fill: rgb(0, 68, 148); fill-opacity: 0.25;"/><path class="point" transform="translate(211.26,302.7)" d="M7.5,0A7.5,7.5 0 1,1 0,-7.5A7.5,7.5 0 0,1 7.5,0Z" style="opacity: 1; stroke-width: 0px; fill: rgb(0, 68, 148); fill-opacity: 0.25;"/><path class="point" transform="translate(216.69,252.98)" d="M7.5,0A7.5,7.5 0 1,1 0,-7.5A7.5,7.5 0 0,1 7.5,0Z" style="opacity: 1; stroke-width: 0px; fill: rgb(0, 68, 148); fill-opacity: 0.25;"/><path class="point" transform="translate(224.16,328.27)" d="M7.5,0A7.5,7.5 0 1,1 0,-7.5A7.5,7.5 0 0,1 7.5,0Z" style="opacity: 1; stroke-width: 0px; fill: rgb(0, 68, 148); fill-opacity: 0.25;"/><path class="point" transform="translate(231.64,302.7)" d="M7.5,0A7.5,7.5 0 1,1 0,-7.5A7.5,7.5 0 0,1 7.5,0Z" style="opacity: 1; stroke-width: 0px; fill: rgb(0, 68, 148); fill-opacity: 0.25;"/><path class="point" transform="translate(235.71,274.29)" d="M7.5,0A7.5,7.5 0 1,1 0,-7.5A7.5,7.5 0 0,1 7.5,0Z" style="opacity: 1; stroke-width: 0px; fill: rgb(0, 68, 148); fill-opacity: 0.25;"/><path class="point" transform="translate(252.69,338.21)" d="M7.5,0A7.5,7.5 0 1,1 0,-7.5A7.5,7.5 0 0,1 7.5,0Z" style="opacity: 1; stroke-width: 0px; fill: rgb(0, 68, 148); fill-opacity: 0.25;"/><path class="point" transform="translate(259.49,224.56)" d="M7.5,0A7.5,7.5 0 1,1 0,-7.5A7.5,7.5 0 0,1 7.5,0Z" style="opacity: 1; stroke-width: 0px; fill: rgb(0, 68, 148); fill-opacity: 0.25;"/></g><g class="text"/></g><g class="trace scatter tracede35fb" style="stroke-miterlimit: 2; opacity: 1;"><g class="fills"/><g class="errorbars"/><g class="lines"><path class="js-line" d="M0,393.72Q12.51,395.11 21.74,393.89C38.77,391.64 76.91,373.68 93.06,374.11C101.47,374.33 105.89,380.67 112.08,380.49C118.11,380.31 123.64,375.53 129.74,373.37C136.08,371.12 145.09,368.4 149.44,367.33C151.55,366.81 152.29,367.05 154.2,366.44C157.38,365.43 161.46,362.48 166.42,360.82C173.46,358.46 185.74,356.02 192.92,355.01C197.74,354.33 201.77,354.66 205.14,354.23C207.54,353.93 209.29,352.97 211.26,353.06C213.14,353.15 214.72,354.48 216.69,354.64C218.96,354.83 221.72,353.34 224.16,353.74C226.71,354.15 229.5,356.46 231.64,357.28C233.18,357.87 233.87,358.05 235.71,358.48C239.41,359.35 248.33,360.42 252.69,361.48Q255.49,362.16 259.49,363.6" style="vector-effect: non-scaling-stroke; fill: none; stroke: rgb(234, 35, 41); stroke-opacity: 1; stroke-width: 7px; opacity: 1;"/></g><g class="points"/><g class="text"/></g><g class="trace scatter traced5e0d4" style="stroke-miterlimit: 2; opacity: 1;"><g class="fills"/><g class="errorbars"/><g class="lines"/><g class="points"><path class="point" transform="translate(0,393.62)" d="M7.5,0A7.5,7.5 0 1,1 0,-7.5A7.5,7.5 0 0,1 7.5,0Z" style="opacity: 1; stroke-width: 0px; fill: rgb(234, 35, 41); fill-opacity: 0.25;"/><path class="point" transform="translate(21.74,395.04)" d="M7.5,0A7.5,7.5 0 1,1 0,-7.5A7.5,7.5 0 0,1 7.5,0Z" style="opacity: 1; stroke-width: 0px; fill: rgb(234, 35, 41); fill-opacity: 0.25;"/><path class="point" transform="translate(93.06,366.63)" d="M7.5,0A7.5,7.5 0 1,1 0,-7.5A7.5,7.5 0 0,1 7.5,0Z" style="opacity: 1; stroke-width: 0px; fill: rgb(234, 35, 41); fill-opacity: 0.25;"/><path class="point" transform="translate(112.08,395.04)" d="M7.5,0A7.5,7.5 0 1,1 0,-7.5A7.5,7.5 0 0,1 7.5,0Z" style="opacity: 1; stroke-width: 0px; fill: rgb(234, 35, 41); fill-opacity: 0.25;"/><path class="point" transform="translate(129.74,373.73)" d="M7.5,0A7.5,7.5 0 1,1 0,-7.5A7.5,7.5 0 0,1 7.5,0Z" style="opacity: 1; stroke-width: 0px; fill: rgb(234, 35, 41); fill-opacity: 0.25;"/><path class="point" transform="translate(149.44,366.63)" d="M7.5,0A7.5,7.5 0 1,1 0,-7.5A7.5,7.5 0 0,1 7.5,0Z" style="opacity: 1; stroke-width: 0px; fill: rgb(234, 35, 41); fill-opacity: 0.25;"/><path class="point" transform="translate(154.2,373.73)" d="M7.5,0A7.5,7.5 0 1,1 0,-7.5A7.5,7.5 0 0,1 7.5,0Z" style="opacity: 1; stroke-width: 0px; fill: rgb(234, 35, 41); fill-opacity: 0.25;"/><path class="point" transform="translate(166.42,352.42)" d="M7.5,0A7.5,7.5 0 1,1 0,-7.5A7.5,7.5 0 0,1 7.5,0Z" style="opacity: 1; stroke-width: 0px; fill: rgb(234, 35, 41); fill-opacity: 0.25;"/><path class="point" transform="translate(192.92,352.42)" d="M7.5,0A7.5,7.5 0 1,1 0,-7.5A7.5,7.5 0 0,1 7.5,0Z" style="opacity: 1; stroke-width: 0px; fill: rgb(234, 35, 41); fill-opacity: 0.25;"/><path class="point" transform="translate(205.14,360.94)" d="M7.5,0A7.5,7.5 0 1,1 0,-7.5A7.5,7.5 0 0,1 7.5,0Z" style="opacity: 1; stroke-width: 0px; fill: rgb(234, 35, 41); fill-opacity: 0.25;"/><path class="point" transform="translate(211.26,331.11)" d="M7.5,0A7.5,7.5 0 1,1 0,-7.5A7.5,7.5 0 0,1 7.5,0Z" style="opacity: 1; stroke-width: 0px; fill: rgb(234, 35, 41); fill-opacity: 0.25;"/><path class="point" transform="translate(216.69,373.73)" d="M7.5,0A7.5,7.5 0 1,1 0,-7.5A7.5,7.5 0 0,1 7.5,0Z" style="opacity: 1; stroke-width: 0px; fill: rgb(234, 35, 41); fill-opacity: 0.25;"/><path class="point" transform="translate(224.16,326.85)" d="M7.5,0A7.5,7.5 0 1,1 0,-7.5A7.5,7.5 0 0,1 7.5,0Z" style="opacity: 1; stroke-width: 0px; fill: rgb(234, 35, 41); fill-opacity: 0.25;"/><path class="point" transform="translate(231.64,366.63)" d="M7.5,0A7.5,7.5 0 1,1 0,-7.5A7.5,7.5 0 0,1 7.5,0Z" style="opacity: 1; stroke-width: 0px; fill: rgb(234, 35, 41); fill-opacity: 0.25;"/><path class="point" transform="translate(235.71,366.63)" d="M7.5,0A7.5,7.5 0 1,1 0,-7.5A7.5,7.5 0 0,1 7.5,0Z" style="opacity: 1; stroke-width: 0px; fill: rgb(234, 35, 41); fill-opacity: 0.25;"/><path class="point" transform="translate(252.69,359.52)" d="M7.5,0A7.5,7.5 0 1,1 0,-7.5A7.5,7.5 0 0,1 7.5,0Z" style="opacity: 1; stroke-width: 0px; fill: rgb(234, 35, 41); fill-opacity: 0.25;"/><path class="point" transform="translate(259.49,373.73)" d="M7.5,0A7.5,7.5 0 1,1 0,-7.5A7.5,7.5 0 0,1 7.5,0Z" style="opacity: 1; stroke-width: 0px; fill: rgb(234, 35, 41); fill-opacity: 0.25;"/></g><g class="text"/></g><g class="trace scatter trace80b067" style="stroke-miterlimit: 2; opacity: 1;"><g class="fills"/><g class="errorbars"/><g class="lines"><path class="js-line" d="M0,400.81Q12.12,408.27 21.74,411.39C38.39,416.79 76.83,422.1 93.06,423.94C101.38,424.88 105.86,424.45 112.08,424.92C118.08,425.37 124.19,428.79 129.74,426.66C136.86,423.93 144.94,408.98 149.44,405.14C151.43,403.44 152.33,403.5 154.2,402C157.43,399.4 161.01,392.6 166.42,390.08C173.17,386.93 185.78,387.41 192.92,387.43C197.77,387.44 201.77,388.74 205.14,388.71C207.53,388.69 209.3,387.75 211.26,387.95C213.15,388.14 214.71,389.55 216.69,389.79C218.96,390.07 221.69,389.58 224.16,389.17C226.67,388.76 229.51,387.52 231.64,387.31C233.19,387.16 233.94,387.82 235.71,387.5C239.48,386.83 248.28,382.01 252.69,380.31Q255.45,379.25 259.49,377.94" style="vector-effect: non-scaling-stroke; fill: none; stroke: rgb(0, 0, 0); stroke-opacity: 1; stroke-width: 7px; opacity: 1;"/></g><g class="points"/><g class="text"/></g><g class="trace scatter trace2c31a3" style="stroke-miterlimit: 2; opacity: 1;"><g class="fills"/><g class="errorbars"/><g class="lines"/><g class="points"><path class="point" transform="translate(0,395.04)" d="M7.5,0A7.5,7.5 0 1,1 0,-7.5A7.5,7.5 0 0,1 7.5,0Z" style="opacity: 1; stroke-width: 0px; fill: rgb(0, 0, 0); fill-opacity: 0.25;"/><path class="point" transform="translate(21.74,416.35)" d="M7.5,0A7.5,7.5 0 1,1 0,-7.5A7.5,7.5 0 0,1 7.5,0Z" style="opacity: 1; stroke-width: 0px; fill: rgb(0, 0, 0); fill-opacity: 0.25;"/><path class="point" transform="translate(93.06,423.45)" d="M7.5,0A7.5,7.5 0 1,1 0,-7.5A7.5,7.5 0 0,1 7.5,0Z" style="opacity: 1; stroke-width: 0px; fill: rgb(0, 0, 0); fill-opacity: 0.25;"/><path class="point" transform="translate(112.08,423.45)" d="M7.5,0A7.5,7.5 0 1,1 0,-7.5A7.5,7.5 0 0,1 7.5,0Z" style="opacity: 1; stroke-width: 0px; fill: rgb(0, 0, 0); fill-opacity: 0.25;"/><path class="point" transform="translate(129.74,458.97)" d="M7.5,0A7.5,7.5 0 1,1 0,-7.5A7.5,7.5 0 0,1 7.5,0Z" style="opacity: 1; stroke-width: 0px; fill: rgb(0, 0, 0); fill-opacity: 0.25;"/><path class="point" transform="translate(149.44,402.14)" d="M7.5,0A7.5,7.5 0 1,1 0,-7.5A7.5,7.5 0 0,1 7.5,0Z" style="opacity: 1; stroke-width: 0px; fill: rgb(0, 0, 0); fill-opacity: 0.25;"/><path class="point" transform="translate(154.2,409.25)" d="M7.5,0A7.5,7.5 0 1,1 0,-7.5A7.5,7.5 0 0,1 7.5,0Z" style="opacity: 1; stroke-width: 0px; fill: rgb(0, 0, 0); fill-opacity: 0.25;"/><path class="point" transform="translate(166.42,362.37)" d="M7.5,0A7.5,7.5 0 1,1 0,-7.5A7.5,7.5 0 0,1 7.5,0Z" style="opacity: 1; stroke-width: 0px; fill: rgb(0, 0, 0); fill-opacity: 0.25;"/><path class="point" transform="translate(192.92,380.83)" d="M7.5,0A7.5,7.5 0 1,1 0,-7.5A7.5,7.5 0 0,1 7.5,0Z" style="opacity: 1; stroke-width: 0px; fill: rgb(0, 0, 0); fill-opacity: 0.25;"/><path class="point" transform="translate(205.14,397.88)" d="M7.5,0A7.5,7.5 0 1,1 0,-7.5A7.5,7.5 0 0,1 7.5,0Z" style="opacity: 1; stroke-width: 0px; fill: rgb(0, 0, 0); fill-opacity: 0.25;"/><path class="point" transform="translate(211.26,366.63)" d="M7.5,0A7.5,7.5 0 1,1 0,-7.5A7.5,7.5 0 0,1 7.5,0Z" style="opacity: 1; stroke-width: 0px; fill: rgb(0, 0, 0); fill-opacity: 0.25;"/><path class="point" transform="translate(216.69,409.25)" d="M7.5,0A7.5,7.5 0 1,1 0,-7.5A7.5,7.5 0 0,1 7.5,0Z" style="opacity: 1; stroke-width: 0px; fill: rgb(0, 0, 0); fill-opacity: 0.25;"/><path class="point" transform="translate(224.16,396.46)" d="M7.5,0A7.5,7.5 0 1,1 0,-7.5A7.5,7.5 0 0,1 7.5,0Z" style="opacity: 1; stroke-width: 0px; fill: rgb(0, 0, 0); fill-opacity: 0.25;"/><path class="point" transform="translate(231.64,373.73)" d="M7.5,0A7.5,7.5 0 1,1 0,-7.5A7.5,7.5 0 0,1 7.5,0Z" style="opacity: 1; stroke-width: 0px; fill: rgb(0, 0, 0); fill-opacity: 0.25;"/><path class="point" transform="translate(235.71,402.14)" d="M7.5,0A7.5,7.5 0 1,1 0,-7.5A7.5,7.5 0 0,1 7.5,0Z" style="opacity: 1; stroke-width: 0px; fill: rgb(0, 0, 0); fill-opacity: 0.25;"/><path class="point" transform="translate(252.69,373.73)" d="M7.5,0A7.5,7.5 0 1,1 0,-7.5A7.5,7.5 0 0,1 7.5,0Z" style="opacity: 1; stroke-width: 0px; fill: rgb(0, 0, 0); fill-opacity: 0.25;"/><path class="point" transform="translate(259.49,366.63)" d="M7.5,0A7.5,7.5 0 1,1 0,-7.5A7.5,7.5 0 0,1 7.5,0Z" style="opacity: 1; stroke-width: 0px; fill: rgb(0, 0, 0); fill-opacity: 0.25;"/></g><g class="text"/></g><g class="trace scatter trace0e07bc" style="stroke-miterlimit: 2; opacity: 1;"><g class="fills"/><g class="errorbars"/><g class="lines"><path class="js-line" d="M0,417.79Q8.62,377.76 21.74,370.92C37.28,362.82 77.14,378.12 93.06,383.55C101.73,386.51 105.9,390.06 112.08,393.5C118.12,396.86 123.97,399.46 129.74,403.95C136.47,409.19 145.16,419.21 149.44,423.79C151.61,426.11 152.19,427.09 154.2,429.19C157.28,432.41 161.12,437.72 166.42,440.93C173.23,445.05 185.71,448.09 192.92,449.8C197.71,450.94 201.76,451.15 205.14,451.55C207.53,451.84 209.31,452.38 211.26,452.14C213.15,451.9 214.71,450.62 216.69,450.19C218.95,449.7 221.69,450.02 224.16,449.55C226.68,449.07 229.54,448.06 231.64,447.29C233.22,446.71 233.84,445.84 235.71,445.54C239.38,444.94 248.3,446.92 252.69,446.98Q255.46,447.02 259.49,446.6" style="vector-effect: non-scaling-stroke; fill: none; stroke: rgb(93, 140, 0); stroke-opacity: 1; stroke-width: 7px; opacity: 1;"/></g><g class="points"/><g class="text"/></g><g class="trace scatter traceb50d9f" style="stroke-miterlimit: 2; opacity: 1;"><g class="fills"/><g class="errorbars"/><g class="lines"/><g class="points"><path class="point" transform="translate(0,443.34)" d="M7.5,0A7.5,7.5 0 1,1 0,-7.5A7.5,7.5 0 0,1 7.5,0Z" style="opacity: 1; stroke-width: 0px; fill: rgb(93, 140, 0); fill-opacity: 0.25;"/><path class="point" transform="translate(21.74,345.32)" d="M7.5,0A7.5,7.5 0 1,1 0,-7.5A7.5,7.5 0 0,1 7.5,0Z" style="opacity: 1; stroke-width: 0px; fill: rgb(93, 140, 0); fill-opacity: 0.25;"/><path class="point" transform="translate(93.06,373.73)" d="M7.5,0A7.5,7.5 0 1,1 0,-7.5A7.5,7.5 0 0,1 7.5,0Z" style="opacity: 1; stroke-width: 0px; fill: rgb(93, 140, 0); fill-opacity: 0.25;"/><path class="point" transform="translate(112.08,387.94)" d="M7.5,0A7.5,7.5 0 1,1 0,-7.5A7.5,7.5 0 0,1 7.5,0Z" style="opacity: 1; stroke-width: 0px; fill: rgb(93, 140, 0); fill-opacity: 0.25;"/><path class="point" transform="translate(129.74,387.94)" d="M7.5,0A7.5,7.5 0 1,1 0,-7.5A7.5,7.5 0 0,1 7.5,0Z" style="opacity: 1; stroke-width: 0px; fill: rgb(93, 140, 0); fill-opacity: 0.25;"/><path class="point" transform="translate(149.44,409.25)" d="M7.5,0A7.5,7.5 0 1,1 0,-7.5A7.5,7.5 0 0,1 7.5,0Z" style="opacity: 1; stroke-width: 0px; fill: rgb(93, 140, 0); fill-opacity: 0.25;"/><path class="point" transform="translate(154.2,437.66)" d="M7.5,0A7.5,7.5 0 1,1 0,-7.5A7.5,7.5 0 0,1 7.5,0Z" style="opacity: 1; stroke-width: 0px; fill: rgb(93, 140, 0); fill-opacity: 0.25;"/><path class="point" transform="translate(166.42,461.81)" d="M7.5,0A7.5,7.5 0 1,1 0,-7.5A7.5,7.5 0 0,1 7.5,0Z" style="opacity: 1; stroke-width: 0px; fill: rgb(93, 140, 0); fill-opacity: 0.25;"/><path class="point" transform="translate(192.92,451.87)" d="M7.5,0A7.5,7.5 0 1,1 0,-7.5A7.5,7.5 0 0,1 7.5,0Z" style="opacity: 1; stroke-width: 0px; fill: rgb(93, 140, 0); fill-opacity: 0.25;"/><path class="point" transform="translate(205.14,451.87)" d="M7.5,0A7.5,7.5 0 1,1 0,-7.5A7.5,7.5 0 0,1 7.5,0Z" style="opacity: 1; stroke-width: 0px; fill: rgb(93, 140, 0); fill-opacity: 0.25;"/><path class="point" transform="translate(211.26,473.17)" d="M7.5,0A7.5,7.5 0 1,1 0,-7.5A7.5,7.5 0 0,1 7.5,0Z" style="opacity: 1; stroke-width: 0px; fill: rgb(93, 140, 0); fill-opacity: 0.25;"/><path class="point" transform="translate(216.69,437.66)" d="M7.5,0A7.5,7.5 0 1,1 0,-7.5A7.5,7.5 0 0,1 7.5,0Z" style="opacity: 1; stroke-width: 0px; fill: rgb(93, 140, 0); fill-opacity: 0.25;"/><path class="point" transform="translate(224.16,458.97)" d="M7.5,0A7.5,7.5 0 1,1 0,-7.5A7.5,7.5 0 0,1 7.5,0Z" style="opacity: 1; stroke-width: 0px; fill: rgb(93, 140, 0); fill-opacity: 0.25;"/><path class="point" transform="translate(231.64,451.87)" d="M7.5,0A7.5,7.5 0 1,1 0,-7.5A7.5,7.5 0 0,1 7.5,0Z" style="opacity: 1; stroke-width: 0px; fill: rgb(93, 140, 0); fill-opacity: 0.25;"/><path class="point" transform="translate(235.71,423.45)" d="M7.5,0A7.5,7.5 0 1,1 0,-7.5A7.5,7.5 0 0,1 7.5,0Z" style="opacity: 1; stroke-width: 0px; fill: rgb(93, 140, 0); fill-opacity: 0.25;"/><path class="point" transform="translate(252.69,451.87)" d="M7.5,0A7.5,7.5 0 1,1 0,-7.5A7.5,7.5 0 0,1 7.5,0Z" style="opacity: 1; stroke-width: 0px; fill: rgb(93, 140, 0); fill-opacity: 0.25;"/><path class="point" transform="translate(259.49,444.76)" d="M7.5,0A7.5,7.5 0 1,1 0,-7.5A7.5,7.5 0 0,1 7.5,0Z" style="opacity: 1; stroke-width: 0px; fill: rgb(93, 140, 0); fill-opacity: 0.25;"/></g><g class="text"/></g><g class="trace scatter trace579fbf" style="stroke-miterlimit: 2; opacity: 1;"><g class="fills"/><g class="errorbars"/><g class="lines"><path class="js-line" d="M0,428.72Q12.49,428.97 21.74,430.58C38.75,433.54 77.21,442.54 93.06,449.49C101.82,453.33 105.79,457.91 112.08,461.62C118.01,465.12 123.51,470.24 129.74,471.22C135.96,472.2 145.1,468.13 149.44,467.54C151.56,467.25 152.27,467.51 154.2,467.14C157.35,466.54 161.51,464.38 166.42,463.48C173.51,462.17 185.77,461.72 192.92,461.53C197.77,461.4 201.79,461.31 205.14,461.77C207.55,462.1 209.27,463.23 211.26,463.36C213.11,463.48 214.74,463.01 216.69,462.7C218.99,462.34 221.66,461.68 224.16,461.24C226.65,460.81 229.53,460.05 231.64,460.09C233.2,460.12 233.88,460.81 235.71,460.87C239.42,460.99 248.31,459.44 252.69,458.78Q255.47,458.36 259.49,457.58" style="vector-effect: non-scaling-stroke; fill: none; stroke: rgb(114, 55, 105); stroke-opacity: 1; stroke-width: 7px; opacity: 1;"/></g><g class="points"/><g class="text"/></g><g class="trace scatter trace91a60f" style="stroke-miterlimit: 2; opacity: 1;"><g class="fills"/><g class="errorbars"/><g class="lines"/><g class="points"><path class="point" transform="translate(0,427.71)" d="M7.5,0A7.5,7.5 0 1,1 0,-7.5A7.5,7.5 0 0,1 7.5,0Z" style="opacity: 1; stroke-width: 0px; fill: rgb(114, 55, 105); fill-opacity: 0.25;"/><path class="point" transform="translate(21.74,430.56)" d="M7.5,0A7.5,7.5 0 1,1 0,-7.5A7.5,7.5 0 0,1 7.5,0Z" style="opacity: 1; stroke-width: 0px; fill: rgb(114, 55, 105); fill-opacity: 0.25;"/><path class="point" transform="translate(93.06,437.66)" d="M7.5,0A7.5,7.5 0 1,1 0,-7.5A7.5,7.5 0 0,1 7.5,0Z" style="opacity: 1; stroke-width: 0px; fill: rgb(114, 55, 105); fill-opacity: 0.25;"/><path class="point" transform="translate(112.08,458.97)" d="M7.5,0A7.5,7.5 0 1,1 0,-7.5A7.5,7.5 0 0,1 7.5,0Z" style="opacity: 1; stroke-width: 0px; fill: rgb(114, 55, 105); fill-opacity: 0.25;"/><path class="point" transform="translate(129.74,487.38)" d="M7.5,0A7.5,7.5 0 1,1 0,-7.5A7.5,7.5 0 0,1 7.5,0Z" style="opacity: 1; stroke-width: 0px; fill: rgb(114, 55, 105); fill-opacity: 0.25;"/><path class="point" transform="translate(149.44,466.07)" d="M7.5,0A7.5,7.5 0 1,1 0,-7.5A7.5,7.5 0 0,1 7.5,0Z" style="opacity: 1; stroke-width: 0px; fill: rgb(114, 55, 105); fill-opacity: 0.25;"/><path class="point" transform="translate(154.2,473.17)" d="M7.5,0A7.5,7.5 0 1,1 0,-7.5A7.5,7.5 0 0,1 7.5,0Z" style="opacity: 1; stroke-width: 0px; fill: rgb(114, 55, 105); fill-opacity: 0.25;"/><path class="point" transform="translate(166.42,456.13)" d="M7.5,0A7.5,7.5 0 1,1 0,-7.5A7.5,7.5 0 0,1 7.5,0Z" style="opacity: 1; stroke-width: 0px; fill: rgb(114, 55, 105); fill-opacity: 0.25;"/><path class="point" transform="translate(192.92,458.97)" d="M7.5,0A7.5,7.5 0 1,1 0,-7.5A7.5,7.5 0 0,1 7.5,0Z" style="opacity: 1; stroke-width: 0px; fill: rgb(114, 55, 105); fill-opacity: 0.25;"/><path class="point" transform="translate(205.14,450.44)" d="M7.5,0A7.5,7.5 0 1,1 0,-7.5A7.5,7.5 0 0,1 7.5,0Z" style="opacity: 1; stroke-width: 0px; fill: rgb(114, 55, 105); fill-opacity: 0.25;"/><path class="point" transform="translate(211.26,480.28)" d="M7.5,0A7.5,7.5 0 1,1 0,-7.5A7.5,7.5 0 0,1 7.5,0Z" style="opacity: 1; stroke-width: 0px; fill: rgb(114, 55, 105); fill-opacity: 0.25;"/><path class="point" transform="translate(216.69,466.07)" d="M7.5,0A7.5,7.5 0 1,1 0,-7.5A7.5,7.5 0 0,1 7.5,0Z" style="opacity: 1; stroke-width: 0px; fill: rgb(114, 55, 105); fill-opacity: 0.25;"/><path class="point" transform="translate(224.16,458.97)" d="M7.5,0A7.5,7.5 0 1,1 0,-7.5A7.5,7.5 0 0,1 7.5,0Z" style="opacity: 1; stroke-width: 0px; fill: rgb(114, 55, 105); fill-opacity: 0.25;"/><path class="point" transform="translate(231.64,444.76)" d="M7.5,0A7.5,7.5 0 1,1 0,-7.5A7.5,7.5 0 0,1 7.5,0Z" style="opacity: 1; stroke-width: 0px; fill: rgb(114, 55, 105); fill-opacity: 0.25;"/><path class="point" transform="translate(235.71,473.17)" d="M7.5,0A7.5,7.5 0 1,1 0,-7.5A7.5,7.5 0 0,1 7.5,0Z" style="opacity: 1; stroke-width: 0px; fill: rgb(114, 55, 105); fill-opacity: 0.25;"/><path class="point" transform="translate(252.69,458.97)" d="M7.5,0A7.5,7.5 0 1,1 0,-7.5A7.5,7.5 0 0,1 7.5,0Z" style="opacity: 1; stroke-width: 0px; fill: rgb(114, 55, 105); fill-opacity: 0.25;"/><path class="point" transform="translate(259.49,451.87)" d="M7.5,0A7.5,7.5 0 1,1 0,-7.5A7.5,7.5 0 0,1 7.5,0Z" style="opacity: 1; stroke-width: 0px; fill: rgb(114, 55, 105); fill-opacity: 0.25;"/></g><g class="text"/></g><g class="trace scatter trace6e3bc6" style="stroke-miterlimit: 2; opacity: 1;"><g class="fills"/><g class="errorbars"/><g class="lines"><path class="js-line" d="M0,444.55Q11.08,463.66 21.74,467.61C37.78,473.55 77.05,457.87 93.06,460.08C101.62,461.26 105.74,466.35 112.08,467.67C117.97,468.89 123.7,467.82 129.74,468.21C136.13,468.62 145.12,469.53 149.44,470.16C151.58,470.47 152.24,471 154.2,471.08C157.32,471.22 161.56,469.88 166.42,469.8C173.56,469.68 185.79,470.8 192.92,471.68C197.79,472.28 201.75,473.62 205.14,473.85C207.52,474.01 209.29,473.82 211.26,473.6C213.13,473.39 214.74,472.98 216.69,472.62C218.98,472.2 221.66,471.54 224.16,471.2C226.64,470.86 229.59,471.27 231.64,470.57C233.29,470.01 233.79,468.72 235.71,467.93C239.35,466.43 248.35,463.95 252.69,464.34Q255.51,464.59 259.49,467.11" style="vector-effect: non-scaling-stroke; fill: none; stroke: rgb(230, 172, 33); stroke-opacity: 1; stroke-width: 7px; opacity: 1;"/></g><g class="points"/><g class="text"/></g><g class="trace scatter tracec64f3e" style="stroke-miterlimit: 2; opacity: 1;"><g class="fills"/><g class="errorbars"/><g class="lines"/><g class="points"><path class="point" transform="translate(0,431.98)" d="M7.5,0A7.5,7.5 0 1,1 0,-7.5A7.5,7.5 0 0,1 7.5,0Z" style="opacity: 1; stroke-width: 0px; fill: rgb(230, 172, 33); fill-opacity: 0.25;"/><path class="point" transform="translate(21.74,480.28)" d="M7.5,0A7.5,7.5 0 1,1 0,-7.5A7.5,7.5 0 0,1 7.5,0Z" style="opacity: 1; stroke-width: 0px; fill: rgb(230, 172, 33); fill-opacity: 0.25;"/><path class="point" transform="translate(93.06,451.87)" d="M7.5,0A7.5,7.5 0 1,1 0,-7.5A7.5,7.5 0 0,1 7.5,0Z" style="opacity: 1; stroke-width: 0px; fill: rgb(230, 172, 33); fill-opacity: 0.25;"/><path class="point" transform="translate(112.08,473.17)" d="M7.5,0A7.5,7.5 0 1,1 0,-7.5A7.5,7.5 0 0,1 7.5,0Z" style="opacity: 1; stroke-width: 0px; fill: rgb(230, 172, 33); fill-opacity: 0.25;"/><path class="point" transform="translate(129.74,466.07)" d="M7.5,0A7.5,7.5 0 1,1 0,-7.5A7.5,7.5 0 0,1 7.5,0Z" style="opacity: 1; stroke-width: 0px; fill: rgb(230, 172, 33); fill-opacity: 0.25;"/><path class="point" transform="translate(149.44,466.07)" d="M7.5,0A7.5,7.5 0 1,1 0,-7.5A7.5,7.5 0 0,1 7.5,0Z" style="opacity: 1; stroke-width: 0px; fill: rgb(230, 172, 33); fill-opacity: 0.25;"/><path class="point" transform="translate(154.2,480.28)" d="M7.5,0A7.5,7.5 0 1,1 0,-7.5A7.5,7.5 0 0,1 7.5,0Z" style="opacity: 1; stroke-width: 0px; fill: rgb(230, 172, 33); fill-opacity: 0.25;"/><path class="point" transform="translate(166.42,464.65)" d="M7.5,0A7.5,7.5 0 1,1 0,-7.5A7.5,7.5 0 0,1 7.5,0Z" style="opacity: 1; stroke-width: 0px; fill: rgb(230, 172, 33); fill-opacity: 0.25;"/><path class="point" transform="translate(192.92,466.07)" d="M7.5,0A7.5,7.5 0 1,1 0,-7.5A7.5,7.5 0 0,1 7.5,0Z" style="opacity: 1; stroke-width: 0px; fill: rgb(230, 172, 33); fill-opacity: 0.25;"/><path class="point" transform="translate(205.14,481.7)" d="M7.5,0A7.5,7.5 0 1,1 0,-7.5A7.5,7.5 0 0,1 7.5,0Z" style="opacity: 1; stroke-width: 0px; fill: rgb(230, 172, 33); fill-opacity: 0.25;"/><path class="point" transform="translate(211.26,480.28)" d="M7.5,0A7.5,7.5 0 1,1 0,-7.5A7.5,7.5 0 0,1 7.5,0Z" style="opacity: 1; stroke-width: 0px; fill: rgb(230, 172, 33); fill-opacity: 0.25;"/><path class="point" transform="translate(216.69,473.17)" d="M7.5,0A7.5,7.5 0 1,1 0,-7.5A7.5,7.5 0 0,1 7.5,0Z" style="opacity: 1; stroke-width: 0px; fill: rgb(230, 172, 33); fill-opacity: 0.25;"/><path class="point" transform="translate(224.16,466.07)" d="M7.5,0A7.5,7.5 0 1,1 0,-7.5A7.5,7.5 0 0,1 7.5,0Z" style="opacity: 1; stroke-width: 0px; fill: rgb(230, 172, 33); fill-opacity: 0.25;"/><path class="point" transform="translate(231.64,494.48)" d="M7.5,0A7.5,7.5 0 1,1 0,-7.5A7.5,7.5 0 0,1 7.5,0Z" style="opacity: 1; stroke-width: 0px; fill: rgb(230, 172, 33); fill-opacity: 0.25;"/><path class="point" transform="translate(235.71,444.76)" d="M7.5,0A7.5,7.5 0 1,1 0,-7.5A7.5,7.5 0 0,1 7.5,0Z" style="opacity: 1; stroke-width: 0px; fill: rgb(230, 172, 33); fill-opacity: 0.25;"/><path class="point" transform="translate(252.69,444.76)" d="M7.5,0A7.5,7.5 0 1,1 0,-7.5A7.5,7.5 0 0,1 7.5,0Z" style="opacity: 1; stroke-width: 0px; fill: rgb(230, 172, 33); fill-opacity: 0.25;"/><path class="point" transform="translate(259.49,480.28)" d="M7.5,0A7.5,7.5 0 1,1 0,-7.5A7.5,7.5 0 0,1 7.5,0Z" style="opacity: 1; stroke-width: 0px; fill: rgb(230, 172, 33); fill-opacity: 0.25;"/></g><g class="text"/></g><g class="trace scatter tracedc4269" style="stroke-miterlimit: 2; opacity: 1;"><g class="fills"/><g class="errorbars"/><g class="lines"><path class="js-line" d="M0,466.05Q12.39,469.11 21.74,471.23C38.64,475.06 76.81,484.89 93.06,486.54C101.36,487.38 105.95,487.45 112.08,486.36C118.17,485.27 123.95,483.24 129.74,480.05C136.43,476.37 144.92,466.6 149.44,464.68C151.42,463.84 152.26,464.36 154.2,464C157.34,463.41 161.54,461.41 166.42,461.18C173.54,460.84 185.8,463.44 192.92,464.67C197.79,465.51 201.77,466.48 205.14,467.3C207.54,467.89 209.31,468.27 211.26,468.98C213.15,469.67 214.69,470.92 216.69,471.48C218.94,472.11 221.67,472.08 224.16,472.35C226.65,472.62 229.54,472.72 231.64,473.11C233.22,473.4 233.89,474.21 235.71,474.22C239.43,474.23 248.3,469.7 252.69,469.71Q255.47,469.71 259.49,471.54" style="vector-effect: non-scaling-stroke; fill: none; stroke: rgb(240, 125, 0); stroke-opacity: 1; stroke-width: 7px; opacity: 1;"/></g><g class="points"/><g class="text"/></g><g class="trace scatter trace206d88" style="stroke-miterlimit: 2; opacity: 1;"><g class="fills"/><g class="errorbars"/><g class="lines"/><g class="points"><path class="point" transform="translate(0,463.23)" d="M7.5,0A7.5,7.5 0 1,1 0,-7.5A7.5,7.5 0 0,1 7.5,0Z" style="opacity: 1; stroke-width: 0px; fill: rgb(240, 125, 0); fill-opacity: 0.25;"/><path class="point" transform="translate(21.74,473.17)" d="M7.5,0A7.5,7.5 0 1,1 0,-7.5A7.5,7.5 0 0,1 7.5,0Z" style="opacity: 1; stroke-width: 0px; fill: rgb(240, 125, 0); fill-opacity: 0.25;"/><path class="point" transform="translate(93.06,487.38)" d="M7.5,0A7.5,7.5 0 1,1 0,-7.5A7.5,7.5 0 0,1 7.5,0Z" style="opacity: 1; stroke-width: 0px; fill: rgb(240, 125, 0); fill-opacity: 0.25;"/><path class="point" transform="translate(112.08,494.48)" d="M7.5,0A7.5,7.5 0 1,1 0,-7.5A7.5,7.5 0 0,1 7.5,0Z" style="opacity: 1; stroke-width: 0px; fill: rgb(240, 125, 0); fill-opacity: 0.25;"/><path class="point" transform="translate(129.74,494.48)" d="M7.5,0A7.5,7.5 0 1,1 0,-7.5A7.5,7.5 0 0,1 7.5,0Z" style="opacity: 1; stroke-width: 0px; fill: rgb(240, 125, 0); fill-opacity: 0.25;"/><path class="point" transform="translate(149.44,451.87)" d="M7.5,0A7.5,7.5 0 1,1 0,-7.5A7.5,7.5 0 0,1 7.5,0Z" style="opacity: 1; stroke-width: 0px; fill: rgb(240, 125, 0); fill-opacity: 0.25;"/><path class="point" transform="translate(154.2,466.07)" d="M7.5,0A7.5,7.5 0 1,1 0,-7.5A7.5,7.5 0 0,1 7.5,0Z" style="opacity: 1; stroke-width: 0px; fill: rgb(240, 125, 0); fill-opacity: 0.25;"/><path class="point" transform="translate(166.42,450.44)" d="M7.5,0A7.5,7.5 0 1,1 0,-7.5A7.5,7.5 0 0,1 7.5,0Z" style="opacity: 1; stroke-width: 0px; fill: rgb(240, 125, 0); fill-opacity: 0.25;"/><path class="point" transform="translate(192.92,458.97)" d="M7.5,0A7.5,7.5 0 1,1 0,-7.5A7.5,7.5 0 0,1 7.5,0Z" style="opacity: 1; stroke-width: 0px; fill: rgb(240, 125, 0); fill-opacity: 0.25;"/><path class="point" transform="translate(205.14,461.81)" d="M7.5,0A7.5,7.5 0 1,1 0,-7.5A7.5,7.5 0 0,1 7.5,0Z" style="opacity: 1; stroke-width: 0px; fill: rgb(240, 125, 0); fill-opacity: 0.25;"/><path class="point" transform="translate(211.26,458.97)" d="M7.5,0A7.5,7.5 0 1,1 0,-7.5A7.5,7.5 0 0,1 7.5,0Z" style="opacity: 1; stroke-width: 0px; fill: rgb(240, 125, 0); fill-opacity: 0.25;"/><path class="point" transform="translate(216.69,487.38)" d="M7.5,0A7.5,7.5 0 1,1 0,-7.5A7.5,7.5 0 0,1 7.5,0Z" style="opacity: 1; stroke-width: 0px; fill: rgb(240, 125, 0); fill-opacity: 0.25;"/><path class="point" transform="translate(224.16,473.17)" d="M7.5,0A7.5,7.5 0 1,1 0,-7.5A7.5,7.5 0 0,1 7.5,0Z" style="opacity: 1; stroke-width: 0px; fill: rgb(240, 125, 0); fill-opacity: 0.25;"/><path class="point" transform="translate(231.64,466.07)" d="M7.5,0A7.5,7.5 0 1,1 0,-7.5A7.5,7.5 0 0,1 7.5,0Z" style="opacity: 1; stroke-width: 0px; fill: rgb(240, 125, 0); fill-opacity: 0.25;"/><path class="point" transform="translate(235.71,494.48)" d="M7.5,0A7.5,7.5 0 1,1 0,-7.5A7.5,7.5 0 0,1 7.5,0Z" style="opacity: 1; stroke-width: 0px; fill: rgb(240, 125, 0); fill-opacity: 0.25;"/><path class="point" transform="translate(252.69,451.87)" d="M7.5,0A7.5,7.5 0 1,1 0,-7.5A7.5,7.5 0 0,1 7.5,0Z" style="opacity: 1; stroke-width: 0px; fill: rgb(240, 125, 0); fill-opacity: 0.25;"/><path class="point" transform="translate(259.49,480.28)" d="M7.5,0A7.5,7.5 0 1,1 0,-7.5A7.5,7.5 0 0,1 7.5,0Z" style="opacity: 1; stroke-width: 0px; fill: rgb(240, 125, 0); fill-opacity: 0.25;"/></g><g class="text"/></g><g class="trace scatter trace8eeb3f" style="stroke-miterlimit: 2; opacity: 1;"><g class="fills"/><g class="errorbars"/><g class="lines"><path class="js-line" d="M0,471.43Q11.76,483.37 21.74,486.48C38.13,491.58 76.87,486.77 93.06,486.32C101.43,486.09 105.88,484.91 112.08,485.3C118.1,485.68 123.69,487.42 129.74,488.48C136.12,489.6 145.12,490.93 149.44,491.85C151.58,492.3 152.23,492.83 154.2,493.06C157.31,493.43 161.61,493.47 166.42,492.88C173.6,492 185.75,488.07 192.92,486.69C197.75,485.76 201.76,485.21 205.14,484.83C207.52,484.56 209.28,484.44 211.26,484.39C213.12,484.34 214.74,484.53 216.69,484.51C218.98,484.49 221.67,484.2 224.16,484.21C226.65,484.22 229.52,484.52 231.64,484.55C233.2,484.57 233.92,484.19 235.71,484.48C239.47,485.1 248.25,489.56 252.69,490.56Q255.42,491.18 259.49,491.24" style="vector-effect: non-scaling-stroke; fill: none; stroke: rgb(0, 51, 255); stroke-opacity: 1; stroke-width: 7px; opacity: 1;"/></g><g class="points"/><g class="text"/></g><g class="trace scatter traced09a9b" style="stroke-miterlimit: 2; opacity: 1;"><g class="fills"/><g class="errorbars"/><g class="lines"/><g class="points"><path class="point" transform="translate(0,463.23)" d="M7.5,0A7.5,7.5 0 1,1 0,-7.5A7.5,7.5 0 0,1 7.5,0Z" style="opacity: 1; stroke-width: 0px; fill: rgb(0, 51, 255); fill-opacity: 0.25;"/><path class="point" transform="translate(21.74,494.48)" d="M7.5,0A7.5,7.5 0 1,1 0,-7.5A7.5,7.5 0 0,1 7.5,0Z" style="opacity: 1; stroke-width: 0px; fill: rgb(0, 51, 255); fill-opacity: 0.25;"/><path class="point" transform="translate(93.06,487.38)" d="M7.5,0A7.5,7.5 0 1,1 0,-7.5A7.5,7.5 0 0,1 7.5,0Z" style="opacity: 1; stroke-width: 0px; fill: rgb(0, 51, 255); fill-opacity: 0.25;"/><path class="point" transform="translate(112.08,480.28)" d="M7.5,0A7.5,7.5 0 1,1 0,-7.5A7.5,7.5 0 0,1 7.5,0Z" style="opacity: 1; stroke-width: 0px; fill: rgb(0, 51, 255); fill-opacity: 0.25;"/><path class="point" transform="translate(129.74,487.38)" d="M7.5,0A7.5,7.5 0 1,1 0,-7.5A7.5,7.5 0 0,1 7.5,0Z" style="opacity: 1; stroke-width: 0px; fill: rgb(0, 51, 255); fill-opacity: 0.25;"/><path class="point" transform="translate(149.44,487.38)" d="M7.5,0A7.5,7.5 0 1,1 0,-7.5A7.5,7.5 0 0,1 7.5,0Z" style="opacity: 1; stroke-width: 0px; fill: rgb(0, 51, 255); fill-opacity: 0.25;"/><path class="point" transform="translate(154.2,501.59)" d="M7.5,0A7.5,7.5 0 1,1 0,-7.5A7.5,7.5 0 0,1 7.5,0Z" style="opacity: 1; stroke-width: 0px; fill: rgb(0, 51, 255); fill-opacity: 0.25;"/><path class="point" transform="translate(166.42,498.75)" d="M7.5,0A7.5,7.5 0 1,1 0,-7.5A7.5,7.5 0 0,1 7.5,0Z" style="opacity: 1; stroke-width: 0px; fill: rgb(0, 51, 255); fill-opacity: 0.25;"/><path class="point" transform="translate(192.92,487.38)" d="M7.5,0A7.5,7.5 0 1,1 0,-7.5A7.5,7.5 0 0,1 7.5,0Z" style="opacity: 1; stroke-width: 0px; fill: rgb(0, 51, 255); fill-opacity: 0.25;"/><path class="point" transform="translate(205.14,483.12)" d="M7.5,0A7.5,7.5 0 1,1 0,-7.5A7.5,7.5 0 0,1 7.5,0Z" style="opacity: 1; stroke-width: 0px; fill: rgb(0, 51, 255); fill-opacity: 0.25;"/><path class="point" transform="translate(211.26,480.28)" d="M7.5,0A7.5,7.5 0 1,1 0,-7.5A7.5,7.5 0 0,1 7.5,0Z" style="opacity: 1; stroke-width: 0px; fill: rgb(0, 51, 255); fill-opacity: 0.25;"/><path class="point" transform="translate(216.69,487.38)" d="M7.5,0A7.5,7.5 0 1,1 0,-7.5A7.5,7.5 0 0,1 7.5,0Z" style="opacity: 1; stroke-width: 0px; fill: rgb(0, 51, 255); fill-opacity: 0.25;"/><path class="point" transform="translate(224.16,480.28)" d="M7.5,0A7.5,7.5 0 1,1 0,-7.5A7.5,7.5 0 0,1 7.5,0Z" style="opacity: 1; stroke-width: 0px; fill: rgb(0, 51, 255); fill-opacity: 0.25;"/><path class="point" transform="translate(231.64,487.38)" d="M7.5,0A7.5,7.5 0 1,1 0,-7.5A7.5,7.5 0 0,1 7.5,0Z" style="opacity: 1; stroke-width: 0px; fill: rgb(0, 51, 255); fill-opacity: 0.25;"/><path class="point" transform="translate(235.71,473.17)" d="M7.5,0A7.5,7.5 0 1,1 0,-7.5A7.5,7.5 0 0,1 7.5,0Z" style="opacity: 1; stroke-width: 0px; fill: rgb(0, 51, 255); fill-opacity: 0.25;"/><path class="point" transform="translate(252.69,501.59)" d="M7.5,0A7.5,7.5 0 1,1 0,-7.5A7.5,7.5 0 0,1 7.5,0Z" style="opacity: 1; stroke-width: 0px; fill: rgb(0, 51, 255); fill-opacity: 0.25;"/><path class="point" transform="translate(259.49,494.48)" d="M7.5,0A7.5,7.5 0 1,1 0,-7.5A7.5,7.5 0 0,1 7.5,0Z" style="opacity: 1; stroke-width: 0px; fill: rgb(0, 51, 255); fill-opacity: 0.25;"/></g><g class="text"/></g><g class="trace scatter trace817c67" style="stroke-miterlimit: 2; opacity: 1;"><g class="fills"/><g class="errorbars"/><g class="lines"><path class="js-line" d="M0,479.48Q12.49,479.23 21.74,480.62C38.74,483.17 76.8,497.46 93.06,498.5C101.36,499.03 105.85,496.63 112.08,496.25C118.07,495.89 123.72,496.79 129.74,496.2C136.16,495.57 145.1,492.72 149.44,492.33C151.55,492.14 152.25,492.45 154.2,492.41C157.33,492.35 161.57,491.89 166.42,491.75C173.56,491.54 185.78,491.89 192.92,491.61C197.78,491.42 201.77,490.6 205.14,490.71C207.53,490.79 209.31,491.09 211.26,491.58C213.15,492.06 214.79,492.63 216.69,493.58C219.05,494.77 221.55,497.72 224.16,498.47C226.55,499.16 229.52,498.26 231.64,498.31C233.2,498.35 233.89,498.53 235.71,498.59C239.43,498.72 248.31,498.83 252.69,498.6Q255.47,498.46 259.49,497.89" style="vector-effect: non-scaling-stroke; fill: none; stroke: rgb(140, 0, 0); stroke-opacity: 1; stroke-width: 7px; opacity: 1;"/></g><g class="points"/><g class="text"/></g><g class="trace scatter traceae4f21" style="stroke-miterlimit: 2; opacity: 1;"><g class="fills"/><g class="errorbars"/><g class="lines"/><g class="points"><path class="point" transform="translate(0,478.86)" d="M7.5,0A7.5,7.5 0 1,1 0,-7.5A7.5,7.5 0 0,1 7.5,0Z" style="opacity: 1; stroke-width: 0px; fill: rgb(140, 0, 0); fill-opacity: 0.25;"/><path class="point" transform="translate(21.74,480.28)" d="M7.5,0A7.5,7.5 0 1,1 0,-7.5A7.5,7.5 0 0,1 7.5,0Z" style="opacity: 1; stroke-width: 0px; fill: rgb(140, 0, 0); fill-opacity: 0.25;"/><path class="point" transform="translate(93.06,501.59)" d="M7.5,0A7.5,7.5 0 1,1 0,-7.5A7.5,7.5 0 0,1 7.5,0Z" style="opacity: 1; stroke-width: 0px; fill: rgb(140, 0, 0); fill-opacity: 0.25;"/><path class="point" transform="translate(112.08,494.48)" d="M7.5,0A7.5,7.5 0 1,1 0,-7.5A7.5,7.5 0 0,1 7.5,0Z" style="opacity: 1; stroke-width: 0px; fill: rgb(140, 0, 0); fill-opacity: 0.25;"/><path class="point" transform="translate(129.74,501.59)" d="M7.5,0A7.5,7.5 0 1,1 0,-7.5A7.5,7.5 0 0,1 7.5,0Z" style="opacity: 1; stroke-width: 0px; fill: rgb(140, 0, 0); fill-opacity: 0.25;"/><path class="point" transform="translate(149.44,487.38)" d="M7.5,0A7.5,7.5 0 1,1 0,-7.5A7.5,7.5 0 0,1 7.5,0Z" style="opacity: 1; stroke-width: 0px; fill: rgb(140, 0, 0); fill-opacity: 0.25;"/><path class="point" transform="translate(154.2,494.48)" d="M7.5,0A7.5,7.5 0 1,1 0,-7.5A7.5,7.5 0 0,1 7.5,0Z" style="opacity: 1; stroke-width: 0px; fill: rgb(140, 0, 0); fill-opacity: 0.25;"/><path class="point" transform="translate(166.42,490.22)" d="M7.5,0A7.5,7.5 0 1,1 0,-7.5A7.5,7.5 0 0,1 7.5,0Z" style="opacity: 1; stroke-width: 0px; fill: rgb(140, 0, 0); fill-opacity: 0.25;"/><path class="point" transform="translate(192.92,494.48)" d="M7.5,0A7.5,7.5 0 1,1 0,-7.5A7.5,7.5 0 0,1 7.5,0Z" style="opacity: 1; stroke-width: 0px; fill: rgb(140, 0, 0); fill-opacity: 0.25;"/><path class="point" transform="translate(205.14,481.7)" d="M7.5,0A7.5,7.5 0 1,1 0,-7.5A7.5,7.5 0 0,1 7.5,0Z" style="opacity: 1; stroke-width: 0px; fill: rgb(140, 0, 0); fill-opacity: 0.25;"/><path class="point" transform="translate(211.26,480.28)" d="M7.5,0A7.5,7.5 0 1,1 0,-7.5A7.5,7.5 0 0,1 7.5,0Z" style="opacity: 1; stroke-width: 0px; fill: rgb(140, 0, 0); fill-opacity: 0.25;"/><path class="point" transform="translate(216.69,480.28)" d="M7.5,0A7.5,7.5 0 1,1 0,-7.5A7.5,7.5 0 0,1 7.5,0Z" style="opacity: 1; stroke-width: 0px; fill: rgb(140, 0, 0); fill-opacity: 0.25;"/><path class="point" transform="translate(231.64,494.48)" d="M7.5,0A7.5,7.5 0 1,1 0,-7.5A7.5,7.5 0 0,1 7.5,0Z" style="opacity: 1; stroke-width: 0px; fill: rgb(140, 0, 0); fill-opacity: 0.25;"/><path class="point" transform="translate(235.71,501.59)" d="M7.5,0A7.5,7.5 0 1,1 0,-7.5A7.5,7.5 0 0,1 7.5,0Z" style="opacity: 1; stroke-width: 0px; fill: rgb(140, 0, 0); fill-opacity: 0.25;"/><path class="point" transform="translate(252.69,501.59)" d="M7.5,0A7.5,7.5 0 1,1 0,-7.5A7.5,7.5 0 0,1 7.5,0Z" style="opacity: 1; stroke-width: 0px; fill: rgb(140, 0, 0); fill-opacity: 0.25;"/><path class="point" transform="translate(259.49,494.48)" d="M7.5,0A7.5,7.5 0 1,1 0,-7.5A7.5,7.5 0 0,1 7.5,0Z" style="opacity: 1; stroke-width: 0px; fill: rgb(140, 0, 0); fill-opacity: 0.25;"/></g><g class="text"/></g></g></g><g class="overplot"/><path class="xlines-above crisp" d="M0,0" style="fill: none;"/><path class="ylines-above crisp" d="M0,0" style="fill: none;"/><g class="overlines-above"/><g class="xaxislayer-above"><g class="xtick"><text text-anchor="middle" x="0" y="563" transform="translate(107.06,0)" style="font-family: 'Open Sans', verdana, arial, sans-serif; font-size: 12px; fill: rgb(42, 63, 95); fill-opacity: 1; white-space: pre; opacity: 1;">1.1.22</text></g><g class="xtick"><text text-anchor="middle" x="0" y="563" style="font-family: 'Open Sans', verdana, arial, sans-serif; font-size: 12px; fill: rgb(42, 63, 95); fill-opacity: 1; white-space: pre; opacity: 1;" transform="translate(230.01,0)">1.7.22</text></g><g class="xtick"><text text-anchor="middle" x="0" y="563" style="font-family: 'Open Sans', verdana, arial, sans-serif; font-size: 12px; fill: rgb(42, 63, 95); fill-opacity: 1; white-space: pre; opacity: 1;" transform="translate(355,0)">1.1.23</text></g><g class="xtick"><text text-anchor="middle" x="0" y="563" style="font-family: 'Open Sans', verdana, arial, sans-serif; font-size: 12px; fill: rgb(42, 63, 95); fill-opacity: 1; white-space: pre; opacity: 1;" transform="translate(477.95,0)">1.7.23</text></g><g class="xtick"><text text-anchor="middle" x="0" y="563" style="font-family: 'Open Sans', verdana, arial, sans-serif; font-size: 12px; fill: rgb(42, 63, 95); fill-opacity: 1; white-space: pre; opacity: 1;" transform="translate(602.94,0)">1.1.24</text></g><g class="xtick"><text text-anchor="middle" x="0" y="563" style="font-family: 'Open Sans', verdana, arial, sans-serif; font-size: 12px; fill: rgb(42, 63, 95); fill-opacity: 1; white-space: pre; opacity: 1;" transform="translate(726.57,0)">1.7.24</text></g><g class="xtick"><text text-anchor="middle" x="0" y="563" style="font-family: 'Open Sans', verdana, arial, sans-serif; font-size: 12px; fill: rgb(42, 63, 95); fill-opacity: 1; white-space: pre; opacity: 1;" transform="translate(851.56,0)">1.1.25</text></g><g class="xtick"><text text-anchor="middle" x="0" y="563" style="font-family: 'Open Sans', verdana, arial, sans-serif; font-size: 12px; fill: rgb(42, 63, 95); fill-opacity: 1; white-space: pre; opacity: 1;" transform="translate(974.51,0)">1.7.25</text></g></g><g class="yaxislayer-above"><g class="ytick"><text text-anchor="end" x="49" y="4.199999999999999" transform="translate(0,550)" style="font-family: 'Open Sans', verdana, arial, sans-serif; font-size: 12px; fill: rgb(42, 63, 95); fill-opacity: 1; white-space: pre; opacity: 1;">0%</text></g><g class="ytick"><text text-anchor="end" x="49" y="4.199999999999999" style="font-family: 'Open Sans', verdana, arial, sans-serif; font-size: 12px; fill: rgb(42, 63, 95); fill-opacity: 1; white-space: pre; opacity: 1;" transform="translate(0,478.97)">5%</text></g><g class="ytick"><text text-anchor="end" x="49" y="4.199999999999999" style="font-family: 'Open Sans', verdana, arial, sans-serif; font-size: 12px; fill: rgb(42, 63, 95); fill-opacity: 1; white-space: pre; opacity: 1;" transform="translate(0,407.94)">10%</text></g><g class="ytick"><text text-anchor="end" x="49" y="4.199999999999999" style="font-family: 'Open Sans', verdana, arial, sans-serif; font-size: 12px; fill: rgb(42, 63, 95); fill-opacity: 1; white-space: pre; opacity: 1;" transform="translate(0,336.91)">15%</text></g><g class="ytick"><text text-anchor="end" x="49" y="4.199999999999999" style="font-family: 'Open Sans', verdana, arial, sans-serif; font-size: 12px; fill: rgb(42, 63, 95); fill-opacity: 1; white-space: pre; opacity: 1;" transform="translate(0,265.87)">20%</text></g><g class="ytick"><text text-anchor="end" x="49" y="4.199999999999999" style="font-family: 'Open Sans', verdana, arial, sans-serif; font-size: 12px; fill: rgb(42, 63, 95); fill-opacity: 1; white-space: pre; opacity: 1;" transform="translate(0,194.84)">25%</text></g><g class="ytick"><text text-anchor="end" x="49" y="4.199999999999999" style="font-family: 'Open Sans', verdana, arial, sans-serif; font-size: 12px; fill: rgb(42, 63, 95); fill-opacity: 1; white-space: pre; opacity: 1;" transform="translate(0,123.81)">30%</text></g><g class="ytick"><text text-anchor="end" x="49" y="4.199999999999999" style="font-family: 'Open Sans', verdana, arial, sans-serif; font-size: 12px; fill: rgb(42, 63, 95); fill-opacity: 1; white-space: pre; opacity: 1;" transform="translate(0,52.78)">35%</text></g></g><g class="overaxes-above"/></g></g><g class="polarlayer"/><g class="smithlayer"/><g class="ternarylayer"/><g class="geolayer"/><g class="funnelarealayer"/><g class="pielayer"/><g class="iciclelayer"/><g class="treemaplayer"/><g class="sunburstlayer"/><g class="glimages"/><defs id="topdefs-26aeb6"><g class="clips"/><clipPath id="legend26aeb6"><rect width="131" height="200" x="0" y="0"/></clipPath></defs><g class="layer-above"><g class="imagelayer"/><g class="shapelayer"/></g><g class="infolayer"><g class="legend" pointer-events="all" transform="translate(1056.74,20)"><rect class="bg" shape-rendering="crispEdges" width="131" height="200" x="0" y="0" style="stroke: rgb(68, 68, 68); stroke-opacity: 1; fill: rgb(255, 255, 255); fill-opacity: 1; stroke-width: 0px;"/><g class="scrollbox" transform="" clip-path="url(#legend26aeb6)"><g class="groups"><g class="traces" transform="translate(0,14.5)" style="opacity: 1;"><text class="legendtext" text-anchor="start" x="40" y="4.680000000000001" style="font-family: 'Open Sans', verdana, arial, sans-serif; font-size: 12px; fill: rgb(42, 63, 95); fill-opacity: 1; white-space: pre;">ANO: 29%</text><g class="layers" style="opacity: 1;"><g class="legendfill"/><g class="legendlines"><path class="js-line" d="M5,0h30" style="fill: none; stroke: rgb(38, 16, 96); stroke-opacity: 1; stroke-width: 7px;"/></g><g class="legendsymbols"><g class="legendpoints"/></g></g><rect class="legendtoggle" x="0" y="-9.5" width="125.359375" height="19" style="fill: rgb(0, 0, 0); fill-opacity: 0;"/></g><g class="traces" transform="translate(0,33.5)" style="opacity: 1;"><text class="legendtext" text-anchor="start" x="40" y="4.680000000000001" style="font-family: 'Open Sans', verdana, arial, sans-serif; font-size: 12px; fill: rgb(42, 63, 95); fill-opacity: 1; white-space: pre;">ODS: 18%</text><g class="layers" style="opacity: 1;"><g class="legendfill"/><g class="legendlines"><path class="js-line" d="M5,0h30" style="fill: none; stroke: rgb(0, 68, 148); stroke-opacity: 1; stroke-width: 7px;"/></g><g class="legendsymbols"><g class="legendpoints"/></g></g><rect class="legendtoggle" x="0" y="-9.5" width="125.359375" height="19" style="fill: rgb(0, 0, 0); fill-opacity: 0;"/></g><g class="traces" transform="translate(0,52.5)" style="opacity: 1;"><text class="legendtext" text-anchor="start" x="40" y="4.680000000000001" style="font-family: 'Open Sans', verdana, arial, sans-serif; font-size: 12px; fill: rgb(42, 63, 95); fill-opacity: 1; white-space: pre;">SPD: 12%</text><g class="layers" style="opacity: 1;"><g class="legendfill"/><g class="legendlines"><path class="js-line" d="M5,0h30" style="fill: none; stroke: rgb(234, 35, 41); stroke-opacity: 1; stroke-width: 7px;"/></g><g class="legendsymbols"><g class="legendpoints"/></g></g><rect class="legendtoggle" x="0" y="-9.5" width="125.359375" height="19" style="fill: rgb(0, 0, 0); fill-opacity: 0;"/></g><g class="traces" transform="translate(0,71.5)" style="opacity: 1;"><text class="legendtext" text-anchor="start" x="40" y="4.680000000000001" style="font-family: 'Open Sans', verdana, arial, sans-serif; font-size: 12px; fill: rgb(42, 63, 95); fill-opacity: 1; white-space: pre;">Pirti: 11%</text><g class="layers" style="opacity: 1;"><g class="legendfill"/><g class="legendlines"><path class="js-line" d="M5,0h30" style="fill: none; stroke: rgb(0, 0, 0); stroke-opacity: 1; stroke-width: 7px;"/></g><g class="legendsymbols"><g class="legendpoints"/></g></g><rect class="legendtoggle" x="0" y="-9.5" width="125.359375" height="19" style="fill: rgb(0, 0, 0); fill-opacity: 0;"/></g><g class="traces" transform="translate(0,90.5)" style="opacity: 1;"><text class="legendtext" text-anchor="start" x="40" y="4.680000000000001" style="font-family: 'Open Sans', verdana, arial, sans-serif; font-size: 12px; fill: rgb(42, 63, 95); fill-opacity: 1; white-space: pre;">STAN: 6%</text><g class="layers" style="opacity: 1;"><g class="legendfill"/><g class="legendlines"><path class="js-line" d="M5,0h30" style="fill: none; stroke: rgb(93, 140, 0); stroke-opacity: 1; stroke-width: 7px;"/></g><g class="legendsymbols"><g class="legendpoints"/></g></g><rect class="legendtoggle" x="0" y="-9.5" width="125.359375" height="19" style="fill: rgb(0, 0, 0); fill-opacity: 0;"/></g><g class="traces" transform="translate(0,109.5)" style="opacity: 1;"><text class="legendtext" text-anchor="start" x="40" y="4.680000000000001" style="font-family: 'Open Sans', verdana, arial, sans-serif; font-size: 12px; fill: rgb(42, 63, 95); fill-opacity: 1; white-space: pre;">TOP 09: 5%</text><g class="layers" style="opacity: 1;"><g class="legendfill"/><g class="legendlines"><path class="js-line" d="M5,0h30" style="fill: none; stroke: rgb(114, 55, 105); stroke-opacity: 1; stroke-width: 7px;"/></g><g class="legendsymbols"><g class="legendpoints"/></g></g><rect class="legendtoggle" x="0" y="-9.5" width="125.359375" height="19" style="fill: rgb(0, 0, 0); fill-opacity: 0;"/></g><g class="traces" transform="translate(0,128.5)" style="opacity: 1;"><text class="legendtext" text-anchor="start" x="40" y="4.680000000000001" style="font-family: 'Open Sans', verdana, arial, sans-serif; font-size: 12px; fill: rgb(42, 63, 95); fill-opacity: 1; white-space: pre;">KDU-SL: 4%</text><g class="layers" style="opacity: 1;"><g class="legendfill"/><g class="legendlines"><path class="js-line" d="M5,0h30" style="fill: none; stroke: rgb(230, 172, 33); stroke-opacity: 1; stroke-width: 7px;"/></g><g class="legendsymbols"><g class="legendpoints"/></g></g><rect class="legendtoggle" x="0" y="-9.5" width="125.359375" height="19" style="fill: rgb(0, 0, 0); fill-opacity: 0;"/></g><g class="traces" transform="translate(0,147.5)" style="opacity: 1;"><text class="legendtext" text-anchor="start" x="40" y="4.680000000000001" style="font-family: 'Open Sans', verdana, arial, sans-serif; font-size: 12px; fill: rgb(42, 63, 95); fill-opacity: 1; white-space: pre;">SSD: 4%</text><g class="layers" style="opacity: 1;"><g class="legendfill"/><g class="legendlines"><path class="js-line" d="M5,0h30" style="fill: none; stroke: rgb(240, 125, 0); stroke-opacity: 1; stroke-width: 7px;"/></g><g class="legendsymbols"><g class="legendpoints"/></g></g><rect class="legendtoggle" x="0" y="-9.5" width="125.359375" height="19" style="fill: rgb(0, 0, 0); fill-opacity: 0;"/></g><g class="traces" transform="translate(0,166.5)" style="opacity: 1;"><text class="legendtext" text-anchor="start" x="40" y="4.680000000000001" style="font-family: 'Open Sans', verdana, arial, sans-serif; font-size: 12px; fill: rgb(42, 63, 95); fill-opacity: 1; white-space: pre;">Psaha: 3%</text><g class="layers" style="opacity: 1;"><g class="legendfill"/><g class="legendlines"><path class="js-line" d="M5,0h30" style="fill: none; stroke: rgb(0, 51, 255); stroke-opacity: 1; stroke-width: 7px;"/></g><g class="legendsymbols"><g class="legendpoints"/></g></g><rect class="legendtoggle" x="0" y="-9.5" width="125.359375" height="19" style="fill: rgb(0, 0, 0); fill-opacity: 0;"/></g><g class="traces" transform="translate(0,185.5)" style="opacity: 1;"><text class="legendtext" text-anchor="start" x="40" y="4.680000000000001" style="font-family: 'Open Sans', verdana, arial, sans-serif; font-size: 12px; fill: rgb(42, 63, 95); fill-opacity: 1; white-space: pre;">KSM: 2%</text><g class="layers" style="opacity: 1;"><g class="legendfill"/><g class="legendlines"><path class="js-line" d="M5,0h30" style="fill: none; stroke: rgb(140, 0, 0); stroke-opacity: 1; stroke-width: 7px;"/></g><g class="legendsymbols"><g class="legendpoints"/></g></g><rect class="legendtoggle" x="0" y="-9.5" width="125.359375" height="19" style="fill: rgb(0, 0, 0); fill-opacity: 0;"/></g></g></g><rect class="scrollbar" rx="20" ry="3" width="0" height="0" x="0" y="0" style="fill: rgb(128, 139, 164); fill-opacity: 1;"/></g><g class="g-gtitle"/><g class="g-xtitle"/><g class="g-ytitle"/></g></svg>