<svg class="main-svg" xmlns="http://www.w3.org/2000/svg" xmlns:xlink="http://www.w3.org/1999/xlink" width="1200" height="600" style="" viewBox="0 0 1200 600"><rect x="0" y="0" width="1200" height="600" style="fill: rgb(255, 255, 255); fill-opacity: 1;"/><defs id="defs-9e94c8"><g class="clips"><clipPath id="clip9e94c8xyplot" class="plotclip"><rect width="995" height="530"/></clipPath><clipPath class="axesclip" id="clip9e94c8x"><rect x="50" y="0" width="995" height="600"/></clipPath><clipPath class="axesclip" id="clip9e94c8y"><rect x="0" y="20" width="1200" height="530"/></clipPath><clipPath class="axesclip" id="clip9e94c8xy"><rect x="50" y="20" width="995" height="530"/></clipPath></g><g class="gradients"/><g class="patterns"/></defs><g class="bglayer"/><g class="layer-below"><g class="imagelayer"/><g class="shapelayer"/></g><g class="cartesianlayer"><g class="subplot xy"><g class="layer-subplot"><g class="shapelayer"/><g class="imagelayer"/></g><g class="minor-gridlayer"><g class="x"/><g class="y"/></g><g class="gridlayer"><g class="x"><path class="xgrid crisp" transform="translate(107.52000000000001,0)" d="M0,20v530" style="stroke: rgb(235, 240, 248); stroke-opacity: 1; stroke-width: 1px;"/><path class="xgrid crisp" transform="translate(231.47,0)" d="M0,20v530" style="stroke: rgb(235, 240, 248); stroke-opacity: 1; stroke-width: 1px;"/><path class="xgrid crisp" transform="translate(357.47,0)" d="M0,20v530" style="stroke: rgb(235, 240, 248); stroke-opacity: 1; stroke-width: 1px;"/><path class="xgrid crisp" transform="translate(481.42,0)" d="M0,20v530" style="stroke: rgb(235, 240, 248); stroke-opacity: 1; stroke-width: 1px;"/><path class="xgrid crisp" transform="translate(607.42,0)" d="M0,20v530" style="stroke: rgb(235, 240, 248); stroke-opacity: 1; stroke-width: 1px;"/><path class="xgrid crisp" transform="translate(732.05,0)" d="M0,20v530" style="stroke: rgb(235, 240, 248); stroke-opacity: 1; stroke-width: 1px;"/><path class="xgrid crisp" transform="translate(858.05,0)" d="M0,20v530" style="stroke: rgb(235, 240, 248); stroke-opacity: 1; stroke-width: 1px;"/><path class="xgrid crisp" transform="translate(982,0)" d="M0,20v530" style="stroke: rgb(235, 240, 248); stroke-opacity: 1; stroke-width: 1px;"/></g><g class="y"><path class="ygrid crisp" transform="translate(0,479.01)" d="M50,0h995" style="stroke: rgb(235, 240, 248); stroke-opacity: 1; stroke-width: 1px;"/><path class="ygrid crisp" transform="translate(0,408.03)" d="M50,0h995" style="stroke: rgb(235, 240, 248); stroke-opacity: 1; stroke-width: 1px;"/><path class="ygrid crisp" transform="translate(0,337.04)" d="M50,0h995" style="stroke: rgb(235, 240, 248); stroke-opacity: 1; stroke-width: 1px;"/><path class="ygrid crisp" transform="translate(0,266.05)" d="M50,0h995" style="stroke: rgb(235, 240, 248); stroke-opacity: 1; stroke-width: 1px;"/><path class="ygrid crisp" transform="translate(0,195.07)" d="M50,0h995" style="stroke: rgb(235, 240, 248); stroke-opacity: 1; stroke-width: 1px;"/><path class="ygrid crisp" transform="translate(0,124.08)" d="M50,0h995" style="stroke: rgb(235, 240, 248); stroke-opacity: 1; stroke-width: 1px;"/><path class="ygrid crisp" transform="translate(0,53.09)" d="M50,0h995" style="stroke: rgb(235, 240, 248); stroke-opacity: 1; stroke-width: 1px;"/></g></g><g class="zerolinelayer"><path class="yzl zl crisp" transform="translate(0,550)" d="M50,0h995" style="stroke: rgb(235, 240, 248); stroke-opacity: 1; stroke-width: 2px;"/></g><path class="xlines-below"/><path class="ylines-below"/><g class="overlines-below"/><g class="xaxislayer-below"/><g class="yaxislayer-below"/><g class="overaxes-below"/><g class="plot" transform="translate(50,20)" clip-path="url(#clip9e94c8xyplot)"><g class="scatterlayer mlayer"><g class="trace scatter trace75d484" style="stroke-miterlimit: 2; opacity: 1;"><g class="fills"><g><path class="js-fill" d="M0,70.04Q12.51,71.48 21.91,72.72C38.97,74.98 77.98,86.83 93.82,82.95C102.85,80.74 106.51,72.84 112.99,69.21C118.85,65.93 124.74,64.47 130.79,61.7C137.27,58.74 146.3,54.13 150.65,51.9C152.81,50.8 153.45,50.3 155.45,49.36C158.58,47.89 162.98,46.67 167.77,44.28C175.08,40.63 187.04,30.73 194.48,28.46C199.17,27.03 202.76,27.95 206.81,27.74C210.75,27.54 214.99,27.41 218.45,27.22C221.23,27.07 225.98,26.86 225.98,26.74C225.98,26.59 212.98,26.31 212.97,26.5C212.96,26.76 231.76,22.39 237.62,28.84C252.22,44.89 252.22,169.05 237.62,182.33C231.76,187.66 212.96,180.26 212.97,179.99C212.98,179.8 225.98,180.07 225.98,180.22C225.98,180.34 221.23,180.55 218.45,180.7C214.99,180.89 210.75,181.03 206.81,181.23C202.76,181.44 199.25,180.77 194.48,181.95C187.13,183.77 174.82,190.05 167.77,194.11C162.71,197.02 158.73,202.21 155.45,202.85C153.58,203.22 152.74,201.49 150.65,201.73C146.22,202.24 137.37,209.23 130.79,211.53C124.82,213.61 118.66,212.47 112.99,215.39C106.23,218.87 103.14,230.17 93.82,232.78C78.14,237.17 39.01,220.14 21.91,218.89Q12.55,218.21 0,219.88Z" style="fill: rgb(38, 16, 96); fill-opacity: 0.05; stroke-width: 0;"/></g></g><g class="errorbars"/><g class="lines"><path class="js-line" d="M0,70.04Q12.51,71.48 21.91,72.72C38.97,74.98 77.98,86.83 93.82,82.95C102.85,80.74 106.51,72.84 112.99,69.21C118.85,65.93 124.74,64.47 130.79,61.7C137.27,58.74 146.3,54.13 150.65,51.9C152.81,50.8 153.45,50.3 155.45,49.36C158.58,47.89 162.98,46.67 167.77,44.28C175.08,40.63 187.04,30.73 194.48,28.46C199.17,27.03 202.76,27.95 206.81,27.74C210.75,27.54 214.99,27.41 218.45,27.22C221.23,27.07 225.98,26.86 225.98,26.74C225.98,26.59 212.98,26.31 212.97,26.5C212.96,26.76 231.76,22.39 237.62,28.84C252.22,44.89 252.22,169.05 237.62,182.33C231.76,187.66 212.96,180.26 212.97,179.99C212.98,179.8 225.98,180.07 225.98,180.22C225.98,180.34 221.23,180.55 218.45,180.7C214.99,180.89 210.75,181.03 206.81,181.23C202.76,181.44 199.25,180.77 194.48,181.95C187.13,183.77 174.82,190.05 167.77,194.11C162.71,197.02 158.73,202.21 155.45,202.85C153.58,203.22 152.74,201.49 150.65,201.73C146.22,202.24 137.37,209.23 130.79,211.53C124.82,213.61 118.66,212.47 112.99,215.39C106.23,218.87 103.14,230.17 93.82,232.78C78.14,237.17 39.01,220.14 21.91,218.89Q12.55,218.21 0,219.88" style="vector-effect: non-scaling-stroke; fill: none; stroke: rgb(255, 255, 255); stroke-opacity: 0; stroke-width: 2px; opacity: 1;"/></g><g class="points"/><g class="text"/></g><g class="trace scatter tracea32a86" style="stroke-miterlimit: 2; opacity: 1;"><g class="fills"><g><path class="js-fill" d="M0,270.93Q13.19,262.27 21.91,253.27C39.87,234.73 76.39,174.39 93.82,158.02C101.47,150.84 106.42,147.1 112.99,145.35C118.78,143.81 125.52,143.04 130.79,146.49C139.01,151.87 145.7,179.3 150.65,185.03C152.48,187.15 153.71,186.57 155.45,188.47C158.98,192.33 162.15,202.77 167.77,209.4C174.5,217.34 186.87,228.09 194.48,231.74C199.06,233.94 202.87,234.85 206.81,234.22C210.87,233.57 214.95,227.78 218.45,227.6C221.19,227.46 226.1,230.14 225.98,230.91C225.83,231.89 213.05,232.69 212.97,232.26C212.85,231.66 231.94,220.99 237.62,225.28C250.3,234.87 250.55,338.4 237.62,353.19C231.92,359.71 212.99,355.43 212.97,356.51C212.95,357.3 225.46,359.86 225.98,358.82C226.44,357.9 221.37,352.19 218.45,351.85C215.11,351.46 210.87,357.82 206.81,358.47C202.87,359.1 199.13,357.98 194.48,355.99C186.99,352.78 174.56,344.03 167.77,337.3C162.29,331.87 159.05,321.79 155.45,320.03C153.74,319.19 152.43,321.22 150.65,320.24C145.51,317.4 138.78,290.35 130.79,285.36C125.46,282.03 118.89,283.1 112.99,284.22C106.56,285.44 101.51,287.5 93.82,293.23C76.46,306.18 39.79,358.63 21.91,373.86Q13.14,381.33 0,387.87Z" style="fill: rgb(0, 68, 148); fill-opacity: 0.05; stroke-width: 0;"/></g></g><g class="errorbars"/><g class="lines"><path class="js-line" d="M0,270.93Q13.19,262.27 21.91,253.27C39.87,234.73 76.39,174.39 93.82,158.02C101.47,150.84 106.42,147.1 112.99,145.35C118.78,143.81 125.52,143.04 130.79,146.49C139.01,151.87 145.7,179.3 150.65,185.03C152.48,187.15 153.71,186.57 155.45,188.47C158.98,192.33 162.15,202.77 167.77,209.4C174.5,217.34 186.87,228.09 194.48,231.74C199.06,233.94 202.87,234.85 206.81,234.22C210.87,233.57 214.95,227.78 218.45,227.6C221.19,227.46 226.1,230.14 225.98,230.91C225.83,231.89 213.05,232.69 212.97,232.26C212.85,231.66 231.94,220.99 237.62,225.28C250.3,234.87 250.55,338.4 237.62,353.19C231.92,359.71 212.99,355.43 212.97,356.51C212.95,357.3 225.46,359.86 225.98,358.82C226.44,357.9 221.37,352.19 218.45,351.85C215.11,351.46 210.87,357.82 206.81,358.47C202.87,359.1 199.13,357.98 194.48,355.99C186.99,352.78 174.56,344.03 167.77,337.3C162.29,331.87 159.05,321.79 155.45,320.03C153.74,319.19 152.43,321.22 150.65,320.24C145.51,317.4 138.78,290.35 130.79,285.36C125.46,282.03 118.89,283.1 112.99,284.22C106.56,285.44 101.51,287.5 93.82,293.23C76.46,306.18 39.79,358.63 21.91,373.86Q13.14,381.33 0,387.87" style="vector-effect: non-scaling-stroke; fill: none; stroke: rgb(255, 255, 255); stroke-opacity: 0; stroke-width: 2px; opacity: 1;"/></g><g class="points"/><g class="text"/></g><g class="trace scatter tracef27a36" style="stroke-miterlimit: 2; opacity: 1;"><g class="fills"><g><path class="js-fill" d="M0,344.61Q12.66,345.98 21.91,344.43C39.13,341.55 77.58,319.68 93.82,320.35C102.34,320.7 106.71,328.55 112.99,328.57C119.03,328.59 124.7,323.66 130.79,321.06C137.23,318.31 146.24,312.99 150.65,312.5C152.75,312.27 153.59,313.82 155.45,313.4C158.74,312.67 162.57,306.69 167.77,304.52C174.72,301.63 187.28,301.36 194.48,300.08C199.38,299.21 202.78,298.67 206.81,297.74C210.76,296.83 214.97,295.29 218.45,294.57C221.21,294 225.97,293.43 225.98,293.48C225.99,293.55 212.93,295.3 212.97,295.83C213.02,296.55 232.02,290.77 237.62,296.54C249.63,308.9 249.51,399.86 237.62,409.83C232.03,414.52 212.97,406.7 212.97,405.46C212.97,404.56 225.71,402.4 225.98,403.11C226.21,403.69 221.37,407.08 218.45,407.86C215.11,408.75 210.73,407.08 206.81,407.37C202.74,407.67 199.38,408.84 194.48,409.71C187.28,410.99 174.88,412.08 167.77,414.15C162.77,415.6 158.65,419.04 155.45,419.38C153.52,419.59 152.79,418.41 150.65,418.47C146.28,418.59 137.15,421.28 130.79,423.39C124.61,425.44 119.12,430.38 112.99,430.89C106.8,431.4 102.25,426.34 93.82,426.32C77.5,426.28 39.04,441.06 21.91,443.1Q12.58,444.21 0,443.28Z" style="fill: rgb(234, 35, 41); fill-opacity: 0.05; stroke-width: 0;"/></g></g><g class="errorbars"/><g class="lines"><path class="js-line" d="M0,344.61Q12.66,345.98 21.91,344.43C39.13,341.55 77.58,319.68 93.82,320.35C102.34,320.7 106.71,328.55 112.99,328.57C119.03,328.59 124.7,323.66 130.79,321.06C137.23,318.31 146.24,312.99 150.65,312.5C152.75,312.27 153.59,313.82 155.45,313.4C158.74,312.67 162.57,306.69 167.77,304.52C174.72,301.63 187.28,301.36 194.48,300.08C199.38,299.21 202.78,298.67 206.81,297.74C210.76,296.83 214.97,295.29 218.45,294.57C221.21,294 225.97,293.43 225.98,293.48C225.99,293.55 212.93,295.3 212.97,295.83C213.02,296.55 232.02,290.77 237.62,296.54C249.63,308.9 249.51,399.86 237.62,409.83C232.03,414.52 212.97,406.7 212.97,405.46C212.97,404.56 225.71,402.4 225.98,403.11C226.21,403.69 221.37,407.08 218.45,407.86C215.11,408.75 210.73,407.08 206.81,407.37C202.74,407.67 199.38,408.84 194.48,409.71C187.28,410.99 174.88,412.08 167.77,414.15C162.77,415.6 158.65,419.04 155.45,419.38C153.52,419.59 152.79,418.41 150.65,418.47C146.28,418.59 137.15,421.28 130.79,423.39C124.61,425.44 119.12,430.38 112.99,430.89C106.8,431.4 102.25,426.34 93.82,426.32C77.5,426.28 39.04,441.06 21.91,443.1Q12.58,444.21 0,443.28" style="vector-effect: non-scaling-stroke; fill: none; stroke: rgb(255, 255, 255); stroke-opacity: 0; stroke-width: 2px; opacity: 1;"/></g><g class="points"/><g class="text"/></g><g class="trace scatter trace8e115b" style="stroke-miterlimit: 2; opacity: 1;"><g class="fills"><g><path class="js-fill" d="M0,352.14Q12.2,359.92 21.91,363.49C38.7,369.67 77.43,378.7 93.82,380.13C102.18,380.86 106.72,378.95 112.99,379.1C119.04,379.24 125.21,383.07 130.79,380.89C138.01,378.07 146.19,362.92 150.65,358.48C152.71,356.43 153.55,356.15 155.45,354.27C158.68,351.07 162.17,343.27 167.77,340.55C174.51,337.28 187.29,338.58 194.48,338.82C199.38,338.98 202.75,340 206.81,340.45C210.74,340.89 215.03,340.79 218.45,341.49C221.27,342.06 226.01,343.81 225.98,343.92C225.94,344.06 212.95,340.9 212.97,340.79C213,340.64 232.16,338.98 237.62,345.62C248.44,358.77 248.44,435.38 237.62,444.29C232.16,448.78 213,439.31 212.97,439.46C212.95,439.57 225.94,442.73 225.98,442.59C226.01,442.48 221.27,440.73 218.45,440.16C215.03,439.46 210.74,439.56 206.81,439.12C202.75,438.67 199.38,437.65 194.48,437.49C187.29,437.25 174.65,436.51 167.77,439.22C162.46,441.31 158.59,446.62 155.45,449.28C153.46,450.97 152.84,451.71 150.65,453.5C146.33,457.04 137.62,466.68 130.79,468.6C125.01,470.23 119.04,466.94 112.99,466.8C106.72,466.65 102.23,468.15 93.82,467.83C77.48,467.21 38.65,463.74 21.91,458.5Q12.15,455.44 0,447.15Z" style="fill: rgb(0, 0, 0); fill-opacity: 0.05; stroke-width: 0;"/></g></g><g class="errorbars"/><g class="lines"><path class="js-line" d="M0,352.14Q12.2,359.92 21.91,363.49C38.7,369.67 77.43,378.7 93.82,380.13C102.18,380.86 106.72,378.95 112.99,379.1C119.04,379.24 125.21,383.07 130.79,380.89C138.01,378.07 146.19,362.92 150.65,358.48C152.71,356.43 153.55,356.15 155.45,354.27C158.68,351.07 162.17,343.27 167.77,340.55C174.51,337.28 187.29,338.58 194.48,338.82C199.38,338.98 202.75,340 206.81,340.45C210.74,340.89 215.03,340.79 218.45,341.49C221.27,342.06 226.01,343.81 225.98,343.92C225.94,344.06 212.95,340.9 212.97,340.79C213,340.64 232.16,338.98 237.62,345.62C248.44,358.77 248.44,435.38 237.62,444.29C232.16,448.78 213,439.31 212.97,439.46C212.95,439.57 225.94,442.73 225.98,442.59C226.01,442.48 221.27,440.73 218.45,440.16C215.03,439.46 210.74,439.56 206.81,439.12C202.75,438.67 199.38,437.65 194.48,437.49C187.29,437.25 174.65,436.51 167.77,439.22C162.46,441.31 158.59,446.62 155.45,449.28C153.46,450.97 152.84,451.71 150.65,453.5C146.33,457.04 137.62,466.68 130.79,468.6C125.01,470.23 119.04,466.94 112.99,466.8C106.72,466.65 102.23,468.15 93.82,467.83C77.48,467.21 38.65,463.74 21.91,458.5Q12.15,455.44 0,447.15" style="vector-effect: non-scaling-stroke; fill: none; stroke: rgb(255, 255, 255); stroke-opacity: 0; stroke-width: 2px; opacity: 1;"/></g><g class="points"/><g class="text"/></g><g class="trace scatter tracef751ea" style="stroke-miterlimit: 2; opacity: 1;"><g class="fills"><g><path class="js-fill" d="M0,371.71Q7.86,323.61 21.91,316.24C37.54,308.04 77.85,326.27 93.82,332.91C102.66,336.59 106.73,340.95 112.99,344.95C119.05,348.82 124.96,351.72 130.79,356.51C137.55,362.06 146.51,371.19 150.65,376.92C153.15,380.38 153.22,382.9 155.45,386.14C158.43,390.46 162.28,396.3 167.77,399.97C174.56,404.5 187.21,407.47 194.48,409.23C199.31,410.4 202.77,411.05 206.81,410.97C210.75,410.89 214.98,408.97 218.45,408.87C221.23,408.79 225.92,409.18 225.98,409.79C226.06,410.61 213.12,414.3 212.97,413.92C212.75,413.38 232.44,398.46 237.62,401.67C246.48,407.16 246.8,469.13 237.62,482.06C232.39,489.43 212.94,490.56 212.97,490.66C212.99,490.73 225.95,486.45 225.98,486.53C226,486.59 221.27,488.96 218.45,489.27C215.03,489.64 210.74,488.25 206.81,487.71C202.76,487.15 199.36,486.82 194.48,485.97C187.26,484.7 174.67,483.69 167.77,480.37C162.49,477.83 158.73,472.13 155.45,470.19C153.58,469.08 152.67,469.49 150.65,468.28C146.13,465.57 137.54,455.74 130.79,451.52C124.95,447.86 119.04,446.28 112.99,443.61C106.72,440.85 102.45,437.86 93.82,435.23C77.69,430.32 37.64,414.63 21.91,422.22Q9.38,428.27 0,463.07Z" style="fill: rgb(93, 140, 0); fill-opacity: 0.05; stroke-width: 0;"/></g></g><g class="errorbars"/><g class="lines"><path class="js-line" d="M0,371.71Q7.86,323.61 21.91,316.24C37.54,308.04 77.85,326.27 93.82,332.91C102.66,336.59 106.73,340.95 112.99,344.95C119.05,348.82 124.96,351.72 130.79,356.51C137.55,362.06 146.51,371.19 150.65,376.92C153.15,380.38 153.22,382.9 155.45,386.14C158.43,390.46 162.28,396.3 167.77,399.97C174.56,404.5 187.21,407.47 194.48,409.23C199.31,410.4 202.77,411.05 206.81,410.97C210.75,410.89 214.98,408.97 218.45,408.87C221.23,408.79 225.92,409.18 225.98,409.79C226.06,410.61 213.12,414.3 212.97,413.92C212.75,413.38 232.44,398.46 237.62,401.67C246.48,407.16 246.8,469.13 237.62,482.06C232.39,489.43 212.94,490.56 212.97,490.66C212.99,490.73 225.95,486.45 225.98,486.53C226,486.59 221.27,488.96 218.45,489.27C215.03,489.64 210.74,488.25 206.81,487.71C202.76,487.15 199.36,486.82 194.48,485.97C187.26,484.7 174.67,483.69 167.77,480.37C162.49,477.83 158.73,472.13 155.45,470.19C153.58,469.08 152.67,469.49 150.65,468.28C146.13,465.57 137.54,455.74 130.79,451.52C124.95,447.86 119.04,446.28 112.99,443.61C106.72,440.85 102.45,437.86 93.82,435.23C77.69,430.32 37.64,414.63 21.91,422.22Q9.38,428.27 0,463.07" style="vector-effect: non-scaling-stroke; fill: none; stroke: rgb(255, 255, 255); stroke-opacity: 0; stroke-width: 2px; opacity: 1;"/></g><g class="points"/><g class="text"/></g><g class="trace scatter traceebbe6b" style="stroke-miterlimit: 2; opacity: 1;"><g class="fills"><g><path class="js-fill" d="M0,403.44Q10.67,426.73 21.91,431.55C37.91,438.42 77.65,422.42 93.82,424.48C102.42,425.58 106.64,429.81 112.99,431.52C118.96,433.13 124.68,433.86 130.79,434.67C137.21,435.52 146.3,436.64 150.65,436.42C152.81,436.31 153.48,435.88 155.45,435.51C158.61,434.92 162.86,433.51 167.77,433.27C174.95,432.93 187.39,433.75 194.48,435.52C199.5,436.77 202.77,440.83 206.81,440.79C210.75,440.75 215.03,437.32 218.45,435.56C221.28,434.1 226.03,431.23 225.98,431.14C225.91,431.02 212.94,437.61 212.97,437.67C213.01,437.76 232.57,422.86 237.62,426.06C245.68,431.18 245.97,484.02 237.62,495.49C232.52,502.5 212.88,503.12 212.97,503.45C213.03,503.69 225.75,500 225.98,500.58C226.16,501.05 221.35,503.99 218.45,504.99C215.09,506.15 210.75,506.56 206.81,506.57C202.76,506.58 199.38,505.48 194.48,504.95C187.28,504.18 174.95,502.36 167.77,502.71C162.86,502.95 158.54,505.48 155.45,504.95C153.4,504.6 152.9,502.9 150.65,502.19C146.38,500.85 137.23,500.64 130.79,500.45C124.7,500.27 118.94,501.93 112.99,500.96C106.62,499.92 102.42,495.02 93.82,493.92C77.65,491.86 38.35,505.77 21.91,500.99Q11.71,498.02 0,483.84Z" style="fill: rgb(230, 172, 33); fill-opacity: 0.05; stroke-width: 0;"/></g></g><g class="errorbars"/><g class="lines"><path class="js-line" d="M0,403.44Q10.67,426.73 21.91,431.55C37.91,438.42 77.65,422.42 93.82,424.48C102.42,425.58 106.64,429.81 112.99,431.52C118.96,433.13 124.68,433.86 130.79,434.67C137.21,435.52 146.3,436.64 150.65,436.42C152.81,436.31 153.48,435.88 155.45,435.51C158.61,434.92 162.86,433.51 167.77,433.27C174.95,432.93 187.39,433.75 194.48,435.52C199.5,436.77 202.77,440.83 206.81,440.79C210.75,440.75 215.03,437.32 218.45,435.56C221.28,434.1 226.03,431.23 225.98,431.14C225.91,431.02 212.94,437.61 212.97,437.67C213.01,437.76 232.57,422.86 237.62,426.06C245.68,431.18 245.97,484.02 237.62,495.49C232.52,502.5 212.88,503.12 212.97,503.45C213.03,503.69 225.75,500 225.98,500.58C226.16,501.05 221.35,503.99 218.45,504.99C215.09,506.15 210.75,506.56 206.81,506.57C202.76,506.58 199.38,505.48 194.48,504.95C187.28,504.18 174.95,502.36 167.77,502.71C162.86,502.95 158.54,505.48 155.45,504.95C153.4,504.6 152.9,502.9 150.65,502.19C146.38,500.85 137.23,500.64 130.79,500.45C124.7,500.27 118.94,501.93 112.99,500.96C106.62,499.92 102.42,495.02 93.82,493.92C77.65,491.86 38.35,505.77 21.91,500.99Q11.71,498.02 0,483.84" style="vector-effect: non-scaling-stroke; fill: none; stroke: rgb(255, 255, 255); stroke-opacity: 0; stroke-width: 2px; opacity: 1;"/></g><g class="points"/><g class="text"/></g><g class="trace scatter traceb85b6c" style="stroke-miterlimit: 2; opacity: 1;"><g class="fills"><g><path class="js-fill" d="M0,386.37Q12.61,386.43 21.91,388.17C39.08,391.38 78.08,400.7 93.82,409.46C103.03,414.59 106.56,421.5 112.99,426.55C118.89,431.18 124.48,438.03 130.79,438.82C137.04,439.6 146.24,432.08 150.65,431.46C152.75,431.16 153.5,432.04 155.45,431.82C158.63,431.47 162.82,429.01 167.77,428.05C174.91,426.66 187.31,425.23 194.48,425.74C199.41,426.09 202.74,427.87 206.81,428.61C210.73,429.32 214.98,429.83 218.45,430.12C221.23,430.35 225.98,430.4 225.98,430.41C225.98,430.43 212.98,429.89 212.97,430.02C212.96,430.2 232.47,426.45 237.62,432.03C246.24,441.38 246.24,493.51 237.62,501.46C232.47,506.2 212.96,499.63 212.97,499.45C212.98,499.32 225.98,499.87 225.98,499.85C225.98,499.84 221.23,499.78 218.45,499.55C214.99,499.26 210.75,498.18 206.81,498.05C202.77,497.92 199.38,498.8 194.48,498.83C187.28,498.88 174.91,496.61 167.77,497.49C162.81,498.1 158.63,500.9 155.45,501.25C153.5,501.47 152.79,500.77 150.65,500.89C146.28,501.13 137.1,505.44 130.79,504.6C124.55,503.77 119.02,498.98 112.99,495.99C106.7,492.87 102.53,489.21 93.82,486.21C77.75,480.67 39.01,474.58 21.91,472.22Q12.54,470.93 0,470.42Z" style="fill: rgb(114, 55, 105); fill-opacity: 0.05; stroke-width: 0;"/></g></g><g class="errorbars"/><g class="lines"><path class="js-line" d="M0,386.37Q12.61,386.43 21.91,388.17C39.08,391.38 78.08,400.7 93.82,409.46C103.03,414.59 106.56,421.5 112.99,426.55C118.89,431.18 124.48,438.03 130.79,438.82C137.04,439.6 146.24,432.08 150.65,431.46C152.75,431.16 153.5,432.04 155.45,431.82C158.63,431.47 162.82,429.01 167.77,428.05C174.91,426.66 187.31,425.23 194.48,425.74C199.41,426.09 202.74,427.87 206.81,428.61C210.73,429.32 214.98,429.83 218.45,430.12C221.23,430.35 225.98,430.4 225.98,430.41C225.98,430.43 212.98,429.89 212.97,430.02C212.96,430.2 232.47,426.45 237.62,432.03C246.24,441.38 246.24,493.51 237.62,501.46C232.47,506.2 212.96,499.63 212.97,499.45C212.98,499.32 225.98,499.87 225.98,499.85C225.98,499.84 221.23,499.78 218.45,499.55C214.99,499.26 210.75,498.18 206.81,498.05C202.77,497.92 199.38,498.8 194.48,498.83C187.28,498.88 174.91,496.61 167.77,497.49C162.81,498.1 158.63,500.9 155.45,501.25C153.5,501.47 152.79,500.77 150.65,500.89C146.28,501.13 137.1,505.44 130.79,504.6C124.55,503.77 119.02,498.98 112.99,495.99C106.7,492.87 102.53,489.21 93.82,486.21C77.75,480.67 39.01,474.58 21.91,472.22Q12.54,470.93 0,470.42" style="vector-effect: non-scaling-stroke; fill: none; stroke: rgb(255, 255, 255); stroke-opacity: 0; stroke-width: 2px; opacity: 1;"/></g><g class="points"/><g class="text"/></g><g class="trace scatter trace36ed88" style="stroke-miterlimit: 2; opacity: 1;"><g class="fills"><g><path class="js-fill" d="M0,429.46Q12.52,432.62 21.91,435.24C38.99,440.01 77.38,454.02 93.82,456.47C102.13,457.71 106.86,457.97 112.99,456.63C119.19,455.28 125.07,452.44 130.79,448.3C137.73,443.27 145.95,428.82 150.65,427.18C152.57,426.51 153.51,428.07 155.45,427.87C158.64,427.55 162.8,423.97 167.77,423.46C174.9,422.73 187.35,425.48 194.48,427.23C199.45,428.45 202.81,429.92 206.81,431.62C210.8,433.31 215.06,435.37 218.45,437.41C221.31,439.14 225.97,442.84 225.98,442.83C225.99,442.81 212.84,433.45 212.97,433.27C213.14,433.02 232.74,439.95 237.62,448.78C244.74,461.68 245.34,505.33 237.62,510.9C232.63,514.5 212.84,503.23 212.97,502.71C213.06,502.34 225.96,505.07 225.98,504.96C226,504.87 221.24,503.77 218.45,503.19C215,502.47 210.76,501.53 206.81,501.05C202.77,500.56 199.36,500.81 194.48,500.32C187.26,499.6 174.98,496.82 167.77,496.54C162.89,496.35 158.52,496.34 155.45,497.31C153.38,497.97 152.83,499.04 150.65,500.27C146.32,502.71 137.36,507.91 130.79,510.42C124.82,512.7 119.09,514.34 112.99,515.1C106.77,515.88 102.22,515.57 93.82,514.94C77.47,513.71 38.89,508.12 21.91,504.68Q12.43,502.76 0,498.89Z" style="fill: rgb(240, 125, 0); fill-opacity: 0.05; stroke-width: 0;"/></g></g><g class="errorbars"/><g class="lines"><path class="js-line" d="M0,429.46Q12.52,432.62 21.91,435.24C38.99,440.01 77.38,454.02 93.82,456.47C102.13,457.71 106.86,457.97 112.99,456.63C119.19,455.28 125.07,452.44 130.79,448.3C137.73,443.27 145.95,428.82 150.65,427.18C152.57,426.51 153.51,428.07 155.45,427.87C158.64,427.55 162.8,423.97 167.77,423.46C174.9,422.73 187.35,425.48 194.48,427.23C199.45,428.45 202.81,429.92 206.81,431.62C210.8,433.31 215.06,435.37 218.45,437.41C221.31,439.14 225.97,442.84 225.98,442.83C225.99,442.81 212.84,433.45 212.97,433.27C213.14,433.02 232.74,439.95 237.62,448.78C244.74,461.68 245.34,505.33 237.62,510.9C232.63,514.5 212.84,503.23 212.97,502.71C213.06,502.34 225.96,505.07 225.98,504.96C226,504.87 221.24,503.77 218.45,503.19C215,502.47 210.76,501.53 206.81,501.05C202.77,500.56 199.36,500.81 194.48,500.32C187.26,499.6 174.98,496.82 167.77,496.54C162.89,496.35 158.52,496.34 155.45,497.31C153.38,497.97 152.83,499.04 150.65,500.27C146.32,502.71 137.36,507.91 130.79,510.42C124.82,512.7 119.09,514.34 112.99,515.1C106.77,515.88 102.22,515.57 93.82,514.94C77.47,513.71 38.89,508.12 21.91,504.68Q12.43,502.76 0,498.89" style="vector-effect: non-scaling-stroke; fill: none; stroke: rgb(255, 255, 255); stroke-opacity: 0; stroke-width: 2px; opacity: 1;"/></g><g class="points"/><g class="text"/></g><g class="trace scatter tracee26c19" style="stroke-miterlimit: 2; opacity: 1;"><g class="fills"><g><path class="js-fill" d="M0,438.7Q11.63,452.89 21.91,456.56C38.31,462.42 77.52,457.81 93.82,456.72C102.27,456.15 106.74,453.8 112.99,454.09C119.06,454.37 124.68,456.91 130.79,458.22C137.22,459.6 146.35,460.67 150.65,462.15C152.87,462.91 153.41,464.08 155.45,464.58C158.54,465.34 162.94,465.42 167.77,464.74C175.04,463.72 187.22,458.19 194.48,456.71C199.32,455.72 202.78,456.02 206.81,455.33C210.77,454.65 215.01,453.57 218.45,452.62C221.25,451.85 226.03,450.42 225.98,450.21C225.92,449.94 212.96,452.36 212.97,452.41C212.98,452.48 232.59,444.41 237.62,448.75C245.56,455.6 245.62,502.86 237.62,510.87C232.58,515.91 212.99,510.49 212.97,510.88C212.95,511.16 225.97,512.43 225.98,512.33C225.99,512.26 221.22,511 218.45,511.09C214.98,511.2 210.77,513.12 206.81,513.8C202.78,514.49 199.36,514.51 194.48,515.18C187.27,516.17 174.99,519.02 167.77,519.56C162.9,519.93 158.54,520.16 155.45,519.4C153.41,518.9 152.88,517.51 150.65,516.96C146.36,515.9 137.19,517.47 130.79,516.69C124.65,515.95 119.06,512.84 112.99,512.56C106.74,512.27 102.27,514.62 93.82,515.19C77.52,516.28 38.66,518.87 21.91,515.03Q12.17,512.79 0,504.48Z" style="fill: rgb(0, 51, 255); fill-opacity: 0.05; stroke-width: 0;"/></g></g><g class="errorbars"/><g class="lines"><path class="js-line" d="M0,438.7Q11.63,452.89 21.91,456.56C38.31,462.42 77.52,457.81 93.82,456.72C102.27,456.15 106.74,453.8 112.99,454.09C119.06,454.37 124.68,456.91 130.79,458.22C137.22,459.6 146.35,460.67 150.65,462.15C152.87,462.91 153.41,464.08 155.45,464.58C158.54,465.34 162.94,465.42 167.77,464.74C175.04,463.72 187.22,458.19 194.48,456.71C199.32,455.72 202.78,456.02 206.81,455.33C210.77,454.65 215.01,453.57 218.45,452.62C221.25,451.85 226.03,450.42 225.98,450.21C225.92,449.94 212.96,452.36 212.97,452.41C212.98,452.48 232.59,444.41 237.62,448.75C245.56,455.6 245.62,502.86 237.62,510.87C232.58,515.91 212.99,510.49 212.97,510.88C212.95,511.16 225.97,512.43 225.98,512.33C225.99,512.26 221.22,511 218.45,511.09C214.98,511.2 210.77,513.12 206.81,513.8C202.78,514.49 199.36,514.51 194.48,515.18C187.27,516.17 174.99,519.02 167.77,519.56C162.9,519.93 158.54,520.16 155.45,519.4C153.41,518.9 152.88,517.51 150.65,516.96C146.36,515.9 137.19,517.47 130.79,516.69C124.65,515.95 119.06,512.84 112.99,512.56C106.74,512.27 102.27,514.62 93.82,515.19C77.52,516.28 38.66,518.87 21.91,515.03Q12.17,512.79 0,504.48" style="vector-effect: non-scaling-stroke; fill: none; stroke: rgb(255, 255, 255); stroke-opacity: 0; stroke-width: 2px; opacity: 1;"/></g><g class="points"/><g class="text"/></g><g class="trace scatter trace39572a" style="stroke-miterlimit: 2; opacity: 1;"><g class="fills"><g><path class="js-fill" d="M0,448.93Q12.68,446.42 21.91,447.79C39.15,450.35 77.42,473.06 93.82,473.78C102.17,474.15 106.67,469.52 112.99,468.71C118.98,467.94 124.72,469.28 130.79,468.77C137.25,468.23 146.28,465.76 150.65,465.36C152.79,465.16 153.5,465.54 155.45,465.29C158.62,464.89 162.84,462.89 167.77,462.34C174.93,461.55 187.3,463.38 194.48,462.72C199.4,462.27 202.8,459.93 206.81,460.25C210.79,460.56 215.21,462.35 218.45,464.56C221.55,466.68 226.25,472.75 225.98,473.04C225.66,473.39 212.69,463.52 212.97,463.08C213.33,462.51 232.97,468.38 237.62,476.1C243.69,486.18 244.13,518.44 237.62,523.61C232.87,527.38 213.24,517.13 212.97,517.89C212.77,518.47 225.86,524.42 225.98,524.2C226.08,524.03 221.32,520.8 218.45,519.37C215.07,517.68 210.79,515.37 206.81,515.06C202.8,514.75 199.4,517.09 194.48,517.54C187.3,518.2 174.97,517.42 167.77,517.16C162.88,516.98 158.61,516.52 155.45,516.45C153.48,516.41 152.79,516.32 150.65,516.52C146.28,516.92 137.25,519.39 130.79,519.93C124.72,520.44 119.03,519.66 112.99,519.87C106.71,520.09 102.22,521.63 93.82,521.28C77.47,520.6 38.99,510.81 21.91,509.91Q12.53,509.42 0,511.05Z" style="fill: rgb(140, 0, 0); fill-opacity: 0.05; stroke-width: 0;"/></g></g><g class="errorbars"/><g class="lines"><path class="js-line" d="M0,448.93Q12.68,446.42 21.91,447.79C39.15,450.35 77.42,473.06 93.82,473.78C102.17,474.15 106.67,469.52 112.99,468.71C118.98,467.94 124.72,469.28 130.79,468.77C137.25,468.23 146.28,465.76 150.65,465.36C152.79,465.16 153.5,465.54 155.45,465.29C158.62,464.89 162.84,462.89 167.77,462.34C174.93,461.55 187.3,463.38 194.48,462.72C199.4,462.27 202.8,459.93 206.81,460.25C210.79,460.56 215.21,462.35 218.45,464.56C221.55,466.68 226.25,472.75 225.98,473.04C225.66,473.39 212.69,463.52 212.97,463.08C213.33,462.51 232.97,468.38 237.62,476.1C243.69,486.18 244.13,518.44 237.62,523.61C232.87,527.38 213.24,517.13 212.97,517.89C212.77,518.47 225.86,524.42 225.98,524.2C226.08,524.03 221.32,520.8 218.45,519.37C215.07,517.68 210.79,515.37 206.81,515.06C202.8,514.75 199.4,517.09 194.48,517.54C187.3,518.2 174.97,517.42 167.77,517.16C162.88,516.98 158.61,516.52 155.45,516.45C153.48,516.41 152.79,516.32 150.65,516.52C146.28,516.92 137.25,519.39 130.79,519.93C124.72,520.44 119.03,519.66 112.99,519.87C106.71,520.09 102.22,521.63 93.82,521.28C77.47,520.6 38.99,510.81 21.91,509.91Q12.53,509.42 0,511.05" style="vector-effect: non-scaling-stroke; fill: none; stroke: rgb(255, 255, 255); stroke-opacity: 0; stroke-width: 2px; opacity: 1;"/></g><g class="points"/><g class="text"/></g><g class="trace scatter traceac68f2" style="stroke-miterlimit: 2; opacity: 1;"><g class="fills"/><g class="errorbars"/><g class="lines"><path class="js-line" d="M0,145.79Q12.53,145.8 21.91,146.77C39,148.53 78.06,162.64 93.82,158.46C102.99,156.03 106.42,146.82 112.99,142.97C118.78,139.58 124.71,138.37 130.79,135.86C137.24,133.2 146.24,128.83 150.65,127.39C152.76,126.7 153.52,126.95 155.45,126.27C158.65,125.15 162.89,122.78 167.77,120.39C174.99,116.86 187.15,109.64 194.48,106.97C199.26,105.23 202.73,104.43 206.81,104.04C210.72,103.67 214.99,104.37 218.45,104.56C221.23,104.71 225.98,104.92 225.98,105.04C225.98,105.19 212.97,105.1 212.97,105.28Q212.97,105.53 237.62,106.59" style="vector-effect: non-scaling-stroke; fill: none; stroke: rgb(38, 16, 96); stroke-opacity: 1; stroke-width: 7px; opacity: 1;"/></g><g class="points"/><g class="text"/></g><g class="trace scatter trace3a32ab" style="stroke-miterlimit: 2; opacity: 1;"><g class="fills"/><g class="errorbars"/><g class="lines"/><g class="points"><path class="point" transform="translate(0,145.25)" d="M7.5,0A7.5,7.5 0 1,1 0,-7.5A7.5,7.5 0 0,1 7.5,0Z" style="opacity: 1; stroke-width: 0px; fill: rgb(38, 16, 96); fill-opacity: 0.25;"/><path class="point" transform="translate(21.91,146.67)" d="M7.5,0A7.5,7.5 0 1,1 0,-7.5A7.5,7.5 0 0,1 7.5,0Z" style="opacity: 1; stroke-width: 0px; fill: rgb(38, 16, 96); fill-opacity: 0.25;"/><path class="point" transform="translate(93.82,175.07)" d="M7.5,0A7.5,7.5 0 1,1 0,-7.5A7.5,7.5 0 0,1 7.5,0Z" style="opacity: 1; stroke-width: 0px; fill: rgb(38, 16, 96); fill-opacity: 0.25;"/><path class="point" transform="translate(112.99,139.57)" d="M7.5,0A7.5,7.5 0 1,1 0,-7.5A7.5,7.5 0 0,1 7.5,0Z" style="opacity: 1; stroke-width: 0px; fill: rgb(38, 16, 96); fill-opacity: 0.25;"/><path class="point" transform="translate(130.79,139.57)" d="M7.5,0A7.5,7.5 0 1,1 0,-7.5A7.5,7.5 0 0,1 7.5,0Z" style="opacity: 1; stroke-width: 0px; fill: rgb(38, 16, 96); fill-opacity: 0.25;"/><path class="point" transform="translate(150.65,125.37)" d="M7.5,0A7.5,7.5 0 1,1 0,-7.5A7.5,7.5 0 0,1 7.5,0Z" style="opacity: 1; stroke-width: 0px; fill: rgb(38, 16, 96); fill-opacity: 0.25;"/><path class="point" transform="translate(155.45,132.47)" d="M7.5,0A7.5,7.5 0 1,1 0,-7.5A7.5,7.5 0 0,1 7.5,0Z" style="opacity: 1; stroke-width: 0px; fill: rgb(38, 16, 96); fill-opacity: 0.25;"/><path class="point" transform="translate(167.77,118.28)" d="M7.5,0A7.5,7.5 0 1,1 0,-7.5A7.5,7.5 0 0,1 7.5,0Z" style="opacity: 1; stroke-width: 0px; fill: rgb(38, 16, 96); fill-opacity: 0.25;"/><path class="point" transform="translate(194.48,104.08)" d="M7.5,0A7.5,7.5 0 1,1 0,-7.5A7.5,7.5 0 0,1 7.5,0Z" style="opacity: 1; stroke-width: 0px; fill: rgb(38, 16, 96); fill-opacity: 0.25;"/><path class="point" transform="translate(206.81,88.46)" d="M7.5,0A7.5,7.5 0 1,1 0,-7.5A7.5,7.5 0 0,1 7.5,0Z" style="opacity: 1; stroke-width: 0px; fill: rgb(38, 16, 96); fill-opacity: 0.25;"/><path class="point" transform="translate(218.45,96.98)" d="M7.5,0A7.5,7.5 0 1,1 0,-7.5A7.5,7.5 0 0,1 7.5,0Z" style="opacity: 1; stroke-width: 0px; fill: rgb(38, 16, 96); fill-opacity: 0.25;"/><path class="point" transform="translate(225.98,104.08)" d="M7.5,0A7.5,7.5 0 1,1 0,-7.5A7.5,7.5 0 0,1 7.5,0Z" style="opacity: 1; stroke-width: 0px; fill: rgb(38, 16, 96); fill-opacity: 0.25;"/><path class="point" transform="translate(212.97,118.28)" d="M7.5,0A7.5,7.5 0 1,1 0,-7.5A7.5,7.5 0 0,1 7.5,0Z" style="opacity: 1; stroke-width: 0px; fill: rgb(38, 16, 96); fill-opacity: 0.25;"/><path class="point" transform="translate(237.62,111.18)" d="M7.5,0A7.5,7.5 0 1,1 0,-7.5A7.5,7.5 0 0,1 7.5,0Z" style="opacity: 1; stroke-width: 0px; fill: rgb(38, 16, 96); fill-opacity: 0.25;"/></g><g class="text"/></g><g class="trace scatter tracedb478e" style="stroke-miterlimit: 2; opacity: 1;"><g class="fills"/><g class="errorbars"/><g class="lines"><path class="js-line" d="M0,328.62Q13.19,321.43 21.91,313.39C39.87,296.82 76.29,239.71 93.82,225.92C101.42,219.94 106.55,218.34 112.99,216.65C118.88,215.1 125.51,212.54 130.79,215.52C138.99,220.15 145.4,250.37 150.65,253.72C152.4,254.84 153.76,252.96 155.45,253.93C159.13,256.05 162.24,267.04 167.77,273.21C174.54,280.76 186.87,291.62 194.48,294.72C199.06,296.58 202.82,296.42 206.81,295.89C210.81,295.36 215.03,291.33 218.45,291.55C221.28,291.73 226.15,294.97 225.98,295.54C225.76,296.25 212.99,294.86 212.97,294.2Q212.94,293.28 237.62,290.21" style="vector-effect: non-scaling-stroke; fill: none; stroke: rgb(0, 68, 148); stroke-opacity: 1; stroke-width: 7px; opacity: 1;"/></g><g class="points"/><g class="text"/></g><g class="trace scatter trace28e5b6" style="stroke-miterlimit: 2; opacity: 1;"><g class="fills"/><g class="errorbars"/><g class="lines"/><g class="points"><path class="point" transform="translate(0,336.92)" d="M7.5,0A7.5,7.5 0 1,1 0,-7.5A7.5,7.5 0 0,1 7.5,0Z" style="opacity: 1; stroke-width: 0px; fill: rgb(0, 68, 148); fill-opacity: 0.25;"/><path class="point" transform="translate(21.91,309.94)" d="M7.5,0A7.5,7.5 0 1,1 0,-7.5A7.5,7.5 0 0,1 7.5,0Z" style="opacity: 1; stroke-width: 0px; fill: rgb(0, 68, 148); fill-opacity: 0.25;"/><path class="point" transform="translate(93.82,231.85)" d="M7.5,0A7.5,7.5 0 1,1 0,-7.5A7.5,7.5 0 0,1 7.5,0Z" style="opacity: 1; stroke-width: 0px; fill: rgb(0, 68, 148); fill-opacity: 0.25;"/><path class="point" transform="translate(112.99,210.56)" d="M7.5,0A7.5,7.5 0 1,1 0,-7.5A7.5,7.5 0 0,1 7.5,0Z" style="opacity: 1; stroke-width: 0px; fill: rgb(0, 68, 148); fill-opacity: 0.25;"/><path class="point" transform="translate(130.79,160.87)" d="M7.5,0A7.5,7.5 0 1,1 0,-7.5A7.5,7.5 0 0,1 7.5,0Z" style="opacity: 1; stroke-width: 0px; fill: rgb(0, 68, 148); fill-opacity: 0.25;"/><path class="point" transform="translate(150.65,295.74)" d="M7.5,0A7.5,7.5 0 1,1 0,-7.5A7.5,7.5 0 0,1 7.5,0Z" style="opacity: 1; stroke-width: 0px; fill: rgb(0, 68, 148); fill-opacity: 0.25;"/><path class="point" transform="translate(155.45,210.56)" d="M7.5,0A7.5,7.5 0 1,1 0,-7.5A7.5,7.5 0 0,1 7.5,0Z" style="opacity: 1; stroke-width: 0px; fill: rgb(0, 68, 148); fill-opacity: 0.25;"/><path class="point" transform="translate(167.77,301.42)" d="M7.5,0A7.5,7.5 0 1,1 0,-7.5A7.5,7.5 0 0,1 7.5,0Z" style="opacity: 1; stroke-width: 0px; fill: rgb(0, 68, 148); fill-opacity: 0.25;"/><path class="point" transform="translate(194.48,309.94)" d="M7.5,0A7.5,7.5 0 1,1 0,-7.5A7.5,7.5 0 0,1 7.5,0Z" style="opacity: 1; stroke-width: 0px; fill: rgb(0, 68, 148); fill-opacity: 0.25;"/><path class="point" transform="translate(206.81,309.94)" d="M7.5,0A7.5,7.5 0 1,1 0,-7.5A7.5,7.5 0 0,1 7.5,0Z" style="opacity: 1; stroke-width: 0px; fill: rgb(0, 68, 148); fill-opacity: 0.25;"/><path class="point" transform="translate(218.45,253.15)" d="M7.5,0A7.5,7.5 0 1,1 0,-7.5A7.5,7.5 0 0,1 7.5,0Z" style="opacity: 1; stroke-width: 0px; fill: rgb(0, 68, 148); fill-opacity: 0.25;"/><path class="point" transform="translate(225.98,328.4)" d="M7.5,0A7.5,7.5 0 1,1 0,-7.5A7.5,7.5 0 0,1 7.5,0Z" style="opacity: 1; stroke-width: 0px; fill: rgb(0, 68, 148); fill-opacity: 0.25;"/><path class="point" transform="translate(212.97,302.84)" d="M7.5,0A7.5,7.5 0 1,1 0,-7.5A7.5,7.5 0 0,1 7.5,0Z" style="opacity: 1; stroke-width: 0px; fill: rgb(0, 68, 148); fill-opacity: 0.25;"/><path class="point" transform="translate(237.62,274.45)" d="M7.5,0A7.5,7.5 0 1,1 0,-7.5A7.5,7.5 0 0,1 7.5,0Z" style="opacity: 1; stroke-width: 0px; fill: rgb(0, 68, 148); fill-opacity: 0.25;"/></g><g class="text"/></g><g class="trace scatter trace1bf56a" style="stroke-miterlimit: 2; opacity: 1;"><g class="fills"/><g class="errorbars"/><g class="lines"><path class="js-line" d="M0,393.8Q12.61,395.2 21.91,393.98C39.07,391.74 77.54,373.77 93.82,374.21C102.29,374.44 106.75,380.79 112.99,380.61C119.07,380.43 124.65,375.66 130.79,373.5C137.18,371.25 146.27,368.53 150.65,367.45C152.78,366.93 153.53,367.16 155.45,366.54C158.66,365.51 162.78,362.56 167.77,360.81C174.88,358.32 187.24,355.54 194.48,354.28C199.34,353.43 202.75,353.27 206.81,352.97C210.74,352.68 215.03,353.12 218.45,352.48C221.27,351.95 226.05,350.25 225.98,349.92C225.89,349.5 212.98,350.68 212.97,351.23Q212.96,351.99 237.62,354.17" style="vector-effect: non-scaling-stroke; fill: none; stroke: rgb(234, 35, 41); stroke-opacity: 1; stroke-width: 7px; opacity: 1;"/></g><g class="points"/><g class="text"/></g><g class="trace scatter trace89b285" style="stroke-miterlimit: 2; opacity: 1;"><g class="fills"/><g class="errorbars"/><g class="lines"/><g class="points"><path class="point" transform="translate(0,393.71)" d="M7.5,0A7.5,7.5 0 1,1 0,-7.5A7.5,7.5 0 0,1 7.5,0Z" style="opacity: 1; stroke-width: 0px; fill: rgb(234, 35, 41); fill-opacity: 0.25;"/><path class="point" transform="translate(21.91,395.12)" d="M7.5,0A7.5,7.5 0 1,1 0,-7.5A7.5,7.5 0 0,1 7.5,0Z" style="opacity: 1; stroke-width: 0px; fill: rgb(234, 35, 41); fill-opacity: 0.25;"/><path class="point" transform="translate(93.82,366.73)" d="M7.5,0A7.5,7.5 0 1,1 0,-7.5A7.5,7.5 0 0,1 7.5,0Z" style="opacity: 1; stroke-width: 0px; fill: rgb(234, 35, 41); fill-opacity: 0.25;"/><path class="point" transform="translate(112.99,395.12)" d="M7.5,0A7.5,7.5 0 1,1 0,-7.5A7.5,7.5 0 0,1 7.5,0Z" style="opacity: 1; stroke-width: 0px; fill: rgb(234, 35, 41); fill-opacity: 0.25;"/><path class="point" transform="translate(130.79,373.83)" d="M7.5,0A7.5,7.5 0 1,1 0,-7.5A7.5,7.5 0 0,1 7.5,0Z" style="opacity: 1; stroke-width: 0px; fill: rgb(234, 35, 41); fill-opacity: 0.25;"/><path class="point" transform="translate(150.65,366.73)" d="M7.5,0A7.5,7.5 0 1,1 0,-7.5A7.5,7.5 0 0,1 7.5,0Z" style="opacity: 1; stroke-width: 0px; fill: rgb(234, 35, 41); fill-opacity: 0.25;"/><path class="point" transform="translate(155.45,373.83)" d="M7.5,0A7.5,7.5 0 1,1 0,-7.5A7.5,7.5 0 0,1 7.5,0Z" style="opacity: 1; stroke-width: 0px; fill: rgb(234, 35, 41); fill-opacity: 0.25;"/><path class="point" transform="translate(167.77,352.53)" d="M7.5,0A7.5,7.5 0 1,1 0,-7.5A7.5,7.5 0 0,1 7.5,0Z" style="opacity: 1; stroke-width: 0px; fill: rgb(234, 35, 41); fill-opacity: 0.25;"/><path class="point" transform="translate(194.48,352.53)" d="M7.5,0A7.5,7.5 0 1,1 0,-7.5A7.5,7.5 0 0,1 7.5,0Z" style="opacity: 1; stroke-width: 0px; fill: rgb(234, 35, 41); fill-opacity: 0.25;"/><path class="point" transform="translate(206.81,361.05)" d="M7.5,0A7.5,7.5 0 1,1 0,-7.5A7.5,7.5 0 0,1 7.5,0Z" style="opacity: 1; stroke-width: 0px; fill: rgb(234, 35, 41); fill-opacity: 0.25;"/><path class="point" transform="translate(218.45,373.83)" d="M7.5,0A7.5,7.5 0 1,1 0,-7.5A7.5,7.5 0 0,1 7.5,0Z" style="opacity: 1; stroke-width: 0px; fill: rgb(234, 35, 41); fill-opacity: 0.25;"/><path class="point" transform="translate(225.98,326.98)" d="M7.5,0A7.5,7.5 0 1,1 0,-7.5A7.5,7.5 0 0,1 7.5,0Z" style="opacity: 1; stroke-width: 0px; fill: rgb(234, 35, 41); fill-opacity: 0.25;"/><path class="point" transform="translate(212.97,331.24)" d="M7.5,0A7.5,7.5 0 1,1 0,-7.5A7.5,7.5 0 0,1 7.5,0Z" style="opacity: 1; stroke-width: 0px; fill: rgb(234, 35, 41); fill-opacity: 0.25;"/><path class="point" transform="translate(237.62,366.73)" d="M7.5,0A7.5,7.5 0 1,1 0,-7.5A7.5,7.5 0 0,1 7.5,0Z" style="opacity: 1; stroke-width: 0px; fill: rgb(234, 35, 41); fill-opacity: 0.25;"/></g><g class="text"/></g><g class="trace scatter trace3840c3" style="stroke-miterlimit: 2; opacity: 1;"><g class="fills"/><g class="errorbars"/><g class="lines"><path class="js-line" d="M0,400.89Q12.21,408.35 21.91,411.47C38.7,416.88 77.46,422.19 93.82,424.06C102.21,425.02 106.72,424.6 112.99,425.1C119.04,425.58 125.19,429.06 130.79,426.95C137.95,424.25 146.11,409.32 150.65,405.51C152.66,403.83 153.57,403.91 155.45,402.42C158.71,399.84 162.33,392.98 167.77,390.55C174.58,387.51 187.29,388.3 194.48,388.63C199.39,388.85 202.77,389.87 206.81,390.65C210.76,391.42 214.98,392.59 218.45,393.26C221.22,393.8 225.93,394.7 225.98,394.49C226.05,394.21 212.92,390.48 212.97,390.31Q213.04,390.08 237.62,396.45" style="vector-effect: non-scaling-stroke; fill: none; stroke: rgb(0, 0, 0); stroke-opacity: 1; stroke-width: 7px; opacity: 1;"/></g><g class="points"/><g class="text"/></g><g class="trace scatter traceb59460" style="stroke-miterlimit: 2; opacity: 1;"><g class="fills"/><g class="errorbars"/><g class="lines"/><g class="points"><path class="point" transform="translate(0,395.12)" d="M7.5,0A7.5,7.5 0 1,1 0,-7.5A7.5,7.5 0 0,1 7.5,0Z" style="opacity: 1; stroke-width: 0px; fill: rgb(0, 0, 0); fill-opacity: 0.25;"/><path class="point" transform="translate(21.91,416.42)" d="M7.5,0A7.5,7.5 0 1,1 0,-7.5A7.5,7.5 0 0,1 7.5,0Z" style="opacity: 1; stroke-width: 0px; fill: rgb(0, 0, 0); fill-opacity: 0.25;"/><path class="point" transform="translate(93.82,423.52)" d="M7.5,0A7.5,7.5 0 1,1 0,-7.5A7.5,7.5 0 0,1 7.5,0Z" style="opacity: 1; stroke-width: 0px; fill: rgb(0, 0, 0); fill-opacity: 0.25;"/><path class="point" transform="translate(112.99,423.52)" d="M7.5,0A7.5,7.5 0 1,1 0,-7.5A7.5,7.5 0 0,1 7.5,0Z" style="opacity: 1; stroke-width: 0px; fill: rgb(0, 0, 0); fill-opacity: 0.25;"/><path class="point" transform="translate(130.79,459.01)" d="M7.5,0A7.5,7.5 0 1,1 0,-7.5A7.5,7.5 0 0,1 7.5,0Z" style="opacity: 1; stroke-width: 0px; fill: rgb(0, 0, 0); fill-opacity: 0.25;"/><path class="point" transform="translate(150.65,402.22)" d="M7.5,0A7.5,7.5 0 1,1 0,-7.5A7.5,7.5 0 0,1 7.5,0Z" style="opacity: 1; stroke-width: 0px; fill: rgb(0, 0, 0); fill-opacity: 0.25;"/><path class="point" transform="translate(155.45,409.32)" d="M7.5,0A7.5,7.5 0 1,1 0,-7.5A7.5,7.5 0 0,1 7.5,0Z" style="opacity: 1; stroke-width: 0px; fill: rgb(0, 0, 0); fill-opacity: 0.25;"/><path class="point" transform="translate(167.77,362.47)" d="M7.5,0A7.5,7.5 0 1,1 0,-7.5A7.5,7.5 0 0,1 7.5,0Z" style="opacity: 1; stroke-width: 0px; fill: rgb(0, 0, 0); fill-opacity: 0.25;"/><path class="point" transform="translate(194.48,380.93)" d="M7.5,0A7.5,7.5 0 1,1 0,-7.5A7.5,7.5 0 0,1 7.5,0Z" style="opacity: 1; stroke-width: 0px; fill: rgb(0, 0, 0); fill-opacity: 0.25;"/><path class="point" transform="translate(206.81,397.96)" d="M7.5,0A7.5,7.5 0 1,1 0,-7.5A7.5,7.5 0 0,1 7.5,0Z" style="opacity: 1; stroke-width: 0px; fill: rgb(0, 0, 0); fill-opacity: 0.25;"/><path class="point" transform="translate(218.45,409.32)" d="M7.5,0A7.5,7.5 0 1,1 0,-7.5A7.5,7.5 0 0,1 7.5,0Z" style="opacity: 1; stroke-width: 0px; fill: rgb(0, 0, 0); fill-opacity: 0.25;"/><path class="point" transform="translate(225.98,396.54)" d="M7.5,0A7.5,7.5 0 1,1 0,-7.5A7.5,7.5 0 0,1 7.5,0Z" style="opacity: 1; stroke-width: 0px; fill: rgb(0, 0, 0); fill-opacity: 0.25;"/><path class="point" transform="translate(212.97,366.73)" d="M7.5,0A7.5,7.5 0 1,1 0,-7.5A7.5,7.5 0 0,1 7.5,0Z" style="opacity: 1; stroke-width: 0px; fill: rgb(0, 0, 0); fill-opacity: 0.25;"/><path class="point" transform="translate(237.62,402.22)" d="M7.5,0A7.5,7.5 0 1,1 0,-7.5A7.5,7.5 0 0,1 7.5,0Z" style="opacity: 1; stroke-width: 0px; fill: rgb(0, 0, 0); fill-opacity: 0.25;"/></g><g class="text"/></g><g class="trace scatter trace02e021" style="stroke-miterlimit: 2; opacity: 1;"><g class="fills"/><g class="errorbars"/><g class="lines"><path class="js-line" d="M0,417.86Q8.72,377.88 21.91,371.01C37.58,362.85 77.76,378.18 93.82,383.58C102.55,386.52 106.76,390.05 112.99,393.47C119.08,396.81 124.98,399.36 130.79,403.83C137.57,409.04 146.33,419.05 150.65,423.62C152.84,425.94 153.43,426.92 155.45,429.01C158.56,432.23 162.43,437.54 167.77,440.77C174.64,444.92 187.21,448.01 194.48,449.78C199.31,450.96 202.76,451.65 206.81,451.69C210.74,451.73 214.99,450.57 218.45,450.13C221.23,449.78 225.95,449.05 225.98,449.22C226.02,449.44 213.08,452.73 212.97,452.39Q212.82,451.92 237.62,442.72" style="vector-effect: non-scaling-stroke; fill: none; stroke: rgb(93, 140, 0); stroke-opacity: 1; stroke-width: 7px; opacity: 1;"/></g><g class="points"/><g class="text"/></g><g class="trace scatter trace145340" style="stroke-miterlimit: 2; opacity: 1;"><g class="fills"/><g class="errorbars"/><g class="lines"/><g class="points"><path class="point" transform="translate(0,443.4)" d="M7.5,0A7.5,7.5 0 1,1 0,-7.5A7.5,7.5 0 0,1 7.5,0Z" style="opacity: 1; stroke-width: 0px; fill: rgb(93, 140, 0); fill-opacity: 0.25;"/><path class="point" transform="translate(21.91,345.43)" d="M7.5,0A7.5,7.5 0 1,1 0,-7.5A7.5,7.5 0 0,1 7.5,0Z" style="opacity: 1; stroke-width: 0px; fill: rgb(93, 140, 0); fill-opacity: 0.25;"/><path class="point" transform="translate(93.82,373.83)" d="M7.5,0A7.5,7.5 0 1,1 0,-7.5A7.5,7.5 0 0,1 7.5,0Z" style="opacity: 1; stroke-width: 0px; fill: rgb(93, 140, 0); fill-opacity: 0.25;"/><path class="point" transform="translate(112.99,388.03)" d="M7.5,0A7.5,7.5 0 1,1 0,-7.5A7.5,7.5 0 0,1 7.5,0Z" style="opacity: 1; stroke-width: 0px; fill: rgb(93, 140, 0); fill-opacity: 0.25;"/><path class="point" transform="translate(130.79,388.03)" d="M7.5,0A7.5,7.5 0 1,1 0,-7.5A7.5,7.5 0 0,1 7.5,0Z" style="opacity: 1; stroke-width: 0px; fill: rgb(93, 140, 0); fill-opacity: 0.25;"/><path class="point" transform="translate(150.65,409.32)" d="M7.5,0A7.5,7.5 0 1,1 0,-7.5A7.5,7.5 0 0,1 7.5,0Z" style="opacity: 1; stroke-width: 0px; fill: rgb(93, 140, 0); fill-opacity: 0.25;"/><path class="point" transform="translate(155.45,437.72)" d="M7.5,0A7.5,7.5 0 1,1 0,-7.5A7.5,7.5 0 0,1 7.5,0Z" style="opacity: 1; stroke-width: 0px; fill: rgb(93, 140, 0); fill-opacity: 0.25;"/><path class="point" transform="translate(167.77,461.85)" d="M7.5,0A7.5,7.5 0 1,1 0,-7.5A7.5,7.5 0 0,1 7.5,0Z" style="opacity: 1; stroke-width: 0px; fill: rgb(93, 140, 0); fill-opacity: 0.25;"/><path class="point" transform="translate(194.48,451.91)" d="M7.5,0A7.5,7.5 0 1,1 0,-7.5A7.5,7.5 0 0,1 7.5,0Z" style="opacity: 1; stroke-width: 0px; fill: rgb(93, 140, 0); fill-opacity: 0.25;"/><path class="point" transform="translate(206.81,451.91)" d="M7.5,0A7.5,7.5 0 1,1 0,-7.5A7.5,7.5 0 0,1 7.5,0Z" style="opacity: 1; stroke-width: 0px; fill: rgb(93, 140, 0); fill-opacity: 0.25;"/><path class="point" transform="translate(218.45,437.72)" d="M7.5,0A7.5,7.5 0 1,1 0,-7.5A7.5,7.5 0 0,1 7.5,0Z" style="opacity: 1; stroke-width: 0px; fill: rgb(93, 140, 0); fill-opacity: 0.25;"/><path class="point" transform="translate(225.98,459.01)" d="M7.5,0A7.5,7.5 0 1,1 0,-7.5A7.5,7.5 0 0,1 7.5,0Z" style="opacity: 1; stroke-width: 0px; fill: rgb(93, 140, 0); fill-opacity: 0.25;"/><path class="point" transform="translate(212.97,473.21)" d="M7.5,0A7.5,7.5 0 1,1 0,-7.5A7.5,7.5 0 0,1 7.5,0Z" style="opacity: 1; stroke-width: 0px; fill: rgb(93, 140, 0); fill-opacity: 0.25;"/><path class="point" transform="translate(237.62,423.52)" d="M7.5,0A7.5,7.5 0 1,1 0,-7.5A7.5,7.5 0 0,1 7.5,0Z" style="opacity: 1; stroke-width: 0px; fill: rgb(93, 140, 0); fill-opacity: 0.25;"/></g><g class="text"/></g><g class="trace scatter trace5d96a4" style="stroke-miterlimit: 2; opacity: 1;"><g class="fills"/><g class="errorbars"/><g class="lines"><path class="js-line" d="M0,444.6Q11.18,463.7 21.91,467.65C38.09,473.61 77.67,457.9 93.82,460.11C102.44,461.29 106.6,466.37 112.99,467.68C118.93,468.9 124.7,467.81 130.79,468.19C137.24,468.59 146.3,469.48 150.65,470.1C152.8,470.4 153.47,470.93 155.45,471C158.6,471.11 162.87,469.74 167.77,469.59C174.96,469.37 187.29,470.22 194.48,471C199.39,471.53 202.76,473.07 206.81,473.04C210.75,473.01 215.03,471.91 218.45,470.96C221.27,470.17 226,468.12 225.98,468.06C225.95,467.99 213.03,472.67 212.97,472.5Q212.88,472.27 237.62,462.19" style="vector-effect: non-scaling-stroke; fill: none; stroke: rgb(230, 172, 33); stroke-opacity: 1; stroke-width: 7px; opacity: 1;"/></g><g class="points"/><g class="text"/></g><g class="trace scatter trace9dd0e9" style="stroke-miterlimit: 2; opacity: 1;"><g class="fills"/><g class="errorbars"/><g class="lines"/><g class="points"><path class="point" transform="translate(0,432.04)" d="M7.5,0A7.5,7.5 0 1,1 0,-7.5A7.5,7.5 0 0,1 7.5,0Z" style="opacity: 1; stroke-width: 0px; fill: rgb(230, 172, 33); fill-opacity: 0.25;"/><path class="point" transform="translate(21.91,480.31)" d="M7.5,0A7.5,7.5 0 1,1 0,-7.5A7.5,7.5 0 0,1 7.5,0Z" style="opacity: 1; stroke-width: 0px; fill: rgb(230, 172, 33); fill-opacity: 0.25;"/><path class="point" transform="translate(93.82,451.91)" d="M7.5,0A7.5,7.5 0 1,1 0,-7.5A7.5,7.5 0 0,1 7.5,0Z" style="opacity: 1; stroke-width: 0px; fill: rgb(230, 172, 33); fill-opacity: 0.25;"/><path class="point" transform="translate(112.99,473.21)" d="M7.5,0A7.5,7.5 0 1,1 0,-7.5A7.5,7.5 0 0,1 7.5,0Z" style="opacity: 1; stroke-width: 0px; fill: rgb(230, 172, 33); fill-opacity: 0.25;"/><path class="point" transform="translate(130.79,466.11)" d="M7.5,0A7.5,7.5 0 1,1 0,-7.5A7.5,7.5 0 0,1 7.5,0Z" style="opacity: 1; stroke-width: 0px; fill: rgb(230, 172, 33); fill-opacity: 0.25;"/><path class="point" transform="translate(150.65,466.11)" d="M7.5,0A7.5,7.5 0 1,1 0,-7.5A7.5,7.5 0 0,1 7.5,0Z" style="opacity: 1; stroke-width: 0px; fill: rgb(230, 172, 33); fill-opacity: 0.25;"/><path class="point" transform="translate(155.45,480.31)" d="M7.5,0A7.5,7.5 0 1,1 0,-7.5A7.5,7.5 0 0,1 7.5,0Z" style="opacity: 1; stroke-width: 0px; fill: rgb(230, 172, 33); fill-opacity: 0.25;"/><path class="point" transform="translate(167.77,464.69)" d="M7.5,0A7.5,7.5 0 1,1 0,-7.5A7.5,7.5 0 0,1 7.5,0Z" style="opacity: 1; stroke-width: 0px; fill: rgb(230, 172, 33); fill-opacity: 0.25;"/><path class="point" transform="translate(194.48,466.11)" d="M7.5,0A7.5,7.5 0 1,1 0,-7.5A7.5,7.5 0 0,1 7.5,0Z" style="opacity: 1; stroke-width: 0px; fill: rgb(230, 172, 33); fill-opacity: 0.25;"/><path class="point" transform="translate(206.81,481.73)" d="M7.5,0A7.5,7.5 0 1,1 0,-7.5A7.5,7.5 0 0,1 7.5,0Z" style="opacity: 1; stroke-width: 0px; fill: rgb(230, 172, 33); fill-opacity: 0.25;"/><path class="point" transform="translate(218.45,473.21)" d="M7.5,0A7.5,7.5 0 1,1 0,-7.5A7.5,7.5 0 0,1 7.5,0Z" style="opacity: 1; stroke-width: 0px; fill: rgb(230, 172, 33); fill-opacity: 0.25;"/><path class="point" transform="translate(225.98,466.11)" d="M7.5,0A7.5,7.5 0 1,1 0,-7.5A7.5,7.5 0 0,1 7.5,0Z" style="opacity: 1; stroke-width: 0px; fill: rgb(230, 172, 33); fill-opacity: 0.25;"/><path class="point" transform="translate(212.97,480.31)" d="M7.5,0A7.5,7.5 0 1,1 0,-7.5A7.5,7.5 0 0,1 7.5,0Z" style="opacity: 1; stroke-width: 0px; fill: rgb(230, 172, 33); fill-opacity: 0.25;"/><path class="point" transform="translate(237.62,444.82)" d="M7.5,0A7.5,7.5 0 1,1 0,-7.5A7.5,7.5 0 0,1 7.5,0Z" style="opacity: 1; stroke-width: 0px; fill: rgb(230, 172, 33); fill-opacity: 0.25;"/></g><g class="text"/></g><g class="trace scatter trace42e7cc" style="stroke-miterlimit: 2; opacity: 1;"><g class="fills"/><g class="errorbars"/><g class="lines"><path class="js-line" d="M0,428.79Q12.59,429.03 21.91,430.64C39.05,433.59 77.84,442.58 93.82,449.54C102.65,453.39 106.66,457.97 112.99,461.69C118.97,465.2 124.51,470.34 130.79,471.35C137.06,472.36 146.28,468.31 150.65,467.75C152.79,467.48 153.5,467.74 155.45,467.39C158.63,466.82 162.82,464.67 167.77,463.84C174.92,462.65 187.28,462.45 194.48,462.5C199.38,462.53 202.77,462.78 206.81,463.28C210.76,463.77 214.98,465.19 218.45,465.44C221.22,465.64 225.98,465.15 225.98,465.14C225.98,465.12 212.97,465.29 212.97,465.53Q212.96,465.87 237.62,467.18" style="vector-effect: non-scaling-stroke; fill: none; stroke: rgb(114, 55, 105); stroke-opacity: 1; stroke-width: 7px; opacity: 1;"/></g><g class="points"/><g class="text"/></g><g class="trace scatter trace17bf13" style="stroke-miterlimit: 2; opacity: 1;"><g class="fills"/><g class="errorbars"/><g class="lines"/><g class="points"><path class="point" transform="translate(0,427.78)" d="M7.5,0A7.5,7.5 0 1,1 0,-7.5A7.5,7.5 0 0,1 7.5,0Z" style="opacity: 1; stroke-width: 0px; fill: rgb(114, 55, 105); fill-opacity: 0.25;"/><path class="point" transform="translate(21.91,430.62)" d="M7.5,0A7.5,7.5 0 1,1 0,-7.5A7.5,7.5 0 0,1 7.5,0Z" style="opacity: 1; stroke-width: 0px; fill: rgb(114, 55, 105); fill-opacity: 0.25;"/><path class="point" transform="translate(93.82,437.72)" d="M7.5,0A7.5,7.5 0 1,1 0,-7.5A7.5,7.5 0 0,1 7.5,0Z" style="opacity: 1; stroke-width: 0px; fill: rgb(114, 55, 105); fill-opacity: 0.25;"/><path class="point" transform="translate(112.99,459.01)" d="M7.5,0A7.5,7.5 0 1,1 0,-7.5A7.5,7.5 0 0,1 7.5,0Z" style="opacity: 1; stroke-width: 0px; fill: rgb(114, 55, 105); fill-opacity: 0.25;"/><path class="point" transform="translate(130.79,487.41)" d="M7.5,0A7.5,7.5 0 1,1 0,-7.5A7.5,7.5 0 0,1 7.5,0Z" style="opacity: 1; stroke-width: 0px; fill: rgb(114, 55, 105); fill-opacity: 0.25;"/><path class="point" transform="translate(150.65,466.11)" d="M7.5,0A7.5,7.5 0 1,1 0,-7.5A7.5,7.5 0 0,1 7.5,0Z" style="opacity: 1; stroke-width: 0px; fill: rgb(114, 55, 105); fill-opacity: 0.25;"/><path class="point" transform="translate(155.45,473.21)" d="M7.5,0A7.5,7.5 0 1,1 0,-7.5A7.5,7.5 0 0,1 7.5,0Z" style="opacity: 1; stroke-width: 0px; fill: rgb(114, 55, 105); fill-opacity: 0.25;"/><path class="point" transform="translate(167.77,456.17)" d="M7.5,0A7.5,7.5 0 1,1 0,-7.5A7.5,7.5 0 0,1 7.5,0Z" style="opacity: 1; stroke-width: 0px; fill: rgb(114, 55, 105); fill-opacity: 0.25;"/><path class="point" transform="translate(194.48,459.01)" d="M7.5,0A7.5,7.5 0 1,1 0,-7.5A7.5,7.5 0 0,1 7.5,0Z" style="opacity: 1; stroke-width: 0px; fill: rgb(114, 55, 105); fill-opacity: 0.25;"/><path class="point" transform="translate(206.81,450.49)" d="M7.5,0A7.5,7.5 0 1,1 0,-7.5A7.5,7.5 0 0,1 7.5,0Z" style="opacity: 1; stroke-width: 0px; fill: rgb(114, 55, 105); fill-opacity: 0.25;"/><path class="point" transform="translate(218.45,466.11)" d="M7.5,0A7.5,7.5 0 1,1 0,-7.5A7.5,7.5 0 0,1 7.5,0Z" style="opacity: 1; stroke-width: 0px; fill: rgb(114, 55, 105); fill-opacity: 0.25;"/><path class="point" transform="translate(225.98,459.01)" d="M7.5,0A7.5,7.5 0 1,1 0,-7.5A7.5,7.5 0 0,1 7.5,0Z" style="opacity: 1; stroke-width: 0px; fill: rgb(114, 55, 105); fill-opacity: 0.25;"/><path class="point" transform="translate(212.97,480.31)" d="M7.5,0A7.5,7.5 0 1,1 0,-7.5A7.5,7.5 0 0,1 7.5,0Z" style="opacity: 1; stroke-width: 0px; fill: rgb(114, 55, 105); fill-opacity: 0.25;"/><path class="point" transform="translate(237.62,473.21)" d="M7.5,0A7.5,7.5 0 1,1 0,-7.5A7.5,7.5 0 0,1 7.5,0Z" style="opacity: 1; stroke-width: 0px; fill: rgb(114, 55, 105); fill-opacity: 0.25;"/></g><g class="text"/></g><g class="trace scatter trace896298" style="stroke-miterlimit: 2; opacity: 1;"><g class="fills"/><g class="errorbars"/><g class="lines"><path class="js-line" d="M0,466.09Q12.48,469.15 21.91,471.27C38.95,475.1 77.43,484.93 93.82,486.59C102.19,487.44 106.81,487.52 112.99,486.43C119.13,485.35 124.95,483.33 130.79,480.14C137.53,476.46 146.1,466.66 150.65,464.72C152.65,463.87 153.49,464.39 155.45,464.02C158.62,463.42 162.85,461.37 167.77,461.13C174.95,460.78 187.3,463.35 194.48,464.67C199.4,465.58 202.82,466.24 206.81,467.59C210.81,468.94 214.94,471.55 218.45,472.76C221.19,473.7 225.92,474.82 225.98,474.64C226.06,474.4 212.99,469.55 212.97,469.59Q212.95,469.65 237.62,479.66" style="vector-effect: non-scaling-stroke; fill: none; stroke: rgb(240, 125, 0); stroke-opacity: 1; stroke-width: 7px; opacity: 1;"/></g><g class="points"/><g class="text"/></g><g class="trace scatter traced4d27a" style="stroke-miterlimit: 2; opacity: 1;"><g class="fills"/><g class="errorbars"/><g class="lines"/><g class="points"><path class="point" transform="translate(0,463.27)" d="M7.5,0A7.5,7.5 0 1,1 0,-7.5A7.5,7.5 0 0,1 7.5,0Z" style="opacity: 1; stroke-width: 0px; fill: rgb(240, 125, 0); fill-opacity: 0.25;"/><path class="point" transform="translate(21.91,473.21)" d="M7.5,0A7.5,7.5 0 1,1 0,-7.5A7.5,7.5 0 0,1 7.5,0Z" style="opacity: 1; stroke-width: 0px; fill: rgb(240, 125, 0); fill-opacity: 0.25;"/><path class="point" transform="translate(93.82,487.41)" d="M7.5,0A7.5,7.5 0 1,1 0,-7.5A7.5,7.5 0 0,1 7.5,0Z" style="opacity: 1; stroke-width: 0px; fill: rgb(240, 125, 0); fill-opacity: 0.25;"/><path class="point" transform="translate(112.99,494.51)" d="M7.5,0A7.5,7.5 0 1,1 0,-7.5A7.5,7.5 0 0,1 7.5,0Z" style="opacity: 1; stroke-width: 0px; fill: rgb(240, 125, 0); fill-opacity: 0.25;"/><path class="point" transform="translate(130.79,494.51)" d="M7.5,0A7.5,7.5 0 1,1 0,-7.5A7.5,7.5 0 0,1 7.5,0Z" style="opacity: 1; stroke-width: 0px; fill: rgb(240, 125, 0); fill-opacity: 0.25;"/><path class="point" transform="translate(150.65,451.91)" d="M7.5,0A7.5,7.5 0 1,1 0,-7.5A7.5,7.5 0 0,1 7.5,0Z" style="opacity: 1; stroke-width: 0px; fill: rgb(240, 125, 0); fill-opacity: 0.25;"/><path class="point" transform="translate(155.45,466.11)" d="M7.5,0A7.5,7.5 0 1,1 0,-7.5A7.5,7.5 0 0,1 7.5,0Z" style="opacity: 1; stroke-width: 0px; fill: rgb(240, 125, 0); fill-opacity: 0.25;"/><path class="point" transform="translate(167.77,450.49)" d="M7.5,0A7.5,7.5 0 1,1 0,-7.5A7.5,7.5 0 0,1 7.5,0Z" style="opacity: 1; stroke-width: 0px; fill: rgb(240, 125, 0); fill-opacity: 0.25;"/><path class="point" transform="translate(194.48,459.01)" d="M7.5,0A7.5,7.5 0 1,1 0,-7.5A7.5,7.5 0 0,1 7.5,0Z" style="opacity: 1; stroke-width: 0px; fill: rgb(240, 125, 0); fill-opacity: 0.25;"/><path class="point" transform="translate(206.81,461.85)" d="M7.5,0A7.5,7.5 0 1,1 0,-7.5A7.5,7.5 0 0,1 7.5,0Z" style="opacity: 1; stroke-width: 0px; fill: rgb(240, 125, 0); fill-opacity: 0.25;"/><path class="point" transform="translate(218.45,487.41)" d="M7.5,0A7.5,7.5 0 1,1 0,-7.5A7.5,7.5 0 0,1 7.5,0Z" style="opacity: 1; stroke-width: 0px; fill: rgb(240, 125, 0); fill-opacity: 0.25;"/><path class="point" transform="translate(225.98,473.21)" d="M7.5,0A7.5,7.5 0 1,1 0,-7.5A7.5,7.5 0 0,1 7.5,0Z" style="opacity: 1; stroke-width: 0px; fill: rgb(240, 125, 0); fill-opacity: 0.25;"/><path class="point" transform="translate(212.97,459.01)" d="M7.5,0A7.5,7.5 0 1,1 0,-7.5A7.5,7.5 0 0,1 7.5,0Z" style="opacity: 1; stroke-width: 0px; fill: rgb(240, 125, 0); fill-opacity: 0.25;"/><path class="point" transform="translate(237.62,494.51)" d="M7.5,0A7.5,7.5 0 1,1 0,-7.5A7.5,7.5 0 0,1 7.5,0Z" style="opacity: 1; stroke-width: 0px; fill: rgb(240, 125, 0); fill-opacity: 0.25;"/></g><g class="text"/></g><g class="trace scatter tracec534f8" style="stroke-miterlimit: 2; opacity: 1;"><g class="fills"/><g class="errorbars"/><g class="lines"><path class="js-line" d="M0,471.47Q11.86,483.4 21.91,486.5C38.44,491.61 77.5,486.8 93.82,486.34C102.25,486.1 106.74,484.92 112.99,485.31C119.06,485.69 124.69,487.43 130.79,488.5C137.23,489.62 146.3,490.96 150.65,491.88C152.81,492.34 153.46,492.87 155.45,493.1C158.59,493.47 162.92,493.55 167.77,492.93C175.02,492 187.26,487.9 194.48,486.35C199.36,485.3 202.75,484.62 206.81,484.08C210.73,483.56 215,483.55 218.45,483.13C221.24,482.79 225.99,481.96 225.98,481.89C225.97,481.79 212.98,483.43 212.97,483.34Q212.95,483.22 237.62,479.69" style="vector-effect: non-scaling-stroke; fill: none; stroke: rgb(0, 51, 255); stroke-opacity: 1; stroke-width: 7px; opacity: 1;"/></g><g class="points"/><g class="text"/></g><g class="trace scatter trace55ae63" style="stroke-miterlimit: 2; opacity: 1;"><g class="fills"/><g class="errorbars"/><g class="lines"/><g class="points"><path class="point" transform="translate(0,463.27)" d="M7.5,0A7.5,7.5 0 1,1 0,-7.5A7.5,7.5 0 0,1 7.5,0Z" style="opacity: 1; stroke-width: 0px; fill: rgb(0, 51, 255); fill-opacity: 0.25;"/><path class="point" transform="translate(21.91,494.51)" d="M7.5,0A7.5,7.5 0 1,1 0,-7.5A7.5,7.5 0 0,1 7.5,0Z" style="opacity: 1; stroke-width: 0px; fill: rgb(0, 51, 255); fill-opacity: 0.25;"/><path class="point" transform="translate(93.82,487.41)" d="M7.5,0A7.5,7.5 0 1,1 0,-7.5A7.5,7.5 0 0,1 7.5,0Z" style="opacity: 1; stroke-width: 0px; fill: rgb(0, 51, 255); fill-opacity: 0.25;"/><path class="point" transform="translate(112.99,480.31)" d="M7.5,0A7.5,7.5 0 1,1 0,-7.5A7.5,7.5 0 0,1 7.5,0Z" style="opacity: 1; stroke-width: 0px; fill: rgb(0, 51, 255); fill-opacity: 0.25;"/><path class="point" transform="translate(130.79,487.41)" d="M7.5,0A7.5,7.5 0 1,1 0,-7.5A7.5,7.5 0 0,1 7.5,0Z" style="opacity: 1; stroke-width: 0px; fill: rgb(0, 51, 255); fill-opacity: 0.25;"/><path class="point" transform="translate(150.65,487.41)" d="M7.5,0A7.5,7.5 0 1,1 0,-7.5A7.5,7.5 0 0,1 7.5,0Z" style="opacity: 1; stroke-width: 0px; fill: rgb(0, 51, 255); fill-opacity: 0.25;"/><path class="point" transform="translate(155.45,501.61)" d="M7.5,0A7.5,7.5 0 1,1 0,-7.5A7.5,7.5 0 0,1 7.5,0Z" style="opacity: 1; stroke-width: 0px; fill: rgb(0, 51, 255); fill-opacity: 0.25;"/><path class="point" transform="translate(167.77,498.77)" d="M7.5,0A7.5,7.5 0 1,1 0,-7.5A7.5,7.5 0 0,1 7.5,0Z" style="opacity: 1; stroke-width: 0px; fill: rgb(0, 51, 255); fill-opacity: 0.25;"/><path class="point" transform="translate(194.48,487.41)" d="M7.5,0A7.5,7.5 0 1,1 0,-7.5A7.5,7.5 0 0,1 7.5,0Z" style="opacity: 1; stroke-width: 0px; fill: rgb(0, 51, 255); fill-opacity: 0.25;"/><path class="point" transform="translate(206.81,483.15)" d="M7.5,0A7.5,7.5 0 1,1 0,-7.5A7.5,7.5 0 0,1 7.5,0Z" style="opacity: 1; stroke-width: 0px; fill: rgb(0, 51, 255); fill-opacity: 0.25;"/><path class="point" transform="translate(218.45,487.41)" d="M7.5,0A7.5,7.5 0 1,1 0,-7.5A7.5,7.5 0 0,1 7.5,0Z" style="opacity: 1; stroke-width: 0px; fill: rgb(0, 51, 255); fill-opacity: 0.25;"/><path class="point" transform="translate(225.98,480.31)" d="M7.5,0A7.5,7.5 0 1,1 0,-7.5A7.5,7.5 0 0,1 7.5,0Z" style="opacity: 1; stroke-width: 0px; fill: rgb(0, 51, 255); fill-opacity: 0.25;"/><path class="point" transform="translate(212.97,480.31)" d="M7.5,0A7.5,7.5 0 1,1 0,-7.5A7.5,7.5 0 0,1 7.5,0Z" style="opacity: 1; stroke-width: 0px; fill: rgb(0, 51, 255); fill-opacity: 0.25;"/><path class="point" transform="translate(237.62,473.21)" d="M7.5,0A7.5,7.5 0 1,1 0,-7.5A7.5,7.5 0 0,1 7.5,0Z" style="opacity: 1; stroke-width: 0px; fill: rgb(0, 51, 255); fill-opacity: 0.25;"/></g><g class="text"/></g><g class="trace scatter tracea47c83" style="stroke-miterlimit: 2; opacity: 1;"><g class="fills"/><g class="errorbars"/><g class="lines"><path class="js-line" d="M0,479.51Q12.58,479.26 21.91,480.65C39.05,483.2 77.43,497.48 93.82,498.52C102.18,499.05 106.71,496.65 112.99,496.27C119.02,495.91 124.72,496.82 130.79,496.22C137.26,495.58 146.27,492.71 150.65,492.32C152.78,492.13 153.48,492.43 155.45,492.39C158.61,492.32 162.88,491.86 167.77,491.68C174.97,491.42 187.28,491.69 194.48,491.3C199.38,491.03 202.79,489.8 206.81,490.12C210.77,490.43 215.14,491.45 218.45,493.12C221.42,494.62 226.1,499.08 225.98,499.25C225.83,499.46 212.69,491.53 212.97,490.95Q213.34,490.2 237.62,499.85" style="vector-effect: non-scaling-stroke; fill: none; stroke: rgb(140, 0, 0); stroke-opacity: 1; stroke-width: 7px; opacity: 1;"/></g><g class="points"/><g class="text"/></g><g class="trace scatter traceff540c" style="stroke-miterlimit: 2; opacity: 1;"><g class="fills"/><g class="errorbars"/><g class="lines"/><g class="points"><path class="point" transform="translate(0,478.89)" d="M7.5,0A7.5,7.5 0 1,1 0,-7.5A7.5,7.5 0 0,1 7.5,0Z" style="opacity: 1; stroke-width: 0px; fill: rgb(140, 0, 0); fill-opacity: 0.25;"/><path class="point" transform="translate(21.91,480.31)" d="M7.5,0A7.5,7.5 0 1,1 0,-7.5A7.5,7.5 0 0,1 7.5,0Z" style="opacity: 1; stroke-width: 0px; fill: rgb(140, 0, 0); fill-opacity: 0.25;"/><path class="point" transform="translate(93.82,501.61)" d="M7.5,0A7.5,7.5 0 1,1 0,-7.5A7.5,7.5 0 0,1 7.5,0Z" style="opacity: 1; stroke-width: 0px; fill: rgb(140, 0, 0); fill-opacity: 0.25;"/><path class="point" transform="translate(112.99,494.51)" d="M7.5,0A7.5,7.5 0 1,1 0,-7.5A7.5,7.5 0 0,1 7.5,0Z" style="opacity: 1; stroke-width: 0px; fill: rgb(140, 0, 0); fill-opacity: 0.25;"/><path class="point" transform="translate(130.79,501.61)" d="M7.5,0A7.5,7.5 0 1,1 0,-7.5A7.5,7.5 0 0,1 7.5,0Z" style="opacity: 1; stroke-width: 0px; fill: rgb(140, 0, 0); fill-opacity: 0.25;"/><path class="point" transform="translate(150.65,487.41)" d="M7.5,0A7.5,7.5 0 1,1 0,-7.5A7.5,7.5 0 0,1 7.5,0Z" style="opacity: 1; stroke-width: 0px; fill: rgb(140, 0, 0); fill-opacity: 0.25;"/><path class="point" transform="translate(155.45,494.51)" d="M7.5,0A7.5,7.5 0 1,1 0,-7.5A7.5,7.5 0 0,1 7.5,0Z" style="opacity: 1; stroke-width: 0px; fill: rgb(140, 0, 0); fill-opacity: 0.25;"/><path class="point" transform="translate(167.77,490.25)" d="M7.5,0A7.5,7.5 0 1,1 0,-7.5A7.5,7.5 0 0,1 7.5,0Z" style="opacity: 1; stroke-width: 0px; fill: rgb(140, 0, 0); fill-opacity: 0.25;"/><path class="point" transform="translate(194.48,494.51)" d="M7.5,0A7.5,7.5 0 1,1 0,-7.5A7.5,7.5 0 0,1 7.5,0Z" style="opacity: 1; stroke-width: 0px; fill: rgb(140, 0, 0); fill-opacity: 0.25;"/><path class="point" transform="translate(206.81,481.73)" d="M7.5,0A7.5,7.5 0 1,1 0,-7.5A7.5,7.5 0 0,1 7.5,0Z" style="opacity: 1; stroke-width: 0px; fill: rgb(140, 0, 0); fill-opacity: 0.25;"/><path class="point" transform="translate(218.45,480.31)" d="M7.5,0A7.5,7.5 0 1,1 0,-7.5A7.5,7.5 0 0,1 7.5,0Z" style="opacity: 1; stroke-width: 0px; fill: rgb(140, 0, 0); fill-opacity: 0.25;"/><path class="point" transform="translate(212.97,480.31)" d="M7.5,0A7.5,7.5 0 1,1 0,-7.5A7.5,7.5 0 0,1 7.5,0Z" style="opacity: 1; stroke-width: 0px; fill: rgb(140, 0, 0); fill-opacity: 0.25;"/><path class="point" transform="translate(237.62,501.61)" d="M7.5,0A7.5,7.5 0 1,1 0,-7.5A7.5,7.5 0 0,1 7.5,0Z" style="opacity: 1; stroke-width: 0px; fill: rgb(140, 0, 0); fill-opacity: 0.25;"/></g><g class="text"/></g></g></g><g class="overplot"/><path class="xlines-above crisp" d="M0,0" style="fill: none;"/><path class="ylines-above crisp" d="M0,0" style="fill: none;"/><g class="overlines-above"/><g class="xaxislayer-above"><g class="xtick"><text text-anchor="middle" x="0" y="563" transform="translate(107.52000000000001,0)" style="font-family: 'Open Sans', verdana, arial, sans-serif; font-size: 12px; fill: rgb(42, 63, 95); fill-opacity: 1; white-space: pre; opacity: 1;">1.1.22</text></g><g class="xtick"><text text-anchor="middle" x="0" y="563" style="font-family: 'Open Sans', verdana, arial, sans-serif; font-size: 12px; fill: rgb(42, 63, 95); fill-opacity: 1; white-space: pre; opacity: 1;" transform="translate(231.47,0)">1.7.22</text></g><g class="xtick"><text text-anchor="middle" x="0" y="563" style="font-family: 'Open Sans', verdana, arial, sans-serif; font-size: 12px; fill: rgb(42, 63, 95); fill-opacity: 1; white-space: pre; opacity: 1;" transform="translate(357.47,0)">1.1.23</text></g><g class="xtick"><text text-anchor="middle" x="0" y="563" style="font-family: 'Open Sans', verdana, arial, sans-serif; font-size: 12px; fill: rgb(42, 63, 95); fill-opacity: 1; white-space: pre; opacity: 1;" transform="translate(481.42,0)">1.7.23</text></g><g class="xtick"><text text-anchor="middle" x="0" y="563" style="font-family: 'Open Sans', verdana, arial, sans-serif; font-size: 12px; fill: rgb(42, 63, 95); fill-opacity: 1; white-space: pre; opacity: 1;" transform="translate(607.42,0)">1.1.24</text></g><g class="xtick"><text text-anchor="middle" x="0" y="563" style="font-family: 'Open Sans', verdana, arial, sans-serif; font-size: 12px; fill: rgb(42, 63, 95); fill-opacity: 1; white-space: pre; opacity: 1;" transform="translate(732.05,0)">1.7.24</text></g><g class="xtick"><text text-anchor="middle" x="0" y="563" style="font-family: 'Open Sans', verdana, arial, sans-serif; font-size: 12px; fill: rgb(42, 63, 95); fill-opacity: 1; white-space: pre; opacity: 1;" transform="translate(858.05,0)">1.1.25</text></g><g class="xtick"><text text-anchor="middle" x="0" y="563" style="font-family: 'Open Sans', verdana, arial, sans-serif; font-size: 12px; fill: rgb(42, 63, 95); fill-opacity: 1; white-space: pre; opacity: 1;" transform="translate(982,0)">1.7.25</text></g></g><g class="yaxislayer-above"><g class="ytick"><text text-anchor="end" x="49" y="4.199999999999999" transform="translate(0,550)" style="font-family: 'Open Sans', verdana, arial, sans-serif; font-size: 12px; fill: rgb(42, 63, 95); fill-opacity: 1; white-space: pre; opacity: 1;">0%</text></g><g class="ytick"><text text-anchor="end" x="49" y="4.199999999999999" style="font-family: 'Open Sans', verdana, arial, sans-serif; font-size: 12px; fill: rgb(42, 63, 95); fill-opacity: 1; white-space: pre; opacity: 1;" transform="translate(0,479.01)">5%</text></g><g class="ytick"><text text-anchor="end" x="49" y="4.199999999999999" style="font-family: 'Open Sans', verdana, arial, sans-serif; font-size: 12px; fill: rgb(42, 63, 95); fill-opacity: 1; white-space: pre; opacity: 1;" transform="translate(0,408.03)">10%</text></g><g class="ytick"><text text-anchor="end" x="49" y="4.199999999999999" style="font-family: 'Open Sans', verdana, arial, sans-serif; font-size: 12px; fill: rgb(42, 63, 95); fill-opacity: 1; white-space: pre; opacity: 1;" transform="translate(0,337.04)">15%</text></g><g class="ytick"><text text-anchor="end" x="49" y="4.199999999999999" style="font-family: 'Open Sans', verdana, arial, sans-serif; font-size: 12px; fill: rgb(42, 63, 95); fill-opacity: 1; white-space: pre; opacity: 1;" transform="translate(0,266.05)">20%</text></g><g class="ytick"><text text-anchor="end" x="49" y="4.199999999999999" style="font-family: 'Open Sans', verdana, arial, sans-serif; font-size: 12px; fill: rgb(42, 63, 95); fill-opacity: 1; white-space: pre; opacity: 1;" transform="translate(0,195.07)">25%</text></g><g class="ytick"><text text-anchor="end" x="49" y="4.199999999999999" style="font-family: 'Open Sans', verdana, arial, sans-serif; font-size: 12px; fill: rgb(42, 63, 95); fill-opacity: 1; white-space: pre; opacity: 1;" transform="translate(0,124.08)">30%</text></g><g class="ytick"><text text-anchor="end" x="49" y="4.199999999999999" style="font-family: 'Open Sans', verdana, arial, sans-serif; font-size: 12px; fill: rgb(42, 63, 95); fill-opacity: 1; white-space: pre; opacity: 1;" transform="translate(0,53.09)">35%</text></g></g><g class="overaxes-above"/></g></g><g class="polarlayer"/><g class="smithlayer"/><g class="ternarylayer"/><g class="geolayer"/><g class="funnelarealayer"/><g class="pielayer"/><g class="iciclelayer"/><g class="treemaplayer"/><g class="sunburstlayer"/><g class="glimages"/><defs id="topdefs-9e94c8"><g class="clips"/><clipPath id="legend9e94c8"><rect width="123" height="200" x="0" y="0"/></clipPath></defs><g class="layer-above"><g class="imagelayer"/><g class="shapelayer"/></g><g class="infolayer"><g class="legend" pointer-events="all" transform="translate(1064.9,20)"><rect class="bg" shape-rendering="crispEdges" style="stroke: rgb(68, 68, 68); stroke-opacity: 1; fill: rgb(255, 255, 255); fill-opacity: 1; stroke-width: 0px;" width="123" height="200" x="0" y="0"/><g class="scrollbox" transform="" clip-path="url(#legend9e94c8)"><g class="groups"><g class="traces" transform="translate(0,14.5)" style="opacity: 1;"><text class="legendtext" text-anchor="start" x="40" y="4.680000000000001" style="font-family: 'Open Sans', verdana, arial, sans-serif; font-size: 12px; fill: rgb(42, 63, 95); fill-opacity: 1; white-space: pre;">ANO: 30%</text><g class="layers" style="opacity: 1;"><g class="legendfill"/><g class="legendlines"><path class="js-line" d="M5,0h30" style="fill: none; stroke: rgb(38, 16, 96); stroke-opacity: 1; stroke-width: 7px;"/></g><g class="legendsymbols"><g class="legendpoints"/></g></g><rect class="legendtoggle" x="0" y="-9.5" width="117.03125" height="19" style="fill: rgb(0, 0, 0); fill-opacity: 0;"/></g><g class="traces" transform="translate(0,33.5)" style="opacity: 1;"><text class="legendtext" text-anchor="start" x="40" y="4.680000000000001" style="font-family: 'Open Sans', verdana, arial, sans-serif; font-size: 12px; fill: rgb(42, 63, 95); fill-opacity: 1; white-space: pre;">ODS: 17%</text><g class="layers" style="opacity: 1;"><g class="legendfill"/><g class="legendlines"><path class="js-line" d="M5,0h30" style="fill: none; stroke: rgb(0, 68, 148); stroke-opacity: 1; stroke-width: 7px;"/></g><g class="legendsymbols"><g class="legendpoints"/></g></g><rect class="legendtoggle" x="0" y="-9.5" width="117.03125" height="19" style="fill: rgb(0, 0, 0); fill-opacity: 0;"/></g><g class="traces" transform="translate(0,52.5)" style="opacity: 1;"><text class="legendtext" text-anchor="start" x="40" y="4.680000000000001" style="font-family: 'Open Sans', verdana, arial, sans-serif; font-size: 12px; fill: rgb(42, 63, 95); fill-opacity: 1; white-space: pre;">SPD: 12%</text><g class="layers" style="opacity: 1;"><g class="legendfill"/><g class="legendlines"><path class="js-line" d="M5,0h30" style="fill: none; stroke: rgb(234, 35, 41); stroke-opacity: 1; stroke-width: 7px;"/></g><g class="legendsymbols"><g class="legendpoints"/></g></g><rect class="legendtoggle" x="0" y="-9.5" width="117.03125" height="19" style="fill: rgb(0, 0, 0); fill-opacity: 0;"/></g><g class="traces" transform="translate(0,71.5)" style="opacity: 1;"><text class="legendtext" text-anchor="start" x="40" y="4.680000000000001" style="font-family: 'Open Sans', verdana, arial, sans-serif; font-size: 12px; fill: rgb(42, 63, 95); fill-opacity: 1; white-space: pre;">Pirti: 9%</text><g class="layers" style="opacity: 1;"><g class="legendfill"/><g class="legendlines"><path class="js-line" d="M5,0h30" style="fill: none; stroke: rgb(0, 0, 0); stroke-opacity: 1; stroke-width: 7px;"/></g><g class="legendsymbols"><g class="legendpoints"/></g></g><rect class="legendtoggle" x="0" y="-9.5" width="117.03125" height="19" style="fill: rgb(0, 0, 0); fill-opacity: 0;"/></g><g class="traces" transform="translate(0,90.5)" style="opacity: 1;"><text class="legendtext" text-anchor="start" x="40" y="4.680000000000001" style="font-family: 'Open Sans', verdana, arial, sans-serif; font-size: 12px; fill: rgb(42, 63, 95); fill-opacity: 1; white-space: pre;">STAN: 6%</text><g class="layers" style="opacity: 1;"><g class="legendfill"/><g class="legendlines"><path class="js-line" d="M5,0h30" style="fill: none; stroke: rgb(93, 140, 0); stroke-opacity: 1; stroke-width: 7px;"/></g><g class="legendsymbols"><g class="legendpoints"/></g></g><rect class="legendtoggle" x="0" y="-9.5" width="117.03125" height="19" style="fill: rgb(0, 0, 0); fill-opacity: 0;"/></g><g class="traces" transform="translate(0,109.5)" style="opacity: 1;"><text class="legendtext" text-anchor="start" x="40" y="4.680000000000001" style="font-family: 'Open Sans', verdana, arial, sans-serif; font-size: 12px; fill: rgb(42, 63, 95); fill-opacity: 1; white-space: pre;">KDU-SL: 5%</text><g class="layers" style="opacity: 1;"><g class="legendfill"/><g class="legendlines"><path class="js-line" d="M5,0h30" style="fill: none; stroke: rgb(230, 172, 33); stroke-opacity: 1; stroke-width: 7px;"/></g><g class="legendsymbols"><g class="legendpoints"/></g></g><rect class="legendtoggle" x="0" y="-9.5" width="117.03125" height="19" style="fill: rgb(0, 0, 0); fill-opacity: 0;"/></g><g class="traces" transform="translate(0,128.5)" style="opacity: 1;"><text class="legendtext" text-anchor="start" x="40" y="4.680000000000001" style="font-family: 'Open Sans', verdana, arial, sans-serif; font-size: 12px; fill: rgb(42, 63, 95); fill-opacity: 1; white-space: pre;">TOP 09: 4%</text><g class="layers" style="opacity: 1;"><g class="legendfill"/><g class="legendlines"><path class="js-line" d="M5,0h30" style="fill: none; stroke: rgb(114, 55, 105); stroke-opacity: 1; stroke-width: 7px;"/></g><g class="legendsymbols"><g class="legendpoints"/></g></g><rect class="legendtoggle" x="0" y="-9.5" width="117.03125" height="19" style="fill: rgb(0, 0, 0); fill-opacity: 0;"/></g><g class="traces" transform="translate(0,147.5)" style="opacity: 1;"><text class="legendtext" text-anchor="start" x="40" y="4.680000000000001" style="font-family: 'Open Sans', verdana, arial, sans-serif; font-size: 12px; fill: rgb(42, 63, 95); fill-opacity: 1; white-space: pre;">SSD: 4%</text><g class="layers" style="opacity: 1;"><g class="legendfill"/><g class="legendlines"><path class="js-line" d="M5,0h30" style="fill: none; stroke: rgb(240, 125, 0); stroke-opacity: 1; stroke-width: 7px;"/></g><g class="legendsymbols"><g class="legendpoints"/></g></g><rect class="legendtoggle" x="0" y="-9.5" width="117.03125" height="19" style="fill: rgb(0, 0, 0); fill-opacity: 0;"/></g><g class="traces" transform="translate(0,166.5)" style="opacity: 1;"><text class="legendtext" text-anchor="start" x="40" y="4.680000000000001" style="font-family: 'Open Sans', verdana, arial, sans-serif; font-size: 12px; fill: rgb(42, 63, 95); fill-opacity: 1; white-space: pre;">Psaha: 4%</text><g class="layers" style="opacity: 1;"><g class="legendfill"/><g class="legendlines"><path class="js-line" d="M5,0h30" style="fill: none; stroke: rgb(0, 51, 255); stroke-opacity: 1; stroke-width: 7px;"/></g><g class="legendsymbols"><g class="legendpoints"/></g></g><rect class="legendtoggle" x="0" y="-9.5" width="117.03125" height="19" style="fill: rgb(0, 0, 0); fill-opacity: 0;"/></g><g class="traces" transform="translate(0,185.5)" style="opacity: 1;"><text class="legendtext" text-anchor="start" x="40" y="4.680000000000001" style="font-family: 'Open Sans', verdana, arial, sans-serif; font-size: 12px; fill: rgb(42, 63, 95); fill-opacity: 1; white-space: pre;">KSM: 2%</text><g class="layers" style="opacity: 1;"><g class="legendfill"/><g class="legendlines"><path class="js-line" d="M5,0h30" style="fill: none; stroke: rgb(140, 0, 0); stroke-opacity: 1; stroke-width: 7px;"/></g><g class="legendsymbols"><g class="legendpoints"/></g></g><rect class="legendtoggle" x="0" y="-9.5" width="117.03125" height="19" style="fill: rgb(0, 0, 0); fill-opacity: 0;"/></g></g></g><rect class="scrollbar" rx="20" ry="3" width="0" height="0" style="fill: rgb(128, 139, 164); fill-opacity: 1;" x="0" y="0"/></g><g class="g-gtitle"/><g class="g-xtitle"/><g class="g-ytitle"/></g></svg>