<svg class="main-svg" xmlns="http://www.w3.org/2000/svg" xmlns:xlink="http://www.w3.org/1999/xlink" width="300" height="135" style="" viewBox="0 0 300 135"><rect x="0" y="0" width="300" height="135" style="fill: rgb(255, 255, 255); fill-opacity: 1;"/><defs id="defs-c34b07"><g class="clips"><clipPath id="clipc34b07xyplot" class="plotclip"><rect width="280" height="75"/></clipPath><clipPath class="axesclip" id="clipc34b07x"><rect x="10" y="0" width="280" height="135"/></clipPath><clipPath class="axesclip" id="clipc34b07y"><rect x="0" y="50" width="300" height="75"/></clipPath><clipPath class="axesclip" id="clipc34b07xy"><rect x="10" y="50" width="280" height="75"/></clipPath></g><g class="gradients"/><g class="patterns"/></defs><g class="bglayer"/><g class="layer-below"><g class="imagelayer"/><g class="shapelayer"/></g><g class="cartesianlayer"><g class="subplot xy"><g class="layer-subplot"><g class="shapelayer"/><g class="imagelayer"/></g><g class="minor-gridlayer"><g class="x"/><g class="y"/></g><g class="gridlayer"><g class="x"><path class="xgrid crisp" transform="translate(31.52,0)" d="M0,50v75" style="stroke: rgb(235, 240, 248); stroke-opacity: 1; stroke-width: 1px;"/><path class="xgrid crisp" transform="translate(125.02,0)" d="M0,50v75" style="stroke: rgb(235, 240, 248); stroke-opacity: 1; stroke-width: 1px;"/><path class="xgrid crisp" transform="translate(218.53,0)" d="M0,50v75" style="stroke: rgb(235, 240, 248); stroke-opacity: 1; stroke-width: 1px;"/></g><g class="y"><path class="ygrid crisp" transform="translate(0,104.1)" d="M10,0h280" style="stroke: rgb(235, 240, 248); stroke-opacity: 1; stroke-width: 1px;"/><path class="ygrid crisp" transform="translate(0,83.21000000000001)" d="M10,0h280" style="stroke: rgb(235, 240, 248); stroke-opacity: 1; stroke-width: 1px;"/><path class="ygrid crisp" transform="translate(0,62.31)" d="M10,0h280" style="stroke: rgb(235, 240, 248); stroke-opacity: 1; stroke-width: 1px;"/></g></g><g class="zerolinelayer"><path class="yzl zl crisp" transform="translate(0,125)" d="M10,0h280" style="stroke: rgb(235, 240, 248); stroke-opacity: 1; stroke-width: 2px;"/></g><path class="xlines-below"/><path class="ylines-below"/><g class="overlines-below"/><g class="xaxislayer-below"/><g class="yaxislayer-below"/><g class="overaxes-below"/><g class="plot" transform="translate(10,50)" clip-path="url(#clipc34b07xyplot)"><g class="scatterlayer mlayer"><g class="trace scatter trace50ba6d" style="stroke-miterlimit: 2; opacity: 1;"><g class="fills"/><g class="errorbars"/><g class="lines"><path class="js-line" d="M0,18.37Q4.68,18.43 8.2,18.59C14.58,18.88 29.04,21.04 35.1,20.3C38.3,19.91 39.9,18.58 42.27,18.02C44.51,17.49 46.65,17.33 48.93,16.96C51.34,16.56 54.73,15.92 56.36,15.7C57.16,15.59 57.42,15.63 58.15,15.53C59.33,15.36 60.93,15 62.76,14.65C65.45,14.13 70.05,13.07 72.75,12.68C74.58,12.42 76.1,12.28 77.37,12.27C78.27,12.26 78.93,12.41 79.67,12.42C80.37,12.43 80.98,12.33 81.72,12.32C82.58,12.3 83.6,12.34 84.54,12.35C85.48,12.36 86.56,12.34 87.36,12.38C87.95,12.41 88.2,12.46 88.89,12.5C90.29,12.59 93.66,12.46 95.3,12.79C96.37,13 96.72,13.63 97.86,13.72C100.01,13.89 103.55,12.5 107.34,11.93C112.95,11.09 126.94,9.91 128.34,9.62C128.5,9.59 128.46,9.58 128.6,9.54C129.28,9.37 132.93,8.38 134.49,8.39C135.52,8.4 136.06,8.88 137.05,8.94C138.41,9.02 140.56,8.68 141.92,8.49C142.91,8.35 143.49,8.29 144.48,8C145.96,7.57 148.6,6.21 149.86,5.86C150.52,5.68 151.1,5.65 151.4,5.6C151.52,5.58 151.51,5.58 151.66,5.56C152.42,5.44 156.41,4.41 158.83,4.35C161.28,4.29 163.4,5.01 166.26,5.25C170.15,5.58 177.79,6.17 180.09,5.93C180.87,5.85 181.25,5.6 181.63,5.52C181.84,5.47 181.87,5.48 182.14,5.44C183.12,5.3 187.43,4.62 189.06,4.55C189.94,4.51 190.33,4.65 191.11,4.63C192.14,4.61 193.54,4.45 194.69,4.32C195.76,4.2 197.18,3.95 197.77,3.89C198.01,3.86 198.11,3.86 198.28,3.85C198.45,3.84 198.53,3.84 198.79,3.84C199.61,3.82 201.93,3.67 203.92,3.75C206.7,3.87 213,4.7 213.91,4.78C214.05,4.79 214.08,4.8 214.16,4.8C214.25,4.8 214.28,4.77 214.42,4.75C215.12,4.67 219.39,4.75 220.57,4.54C221.06,4.45 221.09,4.23 221.59,4.2C222.86,4.12 227.77,5.45 228.51,5.54C228.65,5.56 228.64,5.55 228.76,5.55C229.09,5.56 229.82,5.48 230.56,5.54C231.79,5.63 233.88,6.08 235.43,6.31C236.85,6.52 238.13,6.72 239.52,6.85C240.95,6.98 242.3,6.96 243.88,7.09C245.76,7.25 248.84,7.61 250.03,7.77C250.51,7.83 251.05,7.93 251.05,7.93C251.05,7.93 251.05,7.93 251.05,7.93C251.05,7.93 255.48,9.28 256.94,9.34C257.8,9.38 258.16,9.08 258.99,9.03C260.26,8.96 262.07,9.42 263.86,9.19C266.15,8.9 270.32,7.17 271.55,6.92C271.93,6.84 271.99,6.88 272.31,6.83C272.87,6.74 273.7,6.57 274.62,6.37C275.99,6.08 279.11,5.24 279.74,5.19Q279.88,5.18 280,5.21" style="vector-effect: none; fill: none; stroke: rgb(38, 16, 96); stroke-opacity: 1; stroke-width: 5px; opacity: 1;"/></g><g class="points"/><g class="text"/></g><g class="trace scatter tracea4b165" style="stroke-miterlimit: 2; opacity: 1;"><g class="fills"/><g class="errorbars"/><g class="lines"><path class="js-line" d="M0,17.11Q4.73,19.54 8.2,19.31C14.63,18.89 28.93,8.69 35.1,8.13C38.19,7.85 39.92,9.19 42.27,9.68C44.53,10.15 46.75,10.07 48.93,11.03C51.46,12.14 54.67,15.8 56.36,16.41C57.11,16.68 57.44,16.35 58.15,16.53C59.35,16.84 60.9,17.94 62.76,18.65C65.43,19.68 70.03,21.2 72.75,21.77C74.56,22.15 76.09,22.23 77.37,22.3C78.27,22.35 78.93,22.39 79.67,22.29C80.38,22.2 80.98,21.84 81.72,21.76C82.58,21.67 83.6,21.93 84.54,21.87C85.48,21.81 86.57,21.59 87.36,21.39C87.95,21.24 88.19,21.04 88.89,20.89C90.28,20.59 93.67,20.64 95.3,20.21C96.37,19.93 96.73,19.14 97.86,19.1C100.01,19.02 103.5,21.91 107.34,22.36C112.91,23.01 126.95,19.93 128.34,20.27C128.51,20.31 128.45,20.38 128.6,20.44C129.27,20.7 132.93,21.3 134.49,21.4C135.51,21.46 136.06,21.25 137.05,21.31C138.42,21.39 140.55,21.89 141.92,22.06C142.91,22.18 143.48,22.09 144.48,22.3C145.96,22.61 148.61,23.66 149.86,24.06C150.53,24.27 151.1,24.47 151.4,24.53C151.52,24.56 151.52,24.53 151.66,24.56C152.43,24.71 156.4,26.27 158.83,26.51C161.26,26.75 163.41,25.87 166.26,25.99C170.17,26.16 177.78,27.77 180.09,28.18C180.86,28.32 181.26,28.4 181.63,28.48C181.85,28.52 181.87,28.56 182.14,28.59C183.12,28.69 187.43,28.48 189.06,28.54C189.95,28.57 190.33,28.63 191.11,28.7C192.14,28.8 193.54,29.08 194.69,29.1C195.75,29.12 197.18,28.85 197.77,28.89C198.01,28.91 198.11,28.98 198.28,29C198.45,29.02 198.53,28.98 198.79,28.99C199.61,29.01 201.93,29.21 203.92,29.29C206.7,29.41 213,29.55 213.91,29.54C214.05,29.54 214.08,29.54 214.16,29.53C214.25,29.52 214.27,29.48 214.42,29.47C215.12,29.4 219.38,29.68 220.57,29.67C221.05,29.67 221.1,29.65 221.59,29.62C222.87,29.54 227.77,29.18 228.51,29.09C228.65,29.07 228.64,29.06 228.76,29.05C229.09,29.01 229.81,28.9 230.56,28.9C231.79,28.9 233.88,29.37 235.43,29.32C236.86,29.27 238.13,28.74 239.52,28.7C240.95,28.66 242.3,28.96 243.88,29.1C245.75,29.27 248.84,29.52 250.03,29.62C250.51,29.66 251.05,29.7 251.05,29.7C251.05,29.7 251.05,29.7 251.05,29.7C251.05,29.7 255.48,30.89 256.94,31.14C257.79,31.29 258.16,31.28 258.99,31.35C260.27,31.46 262.06,31.45 263.86,31.66C266.14,31.93 270.34,32.52 271.55,32.99C271.96,33.15 271.97,33.36 272.31,33.48C272.86,33.67 273.7,33.75 274.62,33.73C275.99,33.7 279.11,32.97 279.74,32.98Q279.88,32.98 280,33.03" style="vector-effect: none; fill: none; stroke: rgb(0, 68, 148); stroke-opacity: 1; stroke-width: 5px; opacity: 1;"/></g><g class="points"/><g class="text"/></g><g class="trace scatter traceaf80e4" style="stroke-miterlimit: 2; opacity: 1;"><g class="fills"/><g class="errorbars"/><g class="lines"><path class="js-line" d="M0,62.25Q3.98,53.5 8.2,51.6C14.18,48.91 29.01,52.63 35.1,53.46C38.27,53.89 39.93,54.41 42.27,54.92C44.53,55.41 46.68,55.76 48.93,56.46C51.37,57.22 54.73,58.7 56.36,59.38C57.17,59.72 57.41,59.87 58.15,60.17C59.32,60.65 60.9,61.44 62.76,61.9C65.42,62.56 70.05,62.95 72.75,63.2C74.58,63.37 76.1,63.39 77.37,63.45C78.27,63.49 78.93,63.57 79.67,63.53C80.37,63.49 80.98,63.31 81.72,63.24C82.58,63.16 83.6,63.21 84.54,63.14C85.48,63.07 86.56,62.92 87.36,62.81C87.95,62.73 88.2,62.6 88.89,62.55C90.29,62.45 93.65,62.7 95.3,62.69C96.35,62.68 96.74,62.65 97.86,62.59C100.02,62.48 103.56,62.21 107.34,61.96C112.97,61.59 126.94,60.64 128.34,60.59C128.5,60.58 128.46,60.59 128.6,60.59C129.28,60.6 132.93,60.56 134.49,60.71C135.52,60.81 136.06,61.07 137.05,61.17C138.41,61.3 140.56,61.14 141.92,61.24C142.91,61.31 143.47,61.47 144.48,61.58C145.94,61.73 148.61,61.92 149.86,61.99C150.53,62.03 151.1,62.04 151.4,62.05C151.52,62.05 151.51,62.05 151.66,62.05C152.42,62.07 156.42,62.38 158.83,62.36C161.29,62.34 163.4,62.01 166.26,61.9C170.16,61.75 177.79,61.88 180.09,61.7C180.86,61.64 181.25,61.53 181.63,61.48C181.85,61.45 181.87,61.44 182.14,61.42C183.12,61.36 187.43,61.48 189.06,61.44C189.95,61.42 190.33,61.35 191.11,61.33C192.14,61.3 193.54,61.34 194.69,61.33C195.76,61.32 197.18,61.31 197.77,61.29C198.01,61.28 198.11,61.27 198.28,61.26C198.45,61.25 198.53,61.26 198.79,61.25C199.61,61.23 201.93,61.18 203.92,61.08C206.7,60.94 213,60.49 213.91,60.44C214.05,60.43 214.08,60.43 214.16,60.43C214.25,60.43 214.28,60.43 214.42,60.42C215.12,60.37 219.38,59.81 220.57,59.8C221.05,59.8 221.1,59.85 221.59,59.89C222.87,60 227.77,60.41 228.51,60.42C228.65,60.42 228.64,60.42 228.76,60.41C229.09,60.39 229.82,60.36 230.56,60.26C231.79,60.1 233.87,59.65 235.43,59.41C236.85,59.19 238.14,59.08 239.52,58.88C240.95,58.67 242.3,58.38 243.88,58.18C245.75,57.94 248.85,57.81 250.03,57.62C250.52,57.54 251.05,57.39 251.05,57.39C251.05,57.39 251.05,57.39 251.05,57.39C251.05,57.39 255.48,56.43 256.94,56.24C257.8,56.13 258.16,56.17 258.99,56.1C260.27,56 262.05,55.79 263.86,55.66C266.13,55.5 270.33,55.54 271.55,55.29C271.95,55.21 271.99,55.13 272.31,55C272.87,54.77 273.7,54.38 274.62,53.99C275.99,53.41 279.11,52.07 279.74,51.89Q279.88,51.85 280,51.85" style="vector-effect: none; fill: none; stroke: rgb(206, 15, 104); stroke-opacity: 1; stroke-width: 5px; opacity: 1;"/></g><g class="points"/><g class="text"/></g><g class="trace scatter tracec79a09" style="stroke-miterlimit: 2; opacity: 1;"><g class="fills"/><g class="errorbars"/><g class="lines"><path class="js-line" d="M0,65.18Q4.58,67.88 8.2,68.6C14.49,69.86 28.99,68.65 35.1,68.58C38.25,68.54 39.93,68.36 42.27,68.42C44.53,68.47 46.65,68.73 48.93,68.89C51.34,69.06 54.73,69.25 56.36,69.39C57.16,69.46 57.41,69.53 58.15,69.57C59.33,69.63 60.93,69.64 62.76,69.55C65.46,69.42 70.05,68.85 72.75,68.65C74.58,68.52 76.1,68.44 77.37,68.39C78.27,68.35 78.93,68.33 79.67,68.33C80.37,68.33 80.98,68.36 81.72,68.36C82.59,68.36 83.6,68.33 84.54,68.34C85.48,68.35 86.56,68.41 87.36,68.43C87.95,68.44 88.21,68.39 88.89,68.45C90.3,68.58 93.64,69.32 95.3,69.55C96.34,69.7 96.75,69.63 97.86,69.83C100.03,70.21 103.53,71.91 107.34,72.16C112.94,72.53 126.94,69.97 128.34,69.87C128.5,69.86 128.46,69.86 128.6,69.86C129.28,69.84 132.93,69.88 134.49,69.81C135.52,69.77 136.06,69.62 137.05,69.61C138.41,69.6 140.55,69.86 141.92,69.89C142.91,69.91 143.47,69.87 144.48,69.87C145.94,69.86 148.61,69.9 149.86,69.86C150.53,69.84 151.1,69.78 151.4,69.77C151.52,69.77 151.51,69.77 151.66,69.77C152.42,69.76 156.42,69.73 158.83,69.67C161.29,69.6 163.4,69.4 166.26,69.38C170.16,69.36 177.78,69.62 180.09,69.76C180.86,69.81 181.26,69.92 181.63,69.9C181.85,69.89 181.87,69.82 182.14,69.79C183.12,69.67 187.43,69.61 189.06,69.6C189.94,69.6 190.33,69.63 191.11,69.64C192.14,69.66 193.54,69.66 194.69,69.7C195.76,69.73 197.18,69.85 197.77,69.85C198.01,69.85 198.11,69.83 198.28,69.82C198.45,69.81 198.53,69.81 198.79,69.8C199.61,69.77 201.93,69.74 203.92,69.68C206.7,69.6 213,69.35 213.91,69.32C214.05,69.31 214.08,69.31 214.16,69.31C214.25,69.31 214.28,69.3 214.42,69.3C215.12,69.32 219.38,69.7 220.57,69.84C221.05,69.9 221.1,69.99 221.59,69.99C222.87,70 227.77,69.11 228.51,69.05C228.65,69.04 228.64,69.05 228.76,69.04C229.09,69.03 229.81,69.01 230.56,68.95C231.79,68.85 233.88,68.64 235.43,68.38C236.86,68.14 238.14,67.8 239.52,67.48C240.95,67.15 242.31,66.88 243.88,66.42C245.77,65.86 248.83,64.55 250.03,64.26C250.51,64.15 251.05,64.12 251.05,64.12C251.05,64.12 251.05,64.12 251.05,64.12C251.05,64.12 255.48,62.77 256.94,62.45C257.79,62.27 258.17,62.35 258.99,62.14C260.28,61.81 262.03,60.84 263.86,60.37C266.11,59.8 270.33,59.51 271.55,59.22C271.94,59.13 271.98,59.01 272.31,58.97C272.87,58.9 273.7,59.02 274.62,59.12C275.99,59.27 279.11,59.9 279.74,59.91Q279.88,59.91 280,59.88" style="vector-effect: none; fill: none; stroke: rgb(0, 51, 255); stroke-opacity: 1; stroke-width: 5px; opacity: 1;"/></g><g class="points"/><g class="text"/></g><g class="trace scatter tracefc6d38" style="stroke-miterlimit: 2; opacity: 1;"><g class="fills"/><g class="errorbars"/><g class="lines"><path class="js-line" d="M0,54.94Q4.68,55.16 8.2,54.98C14.59,54.65 29,52 35.1,52.07C38.26,52.11 39.93,53.04 42.27,53.01C44.53,52.98 46.65,52.28 48.93,51.96C51.34,51.63 54.73,51.23 56.36,51.07C57.16,50.99 57.42,51.03 58.15,50.94C59.33,50.79 60.92,50.35 62.76,50.11C65.45,49.75 70.05,49.41 72.75,49.26C74.58,49.16 76.1,49.21 77.37,49.15C78.27,49.11 78.93,48.96 79.67,48.98C80.37,49 80.98,49.19 81.72,49.22C82.58,49.25 83.6,49.03 84.54,49.09C85.48,49.15 86.56,49.49 87.36,49.61C87.95,49.7 88.2,49.72 88.89,49.78C90.29,49.91 93.65,50.07 95.3,50.22C96.35,50.31 96.73,50.44 97.86,50.5C100.02,50.61 103.6,49.93 107.34,50.4C113.01,51.11 126.94,55.82 128.34,55.98C128.49,56 128.46,55.97 128.6,55.97C129.28,55.96 132.93,55.96 134.49,56.1C135.52,56.19 136.06,56.41 137.05,56.5C138.41,56.62 140.56,56.62 141.92,56.63C142.91,56.64 143.47,56.59 144.48,56.59C145.94,56.59 148.61,56.67 149.86,56.66C150.53,56.66 151.1,56.62 151.4,56.62C151.52,56.62 151.51,56.63 151.66,56.63C152.42,56.61 156.42,56 158.83,55.94C161.28,55.88 163.41,56.46 166.26,56.31C170.17,56.1 177.78,54.24 180.09,54.13C180.86,54.09 181.25,54.21 181.63,54.22C181.85,54.23 181.87,54.23 182.14,54.22C183.13,54.19 187.43,53.86 189.06,53.8C189.94,53.77 190.33,53.77 191.11,53.78C192.14,53.79 193.55,53.75 194.69,53.89C195.76,54.02 197.17,54.46 197.77,54.55C198.01,54.58 198.11,54.58 198.28,54.59C198.45,54.61 198.53,54.62 198.79,54.64C199.61,54.7 201.93,54.89 203.92,54.94C206.7,55.01 213,54.86 213.91,54.87C214.05,54.87 214.08,54.87 214.16,54.88C214.25,54.89 214.28,54.89 214.42,54.91C215.12,55 219.38,55.57 220.57,55.74C221.05,55.81 221.1,55.82 221.59,55.9C222.87,56.1 227.77,56.96 228.51,57C228.65,57.01 228.64,56.99 228.76,56.99C229.09,56.99 229.81,57.05 230.56,57.05C231.79,57.05 233.88,56.8 235.43,56.88C236.86,56.95 238.14,57.19 239.52,57.44C240.96,57.7 242.3,58.13 243.88,58.42C245.75,58.77 248.84,59.19 250.03,59.33C250.51,59.39 251.05,59.42 251.05,59.42C251.05,59.42 251.05,59.42 251.05,59.42C251.05,59.42 255.48,59.71 256.94,59.75C257.8,59.77 258.16,59.71 258.99,59.75C260.27,59.81 262.05,60.19 263.86,60.24C266.13,60.3 270.32,59.93 271.55,59.89C271.94,59.88 271.99,59.87 272.31,59.88C272.87,59.89 273.7,59.95 274.62,59.99C275.99,60.04 279.11,60.15 279.74,60.15Q279.88,60.15 280,60.14" style="vector-effect: none; fill: none; stroke: rgb(234, 35, 41); stroke-opacity: 1; stroke-width: 5px; opacity: 1;"/></g><g class="points"/><g class="text"/></g></g></g><g class="overplot"/><path class="xlines-above crisp" d="M0,0" style="fill: none;"/><path class="ylines-above crisp" d="M0,0" style="fill: none;"/><g class="overlines-above"/><g class="xaxislayer-above"/><g class="yaxislayer-above"/><g class="overaxes-above"/></g></g><g class="polarlayer"/><g class="smithlayer"/><g class="ternarylayer"/><g class="geolayer"/><g class="funnelarealayer"/><g class="pielayer"/><g class="iciclelayer"/><g class="treemaplayer"/><g class="sunburstlayer"/><g class="glimages"/><defs id="topdefs-c34b07"><g class="clips"/></defs><g class="layer-above"><g class="imagelayer"/><g class="shapelayer"/></g><g class="infolayer"><g class="g-gtitle"><text class="gtitle" x="15" y="25" text-anchor="start" dy="0em" style="font-family: Ubuntu, verdana, arial, sans-serif; font-size: 16px; fill: rgb(233, 84, 32); opacity: 1; font-weight: normal; white-space: pre;">Sněmovna 2021-2025</text></g><g class="g-xtitle"/><g class="g-ytitle"/></g></svg>