<svg class="main-svg" xmlns="http://www.w3.org/2000/svg" xmlns:xlink="http://www.w3.org/1999/xlink" width="400" height="400" style="" viewBox="0 0 400 400"><rect x="0" y="0" width="400" height="400" style="fill: rgb(255, 255, 255); fill-opacity: 1;"/><defs id="defs-519818"><g class="clips"><clipPath id="clip519818xyplot" class="plotclip"><rect width="211" height="330"/></clipPath><clipPath class="axesclip" id="clip519818x"><rect x="50" y="0" width="211" height="400"/></clipPath><clipPath class="axesclip" id="clip519818y"><rect x="0" y="20" width="400" height="330"/></clipPath><clipPath class="axesclip" id="clip519818xy"><rect x="50" y="20" width="211" height="330"/></clipPath></g><g class="gradients"/><g class="patterns"/></defs><g class="bglayer"/><g class="layer-below"><g class="imagelayer"/><g class="shapelayer"/></g><g class="cartesianlayer"><g class="subplot xy"><g class="layer-subplot"><g class="shapelayer"/><g class="imagelayer"/></g><g class="minor-gridlayer"><g class="x"/><g class="y"/></g><g class="gridlayer"><g class="x"><path class="xgrid crisp" transform="translate(62.2,0)" d="M0,20v330" style="stroke: rgb(235, 240, 248); stroke-opacity: 1; stroke-width: 1px;"/><path class="xgrid crisp" transform="translate(115.2,0)" d="M0,20v330" style="stroke: rgb(235, 240, 248); stroke-opacity: 1; stroke-width: 1px;"/><path class="xgrid crisp" transform="translate(168.20999999999998,0)" d="M0,20v330" style="stroke: rgb(235, 240, 248); stroke-opacity: 1; stroke-width: 1px;"/><path class="xgrid crisp" transform="translate(221.36,0)" d="M0,20v330" style="stroke: rgb(235, 240, 248); stroke-opacity: 1; stroke-width: 1px;"/></g><g class="y"><path class="ygrid crisp" transform="translate(0,305.78)" d="M50,0h211" style="stroke: rgb(235, 240, 248); stroke-opacity: 1; stroke-width: 1px;"/><path class="ygrid crisp" transform="translate(0,261.57)" d="M50,0h211" style="stroke: rgb(235, 240, 248); stroke-opacity: 1; stroke-width: 1px;"/><path class="ygrid crisp" transform="translate(0,217.35)" d="M50,0h211" style="stroke: rgb(235, 240, 248); stroke-opacity: 1; stroke-width: 1px;"/><path class="ygrid crisp" transform="translate(0,173.14)" d="M50,0h211" style="stroke: rgb(235, 240, 248); stroke-opacity: 1; stroke-width: 1px;"/><path class="ygrid crisp" transform="translate(0,128.92000000000002)" d="M50,0h211" style="stroke: rgb(235, 240, 248); stroke-opacity: 1; stroke-width: 1px;"/><path class="ygrid crisp" transform="translate(0,84.7)" d="M50,0h211" style="stroke: rgb(235, 240, 248); stroke-opacity: 1; stroke-width: 1px;"/><path class="ygrid crisp" transform="translate(0,40.489999999999995)" d="M50,0h211" style="stroke: rgb(235, 240, 248); stroke-opacity: 1; stroke-width: 1px;"/></g></g><g class="zerolinelayer"><path class="yzl zl crisp" transform="translate(0,350)" d="M50,0h211" style="stroke: rgb(235, 240, 248); stroke-opacity: 1; stroke-width: 2px;"/></g><path class="xlines-below"/><path class="ylines-below"/><g class="overlines-below"/><g class="xaxislayer-below"/><g class="yaxislayer-below"/><g class="overaxes-below"/><g class="plot" transform="translate(50,20)" clip-path="url(#clip519818xyplot)"><g class="scatterlayer mlayer"><g class="trace scatter trace7fa2e5" style="stroke-miterlimit: 2; opacity: 1;"><g class="fills"><g><path class="js-fill" d="M0,43.5Q2.67,44.4 4.65,45.17C8.28,46.58 16.68,52.79 19.89,51.57C22.32,50.64 22.48,45.37 23.96,43.02C25.14,41.15 26.48,40.04 27.74,38.36C29.14,36.49 31.03,33.65 31.95,32.28C32.41,31.59 32.52,31.31 32.96,30.72C33.61,29.84 34.61,28.98 35.58,27.58C37.2,25.23 39.41,18.93 41.24,17.55C42.13,16.88 43,17.11 43.86,16.93C44.69,16.76 45.64,16.26 46.32,16.5C46.99,16.74 48.07,18.05 47.92,18.38C47.76,18.73 45.16,18.38 45.16,18.45C45.16,18.55 50.13,19.44 50.39,19C50.53,18.76 49.59,17.71 49.52,17.75C49.3,17.87 54.05,24.84 55.47,31.83C59.01,49.32 59.01,126.71 55.47,127.43C54.05,127.72 49.29,113.48 49.52,113.36C49.59,113.32 50.53,114.37 50.39,114.6C50.13,115.04 45.16,114.15 45.16,114.05C45.16,113.98 47.76,114.33 47.92,113.98C48.07,113.65 46.99,112.34 46.32,112.1C45.64,111.86 44.69,112.36 43.86,112.53C43,112.71 42.16,112.54 41.24,113.15C39.51,114.3 37.03,118.49 35.58,120.91C34.43,122.82 33.74,126.12 32.96,126.32C32.6,126.41 32.36,125.54 31.95,125.61C30.96,125.79 29.27,130.23 27.74,131.69C26.55,132.83 25.06,132.72 23.96,134.07C22.19,136.24 22.49,143.95 19.89,144.89C16.69,146.05 8.36,136.95 4.65,136.22Q2.73,135.84 0,136.83Z" style="fill: rgb(38, 16, 96); fill-opacity: 0.05; stroke-width: 0;"/></g></g><g class="errorbars"/><g class="lines"><path class="js-line" d="M0,43.5Q2.67,44.4 4.65,45.17C8.28,46.58 16.68,52.79 19.89,51.57C22.32,50.64 22.48,45.37 23.96,43.02C25.14,41.15 26.48,40.04 27.74,38.36C29.14,36.49 31.03,33.65 31.95,32.28C32.41,31.59 32.52,31.31 32.96,30.72C33.61,29.84 34.61,28.98 35.58,27.58C37.2,25.23 39.41,18.93 41.24,17.55C42.13,16.88 43,17.11 43.86,16.93C44.69,16.76 45.64,16.26 46.32,16.5C46.99,16.74 48.07,18.05 47.92,18.38C47.76,18.73 45.16,18.38 45.16,18.45C45.16,18.55 50.13,19.44 50.39,19C50.53,18.76 49.59,17.71 49.52,17.75C49.3,17.87 54.05,24.84 55.47,31.83C59.01,49.32 59.01,126.71 55.47,127.43C54.05,127.72 49.29,113.48 49.52,113.36C49.59,113.32 50.53,114.37 50.39,114.6C50.13,115.04 45.16,114.15 45.16,114.05C45.16,113.98 47.76,114.33 47.92,113.98C48.07,113.65 46.99,112.34 46.32,112.1C45.64,111.86 44.69,112.36 43.86,112.53C43,112.71 42.16,112.54 41.24,113.15C39.51,114.3 37.03,118.49 35.58,120.91C34.43,122.82 33.74,126.12 32.96,126.32C32.6,126.41 32.36,125.54 31.95,125.61C30.96,125.79 29.27,130.23 27.74,131.69C26.55,132.83 25.06,132.72 23.96,134.07C22.19,136.24 22.49,143.95 19.89,144.89C16.69,146.05 8.36,136.95 4.65,136.22Q2.73,135.84 0,136.83" style="vector-effect: non-scaling-stroke; fill: none; stroke: rgb(255, 255, 255); stroke-opacity: 0; stroke-width: 2px; opacity: 1;"/></g><g class="points"/><g class="text"/></g><g class="trace scatter trace7643ac" style="stroke-miterlimit: 2; opacity: 1;"><g class="fills"><g><path class="js-fill" d="M0,168.63Q2.89,162.85 4.65,157.63C8.64,145.81 15.91,108.75 19.89,98.27C21.41,94.27 22.26,91.19 23.96,90.34C25.07,89.78 26.68,89.9 27.74,90.97C30.53,93.78 30.28,116.04 31.95,117.25C32.28,117.49 32.64,116.87 32.96,117.09C34.1,117.88 34.28,125.76 35.58,130.16C36.98,134.89 39.21,143.39 41.24,144.49C42.09,144.95 43.04,144.33 43.86,143.95C44.74,143.54 45.64,141.89 46.32,142.02C47,142.15 48.08,144.61 47.92,144.76C47.75,144.91 45.13,143.46 45.16,142.73C45.2,141.76 49.95,139.21 50.39,139.56C50.68,139.79 49.56,142.14 49.52,142.13C49.4,142.09 54.17,119.88 55.47,120.05C57.93,120.38 58.3,184.86 55.47,201.99C54.13,210.13 49.52,219.52 49.52,219.52C49.52,219.52 50.68,217.18 50.39,216.95C49.95,216.6 45.2,219.16 45.16,220.13C45.13,220.85 47.75,222.3 47.92,222.15C48.08,222 47,219.54 46.32,219.41C45.64,219.28 44.74,220.93 43.86,221.34C43.04,221.72 42.1,222.31 41.24,221.88C39.31,220.91 36.98,213.81 35.58,209.83C34.3,206.2 34.01,199.74 32.96,199.04C32.64,198.83 32.28,199.43 31.95,199.2C30.41,198.12 30.29,179.95 27.74,177.47C26.68,176.44 25.11,176.37 23.96,176.84C22.41,177.48 21.38,179.48 19.89,182.49C15.8,190.75 8.68,223.01 4.65,232.75Q2.9,236.98 0,241.47Z" style="fill: rgb(0, 68, 148); fill-opacity: 0.05; stroke-width: 0;"/></g></g><g class="errorbars"/><g class="lines"><path class="js-line" d="M0,168.63Q2.89,162.85 4.65,157.63C8.64,145.81 15.91,108.75 19.89,98.27C21.41,94.27 22.26,91.19 23.96,90.34C25.07,89.78 26.68,89.9 27.74,90.97C30.53,93.78 30.28,116.04 31.95,117.25C32.28,117.49 32.64,116.87 32.96,117.09C34.1,117.88 34.28,125.76 35.58,130.16C36.98,134.89 39.21,143.39 41.24,144.49C42.09,144.95 43.04,144.33 43.86,143.95C44.74,143.54 45.64,141.89 46.32,142.02C47,142.15 48.08,144.61 47.92,144.76C47.75,144.91 45.13,143.46 45.16,142.73C45.2,141.76 49.95,139.21 50.39,139.56C50.68,139.79 49.56,142.14 49.52,142.13C49.4,142.09 54.17,119.88 55.47,120.05C57.93,120.38 58.3,184.86 55.47,201.99C54.13,210.13 49.52,219.52 49.52,219.52C49.52,219.52 50.68,217.18 50.39,216.95C49.95,216.6 45.2,219.16 45.16,220.13C45.13,220.85 47.75,222.3 47.92,222.15C48.08,222 47,219.54 46.32,219.41C45.64,219.28 44.74,220.93 43.86,221.34C43.04,221.72 42.1,222.31 41.24,221.88C39.31,220.91 36.98,213.81 35.58,209.83C34.3,206.2 34.01,199.74 32.96,199.04C32.64,198.83 32.28,199.43 31.95,199.2C30.41,198.12 30.29,179.95 27.74,177.47C26.68,176.44 25.11,176.37 23.96,176.84C22.41,177.48 21.38,179.48 19.89,182.49C15.8,190.75 8.68,223.01 4.65,232.75Q2.9,236.98 0,241.47" style="vector-effect: non-scaling-stroke; fill: none; stroke: rgb(255, 255, 255); stroke-opacity: 0; stroke-width: 2px; opacity: 1;"/></g><g class="points"/><g class="text"/></g><g class="trace scatter traceaef8cc" style="stroke-miterlimit: 2; opacity: 1;"><g class="fills"><g><path class="js-fill" d="M0,214.52Q2.84,215.18 4.65,214.41C8.53,212.77 16.5,199.2 19.89,199.41C21.76,199.53 22.62,204.53 23.96,204.54C25.24,204.55 26.45,201.48 27.74,199.87C29.11,198.15 30.96,194.72 31.95,194.52C32.36,194.44 32.61,195.19 32.96,195.08C33.77,194.82 34.23,190.92 35.58,189.47C36.96,187.98 39.73,187.24 41.24,186.31C42.3,185.66 43.02,184.51 43.86,184.55C44.71,184.59 45.6,186.65 46.32,186.61C46.93,186.58 48.04,185.22 47.92,184.98C47.79,184.72 45.25,184.95 45.16,185.32C45.03,185.88 50.15,188.96 50.39,188.73C50.51,188.61 49.45,187.3 49.52,187.25C49.67,187.14 54.02,189.98 55.47,193.7C59.46,203.9 59.96,257.38 55.47,259.71C53.98,260.48 49.77,255.3 49.52,255.53C49.4,255.64 50.52,256.9 50.39,257.02C50.15,257.25 45.03,254.17 45.16,253.61C45.25,253.24 47.79,253.01 47.92,253.27C48.04,253.5 46.98,254.58 46.32,254.89C45.63,255.21 44.69,255.15 43.86,255.11C43,255.07 42.25,254.44 41.24,254.6C39.67,254.85 37.02,256.53 35.58,257.76C34.42,258.75 33.68,260.94 32.96,261.09C32.58,261.17 32.39,260.5 31.95,260.53C31.01,260.59 29.03,262.37 27.74,263.6C26.35,264.92 25.34,268.08 23.96,268.28C22.7,268.46 21.68,265.44 19.89,265.43C16.43,265.41 8.4,274.66 4.65,275.87Q2.77,276.48 0,275.98Z" style="fill: rgb(234, 35, 41); fill-opacity: 0.05; stroke-width: 0;"/></g></g><g class="errorbars"/><g class="lines"><path class="js-line" d="M0,214.52Q2.84,215.18 4.65,214.41C8.53,212.77 16.5,199.2 19.89,199.41C21.76,199.53 22.62,204.53 23.96,204.54C25.24,204.55 26.45,201.48 27.74,199.87C29.11,198.15 30.96,194.72 31.95,194.52C32.36,194.44 32.61,195.19 32.96,195.08C33.77,194.82 34.23,190.92 35.58,189.47C36.96,187.98 39.73,187.24 41.24,186.31C42.3,185.66 43.02,184.51 43.86,184.55C44.71,184.59 45.6,186.65 46.32,186.61C46.93,186.58 48.04,185.22 47.92,184.98C47.79,184.72 45.25,184.95 45.16,185.32C45.03,185.88 50.15,188.96 50.39,188.73C50.51,188.61 49.45,187.3 49.52,187.25C49.67,187.14 54.02,189.98 55.47,193.7C59.46,203.9 59.96,257.38 55.47,259.71C53.98,260.48 49.77,255.3 49.52,255.53C49.4,255.64 50.52,256.9 50.39,257.02C50.15,257.25 45.03,254.17 45.16,253.61C45.25,253.24 47.79,253.01 47.92,253.27C48.04,253.5 46.98,254.58 46.32,254.89C45.63,255.21 44.69,255.15 43.86,255.11C43,255.07 42.25,254.44 41.24,254.6C39.67,254.85 37.02,256.53 35.58,257.76C34.42,258.75 33.68,260.94 32.96,261.09C32.58,261.17 32.39,260.5 31.95,260.53C31.01,260.59 29.03,262.37 27.74,263.6C26.35,264.92 25.34,268.08 23.96,268.28C22.7,268.46 21.68,265.44 19.89,265.43C16.43,265.41 8.4,274.66 4.65,275.87Q2.77,276.48 0,275.98" style="vector-effect: non-scaling-stroke; fill: none; stroke: rgb(255, 255, 255); stroke-opacity: 0; stroke-width: 2px; opacity: 1;"/></g><g class="points"/><g class="text"/></g><g class="trace scatter trace5c4841" style="stroke-miterlimit: 2; opacity: 1;"><g class="fills"><g><path class="js-fill" d="M0,219.22Q2.34,223.94 4.65,226.29C8.07,229.76 16.31,235.85 19.89,236.67C21.58,237.06 22.64,235.96 23.96,236.06C25.26,236.16 26.66,237.81 27.74,237.24C29.81,236.14 30.99,226.1 31.95,223.31C32.37,222.08 32.57,221.83 32.96,220.7C33.66,218.69 33.98,214.13 35.58,212.19C36.94,210.55 39.71,209.2 41.24,209.2C42.28,209.2 43,210.12 43.86,210.6C44.7,211.07 45.56,211.78 46.32,212.04C46.89,212.24 47.9,212.34 47.92,212.26C47.95,212.14 45.11,211.31 45.16,211.03C45.22,210.66 50.35,210.43 50.39,210.59C50.41,210.66 49.6,211.05 49.52,210.95C49.26,210.62 54.05,202.49 55.47,202.96C59.07,204.15 59.53,257.19 55.47,266.7C54.01,270.12 49.38,272.2 49.52,272.41C49.57,272.48 50.41,272.11 50.39,272.04C50.35,271.88 45.22,272.12 45.16,272.49C45.11,272.77 47.95,273.6 47.92,273.72C47.9,273.8 46.89,273.7 46.32,273.5C45.56,273.24 44.71,272.15 43.86,272.06C43.02,271.97 42.29,272.69 41.24,272.93C39.73,273.27 36.95,272.61 35.58,273.65C34.09,274.78 33.82,279.1 32.96,279.89C32.62,280.2 32.3,279.88 31.95,280.22C30.74,281.39 29.67,290.91 27.74,291.87C26.65,292.41 25.26,290.79 23.96,290.69C22.64,290.59 21.65,291.49 19.89,291.3C16.39,290.92 8.03,288.19 4.65,285.47Q2.22,283.51 0,278.4Z" style="fill: rgb(0, 0, 0); fill-opacity: 0.05; stroke-width: 0;"/></g></g><g class="errorbars"/><g class="lines"><path class="js-line" d="M0,219.22Q2.34,223.94 4.65,226.29C8.07,229.76 16.31,235.85 19.89,236.67C21.58,237.06 22.64,235.96 23.96,236.06C25.26,236.16 26.66,237.81 27.74,237.24C29.81,236.14 30.99,226.1 31.95,223.31C32.37,222.08 32.57,221.83 32.96,220.7C33.66,218.69 33.98,214.13 35.58,212.19C36.94,210.55 39.71,209.2 41.24,209.2C42.28,209.2 43,210.12 43.86,210.6C44.7,211.07 45.56,211.78 46.32,212.04C46.89,212.24 47.9,212.34 47.92,212.26C47.95,212.14 45.11,211.31 45.16,211.03C45.22,210.66 50.35,210.43 50.39,210.59C50.41,210.66 49.6,211.05 49.52,210.95C49.26,210.62 54.05,202.49 55.47,202.96C59.07,204.15 59.53,257.19 55.47,266.7C54.01,270.12 49.38,272.2 49.52,272.41C49.57,272.48 50.41,272.11 50.39,272.04C50.35,271.88 45.22,272.12 45.16,272.49C45.11,272.77 47.95,273.6 47.92,273.72C47.9,273.8 46.89,273.7 46.32,273.5C45.56,273.24 44.71,272.15 43.86,272.06C43.02,271.97 42.29,272.69 41.24,272.93C39.73,273.27 36.95,272.61 35.58,273.65C34.09,274.78 33.82,279.1 32.96,279.89C32.62,280.2 32.3,279.88 31.95,280.22C30.74,281.39 29.67,290.91 27.74,291.87C26.65,292.41 25.26,290.79 23.96,290.69C22.64,290.59 21.65,291.49 19.89,291.3C16.39,290.92 8.03,288.19 4.65,285.47Q2.22,283.51 0,278.4" style="vector-effect: non-scaling-stroke; fill: none; stroke: rgb(255, 255, 255); stroke-opacity: 0; stroke-width: 2px; opacity: 1;"/></g><g class="points"/><g class="text"/></g><g class="trace scatter trace7c4417" style="stroke-miterlimit: 2; opacity: 1;"><g class="fills"><g><path class="js-fill" d="M0,231.4Q-0.05,198.95 4.65,196.85C8.07,195.32 16.65,203.62 19.89,207.2C22.1,209.63 22.64,212.21 23.96,214.68C25.25,217.09 26.58,218.94 27.74,221.84C29.34,225.85 31.02,233.57 31.95,236.81C32.4,238.37 32.54,238.87 32.96,240.28C33.62,242.51 34.14,246.45 35.58,248.9C36.95,251.23 39.61,253.61 41.24,254.75C42.21,255.43 42.99,255.57 43.86,255.92C44.69,256.25 45.64,256.98 46.32,256.8C46.98,256.63 47.94,254.99 47.92,254.97C47.9,254.95 45.23,257.88 45.16,257.82C45.06,257.73 50,250.81 50.39,251C50.63,251.12 49.11,253.94 49.52,254.26C50.1,254.72 54.02,250.16 55.47,251.02C59.41,253.36 59.71,296.12 55.47,301.1C54,302.83 49.73,302.44 49.52,302.06C49.42,301.88 50.42,301.11 50.39,301.08C50.33,301.02 45.22,305.68 45.16,305.62C45.12,305.57 47.9,302.75 47.92,302.77C47.94,302.79 46.98,304.43 46.32,304.6C45.64,304.78 44.69,304.05 43.86,303.72C42.99,303.37 42.26,303.09 41.24,302.55C39.69,301.72 36.96,300.62 35.58,298.98C34.18,297.32 33.72,293.88 32.96,292.63C32.6,292.04 32.34,292.08 31.95,291.44C30.91,289.72 29.31,283.76 27.74,281.02C26.57,278.99 25.25,277.79 23.96,276.14C22.63,274.43 21.93,272.65 19.89,270.94C16.59,268.18 8.02,261.23 4.65,262.86Q0.53,264.86 0,288.31Z" style="fill: rgb(93, 140, 0); fill-opacity: 0.05; stroke-width: 0;"/></g></g><g class="errorbars"/><g class="lines"><path class="js-line" d="M0,231.4Q-0.05,198.95 4.65,196.85C8.07,195.32 16.65,203.62 19.89,207.2C22.1,209.63 22.64,212.21 23.96,214.68C25.25,217.09 26.58,218.94 27.74,221.84C29.34,225.85 31.02,233.57 31.95,236.81C32.4,238.37 32.54,238.87 32.96,240.28C33.62,242.51 34.14,246.45 35.58,248.9C36.95,251.23 39.61,253.61 41.24,254.75C42.21,255.43 42.99,255.57 43.86,255.92C44.69,256.25 45.64,256.98 46.32,256.8C46.98,256.63 47.94,254.99 47.92,254.97C47.9,254.95 45.23,257.88 45.16,257.82C45.06,257.73 50,250.81 50.39,251C50.63,251.12 49.11,253.94 49.52,254.26C50.1,254.72 54.02,250.16 55.47,251.02C59.41,253.36 59.71,296.12 55.47,301.1C54,302.83 49.73,302.44 49.52,302.06C49.42,301.88 50.42,301.11 50.39,301.08C50.33,301.02 45.22,305.68 45.16,305.62C45.12,305.57 47.9,302.75 47.92,302.77C47.94,302.79 46.98,304.43 46.32,304.6C45.64,304.78 44.69,304.05 43.86,303.72C42.99,303.37 42.26,303.09 41.24,302.55C39.69,301.72 36.96,300.62 35.58,298.98C34.18,297.32 33.72,293.88 32.96,292.63C32.6,292.04 32.34,292.08 31.95,291.44C30.91,289.72 29.31,283.76 27.74,281.02C26.57,278.99 25.25,277.79 23.96,276.14C22.63,274.43 21.93,272.65 19.89,270.94C16.59,268.18 8.02,261.23 4.65,262.86Q0.53,264.86 0,288.31" style="vector-effect: non-scaling-stroke; fill: none; stroke: rgb(255, 255, 255); stroke-opacity: 0; stroke-width: 2px; opacity: 1;"/></g><g class="points"/><g class="text"/></g><g class="trace scatter traced9794b" style="stroke-miterlimit: 2; opacity: 1;"><g class="fills"><g><path class="js-fill" d="M0,240.53Q2.8,240.7 4.65,241.66C8.46,243.63 16.68,250.32 19.89,254.92C22.3,258.37 22.43,262.7 23.96,265.58C25.12,267.77 26.27,270.63 27.74,270.98C28.99,271.28 31.01,268.83 31.95,268.71C32.39,268.65 32.57,269.05 32.96,268.96C33.67,268.79 34.45,267.24 35.58,266.69C37.04,265.98 39.71,265.81 41.24,265.62C42.27,265.49 43.01,265.59 43.86,265.45C44.7,265.32 45.62,265.18 46.32,264.82C46.95,264.49 47.87,263.41 47.92,263.46C47.99,263.53 44.99,266.49 45.16,266.69C45.36,266.93 50.38,263.62 50.39,263.64C50.4,263.65 49.5,264.17 49.52,264.2C49.57,264.28 54.03,260.62 55.47,261.56C59.28,264.04 59.5,302.81 55.47,307.09C54.01,308.64 49.91,306.77 49.52,307.45C49.3,307.84 50.6,308.75 50.39,309.16C50.04,309.85 45.19,310.07 45.16,309.94C45.14,309.84 47.84,308.85 47.92,308.99C47.99,309.11 46.93,310.32 46.32,310.35C45.6,310.39 44.74,308.94 43.86,308.7C43.04,308.48 42.27,308.73 41.24,308.86C39.71,309.05 37.04,309.23 35.58,309.94C34.45,310.49 33.67,312.04 32.96,312.21C32.57,312.3 32.39,311.9 31.95,311.96C31.01,312.08 28.99,314.53 27.74,314.23C26.27,313.88 25.23,310.69 23.96,308.83C22.62,306.86 22,304.69 19.89,302.72C16.62,299.67 8.34,295.48 4.65,294.01Q2.72,293.24 0,292.89Z" style="fill: rgb(114, 55, 105); fill-opacity: 0.05; stroke-width: 0;"/></g></g><g class="errorbars"/><g class="lines"><path class="js-line" d="M0,240.53Q2.8,240.7 4.65,241.66C8.46,243.63 16.68,250.32 19.89,254.92C22.3,258.37 22.43,262.7 23.96,265.58C25.12,267.77 26.27,270.63 27.74,270.98C28.99,271.28 31.01,268.83 31.95,268.71C32.39,268.65 32.57,269.05 32.96,268.96C33.67,268.79 34.45,267.24 35.58,266.69C37.04,265.98 39.71,265.81 41.24,265.62C42.27,265.49 43.01,265.59 43.86,265.45C44.7,265.32 45.62,265.18 46.32,264.82C46.95,264.49 47.87,263.41 47.92,263.46C47.99,263.53 44.99,266.49 45.16,266.69C45.36,266.93 50.38,263.62 50.39,263.64C50.4,263.65 49.5,264.17 49.52,264.2C49.57,264.28 54.03,260.62 55.47,261.56C59.28,264.04 59.5,302.81 55.47,307.09C54.01,308.64 49.91,306.77 49.52,307.45C49.3,307.84 50.6,308.75 50.39,309.16C50.04,309.85 45.19,310.07 45.16,309.94C45.14,309.84 47.84,308.85 47.92,308.99C47.99,309.11 46.93,310.32 46.32,310.35C45.6,310.39 44.74,308.94 43.86,308.7C43.04,308.48 42.27,308.73 41.24,308.86C39.71,309.05 37.04,309.23 35.58,309.94C34.45,310.49 33.67,312.04 32.96,312.21C32.57,312.3 32.39,311.9 31.95,311.96C31.01,312.08 28.99,314.53 27.74,314.23C26.27,313.88 25.23,310.69 23.96,308.83C22.62,306.86 22,304.69 19.89,302.72C16.62,299.67 8.34,295.48 4.65,294.01Q2.72,293.24 0,292.89" style="vector-effect: non-scaling-stroke; fill: none; stroke: rgb(255, 255, 255); stroke-opacity: 0; stroke-width: 2px; opacity: 1;"/></g><g class="points"/><g class="text"/></g><g class="trace scatter tracee1c60a" style="stroke-miterlimit: 2; opacity: 1;"><g class="fills"><g><path class="js-fill" d="M0,251.17Q1.1,266.67 4.65,268.68C7.98,270.56 16.59,263.35 19.89,264.26C21.92,264.82 22.53,267.56 23.96,268.64C25.17,269.55 26.42,270.08 27.74,270.57C29.08,271.07 31.04,271.74 31.95,271.61C32.42,271.54 32.53,271.08 32.96,271.03C33.62,270.95 34.53,271.55 35.58,271.79C37.1,272.13 39.81,271.92 41.24,272.72C42.43,273.39 42.95,275.64 43.86,275.75C44.65,275.85 45.61,274.62 46.32,274.01C46.94,273.48 48.01,272.48 47.92,272.35C47.81,272.2 45.16,273.52 45.16,273.53C45.16,273.54 50.25,271.19 50.39,271.39C50.45,271.48 49.47,271.93 49.52,272.28C49.64,273.1 54.07,273.23 55.47,275.61C58.8,281.29 59.07,311.29 55.47,314.31C54.05,315.5 49.7,313.82 49.52,313.26C49.44,313 50.46,312.46 50.39,312.36C50.25,312.16 45.16,314.52 45.16,314.51C45.16,314.5 47.82,313.18 47.92,313.33C48.01,313.46 46.98,314.78 46.32,314.98C45.63,315.19 44.69,314.66 43.86,314.45C43,314.23 42.29,313.93 41.24,313.69C39.72,313.35 37.07,312.5 35.58,312.77C34.5,312.97 33.58,314.44 32.96,314.28C32.46,314.15 32.53,313.02 31.95,312.59C31.09,311.95 29.11,311.64 27.74,311.54C26.45,311.44 25.14,312.34 23.96,311.89C22.48,311.32 21.92,308.07 19.89,307.51C16.59,306.6 7.97,313.49 4.65,311.93Q1.81,310.6 0,301.25Z" style="fill: rgb(230, 172, 33); fill-opacity: 0.05; stroke-width: 0;"/></g></g><g class="errorbars"/><g class="lines"><path class="js-line" d="M0,251.17Q1.1,266.67 4.65,268.68C7.98,270.56 16.59,263.35 19.89,264.26C21.92,264.82 22.53,267.56 23.96,268.64C25.17,269.55 26.42,270.08 27.74,270.57C29.08,271.07 31.04,271.74 31.95,271.61C32.42,271.54 32.53,271.08 32.96,271.03C33.62,270.95 34.53,271.55 35.58,271.79C37.1,272.13 39.81,271.92 41.24,272.72C42.43,273.39 42.95,275.64 43.86,275.75C44.65,275.85 45.61,274.62 46.32,274.01C46.94,273.48 48.01,272.48 47.92,272.35C47.81,272.2 45.16,273.52 45.16,273.53C45.16,273.54 50.25,271.19 50.39,271.39C50.45,271.48 49.47,271.93 49.52,272.28C49.64,273.1 54.07,273.23 55.47,275.61C58.8,281.29 59.07,311.29 55.47,314.31C54.05,315.5 49.7,313.82 49.52,313.26C49.44,313 50.46,312.46 50.39,312.36C50.25,312.16 45.16,314.52 45.16,314.51C45.16,314.5 47.82,313.18 47.92,313.33C48.01,313.46 46.98,314.78 46.32,314.98C45.63,315.19 44.69,314.66 43.86,314.45C43,314.23 42.29,313.93 41.24,313.69C39.72,313.35 37.07,312.5 35.58,312.77C34.5,312.97 33.58,314.44 32.96,314.28C32.46,314.15 32.53,313.02 31.95,312.59C31.09,311.95 29.11,311.64 27.74,311.54C26.45,311.44 25.14,312.34 23.96,311.89C22.48,311.32 21.92,308.07 19.89,307.51C16.59,306.6 7.97,313.49 4.65,311.93Q1.81,310.6 0,301.25" style="vector-effect: non-scaling-stroke; fill: none; stroke: rgb(255, 255, 255); stroke-opacity: 0; stroke-width: 2px; opacity: 1;"/></g><g class="points"/><g class="text"/></g><g class="trace scatter traceb9fc1d" style="stroke-miterlimit: 2; opacity: 1;"><g class="fills"><g><path class="js-fill" d="M0,267.37Q2.68,269.36 4.65,270.98C8.29,273.97 16.23,282.79 19.89,284.21C21.53,284.85 22.76,284.91 23.96,284.32C25.47,283.58 26.6,281.37 27.74,279.13C29.41,275.84 30.71,266.52 31.95,265.94C32.3,265.78 32.58,266.44 32.96,266.36C33.68,266.21 34.5,263.63 35.58,263.55C37.07,263.44 39.63,267.35 41.24,268.11C42.22,268.57 43.1,268.12 43.86,268.65C44.87,269.36 45.52,271.67 46.32,272.64C46.86,273.3 47.83,274.2 47.92,274.13C48.05,274.02 45.09,269.84 45.16,269.79C45.25,269.73 50.39,276.64 50.39,276.64C50.39,276.64 49.42,275.63 49.52,275.5C49.74,275.22 54.06,275.86 55.47,277.97C58.92,283.14 58.92,314.37 55.47,316.67C54.06,317.61 49.74,313.92 49.52,314.2C49.42,314.33 50.49,315.21 50.39,315.33C50.2,315.58 45.26,312.88 45.16,313.04C45.09,313.17 47.88,315.14 47.92,315.1C47.95,315.07 46.93,314.1 46.32,313.61C45.61,313.03 44.73,312.27 43.86,311.9C43.03,311.55 42.26,311.67 41.24,311.36C39.69,310.89 37.13,309.22 35.58,309.08C34.56,308.99 33.57,309.16 32.96,309.61C32.42,310.01 32.42,310.67 31.95,311.46C31.05,312.96 29.25,316.21 27.74,317.83C26.55,319.11 25.33,320.29 23.96,320.74C22.7,321.15 21.63,321.01 19.89,320.63C16.38,319.87 8.18,316.29 4.65,314.23Q2.55,313 0,310.62Z" style="fill: rgb(240, 125, 0); fill-opacity: 0.05; stroke-width: 0;"/></g></g><g class="errorbars"/><g class="lines"><path class="js-line" d="M0,267.37Q2.68,269.36 4.65,270.98C8.29,273.97 16.23,282.79 19.89,284.21C21.53,284.85 22.76,284.91 23.96,284.32C25.47,283.58 26.6,281.37 27.74,279.13C29.41,275.84 30.71,266.52 31.95,265.94C32.3,265.78 32.58,266.44 32.96,266.36C33.68,266.21 34.5,263.63 35.58,263.55C37.07,263.44 39.63,267.35 41.24,268.11C42.22,268.57 43.1,268.12 43.86,268.65C44.87,269.36 45.52,271.67 46.32,272.64C46.86,273.3 47.83,274.2 47.92,274.13C48.05,274.02 45.09,269.84 45.16,269.79C45.25,269.73 50.39,276.64 50.39,276.64C50.39,276.64 49.42,275.63 49.52,275.5C49.74,275.22 54.06,275.86 55.47,277.97C58.92,283.14 58.92,314.37 55.47,316.67C54.06,317.61 49.74,313.92 49.52,314.2C49.42,314.33 50.49,315.21 50.39,315.33C50.2,315.58 45.26,312.88 45.16,313.04C45.09,313.17 47.88,315.14 47.92,315.1C47.95,315.07 46.93,314.1 46.32,313.61C45.61,313.03 44.73,312.27 43.86,311.9C43.03,311.55 42.26,311.67 41.24,311.36C39.69,310.89 37.13,309.22 35.58,309.08C34.56,308.99 33.57,309.16 32.96,309.61C32.42,310.01 32.42,310.67 31.95,311.46C31.05,312.96 29.25,316.21 27.74,317.83C26.55,319.11 25.33,320.29 23.96,320.74C22.7,321.15 21.63,321.01 19.89,320.63C16.38,319.87 8.18,316.29 4.65,314.23Q2.55,313 0,310.62" style="vector-effect: non-scaling-stroke; fill: none; stroke: rgb(255, 255, 255); stroke-opacity: 0; stroke-width: 2px; opacity: 1;"/></g><g class="points"/><g class="text"/></g><g class="trace scatter trace46094e" style="stroke-miterlimit: 2; opacity: 1;"><g class="fills"><g><path class="js-fill" d="M0,273.13Q1.7,282.27 4.65,284.25C7.96,286.47 16.47,285 19.89,284.35C21.72,284 22.66,282.58 23.96,282.72C25.28,282.86 26.43,284.46 27.74,285.29C29.09,286.14 31.08,286.92 31.95,287.75C32.48,288.25 32.45,288.98 32.96,289.27C33.58,289.62 34.62,289.74 35.58,289.4C37.22,288.81 39.63,285.26 41.24,284.26C42.22,283.66 43.03,283.71 43.86,283.24C44.73,282.75 45.55,281.49 46.32,281.33C46.88,281.21 47.93,281.69 47.92,281.72C47.91,281.76 45.16,281.3 45.16,281.31C45.16,281.32 50.36,282.27 50.39,282.16C50.4,282.11 49.54,281.77 49.52,281.81C49.46,281.92 54.11,283.23 55.47,285.77C58.44,291.32 58.74,317.44 55.47,319.91C54.08,320.96 49.54,318.17 49.52,318.23C49.51,318.25 50.4,318.44 50.39,318.58C50.37,318.92 45.27,320.25 45.16,320.01C45.07,319.82 47.83,318.04 47.92,318.14C48,318.23 46.99,319.77 46.32,320.02C45.64,320.28 44.68,319.57 43.86,319.66C42.99,319.76 42.27,320.22 41.24,320.68C39.7,321.37 37.14,323.2 35.58,323.54C34.57,323.76 33.58,323.77 32.96,323.42C32.44,323.13 32.52,322.21 31.95,321.89C31.08,321.4 29.05,322.14 27.74,321.71C26.38,321.26 25.28,319.28 23.96,319.14C22.66,319 21.72,320.42 19.89,320.77C16.47,321.42 8.02,322.43 4.65,320.67Q2.2,319.39 0,314.11Z" style="fill: rgb(0, 51, 255); fill-opacity: 0.05; stroke-width: 0;"/></g></g><g class="errorbars"/><g class="lines"><path class="js-line" d="M0,273.13Q1.7,282.27 4.65,284.25C7.96,286.47 16.47,285 19.89,284.35C21.72,284 22.66,282.58 23.96,282.72C25.28,282.86 26.43,284.46 27.74,285.29C29.09,286.14 31.08,286.92 31.95,287.75C32.48,288.25 32.45,288.98 32.96,289.27C33.58,289.62 34.62,289.74 35.58,289.4C37.22,288.81 39.63,285.26 41.24,284.26C42.22,283.66 43.03,283.71 43.86,283.24C44.73,282.75 45.55,281.49 46.32,281.33C46.88,281.21 47.93,281.69 47.92,281.72C47.91,281.76 45.16,281.3 45.16,281.31C45.16,281.32 50.36,282.27 50.39,282.16C50.4,282.11 49.54,281.77 49.52,281.81C49.46,281.92 54.11,283.23 55.47,285.77C58.44,291.32 58.74,317.44 55.47,319.91C54.08,320.96 49.54,318.17 49.52,318.23C49.51,318.25 50.4,318.44 50.39,318.58C50.37,318.92 45.27,320.25 45.16,320.01C45.07,319.82 47.83,318.04 47.92,318.14C48,318.23 46.99,319.77 46.32,320.02C45.64,320.28 44.68,319.57 43.86,319.66C42.99,319.76 42.27,320.22 41.24,320.68C39.7,321.37 37.14,323.2 35.58,323.54C34.57,323.76 33.58,323.77 32.96,323.42C32.44,323.13 32.52,322.21 31.95,321.89C31.08,321.4 29.05,322.14 27.74,321.71C26.38,321.26 25.28,319.28 23.96,319.14C22.66,319 21.72,320.42 19.89,320.77C16.47,321.42 8.02,322.43 4.65,320.67Q2.2,319.39 0,314.11" style="vector-effect: non-scaling-stroke; fill: none; stroke: rgb(255, 255, 255); stroke-opacity: 0; stroke-width: 2px; opacity: 1;"/></g><g class="points"/><g class="text"/></g><g class="trace scatter traceb23a46" style="stroke-miterlimit: 2; opacity: 1;"><g class="fills"><g><path class="js-fill" d="M0,279.5Q2.85,278.17 4.65,278.79C8.56,280.14 16.34,294.7 19.89,294.98C21.6,295.11 22.54,292.31 23.96,291.83C25.18,291.42 26.48,292.15 27.74,291.86C29.15,291.53 31.01,289.98 31.95,289.73C32.39,289.61 32.57,289.82 32.96,289.68C33.66,289.44 34.47,288.17 35.58,287.83C37.05,287.38 39.72,287.78 41.24,287.98C42.29,288.12 43,288.41 43.86,288.6C44.69,288.79 45.69,288.52 46.32,289.12C47.31,290.06 48.04,295.07 47.92,295.11C47.79,295.15 44.86,288.25 45.16,288.08C45.48,287.9 50.17,295.26 50.39,295.14C50.5,295.08 49.23,293.36 49.52,292.99C49.99,292.39 54.1,292.29 55.47,293.87C58.5,297.38 58.47,319.67 55.47,323.46C54.11,325.18 49.51,324.81 49.52,324.86C49.52,324.88 50.37,324.85 50.39,324.73C50.44,324.42 45.29,322.03 45.16,322.23C45.05,322.39 47.92,324.7 47.92,324.7C47.92,324.7 46.96,323.59 46.32,323.27C45.63,322.92 44.69,322.94 43.86,322.75C43,322.56 42.29,322.27 41.24,322.13C39.72,321.93 37.1,322.11 35.58,321.97C34.54,321.87 33.63,321.59 32.96,321.55C32.55,321.53 32.39,321.48 31.95,321.59C31.01,321.84 29.15,323.4 27.74,323.73C26.48,324.02 25.24,323.56 23.96,323.69C22.62,323.83 21.64,324.76 19.89,324.57C16.38,324.18 8.32,318.01 4.65,317.49Q2.71,317.21 0,318.2Z" style="fill: rgb(140, 0, 0); fill-opacity: 0.05; stroke-width: 0;"/></g></g><g class="errorbars"/><g class="lines"><path class="js-line" d="M0,279.5Q2.85,278.17 4.65,278.79C8.56,280.14 16.34,294.7 19.89,294.98C21.6,295.11 22.54,292.31 23.96,291.83C25.18,291.42 26.48,292.15 27.74,291.86C29.15,291.53 31.01,289.98 31.95,289.73C32.39,289.61 32.57,289.82 32.96,289.68C33.66,289.44 34.47,288.17 35.58,287.83C37.05,287.38 39.72,287.78 41.24,287.98C42.29,288.12 43,288.41 43.86,288.6C44.69,288.79 45.69,288.52 46.32,289.12C47.31,290.06 48.04,295.07 47.92,295.11C47.79,295.15 44.86,288.25 45.16,288.08C45.48,287.9 50.17,295.26 50.39,295.14C50.5,295.08 49.23,293.36 49.52,292.99C49.99,292.39 54.1,292.29 55.47,293.87C58.5,297.38 58.47,319.67 55.47,323.46C54.11,325.18 49.51,324.81 49.52,324.86C49.52,324.88 50.37,324.85 50.39,324.73C50.44,324.42 45.29,322.03 45.16,322.23C45.05,322.39 47.92,324.7 47.92,324.7C47.92,324.7 46.96,323.59 46.32,323.27C45.63,322.92 44.69,322.94 43.86,322.75C43,322.56 42.29,322.27 41.24,322.13C39.72,321.93 37.1,322.11 35.58,321.97C34.54,321.87 33.63,321.59 32.96,321.55C32.55,321.53 32.39,321.48 31.95,321.59C31.01,321.84 29.15,323.4 27.74,323.73C26.48,324.02 25.24,323.56 23.96,323.69C22.62,323.83 21.64,324.76 19.89,324.57C16.38,324.18 8.32,318.01 4.65,317.49Q2.71,317.21 0,318.2" style="vector-effect: non-scaling-stroke; fill: none; stroke: rgb(255, 255, 255); stroke-opacity: 0; stroke-width: 2px; opacity: 1;"/></g><g class="points"/><g class="text"/></g><g class="trace scatter traceb94429" style="stroke-miterlimit: 2; opacity: 1;"><g class="fills"/><g class="errorbars"/><g class="lines"><path class="js-line" d="M0,90.68Q2.71,90.72 4.65,91.29C8.33,92.38 16.69,99.77 19.89,98.55C22.41,97.59 22.41,91.4 23.96,88.89C25.11,87.01 26.46,86 27.74,84.44C29.12,82.76 30.98,80.06 31.95,79.14C32.37,78.75 32.58,78.81 32.96,78.43C33.68,77.71 34.55,76.22 35.58,74.74C37.11,72.55 39.56,68.17 41.24,66.56C42.18,65.66 42.97,65.09 43.86,64.91C44.66,64.75 45.59,65.18 46.32,65.33C46.91,65.45 47.93,65.66 47.92,65.73C47.91,65.82 45.19,65.51 45.16,65.66C45.12,65.88 50.2,67.65 50.39,67.38C50.48,67.24 49.6,66.3 49.52,66.35Q49.25,66.52 55.47,79.6" style="vector-effect: non-scaling-stroke; fill: none; stroke: rgb(38, 16, 96); stroke-opacity: 1; stroke-width: 7px; opacity: 1;"/></g><g class="points"/><g class="text"/></g><g class="trace scatter tracebe331a" style="stroke-miterlimit: 2; opacity: 1;"><g class="fills"/><g class="errorbars"/><g class="lines"/><g class="points"><path class="point" transform="translate(0,90.35)" d="M7.5,0A7.5,7.5 0 1,1 0,-7.5A7.5,7.5 0 0,1 7.5,0Z" style="opacity: 1; stroke-width: 0px; fill: rgb(38, 16, 96); fill-opacity: 0.25;"/><path class="point" transform="translate(4.65,91.23)" d="M7.5,0A7.5,7.5 0 1,1 0,-7.5A7.5,7.5 0 0,1 7.5,0Z" style="opacity: 1; stroke-width: 0px; fill: rgb(38, 16, 96); fill-opacity: 0.25;"/><path class="point" transform="translate(19.89,108.92)" d="M7.5,0A7.5,7.5 0 1,1 0,-7.5A7.5,7.5 0 0,1 7.5,0Z" style="opacity: 1; stroke-width: 0px; fill: rgb(38, 16, 96); fill-opacity: 0.25;"/><path class="point" transform="translate(23.96,86.81)" d="M7.5,0A7.5,7.5 0 1,1 0,-7.5A7.5,7.5 0 0,1 7.5,0Z" style="opacity: 1; stroke-width: 0px; fill: rgb(38, 16, 96); fill-opacity: 0.25;"/><path class="point" transform="translate(27.74,86.81)" d="M7.5,0A7.5,7.5 0 1,1 0,-7.5A7.5,7.5 0 0,1 7.5,0Z" style="opacity: 1; stroke-width: 0px; fill: rgb(38, 16, 96); fill-opacity: 0.25;"/><path class="point" transform="translate(31.95,77.97)" d="M7.5,0A7.5,7.5 0 1,1 0,-7.5A7.5,7.5 0 0,1 7.5,0Z" style="opacity: 1; stroke-width: 0px; fill: rgb(38, 16, 96); fill-opacity: 0.25;"/><path class="point" transform="translate(32.96,82.39)" d="M7.5,0A7.5,7.5 0 1,1 0,-7.5A7.5,7.5 0 0,1 7.5,0Z" style="opacity: 1; stroke-width: 0px; fill: rgb(38, 16, 96); fill-opacity: 0.25;"/><path class="point" transform="translate(35.58,73.55)" d="M7.5,0A7.5,7.5 0 1,1 0,-7.5A7.5,7.5 0 0,1 7.5,0Z" style="opacity: 1; stroke-width: 0px; fill: rgb(38, 16, 96); fill-opacity: 0.25;"/><path class="point" transform="translate(41.24,64.7)" d="M7.5,0A7.5,7.5 0 1,1 0,-7.5A7.5,7.5 0 0,1 7.5,0Z" style="opacity: 1; stroke-width: 0px; fill: rgb(38, 16, 96); fill-opacity: 0.25;"/><path class="point" transform="translate(43.86,54.98)" d="M7.5,0A7.5,7.5 0 1,1 0,-7.5A7.5,7.5 0 0,1 7.5,0Z" style="opacity: 1; stroke-width: 0px; fill: rgb(38, 16, 96); fill-opacity: 0.25;"/><path class="point" transform="translate(46.32,60.28)" d="M7.5,0A7.5,7.5 0 1,1 0,-7.5A7.5,7.5 0 0,1 7.5,0Z" style="opacity: 1; stroke-width: 0px; fill: rgb(38, 16, 96); fill-opacity: 0.25;"/><path class="point" transform="translate(47.92,64.7)" d="M7.5,0A7.5,7.5 0 1,1 0,-7.5A7.5,7.5 0 0,1 7.5,0Z" style="opacity: 1; stroke-width: 0px; fill: rgb(38, 16, 96); fill-opacity: 0.25;"/><path class="point" transform="translate(45.16,73.55)" d="M7.5,0A7.5,7.5 0 1,1 0,-7.5A7.5,7.5 0 0,1 7.5,0Z" style="opacity: 1; stroke-width: 0px; fill: rgb(38, 16, 96); fill-opacity: 0.25;"/><path class="point" transform="translate(50.39,69.12)" d="M7.5,0A7.5,7.5 0 1,1 0,-7.5A7.5,7.5 0 0,1 7.5,0Z" style="opacity: 1; stroke-width: 0px; fill: rgb(38, 16, 96); fill-opacity: 0.25;"/><path class="point" transform="translate(49.52,60.28)" d="M7.5,0A7.5,7.5 0 1,1 0,-7.5A7.5,7.5 0 0,1 7.5,0Z" style="opacity: 1; stroke-width: 0px; fill: rgb(38, 16, 96); fill-opacity: 0.25;"/><path class="point" transform="translate(55.47,95.65)" d="M7.5,0A7.5,7.5 0 1,1 0,-7.5A7.5,7.5 0 0,1 7.5,0Z" style="opacity: 1; stroke-width: 0px; fill: rgb(38, 16, 96); fill-opacity: 0.25;"/></g><g class="text"/></g><g class="trace scatter traced28956" style="stroke-miterlimit: 2; opacity: 1;"><g class="fills"/><g class="errorbars"/><g class="lines"><path class="js-line" d="M0,204.56Q2.91,199.65 4.65,195.08C8.69,184.5 15.72,149.36 19.89,140.62C21.36,137.54 22.4,135.86 23.96,134.89C25.11,134.17 26.68,133.51 27.74,134.26C30.4,136.14 30.35,156.49 31.95,158.06C32.28,158.38 32.64,157.92 32.96,158.22C34.06,159.26 34.28,166.18 35.58,170.19C36.98,174.5 39.27,181.58 41.24,183.18C42.1,183.88 43.06,183.97 43.86,183.72C44.78,183.43 45.59,181.08 46.32,181.09C46.92,181.1 48.06,182.63 47.92,182.91C47.77,183.2 45.26,183.03 45.16,182.66C45.01,182.1 50.06,178.73 50.39,179C50.58,179.16 49.57,181.01 49.52,180.99Q49.36,180.93 55.47,162.1" style="vector-effect: non-scaling-stroke; fill: none; stroke: rgb(0, 68, 148); stroke-opacity: 1; stroke-width: 7px; opacity: 1;"/></g><g class="points"/><g class="text"/></g><g class="trace scatter trace43e3d4" style="stroke-miterlimit: 2; opacity: 1;"><g class="fills"/><g class="errorbars"/><g class="lines"/><g class="points"><path class="point" transform="translate(0,209.73)" d="M7.5,0A7.5,7.5 0 1,1 0,-7.5A7.5,7.5 0 0,1 7.5,0Z" style="opacity: 1; stroke-width: 0px; fill: rgb(0, 68, 148); fill-opacity: 0.25;"/><path class="point" transform="translate(4.65,192.93)" d="M7.5,0A7.5,7.5 0 1,1 0,-7.5A7.5,7.5 0 0,1 7.5,0Z" style="opacity: 1; stroke-width: 0px; fill: rgb(0, 68, 148); fill-opacity: 0.25;"/><path class="point" transform="translate(19.89,144.29)" d="M7.5,0A7.5,7.5 0 1,1 0,-7.5A7.5,7.5 0 0,1 7.5,0Z" style="opacity: 1; stroke-width: 0px; fill: rgb(0, 68, 148); fill-opacity: 0.25;"/><path class="point" transform="translate(23.96,131.03)" d="M7.5,0A7.5,7.5 0 1,1 0,-7.5A7.5,7.5 0 0,1 7.5,0Z" style="opacity: 1; stroke-width: 0px; fill: rgb(0, 68, 148); fill-opacity: 0.25;"/><path class="point" transform="translate(27.74,100.08)" d="M7.5,0A7.5,7.5 0 1,1 0,-7.5A7.5,7.5 0 0,1 7.5,0Z" style="opacity: 1; stroke-width: 0px; fill: rgb(0, 68, 148); fill-opacity: 0.25;"/><path class="point" transform="translate(31.95,184.09)" d="M7.5,0A7.5,7.5 0 1,1 0,-7.5A7.5,7.5 0 0,1 7.5,0Z" style="opacity: 1; stroke-width: 0px; fill: rgb(0, 68, 148); fill-opacity: 0.25;"/><path class="point" transform="translate(32.96,131.03)" d="M7.5,0A7.5,7.5 0 1,1 0,-7.5A7.5,7.5 0 0,1 7.5,0Z" style="opacity: 1; stroke-width: 0px; fill: rgb(0, 68, 148); fill-opacity: 0.25;"/><path class="point" transform="translate(35.58,187.62)" d="M7.5,0A7.5,7.5 0 1,1 0,-7.5A7.5,7.5 0 0,1 7.5,0Z" style="opacity: 1; stroke-width: 0px; fill: rgb(0, 68, 148); fill-opacity: 0.25;"/><path class="point" transform="translate(41.24,192.93)" d="M7.5,0A7.5,7.5 0 1,1 0,-7.5A7.5,7.5 0 0,1 7.5,0Z" style="opacity: 1; stroke-width: 0px; fill: rgb(0, 68, 148); fill-opacity: 0.25;"/><path class="point" transform="translate(43.86,192.93)" d="M7.5,0A7.5,7.5 0 1,1 0,-7.5A7.5,7.5 0 0,1 7.5,0Z" style="opacity: 1; stroke-width: 0px; fill: rgb(0, 68, 148); fill-opacity: 0.25;"/><path class="point" transform="translate(46.32,157.56)" d="M7.5,0A7.5,7.5 0 1,1 0,-7.5A7.5,7.5 0 0,1 7.5,0Z" style="opacity: 1; stroke-width: 0px; fill: rgb(0, 68, 148); fill-opacity: 0.25;"/><path class="point" transform="translate(47.92,204.43)" d="M7.5,0A7.5,7.5 0 1,1 0,-7.5A7.5,7.5 0 0,1 7.5,0Z" style="opacity: 1; stroke-width: 0px; fill: rgb(0, 68, 148); fill-opacity: 0.25;"/><path class="point" transform="translate(45.16,188.51)" d="M7.5,0A7.5,7.5 0 1,1 0,-7.5A7.5,7.5 0 0,1 7.5,0Z" style="opacity: 1; stroke-width: 0px; fill: rgb(0, 68, 148); fill-opacity: 0.25;"/><path class="point" transform="translate(50.39,170.82)" d="M7.5,0A7.5,7.5 0 1,1 0,-7.5A7.5,7.5 0 0,1 7.5,0Z" style="opacity: 1; stroke-width: 0px; fill: rgb(0, 68, 148); fill-opacity: 0.25;"/><path class="point" transform="translate(49.52,188.51)" d="M7.5,0A7.5,7.5 0 1,1 0,-7.5A7.5,7.5 0 0,1 7.5,0Z" style="opacity: 1; stroke-width: 0px; fill: rgb(0, 68, 148); fill-opacity: 0.25;"/><path class="point" transform="translate(55.47,139.87)" d="M7.5,0A7.5,7.5 0 1,1 0,-7.5A7.5,7.5 0 0,1 7.5,0Z" style="opacity: 1; stroke-width: 0px; fill: rgb(0, 68, 148); fill-opacity: 0.25;"/></g><g class="text"/></g><g class="trace scatter trace3e1f69" style="stroke-miterlimit: 2; opacity: 1;"><g class="fills"/><g class="errorbars"/><g class="lines"><path class="js-line" d="M0,245.17Q2.8,245.91 4.65,245.28C8.45,243.99 16.48,232.8 19.89,232.96C21.73,233.05 22.66,237 23.96,236.94C25.28,236.88 26.4,233.88 27.74,232.51C29.06,231.16 31,229.42 31.95,228.75C32.38,228.44 32.59,228.52 32.96,228.19C33.69,227.55 34.42,225.77 35.58,224.69C37.02,223.34 39.66,221.67 41.24,221.03C42.23,220.63 43,220.56 43.86,220.51C44.69,220.47 45.6,220.84 46.32,220.73C46.92,220.64 47.94,220.24 47.92,220.08C47.89,219.88 45.25,219.5 45.16,219.74C45.03,220.09 50.33,223.24 50.39,223.16C50.42,223.13 49.51,222.38 49.52,222.37Q49.54,222.34 55.47,227.29" style="vector-effect: non-scaling-stroke; fill: none; stroke: rgb(234, 35, 41); stroke-opacity: 1; stroke-width: 7px; opacity: 1;"/></g><g class="points"/><g class="text"/></g><g class="trace scatter trace73cd30" style="stroke-miterlimit: 2; opacity: 1;"><g class="fills"/><g class="errorbars"/><g class="lines"/><g class="points"><path class="point" transform="translate(0,245.1)" d="M7.5,0A7.5,7.5 0 1,1 0,-7.5A7.5,7.5 0 0,1 7.5,0Z" style="opacity: 1; stroke-width: 0px; fill: rgb(234, 35, 41); fill-opacity: 0.25;"/><path class="point" transform="translate(4.65,245.99)" d="M7.5,0A7.5,7.5 0 1,1 0,-7.5A7.5,7.5 0 0,1 7.5,0Z" style="opacity: 1; stroke-width: 0px; fill: rgb(234, 35, 41); fill-opacity: 0.25;"/><path class="point" transform="translate(19.89,228.3)" d="M7.5,0A7.5,7.5 0 1,1 0,-7.5A7.5,7.5 0 0,1 7.5,0Z" style="opacity: 1; stroke-width: 0px; fill: rgb(234, 35, 41); fill-opacity: 0.25;"/><path class="point" transform="translate(23.96,245.99)" d="M7.5,0A7.5,7.5 0 1,1 0,-7.5A7.5,7.5 0 0,1 7.5,0Z" style="opacity: 1; stroke-width: 0px; fill: rgb(234, 35, 41); fill-opacity: 0.25;"/><path class="point" transform="translate(27.74,232.72)" d="M7.5,0A7.5,7.5 0 1,1 0,-7.5A7.5,7.5 0 0,1 7.5,0Z" style="opacity: 1; stroke-width: 0px; fill: rgb(234, 35, 41); fill-opacity: 0.25;"/><path class="point" transform="translate(31.95,228.3)" d="M7.5,0A7.5,7.5 0 1,1 0,-7.5A7.5,7.5 0 0,1 7.5,0Z" style="opacity: 1; stroke-width: 0px; fill: rgb(234, 35, 41); fill-opacity: 0.25;"/><path class="point" transform="translate(32.96,232.72)" d="M7.5,0A7.5,7.5 0 1,1 0,-7.5A7.5,7.5 0 0,1 7.5,0Z" style="opacity: 1; stroke-width: 0px; fill: rgb(234, 35, 41); fill-opacity: 0.25;"/><path class="point" transform="translate(35.58,219.46)" d="M7.5,0A7.5,7.5 0 1,1 0,-7.5A7.5,7.5 0 0,1 7.5,0Z" style="opacity: 1; stroke-width: 0px; fill: rgb(234, 35, 41); fill-opacity: 0.25;"/><path class="point" transform="translate(41.24,219.46)" d="M7.5,0A7.5,7.5 0 1,1 0,-7.5A7.5,7.5 0 0,1 7.5,0Z" style="opacity: 1; stroke-width: 0px; fill: rgb(234, 35, 41); fill-opacity: 0.25;"/><path class="point" transform="translate(43.86,224.77)" d="M7.5,0A7.5,7.5 0 1,1 0,-7.5A7.5,7.5 0 0,1 7.5,0Z" style="opacity: 1; stroke-width: 0px; fill: rgb(234, 35, 41); fill-opacity: 0.25;"/><path class="point" transform="translate(46.32,232.72)" d="M7.5,0A7.5,7.5 0 1,1 0,-7.5A7.5,7.5 0 0,1 7.5,0Z" style="opacity: 1; stroke-width: 0px; fill: rgb(234, 35, 41); fill-opacity: 0.25;"/><path class="point" transform="translate(47.92,203.54)" d="M7.5,0A7.5,7.5 0 1,1 0,-7.5A7.5,7.5 0 0,1 7.5,0Z" style="opacity: 1; stroke-width: 0px; fill: rgb(234, 35, 41); fill-opacity: 0.25;"/><path class="point" transform="translate(45.16,206.19)" d="M7.5,0A7.5,7.5 0 1,1 0,-7.5A7.5,7.5 0 0,1 7.5,0Z" style="opacity: 1; stroke-width: 0px; fill: rgb(234, 35, 41); fill-opacity: 0.25;"/><path class="point" transform="translate(50.39,228.3)" d="M7.5,0A7.5,7.5 0 1,1 0,-7.5A7.5,7.5 0 0,1 7.5,0Z" style="opacity: 1; stroke-width: 0px; fill: rgb(234, 35, 41); fill-opacity: 0.25;"/><path class="point" transform="translate(49.52,228.3)" d="M7.5,0A7.5,7.5 0 1,1 0,-7.5A7.5,7.5 0 0,1 7.5,0Z" style="opacity: 1; stroke-width: 0px; fill: rgb(234, 35, 41); fill-opacity: 0.25;"/><path class="point" transform="translate(55.47,232.72)" d="M7.5,0A7.5,7.5 0 1,1 0,-7.5A7.5,7.5 0 0,1 7.5,0Z" style="opacity: 1; stroke-width: 0px; fill: rgb(234, 35, 41); fill-opacity: 0.25;"/></g><g class="text"/></g><g class="trace scatter trace516d3a" style="stroke-miterlimit: 2; opacity: 1;"><g class="fills"/><g class="errorbars"/><g class="lines"><path class="js-line" d="M0,249.58Q2.31,254.14 4.65,256.17C8.06,259.13 16.36,262.85 19.89,263.99C21.62,264.55 22.64,264.32 23.96,264.61C25.25,264.89 26.66,266.28 27.74,265.7C29.78,264.6 30.94,254.75 31.95,252.31C32.35,251.35 32.58,251.24 32.96,250.37C33.68,248.71 34,244.42 35.58,242.95C36.94,241.68 39.72,241.35 41.24,241.39C42.28,241.42 43,241.97 43.86,242.26C44.69,242.54 45.58,243.03 46.32,243.1C46.9,243.16 47.9,243.03 47.92,242.88C47.94,242.67 45.13,241.98 45.16,241.83C45.21,241.63 50.35,242.44 50.39,242.28C50.41,242.21 49.57,242.16 49.52,241.91Q49.38,241.16 55.47,236.24" style="vector-effect: non-scaling-stroke; fill: none; stroke: rgb(0, 0, 0); stroke-opacity: 1; stroke-width: 7px; opacity: 1;"/></g><g class="points"/><g class="text"/></g><g class="trace scatter traceea4f0a" style="stroke-miterlimit: 2; opacity: 1;"><g class="fills"/><g class="errorbars"/><g class="lines"/><g class="points"><path class="point" transform="translate(0,245.99)" d="M7.5,0A7.5,7.5 0 1,1 0,-7.5A7.5,7.5 0 0,1 7.5,0Z" style="opacity: 1; stroke-width: 0px; fill: rgb(0, 0, 0); fill-opacity: 0.25;"/><path class="point" transform="translate(4.65,259.25)" d="M7.5,0A7.5,7.5 0 1,1 0,-7.5A7.5,7.5 0 0,1 7.5,0Z" style="opacity: 1; stroke-width: 0px; fill: rgb(0, 0, 0); fill-opacity: 0.25;"/><path class="point" transform="translate(19.89,263.68)" d="M7.5,0A7.5,7.5 0 1,1 0,-7.5A7.5,7.5 0 0,1 7.5,0Z" style="opacity: 1; stroke-width: 0px; fill: rgb(0, 0, 0); fill-opacity: 0.25;"/><path class="point" transform="translate(23.96,263.68)" d="M7.5,0A7.5,7.5 0 1,1 0,-7.5A7.5,7.5 0 0,1 7.5,0Z" style="opacity: 1; stroke-width: 0px; fill: rgb(0, 0, 0); fill-opacity: 0.25;"/><path class="point" transform="translate(27.74,285.78)" d="M7.5,0A7.5,7.5 0 1,1 0,-7.5A7.5,7.5 0 0,1 7.5,0Z" style="opacity: 1; stroke-width: 0px; fill: rgb(0, 0, 0); fill-opacity: 0.25;"/><path class="point" transform="translate(31.95,250.41)" d="M7.5,0A7.5,7.5 0 1,1 0,-7.5A7.5,7.5 0 0,1 7.5,0Z" style="opacity: 1; stroke-width: 0px; fill: rgb(0, 0, 0); fill-opacity: 0.25;"/><path class="point" transform="translate(32.96,254.83)" d="M7.5,0A7.5,7.5 0 1,1 0,-7.5A7.5,7.5 0 0,1 7.5,0Z" style="opacity: 1; stroke-width: 0px; fill: rgb(0, 0, 0); fill-opacity: 0.25;"/><path class="point" transform="translate(35.58,225.65)" d="M7.5,0A7.5,7.5 0 1,1 0,-7.5A7.5,7.5 0 0,1 7.5,0Z" style="opacity: 1; stroke-width: 0px; fill: rgb(0, 0, 0); fill-opacity: 0.25;"/><path class="point" transform="translate(41.24,237.15)" d="M7.5,0A7.5,7.5 0 1,1 0,-7.5A7.5,7.5 0 0,1 7.5,0Z" style="opacity: 1; stroke-width: 0px; fill: rgb(0, 0, 0); fill-opacity: 0.25;"/><path class="point" transform="translate(43.86,247.76)" d="M7.5,0A7.5,7.5 0 1,1 0,-7.5A7.5,7.5 0 0,1 7.5,0Z" style="opacity: 1; stroke-width: 0px; fill: rgb(0, 0, 0); fill-opacity: 0.25;"/><path class="point" transform="translate(46.32,254.83)" d="M7.5,0A7.5,7.5 0 1,1 0,-7.5A7.5,7.5 0 0,1 7.5,0Z" style="opacity: 1; stroke-width: 0px; fill: rgb(0, 0, 0); fill-opacity: 0.25;"/><path class="point" transform="translate(47.92,246.87)" d="M7.5,0A7.5,7.5 0 1,1 0,-7.5A7.5,7.5 0 0,1 7.5,0Z" style="opacity: 1; stroke-width: 0px; fill: rgb(0, 0, 0); fill-opacity: 0.25;"/><path class="point" transform="translate(45.16,228.3)" d="M7.5,0A7.5,7.5 0 1,1 0,-7.5A7.5,7.5 0 0,1 7.5,0Z" style="opacity: 1; stroke-width: 0px; fill: rgb(0, 0, 0); fill-opacity: 0.25;"/><path class="point" transform="translate(50.39,250.41)" d="M7.5,0A7.5,7.5 0 1,1 0,-7.5A7.5,7.5 0 0,1 7.5,0Z" style="opacity: 1; stroke-width: 0px; fill: rgb(0, 0, 0); fill-opacity: 0.25;"/><path class="point" transform="translate(49.52,232.72)" d="M7.5,0A7.5,7.5 0 1,1 0,-7.5A7.5,7.5 0 0,1 7.5,0Z" style="opacity: 1; stroke-width: 0px; fill: rgb(0, 0, 0); fill-opacity: 0.25;"/><path class="point" transform="translate(55.47,228.3)" d="M7.5,0A7.5,7.5 0 1,1 0,-7.5A7.5,7.5 0 0,1 7.5,0Z" style="opacity: 1; stroke-width: 0px; fill: rgb(0, 0, 0); fill-opacity: 0.25;"/></g><g class="text"/></g><g class="trace scatter trace7be7b4" style="stroke-miterlimit: 2; opacity: 1;"><g class="fills"/><g class="errorbars"/><g class="lines"><path class="js-line" d="M0,260.15Q0.19,233.22 4.65,230.97C8.04,229.25 16.63,235.9 19.89,238.83C22.03,240.76 22.66,242.91 23.96,245.01C25.27,247.13 26.56,248.93 27.74,251.51C29.29,254.91 31.04,261.02 31.95,263.85C32.42,265.32 32.52,265.88 32.96,267.21C33.61,269.19 34.21,272.39 35.58,274.52C36.96,276.68 39.62,278.99 41.24,280.06C42.21,280.7 43,281.14 43.86,281.16C44.69,281.18 45.58,280.51 46.32,280.28C46.91,280.09 47.88,279.76 47.92,279.84C47.97,279.96 45.22,281.63 45.16,281.54C45.07,281.41 50.24,276.84 50.39,276.97C50.46,277.03 49.37,278.06 49.52,278.27Q49.81,278.69 55.47,276.96" style="vector-effect: non-scaling-stroke; fill: none; stroke: rgb(93, 140, 0); stroke-opacity: 1; stroke-width: 7px; opacity: 1;"/></g><g class="points"/><g class="text"/></g><g class="trace scatter trace9141ce" style="stroke-miterlimit: 2; opacity: 1;"><g class="fills"/><g class="errorbars"/><g class="lines"/><g class="points"><path class="point" transform="translate(0,276.06)" d="M7.5,0A7.5,7.5 0 1,1 0,-7.5A7.5,7.5 0 0,1 7.5,0Z" style="opacity: 1; stroke-width: 0px; fill: rgb(93, 140, 0); fill-opacity: 0.25;"/><path class="point" transform="translate(4.65,215.04)" d="M7.5,0A7.5,7.5 0 1,1 0,-7.5A7.5,7.5 0 0,1 7.5,0Z" style="opacity: 1; stroke-width: 0px; fill: rgb(93, 140, 0); fill-opacity: 0.25;"/><path class="point" transform="translate(19.89,232.72)" d="M7.5,0A7.5,7.5 0 1,1 0,-7.5A7.5,7.5 0 0,1 7.5,0Z" style="opacity: 1; stroke-width: 0px; fill: rgb(93, 140, 0); fill-opacity: 0.25;"/><path class="point" transform="translate(23.96,241.57)" d="M7.5,0A7.5,7.5 0 1,1 0,-7.5A7.5,7.5 0 0,1 7.5,0Z" style="opacity: 1; stroke-width: 0px; fill: rgb(93, 140, 0); fill-opacity: 0.25;"/><path class="point" transform="translate(27.74,241.57)" d="M7.5,0A7.5,7.5 0 1,1 0,-7.5A7.5,7.5 0 0,1 7.5,0Z" style="opacity: 1; stroke-width: 0px; fill: rgb(93, 140, 0); fill-opacity: 0.25;"/><path class="point" transform="translate(31.95,254.83)" d="M7.5,0A7.5,7.5 0 1,1 0,-7.5A7.5,7.5 0 0,1 7.5,0Z" style="opacity: 1; stroke-width: 0px; fill: rgb(93, 140, 0); fill-opacity: 0.25;"/><path class="point" transform="translate(32.96,272.52)" d="M7.5,0A7.5,7.5 0 1,1 0,-7.5A7.5,7.5 0 0,1 7.5,0Z" style="opacity: 1; stroke-width: 0px; fill: rgb(93, 140, 0); fill-opacity: 0.25;"/><path class="point" transform="translate(35.58,287.55)" d="M7.5,0A7.5,7.5 0 1,1 0,-7.5A7.5,7.5 0 0,1 7.5,0Z" style="opacity: 1; stroke-width: 0px; fill: rgb(93, 140, 0); fill-opacity: 0.25;"/><path class="point" transform="translate(41.24,281.36)" d="M7.5,0A7.5,7.5 0 1,1 0,-7.5A7.5,7.5 0 0,1 7.5,0Z" style="opacity: 1; stroke-width: 0px; fill: rgb(93, 140, 0); fill-opacity: 0.25;"/><path class="point" transform="translate(43.86,281.36)" d="M7.5,0A7.5,7.5 0 1,1 0,-7.5A7.5,7.5 0 0,1 7.5,0Z" style="opacity: 1; stroke-width: 0px; fill: rgb(93, 140, 0); fill-opacity: 0.25;"/><path class="point" transform="translate(46.32,272.52)" d="M7.5,0A7.5,7.5 0 1,1 0,-7.5A7.5,7.5 0 0,1 7.5,0Z" style="opacity: 1; stroke-width: 0px; fill: rgb(93, 140, 0); fill-opacity: 0.25;"/><path class="point" transform="translate(47.92,285.78)" d="M7.5,0A7.5,7.5 0 1,1 0,-7.5A7.5,7.5 0 0,1 7.5,0Z" style="opacity: 1; stroke-width: 0px; fill: rgb(93, 140, 0); fill-opacity: 0.25;"/><path class="point" transform="translate(45.16,294.63)" d="M7.5,0A7.5,7.5 0 1,1 0,-7.5A7.5,7.5 0 0,1 7.5,0Z" style="opacity: 1; stroke-width: 0px; fill: rgb(93, 140, 0); fill-opacity: 0.25;"/><path class="point" transform="translate(50.39,263.68)" d="M7.5,0A7.5,7.5 0 1,1 0,-7.5A7.5,7.5 0 0,1 7.5,0Z" style="opacity: 1; stroke-width: 0px; fill: rgb(93, 140, 0); fill-opacity: 0.25;"/><path class="point" transform="translate(49.52,281.36)" d="M7.5,0A7.5,7.5 0 1,1 0,-7.5A7.5,7.5 0 0,1 7.5,0Z" style="opacity: 1; stroke-width: 0px; fill: rgb(93, 140, 0); fill-opacity: 0.25;"/><path class="point" transform="translate(55.47,276.94)" d="M7.5,0A7.5,7.5 0 1,1 0,-7.5A7.5,7.5 0 0,1 7.5,0Z" style="opacity: 1; stroke-width: 0px; fill: rgb(93, 140, 0); fill-opacity: 0.25;"/></g><g class="text"/></g><g class="trace scatter traced510c3" style="stroke-miterlimit: 2; opacity: 1;"><g class="fills"/><g class="errorbars"/><g class="lines"><path class="js-line" d="M0,266.96Q2.77,267.2 4.65,268.11C8.41,269.93 16.64,276.05 19.89,279.88C22.06,282.44 22.59,285.09 23.96,287.44C25.21,289.57 26.24,293.03 27.74,293.42C28.98,293.74 31.01,291.49 31.95,291.13C32.39,290.96 32.57,291.09 32.96,290.89C33.67,290.53 34.45,289.17 35.58,288.61C37.04,287.88 39.71,287.51 41.24,287.4C42.27,287.32 43.01,287.44 43.86,287.57C44.7,287.7 45.6,288.29 46.32,288.19C46.93,288.11 47.93,287.3 47.92,287.28C47.91,287.25 45.13,288.51 45.16,288.6C45.21,288.72 50.32,287.55 50.39,287.1C50.42,286.9 49.49,286.75 49.52,286.54Q49.59,286.03 55.47,284.62" style="vector-effect: non-scaling-stroke; fill: none; stroke: rgb(114, 55, 105); stroke-opacity: 1; stroke-width: 7px; opacity: 1;"/></g><g class="points"/><g class="text"/></g><g class="trace scatter trace65c6de" style="stroke-miterlimit: 2; opacity: 1;"><g class="fills"/><g class="errorbars"/><g class="lines"/><g class="points"><path class="point" transform="translate(0,266.33)" d="M7.5,0A7.5,7.5 0 1,1 0,-7.5A7.5,7.5 0 0,1 7.5,0Z" style="opacity: 1; stroke-width: 0px; fill: rgb(114, 55, 105); fill-opacity: 0.25;"/><path class="point" transform="translate(4.65,268.1)" d="M7.5,0A7.5,7.5 0 1,1 0,-7.5A7.5,7.5 0 0,1 7.5,0Z" style="opacity: 1; stroke-width: 0px; fill: rgb(114, 55, 105); fill-opacity: 0.25;"/><path class="point" transform="translate(19.89,272.52)" d="M7.5,0A7.5,7.5 0 1,1 0,-7.5A7.5,7.5 0 0,1 7.5,0Z" style="opacity: 1; stroke-width: 0px; fill: rgb(114, 55, 105); fill-opacity: 0.25;"/><path class="point" transform="translate(23.96,285.78)" d="M7.5,0A7.5,7.5 0 1,1 0,-7.5A7.5,7.5 0 0,1 7.5,0Z" style="opacity: 1; stroke-width: 0px; fill: rgb(114, 55, 105); fill-opacity: 0.25;"/><path class="point" transform="translate(27.74,303.47)" d="M7.5,0A7.5,7.5 0 1,1 0,-7.5A7.5,7.5 0 0,1 7.5,0Z" style="opacity: 1; stroke-width: 0px; fill: rgb(114, 55, 105); fill-opacity: 0.25;"/><path class="point" transform="translate(31.95,290.21)" d="M7.5,0A7.5,7.5 0 1,1 0,-7.5A7.5,7.5 0 0,1 7.5,0Z" style="opacity: 1; stroke-width: 0px; fill: rgb(114, 55, 105); fill-opacity: 0.25;"/><path class="point" transform="translate(32.96,294.63)" d="M7.5,0A7.5,7.5 0 1,1 0,-7.5A7.5,7.5 0 0,1 7.5,0Z" style="opacity: 1; stroke-width: 0px; fill: rgb(114, 55, 105); fill-opacity: 0.25;"/><path class="point" transform="translate(35.58,284.02)" d="M7.5,0A7.5,7.5 0 1,1 0,-7.5A7.5,7.5 0 0,1 7.5,0Z" style="opacity: 1; stroke-width: 0px; fill: rgb(114, 55, 105); fill-opacity: 0.25;"/><path class="point" transform="translate(41.24,285.78)" d="M7.5,0A7.5,7.5 0 1,1 0,-7.5A7.5,7.5 0 0,1 7.5,0Z" style="opacity: 1; stroke-width: 0px; fill: rgb(114, 55, 105); fill-opacity: 0.25;"/><path class="point" transform="translate(43.86,280.48)" d="M7.5,0A7.5,7.5 0 1,1 0,-7.5A7.5,7.5 0 0,1 7.5,0Z" style="opacity: 1; stroke-width: 0px; fill: rgb(114, 55, 105); fill-opacity: 0.25;"/><path class="point" transform="translate(46.32,290.21)" d="M7.5,0A7.5,7.5 0 1,1 0,-7.5A7.5,7.5 0 0,1 7.5,0Z" style="opacity: 1; stroke-width: 0px; fill: rgb(114, 55, 105); fill-opacity: 0.25;"/><path class="point" transform="translate(47.92,285.78)" d="M7.5,0A7.5,7.5 0 1,1 0,-7.5A7.5,7.5 0 0,1 7.5,0Z" style="opacity: 1; stroke-width: 0px; fill: rgb(114, 55, 105); fill-opacity: 0.25;"/><path class="point" transform="translate(45.16,299.05)" d="M7.5,0A7.5,7.5 0 1,1 0,-7.5A7.5,7.5 0 0,1 7.5,0Z" style="opacity: 1; stroke-width: 0px; fill: rgb(114, 55, 105); fill-opacity: 0.25;"/><path class="point" transform="translate(50.39,294.63)" d="M7.5,0A7.5,7.5 0 1,1 0,-7.5A7.5,7.5 0 0,1 7.5,0Z" style="opacity: 1; stroke-width: 0px; fill: rgb(114, 55, 105); fill-opacity: 0.25;"/><path class="point" transform="translate(49.52,276.94)" d="M7.5,0A7.5,7.5 0 1,1 0,-7.5A7.5,7.5 0 0,1 7.5,0Z" style="opacity: 1; stroke-width: 0px; fill: rgb(114, 55, 105); fill-opacity: 0.25;"/><path class="point" transform="translate(55.47,281.36)" d="M7.5,0A7.5,7.5 0 1,1 0,-7.5A7.5,7.5 0 0,1 7.5,0Z" style="opacity: 1; stroke-width: 0px; fill: rgb(114, 55, 105); fill-opacity: 0.25;"/></g><g class="text"/></g><g class="trace scatter trace3b2510" style="stroke-miterlimit: 2; opacity: 1;"><g class="fills"/><g class="errorbars"/><g class="lines"><path class="js-line" d="M0,276.81Q1.43,289.49 4.65,291.17C7.96,292.89 16.6,285.53 19.89,286.48C21.95,287.07 22.46,290.44 23.96,291.21C25.13,291.81 26.46,291.31 27.74,291.55C29.12,291.81 31.04,292.39 31.95,292.78C32.42,292.98 32.53,293.31 32.96,293.36C33.62,293.44 34.54,292.62 35.58,292.6C37.1,292.56 39.75,293.36 41.24,293.96C42.32,294.39 42.97,295.33 43.86,295.47C44.67,295.6 45.6,295.16 46.32,294.94C46.92,294.76 47.92,294.32 47.92,294.32C47.92,294.32 45.17,295.45 45.16,295.42C45.14,295.38 50.14,292.73 50.39,293.01C50.52,293.16 49.36,294.01 49.52,294.39Q49.83,295.11 55.47,295.62" style="vector-effect: non-scaling-stroke; fill: none; stroke: rgb(230, 172, 33); stroke-opacity: 1; stroke-width: 7px; opacity: 1;"/></g><g class="points"/><g class="text"/></g><g class="trace scatter traceac093a" style="stroke-miterlimit: 2; opacity: 1;"><g class="fills"/><g class="errorbars"/><g class="lines"/><g class="points"><path class="point" transform="translate(0,268.98)" d="M7.5,0A7.5,7.5 0 1,1 0,-7.5A7.5,7.5 0 0,1 7.5,0Z" style="opacity: 1; stroke-width: 0px; fill: rgb(230, 172, 33); fill-opacity: 0.25;"/><path class="point" transform="translate(4.65,299.05)" d="M7.5,0A7.5,7.5 0 1,1 0,-7.5A7.5,7.5 0 0,1 7.5,0Z" style="opacity: 1; stroke-width: 0px; fill: rgb(230, 172, 33); fill-opacity: 0.25;"/><path class="point" transform="translate(19.89,281.36)" d="M7.5,0A7.5,7.5 0 1,1 0,-7.5A7.5,7.5 0 0,1 7.5,0Z" style="opacity: 1; stroke-width: 0px; fill: rgb(230, 172, 33); fill-opacity: 0.25;"/><path class="point" transform="translate(23.96,294.63)" d="M7.5,0A7.5,7.5 0 1,1 0,-7.5A7.5,7.5 0 0,1 7.5,0Z" style="opacity: 1; stroke-width: 0px; fill: rgb(230, 172, 33); fill-opacity: 0.25;"/><path class="point" transform="translate(27.74,290.21)" d="M7.5,0A7.5,7.5 0 1,1 0,-7.5A7.5,7.5 0 0,1 7.5,0Z" style="opacity: 1; stroke-width: 0px; fill: rgb(230, 172, 33); fill-opacity: 0.25;"/><path class="point" transform="translate(31.95,290.21)" d="M7.5,0A7.5,7.5 0 1,1 0,-7.5A7.5,7.5 0 0,1 7.5,0Z" style="opacity: 1; stroke-width: 0px; fill: rgb(230, 172, 33); fill-opacity: 0.25;"/><path class="point" transform="translate(32.96,299.05)" d="M7.5,0A7.5,7.5 0 1,1 0,-7.5A7.5,7.5 0 0,1 7.5,0Z" style="opacity: 1; stroke-width: 0px; fill: rgb(230, 172, 33); fill-opacity: 0.25;"/><path class="point" transform="translate(35.58,289.32)" d="M7.5,0A7.5,7.5 0 1,1 0,-7.5A7.5,7.5 0 0,1 7.5,0Z" style="opacity: 1; stroke-width: 0px; fill: rgb(230, 172, 33); fill-opacity: 0.25;"/><path class="point" transform="translate(41.24,290.21)" d="M7.5,0A7.5,7.5 0 1,1 0,-7.5A7.5,7.5 0 0,1 7.5,0Z" style="opacity: 1; stroke-width: 0px; fill: rgb(230, 172, 33); fill-opacity: 0.25;"/><path class="point" transform="translate(43.86,299.93)" d="M7.5,0A7.5,7.5 0 1,1 0,-7.5A7.5,7.5 0 0,1 7.5,0Z" style="opacity: 1; stroke-width: 0px; fill: rgb(230, 172, 33); fill-opacity: 0.25;"/><path class="point" transform="translate(46.32,294.63)" d="M7.5,0A7.5,7.5 0 1,1 0,-7.5A7.5,7.5 0 0,1 7.5,0Z" style="opacity: 1; stroke-width: 0px; fill: rgb(230, 172, 33); fill-opacity: 0.25;"/><path class="point" transform="translate(47.92,290.21)" d="M7.5,0A7.5,7.5 0 1,1 0,-7.5A7.5,7.5 0 0,1 7.5,0Z" style="opacity: 1; stroke-width: 0px; fill: rgb(230, 172, 33); fill-opacity: 0.25;"/><path class="point" transform="translate(45.16,299.05)" d="M7.5,0A7.5,7.5 0 1,1 0,-7.5A7.5,7.5 0 0,1 7.5,0Z" style="opacity: 1; stroke-width: 0px; fill: rgb(230, 172, 33); fill-opacity: 0.25;"/><path class="point" transform="translate(50.39,276.94)" d="M7.5,0A7.5,7.5 0 1,1 0,-7.5A7.5,7.5 0 0,1 7.5,0Z" style="opacity: 1; stroke-width: 0px; fill: rgb(230, 172, 33); fill-opacity: 0.25;"/><path class="point" transform="translate(49.52,307.89)" d="M7.5,0A7.5,7.5 0 1,1 0,-7.5A7.5,7.5 0 0,1 7.5,0Z" style="opacity: 1; stroke-width: 0px; fill: rgb(230, 172, 33); fill-opacity: 0.25;"/><path class="point" transform="translate(55.47,299.05)" d="M7.5,0A7.5,7.5 0 1,1 0,-7.5A7.5,7.5 0 0,1 7.5,0Z" style="opacity: 1; stroke-width: 0px; fill: rgb(230, 172, 33); fill-opacity: 0.25;"/></g><g class="text"/></g><g class="trace scatter traced9437f" style="stroke-miterlimit: 2; opacity: 1;"><g class="fills"/><g class="errorbars"/><g class="lines"><path class="js-line" d="M0,290.19Q2.63,292.09 4.65,293.42C8.25,295.79 16.32,301.98 19.89,302.95C21.59,303.41 22.73,303.38 23.96,302.84C25.39,302.21 26.58,300.64 27.74,298.92C29.34,296.53 30.82,290.47 31.95,289.36C32.32,289 32.56,289.15 32.96,288.93C33.64,288.56 34.51,287.3 35.58,287.19C37.08,287.04 39.74,288.67 41.24,289.46C42.31,290.02 43.05,290.48 43.86,291.2C44.75,291.98 45.53,293.43 46.32,294.04C46.87,294.46 47.87,294.9 47.92,294.82C48,294.7 45.15,292.34 45.16,292.33C45.17,292.32 50.28,296.97 50.39,296.87C50.44,296.82 49.41,295.88 49.52,295.73Q49.75,295.41 55.47,297.81" style="vector-effect: non-scaling-stroke; fill: none; stroke: rgb(240, 125, 0); stroke-opacity: 1; stroke-width: 7px; opacity: 1;"/></g><g class="points"/><g class="text"/></g><g class="trace scatter traced97b58" style="stroke-miterlimit: 2; opacity: 1;"><g class="fills"/><g class="errorbars"/><g class="lines"/><g class="points"><path class="point" transform="translate(0,288.44)" d="M7.5,0A7.5,7.5 0 1,1 0,-7.5A7.5,7.5 0 0,1 7.5,0Z" style="opacity: 1; stroke-width: 0px; fill: rgb(240, 125, 0); fill-opacity: 0.25;"/><path class="point" transform="translate(4.65,294.63)" d="M7.5,0A7.5,7.5 0 1,1 0,-7.5A7.5,7.5 0 0,1 7.5,0Z" style="opacity: 1; stroke-width: 0px; fill: rgb(240, 125, 0); fill-opacity: 0.25;"/><path class="point" transform="translate(19.89,303.47)" d="M7.5,0A7.5,7.5 0 1,1 0,-7.5A7.5,7.5 0 0,1 7.5,0Z" style="opacity: 1; stroke-width: 0px; fill: rgb(240, 125, 0); fill-opacity: 0.25;"/><path class="point" transform="translate(23.96,307.89)" d="M7.5,0A7.5,7.5 0 1,1 0,-7.5A7.5,7.5 0 0,1 7.5,0Z" style="opacity: 1; stroke-width: 0px; fill: rgb(240, 125, 0); fill-opacity: 0.25;"/><path class="point" transform="translate(27.74,307.89)" d="M7.5,0A7.5,7.5 0 1,1 0,-7.5A7.5,7.5 0 0,1 7.5,0Z" style="opacity: 1; stroke-width: 0px; fill: rgb(240, 125, 0); fill-opacity: 0.25;"/><path class="point" transform="translate(31.95,281.36)" d="M7.5,0A7.5,7.5 0 1,1 0,-7.5A7.5,7.5 0 0,1 7.5,0Z" style="opacity: 1; stroke-width: 0px; fill: rgb(240, 125, 0); fill-opacity: 0.25;"/><path class="point" transform="translate(32.96,290.21)" d="M7.5,0A7.5,7.5 0 1,1 0,-7.5A7.5,7.5 0 0,1 7.5,0Z" style="opacity: 1; stroke-width: 0px; fill: rgb(240, 125, 0); fill-opacity: 0.25;"/><path class="point" transform="translate(35.58,280.48)" d="M7.5,0A7.5,7.5 0 1,1 0,-7.5A7.5,7.5 0 0,1 7.5,0Z" style="opacity: 1; stroke-width: 0px; fill: rgb(240, 125, 0); fill-opacity: 0.25;"/><path class="point" transform="translate(41.24,285.78)" d="M7.5,0A7.5,7.5 0 1,1 0,-7.5A7.5,7.5 0 0,1 7.5,0Z" style="opacity: 1; stroke-width: 0px; fill: rgb(240, 125, 0); fill-opacity: 0.25;"/><path class="point" transform="translate(43.86,287.55)" d="M7.5,0A7.5,7.5 0 1,1 0,-7.5A7.5,7.5 0 0,1 7.5,0Z" style="opacity: 1; stroke-width: 0px; fill: rgb(240, 125, 0); fill-opacity: 0.25;"/><path class="point" transform="translate(46.32,303.47)" d="M7.5,0A7.5,7.5 0 1,1 0,-7.5A7.5,7.5 0 0,1 7.5,0Z" style="opacity: 1; stroke-width: 0px; fill: rgb(240, 125, 0); fill-opacity: 0.25;"/><path class="point" transform="translate(47.92,294.63)" d="M7.5,0A7.5,7.5 0 1,1 0,-7.5A7.5,7.5 0 0,1 7.5,0Z" style="opacity: 1; stroke-width: 0px; fill: rgb(240, 125, 0); fill-opacity: 0.25;"/><path class="point" transform="translate(45.16,285.78)" d="M7.5,0A7.5,7.5 0 1,1 0,-7.5A7.5,7.5 0 0,1 7.5,0Z" style="opacity: 1; stroke-width: 0px; fill: rgb(240, 125, 0); fill-opacity: 0.25;"/><path class="point" transform="translate(50.39,307.89)" d="M7.5,0A7.5,7.5 0 1,1 0,-7.5A7.5,7.5 0 0,1 7.5,0Z" style="opacity: 1; stroke-width: 0px; fill: rgb(240, 125, 0); fill-opacity: 0.25;"/><path class="point" transform="translate(49.52,290.21)" d="M7.5,0A7.5,7.5 0 1,1 0,-7.5A7.5,7.5 0 0,1 7.5,0Z" style="opacity: 1; stroke-width: 0px; fill: rgb(240, 125, 0); fill-opacity: 0.25;"/><path class="point" transform="translate(55.47,299.05)" d="M7.5,0A7.5,7.5 0 1,1 0,-7.5A7.5,7.5 0 0,1 7.5,0Z" style="opacity: 1; stroke-width: 0px; fill: rgb(240, 125, 0); fill-opacity: 0.25;"/></g><g class="text"/></g><g class="trace scatter trace5c2beb" style="stroke-miterlimit: 2; opacity: 1;"><g class="fills"/><g class="errorbars"/><g class="lines"><path class="js-line" d="M0,293.54Q1.9,301.21 4.65,302.91C7.97,304.96 16.44,303.09 19.89,302.81C21.69,302.66 22.66,301.96 23.96,302.17C25.28,302.39 26.44,303.49 27.74,304.15C29.1,304.84 31.04,305.68 31.95,306.24C32.42,306.53 32.51,306.85 32.96,306.99C33.6,307.19 34.6,307.21 35.58,306.87C37.18,306.33 39.68,303.81 41.24,302.9C42.25,302.31 42.98,301.91 43.86,301.64C44.67,301.39 45.59,301.42 46.32,301.28C46.91,301.16 47.93,300.92 47.92,300.89C47.91,300.85 45.16,301.3 45.16,301.29C45.16,301.28 50.36,300.34 50.39,300.45C50.4,300.5 49.53,300.61 49.52,300.79Q49.5,301.27 55.47,303.67" style="vector-effect: non-scaling-stroke; fill: none; stroke: rgb(0, 51, 255); stroke-opacity: 1; stroke-width: 7px; opacity: 1;"/></g><g class="points"/><g class="text"/></g><g class="trace scatter trace4d9862" style="stroke-miterlimit: 2; opacity: 1;"><g class="fills"/><g class="errorbars"/><g class="lines"/><g class="points"><path class="point" transform="translate(0,288.44)" d="M7.5,0A7.5,7.5 0 1,1 0,-7.5A7.5,7.5 0 0,1 7.5,0Z" style="opacity: 1; stroke-width: 0px; fill: rgb(0, 51, 255); fill-opacity: 0.25;"/><path class="point" transform="translate(4.65,307.89)" d="M7.5,0A7.5,7.5 0 1,1 0,-7.5A7.5,7.5 0 0,1 7.5,0Z" style="opacity: 1; stroke-width: 0px; fill: rgb(0, 51, 255); fill-opacity: 0.25;"/><path class="point" transform="translate(19.89,303.47)" d="M7.5,0A7.5,7.5 0 1,1 0,-7.5A7.5,7.5 0 0,1 7.5,0Z" style="opacity: 1; stroke-width: 0px; fill: rgb(0, 51, 255); fill-opacity: 0.25;"/><path class="point" transform="translate(23.96,299.05)" d="M7.5,0A7.5,7.5 0 1,1 0,-7.5A7.5,7.5 0 0,1 7.5,0Z" style="opacity: 1; stroke-width: 0px; fill: rgb(0, 51, 255); fill-opacity: 0.25;"/><path class="point" transform="translate(27.74,303.47)" d="M7.5,0A7.5,7.5 0 1,1 0,-7.5A7.5,7.5 0 0,1 7.5,0Z" style="opacity: 1; stroke-width: 0px; fill: rgb(0, 51, 255); fill-opacity: 0.25;"/><path class="point" transform="translate(31.95,303.47)" d="M7.5,0A7.5,7.5 0 1,1 0,-7.5A7.5,7.5 0 0,1 7.5,0Z" style="opacity: 1; stroke-width: 0px; fill: rgb(0, 51, 255); fill-opacity: 0.25;"/><path class="point" transform="translate(32.96,312.31)" d="M7.5,0A7.5,7.5 0 1,1 0,-7.5A7.5,7.5 0 0,1 7.5,0Z" style="opacity: 1; stroke-width: 0px; fill: rgb(0, 51, 255); fill-opacity: 0.25;"/><path class="point" transform="translate(35.58,310.54)" d="M7.5,0A7.5,7.5 0 1,1 0,-7.5A7.5,7.5 0 0,1 7.5,0Z" style="opacity: 1; stroke-width: 0px; fill: rgb(0, 51, 255); fill-opacity: 0.25;"/><path class="point" transform="translate(41.24,303.47)" d="M7.5,0A7.5,7.5 0 1,1 0,-7.5A7.5,7.5 0 0,1 7.5,0Z" style="opacity: 1; stroke-width: 0px; fill: rgb(0, 51, 255); fill-opacity: 0.25;"/><path class="point" transform="translate(43.86,300.82)" d="M7.5,0A7.5,7.5 0 1,1 0,-7.5A7.5,7.5 0 0,1 7.5,0Z" style="opacity: 1; stroke-width: 0px; fill: rgb(0, 51, 255); fill-opacity: 0.25;"/><path class="point" transform="translate(46.32,303.47)" d="M7.5,0A7.5,7.5 0 1,1 0,-7.5A7.5,7.5 0 0,1 7.5,0Z" style="opacity: 1; stroke-width: 0px; fill: rgb(0, 51, 255); fill-opacity: 0.25;"/><path class="point" transform="translate(47.92,299.05)" d="M7.5,0A7.5,7.5 0 1,1 0,-7.5A7.5,7.5 0 0,1 7.5,0Z" style="opacity: 1; stroke-width: 0px; fill: rgb(0, 51, 255); fill-opacity: 0.25;"/><path class="point" transform="translate(45.16,299.05)" d="M7.5,0A7.5,7.5 0 1,1 0,-7.5A7.5,7.5 0 0,1 7.5,0Z" style="opacity: 1; stroke-width: 0px; fill: rgb(0, 51, 255); fill-opacity: 0.25;"/><path class="point" transform="translate(50.39,294.63)" d="M7.5,0A7.5,7.5 0 1,1 0,-7.5A7.5,7.5 0 0,1 7.5,0Z" style="opacity: 1; stroke-width: 0px; fill: rgb(0, 51, 255); fill-opacity: 0.25;"/><path class="point" transform="translate(49.52,303.47)" d="M7.5,0A7.5,7.5 0 1,1 0,-7.5A7.5,7.5 0 0,1 7.5,0Z" style="opacity: 1; stroke-width: 0px; fill: rgb(0, 51, 255); fill-opacity: 0.25;"/><path class="point" transform="translate(55.47,307.89)" d="M7.5,0A7.5,7.5 0 1,1 0,-7.5A7.5,7.5 0 0,1 7.5,0Z" style="opacity: 1; stroke-width: 0px; fill: rgb(0, 51, 255); fill-opacity: 0.25;"/></g><g class="text"/></g><g class="trace scatter trace66e0c2" style="stroke-miterlimit: 2; opacity: 1;"><g class="fills"/><g class="errorbars"/><g class="lines"><path class="js-line" d="M0,298.55Q2.77,298.49 4.65,299.26C8.41,300.81 16.33,309.85 19.89,310.39C21.59,310.65 22.61,309.22 23.96,308.99C25.23,308.77 26.49,309.3 27.74,308.96C29.16,308.58 31,306.77 31.95,306.54C32.38,306.43 32.55,306.6 32.96,306.58C33.63,306.54 34.54,306.26 35.58,306.16C37.1,306.02 39.72,306.21 41.24,306.01C42.29,305.87 43.03,305.23 43.86,305.39C44.73,305.56 45.66,306.37 46.32,307.14C47.04,307.97 47.97,310.23 47.92,310.26C47.86,310.29 44.94,306.09 45.16,305.9C45.41,305.68 50.52,309.94 50.39,310.23C50.34,310.34 49.52,310.16 49.52,310.1Q49.52,309.94 55.47,309.22" style="vector-effect: non-scaling-stroke; fill: none; stroke: rgb(140, 0, 0); stroke-opacity: 1; stroke-width: 7px; opacity: 1;"/></g><g class="points"/><g class="text"/></g><g class="trace scatter trace7230b9" style="stroke-miterlimit: 2; opacity: 1;"><g class="fills"/><g class="errorbars"/><g class="lines"/><g class="points"><path class="point" transform="translate(0,298.16)" d="M7.5,0A7.5,7.5 0 1,1 0,-7.5A7.5,7.5 0 0,1 7.5,0Z" style="opacity: 1; stroke-width: 0px; fill: rgb(140, 0, 0); fill-opacity: 0.25;"/><path class="point" transform="translate(4.65,299.05)" d="M7.5,0A7.5,7.5 0 1,1 0,-7.5A7.5,7.5 0 0,1 7.5,0Z" style="opacity: 1; stroke-width: 0px; fill: rgb(140, 0, 0); fill-opacity: 0.25;"/><path class="point" transform="translate(19.89,312.31)" d="M7.5,0A7.5,7.5 0 1,1 0,-7.5A7.5,7.5 0 0,1 7.5,0Z" style="opacity: 1; stroke-width: 0px; fill: rgb(140, 0, 0); fill-opacity: 0.25;"/><path class="point" transform="translate(23.96,307.89)" d="M7.5,0A7.5,7.5 0 1,1 0,-7.5A7.5,7.5 0 0,1 7.5,0Z" style="opacity: 1; stroke-width: 0px; fill: rgb(140, 0, 0); fill-opacity: 0.25;"/><path class="point" transform="translate(27.74,312.31)" d="M7.5,0A7.5,7.5 0 1,1 0,-7.5A7.5,7.5 0 0,1 7.5,0Z" style="opacity: 1; stroke-width: 0px; fill: rgb(140, 0, 0); fill-opacity: 0.25;"/><path class="point" transform="translate(31.95,303.47)" d="M7.5,0A7.5,7.5 0 1,1 0,-7.5A7.5,7.5 0 0,1 7.5,0Z" style="opacity: 1; stroke-width: 0px; fill: rgb(140, 0, 0); fill-opacity: 0.25;"/><path class="point" transform="translate(32.96,307.89)" d="M7.5,0A7.5,7.5 0 1,1 0,-7.5A7.5,7.5 0 0,1 7.5,0Z" style="opacity: 1; stroke-width: 0px; fill: rgb(140, 0, 0); fill-opacity: 0.25;"/><path class="point" transform="translate(35.58,305.24)" d="M7.5,0A7.5,7.5 0 1,1 0,-7.5A7.5,7.5 0 0,1 7.5,0Z" style="opacity: 1; stroke-width: 0px; fill: rgb(140, 0, 0); fill-opacity: 0.25;"/><path class="point" transform="translate(41.24,307.89)" d="M7.5,0A7.5,7.5 0 1,1 0,-7.5A7.5,7.5 0 0,1 7.5,0Z" style="opacity: 1; stroke-width: 0px; fill: rgb(140, 0, 0); fill-opacity: 0.25;"/><path class="point" transform="translate(43.86,299.93)" d="M7.5,0A7.5,7.5 0 1,1 0,-7.5A7.5,7.5 0 0,1 7.5,0Z" style="opacity: 1; stroke-width: 0px; fill: rgb(140, 0, 0); fill-opacity: 0.25;"/><path class="point" transform="translate(46.32,299.05)" d="M7.5,0A7.5,7.5 0 1,1 0,-7.5A7.5,7.5 0 0,1 7.5,0Z" style="opacity: 1; stroke-width: 0px; fill: rgb(140, 0, 0); fill-opacity: 0.25;"/><path class="point" transform="translate(45.16,299.05)" d="M7.5,0A7.5,7.5 0 1,1 0,-7.5A7.5,7.5 0 0,1 7.5,0Z" style="opacity: 1; stroke-width: 0px; fill: rgb(140, 0, 0); fill-opacity: 0.25;"/><path class="point" transform="translate(50.39,312.31)" d="M7.5,0A7.5,7.5 0 1,1 0,-7.5A7.5,7.5 0 0,1 7.5,0Z" style="opacity: 1; stroke-width: 0px; fill: rgb(140, 0, 0); fill-opacity: 0.25;"/><path class="point" transform="translate(49.52,307.89)" d="M7.5,0A7.5,7.5 0 1,1 0,-7.5A7.5,7.5 0 0,1 7.5,0Z" style="opacity: 1; stroke-width: 0px; fill: rgb(140, 0, 0); fill-opacity: 0.25;"/><path class="point" transform="translate(55.47,307.89)" d="M7.5,0A7.5,7.5 0 1,1 0,-7.5A7.5,7.5 0 0,1 7.5,0Z" style="opacity: 1; stroke-width: 0px; fill: rgb(140, 0, 0); fill-opacity: 0.25;"/></g><g class="text"/></g></g></g><g class="overplot"/><path class="xlines-above crisp" d="M0,0" style="fill: none;"/><path class="ylines-above crisp" d="M0,0" style="fill: none;"/><g class="overlines-above"/><g class="xaxislayer-above"><g class="xtick"><text text-anchor="middle" x="0" y="363" transform="translate(62.2,0)" style="font-family: 'Open Sans', verdana, arial, sans-serif; font-size: 12px; fill: rgb(42, 63, 95); fill-opacity: 1; white-space: pre; opacity: 1;">1.1.22</text></g><g class="xtick"><text text-anchor="middle" x="0" y="363" style="font-family: 'Open Sans', verdana, arial, sans-serif; font-size: 12px; fill: rgb(42, 63, 95); fill-opacity: 1; white-space: pre; opacity: 1;" transform="translate(115.2,0)">1.1.23</text></g><g class="xtick"><text text-anchor="middle" x="0" y="363" style="font-family: 'Open Sans', verdana, arial, sans-serif; font-size: 12px; fill: rgb(42, 63, 95); fill-opacity: 1; white-space: pre; opacity: 1;" transform="translate(168.20999999999998,0)">1.1.24</text></g><g class="xtick"><text text-anchor="middle" x="0" y="363" style="font-family: 'Open Sans', verdana, arial, sans-serif; font-size: 12px; fill: rgb(42, 63, 95); fill-opacity: 1; white-space: pre; opacity: 1;" transform="translate(221.36,0)">1.1.25</text></g></g><g class="yaxislayer-above"><g class="ytick"><text text-anchor="end" x="49" y="4.199999999999999" transform="translate(0,350)" style="font-family: 'Open Sans', verdana, arial, sans-serif; font-size: 12px; fill: rgb(42, 63, 95); fill-opacity: 1; white-space: pre; opacity: 1;">0%</text></g><g class="ytick"><text text-anchor="end" x="49" y="4.199999999999999" style="font-family: 'Open Sans', verdana, arial, sans-serif; font-size: 12px; fill: rgb(42, 63, 95); fill-opacity: 1; white-space: pre; opacity: 1;" transform="translate(0,305.78)">5%</text></g><g class="ytick"><text text-anchor="end" x="49" y="4.199999999999999" style="font-family: 'Open Sans', verdana, arial, sans-serif; font-size: 12px; fill: rgb(42, 63, 95); fill-opacity: 1; white-space: pre; opacity: 1;" transform="translate(0,261.57)">10%</text></g><g class="ytick"><text text-anchor="end" x="49" y="4.199999999999999" style="font-family: 'Open Sans', verdana, arial, sans-serif; font-size: 12px; fill: rgb(42, 63, 95); fill-opacity: 1; white-space: pre; opacity: 1;" transform="translate(0,217.35)">15%</text></g><g class="ytick"><text text-anchor="end" x="49" y="4.199999999999999" style="font-family: 'Open Sans', verdana, arial, sans-serif; font-size: 12px; fill: rgb(42, 63, 95); fill-opacity: 1; white-space: pre; opacity: 1;" transform="translate(0,173.14)">20%</text></g><g class="ytick"><text text-anchor="end" x="49" y="4.199999999999999" style="font-family: 'Open Sans', verdana, arial, sans-serif; font-size: 12px; fill: rgb(42, 63, 95); fill-opacity: 1; white-space: pre; opacity: 1;" transform="translate(0,128.92000000000002)">25%</text></g><g class="ytick"><text text-anchor="end" x="49" y="4.199999999999999" style="font-family: 'Open Sans', verdana, arial, sans-serif; font-size: 12px; fill: rgb(42, 63, 95); fill-opacity: 1; white-space: pre; opacity: 1;" transform="translate(0,84.7)">30%</text></g><g class="ytick"><text text-anchor="end" x="49" y="4.199999999999999" style="font-family: 'Open Sans', verdana, arial, sans-serif; font-size: 12px; fill: rgb(42, 63, 95); fill-opacity: 1; white-space: pre; opacity: 1;" transform="translate(0,40.489999999999995)">35%</text></g></g><g class="overaxes-above"/></g></g><g class="polarlayer"/><g class="smithlayer"/><g class="ternarylayer"/><g class="geolayer"/><g class="funnelarealayer"/><g class="pielayer"/><g class="iciclelayer"/><g class="treemaplayer"/><g class="sunburstlayer"/><g class="glimages"/><defs id="topdefs-519818"><g class="clips"/><clipPath id="legend519818"><rect width="123" height="200" x="0" y="0"/></clipPath></defs><g class="layer-above"><g class="imagelayer"/><g class="shapelayer"/></g><g class="infolayer"><g class="legend" pointer-events="all" transform="translate(265.22,20)"><rect class="bg" shape-rendering="crispEdges" width="123" height="200" x="0" y="0" style="stroke: rgb(68, 68, 68); stroke-opacity: 1; fill: rgb(255, 255, 255); fill-opacity: 1; stroke-width: 0px;"/><g class="scrollbox" transform="" clip-path="url(#legend519818)"><g class="groups"><g class="traces" transform="translate(0,14.5)" style="opacity: 1;"><text class="legendtext" text-anchor="start" x="40" y="4.680000000000001" style="font-family: 'Open Sans', verdana, arial, sans-serif; font-size: 12px; fill: rgb(42, 63, 95); fill-opacity: 1; white-space: pre;">ANO: 28%</text><g class="layers" style="opacity: 1;"><g class="legendfill"/><g class="legendlines"><path class="js-line" d="M5,0h30" style="fill: none; stroke: rgb(38, 16, 96); stroke-opacity: 1; stroke-width: 7px;"/></g><g class="legendsymbols"><g class="legendpoints"/></g></g><rect class="legendtoggle" x="0" y="-9.5" width="117.03125" height="19" style="fill: rgb(0, 0, 0); fill-opacity: 0;"/></g><g class="traces" transform="translate(0,33.5)" style="opacity: 1;"><text class="legendtext" text-anchor="start" x="40" y="4.680000000000001" style="font-family: 'Open Sans', verdana, arial, sans-serif; font-size: 12px; fill: rgb(42, 63, 95); fill-opacity: 1; white-space: pre;">ODS: 19%</text><g class="layers" style="opacity: 1;"><g class="legendfill"/><g class="legendlines"><path class="js-line" d="M5,0h30" style="fill: none; stroke: rgb(0, 68, 148); stroke-opacity: 1; stroke-width: 7px;"/></g><g class="legendsymbols"><g class="legendpoints"/></g></g><rect class="legendtoggle" x="0" y="-9.5" width="117.03125" height="19" style="fill: rgb(0, 0, 0); fill-opacity: 0;"/></g><g class="traces" transform="translate(0,52.5)" style="opacity: 1;"><text class="legendtext" text-anchor="start" x="40" y="4.680000000000001" style="font-family: 'Open Sans', verdana, arial, sans-serif; font-size: 12px; fill: rgb(42, 63, 95); fill-opacity: 1; white-space: pre;">SPD: 12%</text><g class="layers" style="opacity: 1;"><g class="legendfill"/><g class="legendlines"><path class="js-line" d="M5,0h30" style="fill: none; stroke: rgb(234, 35, 41); stroke-opacity: 1; stroke-width: 7px;"/></g><g class="legendsymbols"><g class="legendpoints"/></g></g><rect class="legendtoggle" x="0" y="-9.5" width="117.03125" height="19" style="fill: rgb(0, 0, 0); fill-opacity: 0;"/></g><g class="traces" transform="translate(0,71.5)" style="opacity: 1;"><text class="legendtext" text-anchor="start" x="40" y="4.680000000000001" style="font-family: 'Open Sans', verdana, arial, sans-serif; font-size: 12px; fill: rgb(42, 63, 95); fill-opacity: 1; white-space: pre;">Pirti: 11%</text><g class="layers" style="opacity: 1;"><g class="legendfill"/><g class="legendlines"><path class="js-line" d="M5,0h30" style="fill: none; stroke: rgb(0, 0, 0); stroke-opacity: 1; stroke-width: 7px;"/></g><g class="legendsymbols"><g class="legendpoints"/></g></g><rect class="legendtoggle" x="0" y="-9.5" width="117.03125" height="19" style="fill: rgb(0, 0, 0); fill-opacity: 0;"/></g><g class="traces" transform="translate(0,90.5)" style="opacity: 1;"><text class="legendtext" text-anchor="start" x="40" y="4.680000000000001" style="font-family: 'Open Sans', verdana, arial, sans-serif; font-size: 12px; fill: rgb(42, 63, 95); fill-opacity: 1; white-space: pre;">STAN: 6%</text><g class="layers" style="opacity: 1;"><g class="legendfill"/><g class="legendlines"><path class="js-line" d="M5,0h30" style="fill: none; stroke: rgb(93, 140, 0); stroke-opacity: 1; stroke-width: 7px;"/></g><g class="legendsymbols"><g class="legendpoints"/></g></g><rect class="legendtoggle" x="0" y="-9.5" width="117.03125" height="19" style="fill: rgb(0, 0, 0); fill-opacity: 0;"/></g><g class="traces" transform="translate(0,109.5)" style="opacity: 1;"><text class="legendtext" text-anchor="start" x="40" y="4.680000000000001" style="font-family: 'Open Sans', verdana, arial, sans-serif; font-size: 12px; fill: rgb(42, 63, 95); fill-opacity: 1; white-space: pre;">TOP 09: 5%</text><g class="layers" style="opacity: 1;"><g class="legendfill"/><g class="legendlines"><path class="js-line" d="M5,0h30" style="fill: none; stroke: rgb(114, 55, 105); stroke-opacity: 1; stroke-width: 7px;"/></g><g class="legendsymbols"><g class="legendpoints"/></g></g><rect class="legendtoggle" x="0" y="-9.5" width="117.03125" height="19" style="fill: rgb(0, 0, 0); fill-opacity: 0;"/></g><g class="traces" transform="translate(0,128.5)" style="opacity: 1;"><text class="legendtext" text-anchor="start" x="40" y="4.680000000000001" style="font-family: 'Open Sans', verdana, arial, sans-serif; font-size: 12px; fill: rgb(42, 63, 95); fill-opacity: 1; white-space: pre;">KDU-SL: 4%</text><g class="layers" style="opacity: 1;"><g class="legendfill"/><g class="legendlines"><path class="js-line" d="M5,0h30" style="fill: none; stroke: rgb(230, 172, 33); stroke-opacity: 1; stroke-width: 7px;"/></g><g class="legendsymbols"><g class="legendpoints"/></g></g><rect class="legendtoggle" x="0" y="-9.5" width="117.03125" height="19" style="fill: rgb(0, 0, 0); fill-opacity: 0;"/></g><g class="traces" transform="translate(0,147.5)" style="opacity: 1;"><text class="legendtext" text-anchor="start" x="40" y="4.680000000000001" style="font-family: 'Open Sans', verdana, arial, sans-serif; font-size: 12px; fill: rgb(42, 63, 95); fill-opacity: 1; white-space: pre;">SSD: 4%</text><g class="layers" style="opacity: 1;"><g class="legendfill"/><g class="legendlines"><path class="js-line" d="M5,0h30" style="fill: none; stroke: rgb(240, 125, 0); stroke-opacity: 1; stroke-width: 7px;"/></g><g class="legendsymbols"><g class="legendpoints"/></g></g><rect class="legendtoggle" x="0" y="-9.5" width="117.03125" height="19" style="fill: rgb(0, 0, 0); fill-opacity: 0;"/></g><g class="traces" transform="translate(0,166.5)" style="opacity: 1;"><text class="legendtext" text-anchor="start" x="40" y="4.680000000000001" style="font-family: 'Open Sans', verdana, arial, sans-serif; font-size: 12px; fill: rgb(42, 63, 95); fill-opacity: 1; white-space: pre;">Psaha: 3%</text><g class="layers" style="opacity: 1;"><g class="legendfill"/><g class="legendlines"><path class="js-line" d="M5,0h30" style="fill: none; stroke: rgb(0, 51, 255); stroke-opacity: 1; stroke-width: 7px;"/></g><g class="legendsymbols"><g class="legendpoints"/></g></g><rect class="legendtoggle" x="0" y="-9.5" width="117.03125" height="19" style="fill: rgb(0, 0, 0); fill-opacity: 0;"/></g><g class="traces" transform="translate(0,185.5)" style="opacity: 1;"><text class="legendtext" text-anchor="start" x="40" y="4.680000000000001" style="font-family: 'Open Sans', verdana, arial, sans-serif; font-size: 12px; fill: rgb(42, 63, 95); fill-opacity: 1; white-space: pre;">KSM: 2%</text><g class="layers" style="opacity: 1;"><g class="legendfill"/><g class="legendlines"><path class="js-line" d="M5,0h30" style="fill: none; stroke: rgb(140, 0, 0); stroke-opacity: 1; stroke-width: 7px;"/></g><g class="legendsymbols"><g class="legendpoints"/></g></g><rect class="legendtoggle" x="0" y="-9.5" width="117.03125" height="19" style="fill: rgb(0, 0, 0); fill-opacity: 0;"/></g></g></g><rect class="scrollbar" rx="20" ry="3" width="0" height="0" x="0" y="0" style="fill: rgb(128, 139, 164); fill-opacity: 1;"/></g><g class="g-gtitle"/><g class="g-xtitle"/><g class="g-ytitle"/></g></svg>