<svg class="main-svg" xmlns="http://www.w3.org/2000/svg" xmlns:xlink="http://www.w3.org/1999/xlink" width="1200" height="600" style="" viewBox="0 0 1200 600"><rect x="0" y="0" width="1200" height="600" style="fill: rgb(255, 255, 255); fill-opacity: 1;"/><defs id="defs-0851be"><g class="clips"><clipPath id="clip0851bexyplot" class="plotclip"><rect width="987" height="530"/></clipPath><clipPath class="axesclip" id="clip0851bex"><rect x="50" y="0" width="987" height="600"/></clipPath><clipPath class="axesclip" id="clip0851bey"><rect x="0" y="20" width="1200" height="530"/></clipPath><clipPath class="axesclip" id="clip0851bexy"><rect x="50" y="20" width="987" height="530"/></clipPath></g><g class="gradients"/><g class="patterns"/></defs><g class="bglayer"/><g class="layer-below"><g class="imagelayer"/><g class="shapelayer"/></g><g class="cartesianlayer"><g class="subplot xy"><g class="layer-subplot"><g class="shapelayer"/><g class="imagelayer"/></g><g class="gridlayer"><g class="x"><path class="xgrid crisp" transform="translate(107.06,0)" d="M0,20v530" style="stroke: rgb(235, 240, 248); stroke-opacity: 1; stroke-width: 1px;"/><path class="xgrid crisp" transform="translate(230.01,0)" d="M0,20v530" style="stroke: rgb(235, 240, 248); stroke-opacity: 1; stroke-width: 1px;"/><path class="xgrid crisp" transform="translate(355,0)" d="M0,20v530" style="stroke: rgb(235, 240, 248); stroke-opacity: 1; stroke-width: 1px;"/><path class="xgrid crisp" transform="translate(477.95,0)" d="M0,20v530" style="stroke: rgb(235, 240, 248); stroke-opacity: 1; stroke-width: 1px;"/><path class="xgrid crisp" transform="translate(602.94,0)" d="M0,20v530" style="stroke: rgb(235, 240, 248); stroke-opacity: 1; stroke-width: 1px;"/><path class="xgrid crisp" transform="translate(726.57,0)" d="M0,20v530" style="stroke: rgb(235, 240, 248); stroke-opacity: 1; stroke-width: 1px;"/><path class="xgrid crisp" transform="translate(851.56,0)" d="M0,20v530" style="stroke: rgb(235, 240, 248); stroke-opacity: 1; stroke-width: 1px;"/><path class="xgrid crisp" transform="translate(974.51,0)" d="M0,20v530" style="stroke: rgb(235, 240, 248); stroke-opacity: 1; stroke-width: 1px;"/></g><g class="y"><path class="ygrid crisp" transform="translate(0,479.26)" d="M50,0h987" style="stroke: rgb(235, 240, 248); stroke-opacity: 1; stroke-width: 1px;"/><path class="ygrid crisp" transform="translate(0,408.52)" d="M50,0h987" style="stroke: rgb(235, 240, 248); stroke-opacity: 1; stroke-width: 1px;"/><path class="ygrid crisp" transform="translate(0,337.79)" d="M50,0h987" style="stroke: rgb(235, 240, 248); stroke-opacity: 1; stroke-width: 1px;"/><path class="ygrid crisp" transform="translate(0,267.05)" d="M50,0h987" style="stroke: rgb(235, 240, 248); stroke-opacity: 1; stroke-width: 1px;"/><path class="ygrid crisp" transform="translate(0,196.31)" d="M50,0h987" style="stroke: rgb(235, 240, 248); stroke-opacity: 1; stroke-width: 1px;"/><path class="ygrid crisp" transform="translate(0,125.57)" d="M50,0h987" style="stroke: rgb(235, 240, 248); stroke-opacity: 1; stroke-width: 1px;"/><path class="ygrid crisp" transform="translate(0,54.83)" d="M50,0h987" style="stroke: rgb(235, 240, 248); stroke-opacity: 1; stroke-width: 1px;"/></g></g><g class="zerolinelayer"><path class="yzl zl crisp" transform="translate(0,550)" d="M50,0h987" style="stroke: rgb(235, 240, 248); stroke-opacity: 1; stroke-width: 2px;"/></g><path class="xlines-below"/><path class="ylines-below"/><g class="overlines-below"/><g class="xaxislayer-below"/><g class="yaxislayer-below"/><g class="overaxes-below"/><g class="plot" transform="translate(50,20)" clip-path="url(#clip0851bexyplot)"><g class="scatterlayer mlayer"><g class="trace scatter traceb0659a" style="stroke-miterlimit: 2; opacity: 1;"><g class="fills"><g><path class="js-fill" d="M0,71.66Q12.41,73.08 21.74,74.32C38.66,76.57 77.34,88.42 93.06,84.57C102.02,82.38 105.65,74.51 112.08,70.91C117.89,67.66 123.73,66.22 129.74,63.49C136.17,60.56 145.12,56 149.44,53.81C151.58,52.73 152.22,52.24 154.2,51.32C157.3,49.89 161.68,48.75 166.42,46.39C173.68,42.78 185.54,32.87 192.92,30.55C197.57,29.09 201.77,30.08 205.14,29.68C207.54,29.39 209.28,28.69 211.26,28.65C213.12,28.61 214.73,29.25 216.69,29.35C218.98,29.47 221.67,29.23 224.16,29.16C226.65,29.09 229.6,28.32 231.64,28.91C233.3,29.39 233.76,31 235.71,31.7C239.33,33 248.43,31.71 252.69,33.17C255.62,34.17 256.42,37.32 259.49,37.56C265.14,38.01 278.74,22.66 284.62,26.5C298.51,35.56 298.51,158.17 284.62,179.45C278.74,188.47 265.14,190.96 259.49,190.51C256.42,190.27 255.62,187.13 252.69,186.12C248.43,184.66 239.33,185.93 235.71,184.64C233.76,183.94 233.3,182.34 231.64,181.86C229.6,181.27 226.65,182.03 224.16,182.1C221.67,182.17 218.98,182.42 216.69,182.3C214.73,182.2 213.12,181.56 211.26,181.6C209.28,181.64 207.54,182.34 205.14,182.63C201.77,183.03 197.64,182.29 192.92,183.5C185.63,185.37 173.59,192.59 166.42,195.69C161.6,197.77 157.3,199.2 154.2,200.63C152.22,201.54 151.58,202.03 149.44,203.11C145.12,205.3 136.27,210.54 129.74,212.8C123.82,214.85 117.7,213.68 112.08,216.57C105.37,220.02 102.31,231.29 93.06,233.88C77.51,238.23 38.71,221.23 21.74,219.98Q12.45,219.29 0,220.96Z" style="fill: rgb(38, 16, 96); fill-opacity: 0.05; stroke-width: 0;"/></g></g><g class="errorbars"/><g class="lines"><path class="js-line" d="M0,71.66Q12.41,73.08 21.74,74.32C38.66,76.57 77.34,88.42 93.06,84.57C102.02,82.38 105.65,74.51 112.08,70.91C117.89,67.66 123.73,66.22 129.74,63.49C136.17,60.56 145.12,56 149.44,53.81C151.58,52.73 152.22,52.24 154.2,51.32C157.3,49.89 161.68,48.75 166.42,46.39C173.68,42.78 185.54,32.87 192.92,30.55C197.57,29.09 201.77,30.08 205.14,29.68C207.54,29.39 209.28,28.69 211.26,28.65C213.12,28.61 214.73,29.25 216.69,29.35C218.98,29.47 221.67,29.23 224.16,29.16C226.65,29.09 229.6,28.32 231.64,28.91C233.3,29.39 233.76,31 235.71,31.7C239.33,33 248.43,31.71 252.69,33.17C255.62,34.17 256.42,37.32 259.49,37.56C265.14,38.01 278.74,22.66 284.62,26.5C298.51,35.56 298.51,158.17 284.62,179.45C278.74,188.47 265.14,190.96 259.49,190.51C256.42,190.27 255.62,187.13 252.69,186.12C248.43,184.66 239.33,185.93 235.71,184.64C233.76,183.94 233.3,182.34 231.64,181.86C229.6,181.27 226.65,182.03 224.16,182.1C221.67,182.17 218.98,182.42 216.69,182.3C214.73,182.2 213.12,181.56 211.26,181.6C209.28,181.64 207.54,182.34 205.14,182.63C201.77,183.03 197.64,182.29 192.92,183.5C185.63,185.37 173.59,192.59 166.42,195.69C161.6,197.77 157.3,199.2 154.2,200.63C152.22,201.54 151.58,202.03 149.44,203.11C145.12,205.3 136.27,210.54 129.74,212.8C123.82,214.85 117.7,213.68 112.08,216.57C105.37,220.02 102.31,231.29 93.06,233.88C77.51,238.23 38.71,221.23 21.74,219.98Q12.45,219.29 0,220.96" style="vector-effect: non-scaling-stroke; fill: none; stroke: rgb(255, 255, 255); stroke-opacity: 0; stroke-width: 2px; opacity: 1;"/></g><g class="points"/><g class="text"/></g><g class="trace scatter traced59b3a" style="stroke-miterlimit: 2; opacity: 1;"><g class="fills"><g><path class="js-fill" d="M0,271.84Q13.09,263.21 21.74,254.24C39.56,235.75 75.77,175.61 93.06,159.24C100.65,152.05 105.55,148.31 112.08,146.52C117.82,144.94 124.55,143.97 129.74,147.46C138.14,153.12 144.1,186.28 149.44,189.44C151.15,190.45 152.54,188.26 154.2,189.14C157.92,191.12 160.85,203.3 166.42,209.92C173.1,217.86 185.36,228.76 192.92,232.41C197.45,234.6 201.8,235.11 205.14,234.84C207.56,234.64 209.27,233.23 211.26,232.55C213.11,231.92 214.77,230.74 216.69,230.89C219.02,231.07 221.63,234.33 224.16,234.54C226.61,234.75 229.56,233.17 231.64,232.34C233.24,231.7 233.82,230.55 235.71,230.25C239.37,229.68 248.61,234.69 252.69,233.06C256,231.74 256.3,224.3 259.49,224.02C265.06,223.54 279.14,234.91 284.62,247.57C295.02,271.56 295.02,366.87 284.62,371.38C279.14,373.76 265.06,347.35 259.49,347.83C256.3,348.11 256.01,355.11 252.69,356.87C248.62,359.03 239.39,358.29 235.71,357.71C233.85,357.41 233.21,356.22 231.64,356.16C229.53,356.08 226.61,358.56 224.16,358.35C221.63,358.13 219.02,354.88 216.69,354.7C214.77,354.55 213.11,355.73 211.26,356.36C209.27,357.04 207.56,358.45 205.14,358.65C201.8,358.92 197.53,358.22 192.92,356.23C185.48,353.02 173.16,344.11 166.42,337.37C161,331.95 157.77,321.94 154.2,320.24C152.5,319.43 151.2,321.49 149.44,320.54C144.34,317.78 137.67,290.74 129.74,285.84C124.46,282.58 117.93,283.75 112.08,284.91C105.7,286.18 100.68,288.24 93.06,293.98C75.84,306.94 39.48,359.22 21.74,374.41Q13.04,381.86 0,388.37Z" style="fill: rgb(0, 68, 148); fill-opacity: 0.05; stroke-width: 0;"/></g></g><g class="errorbars"/><g class="lines"><path class="js-line" d="M0,271.84Q13.09,263.21 21.74,254.24C39.56,235.75 75.77,175.61 93.06,159.24C100.65,152.05 105.55,148.31 112.08,146.52C117.82,144.94 124.55,143.97 129.74,147.46C138.14,153.12 144.1,186.28 149.44,189.44C151.15,190.45 152.54,188.26 154.2,189.14C157.92,191.12 160.85,203.3 166.42,209.92C173.1,217.86 185.36,228.76 192.92,232.41C197.45,234.6 201.8,235.11 205.14,234.84C207.56,234.64 209.27,233.23 211.26,232.55C213.11,231.92 214.77,230.74 216.69,230.89C219.02,231.07 221.63,234.33 224.16,234.54C226.61,234.75 229.56,233.17 231.64,232.34C233.24,231.7 233.82,230.55 235.71,230.25C239.37,229.68 248.61,234.69 252.69,233.06C256,231.74 256.3,224.3 259.49,224.02C265.06,223.54 279.14,234.91 284.62,247.57C295.02,271.56 295.02,366.87 284.62,371.38C279.14,373.76 265.06,347.35 259.49,347.83C256.3,348.11 256.01,355.11 252.69,356.87C248.62,359.03 239.39,358.29 235.71,357.71C233.85,357.41 233.21,356.22 231.64,356.16C229.53,356.08 226.61,358.56 224.16,358.35C221.63,358.13 219.02,354.88 216.69,354.7C214.77,354.55 213.11,355.73 211.26,356.36C209.27,357.04 207.56,358.45 205.14,358.65C201.8,358.92 197.53,358.22 192.92,356.23C185.48,353.02 173.16,344.11 166.42,337.37C161,331.95 157.77,321.94 154.2,320.24C152.5,319.43 151.2,321.49 149.44,320.54C144.34,317.78 137.67,290.74 129.74,285.84C124.46,282.58 117.93,283.75 112.08,284.91C105.7,286.18 100.68,288.24 93.06,293.98C75.84,306.94 39.48,359.22 21.74,374.41Q13.04,381.86 0,388.37" style="vector-effect: non-scaling-stroke; fill: none; stroke: rgb(255, 255, 255); stroke-opacity: 0; stroke-width: 2px; opacity: 1;"/></g><g class="points"/><g class="text"/></g><g class="trace scatter trace794cfc" style="stroke-miterlimit: 2; opacity: 1;"><g class="fills"><g><path class="js-fill" d="M0,345.26Q12.56,346.62 21.74,345.08C38.82,342.21 76.95,320.42 93.06,321.09C101.51,321.44 105.85,329.28 112.08,329.3C118.07,329.32 123.7,324.42 129.74,321.83C136.13,319.09 145.06,313.76 149.44,313.27C151.52,313.04 152.35,314.59 154.2,314.17C157.46,313.43 161.26,307.45 166.42,305.19C173.31,302.17 185.75,300.52 192.92,300.06C197.75,299.75 201.81,301.37 205.14,300.83C207.58,300.43 209.28,298.36 211.26,298.34C213.12,298.32 214.73,300.41 216.69,300.42C218.98,300.43 221.7,297.52 224.16,297.67C226.69,297.82 229.54,300.31 231.64,301.48C233.22,302.36 233.81,303.15 235.71,303.97C239.36,305.55 248.31,307.39 252.69,308.63C255.47,309.42 256.5,310.56 259.49,310.61C265.21,310.7 278.99,299.76 284.62,304.12C296.17,313.07 296.37,400.21 284.62,413.37C278.96,419.7 265.19,416.71 259.49,416.22C256.47,415.96 255.5,414.73 252.69,414.24C248.34,413.48 239.34,414.36 235.71,413.22C233.79,412.62 233.22,411.61 231.64,410.73C229.54,409.56 226.69,407.07 224.16,406.92C221.7,406.77 218.98,409.68 216.69,409.67C214.73,409.66 213.12,407.57 211.26,407.59C209.28,407.61 207.58,409.67 205.14,410.07C201.81,410.61 197.75,408.99 192.92,409.3C185.75,409.76 173.47,412.25 166.42,414.44C161.47,415.98 157.37,419.41 154.2,419.77C152.29,419.99 151.56,418.82 149.44,418.88C145.1,419.01 136.05,421.68 129.74,423.79C123.61,425.84 118.16,430.77 112.08,431.27C105.94,431.78 101.43,426.72 93.06,426.7C76.87,426.65 38.73,441.38 21.74,443.41Q12.48,444.52 0,443.58Z" style="fill: rgb(234, 35, 41); fill-opacity: 0.05; stroke-width: 0;"/></g></g><g class="errorbars"/><g class="lines"><path class="js-line" d="M0,345.26Q12.56,346.62 21.74,345.08C38.82,342.21 76.95,320.42 93.06,321.09C101.51,321.44 105.85,329.28 112.08,329.3C118.07,329.32 123.7,324.42 129.74,321.83C136.13,319.09 145.06,313.76 149.44,313.27C151.52,313.04 152.35,314.59 154.2,314.17C157.46,313.43 161.26,307.45 166.42,305.19C173.31,302.17 185.75,300.52 192.92,300.06C197.75,299.75 201.81,301.37 205.14,300.83C207.58,300.43 209.28,298.36 211.26,298.34C213.12,298.32 214.73,300.41 216.69,300.42C218.98,300.43 221.7,297.52 224.16,297.67C226.69,297.82 229.54,300.31 231.64,301.48C233.22,302.36 233.81,303.15 235.71,303.97C239.36,305.55 248.31,307.39 252.69,308.63C255.47,309.42 256.5,310.56 259.49,310.61C265.21,310.7 278.99,299.76 284.62,304.12C296.17,313.07 296.37,400.21 284.62,413.37C278.96,419.7 265.19,416.71 259.49,416.22C256.47,415.96 255.5,414.73 252.69,414.24C248.34,413.48 239.34,414.36 235.71,413.22C233.79,412.62 233.22,411.61 231.64,410.73C229.54,409.56 226.69,407.07 224.16,406.92C221.7,406.77 218.98,409.68 216.69,409.67C214.73,409.66 213.12,407.57 211.26,407.59C209.28,407.61 207.58,409.67 205.14,410.07C201.81,410.61 197.75,408.99 192.92,409.3C185.75,409.76 173.47,412.25 166.42,414.44C161.47,415.98 157.37,419.41 154.2,419.77C152.29,419.99 151.56,418.82 149.44,418.88C145.1,419.01 136.05,421.68 129.74,423.79C123.61,425.84 118.16,430.77 112.08,431.27C105.94,431.78 101.43,426.72 93.06,426.7C76.87,426.65 38.73,441.38 21.74,443.41Q12.48,444.52 0,443.58" style="vector-effect: non-scaling-stroke; fill: none; stroke: rgb(255, 255, 255); stroke-opacity: 0; stroke-width: 2px; opacity: 1;"/></g><g class="points"/><g class="text"/></g><g class="trace scatter trace58ced7" style="stroke-miterlimit: 2; opacity: 1;"><g class="fills"><g><path class="js-fill" d="M0,352.76Q12.11,360.51 21.74,364.07C38.39,370.23 76.8,379.26 93.06,380.71C101.35,381.45 105.86,379.55 112.08,379.73C118.08,379.9 124.29,383.99 129.74,381.65C137.11,378.48 144.63,358.46 149.44,355.74C151.29,354.7 152.45,356.12 154.2,355.22C157.63,353.46 160.89,344.66 166.42,341.59C173.12,337.87 185.78,336.86 192.92,336.92C197.78,336.96 201.82,339.71 205.14,339.29C207.59,338.98 209.26,336.51 211.26,336.39C213.1,336.28 214.71,337.8 216.69,338.2C218.96,338.66 221.69,338.99 224.16,338.78C226.67,338.57 229.51,337.24 231.64,336.92C233.19,336.69 233.95,337.14 235.71,336.69C239.5,335.71 248.25,330.23 252.69,328.51C255.42,327.45 256.53,326.35 259.49,326.47C265.25,326.7 279.09,328.17 284.62,336.26C295.38,351.99 295.68,429.54 284.62,438.22C279.05,442.59 265.22,433.45 259.49,432.07C256.51,431.35 255.4,430.17 252.69,430.47C248.23,430.96 239.5,437.68 235.71,438.66C233.95,439.12 233.19,439.03 231.64,438.89C229.51,438.7 226.62,436.91 224.16,437.1C221.64,437.29 219,440.08 216.69,440.16C214.75,440.23 213.15,438.77 211.26,438.35C209.3,437.91 207.53,437.63 205.14,437.61C201.77,437.58 197.78,438.54 192.92,438.89C185.78,439.4 173.25,437.34 166.42,439.92C161.15,441.91 157.5,448.52 154.2,449.9C152.38,450.66 151.37,449.53 149.44,450.42C144.84,452.55 136.7,466.71 129.74,469.05C124.11,470.94 118.08,467.3 112.08,467.13C105.86,466.95 101.4,468.44 93.06,468.11C76.85,467.47 38.34,463.99 21.74,458.76Q12.05,455.71 0,447.45Z" style="fill: rgb(0, 0, 0); fill-opacity: 0.05; stroke-width: 0;"/></g></g><g class="errorbars"/><g class="lines"><path class="js-line" d="M0,352.76Q12.11,360.51 21.74,364.07C38.39,370.23 76.8,379.26 93.06,380.71C101.35,381.45 105.86,379.55 112.08,379.73C118.08,379.9 124.29,383.99 129.74,381.65C137.11,378.48 144.63,358.46 149.44,355.74C151.29,354.7 152.45,356.12 154.2,355.22C157.63,353.46 160.89,344.66 166.42,341.59C173.12,337.87 185.78,336.86 192.92,336.92C197.78,336.96 201.82,339.71 205.14,339.29C207.59,338.98 209.26,336.51 211.26,336.39C213.1,336.28 214.71,337.8 216.69,338.2C218.96,338.66 221.69,338.99 224.16,338.78C226.67,338.57 229.51,337.24 231.64,336.92C233.19,336.69 233.95,337.14 235.71,336.69C239.5,335.71 248.25,330.23 252.69,328.51C255.42,327.45 256.53,326.35 259.49,326.47C265.25,326.7 279.09,328.17 284.62,336.26C295.38,351.99 295.68,429.54 284.62,438.22C279.05,442.59 265.22,433.45 259.49,432.07C256.51,431.35 255.4,430.17 252.69,430.47C248.23,430.96 239.5,437.68 235.71,438.66C233.95,439.12 233.19,439.03 231.64,438.89C229.51,438.7 226.62,436.91 224.16,437.1C221.64,437.29 219,440.08 216.69,440.16C214.75,440.23 213.15,438.77 211.26,438.35C209.3,437.91 207.53,437.63 205.14,437.61C201.77,437.58 197.78,438.54 192.92,438.89C185.78,439.4 173.25,437.34 166.42,439.92C161.15,441.91 157.5,448.52 154.2,449.9C152.38,450.66 151.37,449.53 149.44,450.42C144.84,452.55 136.7,466.71 129.74,469.05C124.11,470.94 118.08,467.3 112.08,467.13C105.86,466.95 101.4,468.44 93.06,468.11C76.85,467.47 38.34,463.99 21.74,458.76Q12.05,455.71 0,447.45" style="vector-effect: non-scaling-stroke; fill: none; stroke: rgb(255, 255, 255); stroke-opacity: 0; stroke-width: 2px; opacity: 1;"/></g><g class="points"/><g class="text"/></g><g class="trace scatter trace962818" style="stroke-miterlimit: 2; opacity: 1;"><g class="fills"><g><path class="js-fill" d="M0,372.26Q7.78,324.32 21.74,316.98C37.24,308.83 77.22,326.94 93.06,333.53C101.83,337.18 105.87,341.51 112.08,345.47C118.09,349.3 124.07,351.85 129.74,356.91C136.62,363.05 145.09,375.68 149.44,380.85C151.55,383.36 152.24,384.14 154.2,386.4C157.32,389.98 160.97,396.53 166.42,400.21C173.15,404.75 185.71,407.78 192.92,409.61C197.71,410.83 201.83,410.48 205.14,411.54C207.6,412.33 209.25,414.45 211.26,414.61C213.09,414.76 214.75,413.61 216.69,412.92C219,412.1 221.63,410.68 224.16,409.95C226.62,409.24 229.56,409.23 231.64,408.57C233.24,408.06 233.83,407.16 235.71,406.68C239.38,405.75 248.3,405.53 252.69,405.58C255.47,405.61 256.52,406.28 259.49,406.19C265.23,406.01 279.26,397.72 284.62,402.32C294.13,410.48 294.13,471.35 284.62,482.44C279.26,488.69 265.23,486.13 259.49,486.31C256.52,486.4 255.46,486.03 252.69,485.7C248.3,485.17 239.38,482.62 235.71,483.15C233.83,483.42 233.24,484.53 231.64,485.04C229.56,485.7 226.62,485.71 224.16,486.42C221.63,487.15 219,488.57 216.69,489.39C214.75,490.08 213.09,491.24 211.26,491.09C209.25,490.93 207.6,488.8 205.14,488.01C201.83,486.95 197.76,486.99 192.92,486.09C185.76,484.75 173.26,483.67 166.42,480.33C161.18,477.77 157.46,472.1 154.2,470.16C152.35,469.06 151.44,469.45 149.44,468.25C144.95,465.55 136.43,455.78 129.74,451.59C123.95,447.97 118.08,446.43 112.08,443.8C105.86,441.07 101.62,438.1 93.06,435.49C77.06,430.62 37.34,415.04 21.74,422.59Q9.29,428.62 0,463.31Z" style="fill: rgb(93, 140, 0); fill-opacity: 0.05; stroke-width: 0;"/></g></g><g class="errorbars"/><g class="lines"><path class="js-line" d="M0,372.26Q7.78,324.32 21.74,316.98C37.24,308.83 77.22,326.94 93.06,333.53C101.83,337.18 105.87,341.51 112.08,345.47C118.09,349.3 124.07,351.85 129.74,356.91C136.62,363.05 145.09,375.68 149.44,380.85C151.55,383.36 152.24,384.14 154.2,386.4C157.32,389.98 160.97,396.53 166.42,400.21C173.15,404.75 185.71,407.78 192.92,409.61C197.71,410.83 201.83,410.48 205.14,411.54C207.6,412.33 209.25,414.45 211.26,414.61C213.09,414.76 214.75,413.61 216.69,412.92C219,412.1 221.63,410.68 224.16,409.95C226.62,409.24 229.56,409.23 231.64,408.57C233.24,408.06 233.83,407.16 235.71,406.68C239.38,405.75 248.3,405.53 252.69,405.58C255.47,405.61 256.52,406.28 259.49,406.19C265.23,406.01 279.26,397.72 284.62,402.32C294.13,410.48 294.13,471.35 284.62,482.44C279.26,488.69 265.23,486.13 259.49,486.31C256.52,486.4 255.46,486.03 252.69,485.7C248.3,485.17 239.38,482.62 235.71,483.15C233.83,483.42 233.24,484.53 231.64,485.04C229.56,485.7 226.62,485.71 224.16,486.42C221.63,487.15 219,488.57 216.69,489.39C214.75,490.08 213.09,491.24 211.26,491.09C209.25,490.93 207.6,488.8 205.14,488.01C201.83,486.95 197.76,486.99 192.92,486.09C185.76,484.75 173.26,483.67 166.42,480.33C161.18,477.77 157.46,472.1 154.2,470.16C152.35,469.06 151.44,469.45 149.44,468.25C144.95,465.55 136.43,455.78 129.74,451.59C123.95,447.97 118.08,446.43 112.08,443.8C105.86,441.07 101.62,438.1 93.06,435.49C77.06,430.62 37.34,415.04 21.74,422.59Q9.29,428.62 0,463.31" style="vector-effect: non-scaling-stroke; fill: none; stroke: rgb(255, 255, 255); stroke-opacity: 0; stroke-width: 2px; opacity: 1;"/></g><g class="points"/><g class="text"/></g><g class="trace scatter trace8b9283" style="stroke-miterlimit: 2; opacity: 1;"><g class="fills"><g><path class="js-fill" d="M0,386.87Q12.52,386.94 21.74,388.67C38.77,391.87 77.45,401.15 93.06,409.88C102.2,415 105.54,422.53 112.08,426.94C117.81,430.81 123.54,434.74 129.74,435.59C135.99,436.45 145.1,432.18 149.44,431.97C151.56,431.87 152.27,432.57 154.2,432.37C157.35,432.04 161.54,429.95 166.42,428.73C173.53,426.96 185.8,423.12 192.92,423.38C197.8,423.56 201.78,425.75 205.14,426.78C207.54,427.52 209.32,429.01 211.26,428.84C213.16,428.67 214.69,426.69 216.69,425.85C218.94,424.91 221.65,423.82 224.16,423.64C226.63,423.47 229.53,424.79 231.64,424.75C233.2,424.72 233.88,424.24 235.71,423.97C239.42,423.42 248.36,423.23 252.69,422.14C255.53,421.43 256.44,419.72 259.49,419.38C265.16,418.74 279.36,417.26 284.62,423.45C293.52,433.91 293.6,487.45 284.62,496.28C279.34,501.47 265.21,496.27 259.49,495.85C256.5,495.63 255.47,495 252.69,494.97C248.3,494.92 239.33,497.73 235.71,496.8C233.76,496.3 233.27,494.18 231.64,493.94C229.58,493.64 226.66,495.68 224.16,496.47C221.68,497.26 219,498.5 216.69,498.69C214.75,498.85 213.1,498.45 211.26,498.03C209.26,497.58 207.57,496.34 205.14,495.97C201.8,495.46 197.77,496.01 192.92,496.22C185.77,496.52 173.51,496.65 166.42,497.92C161.51,498.8 157.35,501.23 154.2,501.56C152.27,501.76 151.56,501.06 149.44,501.16C145.1,501.37 135.99,505.64 129.74,504.78C123.54,503.93 118.06,499.13 112.08,496.13C105.84,493 101.71,489.36 93.06,486.36C77.12,480.83 38.7,474.77 21.74,472.42Q12.45,471.13 0,470.63Z" style="fill: rgb(114, 55, 105); fill-opacity: 0.05; stroke-width: 0;"/></g></g><g class="errorbars"/><g class="lines"><path class="js-line" d="M0,386.87Q12.52,386.94 21.74,388.67C38.77,391.87 77.45,401.15 93.06,409.88C102.2,415 105.54,422.53 112.08,426.94C117.81,430.81 123.54,434.74 129.74,435.59C135.99,436.45 145.1,432.18 149.44,431.97C151.56,431.87 152.27,432.57 154.2,432.37C157.35,432.04 161.54,429.95 166.42,428.73C173.53,426.96 185.8,423.12 192.92,423.38C197.8,423.56 201.78,425.75 205.14,426.78C207.54,427.52 209.32,429.01 211.26,428.84C213.16,428.67 214.69,426.69 216.69,425.85C218.94,424.91 221.65,423.82 224.16,423.64C226.63,423.47 229.53,424.79 231.64,424.75C233.2,424.72 233.88,424.24 235.71,423.97C239.42,423.42 248.36,423.23 252.69,422.14C255.53,421.43 256.44,419.72 259.49,419.38C265.16,418.74 279.36,417.26 284.62,423.45C293.52,433.91 293.6,487.45 284.62,496.28C279.34,501.47 265.21,496.27 259.49,495.85C256.5,495.63 255.47,495 252.69,494.97C248.3,494.92 239.33,497.73 235.71,496.8C233.76,496.3 233.27,494.18 231.64,493.94C229.58,493.64 226.66,495.68 224.16,496.47C221.68,497.26 219,498.5 216.69,498.69C214.75,498.85 213.1,498.45 211.26,498.03C209.26,497.58 207.57,496.34 205.14,495.97C201.8,495.46 197.77,496.01 192.92,496.22C185.77,496.52 173.51,496.65 166.42,497.92C161.51,498.8 157.35,501.23 154.2,501.56C152.27,501.76 151.56,501.06 149.44,501.16C145.1,501.37 135.99,505.64 129.74,504.78C123.54,503.93 118.06,499.13 112.08,496.13C105.84,493 101.71,489.36 93.06,486.36C77.12,480.83 38.7,474.77 21.74,472.42Q12.45,471.13 0,470.63" style="vector-effect: non-scaling-stroke; fill: none; stroke: rgb(255, 255, 255); stroke-opacity: 0; stroke-width: 2px; opacity: 1;"/></g><g class="points"/><g class="text"/></g><g class="trace scatter tracee8c4da" style="stroke-miterlimit: 2; opacity: 1;"><g class="fills"><g><path class="js-fill" d="M0,403.89Q10.58,427.1 21.74,431.9C37.61,438.72 77.02,422.78 93.06,424.83C101.59,425.92 105.78,430.14 112.08,431.84C118,433.44 123.67,434.16 129.74,434.95C136.11,435.78 145.12,436.88 149.44,436.65C151.58,436.54 152.24,435.81 154.2,435.73C157.32,435.59 161.56,436.59 166.42,437.01C173.56,437.63 185.78,438.13 192.92,438.81C197.78,439.27 201.76,440.03 205.14,440.31C207.52,440.51 209.33,440.98 211.26,440.58C213.18,440.18 214.7,438.69 216.69,437.92C218.95,437.04 221.65,435.98 224.16,435.73C226.63,435.49 229.67,437.19 231.64,436.4C233.43,435.68 233.6,432.98 235.71,431.74C239.25,429.66 248.45,427.21 252.69,428.11C255.64,428.73 256.3,432.28 259.49,433.03C265.05,434.33 279.41,424.39 284.62,428.8C293.21,436.06 293.29,489.11 284.62,497.99C279.39,503.34 265.21,499.05 259.49,498.58C256.49,498.34 255.46,497.27 252.69,497.3C248.3,497.35 239.43,500.07 235.71,500.93C233.88,501.35 233.18,501.45 231.64,501.95C229.5,502.64 226.69,504.68 224.16,504.92C221.7,505.15 218.94,503.17 216.69,503.47C214.69,503.74 213.18,505.73 211.26,506.13C209.33,506.53 207.52,506.06 205.14,505.86C201.76,505.58 197.78,504.82 192.92,504.36C185.78,503.68 173.54,502.12 166.42,502.56C161.54,502.86 157.26,505.44 154.2,504.93C152.17,504.59 151.67,502.9 149.44,502.2C145.2,500.87 136.13,500.68 129.74,500.5C123.7,500.33 117.98,501.99 112.08,501.03C105.76,500 101.59,495.11 93.06,494.02C77.02,491.97 38.05,505.84 21.74,501.09Q11.61,498.14 0,484Z" style="fill: rgb(230, 172, 33); fill-opacity: 0.05; stroke-width: 0;"/></g></g><g class="errorbars"/><g class="lines"><path class="js-line" d="M0,403.89Q10.58,427.1 21.74,431.9C37.61,438.72 77.02,422.78 93.06,424.83C101.59,425.92 105.78,430.14 112.08,431.84C118,433.44 123.67,434.16 129.74,434.95C136.11,435.78 145.12,436.88 149.44,436.65C151.58,436.54 152.24,435.81 154.2,435.73C157.32,435.59 161.56,436.59 166.42,437.01C173.56,437.63 185.78,438.13 192.92,438.81C197.78,439.27 201.76,440.03 205.14,440.31C207.52,440.51 209.33,440.98 211.26,440.58C213.18,440.18 214.7,438.69 216.69,437.92C218.95,437.04 221.65,435.98 224.16,435.73C226.63,435.49 229.67,437.19 231.64,436.4C233.43,435.68 233.6,432.98 235.71,431.74C239.25,429.66 248.45,427.21 252.69,428.11C255.64,428.73 256.3,432.28 259.49,433.03C265.05,434.33 279.41,424.39 284.62,428.8C293.21,436.06 293.29,489.11 284.62,497.99C279.39,503.34 265.21,499.05 259.49,498.58C256.49,498.34 255.46,497.27 252.69,497.3C248.3,497.35 239.43,500.07 235.71,500.93C233.88,501.35 233.18,501.45 231.64,501.95C229.5,502.64 226.69,504.68 224.16,504.92C221.7,505.15 218.94,503.17 216.69,503.47C214.69,503.74 213.18,505.73 211.26,506.13C209.33,506.53 207.52,506.06 205.14,505.86C201.76,505.58 197.78,504.82 192.92,504.36C185.78,503.68 173.54,502.12 166.42,502.56C161.54,502.86 157.26,505.44 154.2,504.93C152.17,504.59 151.67,502.9 149.44,502.2C145.2,500.87 136.13,500.68 129.74,500.5C123.7,500.33 117.98,501.99 112.08,501.03C105.76,500 101.59,495.11 93.06,494.02C77.02,491.97 38.05,505.84 21.74,501.09Q11.61,498.14 0,484" style="vector-effect: non-scaling-stroke; fill: none; stroke: rgb(255, 255, 255); stroke-opacity: 0; stroke-width: 2px; opacity: 1;"/></g><g class="points"/><g class="text"/></g><g class="trace scatter trace8b8321" style="stroke-miterlimit: 2; opacity: 1;"><g class="fills"><g><path class="js-fill" d="M0,429.81Q12.43,432.96 21.74,435.58C38.68,440.34 76.75,454.3 93.06,456.75C101.31,457.99 106,458.25 112.08,456.93C118.24,455.59 124.07,452.77 129.74,448.65C136.63,443.63 144.78,429.18 149.44,427.53C151.34,426.86 152.28,428.41 154.2,428.21C157.36,427.88 161.49,424.25 166.42,423.73C173.49,422.99 185.86,425.69 192.92,427.52C197.86,428.8 201.75,430.99 205.14,432.18C207.52,433.01 209.38,433.08 211.26,434.15C213.25,435.29 214.57,438.29 216.69,438.96C218.85,439.64 221.71,437.79 224.16,438.1C226.69,438.42 229.51,440.88 231.64,440.99C233.19,441.07 233.88,440.31 235.71,439.9C239.42,439.08 248.32,436.68 252.69,436.88C255.48,437.01 256.47,438.4 259.49,438.76C265.19,439.45 279.45,433 284.62,438.02C292.97,446.13 292.97,494.96 284.62,503.56C279.45,508.89 265.19,505 259.49,504.31C256.47,503.95 255.48,502.56 252.69,502.43C248.32,502.23 239.42,504.63 235.71,505.45C233.88,505.86 233.19,506.62 231.64,506.54C229.51,506.43 226.69,503.98 224.16,503.65C221.71,503.34 218.97,504.61 216.69,504.5C214.73,504.4 213.11,503.83 211.26,503.34C209.27,502.81 207.56,501.85 205.14,501.37C201.8,500.7 197.76,500.9 192.92,500.35C185.77,499.54 173.58,496.82 166.42,496.56C161.58,496.38 157.24,496.42 154.2,497.4C152.14,498.06 151.6,499.13 149.44,500.36C145.14,502.8 136.27,508.05 129.74,510.56C123.82,512.84 118.13,514.45 112.08,515.2C105.91,515.97 101.39,515.65 93.06,515.01C76.84,513.77 38.58,508.2 21.74,504.77Q12.33,502.85 0,499Z" style="fill: rgb(240, 125, 0); fill-opacity: 0.05; stroke-width: 0;"/></g></g><g class="errorbars"/><g class="lines"><path class="js-line" d="M0,429.81Q12.43,432.96 21.74,435.58C38.68,440.34 76.75,454.3 93.06,456.75C101.31,457.99 106,458.25 112.08,456.93C118.24,455.59 124.07,452.77 129.74,448.65C136.63,443.63 144.78,429.18 149.44,427.53C151.34,426.86 152.28,428.41 154.2,428.21C157.36,427.88 161.49,424.25 166.42,423.73C173.49,422.99 185.86,425.69 192.92,427.52C197.86,428.8 201.75,430.99 205.14,432.18C207.52,433.01 209.38,433.08 211.26,434.15C213.25,435.29 214.57,438.29 216.69,438.96C218.85,439.64 221.71,437.79 224.16,438.1C226.69,438.42 229.51,440.88 231.64,440.99C233.19,441.07 233.88,440.31 235.71,439.9C239.42,439.08 248.32,436.68 252.69,436.88C255.48,437.01 256.47,438.4 259.49,438.76C265.19,439.45 279.45,433 284.62,438.02C292.97,446.13 292.97,494.96 284.62,503.56C279.45,508.89 265.19,505 259.49,504.31C256.47,503.95 255.48,502.56 252.69,502.43C248.32,502.23 239.42,504.63 235.71,505.45C233.88,505.86 233.19,506.62 231.64,506.54C229.51,506.43 226.69,503.98 224.16,503.65C221.71,503.34 218.97,504.61 216.69,504.5C214.73,504.4 213.11,503.83 211.26,503.34C209.27,502.81 207.56,501.85 205.14,501.37C201.8,500.7 197.76,500.9 192.92,500.35C185.77,499.54 173.58,496.82 166.42,496.56C161.58,496.38 157.24,496.42 154.2,497.4C152.14,498.06 151.6,499.13 149.44,500.36C145.14,502.8 136.27,508.05 129.74,510.56C123.82,512.84 118.13,514.45 112.08,515.2C105.91,515.97 101.39,515.65 93.06,515.01C76.84,513.77 38.58,508.2 21.74,504.77Q12.33,502.85 0,499" style="vector-effect: non-scaling-stroke; fill: none; stroke: rgb(255, 255, 255); stroke-opacity: 0; stroke-width: 2px; opacity: 1;"/></g><g class="points"/><g class="text"/></g><g class="trace scatter trace9a78c1" style="stroke-miterlimit: 2; opacity: 1;"><g class="fills"><g><path class="js-fill" d="M0,449.21Q12.58,446.71 21.74,448.08C38.84,450.63 76.79,473.26 93.06,473.98C101.35,474.35 105.8,469.74 112.08,468.93C118.02,468.16 123.72,469.5 129.74,468.99C136.15,468.45 145.1,465.97 149.44,465.56C151.56,465.36 152.26,465.73 154.2,465.48C157.35,465.08 161.53,463.08 166.42,462.51C173.52,461.68 185.78,462.39 192.92,462.69C197.78,462.89 201.77,463.72 205.14,463.62C207.53,463.55 209.3,462.62 211.26,462.78C213.14,462.94 214.93,463.24 216.69,464.48C219.28,466.3 221.36,473.59 224.16,474.31C226.44,474.89 229.48,471.47 231.64,470.97C233.16,470.62 233.89,470.8 235.71,470.83C239.43,470.89 248.34,472.43 252.69,471.93C255.5,471.61 256.63,471.22 259.49,469.88C265.37,467.12 279.75,450.64 284.62,453.26C291.4,456.9 291.98,500.95 284.62,511.53C279.63,518.71 265.24,518.92 259.49,520.86C256.53,521.86 255.5,522.6 252.69,522.92C248.34,523.42 239.43,521.87 235.71,521.81C233.89,521.78 233.2,521.95 231.64,521.95C229.52,521.94 226.62,522.11 224.16,521.65C221.63,521.18 218.99,519.85 216.69,519.1C214.74,518.46 213.14,517.56 211.26,517.4C209.3,517.24 207.53,518.17 205.14,518.24C201.77,518.34 197.78,517.52 192.92,517.32C185.78,517.03 173.56,517.35 166.42,517.13C161.57,516.98 157.33,516.53 154.2,516.47C152.25,516.43 151.56,516.34 149.44,516.54C145.1,516.95 136.15,519.43 129.74,519.97C123.72,520.48 118.07,519.7 112.08,519.91C105.85,520.13 101.4,521.67 93.06,521.32C76.84,520.64 38.69,510.87 21.74,509.98Q12.44,509.49 0,511.12Z" style="fill: rgb(140, 0, 0); fill-opacity: 0.05; stroke-width: 0;"/></g></g><g class="errorbars"/><g class="lines"><path class="js-line" d="M0,449.21Q12.58,446.71 21.74,448.08C38.84,450.63 76.79,473.26 93.06,473.98C101.35,474.35 105.8,469.74 112.08,468.93C118.02,468.16 123.72,469.5 129.74,468.99C136.15,468.45 145.1,465.97 149.44,465.56C151.56,465.36 152.26,465.73 154.2,465.48C157.35,465.08 161.53,463.08 166.42,462.51C173.52,461.68 185.78,462.39 192.92,462.69C197.78,462.89 201.77,463.72 205.14,463.62C207.53,463.55 209.3,462.62 211.26,462.78C213.14,462.94 214.93,463.24 216.69,464.48C219.28,466.3 221.36,473.59 224.16,474.31C226.44,474.89 229.48,471.47 231.64,470.97C233.16,470.62 233.89,470.8 235.71,470.83C239.43,470.89 248.34,472.43 252.69,471.93C255.5,471.61 256.63,471.22 259.49,469.88C265.37,467.12 279.75,450.64 284.62,453.26C291.4,456.9 291.98,500.95 284.62,511.53C279.63,518.71 265.24,518.92 259.49,520.86C256.53,521.86 255.5,522.6 252.69,522.92C248.34,523.42 239.43,521.87 235.71,521.81C233.89,521.78 233.2,521.95 231.64,521.95C229.52,521.94 226.62,522.11 224.16,521.65C221.63,521.18 218.99,519.85 216.69,519.1C214.74,518.46 213.14,517.56 211.26,517.4C209.3,517.24 207.53,518.17 205.14,518.24C201.77,518.34 197.78,517.52 192.92,517.32C185.78,517.03 173.56,517.35 166.42,517.13C161.57,516.98 157.33,516.53 154.2,516.47C152.25,516.43 151.56,516.34 149.44,516.54C145.1,516.95 136.15,519.43 129.74,519.97C123.72,520.48 118.07,519.7 112.08,519.91C105.85,520.13 101.4,521.67 93.06,521.32C76.84,520.64 38.69,510.87 21.74,509.98Q12.44,509.49 0,511.12" style="vector-effect: non-scaling-stroke; fill: none; stroke: rgb(255, 255, 255); stroke-opacity: 0; stroke-width: 2px; opacity: 1;"/></g><g class="points"/><g class="text"/></g><g class="trace scatter trace7a860c" style="stroke-miterlimit: 2; opacity: 1;"><g class="fills"><g><path class="js-fill" d="M0,439.02Q11.53,453.15 21.74,456.81C38,462.64 76.89,458.06 93.06,456.97C101.45,456.4 105.88,454.06 112.08,454.34C118.1,454.61 123.68,457.14 129.74,458.45C136.12,459.83 145.18,460.89 149.44,462.37C151.64,463.14 152.17,464.31 154.2,464.81C157.27,465.57 161.64,465.68 166.42,464.96C173.64,463.88 185.72,458.15 192.92,456.46C197.72,455.33 201.76,454.74 205.14,454.59C207.52,454.48 209.28,454.95 211.26,454.98C213.12,455.01 214.74,454.81 216.69,454.79C218.98,454.77 221.67,455 224.16,454.93C226.65,454.86 229.52,454.47 231.64,454.35C233.2,454.26 233.98,453.74 235.71,454.21C239.54,455.25 248.18,462.99 252.69,464.93C255.36,466.07 256.79,465.08 259.49,466.65C265.63,470.21 280.43,482.34 284.62,492.74C288.83,503.17 289.94,525.25 284.62,529.16C280.09,532.48 265.24,522.89 259.49,521.27C256.52,520.43 255.43,520.47 252.69,519.56C248.26,518.09 239.48,513.17 235.71,512.48C233.94,512.16 233.2,512.53 231.64,512.62C229.52,512.74 226.65,513.13 224.16,513.2C221.67,513.27 218.98,513.03 216.69,513.05C214.74,513.06 213.12,513.27 211.26,513.24C209.28,513.21 207.52,512.75 205.14,512.86C201.76,513.01 197.76,513.92 192.92,514.73C185.77,515.93 173.59,518.99 166.42,519.59C161.59,520 157.27,520.19 154.2,519.43C152.17,518.93 151.66,517.54 149.44,516.99C145.19,515.93 136.09,517.48 129.74,516.71C123.65,515.97 118.1,512.88 112.08,512.61C105.88,512.33 101.45,514.66 93.06,515.23C76.89,516.32 38.36,518.9 21.74,515.08Q12.07,512.85 0,504.57Z" style="fill: rgb(0, 51, 255); fill-opacity: 0.05; stroke-width: 0;"/></g></g><g class="errorbars"/><g class="lines"><path class="js-line" d="M0,439.02Q11.53,453.15 21.74,456.81C38,462.64 76.89,458.06 93.06,456.97C101.45,456.4 105.88,454.06 112.08,454.34C118.1,454.61 123.68,457.14 129.74,458.45C136.12,459.83 145.18,460.89 149.44,462.37C151.64,463.14 152.17,464.31 154.2,464.81C157.27,465.57 161.64,465.68 166.42,464.96C173.64,463.88 185.72,458.15 192.92,456.46C197.72,455.33 201.76,454.74 205.14,454.59C207.52,454.48 209.28,454.95 211.26,454.98C213.12,455.01 214.74,454.81 216.69,454.79C218.98,454.77 221.67,455 224.16,454.93C226.65,454.86 229.52,454.47 231.64,454.35C233.2,454.26 233.98,453.74 235.71,454.21C239.54,455.25 248.18,462.99 252.69,464.93C255.36,466.07 256.79,465.08 259.49,466.65C265.63,470.21 280.43,482.34 284.62,492.74C288.83,503.17 289.94,525.25 284.62,529.16C280.09,532.48 265.24,522.89 259.49,521.27C256.52,520.43 255.43,520.47 252.69,519.56C248.26,518.09 239.48,513.17 235.71,512.48C233.94,512.16 233.2,512.53 231.64,512.62C229.52,512.74 226.65,513.13 224.16,513.2C221.67,513.27 218.98,513.03 216.69,513.05C214.74,513.06 213.12,513.27 211.26,513.24C209.28,513.21 207.52,512.75 205.14,512.86C201.76,513.01 197.76,513.92 192.92,514.73C185.77,515.93 173.59,518.99 166.42,519.59C161.59,520 157.27,520.19 154.2,519.43C152.17,518.93 151.66,517.54 149.44,516.99C145.19,515.93 136.09,517.48 129.74,516.71C123.65,515.97 118.1,512.88 112.08,512.61C105.88,512.33 101.45,514.66 93.06,515.23C76.89,516.32 38.36,518.9 21.74,515.08Q12.07,512.85 0,504.57" style="vector-effect: non-scaling-stroke; fill: none; stroke: rgb(255, 255, 255); stroke-opacity: 0; stroke-width: 2px; opacity: 1;"/></g><g class="points"/><g class="text"/></g><g class="trace scatter trace6b5fac" style="stroke-miterlimit: 2; opacity: 1;"><g class="fills"/><g class="errorbars"/><g class="lines"><path class="js-line" d="M0,147.13Q12.44,147.15 21.74,148.11C38.69,149.86 77.43,163.87 93.06,159.7C102.16,157.27 105.56,148.09 112.08,144.24C117.83,140.84 123.71,139.62 129.74,137.09C136.14,134.41 145.07,130.02 149.44,128.56C151.53,127.86 152.29,128.1 154.2,127.41C157.38,126.26 161.57,123.82 166.42,121.42C173.57,117.87 185.64,110.73 192.92,108.12C197.65,106.43 201.76,105.45 205.14,105.35C207.52,105.28 209.28,106.34 211.26,106.38C213.12,106.42 214.73,105.78 216.69,105.68C218.98,105.56 221.67,105.8 224.16,105.87C226.65,105.94 229.53,105.86 231.64,106.12C233.21,106.31 233.88,106.67 235.71,106.98C239.42,107.61 248.53,107.15 252.69,109.14C255.78,110.62 256.24,115.08 259.49,115.67Q265.02,116.68 284.62,104.89" style="vector-effect: non-scaling-stroke; fill: none; stroke: rgb(38, 16, 96); stroke-opacity: 1; stroke-width: 7px; opacity: 1;"/></g><g class="points"/><g class="text"/></g><g class="trace scatter trace67ab82" style="stroke-miterlimit: 2; opacity: 1;"><g class="fills"/><g class="errorbars"/><g class="lines"/><g class="points"><path class="point" transform="translate(0,146.6)" d="M7.5,0A7.5,7.5 0 1,1 0,-7.5A7.5,7.5 0 0,1 7.5,0Z" style="opacity: 1; stroke-width: 0px; fill: rgb(38, 16, 96); fill-opacity: 0.25;"/><path class="point" transform="translate(21.74,148.01)" d="M7.5,0A7.5,7.5 0 1,1 0,-7.5A7.5,7.5 0 0,1 7.5,0Z" style="opacity: 1; stroke-width: 0px; fill: rgb(38, 16, 96); fill-opacity: 0.25;"/><path class="point" transform="translate(93.06,176.31)" d="M7.5,0A7.5,7.5 0 1,1 0,-7.5A7.5,7.5 0 0,1 7.5,0Z" style="opacity: 1; stroke-width: 0px; fill: rgb(38, 16, 96); fill-opacity: 0.25;"/><path class="point" transform="translate(112.08,140.94)" d="M7.5,0A7.5,7.5 0 1,1 0,-7.5A7.5,7.5 0 0,1 7.5,0Z" style="opacity: 1; stroke-width: 0px; fill: rgb(38, 16, 96); fill-opacity: 0.25;"/><path class="point" transform="translate(129.74,140.94)" d="M7.5,0A7.5,7.5 0 1,1 0,-7.5A7.5,7.5 0 0,1 7.5,0Z" style="opacity: 1; stroke-width: 0px; fill: rgb(38, 16, 96); fill-opacity: 0.25;"/><path class="point" transform="translate(149.44,126.79)" d="M7.5,0A7.5,7.5 0 1,1 0,-7.5A7.5,7.5 0 0,1 7.5,0Z" style="opacity: 1; stroke-width: 0px; fill: rgb(38, 16, 96); fill-opacity: 0.25;"/><path class="point" transform="translate(154.2,133.87)" d="M7.5,0A7.5,7.5 0 1,1 0,-7.5A7.5,7.5 0 0,1 7.5,0Z" style="opacity: 1; stroke-width: 0px; fill: rgb(38, 16, 96); fill-opacity: 0.25;"/><path class="point" transform="translate(166.42,119.72)" d="M7.5,0A7.5,7.5 0 1,1 0,-7.5A7.5,7.5 0 0,1 7.5,0Z" style="opacity: 1; stroke-width: 0px; fill: rgb(38, 16, 96); fill-opacity: 0.25;"/><path class="point" transform="translate(192.92,105.57)" d="M7.5,0A7.5,7.5 0 1,1 0,-7.5A7.5,7.5 0 0,1 7.5,0Z" style="opacity: 1; stroke-width: 0px; fill: rgb(38, 16, 96); fill-opacity: 0.25;"/><path class="point" transform="translate(205.14,90.01)" d="M7.5,0A7.5,7.5 0 1,1 0,-7.5A7.5,7.5 0 0,1 7.5,0Z" style="opacity: 1; stroke-width: 0px; fill: rgb(38, 16, 96); fill-opacity: 0.25;"/><path class="point" transform="translate(211.26,119.72)" d="M7.5,0A7.5,7.5 0 1,1 0,-7.5A7.5,7.5 0 0,1 7.5,0Z" style="opacity: 1; stroke-width: 0px; fill: rgb(38, 16, 96); fill-opacity: 0.25;"/><path class="point" transform="translate(216.69,98.5)" d="M7.5,0A7.5,7.5 0 1,1 0,-7.5A7.5,7.5 0 0,1 7.5,0Z" style="opacity: 1; stroke-width: 0px; fill: rgb(38, 16, 96); fill-opacity: 0.25;"/><path class="point" transform="translate(224.16,105.57)" d="M7.5,0A7.5,7.5 0 1,1 0,-7.5A7.5,7.5 0 0,1 7.5,0Z" style="opacity: 1; stroke-width: 0px; fill: rgb(38, 16, 96); fill-opacity: 0.25;"/><path class="point" transform="translate(231.64,98.5)" d="M7.5,0A7.5,7.5 0 1,1 0,-7.5A7.5,7.5 0 0,1 7.5,0Z" style="opacity: 1; stroke-width: 0px; fill: rgb(38, 16, 96); fill-opacity: 0.25;"/><path class="point" transform="translate(235.71,112.64)" d="M7.5,0A7.5,7.5 0 1,1 0,-7.5A7.5,7.5 0 0,1 7.5,0Z" style="opacity: 1; stroke-width: 0px; fill: rgb(38, 16, 96); fill-opacity: 0.25;"/><path class="point" transform="translate(252.69,84.35)" d="M7.5,0A7.5,7.5 0 1,1 0,-7.5A7.5,7.5 0 0,1 7.5,0Z" style="opacity: 1; stroke-width: 0px; fill: rgb(38, 16, 96); fill-opacity: 0.25;"/><path class="point" transform="translate(259.49,155.09)" d="M7.5,0A7.5,7.5 0 1,1 0,-7.5A7.5,7.5 0 0,1 7.5,0Z" style="opacity: 1; stroke-width: 0px; fill: rgb(38, 16, 96); fill-opacity: 0.25;"/><path class="point" transform="translate(284.62,94.25)" d="M7.5,0A7.5,7.5 0 1,1 0,-7.5A7.5,7.5 0 0,1 7.5,0Z" style="opacity: 1; stroke-width: 0px; fill: rgb(38, 16, 96); fill-opacity: 0.25;"/></g><g class="text"/></g><g class="trace scatter tracee2412f" style="stroke-miterlimit: 2; opacity: 1;"><g class="fills"/><g class="errorbars"/><g class="lines"><path class="js-line" d="M0,329.32Q13.09,322.16 21.74,314.15C39.56,297.65 75.66,240.74 93.06,227.06C100.59,221.14 105.69,219.56 112.08,217.93C117.93,216.43 124.51,213.99 129.74,216.99C137.89,221.66 144.23,251.71 149.44,255.12C151.18,256.26 152.53,254.44 154.2,255.43C157.86,257.6 160.92,268.57 166.42,274.71C173.13,282.2 185.37,292.83 192.92,295.91C197.46,297.76 201.78,297.33 205.14,297.13C207.54,296.99 209.3,296.35 211.26,295.78C213.14,295.23 214.76,293.7 216.69,293.8C219.01,293.92 221.61,297.1 224.16,297.43C226.6,297.75 229.54,296.58 231.64,295.98C233.22,295.53 233.85,294.73 235.71,294.43C239.39,293.85 248.62,297.19 252.69,295.27C256.02,293.69 256.29,286.38 259.49,286.1Q265.05,285.61 284.62,309.89" style="vector-effect: non-scaling-stroke; fill: none; stroke: rgb(0, 68, 148); stroke-opacity: 1; stroke-width: 7px; opacity: 1;"/></g><g class="points"/><g class="text"/></g><g class="trace scatter trace352294" style="stroke-miterlimit: 2; opacity: 1;"><g class="fills"/><g class="errorbars"/><g class="lines"/><g class="points"><path class="point" transform="translate(0,337.59)" d="M7.5,0A7.5,7.5 0 1,1 0,-7.5A7.5,7.5 0 0,1 7.5,0Z" style="opacity: 1; stroke-width: 0px; fill: rgb(0, 68, 148); fill-opacity: 0.25;"/><path class="point" transform="translate(21.74,310.71)" d="M7.5,0A7.5,7.5 0 1,1 0,-7.5A7.5,7.5 0 0,1 7.5,0Z" style="opacity: 1; stroke-width: 0px; fill: rgb(0, 68, 148); fill-opacity: 0.25;"/><path class="point" transform="translate(93.06,232.9)" d="M7.5,0A7.5,7.5 0 1,1 0,-7.5A7.5,7.5 0 0,1 7.5,0Z" style="opacity: 1; stroke-width: 0px; fill: rgb(0, 68, 148); fill-opacity: 0.25;"/><path class="point" transform="translate(112.08,211.68)" d="M7.5,0A7.5,7.5 0 1,1 0,-7.5A7.5,7.5 0 0,1 7.5,0Z" style="opacity: 1; stroke-width: 0px; fill: rgb(0, 68, 148); fill-opacity: 0.25;"/><path class="point" transform="translate(129.74,162.16)" d="M7.5,0A7.5,7.5 0 1,1 0,-7.5A7.5,7.5 0 0,1 7.5,0Z" style="opacity: 1; stroke-width: 0px; fill: rgb(0, 68, 148); fill-opacity: 0.25;"/><path class="point" transform="translate(149.44,296.56)" d="M7.5,0A7.5,7.5 0 1,1 0,-7.5A7.5,7.5 0 0,1 7.5,0Z" style="opacity: 1; stroke-width: 0px; fill: rgb(0, 68, 148); fill-opacity: 0.25;"/><path class="point" transform="translate(154.2,211.68)" d="M7.5,0A7.5,7.5 0 1,1 0,-7.5A7.5,7.5 0 0,1 7.5,0Z" style="opacity: 1; stroke-width: 0px; fill: rgb(0, 68, 148); fill-opacity: 0.25;"/><path class="point" transform="translate(166.42,302.22)" d="M7.5,0A7.5,7.5 0 1,1 0,-7.5A7.5,7.5 0 0,1 7.5,0Z" style="opacity: 1; stroke-width: 0px; fill: rgb(0, 68, 148); fill-opacity: 0.25;"/><path class="point" transform="translate(192.92,310.71)" d="M7.5,0A7.5,7.5 0 1,1 0,-7.5A7.5,7.5 0 0,1 7.5,0Z" style="opacity: 1; stroke-width: 0px; fill: rgb(0, 68, 148); fill-opacity: 0.25;"/><path class="point" transform="translate(205.14,310.71)" d="M7.5,0A7.5,7.5 0 1,1 0,-7.5A7.5,7.5 0 0,1 7.5,0Z" style="opacity: 1; stroke-width: 0px; fill: rgb(0, 68, 148); fill-opacity: 0.25;"/><path class="point" transform="translate(211.26,303.64)" d="M7.5,0A7.5,7.5 0 1,1 0,-7.5A7.5,7.5 0 0,1 7.5,0Z" style="opacity: 1; stroke-width: 0px; fill: rgb(0, 68, 148); fill-opacity: 0.25;"/><path class="point" transform="translate(216.69,254.12)" d="M7.5,0A7.5,7.5 0 1,1 0,-7.5A7.5,7.5 0 0,1 7.5,0Z" style="opacity: 1; stroke-width: 0px; fill: rgb(0, 68, 148); fill-opacity: 0.25;"/><path class="point" transform="translate(224.16,329.1)" d="M7.5,0A7.5,7.5 0 1,1 0,-7.5A7.5,7.5 0 0,1 7.5,0Z" style="opacity: 1; stroke-width: 0px; fill: rgb(0, 68, 148); fill-opacity: 0.25;"/><path class="point" transform="translate(231.64,303.64)" d="M7.5,0A7.5,7.5 0 1,1 0,-7.5A7.5,7.5 0 0,1 7.5,0Z" style="opacity: 1; stroke-width: 0px; fill: rgb(0, 68, 148); fill-opacity: 0.25;"/><path class="point" transform="translate(235.71,275.34)" d="M7.5,0A7.5,7.5 0 1,1 0,-7.5A7.5,7.5 0 0,1 7.5,0Z" style="opacity: 1; stroke-width: 0px; fill: rgb(0, 68, 148); fill-opacity: 0.25;"/><path class="point" transform="translate(252.69,339.01)" d="M7.5,0A7.5,7.5 0 1,1 0,-7.5A7.5,7.5 0 0,1 7.5,0Z" style="opacity: 1; stroke-width: 0px; fill: rgb(0, 68, 148); fill-opacity: 0.25;"/><path class="point" transform="translate(259.49,225.83)" d="M7.5,0A7.5,7.5 0 1,1 0,-7.5A7.5,7.5 0 0,1 7.5,0Z" style="opacity: 1; stroke-width: 0px; fill: rgb(0, 68, 148); fill-opacity: 0.25;"/><path class="point" transform="translate(284.62,333.35)" d="M7.5,0A7.5,7.5 0 1,1 0,-7.5A7.5,7.5 0 0,1 7.5,0Z" style="opacity: 1; stroke-width: 0px; fill: rgb(0, 68, 148); fill-opacity: 0.25;"/></g><g class="text"/></g><g class="trace scatter tracefbfa48" style="stroke-miterlimit: 2; opacity: 1;"><g class="fills"/><g class="errorbars"/><g class="lines"><path class="js-line" d="M0,394.28Q12.51,395.66 21.74,394.45C38.77,392.21 76.91,374.32 93.06,374.75C101.47,374.97 105.89,381.28 112.08,381.1C118.11,380.92 123.64,376.16 129.74,374.01C136.08,371.77 145.09,369.07 149.44,368C151.55,367.48 152.29,367.72 154.2,367.11C157.38,366.1 161.46,363.17 166.42,361.51C173.47,359.16 185.74,356.73 192.92,355.73C197.74,355.06 201.77,355.38 205.14,354.96C207.54,354.66 209.29,353.71 211.26,353.8C213.13,353.89 214.72,355.2 216.69,355.36C218.96,355.54 221.72,354.08 224.16,354.47C226.71,354.88 229.5,357.15 231.64,357.94C233.18,358.51 233.87,358.69 235.71,359.09C239.41,359.9 248.32,360.85 252.69,361.72C255.48,362.28 256.49,363.28 259.49,363.38Q265.21,363.56 284.62,358.94" style="vector-effect: non-scaling-stroke; fill: none; stroke: rgb(234, 35, 41); stroke-opacity: 1; stroke-width: 7px; opacity: 1;"/></g><g class="points"/><g class="text"/></g><g class="trace scatter tracea3b5e1" style="stroke-miterlimit: 2; opacity: 1;"><g class="fills"/><g class="errorbars"/><g class="lines"/><g class="points"><path class="point" transform="translate(0,394.18)" d="M7.5,0A7.5,7.5 0 1,1 0,-7.5A7.5,7.5 0 0,1 7.5,0Z" style="opacity: 1; stroke-width: 0px; fill: rgb(234, 35, 41); fill-opacity: 0.25;"/><path class="point" transform="translate(21.74,395.6)" d="M7.5,0A7.5,7.5 0 1,1 0,-7.5A7.5,7.5 0 0,1 7.5,0Z" style="opacity: 1; stroke-width: 0px; fill: rgb(234, 35, 41); fill-opacity: 0.25;"/><path class="point" transform="translate(93.06,367.3)" d="M7.5,0A7.5,7.5 0 1,1 0,-7.5A7.5,7.5 0 0,1 7.5,0Z" style="opacity: 1; stroke-width: 0px; fill: rgb(234, 35, 41); fill-opacity: 0.25;"/><path class="point" transform="translate(112.08,395.6)" d="M7.5,0A7.5,7.5 0 1,1 0,-7.5A7.5,7.5 0 0,1 7.5,0Z" style="opacity: 1; stroke-width: 0px; fill: rgb(234, 35, 41); fill-opacity: 0.25;"/><path class="point" transform="translate(129.74,374.38)" d="M7.5,0A7.5,7.5 0 1,1 0,-7.5A7.5,7.5 0 0,1 7.5,0Z" style="opacity: 1; stroke-width: 0px; fill: rgb(234, 35, 41); fill-opacity: 0.25;"/><path class="point" transform="translate(149.44,367.3)" d="M7.5,0A7.5,7.5 0 1,1 0,-7.5A7.5,7.5 0 0,1 7.5,0Z" style="opacity: 1; stroke-width: 0px; fill: rgb(234, 35, 41); fill-opacity: 0.25;"/><path class="point" transform="translate(154.2,374.38)" d="M7.5,0A7.5,7.5 0 1,1 0,-7.5A7.5,7.5 0 0,1 7.5,0Z" style="opacity: 1; stroke-width: 0px; fill: rgb(234, 35, 41); fill-opacity: 0.25;"/><path class="point" transform="translate(166.42,353.15)" d="M7.5,0A7.5,7.5 0 1,1 0,-7.5A7.5,7.5 0 0,1 7.5,0Z" style="opacity: 1; stroke-width: 0px; fill: rgb(234, 35, 41); fill-opacity: 0.25;"/><path class="point" transform="translate(192.92,353.15)" d="M7.5,0A7.5,7.5 0 1,1 0,-7.5A7.5,7.5 0 0,1 7.5,0Z" style="opacity: 1; stroke-width: 0px; fill: rgb(234, 35, 41); fill-opacity: 0.25;"/><path class="point" transform="translate(205.14,361.64)" d="M7.5,0A7.5,7.5 0 1,1 0,-7.5A7.5,7.5 0 0,1 7.5,0Z" style="opacity: 1; stroke-width: 0px; fill: rgb(234, 35, 41); fill-opacity: 0.25;"/><path class="point" transform="translate(211.26,331.93)" d="M7.5,0A7.5,7.5 0 1,1 0,-7.5A7.5,7.5 0 0,1 7.5,0Z" style="opacity: 1; stroke-width: 0px; fill: rgb(234, 35, 41); fill-opacity: 0.25;"/><path class="point" transform="translate(216.69,374.38)" d="M7.5,0A7.5,7.5 0 1,1 0,-7.5A7.5,7.5 0 0,1 7.5,0Z" style="opacity: 1; stroke-width: 0px; fill: rgb(234, 35, 41); fill-opacity: 0.25;"/><path class="point" transform="translate(224.16,327.69)" d="M7.5,0A7.5,7.5 0 1,1 0,-7.5A7.5,7.5 0 0,1 7.5,0Z" style="opacity: 1; stroke-width: 0px; fill: rgb(234, 35, 41); fill-opacity: 0.25;"/><path class="point" transform="translate(231.64,367.3)" d="M7.5,0A7.5,7.5 0 1,1 0,-7.5A7.5,7.5 0 0,1 7.5,0Z" style="opacity: 1; stroke-width: 0px; fill: rgb(234, 35, 41); fill-opacity: 0.25;"/><path class="point" transform="translate(235.71,367.3)" d="M7.5,0A7.5,7.5 0 1,1 0,-7.5A7.5,7.5 0 0,1 7.5,0Z" style="opacity: 1; stroke-width: 0px; fill: rgb(234, 35, 41); fill-opacity: 0.25;"/><path class="point" transform="translate(252.69,360.23)" d="M7.5,0A7.5,7.5 0 1,1 0,-7.5A7.5,7.5 0 0,1 7.5,0Z" style="opacity: 1; stroke-width: 0px; fill: rgb(234, 35, 41); fill-opacity: 0.25;"/><path class="point" transform="translate(259.49,374.38)" d="M7.5,0A7.5,7.5 0 1,1 0,-7.5A7.5,7.5 0 0,1 7.5,0Z" style="opacity: 1; stroke-width: 0px; fill: rgb(234, 35, 41); fill-opacity: 0.25;"/><path class="point" transform="translate(284.62,354.57)" d="M7.5,0A7.5,7.5 0 1,1 0,-7.5A7.5,7.5 0 0,1 7.5,0Z" style="opacity: 1; stroke-width: 0px; fill: rgb(234, 35, 41); fill-opacity: 0.25;"/></g><g class="text"/></g><g class="trace scatter trace89b852" style="stroke-miterlimit: 2; opacity: 1;"><g class="fills"/><g class="errorbars"/><g class="lines"><path class="js-line" d="M0,401.34Q12.12,408.77 21.74,411.88C38.4,417.26 76.83,422.55 93.06,424.38C101.38,425.32 105.86,424.89 112.08,425.35C118.08,425.8 124.19,429.2 129.74,427.08C136.85,424.36 144.94,409.47 149.44,405.65C151.43,403.96 152.33,404.03 154.2,402.53C157.43,399.94 161.02,393.17 166.42,390.66C173.17,387.52 185.78,388.03 192.92,388.05C197.77,388.07 201.77,389.36 205.14,389.33C207.53,389.31 209.3,388.38 211.26,388.58C213.15,388.77 214.71,390.17 216.69,390.42C218.96,390.7 221.68,390.22 224.16,389.83C226.67,389.43 229.51,388.24 231.64,388.05C233.19,387.91 233.93,388.55 235.71,388.28C239.47,387.71 248.27,383.24 252.69,381.9C255.43,381.07 256.53,380.16 259.49,380.3Q265.25,380.56 284.62,388.71" style="vector-effect: non-scaling-stroke; fill: none; stroke: rgb(0, 0, 0); stroke-opacity: 1; stroke-width: 7px; opacity: 1;"/></g><g class="points"/><g class="text"/></g><g class="trace scatter trace0f2889" style="stroke-miterlimit: 2; opacity: 1;"><g class="fills"/><g class="errorbars"/><g class="lines"/><g class="points"><path class="point" transform="translate(0,395.6)" d="M7.5,0A7.5,7.5 0 1,1 0,-7.5A7.5,7.5 0 0,1 7.5,0Z" style="opacity: 1; stroke-width: 0px; fill: rgb(0, 0, 0); fill-opacity: 0.25;"/><path class="point" transform="translate(21.74,416.82)" d="M7.5,0A7.5,7.5 0 1,1 0,-7.5A7.5,7.5 0 0,1 7.5,0Z" style="opacity: 1; stroke-width: 0px; fill: rgb(0, 0, 0); fill-opacity: 0.25;"/><path class="point" transform="translate(93.06,423.89)" d="M7.5,0A7.5,7.5 0 1,1 0,-7.5A7.5,7.5 0 0,1 7.5,0Z" style="opacity: 1; stroke-width: 0px; fill: rgb(0, 0, 0); fill-opacity: 0.25;"/><path class="point" transform="translate(112.08,423.89)" d="M7.5,0A7.5,7.5 0 1,1 0,-7.5A7.5,7.5 0 0,1 7.5,0Z" style="opacity: 1; stroke-width: 0px; fill: rgb(0, 0, 0); fill-opacity: 0.25;"/><path class="point" transform="translate(129.74,459.26)" d="M7.5,0A7.5,7.5 0 1,1 0,-7.5A7.5,7.5 0 0,1 7.5,0Z" style="opacity: 1; stroke-width: 0px; fill: rgb(0, 0, 0); fill-opacity: 0.25;"/><path class="point" transform="translate(149.44,402.67)" d="M7.5,0A7.5,7.5 0 1,1 0,-7.5A7.5,7.5 0 0,1 7.5,0Z" style="opacity: 1; stroke-width: 0px; fill: rgb(0, 0, 0); fill-opacity: 0.25;"/><path class="point" transform="translate(154.2,409.74)" d="M7.5,0A7.5,7.5 0 1,1 0,-7.5A7.5,7.5 0 0,1 7.5,0Z" style="opacity: 1; stroke-width: 0px; fill: rgb(0, 0, 0); fill-opacity: 0.25;"/><path class="point" transform="translate(166.42,363.06)" d="M7.5,0A7.5,7.5 0 1,1 0,-7.5A7.5,7.5 0 0,1 7.5,0Z" style="opacity: 1; stroke-width: 0px; fill: rgb(0, 0, 0); fill-opacity: 0.25;"/><path class="point" transform="translate(192.92,381.45)" d="M7.5,0A7.5,7.5 0 1,1 0,-7.5A7.5,7.5 0 0,1 7.5,0Z" style="opacity: 1; stroke-width: 0px; fill: rgb(0, 0, 0); fill-opacity: 0.25;"/><path class="point" transform="translate(205.14,398.43)" d="M7.5,0A7.5,7.5 0 1,1 0,-7.5A7.5,7.5 0 0,1 7.5,0Z" style="opacity: 1; stroke-width: 0px; fill: rgb(0, 0, 0); fill-opacity: 0.25;"/><path class="point" transform="translate(211.26,367.3)" d="M7.5,0A7.5,7.5 0 1,1 0,-7.5A7.5,7.5 0 0,1 7.5,0Z" style="opacity: 1; stroke-width: 0px; fill: rgb(0, 0, 0); fill-opacity: 0.25;"/><path class="point" transform="translate(216.69,409.74)" d="M7.5,0A7.5,7.5 0 1,1 0,-7.5A7.5,7.5 0 0,1 7.5,0Z" style="opacity: 1; stroke-width: 0px; fill: rgb(0, 0, 0); fill-opacity: 0.25;"/><path class="point" transform="translate(224.16,397.01)" d="M7.5,0A7.5,7.5 0 1,1 0,-7.5A7.5,7.5 0 0,1 7.5,0Z" style="opacity: 1; stroke-width: 0px; fill: rgb(0, 0, 0); fill-opacity: 0.25;"/><path class="point" transform="translate(231.64,374.38)" d="M7.5,0A7.5,7.5 0 1,1 0,-7.5A7.5,7.5 0 0,1 7.5,0Z" style="opacity: 1; stroke-width: 0px; fill: rgb(0, 0, 0); fill-opacity: 0.25;"/><path class="point" transform="translate(235.71,402.67)" d="M7.5,0A7.5,7.5 0 1,1 0,-7.5A7.5,7.5 0 0,1 7.5,0Z" style="opacity: 1; stroke-width: 0px; fill: rgb(0, 0, 0); fill-opacity: 0.25;"/><path class="point" transform="translate(252.69,374.38)" d="M7.5,0A7.5,7.5 0 1,1 0,-7.5A7.5,7.5 0 0,1 7.5,0Z" style="opacity: 1; stroke-width: 0px; fill: rgb(0, 0, 0); fill-opacity: 0.25;"/><path class="point" transform="translate(259.49,367.3)" d="M7.5,0A7.5,7.5 0 1,1 0,-7.5A7.5,7.5 0 0,1 7.5,0Z" style="opacity: 1; stroke-width: 0px; fill: rgb(0, 0, 0); fill-opacity: 0.25;"/><path class="point" transform="translate(284.62,397.01)" d="M7.5,0A7.5,7.5 0 1,1 0,-7.5A7.5,7.5 0 0,1 7.5,0Z" style="opacity: 1; stroke-width: 0px; fill: rgb(0, 0, 0); fill-opacity: 0.25;"/></g><g class="text"/></g><g class="trace scatter trace139ec0" style="stroke-miterlimit: 2; opacity: 1;"><g class="fills"/><g class="errorbars"/><g class="lines"><path class="js-line" d="M0,418.26Q8.64,378.39 21.74,371.57C37.28,363.48 77.14,378.75 93.06,384.16C101.72,387.1 105.9,390.64 112.08,394.07C118.12,397.42 123.97,400.01 129.74,404.48C136.47,409.7 145.15,419.68 149.44,424.24C151.61,426.55 152.19,427.53 154.2,429.61C157.28,432.81 161.12,438.1 166.42,441.29C173.23,445.39 185.71,448.41 192.92,450.1C197.71,451.22 201.76,451.42 205.14,451.81C207.53,452.09 209.31,452.63 211.26,452.38C213.15,452.14 214.71,450.88 216.69,450.44C218.95,449.94 221.69,450.24 224.16,449.76C226.68,449.27 229.54,448.27 231.64,447.5C233.22,446.92 233.84,446.07 235.71,445.75C239.38,445.12 248.3,446.9 252.69,446.85C255.47,446.82 256.51,446.58 259.49,446.24Q265.23,445.59 284.62,442.82" style="vector-effect: non-scaling-stroke; fill: none; stroke: rgb(93, 140, 0); stroke-opacity: 1; stroke-width: 7px; opacity: 1;"/></g><g class="points"/><g class="text"/></g><g class="trace scatter trace0954bb" style="stroke-miterlimit: 2; opacity: 1;"><g class="fills"/><g class="errorbars"/><g class="lines"/><g class="points"><path class="point" transform="translate(0,443.7)" d="M7.5,0A7.5,7.5 0 1,1 0,-7.5A7.5,7.5 0 0,1 7.5,0Z" style="opacity: 1; stroke-width: 0px; fill: rgb(93, 140, 0); fill-opacity: 0.25;"/><path class="point" transform="translate(21.74,346.08)" d="M7.5,0A7.5,7.5 0 1,1 0,-7.5A7.5,7.5 0 0,1 7.5,0Z" style="opacity: 1; stroke-width: 0px; fill: rgb(93, 140, 0); fill-opacity: 0.25;"/><path class="point" transform="translate(93.06,374.38)" d="M7.5,0A7.5,7.5 0 1,1 0,-7.5A7.5,7.5 0 0,1 7.5,0Z" style="opacity: 1; stroke-width: 0px; fill: rgb(93, 140, 0); fill-opacity: 0.25;"/><path class="point" transform="translate(112.08,388.52)" d="M7.5,0A7.5,7.5 0 1,1 0,-7.5A7.5,7.5 0 0,1 7.5,0Z" style="opacity: 1; stroke-width: 0px; fill: rgb(93, 140, 0); fill-opacity: 0.25;"/><path class="point" transform="translate(129.74,388.52)" d="M7.5,0A7.5,7.5 0 1,1 0,-7.5A7.5,7.5 0 0,1 7.5,0Z" style="opacity: 1; stroke-width: 0px; fill: rgb(93, 140, 0); fill-opacity: 0.25;"/><path class="point" transform="translate(149.44,409.74)" d="M7.5,0A7.5,7.5 0 1,1 0,-7.5A7.5,7.5 0 0,1 7.5,0Z" style="opacity: 1; stroke-width: 0px; fill: rgb(93, 140, 0); fill-opacity: 0.25;"/><path class="point" transform="translate(154.2,438.04)" d="M7.5,0A7.5,7.5 0 1,1 0,-7.5A7.5,7.5 0 0,1 7.5,0Z" style="opacity: 1; stroke-width: 0px; fill: rgb(93, 140, 0); fill-opacity: 0.25;"/><path class="point" transform="translate(166.42,462.09)" d="M7.5,0A7.5,7.5 0 1,1 0,-7.5A7.5,7.5 0 0,1 7.5,0Z" style="opacity: 1; stroke-width: 0px; fill: rgb(93, 140, 0); fill-opacity: 0.25;"/><path class="point" transform="translate(192.92,452.19)" d="M7.5,0A7.5,7.5 0 1,1 0,-7.5A7.5,7.5 0 0,1 7.5,0Z" style="opacity: 1; stroke-width: 0px; fill: rgb(93, 140, 0); fill-opacity: 0.25;"/><path class="point" transform="translate(205.14,452.19)" d="M7.5,0A7.5,7.5 0 1,1 0,-7.5A7.5,7.5 0 0,1 7.5,0Z" style="opacity: 1; stroke-width: 0px; fill: rgb(93, 140, 0); fill-opacity: 0.25;"/><path class="point" transform="translate(211.26,473.41)" d="M7.5,0A7.5,7.5 0 1,1 0,-7.5A7.5,7.5 0 0,1 7.5,0Z" style="opacity: 1; stroke-width: 0px; fill: rgb(93, 140, 0); fill-opacity: 0.25;"/><path class="point" transform="translate(216.69,438.04)" d="M7.5,0A7.5,7.5 0 1,1 0,-7.5A7.5,7.5 0 0,1 7.5,0Z" style="opacity: 1; stroke-width: 0px; fill: rgb(93, 140, 0); fill-opacity: 0.25;"/><path class="point" transform="translate(224.16,459.26)" d="M7.5,0A7.5,7.5 0 1,1 0,-7.5A7.5,7.5 0 0,1 7.5,0Z" style="opacity: 1; stroke-width: 0px; fill: rgb(93, 140, 0); fill-opacity: 0.25;"/><path class="point" transform="translate(231.64,452.19)" d="M7.5,0A7.5,7.5 0 1,1 0,-7.5A7.5,7.5 0 0,1 7.5,0Z" style="opacity: 1; stroke-width: 0px; fill: rgb(93, 140, 0); fill-opacity: 0.25;"/><path class="point" transform="translate(235.71,423.89)" d="M7.5,0A7.5,7.5 0 1,1 0,-7.5A7.5,7.5 0 0,1 7.5,0Z" style="opacity: 1; stroke-width: 0px; fill: rgb(93, 140, 0); fill-opacity: 0.25;"/><path class="point" transform="translate(252.69,452.19)" d="M7.5,0A7.5,7.5 0 1,1 0,-7.5A7.5,7.5 0 0,1 7.5,0Z" style="opacity: 1; stroke-width: 0px; fill: rgb(93, 140, 0); fill-opacity: 0.25;"/><path class="point" transform="translate(259.49,445.11)" d="M7.5,0A7.5,7.5 0 1,1 0,-7.5A7.5,7.5 0 0,1 7.5,0Z" style="opacity: 1; stroke-width: 0px; fill: rgb(93, 140, 0); fill-opacity: 0.25;"/><path class="point" transform="translate(284.62,439.45)" d="M7.5,0A7.5,7.5 0 1,1 0,-7.5A7.5,7.5 0 0,1 7.5,0Z" style="opacity: 1; stroke-width: 0px; fill: rgb(93, 140, 0); fill-opacity: 0.25;"/></g><g class="text"/></g><g class="trace scatter trace8648b1" style="stroke-miterlimit: 2; opacity: 1;"><g class="fills"/><g class="errorbars"/><g class="lines"><path class="js-line" d="M0,429.14Q12.49,429.39 21.74,430.99C38.75,433.94 77.21,442.91 93.06,449.83C101.82,453.66 105.79,458.21 112.08,461.9C118.01,465.38 123.51,470.48 129.74,471.46C135.96,472.44 145.1,468.38 149.44,467.8C151.56,467.51 152.27,467.76 154.2,467.4C157.35,466.8 161.51,464.66 166.42,463.76C173.51,462.46 185.77,462.01 192.92,461.82C197.77,461.69 201.79,461.61 205.14,462.07C207.55,462.4 209.27,463.52 211.26,463.65C213.11,463.77 214.74,463.29 216.69,462.99C218.99,462.63 221.66,461.98 224.16,461.56C226.65,461.14 229.53,460.41 231.64,460.45C233.2,460.48 233.88,461.15 235.71,461.23C239.42,461.39 248.31,459.95 252.69,459.43C255.47,459.1 256.51,458.54 259.49,458.54Q265.22,458.53 284.62,461.75" style="vector-effect: non-scaling-stroke; fill: none; stroke: rgb(114, 55, 105); stroke-opacity: 1; stroke-width: 7px; opacity: 1;"/></g><g class="points"/><g class="text"/></g><g class="trace scatter trace131b9c" style="stroke-miterlimit: 2; opacity: 1;"><g class="fills"/><g class="errorbars"/><g class="lines"/><g class="points"><path class="point" transform="translate(0,428.14)" d="M7.5,0A7.5,7.5 0 1,1 0,-7.5A7.5,7.5 0 0,1 7.5,0Z" style="opacity: 1; stroke-width: 0px; fill: rgb(114, 55, 105); fill-opacity: 0.25;"/><path class="point" transform="translate(21.74,430.97)" d="M7.5,0A7.5,7.5 0 1,1 0,-7.5A7.5,7.5 0 0,1 7.5,0Z" style="opacity: 1; stroke-width: 0px; fill: rgb(114, 55, 105); fill-opacity: 0.25;"/><path class="point" transform="translate(93.06,438.04)" d="M7.5,0A7.5,7.5 0 1,1 0,-7.5A7.5,7.5 0 0,1 7.5,0Z" style="opacity: 1; stroke-width: 0px; fill: rgb(114, 55, 105); fill-opacity: 0.25;"/><path class="point" transform="translate(112.08,459.26)" d="M7.5,0A7.5,7.5 0 1,1 0,-7.5A7.5,7.5 0 0,1 7.5,0Z" style="opacity: 1; stroke-width: 0px; fill: rgb(114, 55, 105); fill-opacity: 0.25;"/><path class="point" transform="translate(129.74,487.56)" d="M7.5,0A7.5,7.5 0 1,1 0,-7.5A7.5,7.5 0 0,1 7.5,0Z" style="opacity: 1; stroke-width: 0px; fill: rgb(114, 55, 105); fill-opacity: 0.25;"/><path class="point" transform="translate(149.44,466.34)" d="M7.5,0A7.5,7.5 0 1,1 0,-7.5A7.5,7.5 0 0,1 7.5,0Z" style="opacity: 1; stroke-width: 0px; fill: rgb(114, 55, 105); fill-opacity: 0.25;"/><path class="point" transform="translate(154.2,473.41)" d="M7.5,0A7.5,7.5 0 1,1 0,-7.5A7.5,7.5 0 0,1 7.5,0Z" style="opacity: 1; stroke-width: 0px; fill: rgb(114, 55, 105); fill-opacity: 0.25;"/><path class="point" transform="translate(166.42,456.43)" d="M7.5,0A7.5,7.5 0 1,1 0,-7.5A7.5,7.5 0 0,1 7.5,0Z" style="opacity: 1; stroke-width: 0px; fill: rgb(114, 55, 105); fill-opacity: 0.25;"/><path class="point" transform="translate(192.92,459.26)" d="M7.5,0A7.5,7.5 0 1,1 0,-7.5A7.5,7.5 0 0,1 7.5,0Z" style="opacity: 1; stroke-width: 0px; fill: rgb(114, 55, 105); fill-opacity: 0.25;"/><path class="point" transform="translate(205.14,450.77)" d="M7.5,0A7.5,7.5 0 1,1 0,-7.5A7.5,7.5 0 0,1 7.5,0Z" style="opacity: 1; stroke-width: 0px; fill: rgb(114, 55, 105); fill-opacity: 0.25;"/><path class="point" transform="translate(211.26,480.48)" d="M7.5,0A7.5,7.5 0 1,1 0,-7.5A7.5,7.5 0 0,1 7.5,0Z" style="opacity: 1; stroke-width: 0px; fill: rgb(114, 55, 105); fill-opacity: 0.25;"/><path class="point" transform="translate(216.69,466.34)" d="M7.5,0A7.5,7.5 0 1,1 0,-7.5A7.5,7.5 0 0,1 7.5,0Z" style="opacity: 1; stroke-width: 0px; fill: rgb(114, 55, 105); fill-opacity: 0.25;"/><path class="point" transform="translate(224.16,459.26)" d="M7.5,0A7.5,7.5 0 1,1 0,-7.5A7.5,7.5 0 0,1 7.5,0Z" style="opacity: 1; stroke-width: 0px; fill: rgb(114, 55, 105); fill-opacity: 0.25;"/><path class="point" transform="translate(231.64,445.11)" d="M7.5,0A7.5,7.5 0 1,1 0,-7.5A7.5,7.5 0 0,1 7.5,0Z" style="opacity: 1; stroke-width: 0px; fill: rgb(114, 55, 105); fill-opacity: 0.25;"/><path class="point" transform="translate(235.71,473.41)" d="M7.5,0A7.5,7.5 0 1,1 0,-7.5A7.5,7.5 0 0,1 7.5,0Z" style="opacity: 1; stroke-width: 0px; fill: rgb(114, 55, 105); fill-opacity: 0.25;"/><path class="point" transform="translate(252.69,459.26)" d="M7.5,0A7.5,7.5 0 1,1 0,-7.5A7.5,7.5 0 0,1 7.5,0Z" style="opacity: 1; stroke-width: 0px; fill: rgb(114, 55, 105); fill-opacity: 0.25;"/><path class="point" transform="translate(259.49,452.19)" d="M7.5,0A7.5,7.5 0 1,1 0,-7.5A7.5,7.5 0 0,1 7.5,0Z" style="opacity: 1; stroke-width: 0px; fill: rgb(114, 55, 105); fill-opacity: 0.25;"/><path class="point" transform="translate(284.62,464.92)" d="M7.5,0A7.5,7.5 0 1,1 0,-7.5A7.5,7.5 0 0,1 7.5,0Z" style="opacity: 1; stroke-width: 0px; fill: rgb(114, 55, 105); fill-opacity: 0.25;"/></g><g class="text"/></g><g class="trace scatter trace985fcd" style="stroke-miterlimit: 2; opacity: 1;"><g class="fills"/><g class="errorbars"/><g class="lines"><path class="js-line" d="M0,444.9Q11.08,463.93 21.74,467.87C37.78,473.8 77.05,458.17 93.06,460.37C101.61,461.55 105.74,466.62 112.08,467.93C117.97,469.15 123.7,468.07 129.74,468.46C136.13,468.87 145.12,469.78 149.44,470.41C151.58,470.72 152.24,471.24 154.2,471.32C157.32,471.45 161.56,470.13 166.42,470.04C173.56,469.91 185.79,471.01 192.92,471.88C197.79,472.47 201.75,473.8 205.14,474.02C207.52,474.17 209.29,473.97 211.26,473.75C213.13,473.54 214.74,473.13 216.69,472.77C218.98,472.34 221.66,471.68 224.16,471.33C226.64,470.98 229.59,471.35 231.64,470.65C233.28,470.08 233.79,468.82 235.71,468.03C239.35,466.53 248.33,464.11 252.69,464.38C255.5,464.55 256.46,466.42 259.49,466.74Q265.18,467.35 284.62,463.69" style="vector-effect: non-scaling-stroke; fill: none; stroke: rgb(230, 172, 33); stroke-opacity: 1; stroke-width: 7px; opacity: 1;"/></g><g class="points"/><g class="text"/></g><g class="trace scatter trace968ac8" style="stroke-miterlimit: 2; opacity: 1;"><g class="fills"/><g class="errorbars"/><g class="lines"/><g class="points"><path class="point" transform="translate(0,432.38)" d="M7.5,0A7.5,7.5 0 1,1 0,-7.5A7.5,7.5 0 0,1 7.5,0Z" style="opacity: 1; stroke-width: 0px; fill: rgb(230, 172, 33); fill-opacity: 0.25;"/><path class="point" transform="translate(21.74,480.48)" d="M7.5,0A7.5,7.5 0 1,1 0,-7.5A7.5,7.5 0 0,1 7.5,0Z" style="opacity: 1; stroke-width: 0px; fill: rgb(230, 172, 33); fill-opacity: 0.25;"/><path class="point" transform="translate(93.06,452.19)" d="M7.5,0A7.5,7.5 0 1,1 0,-7.5A7.5,7.5 0 0,1 7.5,0Z" style="opacity: 1; stroke-width: 0px; fill: rgb(230, 172, 33); fill-opacity: 0.25;"/><path class="point" transform="translate(112.08,473.41)" d="M7.5,0A7.5,7.5 0 1,1 0,-7.5A7.5,7.5 0 0,1 7.5,0Z" style="opacity: 1; stroke-width: 0px; fill: rgb(230, 172, 33); fill-opacity: 0.25;"/><path class="point" transform="translate(129.74,466.34)" d="M7.5,0A7.5,7.5 0 1,1 0,-7.5A7.5,7.5 0 0,1 7.5,0Z" style="opacity: 1; stroke-width: 0px; fill: rgb(230, 172, 33); fill-opacity: 0.25;"/><path class="point" transform="translate(149.44,466.34)" d="M7.5,0A7.5,7.5 0 1,1 0,-7.5A7.5,7.5 0 0,1 7.5,0Z" style="opacity: 1; stroke-width: 0px; fill: rgb(230, 172, 33); fill-opacity: 0.25;"/><path class="point" transform="translate(154.2,480.48)" d="M7.5,0A7.5,7.5 0 1,1 0,-7.5A7.5,7.5 0 0,1 7.5,0Z" style="opacity: 1; stroke-width: 0px; fill: rgb(230, 172, 33); fill-opacity: 0.25;"/><path class="point" transform="translate(166.42,464.92)" d="M7.5,0A7.5,7.5 0 1,1 0,-7.5A7.5,7.5 0 0,1 7.5,0Z" style="opacity: 1; stroke-width: 0px; fill: rgb(230, 172, 33); fill-opacity: 0.25;"/><path class="point" transform="translate(192.92,466.34)" d="M7.5,0A7.5,7.5 0 1,1 0,-7.5A7.5,7.5 0 0,1 7.5,0Z" style="opacity: 1; stroke-width: 0px; fill: rgb(230, 172, 33); fill-opacity: 0.25;"/><path class="point" transform="translate(205.14,481.9)" d="M7.5,0A7.5,7.5 0 1,1 0,-7.5A7.5,7.5 0 0,1 7.5,0Z" style="opacity: 1; stroke-width: 0px; fill: rgb(230, 172, 33); fill-opacity: 0.25;"/><path class="point" transform="translate(211.26,480.48)" d="M7.5,0A7.5,7.5 0 1,1 0,-7.5A7.5,7.5 0 0,1 7.5,0Z" style="opacity: 1; stroke-width: 0px; fill: rgb(230, 172, 33); fill-opacity: 0.25;"/><path class="point" transform="translate(216.69,473.41)" d="M7.5,0A7.5,7.5 0 1,1 0,-7.5A7.5,7.5 0 0,1 7.5,0Z" style="opacity: 1; stroke-width: 0px; fill: rgb(230, 172, 33); fill-opacity: 0.25;"/><path class="point" transform="translate(224.16,466.34)" d="M7.5,0A7.5,7.5 0 1,1 0,-7.5A7.5,7.5 0 0,1 7.5,0Z" style="opacity: 1; stroke-width: 0px; fill: rgb(230, 172, 33); fill-opacity: 0.25;"/><path class="point" transform="translate(231.64,494.63)" d="M7.5,0A7.5,7.5 0 1,1 0,-7.5A7.5,7.5 0 0,1 7.5,0Z" style="opacity: 1; stroke-width: 0px; fill: rgb(230, 172, 33); fill-opacity: 0.25;"/><path class="point" transform="translate(235.71,445.11)" d="M7.5,0A7.5,7.5 0 1,1 0,-7.5A7.5,7.5 0 0,1 7.5,0Z" style="opacity: 1; stroke-width: 0px; fill: rgb(230, 172, 33); fill-opacity: 0.25;"/><path class="point" transform="translate(252.69,445.11)" d="M7.5,0A7.5,7.5 0 1,1 0,-7.5A7.5,7.5 0 0,1 7.5,0Z" style="opacity: 1; stroke-width: 0px; fill: rgb(230, 172, 33); fill-opacity: 0.25;"/><path class="point" transform="translate(259.49,480.48)" d="M7.5,0A7.5,7.5 0 1,1 0,-7.5A7.5,7.5 0 0,1 7.5,0Z" style="opacity: 1; stroke-width: 0px; fill: rgb(230, 172, 33); fill-opacity: 0.25;"/><path class="point" transform="translate(284.62,460.68)" d="M7.5,0A7.5,7.5 0 1,1 0,-7.5A7.5,7.5 0 0,1 7.5,0Z" style="opacity: 1; stroke-width: 0px; fill: rgb(230, 172, 33); fill-opacity: 0.25;"/></g><g class="text"/></g><g class="trace scatter trace10a680" style="stroke-miterlimit: 2; opacity: 1;"><g class="fills"/><g class="errorbars"/><g class="lines"><path class="js-line" d="M0,466.32Q12.39,469.37 21.74,471.48C38.64,475.29 76.81,485.08 93.06,486.72C101.36,487.56 105.95,487.63 112.08,486.54C118.17,485.46 123.94,483.43 129.74,480.25C136.43,476.59 144.93,466.88 149.44,464.96C151.42,464.12 152.26,464.63 154.2,464.27C157.34,463.68 161.54,461.7 166.42,461.47C173.54,461.13 185.8,463.73 192.92,464.96C197.79,465.8 201.77,466.77 205.14,467.59C207.54,468.17 209.31,468.55 211.26,469.26C213.15,469.95 214.69,471.18 216.69,471.74C218.94,472.36 221.67,472.32 224.16,472.59C226.65,472.86 229.54,472.96 231.64,473.34C233.22,473.63 233.89,474.42 235.71,474.43C239.43,474.46 248.3,470.15 252.69,470.17C255.47,470.18 256.48,471.51 259.49,471.94Q265.19,472.76 284.62,472.68" style="vector-effect: non-scaling-stroke; fill: none; stroke: rgb(240, 125, 0); stroke-opacity: 1; stroke-width: 7px; opacity: 1;"/></g><g class="points"/><g class="text"/></g><g class="trace scatter trace0d7a67" style="stroke-miterlimit: 2; opacity: 1;"><g class="fills"/><g class="errorbars"/><g class="lines"/><g class="points"><path class="point" transform="translate(0,463.51)" d="M7.5,0A7.5,7.5 0 1,1 0,-7.5A7.5,7.5 0 0,1 7.5,0Z" style="opacity: 1; stroke-width: 0px; fill: rgb(240, 125, 0); fill-opacity: 0.25;"/><path class="point" transform="translate(21.74,473.41)" d="M7.5,0A7.5,7.5 0 1,1 0,-7.5A7.5,7.5 0 0,1 7.5,0Z" style="opacity: 1; stroke-width: 0px; fill: rgb(240, 125, 0); fill-opacity: 0.25;"/><path class="point" transform="translate(93.06,487.56)" d="M7.5,0A7.5,7.5 0 1,1 0,-7.5A7.5,7.5 0 0,1 7.5,0Z" style="opacity: 1; stroke-width: 0px; fill: rgb(240, 125, 0); fill-opacity: 0.25;"/><path class="point" transform="translate(112.08,494.63)" d="M7.5,0A7.5,7.5 0 1,1 0,-7.5A7.5,7.5 0 0,1 7.5,0Z" style="opacity: 1; stroke-width: 0px; fill: rgb(240, 125, 0); fill-opacity: 0.25;"/><path class="point" transform="translate(129.74,494.63)" d="M7.5,0A7.5,7.5 0 1,1 0,-7.5A7.5,7.5 0 0,1 7.5,0Z" style="opacity: 1; stroke-width: 0px; fill: rgb(240, 125, 0); fill-opacity: 0.25;"/><path class="point" transform="translate(149.44,452.19)" d="M7.5,0A7.5,7.5 0 1,1 0,-7.5A7.5,7.5 0 0,1 7.5,0Z" style="opacity: 1; stroke-width: 0px; fill: rgb(240, 125, 0); fill-opacity: 0.25;"/><path class="point" transform="translate(154.2,466.34)" d="M7.5,0A7.5,7.5 0 1,1 0,-7.5A7.5,7.5 0 0,1 7.5,0Z" style="opacity: 1; stroke-width: 0px; fill: rgb(240, 125, 0); fill-opacity: 0.25;"/><path class="point" transform="translate(166.42,450.77)" d="M7.5,0A7.5,7.5 0 1,1 0,-7.5A7.5,7.5 0 0,1 7.5,0Z" style="opacity: 1; stroke-width: 0px; fill: rgb(240, 125, 0); fill-opacity: 0.25;"/><path class="point" transform="translate(192.92,459.26)" d="M7.5,0A7.5,7.5 0 1,1 0,-7.5A7.5,7.5 0 0,1 7.5,0Z" style="opacity: 1; stroke-width: 0px; fill: rgb(240, 125, 0); fill-opacity: 0.25;"/><path class="point" transform="translate(205.14,462.09)" d="M7.5,0A7.5,7.5 0 1,1 0,-7.5A7.5,7.5 0 0,1 7.5,0Z" style="opacity: 1; stroke-width: 0px; fill: rgb(240, 125, 0); fill-opacity: 0.25;"/><path class="point" transform="translate(211.26,459.26)" d="M7.5,0A7.5,7.5 0 1,1 0,-7.5A7.5,7.5 0 0,1 7.5,0Z" style="opacity: 1; stroke-width: 0px; fill: rgb(240, 125, 0); fill-opacity: 0.25;"/><path class="point" transform="translate(216.69,487.56)" d="M7.5,0A7.5,7.5 0 1,1 0,-7.5A7.5,7.5 0 0,1 7.5,0Z" style="opacity: 1; stroke-width: 0px; fill: rgb(240, 125, 0); fill-opacity: 0.25;"/><path class="point" transform="translate(224.16,473.41)" d="M7.5,0A7.5,7.5 0 1,1 0,-7.5A7.5,7.5 0 0,1 7.5,0Z" style="opacity: 1; stroke-width: 0px; fill: rgb(240, 125, 0); fill-opacity: 0.25;"/><path class="point" transform="translate(231.64,466.34)" d="M7.5,0A7.5,7.5 0 1,1 0,-7.5A7.5,7.5 0 0,1 7.5,0Z" style="opacity: 1; stroke-width: 0px; fill: rgb(240, 125, 0); fill-opacity: 0.25;"/><path class="point" transform="translate(235.71,494.63)" d="M7.5,0A7.5,7.5 0 1,1 0,-7.5A7.5,7.5 0 0,1 7.5,0Z" style="opacity: 1; stroke-width: 0px; fill: rgb(240, 125, 0); fill-opacity: 0.25;"/><path class="point" transform="translate(252.69,452.19)" d="M7.5,0A7.5,7.5 0 1,1 0,-7.5A7.5,7.5 0 0,1 7.5,0Z" style="opacity: 1; stroke-width: 0px; fill: rgb(240, 125, 0); fill-opacity: 0.25;"/><path class="point" transform="translate(259.49,480.48)" d="M7.5,0A7.5,7.5 0 1,1 0,-7.5A7.5,7.5 0 0,1 7.5,0Z" style="opacity: 1; stroke-width: 0px; fill: rgb(240, 125, 0); fill-opacity: 0.25;"/><path class="point" transform="translate(284.62,473.41)" d="M7.5,0A7.5,7.5 0 1,1 0,-7.5A7.5,7.5 0 0,1 7.5,0Z" style="opacity: 1; stroke-width: 0px; fill: rgb(240, 125, 0); fill-opacity: 0.25;"/></g><g class="text"/></g><g class="trace scatter trace13be6c" style="stroke-miterlimit: 2; opacity: 1;"><g class="fills"/><g class="errorbars"/><g class="lines"><path class="js-line" d="M0,479.69Q12.49,479.45 21.74,480.83C38.74,483.37 76.8,497.58 93.06,498.62C101.36,499.15 105.85,496.76 112.08,496.39C118.07,496.03 123.72,496.92 129.74,496.33C136.16,495.7 145.1,492.87 149.44,492.48C151.55,492.29 152.25,492.59 154.2,492.55C157.33,492.49 161.57,492.04 166.42,491.89C173.56,491.67 185.78,491.99 192.92,491.7C197.78,491.5 201.77,490.68 205.14,490.78C207.53,490.85 209.3,491.14 211.26,491.62C213.15,492.08 214.79,492.63 216.69,493.56C219.04,494.71 221.56,497.59 224.16,498.29C226.56,498.93 229.52,498 231.64,497.99C233.2,497.99 233.89,498.16 235.71,498.13C239.43,498.07 248.32,497.68 252.69,497.03C255.49,496.62 256.59,496.49 259.49,495.44Q265.31,493.34 284.62,482.92" style="vector-effect: non-scaling-stroke; fill: none; stroke: rgb(140, 0, 0); stroke-opacity: 1; stroke-width: 7px; opacity: 1;"/></g><g class="points"/><g class="text"/></g><g class="trace scatter trace489ff7" style="stroke-miterlimit: 2; opacity: 1;"><g class="fills"/><g class="errorbars"/><g class="lines"/><g class="points"><path class="point" transform="translate(0,479.07)" d="M7.5,0A7.5,7.5 0 1,1 0,-7.5A7.5,7.5 0 0,1 7.5,0Z" style="opacity: 1; stroke-width: 0px; fill: rgb(140, 0, 0); fill-opacity: 0.25;"/><path class="point" transform="translate(21.74,480.48)" d="M7.5,0A7.5,7.5 0 1,1 0,-7.5A7.5,7.5 0 0,1 7.5,0Z" style="opacity: 1; stroke-width: 0px; fill: rgb(140, 0, 0); fill-opacity: 0.25;"/><path class="point" transform="translate(93.06,501.7)" d="M7.5,0A7.5,7.5 0 1,1 0,-7.5A7.5,7.5 0 0,1 7.5,0Z" style="opacity: 1; stroke-width: 0px; fill: rgb(140, 0, 0); fill-opacity: 0.25;"/><path class="point" transform="translate(112.08,494.63)" d="M7.5,0A7.5,7.5 0 1,1 0,-7.5A7.5,7.5 0 0,1 7.5,0Z" style="opacity: 1; stroke-width: 0px; fill: rgb(140, 0, 0); fill-opacity: 0.25;"/><path class="point" transform="translate(129.74,501.7)" d="M7.5,0A7.5,7.5 0 1,1 0,-7.5A7.5,7.5 0 0,1 7.5,0Z" style="opacity: 1; stroke-width: 0px; fill: rgb(140, 0, 0); fill-opacity: 0.25;"/><path class="point" transform="translate(149.44,487.56)" d="M7.5,0A7.5,7.5 0 1,1 0,-7.5A7.5,7.5 0 0,1 7.5,0Z" style="opacity: 1; stroke-width: 0px; fill: rgb(140, 0, 0); fill-opacity: 0.25;"/><path class="point" transform="translate(154.2,494.63)" d="M7.5,0A7.5,7.5 0 1,1 0,-7.5A7.5,7.5 0 0,1 7.5,0Z" style="opacity: 1; stroke-width: 0px; fill: rgb(140, 0, 0); fill-opacity: 0.25;"/><path class="point" transform="translate(166.42,490.39)" d="M7.5,0A7.5,7.5 0 1,1 0,-7.5A7.5,7.5 0 0,1 7.5,0Z" style="opacity: 1; stroke-width: 0px; fill: rgb(140, 0, 0); fill-opacity: 0.25;"/><path class="point" transform="translate(192.92,494.63)" d="M7.5,0A7.5,7.5 0 1,1 0,-7.5A7.5,7.5 0 0,1 7.5,0Z" style="opacity: 1; stroke-width: 0px; fill: rgb(140, 0, 0); fill-opacity: 0.25;"/><path class="point" transform="translate(205.14,481.9)" d="M7.5,0A7.5,7.5 0 1,1 0,-7.5A7.5,7.5 0 0,1 7.5,0Z" style="opacity: 1; stroke-width: 0px; fill: rgb(140, 0, 0); fill-opacity: 0.25;"/><path class="point" transform="translate(211.26,480.48)" d="M7.5,0A7.5,7.5 0 1,1 0,-7.5A7.5,7.5 0 0,1 7.5,0Z" style="opacity: 1; stroke-width: 0px; fill: rgb(140, 0, 0); fill-opacity: 0.25;"/><path class="point" transform="translate(216.69,480.48)" d="M7.5,0A7.5,7.5 0 1,1 0,-7.5A7.5,7.5 0 0,1 7.5,0Z" style="opacity: 1; stroke-width: 0px; fill: rgb(140, 0, 0); fill-opacity: 0.25;"/><path class="point" transform="translate(231.64,494.63)" d="M7.5,0A7.5,7.5 0 1,1 0,-7.5A7.5,7.5 0 0,1 7.5,0Z" style="opacity: 1; stroke-width: 0px; fill: rgb(140, 0, 0); fill-opacity: 0.25;"/><path class="point" transform="translate(235.71,501.7)" d="M7.5,0A7.5,7.5 0 1,1 0,-7.5A7.5,7.5 0 0,1 7.5,0Z" style="opacity: 1; stroke-width: 0px; fill: rgb(140, 0, 0); fill-opacity: 0.25;"/><path class="point" transform="translate(252.69,501.7)" d="M7.5,0A7.5,7.5 0 1,1 0,-7.5A7.5,7.5 0 0,1 7.5,0Z" style="opacity: 1; stroke-width: 0px; fill: rgb(140, 0, 0); fill-opacity: 0.25;"/><path class="point" transform="translate(259.49,494.63)" d="M7.5,0A7.5,7.5 0 1,1 0,-7.5A7.5,7.5 0 0,1 7.5,0Z" style="opacity: 1; stroke-width: 0px; fill: rgb(140, 0, 0); fill-opacity: 0.25;"/><path class="point" transform="translate(284.62,470.58)" d="M7.5,0A7.5,7.5 0 1,1 0,-7.5A7.5,7.5 0 0,1 7.5,0Z" style="opacity: 1; stroke-width: 0px; fill: rgb(140, 0, 0); fill-opacity: 0.25;"/></g><g class="text"/></g><g class="trace scatter traceb27e83" style="stroke-miterlimit: 2; opacity: 1;"><g class="fills"/><g class="errorbars"/><g class="lines"><path class="js-line" d="M0,471.67Q11.76,483.57 21.74,486.66C38.14,491.74 76.87,486.95 93.06,486.5C101.43,486.27 105.88,485.09 112.08,485.48C118.1,485.86 123.69,487.6 129.74,488.66C136.12,489.78 145.12,491.1 149.44,492.02C151.58,492.47 152.23,493 154.2,493.23C157.31,493.6 161.6,493.65 166.42,493.07C173.6,492.21 185.75,488.35 192.92,487.01C197.75,486.11 201.76,485.58 205.14,485.23C207.52,484.98 209.28,484.88 211.26,484.85C213.12,484.82 214.74,485.02 216.69,485.04C218.98,485.06 221.67,484.83 224.16,484.9C226.65,484.97 229.52,485.35 231.64,485.47C233.2,485.56 233.94,485.21 235.71,485.62C239.49,486.49 248.26,491.5 252.69,493.1C255.42,494.09 256.65,493.68 259.49,495.03Q265.4,497.84 284.62,512.64" style="vector-effect: non-scaling-stroke; fill: none; stroke: rgb(0, 51, 255); stroke-opacity: 1; stroke-width: 7px; opacity: 1;"/></g><g class="points"/><g class="text"/></g><g class="trace scatter trace808bfc" style="stroke-miterlimit: 2; opacity: 1;"><g class="fills"/><g class="errorbars"/><g class="lines"/><g class="points"><path class="point" transform="translate(0,463.51)" d="M7.5,0A7.5,7.5 0 1,1 0,-7.5A7.5,7.5 0 0,1 7.5,0Z" style="opacity: 1; stroke-width: 0px; fill: rgb(0, 51, 255); fill-opacity: 0.25;"/><path class="point" transform="translate(21.74,494.63)" d="M7.5,0A7.5,7.5 0 1,1 0,-7.5A7.5,7.5 0 0,1 7.5,0Z" style="opacity: 1; stroke-width: 0px; fill: rgb(0, 51, 255); fill-opacity: 0.25;"/><path class="point" transform="translate(93.06,487.56)" d="M7.5,0A7.5,7.5 0 1,1 0,-7.5A7.5,7.5 0 0,1 7.5,0Z" style="opacity: 1; stroke-width: 0px; fill: rgb(0, 51, 255); fill-opacity: 0.25;"/><path class="point" transform="translate(112.08,480.48)" d="M7.5,0A7.5,7.5 0 1,1 0,-7.5A7.5,7.5 0 0,1 7.5,0Z" style="opacity: 1; stroke-width: 0px; fill: rgb(0, 51, 255); fill-opacity: 0.25;"/><path class="point" transform="translate(129.74,487.56)" d="M7.5,0A7.5,7.5 0 1,1 0,-7.5A7.5,7.5 0 0,1 7.5,0Z" style="opacity: 1; stroke-width: 0px; fill: rgb(0, 51, 255); fill-opacity: 0.25;"/><path class="point" transform="translate(149.44,487.56)" d="M7.5,0A7.5,7.5 0 1,1 0,-7.5A7.5,7.5 0 0,1 7.5,0Z" style="opacity: 1; stroke-width: 0px; fill: rgb(0, 51, 255); fill-opacity: 0.25;"/><path class="point" transform="translate(154.2,501.7)" d="M7.5,0A7.5,7.5 0 1,1 0,-7.5A7.5,7.5 0 0,1 7.5,0Z" style="opacity: 1; stroke-width: 0px; fill: rgb(0, 51, 255); fill-opacity: 0.25;"/><path class="point" transform="translate(166.42,498.88)" d="M7.5,0A7.5,7.5 0 1,1 0,-7.5A7.5,7.5 0 0,1 7.5,0Z" style="opacity: 1; stroke-width: 0px; fill: rgb(0, 51, 255); fill-opacity: 0.25;"/><path class="point" transform="translate(192.92,487.56)" d="M7.5,0A7.5,7.5 0 1,1 0,-7.5A7.5,7.5 0 0,1 7.5,0Z" style="opacity: 1; stroke-width: 0px; fill: rgb(0, 51, 255); fill-opacity: 0.25;"/><path class="point" transform="translate(205.14,483.31)" d="M7.5,0A7.5,7.5 0 1,1 0,-7.5A7.5,7.5 0 0,1 7.5,0Z" style="opacity: 1; stroke-width: 0px; fill: rgb(0, 51, 255); fill-opacity: 0.25;"/><path class="point" transform="translate(211.26,480.48)" d="M7.5,0A7.5,7.5 0 1,1 0,-7.5A7.5,7.5 0 0,1 7.5,0Z" style="opacity: 1; stroke-width: 0px; fill: rgb(0, 51, 255); fill-opacity: 0.25;"/><path class="point" transform="translate(216.69,487.56)" d="M7.5,0A7.5,7.5 0 1,1 0,-7.5A7.5,7.5 0 0,1 7.5,0Z" style="opacity: 1; stroke-width: 0px; fill: rgb(0, 51, 255); fill-opacity: 0.25;"/><path class="point" transform="translate(224.16,480.48)" d="M7.5,0A7.5,7.5 0 1,1 0,-7.5A7.5,7.5 0 0,1 7.5,0Z" style="opacity: 1; stroke-width: 0px; fill: rgb(0, 51, 255); fill-opacity: 0.25;"/><path class="point" transform="translate(231.64,487.56)" d="M7.5,0A7.5,7.5 0 1,1 0,-7.5A7.5,7.5 0 0,1 7.5,0Z" style="opacity: 1; stroke-width: 0px; fill: rgb(0, 51, 255); fill-opacity: 0.25;"/><path class="point" transform="translate(235.71,473.41)" d="M7.5,0A7.5,7.5 0 1,1 0,-7.5A7.5,7.5 0 0,1 7.5,0Z" style="opacity: 1; stroke-width: 0px; fill: rgb(0, 51, 255); fill-opacity: 0.25;"/><path class="point" transform="translate(252.69,501.7)" d="M7.5,0A7.5,7.5 0 1,1 0,-7.5A7.5,7.5 0 0,1 7.5,0Z" style="opacity: 1; stroke-width: 0px; fill: rgb(0, 51, 255); fill-opacity: 0.25;"/><path class="point" transform="translate(259.49,494.63)" d="M7.5,0A7.5,7.5 0 1,1 0,-7.5A7.5,7.5 0 0,1 7.5,0Z" style="opacity: 1; stroke-width: 0px; fill: rgb(0, 51, 255); fill-opacity: 0.25;"/></g><g class="text"/></g></g></g><g class="overplot"/><path class="xlines-above crisp" d="M0,0" style="fill: none;"/><path class="ylines-above crisp" d="M0,0" style="fill: none;"/><g class="overlines-above"/><g class="xaxislayer-above"><g class="xtick"><text text-anchor="middle" x="0" y="563" transform="translate(107.06,0)" style="font-family: 'Open Sans', verdana, arial, sans-serif; font-size: 12px; fill: rgb(42, 63, 95); fill-opacity: 1; white-space: pre; opacity: 1;">1.1.22</text></g><g class="xtick"><text text-anchor="middle" x="0" y="563" style="font-family: 'Open Sans', verdana, arial, sans-serif; font-size: 12px; fill: rgb(42, 63, 95); fill-opacity: 1; white-space: pre; opacity: 1;" transform="translate(230.01,0)">1.7.22</text></g><g class="xtick"><text text-anchor="middle" x="0" y="563" style="font-family: 'Open Sans', verdana, arial, sans-serif; font-size: 12px; fill: rgb(42, 63, 95); fill-opacity: 1; white-space: pre; opacity: 1;" transform="translate(355,0)">1.1.23</text></g><g class="xtick"><text text-anchor="middle" x="0" y="563" style="font-family: 'Open Sans', verdana, arial, sans-serif; font-size: 12px; fill: rgb(42, 63, 95); fill-opacity: 1; white-space: pre; opacity: 1;" transform="translate(477.95,0)">1.7.23</text></g><g class="xtick"><text text-anchor="middle" x="0" y="563" style="font-family: 'Open Sans', verdana, arial, sans-serif; font-size: 12px; fill: rgb(42, 63, 95); fill-opacity: 1; white-space: pre; opacity: 1;" transform="translate(602.94,0)">1.1.24</text></g><g class="xtick"><text text-anchor="middle" x="0" y="563" style="font-family: 'Open Sans', verdana, arial, sans-serif; font-size: 12px; fill: rgb(42, 63, 95); fill-opacity: 1; white-space: pre; opacity: 1;" transform="translate(726.57,0)">1.7.24</text></g><g class="xtick"><text text-anchor="middle" x="0" y="563" style="font-family: 'Open Sans', verdana, arial, sans-serif; font-size: 12px; fill: rgb(42, 63, 95); fill-opacity: 1; white-space: pre; opacity: 1;" transform="translate(851.56,0)">1.1.25</text></g><g class="xtick"><text text-anchor="middle" x="0" y="563" style="font-family: 'Open Sans', verdana, arial, sans-serif; font-size: 12px; fill: rgb(42, 63, 95); fill-opacity: 1; white-space: pre; opacity: 1;" transform="translate(974.51,0)">1.7.25</text></g></g><g class="yaxislayer-above"><g class="ytick"><text text-anchor="end" x="49" y="4.199999999999999" transform="translate(0,550)" style="font-family: 'Open Sans', verdana, arial, sans-serif; font-size: 12px; fill: rgb(42, 63, 95); fill-opacity: 1; white-space: pre; opacity: 1;">0%</text></g><g class="ytick"><text text-anchor="end" x="49" y="4.199999999999999" style="font-family: 'Open Sans', verdana, arial, sans-serif; font-size: 12px; fill: rgb(42, 63, 95); fill-opacity: 1; white-space: pre; opacity: 1;" transform="translate(0,479.26)">5%</text></g><g class="ytick"><text text-anchor="end" x="49" y="4.199999999999999" style="font-family: 'Open Sans', verdana, arial, sans-serif; font-size: 12px; fill: rgb(42, 63, 95); fill-opacity: 1; white-space: pre; opacity: 1;" transform="translate(0,408.52)">10%</text></g><g class="ytick"><text text-anchor="end" x="49" y="4.199999999999999" style="font-family: 'Open Sans', verdana, arial, sans-serif; font-size: 12px; fill: rgb(42, 63, 95); fill-opacity: 1; white-space: pre; opacity: 1;" transform="translate(0,337.79)">15%</text></g><g class="ytick"><text text-anchor="end" x="49" y="4.199999999999999" style="font-family: 'Open Sans', verdana, arial, sans-serif; font-size: 12px; fill: rgb(42, 63, 95); fill-opacity: 1; white-space: pre; opacity: 1;" transform="translate(0,267.05)">20%</text></g><g class="ytick"><text text-anchor="end" x="49" y="4.199999999999999" style="font-family: 'Open Sans', verdana, arial, sans-serif; font-size: 12px; fill: rgb(42, 63, 95); fill-opacity: 1; white-space: pre; opacity: 1;" transform="translate(0,196.31)">25%</text></g><g class="ytick"><text text-anchor="end" x="49" y="4.199999999999999" style="font-family: 'Open Sans', verdana, arial, sans-serif; font-size: 12px; fill: rgb(42, 63, 95); fill-opacity: 1; white-space: pre; opacity: 1;" transform="translate(0,125.57)">30%</text></g><g class="ytick"><text text-anchor="end" x="49" y="4.199999999999999" style="font-family: 'Open Sans', verdana, arial, sans-serif; font-size: 12px; fill: rgb(42, 63, 95); fill-opacity: 1; white-space: pre; opacity: 1;" transform="translate(0,54.83)">35%</text></g></g><g class="overaxes-above"/></g></g><g class="polarlayer"/><g class="smithlayer"/><g class="ternarylayer"/><g class="geolayer"/><g class="funnelarealayer"/><g class="pielayer"/><g class="iciclelayer"/><g class="treemaplayer"/><g class="sunburstlayer"/><g class="glimages"/><defs id="topdefs-0851be"><g class="clips"/><clipPath id="legend0851be"><rect width="131" height="200" x="0" y="0"/></clipPath></defs><g class="layer-above"><g class="imagelayer"/><g class="shapelayer"/></g><g class="infolayer"><g class="legend" pointer-events="all" transform="translate(1056.74,20)"><rect class="bg" shape-rendering="crispEdges" style="stroke: rgb(68, 68, 68); stroke-opacity: 1; fill: rgb(255, 255, 255); fill-opacity: 1; stroke-width: 0px;" width="131" height="200" x="0" y="0"/><g class="scrollbox" transform="" clip-path="url(#legend0851be)"><g class="groups"><g class="traces" transform="translate(0,14.5)" style="opacity: 1;"><text class="legendtext" text-anchor="start" x="40" y="4.680000000000001" style="font-family: 'Open Sans', verdana, arial, sans-serif; font-size: 12px; fill: rgb(42, 63, 95); fill-opacity: 1; white-space: pre;">ANO: 30%</text><g class="layers" style="opacity: 1;"><g class="legendfill"/><g class="legendlines"><path class="js-line" d="M5,0h30" style="fill: none; stroke: rgb(38, 16, 96); stroke-opacity: 1; stroke-width: 7px;"/></g><g class="legendsymbols"><g class="legendpoints"/></g></g><rect class="legendtoggle" x="0" y="-9.5" width="125.359375" height="19" style="fill: rgb(0, 0, 0); fill-opacity: 0;"/></g><g class="traces" transform="translate(0,33.5)" style="opacity: 1;"><text class="legendtext" text-anchor="start" x="40" y="4.680000000000001" style="font-family: 'Open Sans', verdana, arial, sans-serif; font-size: 12px; fill: rgb(42, 63, 95); fill-opacity: 1; white-space: pre;">ODS: 16%</text><g class="layers" style="opacity: 1;"><g class="legendfill"/><g class="legendlines"><path class="js-line" d="M5,0h30" style="fill: none; stroke: rgb(0, 68, 148); stroke-opacity: 1; stroke-width: 7px;"/></g><g class="legendsymbols"><g class="legendpoints"/></g></g><rect class="legendtoggle" x="0" y="-9.5" width="125.359375" height="19" style="fill: rgb(0, 0, 0); fill-opacity: 0;"/></g><g class="traces" transform="translate(0,52.5)" style="opacity: 1;"><text class="legendtext" text-anchor="start" x="40" y="4.680000000000001" style="font-family: 'Open Sans', verdana, arial, sans-serif; font-size: 12px; fill: rgb(42, 63, 95); fill-opacity: 1; white-space: pre;">SPD: 12%</text><g class="layers" style="opacity: 1;"><g class="legendfill"/><g class="legendlines"><path class="js-line" d="M5,0h30" style="fill: none; stroke: rgb(234, 35, 41); stroke-opacity: 1; stroke-width: 7px;"/></g><g class="legendsymbols"><g class="legendpoints"/></g></g><rect class="legendtoggle" x="0" y="-9.5" width="125.359375" height="19" style="fill: rgb(0, 0, 0); fill-opacity: 0;"/></g><g class="traces" transform="translate(0,71.5)" style="opacity: 1;"><text class="legendtext" text-anchor="start" x="40" y="4.680000000000001" style="font-family: 'Open Sans', verdana, arial, sans-serif; font-size: 12px; fill: rgb(42, 63, 95); fill-opacity: 1; white-space: pre;">Pirti: 10%</text><g class="layers" style="opacity: 1;"><g class="legendfill"/><g class="legendlines"><path class="js-line" d="M5,0h30" style="fill: none; stroke: rgb(0, 0, 0); stroke-opacity: 1; stroke-width: 7px;"/></g><g class="legendsymbols"><g class="legendpoints"/></g></g><rect class="legendtoggle" x="0" y="-9.5" width="125.359375" height="19" style="fill: rgb(0, 0, 0); fill-opacity: 0;"/></g><g class="traces" transform="translate(0,90.5)" style="opacity: 1;"><text class="legendtext" text-anchor="start" x="40" y="4.680000000000001" style="font-family: 'Open Sans', verdana, arial, sans-serif; font-size: 12px; fill: rgb(42, 63, 95); fill-opacity: 1; white-space: pre;">STAN: 6%</text><g class="layers" style="opacity: 1;"><g class="legendfill"/><g class="legendlines"><path class="js-line" d="M5,0h30" style="fill: none; stroke: rgb(93, 140, 0); stroke-opacity: 1; stroke-width: 7px;"/></g><g class="legendsymbols"><g class="legendpoints"/></g></g><rect class="legendtoggle" x="0" y="-9.5" width="125.359375" height="19" style="fill: rgb(0, 0, 0); fill-opacity: 0;"/></g><g class="traces" transform="translate(0,109.5)" style="opacity: 1;"><text class="legendtext" text-anchor="start" x="40" y="4.680000000000001" style="font-family: 'Open Sans', verdana, arial, sans-serif; font-size: 12px; fill: rgb(42, 63, 95); fill-opacity: 1; white-space: pre;">TOP 09: 5%</text><g class="layers" style="opacity: 1;"><g class="legendfill"/><g class="legendlines"><path class="js-line" d="M5,0h30" style="fill: none; stroke: rgb(114, 55, 105); stroke-opacity: 1; stroke-width: 7px;"/></g><g class="legendsymbols"><g class="legendpoints"/></g></g><rect class="legendtoggle" x="0" y="-9.5" width="125.359375" height="19" style="fill: rgb(0, 0, 0); fill-opacity: 0;"/></g><g class="traces" transform="translate(0,128.5)" style="opacity: 1;"><text class="legendtext" text-anchor="start" x="40" y="4.680000000000001" style="font-family: 'Open Sans', verdana, arial, sans-serif; font-size: 12px; fill: rgb(42, 63, 95); fill-opacity: 1; white-space: pre;">KDU-SL: 5%</text><g class="layers" style="opacity: 1;"><g class="legendfill"/><g class="legendlines"><path class="js-line" d="M5,0h30" style="fill: none; stroke: rgb(230, 172, 33); stroke-opacity: 1; stroke-width: 7px;"/></g><g class="legendsymbols"><g class="legendpoints"/></g></g><rect class="legendtoggle" x="0" y="-9.5" width="125.359375" height="19" style="fill: rgb(0, 0, 0); fill-opacity: 0;"/></g><g class="traces" transform="translate(0,147.5)" style="opacity: 1;"><text class="legendtext" text-anchor="start" x="40" y="4.680000000000001" style="font-family: 'Open Sans', verdana, arial, sans-serif; font-size: 12px; fill: rgb(42, 63, 95); fill-opacity: 1; white-space: pre;">SSD: 4%</text><g class="layers" style="opacity: 1;"><g class="legendfill"/><g class="legendlines"><path class="js-line" d="M5,0h30" style="fill: none; stroke: rgb(240, 125, 0); stroke-opacity: 1; stroke-width: 7px;"/></g><g class="legendsymbols"><g class="legendpoints"/></g></g><rect class="legendtoggle" x="0" y="-9.5" width="125.359375" height="19" style="fill: rgb(0, 0, 0); fill-opacity: 0;"/></g><g class="traces" transform="translate(0,166.5)" style="opacity: 1;"><text class="legendtext" text-anchor="start" x="40" y="4.680000000000001" style="font-family: 'Open Sans', verdana, arial, sans-serif; font-size: 12px; fill: rgb(42, 63, 95); fill-opacity: 1; white-space: pre;">KSM: 3%</text><g class="layers" style="opacity: 1;"><g class="legendfill"/><g class="legendlines"><path class="js-line" d="M5,0h30" style="fill: none; stroke: rgb(140, 0, 0); stroke-opacity: 1; stroke-width: 7px;"/></g><g class="legendsymbols"><g class="legendpoints"/></g></g><rect class="legendtoggle" x="0" y="-9.5" width="125.359375" height="19" style="fill: rgb(0, 0, 0); fill-opacity: 0;"/></g><g class="traces" transform="translate(0,185.5)" style="opacity: 1;"><text class="legendtext" text-anchor="start" x="40" y="4.680000000000001" style="font-family: 'Open Sans', verdana, arial, sans-serif; font-size: 12px; fill: rgb(42, 63, 95); fill-opacity: 1; white-space: pre;">Psaha: 1%</text><g class="layers" style="opacity: 1;"><g class="legendfill"/><g class="legendlines"><path class="js-line" d="M5,0h30" style="fill: none; stroke: rgb(0, 51, 255); stroke-opacity: 1; stroke-width: 7px;"/></g><g class="legendsymbols"><g class="legendpoints"/></g></g><rect class="legendtoggle" x="0" y="-9.5" width="125.359375" height="19" style="fill: rgb(0, 0, 0); fill-opacity: 0;"/></g></g></g><rect class="scrollbar" rx="20" ry="3" width="0" height="0" style="fill: rgb(128, 139, 164); fill-opacity: 1;" x="0" y="0"/></g><g class="g-gtitle"/><g class="g-xtitle"/><g class="g-ytitle"/></g></svg>