<svg class="main-svg" xmlns="http://www.w3.org/2000/svg" xmlns:xlink="http://www.w3.org/1999/xlink" width="1200" height="600" style="" viewBox="0 0 1200 600"><rect x="0" y="0" width="1200" height="600" style="fill: rgb(255, 255, 255); fill-opacity: 1;"/><defs id="defs-c232bf"><g class="clips"><clipPath id="clipc232bfxyplot" class="plotclip"><rect width="987" height="530"/></clipPath><clipPath class="axesclip" id="clipc232bfx"><rect x="50" y="0" width="987" height="600"/></clipPath><clipPath class="axesclip" id="clipc232bfy"><rect x="0" y="20" width="1200" height="530"/></clipPath><clipPath class="axesclip" id="clipc232bfxy"><rect x="50" y="20" width="987" height="530"/></clipPath></g><g class="gradients"/><g class="patterns"/></defs><g class="bglayer"/><g class="layer-below"><g class="imagelayer"/><g class="shapelayer"/></g><g class="cartesianlayer"><g class="subplot xy"><g class="layer-subplot"><g class="shapelayer"/><g class="imagelayer"/></g><g class="gridlayer"><g class="x"><path class="xgrid crisp" transform="translate(107.06,0)" d="M0,20v530" style="stroke: rgb(235, 240, 248); stroke-opacity: 1; stroke-width: 1px;"/><path class="xgrid crisp" transform="translate(230.01,0)" d="M0,20v530" style="stroke: rgb(235, 240, 248); stroke-opacity: 1; stroke-width: 1px;"/><path class="xgrid crisp" transform="translate(355,0)" d="M0,20v530" style="stroke: rgb(235, 240, 248); stroke-opacity: 1; stroke-width: 1px;"/><path class="xgrid crisp" transform="translate(477.95,0)" d="M0,20v530" style="stroke: rgb(235, 240, 248); stroke-opacity: 1; stroke-width: 1px;"/><path class="xgrid crisp" transform="translate(602.94,0)" d="M0,20v530" style="stroke: rgb(235, 240, 248); stroke-opacity: 1; stroke-width: 1px;"/><path class="xgrid crisp" transform="translate(726.57,0)" d="M0,20v530" style="stroke: rgb(235, 240, 248); stroke-opacity: 1; stroke-width: 1px;"/><path class="xgrid crisp" transform="translate(851.56,0)" d="M0,20v530" style="stroke: rgb(235, 240, 248); stroke-opacity: 1; stroke-width: 1px;"/><path class="xgrid crisp" transform="translate(974.51,0)" d="M0,20v530" style="stroke: rgb(235, 240, 248); stroke-opacity: 1; stroke-width: 1px;"/></g><g class="y"><path class="ygrid crisp" transform="translate(0,479.78)" d="M50,0h987" style="stroke: rgb(235, 240, 248); stroke-opacity: 1; stroke-width: 1px;"/><path class="ygrid crisp" transform="translate(0,409.56)" d="M50,0h987" style="stroke: rgb(235, 240, 248); stroke-opacity: 1; stroke-width: 1px;"/><path class="ygrid crisp" transform="translate(0,339.34)" d="M50,0h987" style="stroke: rgb(235, 240, 248); stroke-opacity: 1; stroke-width: 1px;"/><path class="ygrid crisp" transform="translate(0,269.12)" d="M50,0h987" style="stroke: rgb(235, 240, 248); stroke-opacity: 1; stroke-width: 1px;"/><path class="ygrid crisp" transform="translate(0,198.9)" d="M50,0h987" style="stroke: rgb(235, 240, 248); stroke-opacity: 1; stroke-width: 1px;"/><path class="ygrid crisp" transform="translate(0,128.68)" d="M50,0h987" style="stroke: rgb(235, 240, 248); stroke-opacity: 1; stroke-width: 1px;"/><path class="ygrid crisp" transform="translate(0,58.46)" d="M50,0h987" style="stroke: rgb(235, 240, 248); stroke-opacity: 1; stroke-width: 1px;"/></g></g><g class="zerolinelayer"><path class="yzl zl crisp" transform="translate(0,550)" d="M50,0h987" style="stroke: rgb(235, 240, 248); stroke-opacity: 1; stroke-width: 2px;"/></g><path class="xlines-below"/><path class="ylines-below"/><g class="overlines-below"/><g class="xaxislayer-below"/><g class="yaxislayer-below"/><g class="overaxes-below"/><g class="plot" transform="translate(50,20)" clip-path="url(#clipc232bfxyplot)"><g class="scatterlayer mlayer"><g class="trace scatter trace851a7e" style="stroke-miterlimit: 2; opacity: 1;"><g class="fills"><g><path class="js-fill" d="M0,75.01Q12.41,76.44 21.74,77.66C38.66,79.88 77.34,91.55 93.06,87.69C102.02,85.49 105.66,77.67 112.08,74.07C117.9,70.81 123.73,69.33 129.74,66.58C136.17,63.63 145.12,59.06 149.44,56.85C151.58,55.75 152.22,55.25 154.2,54.32C157.3,52.87 161.7,51.8 166.42,49.34C173.72,45.53 185.65,36.14 192.92,32.15C197.66,29.54 201.03,27.46 205.14,26.55C208.95,25.71 213.3,25.91 216.69,26.5C219.5,26.99 222.13,26.33 224.16,29.22C233.02,41.87 233.31,170.72 224.16,181.04C222.12,183.34 219.42,182.19 216.69,181.94C213.23,181.63 209,178.12 205.14,178.37C201.07,178.63 197.66,181.36 192.92,183.97C185.65,187.96 173.72,197.35 166.42,201.16C161.7,203.62 157.36,205.88 154.2,206.14C152.28,206.3 151.51,204.81 149.44,205.06C145.05,205.58 136.17,211.85 129.74,214.8C123.73,217.55 117.9,219.02 112.08,222.28C105.66,225.88 101.99,233.94 93.06,235.9C77.33,239.36 38.7,223.47 21.74,222.25Q12.45,221.58 0,223.23Z" style="fill: rgb(38, 16, 96); fill-opacity: 0.05; stroke-width: 0;"/></g></g><g class="errorbars"/><g class="lines"><path class="js-line" d="M0,75.01Q12.41,76.44 21.74,77.66C38.66,79.88 77.34,91.55 93.06,87.69C102.02,85.49 105.66,77.67 112.08,74.07C117.9,70.81 123.73,69.33 129.74,66.58C136.17,63.63 145.12,59.06 149.44,56.85C151.58,55.75 152.22,55.25 154.2,54.32C157.3,52.87 161.7,51.8 166.42,49.34C173.72,45.53 185.65,36.14 192.92,32.15C197.66,29.54 201.03,27.46 205.14,26.55C208.95,25.71 213.3,25.91 216.69,26.5C219.5,26.99 222.13,26.33 224.16,29.22C233.02,41.87 233.31,170.72 224.16,181.04C222.12,183.34 219.42,182.19 216.69,181.94C213.23,181.63 209,178.12 205.14,178.37C201.07,178.63 197.66,181.36 192.92,183.97C185.65,187.96 173.72,197.35 166.42,201.16C161.7,203.62 157.36,205.88 154.2,206.14C152.28,206.3 151.51,204.81 149.44,205.06C145.05,205.58 136.17,211.85 129.74,214.8C123.73,217.55 117.9,219.02 112.08,222.28C105.66,225.88 101.99,233.94 93.06,235.9C77.33,239.36 38.7,223.47 21.74,222.25Q12.45,221.58 0,223.23" style="vector-effect: non-scaling-stroke; fill: none; stroke: rgb(255, 255, 255); stroke-opacity: 0; stroke-width: 2px; opacity: 1;"/></g><g class="points"/><g class="text"/></g><g class="trace scatter trace315d07" style="stroke-miterlimit: 2; opacity: 1;"><g class="fills"><g><path class="js-fill" d="M0,273.73Q13.08,265.16 21.74,256.26C39.55,237.94 75.76,178.27 93.06,162.19C100.64,155.15 105.58,152.21 112.08,149.86C117.84,147.78 124.55,144.89 129.74,147.77C138.11,152.41 144.1,186.22 149.44,189.61C151.15,190.7 152.54,188.66 154.2,189.61C157.93,191.74 160.94,203.57 166.42,210.42C173.14,218.83 185.27,231.38 192.92,235.26C197.4,237.53 201.22,238.13 205.14,237.55C209.15,236.96 213.37,231.16 216.69,231.56C219.59,231.91 222.22,233.82 224.16,238.09C230.98,253.12 230.98,357.89 224.16,360.99C222.22,361.87 219.59,354.81 216.69,354.46C213.37,354.06 209.15,359.86 205.14,360.45C201.22,361.03 197.47,360.26 192.92,358.17C185.4,354.72 173.2,344.13 166.42,336.94C161.07,331.27 157.78,321.58 154.2,319.74C152.5,318.87 151.2,320.77 149.44,319.75C144.34,316.79 137.65,289.14 129.74,285.14C124.45,282.47 117.95,285.58 112.08,287.23C105.72,289.02 100.68,290.33 93.06,295.95C75.83,308.64 39.47,360.51 21.74,375.55Q13.03,382.94 0,389.4Z" style="fill: rgb(0, 68, 148); fill-opacity: 0.05; stroke-width: 0;"/></g></g><g class="errorbars"/><g class="lines"><path class="js-line" d="M0,273.73Q13.08,265.16 21.74,256.26C39.55,237.94 75.76,178.27 93.06,162.19C100.64,155.15 105.58,152.21 112.08,149.86C117.84,147.78 124.55,144.89 129.74,147.77C138.11,152.41 144.1,186.22 149.44,189.61C151.15,190.7 152.54,188.66 154.2,189.61C157.93,191.74 160.94,203.57 166.42,210.42C173.14,218.83 185.27,231.38 192.92,235.26C197.4,237.53 201.22,238.13 205.14,237.55C209.15,236.96 213.37,231.16 216.69,231.56C219.59,231.91 222.22,233.82 224.16,238.09C230.98,253.12 230.98,357.89 224.16,360.99C222.22,361.87 219.59,354.81 216.69,354.46C213.37,354.06 209.15,359.86 205.14,360.45C201.22,361.03 197.47,360.26 192.92,358.17C185.4,354.72 173.2,344.13 166.42,336.94C161.07,331.27 157.78,321.58 154.2,319.74C152.5,318.87 151.2,320.77 149.44,319.75C144.34,316.79 137.65,289.14 129.74,285.14C124.45,282.47 117.95,285.58 112.08,287.23C105.72,289.02 100.68,290.33 93.06,295.95C75.83,308.64 39.47,360.51 21.74,375.55Q13.03,382.94 0,389.4" style="vector-effect: non-scaling-stroke; fill: none; stroke: rgb(255, 255, 255); stroke-opacity: 0; stroke-width: 2px; opacity: 1;"/></g><g class="points"/><g class="text"/></g><g class="trace scatter traceee89f6" style="stroke-miterlimit: 2; opacity: 1;"><g class="fills"><g><path class="js-fill" d="M0,346.61Q12.56,347.97 21.74,346.43C38.82,343.57 76.95,321.92 93.06,322.53C101.5,322.85 105.86,330.58 112.08,330.56C118.08,330.55 123.61,325.09 129.74,323C136.05,320.85 145.19,319.67 149.44,317.9C151.66,316.97 152.21,316.1 154.2,315.06C157.3,313.44 161.47,311.18 166.42,309.49C173.47,307.08 185.74,304.22 192.92,303.29C197.73,302.67 201.13,302.8 205.14,302.95C209.05,303.1 213.5,305.36 216.69,304.14C219.81,302.94 222.27,295.15 224.16,295.88C230.17,298.19 231.1,395.46 224.16,407.95C222.21,411.45 219.58,411.92 216.69,412.59C213.37,413.36 209.05,411.55 205.14,411.4C201.13,411.25 197.73,411.12 192.92,411.74C185.74,412.67 173.58,416.52 166.42,417.93C161.59,418.88 157.25,418.79 154.2,419.9C152.16,420.64 151.66,421.81 149.44,422.73C145.19,424.5 136.14,426.3 129.74,427.84C123.71,429.3 118.07,431.8 112.08,431.78C105.85,431.75 101.42,427.36 93.06,427.37C76.87,427.38 38.73,442.01 21.74,444.04Q12.48,445.14 0,444.21Z" style="fill: rgb(234, 35, 41); fill-opacity: 0.05; stroke-width: 0;"/></g></g><g class="errorbars"/><g class="lines"><path class="js-line" d="M0,346.61Q12.56,347.97 21.74,346.43C38.82,343.57 76.95,321.92 93.06,322.53C101.5,322.85 105.86,330.58 112.08,330.56C118.08,330.55 123.61,325.09 129.74,323C136.05,320.85 145.19,319.67 149.44,317.9C151.66,316.97 152.21,316.1 154.2,315.06C157.3,313.44 161.47,311.18 166.42,309.49C173.47,307.08 185.74,304.22 192.92,303.29C197.73,302.67 201.13,302.8 205.14,302.95C209.05,303.1 213.5,305.36 216.69,304.14C219.81,302.94 222.27,295.15 224.16,295.88C230.17,298.19 231.1,395.46 224.16,407.95C222.21,411.45 219.58,411.92 216.69,412.59C213.37,413.36 209.05,411.55 205.14,411.4C201.13,411.25 197.73,411.12 192.92,411.74C185.74,412.67 173.58,416.52 166.42,417.93C161.59,418.88 157.25,418.79 154.2,419.9C152.16,420.64 151.66,421.81 149.44,422.73C145.19,424.5 136.14,426.3 129.74,427.84C123.71,429.3 118.07,431.8 112.08,431.78C105.85,431.75 101.42,427.36 93.06,427.37C76.87,427.38 38.73,442.01 21.74,444.04Q12.48,445.14 0,444.21" style="vector-effect: non-scaling-stroke; fill: none; stroke: rgb(255, 255, 255); stroke-opacity: 0; stroke-width: 2px; opacity: 1;"/></g><g class="points"/><g class="text"/></g><g class="trace scatter trace91b786" style="stroke-miterlimit: 2; opacity: 1;"><g class="fills"><g><path class="js-fill" d="M0,354.06Q12.11,361.76 21.74,365.29C38.39,371.39 76.8,380.29 93.06,381.64C101.36,382.33 105.92,379.81 112.08,380.5C118.14,381.18 124.26,387.45 129.74,385.64C137.03,383.23 144.94,364.58 149.44,359.72C151.43,357.57 152.31,357.37 154.2,355.48C157.4,352.28 160.86,344.29 166.42,341.81C173.1,338.82 185.93,340.14 192.92,341.83C197.95,343.05 201.06,346.37 205.14,348.09C208.98,349.71 213.22,351.27 216.69,351.98C219.41,352.54 222.22,350.47 224.16,352.57C231.04,360.01 230.74,436.8 224.16,446.56C222.23,449.42 219.47,449.5 216.69,449.58C213.27,449.68 208.98,447.31 205.14,445.69C201.06,443.97 197.95,440.65 192.92,439.44C185.93,437.75 173.24,436.97 166.42,439.41C161.15,441.3 157.31,446.81 154.2,449.47C152.23,451.16 151.61,451.92 149.44,453.71C145.15,457.25 136.52,466.8 129.74,468.78C124.01,470.45 118.08,467.34 112.08,467.26C105.86,467.18 101.4,468.68 93.06,468.4C76.85,467.85 38.34,464.44 21.74,459.27Q12.05,456.25 0,448.05Z" style="fill: rgb(0, 0, 0); fill-opacity: 0.05; stroke-width: 0;"/></g></g><g class="errorbars"/><g class="lines"><path class="js-line" d="M0,354.06Q12.11,361.76 21.74,365.29C38.39,371.39 76.8,380.29 93.06,381.64C101.36,382.33 105.92,379.81 112.08,380.5C118.14,381.18 124.26,387.45 129.74,385.64C137.03,383.23 144.94,364.58 149.44,359.72C151.43,357.57 152.31,357.37 154.2,355.48C157.4,352.28 160.86,344.29 166.42,341.81C173.1,338.82 185.93,340.14 192.92,341.83C197.95,343.05 201.06,346.37 205.14,348.09C208.98,349.71 213.22,351.27 216.69,351.98C219.41,352.54 222.22,350.47 224.16,352.57C231.04,360.01 230.74,436.8 224.16,446.56C222.23,449.42 219.47,449.5 216.69,449.58C213.27,449.68 208.98,447.31 205.14,445.69C201.06,443.97 197.95,440.65 192.92,439.44C185.93,437.75 173.24,436.97 166.42,439.41C161.15,441.3 157.31,446.81 154.2,449.47C152.23,451.16 151.61,451.92 149.44,453.71C145.15,457.25 136.52,466.8 129.74,468.78C124.01,470.45 118.08,467.34 112.08,467.26C105.86,467.18 101.4,468.68 93.06,468.4C76.85,467.85 38.34,464.44 21.74,459.27Q12.05,456.25 0,448.05" style="vector-effect: non-scaling-stroke; fill: none; stroke: rgb(255, 255, 255); stroke-opacity: 0; stroke-width: 2px; opacity: 1;"/></g><g class="points"/><g class="text"/></g><g class="trace scatter tracee5d339" style="stroke-miterlimit: 2; opacity: 1;"><g class="fills"><g><path class="js-fill" d="M0,373.42Q7.83,325.84 21.74,318.56C37.24,310.45 77.03,329.84 93.06,335.21C101.6,338.07 105.99,340.3 112.08,343.63C118.22,346.99 124.06,350.19 129.74,355.31C136.62,361.52 145.09,374.15 149.44,379.34C151.55,381.86 152.24,382.64 154.2,384.9C157.32,388.5 160.98,395 166.42,398.82C173.16,403.56 185.67,408.13 192.92,409.24C197.67,409.97 201.12,408.39 205.14,408.38C209.04,408.37 213.27,408.76 216.69,409.15C219.46,409.46 222.26,408.11 224.16,410.34C230.33,417.57 229.74,486.82 224.16,489.87C222.29,490.89 219.57,485.54 216.69,485.06C213.36,484.51 209.05,487.87 205.14,487.91C201.13,487.95 197.8,485.99 192.92,485.15C185.8,483.92 173.24,484.94 166.42,481.97C161.14,479.67 157.24,474.68 154.2,471.66C152.14,469.62 151.69,468.34 149.44,466.1C145.21,461.88 136.43,453.55 129.74,449.29C123.95,445.6 118.08,443.94 112.08,441.24C105.86,438.45 101.65,435.23 93.06,432.81C77.08,428.31 37.34,415.41 21.74,423.39Q9.28,429.77 0,463.8Z" style="fill: rgb(93, 140, 0); fill-opacity: 0.05; stroke-width: 0;"/></g></g><g class="errorbars"/><g class="lines"><path class="js-line" d="M0,373.42Q7.83,325.84 21.74,318.56C37.24,310.45 77.03,329.84 93.06,335.21C101.6,338.07 105.99,340.3 112.08,343.63C118.22,346.99 124.06,350.19 129.74,355.31C136.62,361.52 145.09,374.15 149.44,379.34C151.55,381.86 152.24,382.64 154.2,384.9C157.32,388.5 160.98,395 166.42,398.82C173.16,403.56 185.67,408.13 192.92,409.24C197.67,409.97 201.12,408.39 205.14,408.38C209.04,408.37 213.27,408.76 216.69,409.15C219.46,409.46 222.26,408.11 224.16,410.34C230.33,417.57 229.74,486.82 224.16,489.87C222.29,490.89 219.57,485.54 216.69,485.06C213.36,484.51 209.05,487.87 205.14,487.91C201.13,487.95 197.8,485.99 192.92,485.15C185.8,483.92 173.24,484.94 166.42,481.97C161.14,479.67 157.24,474.68 154.2,471.66C152.14,469.62 151.69,468.34 149.44,466.1C145.21,461.88 136.43,453.55 129.74,449.29C123.95,445.6 118.08,443.94 112.08,441.24C105.86,438.45 101.65,435.23 93.06,432.81C77.08,428.31 37.34,415.41 21.74,423.39Q9.28,429.77 0,463.8" style="vector-effect: non-scaling-stroke; fill: none; stroke: rgb(255, 255, 255); stroke-opacity: 0; stroke-width: 2px; opacity: 1;"/></g><g class="points"/><g class="text"/></g><g class="trace scatter traceec09c7" style="stroke-miterlimit: 2; opacity: 1;"><g class="fills"><g><path class="js-fill" d="M0,387.92Q12.52,387.98 21.74,389.71C38.77,392.9 77.45,402.15 93.06,410.83C102.19,415.91 105.54,423.39 112.08,427.75C117.82,431.57 123.55,435.41 129.74,436.26C136,437.12 145.1,432.93 149.44,432.74C151.56,432.65 152.32,433.56 154.2,433.16C157.42,432.47 161.37,427.97 166.42,426.29C173.39,423.96 185.79,423.95 192.92,422.78C197.79,421.98 201.19,419.95 205.14,420.4C209.12,420.85 213.26,425.53 216.69,425.52C219.45,425.51 222.3,420.96 224.16,422.16C229.69,425.74 230.02,488.79 224.16,494.46C222.28,496.28 219.44,494.44 216.69,494.21C213.25,493.93 209.03,492.58 205.14,492.7C201.11,492.83 197.79,494.28 192.92,495.08C185.79,496.25 173.53,497.18 166.42,498.59C161.53,499.56 157.35,501.58 154.2,501.85C152.26,502.02 151.56,501.34 149.44,501.43C145.1,501.62 136,505.8 129.74,504.94C123.55,504.09 118.06,499.39 112.08,496.43C105.84,493.34 101.7,489.72 93.06,486.74C77.12,481.25 38.7,475.19 21.74,472.85Q12.45,471.57 0,471.06Z" style="fill: rgb(114, 55, 105); fill-opacity: 0.05; stroke-width: 0;"/></g></g><g class="errorbars"/><g class="lines"><path class="js-line" d="M0,387.92Q12.52,387.98 21.74,389.71C38.77,392.9 77.45,402.15 93.06,410.83C102.19,415.91 105.54,423.39 112.08,427.75C117.82,431.57 123.55,435.41 129.74,436.26C136,437.12 145.1,432.93 149.44,432.74C151.56,432.65 152.32,433.56 154.2,433.16C157.42,432.47 161.37,427.97 166.42,426.29C173.39,423.96 185.79,423.95 192.92,422.78C197.79,421.98 201.19,419.95 205.14,420.4C209.12,420.85 213.26,425.53 216.69,425.52C219.45,425.51 222.3,420.96 224.16,422.16C229.69,425.74 230.02,488.79 224.16,494.46C222.28,496.28 219.44,494.44 216.69,494.21C213.25,493.93 209.03,492.58 205.14,492.7C201.11,492.83 197.79,494.28 192.92,495.08C185.79,496.25 173.53,497.18 166.42,498.59C161.53,499.56 157.35,501.58 154.2,501.85C152.26,502.02 151.56,501.34 149.44,501.43C145.1,501.62 136,505.8 129.74,504.94C123.55,504.09 118.06,499.39 112.08,496.43C105.84,493.34 101.7,489.72 93.06,486.74C77.12,481.25 38.7,475.19 21.74,472.85Q12.45,471.57 0,471.06" style="vector-effect: non-scaling-stroke; fill: none; stroke: rgb(255, 255, 255); stroke-opacity: 0; stroke-width: 2px; opacity: 1;"/></g><g class="points"/><g class="text"/></g><g class="trace scatter tracea6ab21" style="stroke-miterlimit: 2; opacity: 1;"><g class="fills"><g><path class="js-fill" d="M0,404.81Q10.6,427.85 21.74,432.62C37.61,439.42 77.02,423.61 93.06,425.65C101.59,426.74 105.78,430.92 112.08,432.61C118.01,434.2 123.67,434.93 129.74,435.73C136.11,436.57 145.12,437.69 149.44,437.47C151.58,437.36 152.24,436.92 154.2,436.56C157.33,435.99 161.55,434.65 166.42,434.44C173.55,434.14 185.87,435.13 192.92,436.75C197.87,437.89 201.08,441.1 205.14,441.43C209,441.75 213.28,439.95 216.69,439.07C219.47,438.35 222.31,435.36 224.16,436.72C229.49,440.63 229.49,494.53 224.16,501.79C222.31,504.31 219.47,503.42 216.69,504.14C213.28,505.02 209,506.82 205.14,506.5C201.08,506.17 197.87,502.61 192.92,501.82C185.87,500.7 173.55,502.34 166.42,503.13C161.55,503.67 157.26,505.77 154.2,505.24C152.17,504.89 151.67,503.23 149.44,502.54C145.2,501.22 136.13,500.99 129.74,500.8C123.7,500.62 117.98,502.25 112.08,501.29C105.76,500.26 101.59,495.42 93.06,494.33C77.02,492.29 38.05,506.04 21.74,501.3Q11.62,498.36 0,484.34Z" style="fill: rgb(230, 172, 33); fill-opacity: 0.05; stroke-width: 0;"/></g></g><g class="errorbars"/><g class="lines"><path class="js-line" d="M0,404.81Q10.6,427.85 21.74,432.62C37.61,439.42 77.02,423.61 93.06,425.65C101.59,426.74 105.78,430.92 112.08,432.61C118.01,434.2 123.67,434.93 129.74,435.73C136.11,436.57 145.12,437.69 149.44,437.47C151.58,437.36 152.24,436.92 154.2,436.56C157.33,435.99 161.55,434.65 166.42,434.44C173.55,434.14 185.87,435.13 192.92,436.75C197.87,437.89 201.08,441.1 205.14,441.43C209,441.75 213.28,439.95 216.69,439.07C219.47,438.35 222.31,435.36 224.16,436.72C229.49,440.63 229.49,494.53 224.16,501.79C222.31,504.31 219.47,503.42 216.69,504.14C213.28,505.02 209,506.82 205.14,506.5C201.08,506.17 197.87,502.61 192.92,501.82C185.87,500.7 173.55,502.34 166.42,503.13C161.55,503.67 157.26,505.77 154.2,505.24C152.17,504.89 151.67,503.23 149.44,502.54C145.2,501.22 136.13,500.99 129.74,500.8C123.7,500.62 117.98,502.25 112.08,501.29C105.76,500.26 101.59,495.42 93.06,494.33C77.02,492.29 38.05,506.04 21.74,501.3Q11.62,498.36 0,484.34" style="vector-effect: non-scaling-stroke; fill: none; stroke: rgb(255, 255, 255); stroke-opacity: 0; stroke-width: 2px; opacity: 1;"/></g><g class="points"/><g class="text"/></g><g class="trace scatter trace6b30ca" style="stroke-miterlimit: 2; opacity: 1;"><g class="fills"><g><path class="js-fill" d="M0,430.54Q12.43,433.68 21.74,436.27C38.68,440.99 76.75,454.82 93.06,457.22C101.31,458.43 106,458.67 112.08,457.34C118.24,455.99 124.06,453.15 129.74,449.06C136.61,444.11 144.79,429.93 149.44,428.34C151.35,427.69 152.27,429.23 154.2,429.06C157.36,428.78 161.5,425.36 166.42,424.92C173.5,424.28 185.82,427.24 192.92,428.84C197.82,429.94 201.29,430.59 205.14,432.56C209.24,434.65 213.06,440.07 216.69,441.31C219.29,442.2 222.3,439.5 224.16,441.37C229.65,446.9 229.65,500.99 224.16,506.44C222.3,508.28 219.38,506.96 216.69,506.38C213.19,505.62 209.09,502.71 205.14,501.24C201.17,499.76 197.84,498.28 192.92,497.52C185.84,496.42 173.56,497.1 166.42,497.21C161.57,497.29 157.24,496.81 154.2,497.74C152.14,498.37 151.6,499.44 149.44,500.64C145.14,503.02 136.25,508.06 129.74,510.52C123.81,512.76 118.13,514.4 112.08,515.17C105.91,515.95 101.39,515.67 93.06,515.06C76.84,513.87 38.58,508.35 21.74,504.95Q12.33,503.05 0,499.23Z" style="fill: rgb(240, 125, 0); fill-opacity: 0.05; stroke-width: 0;"/></g></g><g class="errorbars"/><g class="lines"><path class="js-line" d="M0,430.54Q12.43,433.68 21.74,436.27C38.68,440.99 76.75,454.82 93.06,457.22C101.31,458.43 106,458.67 112.08,457.34C118.24,455.99 124.06,453.15 129.74,449.06C136.61,444.11 144.79,429.93 149.44,428.34C151.35,427.69 152.27,429.23 154.2,429.06C157.36,428.78 161.5,425.36 166.42,424.92C173.5,424.28 185.82,427.24 192.92,428.84C197.82,429.94 201.29,430.59 205.14,432.56C209.24,434.65 213.06,440.07 216.69,441.31C219.29,442.2 222.3,439.5 224.16,441.37C229.65,446.9 229.65,500.99 224.16,506.44C222.3,508.28 219.38,506.96 216.69,506.38C213.19,505.62 209.09,502.71 205.14,501.24C201.17,499.76 197.84,498.28 192.92,497.52C185.84,496.42 173.56,497.1 166.42,497.21C161.57,497.29 157.24,496.81 154.2,497.74C152.14,498.37 151.6,499.44 149.44,500.64C145.14,503.02 136.25,508.06 129.74,510.52C123.81,512.76 118.13,514.4 112.08,515.17C105.91,515.95 101.39,515.67 93.06,515.06C76.84,513.87 38.58,508.35 21.74,504.95Q12.33,503.05 0,499.23" style="vector-effect: non-scaling-stroke; fill: none; stroke: rgb(255, 255, 255); stroke-opacity: 0; stroke-width: 2px; opacity: 1;"/></g><g class="points"/><g class="text"/></g><g class="trace scatter tracef20f49" style="stroke-miterlimit: 2; opacity: 1;"><g class="fills"><g><path class="js-fill" d="M0,439.69Q11.55,453.72 21.74,457.35C38.01,463.14 76.89,458.58 93.06,457.49C101.45,456.93 105.88,454.61 112.08,454.88C118.1,455.14 123.75,457.11 129.74,458.9C136.19,460.82 145.09,466.04 149.44,466.23C151.55,466.32 152.25,464.92 154.2,464.93C157.33,464.94 161.59,468.45 166.42,468.34C173.59,468.18 185.71,461.29 192.92,459.62C197.71,458.51 201.15,458.74 205.14,457.94C209.07,457.16 213.24,455.1 216.69,454.9C219.43,454.74 222.33,453.85 224.16,455.96C229.22,461.79 229.22,509.4 224.16,513.8C222.33,515.39 219.43,512.58 216.69,512.74C213.24,512.94 209.07,515.57 205.14,515.77C201.14,515.97 197.76,513.77 192.92,513.85C185.77,513.97 173.59,518.21 166.42,518.95C161.59,519.45 157.27,519.83 154.2,519.15C152.18,518.7 151.65,517.35 149.44,516.84C145.18,515.85 136.09,517.47 129.74,516.74C123.65,516.04 118.1,512.98 112.08,512.72C105.88,512.45 101.45,514.77 93.06,515.33C76.89,516.42 38.36,518.99 21.74,515.19Q12.08,512.98 0,504.76Z" style="fill: rgb(0, 51, 255); fill-opacity: 0.05; stroke-width: 0;"/></g></g><g class="errorbars"/><g class="lines"><path class="js-line" d="M0,439.69Q11.55,453.72 21.74,457.35C38.01,463.14 76.89,458.58 93.06,457.49C101.45,456.93 105.88,454.61 112.08,454.88C118.1,455.14 123.75,457.11 129.74,458.9C136.19,460.82 145.09,466.04 149.44,466.23C151.55,466.32 152.25,464.92 154.2,464.93C157.33,464.94 161.59,468.45 166.42,468.34C173.59,468.18 185.71,461.29 192.92,459.62C197.71,458.51 201.15,458.74 205.14,457.94C209.07,457.16 213.24,455.1 216.69,454.9C219.43,454.74 222.33,453.85 224.16,455.96C229.22,461.79 229.22,509.4 224.16,513.8C222.33,515.39 219.43,512.58 216.69,512.74C213.24,512.94 209.07,515.57 205.14,515.77C201.14,515.97 197.76,513.77 192.92,513.85C185.77,513.97 173.59,518.21 166.42,518.95C161.59,519.45 157.27,519.83 154.2,519.15C152.18,518.7 151.65,517.35 149.44,516.84C145.18,515.85 136.09,517.47 129.74,516.74C123.65,516.04 118.1,512.98 112.08,512.72C105.88,512.45 101.45,514.77 93.06,515.33C76.89,516.42 38.36,518.99 21.74,515.19Q12.08,512.98 0,504.76" style="vector-effect: non-scaling-stroke; fill: none; stroke: rgb(255, 255, 255); stroke-opacity: 0; stroke-width: 2px; opacity: 1;"/></g><g class="points"/><g class="text"/></g><g class="trace scatter traceb519cc" style="stroke-miterlimit: 2; opacity: 1;"><g class="fills"><g><path class="js-fill" d="M0,449.81Q12.58,447.33 21.74,448.68C38.84,451.21 76.79,473.64 93.06,474.35C101.35,474.71 105.81,470.14 112.08,469.33C118.03,468.56 123.72,469.85 129.74,469.33C136.15,468.78 145.1,466.33 149.44,465.91C151.56,465.71 152.25,465.79 154.2,465.81C157.33,465.85 161.57,466.29 166.42,466.36C173.56,466.46 185.81,466.78 192.92,465.88C197.81,465.26 201.25,462.34 205.14,462.98C209.19,463.64 213.5,467.14 216.69,470.18C219.82,473.16 222.55,475.82 224.16,480.96C227.08,490.31 228.13,521.84 224.16,524.34C222.43,525.43 219.49,521.88 216.69,520.78C213.3,519.45 209.06,517.33 205.14,517.2C201.14,517.07 197.8,519.83 192.92,520.11C185.8,520.52 173.53,516.52 166.42,516.97C161.53,517.28 157.35,519.6 154.2,520.03C152.26,520.29 151.57,520.13 149.44,520.14C145.11,520.17 136.13,519.96 129.74,519.93C123.69,519.9 118.07,519.71 112.08,519.93C105.85,520.16 101.4,521.69 93.06,521.35C76.84,520.69 38.69,511.01 21.74,510.13Q12.43,509.65 0,511.26Z" style="fill: rgb(140, 0, 0); fill-opacity: 0.05; stroke-width: 0;"/></g></g><g class="errorbars"/><g class="lines"><path class="js-line" d="M0,449.81Q12.58,447.33 21.74,448.68C38.84,451.21 76.79,473.64 93.06,474.35C101.35,474.71 105.81,470.14 112.08,469.33C118.03,468.56 123.72,469.85 129.74,469.33C136.15,468.78 145.1,466.33 149.44,465.91C151.56,465.71 152.25,465.79 154.2,465.81C157.33,465.85 161.57,466.29 166.42,466.36C173.56,466.46 185.81,466.78 192.92,465.88C197.81,465.26 201.25,462.34 205.14,462.98C209.19,463.64 213.5,467.14 216.69,470.18C219.82,473.16 222.55,475.82 224.16,480.96C227.08,490.31 228.13,521.84 224.16,524.34C222.43,525.43 219.49,521.88 216.69,520.78C213.3,519.45 209.06,517.33 205.14,517.2C201.14,517.07 197.8,519.83 192.92,520.11C185.8,520.52 173.53,516.52 166.42,516.97C161.53,517.28 157.35,519.6 154.2,520.03C152.26,520.29 151.57,520.13 149.44,520.14C145.11,520.17 136.13,519.96 129.74,519.93C123.69,519.9 118.07,519.71 112.08,519.93C105.85,520.16 101.4,521.69 93.06,521.35C76.84,520.69 38.69,511.01 21.74,510.13Q12.43,509.65 0,511.26" style="vector-effect: non-scaling-stroke; fill: none; stroke: rgb(255, 255, 255); stroke-opacity: 0; stroke-width: 2px; opacity: 1;"/></g><g class="points"/><g class="text"/></g><g class="trace scatter trace005d84" style="stroke-miterlimit: 2; opacity: 1;"><g class="fills"/><g class="errorbars"/><g class="lines"><path class="js-line" d="M0,149.94Q12.44,149.95 21.74,150.91C38.69,152.67 77.42,166.69 93.06,162.57C102.15,160.17 105.56,151.06 112.08,147.27C117.83,143.93 123.71,142.77 129.74,140.3C136.14,137.68 145.07,133.37 149.44,131.96C151.53,131.28 152.29,131.54 154.2,130.87C157.38,129.76 161.63,127.54 166.42,125.01C173.63,121.2 185.68,113.29 192.92,109.66C197.69,107.27 201.04,105.25 205.14,104.42C208.96,103.64 213.26,104.26 216.69,104.47Q219.46,104.64 224.16,105.37" style="vector-effect: non-scaling-stroke; fill: none; stroke: rgb(38, 16, 96); stroke-opacity: 1; stroke-width: 7px; opacity: 1;"/></g><g class="points"/><g class="text"/></g><g class="trace scatter trace3712c1" style="stroke-miterlimit: 2; opacity: 1;"><g class="fills"/><g class="errorbars"/><g class="lines"/><g class="points"><path class="point" transform="translate(0,149.41)" d="M7.5,0A7.5,7.5 0 1,1 0,-7.5A7.5,7.5 0 0,1 7.5,0Z" style="opacity: 1; stroke-width: 0px; fill: rgb(38, 16, 96); fill-opacity: 0.25;"/><path class="point" transform="translate(21.74,150.81)" d="M7.5,0A7.5,7.5 0 1,1 0,-7.5A7.5,7.5 0 0,1 7.5,0Z" style="opacity: 1; stroke-width: 0px; fill: rgb(38, 16, 96); fill-opacity: 0.25;"/><path class="point" transform="translate(93.06,178.9)" d="M7.5,0A7.5,7.5 0 1,1 0,-7.5A7.5,7.5 0 0,1 7.5,0Z" style="opacity: 1; stroke-width: 0px; fill: rgb(38, 16, 96); fill-opacity: 0.25;"/><path class="point" transform="translate(112.08,143.79)" d="M7.5,0A7.5,7.5 0 1,1 0,-7.5A7.5,7.5 0 0,1 7.5,0Z" style="opacity: 1; stroke-width: 0px; fill: rgb(38, 16, 96); fill-opacity: 0.25;"/><path class="point" transform="translate(129.74,143.79)" d="M7.5,0A7.5,7.5 0 1,1 0,-7.5A7.5,7.5 0 0,1 7.5,0Z" style="opacity: 1; stroke-width: 0px; fill: rgb(38, 16, 96); fill-opacity: 0.25;"/><path class="point" transform="translate(149.44,129.75)" d="M7.5,0A7.5,7.5 0 1,1 0,-7.5A7.5,7.5 0 0,1 7.5,0Z" style="opacity: 1; stroke-width: 0px; fill: rgb(38, 16, 96); fill-opacity: 0.25;"/><path class="point" transform="translate(154.2,136.77)" d="M7.5,0A7.5,7.5 0 1,1 0,-7.5A7.5,7.5 0 0,1 7.5,0Z" style="opacity: 1; stroke-width: 0px; fill: rgb(38, 16, 96); fill-opacity: 0.25;"/><path class="point" transform="translate(166.42,122.73)" d="M7.5,0A7.5,7.5 0 1,1 0,-7.5A7.5,7.5 0 0,1 7.5,0Z" style="opacity: 1; stroke-width: 0px; fill: rgb(38, 16, 96); fill-opacity: 0.25;"/><path class="point" transform="translate(192.92,108.68)" d="M7.5,0A7.5,7.5 0 1,1 0,-7.5A7.5,7.5 0 0,1 7.5,0Z" style="opacity: 1; stroke-width: 0px; fill: rgb(38, 16, 96); fill-opacity: 0.25;"/><path class="point" transform="translate(205.14,93.23)" d="M7.5,0A7.5,7.5 0 1,1 0,-7.5A7.5,7.5 0 0,1 7.5,0Z" style="opacity: 1; stroke-width: 0px; fill: rgb(38, 16, 96); fill-opacity: 0.25;"/><path class="point" transform="translate(216.69,101.66)" d="M7.5,0A7.5,7.5 0 1,1 0,-7.5A7.5,7.5 0 0,1 7.5,0Z" style="opacity: 1; stroke-width: 0px; fill: rgb(38, 16, 96); fill-opacity: 0.25;"/><path class="point" transform="translate(224.16,108.68)" d="M7.5,0A7.5,7.5 0 1,1 0,-7.5A7.5,7.5 0 0,1 7.5,0Z" style="opacity: 1; stroke-width: 0px; fill: rgb(38, 16, 96); fill-opacity: 0.25;"/></g><g class="text"/></g><g class="trace scatter trace559b57" style="stroke-miterlimit: 2; opacity: 1;"><g class="fills"/><g class="errorbars"/><g class="lines"><path class="js-line" d="M0,330.79Q13.09,323.69 21.74,315.73C39.56,299.33 75.69,242.81 93.06,229.05C100.61,223.07 105.69,221.47 112.08,219.69C117.92,218.06 124.5,215.3 129.74,218.17C137.86,222.62 144.24,252.69 149.44,255.85C151.18,256.91 152.52,254.94 154.2,255.86C157.85,257.85 160.98,268.65 166.42,274.81C173.16,282.43 185.34,293.74 192.92,296.96C197.44,298.88 201.2,298.86 205.14,298.29C209.12,297.71 213.45,292.75 216.69,293.44Q219.71,294.08 224.16,301.37" style="vector-effect: non-scaling-stroke; fill: none; stroke: rgb(0, 68, 148); stroke-opacity: 1; stroke-width: 7px; opacity: 1;"/></g><g class="points"/><g class="text"/></g><g class="trace scatter traceede780" style="stroke-miterlimit: 2; opacity: 1;"><g class="fills"/><g class="errorbars"/><g class="lines"/><g class="points"><path class="point" transform="translate(0,339)" d="M7.5,0A7.5,7.5 0 1,1 0,-7.5A7.5,7.5 0 0,1 7.5,0Z" style="opacity: 1; stroke-width: 0px; fill: rgb(0, 68, 148); fill-opacity: 0.25;"/><path class="point" transform="translate(21.74,312.32)" d="M7.5,0A7.5,7.5 0 1,1 0,-7.5A7.5,7.5 0 0,1 7.5,0Z" style="opacity: 1; stroke-width: 0px; fill: rgb(0, 68, 148); fill-opacity: 0.25;"/><path class="point" transform="translate(93.06,235.08)" d="M7.5,0A7.5,7.5 0 1,1 0,-7.5A7.5,7.5 0 0,1 7.5,0Z" style="opacity: 1; stroke-width: 0px; fill: rgb(0, 68, 148); fill-opacity: 0.25;"/><path class="point" transform="translate(112.08,214.01)" d="M7.5,0A7.5,7.5 0 1,1 0,-7.5A7.5,7.5 0 0,1 7.5,0Z" style="opacity: 1; stroke-width: 0px; fill: rgb(0, 68, 148); fill-opacity: 0.25;"/><path class="point" transform="translate(129.74,164.86)" d="M7.5,0A7.5,7.5 0 1,1 0,-7.5A7.5,7.5 0 0,1 7.5,0Z" style="opacity: 1; stroke-width: 0px; fill: rgb(0, 68, 148); fill-opacity: 0.25;"/><path class="point" transform="translate(149.44,298.27)" d="M7.5,0A7.5,7.5 0 1,1 0,-7.5A7.5,7.5 0 0,1 7.5,0Z" style="opacity: 1; stroke-width: 0px; fill: rgb(0, 68, 148); fill-opacity: 0.25;"/><path class="point" transform="translate(154.2,214.01)" d="M7.5,0A7.5,7.5 0 1,1 0,-7.5A7.5,7.5 0 0,1 7.5,0Z" style="opacity: 1; stroke-width: 0px; fill: rgb(0, 68, 148); fill-opacity: 0.25;"/><path class="point" transform="translate(166.42,303.89)" d="M7.5,0A7.5,7.5 0 1,1 0,-7.5A7.5,7.5 0 0,1 7.5,0Z" style="opacity: 1; stroke-width: 0px; fill: rgb(0, 68, 148); fill-opacity: 0.25;"/><path class="point" transform="translate(192.92,312.32)" d="M7.5,0A7.5,7.5 0 1,1 0,-7.5A7.5,7.5 0 0,1 7.5,0Z" style="opacity: 1; stroke-width: 0px; fill: rgb(0, 68, 148); fill-opacity: 0.25;"/><path class="point" transform="translate(205.14,312.32)" d="M7.5,0A7.5,7.5 0 1,1 0,-7.5A7.5,7.5 0 0,1 7.5,0Z" style="opacity: 1; stroke-width: 0px; fill: rgb(0, 68, 148); fill-opacity: 0.25;"/><path class="point" transform="translate(216.69,256.14)" d="M7.5,0A7.5,7.5 0 1,1 0,-7.5A7.5,7.5 0 0,1 7.5,0Z" style="opacity: 1; stroke-width: 0px; fill: rgb(0, 68, 148); fill-opacity: 0.25;"/><path class="point" transform="translate(224.16,330.58)" d="M7.5,0A7.5,7.5 0 1,1 0,-7.5A7.5,7.5 0 0,1 7.5,0Z" style="opacity: 1; stroke-width: 0px; fill: rgb(0, 68, 148); fill-opacity: 0.25;"/></g><g class="text"/></g><g class="trace scatter tracedb8a63" style="stroke-miterlimit: 2; opacity: 1;"><g class="fills"/><g class="errorbars"/><g class="lines"><path class="js-line" d="M0,395.28Q12.51,396.65 21.74,395.45C38.76,393.23 76.92,375.49 93.06,375.97C101.47,376.22 105.88,382.55 112.08,382.41C118.1,382.27 123.64,377.57 129.74,375.5C136.08,373.34 145.09,370.75 149.44,369.77C151.55,369.29 152.29,369.55 154.2,368.99C157.38,368.06 161.46,365.2 166.42,363.72C173.47,361.61 185.75,359.59 192.92,359.07C197.75,358.72 201.13,359.56 205.14,359.41C209.05,359.26 213.43,359.59 216.69,358.22Q219.67,356.97 224.16,352.02" style="vector-effect: non-scaling-stroke; fill: none; stroke: rgb(234, 35, 41); stroke-opacity: 1; stroke-width: 7px; opacity: 1;"/></g><g class="points"/><g class="text"/></g><g class="trace scatter tracefd7c11" style="stroke-miterlimit: 2; opacity: 1;"><g class="fills"/><g class="errorbars"/><g class="lines"/><g class="points"><path class="point" transform="translate(0,395.18)" d="M7.5,0A7.5,7.5 0 1,1 0,-7.5A7.5,7.5 0 0,1 7.5,0Z" style="opacity: 1; stroke-width: 0px; fill: rgb(234, 35, 41); fill-opacity: 0.25;"/><path class="point" transform="translate(21.74,396.58)" d="M7.5,0A7.5,7.5 0 1,1 0,-7.5A7.5,7.5 0 0,1 7.5,0Z" style="opacity: 1; stroke-width: 0px; fill: rgb(234, 35, 41); fill-opacity: 0.25;"/><path class="point" transform="translate(93.06,368.49)" d="M7.5,0A7.5,7.5 0 1,1 0,-7.5A7.5,7.5 0 0,1 7.5,0Z" style="opacity: 1; stroke-width: 0px; fill: rgb(234, 35, 41); fill-opacity: 0.25;"/><path class="point" transform="translate(112.08,396.58)" d="M7.5,0A7.5,7.5 0 1,1 0,-7.5A7.5,7.5 0 0,1 7.5,0Z" style="opacity: 1; stroke-width: 0px; fill: rgb(234, 35, 41); fill-opacity: 0.25;"/><path class="point" transform="translate(129.74,375.52)" d="M7.5,0A7.5,7.5 0 1,1 0,-7.5A7.5,7.5 0 0,1 7.5,0Z" style="opacity: 1; stroke-width: 0px; fill: rgb(234, 35, 41); fill-opacity: 0.25;"/><path class="point" transform="translate(149.44,368.49)" d="M7.5,0A7.5,7.5 0 1,1 0,-7.5A7.5,7.5 0 0,1 7.5,0Z" style="opacity: 1; stroke-width: 0px; fill: rgb(234, 35, 41); fill-opacity: 0.25;"/><path class="point" transform="translate(154.2,375.52)" d="M7.5,0A7.5,7.5 0 1,1 0,-7.5A7.5,7.5 0 0,1 7.5,0Z" style="opacity: 1; stroke-width: 0px; fill: rgb(234, 35, 41); fill-opacity: 0.25;"/><path class="point" transform="translate(166.42,354.45)" d="M7.5,0A7.5,7.5 0 1,1 0,-7.5A7.5,7.5 0 0,1 7.5,0Z" style="opacity: 1; stroke-width: 0px; fill: rgb(234, 35, 41); fill-opacity: 0.25;"/><path class="point" transform="translate(192.92,354.45)" d="M7.5,0A7.5,7.5 0 1,1 0,-7.5A7.5,7.5 0 0,1 7.5,0Z" style="opacity: 1; stroke-width: 0px; fill: rgb(234, 35, 41); fill-opacity: 0.25;"/><path class="point" transform="translate(205.14,362.88)" d="M7.5,0A7.5,7.5 0 1,1 0,-7.5A7.5,7.5 0 0,1 7.5,0Z" style="opacity: 1; stroke-width: 0px; fill: rgb(234, 35, 41); fill-opacity: 0.25;"/><path class="point" transform="translate(216.69,375.52)" d="M7.5,0A7.5,7.5 0 1,1 0,-7.5A7.5,7.5 0 0,1 7.5,0Z" style="opacity: 1; stroke-width: 0px; fill: rgb(234, 35, 41); fill-opacity: 0.25;"/><path class="point" transform="translate(224.16,329.17)" d="M7.5,0A7.5,7.5 0 1,1 0,-7.5A7.5,7.5 0 0,1 7.5,0Z" style="opacity: 1; stroke-width: 0px; fill: rgb(234, 35, 41); fill-opacity: 0.25;"/></g><g class="text"/></g><g class="trace scatter tracea01f0d" style="stroke-miterlimit: 2; opacity: 1;"><g class="fills"/><g class="errorbars"/><g class="lines"><path class="js-line" d="M0,402.29Q12.12,409.65 21.74,412.75C38.4,418.11 76.83,423.41 93.06,425.32C101.38,426.3 105.87,425.9 112.08,426.45C118.08,426.98 124.17,430.58 129.74,428.55C136.83,425.96 144.94,411.19 149.44,407.47C151.43,405.83 152.33,405.93 154.2,404.48C157.43,401.97 161.03,395.01 166.42,392.85C173.18,390.14 185.87,391.54 192.92,392.82C197.87,393.72 201.1,396.08 205.14,397.42C209.02,398.71 213.23,400.41 216.69,400.76Q219.42,401.04 224.16,400.16" style="vector-effect: non-scaling-stroke; fill: none; stroke: rgb(0, 0, 0); stroke-opacity: 1; stroke-width: 7px; opacity: 1;"/></g><g class="points"/><g class="text"/></g><g class="trace scatter trace583880" style="stroke-miterlimit: 2; opacity: 1;"><g class="fills"/><g class="errorbars"/><g class="lines"/><g class="points"><path class="point" transform="translate(0,396.58)" d="M7.5,0A7.5,7.5 0 1,1 0,-7.5A7.5,7.5 0 0,1 7.5,0Z" style="opacity: 1; stroke-width: 0px; fill: rgb(0, 0, 0); fill-opacity: 0.25;"/><path class="point" transform="translate(21.74,417.65)" d="M7.5,0A7.5,7.5 0 1,1 0,-7.5A7.5,7.5 0 0,1 7.5,0Z" style="opacity: 1; stroke-width: 0px; fill: rgb(0, 0, 0); fill-opacity: 0.25;"/><path class="point" transform="translate(93.06,424.67)" d="M7.5,0A7.5,7.5 0 1,1 0,-7.5A7.5,7.5 0 0,1 7.5,0Z" style="opacity: 1; stroke-width: 0px; fill: rgb(0, 0, 0); fill-opacity: 0.25;"/><path class="point" transform="translate(112.08,424.67)" d="M7.5,0A7.5,7.5 0 1,1 0,-7.5A7.5,7.5 0 0,1 7.5,0Z" style="opacity: 1; stroke-width: 0px; fill: rgb(0, 0, 0); fill-opacity: 0.25;"/><path class="point" transform="translate(129.74,459.78)" d="M7.5,0A7.5,7.5 0 1,1 0,-7.5A7.5,7.5 0 0,1 7.5,0Z" style="opacity: 1; stroke-width: 0px; fill: rgb(0, 0, 0); fill-opacity: 0.25;"/><path class="point" transform="translate(149.44,403.6)" d="M7.5,0A7.5,7.5 0 1,1 0,-7.5A7.5,7.5 0 0,1 7.5,0Z" style="opacity: 1; stroke-width: 0px; fill: rgb(0, 0, 0); fill-opacity: 0.25;"/><path class="point" transform="translate(154.2,410.63)" d="M7.5,0A7.5,7.5 0 1,1 0,-7.5A7.5,7.5 0 0,1 7.5,0Z" style="opacity: 1; stroke-width: 0px; fill: rgb(0, 0, 0); fill-opacity: 0.25;"/><path class="point" transform="translate(166.42,364.28)" d="M7.5,0A7.5,7.5 0 1,1 0,-7.5A7.5,7.5 0 0,1 7.5,0Z" style="opacity: 1; stroke-width: 0px; fill: rgb(0, 0, 0); fill-opacity: 0.25;"/><path class="point" transform="translate(192.92,382.54)" d="M7.5,0A7.5,7.5 0 1,1 0,-7.5A7.5,7.5 0 0,1 7.5,0Z" style="opacity: 1; stroke-width: 0px; fill: rgb(0, 0, 0); fill-opacity: 0.25;"/><path class="point" transform="translate(205.14,399.39)" d="M7.5,0A7.5,7.5 0 1,1 0,-7.5A7.5,7.5 0 0,1 7.5,0Z" style="opacity: 1; stroke-width: 0px; fill: rgb(0, 0, 0); fill-opacity: 0.25;"/><path class="point" transform="translate(216.69,410.63)" d="M7.5,0A7.5,7.5 0 1,1 0,-7.5A7.5,7.5 0 0,1 7.5,0Z" style="opacity: 1; stroke-width: 0px; fill: rgb(0, 0, 0); fill-opacity: 0.25;"/><path class="point" transform="translate(224.16,397.99)" d="M7.5,0A7.5,7.5 0 1,1 0,-7.5A7.5,7.5 0 0,1 7.5,0Z" style="opacity: 1; stroke-width: 0px; fill: rgb(0, 0, 0); fill-opacity: 0.25;"/></g><g class="text"/></g><g class="trace scatter traceb3855f" style="stroke-miterlimit: 2; opacity: 1;"><g class="fills"/><g class="errorbars"/><g class="lines"><path class="js-line" d="M0,419.07Q8.67,379.54 21.74,372.72C37.28,364.61 77.13,379.71 93.06,384.99C101.71,387.86 105.9,391.32 112.08,394.64C118.11,397.88 123.97,400.31 129.74,404.66C136.47,409.73 145.16,419.53 149.44,424C151.62,426.27 152.19,427.25 154.2,429.29C157.28,432.42 161.12,437.67 166.42,440.67C173.23,444.53 185.72,447.05 192.92,448.33C197.72,449.18 201.12,449.17 205.14,449.18C209.04,449.19 213.29,448 216.69,448.42Q219.49,448.77 224.16,450.84" style="vector-effect: non-scaling-stroke; fill: none; stroke: rgb(93, 140, 0); stroke-opacity: 1; stroke-width: 7px; opacity: 1;"/></g><g class="points"/><g class="text"/></g><g class="trace scatter tracec54506" style="stroke-miterlimit: 2; opacity: 1;"><g class="fills"/><g class="errorbars"/><g class="lines"/><g class="points"><path class="point" transform="translate(0,444.33)" d="M7.5,0A7.5,7.5 0 1,1 0,-7.5A7.5,7.5 0 0,1 7.5,0Z" style="opacity: 1; stroke-width: 0px; fill: rgb(93, 140, 0); fill-opacity: 0.25;"/><path class="point" transform="translate(21.74,347.43)" d="M7.5,0A7.5,7.5 0 1,1 0,-7.5A7.5,7.5 0 0,1 7.5,0Z" style="opacity: 1; stroke-width: 0px; fill: rgb(93, 140, 0); fill-opacity: 0.25;"/><path class="point" transform="translate(93.06,375.52)" d="M7.5,0A7.5,7.5 0 1,1 0,-7.5A7.5,7.5 0 0,1 7.5,0Z" style="opacity: 1; stroke-width: 0px; fill: rgb(93, 140, 0); fill-opacity: 0.25;"/><path class="point" transform="translate(112.08,389.56)" d="M7.5,0A7.5,7.5 0 1,1 0,-7.5A7.5,7.5 0 0,1 7.5,0Z" style="opacity: 1; stroke-width: 0px; fill: rgb(93, 140, 0); fill-opacity: 0.25;"/><path class="point" transform="translate(129.74,389.56)" d="M7.5,0A7.5,7.5 0 1,1 0,-7.5A7.5,7.5 0 0,1 7.5,0Z" style="opacity: 1; stroke-width: 0px; fill: rgb(93, 140, 0); fill-opacity: 0.25;"/><path class="point" transform="translate(149.44,410.63)" d="M7.5,0A7.5,7.5 0 1,1 0,-7.5A7.5,7.5 0 0,1 7.5,0Z" style="opacity: 1; stroke-width: 0px; fill: rgb(93, 140, 0); fill-opacity: 0.25;"/><path class="point" transform="translate(154.2,438.71)" d="M7.5,0A7.5,7.5 0 1,1 0,-7.5A7.5,7.5 0 0,1 7.5,0Z" style="opacity: 1; stroke-width: 0px; fill: rgb(93, 140, 0); fill-opacity: 0.25;"/><path class="point" transform="translate(166.42,462.59)" d="M7.5,0A7.5,7.5 0 1,1 0,-7.5A7.5,7.5 0 0,1 7.5,0Z" style="opacity: 1; stroke-width: 0px; fill: rgb(93, 140, 0); fill-opacity: 0.25;"/><path class="point" transform="translate(192.92,452.76)" d="M7.5,0A7.5,7.5 0 1,1 0,-7.5A7.5,7.5 0 0,1 7.5,0Z" style="opacity: 1; stroke-width: 0px; fill: rgb(93, 140, 0); fill-opacity: 0.25;"/><path class="point" transform="translate(205.14,452.76)" d="M7.5,0A7.5,7.5 0 1,1 0,-7.5A7.5,7.5 0 0,1 7.5,0Z" style="opacity: 1; stroke-width: 0px; fill: rgb(93, 140, 0); fill-opacity: 0.25;"/><path class="point" transform="translate(216.69,438.71)" d="M7.5,0A7.5,7.5 0 1,1 0,-7.5A7.5,7.5 0 0,1 7.5,0Z" style="opacity: 1; stroke-width: 0px; fill: rgb(93, 140, 0); fill-opacity: 0.25;"/><path class="point" transform="translate(224.16,459.78)" d="M7.5,0A7.5,7.5 0 1,1 0,-7.5A7.5,7.5 0 0,1 7.5,0Z" style="opacity: 1; stroke-width: 0px; fill: rgb(93, 140, 0); fill-opacity: 0.25;"/></g><g class="text"/></g><g class="trace scatter trace007df2" style="stroke-miterlimit: 2; opacity: 1;"><g class="fills"/><g class="errorbars"/><g class="lines"><path class="js-line" d="M0,429.88Q12.49,430.12 21.74,431.71C38.74,434.63 77.21,443.47 93.06,450.35C101.82,454.15 105.8,458.67 112.08,462.35C118.02,465.83 123.51,470.95 129.74,471.92C135.96,472.89 145.1,468.8 149.44,468.2C151.56,467.91 152.27,468.17 154.2,467.78C157.36,467.14 161.51,464.94 166.42,463.81C173.51,462.17 185.77,460.95 192.92,460.09C197.77,459.5 201.14,458.69 205.14,458.85C209.06,459.01 213.25,460.71 216.69,460.96Q219.44,461.16 224.16,460.71" style="vector-effect: non-scaling-stroke; fill: none; stroke: rgb(114, 55, 105); stroke-opacity: 1; stroke-width: 7px; opacity: 1;"/></g><g class="points"/><g class="text"/></g><g class="trace scatter tracebb4784" style="stroke-miterlimit: 2; opacity: 1;"><g class="fills"/><g class="errorbars"/><g class="lines"/><g class="points"><path class="point" transform="translate(0,428.88)" d="M7.5,0A7.5,7.5 0 1,1 0,-7.5A7.5,7.5 0 0,1 7.5,0Z" style="opacity: 1; stroke-width: 0px; fill: rgb(114, 55, 105); fill-opacity: 0.25;"/><path class="point" transform="translate(21.74,431.69)" d="M7.5,0A7.5,7.5 0 1,1 0,-7.5A7.5,7.5 0 0,1 7.5,0Z" style="opacity: 1; stroke-width: 0px; fill: rgb(114, 55, 105); fill-opacity: 0.25;"/><path class="point" transform="translate(93.06,438.71)" d="M7.5,0A7.5,7.5 0 1,1 0,-7.5A7.5,7.5 0 0,1 7.5,0Z" style="opacity: 1; stroke-width: 0px; fill: rgb(114, 55, 105); fill-opacity: 0.25;"/><path class="point" transform="translate(112.08,459.78)" d="M7.5,0A7.5,7.5 0 1,1 0,-7.5A7.5,7.5 0 0,1 7.5,0Z" style="opacity: 1; stroke-width: 0px; fill: rgb(114, 55, 105); fill-opacity: 0.25;"/><path class="point" transform="translate(129.74,487.87)" d="M7.5,0A7.5,7.5 0 1,1 0,-7.5A7.5,7.5 0 0,1 7.5,0Z" style="opacity: 1; stroke-width: 0px; fill: rgb(114, 55, 105); fill-opacity: 0.25;"/><path class="point" transform="translate(149.44,466.8)" d="M7.5,0A7.5,7.5 0 1,1 0,-7.5A7.5,7.5 0 0,1 7.5,0Z" style="opacity: 1; stroke-width: 0px; fill: rgb(114, 55, 105); fill-opacity: 0.25;"/><path class="point" transform="translate(154.2,473.82)" d="M7.5,0A7.5,7.5 0 1,1 0,-7.5A7.5,7.5 0 0,1 7.5,0Z" style="opacity: 1; stroke-width: 0px; fill: rgb(114, 55, 105); fill-opacity: 0.25;"/><path class="point" transform="translate(166.42,456.97)" d="M7.5,0A7.5,7.5 0 1,1 0,-7.5A7.5,7.5 0 0,1 7.5,0Z" style="opacity: 1; stroke-width: 0px; fill: rgb(114, 55, 105); fill-opacity: 0.25;"/><path class="point" transform="translate(192.92,459.78)" d="M7.5,0A7.5,7.5 0 1,1 0,-7.5A7.5,7.5 0 0,1 7.5,0Z" style="opacity: 1; stroke-width: 0px; fill: rgb(114, 55, 105); fill-opacity: 0.25;"/><path class="point" transform="translate(205.14,451.35)" d="M7.5,0A7.5,7.5 0 1,1 0,-7.5A7.5,7.5 0 0,1 7.5,0Z" style="opacity: 1; stroke-width: 0px; fill: rgb(114, 55, 105); fill-opacity: 0.25;"/><path class="point" transform="translate(216.69,466.8)" d="M7.5,0A7.5,7.5 0 1,1 0,-7.5A7.5,7.5 0 0,1 7.5,0Z" style="opacity: 1; stroke-width: 0px; fill: rgb(114, 55, 105); fill-opacity: 0.25;"/><path class="point" transform="translate(224.16,459.78)" d="M7.5,0A7.5,7.5 0 1,1 0,-7.5A7.5,7.5 0 0,1 7.5,0Z" style="opacity: 1; stroke-width: 0px; fill: rgb(114, 55, 105); fill-opacity: 0.25;"/></g><g class="text"/></g><g class="trace scatter tracefa585c" style="stroke-miterlimit: 2; opacity: 1;"><g class="fills"/><g class="errorbars"/><g class="lines"><path class="js-line" d="M0,445.52Q11.1,464.42 21.74,468.33C37.79,474.23 77.04,458.66 93.06,460.84C101.61,462.01 105.74,467.05 112.08,468.34C117.97,469.54 123.7,468.45 129.74,468.82C136.13,469.21 145.12,470.1 149.44,470.71C151.58,471.01 152.24,471.55 154.2,471.61C157.32,471.71 161.56,470.29 166.42,470.11C173.56,469.85 185.8,470.51 192.92,471.42C197.8,472.05 201.11,473.77 205.14,473.97C209.03,474.16 213.26,473.19 216.69,472.71Q219.46,472.33 224.16,471.45" style="vector-effect: non-scaling-stroke; fill: none; stroke: rgb(230, 172, 33); stroke-opacity: 1; stroke-width: 7px; opacity: 1;"/></g><g class="points"/><g class="text"/></g><g class="trace scatter trace282eb3" style="stroke-miterlimit: 2; opacity: 1;"><g class="fills"/><g class="errorbars"/><g class="lines"/><g class="points"><path class="point" transform="translate(0,433.1)" d="M7.5,0A7.5,7.5 0 1,1 0,-7.5A7.5,7.5 0 0,1 7.5,0Z" style="opacity: 1; stroke-width: 0px; fill: rgb(230, 172, 33); fill-opacity: 0.25;"/><path class="point" transform="translate(21.74,480.85)" d="M7.5,0A7.5,7.5 0 1,1 0,-7.5A7.5,7.5 0 0,1 7.5,0Z" style="opacity: 1; stroke-width: 0px; fill: rgb(230, 172, 33); fill-opacity: 0.25;"/><path class="point" transform="translate(93.06,452.76)" d="M7.5,0A7.5,7.5 0 1,1 0,-7.5A7.5,7.5 0 0,1 7.5,0Z" style="opacity: 1; stroke-width: 0px; fill: rgb(230, 172, 33); fill-opacity: 0.25;"/><path class="point" transform="translate(112.08,473.82)" d="M7.5,0A7.5,7.5 0 1,1 0,-7.5A7.5,7.5 0 0,1 7.5,0Z" style="opacity: 1; stroke-width: 0px; fill: rgb(230, 172, 33); fill-opacity: 0.25;"/><path class="point" transform="translate(129.74,466.8)" d="M7.5,0A7.5,7.5 0 1,1 0,-7.5A7.5,7.5 0 0,1 7.5,0Z" style="opacity: 1; stroke-width: 0px; fill: rgb(230, 172, 33); fill-opacity: 0.25;"/><path class="point" transform="translate(149.44,466.8)" d="M7.5,0A7.5,7.5 0 1,1 0,-7.5A7.5,7.5 0 0,1 7.5,0Z" style="opacity: 1; stroke-width: 0px; fill: rgb(230, 172, 33); fill-opacity: 0.25;"/><path class="point" transform="translate(154.2,480.85)" d="M7.5,0A7.5,7.5 0 1,1 0,-7.5A7.5,7.5 0 0,1 7.5,0Z" style="opacity: 1; stroke-width: 0px; fill: rgb(230, 172, 33); fill-opacity: 0.25;"/><path class="point" transform="translate(166.42,465.4)" d="M7.5,0A7.5,7.5 0 1,1 0,-7.5A7.5,7.5 0 0,1 7.5,0Z" style="opacity: 1; stroke-width: 0px; fill: rgb(230, 172, 33); fill-opacity: 0.25;"/><path class="point" transform="translate(192.92,466.8)" d="M7.5,0A7.5,7.5 0 1,1 0,-7.5A7.5,7.5 0 0,1 7.5,0Z" style="opacity: 1; stroke-width: 0px; fill: rgb(230, 172, 33); fill-opacity: 0.25;"/><path class="point" transform="translate(205.14,482.25)" d="M7.5,0A7.5,7.5 0 1,1 0,-7.5A7.5,7.5 0 0,1 7.5,0Z" style="opacity: 1; stroke-width: 0px; fill: rgb(230, 172, 33); fill-opacity: 0.25;"/><path class="point" transform="translate(216.69,473.82)" d="M7.5,0A7.5,7.5 0 1,1 0,-7.5A7.5,7.5 0 0,1 7.5,0Z" style="opacity: 1; stroke-width: 0px; fill: rgb(230, 172, 33); fill-opacity: 0.25;"/><path class="point" transform="translate(224.16,466.8)" d="M7.5,0A7.5,7.5 0 1,1 0,-7.5A7.5,7.5 0 0,1 7.5,0Z" style="opacity: 1; stroke-width: 0px; fill: rgb(230, 172, 33); fill-opacity: 0.25;"/></g><g class="text"/></g><g class="trace scatter trace8a96ba" style="stroke-miterlimit: 2; opacity: 1;"><g class="fills"/><g class="errorbars"/><g class="lines"><path class="js-line" d="M0,466.78Q12.39,469.81 21.74,471.91C38.64,475.7 76.81,485.44 93.06,487.1C101.36,487.95 105.94,488.05 112.08,486.99C118.17,485.94 123.95,483.97 129.74,480.8C136.44,477.14 144.92,467.31 149.44,465.37C151.42,464.52 152.26,465.05 154.2,464.66C157.34,464.03 161.53,461.87 166.42,461.57C173.53,461.13 185.82,463.43 192.92,464.88C197.82,465.88 201.19,466.85 205.14,468.38C209.12,469.92 213.17,473.28 216.69,474.09Q219.37,474.71 224.16,474.03" style="vector-effect: non-scaling-stroke; fill: none; stroke: rgb(240, 125, 0); stroke-opacity: 1; stroke-width: 7px; opacity: 1;"/></g><g class="points"/><g class="text"/></g><g class="trace scatter tracecd8412" style="stroke-miterlimit: 2; opacity: 1;"><g class="fills"/><g class="errorbars"/><g class="lines"/><g class="points"><path class="point" transform="translate(0,463.99)" d="M7.5,0A7.5,7.5 0 1,1 0,-7.5A7.5,7.5 0 0,1 7.5,0Z" style="opacity: 1; stroke-width: 0px; fill: rgb(240, 125, 0); fill-opacity: 0.25;"/><path class="point" transform="translate(21.74,473.82)" d="M7.5,0A7.5,7.5 0 1,1 0,-7.5A7.5,7.5 0 0,1 7.5,0Z" style="opacity: 1; stroke-width: 0px; fill: rgb(240, 125, 0); fill-opacity: 0.25;"/><path class="point" transform="translate(93.06,487.87)" d="M7.5,0A7.5,7.5 0 1,1 0,-7.5A7.5,7.5 0 0,1 7.5,0Z" style="opacity: 1; stroke-width: 0px; fill: rgb(240, 125, 0); fill-opacity: 0.25;"/><path class="point" transform="translate(112.08,494.89)" d="M7.5,0A7.5,7.5 0 1,1 0,-7.5A7.5,7.5 0 0,1 7.5,0Z" style="opacity: 1; stroke-width: 0px; fill: rgb(240, 125, 0); fill-opacity: 0.25;"/><path class="point" transform="translate(129.74,494.89)" d="M7.5,0A7.5,7.5 0 1,1 0,-7.5A7.5,7.5 0 0,1 7.5,0Z" style="opacity: 1; stroke-width: 0px; fill: rgb(240, 125, 0); fill-opacity: 0.25;"/><path class="point" transform="translate(149.44,452.76)" d="M7.5,0A7.5,7.5 0 1,1 0,-7.5A7.5,7.5 0 0,1 7.5,0Z" style="opacity: 1; stroke-width: 0px; fill: rgb(240, 125, 0); fill-opacity: 0.25;"/><path class="point" transform="translate(154.2,466.8)" d="M7.5,0A7.5,7.5 0 1,1 0,-7.5A7.5,7.5 0 0,1 7.5,0Z" style="opacity: 1; stroke-width: 0px; fill: rgb(240, 125, 0); fill-opacity: 0.25;"/><path class="point" transform="translate(166.42,451.35)" d="M7.5,0A7.5,7.5 0 1,1 0,-7.5A7.5,7.5 0 0,1 7.5,0Z" style="opacity: 1; stroke-width: 0px; fill: rgb(240, 125, 0); fill-opacity: 0.25;"/><path class="point" transform="translate(192.92,459.78)" d="M7.5,0A7.5,7.5 0 1,1 0,-7.5A7.5,7.5 0 0,1 7.5,0Z" style="opacity: 1; stroke-width: 0px; fill: rgb(240, 125, 0); fill-opacity: 0.25;"/><path class="point" transform="translate(205.14,462.59)" d="M7.5,0A7.5,7.5 0 1,1 0,-7.5A7.5,7.5 0 0,1 7.5,0Z" style="opacity: 1; stroke-width: 0px; fill: rgb(240, 125, 0); fill-opacity: 0.25;"/><path class="point" transform="translate(216.69,487.87)" d="M7.5,0A7.5,7.5 0 1,1 0,-7.5A7.5,7.5 0 0,1 7.5,0Z" style="opacity: 1; stroke-width: 0px; fill: rgb(240, 125, 0); fill-opacity: 0.25;"/><path class="point" transform="translate(224.16,473.82)" d="M7.5,0A7.5,7.5 0 1,1 0,-7.5A7.5,7.5 0 0,1 7.5,0Z" style="opacity: 1; stroke-width: 0px; fill: rgb(240, 125, 0); fill-opacity: 0.25;"/></g><g class="text"/></g><g class="trace scatter trace27a88c" style="stroke-miterlimit: 2; opacity: 1;"><g class="fills"/><g class="errorbars"/><g class="lines"><path class="js-line" d="M0,472.1Q11.77,483.9 21.74,486.97C38.14,492.03 76.87,487.28 93.06,486.83C101.43,486.6 105.88,485.42 112.08,485.82C118.1,486.2 123.69,487.95 129.74,489.04C136.13,490.19 145.13,491.57 149.44,492.55C151.58,493.03 152.22,493.58 154.2,493.86C157.31,494.31 161.6,494.54 166.42,494.06C173.6,493.35 185.76,489.66 192.92,488.32C197.76,487.41 201.11,486.81 205.14,486.39C209.03,485.99 213.26,486.14 216.69,485.81Q219.46,485.54 224.16,484.75" style="vector-effect: non-scaling-stroke; fill: none; stroke: rgb(0, 51, 255); stroke-opacity: 1; stroke-width: 7px; opacity: 1;"/></g><g class="points"/><g class="text"/></g><g class="trace scatter tracee64d3a" style="stroke-miterlimit: 2; opacity: 1;"><g class="fills"/><g class="errorbars"/><g class="lines"/><g class="points"><path class="point" transform="translate(0,463.99)" d="M7.5,0A7.5,7.5 0 1,1 0,-7.5A7.5,7.5 0 0,1 7.5,0Z" style="opacity: 1; stroke-width: 0px; fill: rgb(0, 51, 255); fill-opacity: 0.25;"/><path class="point" transform="translate(21.74,494.89)" d="M7.5,0A7.5,7.5 0 1,1 0,-7.5A7.5,7.5 0 0,1 7.5,0Z" style="opacity: 1; stroke-width: 0px; fill: rgb(0, 51, 255); fill-opacity: 0.25;"/><path class="point" transform="translate(93.06,487.87)" d="M7.5,0A7.5,7.5 0 1,1 0,-7.5A7.5,7.5 0 0,1 7.5,0Z" style="opacity: 1; stroke-width: 0px; fill: rgb(0, 51, 255); fill-opacity: 0.25;"/><path class="point" transform="translate(112.08,480.85)" d="M7.5,0A7.5,7.5 0 1,1 0,-7.5A7.5,7.5 0 0,1 7.5,0Z" style="opacity: 1; stroke-width: 0px; fill: rgb(0, 51, 255); fill-opacity: 0.25;"/><path class="point" transform="translate(129.74,487.87)" d="M7.5,0A7.5,7.5 0 1,1 0,-7.5A7.5,7.5 0 0,1 7.5,0Z" style="opacity: 1; stroke-width: 0px; fill: rgb(0, 51, 255); fill-opacity: 0.25;"/><path class="point" transform="translate(149.44,487.87)" d="M7.5,0A7.5,7.5 0 1,1 0,-7.5A7.5,7.5 0 0,1 7.5,0Z" style="opacity: 1; stroke-width: 0px; fill: rgb(0, 51, 255); fill-opacity: 0.25;"/><path class="point" transform="translate(154.2,501.91)" d="M7.5,0A7.5,7.5 0 1,1 0,-7.5A7.5,7.5 0 0,1 7.5,0Z" style="opacity: 1; stroke-width: 0px; fill: rgb(0, 51, 255); fill-opacity: 0.25;"/><path class="point" transform="translate(166.42,499.1)" d="M7.5,0A7.5,7.5 0 1,1 0,-7.5A7.5,7.5 0 0,1 7.5,0Z" style="opacity: 1; stroke-width: 0px; fill: rgb(0, 51, 255); fill-opacity: 0.25;"/><path class="point" transform="translate(192.92,487.87)" d="M7.5,0A7.5,7.5 0 1,1 0,-7.5A7.5,7.5 0 0,1 7.5,0Z" style="opacity: 1; stroke-width: 0px; fill: rgb(0, 51, 255); fill-opacity: 0.25;"/><path class="point" transform="translate(205.14,483.65)" d="M7.5,0A7.5,7.5 0 1,1 0,-7.5A7.5,7.5 0 0,1 7.5,0Z" style="opacity: 1; stroke-width: 0px; fill: rgb(0, 51, 255); fill-opacity: 0.25;"/><path class="point" transform="translate(216.69,487.87)" d="M7.5,0A7.5,7.5 0 1,1 0,-7.5A7.5,7.5 0 0,1 7.5,0Z" style="opacity: 1; stroke-width: 0px; fill: rgb(0, 51, 255); fill-opacity: 0.25;"/><path class="point" transform="translate(224.16,480.85)" d="M7.5,0A7.5,7.5 0 1,1 0,-7.5A7.5,7.5 0 0,1 7.5,0Z" style="opacity: 1; stroke-width: 0px; fill: rgb(0, 51, 255); fill-opacity: 0.25;"/></g><g class="text"/></g><g class="trace scatter trace9f391f" style="stroke-miterlimit: 2; opacity: 1;"><g class="fills"/><g class="errorbars"/><g class="lines"><path class="js-line" d="M0,480.06Q12.49,479.81 21.74,481.19C38.74,483.72 76.8,497.85 93.06,498.89C101.36,499.42 105.85,497.05 112.08,496.69C118.07,496.34 123.72,497.27 129.74,496.69C136.16,496.07 145.1,493.24 149.44,492.87C151.55,492.69 152.25,493 154.2,492.98C157.33,492.94 161.57,492.49 166.42,492.42C173.56,492.32 185.78,493.04 192.92,492.9C197.77,492.8 201.17,491.69 205.14,492.19C209.09,492.68 213.45,493.9 216.69,495.84Q219.7,497.64 224.16,503.13" style="vector-effect: non-scaling-stroke; fill: none; stroke: rgb(140, 0, 0); stroke-opacity: 1; stroke-width: 7px; opacity: 1;"/></g><g class="points"/><g class="text"/></g><g class="trace scatter tracee7e04f" style="stroke-miterlimit: 2; opacity: 1;"><g class="fills"/><g class="errorbars"/><g class="lines"/><g class="points"><path class="point" transform="translate(0,479.44)" d="M7.5,0A7.5,7.5 0 1,1 0,-7.5A7.5,7.5 0 0,1 7.5,0Z" style="opacity: 1; stroke-width: 0px; fill: rgb(140, 0, 0); fill-opacity: 0.25;"/><path class="point" transform="translate(21.74,480.85)" d="M7.5,0A7.5,7.5 0 1,1 0,-7.5A7.5,7.5 0 0,1 7.5,0Z" style="opacity: 1; stroke-width: 0px; fill: rgb(140, 0, 0); fill-opacity: 0.25;"/><path class="point" transform="translate(93.06,501.91)" d="M7.5,0A7.5,7.5 0 1,1 0,-7.5A7.5,7.5 0 0,1 7.5,0Z" style="opacity: 1; stroke-width: 0px; fill: rgb(140, 0, 0); fill-opacity: 0.25;"/><path class="point" transform="translate(112.08,494.89)" d="M7.5,0A7.5,7.5 0 1,1 0,-7.5A7.5,7.5 0 0,1 7.5,0Z" style="opacity: 1; stroke-width: 0px; fill: rgb(140, 0, 0); fill-opacity: 0.25;"/><path class="point" transform="translate(129.74,501.91)" d="M7.5,0A7.5,7.5 0 1,1 0,-7.5A7.5,7.5 0 0,1 7.5,0Z" style="opacity: 1; stroke-width: 0px; fill: rgb(140, 0, 0); fill-opacity: 0.25;"/><path class="point" transform="translate(149.44,487.87)" d="M7.5,0A7.5,7.5 0 1,1 0,-7.5A7.5,7.5 0 0,1 7.5,0Z" style="opacity: 1; stroke-width: 0px; fill: rgb(140, 0, 0); fill-opacity: 0.25;"/><path class="point" transform="translate(154.2,494.89)" d="M7.5,0A7.5,7.5 0 1,1 0,-7.5A7.5,7.5 0 0,1 7.5,0Z" style="opacity: 1; stroke-width: 0px; fill: rgb(140, 0, 0); fill-opacity: 0.25;"/><path class="point" transform="translate(166.42,490.68)" d="M7.5,0A7.5,7.5 0 1,1 0,-7.5A7.5,7.5 0 0,1 7.5,0Z" style="opacity: 1; stroke-width: 0px; fill: rgb(140, 0, 0); fill-opacity: 0.25;"/><path class="point" transform="translate(192.92,494.89)" d="M7.5,0A7.5,7.5 0 1,1 0,-7.5A7.5,7.5 0 0,1 7.5,0Z" style="opacity: 1; stroke-width: 0px; fill: rgb(140, 0, 0); fill-opacity: 0.25;"/><path class="point" transform="translate(205.14,482.25)" d="M7.5,0A7.5,7.5 0 1,1 0,-7.5A7.5,7.5 0 0,1 7.5,0Z" style="opacity: 1; stroke-width: 0px; fill: rgb(140, 0, 0); fill-opacity: 0.25;"/><path class="point" transform="translate(216.69,480.85)" d="M7.5,0A7.5,7.5 0 1,1 0,-7.5A7.5,7.5 0 0,1 7.5,0Z" style="opacity: 1; stroke-width: 0px; fill: rgb(140, 0, 0); fill-opacity: 0.25;"/></g><g class="text"/></g></g></g><g class="overplot"/><path class="xlines-above crisp" d="M0,0" style="fill: none;"/><path class="ylines-above crisp" d="M0,0" style="fill: none;"/><g class="overlines-above"/><g class="xaxislayer-above"><g class="xtick"><text text-anchor="middle" x="0" y="563" transform="translate(107.06,0)" style="font-family: 'Open Sans', verdana, arial, sans-serif; font-size: 12px; fill: rgb(42, 63, 95); fill-opacity: 1; white-space: pre; opacity: 1;">1.1.22</text></g><g class="xtick"><text text-anchor="middle" x="0" y="563" style="font-family: 'Open Sans', verdana, arial, sans-serif; font-size: 12px; fill: rgb(42, 63, 95); fill-opacity: 1; white-space: pre; opacity: 1;" transform="translate(230.01,0)">1.7.22</text></g><g class="xtick"><text text-anchor="middle" x="0" y="563" style="font-family: 'Open Sans', verdana, arial, sans-serif; font-size: 12px; fill: rgb(42, 63, 95); fill-opacity: 1; white-space: pre; opacity: 1;" transform="translate(355,0)">1.1.23</text></g><g class="xtick"><text text-anchor="middle" x="0" y="563" style="font-family: 'Open Sans', verdana, arial, sans-serif; font-size: 12px; fill: rgb(42, 63, 95); fill-opacity: 1; white-space: pre; opacity: 1;" transform="translate(477.95,0)">1.7.23</text></g><g class="xtick"><text text-anchor="middle" x="0" y="563" style="font-family: 'Open Sans', verdana, arial, sans-serif; font-size: 12px; fill: rgb(42, 63, 95); fill-opacity: 1; white-space: pre; opacity: 1;" transform="translate(602.94,0)">1.1.24</text></g><g class="xtick"><text text-anchor="middle" x="0" y="563" style="font-family: 'Open Sans', verdana, arial, sans-serif; font-size: 12px; fill: rgb(42, 63, 95); fill-opacity: 1; white-space: pre; opacity: 1;" transform="translate(726.57,0)">1.7.24</text></g><g class="xtick"><text text-anchor="middle" x="0" y="563" style="font-family: 'Open Sans', verdana, arial, sans-serif; font-size: 12px; fill: rgb(42, 63, 95); fill-opacity: 1; white-space: pre; opacity: 1;" transform="translate(851.56,0)">1.1.25</text></g><g class="xtick"><text text-anchor="middle" x="0" y="563" style="font-family: 'Open Sans', verdana, arial, sans-serif; font-size: 12px; fill: rgb(42, 63, 95); fill-opacity: 1; white-space: pre; opacity: 1;" transform="translate(974.51,0)">1.7.25</text></g></g><g class="yaxislayer-above"><g class="ytick"><text text-anchor="end" x="49" y="4.199999999999999" transform="translate(0,550)" style="font-family: 'Open Sans', verdana, arial, sans-serif; font-size: 12px; fill: rgb(42, 63, 95); fill-opacity: 1; white-space: pre; opacity: 1;">0%</text></g><g class="ytick"><text text-anchor="end" x="49" y="4.199999999999999" style="font-family: 'Open Sans', verdana, arial, sans-serif; font-size: 12px; fill: rgb(42, 63, 95); fill-opacity: 1; white-space: pre; opacity: 1;" transform="translate(0,479.78)">5%</text></g><g class="ytick"><text text-anchor="end" x="49" y="4.199999999999999" style="font-family: 'Open Sans', verdana, arial, sans-serif; font-size: 12px; fill: rgb(42, 63, 95); fill-opacity: 1; white-space: pre; opacity: 1;" transform="translate(0,409.56)">10%</text></g><g class="ytick"><text text-anchor="end" x="49" y="4.199999999999999" style="font-family: 'Open Sans', verdana, arial, sans-serif; font-size: 12px; fill: rgb(42, 63, 95); fill-opacity: 1; white-space: pre; opacity: 1;" transform="translate(0,339.34)">15%</text></g><g class="ytick"><text text-anchor="end" x="49" y="4.199999999999999" style="font-family: 'Open Sans', verdana, arial, sans-serif; font-size: 12px; fill: rgb(42, 63, 95); fill-opacity: 1; white-space: pre; opacity: 1;" transform="translate(0,269.12)">20%</text></g><g class="ytick"><text text-anchor="end" x="49" y="4.199999999999999" style="font-family: 'Open Sans', verdana, arial, sans-serif; font-size: 12px; fill: rgb(42, 63, 95); fill-opacity: 1; white-space: pre; opacity: 1;" transform="translate(0,198.9)">25%</text></g><g class="ytick"><text text-anchor="end" x="49" y="4.199999999999999" style="font-family: 'Open Sans', verdana, arial, sans-serif; font-size: 12px; fill: rgb(42, 63, 95); fill-opacity: 1; white-space: pre; opacity: 1;" transform="translate(0,128.68)">30%</text></g><g class="ytick"><text text-anchor="end" x="49" y="4.199999999999999" style="font-family: 'Open Sans', verdana, arial, sans-serif; font-size: 12px; fill: rgb(42, 63, 95); fill-opacity: 1; white-space: pre; opacity: 1;" transform="translate(0,58.46)">35%</text></g></g><g class="overaxes-above"/></g></g><g class="polarlayer"/><g class="smithlayer"/><g class="ternarylayer"/><g class="geolayer"/><g class="funnelarealayer"/><g class="pielayer"/><g class="iciclelayer"/><g class="treemaplayer"/><g class="sunburstlayer"/><g class="glimages"/><defs id="topdefs-c232bf"><g class="clips"/><clipPath id="legendc232bf"><rect width="131" height="200" x="0" y="0"/></clipPath></defs><g class="layer-above"><g class="imagelayer"/><g class="shapelayer"/></g><g class="infolayer"><g class="legend" pointer-events="all" transform="translate(1056.74,20)"><rect class="bg" shape-rendering="crispEdges" style="stroke: rgb(68, 68, 68); stroke-opacity: 1; fill: rgb(255, 255, 255); fill-opacity: 1; stroke-width: 0px;" width="131" height="200" x="0" y="0"/><g class="scrollbox" transform="" clip-path="url(#legendc232bf)"><g class="groups"><g class="traces" transform="translate(0,14.5)" style="opacity: 1;"><text class="legendtext" text-anchor="start" x="40" y="4.680000000000001" style="font-family: 'Open Sans', verdana, arial, sans-serif; font-size: 12px; fill: rgb(42, 63, 95); fill-opacity: 1; white-space: pre;">ANO: 30%</text><g class="layers" style="opacity: 1;"><g class="legendfill"/><g class="legendlines"><path class="js-line" d="M5,0h30" style="fill: none; stroke: rgb(38, 16, 96); stroke-opacity: 1; stroke-width: 7px;"/></g><g class="legendsymbols"><g class="legendpoints"/></g></g><rect class="legendtoggle" x="0" y="-9.5" width="125.359375" height="19" style="fill: rgb(0, 0, 0); fill-opacity: 0;"/></g><g class="traces" transform="translate(0,33.5)" style="opacity: 1;"><text class="legendtext" text-anchor="start" x="40" y="4.680000000000001" style="font-family: 'Open Sans', verdana, arial, sans-serif; font-size: 12px; fill: rgb(42, 63, 95); fill-opacity: 1; white-space: pre;">ODS: 16%</text><g class="layers" style="opacity: 1;"><g class="legendfill"/><g class="legendlines"><path class="js-line" d="M5,0h30" style="fill: none; stroke: rgb(0, 68, 148); stroke-opacity: 1; stroke-width: 7px;"/></g><g class="legendsymbols"><g class="legendpoints"/></g></g><rect class="legendtoggle" x="0" y="-9.5" width="125.359375" height="19" style="fill: rgb(0, 0, 0); fill-opacity: 0;"/></g><g class="traces" transform="translate(0,52.5)" style="opacity: 1;"><text class="legendtext" text-anchor="start" x="40" y="4.680000000000001" style="font-family: 'Open Sans', verdana, arial, sans-serif; font-size: 12px; fill: rgb(42, 63, 95); fill-opacity: 1; white-space: pre;">SPD: 13%</text><g class="layers" style="opacity: 1;"><g class="legendfill"/><g class="legendlines"><path class="js-line" d="M5,0h30" style="fill: none; stroke: rgb(234, 35, 41); stroke-opacity: 1; stroke-width: 7px;"/></g><g class="legendsymbols"><g class="legendpoints"/></g></g><rect class="legendtoggle" x="0" y="-9.5" width="125.359375" height="19" style="fill: rgb(0, 0, 0); fill-opacity: 0;"/></g><g class="traces" transform="translate(0,71.5)" style="opacity: 1;"><text class="legendtext" text-anchor="start" x="40" y="4.680000000000001" style="font-family: 'Open Sans', verdana, arial, sans-serif; font-size: 12px; fill: rgb(42, 63, 95); fill-opacity: 1; white-space: pre;">Pirti: 9%</text><g class="layers" style="opacity: 1;"><g class="legendfill"/><g class="legendlines"><path class="js-line" d="M5,0h30" style="fill: none; stroke: rgb(0, 0, 0); stroke-opacity: 1; stroke-width: 7px;"/></g><g class="legendsymbols"><g class="legendpoints"/></g></g><rect class="legendtoggle" x="0" y="-9.5" width="125.359375" height="19" style="fill: rgb(0, 0, 0); fill-opacity: 0;"/></g><g class="traces" transform="translate(0,90.5)" style="opacity: 1;"><text class="legendtext" text-anchor="start" x="40" y="4.680000000000001" style="font-family: 'Open Sans', verdana, arial, sans-serif; font-size: 12px; fill: rgb(42, 63, 95); fill-opacity: 1; white-space: pre;">STAN: 6%</text><g class="layers" style="opacity: 1;"><g class="legendfill"/><g class="legendlines"><path class="js-line" d="M5,0h30" style="fill: none; stroke: rgb(93, 140, 0); stroke-opacity: 1; stroke-width: 7px;"/></g><g class="legendsymbols"><g class="legendpoints"/></g></g><rect class="legendtoggle" x="0" y="-9.5" width="125.359375" height="19" style="fill: rgb(0, 0, 0); fill-opacity: 0;"/></g><g class="traces" transform="translate(0,109.5)" style="opacity: 1;"><text class="legendtext" text-anchor="start" x="40" y="4.680000000000001" style="font-family: 'Open Sans', verdana, arial, sans-serif; font-size: 12px; fill: rgb(42, 63, 95); fill-opacity: 1; white-space: pre;">TOP 09: 5%</text><g class="layers" style="opacity: 1;"><g class="legendfill"/><g class="legendlines"><path class="js-line" d="M5,0h30" style="fill: none; stroke: rgb(114, 55, 105); stroke-opacity: 1; stroke-width: 7px;"/></g><g class="legendsymbols"><g class="legendpoints"/></g></g><rect class="legendtoggle" x="0" y="-9.5" width="125.359375" height="19" style="fill: rgb(0, 0, 0); fill-opacity: 0;"/></g><g class="traces" transform="translate(0,128.5)" style="opacity: 1;"><text class="legendtext" text-anchor="start" x="40" y="4.680000000000001" style="font-family: 'Open Sans', verdana, arial, sans-serif; font-size: 12px; fill: rgb(42, 63, 95); fill-opacity: 1; white-space: pre;">KDU-SL: 4%</text><g class="layers" style="opacity: 1;"><g class="legendfill"/><g class="legendlines"><path class="js-line" d="M5,0h30" style="fill: none; stroke: rgb(230, 172, 33); stroke-opacity: 1; stroke-width: 7px;"/></g><g class="legendsymbols"><g class="legendpoints"/></g></g><rect class="legendtoggle" x="0" y="-9.5" width="125.359375" height="19" style="fill: rgb(0, 0, 0); fill-opacity: 0;"/></g><g class="traces" transform="translate(0,147.5)" style="opacity: 1;"><text class="legendtext" text-anchor="start" x="40" y="4.680000000000001" style="font-family: 'Open Sans', verdana, arial, sans-serif; font-size: 12px; fill: rgb(42, 63, 95); fill-opacity: 1; white-space: pre;">SSD: 4%</text><g class="layers" style="opacity: 1;"><g class="legendfill"/><g class="legendlines"><path class="js-line" d="M5,0h30" style="fill: none; stroke: rgb(240, 125, 0); stroke-opacity: 1; stroke-width: 7px;"/></g><g class="legendsymbols"><g class="legendpoints"/></g></g><rect class="legendtoggle" x="0" y="-9.5" width="125.359375" height="19" style="fill: rgb(0, 0, 0); fill-opacity: 0;"/></g><g class="traces" transform="translate(0,166.5)" style="opacity: 1;"><text class="legendtext" text-anchor="start" x="40" y="4.680000000000001" style="font-family: 'Open Sans', verdana, arial, sans-serif; font-size: 12px; fill: rgb(42, 63, 95); fill-opacity: 1; white-space: pre;">Psaha: 3%</text><g class="layers" style="opacity: 1;"><g class="legendfill"/><g class="legendlines"><path class="js-line" d="M5,0h30" style="fill: none; stroke: rgb(0, 51, 255); stroke-opacity: 1; stroke-width: 7px;"/></g><g class="legendsymbols"><g class="legendpoints"/></g></g><rect class="legendtoggle" x="0" y="-9.5" width="125.359375" height="19" style="fill: rgb(0, 0, 0); fill-opacity: 0;"/></g><g class="traces" transform="translate(0,185.5)" style="opacity: 1;"><text class="legendtext" text-anchor="start" x="40" y="4.680000000000001" style="font-family: 'Open Sans', verdana, arial, sans-serif; font-size: 12px; fill: rgb(42, 63, 95); fill-opacity: 1; white-space: pre;">KSM: 2%</text><g class="layers" style="opacity: 1;"><g class="legendfill"/><g class="legendlines"><path class="js-line" d="M5,0h30" style="fill: none; stroke: rgb(140, 0, 0); stroke-opacity: 1; stroke-width: 7px;"/></g><g class="legendsymbols"><g class="legendpoints"/></g></g><rect class="legendtoggle" x="0" y="-9.5" width="125.359375" height="19" style="fill: rgb(0, 0, 0); fill-opacity: 0;"/></g></g></g><rect class="scrollbar" rx="20" ry="3" width="0" height="0" style="fill: rgb(128, 139, 164); fill-opacity: 1;" x="0" y="0"/></g><g class="g-gtitle"/><g class="g-xtitle"/><g class="g-ytitle"/></g></svg>