<svg class="main-svg" xmlns="http://www.w3.org/2000/svg" xmlns:xlink="http://www.w3.org/1999/xlink" width="300" height="135" style="" viewBox="0 0 300 135"><rect x="0" y="0" width="300" height="135" style="fill: rgb(255, 255, 255); fill-opacity: 1;"/><defs id="defs-6d3834"><g class="clips"><clipPath id="clip6d3834xyplot" class="plotclip"><rect width="280" height="75"/></clipPath><clipPath class="axesclip" id="clip6d3834x"><rect x="10" y="0" width="280" height="135"/></clipPath><clipPath class="axesclip" id="clip6d3834y"><rect x="0" y="50" width="300" height="75"/></clipPath><clipPath class="axesclip" id="clip6d3834xy"><rect x="10" y="50" width="280" height="75"/></clipPath></g><g class="gradients"/><g class="patterns"/></defs><g class="bglayer"/><g class="layer-below"><g class="imagelayer"/><g class="shapelayer"/></g><g class="cartesianlayer"><g class="subplot xy"><g class="layer-subplot"><g class="shapelayer"/><g class="imagelayer"/></g><g class="minor-gridlayer"><g class="x"/><g class="y"/></g><g class="gridlayer"><g class="x"><path class="xgrid crisp" transform="translate(31.32,0)" d="M0,50v75" style="stroke: rgb(235, 240, 248); stroke-opacity: 1; stroke-width: 1px;"/><path class="xgrid crisp" transform="translate(123.98,0)" d="M0,50v75" style="stroke: rgb(235, 240, 248); stroke-opacity: 1; stroke-width: 1px;"/><path class="xgrid crisp" transform="translate(216.64,0)" d="M0,50v75" style="stroke: rgb(235, 240, 248); stroke-opacity: 1; stroke-width: 1px;"/></g><g class="y"><path class="ygrid crisp" transform="translate(0,104.1)" d="M10,0h280" style="stroke: rgb(235, 240, 248); stroke-opacity: 1; stroke-width: 1px;"/><path class="ygrid crisp" transform="translate(0,83.21000000000001)" d="M10,0h280" style="stroke: rgb(235, 240, 248); stroke-opacity: 1; stroke-width: 1px;"/><path class="ygrid crisp" transform="translate(0,62.31)" d="M10,0h280" style="stroke: rgb(235, 240, 248); stroke-opacity: 1; stroke-width: 1px;"/></g></g><g class="zerolinelayer"><path class="yzl zl crisp" transform="translate(0,125)" d="M10,0h280" style="stroke: rgb(235, 240, 248); stroke-opacity: 1; stroke-width: 2px;"/></g><path class="xlines-below"/><path class="ylines-below"/><g class="overlines-below"/><g class="xaxislayer-below"/><g class="yaxislayer-below"/><g class="overaxes-below"/><g class="plot" transform="translate(10,50)" clip-path="url(#clip6d3834xyplot)"><g class="scatterlayer mlayer"><g class="trace scatter trace9530b5" style="stroke-miterlimit: 2; opacity: 1;"><g class="fills"/><g class="errorbars"/><g class="lines"><path class="js-line" d="M0,18.37Q4.63,18.43 8.12,18.59C14.44,18.88 28.77,21.04 34.78,20.3C37.96,19.91 39.54,18.58 41.89,18.02C44.11,17.49 46.23,17.33 48.49,16.96C50.88,16.56 54.23,15.92 55.85,15.7C56.64,15.59 56.9,15.63 57.62,15.53C58.79,15.36 60.38,15.01 62.19,14.65C64.86,14.13 69.41,13.07 72.09,12.68C73.9,12.42 75.4,12.29 76.66,12.27C77.55,12.26 78.21,12.41 78.95,12.42C79.65,12.43 80.25,12.33 80.98,12.32C81.84,12.3 82.84,12.34 83.77,12.35C84.7,12.36 85.77,12.34 86.56,12.38C87.15,12.41 87.41,12.46 88.09,12.5C89.48,12.59 92.81,12.46 94.43,12.79C95.49,13 95.84,13.63 96.97,13.72C99.1,13.89 102.6,12.5 106.36,11.93C111.92,11.09 125.81,9.91 127.18,9.62C127.33,9.59 127.29,9.58 127.43,9.54C128.1,9.37 131.72,8.38 133.27,8.39C134.29,8.4 134.82,8.88 135.81,8.94C137.16,9.02 139.28,8.68 140.63,8.49C141.62,8.35 142.18,8.29 143.17,8C144.64,7.57 147.25,6.21 148.5,5.86C149.15,5.68 149.74,5.65 150.03,5.6C150.15,5.58 150.14,5.58 150.28,5.56C151.03,5.44 155,4.41 157.39,4.35C159.82,4.29 161.91,5.01 164.75,5.25C168.61,5.58 176.19,6.17 178.46,5.93C179.23,5.85 179.61,5.6 179.98,5.52C180.19,5.47 180.22,5.48 180.49,5.44C181.47,5.3 185.73,4.62 187.34,4.55C188.21,4.51 188.6,4.65 189.37,4.63C190.39,4.61 191.79,4.45 192.93,4.32C193.98,4.2 195.38,3.95 195.97,3.89C196.21,3.86 196.31,3.86 196.48,3.85C196.65,3.84 196.73,3.84 196.99,3.84C197.8,3.82 200.1,3.67 202.07,3.75C204.83,3.87 211.06,4.7 211.97,4.78C212.11,4.79 212.14,4.8 212.22,4.8C212.31,4.8 212.34,4.77 212.48,4.75C213.17,4.67 217.4,4.75 218.57,4.54C219.06,4.45 219.09,4.23 219.58,4.2C220.84,4.12 225.71,5.45 226.44,5.54C226.58,5.56 226.57,5.55 226.69,5.55C227.01,5.56 227.73,5.48 228.47,5.54C229.69,5.63 231.75,6.08 233.29,6.31C234.7,6.52 235.97,6.72 237.35,6.85C238.77,6.98 240.11,6.96 241.67,7.09C243.53,7.24 246.58,7.6 247.76,7.76C248.24,7.82 248.78,7.92 248.78,7.92C248.78,7.92 248.78,7.92 248.78,7.92C248.78,7.92 253.16,9.25 254.61,9.31C255.46,9.34 255.82,9.04 256.65,8.99C257.91,8.91 259.7,9.34 261.47,9.1C263.74,8.79 267.85,7.08 269.08,6.82C269.46,6.74 269.53,6.77 269.85,6.72C270.41,6.63 271.22,6.45 272.13,6.26C273.49,5.98 276.59,5.21 277.21,5.16C277.35,5.15 277.33,5.17 277.46,5.17Q277.86,5.18 280,5.15" style="vector-effect: none; fill: none; stroke: rgb(38, 16, 96); stroke-opacity: 1; stroke-width: 5px; opacity: 1;"/></g><g class="points"/><g class="text"/></g><g class="trace scatter trace5dbf63" style="stroke-miterlimit: 2; opacity: 1;"><g class="fills"/><g class="errorbars"/><g class="lines"><path class="js-line" d="M0,46.58Q4.66,44.69 8.12,43.12C14.46,40.24 28.63,32.28 34.78,30.25C37.82,29.25 39.55,29.14 41.89,28.9C44.12,28.67 46.35,28.07 48.49,28.77C51.03,29.6 54.16,33.81 55.85,34.4C56.59,34.66 56.93,34.23 57.62,34.44C58.83,34.8 60.31,36.42 62.19,37.29C64.8,38.49 69.39,39.95 72.09,40.42C73.88,40.73 75.4,40.63 76.66,40.6C77.55,40.58 78.21,40.49 78.95,40.4C79.65,40.32 80.25,40.09 80.98,40.11C81.84,40.13 82.84,40.59 83.77,40.64C84.7,40.69 85.77,40.52 86.56,40.43C87.15,40.36 87.4,40.25 88.09,40.2C89.48,40.11 92.83,40.68 94.43,40.3C95.51,40.04 95.83,39.06 96.97,38.96C99.09,38.78 102.57,41.77 106.36,42.06C111.9,42.48 125.82,38.26 127.18,38.52C127.34,38.55 127.28,38.62 127.43,38.67C128.09,38.9 131.72,39.48 133.27,39.51C134.29,39.53 134.84,39.16 135.81,39.26C137.17,39.4 139.27,40.52 140.63,40.8C141.6,41 142.17,40.91 143.17,41.06C144.63,41.28 147.26,41.97 148.5,42.15C149.16,42.25 149.74,42.28 150.03,42.29C150.15,42.29 150.14,42.27 150.28,42.28C151.03,42.34 154.99,43.34 157.39,43.71C159.81,44.08 161.93,44.06 164.75,44.51C168.63,45.13 176.17,47.09 178.46,47.41C179.21,47.51 179.61,47.49 179.98,47.51C180.2,47.52 180.22,47.54 180.49,47.53C181.47,47.49 185.73,46.92 187.34,46.75C188.22,46.66 188.6,46.55 189.37,46.56C190.39,46.57 191.79,46.96 192.93,46.99C193.98,47.01 195.38,46.74 195.97,46.76C196.21,46.77 196.31,46.82 196.48,46.83C196.65,46.84 196.73,46.83 196.99,46.84C197.8,46.86 200.1,46.96 202.07,46.94C204.82,46.92 211.07,46.63 211.97,46.58C212.11,46.57 212.14,46.57 212.22,46.56C212.31,46.55 212.33,46.52 212.48,46.5C213.17,46.4 217.4,46.36 218.57,46.22C219.05,46.16 219.09,46.11 219.58,46.03C220.85,45.83 225.71,45.26 226.44,45.17C226.58,45.15 226.57,45.15 226.69,45.14C227.01,45.1 227.73,44.95 228.47,44.93C229.68,44.9 231.75,45.28 233.29,45.27C234.7,45.26 235.98,44.94 237.35,44.92C238.77,44.9 240.11,45.08 241.67,45.19C243.53,45.33 246.58,45.56 247.76,45.7C248.24,45.76 248.78,45.85 248.78,45.85C248.78,45.85 248.78,45.85 248.78,45.85C248.78,45.85 253.16,46.87 254.61,46.96C255.46,47.01 255.83,46.86 256.65,46.83C257.92,46.79 259.68,46.73 261.47,46.84C263.72,46.98 267.86,47.51 269.08,47.77C269.48,47.86 269.52,47.94 269.85,48.01C270.4,48.13 271.22,48.25 272.13,48.28C273.49,48.33 276.6,48.02 277.21,48.06C277.35,48.07 277.33,48.08 277.46,48.1Q277.86,48.15 280,48.36" style="vector-effect: none; fill: none; stroke: rgb(0, 68, 148); stroke-opacity: 1; stroke-width: 5px; opacity: 1;"/></g><g class="points"/><g class="text"/></g><g class="trace scatter tracee8afdf" style="stroke-miterlimit: 2; opacity: 1;"><g class="fills"/><g class="errorbars"/><g class="lines"><path class="js-line" d="M0,62.25Q3.93,53.5 8.12,51.6C14.04,48.92 28.75,52.63 34.78,53.46C37.92,53.89 39.57,54.41 41.89,54.92C44.13,55.41 46.26,55.76 48.49,56.46C50.9,57.22 54.24,58.7 55.85,59.38C56.65,59.72 56.89,59.87 57.62,60.17C58.78,60.65 60.34,61.44 62.19,61.9C64.83,62.56 69.42,62.95 72.09,63.2C73.9,63.37 75.4,63.39 76.66,63.45C77.55,63.49 78.21,63.57 78.95,63.53C79.65,63.49 80.25,63.31 80.98,63.24C81.83,63.16 82.84,63.21 83.77,63.14C84.7,63.07 85.77,62.92 86.56,62.81C87.15,62.73 87.4,62.6 88.09,62.55C89.48,62.45 92.79,62.7 94.43,62.69C95.47,62.68 95.86,62.65 96.97,62.59C99.11,62.48 102.61,62.21 106.36,61.96C111.94,61.59 125.81,60.64 127.18,60.59C127.33,60.59 127.29,60.59 127.43,60.59C128.1,60.6 131.73,60.56 133.27,60.71C134.3,60.81 134.82,61.07 135.81,61.17C137.16,61.3 139.28,61.14 140.63,61.24C141.61,61.31 142.17,61.47 143.17,61.58C144.62,61.73 147.26,61.92 148.5,61.99C149.16,62.03 149.74,62.04 150.03,62.05C150.15,62.05 150.14,62.05 150.28,62.05C151.03,62.07 155,62.38 157.39,62.36C159.82,62.34 161.92,62.01 164.75,61.9C168.61,61.75 176.18,61.88 178.46,61.7C179.22,61.64 179.61,61.53 179.98,61.48C180.2,61.45 180.22,61.44 180.49,61.42C181.47,61.36 185.73,61.48 187.34,61.44C188.22,61.42 188.6,61.35 189.37,61.33C190.39,61.3 191.79,61.34 192.93,61.33C193.98,61.32 195.38,61.31 195.97,61.29C196.21,61.28 196.31,61.27 196.48,61.26C196.65,61.25 196.73,61.25 196.99,61.24C197.8,61.21 200.1,61.17 202.07,61.08C204.83,60.95 211.06,60.49 211.97,60.44C212.11,60.43 212.14,60.43 212.22,60.43C212.31,60.43 212.34,60.43 212.48,60.42C213.18,60.37 217.4,59.79 218.57,59.79C219.05,59.79 219.09,59.85 219.58,59.89C220.85,60 225.71,60.41 226.44,60.42C226.58,60.42 226.57,60.42 226.69,60.41C227.01,60.39 227.73,60.36 228.47,60.26C229.69,60.1 231.75,59.64 233.29,59.4C234.7,59.18 235.98,59.08 237.35,58.88C238.77,58.67 240.1,58.37 241.67,58.17C243.52,57.93 246.58,57.8 247.76,57.61C248.25,57.53 248.78,57.37 248.78,57.37C248.78,57.37 248.78,57.37 248.78,57.37C248.78,57.37 253.16,56.41 254.61,56.21C255.46,56.09 255.83,56.13 256.65,56.06C257.92,55.95 259.68,55.72 261.47,55.58C263.72,55.4 267.86,55.38 269.08,55.12C269.48,55.03 269.53,54.96 269.85,54.83C270.41,54.6 271.21,54.2 272.13,53.83C273.48,53.28 276.59,52.06 277.21,51.91C277.34,51.88 277.33,51.89 277.46,51.88Q277.86,51.86 280,51.9" style="vector-effect: none; fill: none; stroke: rgb(206, 15, 104); stroke-opacity: 1; stroke-width: 5px; opacity: 1;"/></g><g class="points"/><g class="text"/></g><g class="trace scatter trace87e020" style="stroke-miterlimit: 2; opacity: 1;"><g class="fills"/><g class="errorbars"/><g class="lines"><path class="js-line" d="M0,55.15Q4.59,56.91 8.12,57.55C14.4,58.68 28.72,59.13 34.78,59.4C37.9,59.54 39.56,59.47 41.89,59.54C44.13,59.61 46.28,60.21 48.49,59.8C50.93,59.35 54.22,57.19 55.85,56.63C56.63,56.36 56.9,56.4 57.62,56.17C58.8,55.79 60.34,54.8 62.19,54.42C64.82,53.88 69.42,54.03 72.09,54.03C73.9,54.03 75.4,54.22 76.66,54.22C77.55,54.22 78.21,54.08 78.95,54.11C79.65,54.14 80.25,54.34 80.98,54.38C81.83,54.42 82.84,54.36 83.77,54.3C84.7,54.24 85.77,54.06 86.56,54.03C87.15,54.01 87.41,54.11 88.09,54.07C89.48,53.99 92.79,53.32 94.43,53.13C95.46,53.01 95.86,52.89 96.97,52.91C99.11,52.95 102.61,53.89 106.36,54.1C111.93,54.41 125.81,53.95 127.18,53.8C127.33,53.78 127.29,53.76 127.43,53.75C128.1,53.69 131.73,54.06 133.27,53.93C134.3,53.84 134.82,53.56 135.81,53.41C137.16,53.21 139.28,53.06 140.63,52.93C141.61,52.83 142.17,52.76 143.17,52.69C144.62,52.58 147.26,52.5 148.5,52.41C149.16,52.36 149.74,52.3 150.03,52.28C150.15,52.27 150.14,52.27 150.28,52.26C151.03,52.22 155,52.15 157.39,52.07C159.82,51.99 161.93,51.62 164.75,51.78C168.62,52 176.17,53.75 178.46,53.92C179.22,53.98 179.61,53.88 179.98,53.91C180.2,53.93 180.22,53.98 180.49,54C181.47,54.07 185.73,53.97 187.34,53.83C188.22,53.75 188.6,53.63 189.37,53.53C190.39,53.4 191.79,53.26 192.93,53.13C193.98,53.01 195.38,52.82 195.97,52.76C196.21,52.74 196.31,52.73 196.48,52.72C196.65,52.71 196.73,52.72 196.99,52.72C197.8,52.71 200.1,52.71 202.07,52.65C204.83,52.57 211.06,52.21 211.97,52.19C212.11,52.19 212.14,52.18 212.22,52.19C212.31,52.2 212.34,52.23 212.48,52.25C213.17,52.36 217.4,52.71 218.57,52.86C219.05,52.92 219.09,52.97 219.58,53.01C220.85,53.12 225.71,53.18 226.44,53.2C226.58,53.2 226.57,53.2 226.69,53.21C227.01,53.22 227.73,53.25 228.47,53.29C229.68,53.36 231.75,53.52 233.29,53.6C234.7,53.67 235.98,53.63 237.35,53.77C238.77,53.91 240.11,54.2 241.67,54.45C243.53,54.75 246.58,55.32 247.76,55.44C248.24,55.49 248.78,55.49 248.78,55.49C248.78,55.49 248.78,55.49 248.78,55.49C248.78,55.49 253.17,56.22 254.61,56.5C255.47,56.67 255.82,56.79 256.65,56.95C257.91,57.2 259.68,57.48 261.47,57.76C263.72,58.11 267.86,58.69 269.08,58.85C269.47,58.9 269.53,58.9 269.85,58.94C270.41,59.01 271.23,59.05 272.13,59.24C273.5,59.52 276.59,60.59 277.21,60.69C277.34,60.71 277.33,60.69 277.46,60.7Q277.86,60.72 280,60.8" style="vector-effect: none; fill: none; stroke: rgb(0, 0, 0); stroke-opacity: 1; stroke-width: 5px; opacity: 1;"/></g><g class="points"/><g class="text"/></g><g class="trace scatter trace08a1fc" style="stroke-miterlimit: 2; opacity: 1;"><g class="fills"/><g class="errorbars"/><g class="lines"><path class="js-line" d="M0,54.94Q4.64,55.16 8.12,54.98C14.45,54.65 28.73,52 34.78,52.07C37.91,52.11 39.57,53.04 41.89,53.01C44.13,52.98 46.23,52.28 48.49,51.96C50.87,51.63 54.23,51.23 55.85,51.07C56.64,50.99 56.9,51.03 57.62,50.94C58.79,50.79 60.37,50.35 62.19,50.11C64.85,49.75 69.42,49.41 72.09,49.26C73.9,49.16 75.4,49.21 76.66,49.15C77.55,49.11 78.21,48.96 78.95,48.98C79.65,49 80.25,49.19 80.98,49.22C81.84,49.25 82.84,49.03 83.77,49.09C84.7,49.15 85.77,49.49 86.56,49.61C87.14,49.7 87.41,49.72 88.09,49.78C89.48,49.91 92.79,50.07 94.43,50.22C95.47,50.31 95.85,50.44 96.97,50.5C99.11,50.61 102.65,49.93 106.36,50.4C111.98,51.11 125.81,55.83 127.18,55.98C127.33,56 127.29,55.97 127.43,55.97C128.1,55.96 131.73,55.96 133.27,56.1C134.29,56.19 134.83,56.41 135.81,56.5C137.16,56.62 139.28,56.62 140.63,56.63C141.61,56.64 142.17,56.59 143.17,56.59C144.62,56.59 147.26,56.67 148.5,56.66C149.16,56.66 149.74,56.62 150.03,56.62C150.15,56.62 150.14,56.63 150.28,56.63C151.03,56.61 155,56 157.39,55.94C159.82,55.88 161.93,56.46 164.75,56.31C168.62,56.1 176.17,54.24 178.46,54.13C179.22,54.09 179.61,54.21 179.98,54.22C180.2,54.23 180.22,54.23 180.49,54.22C181.47,54.19 185.73,53.86 187.34,53.8C188.22,53.77 188.6,53.77 189.37,53.78C190.39,53.79 191.8,53.75 192.93,53.89C193.99,54.02 195.38,54.46 195.97,54.55C196.21,54.59 196.31,54.58 196.48,54.59C196.65,54.61 196.73,54.62 196.99,54.64C197.8,54.7 200.1,54.89 202.07,54.94C204.82,55.01 211.07,54.86 211.97,54.87C212.11,54.87 212.14,54.87 212.22,54.88C212.31,54.89 212.34,54.89 212.48,54.91C213.18,55 217.4,55.57 218.57,55.74C219.05,55.81 219.09,55.82 219.58,55.9C220.85,56.1 225.71,56.96 226.44,57C226.58,57.01 226.57,56.99 226.69,56.99C227.01,56.99 227.73,57.05 228.47,57.05C229.68,57.05 231.76,56.8 233.29,56.88C234.7,56.95 235.98,57.2 237.35,57.45C238.77,57.71 240.1,58.14 241.67,58.43C243.52,58.78 246.58,59.19 247.76,59.34C248.24,59.4 248.78,59.44 248.78,59.44C248.78,59.44 248.78,59.44 248.78,59.44C248.78,59.44 253.16,59.74 254.61,59.79C255.46,59.82 255.83,59.75 256.65,59.8C257.92,59.87 259.68,60.26 261.47,60.34C263.72,60.44 267.86,60.15 269.08,60.14C269.47,60.14 269.53,60.13 269.85,60.15C270.41,60.18 271.22,60.27 272.13,60.36C273.49,60.49 276.6,60.81 277.21,60.87C277.35,60.88 277.33,60.87 277.46,60.89Q277.87,60.95 280,61.4" style="vector-effect: none; fill: none; stroke: rgb(234, 35, 41); stroke-opacity: 1; stroke-width: 5px; opacity: 1;"/></g><g class="points"/><g class="text"/></g></g></g><g class="overplot"/><path class="xlines-above crisp" d="M0,0" style="fill: none;"/><path class="ylines-above crisp" d="M0,0" style="fill: none;"/><g class="overlines-above"/><g class="xaxislayer-above"/><g class="yaxislayer-above"/><g class="overaxes-above"/></g></g><g class="polarlayer"/><g class="smithlayer"/><g class="ternarylayer"/><g class="geolayer"/><g class="funnelarealayer"/><g class="pielayer"/><g class="iciclelayer"/><g class="treemaplayer"/><g class="sunburstlayer"/><g class="glimages"/><defs id="topdefs-6d3834"><g class="clips"/></defs><g class="layer-above"><g class="imagelayer"/><g class="shapelayer"/></g><g class="infolayer"><g class="g-gtitle"><text class="gtitle" x="15" y="25" text-anchor="start" dy="0em" style="font-family: Ubuntu, verdana, arial, sans-serif; font-size: 16px; fill: rgb(233, 84, 32); opacity: 1; font-weight: normal; white-space: pre;">Sněmovna 2021-2025</text></g><g class="g-xtitle"/><g class="g-ytitle"/></g></svg>