<svg class="main-svg" xmlns="http://www.w3.org/2000/svg" xmlns:xlink="http://www.w3.org/1999/xlink" width="1200" height="600" style="" viewBox="0 0 1200 600"><rect x="0" y="0" width="1200" height="600" style="fill: rgb(255, 255, 255); fill-opacity: 1;"/><defs id="defs-cbf577"><g class="clips"><clipPath id="clipcbf577xyplot" class="plotclip"><rect width="987" height="530"/></clipPath><clipPath class="axesclip" id="clipcbf577x"><rect x="50" y="0" width="987" height="600"/></clipPath><clipPath class="axesclip" id="clipcbf577y"><rect x="0" y="20" width="1200" height="530"/></clipPath><clipPath class="axesclip" id="clipcbf577xy"><rect x="50" y="20" width="987" height="530"/></clipPath></g><g class="gradients"/><g class="patterns"/></defs><g class="bglayer"/><g class="layer-below"><g class="imagelayer"/><g class="shapelayer"/></g><g class="cartesianlayer"><g class="subplot xy"><g class="layer-subplot"><g class="shapelayer"/><g class="imagelayer"/></g><g class="gridlayer"><g class="x"><path class="xgrid crisp" transform="translate(107.06,0)" d="M0,20v530" style="stroke: rgb(235, 240, 248); stroke-opacity: 1; stroke-width: 1px;"/><path class="xgrid crisp" transform="translate(230.01,0)" d="M0,20v530" style="stroke: rgb(235, 240, 248); stroke-opacity: 1; stroke-width: 1px;"/><path class="xgrid crisp" transform="translate(355,0)" d="M0,20v530" style="stroke: rgb(235, 240, 248); stroke-opacity: 1; stroke-width: 1px;"/><path class="xgrid crisp" transform="translate(477.95,0)" d="M0,20v530" style="stroke: rgb(235, 240, 248); stroke-opacity: 1; stroke-width: 1px;"/><path class="xgrid crisp" transform="translate(602.94,0)" d="M0,20v530" style="stroke: rgb(235, 240, 248); stroke-opacity: 1; stroke-width: 1px;"/><path class="xgrid crisp" transform="translate(726.57,0)" d="M0,20v530" style="stroke: rgb(235, 240, 248); stroke-opacity: 1; stroke-width: 1px;"/><path class="xgrid crisp" transform="translate(851.56,0)" d="M0,20v530" style="stroke: rgb(235, 240, 248); stroke-opacity: 1; stroke-width: 1px;"/><path class="xgrid crisp" transform="translate(974.51,0)" d="M0,20v530" style="stroke: rgb(235, 240, 248); stroke-opacity: 1; stroke-width: 1px;"/></g><g class="y"><path class="ygrid crisp" transform="translate(0,479.29)" d="M50,0h987" style="stroke: rgb(235, 240, 248); stroke-opacity: 1; stroke-width: 1px;"/><path class="ygrid crisp" transform="translate(0,408.57)" d="M50,0h987" style="stroke: rgb(235, 240, 248); stroke-opacity: 1; stroke-width: 1px;"/><path class="ygrid crisp" transform="translate(0,337.86)" d="M50,0h987" style="stroke: rgb(235, 240, 248); stroke-opacity: 1; stroke-width: 1px;"/><path class="ygrid crisp" transform="translate(0,267.14)" d="M50,0h987" style="stroke: rgb(235, 240, 248); stroke-opacity: 1; stroke-width: 1px;"/><path class="ygrid crisp" transform="translate(0,196.43)" d="M50,0h987" style="stroke: rgb(235, 240, 248); stroke-opacity: 1; stroke-width: 1px;"/><path class="ygrid crisp" transform="translate(0,125.71)" d="M50,0h987" style="stroke: rgb(235, 240, 248); stroke-opacity: 1; stroke-width: 1px;"/><path class="ygrid crisp" transform="translate(0,55)" d="M50,0h987" style="stroke: rgb(235, 240, 248); stroke-opacity: 1; stroke-width: 1px;"/></g></g><g class="zerolinelayer"><path class="yzl zl crisp" transform="translate(0,550)" d="M50,0h987" style="stroke: rgb(235, 240, 248); stroke-opacity: 1; stroke-width: 2px;"/></g><path class="xlines-below"/><path class="ylines-below"/><g class="overlines-below"/><g class="xaxislayer-below"/><g class="yaxislayer-below"/><g class="overaxes-below"/><g class="plot" transform="translate(50,20)" clip-path="url(#clipcbf577xyplot)"><g class="scatterlayer mlayer"><g class="trace scatter trace63aef4" style="stroke-miterlimit: 2; opacity: 1;"><g class="fills"><g><path class="js-fill" d="M0,71.81Q12.41,73.23 21.74,74.47C38.66,76.72 77.35,88.55 93.06,84.7C102.02,82.51 105.65,74.64 112.08,71.04C117.89,67.78 123.73,66.34 129.74,63.6C136.17,60.67 145.12,56.09 149.44,53.9C151.58,52.82 152.22,52.33 154.2,51.41C157.3,49.97 161.67,48.81 166.42,46.46C173.68,42.88 185.64,34.23 192.92,30.83C197.65,28.62 201.11,26.6 205.14,26.5C209.03,26.41 213.22,29.46 216.69,29.97C219.42,30.37 224.16,30.08 224.16,29.99C224.16,29.87 211.25,29.27 211.26,29.13C211.27,28.93 235.67,28.93 235.71,29.36C235.72,29.54 232.81,28.68 231.64,30.07C224.55,38.5 224.55,177.01 231.64,182.97C232.81,183.95 235.72,182.44 235.71,182.26C235.67,181.83 211.27,181.84 211.26,182.03C211.25,182.17 224.16,182.76 224.16,182.88C224.16,182.97 219.45,182.85 216.69,182.87C213.26,182.89 209.04,182.9 205.14,183.04C201.12,183.18 197.64,182.56 192.92,183.72C185.64,185.51 173.59,192.65 166.42,195.72C161.59,197.79 157.3,199.22 154.2,200.66C152.22,201.58 151.58,202.07 149.44,203.16C145.12,205.36 136.27,210.59 129.74,212.86C123.82,214.92 117.71,213.76 112.08,216.65C105.37,220.1 102.31,231.37 93.06,233.96C77.51,238.32 38.71,221.34 21.74,220.09Q12.45,219.41 0,221.07Z" style="fill: rgb(38, 16, 96); fill-opacity: 0.05; stroke-width: 0;"/></g></g><g class="errorbars"/><g class="lines"><path class="js-line" d="M0,71.81Q12.41,73.23 21.74,74.47C38.66,76.72 77.35,88.55 93.06,84.7C102.02,82.51 105.65,74.64 112.08,71.04C117.89,67.78 123.73,66.34 129.74,63.6C136.17,60.67 145.12,56.09 149.44,53.9C151.58,52.82 152.22,52.33 154.2,51.41C157.3,49.97 161.67,48.81 166.42,46.46C173.68,42.88 185.64,34.23 192.92,30.83C197.65,28.62 201.11,26.6 205.14,26.5C209.03,26.41 213.22,29.46 216.69,29.97C219.42,30.37 224.16,30.08 224.16,29.99C224.16,29.87 211.25,29.27 211.26,29.13C211.27,28.93 235.67,28.93 235.71,29.36C235.72,29.54 232.81,28.68 231.64,30.07C224.55,38.5 224.55,177.01 231.64,182.97C232.81,183.95 235.72,182.44 235.71,182.26C235.67,181.83 211.27,181.84 211.26,182.03C211.25,182.17 224.16,182.76 224.16,182.88C224.16,182.97 219.45,182.85 216.69,182.87C213.26,182.89 209.04,182.9 205.14,183.04C201.12,183.18 197.64,182.56 192.92,183.72C185.64,185.51 173.59,192.65 166.42,195.72C161.59,197.79 157.3,199.22 154.2,200.66C152.22,201.58 151.58,202.07 149.44,203.16C145.12,205.36 136.27,210.59 129.74,212.86C123.82,214.92 117.71,213.76 112.08,216.65C105.37,220.1 102.31,231.37 93.06,233.96C77.51,238.32 38.71,221.34 21.74,220.09Q12.45,219.41 0,221.07" style="vector-effect: non-scaling-stroke; fill: none; stroke: rgb(255, 255, 255); stroke-opacity: 0; stroke-width: 2px; opacity: 1;"/></g><g class="points"/><g class="text"/></g><g class="trace scatter trace744e83" style="stroke-miterlimit: 2; opacity: 1;"><g class="fills"><g><path class="js-fill" d="M0,271.92Q13.09,263.3 21.74,254.33C39.56,235.86 75.77,175.75 93.06,159.4C100.65,152.23 105.55,148.49 112.08,146.72C117.82,145.16 124.55,144.22 129.74,147.73C138.14,153.41 144.1,186.53 149.44,189.72C151.15,190.74 152.54,188.56 154.2,189.45C157.92,191.44 160.85,203.63 166.42,210.23C173.1,218.14 185.36,228.91 192.92,232.52C197.45,234.69 201.15,235.14 205.14,234.9C209.08,234.66 213.29,230.99 216.69,231.17C219.48,231.32 224.28,234.1 224.16,234.51C224.01,235.02 211.24,233.23 211.26,232.68C211.28,231.93 235.53,230.04 235.71,230.79C235.79,231.11 232.78,230.78 231.64,232.49C225.59,241.57 225.6,352.25 231.64,356.27C232.78,357.03 235.79,354.88 235.71,354.56C235.53,353.8 211.28,355.7 211.26,356.45C211.24,357 224.01,358.79 224.16,358.28C224.28,357.87 219.48,355.09 216.69,354.94C213.29,354.76 209.08,358.43 205.14,358.67C201.15,358.91 197.53,358.26 192.92,356.3C185.48,353.13 173.16,344.34 166.42,337.64C160.99,332.24 157.77,322.21 154.2,320.5C152.5,319.68 151.2,321.73 149.44,320.77C144.34,317.99 137.67,291 129.74,286.07C124.46,282.79 117.93,283.92 112.08,285.06C105.7,286.31 100.68,288.36 93.06,294.09C75.84,307.02 39.48,359.28 21.74,374.46Q13.04,381.9 0,388.41Z" style="fill: rgb(0, 68, 148); fill-opacity: 0.05; stroke-width: 0;"/></g></g><g class="errorbars"/><g class="lines"><path class="js-line" d="M0,271.92Q13.09,263.3 21.74,254.33C39.56,235.86 75.77,175.75 93.06,159.4C100.65,152.23 105.55,148.49 112.08,146.72C117.82,145.16 124.55,144.22 129.74,147.73C138.14,153.41 144.1,186.53 149.44,189.72C151.15,190.74 152.54,188.56 154.2,189.45C157.92,191.44 160.85,203.63 166.42,210.23C173.1,218.14 185.36,228.91 192.92,232.52C197.45,234.69 201.15,235.14 205.14,234.9C209.08,234.66 213.29,230.99 216.69,231.17C219.48,231.32 224.28,234.1 224.16,234.51C224.01,235.02 211.24,233.23 211.26,232.68C211.28,231.93 235.53,230.04 235.71,230.79C235.79,231.11 232.78,230.78 231.64,232.49C225.59,241.57 225.6,352.25 231.64,356.27C232.78,357.03 235.79,354.88 235.71,354.56C235.53,353.8 211.28,355.7 211.26,356.45C211.24,357 224.01,358.79 224.16,358.28C224.28,357.87 219.48,355.09 216.69,354.94C213.29,354.76 209.08,358.43 205.14,358.67C201.15,358.91 197.53,358.26 192.92,356.3C185.48,353.13 173.16,344.34 166.42,337.64C160.99,332.24 157.77,322.21 154.2,320.5C152.5,319.68 151.2,321.73 149.44,320.77C144.34,317.99 137.67,291 129.74,286.07C124.46,282.79 117.93,283.92 112.08,285.06C105.7,286.31 100.68,288.36 93.06,294.09C75.84,307.02 39.48,359.28 21.74,374.46Q13.04,381.9 0,388.41" style="vector-effect: non-scaling-stroke; fill: none; stroke: rgb(255, 255, 255); stroke-opacity: 0; stroke-width: 2px; opacity: 1;"/></g><g class="points"/><g class="text"/></g><g class="trace scatter trace369022" style="stroke-miterlimit: 2; opacity: 1;"><g class="fills"><g><path class="js-fill" d="M0,345.32Q12.56,346.68 21.74,345.14C38.82,342.27 76.95,320.49 93.06,321.16C101.51,321.51 105.85,329.34 112.08,329.36C118.07,329.38 123.7,324.47 129.74,321.88C136.13,319.14 145.06,313.82 149.44,313.33C151.52,313.1 152.35,314.65 154.2,314.23C157.46,313.49 161.26,307.52 166.42,305.3C173.31,302.33 185.79,301.85 192.92,300.41C197.78,299.43 201.1,298.19 205.14,297.72C209.02,297.27 213.27,297.29 216.69,297.57C219.46,297.8 224.18,298.65 224.16,298.92C224.13,299.27 211.28,298.76 211.26,299.06C211.24,299.48 235.66,300.95 235.71,301.79C235.73,302.14 232.77,301.34 231.64,302.79C225.85,310.18 225.85,407.46 231.64,412C232.77,412.89 235.73,411.35 235.71,411C235.66,410.16 211.24,408.69 211.26,408.27C211.28,407.97 224.08,407.6 224.16,408.13C224.22,408.54 219.49,409.98 216.69,410.42C213.29,410.95 209.04,410.7 205.14,410.57C201.12,410.44 197.75,409.37 192.92,409.62C185.76,410 173.47,412.36 166.42,414.51C161.46,416.02 157.37,419.44 154.2,419.8C152.29,420.01 151.56,418.85 149.44,418.91C145.1,419.04 136.05,421.7 129.74,423.81C123.61,425.86 118.16,430.79 112.08,431.29C105.94,431.8 101.43,426.75 93.06,426.73C76.87,426.69 38.73,441.41 21.74,443.44Q12.48,444.55 0,443.61Z" style="fill: rgb(234, 35, 41); fill-opacity: 0.05; stroke-width: 0;"/></g></g><g class="errorbars"/><g class="lines"><path class="js-line" d="M0,345.32Q12.56,346.68 21.74,345.14C38.82,342.27 76.95,320.49 93.06,321.16C101.51,321.51 105.85,329.34 112.08,329.36C118.07,329.38 123.7,324.47 129.74,321.88C136.13,319.14 145.06,313.82 149.44,313.33C151.52,313.1 152.35,314.65 154.2,314.23C157.46,313.49 161.26,307.52 166.42,305.3C173.31,302.33 185.79,301.85 192.92,300.41C197.78,299.43 201.1,298.19 205.14,297.72C209.02,297.27 213.27,297.29 216.69,297.57C219.46,297.8 224.18,298.65 224.16,298.92C224.13,299.27 211.28,298.76 211.26,299.06C211.24,299.48 235.66,300.95 235.71,301.79C235.73,302.14 232.77,301.34 231.64,302.79C225.85,310.18 225.85,407.46 231.64,412C232.77,412.89 235.73,411.35 235.71,411C235.66,410.16 211.24,408.69 211.26,408.27C211.28,407.97 224.08,407.6 224.16,408.13C224.22,408.54 219.49,409.98 216.69,410.42C213.29,410.95 209.04,410.7 205.14,410.57C201.12,410.44 197.75,409.37 192.92,409.62C185.76,410 173.47,412.36 166.42,414.51C161.46,416.02 157.37,419.44 154.2,419.8C152.29,420.01 151.56,418.85 149.44,418.91C145.1,419.04 136.05,421.7 129.74,423.81C123.61,425.86 118.16,430.79 112.08,431.29C105.94,431.8 101.43,426.75 93.06,426.73C76.87,426.69 38.73,441.41 21.74,443.44Q12.48,444.55 0,443.61" style="vector-effect: non-scaling-stroke; fill: none; stroke: rgb(255, 255, 255); stroke-opacity: 0; stroke-width: 2px; opacity: 1;"/></g><g class="points"/><g class="text"/></g><g class="trace scatter trace4cdd91" style="stroke-miterlimit: 2; opacity: 1;"><g class="fills"><g><path class="js-fill" d="M0,352.82Q12.11,360.57 21.74,364.13C38.39,370.29 76.8,379.3 93.06,380.74C101.35,381.47 105.86,379.58 112.08,379.74C118.08,379.9 124.21,383.76 129.74,381.61C136.9,378.83 145.01,363.73 149.44,359.32C151.48,357.28 152.31,357.01 154.2,355.14C157.41,351.96 160.9,344.6 166.42,341.5C173.12,337.73 185.77,336.62 192.92,336.57C197.77,336.53 201.12,337.96 205.14,338.66C209.05,339.34 213.25,340.38 216.69,340.69C219.44,340.94 224.15,340.88 224.16,340.73C224.17,340.53 211.25,339.4 211.26,339.26C211.28,339.07 235.35,341.83 235.71,340.67C235.87,340.16 232.76,337.55 231.64,338.18C226.48,341.07 226.11,435.92 231.64,440.11C232.77,440.96 235.75,439.29 235.71,438.96C235.62,438.17 211.28,437.36 211.26,437.55C211.25,437.69 224.17,438.82 224.16,439.02C224.15,439.17 219.44,438.8 216.69,438.98C213.25,439.21 209.04,440.65 205.14,440.59C201.12,440.53 197.79,438.79 192.92,438.5C185.79,438.07 173.25,437.16 166.42,439.79C161.15,441.82 157.31,447.15 154.2,449.79C152.23,451.46 151.61,452.19 149.44,453.97C145.15,457.48 136.52,467.08 129.74,468.98C124,470.59 118.08,467.27 112.08,467.11C105.86,466.94 101.4,468.43 93.06,468.1C76.85,467.47 38.34,464 21.74,458.78Q12.05,455.73 0,447.47Z" style="fill: rgb(0, 0, 0); fill-opacity: 0.05; stroke-width: 0;"/></g></g><g class="errorbars"/><g class="lines"><path class="js-line" d="M0,352.82Q12.11,360.57 21.74,364.13C38.39,370.29 76.8,379.3 93.06,380.74C101.35,381.47 105.86,379.58 112.08,379.74C118.08,379.9 124.21,383.76 129.74,381.61C136.9,378.83 145.01,363.73 149.44,359.32C151.48,357.28 152.31,357.01 154.2,355.14C157.41,351.96 160.9,344.6 166.42,341.5C173.12,337.73 185.77,336.62 192.92,336.57C197.77,336.53 201.12,337.96 205.14,338.66C209.05,339.34 213.25,340.38 216.69,340.69C219.44,340.94 224.15,340.88 224.16,340.73C224.17,340.53 211.25,339.4 211.26,339.26C211.28,339.07 235.35,341.83 235.71,340.67C235.87,340.16 232.76,337.55 231.64,338.18C226.48,341.07 226.11,435.92 231.64,440.11C232.77,440.96 235.75,439.29 235.71,438.96C235.62,438.17 211.28,437.36 211.26,437.55C211.25,437.69 224.17,438.82 224.16,439.02C224.15,439.17 219.44,438.8 216.69,438.98C213.25,439.21 209.04,440.65 205.14,440.59C201.12,440.53 197.79,438.79 192.92,438.5C185.79,438.07 173.25,437.16 166.42,439.79C161.15,441.82 157.31,447.15 154.2,449.79C152.23,451.46 151.61,452.19 149.44,453.97C145.15,457.48 136.52,467.08 129.74,468.98C124,470.59 118.08,467.27 112.08,467.11C105.86,466.94 101.4,468.43 93.06,468.1C76.85,467.47 38.34,464 21.74,458.78Q12.05,455.73 0,447.47" style="vector-effect: non-scaling-stroke; fill: none; stroke: rgb(255, 255, 255); stroke-opacity: 0; stroke-width: 2px; opacity: 1;"/></g><g class="points"/><g class="text"/></g><g class="trace scatter trace4a6cc5" style="stroke-miterlimit: 2; opacity: 1;"><g class="fills"><g><path class="js-fill" d="M0,372.32Q7.78,324.4 21.74,317.06C37.24,308.91 77.22,327.02 93.06,333.62C101.83,337.28 105.87,341.61 112.08,345.58C118.09,349.42 124.07,351.98 129.74,357.05C136.62,363.2 145.09,375.82 149.44,380.99C151.55,383.5 152.23,384.29 154.2,386.54C157.32,390.12 160.97,396.66 166.42,400.32C173.15,404.84 185.71,407.81 192.92,409.59C197.71,410.77 201.12,410.87 205.14,411.41C209.04,411.93 213.31,413.23 216.69,412.79C219.5,412.42 224.18,409.86 224.16,409.81C224.13,409.74 211.33,414.59 211.26,414.41C211.16,414.16 234.86,402.55 235.71,403.66C236.13,404.21 232.69,405.74 231.64,408.73C228.04,418.97 227.03,481.91 231.64,485.18C232.74,485.96 235.73,483.8 235.71,483.75C235.67,483.62 211.33,491.06 211.26,490.86C211.21,490.71 224.13,486.19 224.16,486.26C224.18,486.31 219.5,488.86 216.69,489.23C213.31,489.67 209.04,488.38 205.14,487.86C201.12,487.32 197.76,486.91 192.92,486.04C185.76,484.75 173.26,483.73 166.42,480.41C161.18,477.87 157.46,472.2 154.2,470.26C152.35,469.16 151.44,469.56 149.44,468.36C144.95,465.67 136.43,455.89 129.74,451.7C123.95,448.07 118.08,446.51 112.08,443.87C105.86,441.13 101.63,438.16 93.06,435.55C77.06,430.67 37.34,415.08 21.74,422.63Q9.29,428.65 0,463.33Z" style="fill: rgb(93, 140, 0); fill-opacity: 0.05; stroke-width: 0;"/></g></g><g class="errorbars"/><g class="lines"><path class="js-line" d="M0,372.32Q7.78,324.4 21.74,317.06C37.24,308.91 77.22,327.02 93.06,333.62C101.83,337.28 105.87,341.61 112.08,345.58C118.09,349.42 124.07,351.98 129.74,357.05C136.62,363.2 145.09,375.82 149.44,380.99C151.55,383.5 152.23,384.29 154.2,386.54C157.32,390.12 160.97,396.66 166.42,400.32C173.15,404.84 185.71,407.81 192.92,409.59C197.71,410.77 201.12,410.87 205.14,411.41C209.04,411.93 213.31,413.23 216.69,412.79C219.5,412.42 224.18,409.86 224.16,409.81C224.13,409.74 211.33,414.59 211.26,414.41C211.16,414.16 234.86,402.55 235.71,403.66C236.13,404.21 232.69,405.74 231.64,408.73C228.04,418.97 227.03,481.91 231.64,485.18C232.74,485.96 235.73,483.8 235.71,483.75C235.67,483.62 211.33,491.06 211.26,490.86C211.21,490.71 224.13,486.19 224.16,486.26C224.18,486.31 219.5,488.86 216.69,489.23C213.31,489.67 209.04,488.38 205.14,487.86C201.12,487.32 197.76,486.91 192.92,486.04C185.76,484.75 173.26,483.73 166.42,480.41C161.18,477.87 157.46,472.2 154.2,470.26C152.35,469.16 151.44,469.56 149.44,468.36C144.95,465.67 136.43,455.89 129.74,451.7C123.95,448.07 118.08,446.51 112.08,443.87C105.86,441.13 101.63,438.16 93.06,435.55C77.06,430.67 37.34,415.08 21.74,422.63Q9.29,428.65 0,463.33" style="vector-effect: non-scaling-stroke; fill: none; stroke: rgb(255, 255, 255); stroke-opacity: 0; stroke-width: 2px; opacity: 1;"/></g><g class="points"/><g class="text"/></g><g class="trace scatter trace3f8735" style="stroke-miterlimit: 2; opacity: 1;"><g class="fills"><g><path class="js-fill" d="M0,386.92Q12.52,386.98 21.74,388.71C38.77,391.91 77.45,401.2 93.06,409.93C102.2,415.04 105.54,422.57 112.08,426.97C117.82,430.83 123.55,434.75 129.74,435.6C135.99,436.46 145.1,432.18 149.44,431.96C151.56,431.85 152.27,432.55 154.2,432.35C157.35,432.02 161.51,429.59 166.42,428.7C173.51,427.42 185.77,427.26 192.92,426.92C197.77,426.69 201.13,426.84 205.14,426.59C209.05,426.35 213.27,425.32 216.69,425.46C219.46,425.58 224.17,426.39 224.16,426.83C224.14,427.41 211.25,428.36 211.26,428.5C211.28,428.69 235.35,428.17 235.71,426.69C235.87,426.04 232.72,423.61 231.64,424.22C227.42,426.6 227.11,493.6 231.64,497.02C232.73,497.85 235.75,496.06 235.71,495.86C235.62,495.38 211.28,497.86 211.26,497.67C211.25,497.53 224.09,495.69 224.16,496C224.21,496.24 219.47,498.16 216.69,498.27C213.27,498.41 209.07,496.13 205.14,495.76C201.15,495.39 197.77,495.86 192.92,496.09C185.77,496.43 173.51,496.59 166.42,497.87C161.51,498.76 157.35,501.19 154.2,501.52C152.27,501.72 151.56,501.02 149.44,501.13C145.1,501.35 135.99,505.62 129.74,504.76C123.55,503.91 118.06,499.13 112.08,496.14C105.84,493.02 101.7,489.38 93.06,486.38C77.12,480.86 38.7,474.79 21.74,472.44Q12.45,471.15 0,470.65Z" style="fill: rgb(114, 55, 105); fill-opacity: 0.05; stroke-width: 0;"/></g></g><g class="errorbars"/><g class="lines"><path class="js-line" d="M0,386.92Q12.52,386.98 21.74,388.71C38.77,391.91 77.45,401.2 93.06,409.93C102.2,415.04 105.54,422.57 112.08,426.97C117.82,430.83 123.55,434.75 129.74,435.6C135.99,436.46 145.1,432.18 149.44,431.96C151.56,431.85 152.27,432.55 154.2,432.35C157.35,432.02 161.51,429.59 166.42,428.7C173.51,427.42 185.77,427.26 192.92,426.92C197.77,426.69 201.13,426.84 205.14,426.59C209.05,426.35 213.27,425.32 216.69,425.46C219.46,425.58 224.17,426.39 224.16,426.83C224.14,427.41 211.25,428.36 211.26,428.5C211.28,428.69 235.35,428.17 235.71,426.69C235.87,426.04 232.72,423.61 231.64,424.22C227.42,426.6 227.11,493.6 231.64,497.02C232.73,497.85 235.75,496.06 235.71,495.86C235.62,495.38 211.28,497.86 211.26,497.67C211.25,497.53 224.09,495.69 224.16,496C224.21,496.24 219.47,498.16 216.69,498.27C213.27,498.41 209.07,496.13 205.14,495.76C201.15,495.39 197.77,495.86 192.92,496.09C185.77,496.43 173.51,496.59 166.42,497.87C161.51,498.76 157.35,501.19 154.2,501.52C152.27,501.72 151.56,501.02 149.44,501.13C145.1,501.35 135.99,505.62 129.74,504.76C123.55,503.91 118.06,499.13 112.08,496.14C105.84,493.02 101.7,489.38 93.06,486.38C77.12,480.86 38.7,474.79 21.74,472.44Q12.45,471.15 0,470.65" style="vector-effect: non-scaling-stroke; fill: none; stroke: rgb(255, 255, 255); stroke-opacity: 0; stroke-width: 2px; opacity: 1;"/></g><g class="points"/><g class="text"/></g><g class="trace scatter tracebd2a52" style="stroke-miterlimit: 2; opacity: 1;"><g class="fills"><g><path class="js-fill" d="M0,403.93Q10.58,427.13 21.74,431.93C37.61,438.75 77.02,422.81 93.06,424.86C101.59,425.95 105.78,430.17 112.08,431.87C118,433.47 123.67,434.17 129.74,434.96C136.11,435.79 145.12,436.87 149.44,436.64C151.58,436.52 152.24,435.8 154.2,435.71C157.32,435.57 161.56,436.56 166.42,436.95C173.56,437.52 185.78,437.92 192.92,438.48C197.78,438.86 201.12,439.34 205.14,439.7C209.04,440.05 213.3,441.06 216.69,440.64C219.49,440.3 224.22,438.4 224.16,438.12C224.08,437.76 211.25,439.77 211.26,439.82C211.27,439.89 235.65,436.79 235.71,437.13C235.74,437.27 232.72,436.79 231.64,438.19C227.37,443.72 227.37,500.41 231.64,503.71C232.72,504.55 235.74,502.79 235.71,502.65C235.65,502.31 211.27,505.41 211.26,505.34C211.25,505.29 224.08,503.29 224.16,503.65C224.23,503.93 219.49,505.83 216.69,506.17C213.3,506.59 209.04,505.58 205.14,505.23C201.12,504.87 197.78,504.39 192.92,504.01C185.78,503.45 173.54,501.98 166.42,502.47C161.54,502.8 157.26,505.38 154.2,504.88C152.17,504.55 151.67,502.86 149.44,502.16C145.2,500.84 136.13,500.66 129.74,500.49C123.7,500.33 117.98,502 112.08,501.04C105.76,500.01 101.59,495.12 93.06,494.03C77.02,491.98 38.05,505.85 21.74,501.1Q11.61,498.15 0,484.02Z" style="fill: rgb(230, 172, 33); fill-opacity: 0.05; stroke-width: 0;"/></g></g><g class="errorbars"/><g class="lines"><path class="js-line" d="M0,403.93Q10.58,427.13 21.74,431.93C37.61,438.75 77.02,422.81 93.06,424.86C101.59,425.95 105.78,430.17 112.08,431.87C118,433.47 123.67,434.17 129.74,434.96C136.11,435.79 145.12,436.87 149.44,436.64C151.58,436.52 152.24,435.8 154.2,435.71C157.32,435.57 161.56,436.56 166.42,436.95C173.56,437.52 185.78,437.92 192.92,438.48C197.78,438.86 201.12,439.34 205.14,439.7C209.04,440.05 213.3,441.06 216.69,440.64C219.49,440.3 224.22,438.4 224.16,438.12C224.08,437.76 211.25,439.77 211.26,439.82C211.27,439.89 235.65,436.79 235.71,437.13C235.74,437.27 232.72,436.79 231.64,438.19C227.37,443.72 227.37,500.41 231.64,503.71C232.72,504.55 235.74,502.79 235.71,502.65C235.65,502.31 211.27,505.41 211.26,505.34C211.25,505.29 224.08,503.29 224.16,503.65C224.23,503.93 219.49,505.83 216.69,506.17C213.3,506.59 209.04,505.58 205.14,505.23C201.12,504.87 197.78,504.39 192.92,504.01C185.78,503.45 173.54,501.98 166.42,502.47C161.54,502.8 157.26,505.38 154.2,504.88C152.17,504.55 151.67,502.86 149.44,502.16C145.2,500.84 136.13,500.66 129.74,500.49C123.7,500.33 117.98,502 112.08,501.04C105.76,500.01 101.59,495.12 93.06,494.03C77.02,491.98 38.05,505.85 21.74,501.1Q11.61,498.15 0,484.02" style="vector-effect: non-scaling-stroke; fill: none; stroke: rgb(255, 255, 255); stroke-opacity: 0; stroke-width: 2px; opacity: 1;"/></g><g class="points"/><g class="text"/></g><g class="trace scatter traceeaabf7" style="stroke-miterlimit: 2; opacity: 1;"><g class="fills"><g><path class="js-fill" d="M0,429.84Q12.43,432.99 21.74,435.61C38.68,440.37 76.75,454.31 93.06,456.76C101.31,458 106,458.27 112.08,456.94C118.24,455.6 124.07,452.77 129.74,448.65C136.63,443.64 144.78,429.21 149.44,427.57C151.34,426.9 152.28,428.45 154.2,428.25C157.36,427.92 161.49,424.32 166.42,423.8C173.49,423.06 185.85,425.77 192.92,427.56C197.85,428.81 201.19,430.28 205.14,432.09C209.12,433.91 213.19,436.96 216.69,438.48C219.39,439.65 224.05,441.17 224.16,440.92C224.31,440.58 211.17,434.12 211.26,433.94C211.38,433.69 235.72,444.93 235.71,444.96C235.7,444.97 232.71,442.49 231.64,443.19C227.64,445.81 227.64,498.98 231.64,505.08C232.71,506.71 235.78,506.59 235.71,506.85C235.53,507.46 211.33,502.75 211.26,503.1C211.21,503.36 224.13,506.56 224.16,506.45C224.19,506.36 219.47,504.79 216.69,504.01C213.28,503.05 209.07,501.87 205.14,501.26C201.15,500.64 197.76,500.89 192.92,500.37C185.76,499.6 173.58,496.87 166.42,496.6C161.58,496.42 157.24,496.44 154.2,497.42C152.14,498.08 151.6,499.15 149.44,500.37C145.14,502.81 136.26,508.03 129.74,510.54C123.82,512.81 118.13,514.43 112.08,515.18C105.91,515.95 101.39,515.64 93.06,515.01C76.84,513.78 38.58,508.2 21.74,504.77Q12.33,502.85 0,499.01Z" style="fill: rgb(240, 125, 0); fill-opacity: 0.05; stroke-width: 0;"/></g></g><g class="errorbars"/><g class="lines"><path class="js-line" d="M0,429.84Q12.43,432.99 21.74,435.61C38.68,440.37 76.75,454.31 93.06,456.76C101.31,458 106,458.27 112.08,456.94C118.24,455.6 124.07,452.77 129.74,448.65C136.63,443.64 144.78,429.21 149.44,427.57C151.34,426.9 152.28,428.45 154.2,428.25C157.36,427.92 161.49,424.32 166.42,423.8C173.49,423.06 185.85,425.77 192.92,427.56C197.85,428.81 201.19,430.28 205.14,432.09C209.12,433.91 213.19,436.96 216.69,438.48C219.39,439.65 224.05,441.17 224.16,440.92C224.31,440.58 211.17,434.12 211.26,433.94C211.38,433.69 235.72,444.93 235.71,444.96C235.7,444.97 232.71,442.49 231.64,443.19C227.64,445.81 227.64,498.98 231.64,505.08C232.71,506.71 235.78,506.59 235.71,506.85C235.53,507.46 211.33,502.75 211.26,503.1C211.21,503.36 224.13,506.56 224.16,506.45C224.19,506.36 219.47,504.79 216.69,504.01C213.28,503.05 209.07,501.87 205.14,501.26C201.15,500.64 197.76,500.89 192.92,500.37C185.76,499.6 173.58,496.87 166.42,496.6C161.58,496.42 157.24,496.44 154.2,497.42C152.14,498.08 151.6,499.15 149.44,500.37C145.14,502.81 136.26,508.03 129.74,510.54C123.82,512.81 118.13,514.43 112.08,515.18C105.91,515.95 101.39,515.64 93.06,515.01C76.84,513.78 38.58,508.2 21.74,504.77Q12.33,502.85 0,499.01" style="vector-effect: non-scaling-stroke; fill: none; stroke: rgb(255, 255, 255); stroke-opacity: 0; stroke-width: 2px; opacity: 1;"/></g><g class="points"/><g class="text"/></g><g class="trace scatter trace815623" style="stroke-miterlimit: 2; opacity: 1;"><g class="fills"><g><path class="js-fill" d="M0,439.05Q11.53,453.18 21.74,456.84C38,462.67 76.89,458.09 93.06,457C101.45,456.43 105.88,454.09 112.08,454.38C118.1,454.66 123.68,457.19 129.74,458.5C136.12,459.88 145.18,460.94 149.44,462.43C151.64,463.2 152.17,464.36 154.2,464.87C157.27,465.64 161.63,465.75 166.42,465.07C173.63,464.05 185.72,458.5 192.92,456.95C197.72,455.92 201.15,456.15 205.14,455.39C209.07,454.64 213.24,452.7 216.69,452.45C219.43,452.25 224.16,453.2 224.16,453.25C224.15,453.32 211.26,452.68 211.26,452.36C211.26,451.92 235.66,451.53 235.71,450.9C235.73,450.64 232.72,449.17 231.64,450.04C227.48,453.41 227.89,509.95 231.64,511.93C232.7,512.49 235.88,509.56 235.71,509.15C235.32,508.23 211.26,514.27 211.26,514.25C211.26,514.24 224.19,512.1 224.16,511.5C224.14,511.05 219.43,510.5 216.69,510.7C213.24,510.95 209.07,512.89 205.14,513.64C201.15,514.4 197.76,514.47 192.92,515.19C185.77,516.25 173.59,519.12 166.42,519.67C161.59,520.04 157.27,520.25 154.2,519.48C152.17,518.97 151.66,517.59 149.44,517.04C145.19,515.98 136.09,517.52 129.74,516.74C123.65,515.99 118.1,512.91 112.08,512.63C105.88,512.34 101.45,514.68 93.06,515.24C76.89,516.33 38.36,518.9 21.74,515.08Q12.07,512.86 0,504.58Z" style="fill: rgb(0, 51, 255); fill-opacity: 0.05; stroke-width: 0;"/></g></g><g class="errorbars"/><g class="lines"><path class="js-line" d="M0,439.05Q11.53,453.18 21.74,456.84C38,462.67 76.89,458.09 93.06,457C101.45,456.43 105.88,454.09 112.08,454.38C118.1,454.66 123.68,457.19 129.74,458.5C136.12,459.88 145.18,460.94 149.44,462.43C151.64,463.2 152.17,464.36 154.2,464.87C157.27,465.64 161.63,465.75 166.42,465.07C173.63,464.05 185.72,458.5 192.92,456.95C197.72,455.92 201.15,456.15 205.14,455.39C209.07,454.64 213.24,452.7 216.69,452.45C219.43,452.25 224.16,453.2 224.16,453.25C224.15,453.32 211.26,452.68 211.26,452.36C211.26,451.92 235.66,451.53 235.71,450.9C235.73,450.64 232.72,449.17 231.64,450.04C227.48,453.41 227.89,509.95 231.64,511.93C232.7,512.49 235.88,509.56 235.71,509.15C235.32,508.23 211.26,514.27 211.26,514.25C211.26,514.24 224.19,512.1 224.16,511.5C224.14,511.05 219.43,510.5 216.69,510.7C213.24,510.95 209.07,512.89 205.14,513.64C201.15,514.4 197.76,514.47 192.92,515.19C185.77,516.25 173.59,519.12 166.42,519.67C161.59,520.04 157.27,520.25 154.2,519.48C152.17,518.97 151.66,517.59 149.44,517.04C145.19,515.98 136.09,517.52 129.74,516.74C123.65,515.99 118.1,512.91 112.08,512.63C105.88,512.34 101.45,514.68 93.06,515.24C76.89,516.33 38.36,518.9 21.74,515.08Q12.07,512.86 0,504.58" style="vector-effect: non-scaling-stroke; fill: none; stroke: rgb(255, 255, 255); stroke-opacity: 0; stroke-width: 2px; opacity: 1;"/></g><g class="points"/><g class="text"/></g><g class="trace scatter tracee95fc6" style="stroke-miterlimit: 2; opacity: 1;"><g class="fills"><g><path class="js-fill" d="M0,449.24Q12.58,446.74 21.74,448.1C38.84,450.65 76.79,473.26 93.06,473.99C101.35,474.36 105.8,469.76 112.08,468.95C118.02,468.19 123.72,469.52 129.74,469.01C136.15,468.47 145.1,466 149.44,465.59C151.56,465.39 152.26,465.77 154.2,465.52C157.35,465.12 161.53,463.12 166.42,462.56C173.52,461.75 185.78,462.5 192.92,462.84C197.78,463.07 201.12,463.55 205.14,463.86C209.04,464.16 213.54,463 216.69,464.66C219.9,466.35 224.46,473.74 224.16,474.03C223.8,474.37 210.78,463.79 211.26,463.03C211.86,462.07 235.92,472.7 235.71,473.91C235.63,474.38 232.69,473.09 231.64,474.22C228.07,478.07 228.07,518.24 231.64,521.55C232.69,522.52 235.7,521.45 235.71,521.24C235.73,520.71 211.36,517.18 211.26,517.64C211.19,517.98 224.16,521.35 224.16,521.36C224.16,521.37 219.48,519.74 216.69,519.26C213.28,518.67 209.04,518.77 205.14,518.47C201.12,518.16 197.78,517.67 192.92,517.44C185.78,517.1 173.56,517.41 166.42,517.17C161.57,517.01 157.33,516.55 154.2,516.49C152.25,516.45 151.56,516.36 149.44,516.56C145.1,516.96 136.15,519.43 129.74,519.97C123.72,520.48 118.07,519.71 112.08,519.92C105.85,520.14 101.4,521.67 93.06,521.32C76.84,520.64 38.69,510.88 21.74,509.99Q12.44,509.5 0,511.13Z" style="fill: rgb(140, 0, 0); fill-opacity: 0.05; stroke-width: 0;"/></g></g><g class="errorbars"/><g class="lines"><path class="js-line" d="M0,449.24Q12.58,446.74 21.74,448.1C38.84,450.65 76.79,473.26 93.06,473.99C101.35,474.36 105.8,469.76 112.08,468.95C118.02,468.19 123.72,469.52 129.74,469.01C136.15,468.47 145.1,466 149.44,465.59C151.56,465.39 152.26,465.77 154.2,465.52C157.35,465.12 161.53,463.12 166.42,462.56C173.52,461.75 185.78,462.5 192.92,462.84C197.78,463.07 201.12,463.55 205.14,463.86C209.04,464.16 213.54,463 216.69,464.66C219.9,466.35 224.46,473.74 224.16,474.03C223.8,474.37 210.78,463.79 211.26,463.03C211.86,462.07 235.92,472.7 235.71,473.91C235.63,474.38 232.69,473.09 231.64,474.22C228.07,478.07 228.07,518.24 231.64,521.55C232.69,522.52 235.7,521.45 235.71,521.24C235.73,520.71 211.36,517.18 211.26,517.64C211.19,517.98 224.16,521.35 224.16,521.36C224.16,521.37 219.48,519.74 216.69,519.26C213.28,518.67 209.04,518.77 205.14,518.47C201.12,518.16 197.78,517.67 192.92,517.44C185.78,517.1 173.56,517.41 166.42,517.17C161.57,517.01 157.33,516.55 154.2,516.49C152.25,516.45 151.56,516.36 149.44,516.56C145.1,516.96 136.15,519.43 129.74,519.97C123.72,520.48 118.07,519.71 112.08,519.92C105.85,520.14 101.4,521.67 93.06,521.32C76.84,520.64 38.69,510.88 21.74,509.99Q12.44,509.5 0,511.13" style="vector-effect: non-scaling-stroke; fill: none; stroke: rgb(255, 255, 255); stroke-opacity: 0; stroke-width: 2px; opacity: 1;"/></g><g class="points"/><g class="text"/></g><g class="trace scatter trace8193da" style="stroke-miterlimit: 2; opacity: 1;"><g class="fills"/><g class="errorbars"/><g class="lines"><path class="js-line" d="M0,147.26Q12.44,147.28 21.74,148.24C38.69,150 77.43,164.02 93.06,159.85C102.16,157.42 105.56,148.24 112.08,144.39C117.83,141 123.71,139.79 129.74,137.27C136.14,134.6 145.07,130.22 149.44,128.76C151.53,128.06 152.29,128.31 154.2,127.62C157.38,126.48 161.58,124.06 166.42,121.65C173.58,118.08 185.64,110.84 192.92,108.15C197.65,106.4 201.1,105.65 205.14,105.2C209.02,104.77 213.26,105.35 216.69,105.37C219.45,105.39 224.16,105.27 224.16,105.36C224.16,105.48 211.25,106.07 211.26,106.21C211.27,106.4 235.67,106.41 235.71,105.98Q235.72,105.8 231.64,105.27" style="vector-effect: non-scaling-stroke; fill: none; stroke: rgb(38, 16, 96); stroke-opacity: 1; stroke-width: 7px; opacity: 1;"/></g><g class="points"/><g class="text"/></g><g class="trace scatter trace94e4dd" style="stroke-miterlimit: 2; opacity: 1;"><g class="fills"/><g class="errorbars"/><g class="lines"/><g class="points"><path class="point" transform="translate(0,146.73)" d="M7.5,0A7.5,7.5 0 1,1 0,-7.5A7.5,7.5 0 0,1 7.5,0Z" style="opacity: 1; stroke-width: 0px; fill: rgb(38, 16, 96); fill-opacity: 0.25;"/><path class="point" transform="translate(21.74,148.14)" d="M7.5,0A7.5,7.5 0 1,1 0,-7.5A7.5,7.5 0 0,1 7.5,0Z" style="opacity: 1; stroke-width: 0px; fill: rgb(38, 16, 96); fill-opacity: 0.25;"/><path class="point" transform="translate(93.06,176.43)" d="M7.5,0A7.5,7.5 0 1,1 0,-7.5A7.5,7.5 0 0,1 7.5,0Z" style="opacity: 1; stroke-width: 0px; fill: rgb(38, 16, 96); fill-opacity: 0.25;"/><path class="point" transform="translate(112.08,141.07)" d="M7.5,0A7.5,7.5 0 1,1 0,-7.5A7.5,7.5 0 0,1 7.5,0Z" style="opacity: 1; stroke-width: 0px; fill: rgb(38, 16, 96); fill-opacity: 0.25;"/><path class="point" transform="translate(129.74,141.07)" d="M7.5,0A7.5,7.5 0 1,1 0,-7.5A7.5,7.5 0 0,1 7.5,0Z" style="opacity: 1; stroke-width: 0px; fill: rgb(38, 16, 96); fill-opacity: 0.25;"/><path class="point" transform="translate(149.44,126.93)" d="M7.5,0A7.5,7.5 0 1,1 0,-7.5A7.5,7.5 0 0,1 7.5,0Z" style="opacity: 1; stroke-width: 0px; fill: rgb(38, 16, 96); fill-opacity: 0.25;"/><path class="point" transform="translate(154.2,134)" d="M7.5,0A7.5,7.5 0 1,1 0,-7.5A7.5,7.5 0 0,1 7.5,0Z" style="opacity: 1; stroke-width: 0px; fill: rgb(38, 16, 96); fill-opacity: 0.25;"/><path class="point" transform="translate(166.42,119.86)" d="M7.5,0A7.5,7.5 0 1,1 0,-7.5A7.5,7.5 0 0,1 7.5,0Z" style="opacity: 1; stroke-width: 0px; fill: rgb(38, 16, 96); fill-opacity: 0.25;"/><path class="point" transform="translate(192.92,105.71)" d="M7.5,0A7.5,7.5 0 1,1 0,-7.5A7.5,7.5 0 0,1 7.5,0Z" style="opacity: 1; stroke-width: 0px; fill: rgb(38, 16, 96); fill-opacity: 0.25;"/><path class="point" transform="translate(205.14,90.16)" d="M7.5,0A7.5,7.5 0 1,1 0,-7.5A7.5,7.5 0 0,1 7.5,0Z" style="opacity: 1; stroke-width: 0px; fill: rgb(38, 16, 96); fill-opacity: 0.25;"/><path class="point" transform="translate(216.69,98.64)" d="M7.5,0A7.5,7.5 0 1,1 0,-7.5A7.5,7.5 0 0,1 7.5,0Z" style="opacity: 1; stroke-width: 0px; fill: rgb(38, 16, 96); fill-opacity: 0.25;"/><path class="point" transform="translate(224.16,105.71)" d="M7.5,0A7.5,7.5 0 1,1 0,-7.5A7.5,7.5 0 0,1 7.5,0Z" style="opacity: 1; stroke-width: 0px; fill: rgb(38, 16, 96); fill-opacity: 0.25;"/><path class="point" transform="translate(211.26,119.86)" d="M7.5,0A7.5,7.5 0 1,1 0,-7.5A7.5,7.5 0 0,1 7.5,0Z" style="opacity: 1; stroke-width: 0px; fill: rgb(38, 16, 96); fill-opacity: 0.25;"/><path class="point" transform="translate(235.71,112.78)" d="M7.5,0A7.5,7.5 0 1,1 0,-7.5A7.5,7.5 0 0,1 7.5,0Z" style="opacity: 1; stroke-width: 0px; fill: rgb(38, 16, 96); fill-opacity: 0.25;"/><path class="point" transform="translate(231.64,98.64)" d="M7.5,0A7.5,7.5 0 1,1 0,-7.5A7.5,7.5 0 0,1 7.5,0Z" style="opacity: 1; stroke-width: 0px; fill: rgb(38, 16, 96); fill-opacity: 0.25;"/></g><g class="text"/></g><g class="trace scatter trace5ccfd8" style="stroke-miterlimit: 2; opacity: 1;"><g class="fills"/><g class="errorbars"/><g class="lines"><path class="js-line" d="M0,329.39Q13.09,322.23 21.74,314.22C39.56,297.72 75.66,240.82 93.06,227.13C100.6,221.2 105.69,219.62 112.08,217.97C117.93,216.46 124.51,213.97 129.74,216.95C137.89,221.6 144.23,251.68 149.44,255.06C151.18,256.19 152.53,254.35 154.2,255.33C157.86,257.48 160.93,268.43 166.42,274.59C173.13,282.11 185.37,292.86 192.92,295.98C197.46,297.85 201.16,297.64 205.14,297.25C209.08,296.86 213.31,293.37 216.69,293.69C219.51,293.95 224.33,297.12 224.16,297.63C223.95,298.27 211.24,296.36 211.26,295.83C211.28,295.11 235.48,293.19 235.71,294.07Q235.81,294.45 231.64,296.01" style="vector-effect: non-scaling-stroke; fill: none; stroke: rgb(0, 68, 148); stroke-opacity: 1; stroke-width: 7px; opacity: 1;"/></g><g class="points"/><g class="text"/></g><g class="trace scatter tracedf2588" style="stroke-miterlimit: 2; opacity: 1;"><g class="fills"/><g class="errorbars"/><g class="lines"/><g class="points"><path class="point" transform="translate(0,337.66)" d="M7.5,0A7.5,7.5 0 1,1 0,-7.5A7.5,7.5 0 0,1 7.5,0Z" style="opacity: 1; stroke-width: 0px; fill: rgb(0, 68, 148); fill-opacity: 0.25;"/><path class="point" transform="translate(21.74,310.79)" d="M7.5,0A7.5,7.5 0 1,1 0,-7.5A7.5,7.5 0 0,1 7.5,0Z" style="opacity: 1; stroke-width: 0px; fill: rgb(0, 68, 148); fill-opacity: 0.25;"/><path class="point" transform="translate(93.06,233)" d="M7.5,0A7.5,7.5 0 1,1 0,-7.5A7.5,7.5 0 0,1 7.5,0Z" style="opacity: 1; stroke-width: 0px; fill: rgb(0, 68, 148); fill-opacity: 0.25;"/><path class="point" transform="translate(112.08,211.78)" d="M7.5,0A7.5,7.5 0 1,1 0,-7.5A7.5,7.5 0 0,1 7.5,0Z" style="opacity: 1; stroke-width: 0px; fill: rgb(0, 68, 148); fill-opacity: 0.25;"/><path class="point" transform="translate(129.74,162.28)" d="M7.5,0A7.5,7.5 0 1,1 0,-7.5A7.5,7.5 0 0,1 7.5,0Z" style="opacity: 1; stroke-width: 0px; fill: rgb(0, 68, 148); fill-opacity: 0.25;"/><path class="point" transform="translate(149.44,296.64)" d="M7.5,0A7.5,7.5 0 1,1 0,-7.5A7.5,7.5 0 0,1 7.5,0Z" style="opacity: 1; stroke-width: 0px; fill: rgb(0, 68, 148); fill-opacity: 0.25;"/><path class="point" transform="translate(154.2,211.78)" d="M7.5,0A7.5,7.5 0 1,1 0,-7.5A7.5,7.5 0 0,1 7.5,0Z" style="opacity: 1; stroke-width: 0px; fill: rgb(0, 68, 148); fill-opacity: 0.25;"/><path class="point" transform="translate(166.42,302.3)" d="M7.5,0A7.5,7.5 0 1,1 0,-7.5A7.5,7.5 0 0,1 7.5,0Z" style="opacity: 1; stroke-width: 0px; fill: rgb(0, 68, 148); fill-opacity: 0.25;"/><path class="point" transform="translate(192.92,310.79)" d="M7.5,0A7.5,7.5 0 1,1 0,-7.5A7.5,7.5 0 0,1 7.5,0Z" style="opacity: 1; stroke-width: 0px; fill: rgb(0, 68, 148); fill-opacity: 0.25;"/><path class="point" transform="translate(205.14,310.79)" d="M7.5,0A7.5,7.5 0 1,1 0,-7.5A7.5,7.5 0 0,1 7.5,0Z" style="opacity: 1; stroke-width: 0px; fill: rgb(0, 68, 148); fill-opacity: 0.25;"/><path class="point" transform="translate(216.69,254.21)" d="M7.5,0A7.5,7.5 0 1,1 0,-7.5A7.5,7.5 0 0,1 7.5,0Z" style="opacity: 1; stroke-width: 0px; fill: rgb(0, 68, 148); fill-opacity: 0.25;"/><path class="point" transform="translate(224.16,329.17)" d="M7.5,0A7.5,7.5 0 1,1 0,-7.5A7.5,7.5 0 0,1 7.5,0Z" style="opacity: 1; stroke-width: 0px; fill: rgb(0, 68, 148); fill-opacity: 0.25;"/><path class="point" transform="translate(211.26,303.71)" d="M7.5,0A7.5,7.5 0 1,1 0,-7.5A7.5,7.5 0 0,1 7.5,0Z" style="opacity: 1; stroke-width: 0px; fill: rgb(0, 68, 148); fill-opacity: 0.25;"/><path class="point" transform="translate(235.71,275.43)" d="M7.5,0A7.5,7.5 0 1,1 0,-7.5A7.5,7.5 0 0,1 7.5,0Z" style="opacity: 1; stroke-width: 0px; fill: rgb(0, 68, 148); fill-opacity: 0.25;"/><path class="point" transform="translate(231.64,303.71)" d="M7.5,0A7.5,7.5 0 1,1 0,-7.5A7.5,7.5 0 0,1 7.5,0Z" style="opacity: 1; stroke-width: 0px; fill: rgb(0, 68, 148); fill-opacity: 0.25;"/></g><g class="text"/></g><g class="trace scatter trace5662d6" style="stroke-miterlimit: 2; opacity: 1;"><g class="fills"/><g class="errorbars"/><g class="lines"><path class="js-line" d="M0,394.32Q12.51,395.71 21.74,394.5C38.77,392.26 76.91,374.38 93.06,374.81C101.47,375.03 105.89,381.34 112.08,381.16C118.11,380.98 123.65,376.23 129.74,374.08C136.08,371.85 145.09,369.14 149.44,368.07C151.55,367.55 152.29,367.78 154.2,367.17C157.38,366.15 161.46,363.23 166.42,361.54C173.47,359.14 185.74,356.6 192.92,355.51C197.74,354.78 201.12,354.69 205.14,354.56C209.04,354.43 213.27,354.99 216.69,354.71C219.46,354.48 224.18,353.63 224.16,353.36C224.13,353.01 211.3,352.78 211.26,353.21C211.2,353.81 235.68,357.9 235.71,357.77Q235.72,357.72 231.64,356.77" style="vector-effect: non-scaling-stroke; fill: none; stroke: rgb(234, 35, 41); stroke-opacity: 1; stroke-width: 7px; opacity: 1;"/></g><g class="points"/><g class="text"/></g><g class="trace scatter trace52e804" style="stroke-miterlimit: 2; opacity: 1;"><g class="fills"/><g class="errorbars"/><g class="lines"/><g class="points"><path class="point" transform="translate(0,394.23)" d="M7.5,0A7.5,7.5 0 1,1 0,-7.5A7.5,7.5 0 0,1 7.5,0Z" style="opacity: 1; stroke-width: 0px; fill: rgb(234, 35, 41); fill-opacity: 0.25;"/><path class="point" transform="translate(21.74,395.64)" d="M7.5,0A7.5,7.5 0 1,1 0,-7.5A7.5,7.5 0 0,1 7.5,0Z" style="opacity: 1; stroke-width: 0px; fill: rgb(234, 35, 41); fill-opacity: 0.25;"/><path class="point" transform="translate(93.06,367.36)" d="M7.5,0A7.5,7.5 0 1,1 0,-7.5A7.5,7.5 0 0,1 7.5,0Z" style="opacity: 1; stroke-width: 0px; fill: rgb(234, 35, 41); fill-opacity: 0.25;"/><path class="point" transform="translate(112.08,395.64)" d="M7.5,0A7.5,7.5 0 1,1 0,-7.5A7.5,7.5 0 0,1 7.5,0Z" style="opacity: 1; stroke-width: 0px; fill: rgb(234, 35, 41); fill-opacity: 0.25;"/><path class="point" transform="translate(129.74,374.43)" d="M7.5,0A7.5,7.5 0 1,1 0,-7.5A7.5,7.5 0 0,1 7.5,0Z" style="opacity: 1; stroke-width: 0px; fill: rgb(234, 35, 41); fill-opacity: 0.25;"/><path class="point" transform="translate(149.44,367.36)" d="M7.5,0A7.5,7.5 0 1,1 0,-7.5A7.5,7.5 0 0,1 7.5,0Z" style="opacity: 1; stroke-width: 0px; fill: rgb(234, 35, 41); fill-opacity: 0.25;"/><path class="point" transform="translate(154.2,374.43)" d="M7.5,0A7.5,7.5 0 1,1 0,-7.5A7.5,7.5 0 0,1 7.5,0Z" style="opacity: 1; stroke-width: 0px; fill: rgb(234, 35, 41); fill-opacity: 0.25;"/><path class="point" transform="translate(166.42,353.21)" d="M7.5,0A7.5,7.5 0 1,1 0,-7.5A7.5,7.5 0 0,1 7.5,0Z" style="opacity: 1; stroke-width: 0px; fill: rgb(234, 35, 41); fill-opacity: 0.25;"/><path class="point" transform="translate(192.92,353.21)" d="M7.5,0A7.5,7.5 0 1,1 0,-7.5A7.5,7.5 0 0,1 7.5,0Z" style="opacity: 1; stroke-width: 0px; fill: rgb(234, 35, 41); fill-opacity: 0.25;"/><path class="point" transform="translate(205.14,361.7)" d="M7.5,0A7.5,7.5 0 1,1 0,-7.5A7.5,7.5 0 0,1 7.5,0Z" style="opacity: 1; stroke-width: 0px; fill: rgb(234, 35, 41); fill-opacity: 0.25;"/><path class="point" transform="translate(216.69,374.43)" d="M7.5,0A7.5,7.5 0 1,1 0,-7.5A7.5,7.5 0 0,1 7.5,0Z" style="opacity: 1; stroke-width: 0px; fill: rgb(234, 35, 41); fill-opacity: 0.25;"/><path class="point" transform="translate(224.16,327.76)" d="M7.5,0A7.5,7.5 0 1,1 0,-7.5A7.5,7.5 0 0,1 7.5,0Z" style="opacity: 1; stroke-width: 0px; fill: rgb(234, 35, 41); fill-opacity: 0.25;"/><path class="point" transform="translate(211.26,332)" d="M7.5,0A7.5,7.5 0 1,1 0,-7.5A7.5,7.5 0 0,1 7.5,0Z" style="opacity: 1; stroke-width: 0px; fill: rgb(234, 35, 41); fill-opacity: 0.25;"/><path class="point" transform="translate(235.71,367.36)" d="M7.5,0A7.5,7.5 0 1,1 0,-7.5A7.5,7.5 0 0,1 7.5,0Z" style="opacity: 1; stroke-width: 0px; fill: rgb(234, 35, 41); fill-opacity: 0.25;"/><path class="point" transform="translate(231.64,367.36)" d="M7.5,0A7.5,7.5 0 1,1 0,-7.5A7.5,7.5 0 0,1 7.5,0Z" style="opacity: 1; stroke-width: 0px; fill: rgb(234, 35, 41); fill-opacity: 0.25;"/></g><g class="text"/></g><g class="trace scatter trace148f9d" style="stroke-miterlimit: 2; opacity: 1;"><g class="fills"/><g class="errorbars"/><g class="lines"><path class="js-line" d="M0,401.38Q12.12,408.81 21.74,411.92C38.4,417.3 76.83,422.6 93.06,424.44C101.38,425.38 105.86,424.96 112.08,425.43C118.08,425.89 124.19,429.32 129.74,427.21C136.85,424.51 144.94,409.62 149.44,405.81C151.43,404.13 152.33,404.2 154.2,402.71C157.43,400.13 161.02,393.33 166.42,390.86C173.17,387.77 185.78,388.39 192.92,388.52C197.78,388.61 201.13,389.53 205.14,390.06C209.05,390.58 213.25,391.45 216.69,391.68C219.44,391.86 224.14,391.88 224.16,391.64C224.19,391.32 211.24,389.65 211.26,389.46C211.29,389.2 235.63,392.12 235.71,391.69Q235.74,391.51 231.64,390.55" style="vector-effect: non-scaling-stroke; fill: none; stroke: rgb(0, 0, 0); stroke-opacity: 1; stroke-width: 7px; opacity: 1;"/></g><g class="points"/><g class="text"/></g><g class="trace scatter trace0fa921" style="stroke-miterlimit: 2; opacity: 1;"><g class="fills"/><g class="errorbars"/><g class="lines"/><g class="points"><path class="point" transform="translate(0,395.64)" d="M7.5,0A7.5,7.5 0 1,1 0,-7.5A7.5,7.5 0 0,1 7.5,0Z" style="opacity: 1; stroke-width: 0px; fill: rgb(0, 0, 0); fill-opacity: 0.25;"/><path class="point" transform="translate(21.74,416.86)" d="M7.5,0A7.5,7.5 0 1,1 0,-7.5A7.5,7.5 0 0,1 7.5,0Z" style="opacity: 1; stroke-width: 0px; fill: rgb(0, 0, 0); fill-opacity: 0.25;"/><path class="point" transform="translate(93.06,423.93)" d="M7.5,0A7.5,7.5 0 1,1 0,-7.5A7.5,7.5 0 0,1 7.5,0Z" style="opacity: 1; stroke-width: 0px; fill: rgb(0, 0, 0); fill-opacity: 0.25;"/><path class="point" transform="translate(112.08,423.93)" d="M7.5,0A7.5,7.5 0 1,1 0,-7.5A7.5,7.5 0 0,1 7.5,0Z" style="opacity: 1; stroke-width: 0px; fill: rgb(0, 0, 0); fill-opacity: 0.25;"/><path class="point" transform="translate(129.74,459.29)" d="M7.5,0A7.5,7.5 0 1,1 0,-7.5A7.5,7.5 0 0,1 7.5,0Z" style="opacity: 1; stroke-width: 0px; fill: rgb(0, 0, 0); fill-opacity: 0.25;"/><path class="point" transform="translate(149.44,402.71)" d="M7.5,0A7.5,7.5 0 1,1 0,-7.5A7.5,7.5 0 0,1 7.5,0Z" style="opacity: 1; stroke-width: 0px; fill: rgb(0, 0, 0); fill-opacity: 0.25;"/><path class="point" transform="translate(154.2,409.79)" d="M7.5,0A7.5,7.5 0 1,1 0,-7.5A7.5,7.5 0 0,1 7.5,0Z" style="opacity: 1; stroke-width: 0px; fill: rgb(0, 0, 0); fill-opacity: 0.25;"/><path class="point" transform="translate(166.42,363.11)" d="M7.5,0A7.5,7.5 0 1,1 0,-7.5A7.5,7.5 0 0,1 7.5,0Z" style="opacity: 1; stroke-width: 0px; fill: rgb(0, 0, 0); fill-opacity: 0.25;"/><path class="point" transform="translate(192.92,381.5)" d="M7.5,0A7.5,7.5 0 1,1 0,-7.5A7.5,7.5 0 0,1 7.5,0Z" style="opacity: 1; stroke-width: 0px; fill: rgb(0, 0, 0); fill-opacity: 0.25;"/><path class="point" transform="translate(205.14,398.47)" d="M7.5,0A7.5,7.5 0 1,1 0,-7.5A7.5,7.5 0 0,1 7.5,0Z" style="opacity: 1; stroke-width: 0px; fill: rgb(0, 0, 0); fill-opacity: 0.25;"/><path class="point" transform="translate(216.69,409.79)" d="M7.5,0A7.5,7.5 0 1,1 0,-7.5A7.5,7.5 0 0,1 7.5,0Z" style="opacity: 1; stroke-width: 0px; fill: rgb(0, 0, 0); fill-opacity: 0.25;"/><path class="point" transform="translate(224.16,397.06)" d="M7.5,0A7.5,7.5 0 1,1 0,-7.5A7.5,7.5 0 0,1 7.5,0Z" style="opacity: 1; stroke-width: 0px; fill: rgb(0, 0, 0); fill-opacity: 0.25;"/><path class="point" transform="translate(211.26,367.36)" d="M7.5,0A7.5,7.5 0 1,1 0,-7.5A7.5,7.5 0 0,1 7.5,0Z" style="opacity: 1; stroke-width: 0px; fill: rgb(0, 0, 0); fill-opacity: 0.25;"/><path class="point" transform="translate(235.71,402.71)" d="M7.5,0A7.5,7.5 0 1,1 0,-7.5A7.5,7.5 0 0,1 7.5,0Z" style="opacity: 1; stroke-width: 0px; fill: rgb(0, 0, 0); fill-opacity: 0.25;"/><path class="point" transform="translate(231.64,374.43)" d="M7.5,0A7.5,7.5 0 1,1 0,-7.5A7.5,7.5 0 0,1 7.5,0Z" style="opacity: 1; stroke-width: 0px; fill: rgb(0, 0, 0); fill-opacity: 0.25;"/></g><g class="text"/></g><g class="trace scatter trace343295" style="stroke-miterlimit: 2; opacity: 1;"><g class="fills"/><g class="errorbars"/><g class="lines"><path class="js-line" d="M0,418.29Q8.64,378.45 21.74,371.62C37.28,363.53 77.14,378.78 93.06,384.18C101.72,387.12 105.9,390.64 112.08,394.06C118.12,397.4 123.97,399.97 129.74,404.44C136.47,409.65 145.16,419.62 149.44,424.18C151.61,426.49 152.19,427.47 154.2,429.56C157.28,432.77 161.12,438.05 166.42,441.26C173.23,445.38 185.71,448.44 192.92,450.18C197.71,451.34 201.12,451.95 205.14,452.01C209.04,452.07 213.26,450.99 216.69,450.63C219.45,450.34 224.14,449.81 224.16,449.97C224.19,450.19 211.32,452.88 211.26,452.65C211.18,452.34 235.51,444.73 235.71,445.2Q235.79,445.4 231.64,447.41" style="vector-effect: non-scaling-stroke; fill: none; stroke: rgb(93, 140, 0); stroke-opacity: 1; stroke-width: 7px; opacity: 1;"/></g><g class="points"/><g class="text"/></g><g class="trace scatter tracefb9dba" style="stroke-miterlimit: 2; opacity: 1;"><g class="fills"/><g class="errorbars"/><g class="lines"/><g class="points"><path class="point" transform="translate(0,443.73)" d="M7.5,0A7.5,7.5 0 1,1 0,-7.5A7.5,7.5 0 0,1 7.5,0Z" style="opacity: 1; stroke-width: 0px; fill: rgb(93, 140, 0); fill-opacity: 0.25;"/><path class="point" transform="translate(21.74,346.14)" d="M7.5,0A7.5,7.5 0 1,1 0,-7.5A7.5,7.5 0 0,1 7.5,0Z" style="opacity: 1; stroke-width: 0px; fill: rgb(93, 140, 0); fill-opacity: 0.25;"/><path class="point" transform="translate(93.06,374.43)" d="M7.5,0A7.5,7.5 0 1,1 0,-7.5A7.5,7.5 0 0,1 7.5,0Z" style="opacity: 1; stroke-width: 0px; fill: rgb(93, 140, 0); fill-opacity: 0.25;"/><path class="point" transform="translate(112.08,388.57)" d="M7.5,0A7.5,7.5 0 1,1 0,-7.5A7.5,7.5 0 0,1 7.5,0Z" style="opacity: 1; stroke-width: 0px; fill: rgb(93, 140, 0); fill-opacity: 0.25;"/><path class="point" transform="translate(129.74,388.57)" d="M7.5,0A7.5,7.5 0 1,1 0,-7.5A7.5,7.5 0 0,1 7.5,0Z" style="opacity: 1; stroke-width: 0px; fill: rgb(93, 140, 0); fill-opacity: 0.25;"/><path class="point" transform="translate(149.44,409.79)" d="M7.5,0A7.5,7.5 0 1,1 0,-7.5A7.5,7.5 0 0,1 7.5,0Z" style="opacity: 1; stroke-width: 0px; fill: rgb(93, 140, 0); fill-opacity: 0.25;"/><path class="point" transform="translate(154.2,438.07)" d="M7.5,0A7.5,7.5 0 1,1 0,-7.5A7.5,7.5 0 0,1 7.5,0Z" style="opacity: 1; stroke-width: 0px; fill: rgb(93, 140, 0); fill-opacity: 0.25;"/><path class="point" transform="translate(166.42,462.11)" d="M7.5,0A7.5,7.5 0 1,1 0,-7.5A7.5,7.5 0 0,1 7.5,0Z" style="opacity: 1; stroke-width: 0px; fill: rgb(93, 140, 0); fill-opacity: 0.25;"/><path class="point" transform="translate(192.92,452.21)" d="M7.5,0A7.5,7.5 0 1,1 0,-7.5A7.5,7.5 0 0,1 7.5,0Z" style="opacity: 1; stroke-width: 0px; fill: rgb(93, 140, 0); fill-opacity: 0.25;"/><path class="point" transform="translate(205.14,452.21)" d="M7.5,0A7.5,7.5 0 1,1 0,-7.5A7.5,7.5 0 0,1 7.5,0Z" style="opacity: 1; stroke-width: 0px; fill: rgb(93, 140, 0); fill-opacity: 0.25;"/><path class="point" transform="translate(216.69,438.07)" d="M7.5,0A7.5,7.5 0 1,1 0,-7.5A7.5,7.5 0 0,1 7.5,0Z" style="opacity: 1; stroke-width: 0px; fill: rgb(93, 140, 0); fill-opacity: 0.25;"/><path class="point" transform="translate(224.16,459.29)" d="M7.5,0A7.5,7.5 0 1,1 0,-7.5A7.5,7.5 0 0,1 7.5,0Z" style="opacity: 1; stroke-width: 0px; fill: rgb(93, 140, 0); fill-opacity: 0.25;"/><path class="point" transform="translate(211.26,473.43)" d="M7.5,0A7.5,7.5 0 1,1 0,-7.5A7.5,7.5 0 0,1 7.5,0Z" style="opacity: 1; stroke-width: 0px; fill: rgb(93, 140, 0); fill-opacity: 0.25;"/><path class="point" transform="translate(235.71,423.93)" d="M7.5,0A7.5,7.5 0 1,1 0,-7.5A7.5,7.5 0 0,1 7.5,0Z" style="opacity: 1; stroke-width: 0px; fill: rgb(93, 140, 0); fill-opacity: 0.25;"/><path class="point" transform="translate(231.64,452.21)" d="M7.5,0A7.5,7.5 0 1,1 0,-7.5A7.5,7.5 0 0,1 7.5,0Z" style="opacity: 1; stroke-width: 0px; fill: rgb(93, 140, 0); fill-opacity: 0.25;"/></g><g class="text"/></g><g class="trace scatter trace4ed197" style="stroke-miterlimit: 2; opacity: 1;"><g class="fills"/><g class="errorbars"/><g class="lines"><path class="js-line" d="M0,429.18Q12.49,429.42 21.74,431.02C38.75,433.96 77.21,442.92 93.06,449.85C101.82,453.68 105.79,458.24 112.08,461.93C118.02,465.42 123.51,470.52 129.74,471.51C135.96,472.49 145.1,468.44 149.44,467.86C151.56,467.58 152.27,467.83 154.2,467.47C157.35,466.88 161.51,464.73 166.42,463.84C173.51,462.55 185.77,462.13 192.92,461.98C197.77,461.88 201.13,462.06 205.14,462.31C209.05,462.55 213.27,463.58 216.69,463.44C219.46,463.32 224.17,462.11 224.16,462.07C224.15,462.01 211.24,463.85 211.26,464.04C211.29,464.3 235.62,463.05 235.71,462.21Q235.75,461.86 231.64,461.05" style="vector-effect: non-scaling-stroke; fill: none; stroke: rgb(114, 55, 105); stroke-opacity: 1; stroke-width: 7px; opacity: 1;"/></g><g class="points"/><g class="text"/></g><g class="trace scatter trace740e04" style="stroke-miterlimit: 2; opacity: 1;"><g class="fills"/><g class="errorbars"/><g class="lines"/><g class="points"><path class="point" transform="translate(0,428.17)" d="M7.5,0A7.5,7.5 0 1,1 0,-7.5A7.5,7.5 0 0,1 7.5,0Z" style="opacity: 1; stroke-width: 0px; fill: rgb(114, 55, 105); fill-opacity: 0.25;"/><path class="point" transform="translate(21.74,431)" d="M7.5,0A7.5,7.5 0 1,1 0,-7.5A7.5,7.5 0 0,1 7.5,0Z" style="opacity: 1; stroke-width: 0px; fill: rgb(114, 55, 105); fill-opacity: 0.25;"/><path class="point" transform="translate(93.06,438.07)" d="M7.5,0A7.5,7.5 0 1,1 0,-7.5A7.5,7.5 0 0,1 7.5,0Z" style="opacity: 1; stroke-width: 0px; fill: rgb(114, 55, 105); fill-opacity: 0.25;"/><path class="point" transform="translate(112.08,459.29)" d="M7.5,0A7.5,7.5 0 1,1 0,-7.5A7.5,7.5 0 0,1 7.5,0Z" style="opacity: 1; stroke-width: 0px; fill: rgb(114, 55, 105); fill-opacity: 0.25;"/><path class="point" transform="translate(129.74,487.57)" d="M7.5,0A7.5,7.5 0 1,1 0,-7.5A7.5,7.5 0 0,1 7.5,0Z" style="opacity: 1; stroke-width: 0px; fill: rgb(114, 55, 105); fill-opacity: 0.25;"/><path class="point" transform="translate(149.44,466.36)" d="M7.5,0A7.5,7.5 0 1,1 0,-7.5A7.5,7.5 0 0,1 7.5,0Z" style="opacity: 1; stroke-width: 0px; fill: rgb(114, 55, 105); fill-opacity: 0.25;"/><path class="point" transform="translate(154.2,473.43)" d="M7.5,0A7.5,7.5 0 1,1 0,-7.5A7.5,7.5 0 0,1 7.5,0Z" style="opacity: 1; stroke-width: 0px; fill: rgb(114, 55, 105); fill-opacity: 0.25;"/><path class="point" transform="translate(166.42,456.46)" d="M7.5,0A7.5,7.5 0 1,1 0,-7.5A7.5,7.5 0 0,1 7.5,0Z" style="opacity: 1; stroke-width: 0px; fill: rgb(114, 55, 105); fill-opacity: 0.25;"/><path class="point" transform="translate(192.92,459.29)" d="M7.5,0A7.5,7.5 0 1,1 0,-7.5A7.5,7.5 0 0,1 7.5,0Z" style="opacity: 1; stroke-width: 0px; fill: rgb(114, 55, 105); fill-opacity: 0.25;"/><path class="point" transform="translate(205.14,450.8)" d="M7.5,0A7.5,7.5 0 1,1 0,-7.5A7.5,7.5 0 0,1 7.5,0Z" style="opacity: 1; stroke-width: 0px; fill: rgb(114, 55, 105); fill-opacity: 0.25;"/><path class="point" transform="translate(216.69,466.36)" d="M7.5,0A7.5,7.5 0 1,1 0,-7.5A7.5,7.5 0 0,1 7.5,0Z" style="opacity: 1; stroke-width: 0px; fill: rgb(114, 55, 105); fill-opacity: 0.25;"/><path class="point" transform="translate(224.16,459.29)" d="M7.5,0A7.5,7.5 0 1,1 0,-7.5A7.5,7.5 0 0,1 7.5,0Z" style="opacity: 1; stroke-width: 0px; fill: rgb(114, 55, 105); fill-opacity: 0.25;"/><path class="point" transform="translate(211.26,480.5)" d="M7.5,0A7.5,7.5 0 1,1 0,-7.5A7.5,7.5 0 0,1 7.5,0Z" style="opacity: 1; stroke-width: 0px; fill: rgb(114, 55, 105); fill-opacity: 0.25;"/><path class="point" transform="translate(235.71,473.43)" d="M7.5,0A7.5,7.5 0 1,1 0,-7.5A7.5,7.5 0 0,1 7.5,0Z" style="opacity: 1; stroke-width: 0px; fill: rgb(114, 55, 105); fill-opacity: 0.25;"/><path class="point" transform="translate(231.64,445.14)" d="M7.5,0A7.5,7.5 0 1,1 0,-7.5A7.5,7.5 0 0,1 7.5,0Z" style="opacity: 1; stroke-width: 0px; fill: rgb(114, 55, 105); fill-opacity: 0.25;"/></g><g class="text"/></g><g class="trace scatter trace539b49" style="stroke-miterlimit: 2; opacity: 1;"><g class="fills"/><g class="errorbars"/><g class="lines"><path class="js-line" d="M0,444.93Q11.09,463.95 21.74,467.89C37.79,473.82 77.05,458.2 93.06,460.4C101.61,461.58 105.74,466.64 112.08,467.95C117.97,469.17 123.7,468.1 129.74,468.5C136.13,468.92 145.12,469.84 149.44,470.47C151.58,470.78 152.24,471.3 154.2,471.39C157.32,471.53 161.57,470.21 166.42,470.16C173.56,470.08 185.8,471.28 192.92,472.26C197.8,472.93 201.11,474.45 205.14,474.68C209.03,474.9 213.26,474.15 216.69,473.75C219.46,473.43 224.16,472.62 224.16,472.62C224.16,472.62 211.27,474.66 211.26,474.57C211.24,474.45 235.36,469.09 235.71,469.98Q235.86,470.37 231.64,472.56" style="vector-effect: non-scaling-stroke; fill: none; stroke: rgb(230, 172, 33); stroke-opacity: 1; stroke-width: 7px; opacity: 1;"/></g><g class="points"/><g class="text"/></g><g class="trace scatter tracebcebe3" style="stroke-miterlimit: 2; opacity: 1;"><g class="fills"/><g class="errorbars"/><g class="lines"/><g class="points"><path class="point" transform="translate(0,432.41)" d="M7.5,0A7.5,7.5 0 1,1 0,-7.5A7.5,7.5 0 0,1 7.5,0Z" style="opacity: 1; stroke-width: 0px; fill: rgb(230, 172, 33); fill-opacity: 0.25;"/><path class="point" transform="translate(21.74,480.5)" d="M7.5,0A7.5,7.5 0 1,1 0,-7.5A7.5,7.5 0 0,1 7.5,0Z" style="opacity: 1; stroke-width: 0px; fill: rgb(230, 172, 33); fill-opacity: 0.25;"/><path class="point" transform="translate(93.06,452.21)" d="M7.5,0A7.5,7.5 0 1,1 0,-7.5A7.5,7.5 0 0,1 7.5,0Z" style="opacity: 1; stroke-width: 0px; fill: rgb(230, 172, 33); fill-opacity: 0.25;"/><path class="point" transform="translate(112.08,473.43)" d="M7.5,0A7.5,7.5 0 1,1 0,-7.5A7.5,7.5 0 0,1 7.5,0Z" style="opacity: 1; stroke-width: 0px; fill: rgb(230, 172, 33); fill-opacity: 0.25;"/><path class="point" transform="translate(129.74,466.36)" d="M7.5,0A7.5,7.5 0 1,1 0,-7.5A7.5,7.5 0 0,1 7.5,0Z" style="opacity: 1; stroke-width: 0px; fill: rgb(230, 172, 33); fill-opacity: 0.25;"/><path class="point" transform="translate(149.44,466.36)" d="M7.5,0A7.5,7.5 0 1,1 0,-7.5A7.5,7.5 0 0,1 7.5,0Z" style="opacity: 1; stroke-width: 0px; fill: rgb(230, 172, 33); fill-opacity: 0.25;"/><path class="point" transform="translate(154.2,480.5)" d="M7.5,0A7.5,7.5 0 1,1 0,-7.5A7.5,7.5 0 0,1 7.5,0Z" style="opacity: 1; stroke-width: 0px; fill: rgb(230, 172, 33); fill-opacity: 0.25;"/><path class="point" transform="translate(166.42,464.94)" d="M7.5,0A7.5,7.5 0 1,1 0,-7.5A7.5,7.5 0 0,1 7.5,0Z" style="opacity: 1; stroke-width: 0px; fill: rgb(230, 172, 33); fill-opacity: 0.25;"/><path class="point" transform="translate(192.92,466.36)" d="M7.5,0A7.5,7.5 0 1,1 0,-7.5A7.5,7.5 0 0,1 7.5,0Z" style="opacity: 1; stroke-width: 0px; fill: rgb(230, 172, 33); fill-opacity: 0.25;"/><path class="point" transform="translate(205.14,481.91)" d="M7.5,0A7.5,7.5 0 1,1 0,-7.5A7.5,7.5 0 0,1 7.5,0Z" style="opacity: 1; stroke-width: 0px; fill: rgb(230, 172, 33); fill-opacity: 0.25;"/><path class="point" transform="translate(216.69,473.43)" d="M7.5,0A7.5,7.5 0 1,1 0,-7.5A7.5,7.5 0 0,1 7.5,0Z" style="opacity: 1; stroke-width: 0px; fill: rgb(230, 172, 33); fill-opacity: 0.25;"/><path class="point" transform="translate(224.16,466.36)" d="M7.5,0A7.5,7.5 0 1,1 0,-7.5A7.5,7.5 0 0,1 7.5,0Z" style="opacity: 1; stroke-width: 0px; fill: rgb(230, 172, 33); fill-opacity: 0.25;"/><path class="point" transform="translate(211.26,480.5)" d="M7.5,0A7.5,7.5 0 1,1 0,-7.5A7.5,7.5 0 0,1 7.5,0Z" style="opacity: 1; stroke-width: 0px; fill: rgb(230, 172, 33); fill-opacity: 0.25;"/><path class="point" transform="translate(235.71,445.14)" d="M7.5,0A7.5,7.5 0 1,1 0,-7.5A7.5,7.5 0 0,1 7.5,0Z" style="opacity: 1; stroke-width: 0px; fill: rgb(230, 172, 33); fill-opacity: 0.25;"/><path class="point" transform="translate(231.64,494.64)" d="M7.5,0A7.5,7.5 0 1,1 0,-7.5A7.5,7.5 0 0,1 7.5,0Z" style="opacity: 1; stroke-width: 0px; fill: rgb(230, 172, 33); fill-opacity: 0.25;"/></g><g class="text"/></g><g class="trace scatter tracea7cedf" style="stroke-miterlimit: 2; opacity: 1;"><g class="fills"/><g class="errorbars"/><g class="lines"><path class="js-line" d="M0,466.34Q12.39,469.39 21.74,471.5C38.64,475.31 76.81,485.11 93.06,486.75C101.36,487.59 105.95,487.66 112.08,486.57C118.17,485.49 123.94,483.47 129.74,480.3C136.43,476.64 144.93,466.9 149.44,464.98C151.42,464.14 152.26,464.66 154.2,464.29C157.34,463.7 161.54,461.69 166.42,461.46C173.54,461.12 185.8,463.71 192.92,464.98C197.8,465.85 201.17,466.51 205.14,467.73C209.09,468.94 213.21,471.31 216.69,472.26C219.41,473 224.12,473.65 224.16,473.46C224.22,473.2 211.25,469.56 211.26,469.53C211.27,469.49 235.58,477.04 235.71,476.7Q235.76,476.56 231.64,474.84" style="vector-effect: non-scaling-stroke; fill: none; stroke: rgb(240, 125, 0); stroke-opacity: 1; stroke-width: 7px; opacity: 1;"/></g><g class="points"/><g class="text"/></g><g class="trace scatter traceec5a9b" style="stroke-miterlimit: 2; opacity: 1;"><g class="fills"/><g class="errorbars"/><g class="lines"/><g class="points"><path class="point" transform="translate(0,463.53)" d="M7.5,0A7.5,7.5 0 1,1 0,-7.5A7.5,7.5 0 0,1 7.5,0Z" style="opacity: 1; stroke-width: 0px; fill: rgb(240, 125, 0); fill-opacity: 0.25;"/><path class="point" transform="translate(21.74,473.43)" d="M7.5,0A7.5,7.5 0 1,1 0,-7.5A7.5,7.5 0 0,1 7.5,0Z" style="opacity: 1; stroke-width: 0px; fill: rgb(240, 125, 0); fill-opacity: 0.25;"/><path class="point" transform="translate(93.06,487.57)" d="M7.5,0A7.5,7.5 0 1,1 0,-7.5A7.5,7.5 0 0,1 7.5,0Z" style="opacity: 1; stroke-width: 0px; fill: rgb(240, 125, 0); fill-opacity: 0.25;"/><path class="point" transform="translate(112.08,494.64)" d="M7.5,0A7.5,7.5 0 1,1 0,-7.5A7.5,7.5 0 0,1 7.5,0Z" style="opacity: 1; stroke-width: 0px; fill: rgb(240, 125, 0); fill-opacity: 0.25;"/><path class="point" transform="translate(129.74,494.64)" d="M7.5,0A7.5,7.5 0 1,1 0,-7.5A7.5,7.5 0 0,1 7.5,0Z" style="opacity: 1; stroke-width: 0px; fill: rgb(240, 125, 0); fill-opacity: 0.25;"/><path class="point" transform="translate(149.44,452.21)" d="M7.5,0A7.5,7.5 0 1,1 0,-7.5A7.5,7.5 0 0,1 7.5,0Z" style="opacity: 1; stroke-width: 0px; fill: rgb(240, 125, 0); fill-opacity: 0.25;"/><path class="point" transform="translate(154.2,466.36)" d="M7.5,0A7.5,7.5 0 1,1 0,-7.5A7.5,7.5 0 0,1 7.5,0Z" style="opacity: 1; stroke-width: 0px; fill: rgb(240, 125, 0); fill-opacity: 0.25;"/><path class="point" transform="translate(166.42,450.8)" d="M7.5,0A7.5,7.5 0 1,1 0,-7.5A7.5,7.5 0 0,1 7.5,0Z" style="opacity: 1; stroke-width: 0px; fill: rgb(240, 125, 0); fill-opacity: 0.25;"/><path class="point" transform="translate(192.92,459.29)" d="M7.5,0A7.5,7.5 0 1,1 0,-7.5A7.5,7.5 0 0,1 7.5,0Z" style="opacity: 1; stroke-width: 0px; fill: rgb(240, 125, 0); fill-opacity: 0.25;"/><path class="point" transform="translate(205.14,462.11)" d="M7.5,0A7.5,7.5 0 1,1 0,-7.5A7.5,7.5 0 0,1 7.5,0Z" style="opacity: 1; stroke-width: 0px; fill: rgb(240, 125, 0); fill-opacity: 0.25;"/><path class="point" transform="translate(216.69,487.57)" d="M7.5,0A7.5,7.5 0 1,1 0,-7.5A7.5,7.5 0 0,1 7.5,0Z" style="opacity: 1; stroke-width: 0px; fill: rgb(240, 125, 0); fill-opacity: 0.25;"/><path class="point" transform="translate(224.16,473.43)" d="M7.5,0A7.5,7.5 0 1,1 0,-7.5A7.5,7.5 0 0,1 7.5,0Z" style="opacity: 1; stroke-width: 0px; fill: rgb(240, 125, 0); fill-opacity: 0.25;"/><path class="point" transform="translate(211.26,459.29)" d="M7.5,0A7.5,7.5 0 1,1 0,-7.5A7.5,7.5 0 0,1 7.5,0Z" style="opacity: 1; stroke-width: 0px; fill: rgb(240, 125, 0); fill-opacity: 0.25;"/><path class="point" transform="translate(235.71,494.64)" d="M7.5,0A7.5,7.5 0 1,1 0,-7.5A7.5,7.5 0 0,1 7.5,0Z" style="opacity: 1; stroke-width: 0px; fill: rgb(240, 125, 0); fill-opacity: 0.25;"/><path class="point" transform="translate(231.64,466.36)" d="M7.5,0A7.5,7.5 0 1,1 0,-7.5A7.5,7.5 0 0,1 7.5,0Z" style="opacity: 1; stroke-width: 0px; fill: rgb(240, 125, 0); fill-opacity: 0.25;"/></g><g class="text"/></g><g class="trace scatter tracec635ab" style="stroke-miterlimit: 2; opacity: 1;"><g class="fills"/><g class="errorbars"/><g class="lines"><path class="js-line" d="M0,471.69Q11.76,483.58 21.74,486.67C38.14,491.75 76.87,486.97 93.06,486.51C101.43,486.27 105.88,485.1 112.08,485.48C118.1,485.85 123.69,487.59 129.74,488.65C136.12,489.77 145.12,491.09 149.44,492C151.58,492.45 152.23,492.97 154.2,493.2C157.31,493.56 161.61,493.62 166.42,493C173.61,492.08 185.75,488.04 192.92,486.56C197.75,485.56 201.11,484.94 205.14,484.48C209.03,484.03 213.26,484.07 216.69,483.78C219.45,483.55 224.16,483.03 224.16,482.97C224.15,482.9 211.26,483.91 211.26,483.86C211.25,483.79 235.67,481.4 235.71,481.68Q235.73,481.8 231.64,482.54" style="vector-effect: non-scaling-stroke; fill: none; stroke: rgb(0, 51, 255); stroke-opacity: 1; stroke-width: 7px; opacity: 1;"/></g><g class="points"/><g class="text"/></g><g class="trace scatter tracedfdf7e" style="stroke-miterlimit: 2; opacity: 1;"><g class="fills"/><g class="errorbars"/><g class="lines"/><g class="points"><path class="point" transform="translate(0,463.53)" d="M7.5,0A7.5,7.5 0 1,1 0,-7.5A7.5,7.5 0 0,1 7.5,0Z" style="opacity: 1; stroke-width: 0px; fill: rgb(0, 51, 255); fill-opacity: 0.25;"/><path class="point" transform="translate(21.74,494.64)" d="M7.5,0A7.5,7.5 0 1,1 0,-7.5A7.5,7.5 0 0,1 7.5,0Z" style="opacity: 1; stroke-width: 0px; fill: rgb(0, 51, 255); fill-opacity: 0.25;"/><path class="point" transform="translate(93.06,487.57)" d="M7.5,0A7.5,7.5 0 1,1 0,-7.5A7.5,7.5 0 0,1 7.5,0Z" style="opacity: 1; stroke-width: 0px; fill: rgb(0, 51, 255); fill-opacity: 0.25;"/><path class="point" transform="translate(112.08,480.5)" d="M7.5,0A7.5,7.5 0 1,1 0,-7.5A7.5,7.5 0 0,1 7.5,0Z" style="opacity: 1; stroke-width: 0px; fill: rgb(0, 51, 255); fill-opacity: 0.25;"/><path class="point" transform="translate(129.74,487.57)" d="M7.5,0A7.5,7.5 0 1,1 0,-7.5A7.5,7.5 0 0,1 7.5,0Z" style="opacity: 1; stroke-width: 0px; fill: rgb(0, 51, 255); fill-opacity: 0.25;"/><path class="point" transform="translate(149.44,487.57)" d="M7.5,0A7.5,7.5 0 1,1 0,-7.5A7.5,7.5 0 0,1 7.5,0Z" style="opacity: 1; stroke-width: 0px; fill: rgb(0, 51, 255); fill-opacity: 0.25;"/><path class="point" transform="translate(154.2,501.71)" d="M7.5,0A7.5,7.5 0 1,1 0,-7.5A7.5,7.5 0 0,1 7.5,0Z" style="opacity: 1; stroke-width: 0px; fill: rgb(0, 51, 255); fill-opacity: 0.25;"/><path class="point" transform="translate(166.42,498.89)" d="M7.5,0A7.5,7.5 0 1,1 0,-7.5A7.5,7.5 0 0,1 7.5,0Z" style="opacity: 1; stroke-width: 0px; fill: rgb(0, 51, 255); fill-opacity: 0.25;"/><path class="point" transform="translate(192.92,487.57)" d="M7.5,0A7.5,7.5 0 1,1 0,-7.5A7.5,7.5 0 0,1 7.5,0Z" style="opacity: 1; stroke-width: 0px; fill: rgb(0, 51, 255); fill-opacity: 0.25;"/><path class="point" transform="translate(205.14,483.33)" d="M7.5,0A7.5,7.5 0 1,1 0,-7.5A7.5,7.5 0 0,1 7.5,0Z" style="opacity: 1; stroke-width: 0px; fill: rgb(0, 51, 255); fill-opacity: 0.25;"/><path class="point" transform="translate(216.69,487.57)" d="M7.5,0A7.5,7.5 0 1,1 0,-7.5A7.5,7.5 0 0,1 7.5,0Z" style="opacity: 1; stroke-width: 0px; fill: rgb(0, 51, 255); fill-opacity: 0.25;"/><path class="point" transform="translate(224.16,480.5)" d="M7.5,0A7.5,7.5 0 1,1 0,-7.5A7.5,7.5 0 0,1 7.5,0Z" style="opacity: 1; stroke-width: 0px; fill: rgb(0, 51, 255); fill-opacity: 0.25;"/><path class="point" transform="translate(211.26,480.5)" d="M7.5,0A7.5,7.5 0 1,1 0,-7.5A7.5,7.5 0 0,1 7.5,0Z" style="opacity: 1; stroke-width: 0px; fill: rgb(0, 51, 255); fill-opacity: 0.25;"/><path class="point" transform="translate(235.71,473.43)" d="M7.5,0A7.5,7.5 0 1,1 0,-7.5A7.5,7.5 0 0,1 7.5,0Z" style="opacity: 1; stroke-width: 0px; fill: rgb(0, 51, 255); fill-opacity: 0.25;"/><path class="point" transform="translate(231.64,487.57)" d="M7.5,0A7.5,7.5 0 1,1 0,-7.5A7.5,7.5 0 0,1 7.5,0Z" style="opacity: 1; stroke-width: 0px; fill: rgb(0, 51, 255); fill-opacity: 0.25;"/></g><g class="text"/></g><g class="trace scatter trace23b702" style="stroke-miterlimit: 2; opacity: 1;"><g class="fills"/><g class="errorbars"/><g class="lines"><path class="js-line" d="M0,479.71Q12.49,479.46 21.74,480.84C38.74,483.38 76.8,497.6 93.06,498.64C101.36,499.17 105.85,496.78 112.08,496.4C118.07,496.04 123.72,496.93 129.74,496.34C136.16,495.71 145.1,492.87 149.44,492.48C151.55,492.29 152.25,492.59 154.2,492.55C157.33,492.49 161.57,492.03 166.42,491.87C173.56,491.63 185.78,491.93 192.92,491.59C197.78,491.36 201.15,490.25 205.14,490.57C209.07,490.88 213.37,491.91 216.69,493.41C219.59,494.72 224.25,498.46 224.16,498.6C224.05,498.78 211.02,491.95 211.26,491.39C211.57,490.65 235.81,498.21 235.71,498.72Q235.67,498.93 231.64,498.41" style="vector-effect: non-scaling-stroke; fill: none; stroke: rgb(140, 0, 0); stroke-opacity: 1; stroke-width: 7px; opacity: 1;"/></g><g class="points"/><g class="text"/></g><g class="trace scatter trace52047d" style="stroke-miterlimit: 2; opacity: 1;"><g class="fills"/><g class="errorbars"/><g class="lines"/><g class="points"><path class="point" transform="translate(0,479.09)" d="M7.5,0A7.5,7.5 0 1,1 0,-7.5A7.5,7.5 0 0,1 7.5,0Z" style="opacity: 1; stroke-width: 0px; fill: rgb(140, 0, 0); fill-opacity: 0.25;"/><path class="point" transform="translate(21.74,480.5)" d="M7.5,0A7.5,7.5 0 1,1 0,-7.5A7.5,7.5 0 0,1 7.5,0Z" style="opacity: 1; stroke-width: 0px; fill: rgb(140, 0, 0); fill-opacity: 0.25;"/><path class="point" transform="translate(93.06,501.71)" d="M7.5,0A7.5,7.5 0 1,1 0,-7.5A7.5,7.5 0 0,1 7.5,0Z" style="opacity: 1; stroke-width: 0px; fill: rgb(140, 0, 0); fill-opacity: 0.25;"/><path class="point" transform="translate(112.08,494.64)" d="M7.5,0A7.5,7.5 0 1,1 0,-7.5A7.5,7.5 0 0,1 7.5,0Z" style="opacity: 1; stroke-width: 0px; fill: rgb(140, 0, 0); fill-opacity: 0.25;"/><path class="point" transform="translate(129.74,501.71)" d="M7.5,0A7.5,7.5 0 1,1 0,-7.5A7.5,7.5 0 0,1 7.5,0Z" style="opacity: 1; stroke-width: 0px; fill: rgb(140, 0, 0); fill-opacity: 0.25;"/><path class="point" transform="translate(149.44,487.57)" d="M7.5,0A7.5,7.5 0 1,1 0,-7.5A7.5,7.5 0 0,1 7.5,0Z" style="opacity: 1; stroke-width: 0px; fill: rgb(140, 0, 0); fill-opacity: 0.25;"/><path class="point" transform="translate(154.2,494.64)" d="M7.5,0A7.5,7.5 0 1,1 0,-7.5A7.5,7.5 0 0,1 7.5,0Z" style="opacity: 1; stroke-width: 0px; fill: rgb(140, 0, 0); fill-opacity: 0.25;"/><path class="point" transform="translate(166.42,490.4)" d="M7.5,0A7.5,7.5 0 1,1 0,-7.5A7.5,7.5 0 0,1 7.5,0Z" style="opacity: 1; stroke-width: 0px; fill: rgb(140, 0, 0); fill-opacity: 0.25;"/><path class="point" transform="translate(192.92,494.64)" d="M7.5,0A7.5,7.5 0 1,1 0,-7.5A7.5,7.5 0 0,1 7.5,0Z" style="opacity: 1; stroke-width: 0px; fill: rgb(140, 0, 0); fill-opacity: 0.25;"/><path class="point" transform="translate(205.14,481.91)" d="M7.5,0A7.5,7.5 0 1,1 0,-7.5A7.5,7.5 0 0,1 7.5,0Z" style="opacity: 1; stroke-width: 0px; fill: rgb(140, 0, 0); fill-opacity: 0.25;"/><path class="point" transform="translate(216.69,480.5)" d="M7.5,0A7.5,7.5 0 1,1 0,-7.5A7.5,7.5 0 0,1 7.5,0Z" style="opacity: 1; stroke-width: 0px; fill: rgb(140, 0, 0); fill-opacity: 0.25;"/><path class="point" transform="translate(211.26,480.5)" d="M7.5,0A7.5,7.5 0 1,1 0,-7.5A7.5,7.5 0 0,1 7.5,0Z" style="opacity: 1; stroke-width: 0px; fill: rgb(140, 0, 0); fill-opacity: 0.25;"/><path class="point" transform="translate(235.71,501.71)" d="M7.5,0A7.5,7.5 0 1,1 0,-7.5A7.5,7.5 0 0,1 7.5,0Z" style="opacity: 1; stroke-width: 0px; fill: rgb(140, 0, 0); fill-opacity: 0.25;"/><path class="point" transform="translate(231.64,494.64)" d="M7.5,0A7.5,7.5 0 1,1 0,-7.5A7.5,7.5 0 0,1 7.5,0Z" style="opacity: 1; stroke-width: 0px; fill: rgb(140, 0, 0); fill-opacity: 0.25;"/></g><g class="text"/></g></g></g><g class="overplot"/><path class="xlines-above crisp" d="M0,0" style="fill: none;"/><path class="ylines-above crisp" d="M0,0" style="fill: none;"/><g class="overlines-above"/><g class="xaxislayer-above"><g class="xtick"><text text-anchor="middle" x="0" y="563" transform="translate(107.06,0)" style="font-family: 'Open Sans', verdana, arial, sans-serif; font-size: 12px; fill: rgb(42, 63, 95); fill-opacity: 1; white-space: pre; opacity: 1;">1.1.22</text></g><g class="xtick"><text text-anchor="middle" x="0" y="563" style="font-family: 'Open Sans', verdana, arial, sans-serif; font-size: 12px; fill: rgb(42, 63, 95); fill-opacity: 1; white-space: pre; opacity: 1;" transform="translate(230.01,0)">1.7.22</text></g><g class="xtick"><text text-anchor="middle" x="0" y="563" style="font-family: 'Open Sans', verdana, arial, sans-serif; font-size: 12px; fill: rgb(42, 63, 95); fill-opacity: 1; white-space: pre; opacity: 1;" transform="translate(355,0)">1.1.23</text></g><g class="xtick"><text text-anchor="middle" x="0" y="563" style="font-family: 'Open Sans', verdana, arial, sans-serif; font-size: 12px; fill: rgb(42, 63, 95); fill-opacity: 1; white-space: pre; opacity: 1;" transform="translate(477.95,0)">1.7.23</text></g><g class="xtick"><text text-anchor="middle" x="0" y="563" style="font-family: 'Open Sans', verdana, arial, sans-serif; font-size: 12px; fill: rgb(42, 63, 95); fill-opacity: 1; white-space: pre; opacity: 1;" transform="translate(602.94,0)">1.1.24</text></g><g class="xtick"><text text-anchor="middle" x="0" y="563" style="font-family: 'Open Sans', verdana, arial, sans-serif; font-size: 12px; fill: rgb(42, 63, 95); fill-opacity: 1; white-space: pre; opacity: 1;" transform="translate(726.57,0)">1.7.24</text></g><g class="xtick"><text text-anchor="middle" x="0" y="563" style="font-family: 'Open Sans', verdana, arial, sans-serif; font-size: 12px; fill: rgb(42, 63, 95); fill-opacity: 1; white-space: pre; opacity: 1;" transform="translate(851.56,0)">1.1.25</text></g><g class="xtick"><text text-anchor="middle" x="0" y="563" style="font-family: 'Open Sans', verdana, arial, sans-serif; font-size: 12px; fill: rgb(42, 63, 95); fill-opacity: 1; white-space: pre; opacity: 1;" transform="translate(974.51,0)">1.7.25</text></g></g><g class="yaxislayer-above"><g class="ytick"><text text-anchor="end" x="49" y="4.199999999999999" transform="translate(0,550)" style="font-family: 'Open Sans', verdana, arial, sans-serif; font-size: 12px; fill: rgb(42, 63, 95); fill-opacity: 1; white-space: pre; opacity: 1;">0%</text></g><g class="ytick"><text text-anchor="end" x="49" y="4.199999999999999" style="font-family: 'Open Sans', verdana, arial, sans-serif; font-size: 12px; fill: rgb(42, 63, 95); fill-opacity: 1; white-space: pre; opacity: 1;" transform="translate(0,479.29)">5%</text></g><g class="ytick"><text text-anchor="end" x="49" y="4.199999999999999" style="font-family: 'Open Sans', verdana, arial, sans-serif; font-size: 12px; fill: rgb(42, 63, 95); fill-opacity: 1; white-space: pre; opacity: 1;" transform="translate(0,408.57)">10%</text></g><g class="ytick"><text text-anchor="end" x="49" y="4.199999999999999" style="font-family: 'Open Sans', verdana, arial, sans-serif; font-size: 12px; fill: rgb(42, 63, 95); fill-opacity: 1; white-space: pre; opacity: 1;" transform="translate(0,337.86)">15%</text></g><g class="ytick"><text text-anchor="end" x="49" y="4.199999999999999" style="font-family: 'Open Sans', verdana, arial, sans-serif; font-size: 12px; fill: rgb(42, 63, 95); fill-opacity: 1; white-space: pre; opacity: 1;" transform="translate(0,267.14)">20%</text></g><g class="ytick"><text text-anchor="end" x="49" y="4.199999999999999" style="font-family: 'Open Sans', verdana, arial, sans-serif; font-size: 12px; fill: rgb(42, 63, 95); fill-opacity: 1; white-space: pre; opacity: 1;" transform="translate(0,196.43)">25%</text></g><g class="ytick"><text text-anchor="end" x="49" y="4.199999999999999" style="font-family: 'Open Sans', verdana, arial, sans-serif; font-size: 12px; fill: rgb(42, 63, 95); fill-opacity: 1; white-space: pre; opacity: 1;" transform="translate(0,125.71)">30%</text></g><g class="ytick"><text text-anchor="end" x="49" y="4.199999999999999" style="font-family: 'Open Sans', verdana, arial, sans-serif; font-size: 12px; fill: rgb(42, 63, 95); fill-opacity: 1; white-space: pre; opacity: 1;" transform="translate(0,55)">35%</text></g></g><g class="overaxes-above"/></g></g><g class="polarlayer"/><g class="smithlayer"/><g class="ternarylayer"/><g class="geolayer"/><g class="funnelarealayer"/><g class="pielayer"/><g class="iciclelayer"/><g class="treemaplayer"/><g class="sunburstlayer"/><g class="glimages"/><defs id="topdefs-cbf577"><g class="clips"/><clipPath id="legendcbf577"><rect width="131" height="200" x="0" y="0"/></clipPath></defs><g class="layer-above"><g class="imagelayer"/><g class="shapelayer"/></g><g class="infolayer"><g class="legend" pointer-events="all" transform="translate(1056.74,20)"><rect class="bg" shape-rendering="crispEdges" style="stroke: rgb(68, 68, 68); stroke-opacity: 1; fill: rgb(255, 255, 255); fill-opacity: 1; stroke-width: 0px;" width="131" height="200" x="0" y="0"/><g class="scrollbox" transform="" clip-path="url(#legendcbf577)"><g class="groups"><g class="traces" transform="translate(0,14.5)" style="opacity: 1;"><text class="legendtext" text-anchor="start" x="40" y="4.680000000000001" style="font-family: 'Open Sans', verdana, arial, sans-serif; font-size: 12px; fill: rgb(42, 63, 95); fill-opacity: 1; white-space: pre;">ANO: 30%</text><g class="layers" style="opacity: 1;"><g class="legendfill"/><g class="legendlines"><path class="js-line" d="M5,0h30" style="fill: none; stroke: rgb(38, 16, 96); stroke-opacity: 1; stroke-width: 7px;"/></g><g class="legendsymbols"><g class="legendpoints"/></g></g><rect class="legendtoggle" x="0" y="-9.5" width="125.359375" height="19" style="fill: rgb(0, 0, 0); fill-opacity: 0;"/></g><g class="traces" transform="translate(0,33.5)" style="opacity: 1;"><text class="legendtext" text-anchor="start" x="40" y="4.680000000000001" style="font-family: 'Open Sans', verdana, arial, sans-serif; font-size: 12px; fill: rgb(42, 63, 95); fill-opacity: 1; white-space: pre;">ODS: 17%</text><g class="layers" style="opacity: 1;"><g class="legendfill"/><g class="legendlines"><path class="js-line" d="M5,0h30" style="fill: none; stroke: rgb(0, 68, 148); stroke-opacity: 1; stroke-width: 7px;"/></g><g class="legendsymbols"><g class="legendpoints"/></g></g><rect class="legendtoggle" x="0" y="-9.5" width="125.359375" height="19" style="fill: rgb(0, 0, 0); fill-opacity: 0;"/></g><g class="traces" transform="translate(0,52.5)" style="opacity: 1;"><text class="legendtext" text-anchor="start" x="40" y="4.680000000000001" style="font-family: 'Open Sans', verdana, arial, sans-serif; font-size: 12px; fill: rgb(42, 63, 95); fill-opacity: 1; white-space: pre;">SPD: 12%</text><g class="layers" style="opacity: 1;"><g class="legendfill"/><g class="legendlines"><path class="js-line" d="M5,0h30" style="fill: none; stroke: rgb(234, 35, 41); stroke-opacity: 1; stroke-width: 7px;"/></g><g class="legendsymbols"><g class="legendpoints"/></g></g><rect class="legendtoggle" x="0" y="-9.5" width="125.359375" height="19" style="fill: rgb(0, 0, 0); fill-opacity: 0;"/></g><g class="traces" transform="translate(0,71.5)" style="opacity: 1;"><text class="legendtext" text-anchor="start" x="40" y="4.680000000000001" style="font-family: 'Open Sans', verdana, arial, sans-serif; font-size: 12px; fill: rgb(42, 63, 95); fill-opacity: 1; white-space: pre;">Pirti: 10%</text><g class="layers" style="opacity: 1;"><g class="legendfill"/><g class="legendlines"><path class="js-line" d="M5,0h30" style="fill: none; stroke: rgb(0, 0, 0); stroke-opacity: 1; stroke-width: 7px;"/></g><g class="legendsymbols"><g class="legendpoints"/></g></g><rect class="legendtoggle" x="0" y="-9.5" width="125.359375" height="19" style="fill: rgb(0, 0, 0); fill-opacity: 0;"/></g><g class="traces" transform="translate(0,90.5)" style="opacity: 1;"><text class="legendtext" text-anchor="start" x="40" y="4.680000000000001" style="font-family: 'Open Sans', verdana, arial, sans-serif; font-size: 12px; fill: rgb(42, 63, 95); fill-opacity: 1; white-space: pre;">STAN: 6%</text><g class="layers" style="opacity: 1;"><g class="legendfill"/><g class="legendlines"><path class="js-line" d="M5,0h30" style="fill: none; stroke: rgb(93, 140, 0); stroke-opacity: 1; stroke-width: 7px;"/></g><g class="legendsymbols"><g class="legendpoints"/></g></g><rect class="legendtoggle" x="0" y="-9.5" width="125.359375" height="19" style="fill: rgb(0, 0, 0); fill-opacity: 0;"/></g><g class="traces" transform="translate(0,109.5)" style="opacity: 1;"><text class="legendtext" text-anchor="start" x="40" y="4.680000000000001" style="font-family: 'Open Sans', verdana, arial, sans-serif; font-size: 12px; fill: rgb(42, 63, 95); fill-opacity: 1; white-space: pre;">TOP 09: 5%</text><g class="layers" style="opacity: 1;"><g class="legendfill"/><g class="legendlines"><path class="js-line" d="M5,0h30" style="fill: none; stroke: rgb(114, 55, 105); stroke-opacity: 1; stroke-width: 7px;"/></g><g class="legendsymbols"><g class="legendpoints"/></g></g><rect class="legendtoggle" x="0" y="-9.5" width="125.359375" height="19" style="fill: rgb(0, 0, 0); fill-opacity: 0;"/></g><g class="traces" transform="translate(0,128.5)" style="opacity: 1;"><text class="legendtext" text-anchor="start" x="40" y="4.680000000000001" style="font-family: 'Open Sans', verdana, arial, sans-serif; font-size: 12px; fill: rgb(42, 63, 95); fill-opacity: 1; white-space: pre;">KDU-SL: 4%</text><g class="layers" style="opacity: 1;"><g class="legendfill"/><g class="legendlines"><path class="js-line" d="M5,0h30" style="fill: none; stroke: rgb(230, 172, 33); stroke-opacity: 1; stroke-width: 7px;"/></g><g class="legendsymbols"><g class="legendpoints"/></g></g><rect class="legendtoggle" x="0" y="-9.5" width="125.359375" height="19" style="fill: rgb(0, 0, 0); fill-opacity: 0;"/></g><g class="traces" transform="translate(0,147.5)" style="opacity: 1;"><text class="legendtext" text-anchor="start" x="40" y="4.680000000000001" style="font-family: 'Open Sans', verdana, arial, sans-serif; font-size: 12px; fill: rgb(42, 63, 95); fill-opacity: 1; white-space: pre;">SSD: 4%</text><g class="layers" style="opacity: 1;"><g class="legendfill"/><g class="legendlines"><path class="js-line" d="M5,0h30" style="fill: none; stroke: rgb(240, 125, 0); stroke-opacity: 1; stroke-width: 7px;"/></g><g class="legendsymbols"><g class="legendpoints"/></g></g><rect class="legendtoggle" x="0" y="-9.5" width="125.359375" height="19" style="fill: rgb(0, 0, 0); fill-opacity: 0;"/></g><g class="traces" transform="translate(0,166.5)" style="opacity: 1;"><text class="legendtext" text-anchor="start" x="40" y="4.680000000000001" style="font-family: 'Open Sans', verdana, arial, sans-serif; font-size: 12px; fill: rgb(42, 63, 95); fill-opacity: 1; white-space: pre;">Psaha: 3%</text><g class="layers" style="opacity: 1;"><g class="legendfill"/><g class="legendlines"><path class="js-line" d="M5,0h30" style="fill: none; stroke: rgb(0, 51, 255); stroke-opacity: 1; stroke-width: 7px;"/></g><g class="legendsymbols"><g class="legendpoints"/></g></g><rect class="legendtoggle" x="0" y="-9.5" width="125.359375" height="19" style="fill: rgb(0, 0, 0); fill-opacity: 0;"/></g><g class="traces" transform="translate(0,185.5)" style="opacity: 1;"><text class="legendtext" text-anchor="start" x="40" y="4.680000000000001" style="font-family: 'Open Sans', verdana, arial, sans-serif; font-size: 12px; fill: rgb(42, 63, 95); fill-opacity: 1; white-space: pre;">KSM: 2%</text><g class="layers" style="opacity: 1;"><g class="legendfill"/><g class="legendlines"><path class="js-line" d="M5,0h30" style="fill: none; stroke: rgb(140, 0, 0); stroke-opacity: 1; stroke-width: 7px;"/></g><g class="legendsymbols"><g class="legendpoints"/></g></g><rect class="legendtoggle" x="0" y="-9.5" width="125.359375" height="19" style="fill: rgb(0, 0, 0); fill-opacity: 0;"/></g></g></g><rect class="scrollbar" rx="20" ry="3" width="0" height="0" style="fill: rgb(128, 139, 164); fill-opacity: 1;" x="0" y="0"/></g><g class="g-gtitle"/><g class="g-xtitle"/><g class="g-ytitle"/></g></svg>