<svg class="main-svg" xmlns="http://www.w3.org/2000/svg" xmlns:xlink="http://www.w3.org/1999/xlink" width="300" height="135" style="" viewBox="0 0 300 135"><rect x="0" y="0" width="300" height="135" style="fill: rgb(255, 255, 255); fill-opacity: 1;"/><defs id="defs-482d4b"><g class="clips"><clipPath id="clip482d4bxyplot" class="plotclip"><rect width="280" height="75"/></clipPath><clipPath class="axesclip" id="clip482d4bx"><rect x="10" y="0" width="280" height="135"/></clipPath><clipPath class="axesclip" id="clip482d4by"><rect x="0" y="50" width="300" height="75"/></clipPath><clipPath class="axesclip" id="clip482d4bxy"><rect x="10" y="50" width="280" height="75"/></clipPath></g><g class="gradients"/><g class="patterns"/></defs><g class="bglayer"/><g class="layer-below"><g class="imagelayer"/><g class="shapelayer"/></g><g class="cartesianlayer"><g class="subplot xy"><g class="layer-subplot"><g class="shapelayer"/><g class="imagelayer"/></g><g class="minor-gridlayer"><g class="x"/><g class="y"/></g><g class="gridlayer"><g class="x"><path class="xgrid crisp" transform="translate(46.24,0)" d="M0,50v75" style="stroke: rgb(235, 240, 248); stroke-opacity: 1; stroke-width: 1px;"/><path class="xgrid crisp" transform="translate(124.33,0)" d="M0,50v75" style="stroke: rgb(235, 240, 248); stroke-opacity: 1; stroke-width: 1px;"/><path class="xgrid crisp" transform="translate(203.71,0)" d="M0,50v75" style="stroke: rgb(235, 240, 248); stroke-opacity: 1; stroke-width: 1px;"/><path class="xgrid crisp" transform="translate(281.8,0)" d="M0,50v75" style="stroke: rgb(235, 240, 248); stroke-opacity: 1; stroke-width: 1px;"/></g><g class="y"><path class="ygrid crisp" transform="translate(0,103.97)" d="M10,0h280" style="stroke: rgb(235, 240, 248); stroke-opacity: 1; stroke-width: 1px;"/><path class="ygrid crisp" transform="translate(0,82.93)" d="M10,0h280" style="stroke: rgb(235, 240, 248); stroke-opacity: 1; stroke-width: 1px;"/><path class="ygrid crisp" transform="translate(0,61.9)" d="M10,0h280" style="stroke: rgb(235, 240, 248); stroke-opacity: 1; stroke-width: 1px;"/></g></g><g class="zerolinelayer"><path class="yzl zl crisp" transform="translate(0,125)" d="M10,0h280" style="stroke: rgb(235, 240, 248); stroke-opacity: 1; stroke-width: 2px;"/></g><path class="xlines-below"/><path class="ylines-below"/><g class="overlines-below"/><g class="xaxislayer-below"/><g class="yaxislayer-below"/><g class="overaxes-below"/><g class="plot" transform="translate(10,50)" clip-path="url(#clip482d4bxyplot)"><g class="scatterlayer mlayer"><g class="trace scatter tracef780e0" style="stroke-miterlimit: 2; opacity: 1;"><g class="fills"/><g class="errorbars"/><g class="lines"><path class="js-line" d="M0,18Q7.88,18.06 13.81,18.22C24.55,18.51 48.86,20.72 59.11,19.95C64.45,19.55 67.23,18.22 71.19,17.65C74.98,17.11 78.56,16.96 82.4,16.58C86.46,16.18 92.17,15.54 94.92,15.32C96.27,15.21 96.7,15.25 97.94,15.14C99.93,14.97 102.62,14.61 105.7,14.25C110.24,13.72 117.99,12.67 122.53,12.28C125.61,12.02 128.15,11.87 130.29,11.86C131.81,11.85 132.92,12.01 134.18,12.02C135.36,12.03 136.39,11.93 137.63,11.91C139.08,11.89 140.79,11.93 142.37,11.94C143.95,11.95 145.78,11.93 147.12,11.97C148.11,12 148.55,12.05 149.71,12.09C152.07,12.18 157.72,12.06 160.49,12.39C162.27,12.6 162.91,13.22 164.81,13.32C168.44,13.5 174.4,12.09 180.77,11.52C190.24,10.68 213.81,9.49 216.15,9.2C216.41,9.17 216.34,9.16 216.58,9.12C217.72,8.95 223.87,7.94 226.5,7.96C228.24,7.97 229.15,8.46 230.82,8.52C233.11,8.6 236.72,8.26 239.01,8.07C240.68,7.93 241.64,7.88 243.33,7.58C245.81,7.14 250.28,5.78 252.39,5.41C253.51,5.22 254.48,5.17 254.98,5.13C255.18,5.11 255.17,5.12 255.41,5.1C256.69,4.98 263.42,3.84 267.49,3.75Q271.62,3.65 280,4.56" style="vector-effect: none; fill: none; stroke: rgb(38, 16, 96); stroke-opacity: 1; stroke-width: 5px; opacity: 1;"/></g><g class="points"/><g class="text"/></g><g class="trace scatter trace4611f8" style="stroke-miterlimit: 2; opacity: 1;"><g class="fills"/><g class="errorbars"/><g class="lines"><path class="js-line" d="M0,46.39Q7.89,44.5 13.81,42.91C24.57,40.02 48.77,32.01 59.11,29.96C64.36,28.92 67.23,28.85 71.19,28.6C74.99,28.36 78.65,27.67 82.4,28.46C86.55,29.33 92.13,33.5 94.92,34.13C96.23,34.42 96.72,33.95 97.94,34.18C99.95,34.56 102.57,36.19 105.7,37.05C110.2,38.29 117.98,39.72 122.53,40.2C125.6,40.52 128.15,40.41 130.29,40.38C131.81,40.36 132.92,40.26 134.18,40.17C135.37,40.09 136.39,39.86 137.63,39.88C139.09,39.9 140.79,40.37 142.37,40.42C143.95,40.47 145.78,40.29 147.12,40.2C148.11,40.13 148.55,40.02 149.71,39.97C152.07,39.88 157.73,40.49 160.49,40.08C162.28,39.82 162.9,38.84 164.81,38.73C168.43,38.53 174.38,41.56 180.77,41.85C190.22,42.29 213.81,37.99 216.15,38.27C216.41,38.3 216.34,38.37 216.58,38.42C217.71,38.66 223.87,39.22 226.5,39.25C228.23,39.27 229.16,38.89 230.82,39C233.12,39.15 236.71,40.26 239.01,40.54C240.67,40.74 241.63,40.63 243.33,40.78C245.8,40.99 250.28,41.67 252.39,41.84C253.51,41.93 254.48,41.95 254.98,41.96C255.18,41.96 255.17,41.94 255.41,41.95C256.69,42 263.42,42.95 267.49,43.18Q271.62,43.41 280,43.3" style="vector-effect: none; fill: none; stroke: rgb(0, 68, 148); stroke-opacity: 1; stroke-width: 5px; opacity: 1;"/></g><g class="points"/><g class="text"/></g><g class="trace scatter tracea4b2af" style="stroke-miterlimit: 2; opacity: 1;"><g class="fills"/><g class="errorbars"/><g class="lines"><path class="js-line" d="M0,55.02Q7.85,56.8 13.81,57.44C24.53,58.59 48.82,59.03 59.11,59.3C64.42,59.44 67.24,59.37 71.19,59.44C75,59.51 78.59,60.13 82.4,59.7C86.49,59.24 92.16,57.07 94.92,56.51C96.26,56.24 96.71,56.28 97.94,56.05C99.93,55.67 102.6,54.67 105.7,54.28C110.21,53.72 117.99,53.9 122.53,53.9C125.61,53.9 128.15,54.09 130.29,54.08C131.81,54.08 132.92,53.94 134.18,53.97C135.37,54 136.39,54.21 137.63,54.25C139.08,54.3 140.79,54.22 142.37,54.16C143.95,54.1 145.77,53.92 147.12,53.89C148.11,53.87 148.55,53.97 149.71,53.93C152.08,53.85 157.7,53.19 160.49,52.99C162.25,52.87 162.92,52.74 164.81,52.76C168.45,52.8 174.4,53.75 180.77,53.96C190.24,54.28 213.81,53.81 216.15,53.66C216.41,53.64 216.34,53.62 216.58,53.61C217.72,53.55 223.87,53.92 226.5,53.79C228.24,53.7 229.15,53.42 230.82,53.27C233.11,53.06 236.71,52.92 239.01,52.78C240.68,52.68 241.63,52.61 243.33,52.53C245.8,52.42 250.29,52.32 252.39,52.23C253.52,52.18 254.48,52.12 254.98,52.09C255.18,52.08 255.17,52.08 255.41,52.07C256.69,52.02 263.43,51.94 267.49,51.75Q271.63,51.55 280,50.88" style="vector-effect: none; fill: none; stroke: rgb(0, 0, 0); stroke-opacity: 1; stroke-width: 5px; opacity: 1;"/></g><g class="points"/><g class="text"/></g><g class="trace scatter trace3ae0f2" style="stroke-miterlimit: 2; opacity: 1;"><g class="fills"/><g class="errorbars"/><g class="lines"><path class="js-line" d="M0,54.81Q7.88,55.03 13.81,54.85C24.56,54.52 48.83,51.85 59.11,51.92C64.42,51.95 67.24,52.89 71.19,52.86C75,52.83 78.56,52.13 82.4,51.81C86.46,51.48 92.17,51.08 94.92,50.92C96.27,50.84 96.7,50.87 97.94,50.78C99.93,50.63 102.61,50.19 105.7,49.95C110.23,49.59 117.99,49.24 122.53,49.09C125.61,48.99 128.15,49.04 130.29,48.98C131.81,48.94 132.92,48.79 134.18,48.81C135.36,48.83 136.39,49.02 137.63,49.05C139.08,49.08 140.79,48.86 142.37,48.92C143.95,48.98 145.77,49.32 147.12,49.44C148.11,49.53 148.55,49.56 149.71,49.62C152.07,49.75 157.7,49.91 160.49,50.06C162.25,50.15 162.91,50.28 164.81,50.34C168.45,50.45 174.43,49.76 180.77,50.24C190.27,50.96 213.81,55.7 216.15,55.86C216.41,55.88 216.34,55.85 216.58,55.85C217.72,55.84 223.87,55.85 226.5,55.99C228.24,56.08 229.15,56.3 230.82,56.39C233.12,56.52 236.71,56.52 239.01,56.53C240.68,56.54 241.63,56.5 243.33,56.5C245.8,56.5 250.29,56.58 252.39,56.58C253.52,56.58 254.48,56.56 254.98,56.56C255.18,56.56 255.17,56.57 255.41,56.57C256.69,56.55 263.43,55.92 267.49,55.98Q271.63,56.04 280,56.94" style="vector-effect: none; fill: none; stroke: rgb(234, 35, 41); stroke-opacity: 1; stroke-width: 5px; opacity: 1;"/></g><g class="points"/><g class="text"/></g><g class="trace scatter trace46c12e" style="stroke-miterlimit: 2; opacity: 1;"><g class="fills"/><g class="errorbars"/><g class="lines"><path class="js-line" d="M0,62.17Q7.38,53.51 13.81,51.45C24.17,48.14 48.84,52.48 59.11,53.32C64.43,53.75 67.24,54.28 71.19,54.79C75,55.28 78.58,55.63 82.4,56.34C86.48,57.1 92.17,58.59 94.92,59.28C96.27,59.62 96.7,59.78 97.94,60.08C99.92,60.56 102.6,61.35 105.7,61.81C110.22,62.49 117.99,62.87 122.53,63.12C125.61,63.29 128.15,63.31 130.29,63.37C131.81,63.41 132.92,63.5 134.18,63.46C135.37,63.42 136.39,63.24 137.63,63.17C139.08,63.09 140.79,63.13 142.37,63.06C143.95,62.99 145.78,62.84 147.12,62.73C148.11,62.65 148.55,62.52 149.71,62.47C152.07,62.37 157.7,62.62 160.49,62.61C162.25,62.6 162.92,62.57 164.81,62.51C168.45,62.39 174.4,62.12 180.77,61.87C190.25,61.5 213.81,60.51 216.15,60.49C216.41,60.49 216.34,60.5 216.58,60.5C217.72,60.52 223.87,60.45 226.5,60.61C228.24,60.71 229.15,60.98 230.82,61.08C233.11,61.21 236.71,61.04 239.01,61.14C240.68,61.21 241.63,61.38 243.33,61.49C245.8,61.65 250.29,61.84 252.39,61.91C253.51,61.95 254.48,61.96 254.98,61.97C255.18,61.97 255.17,61.97 255.41,61.97C256.69,61.99 263.43,62.34 267.49,62.33Q271.62,62.32 280,61.89" style="vector-effect: none; fill: none; stroke: rgb(93, 140, 0); stroke-opacity: 1; stroke-width: 5px; opacity: 1;"/></g><g class="points"/><g class="text"/></g></g></g><g class="overplot"/><path class="xlines-above crisp" d="M0,0" style="fill: none;"/><path class="ylines-above crisp" d="M0,0" style="fill: none;"/><g class="overlines-above"/><g class="xaxislayer-above"/><g class="yaxislayer-above"/><g class="overaxes-above"/></g></g><g class="polarlayer"/><g class="smithlayer"/><g class="ternarylayer"/><g class="geolayer"/><g class="funnelarealayer"/><g class="pielayer"/><g class="iciclelayer"/><g class="treemaplayer"/><g class="sunburstlayer"/><g class="glimages"/><defs id="topdefs-482d4b"><g class="clips"/></defs><g class="layer-above"><g class="imagelayer"/><g class="shapelayer"/></g><g class="infolayer"><g class="g-gtitle"><text class="gtitle" x="15" y="25" text-anchor="start" dy="0em" style="font-family: Ubuntu, verdana, arial, sans-serif; font-size: 16px; fill: rgb(233, 84, 32); opacity: 1; font-weight: normal; white-space: pre;">Sněmovna 2021-2025</text></g><g class="g-xtitle"/><g class="g-ytitle"/></g></svg>