<svg class="main-svg" xmlns="http://www.w3.org/2000/svg" xmlns:xlink="http://www.w3.org/1999/xlink" width="300" height="135" style="" viewBox="0 0 300 135"><rect x="0" y="0" width="300" height="135" style="fill: rgb(255, 255, 255); fill-opacity: 1;"/><defs id="defs-bf4e08"><g class="clips"><clipPath id="clipbf4e08xyplot" class="plotclip"><rect width="280" height="75"/></clipPath><clipPath class="axesclip" id="clipbf4e08x"><rect x="10" y="0" width="280" height="135"/></clipPath><clipPath class="axesclip" id="clipbf4e08y"><rect x="0" y="50" width="300" height="75"/></clipPath><clipPath class="axesclip" id="clipbf4e08xy"><rect x="10" y="50" width="280" height="75"/></clipPath></g><g class="gradients"/></defs><g class="bglayer"/><g class="layer-below"><g class="imagelayer"/><g class="shapelayer"/></g><g class="cartesianlayer"><g class="subplot xy"><g class="layer-subplot"><g class="shapelayer"/><g class="imagelayer"/></g><g class="gridlayer"><g class="x"><path class="xgrid crisp" transform="translate(31.94,0)" d="M0,50v75" style="stroke: rgb(235, 240, 248); stroke-opacity: 1; stroke-width: 1px;"/><path class="xgrid crisp" transform="translate(127.28,0)" d="M0,50v75" style="stroke: rgb(235, 240, 248); stroke-opacity: 1; stroke-width: 1px;"/><path class="xgrid crisp" transform="translate(222.61,0)" d="M0,50v75" style="stroke: rgb(235, 240, 248); stroke-opacity: 1; stroke-width: 1px;"/></g><g class="y"><path class="ygrid crisp" transform="translate(0,104.1)" d="M10,0h280" style="stroke: rgb(235, 240, 248); stroke-opacity: 1; stroke-width: 1px;"/><path class="ygrid crisp" transform="translate(0,83.21000000000001)" d="M10,0h280" style="stroke: rgb(235, 240, 248); stroke-opacity: 1; stroke-width: 1px;"/><path class="ygrid crisp" transform="translate(0,62.31)" d="M10,0h280" style="stroke: rgb(235, 240, 248); stroke-opacity: 1; stroke-width: 1px;"/></g></g><g class="zerolinelayer"><path class="yzl zl crisp" transform="translate(0,125)" d="M10,0h280" style="stroke: rgb(235, 240, 248); stroke-opacity: 1; stroke-width: 2px;"/></g><path class="xlines-below"/><path class="ylines-below"/><g class="overlines-below"/><g class="xaxislayer-below"/><g class="yaxislayer-below"/><g class="overaxes-below"/><g class="plot" transform="translate(10, 50)" clip-path="url('#clipbf4e08xyplot')"><g class="scatterlayer mlayer"><g class="trace scatter tracee858a2" style="stroke-miterlimit: 2; opacity: 1;"><g class="fills"/><g class="errorbars"/><g class="lines"><path class="js-line" d="M0,18.37Q4.77,18.43 8.36,18.59C14.86,18.88 29.6,21.04 35.78,20.3C39.05,19.91 40.69,18.58 43.1,18.02C45.39,17.49 47.57,17.33 49.89,16.96C52.35,16.56 55.79,15.92 57.46,15.7C58.28,15.59 58.54,15.63 59.29,15.53C60.5,15.36 62.12,15 63.99,14.65C66.74,14.13 71.42,13.07 74.18,12.68C76.04,12.42 77.58,12.29 78.88,12.27C79.8,12.26 80.47,12.41 81.23,12.42C81.95,12.43 82.57,12.33 83.32,12.32C84.2,12.3 85.23,12.34 86.19,12.35C87.15,12.36 88.26,12.34 89.07,12.38C89.67,12.41 89.93,12.46 90.63,12.5C92.06,12.59 95.49,12.46 97.16,12.79C98.25,13 98.62,13.63 99.78,13.72C101.97,13.89 105.57,12.5 109.44,11.93C115.16,11.09 129.45,9.91 130.86,9.62C131.02,9.59 130.97,9.58 131.12,9.54C131.81,9.37 135.54,8.38 137.13,8.39C138.18,8.4 138.73,8.88 139.74,8.94C141.13,9.02 143.31,8.68 144.7,8.49C145.71,8.35 146.3,8.29 147.31,8C148.82,7.57 151.51,6.21 152.8,5.86C153.47,5.68 154.07,5.65 154.37,5.6C154.49,5.58 154.48,5.58 154.63,5.56C155.4,5.44 159.48,4.41 161.94,4.35C164.44,4.29 166.59,5.01 169.51,5.25C173.48,5.58 181.28,6.17 183.62,5.93C184.41,5.85 184.81,5.6 185.19,5.52C185.41,5.47 185.44,5.48 185.71,5.44C186.71,5.3 191.1,4.62 192.76,4.55C193.66,4.51 194.06,4.65 194.85,4.63C195.9,4.61 197.34,4.45 198.51,4.32C199.6,4.2 201.04,3.95 201.64,3.89C201.89,3.86 201.99,3.86 202.16,3.85C202.34,3.84 202.42,3.84 202.69,3.84C203.53,3.82 205.88,3.67 207.91,3.75C210.75,3.87 217.16,4.7 218.1,4.78C218.25,4.79 218.27,4.8 218.36,4.8C218.45,4.8 218.47,4.77 218.62,4.75C219.33,4.67 223.69,4.75 224.89,4.54C225.39,4.45 225.42,4.23 225.93,4.2C227.23,4.12 232.23,5.45 232.99,5.54C233.13,5.56 233.12,5.55 233.25,5.55C233.58,5.56 234.32,5.48 235.07,5.54C236.32,5.63 238.45,6.09 240.04,6.32C241.49,6.53 242.8,6.73 244.22,6.86C245.68,6.99 247.05,6.98 248.66,7.11C250.57,7.27 253.72,7.63 254.93,7.8C255.42,7.87 255.97,7.98 255.97,7.98C255.97,7.98 255.97,7.98 255.97,7.98C255.97,7.98 260.49,9.39 261.98,9.48C262.85,9.53 263.22,9.23 264.07,9.21C265.37,9.17 267.2,9.74 269.03,9.58C271.36,9.37 275.61,7.76 276.87,7.57C277.26,7.51 277.32,7.55 277.65,7.53Q278.22,7.49 280,7.31" style="vector-effect: non-scaling-stroke; fill: none; stroke: rgb(38, 16, 96); stroke-opacity: 1; stroke-width: 5px; opacity: 1;"/></g><g class="points"/><g class="text"/></g><g class="trace scatter traceca78b6" style="stroke-miterlimit: 2; opacity: 1;"><g class="fills"/><g class="errorbars"/><g class="lines"><path class="js-line" d="M0,46.58Q4.79,44.69 8.36,43.12C14.89,40.24 29.46,32.28 35.78,30.25C38.91,29.24 40.7,29.14 43.1,28.9C45.4,28.67 47.68,28.06 49.89,28.77C52.49,29.6 55.73,33.81 57.46,34.4C58.22,34.66 58.57,34.23 59.29,34.44C60.53,34.8 62.06,36.42 63.99,37.29C66.68,38.5 71.41,39.95 74.18,40.42C76.02,40.73 77.58,40.63 78.88,40.6C79.8,40.58 80.47,40.48 81.23,40.4C81.95,40.32 82.57,40.09 83.32,40.11C84.2,40.13 85.23,40.59 86.19,40.64C87.15,40.69 88.26,40.52 89.07,40.43C89.67,40.36 89.93,40.25 90.63,40.2C92.06,40.11 95.51,40.68 97.16,40.3C98.27,40.04 98.61,39.06 99.78,38.96C101.96,38.78 105.55,41.77 109.44,42.06C115.14,42.48 129.45,38.26 130.86,38.52C131.03,38.55 130.97,38.62 131.12,38.67C131.8,38.9 135.54,39.48 137.13,39.51C138.18,39.53 138.74,39.16 139.74,39.26C141.14,39.4 143.3,40.52 144.7,40.8C145.7,41 146.28,40.91 147.31,41.06C148.81,41.28 151.52,41.97 152.8,42.15C153.48,42.25 154.07,42.28 154.37,42.29C154.49,42.29 154.49,42.27 154.63,42.28C155.4,42.34 159.47,43.34 161.94,43.71C164.43,44.08 166.61,44.06 169.51,44.51C173.5,45.13 181.26,47.09 183.62,47.41C184.4,47.51 184.81,47.49 185.19,47.51C185.41,47.52 185.44,47.54 185.71,47.53C186.71,47.49 191.1,46.92 192.76,46.75C193.66,46.66 194.06,46.55 194.85,46.56C195.9,46.57 197.34,46.96 198.51,46.99C199.59,47.01 201.04,46.74 201.64,46.76C201.89,46.77 201.99,46.82 202.16,46.83C202.34,46.84 202.42,46.83 202.69,46.84C203.53,46.86 205.88,46.96 207.91,46.94C210.74,46.92 217.16,46.63 218.1,46.58C218.25,46.57 218.27,46.57 218.36,46.56C218.45,46.55 218.47,46.52 218.62,46.5C219.33,46.4 223.68,46.36 224.89,46.22C225.39,46.16 225.43,46.11 225.93,46.03C227.23,45.83 232.23,45.26 232.99,45.17C233.14,45.15 233.12,45.15 233.25,45.14C233.58,45.1 234.31,44.95 235.07,44.93C236.32,44.9 238.46,45.28 240.04,45.27C241.49,45.26 242.8,44.93 244.22,44.91C245.68,44.89 247.05,45.06 248.66,45.17C250.57,45.3 253.72,45.53 254.93,45.67C255.42,45.73 255.97,45.82 255.97,45.82C255.97,45.82 255.97,45.82 255.97,45.82C255.97,45.82 260.49,46.86 261.98,46.94C262.85,46.99 263.22,46.82 264.07,46.79C265.37,46.74 267.19,46.64 269.03,46.75C271.35,46.89 275.63,47.45 276.87,47.76C277.27,47.86 277.31,47.97 277.65,48.06Q278.22,48.22 280,48.49" style="vector-effect: non-scaling-stroke; fill: none; stroke: rgb(0, 68, 148); stroke-opacity: 1; stroke-width: 5px; opacity: 1;"/></g><g class="points"/><g class="text"/></g><g class="trace scatter trace632d12" style="stroke-miterlimit: 2; opacity: 1;"><g class="fills"/><g class="errorbars"/><g class="lines"><path class="js-line" d="M0,62.25Q4.08,53.51 8.36,51.6C14.46,48.88 29.57,52.63 35.78,53.46C39.02,53.89 40.71,54.41 43.1,54.92C45.41,55.41 47.59,55.76 49.89,56.46C52.37,57.22 55.8,58.7 57.46,59.38C58.28,59.72 58.53,59.87 59.29,60.17C60.49,60.65 62.09,61.44 63.99,61.9C66.71,62.56 71.43,62.95 74.18,63.2C76.04,63.37 77.58,63.39 78.88,63.45C79.8,63.49 80.47,63.57 81.23,63.53C81.95,63.49 82.57,63.31 83.32,63.24C84.2,63.16 85.23,63.21 86.19,63.14C87.15,63.07 88.26,62.92 89.07,62.81C89.67,62.73 89.93,62.6 90.63,62.55C92.06,62.45 95.47,62.7 97.16,62.69C98.23,62.68 98.63,62.65 99.78,62.59C101.99,62.48 105.59,62.21 109.44,61.96C115.18,61.59 129.44,60.64 130.86,60.59C131.02,60.59 130.98,60.59 131.12,60.59C131.81,60.6 135.54,60.56 137.13,60.71C138.18,60.81 138.73,61.07 139.74,61.17C141.13,61.3 143.31,61.14 144.7,61.24C145.71,61.31 146.28,61.47 147.31,61.58C148.8,61.73 151.52,61.92 152.8,61.99C153.48,62.03 154.07,62.04 154.37,62.05C154.49,62.05 154.48,62.05 154.63,62.05C155.4,62.07 159.48,62.38 161.94,62.36C164.44,62.34 166.6,62.01 169.51,61.9C173.49,61.75 181.27,61.88 183.62,61.7C184.41,61.64 184.81,61.53 185.19,61.48C185.41,61.45 185.44,61.44 185.71,61.42C186.71,61.36 191.1,61.48 192.76,61.44C193.66,61.42 194.06,61.35 194.85,61.33C195.9,61.3 197.34,61.34 198.51,61.33C199.59,61.32 201.04,61.31 201.64,61.29C201.89,61.28 201.99,61.27 202.16,61.26C202.34,61.25 202.42,61.26 202.69,61.25C203.53,61.23 205.88,61.18 207.91,61.08C210.74,60.94 217.16,60.49 218.1,60.44C218.25,60.43 218.27,60.43 218.36,60.43C218.45,60.43 218.48,60.43 218.62,60.42C219.33,60.37 223.68,59.8 224.89,59.8C225.38,59.8 225.43,59.86 225.93,59.9C227.24,60.01 232.23,60.42 232.99,60.43C233.14,60.43 233.12,60.43 233.25,60.42C233.58,60.4 234.32,60.37 235.07,60.27C236.32,60.11 238.45,59.65 240.04,59.42C241.49,59.21 242.81,59.11 244.22,58.91C245.68,58.71 247.05,58.41 248.66,58.22C250.57,57.99 253.72,57.88 254.93,57.7C255.43,57.62 255.97,57.47 255.97,57.47C255.97,57.47 255.97,57.47 255.97,57.47C255.97,57.47 260.49,56.57 261.98,56.41C262.85,56.32 263.23,56.36 264.07,56.33C265.37,56.28 267.19,56.12 269.03,56.13C271.35,56.14 275.62,56.64 276.87,56.51C277.27,56.47 277.32,56.4 277.65,56.31Q278.22,56.16 280,55.67" style="vector-effect: non-scaling-stroke; fill: none; stroke: rgb(206, 15, 104); stroke-opacity: 1; stroke-width: 5px; opacity: 1;"/></g><g class="points"/><g class="text"/></g><g class="trace scatter trace3721b3" style="stroke-miterlimit: 2; opacity: 1;"><g class="fills"/><g class="errorbars"/><g class="lines"><path class="js-line" d="M0,55.15Q4.73,56.91 8.36,57.55C14.82,58.68 29.55,59.13 35.78,59.4C39,59.54 40.71,59.47 43.1,59.54C45.41,59.61 47.61,60.21 49.89,59.8C52.39,59.35 55.78,57.19 57.46,56.63C58.26,56.36 58.55,56.4 59.29,56.17C60.5,55.79 62.09,54.8 63.99,54.42C66.7,53.88 71.43,54.03 74.18,54.03C76.05,54.03 77.58,54.22 78.88,54.22C79.8,54.22 80.47,54.08 81.23,54.11C81.95,54.14 82.57,54.34 83.32,54.38C84.2,54.42 85.23,54.36 86.19,54.3C87.15,54.24 88.26,54.06 89.07,54.03C89.67,54.01 89.93,54.11 90.63,54.07C92.06,53.99 95.47,53.32 97.16,53.13C98.23,53.01 98.63,52.89 99.78,52.91C101.99,52.95 105.58,53.89 109.44,54.1C115.17,54.41 129.44,53.94 130.86,53.8C131.02,53.78 130.98,53.76 131.12,53.75C131.81,53.69 135.54,54.06 137.13,53.93C138.18,53.84 138.73,53.56 139.74,53.41C141.13,53.21 143.31,53.06 144.7,52.93C145.71,52.83 146.28,52.76 147.31,52.69C148.8,52.58 151.53,52.5 152.8,52.41C153.48,52.36 154.07,52.3 154.37,52.28C154.49,52.27 154.48,52.27 154.63,52.26C155.4,52.22 159.48,52.15 161.94,52.07C164.44,51.99 166.61,51.62 169.51,51.78C173.5,52 181.26,53.75 183.62,53.92C184.4,53.98 184.81,53.88 185.19,53.91C185.41,53.93 185.44,53.98 185.71,54C186.71,54.07 191.11,53.97 192.76,53.83C193.67,53.75 194.06,53.63 194.85,53.53C195.9,53.4 197.34,53.26 198.51,53.13C199.59,53.01 201.04,52.82 201.64,52.76C201.89,52.74 201.99,52.73 202.16,52.72C202.34,52.71 202.42,52.72 202.69,52.72C203.53,52.71 205.88,52.71 207.91,52.65C210.74,52.57 217.16,52.21 218.1,52.19C218.25,52.19 218.27,52.18 218.36,52.19C218.45,52.2 218.47,52.23 218.62,52.25C219.33,52.37 223.68,52.72 224.89,52.86C225.38,52.92 225.43,52.96 225.93,53C227.23,53.11 232.23,53.17 232.99,53.2C233.14,53.2 233.12,53.21 233.25,53.21C233.58,53.22 234.31,53.24 235.07,53.28C236.32,53.34 238.45,53.5 240.04,53.58C241.49,53.65 242.81,53.61 244.22,53.74C245.68,53.88 247.05,54.16 248.66,54.4C250.57,54.69 253.72,55.24 254.93,55.36C255.42,55.41 255.97,55.4 255.97,55.4C255.97,55.4 255.97,55.4 255.97,55.4C255.97,55.4 260.5,56.07 261.98,56.32C262.86,56.47 263.22,56.58 264.07,56.71C265.37,56.91 267.19,57.14 269.03,57.33C271.34,57.57 275.62,57.89 276.87,57.95C277.26,57.97 277.32,57.97 277.65,57.96Q278.22,57.95 280,57.85" style="vector-effect: non-scaling-stroke; fill: none; stroke: rgb(0, 0, 0); stroke-opacity: 1; stroke-width: 5px; opacity: 1;"/></g><g class="points"/><g class="text"/></g><g class="trace scatter traced70b0a" style="stroke-miterlimit: 2; opacity: 1;"><g class="fills"/><g class="errorbars"/><g class="lines"><path class="js-line" d="M0,54.94Q4.78,55.16 8.36,54.98C14.87,54.65 29.56,52 35.78,52.07C39,52.11 40.71,53.04 43.1,53.01C45.41,52.98 47.56,52.28 49.89,51.96C52.34,51.63 55.8,51.23 57.46,51.07C58.28,50.99 58.54,51.03 59.29,50.94C60.5,50.79 62.12,50.35 63.99,50.11C66.73,49.75 71.43,49.41 74.18,49.26C76.04,49.16 77.58,49.21 78.88,49.15C79.8,49.11 80.47,48.96 81.23,48.98C81.95,49 82.57,49.19 83.32,49.22C84.2,49.25 85.24,49.03 86.19,49.09C87.15,49.15 88.25,49.49 89.07,49.61C89.67,49.7 89.93,49.72 90.63,49.78C92.06,49.91 95.47,50.07 97.16,50.22C98.23,50.31 98.63,50.44 99.78,50.5C101.98,50.61 105.62,49.93 109.44,50.4C115.22,51.11 129.44,55.83 130.86,55.98C131.01,56 130.98,55.97 131.12,55.97C131.81,55.96 135.54,55.96 137.13,56.1C138.18,56.19 138.73,56.41 139.74,56.5C141.13,56.62 143.31,56.62 144.7,56.63C145.71,56.64 146.28,56.59 147.31,56.59C148.8,56.59 151.52,56.67 152.8,56.66C153.48,56.66 154.07,56.62 154.37,56.62C154.49,56.62 154.48,56.63 154.63,56.63C155.4,56.61 159.48,56 161.94,55.94C164.44,55.88 166.61,56.46 169.51,56.31C173.5,56.1 181.26,54.24 183.62,54.13C184.4,54.09 184.81,54.21 185.19,54.22C185.41,54.23 185.44,54.23 185.71,54.22C186.71,54.19 191.1,53.86 192.76,53.8C193.66,53.77 194.06,53.77 194.85,53.78C195.9,53.79 197.34,53.75 198.51,53.89C199.6,54.02 201.03,54.46 201.64,54.55C201.88,54.59 201.99,54.58 202.16,54.59C202.34,54.61 202.42,54.62 202.69,54.64C203.53,54.7 205.88,54.89 207.91,54.94C210.74,55.01 217.16,54.86 218.1,54.87C218.25,54.87 218.27,54.87 218.36,54.88C218.45,54.89 218.48,54.89 218.62,54.91C219.33,55 223.68,55.57 224.89,55.74C225.38,55.81 225.43,55.82 225.93,55.9C227.24,56.1 232.23,56.96 232.99,57C233.13,57.01 233.12,56.99 233.25,56.99C233.58,56.99 234.31,57.05 235.07,57.05C236.32,57.05 238.46,56.79 240.04,56.87C241.5,56.94 242.81,57.18 244.22,57.43C245.68,57.69 247.05,58.12 248.66,58.41C250.56,58.76 253.72,59.18 254.93,59.32C255.42,59.38 255.97,59.41 255.97,59.41C255.97,59.41 255.97,59.41 255.97,59.41C255.97,59.41 260.49,59.7 261.98,59.74C262.86,59.76 263.23,59.69 264.07,59.73C265.37,59.79 267.19,60.19 269.03,60.23C271.34,60.28 275.62,59.84 276.87,59.79C277.27,59.77 277.32,59.77 277.65,59.77Q278.22,59.77 280,59.86" style="vector-effect: non-scaling-stroke; fill: none; stroke: rgb(234, 35, 41); stroke-opacity: 1; stroke-width: 5px; opacity: 1;"/></g><g class="points"/><g class="text"/></g></g></g><g class="overplot"/><path class="xlines-above crisp" d="M0,0" style="fill: none;"/><path class="ylines-above crisp" d="M0,0" style="fill: none;"/><g class="overlines-above"/><g class="xaxislayer-above"/><g class="yaxislayer-above"/><g class="overaxes-above"/></g></g><g class="polarlayer"/><g class="ternarylayer"/><g class="geolayer"/><g class="funnelarealayer"/><g class="pielayer"/><g class="treemaplayer"/><g class="sunburstlayer"/><g class="glimages"/><defs id="topdefs-bf4e08"><g class="clips"/></defs><g class="layer-above"><g class="imagelayer"/><g class="shapelayer"/></g><g class="infolayer"><g class="g-gtitle"><text class="gtitle" x="15" y="25" text-anchor="start" dy="0em" style="font-family: Ubuntu, verdana, arial, sans-serif; font-size: 16px; fill: rgb(233, 84, 32); opacity: 1; font-weight: normal; white-space: pre;">Sněmovna 2021-2025</text></g><g class="g-xtitle"/><g class="g-ytitle"/></g></svg>