<svg class="main-svg" xmlns="http://www.w3.org/2000/svg" xmlns:xlink="http://www.w3.org/1999/xlink" width="300" height="135" style="" viewBox="0 0 300 135"><rect x="0" y="0" width="300" height="135" style="fill: rgb(255, 255, 255); fill-opacity: 1;"/><defs id="defs-173717"><g class="clips"><clipPath id="clip173717xyplot" class="plotclip"><rect width="280" height="75"/></clipPath><clipPath class="axesclip" id="clip173717x"><rect x="10" y="0" width="280" height="135"/></clipPath><clipPath class="axesclip" id="clip173717y"><rect x="0" y="50" width="300" height="75"/></clipPath><clipPath class="axesclip" id="clip173717xy"><rect x="10" y="50" width="280" height="75"/></clipPath></g><g class="gradients"/><g class="patterns"/></defs><g class="bglayer"/><g class="layer-below"><g class="imagelayer"/><g class="shapelayer"/></g><g class="cartesianlayer"><g class="subplot xy"><g class="layer-subplot"><g class="shapelayer"/><g class="imagelayer"/></g><g class="minor-gridlayer"><g class="x"/><g class="y"/></g><g class="gridlayer"><g class="x"><path class="xgrid crisp" transform="translate(28.35,0)" d="M0,50v75" style="stroke: rgb(235, 240, 248); stroke-opacity: 1; stroke-width: 1px;"/><path class="xgrid crisp" transform="translate(108.07,0)" d="M0,50v75" style="stroke: rgb(235, 240, 248); stroke-opacity: 1; stroke-width: 1px;"/><path class="xgrid crisp" transform="translate(187.78,0)" d="M0,50v75" style="stroke: rgb(235, 240, 248); stroke-opacity: 1; stroke-width: 1px;"/><path class="xgrid crisp" transform="translate(267.72,0)" d="M0,50v75" style="stroke: rgb(235, 240, 248); stroke-opacity: 1; stroke-width: 1px;"/></g><g class="y"><path class="ygrid crisp" transform="translate(0,104.19)" d="M10,0h280" style="stroke: rgb(235, 240, 248); stroke-opacity: 1; stroke-width: 1px;"/><path class="ygrid crisp" transform="translate(0,83.38)" d="M10,0h280" style="stroke: rgb(235, 240, 248); stroke-opacity: 1; stroke-width: 1px;"/><path class="ygrid crisp" transform="translate(0,62.57)" d="M10,0h280" style="stroke: rgb(235, 240, 248); stroke-opacity: 1; stroke-width: 1px;"/></g></g><g class="zerolinelayer"><path class="yzl zl crisp" transform="translate(0,125)" d="M10,0h280" style="stroke: rgb(235, 240, 248); stroke-opacity: 1; stroke-width: 2px;"/></g><path class="xlines-below"/><path class="ylines-below"/><g class="overlines-below"/><g class="xaxislayer-below"/><g class="yaxislayer-below"/><g class="overaxes-below"/><g class="plot" transform="translate(10,50)" clip-path="url(#clip173717xyplot)"><g class="scatterlayer mlayer"><g class="trace scatter tracec9fb17" style="stroke-miterlimit: 2; opacity: 1;"><g class="fills"/><g class="errorbars"/><g class="lines"><path class="js-line" d="M0,18.61Q3.99,18.67 6.99,18.83C12.43,19.12 24.77,21.26 29.92,20.53C32.67,20.14 34.01,18.82 36.04,18.26C37.95,17.73 39.78,17.58 41.72,17.21C43.77,16.82 46.66,16.17 48.05,15.95C48.73,15.84 48.96,15.88 49.58,15.78C50.59,15.61 51.95,15.25 53.51,14.9C55.81,14.38 59.72,13.32 62.03,12.94C63.58,12.68 64.87,12.55 65.96,12.54C66.73,12.53 67.29,12.69 67.93,12.69C68.53,12.69 69.04,12.6 69.67,12.58C70.41,12.56 71.27,12.6 72.07,12.61C72.87,12.62 73.8,12.6 74.48,12.64C74.98,12.67 75.2,12.73 75.79,12.77C76.99,12.86 79.86,12.74 81.25,13.06C82.16,13.27 82.45,13.89 83.43,13.98C85.25,14.15 88.27,12.76 91.51,12.2C96.29,11.37 108.23,10.19 109.42,9.9C109.56,9.87 109.52,9.86 109.64,9.82C110.22,9.65 113.33,8.66 114.66,8.67C115.54,8.68 116,9.16 116.85,9.22C118.01,9.3 119.84,8.96 121,8.77C121.85,8.63 122.34,8.57 123.18,8.28C124.45,7.85 126.69,6.5 127.77,6.15C128.33,5.97 128.83,5.94 129.08,5.89C129.18,5.87 129.18,5.87 129.3,5.85C129.95,5.73 133.35,4.7 135.41,4.64C137.5,4.58 139.31,5.3 141.75,5.54C145.07,5.87 151.59,6.46 153.54,6.22C154.21,6.14 154.53,5.89 154.85,5.81C155.03,5.76 155.06,5.77 155.29,5.73C156.13,5.59 159.8,4.91 161.19,4.84C161.94,4.8 162.27,4.95 162.93,4.93C163.81,4.91 165.01,4.75 165.99,4.62C166.9,4.5 168.1,4.25 168.61,4.19C168.82,4.16 168.9,4.16 169.05,4.15C169.2,4.14 169.27,4.14 169.49,4.13C170.19,4.11 172.16,3.96 173.85,4.05C176.22,4.17 181.58,5.01 182.37,5.08C182.5,5.09 182.52,5.09 182.59,5.09C182.66,5.09 182.69,5.06 182.81,5.05C183.4,4.98 187.05,5.05 188.05,4.84C188.47,4.75 188.49,4.52 188.92,4.49C190,4.4 194.18,5.74 194.82,5.83C194.94,5.85 194.93,5.84 195.04,5.84C195.32,5.85 195.94,5.77 196.57,5.83C197.62,5.92 199.39,6.38 200.72,6.6C201.93,6.8 203.03,7.01 204.21,7.13C205.43,7.26 206.59,7.23 207.93,7.35C209.53,7.5 212.16,7.84 213.17,8C213.58,8.06 214.04,8.16 214.04,8.16C214.04,8.16 214.04,8.16 214.04,8.16C214.04,8.16 217.82,9.38 219.06,9.41C219.79,9.43 220.1,9.14 220.81,9.06C221.9,8.94 223.44,9.22 224.96,8.94C226.92,8.57 230.45,6.89 231.51,6.62C231.84,6.54 231.89,6.57 232.17,6.51C232.65,6.41 233.35,6.2 234.13,6.02C235.3,5.75 237.96,5.12 238.5,5.06C238.62,5.05 238.72,5.06 238.72,5.06C238.72,5.06 238.72,5.06 238.72,5.06C238.72,5.06 240.11,4.79 240.9,4.62C241.84,4.42 243.19,3.99 243.96,3.91C244.41,3.86 244.71,3.93 245.05,3.93C245.36,3.93 245.6,3.91 245.93,3.92C246.37,3.94 246.81,4.01 247.46,4.05C248.58,4.12 251.04,4.2 252.04,4.22C252.53,4.23 252.63,4.23 253.14,4.22C254.27,4.2 257.67,4.06 258.6,4.03C258.92,4.02 259.03,4.01 259.25,4.01C259.47,4 259.75,4.01 259.91,4C260,3.99 260.02,3.98 260.12,3.97C260.4,3.94 261.65,3.88 261.65,3.88C261.65,3.88 261.65,3.88 261.65,3.88C261.65,3.88 262.08,3.86 262.31,3.84C262.58,3.82 263.18,3.75 263.18,3.75C263.18,3.75 263.18,3.75 263.18,3.75C263.18,3.75 264.27,3.82 264.71,3.85C265.04,3.87 265.32,3.88 265.59,3.9C265.82,3.92 266,3.93 266.24,3.95C266.56,3.98 267.05,4.04 267.33,4.06C267.51,4.08 267.61,4.08 267.77,4.09C267.97,4.1 268.19,4.1 268.42,4.13C268.69,4.17 269.03,4.24 269.3,4.31C269.53,4.37 269.72,4.42 269.95,4.5C270.22,4.6 270.83,4.86 270.83,4.86C270.83,4.86 270.83,4.86 270.83,4.86C270.83,4.86 271.85,5.2 272.36,5.37C272.87,5.54 273.88,5.88 273.88,5.88C273.88,5.88 273.88,5.88 273.88,5.88C273.88,5.88 275,6.13 275.41,6.2C275.67,6.25 275.84,6.24 276.07,6.29C276.34,6.35 276.62,6.47 276.94,6.57C277.33,6.69 277.99,6.92 278.25,6.96C278.35,6.97 278.36,6.96 278.47,6.96Q278.75,6.96 280,7.01" style="vector-effect: none; fill: none; stroke: rgb(39, 42, 89); stroke-opacity: 1; stroke-width: 5px; opacity: 1;"/></g><g class="points"/><g class="text"/></g><g class="trace scatter trace9bf323" style="stroke-miterlimit: 2; opacity: 1;"><g class="fills"/><g class="errorbars"/><g class="lines"><path class="js-line" d="M0,17.36Q4.04,19.77 6.99,19.55C12.49,19.14 24.64,8.95 29.92,8.41C32.55,8.14 34.04,9.46 36.04,9.95C37.97,10.42 39.88,10.37 41.72,11.3C43.91,12.41 46.59,16.04 48.05,16.65C48.68,16.91 48.97,16.6 49.58,16.78C50.61,17.09 51.92,18.18 53.51,18.89C55.78,19.91 59.71,21.42 62.03,21.99C63.57,22.37 64.87,22.45 65.96,22.52C66.73,22.57 67.3,22.61 67.93,22.51C68.53,22.42 69.04,22.06 69.67,21.98C70.4,21.89 71.27,22.15 72.07,22.09C72.88,22.03 73.81,21.81 74.48,21.62C74.99,21.47 75.19,21.27 75.79,21.12C76.98,20.82 79.87,20.86 81.25,20.44C82.17,20.16 82.46,19.37 83.43,19.33C85.26,19.25 88.22,22.14 91.51,22.58C96.24,23.22 108.24,20.17 109.42,20.5C109.57,20.54 109.51,20.61 109.64,20.67C110.21,20.93 113.32,21.52 114.66,21.62C115.53,21.69 116.01,21.48 116.85,21.54C118.02,21.62 119.84,22.11 121,22.28C121.84,22.4 122.34,22.32 123.18,22.52C124.44,22.83 126.7,23.89 127.77,24.28C128.34,24.49 128.82,24.68 129.08,24.74C129.18,24.76 129.18,24.74 129.3,24.77C129.95,24.92 133.33,26.47 135.41,26.71C137.48,26.95 139.32,26.08 141.75,26.2C145.08,26.37 151.58,27.97 153.54,28.38C154.2,28.52 154.53,28.61 154.85,28.68C155.04,28.72 155.06,28.75 155.29,28.78C156.13,28.87 159.81,28.67 161.19,28.73C161.94,28.76 162.27,28.82 162.93,28.9C163.81,29 165.01,29.28 165.99,29.3C166.9,29.32 168.1,29.03 168.61,29.08C168.82,29.1 168.9,29.18 169.05,29.2C169.2,29.22 169.27,29.18 169.49,29.18C170.19,29.19 172.15,29.4 173.85,29.49C176.22,29.61 181.58,29.76 182.37,29.74C182.5,29.74 182.52,29.73 182.59,29.72C182.66,29.71 182.69,29.68 182.81,29.67C183.4,29.61 187.04,29.86 188.05,29.86C188.46,29.86 188.5,29.85 188.92,29.82C190.01,29.75 194.18,29.38 194.82,29.29C194.94,29.27 194.93,29.26 195.04,29.25C195.32,29.21 195.94,29.1 196.57,29.1C197.62,29.1 199.4,29.57 200.72,29.52C201.94,29.48 203.03,28.96 204.21,28.92C205.43,28.88 206.58,29.19 207.93,29.33C209.53,29.5 212.16,29.78 213.17,29.88C213.58,29.92 214.04,29.96 214.04,29.96C214.04,29.96 214.04,29.96 214.04,29.96C214.04,29.96 217.81,31.17 219.06,31.43C219.79,31.58 220.1,31.58 220.81,31.66C221.9,31.79 223.43,31.85 224.96,32.08C226.9,32.37 230.47,32.98 231.51,33.36C231.86,33.49 231.88,33.64 232.17,33.73C232.64,33.88 233.35,33.92 234.13,33.93C235.3,33.94 237.97,33.55 238.5,33.58C238.62,33.59 238.72,33.62 238.72,33.62C238.72,33.62 238.72,33.62 238.72,33.62C238.72,33.62 240.11,33.8 240.9,33.89C241.83,34 243.2,34.06 243.96,34.21C244.42,34.3 244.71,34.42 245.05,34.54C245.36,34.65 245.59,34.81 245.93,34.92C246.36,35.06 246.81,35.13 247.46,35.26C248.58,35.48 251.03,35.93 252.04,36.08C252.53,36.15 252.63,36.17 253.14,36.21C254.27,36.3 257.67,36.44 258.6,36.48C258.92,36.49 259.03,36.5 259.25,36.5C259.47,36.5 259.75,36.51 259.91,36.5C260,36.5 260.02,36.49 260.12,36.48C260.4,36.46 261.65,36.36 261.65,36.36C261.65,36.36 261.65,36.36 261.65,36.36C261.65,36.36 262.07,36.3 262.31,36.27C262.58,36.24 263.18,36.17 263.18,36.17C263.18,36.17 263.18,36.17 263.18,36.17C263.18,36.17 264.27,36.19 264.71,36.21C265.04,36.22 265.32,36.24 265.59,36.25C265.82,36.26 266,36.27 266.24,36.28C266.56,36.29 267.05,36.31 267.33,36.32C267.51,36.33 267.61,36.34 267.77,36.34C267.97,36.34 268.19,36.31 268.42,36.29C268.69,36.26 269.03,36.22 269.3,36.18C269.53,36.14 269.72,36.09 269.95,36.05C270.22,36.01 270.83,35.95 270.83,35.95C270.83,35.95 270.83,35.95 270.83,35.95C270.83,35.95 271.85,35.77 272.36,35.67C272.87,35.57 273.88,35.33 273.88,35.33C273.88,35.33 273.88,35.33 273.88,35.33C273.88,35.33 275.01,35.07 275.41,34.98C275.68,34.92 275.83,34.89 276.07,34.85C276.34,34.8 276.62,34.77 276.94,34.73C277.33,34.68 278,34.6 278.25,34.58C278.35,34.57 278.36,34.57 278.47,34.57Q278.75,34.56 280,34.56" style="vector-effect: none; fill: none; stroke: rgb(94, 102, 213); stroke-opacity: 1; stroke-width: 5px; opacity: 1;"/></g><g class="points"/><g class="text"/></g><g class="trace scatter trace90f4f7" style="stroke-miterlimit: 2; opacity: 1;"><g class="fills"/><g class="errorbars"/><g class="lines"><path class="js-line" d="M0,62.31Q3.23,53.53 6.99,51.7C12.05,49.23 24.73,52.73 29.92,53.55C32.63,53.98 34.04,54.5 36.04,55.01C37.97,55.5 39.8,55.85 41.72,56.54C43.8,57.29 46.66,58.77 48.05,59.44C48.74,59.78 48.95,59.93 49.58,60.23C50.58,60.71 51.91,61.49 53.51,61.95C55.77,62.61 59.73,63 62.03,63.25C63.59,63.42 64.87,63.44 65.96,63.5C66.73,63.54 67.3,63.62 67.93,63.58C68.53,63.54 69.04,63.36 69.67,63.29C70.4,63.21 71.27,63.26 72.07,63.19C72.87,63.12 73.8,62.97 74.48,62.86C74.98,62.78 75.2,62.65 75.79,62.6C76.98,62.5 79.84,62.75 81.25,62.74C82.14,62.73 82.47,62.7 83.43,62.64C85.27,62.53 88.29,62.26 91.51,62.01C96.31,61.64 108.23,60.7 109.42,60.65C109.55,60.65 109.52,60.65 109.64,60.65C110.22,60.66 113.33,60.62 114.66,60.77C115.54,60.87 116,61.14 116.85,61.23C118.01,61.36 119.84,61.19 121,61.29C121.85,61.36 122.32,61.53 123.18,61.64C124.43,61.79 126.7,61.97 127.77,62.04C128.34,62.08 128.83,62.09 129.08,62.1C129.18,62.1 129.18,62.1 129.3,62.1C129.95,62.12 133.36,62.43 135.41,62.41C137.5,62.39 139.31,62.07 141.75,61.96C145.07,61.81 151.58,61.92 153.54,61.75C154.2,61.69 154.53,61.59 154.85,61.54C155.04,61.51 155.06,61.5 155.29,61.48C156.13,61.42 159.81,61.53 161.19,61.49C161.94,61.47 162.27,61.41 162.93,61.39C163.81,61.36 165.01,61.4 165.99,61.39C166.9,61.38 168.1,61.37 168.61,61.35C168.82,61.34 168.9,61.33 169.05,61.32C169.2,61.31 169.27,61.31 169.49,61.3C170.19,61.27 172.16,61.23 173.85,61.14C176.22,61.01 181.58,60.55 182.37,60.5C182.5,60.49 182.52,60.49 182.59,60.49C182.66,60.49 182.69,60.49 182.81,60.48C183.4,60.43 187.04,59.87 188.05,59.86C188.46,59.86 188.5,59.91 188.92,59.95C190.01,60.06 194.18,60.47 194.82,60.48C194.94,60.48 194.93,60.48 195.04,60.47C195.32,60.45 195.94,60.42 196.57,60.32C197.62,60.16 199.39,59.7 200.72,59.46C201.93,59.24 203.03,59.12 204.21,58.92C205.43,58.71 206.58,58.41 207.93,58.21C209.52,57.97 212.16,57.81 213.17,57.62C213.59,57.54 214.04,57.38 214.04,57.38C214.04,57.38 214.04,57.38 214.04,57.38C214.04,57.38 217.81,56.38 219.06,56.17C219.79,56.05 220.1,56.08 220.81,55.99C221.9,55.86 223.42,55.6 224.96,55.41C226.89,55.18 230.47,55 231.51,54.75C231.85,54.67 231.89,54.61 232.17,54.5C232.65,54.3 233.34,53.93 234.13,53.64C235.29,53.22 237.96,52.43 238.5,52.35C238.62,52.33 238.72,52.35 238.72,52.35C238.72,52.35 238.72,52.35 238.72,52.35C238.72,52.35 240.11,52.39 240.9,52.42C241.83,52.46 243.2,52.5 243.96,52.56C244.42,52.6 244.71,52.68 245.05,52.68C245.36,52.68 245.6,52.62 245.93,52.59C246.37,52.55 246.82,52.56 247.46,52.49C248.58,52.37 251.04,51.96 252.04,51.82C252.53,51.75 252.63,51.71 253.14,51.68C254.27,51.62 257.67,51.83 258.6,51.81C258.92,51.8 259.03,51.78 259.25,51.76C259.47,51.74 259.75,51.69 259.91,51.67C260,51.66 260.02,51.66 260.12,51.65C260.4,51.63 261.65,51.54 261.65,51.54C261.65,51.54 261.65,51.54 261.65,51.54C261.65,51.54 262.07,51.49 262.31,51.47C262.58,51.45 263.18,51.43 263.18,51.43C263.18,51.43 263.18,51.43 263.18,51.43C263.18,51.43 264.27,51.36 264.71,51.33C265.04,51.31 265.32,51.27 265.59,51.26C265.82,51.25 266,51.25 266.24,51.24C266.56,51.23 267.05,51.21 267.33,51.19C267.51,51.18 267.61,51.16 267.77,51.15C267.97,51.14 268.19,51.13 268.42,51.12C268.69,51.11 269.03,51.12 269.3,51.12C269.53,51.12 269.72,51.12 269.95,51.11C270.22,51.1 270.83,51.06 270.83,51.06C270.83,51.06 270.83,51.06 270.83,51.06C270.83,51.06 271.85,51.07 272.36,51.06C272.87,51.05 273.88,51.03 273.88,51.03C273.88,51.03 273.88,51.03 273.88,51.03C273.88,51.03 275.01,51.12 275.41,51.15C275.68,51.17 275.83,51.19 276.07,51.2C276.34,51.21 276.62,51.2 276.94,51.21C277.33,51.22 278,51.25 278.25,51.27C278.35,51.28 278.36,51.29 278.47,51.3Q278.75,51.33 280,51.43" style="vector-effect: none; fill: none; stroke: rgb(255, 26, 74); stroke-opacity: 1; stroke-width: 5px; opacity: 1;"/></g><g class="points"/><g class="text"/></g><g class="trace scatter trace38f954" style="stroke-miterlimit: 2; opacity: 1;"><g class="fills"/><g class="errorbars"/><g class="lines"><path class="js-line" d="M0,55.02Q4,55.24 6.99,55.06C12.44,54.73 24.72,52.09 29.92,52.16C32.61,52.2 34.04,53.13 36.04,53.1C37.97,53.07 39.77,52.38 41.72,52.06C43.77,51.73 46.66,51.33 48.05,51.17C48.73,51.09 48.96,51.13 49.58,51.04C50.59,50.89 51.94,50.46 53.51,50.22C55.8,49.87 59.73,49.52 62.03,49.37C63.59,49.27 64.87,49.32 65.96,49.26C66.73,49.22 67.29,49.08 67.93,49.09C68.53,49.1 69.04,49.29 69.67,49.32C70.4,49.35 71.27,49.14 72.07,49.2C72.88,49.26 73.8,49.59 74.48,49.71C74.98,49.8 75.2,49.83 75.79,49.89C76.99,50.02 79.84,50.17 81.25,50.32C82.14,50.41 82.47,50.54 83.43,50.6C85.27,50.71 88.33,50.05 91.51,50.51C96.35,51.22 108.23,55.91 109.42,56.06C109.55,56.08 109.52,56.05 109.64,56.05C110.22,56.04 113.33,56.04 114.66,56.18C115.54,56.27 116,56.49 116.85,56.58C118.01,56.7 119.84,56.7 121,56.71C121.84,56.72 122.32,56.67 123.18,56.67C124.43,56.67 126.7,56.74 127.77,56.73C128.34,56.73 128.83,56.7 129.08,56.7C129.18,56.7 129.18,56.71 129.3,56.71C129.95,56.69 133.35,56.08 135.41,56.02C137.5,55.96 139.32,56.53 141.75,56.38C145.09,56.17 151.57,54.33 153.54,54.22C154.19,54.18 154.53,54.3 154.85,54.31C155.04,54.32 155.06,54.32 155.29,54.31C156.13,54.28 159.81,53.95 161.19,53.89C161.94,53.86 162.27,53.86 162.93,53.87C163.81,53.88 165.02,53.84 165.99,53.98C166.9,54.11 168.1,54.55 168.61,54.64C168.82,54.68 168.9,54.67 169.05,54.68C169.2,54.7 169.27,54.71 169.49,54.73C170.19,54.79 172.15,54.97 173.85,55.02C176.22,55.09 181.58,54.94 182.37,54.96C182.5,54.96 182.52,54.96 182.59,54.97C182.66,54.98 182.69,54.98 182.81,55C183.4,55.09 187.04,55.64 188.05,55.82C188.46,55.89 188.5,55.91 188.92,55.99C190.01,56.2 194.18,57.04 194.82,57.08C194.94,57.09 194.93,57.07 195.04,57.07C195.32,57.07 195.94,57.13 196.57,57.13C197.62,57.13 199.4,56.88 200.72,56.96C201.94,57.03 203.03,57.27 204.21,57.52C205.44,57.78 206.58,58.2 207.93,58.49C209.52,58.83 212.16,59.26 213.17,59.4C213.58,59.46 214.04,59.49 214.04,59.49C214.04,59.49 214.04,59.49 214.04,59.49C214.04,59.49 217.82,59.77 219.06,59.8C219.79,59.82 220.1,59.76 220.81,59.79C221.9,59.84 223.42,60.18 224.96,60.21C226.89,60.25 230.46,59.89 231.51,59.84C231.84,59.83 231.89,59.82 232.17,59.82C232.65,59.82 233.35,59.86 234.13,59.87C235.3,59.88 237.97,59.84 238.5,59.83C238.62,59.83 238.72,59.82 238.72,59.82C238.72,59.82 238.72,59.82 238.72,59.82C238.72,59.82 240.11,60.07 240.9,60.1C241.83,60.13 243.2,59.97 243.96,59.92C244.42,59.89 244.71,59.84 245.05,59.84C245.36,59.84 245.6,59.87 245.93,59.89C246.37,59.91 246.81,59.94 247.46,59.95C248.58,59.96 251.04,59.85 252.04,59.85C252.53,59.85 252.64,59.91 253.14,59.88C254.27,59.81 257.67,59.14 258.6,59.04C258.92,59.01 259.03,59.01 259.25,59C259.47,58.99 259.75,58.98 259.91,58.97C260,58.97 260.02,58.96 260.12,58.96C260.4,58.95 261.65,58.91 261.65,58.91C261.65,58.91 261.65,58.91 261.65,58.91C261.65,58.91 262.07,58.93 262.31,58.93C262.58,58.93 263.18,58.9 263.18,58.9C263.18,58.9 263.18,58.9 263.18,58.9C263.18,58.9 264.27,58.78 264.71,58.74C265.04,58.71 265.32,58.69 265.59,58.67C265.82,58.65 266,58.63 266.24,58.61C266.56,58.58 267.05,58.56 267.33,58.53C267.51,58.51 267.61,58.5 267.77,58.48C267.97,58.46 268.19,58.44 268.42,58.41C268.69,58.37 269.03,58.3 269.3,58.25C269.53,58.2 269.72,58.16 269.95,58.11C270.22,58.05 270.83,57.9 270.83,57.9C270.83,57.9 270.83,57.9 270.83,57.9C270.83,57.9 271.85,57.63 272.36,57.47C272.87,57.31 273.88,56.94 273.88,56.94C273.88,56.94 273.88,56.94 273.88,56.94C273.88,56.94 275,56.43 275.41,56.26C275.67,56.15 275.83,56.09 276.07,56C276.34,55.89 276.62,55.78 276.94,55.66C277.33,55.51 277.99,55.24 278.25,55.16C278.35,55.13 278.36,55.13 278.47,55.11Q278.75,55.06 280,54.91" style="vector-effect: none; fill: none; stroke: rgb(164, 125, 3); stroke-opacity: 1; stroke-width: 5px; opacity: 1;"/></g><g class="points"/><g class="text"/></g><g class="trace scatter traced7ce73" style="stroke-miterlimit: 2; opacity: 1;"><g class="fills"/><g class="errorbars"/><g class="lines"><path class="js-line" d="M0,55.23Q3.94,56.99 6.99,57.63C12.38,58.75 24.71,59.19 29.92,59.46C32.61,59.6 34.04,59.54 36.04,59.61C37.97,59.68 39.83,60.26 41.72,59.86C43.83,59.41 46.64,57.27 48.05,56.71C48.72,56.45 48.96,56.48 49.58,56.25C50.6,55.87 51.91,54.88 53.51,54.5C55.77,53.97 59.73,54.12 62.03,54.12C63.59,54.12 64.87,54.31 65.96,54.31C66.73,54.31 67.3,54.17 67.93,54.2C68.53,54.23 69.04,54.43 69.67,54.47C70.4,54.51 71.27,54.44 72.07,54.38C72.87,54.32 73.8,54.15 74.48,54.12C74.98,54.1 75.21,54.19 75.79,54.15C76.99,54.06 79.84,53.41 81.25,53.22C82.14,53.1 82.48,52.98 83.43,53C85.27,53.04 88.28,53.97 91.51,54.18C96.3,54.49 108.23,54.03 109.42,53.89C109.55,53.87 109.52,53.85 109.64,53.84C110.22,53.79 113.34,54.14 114.66,54.01C115.55,53.92 116,53.65 116.85,53.5C118.01,53.3 119.84,53.15 121,53.02C121.84,52.92 122.32,52.85 123.18,52.78C124.43,52.67 126.7,52.58 127.77,52.5C128.34,52.46 128.83,52.41 129.08,52.38C129.18,52.37 129.18,52.36 129.3,52.35C129.95,52.3 133.35,52.25 135.41,52.17C137.5,52.09 139.32,51.71 141.75,51.87C145.09,52.09 151.57,53.84 153.54,54.01C154.19,54.07 154.53,53.97 154.85,54C155.04,54.02 155.06,54.07 155.29,54.09C156.13,54.16 159.81,54.06 161.19,53.92C161.95,53.84 162.27,53.72 162.93,53.62C163.81,53.49 165.01,53.35 165.99,53.22C166.9,53.1 168.1,52.91 168.61,52.85C168.82,52.83 168.9,52.82 169.05,52.81C169.2,52.8 169.27,52.81 169.49,52.81C170.19,52.8 172.16,52.8 173.85,52.74C176.22,52.66 181.58,52.31 182.37,52.29C182.5,52.29 182.52,52.28 182.59,52.29C182.66,52.3 182.69,52.33 182.81,52.35C183.4,52.46 187.04,52.82 188.05,52.96C188.46,53.02 188.5,53.06 188.92,53.1C190.01,53.21 194.18,53.27 194.82,53.3C194.94,53.3 194.93,53.3 195.04,53.31C195.32,53.32 195.94,53.35 196.57,53.39C197.62,53.46 199.4,53.62 200.72,53.71C201.93,53.79 203.03,53.75 204.21,53.89C205.44,54.04 206.58,54.33 207.93,54.59C209.53,54.9 212.16,55.48 213.17,55.61C213.58,55.66 214.04,55.67 214.04,55.67C214.04,55.67 214.04,55.67 214.04,55.67C214.04,55.67 217.82,56.46 219.06,56.77C219.8,56.95 220.1,57.08 220.81,57.26C221.9,57.54 223.42,57.88 224.96,58.22C226.89,58.64 230.46,59.36 231.51,59.55C231.84,59.61 231.89,59.61 232.17,59.66C232.65,59.75 233.35,59.87 234.13,60.07C235.3,60.37 237.96,61.27 238.5,61.37C238.62,61.39 238.72,61.39 238.72,61.39C238.72,61.39 238.72,61.39 238.72,61.39C238.72,61.39 240.11,61.47 240.9,61.52C241.83,61.58 243.2,61.64 243.96,61.71C244.42,61.75 244.71,61.8 245.05,61.83C245.36,61.86 245.6,61.88 245.93,61.9C246.37,61.92 246.81,61.91 247.46,61.93C248.58,61.97 251.04,62.11 252.04,62.14C252.53,62.15 252.63,62.15 253.14,62.15C254.27,62.16 257.67,62.14 258.6,62.15C258.92,62.15 259.03,62.16 259.25,62.17C259.47,62.18 259.75,62.22 259.91,62.23C260,62.24 260.02,62.24 260.12,62.25C260.4,62.28 261.65,62.41 261.65,62.41C261.65,62.41 261.65,62.41 261.65,62.41C261.65,62.41 262.08,62.41 262.31,62.42C262.58,62.43 263.18,62.49 263.18,62.49C263.18,62.49 263.18,62.49 263.18,62.49C263.18,62.49 264.27,62.5 264.71,62.49C265.04,62.48 265.32,62.48 265.59,62.46C265.82,62.45 266,62.43 266.24,62.41C266.56,62.38 267.05,62.34 267.33,62.31C267.51,62.29 267.61,62.27 267.77,62.26C267.97,62.24 268.19,62.23 268.42,62.22C268.69,62.21 269.03,62.19 269.3,62.18C269.53,62.17 269.72,62.19 269.95,62.18C270.22,62.17 270.83,62.13 270.83,62.13C270.83,62.13 270.83,62.13 270.83,62.13C270.83,62.13 271.85,62.07 272.36,62.04C272.87,62.01 273.88,61.95 273.88,61.95C273.88,61.95 273.88,61.95 273.88,61.95C273.88,61.95 275.01,61.95 275.41,61.96C275.68,61.96 275.83,61.98 276.07,61.98C276.34,61.99 276.62,61.98 276.94,61.99C277.33,62 278,62.02 278.25,62.02C278.35,62.02 278.36,62.02 278.47,62.02Q278.75,62.02 280,62.05" style="vector-effect: none; fill: none; stroke: rgb(17, 17, 17); stroke-opacity: 1; stroke-width: 5px; opacity: 1;"/></g><g class="points"/><g class="text"/></g></g></g><g class="overplot"/><path class="xlines-above crisp" d="M0,0" style="fill: none;"/><path class="ylines-above crisp" d="M0,0" style="fill: none;"/><g class="overlines-above"/><g class="xaxislayer-above"/><g class="yaxislayer-above"/><g class="overaxes-above"/></g></g><g class="polarlayer"/><g class="smithlayer"/><g class="ternarylayer"/><g class="geolayer"/><g class="funnelarealayer"/><g class="pielayer"/><g class="iciclelayer"/><g class="treemaplayer"/><g class="sunburstlayer"/><g class="glimages"/><defs id="topdefs-173717"><g class="clips"/></defs><g class="layer-above"><g class="imagelayer"/><g class="shapelayer"/></g><g class="infolayer"><g class="g-gtitle"><text class="gtitle" x="15" y="25" text-anchor="start" dy="0em" style="font-family: Ubuntu, verdana, arial, sans-serif; font-size: 16px; fill: rgb(233, 84, 32); opacity: 1; font-weight: normal; white-space: pre;">Sněmovna volby 2025</text></g><g class="g-xtitle"/><g class="g-ytitle"/></g></svg>