<svg class="main-svg" xmlns="http://www.w3.org/2000/svg" xmlns:xlink="http://www.w3.org/1999/xlink" width="300" height="135" style="" viewBox="0 0 300 135"><rect x="0" y="0" width="300" height="135" style="fill: rgb(255, 255, 255); fill-opacity: 1;"/><defs id="defs-3fc5bf"><g class="clips"><clipPath id="clip3fc5bfxyplot" class="plotclip"><rect width="280" height="75"/></clipPath><clipPath class="axesclip" id="clip3fc5bfx"><rect x="10" y="0" width="280" height="135"/></clipPath><clipPath class="axesclip" id="clip3fc5bfy"><rect x="0" y="50" width="300" height="75"/></clipPath><clipPath class="axesclip" id="clip3fc5bfxy"><rect x="10" y="50" width="280" height="75"/></clipPath></g><g class="gradients"/><g class="patterns"/></defs><g class="bglayer"/><g class="layer-below"><g class="imagelayer"/><g class="shapelayer"/></g><g class="cartesianlayer"><g class="subplot xy"><g class="layer-subplot"><g class="shapelayer"/><g class="imagelayer"/></g><g class="minor-gridlayer"><g class="x"/><g class="y"/></g><g class="gridlayer"><g class="x"><path class="xgrid crisp" transform="translate(71.57,0)" d="M0,50v75" style="stroke: rgb(235, 240, 248); stroke-opacity: 1; stroke-width: 1px;"/><path class="xgrid crisp" transform="translate(137.54000000000002,0)" d="M0,50v75" style="stroke: rgb(235, 240, 248); stroke-opacity: 1; stroke-width: 1px;"/><path class="xgrid crisp" transform="translate(204.24,0)" d="M0,50v75" style="stroke: rgb(235, 240, 248); stroke-opacity: 1; stroke-width: 1px;"/><path class="xgrid crisp" transform="translate(271.68,0)" d="M0,50v75" style="stroke: rgb(235, 240, 248); stroke-opacity: 1; stroke-width: 1px;"/></g><g class="y"><path class="ygrid crisp" transform="translate(0,101.25999999999999)" d="M10,0h280" style="stroke: rgb(235, 240, 248); stroke-opacity: 1; stroke-width: 1px;"/><path class="ygrid crisp" transform="translate(0,77.52)" d="M10,0h280" style="stroke: rgb(235, 240, 248); stroke-opacity: 1; stroke-width: 1px;"/><path class="ygrid crisp" transform="translate(0,53.78)" d="M10,0h280" style="stroke: rgb(235, 240, 248); stroke-opacity: 1; stroke-width: 1px;"/></g></g><g class="zerolinelayer"><path class="yzl zl crisp" transform="translate(0,125)" d="M10,0h280" style="stroke: rgb(235, 240, 248); stroke-opacity: 1; stroke-width: 2px;"/></g><path class="xlines-below"/><path class="ylines-below"/><g class="overlines-below"/><g class="xaxislayer-below"/><g class="yaxislayer-below"/><g class="overaxes-below"/><g class="plot" transform="translate(10,50)" clip-path="url(#clip3fc5bfxyplot)"><g class="scatterlayer mlayer"><g class="trace scatter trace788cc2" style="stroke-miterlimit: 2; opacity: 1;"><g class="fills"/><g class="errorbars"/><g class="lines"><path class="js-line" d="M0,10.75Q13.38,10.76 23.46,10.92C41.71,11.22 82.97,13.74 100.42,12.86C109.46,12.41 114.22,10.91 120.94,10.27C127.4,9.66 133.47,9.49 140,9.07C146.89,8.62 156.59,7.88 161.26,7.64C163.55,7.52 164.29,7.57 166.39,7.45C169.77,7.26 174.34,6.84 179.58,6.44C187.29,5.84 200.46,4.65 208.17,4.21C213.4,3.91 217.72,3.76 221.36,3.75C223.94,3.74 225.83,3.92 227.96,3.93C229.97,3.94 231.71,3.83 233.82,3.81C236.29,3.79 239.19,3.84 241.88,3.85C244.57,3.87 247.67,3.85 249.95,3.9C251.64,3.94 252.38,4 254.35,4.06C258.37,4.19 267.95,4.06 272.67,4.54Q275.68,4.85 280,5.85" style="vector-effect: non-scaling-stroke; fill: none; stroke: rgb(38, 16, 96); stroke-opacity: 1; stroke-width: 5px; opacity: 1;"/></g><g class="points"/><g class="text"/></g><g class="trace scatter trace91c4f5" style="stroke-miterlimit: 2; opacity: 1;"><g class="fills"/><g class="errorbars"/><g class="lines"><path class="js-line" d="M0,41.32Q13.42,40.27 23.46,38.78C41.75,36.06 82.9,26.47 100.42,24.16C109.4,22.98 114.22,22.91 120.94,22.63C127.41,22.36 133.54,21.55 140,22.47C146.97,23.47 156.56,28.15 161.26,28.87C163.52,29.21 164.3,28.66 166.39,28.92C169.79,29.35 174.31,31.18 179.58,32.15C187.26,33.56 200.45,35.17 208.17,35.7C213.39,36.06 217.72,35.93 221.36,35.89C223.94,35.86 225.83,35.76 227.96,35.66C229.97,35.56 231.71,35.29 233.82,35.31C236.29,35.33 239.19,35.86 241.88,35.91C244.57,35.96 247.67,35.75 249.95,35.63C251.64,35.54 252.38,35.4 254.35,35.33C258.37,35.18 267.97,35.83 272.67,35.2Q275.7,34.79 280,33.25" style="vector-effect: non-scaling-stroke; fill: none; stroke: rgb(0, 68, 148); stroke-opacity: 1; stroke-width: 5px; opacity: 1;"/></g><g class="points"/><g class="text"/></g><g class="trace scatter traced2be04" style="stroke-miterlimit: 2; opacity: 1;"><g class="fills"/><g class="errorbars"/><g class="lines"><path class="js-line" d="M0,52.23Q13.39,52.46 23.46,52.25C41.71,51.87 82.95,48.87 100.42,48.95C109.44,48.99 114.23,50.05 120.94,50.01C127.41,49.98 133.47,49.18 140,48.82C146.89,48.44 156.59,48 161.26,47.82C163.55,47.73 164.28,47.78 166.39,47.67C169.77,47.5 174.34,47.01 179.58,46.73C187.29,46.32 200.46,45.93 208.17,45.76C213.41,45.65 217.72,45.7 221.36,45.63C223.94,45.58 225.83,45.41 227.96,45.43C229.97,45.45 231.71,45.67 233.82,45.7C236.29,45.73 239.19,45.47 241.88,45.54C244.57,45.61 247.66,46 249.95,46.14C251.64,46.24 252.38,46.27 254.35,46.34C258.37,46.49 267.94,46.66 272.67,46.84Q275.66,46.95 280,47.19" style="vector-effect: non-scaling-stroke; fill: none; stroke: rgb(234, 35, 41); stroke-opacity: 1; stroke-width: 5px; opacity: 1;"/></g><g class="points"/><g class="text"/></g><g class="trace scatter trace129378" style="stroke-miterlimit: 2; opacity: 1;"><g class="fills"/><g class="errorbars"/><g class="lines"><path class="js-line" d="M0,53.41Q13.38,54.66 23.46,55.18C41.7,56.12 82.95,56.97 100.42,57.28C109.44,57.44 114.23,57.36 120.94,57.44C127.41,57.51 133.5,58.23 140,57.73C146.92,57.2 156.58,54.76 161.26,54.13C163.55,53.82 164.29,53.87 166.39,53.61C169.77,53.18 174.33,52.05 179.58,51.62C187.27,50.98 200.46,51.18 208.17,51.18C213.41,51.18 217.72,51.4 221.36,51.39C223.94,51.39 225.83,51.22 227.96,51.26C229.97,51.29 231.71,51.53 233.82,51.57C236.29,51.62 239.19,51.54 241.88,51.47C244.57,51.4 247.66,51.18 249.95,51.15C251.64,51.12 252.38,51.25 254.35,51.19C258.37,51.08 267.94,50.26 272.67,49.98Q275.66,49.8 280,49.59" style="vector-effect: non-scaling-stroke; fill: none; stroke: rgb(0, 0, 0); stroke-opacity: 1; stroke-width: 5px; opacity: 1;"/></g><g class="points"/><g class="text"/></g><g class="trace scatter tracec92d7a" style="stroke-miterlimit: 2; opacity: 1;"><g class="fills"/><g class="errorbars"/><g class="lines"><path class="js-line" d="M0,56.25Q13.21,49.93 23.46,48.41C41.55,45.72 82.96,49.58 100.42,50.53C109.45,51.02 114.23,51.61 120.94,52.19C127.41,52.75 133.49,53.13 140,53.94C146.91,54.79 156.59,56.48 161.26,57.25C163.56,57.63 164.28,57.81 166.39,58.15C169.76,58.7 174.33,59.58 179.58,60.11C187.27,60.88 200.46,61.31 208.17,61.6C213.4,61.79 217.72,61.82 221.36,61.89C223.94,61.94 225.83,62.03 227.96,61.99C229.97,61.95 231.71,61.73 233.82,61.66C236.29,61.57 239.19,61.63 241.88,61.55C244.57,61.47 247.67,61.31 249.95,61.18C251.64,61.08 252.38,60.93 254.35,60.88C258.37,60.77 267.94,61.12 272.67,61.13Q275.66,61.14 280,61.06" style="vector-effect: non-scaling-stroke; fill: none; stroke: rgb(93, 140, 0); stroke-opacity: 1; stroke-width: 5px; opacity: 1;"/></g><g class="points"/><g class="text"/></g></g></g><g class="overplot"/><path class="xlines-above crisp" d="M0,0" style="fill: none;"/><path class="ylines-above crisp" d="M0,0" style="fill: none;"/><g class="overlines-above"/><g class="xaxislayer-above"/><g class="yaxislayer-above"/><g class="overaxes-above"/></g></g><g class="polarlayer"/><g class="smithlayer"/><g class="ternarylayer"/><g class="geolayer"/><g class="funnelarealayer"/><g class="pielayer"/><g class="iciclelayer"/><g class="treemaplayer"/><g class="sunburstlayer"/><g class="glimages"/><defs id="topdefs-3fc5bf"><g class="clips"/></defs><g class="layer-above"><g class="imagelayer"/><g class="shapelayer"/></g><g class="infolayer"><g class="g-gtitle"><text class="gtitle" x="15" y="25" text-anchor="start" dy="0em" style="font-family: Ubuntu, verdana, arial, sans-serif; font-size: 16px; fill: rgb(233, 84, 32); opacity: 1; font-weight: normal; white-space: pre;">Sněmovna 2021-2025</text></g><g class="g-xtitle"/><g class="g-ytitle"/></g></svg>