<svg class="main-svg" xmlns="http://www.w3.org/2000/svg" xmlns:xlink="http://www.w3.org/1999/xlink" width="300" height="135" style="" viewBox="0 0 300 135"><rect x="0" y="0" width="300" height="135" style="fill: rgb(255, 255, 255); fill-opacity: 1;"/><defs id="defs-1226dd"><g class="clips"><clipPath id="clip1226ddxyplot" class="plotclip"><rect width="280" height="75"/></clipPath><clipPath class="axesclip" id="clip1226ddx"><rect x="10" y="0" width="280" height="135"/></clipPath><clipPath class="axesclip" id="clip1226ddy"><rect x="0" y="50" width="300" height="75"/></clipPath><clipPath class="axesclip" id="clip1226ddxy"><rect x="10" y="50" width="280" height="75"/></clipPath></g><g class="gradients"/><g class="patterns"/></defs><g class="bglayer"/><g class="layer-below"><g class="imagelayer"/><g class="shapelayer"/></g><g class="cartesianlayer"><g class="subplot xy"><g class="layer-subplot"><g class="shapelayer"/><g class="imagelayer"/></g><g class="minor-gridlayer"><g class="x"/><g class="y"/></g><g class="gridlayer"><g class="x"><path class="xgrid crisp" transform="translate(27.5,0)" d="M0,50v75" style="stroke: rgb(235, 240, 248); stroke-opacity: 1; stroke-width: 1px;"/><path class="xgrid crisp" transform="translate(103.54,0)" d="M0,50v75" style="stroke: rgb(235, 240, 248); stroke-opacity: 1; stroke-width: 1px;"/><path class="xgrid crisp" transform="translate(179.58,0)" d="M0,50v75" style="stroke: rgb(235, 240, 248); stroke-opacity: 1; stroke-width: 1px;"/><path class="xgrid crisp" transform="translate(255.83,0)" d="M0,50v75" style="stroke: rgb(235, 240, 248); stroke-opacity: 1; stroke-width: 1px;"/></g><g class="y"><path class="ygrid crisp" transform="translate(0,104.14)" d="M10,0h280" style="stroke: rgb(235, 240, 248); stroke-opacity: 1; stroke-width: 1px;"/><path class="ygrid crisp" transform="translate(0,83.28)" d="M10,0h280" style="stroke: rgb(235, 240, 248); stroke-opacity: 1; stroke-width: 1px;"/><path class="ygrid crisp" transform="translate(0,62.42)" d="M10,0h280" style="stroke: rgb(235, 240, 248); stroke-opacity: 1; stroke-width: 1px;"/></g></g><g class="zerolinelayer"><path class="yzl zl crisp" transform="translate(0,125)" d="M10,0h280" style="stroke: rgb(235, 240, 248); stroke-opacity: 1; stroke-width: 2px;"/></g><path class="xlines-below"/><path class="ylines-below"/><g class="overlines-below"/><g class="xaxislayer-below"/><g class="yaxislayer-below"/><g class="overaxes-below"/><g class="plot" transform="translate(10,50)" clip-path="url(#clip1226ddxyplot)"><g class="scatterlayer mlayer"><g class="trace scatter trace54bd72" style="stroke-miterlimit: 2; opacity: 1;"><g class="fills"/><g class="errorbars"/><g class="lines"><path class="js-line" d="M0,18.47Q3.81,18.53 6.67,18.69C11.86,18.98 23.63,21.13 28.54,20.4C31.17,20.01 32.45,18.68 34.38,18.12C36.19,17.59 37.94,17.44 39.79,17.07C41.75,16.68 44.5,16.03 45.83,15.81C46.48,15.7 46.69,15.74 47.29,15.64C48.25,15.47 49.55,15.11 51.04,14.76C53.23,14.24 56.97,13.18 59.17,12.79C60.65,12.53 61.88,12.39 62.92,12.38C63.65,12.37 64.18,12.53 64.79,12.54C65.36,12.55 65.86,12.45 66.46,12.43C67.16,12.41 67.99,12.45 68.75,12.46C69.51,12.47 70.39,12.45 71.04,12.49C71.52,12.52 71.73,12.57 72.29,12.61C73.43,12.7 76.18,12.58 77.5,12.9C78.37,13.11 78.65,13.74 79.58,13.83C81.32,14 84.2,12.61 87.29,12.04C91.85,11.21 103.27,10.03 104.38,9.74C104.5,9.71 104.47,9.7 104.58,9.66C105.12,9.49 108.11,8.5 109.38,8.51C110.22,8.52 110.65,9 111.46,9.06C112.56,9.14 114.32,8.8 115.42,8.61C116.23,8.47 116.7,8.41 117.5,8.12C118.71,7.69 120.85,6.33 121.88,5.98C122.41,5.8 122.89,5.76 123.13,5.72C123.22,5.7 123.22,5.71 123.33,5.69C123.94,5.58 127.2,4.53 129.17,4.47C131.16,4.41 132.88,5.13 135.21,5.37C138.38,5.7 144.6,6.29 146.46,6.05C147.1,5.97 147.4,5.72 147.71,5.64C147.89,5.6 147.91,5.61 148.13,5.57C148.93,5.44 152.43,4.74 153.75,4.67C154.47,4.63 154.79,4.78 155.42,4.76C156.26,4.74 157.4,4.58 158.33,4.45C159.2,4.33 160.34,4.08 160.83,4.02C161.03,3.99 161.11,3.99 161.25,3.98C161.39,3.97 161.46,3.97 161.67,3.96C162.34,3.94 164.22,3.79 165.83,3.88C168.09,4 173.21,4.84 173.96,4.91C174.08,4.92 174.1,4.92 174.17,4.92C174.24,4.92 174.26,4.89 174.38,4.88C174.95,4.81 178.43,4.88 179.38,4.67C179.78,4.58 179.8,4.35 180.21,4.32C181.24,4.23 185.22,5.57 185.83,5.66C185.95,5.68 185.94,5.67 186.04,5.67C186.31,5.68 186.9,5.6 187.5,5.66C188.5,5.75 190.2,6.21 191.46,6.43C192.62,6.63 193.66,6.83 194.79,6.96C195.95,7.09 197.05,7.07 198.33,7.19C199.86,7.34 202.36,7.69 203.33,7.84C203.73,7.9 204.17,7.99 204.17,7.99C204.17,7.99 204.17,7.99 204.17,7.99C204.17,7.99 207.77,9.22 208.96,9.25C209.66,9.27 209.95,8.98 210.63,8.9C211.66,8.78 213.14,9.06 214.58,8.78C216.45,8.41 219.82,6.72 220.83,6.45C221.14,6.37 221.2,6.4 221.46,6.34C221.92,6.24 222.58,6.03 223.33,5.85C224.44,5.58 226.99,4.96 227.5,4.9C227.61,4.89 227.71,4.9 227.71,4.9C227.71,4.9 227.71,4.9 227.71,4.9C227.71,4.9 229.04,4.63 229.79,4.46C230.68,4.26 231.98,3.83 232.71,3.75C233.14,3.7 233.42,3.78 233.75,3.78C234.04,3.78 234.26,3.76 234.58,3.77C235,3.79 235.42,3.87 236.04,3.91C237.11,3.98 239.46,4.07 240.42,4.1C240.89,4.11 240.98,4.11 241.46,4.11C242.53,4.1 245.78,3.99 246.67,3.96C246.98,3.95 247.08,3.94 247.29,3.94C247.5,3.94 247.77,3.95 247.92,3.94C248.01,3.94 248.03,3.93 248.13,3.92C248.4,3.9 249.58,3.85 249.58,3.85C249.58,3.85 249.58,3.85 249.58,3.85C249.58,3.85 249.99,3.83 250.21,3.81C250.47,3.79 251.04,3.75 251.04,3.75C251.04,3.75 251.04,3.75 251.04,3.75C251.04,3.75 252.08,3.85 252.5,3.89C252.82,3.92 253.07,3.95 253.33,3.97C253.55,3.99 253.72,4 253.96,4.03C254.26,4.07 254.65,4.14 255,4.18C255.35,4.22 255.77,4.24 256.04,4.29C256.21,4.32 256.32,4.36 256.46,4.4C256.6,4.44 256.73,4.47 256.88,4.51C257.07,4.56 257.28,4.63 257.5,4.71C257.76,4.81 258.33,5.08 258.33,5.08C258.33,5.08 258.33,5.08 258.33,5.08C258.33,5.08 259.79,5.62 259.79,5.62C259.79,5.62 259.79,5.62 259.79,5.62C259.79,5.62 261.25,6 261.25,6C261.25,6 261.25,6 261.25,6C261.25,6 262.7,6.21 263.33,6.36C263.86,6.49 264.79,6.81 264.79,6.81C264.79,6.81 264.79,6.81 264.79,6.81C264.79,6.81 265.16,6.93 265.42,6.97C265.8,7.03 266.5,7.05 266.88,7.07C267.13,7.08 267.25,7.09 267.5,7.1C267.88,7.12 268.96,7.2 268.96,7.2C268.96,7.2 268.96,7.2 268.96,7.2C268.96,7.2 269.07,7.19 269.17,7.19C269.44,7.19 270.37,7.26 270.63,7.27C270.73,7.28 270.73,7.27 270.83,7.28C271.12,7.31 271.96,7.48 272.5,7.54C273,7.59 273.96,7.63 273.96,7.63C273.96,7.63 273.96,7.63 273.96,7.63C273.96,7.63 274.73,7.64 275,7.67C275.17,7.69 275.42,7.74 275.42,7.74C275.42,7.74 275.42,7.74 275.42,7.74C275.42,7.74 276.33,7.74 276.67,7.77C276.91,7.79 277.07,7.83 277.29,7.85C277.55,7.87 277.81,7.88 278.13,7.89C278.55,7.9 279.24,7.89 279.58,7.87Q279.76,7.86 280,7.83" style="vector-effect: none; fill: none; stroke: rgb(39, 42, 89); stroke-opacity: 1; stroke-width: 5px; opacity: 1;"/></g><g class="points"/><g class="text"/></g><g class="trace scatter trace971b1b" style="stroke-miterlimit: 2; opacity: 1;"><g class="fills"/><g class="errorbars"/><g class="lines"><path class="js-line" d="M0,17.22Q3.86,19.63 6.67,19.41C11.92,19 23.5,8.79 28.54,8.25C31.04,7.98 32.47,9.3 34.38,9.79C36.22,10.26 38.05,10.22 39.79,11.14C41.89,12.25 44.43,15.91 45.83,16.51C46.43,16.77 46.71,16.45 47.29,16.63C48.28,16.93 49.52,18.03 51.04,18.75C53.2,19.77 56.95,21.29 59.17,21.86C60.63,22.24 61.88,22.32 62.92,22.39C63.65,22.44 64.19,22.48 64.79,22.39C65.37,22.3 65.85,21.93 66.46,21.85C67.16,21.76 67.99,22.02 68.75,21.96C69.52,21.9 70.4,21.68 71.04,21.49C71.53,21.34 71.72,21.14 72.29,20.99C73.42,20.7 76.18,20.73 77.5,20.31C78.38,20.03 78.65,19.24 79.58,19.2C81.32,19.12 84.14,22.01 87.29,22.45C91.8,23.08 103.27,20.01 104.38,20.36C104.52,20.4 104.45,20.48 104.58,20.54C105.11,20.81 108.11,21.39 109.38,21.49C110.21,21.56 110.66,21.35 111.46,21.41C112.57,21.49 114.31,21.98 115.42,22.15C116.22,22.27 116.7,22.18 117.5,22.39C118.71,22.7 120.86,23.77 121.88,24.16C122.42,24.37 122.89,24.56 123.13,24.62C123.22,24.64 123.22,24.62 123.33,24.65C123.94,24.8 127.18,26.36 129.17,26.6C131.14,26.83 132.9,25.96 135.21,26.08C138.39,26.25 144.59,27.85 146.46,28.26C147.09,28.4 147.4,28.48 147.71,28.56C147.89,28.6 147.91,28.64 148.13,28.67C148.93,28.77 152.43,28.56 153.75,28.62C154.47,28.65 154.79,28.72 155.42,28.79C156.26,28.89 157.4,29.16 158.33,29.18C159.19,29.2 160.35,28.93 160.83,28.97C161.03,28.99 161.11,29.06 161.25,29.08C161.39,29.1 161.46,29.06 161.67,29.07C162.34,29.09 164.21,29.29 165.83,29.37C168.09,29.49 173.21,29.65 173.96,29.63C174.08,29.63 174.1,29.62 174.17,29.61C174.24,29.6 174.26,29.57 174.38,29.56C174.95,29.5 178.42,29.75 179.38,29.75C179.77,29.75 179.81,29.74 180.21,29.71C181.25,29.64 185.22,29.27 185.83,29.18C185.95,29.16 185.94,29.15 186.04,29.14C186.31,29.1 186.89,28.99 187.5,28.99C188.5,28.99 190.2,29.46 191.46,29.41C192.62,29.37 193.66,28.85 194.79,28.81C195.95,28.77 197.05,29.08 198.33,29.22C199.85,29.39 202.36,29.67 203.33,29.77C203.73,29.81 204.17,29.85 204.17,29.85C204.17,29.85 204.17,29.85 204.17,29.85C204.17,29.85 207.77,31.07 208.96,31.33C209.65,31.48 209.95,31.48 210.63,31.56C211.67,31.69 213.12,31.74 214.58,31.97C216.43,32.26 219.84,32.88 220.83,33.26C221.17,33.39 221.18,33.54 221.46,33.63C221.91,33.78 222.58,33.82 223.33,33.83C224.44,33.84 226.99,33.44 227.5,33.47C227.62,33.48 227.71,33.51 227.71,33.51C227.71,33.51 227.71,33.51 227.71,33.51C227.71,33.51 229.04,33.69 229.79,33.78C230.68,33.89 231.99,33.95 232.71,34.1C233.15,34.19 233.43,34.3 233.75,34.42C234.05,34.53 234.26,34.7 234.58,34.81C234.99,34.95 235.42,35.01 236.04,35.13C237.11,35.34 239.46,35.78 240.42,35.92C240.88,35.99 240.98,35.99 241.46,36.03C242.53,36.11 245.78,36.22 246.67,36.25C246.98,36.26 247.08,36.26 247.29,36.26C247.5,36.26 247.77,36.27 247.92,36.26C248.01,36.26 248.03,36.25 248.13,36.24C248.4,36.21 249.58,36.09 249.58,36.09C249.58,36.09 249.58,36.09 249.58,36.09C249.58,36.09 249.99,36.02 250.21,35.99C250.47,35.95 251.04,35.88 251.04,35.88C251.04,35.88 251.04,35.88 251.04,35.88C251.04,35.88 252.08,35.87 252.5,35.87C252.82,35.87 253.07,35.87 253.33,35.87C253.55,35.87 253.72,35.87 253.96,35.87C254.26,35.87 254.65,35.87 255,35.86C255.35,35.85 255.77,35.84 256.04,35.83C256.21,35.82 256.32,35.82 256.46,35.8C256.6,35.78 256.73,35.76 256.88,35.73C257.07,35.69 257.28,35.61 257.5,35.56C257.76,35.5 258.33,35.41 258.33,35.41C258.33,35.41 258.33,35.41 258.33,35.41C258.33,35.41 259.79,35.03 259.79,35.03C259.79,35.03 259.79,35.03 259.79,35.03C259.79,35.03 261.25,34.65 261.25,34.65C261.25,34.65 261.25,34.65 261.25,34.65C261.25,34.65 262.7,34.21 263.33,34.04C263.86,33.9 264.79,33.69 264.79,33.69C264.79,33.69 264.79,33.69 264.79,33.69C264.79,33.69 265.17,33.6 265.42,33.55C265.81,33.47 266.5,33.36 266.88,33.28C267.13,33.23 267.25,33.19 267.5,33.14C267.88,33.06 268.96,32.86 268.96,32.86C268.96,32.86 268.96,32.86 268.96,32.86C268.96,32.86 269.07,32.84 269.17,32.82C269.44,32.76 270.37,32.52 270.63,32.45C270.73,32.43 270.73,32.42 270.83,32.4C271.12,32.34 271.96,32.18 272.5,32.09C273,32.01 273.96,31.89 273.96,31.89C273.96,31.89 273.96,31.89 273.96,31.89C273.96,31.89 274.73,31.79 275,31.76C275.17,31.74 275.42,31.71 275.42,31.71C275.42,31.71 275.42,31.71 275.42,31.71C275.42,31.71 276.33,31.73 276.67,31.74C276.91,31.74 277.07,31.75 277.29,31.75C277.55,31.75 277.81,31.72 278.13,31.72C278.55,31.71 279.24,31.73 279.58,31.73Q279.76,31.73 280,31.72" style="vector-effect: none; fill: none; stroke: rgb(94, 102, 213); stroke-opacity: 1; stroke-width: 5px; opacity: 1;"/></g><g class="points"/><g class="text"/></g><g class="trace scatter tracea559c1" style="stroke-miterlimit: 2; opacity: 1;"><g class="fills"/><g class="errorbars"/><g class="lines"><path class="js-line" d="M0,54.97Q3.81,55.19 6.67,55.01C11.87,54.68 23.58,52.04 28.54,52.11C31.11,52.15 32.47,53.08 34.38,53.05C36.22,53.02 37.93,52.32 39.79,52C41.74,51.67 44.5,51.27 45.83,51.11C46.48,51.03 46.69,51.07 47.29,50.98C48.25,50.83 49.54,50.4 51.04,50.16C53.22,49.81 56.98,49.46 59.17,49.31C60.66,49.21 61.89,49.26 62.92,49.2C63.65,49.16 64.19,49.02 64.79,49.03C65.36,49.04 65.86,49.24 66.46,49.26C67.16,49.29 67.99,49.07 68.75,49.13C69.52,49.19 70.39,49.53 71.04,49.65C71.52,49.74 71.73,49.77 72.29,49.83C73.43,49.96 76.16,50.11 77.5,50.26C78.35,50.35 78.66,50.48 79.58,50.54C81.33,50.65 84.26,49.99 87.29,50.45C91.92,51.16 103.26,55.86 104.38,56.01C104.5,56.03 104.47,56 104.58,56C105.12,55.99 108.11,56 109.38,56.14C110.22,56.23 110.65,56.44 111.46,56.53C112.57,56.65 114.31,56.65 115.42,56.66C116.22,56.67 116.68,56.63 117.5,56.63C118.69,56.63 120.86,56.7 121.88,56.69C122.42,56.69 122.89,56.65 123.13,56.65C123.23,56.65 123.22,56.66 123.33,56.66C123.94,56.64 127.2,56.03 129.17,55.97C131.16,55.91 132.9,56.49 135.21,56.34C138.39,56.13 144.58,54.28 146.46,54.17C147.08,54.13 147.4,54.25 147.71,54.26C147.89,54.27 147.91,54.27 148.13,54.26C148.93,54.23 152.43,53.9 153.75,53.84C154.47,53.81 154.79,53.81 155.42,53.82C156.26,53.83 157.4,53.79 158.33,53.93C159.2,54.06 160.34,54.5 160.83,54.59C161.03,54.63 161.11,54.62 161.25,54.63C161.39,54.65 161.46,54.66 161.67,54.68C162.34,54.74 164.21,54.93 165.83,54.98C168.09,55.05 173.21,54.9 173.96,54.91C174.08,54.91 174.1,54.91 174.17,54.92C174.24,54.93 174.26,54.93 174.38,54.95C174.95,55.04 178.42,55.59 179.38,55.77C179.77,55.84 179.81,55.86 180.21,55.94C181.25,56.15 185.22,56.99 185.83,57.03C185.95,57.04 185.94,57.02 186.04,57.02C186.31,57.02 186.89,57.08 187.5,57.08C188.5,57.08 190.2,56.84 191.46,56.92C192.62,56.99 193.67,57.23 194.79,57.48C195.96,57.74 197.04,58.16 198.33,58.45C199.85,58.8 202.36,59.22 203.33,59.36C203.73,59.42 204.17,59.45 204.17,59.45C204.17,59.45 204.17,59.45 204.17,59.45C204.17,59.45 207.77,59.73 208.96,59.76C209.66,59.78 209.96,59.72 210.63,59.75C211.67,59.8 213.11,60.14 214.58,60.17C216.42,60.21 219.83,59.85 220.83,59.8C221.15,59.79 221.19,59.78 221.46,59.78C221.92,59.78 222.58,59.82 223.33,59.82C224.44,59.83 226.99,59.81 227.5,59.78C227.61,59.77 227.71,59.76 227.71,59.76C227.71,59.76 227.71,59.76 227.71,59.76C227.71,59.76 229.04,60.02 229.79,60.04C230.68,60.07 231.98,59.9 232.71,59.84C233.14,59.81 233.42,59.75 233.75,59.75C234.04,59.75 234.26,59.79 234.58,59.8C235,59.82 235.42,59.84 236.04,59.84C237.11,59.84 239.46,59.69 240.42,59.68C240.89,59.67 240.98,59.73 241.46,59.69C242.54,59.6 245.78,58.88 246.67,58.77C246.98,58.73 247.08,58.73 247.29,58.72C247.5,58.7 247.77,58.69 247.92,58.68C248.01,58.67 248.03,58.67 248.13,58.66C248.4,58.64 249.58,58.57 249.58,58.57C249.58,58.57 249.58,58.57 249.58,58.57C249.58,58.57 249.99,58.57 250.21,58.56C250.47,58.55 251.04,58.5 251.04,58.5C251.04,58.5 251.04,58.5 251.04,58.5C251.04,58.5 252.08,58.32 252.5,58.26C252.82,58.21 253.07,58.18 253.33,58.14C253.55,58.11 253.72,58.08 253.96,58.04C254.26,57.99 254.65,57.93 255,57.87C255.35,57.81 255.77,57.73 256.04,57.66C256.21,57.62 256.32,57.58 256.46,57.54C256.6,57.5 256.73,57.47 256.88,57.42C257.07,57.36 257.28,57.3 257.5,57.22C257.76,57.13 258.33,56.91 258.33,56.91C258.33,56.91 258.33,56.91 258.33,56.91C258.33,56.91 259.79,56.28 259.79,56.28C259.79,56.28 259.79,56.28 259.79,56.28C259.79,56.28 261.25,55.54 261.25,55.54C261.25,55.54 261.25,55.54 261.25,55.54C261.25,55.54 262.7,54.73 263.33,54.37C263.86,54.07 264.79,53.52 264.79,53.52C264.79,53.52 264.79,53.52 264.79,53.52C264.79,53.52 265.16,53.32 265.42,53.2C265.8,53.02 266.49,52.71 266.88,52.55C267.13,52.44 267.25,52.4 267.5,52.3C267.88,52.14 268.96,51.71 268.96,51.71C268.96,51.71 268.96,51.71 268.96,51.71C268.96,51.71 269.07,51.69 269.17,51.66C269.44,51.58 270.37,51.25 270.63,51.17C270.73,51.14 270.73,51.14 270.83,51.11C271.12,51.02 271.96,50.7 272.5,50.53C273,50.37 273.96,50.13 273.96,50.13C273.96,50.13 273.96,50.13 273.96,50.13C273.96,50.13 274.73,50.03 275,49.97C275.17,49.93 275.42,49.86 275.42,49.86C275.42,49.86 275.42,49.86 275.42,49.86C275.42,49.86 276.33,49.73 276.67,49.65C276.91,49.59 277.07,49.5 277.29,49.46C277.55,49.41 277.81,49.41 278.13,49.4C278.55,49.38 279.24,49.37 279.58,49.38Q279.76,49.38 280,49.4" style="vector-effect: none; fill: none; stroke: rgb(164, 125, 3); stroke-opacity: 1; stroke-width: 5px; opacity: 1;"/></g><g class="points"/><g class="text"/></g><g class="trace scatter traced4823f" style="stroke-miterlimit: 2; opacity: 1;"><g class="fills"/><g class="errorbars"/><g class="lines"><path class="js-line" d="M0,62.28Q3.03,53.46 6.67,51.64C11.48,49.24 23.59,52.68 28.54,53.5C31.13,53.93 32.47,54.45 34.38,54.96C36.22,55.45 37.97,55.8 39.79,56.49C41.78,57.25 44.51,58.73 45.83,59.41C46.49,59.75 46.68,59.9 47.29,60.2C48.24,60.68 49.51,61.46 51.04,61.92C53.2,62.57 56.97,62.97 59.17,63.22C60.65,63.39 61.88,63.41 62.92,63.47C63.65,63.51 64.19,63.59 64.79,63.55C65.36,63.51 65.86,63.33 66.46,63.26C67.16,63.18 67.99,63.23 68.75,63.16C69.52,63.09 70.39,62.94 71.04,62.83C71.52,62.75 71.73,62.62 72.29,62.57C73.43,62.47 76.16,62.72 77.5,62.71C78.35,62.7 78.67,62.67 79.58,62.61C81.34,62.5 84.22,62.23 87.29,61.98C91.87,61.61 103.27,60.66 104.38,60.62C104.5,60.62 104.47,60.62 104.58,60.62C105.12,60.63 108.12,60.58 109.38,60.73C110.22,60.83 110.65,61.09 111.46,61.19C112.56,61.32 114.31,61.16 115.42,61.26C116.23,61.33 116.68,61.49 117.5,61.6C118.69,61.75 120.86,61.94 121.88,62.01C122.42,62.05 122.89,62.06 123.13,62.07C123.23,62.07 123.22,62.07 123.33,62.07C123.94,62.09 127.21,62.4 129.17,62.38C131.17,62.36 132.88,62.04 135.21,61.93C138.38,61.78 144.59,61.89 146.46,61.72C147.09,61.66 147.4,61.56 147.71,61.51C147.89,61.48 147.91,61.46 148.13,61.44C148.93,61.37 152.43,61.5 153.75,61.46C154.47,61.44 154.79,61.37 155.42,61.35C156.26,61.32 157.4,61.37 158.33,61.36C159.19,61.35 160.35,61.35 160.83,61.32C161.03,61.31 161.11,61.29 161.25,61.28C161.39,61.27 161.46,61.28 161.67,61.27C162.34,61.25 164.21,61.2 165.83,61.1C168.09,60.96 173.21,60.51 173.96,60.46C174.08,60.45 174.1,60.45 174.17,60.45C174.24,60.45 174.26,60.45 174.38,60.44C174.95,60.39 178.41,59.82 179.38,59.82C179.77,59.82 179.81,59.88 180.21,59.92C181.25,60.03 185.22,60.43 185.83,60.44C185.95,60.44 185.94,60.44 186.04,60.43C186.31,60.41 186.9,60.38 187.5,60.28C188.5,60.12 190.19,59.66 191.46,59.42C192.62,59.2 193.66,59.08 194.79,58.88C195.95,58.67 197.04,58.37 198.33,58.17C199.85,57.93 202.37,57.77 203.33,57.58C203.73,57.5 204.17,57.34 204.17,57.34C204.17,57.34 204.17,57.34 204.17,57.34C204.17,57.34 207.77,56.35 208.96,56.13C209.65,56 209.96,56.03 210.63,55.94C211.67,55.81 213.11,55.55 214.58,55.37C216.42,55.14 219.83,54.95 220.83,54.7C221.16,54.62 221.2,54.56 221.46,54.45C221.92,54.25 222.57,53.88 223.33,53.59C224.43,53.17 226.99,52.39 227.5,52.3C227.61,52.28 227.71,52.29 227.71,52.29C227.71,52.29 227.71,52.29 227.71,52.29C227.71,52.29 229.04,52.34 229.79,52.37C230.68,52.41 231.98,52.45 232.71,52.51C233.14,52.55 233.42,52.63 233.75,52.63C234.04,52.63 234.26,52.57 234.58,52.54C235,52.5 235.42,52.51 236.04,52.44C237.11,52.32 239.46,51.91 240.42,51.78C240.89,51.72 240.98,51.67 241.46,51.65C242.53,51.6 245.78,51.81 246.67,51.79C246.98,51.78 247.08,51.76 247.29,51.74C247.5,51.72 247.77,51.68 247.92,51.66C248.01,51.65 248.03,51.65 248.13,51.64C248.4,51.62 249.58,51.55 249.58,51.55C249.58,51.55 249.58,51.55 249.58,51.55C249.58,51.55 249.99,51.5 250.21,51.48C250.47,51.46 251.04,51.45 251.04,51.45C251.04,51.45 251.04,51.45 251.04,51.45C251.04,51.45 252.08,51.39 252.5,51.37C252.82,51.35 253.07,51.33 253.33,51.32C253.55,51.31 253.72,51.31 253.96,51.31C254.26,51.3 254.65,51.31 255,51.29C255.35,51.27 255.77,51.22 256.04,51.21C256.21,51.2 256.32,51.2 256.46,51.2C256.6,51.2 256.73,51.21 256.88,51.21C257.07,51.21 257.28,51.22 257.5,51.22C257.76,51.22 258.33,51.21 258.33,51.21C258.33,51.21 258.33,51.21 258.33,51.21C258.33,51.21 259.79,51.28 259.79,51.28C259.79,51.28 259.79,51.28 259.79,51.28C259.79,51.28 261.25,51.36 261.25,51.36C261.25,51.36 261.25,51.36 261.25,51.36C261.25,51.36 262.7,51.58 263.33,51.66C263.86,51.72 264.79,51.8 264.79,51.8C264.79,51.8 264.79,51.8 264.79,51.8C264.79,51.8 265.17,51.84 265.42,51.88C265.81,51.94 266.5,52.07 266.88,52.13C267.13,52.17 267.25,52.19 267.5,52.22C267.88,52.27 268.96,52.36 268.96,52.36C268.96,52.36 268.96,52.36 268.96,52.36C268.96,52.36 269.07,52.36 269.17,52.36C269.44,52.37 270.37,52.45 270.63,52.47C270.73,52.48 270.73,52.48 270.83,52.48C271.12,52.49 271.96,52.48 272.5,52.47C273,52.46 273.96,52.4 273.96,52.4C273.96,52.4 273.96,52.4 273.96,52.4C273.96,52.4 274.73,52.36 275,52.35C275.17,52.35 275.42,52.35 275.42,52.35C275.42,52.35 275.42,52.35 275.42,52.35C275.42,52.35 276.33,52.39 276.67,52.39C276.91,52.39 277.07,52.38 277.29,52.38C277.55,52.39 277.81,52.41 278.13,52.43C278.55,52.45 279.24,52.5 279.58,52.5Q279.76,52.5 280,52.47" style="vector-effect: none; fill: none; stroke: rgb(255, 26, 74); stroke-opacity: 1; stroke-width: 5px; opacity: 1;"/></g><g class="points"/><g class="text"/></g><g class="trace scatter tracef20b46" style="stroke-miterlimit: 2; opacity: 1;"><g class="fills"/><g class="errorbars"/><g class="lines"><path class="js-line" d="M0,53.1Q3.66,56.09 6.67,57.05C11.73,58.66 23.57,58.79 28.54,58.8C31.11,58.8 32.48,58.61 34.38,58.35C36.23,58.1 37.98,57.91 39.79,57.29C41.8,56.6 44.51,54.93 45.83,54.23C46.49,53.88 46.69,53.76 47.29,53.43C48.25,52.9 49.49,51.8 51.04,51.32C53.18,50.66 56.98,50.63 59.17,50.63C60.66,50.63 61.89,50.86 62.92,50.96C63.65,51.03 64.19,51.01 64.79,51.15C65.37,51.29 65.85,51.68 66.46,51.8C67.15,51.93 67.99,51.9 68.75,51.81C69.52,51.72 70.39,51.32 71.04,51.23C71.52,51.17 71.73,51.25 72.29,51.21C73.43,51.14 76.16,50.6 77.5,50.61C78.35,50.62 78.68,50.71 79.58,50.89C81.35,51.25 84.19,52.69 87.29,52.97C91.84,53.37 103.27,51.78 104.38,51.49C104.51,51.46 104.46,51.43 104.58,51.4C105.12,51.28 108.11,51.39 109.38,51.26C110.22,51.17 110.66,51.07 111.46,50.89C112.57,50.64 114.31,50.07 115.42,49.83C116.22,49.66 116.68,49.57 117.5,49.48C118.69,49.36 120.87,49.47 121.88,49.3C122.43,49.21 122.89,48.99 123.13,48.92C123.22,48.89 123.22,48.89 123.33,48.87C123.94,48.76 127.2,48.31 129.17,48.18C131.16,48.05 132.89,47.95 135.21,48.12C138.39,48.35 144.58,49.64 146.46,49.88C147.08,49.96 147.41,49.94 147.71,50C147.89,50.04 147.91,50.09 148.13,50.14C148.93,50.31 152.43,50.72 153.75,50.74C154.47,50.75 154.79,50.71 155.42,50.62C156.26,50.5 157.4,50.19 158.33,49.98C159.19,49.79 160.34,49.52 160.83,49.43C161.03,49.39 161.11,49.36 161.25,49.36C161.39,49.36 161.46,49.39 161.67,49.4C162.34,49.43 164.21,49.46 165.83,49.44C168.09,49.41 173.21,49.11 173.96,49.17C174.08,49.18 174.1,49.19 174.17,49.21C174.24,49.23 174.26,49.27 174.38,49.3C174.94,49.44 178.42,49.6 179.38,49.73C179.78,49.78 179.81,49.88 180.21,49.89C181.25,49.91 185.22,49.07 185.83,49.02C185.95,49.01 185.94,49.02 186.04,49.02C186.31,49.02 186.89,49.04 187.5,49.06C188.5,49.09 190.2,49.15 191.46,49.22C192.62,49.29 193.67,49.27 194.79,49.46C195.96,49.66 197.04,50.13 198.33,50.44C199.85,50.81 202.36,51.35 203.33,51.49C203.72,51.55 204.17,51.56 204.17,51.56C204.17,51.56 204.17,51.56 204.17,51.56C204.17,51.56 207.76,52.89 208.96,53.18C209.65,53.35 209.96,53.31 210.63,53.43C211.67,53.61 213.12,53.9 214.58,54.22C216.43,54.62 219.83,55.4 220.83,55.66C221.15,55.74 221.2,55.75 221.46,55.84C221.92,55.99 222.59,56.22 223.33,56.53C224.45,57 226.99,58.33 227.5,58.47C227.61,58.5 227.71,58.49 227.71,58.49C227.71,58.49 227.71,58.49 227.71,58.49C227.71,58.49 229.04,58.65 229.79,58.67C230.68,58.69 231.98,58.55 232.71,58.56C233.14,58.57 233.42,58.6 233.75,58.63C234.04,58.66 234.26,58.72 234.58,58.72C235,58.73 235.42,58.62 236.04,58.6C237.11,58.57 239.46,58.67 240.42,58.68C240.89,58.68 240.98,58.68 241.46,58.68C242.53,58.69 245.78,58.7 246.67,58.73C246.98,58.74 247.08,58.74 247.29,58.76C247.5,58.78 247.77,58.82 247.92,58.84C248.01,58.85 248.03,58.85 248.13,58.87C248.4,58.91 249.58,59.12 249.58,59.12C249.58,59.12 249.58,59.12 249.58,59.12C249.58,59.12 249.99,59.17 250.21,59.2C250.47,59.23 251.04,59.29 251.04,59.29C251.04,59.29 251.04,59.29 251.04,59.29C251.04,59.29 252.08,59.38 252.5,59.41C252.82,59.43 253.07,59.46 253.33,59.47C253.55,59.47 253.72,59.46 253.96,59.45C254.26,59.44 254.65,59.45 255,59.43C255.35,59.41 255.77,59.37 256.04,59.35C256.21,59.34 256.32,59.33 256.46,59.33C256.6,59.33 256.73,59.34 256.88,59.34C257.07,59.34 257.28,59.35 257.5,59.35C257.76,59.35 258.33,59.33 258.33,59.33C258.33,59.33 258.33,59.33 258.33,59.33C258.33,59.33 259.79,59.21 259.79,59.21C259.79,59.21 259.79,59.21 259.79,59.21C259.79,59.21 261.25,59.1 261.25,59.1C261.25,59.1 261.25,59.1 261.25,59.1C261.25,59.1 262.7,59.11 263.33,59.1C263.86,59.09 264.79,59.05 264.79,59.05C264.79,59.05 264.79,59.05 264.79,59.05C264.79,59.05 265.17,59.07 265.42,59.08C265.81,59.1 266.5,59.14 266.88,59.15C267.13,59.15 267.25,59.16 267.5,59.14C267.88,59.11 268.96,58.96 268.96,58.96C268.96,58.96 268.96,58.96 268.96,58.96C268.96,58.96 269.07,58.94 269.17,58.93C269.44,58.9 270.37,58.82 270.63,58.8C270.73,58.79 270.73,58.79 270.83,58.79C271.12,58.78 271.96,58.77 272.5,58.76C273,58.75 273.96,58.74 273.96,58.74C273.96,58.74 273.96,58.74 273.96,58.74C273.96,58.74 274.73,58.71 275,58.69C275.17,58.68 275.42,58.64 275.42,58.64C275.42,58.64 275.42,58.64 275.42,58.64C275.42,58.64 276.33,58.5 276.67,58.45C276.91,58.42 277.07,58.4 277.29,58.37C277.55,58.33 277.81,58.28 278.13,58.23C278.55,58.16 279.24,58.03 279.58,57.99Q279.76,57.97 280,57.95" style="vector-effect: none; fill: none; stroke: rgb(17, 17, 17); stroke-opacity: 1; stroke-width: 5px; opacity: 1;"/></g><g class="points"/><g class="text"/></g></g></g><g class="overplot"/><path class="xlines-above crisp" d="M0,0" style="fill: none;"/><path class="ylines-above crisp" d="M0,0" style="fill: none;"/><g class="overlines-above"/><g class="xaxislayer-above"/><g class="yaxislayer-above"/><g class="overaxes-above"/></g></g><g class="polarlayer"/><g class="smithlayer"/><g class="ternarylayer"/><g class="geolayer"/><g class="funnelarealayer"/><g class="pielayer"/><g class="iciclelayer"/><g class="treemaplayer"/><g class="sunburstlayer"/><g class="glimages"/><defs id="topdefs-1226dd"><g class="clips"/></defs><g class="layer-above"><g class="imagelayer"/><g class="shapelayer"/></g><g class="infolayer"><g class="g-gtitle"><text class="gtitle" x="15" y="25" text-anchor="start" dy="0em" style="font-family: Ubuntu, verdana, arial, sans-serif; font-size: 16px; fill: rgb(233, 84, 32); opacity: 1; font-weight: normal; white-space: pre;">Sněmovna volby 2025</text></g><g class="g-xtitle"/><g class="g-ytitle"/></g></svg>