<svg class="main-svg" xmlns="http://www.w3.org/2000/svg" xmlns:xlink="http://www.w3.org/1999/xlink" width="300" height="135" style="" viewBox="0 0 300 135"><rect x="0" y="0" width="300" height="135" style="fill: rgb(255, 255, 255); fill-opacity: 1;"/><defs id="defs-334a23"><g class="clips"><clipPath id="clip334a23xyplot" class="plotclip"><rect width="280" height="75"/></clipPath><clipPath class="axesclip" id="clip334a23x"><rect x="10" y="0" width="280" height="135"/></clipPath><clipPath class="axesclip" id="clip334a23y"><rect x="0" y="50" width="300" height="75"/></clipPath><clipPath class="axesclip" id="clip334a23xy"><rect x="10" y="50" width="280" height="75"/></clipPath></g><g class="gradients"/><g class="patterns"/></defs><g class="bglayer"/><g class="layer-below"><g class="imagelayer"/><g class="shapelayer"/></g><g class="cartesianlayer"><g class="subplot xy"><g class="layer-subplot"><g class="shapelayer"/><g class="imagelayer"/></g><g class="minor-gridlayer"><g class="x"/><g class="y"/></g><g class="gridlayer"><g class="x"><path class="xgrid crisp" transform="translate(49.73,0)" d="M0,50v75" style="stroke: rgb(235, 240, 248); stroke-opacity: 1; stroke-width: 1px;"/><path class="xgrid crisp" transform="translate(135.34,0)" d="M0,50v75" style="stroke: rgb(235, 240, 248); stroke-opacity: 1; stroke-width: 1px;"/><path class="xgrid crisp" transform="translate(222.36,0)" d="M0,50v75" style="stroke: rgb(235, 240, 248); stroke-opacity: 1; stroke-width: 1px;"/></g><g class="y"><path class="ygrid crisp" transform="translate(0,103.41)" d="M10,0h280" style="stroke: rgb(235, 240, 248); stroke-opacity: 1; stroke-width: 1px;"/><path class="ygrid crisp" transform="translate(0,81.83)" d="M10,0h280" style="stroke: rgb(235, 240, 248); stroke-opacity: 1; stroke-width: 1px;"/><path class="ygrid crisp" transform="translate(0,60.24)" d="M10,0h280" style="stroke: rgb(235, 240, 248); stroke-opacity: 1; stroke-width: 1px;"/></g></g><g class="zerolinelayer"><path class="yzl zl crisp" transform="translate(0,125)" d="M10,0h280" style="stroke: rgb(235, 240, 248); stroke-opacity: 1; stroke-width: 2px;"/></g><path class="xlines-below"/><path class="ylines-below"/><g class="overlines-below"/><g class="xaxislayer-below"/><g class="yaxislayer-below"/><g class="overaxes-below"/><g class="plot" transform="translate(10,50)" clip-path="url(#clip334a23xyplot)"><g class="scatterlayer mlayer"><g class="trace scatter tracea0fe96" style="stroke-miterlimit: 2; opacity: 1;"><g class="fills"/><g class="errorbars"/><g class="lines"><path class="js-line" d="M0,16.5Q8.64,16.56 15.14,16.73C26.92,17.03 53.56,19.29 64.8,18.5C70.65,18.09 73.7,16.72 78.04,16.14C82.2,15.59 86.13,15.44 90.34,15.05C94.79,14.64 101.04,13.97 104.05,13.75C105.53,13.64 106,13.68 107.36,13.57C109.54,13.39 112.5,13.03 115.88,12.66C120.86,12.12 129.34,11.03 134.32,10.63C137.7,10.36 140.49,10.23 142.84,10.21C144.5,10.2 145.71,10.36 147.09,10.36C148.39,10.36 149.52,10.27 150.88,10.25C152.48,10.23 154.35,10.27 156.08,10.28C157.81,10.29 159.81,10.28 161.28,10.32C162.37,10.35 162.85,10.4 164.12,10.44C166.71,10.53 172.91,10.4 175.95,10.74C177.89,10.96 178.6,11.6 180.68,11.7C184.66,11.89 191.19,10.44 198.18,9.86C208.56,9 234.4,7.82 236.96,7.53C237.24,7.5 237.17,7.49 237.43,7.45C238.68,7.28 245.43,6.26 248.31,6.3C250.21,6.32 251.21,6.84 253.04,6.92C255.56,7.04 259.51,6.74 262.03,6.57C263.86,6.45 264.9,6.42 266.76,6.13C269.47,5.71 274.38,4.33 276.69,3.99C277.92,3.81 278.98,3.8 279.53,3.77Q279.75,3.76 280,3.75" style="vector-effect: none; fill: none; stroke: rgb(38, 16, 96); stroke-opacity: 1; stroke-width: 5px; opacity: 1;"/></g><g class="points"/><g class="text"/></g><g class="trace scatter traceebe3e5" style="stroke-miterlimit: 2; opacity: 1;"><g class="fills"/><g class="errorbars"/><g class="lines"><path class="js-line" d="M0,45.64Q8.65,43.7 15.14,42.07C26.93,39.1 53.47,30.88 64.8,28.78C70.57,27.71 73.7,27.63 78.04,27.38C82.21,27.14 86.21,26.43 90.34,27.24C94.88,28.14 101,32.41 104.05,33.06C105.49,33.36 106.02,32.88 107.36,33.11C109.57,33.5 112.46,35.17 115.88,36.05C120.81,37.32 129.33,38.79 134.32,39.28C137.69,39.61 140.49,39.5 142.84,39.47C144.5,39.45 145.71,39.35 147.09,39.26C148.39,39.18 149.52,38.94 150.88,38.96C152.48,38.98 154.34,39.46 156.08,39.51C157.81,39.56 159.81,39.38 161.28,39.29C162.37,39.22 162.85,39.1 164.12,39.05C166.71,38.95 172.92,39.58 175.95,39.16C177.91,38.89 178.59,37.88 180.68,37.77C184.65,37.56 191.18,40.67 198.18,40.97C208.54,41.41 234.4,36.95 236.96,37.25C237.25,37.28 237.16,37.36 237.43,37.41C238.67,37.66 245.43,38.2 248.31,38.22C250.21,38.23 251.22,37.82 253.04,37.92C255.57,38.05 259.5,39.18 262.03,39.45C263.85,39.64 264.9,39.52 266.76,39.65C269.47,39.84 274.38,40.49 276.69,40.62C277.92,40.69 278.98,40.69 279.53,40.67Q279.75,40.66 280,40.63" style="vector-effect: none; fill: none; stroke: rgb(0, 68, 148); stroke-opacity: 1; stroke-width: 5px; opacity: 1;"/></g><g class="points"/><g class="text"/></g><g class="trace scatter trace725528" style="stroke-miterlimit: 2; opacity: 1;"><g class="fills"/><g class="errorbars"/><g class="lines"><path class="js-line" d="M0,54.49Q8.61,56.32 15.14,56.98C26.89,58.17 53.53,58.6 64.8,58.88C70.62,59.02 73.71,58.96 78.04,59.03C82.22,59.1 86.16,59.75 90.34,59.3C94.82,58.82 101.03,56.61 104.05,56.03C105.52,55.75 106.01,55.79 107.36,55.55C109.55,55.16 112.48,54.13 115.88,53.74C120.83,53.17 129.35,53.34 134.32,53.34C137.7,53.34 140.49,53.55 142.84,53.54C144.5,53.54 145.71,53.39 147.09,53.42C148.39,53.45 149.52,53.66 150.88,53.7C152.48,53.75 154.35,53.67 156.08,53.61C157.81,53.55 159.81,53.37 161.28,53.34C162.37,53.32 162.85,53.42 164.12,53.38C166.71,53.29 172.89,52.61 175.95,52.41C177.88,52.28 178.61,52.16 180.68,52.18C184.67,52.22 191.2,53.19 198.18,53.41C208.56,53.74 234.4,53.27 236.96,53.12C237.24,53.1 237.17,53.08 237.43,53.07C238.68,53.02 245.43,53.4 248.31,53.27C250.21,53.18 251.21,52.89 253.04,52.74C255.56,52.53 259.51,52.39 262.03,52.26C263.86,52.16 264.89,52.08 266.76,52.01C269.46,51.9 274.38,51.82 276.69,51.74C277.92,51.69 278.98,51.64 279.53,51.61Q279.75,51.6 280,51.58" style="vector-effect: none; fill: none; stroke: rgb(0, 0, 0); stroke-opacity: 1; stroke-width: 5px; opacity: 1;"/></g><g class="points"/><g class="text"/></g><g class="trace scatter trace957eaa" style="stroke-miterlimit: 2; opacity: 1;"><g class="fills"/><g class="errorbars"/><g class="lines"><path class="js-line" d="M0,54.28Q8.64,54.51 15.14,54.32C26.92,53.98 53.53,51.24 64.8,51.31C70.62,51.35 73.71,52.31 78.04,52.28C82.22,52.25 86.13,51.53 90.34,51.2C94.78,50.86 101.04,50.44 104.05,50.28C105.53,50.2 106,50.25 107.36,50.15C109.54,50 112.49,49.54 115.88,49.29C120.85,48.92 129.34,48.56 134.32,48.41C137.7,48.31 140.49,48.36 142.84,48.3C144.5,48.25 145.71,48.1 147.09,48.12C148.39,48.14 149.52,48.34 150.88,48.37C152.48,48.4 154.35,48.16 156.08,48.23C157.82,48.3 159.81,48.65 161.28,48.77C162.37,48.86 162.85,48.89 164.12,48.95C166.71,49.08 172.9,49.25 175.95,49.4C177.88,49.5 178.6,49.63 180.68,49.69C184.67,49.8 191.22,49.1 198.18,49.59C208.59,50.33 234.39,55.2 236.96,55.36C237.24,55.38 237.17,55.35 237.43,55.35C238.68,55.35 245.43,55.35 248.31,55.5C250.21,55.6 251.21,55.83 253.04,55.93C255.56,56.07 259.51,56.08 262.03,56.1C263.86,56.12 264.89,56.08 266.76,56.09C269.46,56.11 274.38,56.24 276.69,56.26C277.92,56.27 278.98,56.25 279.53,56.27Q279.75,56.28 280,56.3" style="vector-effect: none; fill: none; stroke: rgb(234, 35, 41); stroke-opacity: 1; stroke-width: 5px; opacity: 1;"/></g><g class="points"/><g class="text"/></g><g class="trace scatter traced68e4a" style="stroke-miterlimit: 2; opacity: 1;"><g class="fills"/><g class="errorbars"/><g class="lines"><path class="js-line" d="M0,61.83Q8.15,52.95 15.14,50.83C26.53,47.37 53.54,51.89 64.8,52.75C70.63,53.19 73.71,53.73 78.04,54.26C82.22,54.77 86.15,55.12 90.34,55.85C94.8,56.63 101.04,58.16 104.05,58.86C105.53,59.21 106,59.37 107.36,59.68C109.54,60.18 112.48,60.98 115.88,61.46C120.84,62.16 129.34,62.55 134.32,62.81C137.7,62.99 140.49,63.01 142.84,63.07C144.5,63.11 145.71,63.19 147.09,63.15C148.39,63.11 149.52,62.93 150.88,62.86C152.48,62.78 154.35,62.83 156.08,62.75C157.81,62.67 159.81,62.52 161.28,62.4C162.37,62.31 162.85,62.19 164.12,62.14C166.71,62.04 172.89,62.29 175.95,62.28C177.88,62.27 178.61,62.24 180.68,62.18C184.67,62.06 191.2,61.79 198.18,61.53C208.57,61.14 234.4,60.14 236.96,60.09C237.24,60.08 237.17,60.09 237.43,60.09C238.68,60.1 245.43,60.04 248.31,60.2C250.21,60.3 251.21,60.58 253.04,60.67C255.56,60.8 259.51,60.61 262.03,60.71C263.86,60.78 264.89,60.95 266.76,61.06C269.46,61.21 274.38,61.39 276.69,61.46C277.92,61.5 278.98,61.51 279.53,61.51Q279.75,61.51 280,61.5" style="vector-effect: none; fill: none; stroke: rgb(93, 140, 0); stroke-opacity: 1; stroke-width: 5px; opacity: 1;"/></g><g class="points"/><g class="text"/></g></g></g><g class="overplot"/><path class="xlines-above crisp" d="M0,0" style="fill: none;"/><path class="ylines-above crisp" d="M0,0" style="fill: none;"/><g class="overlines-above"/><g class="xaxislayer-above"/><g class="yaxislayer-above"/><g class="overaxes-above"/></g></g><g class="polarlayer"/><g class="smithlayer"/><g class="ternarylayer"/><g class="geolayer"/><g class="funnelarealayer"/><g class="pielayer"/><g class="iciclelayer"/><g class="treemaplayer"/><g class="sunburstlayer"/><g class="glimages"/><defs id="topdefs-334a23"><g class="clips"/></defs><g class="layer-above"><g class="imagelayer"/><g class="shapelayer"/></g><g class="infolayer"><g class="g-gtitle"><text class="gtitle" x="15" y="25" text-anchor="start" dy="0em" style="font-family: Ubuntu, verdana, arial, sans-serif; font-size: 16px; fill: rgb(233, 84, 32); opacity: 1; font-weight: normal; white-space: pre;">Sněmovna 2021-2025</text></g><g class="g-xtitle"/><g class="g-ytitle"/></g></svg>