<svg class="main-svg" xmlns="http://www.w3.org/2000/svg" xmlns:xlink="http://www.w3.org/1999/xlink" width="300" height="135" style="" viewBox="0 0 300 135"><rect x="0" y="0" width="300" height="135" style="fill: rgb(255, 255, 255); fill-opacity: 1;"/><defs id="defs-9e7ade"><g class="clips"><clipPath id="clip9e7adexyplot" class="plotclip"><rect width="280" height="75"/></clipPath><clipPath class="axesclip" id="clip9e7adex"><rect x="10" y="0" width="280" height="135"/></clipPath><clipPath class="axesclip" id="clip9e7adey"><rect x="0" y="50" width="300" height="75"/></clipPath><clipPath class="axesclip" id="clip9e7adexy"><rect x="10" y="50" width="280" height="75"/></clipPath></g><g class="gradients"/><g class="patterns"/></defs><g class="bglayer"/><g class="layer-below"><g class="imagelayer"/><g class="shapelayer"/></g><g class="cartesianlayer"><g class="subplot xy"><g class="layer-subplot"><g class="shapelayer"/><g class="imagelayer"/></g><g class="minor-gridlayer"><g class="x"/><g class="y"/></g><g class="gridlayer"><g class="x"><path class="xgrid crisp" transform="translate(26.66,0)" d="M0,50v75" style="stroke: rgb(235, 240, 248); stroke-opacity: 1; stroke-width: 1px;"/><path class="xgrid crisp" transform="translate(99.04,0)" d="M0,50v75" style="stroke: rgb(235, 240, 248); stroke-opacity: 1; stroke-width: 1px;"/><path class="xgrid crisp" transform="translate(171.42,0)" d="M0,50v75" style="stroke: rgb(235, 240, 248); stroke-opacity: 1; stroke-width: 1px;"/><path class="xgrid crisp" transform="translate(243.99,0)" d="M0,50v75" style="stroke: rgb(235, 240, 248); stroke-opacity: 1; stroke-width: 1px;"/></g><g class="y"><path class="ygrid crisp" transform="translate(0,104.14)" d="M10,0h280" style="stroke: rgb(235, 240, 248); stroke-opacity: 1; stroke-width: 1px;"/><path class="ygrid crisp" transform="translate(0,83.28)" d="M10,0h280" style="stroke: rgb(235, 240, 248); stroke-opacity: 1; stroke-width: 1px;"/><path class="ygrid crisp" transform="translate(0,62.42)" d="M10,0h280" style="stroke: rgb(235, 240, 248); stroke-opacity: 1; stroke-width: 1px;"/></g></g><g class="zerolinelayer"><path class="yzl zl crisp" transform="translate(0,125)" d="M10,0h280" style="stroke: rgb(235, 240, 248); stroke-opacity: 1; stroke-width: 2px;"/></g><path class="xlines-below"/><path class="ylines-below"/><g class="overlines-below"/><g class="xaxislayer-below"/><g class="yaxislayer-below"/><g class="overaxes-below"/><g class="plot" transform="translate(10,50)" clip-path="url(#clip9e7adexyplot)"><g class="scatterlayer mlayer"><g class="trace scatter trace756ba1" style="stroke-miterlimit: 2; opacity: 1;"><g class="fills"/><g class="errorbars"/><g class="lines"><path class="js-line" d="M0,18.47Q3.63,18.53 6.35,18.69C11.29,18.98 22.5,21.12 27.17,20.4C29.67,20.01 30.88,18.68 32.72,18.12C34.45,17.59 36.11,17.44 37.88,17.07C39.75,16.68 42.37,16.03 43.63,15.81C44.24,15.71 44.45,15.74 45.01,15.64C45.93,15.47 47.16,15.11 48.58,14.75C50.67,14.23 54.22,13.17 56.32,12.79C57.73,12.53 58.9,12.39 59.89,12.38C60.58,12.37 61.09,12.52 61.67,12.53C62.21,12.54 62.69,12.44 63.26,12.43C63.93,12.41 64.71,12.45 65.44,12.46C66.17,12.47 67,12.45 67.62,12.49C68.08,12.52 68.28,12.57 68.81,12.61C69.9,12.7 72.51,12.58 73.77,12.9C74.6,13.11 74.86,13.74 75.75,13.83C77.4,14 80.15,12.61 83.09,12.04C87.43,11.21 98.27,10.03 99.35,9.74C99.47,9.71 99.44,9.7 99.55,9.66C100.07,9.49 102.9,8.5 104.11,8.51C104.91,8.52 105.32,9 106.09,9.06C107.14,9.14 108.81,8.8 109.86,8.61C110.63,8.47 111.08,8.41 111.84,8.12C113,7.69 115.03,6.33 116.01,5.98C116.51,5.8 116.97,5.77 117.2,5.72C117.29,5.7 117.28,5.7 117.39,5.68C117.97,5.56 121.08,4.53 122.95,4.47C124.85,4.41 126.48,5.13 128.7,5.37C131.71,5.7 137.64,6.29 139.41,6.05C140.01,5.97 140.3,5.72 140.59,5.64C140.76,5.59 140.78,5.6 140.99,5.56C141.76,5.42 145.09,4.74 146.35,4.67C147.03,4.63 147.33,4.78 147.93,4.76C148.73,4.74 149.82,4.57 150.71,4.44C151.54,4.32 152.63,4.08 153.09,4.02C153.27,3.99 153.35,3.99 153.48,3.98C153.61,3.97 153.68,3.97 153.88,3.96C154.52,3.94 156.31,3.78 157.85,3.87C160.01,3.99 164.87,4.84 165.58,4.91C165.69,4.92 165.71,4.93 165.78,4.92C165.85,4.91 165.87,4.89 165.98,4.87C166.52,4.79 169.83,4.88 170.74,4.67C171.13,4.58 171.14,4.35 171.53,4.32C172.51,4.24 176.3,5.57 176.88,5.66C176.99,5.68 176.98,5.67 177.08,5.67C177.33,5.68 177.9,5.6 178.47,5.66C179.42,5.75 181.04,6.21 182.24,6.43C183.34,6.63 184.33,6.83 185.41,6.96C186.51,7.09 187.56,7.07 188.78,7.19C190.23,7.34 192.62,7.68 193.54,7.83C193.92,7.89 194.33,7.99 194.33,7.99C194.33,7.99 194.33,7.99 194.33,7.99C194.33,7.99 197.77,9.22 198.9,9.25C199.56,9.26 199.84,8.97 200.48,8.89C201.46,8.76 202.88,9.06 204.25,8.78C206.04,8.42 209.24,6.72 210.2,6.45C210.49,6.37 210.54,6.4 210.79,6.34C211.23,6.24 211.86,6.03 212.58,5.85C213.64,5.58 216.05,4.96 216.54,4.9C216.65,4.89 216.74,4.9 216.74,4.9C216.74,4.9 216.74,4.9 216.74,4.9C216.74,4.9 218.01,4.63 218.73,4.46C219.58,4.26 220.8,3.83 221.5,3.75C221.91,3.7 222.18,3.78 222.49,3.78C222.77,3.78 222.99,3.76 223.29,3.77C223.69,3.79 224.09,3.87 224.67,3.91C225.68,3.98 227.93,4.07 228.84,4.1C229.28,4.11 229.37,4.11 229.83,4.11C230.85,4.1 233.94,4 234.79,3.97C235.08,3.96 235.18,3.95 235.38,3.95C235.58,3.95 235.83,3.96 235.98,3.95C236.06,3.95 236.08,3.94 236.18,3.93C236.43,3.91 237.56,3.86 237.56,3.86C237.56,3.86 237.56,3.86 237.56,3.86C237.56,3.86 237.95,3.84 238.16,3.83C238.41,3.81 238.95,3.77 238.95,3.77C238.95,3.77 238.95,3.77 238.95,3.77C238.95,3.77 239.94,3.87 240.34,3.91C240.64,3.94 240.88,3.96 241.13,3.99C241.34,4.01 241.51,4.03 241.73,4.06C242.02,4.1 242.39,4.16 242.72,4.21C243.05,4.25 243.45,4.28 243.71,4.33C243.87,4.36 243.98,4.4 244.11,4.44C244.24,4.48 244.36,4.51 244.5,4.55C244.68,4.61 244.89,4.67 245.1,4.75C245.35,4.85 245.89,5.12 245.89,5.12C245.89,5.12 245.89,5.12 245.89,5.12C245.89,5.12 247.28,5.66 247.28,5.66C247.28,5.66 247.28,5.66 247.28,5.66C247.28,5.66 248.67,6.05 248.67,6.05C248.67,6.05 248.67,6.05 248.67,6.05C248.67,6.05 250.05,6.27 250.65,6.42C251.16,6.55 252.04,6.87 252.04,6.87C252.04,6.87 252.04,6.87 252.04,6.87C252.04,6.87 252.39,6.99 252.63,7.03C252.99,7.09 253.65,7.12 254.02,7.14C254.26,7.16 254.38,7.15 254.62,7.17C254.99,7.2 256.01,7.29 256.01,7.29C256.01,7.29 256.01,7.29 256.01,7.29C256.01,7.29 256.11,7.28 256.2,7.28C256.45,7.28 257.34,7.36 257.59,7.38C257.69,7.39 257.69,7.38 257.79,7.39C258.07,7.42 258.87,7.59 259.38,7.65C259.85,7.71 260.76,7.75 260.76,7.75C260.76,7.75 260.76,7.75 260.76,7.75C260.76,7.75 261.5,7.78 261.76,7.81C261.92,7.83 262.15,7.87 262.15,7.87C262.15,7.87 262.15,7.87 262.15,7.87C262.15,7.87 263.01,7.9 263.34,7.93C263.57,7.95 263.73,7.98 263.94,8C264.18,8.02 264.43,8.04 264.73,8.05C265.13,8.07 265.8,8.08 266.12,8.08C266.29,8.08 266.41,8.08 266.52,8.08C266.6,8.08 266.62,8.09 266.71,8.09C266.88,8.1 267.21,8.11 267.51,8.12C267.91,8.14 268.9,8.18 268.9,8.18C268.9,8.18 268.9,8.18 268.9,8.18C268.9,8.18 270.03,8.34 270.28,8.37C270.38,8.38 270.39,8.39 270.48,8.39C270.71,8.39 271.27,8.34 271.67,8.3C272.07,8.26 272.63,8.19 272.86,8.17C272.95,8.16 272.96,8.16 273.06,8.16C273.31,8.15 274,8.16 274.45,8.15C274.86,8.14 275.41,8.08 275.64,8.09C275.73,8.09 275.76,8.11 275.84,8.12C275.98,8.14 276.22,8.16 276.43,8.16C276.67,8.16 276.93,8.12 277.22,8.1C277.58,8.08 278.18,8.05 278.41,8.04C278.5,8.04 278.51,8.04 278.61,8.04Q278.86,8.05 280,8.13" style="vector-effect: none; fill: none; stroke: rgb(39, 42, 89); stroke-opacity: 1; stroke-width: 5px; opacity: 1;"/></g><g class="points"/><g class="text"/></g><g class="trace scatter trace905097" style="stroke-miterlimit: 2; opacity: 1;"><g class="fills"/><g class="errorbars"/><g class="lines"><path class="js-line" d="M0,17.22Q3.68,19.62 6.35,19.41C11.35,19.01 22.37,8.77 27.17,8.24C29.54,7.98 30.9,9.3 32.72,9.79C34.47,10.26 36.22,10.23 37.88,11.14C39.89,12.25 42.29,15.91 43.63,16.51C44.19,16.76 44.47,16.46 45.01,16.63C45.95,16.93 47.13,18.03 48.58,18.75C50.64,19.77 54.21,21.29 56.32,21.86C57.71,22.24 58.9,22.32 59.89,22.39C60.58,22.44 61.1,22.47 61.67,22.38C62.22,22.29 62.68,21.93 63.26,21.85C63.92,21.76 64.72,22.02 65.44,21.96C66.17,21.9 67.01,21.67 67.62,21.48C68.08,21.33 68.26,21.14 68.81,20.99C69.89,20.7 72.52,20.73 73.77,20.31C74.61,20.03 74.87,19.23 75.75,19.19C77.41,19.11 80.09,22.01 83.09,22.45C87.38,23.08 98.27,20.02 99.35,20.36C99.49,20.4 99.43,20.48 99.55,20.54C100.07,20.8 102.9,21.39 104.11,21.49C104.9,21.56 105.33,21.35 106.09,21.41C107.15,21.49 108.8,21.98 109.86,22.15C110.62,22.27 111.08,22.19 111.84,22.39C112.99,22.7 115.04,23.75 116.01,24.15C116.53,24.36 116.97,24.56 117.2,24.62C117.29,24.64 117.29,24.62 117.39,24.65C117.97,24.8 121.06,26.35 122.95,26.59C124.83,26.82 126.5,25.96 128.7,26.08C131.73,26.25 137.63,27.85 139.41,28.26C140,28.4 140.3,28.48 140.59,28.56C140.76,28.6 140.78,28.64 140.99,28.67C141.75,28.77 145.09,28.56 146.35,28.62C147.03,28.65 147.33,28.72 147.93,28.79C148.73,28.89 149.82,29.16 150.71,29.18C151.53,29.2 152.63,28.93 153.09,28.97C153.28,28.99 153.35,29.06 153.48,29.08C153.61,29.1 153.68,29.06 153.88,29.07C154.52,29.09 156.31,29.29 157.85,29.37C160,29.49 164.87,29.63 165.58,29.62C165.69,29.62 165.71,29.62 165.78,29.61C165.85,29.6 165.87,29.56 165.98,29.55C166.52,29.48 169.82,29.76 170.74,29.75C171.11,29.75 171.15,29.73 171.53,29.7C172.52,29.62 176.3,29.28 176.88,29.18C176.99,29.16 176.98,29.15 177.08,29.13C177.33,29.09 177.89,28.99 178.47,28.99C179.42,29 181.04,29.46 182.24,29.41C183.35,29.37 184.33,28.84 185.41,28.8C186.51,28.76 187.56,29.06 188.78,29.21C190.23,29.38 192.62,29.67 193.54,29.77C193.91,29.81 194.33,29.85 194.33,29.85C194.33,29.85 194.33,29.85 194.33,29.85C194.33,29.85 197.76,31.07 198.9,31.33C199.56,31.48 199.84,31.48 200.48,31.56C201.47,31.69 202.86,31.75 204.25,31.97C206.01,32.25 209.26,32.86 210.2,33.25C210.52,33.38 210.53,33.54 210.79,33.63C211.21,33.78 211.87,33.82 212.58,33.83C213.64,33.84 216.06,33.44 216.54,33.47C216.65,33.48 216.74,33.51 216.74,33.51C216.74,33.51 216.74,33.51 216.74,33.51C216.74,33.51 218.01,33.69 218.73,33.78C219.58,33.89 220.81,33.95 221.5,34.1C221.92,34.19 222.18,34.3 222.49,34.42C222.77,34.53 222.98,34.69 223.29,34.8C223.68,34.94 224.08,35.01 224.67,35.13C225.68,35.35 227.93,35.77 228.84,35.91C229.28,35.98 229.37,35.99 229.83,36.03C230.85,36.11 233.94,36.21 234.79,36.24C235.08,36.25 235.18,36.25 235.38,36.25C235.58,36.25 235.83,36.25 235.98,36.24C236.06,36.24 236.08,36.23 236.18,36.22C236.43,36.19 237.56,36.08 237.56,36.08C237.56,36.08 237.56,36.08 237.56,36.08C237.56,36.08 237.95,36.01 238.16,35.98C238.41,35.94 238.95,35.86 238.95,35.86C238.95,35.86 238.95,35.86 238.95,35.86C238.95,35.86 239.94,35.84 240.34,35.84C240.64,35.84 240.88,35.84 241.13,35.84C241.34,35.84 241.51,35.84 241.73,35.84C242.02,35.84 242.39,35.84 242.72,35.83C243.05,35.82 243.45,35.81 243.71,35.8C243.87,35.79 243.98,35.79 244.11,35.77C244.24,35.75 244.36,35.72 244.5,35.69C244.68,35.65 244.89,35.58 245.1,35.53C245.34,35.47 245.89,35.37 245.89,35.37C245.89,35.37 245.89,35.37 245.89,35.37C245.89,35.37 247.28,34.98 247.28,34.98C247.28,34.98 247.28,34.98 247.28,34.98C247.28,34.98 248.67,34.6 248.67,34.6C248.67,34.6 248.67,34.6 248.67,34.6C248.67,34.6 250.05,34.16 250.65,33.99C251.15,33.85 252.04,33.64 252.04,33.64C252.04,33.64 252.04,33.64 252.04,33.64C252.04,33.64 252.39,33.55 252.63,33.5C252.99,33.42 253.65,33.31 254.02,33.23C254.26,33.18 254.38,33.15 254.62,33.1C254.99,33.02 256.01,32.83 256.01,32.83C256.01,32.83 256.01,32.83 256.01,32.83C256.01,32.83 256.11,32.8 256.2,32.78C256.45,32.72 257.33,32.5 257.59,32.44C257.69,32.42 257.69,32.42 257.79,32.4C258.07,32.35 258.87,32.2 259.38,32.13C259.86,32.06 260.76,31.97 260.76,31.97C260.76,31.97 260.76,31.97 260.76,31.97C260.76,31.97 261.5,31.9 261.76,31.88C261.92,31.87 262.15,31.85 262.15,31.85C262.15,31.85 262.15,31.85 262.15,31.85C262.15,31.85 263.01,31.88 263.34,31.9C263.57,31.91 263.73,31.92 263.94,31.93C264.19,31.94 264.43,31.92 264.73,31.93C265.13,31.94 265.8,31.97 266.12,31.99C266.29,32 266.41,32 266.52,32.01C266.59,32.01 266.62,32.02 266.71,32.02C266.88,32.02 267.21,32 267.51,32C267.91,31.99 268.9,31.99 268.9,31.99C268.9,31.99 268.9,31.99 268.9,31.99C268.9,31.99 270.03,32.02 270.28,32.02C270.38,32.02 270.39,32.02 270.48,32.02C270.71,32.03 271.27,32.09 271.67,32.1C272.07,32.11 272.63,32.11 272.86,32.11C272.95,32.11 272.96,32.1 273.06,32.1C273.31,32.09 274,32.08 274.45,32.07C274.86,32.06 275.41,32.05 275.64,32.06C275.73,32.06 275.76,32.07 275.84,32.08C275.98,32.09 276.22,32.13 276.43,32.14C276.67,32.15 276.93,32.15 277.22,32.15C277.58,32.15 278.18,32.12 278.41,32.11C278.5,32.11 278.51,32.1 278.61,32.1Q278.86,32.09 280,32.07" style="vector-effect: none; fill: none; stroke: rgb(94, 102, 213); stroke-opacity: 1; stroke-width: 5px; opacity: 1;"/></g><g class="points"/><g class="text"/></g><g class="trace scatter tracee94c8f" style="stroke-miterlimit: 2; opacity: 1;"><g class="fills"/><g class="errorbars"/><g class="lines"><path class="js-line" d="M0,54.97Q3.63,55.19 6.35,55.01C11.3,54.68 22.45,52.04 27.17,52.11C29.61,52.14 30.91,53.07 32.72,53.04C34.47,53.01 36.11,52.32 37.88,52C39.74,51.67 42.37,51.27 43.63,51.11C44.25,51.03 44.45,51.07 45.01,50.98C45.93,50.83 47.15,50.4 48.58,50.16C50.66,49.81 54.23,49.46 56.32,49.31C57.74,49.21 58.91,49.26 59.89,49.2C60.59,49.16 61.09,49.02 61.67,49.03C62.22,49.04 62.69,49.24 63.26,49.26C63.93,49.29 64.72,49.07 65.44,49.13C66.17,49.19 67,49.53 67.62,49.65C68.07,49.74 68.28,49.77 68.81,49.83C69.9,49.96 72.49,50.11 73.77,50.26C74.58,50.35 74.88,50.48 75.75,50.54C77.42,50.65 80.21,49.98 83.09,50.44C87.5,51.14 98.26,55.86 99.35,56.01C99.47,56.03 99.44,56 99.55,56C100.08,55.99 102.91,56 104.11,56.14C104.91,56.23 105.32,56.44 106.09,56.53C107.14,56.65 108.8,56.65 109.86,56.66C110.63,56.67 111.06,56.63 111.84,56.63C112.97,56.63 115.04,56.7 116.01,56.69C116.53,56.69 116.97,56.65 117.2,56.65C117.29,56.65 117.28,56.66 117.39,56.66C117.97,56.64 121.08,56.03 122.95,55.97C124.85,55.91 126.5,56.49 128.7,56.34C131.73,56.13 137.63,54.28 139.41,54.17C140,54.13 140.3,54.25 140.59,54.26C140.76,54.27 140.78,54.27 140.99,54.26C141.76,54.23 145.09,53.9 146.35,53.84C147.03,53.81 147.33,53.81 147.93,53.82C148.73,53.83 149.83,53.79 150.71,53.93C151.54,54.06 152.63,54.5 153.09,54.59C153.27,54.62 153.35,54.62 153.48,54.63C153.61,54.65 153.68,54.66 153.88,54.68C154.52,54.74 156.31,54.93 157.85,54.98C160,55.05 164.87,54.9 165.58,54.91C165.69,54.91 165.71,54.91 165.78,54.92C165.85,54.93 165.87,54.93 165.98,54.95C166.52,55.04 169.82,55.59 170.74,55.77C171.12,55.84 171.15,55.86 171.53,55.94C172.52,56.15 176.3,56.99 176.88,57.03C176.99,57.04 176.98,57.02 177.08,57.02C177.33,57.02 177.89,57.08 178.47,57.08C179.42,57.08 181.04,56.84 182.24,56.92C183.35,56.99 184.34,57.23 185.41,57.48C186.52,57.74 187.55,58.16 188.78,58.45C190.22,58.79 192.62,59.22 193.54,59.36C193.91,59.42 194.33,59.45 194.33,59.45C194.33,59.45 194.33,59.45 194.33,59.45C194.33,59.45 197.77,59.73 198.9,59.76C199.56,59.78 199.84,59.72 200.48,59.75C201.47,59.8 202.85,60.14 204.25,60.17C206.01,60.21 209.25,59.83 210.2,59.79C210.5,59.78 210.54,59.78 210.79,59.78C211.23,59.78 211.87,59.82 212.58,59.82C213.64,59.83 216.06,59.79 216.54,59.77C216.65,59.77 216.74,59.76 216.74,59.76C216.74,59.76 216.74,59.76 216.74,59.76C216.74,59.76 218.01,60.02 218.73,60.04C219.58,60.07 220.81,59.9 221.5,59.84C221.91,59.8 222.18,59.75 222.49,59.74C222.77,59.73 222.99,59.78 223.29,59.79C223.69,59.81 224.09,59.83 224.67,59.83C225.69,59.82 227.93,59.67 228.84,59.66C229.28,59.65 229.38,59.71 229.83,59.67C230.85,59.58 233.94,58.86 234.79,58.74C235.08,58.7 235.18,58.7 235.38,58.69C235.58,58.67 235.83,58.66 235.98,58.65C236.06,58.64 236.08,58.64 236.18,58.63C236.43,58.61 237.56,58.53 237.56,58.53C237.56,58.53 237.56,58.53 237.56,58.53C237.56,58.53 237.95,58.53 238.16,58.52C238.41,58.51 238.95,58.45 238.95,58.45C238.95,58.45 238.95,58.45 238.95,58.45C238.95,58.45 239.94,58.27 240.34,58.2C240.64,58.15 240.88,58.11 241.13,58.07C241.34,58.03 241.5,58 241.73,57.96C242.02,57.91 242.39,57.85 242.72,57.79C243.05,57.72 243.45,57.64 243.71,57.57C243.87,57.53 243.98,57.49 244.11,57.45C244.24,57.41 244.36,57.37 244.5,57.32C244.68,57.26 244.89,57.19 245.1,57.11C245.35,57.02 245.89,56.79 245.89,56.79C245.89,56.79 245.89,56.79 245.89,56.79C245.89,56.79 247.28,56.14 247.28,56.14C247.28,56.14 247.28,56.14 247.28,56.14C247.28,56.14 248.67,55.38 248.67,55.38C248.67,55.38 248.67,55.38 248.67,55.38C248.67,55.38 250.05,54.53 250.65,54.16C251.15,53.85 252.04,53.3 252.04,53.3C252.04,53.3 252.04,53.3 252.04,53.3C252.04,53.3 252.39,53.1 252.63,52.97C252.99,52.78 253.65,52.47 254.02,52.3C254.26,52.19 254.38,52.14 254.62,52.03C254.99,51.87 256.01,51.43 256.01,51.43C256.01,51.43 256.01,51.43 256.01,51.43C256.01,51.43 256.11,51.4 256.2,51.37C256.45,51.28 257.33,50.94 257.59,50.85C257.69,50.82 257.69,50.82 257.79,50.79C258.07,50.69 258.87,50.35 259.38,50.17C259.85,50.01 260.76,49.76 260.76,49.76C260.76,49.76 260.76,49.76 260.76,49.76C260.76,49.76 261.5,49.62 261.76,49.56C261.92,49.52 262.15,49.46 262.15,49.46C262.15,49.46 262.15,49.46 262.15,49.46C262.15,49.46 263.01,49.29 263.34,49.2C263.58,49.14 263.72,49.06 263.94,49.01C264.18,48.95 264.43,48.94 264.73,48.9C265.13,48.85 265.8,48.78 266.12,48.75C266.29,48.73 266.41,48.73 266.52,48.72C266.6,48.71 266.62,48.7 266.71,48.69C266.88,48.67 267.21,48.66 267.51,48.64C267.91,48.62 268.9,48.57 268.9,48.57C268.9,48.57 268.9,48.57 268.9,48.57C268.9,48.57 270.03,48.45 270.28,48.43C270.38,48.42 270.39,48.42 270.48,48.42C270.71,48.41 271.27,48.41 271.67,48.4C272.07,48.39 272.63,48.38 272.86,48.38C272.95,48.38 272.96,48.39 273.06,48.39C273.31,48.4 274.01,48.41 274.45,48.44C274.86,48.47 275.41,48.56 275.64,48.57C275.73,48.58 275.76,48.57 275.84,48.57C275.98,48.57 276.22,48.58 276.43,48.61C276.68,48.64 276.93,48.72 277.22,48.78C277.58,48.85 278.18,48.99 278.41,49.02C278.5,49.03 278.51,49.04 278.61,49.04Q278.86,49.05 280,49" style="vector-effect: none; fill: none; stroke: rgb(164, 125, 3); stroke-opacity: 1; stroke-width: 5px; opacity: 1;"/></g><g class="points"/><g class="text"/></g><g class="trace scatter trace938939" style="stroke-miterlimit: 2; opacity: 1;"><g class="fills"/><g class="errorbars"/><g class="lines"><path class="js-line" d="M0,62.27Q2.83,53.43 6.35,51.64C10.92,49.31 22.47,52.68 27.17,53.5C29.63,53.93 30.91,54.45 32.72,54.96C34.48,55.45 36.15,55.8 37.88,56.49C39.78,57.25 42.38,58.73 43.63,59.41C44.25,59.75 44.44,59.9 45.01,60.2C45.92,60.68 47.12,61.46 48.58,61.92C50.63,62.57 54.23,62.97 56.32,63.22C57.73,63.39 58.9,63.41 59.89,63.47C60.59,63.51 61.1,63.59 61.67,63.55C62.22,63.51 62.69,63.33 63.26,63.26C63.93,63.18 64.72,63.23 65.44,63.16C66.17,63.09 67,62.94 67.62,62.83C68.08,62.75 68.27,62.62 68.81,62.57C69.89,62.47 72.49,62.72 73.77,62.71C74.58,62.7 74.88,62.67 75.75,62.61C77.42,62.5 80.16,62.23 83.09,61.98C87.45,61.61 98.27,60.67 99.35,60.62C99.47,60.61 99.44,60.62 99.55,60.62C100.08,60.63 102.91,60.58 104.11,60.73C104.91,60.83 105.32,61.09 106.09,61.19C107.14,61.32 108.81,61.16 109.86,61.26C110.63,61.33 111.06,61.49 111.84,61.6C112.97,61.75 115.04,61.94 116.01,62.01C116.53,62.05 116.97,62.06 117.2,62.07C117.29,62.07 117.28,62.07 117.39,62.07C117.97,62.09 121.08,62.4 122.95,62.38C124.85,62.36 126.49,62.04 128.7,61.93C131.72,61.78 137.63,61.89 139.41,61.72C140,61.66 140.3,61.56 140.59,61.51C140.76,61.48 140.78,61.46 140.99,61.44C141.76,61.37 145.09,61.5 146.35,61.46C147.03,61.44 147.33,61.37 147.93,61.35C148.73,61.32 149.82,61.37 150.71,61.36C151.53,61.35 152.63,61.35 153.09,61.32C153.28,61.31 153.35,61.29 153.48,61.28C153.61,61.27 153.68,61.28 153.88,61.27C154.52,61.25 156.31,61.2 157.85,61.1C160,60.96 164.87,60.51 165.58,60.46C165.69,60.45 165.71,60.45 165.78,60.45C165.85,60.45 165.87,60.45 165.98,60.44C166.52,60.39 169.82,59.82 170.74,59.82C171.11,59.82 171.15,59.88 171.53,59.92C172.52,60.03 176.3,60.43 176.88,60.44C176.99,60.44 176.98,60.44 177.08,60.43C177.33,60.41 177.9,60.38 178.47,60.28C179.42,60.12 181.03,59.66 182.24,59.42C183.34,59.2 184.34,59.08 185.41,58.88C186.52,58.67 187.56,58.37 188.78,58.17C190.23,57.93 192.63,57.77 193.54,57.58C193.92,57.5 194.33,57.34 194.33,57.34C194.33,57.34 194.33,57.34 194.33,57.34C194.33,57.34 197.77,56.35 198.9,56.13C199.56,56 199.84,56.03 200.48,55.94C201.47,55.81 202.85,55.55 204.25,55.37C206.01,55.14 209.26,54.95 210.2,54.7C210.51,54.62 210.54,54.56 210.79,54.45C211.23,54.25 211.85,53.88 212.58,53.59C213.63,53.17 216.05,52.39 216.54,52.3C216.65,52.28 216.74,52.29 216.74,52.29C216.74,52.29 216.74,52.29 216.74,52.29C216.74,52.29 218.01,52.34 218.73,52.37C219.58,52.41 220.81,52.45 221.5,52.51C221.91,52.55 222.18,52.63 222.49,52.63C222.77,52.63 222.99,52.57 223.29,52.54C223.69,52.5 224.09,52.51 224.67,52.44C225.69,52.32 227.93,51.91 228.84,51.78C229.28,51.72 229.37,51.67 229.83,51.65C230.85,51.6 233.94,51.81 234.79,51.79C235.08,51.78 235.18,51.76 235.38,51.74C235.58,51.72 235.83,51.68 235.98,51.66C236.06,51.65 236.08,51.65 236.18,51.64C236.43,51.62 237.56,51.55 237.56,51.55C237.56,51.55 237.56,51.55 237.56,51.55C237.56,51.55 237.95,51.51 238.16,51.49C238.41,51.47 238.95,51.45 238.95,51.45C238.95,51.45 238.95,51.45 238.95,51.45C238.95,51.45 239.94,51.4 240.34,51.38C240.64,51.36 240.88,51.34 241.13,51.33C241.34,51.32 241.51,51.31 241.73,51.31C242.02,51.3 242.39,51.31 242.72,51.3C243.05,51.29 243.45,51.23 243.71,51.22C243.87,51.21 243.98,51.21 244.11,51.21C244.24,51.21 244.36,51.22 244.5,51.22C244.68,51.22 244.89,51.23 245.1,51.23C245.35,51.23 245.89,51.22 245.89,51.22C245.89,51.22 245.89,51.22 245.89,51.22C245.89,51.22 247.28,51.29 247.28,51.29C247.28,51.29 247.28,51.29 247.28,51.29C247.28,51.29 248.67,51.38 248.67,51.38C248.67,51.38 248.67,51.38 248.67,51.38C248.67,51.38 250.05,51.6 250.65,51.67C251.15,51.73 252.04,51.81 252.04,51.81C252.04,51.81 252.04,51.81 252.04,51.81C252.04,51.81 252.39,51.85 252.63,51.89C253,51.95 253.65,52.07 254.02,52.13C254.26,52.17 254.38,52.18 254.62,52.21C254.99,52.25 256.01,52.34 256.01,52.34C256.01,52.34 256.01,52.34 256.01,52.34C256.01,52.34 256.11,52.33 256.2,52.33C256.45,52.33 257.34,52.41 257.59,52.43C257.69,52.44 257.69,52.44 257.79,52.44C258.07,52.45 258.87,52.44 259.38,52.42C259.86,52.4 260.76,52.35 260.76,52.35C260.76,52.35 260.76,52.35 260.76,52.35C260.76,52.35 261.5,52.3 261.76,52.29C261.92,52.29 262.15,52.29 262.15,52.29C262.15,52.29 262.15,52.29 262.15,52.29C262.15,52.29 263.01,52.31 263.34,52.31C263.57,52.31 263.73,52.3 263.94,52.3C264.19,52.3 264.43,52.31 264.73,52.31C265.13,52.31 265.8,52.33 266.12,52.32C266.29,52.32 266.41,52.31 266.52,52.3C266.59,52.3 266.63,52.3 266.71,52.29C266.88,52.27 267.21,52.23 267.51,52.19C267.91,52.14 268.9,51.99 268.9,51.99C268.9,51.99 268.9,51.99 268.9,51.99C268.9,51.99 270.03,51.86 270.28,51.84C270.38,51.83 270.39,51.83 270.48,51.83C270.71,51.82 271.27,51.82 271.67,51.83C272.07,51.84 272.63,51.89 272.86,51.9C272.95,51.91 272.96,51.9 273.06,51.91C273.32,51.93 274,52.02 274.45,52.07C274.86,52.11 275.41,52.17 275.64,52.18C275.73,52.18 275.76,52.18 275.84,52.18C275.98,52.18 276.22,52.18 276.43,52.18C276.67,52.18 276.93,52.18 277.22,52.18C277.58,52.18 278.18,52.15 278.41,52.15C278.5,52.15 278.51,52.15 278.61,52.16Q278.86,52.17 280,52.24" style="vector-effect: none; fill: none; stroke: rgb(255, 26, 74); stroke-opacity: 1; stroke-width: 5px; opacity: 1;"/></g><g class="points"/><g class="text"/></g><g class="trace scatter tracefd4406" style="stroke-miterlimit: 2; opacity: 1;"><g class="fills"/><g class="errorbars"/><g class="lines"><path class="js-line" d="M0,53.1Q3.47,56.1 6.35,57.05C11.16,58.65 22.44,58.79 27.17,58.8C29.61,58.8 30.91,58.61 32.72,58.35C34.48,58.1 36.16,57.91 37.88,57.29C39.79,56.6 42.37,54.93 43.63,54.23C44.25,53.88 44.44,53.76 45.01,53.43C45.92,52.9 47.1,51.8 48.58,51.32C50.61,50.67 54.23,50.63 56.32,50.63C57.74,50.63 58.91,50.86 59.89,50.96C60.59,51.03 61.1,51.01 61.67,51.15C62.23,51.29 62.68,51.68 63.26,51.8C63.92,51.93 64.72,51.9 65.44,51.81C66.17,51.72 67,51.32 67.62,51.23C68.07,51.17 68.28,51.25 68.81,51.21C69.9,51.14 72.49,50.6 73.77,50.61C74.58,50.62 74.89,50.71 75.75,50.89C77.43,51.25 80.13,52.7 83.09,52.97C87.42,53.37 98.27,51.77 99.35,51.49C99.47,51.46 99.44,51.43 99.55,51.4C100.07,51.28 102.91,51.38 104.11,51.25C104.91,51.16 105.33,51.07 106.09,50.89C107.15,50.64 108.8,50.07 109.86,49.83C110.62,49.66 111.06,49.57 111.84,49.48C112.97,49.36 115.05,49.47 116.01,49.3C116.54,49.2 116.97,48.97 117.2,48.91C117.29,48.89 117.28,48.89 117.39,48.87C117.97,48.77 121.08,48.31 122.95,48.18C124.85,48.05 126.5,47.95 128.7,48.12C131.73,48.35 137.63,49.64 139.41,49.88C140,49.96 140.3,49.94 140.59,50C140.76,50.04 140.78,50.08 140.99,50.13C141.75,50.3 145.09,50.72 146.35,50.74C147.03,50.75 147.33,50.71 147.93,50.62C148.73,50.5 149.82,50.19 150.71,49.98C151.53,49.79 152.63,49.52 153.09,49.43C153.27,49.39 153.35,49.37 153.48,49.36C153.61,49.35 153.68,49.39 153.88,49.4C154.52,49.44 156.31,49.46 157.85,49.44C160,49.41 164.87,49.11 165.58,49.17C165.7,49.18 165.71,49.19 165.78,49.21C165.85,49.23 165.87,49.27 165.98,49.3C166.52,49.44 169.82,49.58 170.74,49.72C171.12,49.78 171.15,49.88 171.53,49.89C172.52,49.92 176.3,49.07 176.88,49.02C176.99,49.01 176.98,49.02 177.08,49.02C177.33,49.02 177.89,49.03 178.47,49.05C179.42,49.08 181.04,49.15 182.24,49.22C183.34,49.29 184.35,49.27 185.41,49.46C186.53,49.66 187.55,50.13 188.78,50.44C190.22,50.81 192.62,51.35 193.54,51.49C193.91,51.55 194.33,51.56 194.33,51.56C194.33,51.56 194.33,51.56 194.33,51.56C194.33,51.56 197.76,52.89 198.9,53.18C199.55,53.35 199.84,53.31 200.48,53.43C201.47,53.61 202.85,53.9 204.25,54.22C206.01,54.62 209.25,55.4 210.2,55.66C210.5,55.74 210.54,55.75 210.79,55.84C211.23,55.99 211.87,56.22 212.58,56.53C213.65,57 216.05,58.33 216.54,58.47C216.64,58.5 216.74,58.49 216.74,58.49C216.74,58.49 216.74,58.49 216.74,58.49C216.74,58.49 218.01,58.65 218.73,58.67C219.58,58.69 220.81,58.55 221.5,58.56C221.91,58.57 222.18,58.6 222.49,58.63C222.77,58.66 222.99,58.72 223.29,58.72C223.69,58.73 224.09,58.62 224.67,58.6C225.68,58.57 227.93,58.67 228.84,58.68C229.28,58.68 229.37,58.68 229.83,58.68C230.85,58.69 233.94,58.7 234.79,58.73C235.08,58.74 235.18,58.74 235.38,58.76C235.58,58.78 235.83,58.82 235.98,58.84C236.06,58.85 236.08,58.85 236.18,58.87C236.43,58.91 237.56,59.12 237.56,59.12C237.56,59.12 237.56,59.12 237.56,59.12C237.56,59.12 237.95,59.16 238.16,59.19C238.41,59.22 238.95,59.29 238.95,59.29C238.95,59.29 238.95,59.29 238.95,59.29C238.95,59.29 239.94,59.37 240.34,59.4C240.64,59.43 240.88,59.47 241.13,59.47C241.34,59.47 241.51,59.45 241.73,59.44C242.02,59.43 242.39,59.44 242.72,59.42C243.05,59.4 243.45,59.36 243.71,59.34C243.87,59.33 243.98,59.32 244.11,59.32C244.24,59.32 244.36,59.33 244.5,59.33C244.68,59.33 244.89,59.34 245.1,59.34C245.35,59.34 245.89,59.31 245.89,59.31C245.89,59.31 245.89,59.31 245.89,59.31C245.89,59.31 247.28,59.19 247.28,59.19C247.28,59.19 247.28,59.19 247.28,59.19C247.28,59.19 248.67,59.08 248.67,59.08C248.67,59.08 248.67,59.08 248.67,59.08C248.67,59.08 250.05,59.09 250.65,59.08C251.15,59.07 252.04,59.03 252.04,59.03C252.04,59.03 252.04,59.03 252.04,59.03C252.04,59.03 252.39,59.04 252.63,59.05C253,59.07 253.65,59.12 254.02,59.12C254.26,59.12 254.38,59.12 254.62,59.1C254.99,59.07 256.01,58.92 256.01,58.92C256.01,58.92 256.01,58.92 256.01,58.92C256.01,58.92 256.11,58.91 256.2,58.9C256.45,58.88 257.34,58.79 257.59,58.77C257.69,58.76 257.69,58.76 257.79,58.76C258.07,58.75 258.87,58.73 259.38,58.72C259.86,58.71 260.76,58.7 260.76,58.7C260.76,58.7 260.76,58.7 260.76,58.7C260.76,58.7 261.5,58.67 261.76,58.65C261.92,58.64 262.15,58.61 262.15,58.61C262.15,58.61 262.15,58.61 262.15,58.61C262.15,58.61 263.01,58.49 263.34,58.45C263.57,58.42 263.73,58.42 263.94,58.4C264.19,58.38 264.43,58.34 264.73,58.31C265.13,58.27 265.8,58.2 266.12,58.19C266.29,58.18 266.41,58.19 266.52,58.19C266.59,58.19 266.62,58.19 266.71,58.19C266.88,58.19 267.21,58.22 267.51,58.23C267.91,58.25 268.9,58.27 268.9,58.27C268.9,58.27 268.9,58.27 268.9,58.27C268.9,58.27 270.03,58.23 270.28,58.22C270.38,58.22 270.39,58.22 270.48,58.21C270.71,58.2 271.27,58.16 271.67,58.14C272.07,58.12 272.63,58.09 272.86,58.07C272.95,58.06 272.96,58.06 273.06,58.05C273.31,58.02 274,57.92 274.45,57.86C274.86,57.8 275.41,57.73 275.64,57.7C275.73,57.69 275.76,57.68 275.84,57.67C275.98,57.65 276.22,57.61 276.43,57.58C276.67,57.55 276.93,57.51 277.22,57.48C277.58,57.44 278.18,57.39 278.41,57.37C278.5,57.36 278.51,57.36 278.61,57.36Q278.86,57.35 280,57.32" style="vector-effect: none; fill: none; stroke: rgb(17, 17, 17); stroke-opacity: 1; stroke-width: 5px; opacity: 1;"/></g><g class="points"/><g class="text"/></g></g></g><g class="overplot"/><path class="xlines-above crisp" d="M0,0" style="fill: none;"/><path class="ylines-above crisp" d="M0,0" style="fill: none;"/><g class="overlines-above"/><g class="xaxislayer-above"/><g class="yaxislayer-above"/><g class="overaxes-above"/></g></g><g class="polarlayer"/><g class="smithlayer"/><g class="ternarylayer"/><g class="geolayer"/><g class="funnelarealayer"/><g class="pielayer"/><g class="iciclelayer"/><g class="treemaplayer"/><g class="sunburstlayer"/><g class="glimages"/><defs id="topdefs-9e7ade"><g class="clips"/></defs><g class="layer-above"><g class="imagelayer"/><g class="shapelayer"/></g><g class="infolayer"><g class="g-gtitle"><text class="gtitle" x="15" y="25" text-anchor="start" dy="0em" style="font-family: Ubuntu, verdana, arial, sans-serif; font-size: 16px; fill: rgb(233, 84, 32); opacity: 1; font-weight: normal; white-space: pre;">Sněmovna volby 2025</text></g><g class="g-xtitle"/><g class="g-ytitle"/></g></svg>