<svg class="main-svg" xmlns="http://www.w3.org/2000/svg" xmlns:xlink="http://www.w3.org/1999/xlink" width="300" height="135" style="" viewBox="0 0 300 135"><rect x="0" y="0" width="300" height="135" style="fill: rgb(255, 255, 255); fill-opacity: 1;"/><defs id="defs-a7c88c"><g class="clips"><clipPath id="clipa7c88cxyplot" class="plotclip"><rect width="280" height="75"/></clipPath><clipPath class="axesclip" id="clipa7c88cx"><rect x="10" y="0" width="280" height="135"/></clipPath><clipPath class="axesclip" id="clipa7c88cy"><rect x="0" y="50" width="300" height="75"/></clipPath><clipPath class="axesclip" id="clipa7c88cxy"><rect x="10" y="50" width="280" height="75"/></clipPath></g><g class="gradients"/><g class="patterns"/></defs><g class="bglayer"/><g class="layer-below"><g class="imagelayer"/><g class="shapelayer"/></g><g class="cartesianlayer"><g class="subplot xy"><g class="layer-subplot"><g class="shapelayer"/><g class="imagelayer"/></g><g class="minor-gridlayer"><g class="x"/><g class="y"/></g><g class="gridlayer"><g class="x"><path class="xgrid crisp" transform="translate(27.67,0)" d="M0,50v75" style="stroke: rgb(235, 240, 248); stroke-opacity: 1; stroke-width: 1px;"/><path class="xgrid crisp" transform="translate(104.46,0)" d="M0,50v75" style="stroke: rgb(235, 240, 248); stroke-opacity: 1; stroke-width: 1px;"/><path class="xgrid crisp" transform="translate(181.24,0)" d="M0,50v75" style="stroke: rgb(235, 240, 248); stroke-opacity: 1; stroke-width: 1px;"/><path class="xgrid crisp" transform="translate(258.23,0)" d="M0,50v75" style="stroke: rgb(235, 240, 248); stroke-opacity: 1; stroke-width: 1px;"/></g><g class="y"><path class="ygrid crisp" transform="translate(0,104.16)" d="M10,0h280" style="stroke: rgb(235, 240, 248); stroke-opacity: 1; stroke-width: 1px;"/><path class="ygrid crisp" transform="translate(0,83.32)" d="M10,0h280" style="stroke: rgb(235, 240, 248); stroke-opacity: 1; stroke-width: 1px;"/><path class="ygrid crisp" transform="translate(0,62.480000000000004)" d="M10,0h280" style="stroke: rgb(235, 240, 248); stroke-opacity: 1; stroke-width: 1px;"/></g></g><g class="zerolinelayer"><path class="yzl zl crisp" transform="translate(0,125)" d="M10,0h280" style="stroke: rgb(235, 240, 248); stroke-opacity: 1; stroke-width: 2px;"/></g><path class="xlines-below"/><path class="ylines-below"/><g class="overlines-below"/><g class="xaxislayer-below"/><g class="yaxislayer-below"/><g class="overaxes-below"/><g class="plot" transform="translate(10,50)" clip-path="url(#clipa7c88cxyplot)"><g class="scatterlayer mlayer"><g class="trace scatter trace24fa42" style="stroke-miterlimit: 2; opacity: 1;"><g class="fills"/><g class="errorbars"/><g class="lines"><path class="js-line" d="M0,18.52Q3.84,18.58 6.73,18.74C11.97,19.03 23.86,21.18 28.82,20.45C31.47,20.06 32.76,18.73 34.71,18.17C36.54,17.64 38.31,17.49 40.18,17.12C42.16,16.73 44.94,16.08 46.28,15.86C46.93,15.75 47.15,15.79 47.75,15.69C48.72,15.52 50.04,15.16 51.54,14.81C53.75,14.29 57.52,13.23 59.74,12.85C61.23,12.59 62.48,12.45 63.53,12.44C64.27,12.43 64.81,12.58 65.42,12.59C66,12.6 66.5,12.51 67.11,12.49C67.82,12.47 68.65,12.5 69.42,12.51C70.19,12.52 71.08,12.51 71.74,12.55C72.22,12.58 72.44,12.63 73,12.67C74.15,12.76 76.92,12.64 78.26,12.96C79.14,13.17 79.42,13.79 80.36,13.88C82.12,14.05 85.02,12.66 88.14,12.1C92.74,11.27 104.25,10.09 105.39,9.8C105.52,9.77 105.48,9.76 105.6,9.72C106.15,9.55 109.16,8.56 110.44,8.57C111.29,8.58 111.73,9.06 112.55,9.12C113.66,9.2 115.42,8.86 116.54,8.67C117.36,8.53 117.84,8.47 118.65,8.18C119.87,7.75 122.03,6.39 123.07,6.04C123.6,5.86 124.09,5.82 124.33,5.78C124.43,5.76 124.42,5.77 124.54,5.75C125.16,5.64 128.44,4.59 130.43,4.53C132.44,4.47 134.18,5.2 136.53,5.44C139.73,5.77 146.01,6.35 147.89,6.11C148.53,6.03 148.84,5.78 149.15,5.7C149.33,5.66 149.35,5.67 149.57,5.63C150.38,5.5 153.91,4.81 155.25,4.74C155.97,4.7 156.29,4.84 156.93,4.82C157.78,4.8 158.94,4.64 159.88,4.51C160.76,4.39 161.91,4.14 162.4,4.08C162.6,4.05 162.68,4.05 162.82,4.04C162.96,4.03 163.03,4.03 163.25,4.02C163.93,4 165.82,3.85 167.45,3.94C169.74,4.06 174.9,4.9 175.66,4.97C175.78,4.98 175.8,4.98 175.87,4.98C175.94,4.98 175.96,4.95 176.08,4.94C176.65,4.87 180.16,4.94 181.13,4.73C181.54,4.64 181.56,4.42 181.97,4.39C183.01,4.31 187.04,5.63 187.65,5.72C187.77,5.74 187.76,5.73 187.86,5.73C188.13,5.74 188.72,5.66 189.33,5.72C190.34,5.81 192.05,6.27 193.33,6.49C194.5,6.69 195.55,6.89 196.69,7.02C197.86,7.15 198.98,7.13 200.27,7.25C201.81,7.4 204.35,7.75 205.32,7.9C205.72,7.96 206.16,8.05 206.16,8.05C206.16,8.05 206.16,8.05 206.16,8.05C206.16,8.05 209.8,9.28 211,9.31C211.7,9.33 212,9.03 212.68,8.95C213.72,8.82 215.22,9.12 216.68,8.84C218.57,8.47 221.97,6.78 222.99,6.51C223.3,6.43 223.36,6.46 223.62,6.4C224.08,6.3 224.75,6.09 225.51,5.91C226.63,5.64 229.21,5.02 229.72,4.96C229.83,4.95 229.93,4.96 229.93,4.96C229.93,4.96 229.93,4.96 229.93,4.96C229.93,4.96 231.28,4.69 232.04,4.52C232.94,4.32 234.24,3.89 234.98,3.81C235.41,3.76 235.7,3.84 236.03,3.84C236.33,3.84 236.55,3.81 236.87,3.82C237.29,3.83 237.72,3.92 238.35,3.96C239.43,4.03 241.79,4.12 242.76,4.14C243.23,4.15 243.33,4.15 243.82,4.14C244.91,4.12 248.18,4.01 249.08,3.98C249.39,3.97 249.5,3.96 249.71,3.96C249.92,3.96 250.19,3.97 250.34,3.96C250.43,3.96 250.45,3.95 250.55,3.94C250.82,3.92 252.02,3.86 252.02,3.86C252.02,3.86 252.02,3.86 252.02,3.86C252.02,3.86 252.43,3.84 252.65,3.82C252.91,3.8 253.49,3.75 253.49,3.75C253.49,3.75 253.49,3.75 253.49,3.75C253.49,3.75 254.55,3.84 254.97,3.87C255.29,3.9 255.55,3.92 255.81,3.94C256.04,3.96 256.2,3.97 256.44,4C256.75,4.03 257.22,4.1 257.49,4.13C257.66,4.15 257.76,4.16 257.91,4.17C258.1,4.19 258.32,4.19 258.54,4.23C258.8,4.27 259.12,4.36 259.38,4.43C259.61,4.49 259.79,4.54 260.02,4.62C260.28,4.72 260.86,4.99 260.86,4.99C260.86,4.99 260.86,4.99 260.86,4.99C260.86,4.99 261.84,5.34 262.33,5.51C262.82,5.68 263.8,6 263.8,6C263.8,6 263.8,6 263.8,6C263.8,6 264.88,6.26 265.27,6.33C265.53,6.38 265.68,6.38 265.91,6.43C266.17,6.49 266.44,6.59 266.75,6.67C267.13,6.77 267.77,6.94 268.01,6.98C268.11,6.99 268.12,6.99 268.22,6.99C268.49,7 269.35,7.05 269.69,7.06C269.87,7.07 269.94,7.06 270.11,7.07C270.38,7.08 270.85,7.11 271.16,7.12C271.4,7.13 271.57,7.11 271.8,7.12C272.06,7.14 272.36,7.21 272.64,7.23C272.92,7.25 273.22,7.24 273.48,7.26C273.71,7.28 273.87,7.32 274.11,7.35C274.42,7.4 274.89,7.48 275.16,7.51C275.33,7.53 275.4,7.52 275.58,7.53C275.92,7.55 276.5,7.59 277.05,7.6C277.74,7.61 278.84,7.54 279.37,7.58Q279.65,7.6 280,7.68" style="vector-effect: none; fill: none; stroke: rgb(39, 42, 89); stroke-opacity: 1; stroke-width: 5px; opacity: 1;"/></g><g class="points"/><g class="text"/></g><g class="trace scatter trace56ac35" style="stroke-miterlimit: 2; opacity: 1;"><g class="fills"/><g class="errorbars"/><g class="lines"><path class="js-line" d="M0,17.27Q3.9,19.68 6.73,19.46C12.03,19.05 23.73,8.84 28.82,8.3C31.34,8.03 32.78,9.36 34.71,9.85C36.57,10.32 38.42,10.28 40.18,11.2C42.3,12.31 44.87,15.95 46.28,16.56C46.88,16.82 47.17,16.51 47.75,16.69C48.75,17 50,18.09 51.54,18.8C53.72,19.82 57.5,21.34 59.74,21.91C61.22,22.29 62.48,22.37 63.53,22.44C64.27,22.49 64.81,22.52 65.42,22.43C66.01,22.34 66.5,21.98 67.11,21.9C67.81,21.81 68.65,22.07 69.42,22.01C70.2,21.95 71.09,21.72 71.74,21.53C72.23,21.38 72.42,21.18 73,21.03C74.14,20.74 76.93,20.78 78.26,20.36C79.15,20.08 79.42,19.28 80.36,19.24C82.12,19.16 84.97,22.06 88.14,22.5C92.69,23.13 104.25,20.07 105.39,20.41C105.53,20.45 105.47,20.53 105.6,20.59C106.15,20.86 109.15,21.44 110.44,21.54C111.28,21.61 111.74,21.4 112.55,21.46C113.67,21.54 115.42,22.03 116.54,22.2C117.35,22.32 117.83,22.24 118.65,22.44C119.87,22.75 122.04,23.81 123.07,24.2C123.62,24.41 124.08,24.6 124.33,24.66C124.43,24.68 124.42,24.66 124.54,24.69C125.17,24.84 128.42,26.4 130.43,26.64C132.42,26.87 134.19,26 136.53,26.12C139.74,26.29 146,27.9 147.89,28.31C148.52,28.45 148.84,28.54 149.15,28.61C149.33,28.65 149.35,28.68 149.57,28.71C150.38,28.8 153.92,28.6 155.25,28.66C155.98,28.69 156.29,28.75 156.93,28.83C157.78,28.93 158.93,29.21 159.88,29.23C160.75,29.25 161.91,28.97 162.4,29.01C162.6,29.03 162.68,29.1 162.82,29.12C162.96,29.14 163.03,29.1 163.25,29.11C163.93,29.13 165.82,29.33 167.45,29.41C169.73,29.53 174.91,29.69 175.66,29.67C175.78,29.67 175.8,29.66 175.87,29.65C175.94,29.64 175.96,29.61 176.08,29.6C176.65,29.54 180.15,29.79 181.13,29.79C181.53,29.79 181.57,29.78 181.97,29.75C183.02,29.68 187.04,29.31 187.65,29.22C187.77,29.2 187.76,29.19 187.86,29.18C188.13,29.14 188.72,29.03 189.33,29.03C190.34,29.03 192.06,29.5 193.33,29.45C194.5,29.41 195.55,28.89 196.69,28.85C197.86,28.81 198.97,29.12 200.27,29.26C201.81,29.43 204.34,29.71 205.32,29.81C205.72,29.85 206.16,29.89 206.16,29.89C206.16,29.89 206.16,29.89 206.16,29.89C206.16,29.89 209.8,31.11 211,31.37C211.7,31.52 212,31.52 212.68,31.6C213.73,31.73 215.2,31.78 216.68,32.01C218.55,32.29 221.99,32.9 222.99,33.29C223.33,33.42 223.34,33.58 223.62,33.67C224.07,33.82 224.76,33.86 225.51,33.87C226.64,33.88 229.21,33.48 229.72,33.51C229.84,33.52 229.93,33.55 229.93,33.55C229.93,33.55 229.93,33.55 229.93,33.55C229.93,33.55 231.28,33.73 232.04,33.82C232.94,33.93 234.25,33.99 234.98,34.14C235.42,34.23 235.7,34.35 236.03,34.47C236.33,34.58 236.54,34.74 236.87,34.85C237.29,34.99 237.72,35.05 238.35,35.18C239.43,35.4 241.79,35.84 242.76,35.98C243.23,36.05 243.33,36.06 243.82,36.1C244.91,36.19 248.18,36.31 249.08,36.34C249.39,36.35 249.5,36.35 249.71,36.35C249.92,36.35 250.19,36.36 250.34,36.35C250.43,36.35 250.45,36.34 250.55,36.33C250.82,36.31 252.02,36.2 252.02,36.2C252.02,36.2 252.02,36.2 252.02,36.2C252.02,36.2 252.42,36.13 252.65,36.1C252.91,36.06 253.49,35.99 253.49,35.99C253.49,35.99 253.49,35.99 253.49,35.99C253.49,35.99 254.55,35.99 254.97,36C255.29,36 255.55,36.01 255.81,36.02C256.04,36.02 256.2,36.03 256.44,36.03C256.75,36.03 257.22,36.04 257.49,36.04C257.66,36.04 257.76,36.05 257.91,36.04C258.1,36.03 258.32,36 258.54,35.97C258.8,35.93 259.12,35.88 259.38,35.83C259.61,35.78 259.79,35.72 260.02,35.68C260.28,35.63 260.86,35.55 260.86,35.55C260.86,35.55 260.86,35.55 260.86,35.55C260.86,35.55 261.84,35.32 262.33,35.19C262.82,35.06 263.8,34.79 263.8,34.79C263.8,34.79 263.8,34.79 263.8,34.79C263.8,34.79 264.88,34.49 265.27,34.38C265.53,34.31 265.68,34.26 265.91,34.21C266.17,34.15 266.44,34.09 266.75,34.03C267.13,33.95 267.77,33.81 268.01,33.77C268.11,33.75 268.12,33.76 268.22,33.74C268.49,33.7 269.35,33.57 269.69,33.51C269.87,33.48 269.94,33.47 270.11,33.44C270.38,33.4 270.85,33.32 271.16,33.27C271.4,33.23 271.57,33.21 271.8,33.16C272.06,33.11 272.36,33.03 272.64,32.97C272.92,32.91 273.22,32.83 273.48,32.78C273.7,32.74 273.87,32.72 274.11,32.68C274.42,32.63 274.89,32.56 275.16,32.53C275.33,32.51 275.4,32.5 275.58,32.49C275.92,32.46 276.5,32.41 277.05,32.4C277.74,32.39 278.84,32.46 279.37,32.48Q279.65,32.49 280,32.51" style="vector-effect: none; fill: none; stroke: rgb(94, 102, 213); stroke-opacity: 1; stroke-width: 5px; opacity: 1;"/></g><g class="points"/><g class="text"/></g><g class="trace scatter trace6842bd" style="stroke-miterlimit: 2; opacity: 1;"><g class="fills"/><g class="errorbars"/><g class="lines"><path class="js-line" d="M0,54.99Q3.85,55.21 6.73,55.03C11.98,54.7 23.81,52.06 28.82,52.13C31.41,52.16 32.79,53.09 34.71,53.06C36.57,53.03 38.3,52.33 40.18,52.02C42.15,51.69 44.94,51.3 46.28,51.14C46.94,51.06 47.15,51.09 47.75,51C48.72,50.85 50.03,50.42 51.54,50.18C53.74,49.83 57.53,49.48 59.74,49.33C61.24,49.23 62.49,49.28 63.53,49.22C64.27,49.18 64.81,49.04 65.42,49.05C66,49.06 66.5,49.25 67.11,49.28C67.82,49.31 68.65,49.1 69.42,49.16C70.2,49.23 71.08,49.56 71.74,49.68C72.22,49.77 72.43,49.79 73,49.85C74.15,49.97 76.9,50.13 78.26,50.28C79.12,50.37 79.44,50.51 80.36,50.57C82.13,50.68 85.08,50.01 88.14,50.47C92.81,51.17 104.24,55.88 105.39,56.03C105.51,56.05 105.48,56.02 105.6,56.02C106.16,56.01 109.16,56.01 110.44,56.15C111.29,56.24 111.73,56.46 112.55,56.55C113.67,56.67 115.42,56.67 116.54,56.68C117.35,56.69 117.82,56.64 118.65,56.64C119.85,56.64 122.04,56.72 123.07,56.71C123.62,56.71 124.09,56.67 124.33,56.67C124.43,56.67 124.42,56.68 124.54,56.68C125.16,56.66 128.45,56.05 130.43,55.99C132.44,55.93 134.19,56.51 136.53,56.36C139.74,56.15 145.99,54.3 147.89,54.19C148.52,54.15 148.84,54.27 149.15,54.28C149.33,54.29 149.35,54.29 149.57,54.28C150.38,54.25 153.92,53.92 155.25,53.86C155.97,53.83 156.29,53.83 156.93,53.84C157.78,53.85 158.94,53.81 159.88,53.95C160.76,54.08 161.91,54.52 162.4,54.61C162.6,54.64 162.68,54.64 162.82,54.65C162.96,54.66 163.03,54.67 163.25,54.69C163.93,54.75 165.82,54.94 167.45,54.99C169.73,55.06 174.91,54.91 175.66,54.93C175.78,54.93 175.8,54.93 175.87,54.94C175.94,54.95 175.96,54.95 176.08,54.97C176.65,55.06 180.16,55.61 181.13,55.79C181.53,55.86 181.57,55.88 181.97,55.96C183.02,56.17 187.04,57.01 187.65,57.05C187.77,57.06 187.76,57.04 187.86,57.04C188.13,57.04 188.72,57.1 189.33,57.1C190.34,57.1 192.06,56.85 193.33,56.93C194.5,57 195.56,57.25 196.69,57.5C197.87,57.76 198.97,58.18 200.27,58.47C201.8,58.81 204.34,59.23 205.32,59.37C205.72,59.43 206.16,59.46 206.16,59.46C206.16,59.46 206.16,59.46 206.16,59.46C206.16,59.46 209.8,59.74 211,59.78C211.7,59.8 212,59.74 212.68,59.77C213.73,59.82 215.19,60.16 216.68,60.19C218.54,60.23 221.98,59.86 222.99,59.81C223.31,59.8 223.35,59.79 223.62,59.79C224.08,59.79 224.76,59.82 225.51,59.83C226.64,59.84 229.21,59.83 229.72,59.8C229.83,59.79 229.93,59.78 229.93,59.78C229.93,59.78 229.93,59.78 229.93,59.78C229.93,59.78 231.28,60.03 232.04,60.06C232.94,60.09 234.25,59.93 234.98,59.87C235.42,59.84 235.7,59.78 236.03,59.78C236.33,59.78 236.55,59.82 236.87,59.83C237.29,59.85 237.73,59.88 238.35,59.88C239.43,59.88 241.79,59.73 242.76,59.72C243.23,59.72 243.33,59.78 243.82,59.74C244.91,59.66 248.18,58.96 249.08,58.85C249.39,58.81 249.5,58.82 249.71,58.8C249.92,58.79 250.19,58.77 250.34,58.76C250.43,58.75 250.45,58.75 250.55,58.74C250.82,58.72 252.02,58.66 252.02,58.66C252.02,58.66 252.02,58.66 252.02,58.66C252.02,58.66 252.43,58.67 252.65,58.66C252.91,58.65 253.49,58.61 253.49,58.61C253.49,58.61 253.49,58.61 253.49,58.61C253.49,58.61 254.55,58.45 254.97,58.39C255.29,58.35 255.55,58.32 255.81,58.28C256.04,58.25 256.2,58.22 256.44,58.19C256.75,58.15 257.22,58.08 257.49,58.04C257.66,58.01 257.76,58 257.91,57.97C258.1,57.94 258.32,57.9 258.54,57.85C258.8,57.79 259.12,57.7 259.38,57.63C259.61,57.57 259.79,57.51 260.02,57.44C260.28,57.36 260.86,57.15 260.86,57.15C260.86,57.15 260.86,57.15 260.86,57.15C260.86,57.15 261.84,56.76 262.33,56.55C262.82,56.33 263.8,55.86 263.8,55.86C263.8,55.86 263.8,55.86 263.8,55.86C263.8,55.86 264.88,55.23 265.27,55.01C265.53,54.87 265.68,54.79 265.91,54.67C266.17,54.53 266.44,54.38 266.75,54.21C267.13,54.01 267.77,53.66 268.01,53.54C268.11,53.49 268.12,53.49 268.22,53.45C268.49,53.34 269.35,52.98 269.69,52.85C269.87,52.78 269.94,52.75 270.11,52.69C270.38,52.59 270.85,52.4 271.16,52.3C271.4,52.22 271.57,52.18 271.8,52.11C272.06,52.02 272.36,51.9 272.64,51.81C272.92,51.72 273.22,51.64 273.48,51.55C273.71,51.47 273.87,51.39 274.11,51.31C274.41,51.2 274.89,51.04 275.16,50.96C275.33,50.91 275.4,50.9 275.58,50.86C275.92,50.79 276.5,50.67 277.05,50.57C277.74,50.44 278.85,50.29 279.37,50.14Q279.65,50.06 280,49.88" style="vector-effect: none; fill: none; stroke: rgb(164, 125, 3); stroke-opacity: 1; stroke-width: 5px; opacity: 1;"/></g><g class="points"/><g class="text"/></g><g class="trace scatter trace7ddcd5" style="stroke-miterlimit: 2; opacity: 1;"><g class="fills"/><g class="errorbars"/><g class="lines"><path class="js-line" d="M0,62.29Q3.07,53.48 6.73,51.66C11.59,49.24 23.83,52.7 28.82,53.52C31.43,53.95 32.79,54.46 34.71,54.97C36.57,55.46 38.34,55.82 40.18,56.51C42.19,57.27 44.95,58.74 46.28,59.42C46.94,59.76 47.14,59.91 47.75,60.21C48.71,60.69 50,61.47 51.54,61.93C53.72,62.58 57.52,62.98 59.74,63.23C61.24,63.4 62.48,63.42 63.53,63.48C64.27,63.52 64.81,63.6 65.42,63.56C66,63.52 66.5,63.34 67.11,63.28C67.82,63.2 68.65,63.24 69.42,63.17C70.19,63.1 71.09,62.95 71.74,62.84C72.23,62.76 72.43,62.63 73,62.58C74.15,62.48 76.9,62.73 78.26,62.72C79.12,62.71 79.44,62.68 80.36,62.62C82.13,62.51 85.04,62.24 88.14,61.99C92.76,61.62 104.25,60.67 105.39,60.63C105.52,60.63 105.48,60.63 105.6,60.63C106.16,60.64 109.16,60.59 110.44,60.74C111.29,60.84 111.73,61.1 112.55,61.2C113.66,61.33 115.42,61.17 116.54,61.27C117.36,61.34 117.82,61.51 118.65,61.62C119.85,61.77 122.04,61.95 123.07,62.02C123.62,62.06 124.09,62.07 124.33,62.08C124.43,62.08 124.42,62.08 124.54,62.08C125.16,62.1 128.45,62.41 130.43,62.39C132.45,62.37 134.18,62.05 136.53,61.94C139.73,61.79 146,61.9 147.89,61.73C148.52,61.67 148.84,61.57 149.15,61.52C149.33,61.49 149.35,61.48 149.57,61.46C150.38,61.4 153.92,61.51 155.25,61.47C155.98,61.45 156.29,61.39 156.93,61.37C157.78,61.34 158.94,61.38 159.88,61.37C160.75,61.36 161.91,61.36 162.4,61.33C162.6,61.32 162.68,61.3 162.82,61.29C162.96,61.28 163.03,61.29 163.25,61.28C163.93,61.26 165.82,61.22 167.45,61.12C169.73,60.99 174.91,60.52 175.66,60.47C175.78,60.46 175.8,60.46 175.87,60.46C175.94,60.46 175.96,60.46 176.08,60.45C176.65,60.4 180.15,59.83 181.13,59.83C181.53,59.83 181.57,59.89 181.97,59.93C183.02,60.04 187.04,60.45 187.65,60.46C187.77,60.46 187.76,60.46 187.86,60.45C188.13,60.43 188.72,60.39 189.33,60.29C190.34,60.13 192.05,59.67 193.33,59.43C194.5,59.21 195.55,59.1 196.69,58.9C197.87,58.69 198.97,58.39 200.27,58.18C201.8,57.94 204.35,57.78 205.32,57.59C205.72,57.51 206.16,57.35 206.16,57.35C206.16,57.35 206.16,57.35 206.16,57.35C206.16,57.35 209.8,56.35 211,56.14C211.7,56.02 212,56.05 212.68,55.96C213.73,55.83 215.19,55.57 216.68,55.38C218.54,55.15 221.99,54.97 222.99,54.72C223.32,54.64 223.36,54.57 223.62,54.46C224.08,54.26 224.74,53.89 225.51,53.6C226.63,53.18 229.21,52.41 229.72,52.32C229.83,52.3 229.93,52.31 229.93,52.31C229.93,52.31 229.93,52.31 229.93,52.31C229.93,52.31 231.28,52.35 232.04,52.38C232.94,52.42 234.25,52.47 234.98,52.53C235.42,52.56 235.7,52.64 236.03,52.64C236.33,52.64 236.55,52.59 236.87,52.56C237.29,52.53 237.73,52.53 238.35,52.46C239.43,52.34 241.79,51.92 242.76,51.79C243.23,51.73 243.33,51.69 243.82,51.67C244.91,51.62 248.18,51.82 249.08,51.8C249.39,51.79 249.5,51.77 249.71,51.75C249.92,51.73 250.19,51.67 250.34,51.66C250.43,51.65 250.45,51.66 250.55,51.65C250.82,51.63 252.02,51.55 252.02,51.55C252.02,51.55 252.02,51.55 252.02,51.55C252.02,51.55 252.42,51.5 252.65,51.48C252.91,51.46 253.49,51.45 253.49,51.45C253.49,51.45 253.49,51.45 253.49,51.45C253.49,51.45 254.55,51.39 254.97,51.36C255.29,51.34 255.55,51.32 255.81,51.31C256.04,51.3 256.2,51.3 256.44,51.29C256.75,51.28 257.22,51.29 257.49,51.27C257.66,51.26 257.76,51.24 257.91,51.23C258.1,51.22 258.31,51.22 258.54,51.22C258.8,51.22 259.12,51.23 259.38,51.24C259.61,51.24 259.79,51.25 260.02,51.25C260.28,51.25 260.86,51.22 260.86,51.22C260.86,51.22 260.86,51.22 260.86,51.22C260.86,51.22 261.84,51.26 262.33,51.28C262.82,51.3 263.8,51.33 263.8,51.33C263.8,51.33 263.8,51.33 263.8,51.33C263.8,51.33 264.88,51.47 265.27,51.52C265.53,51.55 265.68,51.58 265.91,51.61C266.17,51.64 266.44,51.66 266.75,51.69C267.13,51.73 267.77,51.81 268.01,51.85C268.11,51.87 268.12,51.87 268.22,51.89C268.49,51.94 269.35,52.1 269.69,52.15C269.87,52.18 269.94,52.19 270.11,52.21C270.38,52.24 270.85,52.29 271.16,52.31C271.4,52.33 271.57,52.32 271.8,52.34C272.06,52.36 272.36,52.42 272.64,52.45C272.92,52.48 273.22,52.5 273.48,52.52C273.7,52.53 273.87,52.55 274.11,52.55C274.42,52.56 274.89,52.55 275.16,52.54C275.33,52.54 275.4,52.53 275.58,52.52C275.92,52.5 276.5,52.47 277.05,52.46C277.74,52.44 278.84,52.48 279.37,52.45Q279.65,52.44 280,52.39" style="vector-effect: none; fill: none; stroke: rgb(255, 26, 74); stroke-opacity: 1; stroke-width: 5px; opacity: 1;"/></g><g class="points"/><g class="text"/></g><g class="trace scatter trace4151f0" style="stroke-miterlimit: 2; opacity: 1;"><g class="fills"/><g class="errorbars"/><g class="lines"><path class="js-line" d="M0,55.2Q3.79,56.96 6.73,57.6C11.92,58.72 23.8,59.17 28.82,59.44C31.41,59.58 32.78,59.51 34.71,59.58C36.57,59.65 38.36,60.24 40.18,59.84C42.22,59.39 44.92,57.24 46.28,56.68C46.92,56.42 47.16,56.45 47.75,56.22C48.73,55.84 49.99,54.85 51.54,54.47C53.71,53.94 57.53,54.09 59.74,54.09C61.24,54.09 62.48,54.28 63.53,54.28C64.27,54.28 64.81,54.14 65.42,54.17C66,54.2 66.5,54.4 67.11,54.44C67.82,54.48 68.65,54.41 69.42,54.35C70.19,54.29 71.08,54.12 71.74,54.09C72.22,54.07 72.44,54.16 73,54.12C74.16,54.03 76.9,53.38 78.26,53.19C79.12,53.07 79.44,52.94 80.36,52.96C82.14,53 85.03,53.94 88.14,54.15C92.75,54.46 104.25,54 105.39,53.86C105.52,53.84 105.48,53.82 105.6,53.81C106.15,53.75 109.16,54.11 110.44,53.98C111.29,53.89 111.73,53.62 112.55,53.47C113.66,53.27 115.42,53.12 116.54,52.99C117.35,52.89 117.82,52.82 118.65,52.75C119.85,52.64 122.04,52.56 123.07,52.47C123.62,52.42 124.09,52.36 124.33,52.34C124.43,52.33 124.42,52.33 124.54,52.32C125.16,52.28 128.45,52.21 130.43,52.13C132.45,52.05 134.19,51.68 136.53,51.84C139.74,52.06 145.99,53.81 147.89,53.98C148.52,54.04 148.84,53.94 149.15,53.97C149.33,53.99 149.35,54.04 149.57,54.06C150.38,54.13 153.92,54.02 155.25,53.88C155.98,53.8 156.29,53.68 156.93,53.58C157.77,53.45 158.94,53.32 159.88,53.19C160.75,53.07 161.91,52.88 162.4,52.82C162.6,52.8 162.68,52.79 162.82,52.78C162.96,52.77 163.03,52.78 163.25,52.78C163.93,52.77 165.82,52.77 167.45,52.71C169.73,52.63 174.91,52.27 175.66,52.25C175.78,52.25 175.8,52.24 175.87,52.25C175.94,52.26 175.96,52.29 176.08,52.31C176.65,52.42 180.16,52.77 181.13,52.92C181.53,52.98 181.56,53.03 181.97,53.07C183.02,53.18 187.04,53.24 187.65,53.27C187.77,53.27 187.76,53.28 187.86,53.28C188.13,53.29 188.72,53.31 189.33,53.35C190.34,53.42 192.05,53.59 193.33,53.68C194.5,53.76 195.56,53.72 196.69,53.86C197.87,54.01 198.97,54.3 200.27,54.56C201.81,54.87 204.34,55.45 205.32,55.58C205.72,55.63 206.16,55.64 206.16,55.64C206.16,55.64 206.16,55.64 206.16,55.64C206.16,55.64 209.81,56.43 211,56.74C211.71,56.92 212,57.05 212.68,57.23C213.73,57.51 215.19,57.85 216.68,58.19C218.54,58.61 221.98,59.32 222.99,59.52C223.31,59.58 223.35,59.59 223.62,59.64C224.08,59.73 224.76,59.85 225.51,60.05C226.64,60.35 229.21,61.25 229.72,61.35C229.83,61.37 229.93,61.37 229.93,61.37C229.93,61.37 229.93,61.37 229.93,61.37C229.93,61.37 231.28,61.45 232.04,61.5C232.94,61.56 234.25,61.62 234.98,61.69C235.42,61.73 235.7,61.78 236.03,61.81C236.33,61.84 236.55,61.86 236.87,61.88C237.29,61.9 237.73,61.89 238.35,61.91C239.43,61.95 241.79,62.08 242.76,62.11C243.23,62.13 243.33,62.13 243.82,62.13C244.91,62.14 248.18,62.12 249.08,62.13C249.39,62.13 249.5,62.14 249.71,62.15C249.92,62.16 250.19,62.2 250.34,62.21C250.43,62.22 250.45,62.21 250.55,62.22C250.82,62.24 252.02,62.38 252.02,62.38C252.02,62.38 252.02,62.38 252.02,62.38C252.02,62.38 252.43,62.38 252.65,62.39C252.91,62.4 253.49,62.45 253.49,62.45C253.49,62.45 253.49,62.45 253.49,62.45C253.49,62.45 254.55,62.46 254.97,62.45C255.29,62.44 255.55,62.43 255.81,62.42C256.04,62.41 256.2,62.39 256.44,62.37C256.75,62.34 257.22,62.3 257.49,62.27C257.66,62.25 257.76,62.24 257.91,62.23C258.1,62.21 258.31,62.19 258.54,62.18C258.8,62.16 259.12,62.15 259.38,62.14C259.61,62.13 259.79,62.15 260.02,62.14C260.28,62.13 260.86,62.1 260.86,62.1C260.86,62.1 260.86,62.1 260.86,62.1C260.86,62.1 261.84,62.04 262.33,62.01C262.82,61.98 263.8,61.93 263.8,61.93C263.8,61.93 263.8,61.93 263.8,61.93C263.8,61.93 264.88,61.94 265.27,61.94C265.53,61.94 265.68,61.95 265.91,61.95C266.17,61.95 266.44,61.96 266.75,61.96C267.13,61.97 267.77,61.98 268.01,61.98C268.11,61.98 268.12,61.97 268.22,61.97C268.49,61.97 269.35,61.99 269.69,61.99C269.87,61.99 269.94,61.99 270.11,61.98C270.38,61.97 270.85,61.95 271.16,61.94C271.4,61.93 271.57,61.92 271.8,61.91C272.06,61.9 272.36,61.88 272.64,61.87C272.92,61.86 273.22,61.87 273.48,61.86C273.71,61.85 273.87,61.84 274.11,61.83C274.42,61.82 274.89,61.82 275.16,61.81C275.33,61.81 275.4,61.8 275.58,61.8C275.92,61.8 276.5,61.83 277.05,61.85C277.74,61.87 278.84,61.9 279.37,61.91Q279.65,61.91 280,61.91" style="vector-effect: none; fill: none; stroke: rgb(17, 17, 17); stroke-opacity: 1; stroke-width: 5px; opacity: 1;"/></g><g class="points"/><g class="text"/></g></g></g><g class="overplot"/><path class="xlines-above crisp" d="M0,0" style="fill: none;"/><path class="ylines-above crisp" d="M0,0" style="fill: none;"/><g class="overlines-above"/><g class="xaxislayer-above"/><g class="yaxislayer-above"/><g class="overaxes-above"/></g></g><g class="polarlayer"/><g class="smithlayer"/><g class="ternarylayer"/><g class="geolayer"/><g class="funnelarealayer"/><g class="pielayer"/><g class="iciclelayer"/><g class="treemaplayer"/><g class="sunburstlayer"/><g class="glimages"/><defs id="topdefs-a7c88c"><g class="clips"/></defs><g class="layer-above"><g class="imagelayer"/><g class="shapelayer"/></g><g class="infolayer"><g class="g-gtitle"><text class="gtitle" x="15" y="25" text-anchor="start" dy="0em" style="font-family: Ubuntu, verdana, arial, sans-serif; font-size: 16px; fill: rgb(233, 84, 32); opacity: 1; font-weight: normal; white-space: pre;">Sněmovna volby 2025</text></g><g class="g-xtitle"/><g class="g-ytitle"/></g></svg>