<svg class="main-svg" xmlns="http://www.w3.org/2000/svg" xmlns:xlink="http://www.w3.org/1999/xlink" width="300" height="135" style="" viewBox="0 0 300 135"><rect x="0" y="0" width="300" height="135" style="fill: rgb(255, 255, 255); fill-opacity: 1;"/><defs id="defs-4ccfa3"><g class="clips"><clipPath id="clip4ccfa3xyplot" class="plotclip"><rect width="280" height="75"/></clipPath><clipPath class="axesclip" id="clip4ccfa3x"><rect x="10" y="0" width="280" height="135"/></clipPath><clipPath class="axesclip" id="clip4ccfa3y"><rect x="0" y="50" width="300" height="75"/></clipPath><clipPath class="axesclip" id="clip4ccfa3xy"><rect x="10" y="50" width="280" height="75"/></clipPath></g><g class="gradients"/><g class="patterns"/></defs><g class="bglayer"/><g class="layer-below"><g class="imagelayer"/><g class="shapelayer"/></g><g class="cartesianlayer"><g class="subplot xy"><g class="layer-subplot"><g class="shapelayer"/><g class="imagelayer"/></g><g class="minor-gridlayer"><g class="x"/><g class="y"/></g><g class="gridlayer"><g class="x"><path class="xgrid crisp" transform="translate(29.18,0)" d="M0,50v75" style="stroke: rgb(235, 240, 248); stroke-opacity: 1; stroke-width: 1px;"/><path class="xgrid crisp" transform="translate(112.54,0)" d="M0,50v75" style="stroke: rgb(235, 240, 248); stroke-opacity: 1; stroke-width: 1px;"/><path class="xgrid crisp" transform="translate(195.91,0)" d="M0,50v75" style="stroke: rgb(235, 240, 248); stroke-opacity: 1; stroke-width: 1px;"/><path class="xgrid crisp" transform="translate(279.49,0)" d="M0,50v75" style="stroke: rgb(235, 240, 248); stroke-opacity: 1; stroke-width: 1px;"/></g><g class="y"><path class="ygrid crisp" transform="translate(0,104.35)" d="M10,0h280" style="stroke: rgb(235, 240, 248); stroke-opacity: 1; stroke-width: 1px;"/><path class="ygrid crisp" transform="translate(0,83.7)" d="M10,0h280" style="stroke: rgb(235, 240, 248); stroke-opacity: 1; stroke-width: 1px;"/><path class="ygrid crisp" transform="translate(0,63.05)" d="M10,0h280" style="stroke: rgb(235, 240, 248); stroke-opacity: 1; stroke-width: 1px;"/></g></g><g class="zerolinelayer"><path class="yzl zl crisp" transform="translate(0,125)" d="M10,0h280" style="stroke: rgb(235, 240, 248); stroke-opacity: 1; stroke-width: 2px;"/></g><path class="xlines-below"/><path class="ylines-below"/><g class="overlines-below"/><g class="xaxislayer-below"/><g class="yaxislayer-below"/><g class="overaxes-below"/><g class="plot" transform="translate(10,50)" clip-path="url(#clip4ccfa3xyplot)"><g class="scatterlayer mlayer"><g class="trace scatter trace58fef6" style="stroke-miterlimit: 2; opacity: 1;"><g class="fills"/><g class="errorbars"/><g class="lines"><path class="js-line" d="M0,19.03Q4.17,19.1 7.31,19.26C13,19.55 25.9,21.68 31.29,20.95C34.15,20.56 35.57,19.24 37.68,18.69C39.67,18.17 41.59,18.02 43.62,17.65C45.77,17.26 48.78,16.61 50.24,16.4C50.95,16.3 51.19,16.33 51.84,16.23C52.9,16.06 54.32,15.71 55.95,15.36C58.35,14.84 62.45,13.8 64.86,13.42C66.48,13.16 67.83,13.03 68.97,13.01C69.77,13 70.36,13.15 71.03,13.16C71.66,13.17 72.19,13.08 72.85,13.06C73.62,13.04 74.53,13.07 75.37,13.08C76.21,13.09 77.17,13.08 77.88,13.12C78.41,13.15 78.64,13.2 79.25,13.24C80.5,13.33 83.51,13.21 84.96,13.53C85.91,13.74 86.22,14.35 87.24,14.44C89.15,14.61 92.31,13.23 95.69,12.67C100.69,11.84 113.18,10.68 114.42,10.39C114.56,10.36 114.52,10.35 114.65,10.31C115.25,10.14 118.51,9.15 119.9,9.17C120.82,9.18 121.3,9.66 122.19,9.72C123.4,9.8 125.32,9.46 126.53,9.27C127.42,9.13 127.93,9.07 128.81,8.79C130.13,8.36 132.48,7.02 133.61,6.67C134.19,6.49 134.72,6.45 134.98,6.41C135.08,6.39 135.08,6.4 135.2,6.38C135.87,6.27 139.44,5.24 141.6,5.18C143.78,5.12 145.67,5.83 148.22,6.07C151.69,6.4 158.5,6.98 160.55,6.74C161.25,6.66 161.58,6.42 161.92,6.34C162.11,6.3 162.14,6.3 162.38,6.26C163.26,6.12 167.1,5.45 168.55,5.38C169.34,5.34 169.69,5.48 170.38,5.46C171.3,5.44 172.55,5.28 173.57,5.15C174.52,5.03 175.78,4.79 176.31,4.73C176.53,4.7 176.62,4.7 176.77,4.69C176.92,4.68 177,4.68 177.23,4.67C177.96,4.65 180.02,4.5 181.79,4.59C184.27,4.71 189.88,5.55 190.7,5.61C190.83,5.62 190.85,5.62 190.93,5.62C191.01,5.62 191.03,5.59 191.16,5.58C191.78,5.51 195.59,5.58 196.64,5.37C197.08,5.28 197.1,5.06 197.55,5.03C198.68,4.95 203.05,6.29 203.72,6.36C203.85,6.37 203.84,6.36 203.95,6.36C204.24,6.36 204.89,6.29 205.55,6.35C206.65,6.44 208.5,6.9 209.89,7.12C211.16,7.32 212.3,7.52 213.54,7.64C214.81,7.77 216.02,7.75 217.42,7.87C219.09,8.02 221.84,8.36 222.9,8.51C223.34,8.57 223.82,8.66 223.82,8.66C223.82,8.66 223.82,8.66 223.82,8.66C223.82,8.66 227.77,9.89 229.07,9.92C229.83,9.94 230.16,9.64 230.9,9.56C232.03,9.44 233.65,9.74 235.24,9.46C237.29,9.1 240.99,7.42 242.09,7.15C242.43,7.07 242.48,7.1 242.77,7.04C243.27,6.94 244.01,6.73 244.83,6.55C246.05,6.28 248.85,5.65 249.4,5.59C249.52,5.58 249.62,5.59 249.62,5.59C249.62,5.59 249.62,5.59 249.62,5.59C249.62,5.59 251.08,5.32 251.91,5.14C252.89,4.93 254.31,4.48 255.11,4.4C255.58,4.35 255.89,4.43 256.25,4.43C256.57,4.43 256.81,4.39 257.16,4.4C257.62,4.41 258.08,4.49 258.76,4.53C259.93,4.59 262.51,4.65 263.56,4.65C264.07,4.65 264.18,4.65 264.7,4.63C265.88,4.58 269.43,4.34 270.41,4.28C270.75,4.26 270.86,4.25 271.09,4.24C271.32,4.23 271.61,4.23 271.78,4.21C271.88,4.2 271.9,4.19 272.01,4.17C272.3,4.12 273.19,4 273.61,3.95C273.88,3.92 274.05,3.92 274.29,3.89C274.57,3.86 275.2,3.75 275.2,3.75C275.2,3.75 275.2,3.75 275.2,3.75C275.2,3.75 276.34,3.8 276.8,3.82C277.15,3.83 277.44,3.83 277.72,3.84C277.96,3.85 278.13,3.86 278.4,3.87Q278.82,3.89 280,3.97" style="vector-effect: none; fill: none; stroke: rgb(39, 42, 89); stroke-opacity: 1; stroke-width: 5px; opacity: 1;"/></g><g class="points"/><g class="text"/></g><g class="trace scatter trace4b6939" style="stroke-miterlimit: 2; opacity: 1;"><g class="fills"/><g class="errorbars"/><g class="lines"><path class="js-line" d="M256.25,62.4Q256.81,62.4 257.16,62.4C257.62,62.4 258.21,62.75 258.76,62.4C260.21,61.49 262.28,53.3 263.56,52.5C263.97,52.24 264.27,52.76 264.7,52.5C266.09,51.67 269.36,43.25 270.41,41.84C270.7,41.44 270.86,41.37 271.09,41.16C271.31,40.96 271.61,40.74 271.78,40.61C271.88,40.54 271.9,40.52 272.01,40.44C272.3,40.24 273.19,39.66 273.61,39.41C273.88,39.25 274.04,39.16 274.29,39.04C274.57,38.9 275.2,38.65 275.2,38.65C275.2,38.65 275.2,38.65 275.2,38.65C275.2,38.65 276.34,38.49 276.8,38.45C277.15,38.42 277.44,38.41 277.72,38.41C277.96,38.41 278.13,38.41 278.4,38.43Q278.82,38.46 280,38.61" style="vector-effect: none; fill: none; stroke: rgb(94, 102, 213); stroke-opacity: 1; stroke-width: 5px; opacity: 1;"/></g><g class="points"/><g class="text"/></g><g class="trace scatter trace925d74" style="stroke-miterlimit: 2; opacity: 1;"><g class="fills"/><g class="errorbars"/><g class="lines"><path class="js-line" d="M0,62.4Q3.44,53.71 7.31,51.87C12.61,49.35 25.87,52.89 31.29,53.71C34.12,54.14 35.59,54.66 37.68,55.16C39.7,55.65 41.61,55.99 43.62,56.68C45.8,57.43 48.79,58.89 50.24,59.56C50.96,59.89 51.18,60.05 51.84,60.35C52.89,60.82 54.28,61.59 55.95,62.05C58.32,62.7 62.45,63.08 64.86,63.33C66.49,63.5 67.83,63.52 68.97,63.58C69.77,63.62 70.37,63.71 71.03,63.67C71.66,63.63 72.19,63.45 72.85,63.38C73.62,63.3 74.53,63.35 75.37,63.28C76.21,63.21 77.17,63.06 77.88,62.95C78.41,62.87 78.63,62.74 79.25,62.69C80.5,62.59 83.49,62.86 84.96,62.84C85.89,62.83 86.24,62.79 87.24,62.73C89.17,62.61 92.32,62.36 95.69,62.11C100.71,61.75 113.17,60.8 114.42,60.76C114.56,60.76 114.52,60.76 114.65,60.76C115.26,60.77 118.51,60.72 119.9,60.87C120.82,60.97 121.3,61.23 122.19,61.33C123.4,61.46 125.32,61.3 126.53,61.4C127.41,61.47 127.91,61.64 128.81,61.74C130.11,61.89 132.5,62.07 133.61,62.14C134.2,62.18 134.72,62.19 134.98,62.2C135.08,62.2 135.08,62.2 135.2,62.2C135.87,62.22 139.45,62.52 141.6,62.5C143.79,62.48 145.67,62.17 148.22,62.06C151.69,61.92 158.5,62.02 160.55,61.85C161.24,61.79 161.58,61.69 161.92,61.64C162.11,61.61 162.14,61.6 162.38,61.58C163.26,61.52 167.1,61.64 168.55,61.6C169.34,61.58 169.69,61.51 170.38,61.49C171.3,61.46 172.55,61.5 173.57,61.49C174.52,61.48 175.78,61.47 176.31,61.45C176.53,61.44 176.62,61.43 176.77,61.42C176.92,61.41 177,61.42 177.23,61.41C177.96,61.39 180.02,61.34 181.79,61.24C184.27,61.11 189.88,60.66 190.7,60.61C190.83,60.6 190.85,60.6 190.93,60.6C191.01,60.6 191.03,60.6 191.16,60.59C191.78,60.54 195.58,59.97 196.64,59.97C197.07,59.97 197.11,60.03 197.55,60.07C198.69,60.18 203.05,60.58 203.72,60.59C203.85,60.59 203.84,60.59 203.95,60.58C204.24,60.56 204.89,60.53 205.55,60.43C206.65,60.27 208.5,59.81 209.89,59.57C211.16,59.35 212.31,59.25 213.54,59.05C214.82,58.84 216.01,58.54 217.42,58.34C219.09,58.1 221.84,57.95 222.9,57.76C223.34,57.68 223.82,57.52 223.82,57.52C223.82,57.52 223.82,57.52 223.82,57.52C223.82,57.52 227.77,56.53 229.07,56.32C229.83,56.2 230.16,56.22 230.9,56.14C232.04,56.01 233.63,55.76 235.24,55.58C237.26,55.35 241,55.18 242.09,54.93C242.44,54.85 242.48,54.79 242.77,54.68C243.27,54.48 244,54.11 244.83,53.82C246.04,53.4 248.85,52.63 249.4,52.54C249.52,52.52 249.62,52.53 249.62,52.53C249.62,52.53 249.62,52.53 249.62,52.53C249.62,52.53 251.08,52.57 251.91,52.61C252.89,52.65 254.31,52.7 255.11,52.77C255.59,52.81 255.89,52.9 256.25,52.9C256.57,52.9 256.81,52.85 257.16,52.82C257.62,52.79 258.09,52.79 258.76,52.72C259.93,52.6 262.51,52.17 263.56,52.03C264.07,51.96 264.17,51.91 264.7,51.89C265.87,51.84 269.43,52.09 270.41,52.06C270.75,52.05 270.86,52.03 271.09,52C271.32,51.97 271.61,51.91 271.78,51.89C271.88,51.88 271.9,51.88 272.01,51.87C272.3,51.84 273.19,51.78 273.61,51.73C273.88,51.7 274.05,51.66 274.29,51.64C274.57,51.61 275.2,51.59 275.2,51.59C275.2,51.59 275.2,51.59 275.2,51.59C275.2,51.59 276.34,51.5 276.8,51.45C277.15,51.41 277.44,51.37 277.72,51.34C277.96,51.32 278.13,51.31 278.4,51.29Q278.82,51.25 280,51.12" style="vector-effect: none; fill: none; stroke: rgb(255, 26, 74); stroke-opacity: 1; stroke-width: 5px; opacity: 1;"/></g><g class="points"/><g class="text"/></g><g class="trace scatter trace0ad5a0" style="stroke-miterlimit: 2; opacity: 1;"><g class="fills"/><g class="errorbars"/><g class="lines"><path class="js-line" d="M0,55.17Q4.18,55.39 7.31,55.21C13,54.89 25.85,52.27 31.29,52.34C34.1,52.38 35.59,53.3 37.68,53.27C39.7,53.24 41.58,52.54 43.62,52.23C45.76,51.9 48.78,51.51 50.24,51.35C50.95,51.27 51.19,51.31 51.84,51.22C52.9,51.07 54.31,50.65 55.95,50.41C58.35,50.06 62.46,49.72 64.86,49.57C66.49,49.47 67.83,49.52 68.97,49.46C69.77,49.42 70.37,49.28 71.03,49.29C71.66,49.3 72.19,49.5 72.85,49.52C73.62,49.55 74.53,49.33 75.37,49.39C76.21,49.45 77.17,49.79 77.88,49.91C78.4,50 78.64,50.02 79.25,50.08C80.5,50.2 83.49,50.36 84.96,50.51C85.89,50.6 86.24,50.73 87.24,50.79C89.16,50.9 92.36,50.23 95.69,50.69C100.75,51.39 113.17,56.05 114.42,56.2C114.56,56.22 114.52,56.19 114.65,56.19C115.26,56.18 118.51,56.19 119.9,56.33C120.82,56.42 121.3,56.63 122.19,56.72C123.4,56.84 125.31,56.84 126.53,56.85C127.41,56.86 127.91,56.81 128.81,56.81C130.12,56.81 132.5,56.88 133.61,56.87C134.21,56.87 134.72,56.84 134.98,56.84C135.08,56.84 135.08,56.85 135.2,56.85C135.87,56.83 139.45,56.22 141.6,56.16C143.79,56.1 145.68,56.68 148.22,56.53C151.71,56.33 158.49,54.49 160.55,54.38C161.23,54.34 161.58,54.46 161.92,54.47C162.11,54.48 162.14,54.48 162.38,54.47C163.26,54.44 167.1,54.11 168.55,54.05C169.34,54.02 169.69,54.02 170.38,54.03C171.3,54.04 172.55,54 173.57,54.14C174.52,54.27 175.78,54.72 176.31,54.8C176.53,54.83 176.62,54.82 176.77,54.83C176.92,54.84 177,54.86 177.23,54.88C177.96,54.94 180.02,55.13 181.79,55.18C184.27,55.25 189.88,55.1 190.7,55.11C190.83,55.11 190.85,55.11 190.93,55.12C191.01,55.13 191.03,55.13 191.16,55.15C191.78,55.24 195.58,55.8 196.64,55.97C197.07,56.04 197.11,56.05 197.55,56.13C198.69,56.33 203.05,57.17 203.72,57.21C203.85,57.22 203.84,57.2 203.95,57.2C204.24,57.2 204.89,57.26 205.55,57.26C206.64,57.26 208.51,57.02 209.89,57.1C211.16,57.17 212.31,57.41 213.54,57.66C214.82,57.92 216.01,58.33 217.42,58.62C219.08,58.96 221.84,59.37 222.9,59.51C223.33,59.57 223.82,59.61 223.82,59.61C223.82,59.61 223.82,59.61 223.82,59.61C223.82,59.61 227.77,59.89 229.07,59.92C229.84,59.94 230.16,59.88 230.9,59.91C232.04,59.96 233.63,60.29 235.24,60.33C237.26,60.37 241,60.01 242.09,59.97C242.43,59.96 242.48,59.95 242.77,59.95C243.27,59.95 244.01,59.99 244.83,60C246.05,60.01 248.85,59.98 249.4,59.97C249.52,59.97 249.62,59.96 249.62,59.96C249.62,59.96 249.62,59.96 249.62,59.96C249.62,59.96 251.08,60.23 251.91,60.26C252.89,60.3 254.31,60.15 255.11,60.1C255.59,60.07 255.89,60.02 256.25,60.02C256.57,60.02 256.81,60.07 257.16,60.09C257.62,60.12 258.08,60.16 258.76,60.18C259.93,60.21 262.51,60.16 263.56,60.19C264.07,60.21 264.18,60.28 264.7,60.26C265.88,60.21 269.43,59.51 270.41,59.41C270.75,59.38 270.86,59.38 271.09,59.37C271.32,59.36 271.61,59.37 271.78,59.36C271.88,59.36 271.9,59.34 272.01,59.34C272.3,59.33 273.19,59.32 273.61,59.34C273.88,59.35 274.05,59.38 274.29,59.39C274.57,59.4 275.2,59.39 275.2,59.39C275.2,59.39 275.2,59.39 275.2,59.39C275.2,59.39 276.34,59.29 276.8,59.25C277.15,59.22 277.44,59.21 277.72,59.19C277.96,59.17 278.13,59.16 278.4,59.15Q278.82,59.13 280,59.1" style="vector-effect: none; fill: none; stroke: rgb(164, 125, 3); stroke-opacity: 1; stroke-width: 5px; opacity: 1;"/></g><g class="points"/><g class="text"/></g><g class="trace scatter traceffc439" style="stroke-miterlimit: 2; opacity: 1;"><g class="fills"/><g class="errorbars"/><g class="lines"><path class="js-line" d="M0,55.38Q4.12,57.13 7.31,57.76C12.95,58.88 25.84,59.31 31.29,59.58C34.1,59.72 35.59,59.65 37.68,59.72C39.7,59.79 41.64,60.38 43.62,59.98C45.82,59.54 48.77,57.4 50.24,56.85C50.94,56.59 51.19,56.62 51.84,56.39C52.9,56.02 54.28,55.03 55.95,54.66C58.32,54.13 62.46,54.28 64.86,54.28C66.49,54.28 67.83,54.47 68.97,54.47C69.77,54.47 70.37,54.33 71.03,54.36C71.66,54.39 72.19,54.58 72.85,54.62C73.62,54.66 74.53,54.6 75.37,54.54C76.21,54.48 77.17,54.31 77.88,54.28C78.4,54.26 78.64,54.35 79.25,54.31C80.5,54.22 83.48,53.58 84.96,53.39C85.89,53.27 86.24,53.15 87.24,53.17C89.17,53.21 92.31,54.13 95.69,54.34C100.7,54.65 113.18,54.19 114.42,54.05C114.56,54.03 114.52,54.01 114.65,54C115.25,53.94 118.51,54.3 119.9,54.17C120.83,54.09 121.3,53.82 122.19,53.67C123.4,53.47 125.31,53.32 126.53,53.19C127.41,53.09 127.91,53.02 128.81,52.95C130.11,52.84 132.5,52.75 133.61,52.67C134.21,52.63 134.72,52.57 134.98,52.55C135.08,52.54 135.08,52.54 135.2,52.53C135.87,52.49 139.45,52.42 141.6,52.34C143.79,52.26 145.68,51.89 148.22,52.05C151.71,52.27 158.49,54 160.55,54.17C161.23,54.23 161.59,54.13 161.92,54.16C162.12,54.18 162.14,54.23 162.38,54.25C163.26,54.32 167.1,54.22 168.55,54.08C169.34,54 169.68,53.88 170.38,53.78C171.3,53.65 172.55,53.52 173.57,53.39C174.52,53.27 175.78,53.08 176.31,53.02C176.53,53 176.62,52.99 176.77,52.98C176.92,52.97 177,52.98 177.23,52.98C177.96,52.97 180.02,52.97 181.79,52.91C184.27,52.83 189.88,52.48 190.7,52.46C190.83,52.46 190.85,52.45 190.93,52.46C191.01,52.47 191.03,52.5 191.16,52.52C191.78,52.63 195.58,52.98 196.64,53.12C197.07,53.18 197.11,53.23 197.55,53.27C198.69,53.38 203.05,53.46 203.72,53.47C203.85,53.47 203.84,53.47 203.95,53.47C204.24,53.48 204.89,53.51 205.55,53.55C206.64,53.62 208.51,53.78 209.89,53.87C211.16,53.95 212.31,53.91 213.54,54.05C214.82,54.19 216.02,54.49 217.42,54.74C219.09,55.04 221.84,55.62 222.9,55.75C223.33,55.8 223.82,55.81 223.82,55.81C223.82,55.81 223.82,55.81 223.82,55.81C223.82,55.81 227.77,56.6 229.07,56.9C229.84,57.08 230.16,57.2 230.9,57.38C232.04,57.65 233.63,58 235.24,58.33C237.26,58.74 241,59.45 242.09,59.64C242.43,59.7 242.48,59.7 242.77,59.75C243.27,59.84 244.01,59.95 244.83,60.15C246.06,60.44 248.85,61.35 249.4,61.45C249.52,61.47 249.62,61.47 249.62,61.47C249.62,61.47 249.62,61.47 249.62,61.47C249.62,61.47 251.08,61.55 251.91,61.59C252.89,61.64 254.31,61.7 255.11,61.76C255.59,61.8 255.89,61.85 256.25,61.88C256.57,61.91 256.81,61.93 257.16,61.94C257.62,61.96 258.08,61.95 258.76,61.96C259.93,61.98 262.51,62.08 263.56,62.1C264.07,62.11 264.17,62.11 264.7,62.1C265.88,62.09 269.43,61.98 270.41,61.98C270.75,61.98 270.86,61.98 271.09,61.99C271.32,62 271.61,62.04 271.78,62.05C271.88,62.06 271.9,62.05 272.01,62.06C272.3,62.08 273.19,62.18 273.61,62.22C273.88,62.25 274.05,62.25 274.29,62.29C274.57,62.33 275.2,62.47 275.2,62.47C275.2,62.47 275.2,62.47 275.2,62.47C275.2,62.47 276.34,62.58 276.8,62.61C277.15,62.63 277.44,62.65 277.72,62.65C277.96,62.65 278.13,62.63 278.4,62.62Q278.82,62.6 280,62.53" style="vector-effect: none; fill: none; stroke: rgb(17, 17, 17); stroke-opacity: 1; stroke-width: 5px; opacity: 1;"/></g><g class="points"/><g class="text"/></g></g></g><g class="overplot"/><path class="xlines-above crisp" d="M0,0" style="fill: none;"/><path class="ylines-above crisp" d="M0,0" style="fill: none;"/><g class="overlines-above"/><g class="xaxislayer-above"/><g class="yaxislayer-above"/><g class="overaxes-above"/></g></g><g class="polarlayer"/><g class="smithlayer"/><g class="ternarylayer"/><g class="geolayer"/><g class="funnelarealayer"/><g class="pielayer"/><g class="iciclelayer"/><g class="treemaplayer"/><g class="sunburstlayer"/><g class="glimages"/><defs id="topdefs-4ccfa3"><g class="clips"/></defs><g class="layer-above"><g class="imagelayer"/><g class="shapelayer"/></g><g class="infolayer"><g class="g-gtitle"><text class="gtitle" x="15" y="25" text-anchor="start" dy="0em" style="font-family: Ubuntu, verdana, arial, sans-serif; font-size: 16px; fill: rgb(233, 84, 32); opacity: 1; font-weight: normal; white-space: pre;">Sněmovna 2021-2025</text></g><g class="g-xtitle"/><g class="g-ytitle"/></g></svg>