<svg class="main-svg" xmlns="http://www.w3.org/2000/svg" xmlns:xlink="http://www.w3.org/1999/xlink" width="300" height="135" style="" viewBox="0 0 300 135"><rect x="0" y="0" width="300" height="135" style="fill: rgb(255, 255, 255); fill-opacity: 1;"/><defs id="defs-a1de31"><g class="clips"><clipPath id="clipa1de31xyplot" class="plotclip"><rect width="280" height="75"/></clipPath><clipPath class="axesclip" id="clipa1de31x"><rect x="10" y="0" width="280" height="135"/></clipPath><clipPath class="axesclip" id="clipa1de31y"><rect x="0" y="50" width="300" height="75"/></clipPath><clipPath class="axesclip" id="clipa1de31xy"><rect x="10" y="50" width="280" height="75"/></clipPath></g><g class="gradients"/><g class="patterns"/></defs><g class="bglayer"/><g class="layer-below"><g class="imagelayer"/><g class="shapelayer"/></g><g class="cartesianlayer"><g class="subplot xy"><g class="layer-subplot"><g class="shapelayer"/><g class="imagelayer"/></g><g class="minor-gridlayer"><g class="x"/><g class="y"/></g><g class="gridlayer"><g class="x"><path class="xgrid crisp" transform="translate(83.73,0)" d="M0,50v75" style="stroke: rgb(235, 240, 248); stroke-opacity: 1; stroke-width: 1px;"/><path class="xgrid crisp" transform="translate(162.73,0)" d="M0,50v75" style="stroke: rgb(235, 240, 248); stroke-opacity: 1; stroke-width: 1px;"/><path class="xgrid crisp" transform="translate(242.6,0)" d="M0,50v75" style="stroke: rgb(235, 240, 248); stroke-opacity: 1; stroke-width: 1px;"/></g><g class="y"><path class="ygrid crisp" transform="translate(0,101.56)" d="M10,0h280" style="stroke: rgb(235, 240, 248); stroke-opacity: 1; stroke-width: 1px;"/><path class="ygrid crisp" transform="translate(0,78.13)" d="M10,0h280" style="stroke: rgb(235, 240, 248); stroke-opacity: 1; stroke-width: 1px;"/><path class="ygrid crisp" transform="translate(0,54.69)" d="M10,0h280" style="stroke: rgb(235, 240, 248); stroke-opacity: 1; stroke-width: 1px;"/></g></g><g class="zerolinelayer"><path class="yzl zl crisp" transform="translate(0,125)" d="M10,0h280" style="stroke: rgb(235, 240, 248); stroke-opacity: 1; stroke-width: 2px;"/></g><path class="xlines-below"/><path class="ylines-below"/><g class="overlines-below"/><g class="xaxislayer-below"/><g class="yaxislayer-below"/><g class="overaxes-below"/><g class="plot" transform="translate(10,50)" clip-path="url(#clipa1de31xyplot)"><g class="scatterlayer mlayer"><g class="trace scatter trace7e18a7" style="stroke-miterlimit: 2; opacity: 1;"><g class="fills"/><g class="errorbars"/><g class="lines"><path class="js-line" d="M0,11.57Q16.03,11.58 28.09,11.74C49.95,12.04 99.34,14.55 120.25,13.69C131.07,13.24 136.78,11.76 144.83,11.14C152.57,10.54 159.84,10.4 167.65,9.99C175.9,9.56 187.51,8.84 193.1,8.61C195.85,8.5 196.73,8.54 199.25,8.43C203.3,8.25 208.78,7.9 215.05,7.47C224.28,6.84 240.05,5.52 249.28,4.87C255.55,4.43 259.89,4.05 265.08,3.86Q270.12,3.68 280,3.75" style="vector-effect: non-scaling-stroke; fill: none; stroke: rgb(38, 16, 96); stroke-opacity: 1; stroke-width: 5px; opacity: 1;"/></g><g class="points"/><g class="text"/></g><g class="trace scatter trace9f2498" style="stroke-miterlimit: 2; opacity: 1;"><g class="fills"/><g class="errorbars"/><g class="lines"><path class="js-line" d="M0,41.76Q16.06,40.72 28.09,39.24C49.98,36.54 99.29,27.08 120.25,24.76C131.02,23.57 136.78,23.49 144.83,23.18C152.57,22.88 159.89,22 167.65,22.89C175.96,23.84 187.48,28.48 193.1,29.15C195.82,29.47 196.74,28.88 199.25,29.12C203.31,29.5 208.75,31.28 215.05,32.21C224.26,33.57 240.04,35.2 249.28,35.62C255.54,35.9 259.9,35.84 265.08,35.47Q270.14,35.11 280,33.45" style="vector-effect: non-scaling-stroke; fill: none; stroke: rgb(0, 68, 148); stroke-opacity: 1; stroke-width: 5px; opacity: 1;"/></g><g class="points"/><g class="text"/></g><g class="trace scatter tracea3350a" style="stroke-miterlimit: 2; opacity: 1;"><g class="fills"/><g class="errorbars"/><g class="lines"><path class="js-line" d="M0,52.52Q16.03,52.76 28.09,52.55C49.95,52.18 99.33,49.21 120.25,49.3C131.06,49.35 136.79,50.41 144.83,50.39C152.58,50.37 159.83,49.59 167.65,49.25C175.9,48.89 187.51,48.48 193.1,48.32C195.85,48.24 196.73,48.29 199.25,48.2C203.3,48.05 208.78,47.58 215.05,47.37C224.28,47.07 240.05,46.85 249.28,46.91C255.55,46.95 259.89,47.16 265.08,47.34Q270.13,47.51 280,47.96" style="vector-effect: non-scaling-stroke; fill: none; stroke: rgb(234, 35, 41); stroke-opacity: 1; stroke-width: 5px; opacity: 1;"/></g><g class="points"/><g class="text"/></g><g class="trace scatter traceaea0d1" style="stroke-miterlimit: 2; opacity: 1;"><g class="fills"/><g class="errorbars"/><g class="lines"><path class="js-line" d="M0,53.69Q16.02,54.92 28.09,55.43C49.94,56.36 99.33,57.21 120.25,57.53C131.06,57.7 136.79,57.63 144.83,57.73C152.58,57.82 159.85,58.56 167.65,58.09C175.92,57.59 187.5,55.19 193.1,54.57C195.84,54.27 196.73,54.32 199.25,54.06C203.3,53.64 208.76,52.49 215.05,52.09C224.27,51.51 240.05,51.8 249.28,52.03C255.55,52.19 259.89,52.6 265.08,52.86Q270.12,53.12 280,53.59" style="vector-effect: non-scaling-stroke; fill: none; stroke: rgb(0, 0, 0); stroke-opacity: 1; stroke-width: 5px; opacity: 1;"/></g><g class="points"/><g class="text"/></g><g class="trace scatter traceb82c75" style="stroke-miterlimit: 2; opacity: 1;"><g class="fills"/><g class="errorbars"/><g class="lines"><path class="js-line" d="M0,56.49Q15.88,50.26 28.09,48.75C49.81,46.06 99.33,49.88 120.25,50.79C131.06,51.26 136.79,51.84 144.83,52.39C152.58,52.92 159.85,53.27 167.65,54.05C175.91,54.87 187.51,56.51 193.1,57.26C195.85,57.63 196.72,57.81 199.25,58.14C203.29,58.67 208.77,59.54 215.05,60.02C224.27,60.73 240.05,61.03 249.28,61.2C255.55,61.31 259.89,61.31 265.08,61.23Q270.13,61.15 280,60.75" style="vector-effect: non-scaling-stroke; fill: none; stroke: rgb(93, 140, 0); stroke-opacity: 1; stroke-width: 5px; opacity: 1;"/></g><g class="points"/><g class="text"/></g></g></g><g class="overplot"/><path class="xlines-above crisp" d="M0,0" style="fill: none;"/><path class="ylines-above crisp" d="M0,0" style="fill: none;"/><g class="overlines-above"/><g class="xaxislayer-above"/><g class="yaxislayer-above"/><g class="overaxes-above"/></g></g><g class="polarlayer"/><g class="smithlayer"/><g class="ternarylayer"/><g class="geolayer"/><g class="funnelarealayer"/><g class="pielayer"/><g class="iciclelayer"/><g class="treemaplayer"/><g class="sunburstlayer"/><g class="glimages"/><defs id="topdefs-a1de31"><g class="clips"/></defs><g class="layer-above"><g class="imagelayer"/><g class="shapelayer"/></g><g class="infolayer"><g class="g-gtitle"><text class="gtitle" x="15" y="25" text-anchor="start" dy="0em" style="font-family: Ubuntu, verdana, arial, sans-serif; font-size: 16px; fill: rgb(233, 84, 32); opacity: 1; font-weight: normal; white-space: pre;">Sněmovna 2021-2025</text></g><g class="g-xtitle"/><g class="g-ytitle"/></g></svg>