<svg class="main-svg" xmlns="http://www.w3.org/2000/svg" xmlns:xlink="http://www.w3.org/1999/xlink" width="300" height="135" style="" viewBox="0 0 300 135"><rect x="0" y="0" width="300" height="135" style="fill: rgb(255, 255, 255); fill-opacity: 1;"/><defs id="defs-24eb79"><g class="clips"><clipPath id="clip24eb79xyplot" class="plotclip"><rect width="280" height="75"/></clipPath><clipPath class="axesclip" id="clip24eb79x"><rect x="10" y="0" width="280" height="135"/></clipPath><clipPath class="axesclip" id="clip24eb79y"><rect x="0" y="50" width="300" height="75"/></clipPath><clipPath class="axesclip" id="clip24eb79xy"><rect x="10" y="50" width="280" height="75"/></clipPath></g><g class="gradients"/><g class="patterns"/></defs><g class="bglayer"/><g class="layer-below"><g class="imagelayer"/><g class="shapelayer"/></g><g class="cartesianlayer"><g class="subplot xy"><g class="layer-subplot"><g class="shapelayer"/><g class="imagelayer"/></g><g class="gridlayer"><g class="x"><path class="xgrid crisp" transform="translate(49.8,0)" d="M0,50v75" style="stroke: rgb(235, 240, 248); stroke-opacity: 1; stroke-width: 1px;"/><path class="xgrid crisp" transform="translate(135.55,0)" d="M0,50v75" style="stroke: rgb(235, 240, 248); stroke-opacity: 1; stroke-width: 1px;"/><path class="xgrid crisp" transform="translate(222.72,0)" d="M0,50v75" style="stroke: rgb(235, 240, 248); stroke-opacity: 1; stroke-width: 1px;"/></g><g class="y"><path class="ygrid crisp" transform="translate(0,102.85)" d="M10,0h280" style="stroke: rgb(235, 240, 248); stroke-opacity: 1; stroke-width: 1px;"/><path class="ygrid crisp" transform="translate(0,80.7)" d="M10,0h280" style="stroke: rgb(235, 240, 248); stroke-opacity: 1; stroke-width: 1px;"/><path class="ygrid crisp" transform="translate(0,58.56)" d="M10,0h280" style="stroke: rgb(235, 240, 248); stroke-opacity: 1; stroke-width: 1px;"/></g></g><g class="zerolinelayer"><path class="yzl zl crisp" transform="translate(0,125)" d="M10,0h280" style="stroke: rgb(235, 240, 248); stroke-opacity: 1; stroke-width: 2px;"/></g><path class="xlines-below"/><path class="ylines-below"/><g class="overlines-below"/><g class="xaxislayer-below"/><g class="yaxislayer-below"/><g class="overaxes-below"/><g class="plot" transform="translate(10,50)" clip-path="url(#clip24eb79xyplot)"><g class="scatterlayer mlayer"><g class="trace scatter tracec5ee2f" style="stroke-miterlimit: 2; opacity: 1;"><g class="fills"/><g class="errorbars"/><g class="lines"><path class="js-line" d="M0,14.98Q8.65,15.05 15.16,15.22C26.96,15.53 53.65,17.84 64.91,17.03C70.77,16.61 73.82,15.2 78.17,14.61C82.34,14.04 86.27,13.89 90.49,13.49C94.95,13.07 101.21,12.39 104.23,12.16C105.71,12.05 106.19,12.09 107.55,11.98C109.73,11.8 112.69,11.42 116.07,11.04C121.05,10.48 129.56,9.36 134.55,8.95C137.93,8.67 140.73,8.54 143.08,8.52C144.74,8.51 145.96,8.67 147.34,8.68C148.64,8.69 149.77,8.59 151.13,8.57C152.73,8.55 154.61,8.59 156.35,8.6C158.09,8.61 160.09,8.6 161.56,8.64C162.65,8.67 163.13,8.72 164.4,8.77C166.99,8.86 173.19,8.73 176.24,9.08C178.19,9.31 178.89,9.96 180.98,10.06C184.97,10.26 191.51,8.77 198.51,8.2C208.91,7.35 234.8,6.28 237.36,5.99C237.64,5.96 237.57,5.94 237.83,5.91C239.08,5.74 245.85,4.75 248.73,4.86C250.64,4.93 251.63,5.52 253.47,5.69C255.99,5.92 259.95,5.8 262.47,5.8C264.3,5.8 265.25,5.9 267.21,5.74Q270.44,5.47 280,3.75" style="vector-effect: non-scaling-stroke; fill: none; stroke: rgb(38, 16, 96); stroke-opacity: 1; stroke-width: 5px; opacity: 1;"/></g><g class="points"/><g class="text"/></g><g class="trace scatter trace052d04" style="stroke-miterlimit: 2; opacity: 1;"><g class="fills"/><g class="errorbars"/><g class="lines"><path class="js-line" d="M0,44.88Q8.66,42.89 15.16,41.21C26.97,38.16 53.56,29.73 64.91,27.58C70.68,26.49 73.83,26.41 78.17,26.15C82.35,25.9 86.36,25.17 90.49,26C95.04,26.92 101.17,31.31 104.23,31.97C105.67,32.28 106.21,31.78 107.55,32.02C109.76,32.42 112.64,34.13 116.07,35.04C121.01,36.35 129.55,37.85 134.55,38.35C137.92,38.69 140.73,38.57 143.08,38.54C144.74,38.52 145.96,38.42 147.34,38.33C148.64,38.24 149.77,38 151.13,38.02C152.73,38.04 154.61,38.53 156.35,38.59C158.09,38.65 160.09,38.46 161.56,38.36C162.65,38.29 163.13,38.16 164.4,38.11C166.99,38.01 173.21,38.66 176.24,38.23C178.2,37.95 178.88,36.91 180.98,36.8C184.96,36.59 191.49,39.79 198.51,40.09C208.89,40.53 234.8,35.82 237.36,36.14C237.65,36.18 237.56,36.25 237.83,36.31C239.07,36.57 245.84,37.11 248.73,37.09C250.63,37.08 251.65,36.6 253.47,36.68C256,36.79 259.94,38.02 262.47,38.28C264.29,38.47 265.25,38.26 267.21,38.42Q270.44,38.68 280,40.13" style="vector-effect: non-scaling-stroke; fill: none; stroke: rgb(0, 68, 148); stroke-opacity: 1; stroke-width: 5px; opacity: 1;"/></g><g class="points"/><g class="text"/></g><g class="trace scatter trace751427" style="stroke-miterlimit: 2; opacity: 1;"><g class="fills"/><g class="errorbars"/><g class="lines"><path class="js-line" d="M0,53.96Q8.62,55.83 15.16,56.51C26.93,57.73 53.62,58.18 64.91,58.47C70.74,58.62 73.83,58.55 78.17,58.62C82.35,58.69 86.3,59.35 90.49,58.89C94.98,58.4 101.2,56.12 104.23,55.53C105.7,55.24 106.19,55.29 107.55,55.04C109.74,54.64 112.66,53.59 116.07,53.19C121.03,52.6 129.57,52.78 134.55,52.78C137.94,52.78 140.73,52.99 143.08,52.98C144.74,52.98 145.96,52.83 147.34,52.86C148.64,52.89 149.76,53.11 151.13,53.15C152.73,53.2 154.61,53.12 156.35,53.06C158.09,53 160.08,52.81 161.56,52.78C162.65,52.76 163.13,52.86 164.4,52.81C167,52.72 173.18,52.03 176.24,51.82C178.17,51.69 178.9,51.56 180.98,51.58C184.98,51.62 191.51,52.62 198.51,52.85C208.91,53.19 234.79,52.75 237.36,52.61C237.64,52.59 237.57,52.57 237.83,52.56C239.08,52.51 245.85,52.97 248.73,52.84C250.64,52.76 251.64,52.45 253.47,52.3C255.99,52.09 259.95,51.97 262.47,51.84C264.3,51.75 265.25,51.67 267.21,51.6Q270.44,51.49 280,51.39" style="vector-effect: non-scaling-stroke; fill: none; stroke: rgb(0, 0, 0); stroke-opacity: 1; stroke-width: 5px; opacity: 1;"/></g><g class="points"/><g class="text"/></g><g class="trace scatter tracec3e68c" style="stroke-miterlimit: 2; opacity: 1;"><g class="fills"/><g class="errorbars"/><g class="lines"><path class="js-line" d="M0,53.74Q8.65,53.97 15.16,53.78C26.96,53.43 53.62,50.63 64.91,50.7C70.74,50.74 73.83,51.72 78.17,51.69C82.35,51.66 86.27,50.91 90.49,50.58C94.94,50.23 101.21,49.81 104.23,49.64C105.71,49.56 106.19,49.6 107.55,49.5C109.73,49.34 112.68,48.89 116.07,48.63C121.05,48.25 129.56,47.88 134.55,47.72C137.94,47.61 140.73,47.66 143.08,47.6C144.74,47.56 145.96,47.41 147.34,47.43C148.64,47.45 149.77,47.64 151.13,47.67C152.73,47.7 154.61,47.47 156.35,47.54C158.09,47.61 160.08,47.97 161.56,48.09C162.65,48.18 163.13,48.21 164.4,48.27C166.99,48.4 173.18,48.57 176.24,48.73C178.18,48.83 178.9,48.97 180.98,49.03C184.98,49.14 191.54,48.4 198.51,48.9C208.94,49.65 234.79,54.65 237.36,54.79C237.64,54.81 237.57,54.77 237.83,54.77C239.08,54.75 245.84,54.73 248.73,54.88C250.64,54.98 251.64,55.22 253.47,55.31C255.99,55.44 259.95,55.42 262.47,55.4C264.3,55.39 265.25,55.33 267.21,55.28Q270.44,55.2 280,54.93" style="vector-effect: non-scaling-stroke; fill: none; stroke: rgb(234, 35, 41); stroke-opacity: 1; stroke-width: 5px; opacity: 1;"/></g><g class="points"/><g class="text"/></g><g class="trace scatter trace473df2" style="stroke-miterlimit: 2; opacity: 1;"><g class="fills"/><g class="errorbars"/><g class="lines"><path class="js-line" d="M0,61.49Q8.14,52.37 15.16,50.2C26.56,46.67 53.63,51.29 64.91,52.17C70.75,52.63 73.83,53.18 78.17,53.72C82.35,54.24 86.29,54.6 90.49,55.35C94.96,56.15 101.21,57.72 104.23,58.44C105.72,58.8 106.18,58.96 107.55,59.28C109.73,59.79 112.67,60.62 116.07,61.11C121.03,61.82 129.56,62.23 134.55,62.49C137.93,62.67 140.73,62.7 143.08,62.76C144.74,62.8 145.96,62.89 147.34,62.85C148.64,62.81 149.76,62.61 151.13,62.54C152.73,62.46 154.61,62.51 156.35,62.43C158.09,62.35 160.09,62.2 161.56,62.08C162.65,61.99 163.13,61.85 164.4,61.8C166.99,61.69 173.18,61.97 176.24,61.95C178.18,61.94 178.9,61.9 180.98,61.84C184.98,61.72 191.52,61.45 198.51,61.18C208.92,60.78 234.79,59.74 237.36,59.66C237.64,59.65 237.57,59.65 237.83,59.65C239.08,59.64 245.85,59.55 248.73,59.71C250.64,59.82 251.64,60.12 253.47,60.21C255.99,60.34 259.95,60.07 262.47,60.17C264.3,60.24 265.24,60.42 267.21,60.55Q270.44,60.76 280,61.19" style="vector-effect: non-scaling-stroke; fill: none; stroke: rgb(93, 140, 0); stroke-opacity: 1; stroke-width: 5px; opacity: 1;"/></g><g class="points"/><g class="text"/></g></g></g><g class="overplot"/><path class="xlines-above crisp" d="M0,0" style="fill: none;"/><path class="ylines-above crisp" d="M0,0" style="fill: none;"/><g class="overlines-above"/><g class="xaxislayer-above"/><g class="yaxislayer-above"/><g class="overaxes-above"/></g></g><g class="polarlayer"/><g class="smithlayer"/><g class="ternarylayer"/><g class="geolayer"/><g class="funnelarealayer"/><g class="pielayer"/><g class="iciclelayer"/><g class="treemaplayer"/><g class="sunburstlayer"/><g class="glimages"/><defs id="topdefs-24eb79"><g class="clips"/></defs><g class="layer-above"><g class="imagelayer"/><g class="shapelayer"/></g><g class="infolayer"><g class="g-gtitle"><text class="gtitle" x="15" y="25" text-anchor="start" dy="0em" style="font-family: Ubuntu, verdana, arial, sans-serif; font-size: 16px; fill: rgb(233, 84, 32); opacity: 1; font-weight: normal; white-space: pre;">Sněmovna 2021-2025</text></g><g class="g-xtitle"/><g class="g-ytitle"/></g></svg>