<svg class="main-svg" xmlns="http://www.w3.org/2000/svg" xmlns:xlink="http://www.w3.org/1999/xlink" width="300" height="135" style="" viewBox="0 0 300 135"><rect x="0" y="0" width="300" height="135" style="fill: rgb(255, 255, 255); fill-opacity: 1;"/><defs id="defs-de225c"><g class="clips"><clipPath id="clipde225cxyplot" class="plotclip"><rect width="280" height="75"/></clipPath><clipPath class="axesclip" id="clipde225cx"><rect x="10" y="0" width="280" height="135"/></clipPath><clipPath class="axesclip" id="clipde225cy"><rect x="0" y="50" width="300" height="75"/></clipPath><clipPath class="axesclip" id="clipde225cxy"><rect x="10" y="50" width="280" height="75"/></clipPath></g><g class="gradients"/><g class="patterns"/></defs><g class="bglayer"/><g class="layer-below"><g class="imagelayer"/><g class="shapelayer"/></g><g class="cartesianlayer"><g class="subplot xy"><g class="layer-subplot"><g class="shapelayer"/><g class="imagelayer"/></g><g class="minor-gridlayer"><g class="x"/><g class="y"/></g><g class="gridlayer"><g class="x"><path class="xgrid crisp" transform="translate(32.83,0)" d="M0,50v75" style="stroke: rgb(235, 240, 248); stroke-opacity: 1; stroke-width: 1px;"/><path class="xgrid crisp" transform="translate(132.06,0)" d="M0,50v75" style="stroke: rgb(235, 240, 248); stroke-opacity: 1; stroke-width: 1px;"/><path class="xgrid crisp" transform="translate(231.28,0)" d="M0,50v75" style="stroke: rgb(235, 240, 248); stroke-opacity: 1; stroke-width: 1px;"/></g><g class="y"><path class="ygrid crisp" transform="translate(0,104.1)" d="M10,0h280" style="stroke: rgb(235, 240, 248); stroke-opacity: 1; stroke-width: 1px;"/><path class="ygrid crisp" transform="translate(0,83.21000000000001)" d="M10,0h280" style="stroke: rgb(235, 240, 248); stroke-opacity: 1; stroke-width: 1px;"/><path class="ygrid crisp" transform="translate(0,62.31)" d="M10,0h280" style="stroke: rgb(235, 240, 248); stroke-opacity: 1; stroke-width: 1px;"/></g></g><g class="zerolinelayer"><path class="yzl zl crisp" transform="translate(0,125)" d="M10,0h280" style="stroke: rgb(235, 240, 248); stroke-opacity: 1; stroke-width: 2px;"/></g><path class="xlines-below"/><path class="ylines-below"/><g class="overlines-below"/><g class="xaxislayer-below"/><g class="yaxislayer-below"/><g class="overaxes-below"/><g class="plot" transform="translate(10,50)" clip-path="url(#clipde225cxyplot)"><g class="scatterlayer mlayer"><g class="trace scatter trace84cc19" style="stroke-miterlimit: 2; opacity: 1;"><g class="fills"/><g class="errorbars"/><g class="lines"><path class="js-line" d="M0,18.37Q4.96,18.43 8.7,18.59C15.47,18.88 30.81,21.05 37.24,20.3C40.63,19.91 42.34,18.58 44.85,18.02C47.23,17.49 49.5,17.33 51.92,16.96C54.48,16.56 58.08,15.92 59.81,15.7C60.66,15.59 60.93,15.63 61.71,15.53C62.96,15.36 64.66,15 66.6,14.65C69.46,14.13 74.33,13.07 77.2,12.68C79.14,12.42 80.75,12.28 82.1,12.27C83.05,12.26 83.75,12.41 84.54,12.42C85.29,12.43 85.94,12.33 86.72,12.32C87.64,12.3 88.71,12.34 89.71,12.35C90.71,12.36 91.85,12.34 92.7,12.38C93.33,12.41 93.6,12.46 94.33,12.5C95.82,12.59 99.39,12.46 101.13,12.79C102.26,13 102.63,13.63 103.84,13.72C106.12,13.9 109.88,12.5 113.9,11.93C119.86,11.09 134.69,9.88 136.19,9.62C136.36,9.59 136.32,9.58 136.47,9.55C137.2,9.39 141.06,8.38 142.72,8.39C143.81,8.4 144.38,8.88 145.44,8.94C146.88,9.02 149.16,8.68 150.6,8.49C151.65,8.35 152.26,8.29 153.32,8C154.89,7.57 157.69,6.21 159.03,5.86C159.73,5.68 160.35,5.65 160.66,5.6C160.79,5.58 160.78,5.58 160.93,5.56C161.73,5.44 165.98,4.41 168.54,4.35C171.14,4.29 173.39,5.01 176.43,5.25C180.57,5.58 188.67,6.17 191.11,5.93C191.93,5.85 192.34,5.6 192.74,5.52C192.97,5.47 193,5.48 193.28,5.44C194.32,5.3 198.89,4.62 200.62,4.55C201.56,4.51 201.97,4.66 202.8,4.64C203.89,4.62 205.38,4.45 206.6,4.32C207.73,4.2 209.23,3.95 209.86,3.89C210.12,3.86 210.23,3.86 210.41,3.85C210.59,3.84 210.68,3.84 210.95,3.84C211.82,3.82 214.28,3.67 216.39,3.75C219.34,3.87 226.02,4.7 226.99,4.78C227.15,4.79 227.17,4.8 227.26,4.8C227.35,4.8 227.38,4.77 227.53,4.75C228.26,4.67 232.81,4.76 234.06,4.54C234.58,4.45 234.62,4.22 235.15,4.19C236.51,4.1 241.7,5.45 242.49,5.54C242.64,5.56 242.63,5.55 242.76,5.55C243.11,5.56 243.87,5.48 244.66,5.54C245.96,5.63 248.18,6.09 249.83,6.32C251.34,6.53 252.7,6.74 254.17,6.88C255.69,7.02 257.13,7 258.8,7.16C260.79,7.35 264.06,7.78 265.32,7.98C265.84,8.06 266.41,8.19 266.41,8.19C266.41,8.19 266.41,8.19 266.41,8.19C266.41,8.19 270.46,10.06 272.66,10.67Q274.98,11.31 280,11.88" style="vector-effect: none; fill: none; stroke: rgb(38, 16, 96); stroke-opacity: 1; stroke-width: 5px; opacity: 1;"/></g><g class="points"/><g class="text"/></g><g class="trace scatter trace03790d" style="stroke-miterlimit: 2; opacity: 1;"><g class="fills"/><g class="errorbars"/><g class="lines"><path class="js-line" d="M0,46.58Q4.99,44.69 8.7,43.12C15.49,40.24 30.67,32.28 37.24,30.25C40.5,29.24 42.35,29.14 44.85,28.9C47.24,28.67 49.61,28.05 51.92,28.77C54.62,29.61 58.01,33.8 59.81,34.4C60.61,34.66 60.96,34.23 61.71,34.44C63,34.8 64.6,36.42 66.6,37.29C69.4,38.5 74.32,39.95 77.2,40.42C79.12,40.73 80.75,40.63 82.1,40.6C83.05,40.58 83.75,40.48 84.54,40.4C85.29,40.32 85.94,40.09 86.72,40.11C87.64,40.13 88.71,40.59 89.71,40.64C90.7,40.69 91.85,40.52 92.7,40.43C93.33,40.36 93.6,40.25 94.33,40.2C95.82,40.11 99.41,40.69 101.13,40.3C102.28,40.04 102.62,39.06 103.84,38.96C106.11,38.78 109.85,41.77 113.9,42.06C119.83,42.48 134.7,38.27 136.19,38.52C136.37,38.55 136.31,38.62 136.47,38.67C137.19,38.9 141.06,39.48 142.72,39.51C143.81,39.53 144.4,39.16 145.44,39.26C146.9,39.41 149.14,40.52 150.6,40.8C151.64,41 152.25,40.91 153.32,41.06C154.88,41.28 157.7,41.97 159.03,42.15C159.73,42.25 160.35,42.28 160.66,42.29C160.79,42.29 160.78,42.27 160.93,42.28C161.74,42.34 165.97,43.34 168.54,43.71C171.14,44.09 173.41,44.06 176.43,44.51C180.58,45.13 188.66,47.09 191.11,47.41C191.92,47.51 192.34,47.49 192.74,47.51C192.97,47.52 193,47.54 193.28,47.53C194.32,47.49 198.89,46.92 200.62,46.75C201.56,46.66 201.97,46.55 202.8,46.56C203.89,46.58 205.38,46.97 206.6,47C207.73,47.02 209.23,46.74 209.86,46.76C210.12,46.77 210.23,46.82 210.41,46.83C210.59,46.84 210.68,46.83 210.95,46.84C211.82,46.86 214.28,46.96 216.39,46.94C219.34,46.92 226.02,46.63 226.99,46.58C227.15,46.57 227.17,46.57 227.26,46.56C227.35,46.55 227.38,46.52 227.53,46.5C228.26,46.4 232.8,46.36 234.06,46.22C234.58,46.16 234.62,46.11 235.15,46.03C236.51,45.83 241.7,45.25 242.49,45.16C242.64,45.14 242.63,45.14 242.76,45.13C243.11,45.09 243.87,44.93 244.66,44.91C245.96,44.88 248.18,45.26 249.83,45.24C251.34,45.22 252.7,44.89 254.17,44.86C255.69,44.83 257.13,45 258.8,45.1C260.79,45.22 264.06,45.43 265.32,45.57C265.84,45.63 266.41,45.73 266.41,45.73C266.41,45.73 266.41,45.73 266.41,45.73C266.41,45.73 270.48,46.93 272.66,47.05Q275,47.17 280,46.3" style="vector-effect: none; fill: none; stroke: rgb(0, 68, 148); stroke-opacity: 1; stroke-width: 5px; opacity: 1;"/></g><g class="points"/><g class="text"/></g><g class="trace scatter tracecfe201" style="stroke-miterlimit: 2; opacity: 1;"><g class="fills"/><g class="errorbars"/><g class="lines"><path class="js-line" d="M0,62.25Q4.29,53.52 8.7,51.6C15.07,48.83 30.78,52.63 37.24,53.46C40.6,53.89 42.36,54.41 44.85,54.92C47.25,55.41 49.52,55.76 51.92,56.46C54.5,57.22 58.08,58.7 59.81,59.38C60.66,59.72 60.92,59.87 61.71,60.17C62.96,60.65 64.63,61.44 66.6,61.9C69.43,62.57 74.34,62.95 77.2,63.2C79.14,63.37 80.75,63.39 82.1,63.45C83.05,63.49 83.75,63.57 84.54,63.53C85.29,63.49 85.93,63.31 86.72,63.24C87.64,63.16 88.71,63.21 89.71,63.14C90.71,63.07 91.85,62.92 92.7,62.81C93.33,62.73 93.6,62.6 94.33,62.55C95.82,62.45 99.38,62.7 101.13,62.69C102.24,62.68 102.65,62.65 103.84,62.59C106.13,62.48 109.89,62.21 113.9,61.96C119.87,61.59 134.69,60.64 136.19,60.59C136.36,60.58 136.32,60.59 136.47,60.59C137.2,60.6 141.07,60.56 142.72,60.71C143.82,60.81 144.39,61.07 145.44,61.17C146.88,61.3 149.16,61.14 150.6,61.24C151.65,61.31 152.25,61.47 153.32,61.58C154.87,61.73 157.7,61.92 159.03,61.99C159.74,62.03 160.35,62.04 160.66,62.05C160.79,62.05 160.78,62.05 160.93,62.05C161.73,62.07 165.98,62.38 168.54,62.36C171.15,62.34 173.39,62.01 176.43,61.9C180.57,61.75 188.67,61.88 191.11,61.7C191.93,61.64 192.34,61.53 192.74,61.48C192.97,61.45 193,61.44 193.28,61.42C194.32,61.36 198.89,61.48 200.62,61.44C201.56,61.42 201.97,61.35 202.8,61.33C203.89,61.3 205.38,61.34 206.6,61.33C207.73,61.32 209.23,61.31 209.86,61.29C210.12,61.28 210.23,61.27 210.41,61.26C210.59,61.25 210.68,61.26 210.95,61.25C211.82,61.23 214.28,61.18 216.39,61.08C219.34,60.94 226.02,60.49 226.99,60.44C227.15,60.43 227.17,60.43 227.26,60.43C227.35,60.43 227.38,60.43 227.53,60.42C228.27,60.37 232.8,59.8 234.06,59.8C234.58,59.8 234.63,59.86 235.15,59.9C236.51,60.01 241.7,60.44 242.49,60.45C242.64,60.45 242.63,60.45 242.76,60.44C243.11,60.42 243.87,60.39 244.66,60.3C245.96,60.15 248.18,59.7 249.83,59.47C251.34,59.26 252.7,59.17 254.17,58.98C255.69,58.79 257.12,58.5 258.8,58.32C260.78,58.11 264.06,58.02 265.32,57.84C265.84,57.76 266.41,57.6 266.41,57.6C266.41,57.6 266.41,57.6 266.41,57.6C266.41,57.6 270.48,56.72 272.66,56.43Q275,56.12 280,55.85" style="vector-effect: none; fill: none; stroke: rgb(206, 15, 104); stroke-opacity: 1; stroke-width: 5px; opacity: 1;"/></g><g class="points"/><g class="text"/></g><g class="trace scatter trace4181e0" style="stroke-miterlimit: 2; opacity: 1;"><g class="fills"/><g class="errorbars"/><g class="lines"><path class="js-line" d="M0,55.15Q4.92,56.91 8.7,57.55C15.43,58.68 30.76,59.13 37.24,59.4C40.58,59.54 42.36,59.47 44.85,59.54C47.25,59.61 49.54,60.21 51.92,59.8C54.53,59.35 58.06,57.19 59.81,56.63C60.65,56.36 60.94,56.4 61.71,56.17C62.97,55.79 64.62,54.8 66.6,54.42C69.43,53.88 74.34,54.03 77.2,54.03C79.14,54.03 80.75,54.22 82.1,54.22C83.05,54.22 83.75,54.08 84.54,54.11C85.29,54.14 85.93,54.34 86.72,54.38C87.64,54.42 88.71,54.36 89.71,54.3C90.71,54.24 91.85,54.06 92.7,54.03C93.32,54.01 93.6,54.11 94.33,54.07C95.82,53.99 99.37,53.32 101.13,53.13C102.24,53.01 102.65,52.89 103.84,52.91C106.13,52.95 109.88,53.89 113.9,54.1C119.86,54.41 134.69,53.94 136.19,53.8C136.36,53.78 136.31,53.76 136.47,53.75C137.2,53.7 141.07,54.06 142.72,53.93C143.82,53.84 144.39,53.56 145.44,53.41C146.88,53.21 149.15,53.06 150.6,52.93C151.65,52.83 152.25,52.76 153.32,52.69C154.87,52.58 157.7,52.5 159.03,52.41C159.74,52.36 160.35,52.3 160.66,52.28C160.79,52.27 160.78,52.27 160.93,52.26C161.73,52.22 165.98,52.15 168.54,52.07C171.15,51.99 173.4,51.62 176.43,51.78C180.58,52 188.66,53.75 191.11,53.92C191.92,53.98 192.34,53.88 192.74,53.91C192.97,53.93 193,53.98 193.28,54C194.32,54.07 198.9,53.97 200.62,53.83C201.56,53.75 201.97,53.63 202.8,53.53C203.89,53.4 205.38,53.26 206.6,53.13C207.73,53.01 209.23,52.82 209.86,52.76C210.12,52.74 210.23,52.73 210.41,52.72C210.59,52.71 210.68,52.72 210.95,52.72C211.82,52.71 214.28,52.7 216.39,52.64C219.34,52.55 226.02,52.18 226.99,52.18C227.15,52.18 227.17,52.18 227.26,52.19C227.35,52.2 227.38,52.22 227.53,52.24C228.26,52.34 232.8,52.71 234.06,52.85C234.58,52.91 234.62,52.95 235.15,52.99C236.51,53.09 241.7,53.15 242.49,53.17C242.64,53.17 242.63,53.18 242.76,53.18C243.11,53.19 243.87,53.21 244.66,53.24C245.96,53.29 248.18,53.45 249.83,53.51C251.34,53.57 252.7,53.5 254.17,53.61C255.69,53.72 257.13,53.98 258.8,54.2C260.79,54.46 264.06,54.96 265.32,55.05C265.83,55.09 266.41,55.06 266.41,55.06C266.41,55.06 266.41,55.06 266.41,55.06C266.41,55.06 270.5,55.36 272.66,55.61Q275.01,55.88 280,56.65" style="vector-effect: none; fill: none; stroke: rgb(0, 0, 0); stroke-opacity: 1; stroke-width: 5px; opacity: 1;"/></g><g class="points"/><g class="text"/></g><g class="trace scatter trace1ee4ce" style="stroke-miterlimit: 2; opacity: 1;"><g class="fills"/><g class="errorbars"/><g class="lines"><path class="js-line" d="M0,54.94Q4.97,55.16 8.7,54.98C15.47,54.65 30.76,52 37.24,52.07C40.59,52.11 42.36,53.04 44.85,53.01C47.25,52.98 49.5,52.28 51.92,51.96C54.48,51.63 58.08,51.23 59.81,51.07C60.66,50.99 60.93,51.03 61.71,50.94C62.96,50.79 64.65,50.35 66.6,50.11C69.45,49.75 74.34,49.41 77.2,49.26C79.14,49.16 80.75,49.21 82.1,49.15C83.05,49.11 83.75,48.96 84.54,48.98C85.29,48.99 85.93,49.19 86.72,49.22C87.64,49.25 88.72,49.03 89.71,49.09C90.71,49.15 91.85,49.49 92.7,49.61C93.32,49.7 93.6,49.72 94.33,49.78C95.82,49.91 99.38,50.07 101.13,50.22C102.24,50.31 102.65,50.44 103.84,50.5C106.13,50.61 109.92,49.93 113.9,50.4C119.91,51.11 134.69,55.82 136.19,55.98C136.36,56 136.32,55.97 136.47,55.97C137.2,55.96 141.07,55.96 142.72,56.1C143.82,56.19 144.39,56.41 145.44,56.5C146.88,56.62 149.15,56.62 150.6,56.63C151.65,56.64 152.25,56.59 153.32,56.59C154.87,56.59 157.7,56.67 159.03,56.66C159.74,56.66 160.35,56.62 160.66,56.62C160.79,56.62 160.78,56.63 160.93,56.63C161.73,56.61 165.98,56 168.54,55.94C171.14,55.88 173.4,56.46 176.43,56.31C180.58,56.1 188.66,54.24 191.11,54.13C191.92,54.09 192.34,54.21 192.74,54.22C192.97,54.23 193,54.23 193.28,54.22C194.32,54.19 198.89,53.86 200.62,53.8C201.56,53.77 201.97,53.77 202.8,53.78C203.89,53.79 205.39,53.75 206.6,53.89C207.73,54.02 209.23,54.46 209.86,54.55C210.12,54.59 210.23,54.57 210.41,54.59C210.59,54.6 210.68,54.62 210.95,54.64C211.82,54.7 214.28,54.89 216.39,54.94C219.34,55.01 226.02,54.86 226.99,54.87C227.15,54.87 227.17,54.87 227.26,54.88C227.35,54.89 227.38,54.89 227.53,54.91C228.27,55 232.8,55.55 234.06,55.73C234.58,55.8 234.63,55.82 235.15,55.9C236.51,56.11 241.7,56.95 242.49,56.99C242.64,57 242.63,56.98 242.76,56.98C243.11,56.98 243.87,57.04 244.66,57.04C245.96,57.04 248.18,56.77 249.83,56.84C251.34,56.91 252.71,57.15 254.17,57.4C255.69,57.66 257.12,58.08 258.8,58.39C260.78,58.75 264.06,59.23 265.32,59.39C265.83,59.46 266.41,59.5 266.41,59.5C266.41,59.5 266.41,59.5 266.41,59.5C266.41,59.5 270.49,59.87 272.66,60.11Q275.01,60.37 280,61.03" style="vector-effect: none; fill: none; stroke: rgb(234, 35, 41); stroke-opacity: 1; stroke-width: 5px; opacity: 1;"/></g><g class="points"/><g class="text"/></g></g></g><g class="overplot"/><path class="xlines-above crisp" d="M0,0" style="fill: none;"/><path class="ylines-above crisp" d="M0,0" style="fill: none;"/><g class="overlines-above"/><g class="xaxislayer-above"/><g class="yaxislayer-above"/><g class="overaxes-above"/></g></g><g class="polarlayer"/><g class="smithlayer"/><g class="ternarylayer"/><g class="geolayer"/><g class="funnelarealayer"/><g class="pielayer"/><g class="iciclelayer"/><g class="treemaplayer"/><g class="sunburstlayer"/><g class="glimages"/><defs id="topdefs-de225c"><g class="clips"/></defs><g class="layer-above"><g class="imagelayer"/><g class="shapelayer"/></g><g class="infolayer"><g class="g-gtitle"><text class="gtitle" x="15" y="25" text-anchor="start" dy="0em" style="font-family: Ubuntu, verdana, arial, sans-serif; font-size: 16px; fill: rgb(233, 84, 32); opacity: 1; font-weight: normal; white-space: pre;">Sněmovna 2021-2025</text></g><g class="g-xtitle"/><g class="g-ytitle"/></g></svg>