<svg class="main-svg" xmlns="http://www.w3.org/2000/svg" xmlns:xlink="http://www.w3.org/1999/xlink" width="300" height="135" style="" viewBox="0 0 300 135"><rect x="0" y="0" width="300" height="135" style="fill: rgb(255, 255, 255); fill-opacity: 1;"/><defs id="defs-6a7831"><g class="clips"><clipPath id="clip6a7831xyplot" class="plotclip"><rect width="280" height="75"/></clipPath><clipPath class="axesclip" id="clip6a7831x"><rect x="10" y="0" width="280" height="135"/></clipPath><clipPath class="axesclip" id="clip6a7831y"><rect x="0" y="50" width="300" height="75"/></clipPath><clipPath class="axesclip" id="clip6a7831xy"><rect x="10" y="50" width="280" height="75"/></clipPath></g><g class="gradients"/><g class="patterns"/></defs><g class="bglayer"/><g class="layer-below"><g class="imagelayer"/><g class="shapelayer"/></g><g class="cartesianlayer"><g class="subplot xy"><g class="layer-subplot"><g class="shapelayer"/><g class="imagelayer"/></g><g class="gridlayer"><g class="x"><path class="xgrid crisp" transform="translate(54.8,0)" d="M0,50v75" style="stroke: rgb(235, 240, 248); stroke-opacity: 1; stroke-width: 1px;"/><path class="xgrid crisp" transform="translate(151.33,0)" d="M0,50v75" style="stroke: rgb(235, 240, 248); stroke-opacity: 1; stroke-width: 1px;"/><path class="xgrid crisp" transform="translate(249.47,0)" d="M0,50v75" style="stroke: rgb(235, 240, 248); stroke-opacity: 1; stroke-width: 1px;"/></g><g class="y"><path class="ygrid crisp" transform="translate(0,103.18)" d="M10,0h280" style="stroke: rgb(235, 240, 248); stroke-opacity: 1; stroke-width: 1px;"/><path class="ygrid crisp" transform="translate(0,81.35)" d="M10,0h280" style="stroke: rgb(235, 240, 248); stroke-opacity: 1; stroke-width: 1px;"/><path class="ygrid crisp" transform="translate(0,59.53)" d="M10,0h280" style="stroke: rgb(235, 240, 248); stroke-opacity: 1; stroke-width: 1px;"/></g></g><g class="zerolinelayer"><path class="yzl zl crisp" transform="translate(0,125)" d="M10,0h280" style="stroke: rgb(235, 240, 248); stroke-opacity: 1; stroke-width: 2px;"/></g><path class="xlines-below"/><path class="ylines-below"/><g class="overlines-below"/><g class="xaxislayer-below"/><g class="yaxislayer-below"/><g class="overaxes-below"/><g class="plot" transform="translate(10,50)" clip-path="url(#clip6a7831xyplot)"><g class="scatterlayer mlayer"><g class="trace scatter trace92f78f" style="stroke-miterlimit: 2; opacity: 1;"><g class="fills"/><g class="errorbars"/><g class="lines"><path class="js-line" d="M0,15.86Q9.74,15.92 17.07,16.09C30.35,16.39 60.38,18.69 73.07,17.88C79.66,17.46 83.1,16.08 88,15.49C92.7,14.93 97.12,14.78 101.87,14.39C106.88,13.98 113.93,13.29 117.33,13.07C119,12.96 119.54,13.01 121.07,12.9C123.53,12.72 126.86,12.34 130.67,11.97C136.28,11.42 145.86,10.32 151.47,9.92C155.28,9.65 158.42,9.51 161.07,9.49C162.94,9.48 164.32,9.64 165.87,9.65C167.33,9.66 168.6,9.56 170.13,9.54C171.93,9.52 174.04,9.56 176,9.57C177.96,9.58 180.21,9.56 181.87,9.6C183.1,9.63 183.64,9.68 185.07,9.73C187.99,9.82 194.97,9.69 198.4,10.04C200.59,10.27 201.38,10.92 203.73,11.02C208.22,11.22 215.59,9.78 223.47,9.18C235.18,8.28 264.31,6.96 267.2,6.55C267.52,6.5 267.44,6.5 267.73,6.43Q269.14,6.12 280,3.75" style="vector-effect: non-scaling-stroke; fill: none; stroke: rgb(38, 16, 96); stroke-opacity: 1; stroke-width: 5px; opacity: 1;"/></g><g class="points"/><g class="text"/></g><g class="trace scatter trace1e49d7" style="stroke-miterlimit: 2; opacity: 1;"><g class="fills"/><g class="errorbars"/><g class="lines"><path class="js-line" d="M0,45.32Q9.75,43.35 17.07,41.7C30.36,38.7 60.31,30.39 73.07,28.27C79.58,27.19 83.11,27.12 88,26.86C92.7,26.61 97.2,25.89 101.87,26.72C106.97,27.63 113.89,31.95 117.33,32.6C118.96,32.91 119.56,32.4 121.07,32.64C123.55,33.03 126.82,34.72 130.67,35.62C136.24,36.92 145.85,38.39 151.47,38.89C155.27,39.22 158.42,39.11 161.07,39.08C162.94,39.06 164.32,38.96 165.87,38.87C167.33,38.78 168.6,38.54 170.13,38.56C171.93,38.58 174.04,39.07 176,39.12C177.95,39.17 180.21,38.98 181.87,38.89C183.1,38.82 183.64,38.7 185.07,38.65C187.99,38.55 194.98,39.2 198.4,38.77C200.6,38.5 201.38,37.48 203.73,37.37C208.22,37.17 215.57,40.38 223.47,40.69C235.16,41.15 264.32,36.39 267.2,36.83C267.53,36.88 267.43,36.97 267.73,37.05Q269.13,37.43 280,38.69" style="vector-effect: non-scaling-stroke; fill: none; stroke: rgb(0, 68, 148); stroke-opacity: 1; stroke-width: 5px; opacity: 1;"/></g><g class="points"/><g class="text"/></g><g class="trace scatter trace00413c" style="stroke-miterlimit: 2; opacity: 1;"><g class="fills"/><g class="errorbars"/><g class="lines"><path class="js-line" d="M0,54.05Q9.74,54.28 17.07,54.09C30.35,53.75 60.36,50.98 73.07,51.05C79.64,51.09 83.12,52.06 88,52.03C92.71,52 97.12,51.27 101.87,50.94C106.88,50.59 113.93,50.18 117.33,50.01C119,49.93 119.54,49.97 121.07,49.87C123.53,49.71 126.86,49.26 130.67,49.01C136.28,48.64 145.86,48.28 151.47,48.12C155.28,48.01 158.42,48.06 161.07,48C162.94,47.96 164.32,47.81 165.87,47.83C167.33,47.85 168.6,48.05 170.13,48.07C171.93,48.1 174.05,47.86 176,47.93C177.96,48 180.21,48.34 181.87,48.47C183.1,48.56 183.64,48.59 185.07,48.66C187.99,48.79 194.96,48.95 198.4,49.1C200.58,49.19 201.39,49.33 203.73,49.38C208.23,49.47 215.62,48.68 223.47,49.12C235.2,49.78 264.31,54.57 267.2,54.67C267.52,54.68 267.44,54.66 267.73,54.64Q269.14,54.57 280,54.06" style="vector-effect: non-scaling-stroke; fill: none; stroke: rgb(234, 35, 41); stroke-opacity: 1; stroke-width: 5px; opacity: 1;"/></g><g class="points"/><g class="text"/></g><g class="trace scatter trace207d0f" style="stroke-miterlimit: 2; opacity: 1;"><g class="fills"/><g class="errorbars"/><g class="lines"><path class="js-line" d="M0,54.27Q9.71,56.11 17.07,56.78C30.33,57.98 60.36,58.43 73.07,58.71C79.63,58.86 83.12,58.79 88,58.86C92.71,58.93 97.15,59.57 101.87,59.12C106.91,58.64 113.92,56.4 117.33,55.82C118.99,55.54 119.54,55.58 121.07,55.34C123.53,54.95 126.84,53.91 130.67,53.51C136.26,52.93 145.86,53.1 151.47,53.1C155.28,53.1 158.42,53.3 161.07,53.3C162.94,53.3 164.32,53.16 165.87,53.19C167.33,53.22 168.6,53.43 170.13,53.47C171.93,53.52 174.04,53.44 176,53.38C177.96,53.32 180.21,53.13 181.87,53.1C183.1,53.08 183.64,53.18 185.07,53.14C187.99,53.05 194.96,52.37 198.4,52.17C200.58,52.04 201.39,51.91 203.73,51.93C208.23,51.98 215.59,52.95 223.47,53.22C235.18,53.62 264.31,53.5 267.2,53.37C267.52,53.36 267.44,53.32 267.73,53.32Q269.14,53.33 280,54.57" style="vector-effect: non-scaling-stroke; fill: none; stroke: rgb(0, 0, 0); stroke-opacity: 1; stroke-width: 5px; opacity: 1;"/></g><g class="points"/><g class="text"/></g><g class="trace scatter trace2d7c28" style="stroke-miterlimit: 2; opacity: 1;"><g class="fills"/><g class="errorbars"/><g class="lines"><path class="js-line" d="M0,61.69Q9.29,52.73 17.07,50.56C29.98,46.97 60.37,51.63 73.07,52.5C79.64,52.95 83.12,53.5 88,54.03C92.71,54.54 97.14,54.9 101.87,55.64C106.9,56.43 113.93,57.98 117.33,58.69C119,59.04 119.53,59.2 121.07,59.51C123.53,60.01 126.84,60.84 130.67,61.32C136.26,62.03 145.86,62.41 151.47,62.67C155.28,62.85 158.42,62.88 161.07,62.94C162.94,62.98 164.32,63.06 165.87,63.02C167.33,62.98 168.6,62.79 170.13,62.72C171.93,62.64 174.04,62.69 176,62.62C177.96,62.55 180.21,62.39 181.87,62.27C183.1,62.18 183.64,62.04 185.07,61.99C187.99,61.88 194.96,62.16 198.4,62.15C200.58,62.14 201.39,62.1 203.73,62.04C208.23,61.92 215.6,61.68 223.47,61.37C235.19,60.91 264.31,59.51 267.2,59.42C267.52,59.41 267.44,59.42 267.73,59.41Q269.14,59.35 280,58.66" style="vector-effect: non-scaling-stroke; fill: none; stroke: rgb(93, 140, 0); stroke-opacity: 1; stroke-width: 5px; opacity: 1;"/></g><g class="points"/><g class="text"/></g></g></g><g class="overplot"/><path class="xlines-above crisp" d="M0,0" style="fill: none;"/><path class="ylines-above crisp" d="M0,0" style="fill: none;"/><g class="overlines-above"/><g class="xaxislayer-above"/><g class="yaxislayer-above"/><g class="overaxes-above"/></g></g><g class="polarlayer"/><g class="smithlayer"/><g class="ternarylayer"/><g class="geolayer"/><g class="funnelarealayer"/><g class="pielayer"/><g class="iciclelayer"/><g class="treemaplayer"/><g class="sunburstlayer"/><g class="glimages"/><defs id="topdefs-6a7831"><g class="clips"/></defs><g class="layer-above"><g class="imagelayer"/><g class="shapelayer"/></g><g class="infolayer"><g class="g-gtitle"><text class="gtitle" x="15" y="25" text-anchor="start" dy="0em" style="font-family: Ubuntu, verdana, arial, sans-serif; font-size: 16px; fill: rgb(233, 84, 32); opacity: 1; font-weight: normal; white-space: pre;">Sněmovna 2021-2025</text></g><g class="g-xtitle"/><g class="g-ytitle"/></g></svg>