<svg class="main-svg" xmlns="http://www.w3.org/2000/svg" xmlns:xlink="http://www.w3.org/1999/xlink" width="1200" height="600" style="" viewBox="0 0 1200 600"><rect x="0" y="0" width="1200" height="600" style="fill: rgb(255, 255, 255); fill-opacity: 1;"/><defs id="defs-c92a1a"><g class="clips"><clipPath id="clipc92a1axyplot" class="plotclip"><rect width="934" height="530"/></clipPath><clipPath class="axesclip" id="clipc92a1ax"><rect x="50" y="0" width="934" height="600"/></clipPath><clipPath class="axesclip" id="clipc92a1ay"><rect x="0" y="20" width="1200" height="530"/></clipPath><clipPath class="axesclip" id="clipc92a1axy"><rect x="50" y="20" width="934" height="530"/></clipPath></g><g class="gradients"/><g class="patterns"/></defs><g class="bglayer"/><g class="layer-below"><g class="imagelayer"/><g class="shapelayer"/></g><g class="cartesianlayer"><g class="subplot xy"><g class="layer-subplot"><g class="shapelayer"/><g class="imagelayer"/></g><g class="minor-gridlayer"><g class="x"/><g class="y"/></g><g class="gridlayer"><g class="x"><path class="xgrid crisp" transform="translate(78.59,0)" d="M0,20v530" style="stroke: rgb(235, 240, 248); stroke-opacity: 1; stroke-width: 1px;"/><path class="xgrid crisp" transform="translate(226.32,0)" d="M0,20v530" style="stroke: rgb(235, 240, 248); stroke-opacity: 1; stroke-width: 1px;"/><path class="xgrid crisp" transform="translate(374.04,0)" d="M0,20v530" style="stroke: rgb(235, 240, 248); stroke-opacity: 1; stroke-width: 1px;"/><path class="xgrid crisp" transform="translate(512.23,0)" d="M0,20v530" style="stroke: rgb(235, 240, 248); stroke-opacity: 1; stroke-width: 1px;"/><path class="xgrid crisp" transform="translate(659.96,0)" d="M0,20v530" style="stroke: rgb(235, 240, 248); stroke-opacity: 1; stroke-width: 1px;"/><path class="xgrid crisp" transform="translate(802.92,0)" d="M0,20v530" style="stroke: rgb(235, 240, 248); stroke-opacity: 1; stroke-width: 1px;"/><path class="xgrid crisp" transform="translate(950.64,0)" d="M0,20v530" style="stroke: rgb(235, 240, 248); stroke-opacity: 1; stroke-width: 1px;"/></g><g class="y"><path class="ygrid crisp" transform="translate(0,463.46)" d="M50,0h934" style="stroke: rgb(235, 240, 248); stroke-opacity: 1; stroke-width: 1px;"/><path class="ygrid crisp" transform="translate(0,408.33)" d="M50,0h934" style="stroke: rgb(235, 240, 248); stroke-opacity: 1; stroke-width: 1px;"/><path class="ygrid crisp" transform="translate(0,353.2)" d="M50,0h934" style="stroke: rgb(235, 240, 248); stroke-opacity: 1; stroke-width: 1px;"/><path class="ygrid crisp" transform="translate(0,298.07)" d="M50,0h934" style="stroke: rgb(235, 240, 248); stroke-opacity: 1; stroke-width: 1px;"/><path class="ygrid crisp" transform="translate(0,242.94)" d="M50,0h934" style="stroke: rgb(235, 240, 248); stroke-opacity: 1; stroke-width: 1px;"/><path class="ygrid crisp" transform="translate(0,187.81)" d="M50,0h934" style="stroke: rgb(235, 240, 248); stroke-opacity: 1; stroke-width: 1px;"/><path class="ygrid crisp" transform="translate(0,132.68)" d="M50,0h934" style="stroke: rgb(235, 240, 248); stroke-opacity: 1; stroke-width: 1px;"/><path class="ygrid crisp" transform="translate(0,77.55)" d="M50,0h934" style="stroke: rgb(235, 240, 248); stroke-opacity: 1; stroke-width: 1px;"/><path class="ygrid crisp" transform="translate(0,22.42)" d="M50,0h934" style="stroke: rgb(235, 240, 248); stroke-opacity: 1; stroke-width: 1px;"/></g></g><g class="zerolinelayer"><path class="yzl zl crisp" transform="translate(0,518.5899999999999)" d="M50,0h934" style="stroke: rgb(235, 240, 248); stroke-opacity: 1; stroke-width: 2px;"/></g><path class="xlines-below"/><path class="ylines-below"/><g class="overlines-below"/><g class="xaxislayer-below"/><g class="yaxislayer-below"/><g class="overaxes-below"/><g class="plot" transform="translate(50,20)" clip-path="url(#clipc92a1axyplot)"><g class="scatterlayer mlayer"><g class="trace scatter traceb32762" style="stroke-miterlimit: 2; opacity: 1;"><g class="fills"><g><path class="js-fill" d="M0,30.25Q436.04,115.11 500.36,114.09C515.78,113.84 516.79,109.45 528.95,108.36C549.81,106.49 597.83,92.79 614.72,110.01C639.1,134.87 639.1,264.88 614.72,288.8C597.83,305.37 549.88,287.69 528.95,287.16C516.87,286.85 515.7,287.48 500.36,286.26Q435.96,281.14 0,222.29Z" style="fill: rgb(38, 16, 96); fill-opacity: 0.05; stroke-width: 0;"/></g></g><g class="errorbars"/><g class="lines"><path class="js-line" d="M0,30.25Q436.04,115.11 500.36,114.09C515.78,113.84 516.79,109.45 528.95,108.36C549.81,106.49 597.83,92.79 614.72,110.01C639.1,134.87 639.1,264.88 614.72,288.8C597.83,305.37 549.88,287.69 528.95,287.16C516.87,286.85 515.7,287.48 500.36,286.26Q435.96,281.14 0,222.29" style="vector-effect: none; fill: none; stroke: rgb(255, 255, 255); stroke-opacity: 0; stroke-width: 2px; opacity: 1;"/></g><g class="points"><path class="point" transform="translate(0,30.25)" d="M3,0A3,3 0 1,1 0,-3A3,3 0 0,1 3,0Z" style="opacity: 1; stroke-width: 0px; fill: rgb(255, 255, 255); fill-opacity: 0;"/><path class="point" transform="translate(500.36,114.09)" d="M3,0A3,3 0 1,1 0,-3A3,3 0 0,1 3,0Z" style="opacity: 1; stroke-width: 0px; fill: rgb(255, 255, 255); fill-opacity: 0;"/><path class="point" transform="translate(528.95,108.36)" d="M3,0A3,3 0 1,1 0,-3A3,3 0 0,1 3,0Z" style="opacity: 1; stroke-width: 0px; fill: rgb(255, 255, 255); fill-opacity: 0;"/><path class="point" transform="translate(614.72,110.01)" d="M3,0A3,3 0 1,1 0,-3A3,3 0 0,1 3,0Z" style="opacity: 1; stroke-width: 0px; fill: rgb(255, 255, 255); fill-opacity: 0;"/><path class="point" transform="translate(614.72,288.8)" d="M3,0A3,3 0 1,1 0,-3A3,3 0 0,1 3,0Z" style="opacity: 1; stroke-width: 0px; fill: rgb(255, 255, 255); fill-opacity: 0;"/><path class="point" transform="translate(528.95,287.16)" d="M3,0A3,3 0 1,1 0,-3A3,3 0 0,1 3,0Z" style="opacity: 1; stroke-width: 0px; fill: rgb(255, 255, 255); fill-opacity: 0;"/><path class="point" transform="translate(500.36,286.26)" d="M3,0A3,3 0 1,1 0,-3A3,3 0 0,1 3,0Z" style="opacity: 1; stroke-width: 0px; fill: rgb(255, 255, 255); fill-opacity: 0;"/><path class="point" transform="translate(0,222.29)" d="M3,0A3,3 0 1,1 0,-3A3,3 0 0,1 3,0Z" style="opacity: 1; stroke-width: 0px; fill: rgb(255, 255, 255); fill-opacity: 0;"/></g><g class="text"/></g><g class="trace scatter traceda363c" style="stroke-miterlimit: 2; opacity: 1;"><g class="fills"><g><path class="js-fill" d="M0,260.02Q435.94,192.28 500.36,186.58C515.68,185.22 516.87,185.65 528.95,185.7C549.88,185.78 598.24,171.87 614.72,188.99C637.14,212.29 637.14,324.61 614.72,347.92C598.24,365.05 549.81,352.93 528.95,351.26C516.79,350.29 515.82,346.12 500.36,345.51Q436.08,342.98 0,405.71Z" style="fill: rgb(0, 68, 148); fill-opacity: 0.05; stroke-width: 0;"/></g></g><g class="errorbars"/><g class="lines"><path class="js-line" d="M0,260.02Q435.94,192.28 500.36,186.58C515.68,185.22 516.87,185.65 528.95,185.7C549.88,185.78 598.24,171.87 614.72,188.99C637.14,212.29 637.14,324.61 614.72,347.92C598.24,365.05 549.81,352.93 528.95,351.26C516.79,350.29 515.82,346.12 500.36,345.51Q436.08,342.98 0,405.71" style="vector-effect: none; fill: none; stroke: rgb(255, 255, 255); stroke-opacity: 0; stroke-width: 2px; opacity: 1;"/></g><g class="points"><path class="point" transform="translate(0,260.02)" d="M3,0A3,3 0 1,1 0,-3A3,3 0 0,1 3,0Z" style="opacity: 1; stroke-width: 0px; fill: rgb(255, 255, 255); fill-opacity: 0;"/><path class="point" transform="translate(500.36,186.58)" d="M3,0A3,3 0 1,1 0,-3A3,3 0 0,1 3,0Z" style="opacity: 1; stroke-width: 0px; fill: rgb(255, 255, 255); fill-opacity: 0;"/><path class="point" transform="translate(528.95,185.7)" d="M3,0A3,3 0 1,1 0,-3A3,3 0 0,1 3,0Z" style="opacity: 1; stroke-width: 0px; fill: rgb(255, 255, 255); fill-opacity: 0;"/><path class="point" transform="translate(614.72,188.99)" d="M3,0A3,3 0 1,1 0,-3A3,3 0 0,1 3,0Z" style="opacity: 1; stroke-width: 0px; fill: rgb(255, 255, 255); fill-opacity: 0;"/><path class="point" transform="translate(614.72,347.92)" d="M3,0A3,3 0 1,1 0,-3A3,3 0 0,1 3,0Z" style="opacity: 1; stroke-width: 0px; fill: rgb(255, 255, 255); fill-opacity: 0;"/><path class="point" transform="translate(528.95,351.26)" d="M3,0A3,3 0 1,1 0,-3A3,3 0 0,1 3,0Z" style="opacity: 1; stroke-width: 0px; fill: rgb(255, 255, 255); fill-opacity: 0;"/><path class="point" transform="translate(500.36,345.51)" d="M3,0A3,3 0 1,1 0,-3A3,3 0 0,1 3,0Z" style="opacity: 1; stroke-width: 0px; fill: rgb(255, 255, 255); fill-opacity: 0;"/><path class="point" transform="translate(0,405.71)" d="M3,0A3,3 0 1,1 0,-3A3,3 0 0,1 3,0Z" style="opacity: 1; stroke-width: 0px; fill: rgb(255, 255, 255); fill-opacity: 0;"/></g><g class="text"/></g><g class="trace scatter trace60fa02" style="stroke-miterlimit: 2; opacity: 1;"><g class="fills"><g><path class="js-fill" d="M0,367.17Q436,311.95 500.36,311.64C515.74,311.56 516.85,313.6 528.95,314.53C549.87,316.14 599.26,302.8 614.72,319.11C632.94,338.33 632.95,419.64 614.72,438.31C599.25,454.15 549.86,441.16 528.95,440.35C516.85,439.88 515.76,437.79 500.36,437.46Q436.03,436.08 0,466.5Z" style="fill: rgb(206, 15, 104); fill-opacity: 0.05; stroke-width: 0;"/></g></g><g class="errorbars"/><g class="lines"><path class="js-line" d="M0,367.17Q436,311.95 500.36,311.64C515.74,311.56 516.85,313.6 528.95,314.53C549.87,316.14 599.26,302.8 614.72,319.11C632.94,338.33 632.95,419.64 614.72,438.31C599.25,454.15 549.86,441.16 528.95,440.35C516.85,439.88 515.76,437.79 500.36,437.46Q436.03,436.08 0,466.5" style="vector-effect: none; fill: none; stroke: rgb(255, 255, 255); stroke-opacity: 0; stroke-width: 2px; opacity: 1;"/></g><g class="points"><path class="point" transform="translate(0,367.17)" d="M3,0A3,3 0 1,1 0,-3A3,3 0 0,1 3,0Z" style="opacity: 1; stroke-width: 0px; fill: rgb(255, 255, 255); fill-opacity: 0;"/><path class="point" transform="translate(500.36,311.64)" d="M3,0A3,3 0 1,1 0,-3A3,3 0 0,1 3,0Z" style="opacity: 1; stroke-width: 0px; fill: rgb(255, 255, 255); fill-opacity: 0;"/><path class="point" transform="translate(528.95,314.53)" d="M3,0A3,3 0 1,1 0,-3A3,3 0 0,1 3,0Z" style="opacity: 1; stroke-width: 0px; fill: rgb(255, 255, 255); fill-opacity: 0;"/><path class="point" transform="translate(614.72,319.11)" d="M3,0A3,3 0 1,1 0,-3A3,3 0 0,1 3,0Z" style="opacity: 1; stroke-width: 0px; fill: rgb(255, 255, 255); fill-opacity: 0;"/><path class="point" transform="translate(614.72,438.31)" d="M3,0A3,3 0 1,1 0,-3A3,3 0 0,1 3,0Z" style="opacity: 1; stroke-width: 0px; fill: rgb(255, 255, 255); fill-opacity: 0;"/><path class="point" transform="translate(528.95,440.35)" d="M3,0A3,3 0 1,1 0,-3A3,3 0 0,1 3,0Z" style="opacity: 1; stroke-width: 0px; fill: rgb(255, 255, 255); fill-opacity: 0;"/><path class="point" transform="translate(500.36,437.46)" d="M3,0A3,3 0 1,1 0,-3A3,3 0 0,1 3,0Z" style="opacity: 1; stroke-width: 0px; fill: rgb(255, 255, 255); fill-opacity: 0;"/><path class="point" transform="translate(0,466.5)" d="M3,0A3,3 0 1,1 0,-3A3,3 0 0,1 3,0Z" style="opacity: 1; stroke-width: 0px; fill: rgb(255, 255, 255); fill-opacity: 0;"/></g><g class="text"/></g><g class="trace scatter traceed17a7" style="stroke-miterlimit: 2; opacity: 1;"><g class="fills"><g><path class="js-fill" d="M0,306.42Q436.01,314.42 500.36,314.02C515.74,313.92 516.87,313.12 528.95,313.23C549.88,313.41 599.06,300.73 614.72,317.11C633.67,336.94 633.67,424.81 614.72,442.93C599.06,457.89 549.88,439.23 528.95,439.05C516.87,438.94 515.74,439.74 500.36,439.84Q436.01,440.24 0,432.24Z" style="fill: rgb(0, 0, 0); fill-opacity: 0.05; stroke-width: 0;"/></g></g><g class="errorbars"/><g class="lines"><path class="js-line" d="M0,306.42Q436.01,314.42 500.36,314.02C515.74,313.92 516.87,313.12 528.95,313.23C549.88,313.41 599.06,300.73 614.72,317.11C633.67,336.94 633.67,424.81 614.72,442.93C599.06,457.89 549.88,439.23 528.95,439.05C516.87,438.94 515.74,439.74 500.36,439.84Q436.01,440.24 0,432.24" style="vector-effect: none; fill: none; stroke: rgb(255, 255, 255); stroke-opacity: 0; stroke-width: 2px; opacity: 1;"/></g><g class="points"><path class="point" transform="translate(0,306.42)" d="M3,0A3,3 0 1,1 0,-3A3,3 0 0,1 3,0Z" style="opacity: 1; stroke-width: 0px; fill: rgb(255, 255, 255); fill-opacity: 0;"/><path class="point" transform="translate(500.36,314.02)" d="M3,0A3,3 0 1,1 0,-3A3,3 0 0,1 3,0Z" style="opacity: 1; stroke-width: 0px; fill: rgb(255, 255, 255); fill-opacity: 0;"/><path class="point" transform="translate(528.95,313.23)" d="M3,0A3,3 0 1,1 0,-3A3,3 0 0,1 3,0Z" style="opacity: 1; stroke-width: 0px; fill: rgb(255, 255, 255); fill-opacity: 0;"/><path class="point" transform="translate(614.72,317.11)" d="M3,0A3,3 0 1,1 0,-3A3,3 0 0,1 3,0Z" style="opacity: 1; stroke-width: 0px; fill: rgb(255, 255, 255); fill-opacity: 0;"/><path class="point" transform="translate(614.72,442.93)" d="M3,0A3,3 0 1,1 0,-3A3,3 0 0,1 3,0Z" style="opacity: 1; stroke-width: 0px; fill: rgb(255, 255, 255); fill-opacity: 0;"/><path class="point" transform="translate(528.95,439.05)" d="M3,0A3,3 0 1,1 0,-3A3,3 0 0,1 3,0Z" style="opacity: 1; stroke-width: 0px; fill: rgb(255, 255, 255); fill-opacity: 0;"/><path class="point" transform="translate(500.36,439.84)" d="M3,0A3,3 0 1,1 0,-3A3,3 0 0,1 3,0Z" style="opacity: 1; stroke-width: 0px; fill: rgb(255, 255, 255); fill-opacity: 0;"/><path class="point" transform="translate(0,432.24)" d="M3,0A3,3 0 1,1 0,-3A3,3 0 0,1 3,0Z" style="opacity: 1; stroke-width: 0px; fill: rgb(255, 255, 255); fill-opacity: 0;"/></g><g class="text"/></g><g class="trace scatter trace7bd00d" style="stroke-miterlimit: 2; opacity: 1;"><g class="fills"><g><path class="js-fill" d="M0,263.34Q436,332.24 500.36,332.34C515.74,332.36 516.84,329.61 528.95,328.49C549.85,326.56 599.26,309.47 614.72,324.17C632.94,341.49 632.94,424.21 614.72,443.37C599.26,459.63 549.85,445.75 528.95,447.68C516.84,448.8 515.77,451.26 500.36,451.54Q436.03,452.71 0,402.4Z" style="fill: rgb(234, 35, 41); fill-opacity: 0.05; stroke-width: 0;"/></g></g><g class="errorbars"/><g class="lines"><path class="js-line" d="M0,263.34Q436,332.24 500.36,332.34C515.74,332.36 516.84,329.61 528.95,328.49C549.85,326.56 599.26,309.47 614.72,324.17C632.94,341.49 632.94,424.21 614.72,443.37C599.26,459.63 549.85,445.75 528.95,447.68C516.84,448.8 515.77,451.26 500.36,451.54Q436.03,452.71 0,402.4" style="vector-effect: none; fill: none; stroke: rgb(255, 255, 255); stroke-opacity: 0; stroke-width: 2px; opacity: 1;"/></g><g class="points"><path class="point" transform="translate(0,263.34)" d="M3,0A3,3 0 1,1 0,-3A3,3 0 0,1 3,0Z" style="opacity: 1; stroke-width: 0px; fill: rgb(255, 255, 255); fill-opacity: 0;"/><path class="point" transform="translate(500.36,332.34)" d="M3,0A3,3 0 1,1 0,-3A3,3 0 0,1 3,0Z" style="opacity: 1; stroke-width: 0px; fill: rgb(255, 255, 255); fill-opacity: 0;"/><path class="point" transform="translate(528.95,328.49)" d="M3,0A3,3 0 1,1 0,-3A3,3 0 0,1 3,0Z" style="opacity: 1; stroke-width: 0px; fill: rgb(255, 255, 255); fill-opacity: 0;"/><path class="point" transform="translate(614.72,324.17)" d="M3,0A3,3 0 1,1 0,-3A3,3 0 0,1 3,0Z" style="opacity: 1; stroke-width: 0px; fill: rgb(255, 255, 255); fill-opacity: 0;"/><path class="point" transform="translate(614.72,443.37)" d="M3,0A3,3 0 1,1 0,-3A3,3 0 0,1 3,0Z" style="opacity: 1; stroke-width: 0px; fill: rgb(255, 255, 255); fill-opacity: 0;"/><path class="point" transform="translate(528.95,447.68)" d="M3,0A3,3 0 1,1 0,-3A3,3 0 0,1 3,0Z" style="opacity: 1; stroke-width: 0px; fill: rgb(255, 255, 255); fill-opacity: 0;"/><path class="point" transform="translate(500.36,451.54)" d="M3,0A3,3 0 1,1 0,-3A3,3 0 0,1 3,0Z" style="opacity: 1; stroke-width: 0px; fill: rgb(255, 255, 255); fill-opacity: 0;"/><path class="point" transform="translate(0,402.4)" d="M3,0A3,3 0 1,1 0,-3A3,3 0 0,1 3,0Z" style="opacity: 1; stroke-width: 0px; fill: rgb(255, 255, 255); fill-opacity: 0;"/></g><g class="text"/></g><g class="trace scatter trace4ba5ae" style="stroke-miterlimit: 2; opacity: 1;"><g class="fills"><g><path class="js-fill" d="M0,392.57Q436,372.56 500.36,372.3C515.74,372.24 516.86,373.02 528.95,373.23C549.88,373.59 599.9,358.57 614.72,373.42C630.67,389.4 630.67,456.85 614.72,472.76C599.9,487.55 549.88,472.92 528.95,472.56C516.86,472.35 515.74,471.67 500.36,471.63Q436.01,471.46 0,485.28Z" style="fill: rgb(140, 0, 0); fill-opacity: 0.05; stroke-width: 0;"/></g></g><g class="errorbars"/><g class="lines"><path class="js-line" d="M0,392.57Q436,372.56 500.36,372.3C515.74,372.24 516.86,373.02 528.95,373.23C549.88,373.59 599.9,358.57 614.72,373.42C630.67,389.4 630.67,456.85 614.72,472.76C599.9,487.55 549.88,472.92 528.95,472.56C516.86,472.35 515.74,471.67 500.36,471.63Q436.01,471.46 0,485.28" style="vector-effect: none; fill: none; stroke: rgb(255, 255, 255); stroke-opacity: 0; stroke-width: 2px; opacity: 1;"/></g><g class="points"><path class="point" transform="translate(0,392.57)" d="M3,0A3,3 0 1,1 0,-3A3,3 0 0,1 3,0Z" style="opacity: 1; stroke-width: 0px; fill: rgb(255, 255, 255); fill-opacity: 0;"/><path class="point" transform="translate(500.36,372.3)" d="M3,0A3,3 0 1,1 0,-3A3,3 0 0,1 3,0Z" style="opacity: 1; stroke-width: 0px; fill: rgb(255, 255, 255); fill-opacity: 0;"/><path class="point" transform="translate(528.95,373.23)" d="M3,0A3,3 0 1,1 0,-3A3,3 0 0,1 3,0Z" style="opacity: 1; stroke-width: 0px; fill: rgb(255, 255, 255); fill-opacity: 0;"/><path class="point" transform="translate(614.72,373.42)" d="M3,0A3,3 0 1,1 0,-3A3,3 0 0,1 3,0Z" style="opacity: 1; stroke-width: 0px; fill: rgb(255, 255, 255); fill-opacity: 0;"/><path class="point" transform="translate(614.72,472.76)" d="M3,0A3,3 0 1,1 0,-3A3,3 0 0,1 3,0Z" style="opacity: 1; stroke-width: 0px; fill: rgb(255, 255, 255); fill-opacity: 0;"/><path class="point" transform="translate(528.95,472.56)" d="M3,0A3,3 0 1,1 0,-3A3,3 0 0,1 3,0Z" style="opacity: 1; stroke-width: 0px; fill: rgb(255, 255, 255); fill-opacity: 0;"/><path class="point" transform="translate(500.36,471.63)" d="M3,0A3,3 0 1,1 0,-3A3,3 0 0,1 3,0Z" style="opacity: 1; stroke-width: 0px; fill: rgb(255, 255, 255); fill-opacity: 0;"/><path class="point" transform="translate(0,485.28)" d="M3,0A3,3 0 1,1 0,-3A3,3 0 0,1 3,0Z" style="opacity: 1; stroke-width: 0px; fill: rgb(255, 255, 255); fill-opacity: 0;"/></g><g class="text"/></g><g class="trace scatter trace0e656a" style="stroke-miterlimit: 2; opacity: 1;"><g class="fills"><g><path class="js-fill" d="M500.36,400Q516.89,400.8 528.95,400.22C549.9,399.2 600.17,378.11 614.72,391.22C629.81,404.81 629.87,468.36 614.72,483.93C600.15,498.91 549.88,486.1 528.95,486.31Q516.87,486.43 500.36,486.09Z" style="fill: rgb(0, 51, 255); fill-opacity: 0.05; stroke-width: 0;"/></g></g><g class="errorbars"/><g class="lines"><path class="js-line" d="M500.36,400Q516.89,400.8 528.95,400.22C549.9,399.2 600.17,378.11 614.72,391.22C629.81,404.81 629.87,468.36 614.72,483.93C600.15,498.91 549.88,486.1 528.95,486.31Q516.87,486.43 500.36,486.09" style="vector-effect: none; fill: none; stroke: rgb(255, 255, 255); stroke-opacity: 0; stroke-width: 2px; opacity: 1;"/></g><g class="points"><path class="point" transform="translate(500.36,400)" d="M3,0A3,3 0 1,1 0,-3A3,3 0 0,1 3,0Z" style="opacity: 1; stroke-width: 0px; fill: rgb(255, 255, 255); fill-opacity: 0;"/><path class="point" transform="translate(528.95,400.22)" d="M3,0A3,3 0 1,1 0,-3A3,3 0 0,1 3,0Z" style="opacity: 1; stroke-width: 0px; fill: rgb(255, 255, 255); fill-opacity: 0;"/><path class="point" transform="translate(614.72,391.22)" d="M3,0A3,3 0 1,1 0,-3A3,3 0 0,1 3,0Z" style="opacity: 1; stroke-width: 0px; fill: rgb(255, 255, 255); fill-opacity: 0;"/><path class="point" transform="translate(614.72,483.93)" d="M3,0A3,3 0 1,1 0,-3A3,3 0 0,1 3,0Z" style="opacity: 1; stroke-width: 0px; fill: rgb(255, 255, 255); fill-opacity: 0;"/><path class="point" transform="translate(528.95,486.31)" d="M3,0A3,3 0 1,1 0,-3A3,3 0 0,1 3,0Z" style="opacity: 1; stroke-width: 0px; fill: rgb(255, 255, 255); fill-opacity: 0;"/><path class="point" transform="translate(500.36,486.09)" d="M3,0A3,3 0 1,1 0,-3A3,3 0 0,1 3,0Z" style="opacity: 1; stroke-width: 0px; fill: rgb(255, 255, 255); fill-opacity: 0;"/></g><g class="text"/></g><g class="trace scatter traceb9c24f" style="stroke-miterlimit: 2; opacity: 1;"><g class="fills"><g><path class="js-fill" d="M0,419.08Q436.01,430.24 500.36,431.45C515.74,431.74 516.87,432.09 528.95,431.82C549.89,431.36 601.01,413.97 614.72,426.91C627.34,438.83 627.35,487.37 614.72,499.75C601.01,513.19 549.88,498.38 528.95,498.04C516.87,497.84 515.74,497.86 500.36,497.67Q436.01,496.88 0,491.92Z" style="fill: rgb(240, 125, 0); fill-opacity: 0.05; stroke-width: 0;"/></g></g><g class="errorbars"/><g class="lines"><path class="js-line" d="M0,419.08Q436.01,430.24 500.36,431.45C515.74,431.74 516.87,432.09 528.95,431.82C549.89,431.36 601.01,413.97 614.72,426.91C627.34,438.83 627.35,487.37 614.72,499.75C601.01,513.19 549.88,498.38 528.95,498.04C516.87,497.84 515.74,497.86 500.36,497.67Q436.01,496.88 0,491.92" style="vector-effect: none; fill: none; stroke: rgb(255, 255, 255); stroke-opacity: 0; stroke-width: 2px; opacity: 1;"/></g><g class="points"><path class="point" transform="translate(0,419.08)" d="M3,0A3,3 0 1,1 0,-3A3,3 0 0,1 3,0Z" style="opacity: 1; stroke-width: 0px; fill: rgb(255, 255, 255); fill-opacity: 0;"/><path class="point" transform="translate(500.36,431.45)" d="M3,0A3,3 0 1,1 0,-3A3,3 0 0,1 3,0Z" style="opacity: 1; stroke-width: 0px; fill: rgb(255, 255, 255); fill-opacity: 0;"/><path class="point" transform="translate(528.95,431.82)" d="M3,0A3,3 0 1,1 0,-3A3,3 0 0,1 3,0Z" style="opacity: 1; stroke-width: 0px; fill: rgb(255, 255, 255); fill-opacity: 0;"/><path class="point" transform="translate(614.72,426.91)" d="M3,0A3,3 0 1,1 0,-3A3,3 0 0,1 3,0Z" style="opacity: 1; stroke-width: 0px; fill: rgb(255, 255, 255); fill-opacity: 0;"/><path class="point" transform="translate(614.72,499.75)" d="M3,0A3,3 0 1,1 0,-3A3,3 0 0,1 3,0Z" style="opacity: 1; stroke-width: 0px; fill: rgb(255, 255, 255); fill-opacity: 0;"/><path class="point" transform="translate(528.95,498.04)" d="M3,0A3,3 0 1,1 0,-3A3,3 0 0,1 3,0Z" style="opacity: 1; stroke-width: 0px; fill: rgb(255, 255, 255); fill-opacity: 0;"/><path class="point" transform="translate(500.36,497.67)" d="M3,0A3,3 0 1,1 0,-3A3,3 0 0,1 3,0Z" style="opacity: 1; stroke-width: 0px; fill: rgb(255, 255, 255); fill-opacity: 0;"/><path class="point" transform="translate(0,491.92)" d="M3,0A3,3 0 1,1 0,-3A3,3 0 0,1 3,0Z" style="opacity: 1; stroke-width: 0px; fill: rgb(255, 255, 255); fill-opacity: 0;"/></g><g class="text"/></g><g class="trace scatter trace5e7756" style="stroke-miterlimit: 2; opacity: 1;"><g class="fills"/><g class="errorbars"/><g class="lines"><path class="js-line" d="M0,125.91Q435.94,197.22 500.36,201.01C515.68,201.91 516.87,200.42 528.95,200.11Q549.88,199.58 614.72,198.46" style="vector-effect: none; fill: none; stroke: rgb(38, 16, 96); stroke-opacity: 1; stroke-width: 7px; opacity: 1;"/></g><g class="points"/><g class="text"/></g><g class="trace scatter tracec4cfbe" style="stroke-miterlimit: 2; opacity: 1;"><g class="fills"/><g class="errorbars"/><g class="lines"/><g class="points"><path class="point" transform="translate(0,125.91)" d="M7.5,0A7.5,7.5 0 1,1 0,-7.5A7.5,7.5 0 0,1 7.5,0Z" style="opacity: 1; stroke-width: 0px; fill: rgb(38, 16, 96); fill-opacity: 0.25;"/><path class="point" transform="translate(500.36,208.61)" d="M7.5,0A7.5,7.5 0 1,1 0,-7.5A7.5,7.5 0 0,1 7.5,0Z" style="opacity: 1; stroke-width: 0px; fill: rgb(38, 16, 96); fill-opacity: 0.25;"/><path class="point" transform="translate(528.95,197.58)" d="M7.5,0A7.5,7.5 0 1,1 0,-7.5A7.5,7.5 0 0,1 7.5,0Z" style="opacity: 1; stroke-width: 0px; fill: rgb(38, 16, 96); fill-opacity: 0.25;"/><path class="point" transform="translate(614.72,195.38)" d="M7.5,0A7.5,7.5 0 1,1 0,-7.5A7.5,7.5 0 0,1 7.5,0Z" style="opacity: 1; stroke-width: 0px; fill: rgb(38, 16, 96); fill-opacity: 0.25;"/></g><g class="text"/></g><g class="trace scatter trace8a776a" style="stroke-miterlimit: 2; opacity: 1;"><g class="fills"/><g class="errorbars"/><g class="lines"><path class="js-line" d="M0,333.2Q435.96,270.8 500.36,267.58C515.69,266.81 516.87,268.03 528.95,268.45Q549.88,269.18 614.72,271.79" style="vector-effect: none; fill: none; stroke: rgb(0, 68, 148); stroke-opacity: 1; stroke-width: 7px; opacity: 1;"/></g><g class="points"/><g class="text"/></g><g class="trace scatter trace148a40" style="stroke-miterlimit: 2; opacity: 1;"><g class="fills"/><g class="errorbars"/><g class="lines"/><g class="points"><path class="point" transform="translate(0,333.2)" d="M7.5,0A7.5,7.5 0 1,1 0,-7.5A7.5,7.5 0 0,1 7.5,0Z" style="opacity: 1; stroke-width: 0px; fill: rgb(0, 68, 148); fill-opacity: 0.25;"/><path class="point" transform="translate(500.36,260.43)" d="M7.5,0A7.5,7.5 0 1,1 0,-7.5A7.5,7.5 0 0,1 7.5,0Z" style="opacity: 1; stroke-width: 0px; fill: rgb(0, 68, 148); fill-opacity: 0.25;"/><path class="point" transform="translate(528.95,268.15)" d="M7.5,0A7.5,7.5 0 1,1 0,-7.5A7.5,7.5 0 0,1 7.5,0Z" style="opacity: 1; stroke-width: 0px; fill: rgb(0, 68, 148); fill-opacity: 0.25;"/><path class="point" transform="translate(614.72,278.07)" d="M7.5,0A7.5,7.5 0 1,1 0,-7.5A7.5,7.5 0 0,1 7.5,0Z" style="opacity: 1; stroke-width: 0px; fill: rgb(0, 68, 148); fill-opacity: 0.25;"/></g><g class="text"/></g><g class="trace scatter trace9176fc" style="stroke-miterlimit: 2; opacity: 1;"><g class="fills"/><g class="errorbars"/><g class="lines"><path class="js-line" d="M0,418.1Q436.03,372.93 500.36,374.29C515.77,374.62 516.84,377.09 528.95,378.02Q549.85,379.63 614.72,380.07" style="vector-effect: none; fill: none; stroke: rgb(206, 15, 104); stroke-opacity: 1; stroke-width: 7px; opacity: 1;"/></g><g class="points"/><g class="text"/></g><g class="trace scatter traceb04509" style="stroke-miterlimit: 2; opacity: 1;"><g class="fills"/><g class="errorbars"/><g class="lines"/><g class="points"><path class="point" transform="translate(0,418.1)" d="M7.5,0A7.5,7.5 0 1,1 0,-7.5A7.5,7.5 0 0,1 7.5,0Z" style="opacity: 1; stroke-width: 0px; fill: rgb(206, 15, 104); fill-opacity: 0.25;"/><path class="point" transform="translate(500.36,350.84)" d="M7.5,0A7.5,7.5 0 1,1 0,-7.5A7.5,7.5 0 0,1 7.5,0Z" style="opacity: 1; stroke-width: 0px; fill: rgb(206, 15, 104); fill-opacity: 0.25;"/><path class="point" transform="translate(528.95,396.05)" d="M7.5,0A7.5,7.5 0 1,1 0,-7.5A7.5,7.5 0 0,1 7.5,0Z" style="opacity: 1; stroke-width: 0px; fill: rgb(206, 15, 104); fill-opacity: 0.25;"/><path class="point" transform="translate(614.72,383.92)" d="M7.5,0A7.5,7.5 0 1,1 0,-7.5A7.5,7.5 0 0,1 7.5,0Z" style="opacity: 1; stroke-width: 0px; fill: rgb(206, 15, 104); fill-opacity: 0.25;"/></g><g class="text"/></g><g class="trace scatter traceabecbc" style="stroke-miterlimit: 2; opacity: 1;"><g class="fills"/><g class="errorbars"/><g class="lines"><path class="js-line" d="M0,372.89Q436.01,377.28 500.36,378.53C515.74,378.83 516.87,378.96 528.95,379.32Q549.88,379.94 614.72,382.07" style="vector-effect: none; fill: none; stroke: rgb(0, 0, 0); stroke-opacity: 1; stroke-width: 7px; opacity: 1;"/></g><g class="points"/><g class="text"/></g><g class="trace scatter trace3f277b" style="stroke-miterlimit: 2; opacity: 1;"><g class="fills"/><g class="errorbars"/><g class="lines"/><g class="points"><path class="point" transform="translate(0,372.89)" d="M7.5,0A7.5,7.5 0 1,1 0,-7.5A7.5,7.5 0 0,1 7.5,0Z" style="opacity: 1; stroke-width: 0px; fill: rgb(0, 0, 0); fill-opacity: 0.25;"/><path class="point" transform="translate(500.36,373.99)" d="M7.5,0A7.5,7.5 0 1,1 0,-7.5A7.5,7.5 0 0,1 7.5,0Z" style="opacity: 1; stroke-width: 0px; fill: rgb(0, 0, 0); fill-opacity: 0.25;"/><path class="point" transform="translate(528.95,379.51)" d="M7.5,0A7.5,7.5 0 1,1 0,-7.5A7.5,7.5 0 0,1 7.5,0Z" style="opacity: 1; stroke-width: 0px; fill: rgb(0, 0, 0); fill-opacity: 0.25;"/><path class="point" transform="translate(614.72,387.22)" d="M7.5,0A7.5,7.5 0 1,1 0,-7.5A7.5,7.5 0 0,1 7.5,0Z" style="opacity: 1; stroke-width: 0px; fill: rgb(0, 0, 0); fill-opacity: 0.25;"/></g><g class="text"/></g><g class="trace scatter trace1669f1" style="stroke-miterlimit: 2; opacity: 1;"><g class="fills"/><g class="errorbars"/><g class="lines"><path class="js-line" d="M0,336.51Q436,392.78 500.36,393.32C515.73,393.45 516.85,391.31 528.95,390.56Q549.86,389.27 614.72,388.25" style="vector-effect: none; fill: none; stroke: rgb(234, 35, 41); stroke-opacity: 1; stroke-width: 7px; opacity: 1;"/></g><g class="points"/><g class="text"/></g><g class="trace scatter tracee4bdf8" style="stroke-miterlimit: 2; opacity: 1;"><g class="fills"/><g class="errorbars"/><g class="lines"/><g class="points"><path class="point" transform="translate(0,336.51)" d="M7.5,0A7.5,7.5 0 1,1 0,-7.5A7.5,7.5 0 0,1 7.5,0Z" style="opacity: 1; stroke-width: 0px; fill: rgb(234, 35, 41); fill-opacity: 0.25;"/><path class="point" transform="translate(500.36,411.48)" d="M7.5,0A7.5,7.5 0 1,1 0,-7.5A7.5,7.5 0 0,1 7.5,0Z" style="opacity: 1; stroke-width: 0px; fill: rgb(234, 35, 41); fill-opacity: 0.25;"/><path class="point" transform="translate(528.95,378.4)" d="M7.5,0A7.5,7.5 0 1,1 0,-7.5A7.5,7.5 0 0,1 7.5,0Z" style="opacity: 1; stroke-width: 0px; fill: rgb(234, 35, 41); fill-opacity: 0.25;"/><path class="point" transform="translate(614.72,383.92)" d="M7.5,0A7.5,7.5 0 1,1 0,-7.5A7.5,7.5 0 0,1 7.5,0Z" style="opacity: 1; stroke-width: 0px; fill: rgb(234, 35, 41); fill-opacity: 0.25;"/></g><g class="text"/></g><g class="trace scatter trace44a91c" style="stroke-miterlimit: 2; opacity: 1;"><g class="fills"/><g class="errorbars"/><g class="lines"><path class="js-line" d="M0,439.05Q436.01,428.08 500.36,426.21C515.74,425.76 516.86,425.49 528.95,425.28Q549.88,424.92 614.72,425.08" style="vector-effect: none; fill: none; stroke: rgb(140, 0, 0); stroke-opacity: 1; stroke-width: 7px; opacity: 1;"/></g><g class="points"/><g class="text"/></g><g class="trace scatter tracee0dcd1" style="stroke-miterlimit: 2; opacity: 1;"><g class="fills"/><g class="errorbars"/><g class="lines"/><g class="points"><path class="point" transform="translate(0,439.05)" d="M7.5,0A7.5,7.5 0 1,1 0,-7.5A7.5,7.5 0 0,1 7.5,0Z" style="opacity: 1; stroke-width: 0px; fill: rgb(140, 0, 0); fill-opacity: 0.25;"/><path class="point" transform="translate(500.36,431.33)" d="M7.5,0A7.5,7.5 0 1,1 0,-7.5A7.5,7.5 0 0,1 7.5,0Z" style="opacity: 1; stroke-width: 0px; fill: rgb(140, 0, 0); fill-opacity: 0.25;"/><path class="point" transform="translate(528.95,420.3)" d="M7.5,0A7.5,7.5 0 1,1 0,-7.5A7.5,7.5 0 0,1 7.5,0Z" style="opacity: 1; stroke-width: 0px; fill: rgb(140, 0, 0); fill-opacity: 0.25;"/><path class="point" transform="translate(614.72,424.71)" d="M7.5,0A7.5,7.5 0 1,1 0,-7.5A7.5,7.5 0 0,1 7.5,0Z" style="opacity: 1; stroke-width: 0px; fill: rgb(140, 0, 0); fill-opacity: 0.25;"/></g><g class="text"/></g><g class="trace scatter trace541d2a" style="stroke-miterlimit: 2; opacity: 1;"><g class="fills"/><g class="errorbars"/><g class="lines"><path class="js-line" d="M500.36,444.86Q516.87,444.98 528.95,444.64Q549.88,444.04 614.72,440.4" style="vector-effect: none; fill: none; stroke: rgb(0, 51, 255); stroke-opacity: 1; stroke-width: 7px; opacity: 1;"/></g><g class="points"/><g class="text"/></g><g class="trace scatter trace9c14c6" style="stroke-miterlimit: 2; opacity: 1;"><g class="fills"/><g class="errorbars"/><g class="lines"/><g class="points"><path class="point" transform="translate(500.36,444.56)" d="M7.5,0A7.5,7.5 0 1,1 0,-7.5A7.5,7.5 0 0,1 7.5,0Z" style="opacity: 1; stroke-width: 0px; fill: rgb(0, 51, 255); fill-opacity: 0.25;"/><path class="point" transform="translate(528.95,450.07)" d="M7.5,0A7.5,7.5 0 1,1 0,-7.5A7.5,7.5 0 0,1 7.5,0Z" style="opacity: 1; stroke-width: 0px; fill: rgb(0, 51, 255); fill-opacity: 0.25;"/><path class="point" transform="translate(614.72,432.43)" d="M7.5,0A7.5,7.5 0 1,1 0,-7.5A7.5,7.5 0 0,1 7.5,0Z" style="opacity: 1; stroke-width: 0px; fill: rgb(0, 51, 255); fill-opacity: 0.25;"/></g><g class="text"/></g><g class="trace scatter trace8fb287" style="stroke-miterlimit: 2; opacity: 1;"><g class="fills"/><g class="errorbars"/><g class="lines"><path class="js-line" d="M0,458.89Q436.01,466.32 500.36,466.39C515.74,466.41 516.87,466.22 528.95,466.02Q549.88,465.68 614.72,464.31" style="vector-effect: none; fill: none; stroke: rgb(240, 125, 0); stroke-opacity: 1; stroke-width: 7px; opacity: 1;"/></g><g class="points"/><g class="text"/></g><g class="trace scatter trace9cacf5" style="stroke-miterlimit: 2; opacity: 1;"><g class="fills"/><g class="errorbars"/><g class="lines"/><g class="points"><path class="point" transform="translate(0,458.89)" d="M7.5,0A7.5,7.5 0 1,1 0,-7.5A7.5,7.5 0 0,1 7.5,0Z" style="opacity: 1; stroke-width: 0px; fill: rgb(240, 125, 0); fill-opacity: 0.25;"/><path class="point" transform="translate(500.36,468.82)" d="M7.5,0A7.5,7.5 0 1,1 0,-7.5A7.5,7.5 0 0,1 7.5,0Z" style="opacity: 1; stroke-width: 0px; fill: rgb(240, 125, 0); fill-opacity: 0.25;"/><path class="point" transform="translate(528.95,466.61)" d="M7.5,0A7.5,7.5 0 1,1 0,-7.5A7.5,7.5 0 0,1 7.5,0Z" style="opacity: 1; stroke-width: 0px; fill: rgb(240, 125, 0); fill-opacity: 0.25;"/><path class="point" transform="translate(614.72,461.1)" d="M7.5,0A7.5,7.5 0 1,1 0,-7.5A7.5,7.5 0 0,1 7.5,0Z" style="opacity: 1; stroke-width: 0px; fill: rgb(240, 125, 0); fill-opacity: 0.25;"/></g><g class="text"/></g></g></g><g class="overplot"/><path class="xlines-above crisp" d="M0,0" style="fill: none;"/><path class="ylines-above crisp" d="M0,0" style="fill: none;"/><g class="overlines-above"/><g class="xaxislayer-above"><g class="xtick"><text text-anchor="middle" x="0" y="563" transform="translate(78.59,0)" style="font-family: 'Open Sans', verdana, arial, sans-serif; font-size: 12px; fill: rgb(42, 63, 95); fill-opacity: 1; white-space: pre; opacity: 1;">1.12.23</text></g><g class="xtick"><text text-anchor="middle" x="0" y="563" style="font-family: 'Open Sans', verdana, arial, sans-serif; font-size: 12px; fill: rgb(42, 63, 95); fill-opacity: 1; white-space: pre; opacity: 1;" transform="translate(226.32,0)">1.1.24</text></g><g class="xtick"><text text-anchor="middle" x="0" y="563" style="font-family: 'Open Sans', verdana, arial, sans-serif; font-size: 12px; fill: rgb(42, 63, 95); fill-opacity: 1; white-space: pre; opacity: 1;" transform="translate(374.04,0)">1.2.24</text></g><g class="xtick"><text text-anchor="middle" x="0" y="563" style="font-family: 'Open Sans', verdana, arial, sans-serif; font-size: 12px; fill: rgb(42, 63, 95); fill-opacity: 1; white-space: pre; opacity: 1;" transform="translate(512.23,0)">1.3.24</text></g><g class="xtick"><text text-anchor="middle" x="0" y="563" style="font-family: 'Open Sans', verdana, arial, sans-serif; font-size: 12px; fill: rgb(42, 63, 95); fill-opacity: 1; white-space: pre; opacity: 1;" transform="translate(659.96,0)">1.4.24</text></g><g class="xtick"><text text-anchor="middle" x="0" y="563" style="font-family: 'Open Sans', verdana, arial, sans-serif; font-size: 12px; fill: rgb(42, 63, 95); fill-opacity: 1; white-space: pre; opacity: 1;" transform="translate(802.92,0)">1.5.24</text></g><g class="xtick"><text text-anchor="middle" x="0" y="563" style="font-family: 'Open Sans', verdana, arial, sans-serif; font-size: 12px; fill: rgb(42, 63, 95); fill-opacity: 1; white-space: pre; opacity: 1;" transform="translate(950.64,0)">1.6.24</text></g></g><g class="yaxislayer-above"><g class="ytick"><text text-anchor="end" x="49" y="4.199999999999999" transform="translate(0,518.5899999999999)" style="font-family: 'Open Sans', verdana, arial, sans-serif; font-size: 12px; fill: rgb(42, 63, 95); fill-opacity: 1; white-space: pre; opacity: 1;">0%</text></g><g class="ytick"><text text-anchor="end" x="49" y="4.199999999999999" style="font-family: 'Open Sans', verdana, arial, sans-serif; font-size: 12px; fill: rgb(42, 63, 95); fill-opacity: 1; white-space: pre; opacity: 1;" transform="translate(0,463.46)">5%</text></g><g class="ytick"><text text-anchor="end" x="49" y="4.199999999999999" style="font-family: 'Open Sans', verdana, arial, sans-serif; font-size: 12px; fill: rgb(42, 63, 95); fill-opacity: 1; white-space: pre; opacity: 1;" transform="translate(0,408.33)">10%</text></g><g class="ytick"><text text-anchor="end" x="49" y="4.199999999999999" style="font-family: 'Open Sans', verdana, arial, sans-serif; font-size: 12px; fill: rgb(42, 63, 95); fill-opacity: 1; white-space: pre; opacity: 1;" transform="translate(0,353.2)">15%</text></g><g class="ytick"><text text-anchor="end" x="49" y="4.199999999999999" style="font-family: 'Open Sans', verdana, arial, sans-serif; font-size: 12px; fill: rgb(42, 63, 95); fill-opacity: 1; white-space: pre; opacity: 1;" transform="translate(0,298.07)">20%</text></g><g class="ytick"><text text-anchor="end" x="49" y="4.199999999999999" style="font-family: 'Open Sans', verdana, arial, sans-serif; font-size: 12px; fill: rgb(42, 63, 95); fill-opacity: 1; white-space: pre; opacity: 1;" transform="translate(0,242.94)">25%</text></g><g class="ytick"><text text-anchor="end" x="49" y="4.199999999999999" style="font-family: 'Open Sans', verdana, arial, sans-serif; font-size: 12px; fill: rgb(42, 63, 95); fill-opacity: 1; white-space: pre; opacity: 1;" transform="translate(0,187.81)">30%</text></g><g class="ytick"><text text-anchor="end" x="49" y="4.199999999999999" style="font-family: 'Open Sans', verdana, arial, sans-serif; font-size: 12px; fill: rgb(42, 63, 95); fill-opacity: 1; white-space: pre; opacity: 1;" transform="translate(0,132.68)">35%</text></g><g class="ytick"><text text-anchor="end" x="49" y="4.199999999999999" style="font-family: 'Open Sans', verdana, arial, sans-serif; font-size: 12px; fill: rgb(42, 63, 95); fill-opacity: 1; white-space: pre; opacity: 1;" transform="translate(0,77.55)">40%</text></g><g class="ytick"><text text-anchor="end" x="49" y="4.199999999999999" style="font-family: 'Open Sans', verdana, arial, sans-serif; font-size: 12px; fill: rgb(42, 63, 95); fill-opacity: 1; white-space: pre; opacity: 1;" transform="translate(0,22.42)">45%</text></g></g><g class="overaxes-above"/></g></g><g class="polarlayer"/><g class="smithlayer"/><g class="ternarylayer"/><g class="geolayer"/><g class="funnelarealayer"/><g class="pielayer"/><g class="iciclelayer"/><g class="treemaplayer"/><g class="sunburstlayer"/><g class="glimages"/><defs id="topdefs-c92a1a"><g class="clips"/><clipPath id="legendc92a1a"><rect width="185" height="162" x="0" y="0"/></clipPath></defs><g class="layer-above"><g class="imagelayer"/><g class="shapelayer"/></g><g class="infolayer"><g class="legend" pointer-events="all" transform="translate(1002.6800000000001,20)"><rect class="bg" shape-rendering="crispEdges" width="185" height="162" x="0" y="0" style="stroke: rgb(68, 68, 68); stroke-opacity: 1; fill: rgb(255, 255, 255); fill-opacity: 1; stroke-width: 0px;"/><g class="scrollbox" transform="" clip-path="url(#legendc92a1a)"><g class="groups"><g class="traces" transform="translate(0,14.5)" style="opacity: 1;"><text class="legendtext" text-anchor="start" x="40" y="4.680000000000001" style="font-family: 'Open Sans', verdana, arial, sans-serif; font-size: 12px; fill: rgb(42, 63, 95); fill-opacity: 1; white-space: pre;">ANO: 27%</text><g class="layers" style="opacity: 1;"><g class="legendfill"/><g class="legendlines"><path class="js-line" d="M5,0h30" style="fill: none; stroke: rgb(38, 16, 96); stroke-opacity: 1; stroke-width: 7px;"/></g><g class="legendsymbols"><g class="legendpoints"/></g></g><rect class="legendtoggle" x="0" y="-9.5" width="179.984375" height="19" style="fill: rgb(0, 0, 0); fill-opacity: 0;"/></g><g class="traces" transform="translate(0,33.5)" style="opacity: 1;"><text class="legendtext" text-anchor="start" x="40" y="4.680000000000001" style="font-family: 'Open Sans', verdana, arial, sans-serif; font-size: 12px; fill: rgb(42, 63, 95); fill-opacity: 1; white-space: pre;">SPOLU: 21%</text><g class="layers" style="opacity: 1;"><g class="legendfill"/><g class="legendlines"><path class="js-line" d="M5,0h30" style="fill: none; stroke: rgb(0, 68, 148); stroke-opacity: 1; stroke-width: 7px;"/></g><g class="legendsymbols"><g class="legendpoints"/></g></g><rect class="legendtoggle" x="0" y="-9.5" width="179.984375" height="19" style="fill: rgb(0, 0, 0); fill-opacity: 0;"/></g><g class="traces" transform="translate(0,52.5)" style="opacity: 1;"><text class="legendtext" text-anchor="start" x="40" y="4.680000000000001" style="font-family: 'Open Sans', verdana, arial, sans-serif; font-size: 12px; fill: rgb(42, 63, 95); fill-opacity: 1; white-space: pre;">STAN: 11%</text><g class="layers" style="opacity: 1;"><g class="legendfill"/><g class="legendlines"><path class="js-line" d="M5,0h30" style="fill: none; stroke: rgb(206, 15, 104); stroke-opacity: 1; stroke-width: 7px;"/></g><g class="legendsymbols"><g class="legendpoints"/></g></g><rect class="legendtoggle" x="0" y="-9.5" width="179.984375" height="19" style="fill: rgb(0, 0, 0); fill-opacity: 0;"/></g><g class="traces" transform="translate(0,71.5)" style="opacity: 1;"><text class="legendtext" text-anchor="start" x="40" y="4.680000000000001" style="font-family: 'Open Sans', verdana, arial, sans-serif; font-size: 12px; fill: rgb(42, 63, 95); fill-opacity: 1; white-space: pre;">Piráti: 11%</text><g class="layers" style="opacity: 1;"><g class="legendfill"/><g class="legendlines"><path class="js-line" d="M5,0h30" style="fill: none; stroke: rgb(0, 0, 0); stroke-opacity: 1; stroke-width: 7px;"/></g><g class="legendsymbols"><g class="legendpoints"/></g></g><rect class="legendtoggle" x="0" y="-9.5" width="179.984375" height="19" style="fill: rgb(0, 0, 0); fill-opacity: 0;"/></g><g class="traces" transform="translate(0,90.5)" style="opacity: 1;"><text class="legendtext" text-anchor="start" x="40" y="4.680000000000001" style="font-family: 'Open Sans', verdana, arial, sans-serif; font-size: 12px; fill: rgb(42, 63, 95); fill-opacity: 1; white-space: pre;">SPD+Trikolóra: 10%</text><g class="layers" style="opacity: 1;"><g class="legendfill"/><g class="legendlines"><path class="js-line" d="M5,0h30" style="fill: none; stroke: rgb(234, 35, 41); stroke-opacity: 1; stroke-width: 7px;"/></g><g class="legendsymbols"><g class="legendpoints"/></g></g><rect class="legendtoggle" x="0" y="-9.5" width="179.984375" height="19" style="fill: rgb(0, 0, 0); fill-opacity: 0;"/></g><g class="traces" transform="translate(0,109.5)" style="opacity: 1;"><text class="legendtext" text-anchor="start" x="40" y="4.680000000000001" style="font-family: 'Open Sans', verdana, arial, sans-serif; font-size: 12px; fill: rgb(42, 63, 95); fill-opacity: 1; white-space: pre;">Stačilo!: 7%</text><g class="layers" style="opacity: 1;"><g class="legendfill"/><g class="legendlines"><path class="js-line" d="M5,0h30" style="fill: none; stroke: rgb(140, 0, 0); stroke-opacity: 1; stroke-width: 7px;"/></g><g class="legendsymbols"><g class="legendpoints"/></g></g><rect class="legendtoggle" x="0" y="-9.5" width="179.984375" height="19" style="fill: rgb(0, 0, 0); fill-opacity: 0;"/></g><g class="traces" transform="translate(0,128.5)" style="opacity: 1;"><text class="legendtext" text-anchor="start" x="40" y="4.680000000000001" style="font-family: 'Open Sans', verdana, arial, sans-serif; font-size: 12px; fill: rgb(42, 63, 95); fill-opacity: 1; white-space: pre;">Přísaha+Motoristé: 5%</text><g class="layers" style="opacity: 1;"><g class="legendfill"/><g class="legendlines"><path class="js-line" d="M5,0h30" style="fill: none; stroke: rgb(0, 51, 255); stroke-opacity: 1; stroke-width: 7px;"/></g><g class="legendsymbols"><g class="legendpoints"/></g></g><rect class="legendtoggle" x="0" y="-9.5" width="179.984375" height="19" style="fill: rgb(0, 0, 0); fill-opacity: 0;"/></g><g class="traces" transform="translate(0,147.5)" style="opacity: 1;"><text class="legendtext" text-anchor="start" x="40" y="4.680000000000001" style="font-family: 'Open Sans', verdana, arial, sans-serif; font-size: 12px; fill: rgb(42, 63, 95); fill-opacity: 1; white-space: pre;">SOCDEM: 3%</text><g class="layers" style="opacity: 1;"><g class="legendfill"/><g class="legendlines"><path class="js-line" d="M5,0h30" style="fill: none; stroke: rgb(240, 125, 0); stroke-opacity: 1; stroke-width: 7px;"/></g><g class="legendsymbols"><g class="legendpoints"/></g></g><rect class="legendtoggle" x="0" y="-9.5" width="179.984375" height="19" style="fill: rgb(0, 0, 0); fill-opacity: 0;"/></g></g></g><rect class="scrollbar" rx="20" ry="3" width="0" height="0" x="0" y="0" style="fill: rgb(128, 139, 164); fill-opacity: 1;"/></g><g class="g-gtitle"/><g class="g-xtitle"/><g class="g-ytitle"/></g></svg>