<svg class="main-svg" xmlns="http://www.w3.org/2000/svg" xmlns:xlink="http://www.w3.org/1999/xlink" width="300" height="135" style="" viewBox="0 0 300 135"><rect x="0" y="0" width="300" height="135" style="fill: rgb(255, 255, 255); fill-opacity: 1;"/><defs id="defs-3f3a1f"><g class="clips"><clipPath id="clip3f3a1fxyplot" class="plotclip"><rect width="280" height="75"/></clipPath><clipPath class="axesclip" id="clip3f3a1fx"><rect x="10" y="0" width="280" height="135"/></clipPath><clipPath class="axesclip" id="clip3f3a1fy"><rect x="0" y="50" width="300" height="75"/></clipPath><clipPath class="axesclip" id="clip3f3a1fxy"><rect x="10" y="50" width="280" height="75"/></clipPath></g><g class="gradients"/><g class="patterns"/></defs><g class="bglayer"/><g class="layer-below"><g class="imagelayer"/><g class="shapelayer"/></g><g class="cartesianlayer"><g class="subplot xy"><g class="layer-subplot"><g class="shapelayer"/><g class="imagelayer"/></g><g class="minor-gridlayer"><g class="x"/><g class="y"/></g><g class="gridlayer"><g class="x"><path class="xgrid crisp" transform="translate(15.530000000000001,0)" d="M0,50v75" style="stroke: rgb(235, 240, 248); stroke-opacity: 1; stroke-width: 1px;"/><path class="xgrid crisp" transform="translate(70.78999999999999,0)" d="M0,50v75" style="stroke: rgb(235, 240, 248); stroke-opacity: 1; stroke-width: 1px;"/><path class="xgrid crisp" transform="translate(127.89,0)" d="M0,50v75" style="stroke: rgb(235, 240, 248); stroke-opacity: 1; stroke-width: 1px;"/><path class="xgrid crisp" transform="translate(183.16,0)" d="M0,50v75" style="stroke: rgb(235, 240, 248); stroke-opacity: 1; stroke-width: 1px;"/><path class="xgrid crisp" transform="translate(240.26,0)" d="M0,50v75" style="stroke: rgb(235, 240, 248); stroke-opacity: 1; stroke-width: 1px;"/></g><g class="y"><path class="ygrid crisp" transform="translate(0,106.3)" d="M10,0h280" style="stroke: rgb(235, 240, 248); stroke-opacity: 1; stroke-width: 1px;"/><path class="ygrid crisp" transform="translate(0,87.6)" d="M10,0h280" style="stroke: rgb(235, 240, 248); stroke-opacity: 1; stroke-width: 1px;"/><path class="ygrid crisp" transform="translate(0,68.9)" d="M10,0h280" style="stroke: rgb(235, 240, 248); stroke-opacity: 1; stroke-width: 1px;"/></g></g><g class="zerolinelayer"><path class="yzl zl crisp" transform="translate(0,125)" d="M10,0h280" style="stroke: rgb(235, 240, 248); stroke-opacity: 1; stroke-width: 2px;"/></g><path class="xlines-below"/><path class="ylines-below"/><g class="overlines-below"/><g class="xaxislayer-below"/><g class="yaxislayer-below"/><g class="overaxes-below"/><g class="plot" transform="translate(10,50)" clip-path="url(#clip3f3a1fxyplot)"><g class="scatterlayer mlayer"><g class="trace scatter traced1e0ce" style="stroke-miterlimit: 2; opacity: 1;"><g class="fills"/><g class="errorbars"/><g class="lines"><path class="js-line" d="M0,5.62L44.21,6.37L46.05,7.12L57.11,7.12L58.95,8.8L62.63,15.72L64.47,15.72L71.84,16.84L73.68,17.4L79.21,17.96L81.05,17.96L110.53,19.08L112.37,20.21L116.05,20.21L117.89,22.26L119.74,22.26L121.58,24.13L125.26,27.13L127.11,27.5L158.42,27.5L160.26,24.13L162.11,21.33L163.95,22.26L171.32,20.21L173.16,20.21L246.84,19.08L248.68,16.28L252.37,13.85L254.21,13.1L261.58,13.1L263.42,4.69L280,3.75" style="vector-effect: non-scaling-stroke; fill: none; stroke: rgb(99, 110, 250); stroke-opacity: 1; stroke-width: 5px; opacity: 1;"/></g><g class="points"/><g class="text"/></g><g class="trace scatter trace758a97" style="stroke-miterlimit: 2; opacity: 1;"><g class="fills"/><g class="errorbars"/><g class="lines"><path class="js-line" d="M0,30.49L110.53,29.74L112.37,27.5L116.05,27.5L117.89,25.82L119.74,25.82L121.58,21.7L125.26,13.85L127.11,11.79L141.84,11.04L143.68,10.3L158.42,10.3L160.26,11.79L163.95,15.72L165.79,15.72L246.84,16.28L248.68,17.4L254.21,17.96L256.05,17.96L259.74,18.52L261.58,17.96L263.42,23.76L265.26,24.51L270.79,25.07L272.63,25.07L274.47,25.07L276.32,26.38L280,27.5" style="vector-effect: non-scaling-stroke; fill: none; stroke: rgb(239, 85, 59); stroke-opacity: 1; stroke-width: 5px; opacity: 1;"/></g><g class="points"/><g class="text"/></g><g class="trace scatter trace375586" style="stroke-miterlimit: 2; opacity: 1;"><g class="fills"/><g class="errorbars"/><g class="lines"><path class="js-line" d="M0,62.66L58.95,63.22L60.79,64.53L64.47,65.46L66.32,65.46L116.05,65.46L117.89,60.79L123.42,61.35L125.26,62.1L128.95,62.1L130.79,62.1L138.16,61.35L140,60.79L210,60.79L211.84,59.1L215.53,54.62L217.37,54.62L241.32,54.62L243.16,53.12L246.84,52.19L248.68,51.25L250.53,51.25L252.37,49.94L256.05,48.63L257.89,47.7L261.58,45.27L263.42,45.64L280,45.08" style="vector-effect: non-scaling-stroke; fill: none; stroke: rgb(0, 204, 150); stroke-opacity: 1; stroke-width: 5px; opacity: 1;"/></g><g class="points"/><g class="text"/></g><g class="trace scatter traceda4cc0" style="stroke-miterlimit: 2; opacity: 1;"><g class="fills"/><g class="errorbars"/><g class="lines"><path class="js-line" d="M0,68.45L57.11,68.45L58.95,66.02L62.63,64.9L64.47,64.9L71.84,63.97L73.68,63.59L81.05,63.22L82.89,63.22L123.42,63.22L125.26,64.34L130.79,64.9L132.63,64.9L138.16,64.34L140,64.53L160.26,63.22L162.11,64.53L165.79,65.46L167.63,65.46L250.53,66.02L252.37,66.4L265.26,66.58L267.11,65.46L272.63,64.9L274.47,64.9L280,64.9" style="vector-effect: non-scaling-stroke; fill: none; stroke: rgb(171, 99, 250); stroke-opacity: 1; stroke-width: 5px; opacity: 1;"/></g><g class="points"/><g class="text"/></g><g class="trace scatter trace4898d9" style="stroke-miterlimit: 2; opacity: 1;"><g class="fills"/><g class="errorbars"/><g class="lines"><path class="js-line" d="M0,61.35L73.68,61.35L75.53,62.1L210,63.22L211.84,63.59L219.21,63.97L221.05,63.97L259.74,65.09L261.58,65.46L267.11,66.02L268.95,66.02L280,66.02" style="vector-effect: non-scaling-stroke; fill: none; stroke: rgb(255, 161, 90); stroke-opacity: 1; stroke-width: 5px; opacity: 1;"/></g><g class="points"/><g class="text"/></g></g></g><g class="overplot"/><path class="xlines-above crisp" d="M0,0" style="fill: none;"/><path class="ylines-above crisp" d="M0,0" style="fill: none;"/><g class="overlines-above"/><g class="xaxislayer-above"/><g class="yaxislayer-above"/><g class="overaxes-above"/></g></g><g class="polarlayer"/><g class="smithlayer"/><g class="ternarylayer"/><g class="geolayer"/><g class="funnelarealayer"/><g class="pielayer"/><g class="iciclelayer"/><g class="treemaplayer"/><g class="sunburstlayer"/><g class="glimages"/><defs id="topdefs-3f3a1f"><g class="clips"/></defs><g class="layer-above"><g class="imagelayer"/><g class="shapelayer"/></g><g class="infolayer"><g class="g-gtitle"><text class="gtitle" x="15" y="25" text-anchor="start" dy="0em" style="font-family: Ubuntu, verdana, arial, sans-serif; font-size: 16px; fill: rgb(233, 84, 32); opacity: 1; font-weight: normal; white-space: pre;">Prezident/ka ČR 2023</text></g><g class="g-xtitle"/><g class="g-ytitle"/></g></svg>