<svg class="main-svg" xmlns="http://www.w3.org/2000/svg" xmlns:xlink="http://www.w3.org/1999/xlink" width="300" height="135" style="" viewBox="0 0 300 135"><rect x="0" y="0" width="300" height="135" style="fill: rgb(255, 255, 255); fill-opacity: 1;"/><defs id="defs-a52185"><g class="clips"><clipPath id="clipa52185xyplot" class="plotclip"><rect width="280" height="75"/></clipPath><clipPath class="axesclip" id="clipa52185x"><rect x="10" y="0" width="280" height="135"/></clipPath><clipPath class="axesclip" id="clipa52185y"><rect x="0" y="50" width="300" height="75"/></clipPath><clipPath class="axesclip" id="clipa52185xy"><rect x="10" y="50" width="280" height="75"/></clipPath></g><g class="gradients"/><g class="patterns"/></defs><g class="bglayer"/><g class="layer-below"><g class="imagelayer"/><g class="shapelayer"/></g><g class="cartesianlayer"><g class="subplot xy"><g class="layer-subplot"><g class="shapelayer"/><g class="imagelayer"/></g><g class="minor-gridlayer"><g class="x"/><g class="y"/></g><g class="gridlayer"><g class="x"><path class="xgrid crisp" transform="translate(42.54,0)" d="M0,50v75" style="stroke: rgb(235, 240, 248); stroke-opacity: 1; stroke-width: 1px;"/><path class="xgrid crisp" transform="translate(102.68,0)" d="M0,50v75" style="stroke: rgb(235, 240, 248); stroke-opacity: 1; stroke-width: 1px;"/><path class="xgrid crisp" transform="translate(163.8,0)" d="M0,50v75" style="stroke: rgb(235, 240, 248); stroke-opacity: 1; stroke-width: 1px;"/><path class="xgrid crisp" transform="translate(223.94,0)" d="M0,50v75" style="stroke: rgb(235, 240, 248); stroke-opacity: 1; stroke-width: 1px;"/><path class="xgrid crisp" transform="translate(284.08,0)" d="M0,50v75" style="stroke: rgb(235, 240, 248); stroke-opacity: 1; stroke-width: 1px;"/></g><g class="y"><path class="ygrid crisp" transform="translate(0,99.22999999999999)" d="M10,0h280" style="stroke: rgb(235, 240, 248); stroke-opacity: 1; stroke-width: 1px;"/><path class="ygrid crisp" transform="translate(0,73.46000000000001)" d="M10,0h280" style="stroke: rgb(235, 240, 248); stroke-opacity: 1; stroke-width: 1px;"/></g></g><g class="zerolinelayer"><path class="yzl zl crisp" transform="translate(0,125)" d="M10,0h280" style="stroke: rgb(235, 240, 248); stroke-opacity: 1; stroke-width: 2px;"/></g><path class="xlines-below"/><path class="ylines-below"/><g class="overlines-below"/><g class="xaxislayer-below"/><g class="yaxislayer-below"/><g class="overaxes-below"/><g class="plot" transform="translate(10,50)" clip-path="url(#clipa52185xyplot)"><g class="scatterlayer mlayer"><g class="trace scatter tracec6020d" style="stroke-miterlimit: 2; opacity: 1;"><g class="fills"/><g class="errorbars"/><g class="lines"><path class="js-line" d="M0,15.86L23.66,16.63L24.65,17.28L30.56,17.28L31.55,18.7L34.51,24.49L35.49,24.49L41.41,26.56L42.39,26.56L59.15,27.46L60.14,28.36L62.11,28.36L63.1,30.16L64.08,30.16L65.07,31.71L67.04,34.29L68.03,34.67L84.79,34.67L85.77,31.71L86.76,29.26L87.75,30.16L91.69,28.36L92.68,28.36L132.11,27.46L133.1,25.01L136.06,22.3L137.04,22.3L140,22.3L140.99,15.22L185.35,14.44L186.34,15.86L189.3,17.28L190.28,17.28L194.23,17.28L195.21,15.22L197.18,12.9L198.17,12.9L199.15,12.9L200.14,10.45L203.1,3.75L204.08,3.75L205.07,3.75L212.96,11.22L214.93,12.9L216.9,12.9L218.87,11.22L219.86,12.12L221.83,19.98L222.82,17.28L236.62,16.63L237.61,15.22L239.58,14.44L240.56,21.14L244.51,21.14L247.46,26.56L250.42,27.46L251.41,31.32L253.38,34.67L254.37,34.67L256.34,34.67L257.32,33.25L260.28,35.32L261.27,32.48L263.24,28.36L264.23,24.49L272.11,24.49L273.1,22.3L274.08,22.3L275.07,20.5L277.04,18.7L278.03,18.7L280,7.74" style="vector-effect: non-scaling-stroke; fill: none; stroke: rgb(99, 110, 250); stroke-opacity: 1; stroke-width: 5px; opacity: 1;"/></g><g class="points"/><g class="text"/></g><g class="trace scatter trace280007" style="stroke-miterlimit: 2; opacity: 1;"><g class="fills"/><g class="errorbars"/><g class="lines"><path class="js-line" d="M0,64.43L31.55,64.95L32.54,65.98L34.51,66.88L35.49,66.88L62.11,66.88L63.1,62.89L67.04,64.05L68.03,64.43L71.97,64.05L72.96,64.05L76.9,62.89L77.89,62.89L112.39,62.89L113.38,61.6L115.35,57.74L116.34,57.74L129.15,57.74L130.14,56.32L132.11,55.67L133.1,54.77L135.07,53.74L136.06,52.58L138.03,51.68L139.01,50.26L142.96,49.62L143.94,49.49L166.62,50.13L167.61,50.78L170.56,48.07L171.55,48.07L186.34,47.17L187.32,46.14L188.31,46.14L189.3,47.43L191.27,48.07L192.25,46.53L194.23,44.72L195.21,43.95L198.17,43.18L199.15,43.18L200.14,43.56L201.13,41.37L203.1,38.28L204.08,38.28L205.07,38.28L212.96,43.69L214.93,44.72L216.9,44.72L218.87,45.5L219.86,45.11L222.82,40.34L223.8,40.34L236.62,39.31L237.61,38.8L238.59,39.31L239.58,38.28L241.55,35.96L242.54,35.96L244.51,35.96L247.46,30.16L250.42,28.36L251.41,22.95L253.38,15.86L254.37,15.86L256.34,15.86L257.32,17.28L260.28,14.44L261.27,17.28L265.21,24.49L266.2,24.49L272.11,24.49L273.1,26.56L274.08,26.56L275.07,28.36L277.04,30.16L278.03,30.16L280,40.34" style="vector-effect: non-scaling-stroke; fill: none; stroke: rgb(239, 85, 59); stroke-opacity: 1; stroke-width: 5px; opacity: 1;"/></g><g class="points"/><g class="text"/></g><g class="trace scatter trace575b8d" style="stroke-miterlimit: 2; opacity: 1;"><g class="fills"/><g class="errorbars"/><g class="lines"><path class="js-line" d="M0,37.12L59.15,36.48L60.14,34.67L62.11,34.67L63.1,33.25L64.08,33.25L65.07,29.65L68.03,21.14L69.01,21.14L85.77,21.14L86.76,23.46L88.73,24.49L89.72,24.49L132.11,25.01L133.1,26.04L136.06,26.56L137.04,26.56L139.01,27.07L140,26.56L141.97,32.1L142.96,32.48L147.89,33.64L148.87,34.67L150.85,35.32L151.83,35.96L166.62,37.12L167.61,38.28L170.56,44.72L171.55,44.72L182.39,44.72L183.38,46.53L185.35,48.07L186.34,47.69L192.25,50L193.24,50.78L194.23,50.78L195.21,52.97L197.18,54.77L198.17,54.77L200.14,54.77L201.13,57.09L203.1,58.89L204.08,58.89L205.07,58.89L212.96,39.31L214.93,36.48L216.9,36.48L218.87,39.31L219.86,39.31L223.8,40.34L224.79,40.34L239.58,40.34L240.56,35.96L250.42,35.32L251.41,38.54L253.38,42.27L254.37,42.27L262.25,43.18L263.24,43.95L266.2,44.72L267.18,44.72L272.11,44.72L273.1,46.14L278.03,45.5L279.01,48.07L280,48.07" style="vector-effect: non-scaling-stroke; fill: none; stroke: rgb(0, 204, 150); stroke-opacity: 1; stroke-width: 5px; opacity: 1;"/></g><g class="points"/><g class="text"/></g></g></g><g class="overplot"/><path class="xlines-above crisp" d="M0,0" style="fill: none;"/><path class="ylines-above crisp" d="M0,0" style="fill: none;"/><g class="overlines-above"/><g class="xaxislayer-above"/><g class="yaxislayer-above"/><g class="overaxes-above"/></g></g><g class="polarlayer"/><g class="smithlayer"/><g class="ternarylayer"/><g class="geolayer"/><g class="funnelarealayer"/><g class="pielayer"/><g class="iciclelayer"/><g class="treemaplayer"/><g class="sunburstlayer"/><g class="glimages"/><defs id="topdefs-a52185"><g class="clips"/></defs><g class="layer-above"><g class="imagelayer"/><g class="shapelayer"/></g><g class="infolayer"><g class="g-gtitle"><text class="gtitle" x="15" y="25" text-anchor="start" dy="0em" style="font-family: Ubuntu, verdana, arial, sans-serif; font-size: 16px; fill: rgb(233, 84, 32); opacity: 1; font-weight: normal; white-space: pre;">Prezident/ka ČR 2023</text></g><g class="g-xtitle"/><g class="g-ytitle"/></g></svg>