<svg class="main-svg" xmlns="http://www.w3.org/2000/svg" xmlns:xlink="http://www.w3.org/1999/xlink" width="300" height="135" style="" viewBox="0 0 300 135"><rect x="0" y="0" width="300" height="135" style="fill: rgb(255, 255, 255); fill-opacity: 1;"/><defs id="defs-812366"><g class="clips"><clipPath id="clip812366xyplot" class="plotclip"><rect width="280" height="75"/></clipPath><clipPath class="axesclip" id="clip812366x"><rect x="10" y="0" width="280" height="135"/></clipPath><clipPath class="axesclip" id="clip812366y"><rect x="0" y="50" width="300" height="75"/></clipPath><clipPath class="axesclip" id="clip812366xy"><rect x="10" y="50" width="280" height="75"/></clipPath></g><g class="gradients"/><g class="patterns"/></defs><g class="bglayer"/><g class="layer-below"><g class="imagelayer"/><g class="shapelayer"/></g><g class="cartesianlayer"><g class="subplot xy"><g class="layer-subplot"><g class="shapelayer"/><g class="imagelayer"/></g><g class="minor-gridlayer"><g class="x"/><g class="y"/></g><g class="gridlayer"><g class="x"><path class="xgrid crisp" transform="translate(54.64,0)" d="M0,50v75" style="stroke: rgb(235, 240, 248); stroke-opacity: 1; stroke-width: 1px;"/><path class="xgrid crisp" transform="translate(137.15,0)" d="M0,50v75" style="stroke: rgb(235, 240, 248); stroke-opacity: 1; stroke-width: 1px;"/><path class="xgrid crisp" transform="translate(221.01,0)" d="M0,50v75" style="stroke: rgb(235, 240, 248); stroke-opacity: 1; stroke-width: 1px;"/></g><g class="y"><path class="ygrid crisp" transform="translate(0,109.81)" d="M10,0h280" style="stroke: rgb(235, 240, 248); stroke-opacity: 1; stroke-width: 1px;"/><path class="ygrid crisp" transform="translate(0,94.62)" d="M10,0h280" style="stroke: rgb(235, 240, 248); stroke-opacity: 1; stroke-width: 1px;"/><path class="ygrid crisp" transform="translate(0,79.42)" d="M10,0h280" style="stroke: rgb(235, 240, 248); stroke-opacity: 1; stroke-width: 1px;"/><path class="ygrid crisp" transform="translate(0,64.23)" d="M10,0h280" style="stroke: rgb(235, 240, 248); stroke-opacity: 1; stroke-width: 1px;"/></g></g><g class="zerolinelayer"><path class="yzl zl crisp" transform="translate(0,125)" d="M10,0h280" style="stroke: rgb(235, 240, 248); stroke-opacity: 1; stroke-width: 2px;"/></g><path class="xlines-below"/><path class="ylines-below"/><g class="overlines-below"/><g class="xaxislayer-below"/><g class="yaxislayer-below"/><g class="overaxes-below"/><g class="plot" transform="translate(10,50)" clip-path="url(#clip812366xyplot)"><g class="scatterlayer mlayer"><g class="trace scatter trace916128" style="stroke-miterlimit: 2; opacity: 1;"><g class="fills"/><g class="errorbars"/><g class="lines"><path class="js-line" d="M0,15.9L32.46,16.66L33.82,17.27L41.93,17.27L43.29,18.64L45.99,24.56L47.34,24.56L52.75,25.63L54.11,26.08L58.16,26.54L59.52,26.54L81.16,27.45L82.51,28.36L85.22,28.36L86.57,30.18L87.92,30.18L89.28,31.7L91.98,34.29L93.33,34.59L116.33,34.59L117.68,31.7L119.03,29.27L120.39,30.18L125.8,28.36L127.15,28.36L181.26,27.45L182.61,25.02L186.67,22.28L188.02,22.28L192.08,22.28L193.43,15.14L254.3,14.38L255.65,15.9L257,16.66L258.36,15.9L261.06,17.27L262.42,17.27L266.47,17.27L267.83,15.14L270.53,12.87L271.88,12.87L273.24,12.87L274.59,10.43L278.65,3.75L280,3.75" style="vector-effect: non-scaling-stroke; fill: none; stroke: rgb(99, 110, 250); stroke-opacity: 1; stroke-width: 5px; opacity: 1;"/></g><g class="points"/><g class="text"/></g><g class="trace scatter tracecf5e76" style="stroke-miterlimit: 2; opacity: 1;"><g class="fills"/><g class="errorbars"/><g class="lines"><path class="js-line" d="M0,64.52L43.29,64.97L44.64,66.04L47.34,66.95L48.7,66.95L85.22,66.95L86.57,62.85L91.98,64.06L93.33,64.52L97.39,64.06L98.74,64.06L154.2,62.85L155.56,61.48L158.26,57.68L159.61,57.68L177.2,57.68L178.55,56.31L181.26,55.55L182.61,54.79L185.31,53.73L186.67,52.52L189.37,51.76L190.72,50.24L196.14,49.63L197.49,49.48L228.6,50.24L229.95,50.84L234.01,48.11L235.36,48.11L255.65,47.2L257,46.14L258.36,46.14L259.71,47.5L262.42,48.11L263.77,46.44L266.47,44.77L267.83,44.01L270.53,43.1L271.88,43.1L274.59,43.55L275.94,41.43L277.29,38.24L278.65,38.24L280,38.24" style="vector-effect: non-scaling-stroke; fill: none; stroke: rgb(239, 85, 59); stroke-opacity: 1; stroke-width: 5px; opacity: 1;"/></g><g class="points"/><g class="text"/></g><g class="trace scatter tracecf6b64" style="stroke-miterlimit: 2; opacity: 1;"><g class="fills"/><g class="errorbars"/><g class="lines"><path class="js-line" d="M0,37.17L81.16,36.56L82.51,34.59L85.22,34.59L86.57,33.22L87.92,33.22L89.28,29.73L91.98,22.89L93.33,21.22L117.68,21.22L119.03,23.5L121.74,24.56L123.09,24.56L181.26,25.02L182.61,26.08L186.67,26.54L188.02,26.54L190.72,26.99L192.08,26.54L194.78,32.16L196.14,32.46L202.9,33.68L204.25,34.59L206.96,35.35L208.31,35.96L228.6,37.17L229.95,38.24L232.66,44.77L234.01,44.77L250.24,44.77L251.59,46.44L254.3,48.11L255.65,47.65L259.71,48.11L261.06,48.11L267.83,52.97L269.18,54.79L274.59,54.79L275.94,57.07L278.65,58.9L280,58.9" style="vector-effect: non-scaling-stroke; fill: none; stroke: rgb(0, 204, 150); stroke-opacity: 1; stroke-width: 5px; opacity: 1;"/></g><g class="points"/><g class="text"/></g><g class="trace scatter tracebbf286" style="stroke-miterlimit: 2; opacity: 1;"><g class="fills"/><g class="errorbars"/><g class="lines"><path class="js-line" d="M0,73.63L255.65,73.63L257,71.96L259.71,70.9L261.06,69.53L263.77,67.71L265.12,67.4L277.29,67.4L278.65,67.86L280,67.86" style="vector-effect: non-scaling-stroke; fill: none; stroke: rgb(171, 99, 250); stroke-opacity: 1; stroke-width: 5px; opacity: 1;"/></g><g class="points"/><g class="text"/></g><g class="trace scatter trace12f929" style="stroke-miterlimit: 2; opacity: 1;"><g class="fills"/><g class="errorbars"/><g class="lines"><path class="js-line" d="M0,69.53L41.93,69.53L43.29,67.4L45.99,66.34L47.34,66.34L54.11,65.28L55.46,64.97L90.63,64.97L91.98,65.88L96.04,66.34L97.39,66.34L105.51,65.73L106.86,65.73L119.03,66.04L120.39,66.95L183.96,67.4L185.31,67.71L194.78,67.71L196.14,66.95L200.19,66.34L201.55,66.34L227.25,65.28L228.6,62.24L229.95,57.68L231.3,57.68L250.24,57.68L251.59,56.31L254.3,54.79L255.65,54.79L262.42,54.79L263.77,57.68L267.83,61.93L269.18,63.45L273.24,63.45L274.59,65.43L277.29,68.92L278.65,68.92L280,68.92" style="vector-effect: non-scaling-stroke; fill: none; stroke: rgb(255, 161, 90); stroke-opacity: 1; stroke-width: 5px; opacity: 1;"/></g><g class="points"/><g class="text"/></g></g></g><g class="overplot"/><path class="xlines-above crisp" d="M0,0" style="fill: none;"/><path class="ylines-above crisp" d="M0,0" style="fill: none;"/><g class="overlines-above"/><g class="xaxislayer-above"/><g class="yaxislayer-above"/><g class="overaxes-above"/></g></g><g class="polarlayer"/><g class="smithlayer"/><g class="ternarylayer"/><g class="geolayer"/><g class="funnelarealayer"/><g class="pielayer"/><g class="iciclelayer"/><g class="treemaplayer"/><g class="sunburstlayer"/><g class="glimages"/><defs id="topdefs-812366"><g class="clips"/></defs><g class="layer-above"><g class="imagelayer"/><g class="shapelayer"/></g><g class="infolayer"><g class="g-gtitle"><text class="gtitle" x="15" y="25" text-anchor="start" dy="0em" style="font-family: Ubuntu, verdana, arial, sans-serif; font-size: 16px; fill: rgb(233, 84, 32); opacity: 1; font-weight: normal; white-space: pre;">Prezident/ka ČR 2023</text></g><g class="g-xtitle"/><g class="g-ytitle"/></g></svg>