<svg class="main-svg" xmlns="http://www.w3.org/2000/svg" xmlns:xlink="http://www.w3.org/1999/xlink" width="300" height="135" style="" viewBox="0 0 300 135"><rect x="0" y="0" width="300" height="135" style="fill: rgb(255, 255, 255); fill-opacity: 1;"/><defs id="defs-a10607"><g class="clips"><clipPath id="clipa10607xyplot" class="plotclip"><rect width="280" height="75"/></clipPath><clipPath class="axesclip" id="clipa10607x"><rect x="10" y="0" width="280" height="135"/></clipPath><clipPath class="axesclip" id="clipa10607y"><rect x="0" y="50" width="300" height="75"/></clipPath><clipPath class="axesclip" id="clipa10607xy"><rect x="10" y="50" width="280" height="75"/></clipPath></g><g class="gradients"/><g class="patterns"/></defs><g class="bglayer"/><g class="layer-below"><g class="imagelayer"/><g class="shapelayer"/></g><g class="cartesianlayer"><g class="subplot xy"><g class="layer-subplot"><g class="shapelayer"/><g class="imagelayer"/></g><g class="minor-gridlayer"><g class="x"/><g class="y"/></g><g class="gridlayer"><g class="x"><path class="xgrid crisp" transform="translate(43.6,0)" d="M0,50v75" style="stroke: rgb(235, 240, 248); stroke-opacity: 1; stroke-width: 1px;"/><path class="xgrid crisp" transform="translate(105.71,0)" d="M0,50v75" style="stroke: rgb(235, 240, 248); stroke-opacity: 1; stroke-width: 1px;"/><path class="xgrid crisp" transform="translate(168.84,0)" d="M0,50v75" style="stroke: rgb(235, 240, 248); stroke-opacity: 1; stroke-width: 1px;"/><path class="xgrid crisp" transform="translate(230.95,0)" d="M0,50v75" style="stroke: rgb(235, 240, 248); stroke-opacity: 1; stroke-width: 1px;"/></g><g class="y"><path class="ygrid crisp" transform="translate(0,98.75999999999999)" d="M10,0h280" style="stroke: rgb(235, 240, 248); stroke-opacity: 1; stroke-width: 1px;"/><path class="ygrid crisp" transform="translate(0,72.51)" d="M10,0h280" style="stroke: rgb(235, 240, 248); stroke-opacity: 1; stroke-width: 1px;"/></g></g><g class="zerolinelayer"><path class="yzl zl crisp" transform="translate(0,125)" d="M10,0h280" style="stroke: rgb(235, 240, 248); stroke-opacity: 1; stroke-width: 2px;"/></g><path class="xlines-below"/><path class="ylines-below"/><g class="overlines-below"/><g class="xaxislayer-below"/><g class="yaxislayer-below"/><g class="overaxes-below"/><g class="plot" transform="translate(10,50)" clip-path="url(#clipa10607xyplot)"><g class="scatterlayer mlayer"><g class="trace scatter traceda34e9" style="stroke-miterlimit: 2; opacity: 1;"><g class="fills"/><g class="errorbars"/><g class="lines"><path class="js-line" d="M0,64.5L32.58,64.9L33.6,66.08L36.65,66.86L37.67,66.86L64.15,66.86L65.16,62.93L69.24,63.98L70.25,64.5L73.31,63.98L74.33,63.98L116.07,62.93L117.09,61.48L119.13,57.68L120.15,57.68L133.38,57.68L134.4,56.37L136.44,55.58L137.45,54.79L139.49,53.74L140.51,52.56L142.55,51.64L143.56,50.33L146.62,50.07L147.64,49.68L156.8,49.54L157.82,49.54L174.11,49.54L175.13,48.1L192.44,47.18L193.45,46.13L194.47,46.13L195.49,47.44L197.53,48.1L198.55,46.53L200.58,44.69L201.6,43.9L204.65,43.11L205.67,43.11L206.69,43.51L207.71,41.41L209.75,38.26L210.76,38.26L211.78,38.26L219.93,43.64L221.96,44.69L224,44.69L226.04,45.48L227.05,45.08L230.11,40.36L231.13,40.36L244.36,39.44L245.38,38.78L246.4,39.44L247.42,38.26L249.45,35.9L250.47,35.9L252.51,35.9L255.56,30.12L258.62,28.42L259.64,22.91L261.67,15.95L262.69,15.95L264.73,15.95L265.75,17.27L268.8,14.38L269.82,17.27L273.89,24.48L274.91,24.48L280,24.48" style="vector-effect: non-scaling-stroke; fill: none; stroke: rgb(99, 110, 250); stroke-opacity: 1; stroke-width: 5px; opacity: 1;"/></g><g class="points"/><g class="text"/></g><g class="trace scatter trace6d3c54" style="stroke-miterlimit: 2; opacity: 1;"><g class="fills"/><g class="errorbars"/><g class="lines"><path class="js-line" d="M0,15.95L24.44,16.61L25.45,17.27L31.56,17.27L32.58,18.71L35.64,24.48L36.65,24.48L42.76,26.58L43.78,26.58L61.09,27.5L62.11,28.42L64.15,28.42L65.16,30.12L66.18,30.12L67.2,31.7L69.24,34.32L70.25,34.59L87.56,34.59L88.58,31.7L89.6,29.34L90.62,30.12L91.64,29.73L93.67,28.42L94.69,28.42L136.44,27.5L137.45,25.01L140.51,22.38L141.53,22.38L144.58,22.38L145.6,15.17L191.42,14.38L192.44,15.95L196.51,17.27L197.53,17.27L200.58,17.27L201.6,15.17L203.64,12.94L204.65,12.94L205.67,12.94L206.69,10.44L209.75,3.75L210.76,3.75L211.78,3.75L219.93,11.23L224,12.94L225.02,11.23L227.05,12.02L228.07,15.95L229.09,19.89L230.11,17.27L244.36,16.61L245.38,15.17L247.42,14.38L248.44,21.2L252.51,21.2L255.56,26.58L258.62,27.5L259.64,31.31L261.67,34.59L262.69,34.59L264.73,34.59L265.75,33.27L268.8,35.24L269.82,32.49L271.85,28.42L272.87,24.48L280,24.48" style="vector-effect: non-scaling-stroke; fill: none; stroke: rgb(239, 85, 59); stroke-opacity: 1; stroke-width: 5px; opacity: 1;"/></g><g class="points"/><g class="text"/></g><g class="trace scatter tracec55941" style="stroke-miterlimit: 2; opacity: 1;"><g class="fills"/><g class="errorbars"/><g class="lines"><path class="js-line" d="M0,37.21L61.09,36.55L62.11,34.59L64.15,34.59L65.16,33.27L66.18,33.27L67.2,29.73L70.25,21.2L71.27,21.2L78.4,20.55L79.42,19.89L87.56,19.89L88.58,21.2L90.62,24.48L91.64,24.48L136.44,25.01L137.45,26.06L140.51,26.58L141.53,26.58L144.58,26.58L145.6,31.31L148.65,32.49L149.67,32.49L152.73,33.54L153.75,34.59L155.78,35.24L156.8,35.9L171.05,35.9L172.07,37.21L173.09,38.26L174.11,41.8L176.15,44.69L177.16,44.69L188.36,44.69L189.38,46.53L191.42,48.1L192.44,47.58L195.49,48.1L196.51,48.1L199.56,50.73L200.58,50.73L203.64,54.79L204.65,54.79L206.69,54.79L207.71,57.02L209.75,58.86L210.76,58.86L211.78,58.86L219.93,39.44L221.96,36.55L224,36.55L226.04,39.44L227.05,39.44L232.15,40.36L233.16,40.36L247.42,40.36L248.44,35.9L258.62,35.24L259.64,38.52L261.67,42.33L262.69,42.33L270.84,43.11L271.85,43.9L274.91,44.69L275.93,44.69L280,44.69" style="vector-effect: non-scaling-stroke; fill: none; stroke: rgb(0, 204, 150); stroke-opacity: 1; stroke-width: 5px; opacity: 1;"/></g><g class="points"/><g class="text"/></g></g></g><g class="overplot"/><path class="xlines-above crisp" d="M0,0" style="fill: none;"/><path class="ylines-above crisp" d="M0,0" style="fill: none;"/><g class="overlines-above"/><g class="xaxislayer-above"/><g class="yaxislayer-above"/><g class="overaxes-above"/></g></g><g class="polarlayer"/><g class="smithlayer"/><g class="ternarylayer"/><g class="geolayer"/><g class="funnelarealayer"/><g class="pielayer"/><g class="iciclelayer"/><g class="treemaplayer"/><g class="sunburstlayer"/><g class="glimages"/><defs id="topdefs-a10607"><g class="clips"/></defs><g class="layer-above"><g class="imagelayer"/><g class="shapelayer"/></g><g class="infolayer"><g class="g-gtitle"><text class="gtitle" x="15" y="25" text-anchor="start" dy="0em" style="font-family: Ubuntu, verdana, arial, sans-serif; font-size: 16px; fill: rgb(233, 84, 32); opacity: 1; font-weight: normal; white-space: pre;">Prezident/ka ČR 2023</text></g><g class="g-xtitle"/><g class="g-ytitle"/></g></svg>