<svg class="main-svg" xmlns="http://www.w3.org/2000/svg" xmlns:xlink="http://www.w3.org/1999/xlink" width="300" height="135" style="" viewBox="0 0 300 135"><rect x="0" y="0" width="300" height="135" style="fill: rgb(255, 255, 255); fill-opacity: 1;"/><defs id="defs-fb395f"><g class="clips"><clipPath id="clipfb395fxyplot" class="plotclip"><rect width="280" height="75"/></clipPath><clipPath class="axesclip" id="clipfb395fx"><rect x="10" y="0" width="280" height="135"/></clipPath><clipPath class="axesclip" id="clipfb395fy"><rect x="0" y="50" width="300" height="75"/></clipPath><clipPath class="axesclip" id="clipfb395fxy"><rect x="10" y="50" width="280" height="75"/></clipPath></g><g class="gradients"/><g class="patterns"/></defs><g class="bglayer"/><g class="layer-below"><g class="imagelayer"/><g class="shapelayer"/></g><g class="cartesianlayer"><g class="subplot xy"><g class="layer-subplot"><g class="shapelayer"/><g class="imagelayer"/></g><g class="minor-gridlayer"><g class="x"/><g class="y"/></g><g class="gridlayer"><g class="x"><path class="xgrid crisp" transform="translate(67.39,0)" d="M0,50v75" style="stroke: rgb(235, 240, 248); stroke-opacity: 1; stroke-width: 1px;"/><path class="xgrid crisp" transform="translate(173.48,0)" d="M0,50v75" style="stroke: rgb(235, 240, 248); stroke-opacity: 1; stroke-width: 1px;"/><path class="xgrid crisp" transform="translate(281.3,0)" d="M0,50v75" style="stroke: rgb(235, 240, 248); stroke-opacity: 1; stroke-width: 1px;"/></g><g class="y"><path class="ygrid crisp" transform="translate(0,106.35)" d="M10,0h280" style="stroke: rgb(235, 240, 248); stroke-opacity: 1; stroke-width: 1px;"/><path class="ygrid crisp" transform="translate(0,87.7)" d="M10,0h280" style="stroke: rgb(235, 240, 248); stroke-opacity: 1; stroke-width: 1px;"/><path class="ygrid crisp" transform="translate(0,69.03999999999999)" d="M10,0h280" style="stroke: rgb(235, 240, 248); stroke-opacity: 1; stroke-width: 1px;"/></g></g><g class="zerolinelayer"><path class="yzl zl crisp" transform="translate(0,125)" d="M10,0h280" style="stroke: rgb(235, 240, 248); stroke-opacity: 1; stroke-width: 2px;"/></g><path class="xlines-below"/><path class="ylines-below"/><g class="overlines-below"/><g class="xaxislayer-below"/><g class="yaxislayer-below"/><g class="overaxes-below"/><g class="plot" transform="translate(10,50)" clip-path="url(#clipfb395fxyplot)"><g class="scatterlayer mlayer"><g class="trace scatter trace0a8ebc" style="stroke-miterlimit: 2; opacity: 1;"><g class="fills"/><g class="errorbars"/><g class="lines"><path class="js-line" d="M0,5.43L41.74,6.36L43.48,7.11L53.91,7.11L55.65,8.79L59.13,15.69L60.87,15.69L67.83,16.81L69.57,17.37L74.78,17.93L76.52,17.93L104.35,19.04L106.09,20.16L109.57,20.16L111.3,22.22L113.04,22.22L114.78,24.08L118.26,27.06L120,27.44L149.57,27.44L151.3,24.08L153.04,21.28L154.78,22.22L161.74,20.16L163.48,20.16L233.04,19.04L234.78,16.25L238.26,13.64L240,13.08L246.96,13.08L248.7,4.68L280,3.75" style="vector-effect: non-scaling-stroke; fill: none; stroke: rgb(99, 110, 250); stroke-opacity: 1; stroke-width: 5px; opacity: 1;"/></g><g class="points"/><g class="text"/></g><g class="trace scatter trace469afe" style="stroke-miterlimit: 2; opacity: 1;"><g class="fills"/><g class="errorbars"/><g class="lines"><path class="js-line" d="M0,30.42L104.35,29.86L106.09,27.44L109.57,27.44L111.3,25.95L113.04,25.95L114.78,21.66L118.26,13.64L120,11.77L133.91,11.02L135.65,10.28L149.57,10.28L151.3,11.77L154.78,15.69L156.52,15.69L233.04,16.25L234.78,17.37L240,17.93L241.74,17.93L245.22,18.67L246.96,17.93L248.7,23.71L250.43,24.64L257.39,25.01L259.13,25.01L264.35,27.44L266.09,28.37L269.57,29.12L271.3,29.12L280,29.12" style="vector-effect: non-scaling-stroke; fill: none; stroke: rgb(239, 85, 59); stroke-opacity: 1; stroke-width: 5px; opacity: 1;"/></g><g class="points"/><g class="text"/></g><g class="trace scatter traceb23d55" style="stroke-miterlimit: 2; opacity: 1;"><g class="fills"/><g class="errorbars"/><g class="lines"><path class="js-line" d="M0,62.69L55.65,63.06L57.39,64.37L60.87,65.49L62.61,65.49L109.57,65.49L111.3,60.82L116.52,61.38L118.26,62.13L121.74,62.13L123.48,62.13L130.43,61.38L132.17,60.82L198.26,60.82L200,59.15L203.48,54.67L205.22,54.67L227.83,54.67L229.57,52.99L233.04,52.24L234.78,51.31L236.52,51.31L238.26,50.01L245.22,45.9L246.96,45.34L250.43,45.72L252.17,45.16L264.35,44.97L266.09,44.97L280,44.97" style="vector-effect: non-scaling-stroke; fill: none; stroke: rgb(0, 204, 150); stroke-opacity: 1; stroke-width: 5px; opacity: 1;"/></g><g class="points"/><g class="text"/></g><g class="trace scatter tracebbb68a" style="stroke-miterlimit: 2; opacity: 1;"><g class="fills"/><g class="errorbars"/><g class="lines"><path class="js-line" d="M0,68.47L53.91,68.47L55.65,66.05L59.13,64.74L60.87,64.74L69.57,63.62L71.3,63.06L116.52,63.06L118.26,64.18L123.48,64.74L125.22,64.74L132.17,64.37L133.91,64.18L151.3,63.06L153.04,64.37L156.52,65.49L158.26,65.49L200,65.49L201.74,66.05L250.43,66.42L252.17,65.49L255.65,64.74L257.39,64.74L280,64.74" style="vector-effect: non-scaling-stroke; fill: none; stroke: rgb(171, 99, 250); stroke-opacity: 1; stroke-width: 5px; opacity: 1;"/></g><g class="points"/><g class="text"/></g><g class="trace scatter trace87d082" style="stroke-miterlimit: 2; opacity: 1;"><g class="fills"/><g class="errorbars"/><g class="lines"><path class="js-line" d="M0,61.38L69.57,61.38L71.3,62.13L198.26,63.06L200,63.62L206.96,64L208.7,64L245.22,65.11L246.96,65.49L252.17,66.05L253.91,66.05L280,66.05" style="vector-effect: non-scaling-stroke; fill: none; stroke: rgb(255, 161, 90); stroke-opacity: 1; stroke-width: 5px; opacity: 1;"/></g><g class="points"/><g class="text"/></g></g></g><g class="overplot"/><path class="xlines-above crisp" d="M0,0" style="fill: none;"/><path class="ylines-above crisp" d="M0,0" style="fill: none;"/><g class="overlines-above"/><g class="xaxislayer-above"/><g class="yaxislayer-above"/><g class="overaxes-above"/></g></g><g class="polarlayer"/><g class="smithlayer"/><g class="ternarylayer"/><g class="geolayer"/><g class="funnelarealayer"/><g class="pielayer"/><g class="iciclelayer"/><g class="treemaplayer"/><g class="sunburstlayer"/><g class="glimages"/><defs id="topdefs-fb395f"><g class="clips"/></defs><g class="layer-above"><g class="imagelayer"/><g class="shapelayer"/></g><g class="infolayer"><g class="g-gtitle"><text class="gtitle" x="15" y="25" text-anchor="start" dy="0em" style="font-family: Ubuntu, verdana, arial, sans-serif; font-size: 16px; fill: rgb(233, 84, 32); opacity: 1; font-weight: normal; white-space: pre;">Prezident/ka ČR 2023</text></g><g class="g-xtitle"/><g class="g-ytitle"/></g></svg>