<svg class="main-svg" xmlns="http://www.w3.org/2000/svg" xmlns:xlink="http://www.w3.org/1999/xlink" width="400" height="400" style="" viewBox="0 0 400 400"><rect x="0" y="0" width="400" height="400" style="fill: rgb(255, 255, 255); fill-opacity: 1;"/><defs id="defs-9f5184"><g class="clips"><clipPath id="clip9f5184xyplot" class="plotclip"><rect width="191" height="330"/></clipPath><clipPath class="axesclip" id="clip9f5184x"><rect x="50" y="0" width="191" height="400"/></clipPath><clipPath class="axesclip" id="clip9f5184y"><rect x="0" y="20" width="400" height="330"/></clipPath><clipPath class="axesclip" id="clip9f5184xy"><rect x="50" y="20" width="191" height="330"/></clipPath></g><g class="gradients"/><g class="patterns"/></defs><g class="bglayer"/><g class="layer-below"><g class="imagelayer"/><g class="shapelayer"/></g><g class="cartesianlayer"><g class="subplot xy"><g class="layer-subplot"><g class="shapelayer"/><g class="imagelayer"/></g><g class="minor-gridlayer"><g class="x"/><g class="y"/></g><g class="gridlayer"><g class="x"><path class="xgrid crisp" transform="translate(71.73,0)" d="M0,20v330" style="stroke: rgb(235, 240, 248); stroke-opacity: 1; stroke-width: 1px;"/><path class="xgrid crisp" transform="translate(111.91,0)" d="M0,20v330" style="stroke: rgb(235, 240, 248); stroke-opacity: 1; stroke-width: 1px;"/><path class="xgrid crisp" transform="translate(152.74,0)" d="M0,20v330" style="stroke: rgb(235, 240, 248); stroke-opacity: 1; stroke-width: 1px;"/><path class="xgrid crisp" transform="translate(192.92,0)" d="M0,20v330" style="stroke: rgb(235, 240, 248); stroke-opacity: 1; stroke-width: 1px;"/><path class="xgrid crisp" transform="translate(233.1,0)" d="M0,20v330" style="stroke: rgb(235, 240, 248); stroke-opacity: 1; stroke-width: 1px;"/></g><g class="y"><path class="ygrid crisp" transform="translate(0,293.31)" d="M50,0h191" style="stroke: rgb(235, 240, 248); stroke-opacity: 1; stroke-width: 1px;"/><path class="ygrid crisp" transform="translate(0,236.62)" d="M50,0h191" style="stroke: rgb(235, 240, 248); stroke-opacity: 1; stroke-width: 1px;"/><path class="ygrid crisp" transform="translate(0,179.93)" d="M50,0h191" style="stroke: rgb(235, 240, 248); stroke-opacity: 1; stroke-width: 1px;"/><path class="ygrid crisp" transform="translate(0,123.24)" d="M50,0h191" style="stroke: rgb(235, 240, 248); stroke-opacity: 1; stroke-width: 1px;"/><path class="ygrid crisp" transform="translate(0,66.55)" d="M50,0h191" style="stroke: rgb(235, 240, 248); stroke-opacity: 1; stroke-width: 1px;"/></g></g><g class="zerolinelayer"><path class="yzl zl crisp" transform="translate(0,350)" d="M50,0h191" style="stroke: rgb(235, 240, 248); stroke-opacity: 1; stroke-width: 2px;"/></g><path class="xlines-below"/><path class="ylines-below"/><g class="overlines-below"/><g class="xaxislayer-below"/><g class="yaxislayer-below"/><g class="overaxes-below"/><g class="plot" transform="translate(50,20)" clip-path="url(#clip9f5184xyplot)"><g class="scatterlayer mlayer"><g class="trace scatter trace9eedb0" style="stroke-miterlimit: 2; opacity: 1;"><g class="fills"/><g class="errorbars"/><g class="lines"><path class="js-line" d="M0,69.79L15.15,69.79L15.81,73.19L17.12,76.03L17.78,76.03L20.42,76.03L21.08,82.26L23.05,107.77L23.71,107.77L27,116.84L27.66,116.84L30.96,116.84L31.61,119.11L33.59,120.81L34.25,120.81L39.52,120.81L40.18,124.78L41.49,124.78L42.15,132.72L42.81,132.72L43.47,139.52L45.44,152.56L46.1,152.56L56.64,152.56L57.3,139.52L57.96,128.75L58.62,132.72L59.28,130.45L60.59,124.78L61.25,124.78L64.54,124.78L65.2,123.08L66.52,120.81L67.18,120.81L75.74,120.81L76.4,123.08L78.38,124.78L79.03,124.78L87.6,124.78L88.26,120.81L90.23,100.97L90.89,98.13L93.52,98.13L94.18,66.95L94.84,66.95L95.5,63.55L123.82,63.55L124.48,69.79L125.14,73.19L125.8,69.79L127.11,76.03L127.77,76.03L129.75,76.03L130.41,66.95L131.72,56.75L132.38,56.75L133.04,56.75L133.7,45.98L136.33,16.5L136.99,16.5L143.58,56.75L144.9,56.75L146.21,49.38L146.87,53.35L148.19,87.93L148.85,76.03L149.51,76.03L157.41,76.03L158.07,73.19L160.04,63.55L160.7,93.03L163.34,93.03L165.31,116.84L167.29,120.81L167.95,137.82L169.27,152.56L169.92,152.56L171.24,152.56L171.9,146.32L173.88,155.39L174.53,142.92L175.85,124.78L176.51,107.77L181.78,107.77L182.44,98.13L183.1,98.13L183.76,90.2L185.07,82.26L185.73,82.26L187.05,34.07" style="vector-effect: non-scaling-stroke; fill: none; stroke: rgb(99, 110, 250); stroke-opacity: 1; stroke-width: 5px; opacity: 1;"/></g><g class="points"/><g class="text"/></g><g class="trace scatter tracee78ca3" style="stroke-miterlimit: 2; opacity: 1;"><g class="fills"/><g class="errorbars"/><g class="lines"><path class="js-line" d="M0,283.51L3.29,283.51L3.95,285.78L21.08,285.78L21.73,290.32L23.05,294.28L23.71,294.28L41.49,294.28L42.15,276.71L43.47,277.84L44.13,278.98L45.44,283.51L46.1,281.81L48.74,281.81L49.4,278.98L50.71,276.71L51.37,276.71L75.08,276.71L75.74,271.04L77.72,254.03L78.38,254.03L86.28,254.03L86.94,247.8L87.6,247.8L88.26,244.96L93.52,218.89L94.18,220.02L94.84,220.02L95.5,218.32L97.48,217.75L98.13,217.75L110.65,217.75L111.31,220.59L111.97,223.42L112.62,217.75L113.94,211.52L114.6,211.52L123.82,211.52L124.48,207.55L125.8,203.01L126.46,208.68L127.77,211.52L128.43,204.71L130.41,193.38L131.07,189.97L133.04,189.97L133.7,191.67L135.68,168.43L136.33,168.43L136.99,168.43L142.26,192.24L143.58,196.78L144.9,196.78L146.21,200.18L146.87,198.48L148.85,177.5L149.51,177.5L152.8,177.5L153.46,175.23L157.41,174.1L158.07,172.97L158.73,170.7L159.39,172.97L161.36,158.23L162.02,158.23L163.34,158.23L165.31,132.72L167.29,124.78L167.95,100.97L169.27,69.79L169.92,69.79L171.24,69.79L171.9,76.03L173.88,63.55L174.53,76.03L177.17,107.77L177.83,107.77L181.78,107.77L182.44,116.84L183.1,116.84L183.76,124.78L185.07,132.72L185.73,132.72L187.05,177.5" style="vector-effect: non-scaling-stroke; fill: none; stroke: rgb(239, 85, 59); stroke-opacity: 1; stroke-width: 5px; opacity: 1;"/></g><g class="points"/><g class="text"/></g><g class="trace scatter traced0dbd4" style="stroke-miterlimit: 2; opacity: 1;"><g class="fills"/><g class="errorbars"/><g class="lines"><path class="js-line" d="M0,163.33L15.81,162.2L16.47,160.49L39.52,160.49L40.18,152.56L41.49,152.56L42.15,146.32L42.81,146.32L43.47,130.45L45.44,93.03L46.1,93.03L50.06,93.03L50.71,90.2L52.03,87.93L52.69,87.93L56.64,87.93L57.3,93.03L59.28,107.77L59.93,107.77L87.6,107.77L88.26,110.04L90.23,116.84L90.89,116.84L91.55,116.84L92.21,119.11L92.87,119.11L93.52,116.84L95.5,142.92L96.16,142.92L98.13,142.92L98.79,148.02L101.43,158.23L102.09,158.23L110.65,158.23L111.31,163.33L111.97,168.43L112.62,183.74L113.94,196.78L114.6,196.78L121.84,196.78L122.5,204.71L123.82,211.52L124.48,209.82L126.46,211.52L127.11,211.52L131.72,241L132.38,241L133.7,241L134.36,251.2L135.68,259.14L136.33,259.14L136.99,259.14L142.26,172.97L143.58,160.49L144.9,160.49L146.21,172.97L146.87,172.97L148.85,177.5L149.51,177.5L152.8,177.5L153.46,179.77L158.73,179.77L159.39,177.5L160.04,177.5L160.7,158.23L163.34,158.23L165.31,155.39L167.29,155.39L167.95,169.57L169.27,186.01L169.92,186.01L172.56,186.01L173.22,189.97L175.19,189.97L175.85,193.38L177.17,196.78L177.83,196.78L181.78,196.78L182.44,203.01L183.1,203.01L183.76,201.31L185.73,200.18L186.39,211.52L187.05,211.52" style="vector-effect: non-scaling-stroke; fill: none; stroke: rgb(0, 204, 150); stroke-opacity: 1; stroke-width: 5px; opacity: 1;"/></g><g class="points"/><g class="text"/></g></g></g><g class="overplot"/><path class="xlines-above crisp" d="M0,0" style="fill: none;"/><path class="ylines-above crisp" d="M0,0" style="fill: none;"/><g class="overlines-above"/><g class="xaxislayer-above"><g class="xtick"><text text-anchor="middle" x="0" y="363" transform="translate(71.73,0)" style="font-family: 'Open Sans', verdana, arial, sans-serif; font-size: 12px; fill: rgb(42, 63, 95); fill-opacity: 1; white-space: pre; opacity: 1;">1.5.22</text></g><g class="xtick"><text text-anchor="middle" x="0" y="363" style="font-family: 'Open Sans', verdana, arial, sans-serif; font-size: 12px; fill: rgb(42, 63, 95); fill-opacity: 1; white-space: pre; opacity: 1;" transform="translate(111.91,0)">1.7.22</text></g><g class="xtick"><text text-anchor="middle" x="0" y="363" style="font-family: 'Open Sans', verdana, arial, sans-serif; font-size: 12px; fill: rgb(42, 63, 95); fill-opacity: 1; white-space: pre; opacity: 1;" transform="translate(152.74,0)">1.9.22</text></g><g class="xtick"><text text-anchor="middle" x="0" y="363" style="font-family: 'Open Sans', verdana, arial, sans-serif; font-size: 12px; fill: rgb(42, 63, 95); fill-opacity: 1; white-space: pre; opacity: 1;" transform="translate(192.92,0)">1.11.22</text></g><g class="xtick"><text text-anchor="middle" x="0" y="363" style="font-family: 'Open Sans', verdana, arial, sans-serif; font-size: 12px; fill: rgb(42, 63, 95); fill-opacity: 1; white-space: pre; opacity: 1;" transform="translate(233.1,0)">1.1.23</text></g></g><g class="yaxislayer-above"><g class="ytick"><text text-anchor="end" x="49" y="4.199999999999999" transform="translate(0,350)" style="font-family: 'Open Sans', verdana, arial, sans-serif; font-size: 12px; fill: rgb(42, 63, 95); fill-opacity: 1; white-space: pre; opacity: 1;">0%</text></g><g class="ytick"><text text-anchor="end" x="49" y="4.199999999999999" style="font-family: 'Open Sans', verdana, arial, sans-serif; font-size: 12px; fill: rgb(42, 63, 95); fill-opacity: 1; white-space: pre; opacity: 1;" transform="translate(0,293.31)">10%</text></g><g class="ytick"><text text-anchor="end" x="49" y="4.199999999999999" style="font-family: 'Open Sans', verdana, arial, sans-serif; font-size: 12px; fill: rgb(42, 63, 95); fill-opacity: 1; white-space: pre; opacity: 1;" transform="translate(0,236.62)">20%</text></g><g class="ytick"><text text-anchor="end" x="49" y="4.199999999999999" style="font-family: 'Open Sans', verdana, arial, sans-serif; font-size: 12px; fill: rgb(42, 63, 95); fill-opacity: 1; white-space: pre; opacity: 1;" transform="translate(0,179.93)">30%</text></g><g class="ytick"><text text-anchor="end" x="49" y="4.199999999999999" style="font-family: 'Open Sans', verdana, arial, sans-serif; font-size: 12px; fill: rgb(42, 63, 95); fill-opacity: 1; white-space: pre; opacity: 1;" transform="translate(0,123.24)">40%</text></g><g class="ytick"><text text-anchor="end" x="49" y="4.199999999999999" style="font-family: 'Open Sans', verdana, arial, sans-serif; font-size: 12px; fill: rgb(42, 63, 95); fill-opacity: 1; white-space: pre; opacity: 1;" transform="translate(0,66.55)">50%</text></g></g><g class="overaxes-above"/></g></g><g class="polarlayer"/><g class="smithlayer"/><g class="ternarylayer"/><g class="geolayer"/><g class="funnelarealayer"/><g class="pielayer"/><g class="iciclelayer"/><g class="treemaplayer"/><g class="sunburstlayer"/><g class="glimages"/><defs id="topdefs-9f5184"><g class="clips"/><clipPath id="legend9f5184"><rect width="143" height="67" x="0" y="0"/></clipPath></defs><g class="layer-above"><g class="imagelayer"/><g class="shapelayer"/></g><g class="infolayer"><g class="legend" pointer-events="all" transform="translate(244.82,20)"><rect class="bg" shape-rendering="crispEdges" width="143" height="67" x="0" y="0" style="stroke: rgb(68, 68, 68); stroke-opacity: 1; fill: rgb(255, 255, 255); fill-opacity: 1; stroke-width: 0px;"/><g class="scrollbox" transform="" clip-path="url(#legend9f5184)"><g class="groups"><g class="traces" transform="translate(0,14.5)" style="opacity: 1;"><text class="legendtext" text-anchor="start" x="40" y="4.680000000000001" style="font-family: 'Open Sans', verdana, arial, sans-serif; font-size: 12px; fill: rgb(42, 63, 95); fill-opacity: 1; white-space: pre;">Pavel Petr</text><g class="layers" style="opacity: 1;"><g class="legendfill"/><g class="legendlines"><path class="js-line" d="M5,0h30" style="fill: none; stroke: rgb(99, 110, 250); stroke-opacity: 1; stroke-width: 5px;"/></g><g class="legendsymbols"><g class="legendpoints"/></g></g><rect class="legendtoggle" x="0" y="-9.5" width="137.0625" height="19" style="fill: rgb(0, 0, 0); fill-opacity: 0;"/></g><g class="traces" transform="translate(0,33.5)" style="opacity: 1;"><text class="legendtext" text-anchor="start" x="40" y="4.680000000000001" style="font-family: 'Open Sans', verdana, arial, sans-serif; font-size: 12px; fill: rgb(42, 63, 95); fill-opacity: 1; white-space: pre;">Nerudová Danuše</text><g class="layers" style="opacity: 1;"><g class="legendfill"/><g class="legendlines"><path class="js-line" d="M5,0h30" style="fill: none; stroke: rgb(239, 85, 59); stroke-opacity: 1; stroke-width: 5px;"/></g><g class="legendsymbols"><g class="legendpoints"/></g></g><rect class="legendtoggle" x="0" y="-9.5" width="137.0625" height="19" style="fill: rgb(0, 0, 0); fill-opacity: 0;"/></g><g class="traces" transform="translate(0,52.5)" style="opacity: 1;"><text class="legendtext" text-anchor="start" x="40" y="4.680000000000001" style="font-family: 'Open Sans', verdana, arial, sans-serif; font-size: 12px; fill: rgb(42, 63, 95); fill-opacity: 1; white-space: pre;">Babiš Andrej</text><g class="layers" style="opacity: 1;"><g class="legendfill"/><g class="legendlines"><path class="js-line" d="M5,0h30" style="fill: none; stroke: rgb(0, 204, 150); stroke-opacity: 1; stroke-width: 5px;"/></g><g class="legendsymbols"><g class="legendpoints"/></g></g><rect class="legendtoggle" x="0" y="-9.5" width="137.0625" height="19" style="fill: rgb(0, 0, 0); fill-opacity: 0;"/></g></g></g><rect class="scrollbar" rx="20" ry="3" width="0" height="0" x="0" y="0" style="fill: rgb(128, 139, 164); fill-opacity: 1;"/></g><g class="g-gtitle"/><g class="g-xtitle"/><g class="g-ytitle"/></g></svg>