<svg class="main-svg" xmlns="http://www.w3.org/2000/svg" xmlns:xlink="http://www.w3.org/1999/xlink" width="300" height="135" style="" viewBox="0 0 300 135"><rect x="0" y="0" width="300" height="135" style="fill: rgb(255, 255, 255); fill-opacity: 1;"/><defs id="defs-afdb50"><g class="clips"><clipPath id="clipafdb50xyplot" class="plotclip"><rect width="280" height="75"/></clipPath><clipPath class="axesclip" id="clipafdb50x"><rect x="10" y="0" width="280" height="135"/></clipPath><clipPath class="axesclip" id="clipafdb50y"><rect x="0" y="50" width="300" height="75"/></clipPath><clipPath class="axesclip" id="clipafdb50xy"><rect x="10" y="50" width="280" height="75"/></clipPath></g><g class="gradients"/><g class="patterns"/></defs><g class="bglayer"/><g class="layer-below"><g class="imagelayer"/><g class="shapelayer"/></g><g class="cartesianlayer"><g class="subplot xy"><g class="layer-subplot"><g class="shapelayer"/><g class="imagelayer"/></g><g class="minor-gridlayer"><g class="x"/><g class="y"/></g><g class="gridlayer"><g class="x"><path class="xgrid crisp" transform="translate(41.43,0)" d="M0,50v75" style="stroke: rgb(235, 240, 248); stroke-opacity: 1; stroke-width: 1px;"/><path class="xgrid crisp" transform="translate(99.52,0)" d="M0,50v75" style="stroke: rgb(235, 240, 248); stroke-opacity: 1; stroke-width: 1px;"/><path class="xgrid crisp" transform="translate(158.57,0)" d="M0,50v75" style="stroke: rgb(235, 240, 248); stroke-opacity: 1; stroke-width: 1px;"/><path class="xgrid crisp" transform="translate(216.67,0)" d="M0,50v75" style="stroke: rgb(235, 240, 248); stroke-opacity: 1; stroke-width: 1px;"/><path class="xgrid crisp" transform="translate(274.76,0)" d="M0,50v75" style="stroke: rgb(235, 240, 248); stroke-opacity: 1; stroke-width: 1px;"/></g><g class="y"><path class="ygrid crisp" transform="translate(0,107.72999999999999)" d="M10,0h280" style="stroke: rgb(235, 240, 248); stroke-opacity: 1; stroke-width: 1px;"/><path class="ygrid crisp" transform="translate(0,90.45)" d="M10,0h280" style="stroke: rgb(235, 240, 248); stroke-opacity: 1; stroke-width: 1px;"/><path class="ygrid crisp" transform="translate(0,73.18)" d="M10,0h280" style="stroke: rgb(235, 240, 248); stroke-opacity: 1; stroke-width: 1px;"/><path class="ygrid crisp" transform="translate(0,55.91)" d="M10,0h280" style="stroke: rgb(235, 240, 248); stroke-opacity: 1; stroke-width: 1px;"/></g></g><g class="zerolinelayer"><path class="yzl zl crisp" transform="translate(0,125)" d="M10,0h280" style="stroke: rgb(235, 240, 248); stroke-opacity: 1; stroke-width: 2px;"/></g><path class="xlines-below"/><path class="ylines-below"/><g class="overlines-below"/><g class="xaxislayer-below"/><g class="yaxislayer-below"/><g class="overaxes-below"/><g class="plot" transform="translate(10,50)" clip-path="url(#clipafdb50xyplot)"><g class="scatterlayer mlayer"><g class="trace scatter trace0971d2" style="stroke-miterlimit: 2; opacity: 1;"><g class="fills"/><g class="errorbars"/><g class="lines"><path class="js-line" d="M0,35.79L29.52,36.65L30.48,37.6L33.33,41.49L34.29,41.49L40.95,42.79L41.9,42.79L57.14,43.48L58.1,44.08L61.9,45.2L62.86,46.24L65.71,48.23L66.67,48.23L81.9,48.23L82.86,46.24L84.76,45.2L85.71,44.95L87.62,44.08L88.57,44.08L127.62,43.48L128.57,41.84L131.43,40.02L132.38,40.02L135.24,40.02L136.19,35.27L180,35.79L180.95,36.22L182.86,36.65L183.81,36.65L187.62,36.65L188.57,35.27L190.48,33.72L191.43,33.72L192.38,33.72L193.33,32.08L197.14,27.67L198.1,27.67L209.52,33.72L210.48,32.68L212.38,33.2L213.33,35.79L214.29,38.47L215.24,36.65L228.57,36.22L229.52,35.27L231.43,34.75L232.38,39.25L236.19,39.25L239.05,42.79L241.9,43.48L242.86,45.98L244.76,48.23L245.71,48.23L250.48,48.23L251.43,48.66L256.19,41.49L257.14,41.49L262.86,41.49L263.81,40.02L265.71,38.81L266.67,37.6L268.57,37.6L269.52,31.56L272.38,28.1L273.33,24.74L274.29,24.05L275.24,18.78L276.19,17.91L278.1,3.75L280,5.48" style="vector-effect: non-scaling-stroke; fill: none; stroke: rgb(99, 110, 250); stroke-opacity: 1; stroke-width: 5px; opacity: 1;"/></g><g class="points"/><g class="text"/></g><g class="trace scatter trace3f58a5" style="stroke-miterlimit: 2; opacity: 1;"><g class="fills"/><g class="errorbars"/><g class="lines"><path class="js-line" d="M0,49.87L57.14,49.44L58.1,48.23L61.9,47.28L62.86,44.95L65.71,39.25L66.67,39.25L82.86,39.25L83.81,40.8L86.67,41.49L87.62,41.49L128.57,42.53L129.52,42.79L135.24,42.79L136.19,45.98L140,46.76L140.95,46.76L142.86,47.54L143.81,48.23L160,49.09L160.95,49.87L162.86,52.98L163.81,54.88L177.14,56.09L178.1,57.12L184.76,57.9L185.71,58.42L188.57,60.4L189.52,61.61L193.33,61.61L194.29,63.08L196.19,64.29L197.14,64.29L198.1,64.29L205.71,51.34L207.62,49.44L209.52,49.44L211.43,51.34L212.38,51.34L217.14,52.03L218.1,52.03L231.43,52.03L232.38,49.09L241.9,48.66L242.86,50.82L244.76,53.24L245.71,53.24L254.29,54.36L255.24,54.88L268.57,55.4L269.52,57.12L271.43,57.12L272.38,51.08L274.29,50.65L275.24,52.2L276.19,52.46L278.1,61.53L280,58.16" style="vector-effect: non-scaling-stroke; fill: none; stroke: rgb(239, 85, 59); stroke-opacity: 1; stroke-width: 5px; opacity: 1;"/></g><g class="points"/><g class="text"/></g></g></g><g class="overplot"/><path class="xlines-above crisp" d="M0,0" style="fill: none;"/><path class="ylines-above crisp" d="M0,0" style="fill: none;"/><g class="overlines-above"/><g class="xaxislayer-above"/><g class="yaxislayer-above"/><g class="overaxes-above"/></g></g><g class="polarlayer"/><g class="smithlayer"/><g class="ternarylayer"/><g class="geolayer"/><g class="funnelarealayer"/><g class="pielayer"/><g class="iciclelayer"/><g class="treemaplayer"/><g class="sunburstlayer"/><g class="glimages"/><defs id="topdefs-afdb50"><g class="clips"/></defs><g class="layer-above"><g class="imagelayer"/><g class="shapelayer"/></g><g class="infolayer"><g class="g-gtitle"><text class="gtitle" x="15" y="25" text-anchor="start" dy="0em" style="font-family: Ubuntu, verdana, arial, sans-serif; font-size: 16px; fill: rgb(233, 84, 32); opacity: 1; font-weight: normal; white-space: pre;">Prezident/ka ČR 2023</text></g><g class="g-xtitle"/><g class="g-ytitle"/></g></svg>