<svg class="main-svg" xmlns="http://www.w3.org/2000/svg" xmlns:xlink="http://www.w3.org/1999/xlink" width="300" height="135" style="" viewBox="0 0 300 135"><rect x="0" y="0" width="300" height="135" style="fill: rgb(255, 255, 255); fill-opacity: 1;"/><defs id="defs-aac35f"><g class="clips"><clipPath id="clipaac35fxyplot" class="plotclip"><rect width="280" height="75"/></clipPath><clipPath class="axesclip" id="clipaac35fx"><rect x="10" y="0" width="280" height="135"/></clipPath><clipPath class="axesclip" id="clipaac35fy"><rect x="0" y="50" width="300" height="75"/></clipPath><clipPath class="axesclip" id="clipaac35fxy"><rect x="10" y="50" width="280" height="75"/></clipPath></g><g class="gradients"/><g class="patterns"/></defs><g class="bglayer"/><g class="layer-below"><g class="imagelayer"/><g class="shapelayer"/></g><g class="cartesianlayer"><g class="subplot xy"><g class="layer-subplot"><g class="shapelayer"/><g class="imagelayer"/></g><g class="minor-gridlayer"><g class="x"/><g class="y"/></g><g class="gridlayer"><g class="x"><path class="xgrid crisp" transform="translate(44.48,0)" d="M0,50v75" style="stroke: rgb(235, 240, 248); stroke-opacity: 1; stroke-width: 1px;"/><path class="xgrid crisp" transform="translate(108.21,0)" d="M0,50v75" style="stroke: rgb(235, 240, 248); stroke-opacity: 1; stroke-width: 1px;"/><path class="xgrid crisp" transform="translate(172.99,0)" d="M0,50v75" style="stroke: rgb(235, 240, 248); stroke-opacity: 1; stroke-width: 1px;"/><path class="xgrid crisp" transform="translate(236.72,0)" d="M0,50v75" style="stroke: rgb(235, 240, 248); stroke-opacity: 1; stroke-width: 1px;"/></g><g class="y"><path class="ygrid crisp" transform="translate(0,98.75999999999999)" d="M10,0h280" style="stroke: rgb(235, 240, 248); stroke-opacity: 1; stroke-width: 1px;"/><path class="ygrid crisp" transform="translate(0,72.51)" d="M10,0h280" style="stroke: rgb(235, 240, 248); stroke-opacity: 1; stroke-width: 1px;"/></g></g><g class="zerolinelayer"><path class="yzl zl crisp" transform="translate(0,125)" d="M10,0h280" style="stroke: rgb(235, 240, 248); stroke-opacity: 1; stroke-width: 2px;"/></g><path class="xlines-below"/><path class="ylines-below"/><g class="overlines-below"/><g class="xaxislayer-below"/><g class="yaxislayer-below"/><g class="overaxes-below"/><g class="plot" transform="translate(10,50)" clip-path="url(#clipaac35fxyplot)"><g class="scatterlayer mlayer"><g class="trace scatter tracee68138" style="stroke-miterlimit: 2; opacity: 1;"><g class="fills"/><g class="errorbars"/><g class="lines"><path class="js-line" d="M0,64.5L33.43,64.9L34.48,66.08L36.57,66.86L37.61,66.86L65.82,66.86L66.87,62.93L71.04,63.98L72.09,64.5L75.22,63.98L76.27,63.98L119.1,62.93L120.15,61.48L122.24,57.68L123.28,57.68L136.87,57.68L137.91,56.37L140,55.58L141.04,54.79L143.13,53.74L144.18,52.56L146.27,51.64L147.31,50.33L150.45,50.07L151.49,49.68L161.94,49.54L162.99,49.54L178.66,49.54L179.7,48.1L197.46,47.18L198.51,46.13L199.55,46.13L200.6,47.44L202.69,48.1L203.73,46.53L205.82,44.69L206.87,43.9L208.96,43.11L210,43.11L212.09,43.51L213.13,41.41L215.22,38.26L216.27,38.26L217.31,38.26L225.67,43.64L227.76,44.69L229.85,44.69L231.94,45.48L232.99,45.08L236.12,40.36L237.16,40.36L250.75,39.44L251.79,38.78L252.84,39.44L253.88,38.26L255.97,35.9L257.01,35.9L259.1,35.9L262.24,30.12L265.37,28.42L266.42,22.91L268.51,15.95L269.55,15.95L271.64,15.95L272.69,17.27L275.82,14.38L276.87,17.27L280,24.48" style="vector-effect: non-scaling-stroke; fill: none; stroke: rgb(99, 110, 250); stroke-opacity: 1; stroke-width: 5px; opacity: 1;"/></g><g class="points"/><g class="text"/></g><g class="trace scatter trace3dc057" style="stroke-miterlimit: 2; opacity: 1;"><g class="fills"/><g class="errorbars"/><g class="lines"><path class="js-line" d="M0,15.95L25.07,16.61L26.12,17.27L32.39,17.27L33.43,18.71L36.57,24.48L37.61,24.48L43.88,26.58L44.93,26.58L62.69,27.5L63.73,28.42L65.82,28.42L66.87,30.12L67.91,30.12L68.96,31.7L71.04,34.32L72.09,34.59L89.85,34.59L90.9,31.7L91.94,29.34L92.99,30.12L98.21,28.42L99.25,28.42L140,27.5L141.04,25.01L144.18,22.38L145.22,22.38L148.36,22.38L149.4,15.17L196.42,14.38L197.46,15.95L201.64,17.27L202.69,17.27L205.82,17.27L206.87,15.17L208.96,12.94L210,12.94L211.04,12.94L212.09,10.44L215.22,3.75L216.27,3.75L217.31,3.75L225.67,11.23L227.76,12.94L229.85,12.94L231.94,11.23L232.99,12.02L235.07,19.89L236.12,17.27L250.75,16.61L251.79,15.17L253.88,14.38L254.93,21.2L259.1,21.2L262.24,26.58L265.37,27.5L266.42,31.31L268.51,34.59L269.55,34.59L271.64,34.59L272.69,33.27L275.82,35.24L276.87,32.49L278.96,28.42L280,24.48" style="vector-effect: non-scaling-stroke; fill: none; stroke: rgb(239, 85, 59); stroke-opacity: 1; stroke-width: 5px; opacity: 1;"/></g><g class="points"/><g class="text"/></g><g class="trace scatter traceaeefd0" style="stroke-miterlimit: 2; opacity: 1;"><g class="fills"/><g class="errorbars"/><g class="lines"><path class="js-line" d="M0,37.21L62.69,36.55L63.73,34.59L65.82,34.59L66.87,33.27L67.91,33.27L68.96,29.73L72.09,21.2L73.13,21.2L80.45,20.55L81.49,19.89L89.85,19.89L90.9,21.2L92.99,24.48L94.03,24.48L140,25.01L141.04,26.06L144.18,26.58L145.22,26.58L148.36,26.58L149.4,31.31L152.54,32.49L153.58,32.49L156.72,33.54L157.76,34.59L159.85,35.24L160.9,35.9L175.52,35.9L176.57,37.21L177.61,38.26L178.66,41.8L180.75,44.69L181.79,44.69L193.28,44.69L194.33,46.53L196.42,48.1L197.46,47.58L200.6,48.1L201.64,48.1L204.78,50.73L205.82,50.73L208.96,54.79L210,54.79L212.09,54.79L213.13,57.02L215.22,58.86L216.27,58.86L217.31,58.86L225.67,39.44L227.76,36.55L229.85,36.55L231.94,39.44L232.99,39.44L238.21,40.36L239.25,40.36L253.88,40.36L254.93,35.9L265.37,35.24L266.42,38.52L268.51,42.33L269.55,42.33L277.91,43.11L278.96,43.9L280,44.69" style="vector-effect: non-scaling-stroke; fill: none; stroke: rgb(0, 204, 150); stroke-opacity: 1; stroke-width: 5px; opacity: 1;"/></g><g class="points"/><g class="text"/></g></g></g><g class="overplot"/><path class="xlines-above crisp" d="M0,0" style="fill: none;"/><path class="ylines-above crisp" d="M0,0" style="fill: none;"/><g class="overlines-above"/><g class="xaxislayer-above"/><g class="yaxislayer-above"/><g class="overaxes-above"/></g></g><g class="polarlayer"/><g class="smithlayer"/><g class="ternarylayer"/><g class="geolayer"/><g class="funnelarealayer"/><g class="pielayer"/><g class="iciclelayer"/><g class="treemaplayer"/><g class="sunburstlayer"/><g class="glimages"/><defs id="topdefs-aac35f"><g class="clips"/></defs><g class="layer-above"><g class="imagelayer"/><g class="shapelayer"/></g><g class="infolayer"><g class="g-gtitle"><text class="gtitle" x="15" y="25" text-anchor="start" dy="0em" style="font-family: Ubuntu, verdana, arial, sans-serif; font-size: 16px; fill: rgb(233, 84, 32); opacity: 1; font-weight: normal; white-space: pre;">Prezident/ka ČR 2023</text></g><g class="g-xtitle"/><g class="g-ytitle"/></g></svg>