<svg class="main-svg" xmlns="http://www.w3.org/2000/svg" xmlns:xlink="http://www.w3.org/1999/xlink" width="300" height="135" style="" viewBox="0 0 300 135"><rect x="0" y="0" width="300" height="135" style="fill: rgb(255, 255, 255); fill-opacity: 1;"/><defs id="defs-fbae6f"><g class="clips"><clipPath id="clipfbae6fxyplot" class="plotclip"><rect width="280" height="75"/></clipPath><clipPath class="axesclip" id="clipfbae6fx"><rect x="10" y="0" width="280" height="135"/></clipPath><clipPath class="axesclip" id="clipfbae6fy"><rect x="0" y="50" width="300" height="75"/></clipPath><clipPath class="axesclip" id="clipfbae6fxy"><rect x="10" y="50" width="280" height="75"/></clipPath></g><g class="gradients"/><g class="patterns"/></defs><g class="bglayer"/><g class="layer-below"><g class="imagelayer"/><g class="shapelayer"/></g><g class="cartesianlayer"><g class="subplot xy"><g class="layer-subplot"><g class="shapelayer"/><g class="imagelayer"/></g><g class="minor-gridlayer"><g class="x"/><g class="y"/></g><g class="gridlayer"><g class="x"><path class="xgrid crisp" transform="translate(45,0)" d="M0,50v75" style="stroke: rgb(235, 240, 248); stroke-opacity: 1; stroke-width: 1px;"/><path class="xgrid crisp" transform="translate(109.7,0)" d="M0,50v75" style="stroke: rgb(235, 240, 248); stroke-opacity: 1; stroke-width: 1px;"/><path class="xgrid crisp" transform="translate(175.45,0)" d="M0,50v75" style="stroke: rgb(235, 240, 248); stroke-opacity: 1; stroke-width: 1px;"/><path class="xgrid crisp" transform="translate(240.15,0)" d="M0,50v75" style="stroke: rgb(235, 240, 248); stroke-opacity: 1; stroke-width: 1px;"/></g><g class="y"><path class="ygrid crisp" transform="translate(0,98.56)" d="M10,0h280" style="stroke: rgb(235, 240, 248); stroke-opacity: 1; stroke-width: 1px;"/><path class="ygrid crisp" transform="translate(0,72.12)" d="M10,0h280" style="stroke: rgb(235, 240, 248); stroke-opacity: 1; stroke-width: 1px;"/></g></g><g class="zerolinelayer"><path class="yzl zl crisp" transform="translate(0,125)" d="M10,0h280" style="stroke: rgb(235, 240, 248); stroke-opacity: 1; stroke-width: 2px;"/></g><path class="xlines-below"/><path class="ylines-below"/><g class="overlines-below"/><g class="xaxislayer-below"/><g class="yaxislayer-below"/><g class="overaxes-below"/><g class="plot" transform="translate(10,50)" clip-path="url(#clipfbae6fxyplot)"><g class="scatterlayer mlayer"><g class="trace scatter trace52035c" style="stroke-miterlimit: 2; opacity: 1;"><g class="fills"/><g class="errorbars"/><g class="lines"><path class="js-line" d="M0,64.42L33.94,64.95L35,66.01L37.12,66.94L38.18,66.94L66.82,66.94L67.88,62.84L72.12,64.03L73.18,64.42L77.42,64.03L78.48,64.03L82.73,62.84L83.79,62.84L120.91,62.84L121.97,61.52L124.09,57.68L125.15,57.68L138.94,57.68L140,56.36L142.12,55.57L143.18,54.78L145.3,53.72L146.36,52.53L148.48,51.73L149.55,50.28L152.73,50.02L153.79,49.62L164.39,49.49L165.45,49.49L179.24,50.15L180.3,50.81L183.48,48.03L184.55,48.03L200.45,47.11L201.52,46.18L202.58,46.18L203.64,47.5L205.76,48.03L206.82,46.45L208.94,44.73L210,43.94L212.12,43.14L213.18,43.14L215.3,43.54L216.36,41.29L218.48,38.25L219.55,38.25L220.61,38.25L229.09,43.67L231.21,44.73L233.33,44.73L235.45,45.39L236.52,45.13L239.7,40.37L240.76,40.37L254.55,39.31L255.61,38.78L256.67,39.31L257.73,38.25L259.85,35.87L260.91,35.87L263.03,35.87L266.21,30.19L269.39,28.34L270.45,22.92L272.58,15.91L273.64,15.91L275.76,15.91L276.82,17.37L280,14.46" style="vector-effect: non-scaling-stroke; fill: none; stroke: rgb(99, 110, 250); stroke-opacity: 1; stroke-width: 5px; opacity: 1;"/></g><g class="points"/><g class="text"/></g><g class="trace scatter tracea4ca85" style="stroke-miterlimit: 2; opacity: 1;"><g class="fills"/><g class="errorbars"/><g class="lines"><path class="js-line" d="M0,15.91L25.45,16.57L26.52,17.37L32.88,17.37L33.94,18.69L37.12,24.5L38.18,24.5L44.55,26.49L45.61,26.49L63.64,27.54L64.7,28.34L66.82,28.34L67.88,30.19L68.94,30.19L70,31.77L72.12,34.29L73.18,34.55L91.21,34.55L92.27,31.77L93.33,29.26L94.39,30.19L98.64,28.34L99.7,28.34L142.12,27.54L143.18,25.03L146.36,22.26L147.42,22.26L150.61,22.26L151.67,15.12L199.39,14.46L200.45,15.91L204.7,17.37L205.76,17.37L208.94,17.37L210,15.12L212.12,12.87L213.18,12.87L214.24,12.87L215.3,10.36L218.48,3.75L219.55,3.75L220.61,3.75L229.09,11.28L231.21,12.87L233.33,12.87L235.45,11.28L236.52,12.08L238.64,19.88L239.7,17.37L254.55,16.57L255.61,15.12L257.73,14.46L258.79,21.2L263.03,21.2L266.21,26.49L269.39,27.54L270.45,31.38L272.58,34.55L273.64,34.55L275.76,34.55L276.82,33.23L280,35.21" style="vector-effect: non-scaling-stroke; fill: none; stroke: rgb(239, 85, 59); stroke-opacity: 1; stroke-width: 5px; opacity: 1;"/></g><g class="points"/><g class="text"/></g><g class="trace scatter trace2aa158" style="stroke-miterlimit: 2; opacity: 1;"><g class="fills"/><g class="errorbars"/><g class="lines"><path class="js-line" d="M0,37.19L63.64,36.53L64.7,34.55L66.82,34.55L67.88,33.23L68.94,33.23L70,29.66L73.18,21.2L74.24,21.2L81.67,20.54L82.73,19.88L91.21,19.88L92.27,21.2L94.39,24.5L95.45,24.5L142.12,25.03L143.18,26.09L148.48,27.02L149.55,27.02L150.61,26.49L151.67,31.38L154.85,32.44L155.91,32.44L159.09,33.62L160.15,34.55L162.27,35.21L163.33,35.87L178.18,35.87L179.24,37.19L180.3,38.25L181.36,41.82L183.48,44.73L184.55,44.73L196.21,44.73L197.27,46.45L199.39,48.03L200.45,47.64L206.82,50.02L207.88,50.81L208.94,50.81L210,52.92L212.12,54.78L213.18,54.78L215.3,54.78L216.36,57.02L218.48,58.87L219.55,58.87L220.61,58.87L229.09,39.31L231.21,36.53L233.33,36.53L235.45,39.31L236.52,39.31L240.76,40.37L241.82,40.37L257.73,40.37L258.79,35.87L269.39,35.21L270.45,38.52L272.58,42.22L273.64,42.22L280,43.14" style="vector-effect: non-scaling-stroke; fill: none; stroke: rgb(0, 204, 150); stroke-opacity: 1; stroke-width: 5px; opacity: 1;"/></g><g class="points"/><g class="text"/></g></g></g><g class="overplot"/><path class="xlines-above crisp" d="M0,0" style="fill: none;"/><path class="ylines-above crisp" d="M0,0" style="fill: none;"/><g class="overlines-above"/><g class="xaxislayer-above"/><g class="yaxislayer-above"/><g class="overaxes-above"/></g></g><g class="polarlayer"/><g class="smithlayer"/><g class="ternarylayer"/><g class="geolayer"/><g class="funnelarealayer"/><g class="pielayer"/><g class="iciclelayer"/><g class="treemaplayer"/><g class="sunburstlayer"/><g class="glimages"/><defs id="topdefs-fbae6f"><g class="clips"/></defs><g class="layer-above"><g class="imagelayer"/><g class="shapelayer"/></g><g class="infolayer"><g class="g-gtitle"><text class="gtitle" x="15" y="25" text-anchor="start" dy="0em" style="font-family: Ubuntu, verdana, arial, sans-serif; font-size: 16px; fill: rgb(233, 84, 32); opacity: 1; font-weight: normal; white-space: pre;">Prezident/ka ČR 2023</text></g><g class="g-xtitle"/><g class="g-ytitle"/></g></svg>