<svg class="main-svg" xmlns="http://www.w3.org/2000/svg" xmlns:xlink="http://www.w3.org/1999/xlink" width="300" height="135" style="" viewBox="0 0 300 135"><rect x="0" y="0" width="300" height="135" style="fill: rgb(255, 255, 255); fill-opacity: 1;"/><defs id="defs-89373d"><g class="clips"><clipPath id="clip89373dxyplot" class="plotclip"><rect width="280" height="75"/></clipPath><clipPath class="axesclip" id="clip89373dx"><rect x="10" y="0" width="280" height="135"/></clipPath><clipPath class="axesclip" id="clip89373dy"><rect x="0" y="50" width="300" height="75"/></clipPath><clipPath class="axesclip" id="clip89373dxy"><rect x="10" y="50" width="280" height="75"/></clipPath></g><g class="gradients"/><g class="patterns"/></defs><g class="bglayer"/><g class="layer-below"><g class="imagelayer"/><g class="shapelayer"/></g><g class="cartesianlayer"><g class="subplot xy"><g class="layer-subplot"><g class="shapelayer"/><g class="imagelayer"/></g><g class="minor-gridlayer"><g class="x"/><g class="y"/></g><g class="gridlayer"><g class="x"><path class="xgrid crisp" transform="translate(62.5,0)" d="M0,50v75" style="stroke: rgb(235, 240, 248); stroke-opacity: 1; stroke-width: 1px;"/><path class="xgrid crisp" transform="translate(159.55,0)" d="M0,50v75" style="stroke: rgb(235, 240, 248); stroke-opacity: 1; stroke-width: 1px;"/><path class="xgrid crisp" transform="translate(258.18,0)" d="M0,50v75" style="stroke: rgb(235, 240, 248); stroke-opacity: 1; stroke-width: 1px;"/></g><g class="y"><path class="ygrid crisp" transform="translate(0,105.59)" d="M10,0h280" style="stroke: rgb(235, 240, 248); stroke-opacity: 1; stroke-width: 1px;"/><path class="ygrid crisp" transform="translate(0,86.17)" d="M10,0h280" style="stroke: rgb(235, 240, 248); stroke-opacity: 1; stroke-width: 1px;"/><path class="ygrid crisp" transform="translate(0,66.76)" d="M10,0h280" style="stroke: rgb(235, 240, 248); stroke-opacity: 1; stroke-width: 1px;"/></g></g><g class="zerolinelayer"><path class="yzl zl crisp" transform="translate(0,125)" d="M10,0h280" style="stroke: rgb(235, 240, 248); stroke-opacity: 1; stroke-width: 2px;"/></g><path class="xlines-below"/><path class="ylines-below"/><g class="overlines-below"/><g class="xaxislayer-below"/><g class="yaxislayer-below"/><g class="overaxes-below"/><g class="plot" transform="translate(10,50)" clip-path="url(#clip89373dxyplot)"><g class="scatterlayer mlayer"><g class="trace scatter trace658361" style="stroke-miterlimit: 2; opacity: 1;"><g class="fills"/><g class="errorbars"/><g class="lines"><path class="js-line" d="M0,5.5L38.18,6.27L39.77,7.05L49.32,7.05L50.91,8.6L54.09,15.59L55.68,15.59L62.05,16.76L63.64,17.34L68.41,17.92L70,17.92L95.45,19.09L97.05,20.06L100.23,20.06L101.82,22.19L103.41,22.19L105,24.13L108.18,27.05L109.77,27.44L136.82,27.44L138.41,24.13L140,21.22L141.59,22.19L147.95,20.06L149.55,20.06L213.18,19.09L214.77,16.18L217.95,13.65L219.55,13.07L225.91,13.07L227.5,4.53L280,3.75" style="vector-effect: non-scaling-stroke; fill: none; stroke: rgb(99, 110, 250); stroke-opacity: 1; stroke-width: 5px; opacity: 1;"/></g><g class="points"/><g class="text"/></g><g class="trace scatter trace9785bd" style="stroke-miterlimit: 2; opacity: 1;"><g class="fills"/><g class="errorbars"/><g class="lines"><path class="js-line" d="M0,30.35L95.45,29.76L97.05,27.44L100.23,27.44L101.82,25.88L103.41,25.88L105,21.61L108.18,13.65L109.77,11.52L122.5,10.93L124.09,10.16L136.82,10.16L138.41,11.52L141.59,15.59L143.18,15.59L213.18,16.18L214.77,17.34L219.55,17.92L221.14,17.92L224.32,18.5L225.91,17.92L227.5,23.55L229.09,24.52L235.45,24.91L237.05,24.91L241.82,27.44L243.41,28.21L246.59,28.99L248.18,28.99L267.27,28.99L268.86,30.35L270.45,31.71L272.05,35.98L273.64,39.28L275.23,39.28L280,39.28" style="vector-effect: non-scaling-stroke; fill: none; stroke: rgb(239, 85, 59); stroke-opacity: 1; stroke-width: 5px; opacity: 1;"/></g><g class="points"/><g class="text"/></g><g class="trace scatter trace7bb5b3" style="stroke-miterlimit: 2; opacity: 1;"><g class="fills"/><g class="errorbars"/><g class="lines"><path class="js-line" d="M0,62.57L50.91,63.16L52.5,64.52L55.68,65.49L57.27,65.49L100.23,65.49L101.82,60.83L108.18,61.99L109.77,62.57L114.55,61.99L116.14,61.99L181.36,60.83L182.95,59.08L186.14,54.62L187.73,54.62L208.41,54.62L210,53.06L213.18,52.09L214.77,51.31L216.36,51.31L217.95,49.96L221.14,48.6L222.73,47.63L225.91,45.3L227.5,45.68L268.86,45.68L270.45,46.46L275.23,43.35L276.82,43.35L280,43.35" style="vector-effect: non-scaling-stroke; fill: none; stroke: rgb(0, 204, 150); stroke-opacity: 1; stroke-width: 5px; opacity: 1;"/></g><g class="points"/><g class="text"/></g><g class="trace scatter traceca688c" style="stroke-miterlimit: 2; opacity: 1;"><g class="fills"/><g class="errorbars"/><g class="lines"><path class="js-line" d="M0,68.59L49.32,68.59L50.91,66.07L54.09,64.9L55.68,64.9L62.05,63.93L63.64,63.55L70,63.16L71.59,63.16L106.59,63.16L108.18,64.32L112.95,64.9L114.55,64.9L119.32,64.32L120.91,64.52L138.41,63.16L140,64.52L143.18,65.49L144.77,65.49L216.36,66.07L217.95,66.26L222.73,66.65L224.32,66.46L241.82,64.9L243.41,64.9L265.68,63.93L267.27,63.55L270.45,54.62L272.05,54.62L280,54.62" style="vector-effect: non-scaling-stroke; fill: none; stroke: rgb(171, 99, 250); stroke-opacity: 1; stroke-width: 5px; opacity: 1;"/></g><g class="points"/><g class="text"/></g><g class="trace scatter tracef719c9" style="stroke-miterlimit: 2; opacity: 1;"><g class="fills"/><g class="errorbars"/><g class="lines"><path class="js-line" d="M0,61.41L103.41,61.99L105,62.38L116.14,62.57L117.73,62.57L130.45,63.16L132.05,63.16L217.95,64.32L219.55,64.52L225.91,65.49L227.5,65.88L238.64,66.07L240.23,66.07L280,66.65" style="vector-effect: non-scaling-stroke; fill: none; stroke: rgb(255, 161, 90); stroke-opacity: 1; stroke-width: 5px; opacity: 1;"/></g><g class="points"/><g class="text"/></g></g></g><g class="overplot"/><path class="xlines-above crisp" d="M0,0" style="fill: none;"/><path class="ylines-above crisp" d="M0,0" style="fill: none;"/><g class="overlines-above"/><g class="xaxislayer-above"/><g class="yaxislayer-above"/><g class="overaxes-above"/></g></g><g class="polarlayer"/><g class="smithlayer"/><g class="ternarylayer"/><g class="geolayer"/><g class="funnelarealayer"/><g class="pielayer"/><g class="iciclelayer"/><g class="treemaplayer"/><g class="sunburstlayer"/><g class="glimages"/><defs id="topdefs-89373d"><g class="clips"/></defs><g class="layer-above"><g class="imagelayer"/><g class="shapelayer"/></g><g class="infolayer"><g class="g-gtitle"><text class="gtitle" x="15" y="25" text-anchor="start" dy="0em" style="font-family: Ubuntu, verdana, arial, sans-serif; font-size: 16px; fill: rgb(233, 84, 32); opacity: 1; font-weight: normal; white-space: pre;">Prezident/ka ČR 2023</text></g><g class="g-xtitle"/><g class="g-ytitle"/></g></svg>