<svg class="main-svg" xmlns="http://www.w3.org/2000/svg" xmlns:xlink="http://www.w3.org/1999/xlink" width="300" height="135" style="" viewBox="0 0 300 135"><rect x="0" y="0" width="300" height="135" style="fill: rgb(255, 255, 255); fill-opacity: 1;"/><defs id="defs-2620aa"><g class="clips"><clipPath id="clip2620aaxyplot" class="plotclip"><rect width="280" height="75"/></clipPath><clipPath class="axesclip" id="clip2620aax"><rect x="10" y="0" width="280" height="135"/></clipPath><clipPath class="axesclip" id="clip2620aay"><rect x="0" y="50" width="300" height="75"/></clipPath><clipPath class="axesclip" id="clip2620aaxy"><rect x="10" y="50" width="280" height="75"/></clipPath></g><g class="gradients"/><g class="patterns"/></defs><g class="bglayer"/><g class="layer-below"><g class="imagelayer"/><g class="shapelayer"/></g><g class="cartesianlayer"><g class="subplot xy"><g class="layer-subplot"><g class="shapelayer"/><g class="imagelayer"/></g><g class="minor-gridlayer"><g class="x"/><g class="y"/></g><g class="gridlayer"><g class="x"><path class="xgrid crisp" transform="translate(57.88,0)" d="M0,50v75" style="stroke: rgb(235, 240, 248); stroke-opacity: 1; stroke-width: 1px;"/><path class="xgrid crisp" transform="translate(146.37,0)" d="M0,50v75" style="stroke: rgb(235, 240, 248); stroke-opacity: 1; stroke-width: 1px;"/><path class="xgrid crisp" transform="translate(236.32,0)" d="M0,50v75" style="stroke: rgb(235, 240, 248); stroke-opacity: 1; stroke-width: 1px;"/></g><g class="y"><path class="ygrid crisp" transform="translate(0,106.1)" d="M10,0h280" style="stroke: rgb(235, 240, 248); stroke-opacity: 1; stroke-width: 1px;"/><path class="ygrid crisp" transform="translate(0,87.2)" d="M10,0h280" style="stroke: rgb(235, 240, 248); stroke-opacity: 1; stroke-width: 1px;"/><path class="ygrid crisp" transform="translate(0,68.3)" d="M10,0h280" style="stroke: rgb(235, 240, 248); stroke-opacity: 1; stroke-width: 1px;"/></g></g><g class="zerolinelayer"><path class="yzl zl crisp" transform="translate(0,125)" d="M10,0h280" style="stroke: rgb(235, 240, 248); stroke-opacity: 1; stroke-width: 2px;"/></g><path class="xlines-below"/><path class="ylines-below"/><g class="overlines-below"/><g class="xaxislayer-below"/><g class="yaxislayer-below"/><g class="overaxes-below"/><g class="plot" transform="translate(10,50)" clip-path="url(#clip2620aaxyplot)"><g class="scatterlayer mlayer"><g class="trace scatter trace18ef4e" style="stroke-miterlimit: 2; opacity: 1;"><g class="fills"/><g class="errorbars"/><g class="lines"><path class="js-line" d="M0,5.45L34.82,6.21L36.27,6.96L44.97,6.96L46.42,8.66L49.33,15.47L50.78,15.47L53.68,16.22L55.13,16.79L68.19,17.92L69.64,18.49L73.99,19.06L75.44,19.06L91.4,20.19L92.85,22.08L94.3,22.08L95.75,23.97L98.65,27L100.1,27.37L124.77,27.37L126.22,23.97L127.67,21.14L129.12,22.08L136.37,20.19L137.82,20.19L194.4,19.06L195.85,16.22L198.76,13.58L200.21,13.01L206.01,13.01L207.46,4.51L272.75,3.75L274.2,5.45L275.65,6.21L277.1,5.45L280,6.96" style="vector-effect: non-scaling-stroke; fill: none; stroke: rgb(99, 110, 250); stroke-opacity: 1; stroke-width: 5px; opacity: 1;"/></g><g class="points"/><g class="text"/></g><g class="trace scatter tracea9daba" style="stroke-miterlimit: 2; opacity: 1;"><g class="fills"/><g class="errorbars"/><g class="lines"><path class="js-line" d="M0,30.4L87.05,29.64L88.5,27.37L91.4,27.37L92.85,25.86L94.3,25.86L95.75,21.7L98.65,13.58L100.1,11.5L111.71,10.93L113.16,10.18L124.77,10.18L126.22,11.5L129.12,15.47L130.57,15.47L194.4,16.22L195.85,17.36L200.21,17.92L201.66,17.92L204.56,18.49L206.01,17.92L208.91,24.54L210.36,24.92L216.17,24.92L217.62,26.24L221.97,28.13L223.42,28.89L243.73,28.89L245.18,30.4L246.63,31.72L248.08,35.88L249.53,39.28L250.98,39.28L268.39,39.28L269.84,41.36L272.75,43.25L274.2,42.68L278.55,43.25L280,43.25" style="vector-effect: non-scaling-stroke; fill: none; stroke: rgb(239, 85, 59); stroke-opacity: 1; stroke-width: 5px; opacity: 1;"/></g><g class="points"/><g class="text"/></g><g class="trace scatter trace3a3b58" style="stroke-miterlimit: 2; opacity: 1;"><g class="fills"/><g class="errorbars"/><g class="lines"><path class="js-line" d="M0,62.53L46.42,63.09L47.88,64.42L50.78,65.55L52.23,65.55L91.4,65.55L92.85,60.83L98.65,61.96L100.1,62.53L104.46,61.96L105.91,61.96L165.39,60.83L166.84,59.12L169.74,54.59L171.19,54.59L190.05,54.59L191.5,53.08L194.4,52.13L195.85,51.19L198.76,50.05L200.21,48.54L203.11,47.6L204.56,45.9L208.91,45.52L210.36,45.14L220.52,44.95L221.97,44.95L245.18,45.71L246.63,46.46L250.98,43.25L252.44,43.25L274.2,42.12L275.65,40.98L277.1,40.98L278.55,42.49L280,43.25" style="vector-effect: non-scaling-stroke; fill: none; stroke: rgb(0, 204, 150); stroke-opacity: 1; stroke-width: 5px; opacity: 1;"/></g><g class="points"/><g class="text"/></g><g class="trace scatter trace32fa7a" style="stroke-miterlimit: 2; opacity: 1;"><g class="fills"/><g class="errorbars"/><g class="lines"><path class="js-line" d="M0,68.57L44.97,68.57L46.42,66.12L49.33,64.79L50.78,64.79L58.03,63.66L59.48,63.09L97.2,63.09L98.65,64.23L103.01,64.79L104.46,64.79L110.26,64.42L111.71,64.23L126.22,63.09L127.67,64.42L130.57,65.55L132.02,65.55L166.84,65.55L168.29,66.12L210.36,65.55L211.81,64.79L243.73,63.66L245.18,60.07L246.63,54.59L248.08,54.59L268.39,54.59L269.84,53.08L272.75,51.19L274.2,51.19L280,51.19" style="vector-effect: non-scaling-stroke; fill: none; stroke: rgb(171, 99, 250); stroke-opacity: 1; stroke-width: 5px; opacity: 1;"/></g><g class="points"/><g class="text"/></g><g class="trace scatter tracef5b249" style="stroke-miterlimit: 2; opacity: 1;"><g class="fills"/><g class="errorbars"/><g class="lines"><path class="js-line" d="M0,61.39L94.3,61.96L95.75,62.34L105.91,62.53L107.36,62.53L114.61,63.09L116.06,63.09L198.76,64.23L200.21,64.42L206.01,65.55L207.46,65.93L217.62,66.12L219.07,66.12L271.3,66.68L272.75,65.17L274.2,63.66L275.65,64.04L280,64.79" style="vector-effect: non-scaling-stroke; fill: none; stroke: rgb(255, 161, 90); stroke-opacity: 1; stroke-width: 5px; opacity: 1;"/></g><g class="points"/><g class="text"/></g></g></g><g class="overplot"/><path class="xlines-above crisp" d="M0,0" style="fill: none;"/><path class="ylines-above crisp" d="M0,0" style="fill: none;"/><g class="overlines-above"/><g class="xaxislayer-above"/><g class="yaxislayer-above"/><g class="overaxes-above"/></g></g><g class="polarlayer"/><g class="smithlayer"/><g class="ternarylayer"/><g class="geolayer"/><g class="funnelarealayer"/><g class="pielayer"/><g class="iciclelayer"/><g class="treemaplayer"/><g class="sunburstlayer"/><g class="glimages"/><defs id="topdefs-2620aa"><g class="clips"/></defs><g class="layer-above"><g class="imagelayer"/><g class="shapelayer"/></g><g class="infolayer"><g class="g-gtitle"><text class="gtitle" x="15" y="25" text-anchor="start" dy="0em" style="font-family: Ubuntu, verdana, arial, sans-serif; font-size: 16px; fill: rgb(233, 84, 32); opacity: 1; font-weight: normal; white-space: pre;">Prezident/ka ČR 2023</text></g><g class="g-xtitle"/><g class="g-ytitle"/></g></svg>