<svg class="main-svg" xmlns="http://www.w3.org/2000/svg" xmlns:xlink="http://www.w3.org/1999/xlink" width="400" height="400" style="" viewBox="0 0 400 400"><rect x="0" y="0" width="400" height="400" style="fill: rgb(255, 255, 255); fill-opacity: 1;"/><defs id="defs-b1bb9a"><g class="clips"><clipPath id="clipb1bb9axyplot" class="plotclip"><rect width="191" height="330"/></clipPath><clipPath class="axesclip" id="clipb1bb9ax"><rect x="50" y="0" width="191" height="400"/></clipPath><clipPath class="axesclip" id="clipb1bb9ay"><rect x="0" y="20" width="400" height="330"/></clipPath><clipPath class="axesclip" id="clipb1bb9axy"><rect x="50" y="20" width="191" height="330"/></clipPath></g><g class="gradients"/><g class="patterns"/></defs><g class="bglayer"/><g class="layer-below"><g class="imagelayer"/><g class="shapelayer"/></g><g class="cartesianlayer"><g class="subplot xy"><g class="layer-subplot"><g class="shapelayer"/><g class="imagelayer"/></g><g class="minor-gridlayer"><g class="x"/><g class="y"/></g><g class="gridlayer"><g class="x"><path class="xgrid crisp" transform="translate(71.73,0)" d="M0,20v330" style="stroke: rgb(235, 240, 248); stroke-opacity: 1; stroke-width: 1px;"/><path class="xgrid crisp" transform="translate(111.91,0)" d="M0,20v330" style="stroke: rgb(235, 240, 248); stroke-opacity: 1; stroke-width: 1px;"/><path class="xgrid crisp" transform="translate(152.74,0)" d="M0,20v330" style="stroke: rgb(235, 240, 248); stroke-opacity: 1; stroke-width: 1px;"/><path class="xgrid crisp" transform="translate(192.92,0)" d="M0,20v330" style="stroke: rgb(235, 240, 248); stroke-opacity: 1; stroke-width: 1px;"/><path class="xgrid crisp" transform="translate(233.1,0)" d="M0,20v330" style="stroke: rgb(235, 240, 248); stroke-opacity: 1; stroke-width: 1px;"/></g><g class="y"><path class="ygrid crisp" transform="translate(0,292.37)" d="M50,0h191" style="stroke: rgb(235, 240, 248); stroke-opacity: 1; stroke-width: 1px;"/><path class="ygrid crisp" transform="translate(0,234.74)" d="M50,0h191" style="stroke: rgb(235, 240, 248); stroke-opacity: 1; stroke-width: 1px;"/><path class="ygrid crisp" transform="translate(0,177.11)" d="M50,0h191" style="stroke: rgb(235, 240, 248); stroke-opacity: 1; stroke-width: 1px;"/><path class="ygrid crisp" transform="translate(0,119.49)" d="M50,0h191" style="stroke: rgb(235, 240, 248); stroke-opacity: 1; stroke-width: 1px;"/><path class="ygrid crisp" transform="translate(0,61.86)" d="M50,0h191" style="stroke: rgb(235, 240, 248); stroke-opacity: 1; stroke-width: 1px;"/></g></g><g class="zerolinelayer"><path class="yzl zl crisp" transform="translate(0,350)" d="M50,0h191" style="stroke: rgb(235, 240, 248); stroke-opacity: 1; stroke-width: 2px;"/></g><path class="xlines-below"/><path class="ylines-below"/><g class="overlines-below"/><g class="xaxislayer-below"/><g class="yaxislayer-below"/><g class="overaxes-below"/><g class="plot" transform="translate(50,20)" clip-path="url(#clipb1bb9axyplot)"><g class="scatterlayer mlayer"><g class="trace scatter trace7309ab" style="stroke-miterlimit: 2; opacity: 1;"><g class="fills"/><g class="errorbars"/><g class="lines"><path class="js-line" d="M0,283.9L3.29,283.9L3.95,285.63L21.08,285.63L21.73,290.24L23.05,294.27L23.71,294.27L41.49,294.27L42.15,276.98L43.47,278.13L44.13,279.29L45.44,283.9L46.1,281.59L48.74,281.59L49.4,279.29L50.71,276.98L51.37,276.98L75.08,276.98L75.74,270.64L77.72,253.93L78.38,253.93L86.28,253.93L86.94,248.17L87.6,248.17L88.26,244.71L93.52,218.78L94.18,219.93L94.84,219.93L96.82,217.62L97.48,217.62L110.65,217.62L111.31,220.51L111.97,223.39L112.62,217.62L113.94,211.28L114.6,211.28L123.82,211.28L124.48,207.25L125.8,203.22L126.46,208.98L127.77,211.28L128.43,204.37L130.41,193.42L131.07,189.96L133.04,189.96L133.7,191.69L135.68,168.64L136.33,168.64L136.99,168.64L142.26,192.27L143.58,196.88L144.9,196.88L146.21,199.76L146.87,198.61L148.85,177.86L149.51,177.86L152.8,177.86L153.46,175.56L157.41,174.4L158.07,173.25L158.73,170.94L159.39,173.25L161.36,158.27L162.02,158.27L163.34,158.27L165.31,132.33L167.29,124.84L167.95,100.64L169.27,70.09L169.92,70.09L171.24,70.09L171.9,76.43L173.88,63.76L174.53,76.43L175.19,87.96" style="vector-effect: non-scaling-stroke; fill: none; stroke: rgb(99, 110, 250); stroke-opacity: 1; stroke-width: 5px; opacity: 1;"/></g><g class="points"/><g class="text"/></g><g class="trace scatter trace3fc041" style="stroke-miterlimit: 2; opacity: 1;"><g class="fills"/><g class="errorbars"/><g class="lines"><path class="js-line" d="M0,70.09L15.15,70.09L15.81,72.98L17.12,76.43L17.78,76.43L20.42,76.43L21.08,82.2L23.05,108.13L23.71,108.13L27,116.77L27.66,116.77L30.96,116.77L31.61,119.08L33.59,120.81L34.25,120.81L39.52,120.81L40.18,124.84L41.49,124.84L42.15,132.33L42.81,132.33L43.47,139.83L45.44,152.5L46.1,152.5L56.64,152.5L57.3,139.83L57.96,128.88L58.62,132.33L59.28,130.6L60.59,124.84L61.25,124.84L64.54,124.84L65.2,123.11L66.52,120.81L67.18,120.81L75.74,120.81L76.4,123.11L78.38,124.84L79.03,124.84L87.6,124.84L88.26,120.81L90.89,98.33L91.55,98.33L93.52,98.33L94.18,66.64L94.84,66.64L95.5,63.76L123.82,63.76L124.48,70.09L125.14,72.98L125.8,70.09L127.11,76.43L127.77,76.43L129.75,76.43L130.41,66.64L131.72,56.84L132.38,56.84L133.04,56.84L133.7,45.89L136.33,16.5L136.99,16.5L143.58,56.84L144.9,56.84L146.21,49.35L146.87,53.38L148.19,87.96L148.85,76.43L149.51,76.43L157.41,76.43L158.07,72.98L160.04,63.76L160.7,93.15L163.34,93.15L165.31,116.77L167.29,120.81L167.95,138.1L169.27,152.5L169.92,152.5L171.24,152.5L171.9,146.16L173.88,155.39L174.53,143.28L175.19,136.37" style="vector-effect: non-scaling-stroke; fill: none; stroke: rgb(239, 85, 59); stroke-opacity: 1; stroke-width: 5px; opacity: 1;"/></g><g class="points"/><g class="text"/></g><g class="trace scatter trace8a3a38" style="stroke-miterlimit: 2; opacity: 1;"><g class="fills"/><g class="errorbars"/><g class="lines"><path class="js-line" d="M0,163.45L15.81,162.3L16.47,160.57L39.52,160.57L40.18,152.5L41.49,152.5L42.15,146.16L42.81,146.16L43.47,130.6L45.44,93.15L46.1,93.15L50.06,93.15L50.71,90.26L52.03,87.96L52.69,87.96L56.64,87.96L57.3,93.15L59.28,108.13L59.93,108.13L87.6,108.13L88.26,110.43L90.23,116.77L90.89,116.77L91.55,116.77L92.21,119.08L92.87,119.08L93.52,116.77L95.5,143.28L96.16,143.28L98.13,143.28L98.79,147.89L101.43,158.27L102.09,158.27L110.65,158.27L111.31,163.45L111.97,168.64L112.62,184.2L113.94,196.88L114.6,196.88L121.84,196.88L122.5,204.37L123.82,211.28L124.48,209.56L126.46,211.28L127.11,211.28L131.72,241.25L132.38,241.25L133.7,241.25L134.36,251.05L135.68,259.12L136.33,259.12L136.99,259.12L142.26,173.25L143.58,160.57L144.9,160.57L146.21,173.25L146.87,173.25L148.85,177.86L149.51,177.86L152.8,177.86L153.46,179.59L158.73,179.59L159.39,177.86L160.04,177.86L160.7,158.27L163.34,158.27L165.31,155.39L167.29,155.39L167.95,169.79L169.27,185.93L169.92,185.93L172.56,185.93L173.22,189.96L175.19,189.96" style="vector-effect: non-scaling-stroke; fill: none; stroke: rgb(0, 204, 150); stroke-opacity: 1; stroke-width: 5px; opacity: 1;"/></g><g class="points"/><g class="text"/></g></g></g><g class="overplot"/><path class="xlines-above crisp" d="M0,0" style="fill: none;"/><path class="ylines-above crisp" d="M0,0" style="fill: none;"/><g class="overlines-above"/><g class="xaxislayer-above"><g class="xtick"><text text-anchor="middle" x="0" y="363" transform="translate(71.73,0)" style="font-family: 'Open Sans', verdana, arial, sans-serif; font-size: 12px; fill: rgb(42, 63, 95); fill-opacity: 1; white-space: pre; opacity: 1;">1.5.22</text></g><g class="xtick"><text text-anchor="middle" x="0" y="363" style="font-family: 'Open Sans', verdana, arial, sans-serif; font-size: 12px; fill: rgb(42, 63, 95); fill-opacity: 1; white-space: pre; opacity: 1;" transform="translate(111.91,0)">1.7.22</text></g><g class="xtick"><text text-anchor="middle" x="0" y="363" style="font-family: 'Open Sans', verdana, arial, sans-serif; font-size: 12px; fill: rgb(42, 63, 95); fill-opacity: 1; white-space: pre; opacity: 1;" transform="translate(152.74,0)">1.9.22</text></g><g class="xtick"><text text-anchor="middle" x="0" y="363" style="font-family: 'Open Sans', verdana, arial, sans-serif; font-size: 12px; fill: rgb(42, 63, 95); fill-opacity: 1; white-space: pre; opacity: 1;" transform="translate(192.92,0)">1.11.22</text></g><g class="xtick"><text text-anchor="middle" x="0" y="363" style="font-family: 'Open Sans', verdana, arial, sans-serif; font-size: 12px; fill: rgb(42, 63, 95); fill-opacity: 1; white-space: pre; opacity: 1;" transform="translate(233.1,0)">1.1.23</text></g></g><g class="yaxislayer-above"><g class="ytick"><text text-anchor="end" x="49" y="4.199999999999999" transform="translate(0,350)" style="font-family: 'Open Sans', verdana, arial, sans-serif; font-size: 12px; fill: rgb(42, 63, 95); fill-opacity: 1; white-space: pre; opacity: 1;">0%</text></g><g class="ytick"><text text-anchor="end" x="49" y="4.199999999999999" style="font-family: 'Open Sans', verdana, arial, sans-serif; font-size: 12px; fill: rgb(42, 63, 95); fill-opacity: 1; white-space: pre; opacity: 1;" transform="translate(0,292.37)">10%</text></g><g class="ytick"><text text-anchor="end" x="49" y="4.199999999999999" style="font-family: 'Open Sans', verdana, arial, sans-serif; font-size: 12px; fill: rgb(42, 63, 95); fill-opacity: 1; white-space: pre; opacity: 1;" transform="translate(0,234.74)">20%</text></g><g class="ytick"><text text-anchor="end" x="49" y="4.199999999999999" style="font-family: 'Open Sans', verdana, arial, sans-serif; font-size: 12px; fill: rgb(42, 63, 95); fill-opacity: 1; white-space: pre; opacity: 1;" transform="translate(0,177.11)">30%</text></g><g class="ytick"><text text-anchor="end" x="49" y="4.199999999999999" style="font-family: 'Open Sans', verdana, arial, sans-serif; font-size: 12px; fill: rgb(42, 63, 95); fill-opacity: 1; white-space: pre; opacity: 1;" transform="translate(0,119.49)">40%</text></g><g class="ytick"><text text-anchor="end" x="49" y="4.199999999999999" style="font-family: 'Open Sans', verdana, arial, sans-serif; font-size: 12px; fill: rgb(42, 63, 95); fill-opacity: 1; white-space: pre; opacity: 1;" transform="translate(0,61.86)">50%</text></g></g><g class="overaxes-above"/></g></g><g class="polarlayer"/><g class="smithlayer"/><g class="ternarylayer"/><g class="geolayer"/><g class="funnelarealayer"/><g class="pielayer"/><g class="iciclelayer"/><g class="treemaplayer"/><g class="sunburstlayer"/><g class="glimages"/><defs id="topdefs-b1bb9a"><g class="clips"/><clipPath id="legendb1bb9a"><rect width="143" height="67" x="0" y="0"/></clipPath></defs><g class="layer-above"><g class="imagelayer"/><g class="shapelayer"/></g><g class="infolayer"><g class="legend" pointer-events="all" transform="translate(244.82,20)"><rect class="bg" shape-rendering="crispEdges" width="143" height="67" x="0" y="0" style="stroke: rgb(68, 68, 68); stroke-opacity: 1; fill: rgb(255, 255, 255); fill-opacity: 1; stroke-width: 0px;"/><g class="scrollbox" transform="" clip-path="url(#legendb1bb9a)"><g class="groups"><g class="traces" transform="translate(0,14.5)" style="opacity: 1;"><text class="legendtext" text-anchor="start" x="40" y="4.680000000000001" style="font-family: 'Open Sans', verdana, arial, sans-serif; font-size: 12px; fill: rgb(42, 63, 95); fill-opacity: 1; white-space: pre;">Nerudová Danuše</text><g class="layers" style="opacity: 1;"><g class="legendfill"/><g class="legendlines"><path class="js-line" d="M5,0h30" style="fill: none; stroke: rgb(99, 110, 250); stroke-opacity: 1; stroke-width: 5px;"/></g><g class="legendsymbols"><g class="legendpoints"/></g></g><rect class="legendtoggle" x="0" y="-9.5" width="137.0625" height="19" style="fill: rgb(0, 0, 0); fill-opacity: 0;"/></g><g class="traces" transform="translate(0,33.5)" style="opacity: 1;"><text class="legendtext" text-anchor="start" x="40" y="4.680000000000001" style="font-family: 'Open Sans', verdana, arial, sans-serif; font-size: 12px; fill: rgb(42, 63, 95); fill-opacity: 1; white-space: pre;">Pavel Petr</text><g class="layers" style="opacity: 1;"><g class="legendfill"/><g class="legendlines"><path class="js-line" d="M5,0h30" style="fill: none; stroke: rgb(239, 85, 59); stroke-opacity: 1; stroke-width: 5px;"/></g><g class="legendsymbols"><g class="legendpoints"/></g></g><rect class="legendtoggle" x="0" y="-9.5" width="137.0625" height="19" style="fill: rgb(0, 0, 0); fill-opacity: 0;"/></g><g class="traces" transform="translate(0,52.5)" style="opacity: 1;"><text class="legendtext" text-anchor="start" x="40" y="4.680000000000001" style="font-family: 'Open Sans', verdana, arial, sans-serif; font-size: 12px; fill: rgb(42, 63, 95); fill-opacity: 1; white-space: pre;">Babiš Andrej</text><g class="layers" style="opacity: 1;"><g class="legendfill"/><g class="legendlines"><path class="js-line" d="M5,0h30" style="fill: none; stroke: rgb(0, 204, 150); stroke-opacity: 1; stroke-width: 5px;"/></g><g class="legendsymbols"><g class="legendpoints"/></g></g><rect class="legendtoggle" x="0" y="-9.5" width="137.0625" height="19" style="fill: rgb(0, 0, 0); fill-opacity: 0;"/></g></g></g><rect class="scrollbar" rx="20" ry="3" width="0" height="0" x="0" y="0" style="fill: rgb(128, 139, 164); fill-opacity: 1;"/></g><g class="g-gtitle"/><g class="g-xtitle"/><g class="g-ytitle"/></g></svg>