<svg class="main-svg" xmlns="http://www.w3.org/2000/svg" xmlns:xlink="http://www.w3.org/1999/xlink" width="300" height="135" style="" viewBox="0 0 300 135"><rect x="0" y="0" width="300" height="135" style="fill: rgb(255, 255, 255); fill-opacity: 1;"/><defs id="defs-3db75b"><g class="clips"><clipPath id="clip3db75bxyplot" class="plotclip"><rect width="280" height="75"/></clipPath><clipPath class="axesclip" id="clip3db75bx"><rect x="10" y="0" width="280" height="135"/></clipPath><clipPath class="axesclip" id="clip3db75by"><rect x="0" y="50" width="300" height="75"/></clipPath><clipPath class="axesclip" id="clip3db75bxy"><rect x="10" y="50" width="280" height="75"/></clipPath></g><g class="gradients"/><g class="patterns"/></defs><g class="bglayer"/><g class="layer-below"><g class="imagelayer"/><g class="shapelayer"/></g><g class="cartesianlayer"><g class="subplot xy"><g class="layer-subplot"><g class="shapelayer"/><g class="imagelayer"/></g><g class="minor-gridlayer"><g class="x"/><g class="y"/></g><g class="gridlayer"><g class="x"><path class="xgrid crisp" transform="translate(46.52,0)" d="M0,50v75" style="stroke: rgb(235, 240, 248); stroke-opacity: 1; stroke-width: 1px;"/><path class="xgrid crisp" transform="translate(114.03,0)" d="M0,50v75" style="stroke: rgb(235, 240, 248); stroke-opacity: 1; stroke-width: 1px;"/><path class="xgrid crisp" transform="translate(182.65,0)" d="M0,50v75" style="stroke: rgb(235, 240, 248); stroke-opacity: 1; stroke-width: 1px;"/><path class="xgrid crisp" transform="translate(250.16,0)" d="M0,50v75" style="stroke: rgb(235, 240, 248); stroke-opacity: 1; stroke-width: 1px;"/></g><g class="y"><path class="ygrid crisp" transform="translate(0,96.84)" d="M10,0h280" style="stroke: rgb(235, 240, 248); stroke-opacity: 1; stroke-width: 1px;"/><path class="ygrid crisp" transform="translate(0,68.68)" d="M10,0h280" style="stroke: rgb(235, 240, 248); stroke-opacity: 1; stroke-width: 1px;"/></g></g><g class="zerolinelayer"><path class="yzl zl crisp" transform="translate(0,125)" d="M10,0h280" style="stroke: rgb(235, 240, 248); stroke-opacity: 1; stroke-width: 2px;"/></g><path class="xlines-below"/><path class="ylines-below"/><g class="overlines-below"/><g class="xaxislayer-below"/><g class="yaxislayer-below"/><g class="overaxes-below"/><g class="plot" transform="translate(10,50)" clip-path="url(#clip3db75bxyplot)"><g class="scatterlayer mlayer"><g class="trace scatter tracea4833f" style="stroke-miterlimit: 2; opacity: 1;"><g class="fills"/><g class="errorbars"/><g class="lines"><path class="js-line" d="M0,16L26.56,16.7L27.67,17.41L34.31,17.41L35.42,18.68L38.74,24.59L39.84,24.59L47.59,26.56L48.7,26.56L66.4,27.55L67.51,28.39L69.72,28.39L70.83,30.22L71.94,30.22L73.04,31.77L75.26,34.31L76.36,34.59L95.18,34.59L96.28,31.77L97.39,29.38L98.5,30.22L104.03,28.39L105.14,28.39L148.3,27.55L149.41,25.01L152.73,22.34L153.83,22.34L157.15,22.34L158.26,15.16L208.06,14.45L209.17,16L213.6,17.41L214.7,17.41L218.02,17.41L219.13,15.16L221.34,12.9L222.45,12.9L223.56,12.9L224.66,10.37L227.98,3.75L229.09,3.75L230.2,3.75L239.05,11.21L241.26,12.9L243.48,12.9L245.69,11.21L246.8,12.06L249.01,19.94L250.12,17.41L265.61,16.7L266.72,15.16L268.93,14.45L270.04,21.21L274.47,21.21L277.79,26.56L280,27.55" style="vector-effect: non-scaling-stroke; fill: none; stroke: rgb(99, 110, 250); stroke-opacity: 1; stroke-width: 5px; opacity: 1;"/></g><g class="points"/><g class="text"/></g><g class="trace scatter tracee5982e" style="stroke-miterlimit: 2; opacity: 1;"><g class="fills"/><g class="errorbars"/><g class="lines"><path class="js-line" d="M0,64.44L35.42,64.86L36.52,65.99L38.74,66.97L39.84,66.97L69.72,66.97L70.83,62.89L75.26,64.02L76.36,64.44L80.79,64.02L81.9,64.02L86.32,62.89L87.43,62.89L126.17,62.89L127.27,61.48L129.49,57.68L130.59,57.68L144.98,57.68L146.09,56.41L148.3,55.57L149.41,54.86L151.62,53.74L152.73,52.61L154.94,51.77L156.05,50.36L158.26,50.08L159.37,50.08L163.79,49.51L164.9,49.51L187.04,50.22L188.14,50.78L191.46,48.11L192.57,48.11L209.17,47.12L210.28,46.13L211.38,46.13L212.49,47.54L214.7,48.11L215.81,46.56L218.02,44.73L219.13,44.02L221.34,43.18L222.45,43.18L224.66,43.6L225.77,41.35L227.98,38.25L229.09,38.25L230.2,38.25L239.05,43.74L241.26,44.73L243.48,44.73L245.69,45.43L246.8,45.15L250.12,40.36L251.23,40.36L265.61,39.38L266.72,38.81L267.83,39.38L268.93,38.25L271.15,36L272.25,36L274.47,36L277.79,30.22L280,28.39" style="vector-effect: non-scaling-stroke; fill: none; stroke: rgb(239, 85, 59); stroke-opacity: 1; stroke-width: 5px; opacity: 1;"/></g><g class="points"/><g class="text"/></g><g class="trace scatter tracecfb2b9" style="stroke-miterlimit: 2; opacity: 1;"><g class="fills"/><g class="errorbars"/><g class="lines"><path class="js-line" d="M0,37.12L66.4,36.56L67.51,34.59L69.72,34.59L70.83,33.18L71.94,33.18L73.04,29.8L75.26,22.9L76.36,21.21L85.22,20.65L86.32,19.94L95.18,19.94L96.28,21.21L98.5,24.59L99.6,24.59L148.3,25.01L149.41,26.14L154.94,26.98L156.05,26.98L157.15,26.56L158.26,31.35L161.58,32.48L162.69,32.48L166.01,33.6L167.11,34.59L169.33,35.29L170.43,36L187.04,37.12L188.14,38.25L191.46,44.73L192.57,44.73L204.74,44.73L205.85,46.56L208.06,48.11L209.17,47.68L215.81,50.08L216.92,50.78L218.02,50.78L219.13,53.03L221.34,54.86L222.45,54.86L224.66,54.86L225.77,57.12L227.98,58.81L229.09,58.81L230.2,58.81L239.05,39.38L241.26,36.56L243.48,36.56L245.69,39.38L246.8,39.38L251.23,40.36L252.33,40.36L268.93,40.36L270.04,36L280,35.29" style="vector-effect: non-scaling-stroke; fill: none; stroke: rgb(0, 204, 150); stroke-opacity: 1; stroke-width: 5px; opacity: 1;"/></g><g class="points"/><g class="text"/></g><g class="trace scatter trace502fc5" style="stroke-miterlimit: 2; opacity: 1;"><g class="fills"/><g class="errorbars"/><g class="lines"><path class="js-line" d="M0,63.45L71.94,64.02L73.04,64.3L87.43,64.86L88.54,64.86L153.83,65.99L154.94,66.13L159.37,67.4L160.47,67.4L208.06,66.69L209.17,65.28L214.7,66.41L215.81,66.41L224.66,66.41L225.77,67.82L227.98,69.51L229.09,69.51L268.93,70.49L270.04,72.04L280,72.04" style="vector-effect: non-scaling-stroke; fill: none; stroke: rgb(171, 99, 250); stroke-opacity: 1; stroke-width: 5px; opacity: 1;"/></g><g class="points"/><g class="text"/></g><g class="trace scatter trace8b8487" style="stroke-miterlimit: 2; opacity: 1;"><g class="fills"/><g class="errorbars"/><g class="lines"><path class="js-line" d="M0,71.62L127.27,71.06L128.38,70.49L249.01,71.48L250.12,71.62L261.19,71.76L262.29,71.76L280,72.61" style="vector-effect: non-scaling-stroke; fill: none; stroke: rgb(255, 161, 90); stroke-opacity: 1; stroke-width: 5px; opacity: 1;"/></g><g class="points"/><g class="text"/></g></g></g><g class="overplot"/><path class="xlines-above crisp" d="M0,0" style="fill: none;"/><path class="ylines-above crisp" d="M0,0" style="fill: none;"/><g class="overlines-above"/><g class="xaxislayer-above"/><g class="yaxislayer-above"/><g class="overaxes-above"/></g></g><g class="polarlayer"/><g class="smithlayer"/><g class="ternarylayer"/><g class="geolayer"/><g class="funnelarealayer"/><g class="pielayer"/><g class="iciclelayer"/><g class="treemaplayer"/><g class="sunburstlayer"/><g class="glimages"/><defs id="topdefs-3db75b"><g class="clips"/></defs><g class="layer-above"><g class="imagelayer"/><g class="shapelayer"/></g><g class="infolayer"><g class="g-gtitle"><text class="gtitle" x="15" y="25" text-anchor="start" dy="0em" style="font-family: Ubuntu, verdana, arial, sans-serif; font-size: 16px; fill: rgb(233, 84, 32); opacity: 1; font-weight: normal; white-space: pre;">Prezident/ka ČR 2023</text></g><g class="g-xtitle"/><g class="g-ytitle"/></g></svg>