<svg class="main-svg" xmlns="http://www.w3.org/2000/svg" xmlns:xlink="http://www.w3.org/1999/xlink" width="300" height="135" style="" viewBox="0 0 300 135"><rect x="0" y="0" width="300" height="135" style="fill: rgb(255, 255, 255); fill-opacity: 1;"/><defs id="defs-779ea3"><g class="clips"><clipPath id="clip779ea3xyplot" class="plotclip"><rect width="280" height="75"/></clipPath><clipPath class="axesclip" id="clip779ea3x"><rect x="10" y="0" width="280" height="135"/></clipPath><clipPath class="axesclip" id="clip779ea3y"><rect x="0" y="50" width="300" height="75"/></clipPath><clipPath class="axesclip" id="clip779ea3xy"><rect x="10" y="50" width="280" height="75"/></clipPath></g><g class="gradients"/><g class="patterns"/></defs><g class="bglayer"/><g class="layer-below"><g class="imagelayer"/><g class="shapelayer"/></g><g class="cartesianlayer"><g class="subplot xy"><g class="layer-subplot"><g class="shapelayer"/><g class="imagelayer"/></g><g class="minor-gridlayer"><g class="x"/><g class="y"/></g><g class="gridlayer"><g class="x"><path class="xgrid crisp" transform="translate(70,0)" d="M0,50v75" style="stroke: rgb(235, 240, 248); stroke-opacity: 1; stroke-width: 1px;"/><path class="xgrid crisp" transform="translate(180.91,0)" d="M0,50v75" style="stroke: rgb(235, 240, 248); stroke-opacity: 1; stroke-width: 1px;"/></g><g class="y"><path class="ygrid crisp" transform="translate(0,106.35)" d="M10,0h280" style="stroke: rgb(235, 240, 248); stroke-opacity: 1; stroke-width: 1px;"/><path class="ygrid crisp" transform="translate(0,87.7)" d="M10,0h280" style="stroke: rgb(235, 240, 248); stroke-opacity: 1; stroke-width: 1px;"/><path class="ygrid crisp" transform="translate(0,69.03999999999999)" d="M10,0h280" style="stroke: rgb(235, 240, 248); stroke-opacity: 1; stroke-width: 1px;"/></g></g><g class="zerolinelayer"><path class="yzl zl crisp" transform="translate(0,125)" d="M10,0h280" style="stroke: rgb(235, 240, 248); stroke-opacity: 1; stroke-width: 2px;"/></g><path class="xlines-below"/><path class="ylines-below"/><g class="overlines-below"/><g class="xaxislayer-below"/><g class="yaxislayer-below"/><g class="overaxes-below"/><g class="plot" transform="translate(10,50)" clip-path="url(#clip779ea3xyplot)"><g class="scatterlayer mlayer"><g class="trace scatter trace8929d0" style="stroke-miterlimit: 2; opacity: 1;"><g class="fills"/><g class="errorbars"/><g class="lines"><path class="js-line" d="M0,5.43L43.64,6.36L45.45,7.11L56.36,7.11L58.18,8.79L61.82,15.69L63.64,15.69L70.91,16.81L72.73,17.37L78.18,17.93L80,17.93L109.09,19.04L110.91,20.16L114.55,20.16L116.36,22.22L118.18,22.22L120,24.08L123.64,27.06L125.45,27.44L156.36,27.44L158.18,24.08L160,21.28L161.82,22.22L169.09,20.16L170.91,20.16L243.64,19.04L245.45,16.25L249.09,13.64L250.91,13.08L258.18,13.08L260,4.68L280,3.75" style="vector-effect: non-scaling-stroke; fill: none; stroke: rgb(99, 110, 250); stroke-opacity: 1; stroke-width: 5px; opacity: 1;"/></g><g class="points"/><g class="text"/></g><g class="trace scatter trace0eb282" style="stroke-miterlimit: 2; opacity: 1;"><g class="fills"/><g class="errorbars"/><g class="lines"><path class="js-line" d="M0,30.42L109.09,29.86L110.91,27.44L114.55,27.44L116.36,25.95L118.18,25.95L120,21.66L123.64,13.64L125.45,11.77L140,11.02L141.82,10.28L156.36,10.28L158.18,11.77L161.82,15.69L163.64,15.69L243.64,16.25L245.45,17.37L250.91,17.93L252.73,17.93L256.36,18.67L258.18,17.93L260,23.71L261.82,24.64L269.09,25.01L270.91,25.01L276.36,27.44L278.18,28.37L280,29.12" style="vector-effect: non-scaling-stroke; fill: none; stroke: rgb(239, 85, 59); stroke-opacity: 1; stroke-width: 5px; opacity: 1;"/></g><g class="points"/><g class="text"/></g><g class="trace scatter tracefe9622" style="stroke-miterlimit: 2; opacity: 1;"><g class="fills"/><g class="errorbars"/><g class="lines"><path class="js-line" d="M0,62.69L58.18,63.06L60,64.37L63.64,65.49L65.45,65.49L114.55,65.49L116.36,60.82L121.82,61.38L123.64,62.13L127.27,62.13L129.09,62.13L136.36,61.38L138.18,60.82L207.27,60.82L209.09,59.15L212.73,54.67L214.55,54.67L238.18,54.67L240,52.99L243.64,52.24L245.45,51.31L247.27,51.31L249.09,50.01L256.36,45.9L258.18,45.34L261.82,45.72L263.64,45.16L276.36,44.97L278.18,44.97L280,44.97" style="vector-effect: non-scaling-stroke; fill: none; stroke: rgb(0, 204, 150); stroke-opacity: 1; stroke-width: 5px; opacity: 1;"/></g><g class="points"/><g class="text"/></g><g class="trace scatter tracef4d2a0" style="stroke-miterlimit: 2; opacity: 1;"><g class="fills"/><g class="errorbars"/><g class="lines"><path class="js-line" d="M0,68.47L56.36,68.47L58.18,66.05L61.82,64.74L63.64,64.74L72.73,63.62L74.55,63.06L121.82,63.06L123.64,64.18L129.09,64.74L130.91,64.74L138.18,64.37L140,64.18L158.18,63.06L160,64.37L163.64,65.49L165.45,65.49L209.09,65.49L210.91,66.05L261.82,66.42L263.64,65.49L267.27,64.74L269.09,64.74L280,64.74" style="vector-effect: non-scaling-stroke; fill: none; stroke: rgb(171, 99, 250); stroke-opacity: 1; stroke-width: 5px; opacity: 1;"/></g><g class="points"/><g class="text"/></g><g class="trace scatter traceab9425" style="stroke-miterlimit: 2; opacity: 1;"><g class="fills"/><g class="errorbars"/><g class="lines"><path class="js-line" d="M0,61.38L72.73,61.38L74.55,62.13L207.27,63.06L209.09,63.62L216.36,64L218.18,64L256.36,65.11L258.18,65.49L263.64,66.05L265.45,66.05L280,66.05" style="vector-effect: non-scaling-stroke; fill: none; stroke: rgb(255, 161, 90); stroke-opacity: 1; stroke-width: 5px; opacity: 1;"/></g><g class="points"/><g class="text"/></g></g></g><g class="overplot"/><path class="xlines-above crisp" d="M0,0" style="fill: none;"/><path class="ylines-above crisp" d="M0,0" style="fill: none;"/><g class="overlines-above"/><g class="xaxislayer-above"/><g class="yaxislayer-above"/><g class="overaxes-above"/></g></g><g class="polarlayer"/><g class="smithlayer"/><g class="ternarylayer"/><g class="geolayer"/><g class="funnelarealayer"/><g class="pielayer"/><g class="iciclelayer"/><g class="treemaplayer"/><g class="sunburstlayer"/><g class="glimages"/><defs id="topdefs-779ea3"><g class="clips"/></defs><g class="layer-above"><g class="imagelayer"/><g class="shapelayer"/></g><g class="infolayer"><g class="g-gtitle"><text class="gtitle" x="15" y="25" text-anchor="start" dy="0em" style="font-family: Ubuntu, verdana, arial, sans-serif; font-size: 16px; fill: rgb(233, 84, 32); opacity: 1; font-weight: normal; white-space: pre;">Prezident/ka ČR 2023</text></g><g class="g-xtitle"/><g class="g-ytitle"/></g></svg>