<svg class="main-svg" xmlns="http://www.w3.org/2000/svg" xmlns:xlink="http://www.w3.org/1999/xlink" width="400" height="400" style="" viewBox="0 0 400 400"><rect x="0" y="0" width="400" height="400" style="fill: rgb(255, 255, 255); fill-opacity: 1;"/><defs id="defs-c50160"><g class="clips"><clipPath id="clipc50160xyplot" class="plotclip"><rect width="191" height="330"/></clipPath><clipPath class="axesclip" id="clipc50160x"><rect x="50" y="0" width="191" height="400"/></clipPath><clipPath class="axesclip" id="clipc50160y"><rect x="0" y="20" width="400" height="330"/></clipPath><clipPath class="axesclip" id="clipc50160xy"><rect x="50" y="20" width="191" height="330"/></clipPath></g><g class="gradients"/><g class="patterns"/></defs><g class="bglayer"/><g class="layer-below"><g class="imagelayer"/><g class="shapelayer"/></g><g class="cartesianlayer"><g class="subplot xy"><g class="layer-subplot"><g class="shapelayer"/><g class="imagelayer"/></g><g class="minor-gridlayer"><g class="x"/><g class="y"/></g><g class="gridlayer"><g class="x"><path class="xgrid crisp" transform="translate(71.73,0)" d="M0,20v330" style="stroke: rgb(235, 240, 248); stroke-opacity: 1; stroke-width: 1px;"/><path class="xgrid crisp" transform="translate(111.91,0)" d="M0,20v330" style="stroke: rgb(235, 240, 248); stroke-opacity: 1; stroke-width: 1px;"/><path class="xgrid crisp" transform="translate(152.74,0)" d="M0,20v330" style="stroke: rgb(235, 240, 248); stroke-opacity: 1; stroke-width: 1px;"/><path class="xgrid crisp" transform="translate(192.92,0)" d="M0,20v330" style="stroke: rgb(235, 240, 248); stroke-opacity: 1; stroke-width: 1px;"/><path class="xgrid crisp" transform="translate(233.1,0)" d="M0,20v330" style="stroke: rgb(235, 240, 248); stroke-opacity: 1; stroke-width: 1px;"/></g><g class="y"><path class="ygrid crisp" transform="translate(0,292.79)" d="M50,0h191" style="stroke: rgb(235, 240, 248); stroke-opacity: 1; stroke-width: 1px;"/><path class="ygrid crisp" transform="translate(0,235.58)" d="M50,0h191" style="stroke: rgb(235, 240, 248); stroke-opacity: 1; stroke-width: 1px;"/><path class="ygrid crisp" transform="translate(0,178.38)" d="M50,0h191" style="stroke: rgb(235, 240, 248); stroke-opacity: 1; stroke-width: 1px;"/><path class="ygrid crisp" transform="translate(0,121.17)" d="M50,0h191" style="stroke: rgb(235, 240, 248); stroke-opacity: 1; stroke-width: 1px;"/><path class="ygrid crisp" transform="translate(0,63.96)" d="M50,0h191" style="stroke: rgb(235, 240, 248); stroke-opacity: 1; stroke-width: 1px;"/></g></g><g class="zerolinelayer"><path class="yzl zl crisp" transform="translate(0,350)" d="M50,0h191" style="stroke: rgb(235, 240, 248); stroke-opacity: 1; stroke-width: 2px;"/></g><path class="xlines-below"/><path class="ylines-below"/><g class="overlines-below"/><g class="xaxislayer-below"/><g class="yaxislayer-below"/><g class="overaxes-below"/><g class="plot" transform="translate(50,20)" clip-path="url(#clipc50160xyplot)"><g class="scatterlayer mlayer"><g class="trace scatter tracea15703" style="stroke-miterlimit: 2; opacity: 1;"><g class="fills"/><g class="errorbars"/><g class="lines"><path class="js-line" d="M0,69.7L15.15,69.7L15.81,73.14L17.12,76L17.78,76L20.42,76L21.08,81.72L23.05,108.03L23.71,108.03L27,116.61L27.66,116.61L30.96,116.61L31.61,118.9L33.59,120.62L34.25,120.62L39.52,120.62L40.18,125.2L41.49,125.2L42.15,132.63L42.81,132.63L43.47,139.5L45.44,152.08L46.1,152.08L56.64,152.08L57.3,139.5L57.96,128.63L58.62,132.63L59.28,130.92L60.59,125.2L61.25,125.2L64.54,125.2L65.2,122.91L66.52,120.62L67.18,120.62L75.74,120.62L76.4,122.91L77.72,125.2L78.38,125.2L87.6,125.2L88.26,120.62L90.89,98.31L91.55,98.31L93.52,98.31L94.18,66.84L94.84,66.84L95.5,63.41L123.82,63.41L124.48,69.7L125.14,73.14L125.8,69.7L127.11,76L127.77,76L129.75,76L130.41,66.84L131.72,56.55L132.38,56.55L133.04,56.55L133.7,45.68L136.33,16.5L136.99,16.5L143.58,56.55L144.9,56.55L146.21,49.11L146.87,53.11L148.19,87.44L148.85,76L149.51,76L157.41,76L158.07,73.14L160.04,63.41L160.7,93.16L163.34,93.16L165.31,116.61L167.29,120.62L167.95,137.78L169.27,152.08L169.92,152.08L171.24,152.08L171.9,146.36L173.88,154.94L174.53,142.93L175.85,125.2L176.51,108.03L181.78,108.03L182.44,98.31" style="vector-effect: non-scaling-stroke; fill: none; stroke: rgb(99, 110, 250); stroke-opacity: 1; stroke-width: 5px; opacity: 1;"/></g><g class="points"/><g class="text"/></g><g class="trace scatter trace4cebb6" style="stroke-miterlimit: 2; opacity: 1;"><g class="fills"/><g class="errorbars"/><g class="lines"><path class="js-line" d="M0,283.66L3.29,283.66L3.95,285.38L21.08,285.38L21.73,290.53L23.05,294.53L23.71,294.53L41.49,294.53L42.15,276.8L43.47,277.94L44.13,279.08L45.44,283.66L46.1,281.37L48.74,281.37L49.4,279.08L50.71,276.8L51.37,276.8L75.08,276.8L75.74,270.5L77.72,253.91L78.38,253.91L86.28,253.91L86.94,248.19L87.6,248.19L88.26,244.76L93.52,219.02L94.18,220.16L94.84,220.16L96.82,217.87L97.48,217.87L110.65,217.87L111.31,220.73L111.97,223.59L112.62,217.87L113.94,211.58L114.6,211.58L123.82,211.58L124.48,207.57L125.8,203L126.46,208.72L127.77,211.58L128.43,204.71L130.41,193.27L131.07,189.84L133.04,189.84L133.7,191.56L135.68,168.67L136.33,168.67L136.99,168.67L142.26,192.13L143.58,196.71L144.9,196.71L146.21,200.14L146.87,198.42L148.85,177.83L149.51,177.83L152.8,177.83L153.46,175.54L157.41,174.39L158.07,173.25L158.73,170.96L159.39,173.25L161.36,157.8L162.02,157.8L163.34,157.8L165.31,132.63L167.29,125.2L167.95,100.6L169.27,69.7L169.92,69.7L171.24,69.7L171.9,76L173.88,63.41L174.53,76L177.17,108.03L177.83,108.03L181.78,108.03L182.44,116.61" style="vector-effect: non-scaling-stroke; fill: none; stroke: rgb(239, 85, 59); stroke-opacity: 1; stroke-width: 5px; opacity: 1;"/></g><g class="points"/><g class="text"/></g><g class="trace scatter trace7627ac" style="stroke-miterlimit: 2; opacity: 1;"><g class="fills"/><g class="errorbars"/><g class="lines"><path class="js-line" d="M0,163.52L15.15,163.52L15.81,161.81L17.78,160.66L18.44,160.66L39.52,160.66L40.18,152.08L41.49,152.08L42.15,146.36L42.81,146.36L43.47,130.92L45.44,93.16L46.1,93.16L50.06,93.16L50.71,90.3L52.03,87.44L52.69,87.44L56.64,87.44L57.3,93.16L59.28,108.03L59.93,108.03L87.6,108.03L88.26,110.32L90.23,116.61L90.89,116.61L91.55,116.61L92.21,118.9L92.87,118.9L93.52,116.61L95.5,142.93L96.16,142.93L98.13,142.93L98.79,147.51L101.43,157.8L102.09,157.8L110.65,157.8L111.31,163.52L111.97,168.67L112.62,184.12L113.94,196.71L114.6,196.71L121.84,196.71L122.5,204.71L123.82,211.58L124.48,209.29L125.8,211.58L126.46,211.58L127.11,211.58L127.77,216.73L130.41,233.32L131.07,241.33L133.7,241.33L134.36,251.05L135.68,259.06L136.33,259.06L136.99,259.06L142.26,173.25L143.58,160.66L144.9,160.66L146.21,173.25L146.87,173.25L148.85,177.83L149.51,177.83L152.8,177.83L153.46,179.54L158.73,179.54L159.39,177.83L160.04,177.83L160.7,157.8L163.34,157.8L165.31,154.94L167.29,154.94L167.95,169.82L169.27,185.84L169.92,185.84L172.56,185.84L173.22,189.84L175.19,189.84L175.85,193.27L177.17,196.71L177.83,196.71L181.78,196.71L182.44,203" style="vector-effect: non-scaling-stroke; fill: none; stroke: rgb(0, 204, 150); stroke-opacity: 1; stroke-width: 5px; opacity: 1;"/></g><g class="points"/><g class="text"/></g></g></g><g class="overplot"/><path class="xlines-above crisp" d="M0,0" style="fill: none;"/><path class="ylines-above crisp" d="M0,0" style="fill: none;"/><g class="overlines-above"/><g class="xaxislayer-above"><g class="xtick"><text text-anchor="middle" x="0" y="363" transform="translate(71.73,0)" style="font-family: 'Open Sans', verdana, arial, sans-serif; font-size: 12px; fill: rgb(42, 63, 95); fill-opacity: 1; white-space: pre; opacity: 1;">1.5.22</text></g><g class="xtick"><text text-anchor="middle" x="0" y="363" style="font-family: 'Open Sans', verdana, arial, sans-serif; font-size: 12px; fill: rgb(42, 63, 95); fill-opacity: 1; white-space: pre; opacity: 1;" transform="translate(111.91,0)">1.7.22</text></g><g class="xtick"><text text-anchor="middle" x="0" y="363" style="font-family: 'Open Sans', verdana, arial, sans-serif; font-size: 12px; fill: rgb(42, 63, 95); fill-opacity: 1; white-space: pre; opacity: 1;" transform="translate(152.74,0)">1.9.22</text></g><g class="xtick"><text text-anchor="middle" x="0" y="363" style="font-family: 'Open Sans', verdana, arial, sans-serif; font-size: 12px; fill: rgb(42, 63, 95); fill-opacity: 1; white-space: pre; opacity: 1;" transform="translate(192.92,0)">1.11.22</text></g><g class="xtick"><text text-anchor="middle" x="0" y="363" style="font-family: 'Open Sans', verdana, arial, sans-serif; font-size: 12px; fill: rgb(42, 63, 95); fill-opacity: 1; white-space: pre; opacity: 1;" transform="translate(233.1,0)">1.1.23</text></g></g><g class="yaxislayer-above"><g class="ytick"><text text-anchor="end" x="49" y="4.199999999999999" transform="translate(0,350)" style="font-family: 'Open Sans', verdana, arial, sans-serif; font-size: 12px; fill: rgb(42, 63, 95); fill-opacity: 1; white-space: pre; opacity: 1;">0%</text></g><g class="ytick"><text text-anchor="end" x="49" y="4.199999999999999" style="font-family: 'Open Sans', verdana, arial, sans-serif; font-size: 12px; fill: rgb(42, 63, 95); fill-opacity: 1; white-space: pre; opacity: 1;" transform="translate(0,292.79)">10%</text></g><g class="ytick"><text text-anchor="end" x="49" y="4.199999999999999" style="font-family: 'Open Sans', verdana, arial, sans-serif; font-size: 12px; fill: rgb(42, 63, 95); fill-opacity: 1; white-space: pre; opacity: 1;" transform="translate(0,235.58)">20%</text></g><g class="ytick"><text text-anchor="end" x="49" y="4.199999999999999" style="font-family: 'Open Sans', verdana, arial, sans-serif; font-size: 12px; fill: rgb(42, 63, 95); fill-opacity: 1; white-space: pre; opacity: 1;" transform="translate(0,178.38)">30%</text></g><g class="ytick"><text text-anchor="end" x="49" y="4.199999999999999" style="font-family: 'Open Sans', verdana, arial, sans-serif; font-size: 12px; fill: rgb(42, 63, 95); fill-opacity: 1; white-space: pre; opacity: 1;" transform="translate(0,121.17)">40%</text></g><g class="ytick"><text text-anchor="end" x="49" y="4.199999999999999" style="font-family: 'Open Sans', verdana, arial, sans-serif; font-size: 12px; fill: rgb(42, 63, 95); fill-opacity: 1; white-space: pre; opacity: 1;" transform="translate(0,63.96)">50%</text></g></g><g class="overaxes-above"/></g></g><g class="polarlayer"/><g class="smithlayer"/><g class="ternarylayer"/><g class="geolayer"/><g class="funnelarealayer"/><g class="pielayer"/><g class="iciclelayer"/><g class="treemaplayer"/><g class="sunburstlayer"/><g class="glimages"/><defs id="topdefs-c50160"><g class="clips"/><clipPath id="legendc50160"><rect width="143" height="67" x="0" y="0"/></clipPath></defs><g class="layer-above"><g class="imagelayer"/><g class="shapelayer"/></g><g class="infolayer"><g class="legend" pointer-events="all" transform="translate(244.82,20)"><rect class="bg" shape-rendering="crispEdges" width="143" height="67" x="0" y="0" style="stroke: rgb(68, 68, 68); stroke-opacity: 1; fill: rgb(255, 255, 255); fill-opacity: 1; stroke-width: 0px;"/><g class="scrollbox" transform="" clip-path="url(#legendc50160)"><g class="groups"><g class="traces" transform="translate(0,14.5)" style="opacity: 1;"><text class="legendtext" text-anchor="start" x="40" y="4.680000000000001" style="font-family: 'Open Sans', verdana, arial, sans-serif; font-size: 12px; fill: rgb(42, 63, 95); fill-opacity: 1; white-space: pre;">Pavel Petr</text><g class="layers" style="opacity: 1;"><g class="legendfill"/><g class="legendlines"><path class="js-line" d="M5,0h30" style="fill: none; stroke: rgb(99, 110, 250); stroke-opacity: 1; stroke-width: 5px;"/></g><g class="legendsymbols"><g class="legendpoints"/></g></g><rect class="legendtoggle" x="0" y="-9.5" width="137.0625" height="19" style="fill: rgb(0, 0, 0); fill-opacity: 0;"/></g><g class="traces" transform="translate(0,33.5)" style="opacity: 1;"><text class="legendtext" text-anchor="start" x="40" y="4.680000000000001" style="font-family: 'Open Sans', verdana, arial, sans-serif; font-size: 12px; fill: rgb(42, 63, 95); fill-opacity: 1; white-space: pre;">Nerudová Danuše</text><g class="layers" style="opacity: 1;"><g class="legendfill"/><g class="legendlines"><path class="js-line" d="M5,0h30" style="fill: none; stroke: rgb(239, 85, 59); stroke-opacity: 1; stroke-width: 5px;"/></g><g class="legendsymbols"><g class="legendpoints"/></g></g><rect class="legendtoggle" x="0" y="-9.5" width="137.0625" height="19" style="fill: rgb(0, 0, 0); fill-opacity: 0;"/></g><g class="traces" transform="translate(0,52.5)" style="opacity: 1;"><text class="legendtext" text-anchor="start" x="40" y="4.680000000000001" style="font-family: 'Open Sans', verdana, arial, sans-serif; font-size: 12px; fill: rgb(42, 63, 95); fill-opacity: 1; white-space: pre;">Babiš Andrej</text><g class="layers" style="opacity: 1;"><g class="legendfill"/><g class="legendlines"><path class="js-line" d="M5,0h30" style="fill: none; stroke: rgb(0, 204, 150); stroke-opacity: 1; stroke-width: 5px;"/></g><g class="legendsymbols"><g class="legendpoints"/></g></g><rect class="legendtoggle" x="0" y="-9.5" width="137.0625" height="19" style="fill: rgb(0, 0, 0); fill-opacity: 0;"/></g></g></g><rect class="scrollbar" rx="20" ry="3" width="0" height="0" x="0" y="0" style="fill: rgb(128, 139, 164); fill-opacity: 1;"/></g><g class="g-gtitle"/><g class="g-xtitle"/><g class="g-ytitle"/></g></svg>