<svg class="main-svg" xmlns="http://www.w3.org/2000/svg" xmlns:xlink="http://www.w3.org/1999/xlink" width="300" height="135" style="" viewBox="0 0 300 135"><rect x="0" y="0" width="300" height="135" style="fill: rgb(255, 255, 255); fill-opacity: 1;"/><defs id="defs-caa8e7"><g class="clips"><clipPath id="clipcaa8e7xyplot" class="plotclip"><rect width="280" height="75"/></clipPath><clipPath class="axesclip" id="clipcaa8e7x"><rect x="10" y="0" width="280" height="135"/></clipPath><clipPath class="axesclip" id="clipcaa8e7y"><rect x="0" y="50" width="300" height="75"/></clipPath><clipPath class="axesclip" id="clipcaa8e7xy"><rect x="10" y="50" width="280" height="75"/></clipPath></g><g class="gradients"/><g class="patterns"/></defs><g class="bglayer"/><g class="layer-below"><g class="imagelayer"/><g class="shapelayer"/></g><g class="cartesianlayer"><g class="subplot xy"><g class="layer-subplot"><g class="shapelayer"/><g class="imagelayer"/></g><g class="minor-gridlayer"><g class="x"/><g class="y"/></g><g class="gridlayer"><g class="x"><path class="xgrid crisp" transform="translate(46.81,0)" d="M0,50v75" style="stroke: rgb(235, 240, 248); stroke-opacity: 1; stroke-width: 1px;"/><path class="xgrid crisp" transform="translate(114.86,0)" d="M0,50v75" style="stroke: rgb(235, 240, 248); stroke-opacity: 1; stroke-width: 1px;"/><path class="xgrid crisp" transform="translate(184.02,0)" d="M0,50v75" style="stroke: rgb(235, 240, 248); stroke-opacity: 1; stroke-width: 1px;"/><path class="xgrid crisp" transform="translate(252.07,0)" d="M0,50v75" style="stroke: rgb(235, 240, 248); stroke-opacity: 1; stroke-width: 1px;"/></g><g class="y"><path class="ygrid crisp" transform="translate(0,97)" d="M10,0h280" style="stroke: rgb(235, 240, 248); stroke-opacity: 1; stroke-width: 1px;"/><path class="ygrid crisp" transform="translate(0,69.01)" d="M10,0h280" style="stroke: rgb(235, 240, 248); stroke-opacity: 1; stroke-width: 1px;"/></g></g><g class="zerolinelayer"><path class="yzl zl crisp" transform="translate(0,125)" d="M10,0h280" style="stroke: rgb(235, 240, 248); stroke-opacity: 1; stroke-width: 2px;"/></g><path class="xlines-below"/><path class="ylines-below"/><g class="overlines-below"/><g class="xaxislayer-below"/><g class="yaxislayer-below"/><g class="overaxes-below"/><g class="plot" transform="translate(10,50)" clip-path="url(#clipcaa8e7xyplot)"><g class="scatterlayer mlayer"><g class="trace scatter trace411724" style="stroke-miterlimit: 2; opacity: 1;"><g class="fills"/><g class="errorbars"/><g class="lines"><path class="js-line" d="M0,15.93L26.77,16.63L27.89,17.33L34.58,17.33L35.7,18.73L39.04,24.61L40.16,24.61L47.97,26.57L49.08,26.57L66.93,27.55L68.05,28.39L70.28,28.39L71.39,30.21L72.51,30.21L73.63,31.75L75.86,34.27L76.97,34.69L95.94,34.69L97.05,31.75L98.17,29.37L99.28,30.21L104.86,28.39L105.98,28.39L149.48,27.55L150.6,25.03L153.94,22.37L155.06,22.37L158.41,22.37L159.52,15.23L209.72,14.53L210.84,15.93L215.3,17.33L216.41,17.33L219.76,17.33L220.88,15.23L223.11,12.99L224.22,12.99L225.34,12.99L226.45,10.47L229.8,3.75L230.92,3.75L232.03,3.75L240.96,11.31L243.19,12.99L245.42,12.99L247.65,11.31L248.76,12.15L251,19.99L252.11,17.33L267.73,16.63L268.84,15.23L271.08,14.53L272.19,21.25L276.65,21.25L280,26.57" style="vector-effect: non-scaling-stroke; fill: none; stroke: rgb(99, 110, 250); stroke-opacity: 1; stroke-width: 5px; opacity: 1;"/></g><g class="points"/><g class="text"/></g><g class="trace scatter trace8e0a6e" style="stroke-miterlimit: 2; opacity: 1;"><g class="fills"/><g class="errorbars"/><g class="lines"><path class="js-line" d="M0,64.5L35.7,64.92L36.81,66.04L39.04,66.88L40.16,66.88L70.28,66.88L71.39,62.96L75.86,63.94L76.97,64.5L80.32,63.94L81.43,63.94L127.17,62.96L128.29,61.56L130.52,57.64L131.63,57.64L146.14,57.64L147.25,56.38L149.48,55.68L150.6,54.84L152.83,53.72L153.94,52.6L156.18,51.76L157.29,50.36L160.64,50.08L161.75,49.66L172.91,49.52L174.02,49.52L188.53,50.22L189.64,50.78L192.99,48.12L194.1,48.12L210.84,47.14L211.95,46.16L213.07,46.16L214.18,47.42L216.41,48.12L217.53,46.58L219.76,44.76L220.88,43.92L223.11,43.08L224.22,43.08L226.45,43.5L227.57,41.4L229.8,38.33L230.92,38.33L232.03,38.33L240.96,43.64L243.19,44.76L245.42,44.76L247.65,45.46L248.76,45.18L252.11,40.42L253.23,40.42L267.73,39.44L268.84,38.89L269.96,39.44L271.08,38.33L273.31,35.95L274.42,35.95L276.65,35.95L280,30.21" style="vector-effect: non-scaling-stroke; fill: none; stroke: rgb(239, 85, 59); stroke-opacity: 1; stroke-width: 5px; opacity: 1;"/></g><g class="points"/><g class="text"/></g><g class="trace scatter tracee0a3a0" style="stroke-miterlimit: 2; opacity: 1;"><g class="fills"/><g class="errorbars"/><g class="lines"><path class="js-line" d="M0,37.21L66.93,36.65L68.05,34.69L70.28,34.69L71.39,33.29L72.51,33.29L73.63,29.79L75.86,22.93L76.97,21.25L85.9,20.55L87.01,19.99L95.94,19.99L97.05,21.25L99.28,24.61L100.4,24.61L149.48,25.03L150.6,26.15L156.18,27.13L157.29,27.13L158.41,26.57L159.52,31.33L162.87,32.59L163.98,32.59L167.33,33.57L168.45,34.69L170.68,35.39L171.79,35.95L187.41,35.95L188.53,37.21L189.64,38.33L190.76,41.82L192.99,44.76L194.1,44.76L206.37,44.76L207.49,46.58L209.72,48.12L210.84,47.7L217.53,50.08L218.65,50.78L219.76,50.78L220.88,53.02L223.11,54.84L224.22,54.84L226.45,54.84L227.57,57.08L229.8,58.9L230.92,58.9L232.03,58.9L240.96,39.44L243.19,36.65L245.42,36.65L247.65,39.44L248.76,39.44L254.34,40.42L255.46,40.42L271.08,40.42L272.19,35.95L280,35.39" style="vector-effect: non-scaling-stroke; fill: none; stroke: rgb(0, 204, 150); stroke-opacity: 1; stroke-width: 5px; opacity: 1;"/></g><g class="points"/><g class="text"/></g><g class="trace scatter tracea8d60f" style="stroke-miterlimit: 2; opacity: 1;"><g class="fills"/><g class="errorbars"/><g class="lines"><path class="js-line" d="M0,63.52L72.51,63.94L73.63,64.22L79.2,64.5L80.32,64.5L151.71,65.62L152.83,65.9L169.56,67.44L170.68,67.44L208.61,67.86L209.72,66.6L211.95,65.62L213.07,65.62L226.45,66.32L227.57,67.86L229.8,69.54L230.92,69.54L271.08,70.52L272.19,71.92L280,71.92" style="vector-effect: non-scaling-stroke; fill: none; stroke: rgb(171, 99, 250); stroke-opacity: 1; stroke-width: 5px; opacity: 1;"/></g><g class="points"/><g class="text"/></g><g class="trace scatter trace8248bf" style="stroke-miterlimit: 2; opacity: 1;"><g class="fills"/><g class="errorbars"/><g class="lines"><path class="js-line" d="M0,71.64L128.29,71.08L129.4,70.52L251,71.5L252.11,71.64L263.27,71.78L264.38,71.78L280,72.62" style="vector-effect: non-scaling-stroke; fill: none; stroke: rgb(255, 161, 90); stroke-opacity: 1; stroke-width: 5px; opacity: 1;"/></g><g class="points"/><g class="text"/></g></g></g><g class="overplot"/><path class="xlines-above crisp" d="M0,0" style="fill: none;"/><path class="ylines-above crisp" d="M0,0" style="fill: none;"/><g class="overlines-above"/><g class="xaxislayer-above"/><g class="yaxislayer-above"/><g class="overaxes-above"/></g></g><g class="polarlayer"/><g class="smithlayer"/><g class="ternarylayer"/><g class="geolayer"/><g class="funnelarealayer"/><g class="pielayer"/><g class="iciclelayer"/><g class="treemaplayer"/><g class="sunburstlayer"/><g class="glimages"/><defs id="topdefs-caa8e7"><g class="clips"/></defs><g class="layer-above"><g class="imagelayer"/><g class="shapelayer"/></g><g class="infolayer"><g class="g-gtitle"><text class="gtitle" x="15" y="25" text-anchor="start" dy="0em" style="font-family: Ubuntu, verdana, arial, sans-serif; font-size: 16px; fill: rgb(233, 84, 32); opacity: 1; font-weight: normal; white-space: pre;">Prezident/ka ČR 2023</text></g><g class="g-xtitle"/><g class="g-ytitle"/></g></svg>