<svg class="main-svg" xmlns="http://www.w3.org/2000/svg" xmlns:xlink="http://www.w3.org/1999/xlink" width="300" height="135" style="" viewBox="0 0 300 135"><rect x="0" y="0" width="300" height="135" style="fill: rgb(255, 255, 255); fill-opacity: 1;"/><defs id="defs-ccc83a"><g class="clips"><clipPath id="clipccc83axyplot" class="plotclip"><rect width="280" height="75"/></clipPath><clipPath class="axesclip" id="clipccc83ax"><rect x="10" y="0" width="280" height="135"/></clipPath><clipPath class="axesclip" id="clipccc83ay"><rect x="0" y="50" width="300" height="75"/></clipPath><clipPath class="axesclip" id="clipccc83axy"><rect x="10" y="50" width="280" height="75"/></clipPath></g><g class="gradients"/><g class="patterns"/></defs><g class="bglayer"/><g class="layer-below"><g class="imagelayer"/><g class="shapelayer"/></g><g class="cartesianlayer"><g class="subplot xy"><g class="layer-subplot"><g class="shapelayer"/><g class="imagelayer"/></g><g class="minor-gridlayer"><g class="x"/><g class="y"/></g><g class="gridlayer"><g class="x"><path class="xgrid crisp" transform="translate(66,0)" d="M0,50v75" style="stroke: rgb(235, 240, 248); stroke-opacity: 1; stroke-width: 1px;"/><path class="xgrid crisp" transform="translate(169.52,0)" d="M0,50v75" style="stroke: rgb(235, 240, 248); stroke-opacity: 1; stroke-width: 1px;"/><path class="xgrid crisp" transform="translate(274.73,0)" d="M0,50v75" style="stroke: rgb(235, 240, 248); stroke-opacity: 1; stroke-width: 1px;"/></g><g class="y"><path class="ygrid crisp" transform="translate(0,105.53)" d="M10,0h280" style="stroke: rgb(235, 240, 248); stroke-opacity: 1; stroke-width: 1px;"/><path class="ygrid crisp" transform="translate(0,86.07)" d="M10,0h280" style="stroke: rgb(235, 240, 248); stroke-opacity: 1; stroke-width: 1px;"/><path class="ygrid crisp" transform="translate(0,66.6)" d="M10,0h280" style="stroke: rgb(235, 240, 248); stroke-opacity: 1; stroke-width: 1px;"/></g></g><g class="zerolinelayer"><path class="yzl zl crisp" transform="translate(0,125)" d="M10,0h280" style="stroke: rgb(235, 240, 248); stroke-opacity: 1; stroke-width: 2px;"/></g><path class="xlines-below"/><path class="ylines-below"/><g class="overlines-below"/><g class="xaxislayer-below"/><g class="yaxislayer-below"/><g class="overaxes-below"/><g class="plot" transform="translate(10,50)" clip-path="url(#clipccc83axyplot)"><g class="scatterlayer mlayer"><g class="trace scatter trace6859bf" style="stroke-miterlimit: 2; opacity: 1;"><g class="fills"/><g class="errorbars"/><g class="lines"><path class="js-line" d="M0,5.5L40.73,6.28L42.42,7.06L52.61,7.06L54.3,8.81L57.7,15.63L59.39,15.63L66.18,16.79L67.88,17.38L72.97,17.96L74.67,17.96L101.82,19.13L103.52,20.1L106.91,20.1L108.61,22.24L110.3,22.24L112,24.19L115.39,27.11L117.09,27.5L145.94,27.5L147.64,24.19L149.33,21.27L151.03,22.24L157.82,20.1L159.52,20.1L227.39,19.13L229.09,16.21L232.48,13.68L234.18,13.09L240.97,13.09L242.67,4.72L280,3.75" style="vector-effect: non-scaling-stroke; fill: none; stroke: rgb(99, 110, 250); stroke-opacity: 1; stroke-width: 5px; opacity: 1;"/></g><g class="points"/><g class="text"/></g><g class="trace scatter trace347b67" style="stroke-miterlimit: 2; opacity: 1;"><g class="fills"/><g class="errorbars"/><g class="lines"><path class="js-line" d="M0,30.42L101.82,29.84L103.52,27.5L106.91,27.5L108.61,25.94L110.3,25.94L112,21.66L115.39,13.68L117.09,11.73L130.67,10.95L132.36,10.17L145.94,10.17L147.64,11.73L151.03,15.63L152.73,15.63L227.39,16.21L229.09,17.38L234.18,17.96L235.88,17.96L239.27,18.55L240.97,17.96L242.67,23.61L244.36,24.58L251.15,24.97L252.85,24.97L257.94,27.5L259.64,28.28L263.03,29.06L264.73,29.06L280,29.06" style="vector-effect: non-scaling-stroke; fill: none; stroke: rgb(239, 85, 59); stroke-opacity: 1; stroke-width: 5px; opacity: 1;"/></g><g class="points"/><g class="text"/></g><g class="trace scatter tracee715d6" style="stroke-miterlimit: 2; opacity: 1;"><g class="fills"/><g class="errorbars"/><g class="lines"><path class="js-line" d="M0,62.54L54.3,63.13L56,64.49L59.39,65.46L61.09,65.46L106.91,65.46L108.61,60.79L115.39,61.96L117.09,62.54L122.18,61.96L123.88,61.96L193.45,60.79L195.15,59.23L198.55,54.56L200.24,54.56L222.3,54.56L224,53L227.39,52.22L229.09,51.25L232.48,50.08L234.18,48.52L237.58,47.55L239.27,45.99L242.67,45.6L244.36,45.6L251.15,45.02L252.85,45.02L280,45.02" style="vector-effect: non-scaling-stroke; fill: none; stroke: rgb(0, 204, 150); stroke-opacity: 1; stroke-width: 5px; opacity: 1;"/></g><g class="points"/><g class="text"/></g><g class="trace scatter trace1cb830" style="stroke-miterlimit: 2; opacity: 1;"><g class="fills"/><g class="errorbars"/><g class="lines"><path class="js-line" d="M0,68.58L52.61,68.58L54.3,66.05L57.7,64.88L59.39,64.88L66.18,64.1L67.88,63.51L74.67,63.13L76.36,63.13L113.7,63.13L115.39,64.29L120.48,64.88L122.18,64.88L128.97,64.49L130.67,64.29L147.64,63.13L149.33,64.49L152.73,65.46L154.42,65.46L230.79,66.05L232.48,66.43L242.67,66.82L244.36,66.43L249.45,64.88L251.15,64.88L280,64.1" style="vector-effect: non-scaling-stroke; fill: none; stroke: rgb(171, 99, 250); stroke-opacity: 1; stroke-width: 5px; opacity: 1;"/></g><g class="points"/><g class="text"/></g><g class="trace scatter tracedf6118" style="stroke-miterlimit: 2; opacity: 1;"><g class="fills"/><g class="errorbars"/><g class="lines"><path class="js-line" d="M0,61.37L110.3,61.96L112,62.35L123.88,62.54L125.58,62.54L132.36,63.13L134.06,63.13L232.48,64.29L234.18,64.49L240.97,65.46L242.67,66.05L280,66.05" style="vector-effect: non-scaling-stroke; fill: none; stroke: rgb(255, 161, 90); stroke-opacity: 1; stroke-width: 5px; opacity: 1;"/></g><g class="points"/><g class="text"/></g></g></g><g class="overplot"/><path class="xlines-above crisp" d="M0,0" style="fill: none;"/><path class="ylines-above crisp" d="M0,0" style="fill: none;"/><g class="overlines-above"/><g class="xaxislayer-above"/><g class="yaxislayer-above"/><g class="overaxes-above"/></g></g><g class="polarlayer"/><g class="smithlayer"/><g class="ternarylayer"/><g class="geolayer"/><g class="funnelarealayer"/><g class="pielayer"/><g class="iciclelayer"/><g class="treemaplayer"/><g class="sunburstlayer"/><g class="glimages"/><defs id="topdefs-ccc83a"><g class="clips"/></defs><g class="layer-above"><g class="imagelayer"/><g class="shapelayer"/></g><g class="infolayer"><g class="g-gtitle"><text class="gtitle" x="15" y="25" text-anchor="start" dy="0em" style="font-family: Ubuntu, verdana, arial, sans-serif; font-size: 16px; fill: rgb(233, 84, 32); opacity: 1; font-weight: normal; white-space: pre;">Prezident/ka ČR 2023</text></g><g class="g-xtitle"/><g class="g-ytitle"/></g></svg>