<svg class="main-svg" xmlns="http://www.w3.org/2000/svg" xmlns:xlink="http://www.w3.org/1999/xlink" width="400" height="400" style="" viewBox="0 0 400 400"><rect x="0" y="0" width="400" height="400" style="fill: rgb(255, 255, 255); fill-opacity: 1;"/><defs id="defs-1b26c1"><g class="clips"><clipPath id="clip1b26c1xyplot" class="plotclip"><rect width="220" height="330"/></clipPath><clipPath class="axesclip" id="clip1b26c1x"><rect x="50" y="0" width="220" height="400"/></clipPath><clipPath class="axesclip" id="clip1b26c1y"><rect x="0" y="20" width="400" height="330"/></clipPath><clipPath class="axesclip" id="clip1b26c1xy"><rect x="50" y="20" width="220" height="330"/></clipPath></g><g class="gradients"/><g class="patterns"/></defs><g class="bglayer"/><g class="layer-below"><g class="imagelayer"/><g class="shapelayer"/></g><g class="cartesianlayer"><g class="subplot xy"><g class="layer-subplot"><g class="shapelayer"/><g class="imagelayer"/></g><g class="minor-gridlayer"><g class="x"/><g class="y"/></g><g class="gridlayer"><g class="x"><path class="xgrid crisp" transform="translate(52.16,0)" d="M0,20v330" style="stroke: rgb(235, 240, 248); stroke-opacity: 1; stroke-width: 1px;"/><path class="xgrid crisp" transform="translate(117.8,0)" d="M0,20v330" style="stroke: rgb(235, 240, 248); stroke-opacity: 1; stroke-width: 1px;"/><path class="xgrid crisp" transform="translate(184.16,0)" d="M0,20v330" style="stroke: rgb(235, 240, 248); stroke-opacity: 1; stroke-width: 1px;"/><path class="xgrid crisp" transform="translate(250.52,0)" d="M0,20v330" style="stroke: rgb(235, 240, 248); stroke-opacity: 1; stroke-width: 1px;"/></g><g class="y"><path class="ygrid crisp" transform="translate(0,281.4)" d="M50,0h220" style="stroke: rgb(235, 240, 248); stroke-opacity: 1; stroke-width: 1px;"/><path class="ygrid crisp" transform="translate(0,212.8)" d="M50,0h220" style="stroke: rgb(235, 240, 248); stroke-opacity: 1; stroke-width: 1px;"/><path class="ygrid crisp" transform="translate(0,144.2)" d="M50,0h220" style="stroke: rgb(235, 240, 248); stroke-opacity: 1; stroke-width: 1px;"/><path class="ygrid crisp" transform="translate(0,75.6)" d="M50,0h220" style="stroke: rgb(235, 240, 248); stroke-opacity: 1; stroke-width: 1px;"/></g></g><g class="zerolinelayer"><path class="yzl zl crisp" transform="translate(0,350)" d="M50,0h220" style="stroke: rgb(235, 240, 248); stroke-opacity: 1; stroke-width: 2px;"/></g><path class="xlines-below"/><path class="ylines-below"/><g class="overlines-below"/><g class="xaxislayer-below"/><g class="yaxislayer-below"/><g class="overaxes-below"/><g class="plot" transform="translate(50,20)" clip-path="url(#clip1b26c1xyplot)"><g class="scatterlayer mlayer"><g class="trace scatter trace1c10f1" style="stroke-miterlimit: 2; opacity: 1;"><g class="fills"/><g class="errorbars"/><g class="lines"><path class="js-line" d="M0,170.16L16.59,170.16L17.31,172.22L18.75,173.94L19.48,173.94L22.36,173.94L23.08,177.71L25.25,193.49L25.97,193.49L29.57,198.97L30.3,198.97L33.9,198.97L34.62,200.35L36.07,201.72L36.79,201.72L43.28,201.72L44,204.12L45.44,204.12L46.16,208.58L46.89,208.58L47.61,213.04L49.77,220.93L50.49,220.93L62.03,220.93L62.75,213.04L63.48,206.52L64.2,208.58L64.92,207.55L66.36,204.12L67.08,204.12L70.69,204.12L71.41,202.75L73.57,201.72L74.3,201.72L83.67,202.75L84.39,204.12L95.93,204.12L96.66,201.72L98.82,189.03L99.54,187.66L102.43,187.66L103.15,168.45L103.87,168.45L104.59,166.39L135.61,166.39L136.33,170.16L137.05,172.22L137.77,170.16L139.21,173.94L139.93,173.94L142.1,173.94L142.82,168.45L144.26,161.93L144.98,161.93L145.7,161.93L146.43,155.41L149.31,137.58L150.03,137.58L157.25,161.93L158.69,161.93L160.13,157.82L160.85,159.87L162.3,181.14L163.02,173.94L163.74,173.94L172.39,173.94L173.11,172.22L175.28,166.39L176,184.57L178.89,184.57L181.05,198.97L183.21,201.72L183.93,212.01L185.38,220.93L186.1,220.93L187.54,220.93L188.26,217.15L190.43,222.64L191.15,215.1L192.59,204.12L193.31,193.49L199.08,193.49L199.8,187.66L200.52,187.66L201.25,182.85L202.69,177.71L203.41,177.71L204.85,148.21L205.57,148.21L209.18,97.79L210.62,39.82L212.79,47.71L213.51,47.71L214.95,41.88L215.67,30.91L217.84,16.84L218.56,16.5L219.28,18.21" style="vector-effect: none; fill: none; stroke: rgb(99, 110, 250); stroke-opacity: 1; stroke-width: 5px; opacity: 1;"/></g><g class="points"/><g class="text"/></g><g class="trace scatter tracec884f9" style="stroke-miterlimit: 2; opacity: 1;"><g class="fills"/><g class="errorbars"/><g class="lines"><path class="js-line" d="M0,227.79L17.31,226.76L18.03,226.07L43.28,226.07L44,220.93L45.44,220.93L46.16,217.15L46.89,217.15L47.61,207.55L49.77,184.57L50.49,184.57L54.82,184.57L55.54,182.85L56.98,181.14L57.7,181.14L62.03,181.14L62.75,184.57L64.92,193.49L65.64,193.49L95.93,193.49L96.66,194.86L98.82,198.97L99.54,198.97L100.26,198.97L100.98,200.35L101.7,200.35L102.43,198.97L103.87,214.07L104.59,215.1L107.48,215.1L108.2,218.18L111.08,224.36L111.8,224.36L121.18,224.36L121.9,227.79L122.62,230.87L123.34,240.13L124.79,248.02L125.51,248.02L133.44,248.02L134.16,252.83L135.61,257.28L136.33,255.91L137.77,257.28L138.49,257.28L139.21,257.28L139.93,260.37L142.1,264.49L142.82,270.32L144.26,275.46L144.98,275.46L146.43,275.46L147.15,281.64L148.59,286.44L149.31,286.44L150.03,286.44L155.8,233.62L157.25,226.07L158.69,226.07L160.13,233.62L160.85,233.62L163.02,236.36L163.74,236.36L167.34,236.36L168.07,237.73L173.84,237.73L174.56,236.36L175.28,236.36L176,224.36L178.89,224.36L181.05,222.64L183.21,222.64L183.93,231.56L185.38,241.51L186.1,241.51L188.98,241.51L189.7,243.91L191.87,243.91L192.59,245.97L194.03,248.02L194.75,248.02L199.08,248.02L199.8,252.14L201.25,251.11L201.97,250.08L203.41,250.08L204.13,257.28L205.57,257.28L206.3,232.59L207.02,229.16L207.74,230.87L208.46,237.39L209.18,238.42L210.62,275.12L212.79,260.37L213.51,261.4L218.56,300.5L219.28,298.79" style="vector-effect: none; fill: none; stroke: rgb(239, 85, 59); stroke-opacity: 1; stroke-width: 5px; opacity: 1;"/></g><g class="points"/><g class="text"/></g></g></g><g class="overplot"/><path class="xlines-above crisp" d="M0,0" style="fill: none;"/><path class="ylines-above crisp" d="M0,0" style="fill: none;"/><g class="overlines-above"/><g class="xaxislayer-above"><g class="xtick"><text text-anchor="middle" x="0" y="363" transform="translate(52.16,0)" style="font-family: 'Open Sans', verdana, arial, sans-serif; font-size: 12px; fill: rgb(42, 63, 95); fill-opacity: 1; white-space: pre; opacity: 1;">1.4.22</text></g><g class="xtick"><text text-anchor="middle" x="0" y="363" style="font-family: 'Open Sans', verdana, arial, sans-serif; font-size: 12px; fill: rgb(42, 63, 95); fill-opacity: 1; white-space: pre; opacity: 1;" transform="translate(117.8,0)">1.7.22</text></g><g class="xtick"><text text-anchor="middle" x="0" y="363" style="font-family: 'Open Sans', verdana, arial, sans-serif; font-size: 12px; fill: rgb(42, 63, 95); fill-opacity: 1; white-space: pre; opacity: 1;" transform="translate(184.16,0)">1.10.22</text></g><g class="xtick"><text text-anchor="middle" x="0" y="363" style="font-family: 'Open Sans', verdana, arial, sans-serif; font-size: 12px; fill: rgb(42, 63, 95); fill-opacity: 1; white-space: pre; opacity: 1;" transform="translate(250.52,0)">1.1.23</text></g></g><g class="yaxislayer-above"><g class="ytick"><text text-anchor="end" x="49" y="4.199999999999999" transform="translate(0,350)" style="font-family: 'Open Sans', verdana, arial, sans-serif; font-size: 12px; fill: rgb(42, 63, 95); fill-opacity: 1; white-space: pre; opacity: 1;">0%</text></g><g class="ytick"><text text-anchor="end" x="49" y="4.199999999999999" style="font-family: 'Open Sans', verdana, arial, sans-serif; font-size: 12px; fill: rgb(42, 63, 95); fill-opacity: 1; white-space: pre; opacity: 1;" transform="translate(0,281.4)">20%</text></g><g class="ytick"><text text-anchor="end" x="49" y="4.199999999999999" style="font-family: 'Open Sans', verdana, arial, sans-serif; font-size: 12px; fill: rgb(42, 63, 95); fill-opacity: 1; white-space: pre; opacity: 1;" transform="translate(0,212.8)">40%</text></g><g class="ytick"><text text-anchor="end" x="49" y="4.199999999999999" style="font-family: 'Open Sans', verdana, arial, sans-serif; font-size: 12px; fill: rgb(42, 63, 95); fill-opacity: 1; white-space: pre; opacity: 1;" transform="translate(0,144.2)">60%</text></g><g class="ytick"><text text-anchor="end" x="49" y="4.199999999999999" style="font-family: 'Open Sans', verdana, arial, sans-serif; font-size: 12px; fill: rgb(42, 63, 95); fill-opacity: 1; white-space: pre; opacity: 1;" transform="translate(0,75.6)">80%</text></g></g><g class="overaxes-above"/></g></g><g class="polarlayer"/><g class="smithlayer"/><g class="ternarylayer"/><g class="geolayer"/><g class="funnelarealayer"/><g class="pielayer"/><g class="iciclelayer"/><g class="treemaplayer"/><g class="sunburstlayer"/><g class="glimages"/><defs id="topdefs-1b26c1"><g class="clips"/><clipPath id="legend1b26c1"><rect width="114" height="48" x="0" y="0"/></clipPath></defs><g class="layer-above"><g class="imagelayer"/><g class="shapelayer"/></g><g class="infolayer"><g class="legend" pointer-events="all" transform="translate(274.4,20)"><rect class="bg" shape-rendering="crispEdges" width="114" height="48" x="0" y="0" style="stroke: rgb(68, 68, 68); stroke-opacity: 1; fill: rgb(255, 255, 255); fill-opacity: 1; stroke-width: 0px;"/><g class="scrollbox" transform="" clip-path="url(#legend1b26c1)"><g class="groups"><g class="traces" transform="translate(0,14.5)" style="opacity: 1;"><text class="legendtext" text-anchor="start" x="40" y="4.680000000000001" style="font-family: 'Open Sans', verdana, arial, sans-serif; font-size: 12px; fill: rgb(42, 63, 95); fill-opacity: 1; white-space: pre;">Pavel Petr</text><g class="layers" style="opacity: 1;"><g class="legendfill"/><g class="legendlines"><path class="js-line" d="M5,0h30" style="fill: none; stroke: rgb(99, 110, 250); stroke-opacity: 1; stroke-width: 5px;"/></g><g class="legendsymbols"><g class="legendpoints"/></g></g><rect class="legendtoggle" x="0" y="-9.5" width="108.046875" height="19" style="fill: rgb(0, 0, 0); fill-opacity: 0;"/></g><g class="traces" transform="translate(0,33.5)" style="opacity: 1;"><text class="legendtext" text-anchor="start" x="40" y="4.680000000000001" style="font-family: 'Open Sans', verdana, arial, sans-serif; font-size: 12px; fill: rgb(42, 63, 95); fill-opacity: 1; white-space: pre;">Babiš Andrej</text><g class="layers" style="opacity: 1;"><g class="legendfill"/><g class="legendlines"><path class="js-line" d="M5,0h30" style="fill: none; stroke: rgb(239, 85, 59); stroke-opacity: 1; stroke-width: 5px;"/></g><g class="legendsymbols"><g class="legendpoints"/></g></g><rect class="legendtoggle" x="0" y="-9.5" width="108.046875" height="19" style="fill: rgb(0, 0, 0); fill-opacity: 0;"/></g></g></g><rect class="scrollbar" rx="20" ry="3" width="0" height="0" x="0" y="0" style="fill: rgb(128, 139, 164); fill-opacity: 1;"/></g><g class="g-gtitle"/><g class="g-xtitle"/><g class="g-ytitle"/></g></svg>