<svg class="main-svg" xmlns="http://www.w3.org/2000/svg" xmlns:xlink="http://www.w3.org/1999/xlink" width="300" height="135" style="" viewBox="0 0 300 135"><rect x="0" y="0" width="300" height="135" style="fill: rgb(255, 255, 255); fill-opacity: 1;"/><defs id="defs-a99251"><g class="clips"><clipPath id="clipa99251xyplot" class="plotclip"><rect width="280" height="75"/></clipPath><clipPath class="axesclip" id="clipa99251x"><rect x="10" y="0" width="280" height="135"/></clipPath><clipPath class="axesclip" id="clipa99251y"><rect x="0" y="50" width="300" height="75"/></clipPath><clipPath class="axesclip" id="clipa99251xy"><rect x="10" y="50" width="280" height="75"/></clipPath></g><g class="gradients"/><g class="patterns"/></defs><g class="bglayer"/><g class="layer-below"><g class="imagelayer"/><g class="shapelayer"/></g><g class="cartesianlayer"><g class="subplot xy"><g class="layer-subplot"><g class="shapelayer"/><g class="imagelayer"/></g><g class="minor-gridlayer"><g class="x"/><g class="y"/></g><g class="gridlayer"><g class="x"><path class="xgrid crisp" transform="translate(42.77,0)" d="M0,50v75" style="stroke: rgb(235, 240, 248); stroke-opacity: 1; stroke-width: 1px;"/><path class="xgrid crisp" transform="translate(103.33,0)" d="M0,50v75" style="stroke: rgb(235, 240, 248); stroke-opacity: 1; stroke-width: 1px;"/><path class="xgrid crisp" transform="translate(164.89,0)" d="M0,50v75" style="stroke: rgb(235, 240, 248); stroke-opacity: 1; stroke-width: 1px;"/><path class="xgrid crisp" transform="translate(225.46,0)" d="M0,50v75" style="stroke: rgb(235, 240, 248); stroke-opacity: 1; stroke-width: 1px;"/><path class="xgrid crisp" transform="translate(286.03,0)" d="M0,50v75" style="stroke: rgb(235, 240, 248); stroke-opacity: 1; stroke-width: 1px;"/></g><g class="y"><path class="ygrid crisp" transform="translate(0,98.85)" d="M10,0h280" style="stroke: rgb(235, 240, 248); stroke-opacity: 1; stroke-width: 1px;"/><path class="ygrid crisp" transform="translate(0,72.71000000000001)" d="M10,0h280" style="stroke: rgb(235, 240, 248); stroke-opacity: 1; stroke-width: 1px;"/></g></g><g class="zerolinelayer"><path class="yzl zl crisp" transform="translate(0,125)" d="M10,0h280" style="stroke: rgb(235, 240, 248); stroke-opacity: 1; stroke-width: 2px;"/></g><path class="xlines-below"/><path class="ylines-below"/><g class="overlines-below"/><g class="xaxislayer-below"/><g class="yaxislayer-below"/><g class="overaxes-below"/><g class="plot" transform="translate(10,50)" clip-path="url(#clipa99251xyplot)"><g class="scatterlayer mlayer"><g class="trace scatter trace8f7275" style="stroke-miterlimit: 2; opacity: 1;"><g class="fills"/><g class="errorbars"/><g class="lines"><path class="js-line" d="M0,15.91L23.83,16.69L24.82,17.35L30.78,17.35L31.77,18.65L34.75,24.54L35.74,24.54L41.7,26.5L42.7,26.5L59.57,27.54L60.57,28.46L62.55,28.46L63.55,30.16L64.54,30.16L65.53,31.73L67.52,34.34L68.51,34.6L85.39,34.6L86.38,31.73L87.38,29.24L88.37,30.16L93.33,28.46L94.33,28.46L133.05,27.54L134.04,25.06L137.02,22.31L138.01,22.31L140.99,22.31L141.99,15.12L186.67,14.47L187.66,15.91L190.64,17.35L191.63,17.35L195.6,17.35L196.6,15.12L198.58,12.9L199.57,12.9L200.57,12.9L201.56,10.42L204.54,3.75L205.53,3.75L206.52,3.75L214.47,11.2L216.45,12.9L218.44,12.9L220.43,11.2L221.42,12.12L223.4,19.96L224.4,17.35L238.3,16.69L239.29,15.12L241.28,14.47L242.27,21.14L246.24,21.14L249.22,26.5L252.2,27.54L253.19,31.33L255.18,34.6L256.17,34.6L258.16,34.6L259.15,33.3L262.13,35.26L263.12,32.51L265.11,28.46L266.1,24.54L274.04,24.54L275.04,22.31L276.03,22.31L277.02,20.61L279.01,18.65L280,18.65" style="vector-effect: non-scaling-stroke; fill: none; stroke: rgb(99, 110, 250); stroke-opacity: 1; stroke-width: 5px; opacity: 1;"/></g><g class="points"/><g class="text"/></g><g class="trace scatter trace55155b" style="stroke-miterlimit: 2; opacity: 1;"><g class="fills"/><g class="errorbars"/><g class="lines"><path class="js-line" d="M0,64.41L31.77,64.93L32.77,65.98L34.75,66.89L35.74,66.89L62.55,66.89L63.55,62.84L67.52,64.02L68.51,64.41L72.48,64.02L73.48,64.02L77.45,62.84L78.44,62.84L113.19,62.84L114.18,61.53L116.17,57.74L117.16,57.74L130.07,57.74L131.06,56.31L133.05,55.65L134.04,54.87L136.03,53.69L137.02,52.51L139.01,51.73L140,50.29L142.98,50.03L143.97,49.64L153.9,49.51L154.89,49.51L167.8,50.16L168.79,50.81L171.77,48.07L172.77,48.07L187.66,47.15L188.65,46.11L189.65,46.11L190.64,47.42L192.62,48.07L193.62,46.5L195.6,44.67L196.6,43.89L199.57,43.1L200.57,43.1L201.56,43.49L202.55,41.4L204.54,38.26L205.53,38.26L206.52,38.26L214.47,43.62L216.45,44.67L218.44,44.67L220.43,45.45L221.42,45.06L224.4,40.36L225.39,40.36L238.3,39.44L239.29,38.79L240.28,39.44L241.28,38.26L243.26,35.91L244.26,35.91L246.24,35.91L249.22,30.16L252.2,28.46L253.19,22.97L255.18,15.91L256.17,15.91L258.16,15.91L259.15,17.35L262.13,14.47L263.12,17.35L267.09,24.54L268.09,24.54L274.04,24.54L275.04,26.5L276.03,26.5L277.02,28.46L279.01,30.16L280,30.16" style="vector-effect: non-scaling-stroke; fill: none; stroke: rgb(239, 85, 59); stroke-opacity: 1; stroke-width: 5px; opacity: 1;"/></g><g class="points"/><g class="text"/></g><g class="trace scatter trace729083" style="stroke-miterlimit: 2; opacity: 1;"><g class="fills"/><g class="errorbars"/><g class="lines"><path class="js-line" d="M0,37.09L59.57,36.56L60.57,34.6L62.55,34.6L63.55,33.3L64.54,33.3L65.53,29.77L68.51,21.14L69.5,21.14L86.38,21.14L87.38,23.49L89.36,24.54L90.35,24.54L133.05,25.06L134.04,26.11L139.01,27.02L140,27.02L140.99,26.5L141.99,31.33L144.96,32.51L145.96,32.51L148.94,33.56L149.93,34.6L151.91,35.26L152.91,35.91L167.8,37.09L168.79,38.26L171.77,44.67L172.77,44.67L183.69,44.67L184.68,46.5L186.67,48.07L187.66,47.68L193.62,50.03L194.61,50.81L195.6,50.81L196.6,53.04L198.58,54.87L199.57,54.87L201.56,54.87L202.55,57.09L204.54,58.79L205.53,58.79L206.52,58.79L214.47,39.44L216.45,36.56L218.44,36.56L220.43,39.44L221.42,39.44L226.38,40.36L227.38,40.36L241.28,40.36L242.27,35.91L252.2,35.26L253.19,38.53L255.18,42.32L256.17,42.32L264.11,43.1L265.11,43.89L268.09,44.67L269.08,44.67L274.04,44.67L275.04,46.11L280,45.45" style="vector-effect: non-scaling-stroke; fill: none; stroke: rgb(0, 204, 150); stroke-opacity: 1; stroke-width: 5px; opacity: 1;"/></g><g class="points"/><g class="text"/></g></g></g><g class="overplot"/><path class="xlines-above crisp" d="M0,0" style="fill: none;"/><path class="ylines-above crisp" d="M0,0" style="fill: none;"/><g class="overlines-above"/><g class="xaxislayer-above"/><g class="yaxislayer-above"/><g class="overaxes-above"/></g></g><g class="polarlayer"/><g class="smithlayer"/><g class="ternarylayer"/><g class="geolayer"/><g class="funnelarealayer"/><g class="pielayer"/><g class="iciclelayer"/><g class="treemaplayer"/><g class="sunburstlayer"/><g class="glimages"/><defs id="topdefs-a99251"><g class="clips"/></defs><g class="layer-above"><g class="imagelayer"/><g class="shapelayer"/></g><g class="infolayer"><g class="g-gtitle"><text class="gtitle" x="15" y="25" text-anchor="start" dy="0em" style="font-family: Ubuntu, verdana, arial, sans-serif; font-size: 16px; fill: rgb(233, 84, 32); opacity: 1; font-weight: normal; white-space: pre;">Prezident/ka ČR 2023</text></g><g class="g-xtitle"/><g class="g-ytitle"/></g></svg>