<svg class="main-svg" xmlns="http://www.w3.org/2000/svg" xmlns:xlink="http://www.w3.org/1999/xlink" width="300" height="135" style="" viewBox="0 0 300 135"><rect x="0" y="0" width="300" height="135" style="fill: rgb(255, 255, 255); fill-opacity: 1;"/><defs id="defs-983a54"><g class="clips"><clipPath id="clip983a54xyplot" class="plotclip"><rect width="280" height="75"/></clipPath><clipPath class="axesclip" id="clip983a54x"><rect x="10" y="0" width="280" height="135"/></clipPath><clipPath class="axesclip" id="clip983a54y"><rect x="0" y="50" width="300" height="75"/></clipPath><clipPath class="axesclip" id="clip983a54xy"><rect x="10" y="50" width="280" height="75"/></clipPath></g><g class="gradients"/><g class="patterns"/></defs><g class="bglayer"/><g class="layer-below"><g class="imagelayer"/><g class="shapelayer"/></g><g class="cartesianlayer"><g class="subplot xy"><g class="layer-subplot"><g class="shapelayer"/><g class="imagelayer"/></g><g class="minor-gridlayer"><g class="x"/><g class="y"/></g><g class="gridlayer"><g class="x"><path class="xgrid crisp" transform="translate(44.61,0)" d="M0,50v75" style="stroke: rgb(235, 240, 248); stroke-opacity: 1; stroke-width: 1px;"/><path class="xgrid crisp" transform="translate(108.58,0)" d="M0,50v75" style="stroke: rgb(235, 240, 248); stroke-opacity: 1; stroke-width: 1px;"/><path class="xgrid crisp" transform="translate(173.6,0)" d="M0,50v75" style="stroke: rgb(235, 240, 248); stroke-opacity: 1; stroke-width: 1px;"/><path class="xgrid crisp" transform="translate(237.57,0)" d="M0,50v75" style="stroke: rgb(235, 240, 248); stroke-opacity: 1; stroke-width: 1px;"/></g><g class="y"><path class="ygrid crisp" transform="translate(0,98.95)" d="M10,0h280" style="stroke: rgb(235, 240, 248); stroke-opacity: 1; stroke-width: 1px;"/><path class="ygrid crisp" transform="translate(0,72.9)" d="M10,0h280" style="stroke: rgb(235, 240, 248); stroke-opacity: 1; stroke-width: 1px;"/></g></g><g class="zerolinelayer"><path class="yzl zl crisp" transform="translate(0,125)" d="M10,0h280" style="stroke: rgb(235, 240, 248); stroke-opacity: 1; stroke-width: 2px;"/></g><path class="xlines-below"/><path class="ylines-below"/><g class="overlines-below"/><g class="xaxislayer-below"/><g class="yaxislayer-below"/><g class="overaxes-below"/><g class="plot" transform="translate(10,50)" clip-path="url(#clip983a54xyplot)"><g class="scatterlayer mlayer"><g class="trace scatter trace310efb" style="stroke-miterlimit: 2; opacity: 1;"><g class="fills"/><g class="errorbars"/><g class="lines"><path class="js-line" d="M0,64.45L33.56,64.97L34.61,66.01L36.7,66.92L37.75,66.92L66.07,66.92L67.12,62.89L71.31,63.93L72.36,64.45L75.51,63.93L76.55,63.93L119.55,62.89L120.6,61.58L122.7,57.68L123.75,57.68L137.38,57.68L138.43,56.37L140.52,55.59L141.57,54.81L143.67,53.77L144.72,52.6L146.82,51.68L147.87,50.25L151.01,49.99L152.06,49.6L162.55,49.47L163.6,49.47L177.23,50.12L178.28,50.77L181.42,48.04L182.47,48.04L198.2,47.13L199.25,46.21L200.3,46.21L201.35,47.52L203.45,48.04L204.49,46.47L206.59,44.78L207.64,44L209.74,43.09L210.79,43.09L212.88,43.61L213.93,41.39L216.03,38.27L217.08,38.27L218.13,38.27L226.52,43.74L228.61,44.78L230.71,44.78L232.81,45.43L233.86,45.04L237,40.35L238.05,40.35L251.69,39.44L252.73,38.92L253.78,39.44L254.83,38.27L256.93,35.92L257.98,35.92L260.07,35.92L263.22,30.19L266.37,28.37L267.42,22.9L269.51,15.99L270.56,15.99L272.66,15.99L273.71,17.3L276.85,14.43L277.9,17.3L280,22.38" style="vector-effect: non-scaling-stroke; fill: none; stroke: rgb(99, 110, 250); stroke-opacity: 1; stroke-width: 5px; opacity: 1;"/></g><g class="points"/><g class="text"/></g><g class="trace scatter tracebaa33e" style="stroke-miterlimit: 2; opacity: 1;"><g class="fills"/><g class="errorbars"/><g class="lines"><path class="js-line" d="M0,15.99L25.17,16.65L26.22,17.3L32.51,17.3L33.56,18.73L36.7,24.59L37.75,24.59L44.04,26.54L45.09,26.54L62.92,27.46L63.97,28.37L66.07,28.37L67.12,30.19L68.16,30.19L69.21,31.76L71.31,34.36L72.36,34.62L90.19,34.62L91.24,31.76L92.28,29.28L93.33,30.19L98.58,28.37L99.63,28.37L140.52,27.46L141.57,25.11L144.72,22.38L145.77,22.38L148.91,22.38L149.96,15.21L197.15,14.43L198.2,15.99L202.4,17.3L203.45,17.3L206.59,17.3L207.64,15.21L209.74,12.87L210.79,12.87L211.84,12.87L212.88,10.39L216.03,3.75L217.08,3.75L218.13,3.75L226.52,11.3L228.61,12.87L230.71,12.87L232.81,11.3L233.86,12.09L235.96,19.9L237,17.3L251.69,16.65L252.73,15.21L254.83,14.43L255.88,21.2L260.07,21.2L263.22,26.54L266.37,27.46L267.42,31.36L269.51,34.62L270.56,34.62L272.66,34.62L273.71,33.19L275.81,34.62L276.85,35.27L280,28.37" style="vector-effect: non-scaling-stroke; fill: none; stroke: rgb(239, 85, 59); stroke-opacity: 1; stroke-width: 5px; opacity: 1;"/></g><g class="points"/><g class="text"/></g><g class="trace scatter trace1c82e5" style="stroke-miterlimit: 2; opacity: 1;"><g class="fills"/><g class="errorbars"/><g class="lines"><path class="js-line" d="M0,37.23L62.92,36.57L63.97,34.62L66.07,34.62L67.12,33.19L68.16,33.19L69.21,29.8L72.36,21.2L73.41,21.2L80.75,20.55L81.8,19.9L90.19,19.9L91.24,21.2L93.33,24.59L94.38,24.59L140.52,25.11L141.57,26.02L144.72,26.54L145.77,26.54L147.87,27.07L148.91,26.54L151.01,32.15L152.06,32.54L157.3,33.58L158.35,34.62L160.45,35.27L161.5,35.92L176.18,35.92L177.23,37.23L178.28,38.27L179.33,41.78L181.42,44.78L182.47,44.78L194.01,44.78L195.06,46.47L197.15,48.04L198.2,47.65L204.49,49.99L205.54,50.77L206.59,50.77L207.64,52.99L209.74,54.81L210.79,54.81L212.88,54.81L213.93,57.02L216.03,58.85L217.08,58.85L218.13,58.85L226.52,39.44L228.61,36.57L230.71,36.57L232.81,39.44L233.86,39.44L238.05,40.35L239.1,40.35L254.83,40.35L255.88,35.92L266.37,35.27L267.42,38.53L269.51,42.31L270.56,42.31L278.95,43.09L280,44" style="vector-effect: non-scaling-stroke; fill: none; stroke: rgb(0, 204, 150); stroke-opacity: 1; stroke-width: 5px; opacity: 1;"/></g><g class="points"/><g class="text"/></g></g></g><g class="overplot"/><path class="xlines-above crisp" d="M0,0" style="fill: none;"/><path class="ylines-above crisp" d="M0,0" style="fill: none;"/><g class="overlines-above"/><g class="xaxislayer-above"/><g class="yaxislayer-above"/><g class="overaxes-above"/></g></g><g class="polarlayer"/><g class="smithlayer"/><g class="ternarylayer"/><g class="geolayer"/><g class="funnelarealayer"/><g class="pielayer"/><g class="iciclelayer"/><g class="treemaplayer"/><g class="sunburstlayer"/><g class="glimages"/><defs id="topdefs-983a54"><g class="clips"/></defs><g class="layer-above"><g class="imagelayer"/><g class="shapelayer"/></g><g class="infolayer"><g class="g-gtitle"><text class="gtitle" x="15" y="25" text-anchor="start" dy="0em" style="font-family: Ubuntu, verdana, arial, sans-serif; font-size: 16px; fill: rgb(233, 84, 32); opacity: 1; font-weight: normal; white-space: pre;">Prezident/ka ČR 2023</text></g><g class="g-xtitle"/><g class="g-ytitle"/></g></svg>