<svg class="main-svg" xmlns="http://www.w3.org/2000/svg" xmlns:xlink="http://www.w3.org/1999/xlink" width="300" height="135" style="" viewBox="0 0 300 135"><rect x="0" y="0" width="300" height="135" style="fill: rgb(255, 255, 255); fill-opacity: 1;"/><defs id="defs-954e4b"><g class="clips"><clipPath id="clip954e4bxyplot" class="plotclip"><rect width="280" height="75"/></clipPath><clipPath class="axesclip" id="clip954e4bx"><rect x="10" y="0" width="280" height="135"/></clipPath><clipPath class="axesclip" id="clip954e4by"><rect x="0" y="50" width="300" height="75"/></clipPath><clipPath class="axesclip" id="clip954e4bxy"><rect x="10" y="50" width="280" height="75"/></clipPath></g><g class="gradients"/><g class="patterns"/></defs><g class="bglayer"/><g class="layer-below"><g class="imagelayer"/><g class="shapelayer"/></g><g class="cartesianlayer"><g class="subplot xy"><g class="layer-subplot"><g class="shapelayer"/><g class="imagelayer"/></g><g class="minor-gridlayer"><g class="x"/><g class="y"/></g><g class="gridlayer"><g class="x"><path class="xgrid crisp" transform="translate(65.33,0)" d="M0,50v75" style="stroke: rgb(235, 240, 248); stroke-opacity: 1; stroke-width: 1px;"/><path class="xgrid crisp" transform="translate(167.6,0)" d="M0,50v75" style="stroke: rgb(235, 240, 248); stroke-opacity: 1; stroke-width: 1px;"/><path class="xgrid crisp" transform="translate(271.56,0)" d="M0,50v75" style="stroke: rgb(235, 240, 248); stroke-opacity: 1; stroke-width: 1px;"/></g><g class="y"><path class="ygrid crisp" transform="translate(0,105.53)" d="M10,0h280" style="stroke: rgb(235, 240, 248); stroke-opacity: 1; stroke-width: 1px;"/><path class="ygrid crisp" transform="translate(0,86.07)" d="M10,0h280" style="stroke: rgb(235, 240, 248); stroke-opacity: 1; stroke-width: 1px;"/><path class="ygrid crisp" transform="translate(0,66.6)" d="M10,0h280" style="stroke: rgb(235, 240, 248); stroke-opacity: 1; stroke-width: 1px;"/></g></g><g class="zerolinelayer"><path class="yzl zl crisp" transform="translate(0,125)" d="M10,0h280" style="stroke: rgb(235, 240, 248); stroke-opacity: 1; stroke-width: 2px;"/></g><path class="xlines-below"/><path class="ylines-below"/><g class="overlines-below"/><g class="xaxislayer-below"/><g class="yaxislayer-below"/><g class="overaxes-below"/><g class="plot" transform="translate(10,50)" clip-path="url(#clip954e4bxyplot)"><g class="scatterlayer mlayer"><g class="trace scatter trace09ba8f" style="stroke-miterlimit: 2; opacity: 1;"><g class="fills"/><g class="errorbars"/><g class="lines"><path class="js-line" d="M0,5.5L40.24,6.28L41.92,7.06L51.98,7.06L53.65,8.81L57.01,15.63L58.68,15.63L65.39,16.79L67.07,17.38L72.1,17.96L73.77,17.96L100.6,19.13L102.28,20.1L105.63,20.1L107.31,22.24L108.98,22.24L110.66,24.19L114.01,27.11L115.69,27.5L144.19,27.5L145.87,24.19L147.54,21.27L149.22,22.24L155.93,20.1L157.6,20.1L224.67,19.13L226.35,16.21L229.7,13.68L231.38,13.09L238.08,13.09L239.76,4.72L280,3.75" style="vector-effect: non-scaling-stroke; fill: none; stroke: rgb(99, 110, 250); stroke-opacity: 1; stroke-width: 5px; opacity: 1;"/></g><g class="points"/><g class="text"/></g><g class="trace scatter trace069a55" style="stroke-miterlimit: 2; opacity: 1;"><g class="fills"/><g class="errorbars"/><g class="lines"><path class="js-line" d="M0,30.42L100.6,29.84L102.28,27.5L105.63,27.5L107.31,25.94L108.98,25.94L110.66,21.66L114.01,13.68L115.69,11.73L129.1,10.95L130.78,10.17L144.19,10.17L145.87,11.73L149.22,15.63L150.9,15.63L224.67,16.21L226.35,17.38L231.38,17.96L233.05,17.96L236.41,18.55L238.08,17.96L239.76,23.61L241.44,24.58L248.14,24.97L249.82,24.97L254.85,27.5L256.53,28.28L259.88,29.06L261.56,29.06L280,29.06" style="vector-effect: non-scaling-stroke; fill: none; stroke: rgb(239, 85, 59); stroke-opacity: 1; stroke-width: 5px; opacity: 1;"/></g><g class="points"/><g class="text"/></g><g class="trace scatter trace20b24f" style="stroke-miterlimit: 2; opacity: 1;"><g class="fills"/><g class="errorbars"/><g class="lines"><path class="js-line" d="M0,62.54L53.65,63.13L55.33,64.49L58.68,65.46L60.36,65.46L105.63,65.46L107.31,60.79L114.01,61.96L115.69,62.54L120.72,61.96L122.4,61.96L191.14,60.79L192.81,59.23L196.17,54.56L197.84,54.56L219.64,54.56L221.32,53L224.67,52.22L226.35,51.25L229.7,50.08L231.38,48.52L234.73,47.55L236.41,45.99L239.76,45.6L241.44,45.6L248.14,45.02L249.82,45.02L280,45.02" style="vector-effect: non-scaling-stroke; fill: none; stroke: rgb(0, 204, 150); stroke-opacity: 1; stroke-width: 5px; opacity: 1;"/></g><g class="points"/><g class="text"/></g><g class="trace scatter tracee2c2c9" style="stroke-miterlimit: 2; opacity: 1;"><g class="fills"/><g class="errorbars"/><g class="lines"><path class="js-line" d="M0,68.58L51.98,68.58L53.65,66.05L57.01,64.88L58.68,64.88L65.39,64.1L67.07,63.51L73.77,63.13L75.45,63.13L112.34,63.13L114.01,64.29L119.04,64.88L120.72,64.88L127.43,64.49L129.1,64.29L145.87,63.13L147.54,64.49L150.9,65.46L152.57,65.46L228.02,66.05L229.7,66.43L239.76,66.82L241.44,66.43L246.47,64.88L248.14,64.88L280,64.1" style="vector-effect: non-scaling-stroke; fill: none; stroke: rgb(171, 99, 250); stroke-opacity: 1; stroke-width: 5px; opacity: 1;"/></g><g class="points"/><g class="text"/></g><g class="trace scatter trace157942" style="stroke-miterlimit: 2; opacity: 1;"><g class="fills"/><g class="errorbars"/><g class="lines"><path class="js-line" d="M0,61.37L108.98,61.96L110.66,62.35L122.4,62.54L124.07,62.54L130.78,63.13L132.46,63.13L229.7,64.29L231.38,64.49L238.08,65.46L239.76,66.05L280,66.05" style="vector-effect: non-scaling-stroke; fill: none; stroke: rgb(255, 161, 90); stroke-opacity: 1; stroke-width: 5px; opacity: 1;"/></g><g class="points"/><g class="text"/></g></g></g><g class="overplot"/><path class="xlines-above crisp" d="M0,0" style="fill: none;"/><path class="ylines-above crisp" d="M0,0" style="fill: none;"/><g class="overlines-above"/><g class="xaxislayer-above"/><g class="yaxislayer-above"/><g class="overaxes-above"/></g></g><g class="polarlayer"/><g class="smithlayer"/><g class="ternarylayer"/><g class="geolayer"/><g class="funnelarealayer"/><g class="pielayer"/><g class="iciclelayer"/><g class="treemaplayer"/><g class="sunburstlayer"/><g class="glimages"/><defs id="topdefs-954e4b"><g class="clips"/></defs><g class="layer-above"><g class="imagelayer"/><g class="shapelayer"/></g><g class="infolayer"><g class="g-gtitle"><text class="gtitle" x="15" y="25" text-anchor="start" dy="0em" style="font-family: Ubuntu, verdana, arial, sans-serif; font-size: 16px; fill: rgb(233, 84, 32); opacity: 1; font-weight: normal; white-space: pre;">Prezident/ka ČR 2023</text></g><g class="g-xtitle"/><g class="g-ytitle"/></g></svg>