<svg class="main-svg" xmlns="http://www.w3.org/2000/svg" xmlns:xlink="http://www.w3.org/1999/xlink" width="300" height="135" style="" viewBox="0 0 300 135"><rect x="0" y="0" width="300" height="135" style="fill: rgb(255, 255, 255); fill-opacity: 1;"/><defs id="defs-196898"><g class="clips"><clipPath id="clip196898xyplot" class="plotclip"><rect width="280" height="75"/></clipPath><clipPath class="axesclip" id="clip196898x"><rect x="10" y="0" width="280" height="135"/></clipPath><clipPath class="axesclip" id="clip196898y"><rect x="0" y="50" width="300" height="75"/></clipPath><clipPath class="axesclip" id="clip196898xy"><rect x="10" y="50" width="280" height="75"/></clipPath></g><g class="gradients"/><g class="patterns"/></defs><g class="bglayer"/><g class="layer-below"><g class="imagelayer"/><g class="shapelayer"/></g><g class="cartesianlayer"><g class="subplot xy"><g class="layer-subplot"><g class="shapelayer"/><g class="imagelayer"/></g><g class="minor-gridlayer"><g class="x"/><g class="y"/></g><g class="gridlayer"><g class="x"><path class="xgrid crisp" transform="translate(52.58,0)" d="M0,50v75" style="stroke: rgb(235, 240, 248); stroke-opacity: 1; stroke-width: 1px;"/><path class="xgrid crisp" transform="translate(131.29000000000002,0)" d="M0,50v75" style="stroke: rgb(235, 240, 248); stroke-opacity: 1; stroke-width: 1px;"/><path class="xgrid crisp" transform="translate(211.29,0)" d="M0,50v75" style="stroke: rgb(235, 240, 248); stroke-opacity: 1; stroke-width: 1px;"/></g><g class="y"><path class="ygrid crisp" transform="translate(0,96.72999999999999)" d="M10,0h280" style="stroke: rgb(235, 240, 248); stroke-opacity: 1; stroke-width: 1px;"/><path class="ygrid crisp" transform="translate(0,68.45)" d="M10,0h280" style="stroke: rgb(235, 240, 248); stroke-opacity: 1; stroke-width: 1px;"/></g></g><g class="zerolinelayer"><path class="yzl zl crisp" transform="translate(0,125)" d="M10,0h280" style="stroke: rgb(235, 240, 248); stroke-opacity: 1; stroke-width: 2px;"/></g><path class="xlines-below"/><path class="ylines-below"/><g class="overlines-below"/><g class="xaxislayer-below"/><g class="yaxislayer-below"/><g class="overaxes-below"/><g class="plot" transform="translate(10,50)" clip-path="url(#clip196898xyplot)"><g class="scatterlayer mlayer"><g class="trace scatter trace0cbf7a" style="stroke-miterlimit: 2; opacity: 1;"><g class="fills"/><g class="errorbars"/><g class="lines"><path class="js-line" d="M0,15.91L30.97,16.61L32.26,17.32L40,17.32L41.29,18.59L43.87,24.53L45.16,24.53L50.32,25.52L51.61,26.09L56.77,26.51L58.06,26.51L77.42,27.5L78.71,28.35L81.29,28.35L82.58,30.04L83.87,30.04L85.16,31.74L87.74,34.29L89.03,34.57L110.97,34.57L112.26,31.74L113.55,29.2L114.84,30.04L121.29,28.35L122.58,28.35L172.9,27.5L174.19,24.96L176.77,22.83L178.06,22.27L183.23,22.27L184.52,15.2L242.58,14.35L243.87,15.91L249.03,17.32L250.32,17.32L254.19,17.32L255.48,15.2L258.06,12.8L259.35,12.8L260.65,12.8L261.94,10.39L265.81,3.75L267.1,3.75L268.39,3.75L278.71,11.24L280,11.24" style="vector-effect: non-scaling-stroke; fill: none; stroke: rgb(99, 110, 250); stroke-opacity: 1; stroke-width: 5px; opacity: 1;"/></g><g class="points"/><g class="text"/></g><g class="trace scatter trace787653" style="stroke-miterlimit: 2; opacity: 1;"><g class="fills"/><g class="errorbars"/><g class="lines"><path class="js-line" d="M0,37.11L77.42,36.55L78.71,34.57L81.29,34.57L82.58,33.15L83.87,33.15L85.16,29.62L87.74,22.83L89.03,21.14L99.35,20.57L100.65,19.87L110.97,19.87L112.26,21.14L114.84,24.53L116.13,24.53L172.9,24.96L174.19,26.09L180.65,26.93L181.94,26.93L183.23,26.51L184.52,31.32L188.39,32.45L189.68,32.45L193.55,33.58L194.84,34.57L197.42,35.28L198.71,35.84L216.77,35.84L218.06,37.11L219.35,38.24L220.65,41.78L223.23,44.75L224.52,44.75L238.71,44.75L240,46.44L242.58,48L243.87,47.57L251.61,49.98L252.9,50.68L254.19,50.68L255.48,52.95L258.06,54.78L259.35,54.78L261.94,54.78L263.23,57.05L265.81,58.88L267.1,58.88L268.39,58.88L278.71,39.37L280,38.24" style="vector-effect: non-scaling-stroke; fill: none; stroke: rgb(239, 85, 59); stroke-opacity: 1; stroke-width: 5px; opacity: 1;"/></g><g class="points"/><g class="text"/></g><g class="trace scatter trace88c378" style="stroke-miterlimit: 2; opacity: 1;"><g class="fills"/><g class="errorbars"/><g class="lines"><path class="js-line" d="M0,64.4L41.29,64.96L42.58,65.95L45.16,66.94L46.45,66.94L81.29,66.94L82.58,62.84L87.74,63.97L89.03,64.4L94.19,63.97L95.48,63.97L100.65,62.84L101.94,62.84L147.1,62.84L148.39,61.57L150.97,57.61L152.26,57.61L169.03,57.61L170.32,56.34L172.9,55.63L174.19,54.78L176.77,53.79L178.06,52.52L180.65,51.67L181.94,50.26L184.52,49.98L185.81,49.98L190.97,49.41L192.26,49.41L218.06,50.12L219.35,50.68L223.23,48L224.52,48L243.87,47.15L245.16,46.16L246.45,46.16L247.74,47.43L250.32,48L251.61,46.44L254.19,44.75L255.48,43.9L258.06,43.05L259.35,43.05L261.94,43.47L263.23,41.35L265.81,38.24L267.1,38.24L268.39,38.24L278.71,43.62L280,44.75" style="vector-effect: non-scaling-stroke; fill: none; stroke: rgb(0, 204, 150); stroke-opacity: 1; stroke-width: 5px; opacity: 1;"/></g><g class="points"/><g class="text"/></g><g class="trace scatter trace72cd23" style="stroke-miterlimit: 2; opacity: 1;"><g class="fills"/><g class="errorbars"/><g class="lines"><path class="js-line" d="M0,63.41L83.87,63.97L85.16,64.26L101.94,64.96L103.23,64.96L179.35,65.95L180.65,66.24L187.1,67.37L188.39,67.37L241.29,67.93L242.58,66.66L245.16,65.67L246.45,65.67L261.94,66.38L263.23,67.93L265.81,69.49L267.1,69.49L280,70.19" style="vector-effect: non-scaling-stroke; fill: none; stroke: rgb(171, 99, 250); stroke-opacity: 1; stroke-width: 5px; opacity: 1;"/></g><g class="points"/><g class="text"/></g><g class="trace scatter trace7c2a76" style="stroke-miterlimit: 2; opacity: 1;"><g class="fills"/><g class="errorbars"/><g class="lines"><path class="js-line" d="M0,71.61L148.39,71.04L149.68,70.48L280,71.47" style="vector-effect: non-scaling-stroke; fill: none; stroke: rgb(255, 161, 90); stroke-opacity: 1; stroke-width: 5px; opacity: 1;"/></g><g class="points"/><g class="text"/></g></g></g><g class="overplot"/><path class="xlines-above crisp" d="M0,0" style="fill: none;"/><path class="ylines-above crisp" d="M0,0" style="fill: none;"/><g class="overlines-above"/><g class="xaxislayer-above"/><g class="yaxislayer-above"/><g class="overaxes-above"/></g></g><g class="polarlayer"/><g class="smithlayer"/><g class="ternarylayer"/><g class="geolayer"/><g class="funnelarealayer"/><g class="pielayer"/><g class="iciclelayer"/><g class="treemaplayer"/><g class="sunburstlayer"/><g class="glimages"/><defs id="topdefs-196898"><g class="clips"/></defs><g class="layer-above"><g class="imagelayer"/><g class="shapelayer"/></g><g class="infolayer"><g class="g-gtitle"><text class="gtitle" x="15" y="25" text-anchor="start" dy="0em" style="font-family: Ubuntu, verdana, arial, sans-serif; font-size: 16px; fill: rgb(233, 84, 32); opacity: 1; font-weight: normal; white-space: pre;">Prezident/ka ČR 2023</text></g><g class="g-xtitle"/><g class="g-ytitle"/></g></svg>