<svg class="main-svg" xmlns="http://www.w3.org/2000/svg" xmlns:xlink="http://www.w3.org/1999/xlink" width="300" height="135" style="" viewBox="0 0 300 135"><rect x="0" y="0" width="300" height="135" style="fill: rgb(255, 255, 255); fill-opacity: 1;"/><defs id="defs-d7e63e"><g class="clips"><clipPath id="clipd7e63exyplot" class="plotclip"><rect width="280" height="75"/></clipPath><clipPath class="axesclip" id="clipd7e63ex"><rect x="10" y="0" width="280" height="135"/></clipPath><clipPath class="axesclip" id="clipd7e63ey"><rect x="0" y="50" width="300" height="75"/></clipPath><clipPath class="axesclip" id="clipd7e63exy"><rect x="10" y="50" width="280" height="75"/></clipPath></g><g class="gradients"/><g class="patterns"/></defs><g class="bglayer"/><g class="layer-below"><g class="imagelayer"/><g class="shapelayer"/></g><g class="cartesianlayer"><g class="subplot xy"><g class="layer-subplot"><g class="shapelayer"/><g class="imagelayer"/></g><g class="minor-gridlayer"><g class="x"/><g class="y"/></g><g class="gridlayer"><g class="x"><path class="xgrid crisp" transform="translate(43.48,0)" d="M0,50v75" style="stroke: rgb(235, 240, 248); stroke-opacity: 1; stroke-width: 1px;"/><path class="xgrid crisp" transform="translate(105.36,0)" d="M0,50v75" style="stroke: rgb(235, 240, 248); stroke-opacity: 1; stroke-width: 1px;"/><path class="xgrid crisp" transform="translate(168.26,0)" d="M0,50v75" style="stroke: rgb(235, 240, 248); stroke-opacity: 1; stroke-width: 1px;"/><path class="xgrid crisp" transform="translate(230.14,0)" d="M0,50v75" style="stroke: rgb(235, 240, 248); stroke-opacity: 1; stroke-width: 1px;"/></g><g class="y"><path class="ygrid crisp" transform="translate(0,98.75999999999999)" d="M10,0h280" style="stroke: rgb(235, 240, 248); stroke-opacity: 1; stroke-width: 1px;"/><path class="ygrid crisp" transform="translate(0,72.51)" d="M10,0h280" style="stroke: rgb(235, 240, 248); stroke-opacity: 1; stroke-width: 1px;"/></g></g><g class="zerolinelayer"><path class="yzl zl crisp" transform="translate(0,125)" d="M10,0h280" style="stroke: rgb(235, 240, 248); stroke-opacity: 1; stroke-width: 2px;"/></g><path class="xlines-below"/><path class="ylines-below"/><g class="overlines-below"/><g class="xaxislayer-below"/><g class="yaxislayer-below"/><g class="overaxes-below"/><g class="plot" transform="translate(10,50)" clip-path="url(#clipd7e63exyplot)"><g class="scatterlayer mlayer"><g class="trace scatter trace2bdc3b" style="stroke-miterlimit: 2; opacity: 1;"><g class="fills"/><g class="errorbars"/><g class="lines"><path class="js-line" d="M0,64.5L32.46,64.9L33.48,66.08L36.52,66.86L37.54,66.86L63.91,66.86L64.93,62.93L68.99,63.98L70,64.5L73.04,63.98L74.06,63.98L115.65,62.93L116.67,61.48L118.7,57.68L119.71,57.68L132.9,57.68L133.91,56.37L135.94,55.58L136.96,54.79L138.99,53.74L140,52.56L142.03,51.64L143.04,50.33L146.09,50.07L147.1,49.68L157.25,49.54L158.26,49.54L173.48,49.54L174.49,48.1L191.74,47.18L192.75,46.13L193.77,46.13L194.78,47.44L196.81,48.1L197.83,46.53L199.86,44.69L200.87,43.9L202.9,43.11L203.91,43.11L205.94,43.51L206.96,41.41L208.99,38.26L210,38.26L211.01,38.26L219.13,43.64L221.16,44.69L223.19,44.69L225.22,45.48L226.23,45.08L229.28,40.36L230.29,40.36L243.48,39.44L244.49,38.78L245.51,39.44L246.52,38.26L248.55,35.9L249.57,35.9L251.59,35.9L254.64,30.12L257.68,28.42L258.7,22.91L260.72,15.95L261.74,15.95L263.77,15.95L264.78,17.27L267.83,14.38L268.84,17.27L272.9,24.48L273.91,24.48L280,24.48" style="vector-effect: non-scaling-stroke; fill: none; stroke: rgb(99, 110, 250); stroke-opacity: 1; stroke-width: 5px; opacity: 1;"/></g><g class="points"/><g class="text"/></g><g class="trace scatter tracedeb37e" style="stroke-miterlimit: 2; opacity: 1;"><g class="fills"/><g class="errorbars"/><g class="lines"><path class="js-line" d="M0,15.95L24.35,16.61L25.36,17.27L31.45,17.27L32.46,18.71L35.51,24.48L36.52,24.48L42.61,26.58L43.62,26.58L60.87,27.5L61.88,28.42L63.91,28.42L64.93,30.12L65.94,30.12L66.96,31.7L68.99,34.32L70,34.59L87.25,34.59L88.26,31.7L89.28,29.34L90.29,30.12L91.3,29.73L93.33,28.42L94.35,28.42L135.94,27.5L136.96,25.01L140,22.38L141.01,22.38L144.06,22.38L145.07,15.17L190.72,14.38L191.74,15.95L195.8,17.27L196.81,17.27L199.86,17.27L200.87,15.17L202.9,12.94L203.91,12.94L204.93,12.94L205.94,10.44L208.99,3.75L210,3.75L211.01,3.75L219.13,11.23L221.16,12.94L223.19,12.94L225.22,11.23L226.23,12.02L228.26,19.89L229.28,17.27L243.48,16.61L244.49,15.17L246.52,14.38L247.54,21.2L251.59,21.2L254.64,26.58L257.68,27.5L258.7,31.31L260.72,34.59L261.74,34.59L263.77,34.59L264.78,33.27L267.83,35.24L268.84,32.49L270.87,28.42L271.88,24.48L280,24.48" style="vector-effect: non-scaling-stroke; fill: none; stroke: rgb(239, 85, 59); stroke-opacity: 1; stroke-width: 5px; opacity: 1;"/></g><g class="points"/><g class="text"/></g><g class="trace scatter traceb8f1a2" style="stroke-miterlimit: 2; opacity: 1;"><g class="fills"/><g class="errorbars"/><g class="lines"><path class="js-line" d="M0,37.21L60.87,36.55L61.88,34.59L63.91,34.59L64.93,33.27L65.94,33.27L66.96,29.73L70,21.2L71.01,21.2L78.12,20.55L79.13,19.89L87.25,19.89L88.26,21.2L90.29,24.48L91.3,24.48L135.94,25.01L136.96,26.06L140,26.58L141.01,26.58L144.06,26.58L145.07,31.31L148.12,32.49L149.13,32.49L152.17,33.54L153.19,34.59L155.22,35.24L156.23,35.9L170.43,35.9L171.45,37.21L172.46,38.26L173.48,41.8L175.51,44.69L176.52,44.69L187.68,44.69L188.7,46.53L190.72,48.1L191.74,47.58L194.78,48.1L195.8,48.1L198.84,50.73L199.86,50.73L202.9,54.79L203.91,54.79L205.94,54.79L206.96,57.02L208.99,58.86L210,58.86L211.01,58.86L219.13,39.44L221.16,36.55L223.19,36.55L225.22,39.44L226.23,39.44L231.3,40.36L232.32,40.36L246.52,40.36L247.54,35.9L257.68,35.24L258.7,38.52L260.72,42.33L261.74,42.33L269.86,43.11L270.87,43.9L272.9,44.69L273.91,44.69L280,44.69" style="vector-effect: non-scaling-stroke; fill: none; stroke: rgb(0, 204, 150); stroke-opacity: 1; stroke-width: 5px; opacity: 1;"/></g><g class="points"/><g class="text"/></g></g></g><g class="overplot"/><path class="xlines-above crisp" d="M0,0" style="fill: none;"/><path class="ylines-above crisp" d="M0,0" style="fill: none;"/><g class="overlines-above"/><g class="xaxislayer-above"/><g class="yaxislayer-above"/><g class="overaxes-above"/></g></g><g class="polarlayer"/><g class="smithlayer"/><g class="ternarylayer"/><g class="geolayer"/><g class="funnelarealayer"/><g class="pielayer"/><g class="iciclelayer"/><g class="treemaplayer"/><g class="sunburstlayer"/><g class="glimages"/><defs id="topdefs-d7e63e"><g class="clips"/></defs><g class="layer-above"><g class="imagelayer"/><g class="shapelayer"/></g><g class="infolayer"><g class="g-gtitle"><text class="gtitle" x="15" y="25" text-anchor="start" dy="0em" style="font-family: Ubuntu, verdana, arial, sans-serif; font-size: 16px; fill: rgb(233, 84, 32); opacity: 1; font-weight: normal; white-space: pre;">Prezident/ka ČR 2023</text></g><g class="g-xtitle"/><g class="g-ytitle"/></g></svg>