<svg class="main-svg" xmlns="http://www.w3.org/2000/svg" xmlns:xlink="http://www.w3.org/1999/xlink" width="300" height="135" style="" viewBox="0 0 300 135"><rect x="0" y="0" width="300" height="135" style="fill: rgb(255, 255, 255); fill-opacity: 1;"/><defs id="defs-775394"><g class="clips"><clipPath id="clip775394xyplot" class="plotclip"><rect width="280" height="75"/></clipPath><clipPath class="axesclip" id="clip775394x"><rect x="10" y="0" width="280" height="135"/></clipPath><clipPath class="axesclip" id="clip775394y"><rect x="0" y="50" width="300" height="75"/></clipPath><clipPath class="axesclip" id="clip775394xy"><rect x="10" y="50" width="280" height="75"/></clipPath></g><g class="gradients"/><g class="patterns"/></defs><g class="bglayer"/><g class="layer-below"><g class="imagelayer"/><g class="shapelayer"/></g><g class="cartesianlayer"><g class="subplot xy"><g class="layer-subplot"><g class="shapelayer"/><g class="imagelayer"/></g><g class="minor-gridlayer"><g class="x"/><g class="y"/></g><g class="gridlayer"><g class="x"><path class="xgrid crisp" transform="translate(60.77,0)" d="M0,50v75" style="stroke: rgb(235, 240, 248); stroke-opacity: 1; stroke-width: 1px;"/><path class="xgrid crisp" transform="translate(154.62,0)" d="M0,50v75" style="stroke: rgb(235, 240, 248); stroke-opacity: 1; stroke-width: 1px;"/><path class="xgrid crisp" transform="translate(250,0)" d="M0,50v75" style="stroke: rgb(235, 240, 248); stroke-opacity: 1; stroke-width: 1px;"/></g><g class="y"><path class="ygrid crisp" transform="translate(0,105.59)" d="M10,0h280" style="stroke: rgb(235, 240, 248); stroke-opacity: 1; stroke-width: 1px;"/><path class="ygrid crisp" transform="translate(0,86.17)" d="M10,0h280" style="stroke: rgb(235, 240, 248); stroke-opacity: 1; stroke-width: 1px;"/><path class="ygrid crisp" transform="translate(0,66.76)" d="M10,0h280" style="stroke: rgb(235, 240, 248); stroke-opacity: 1; stroke-width: 1px;"/></g></g><g class="zerolinelayer"><path class="yzl zl crisp" transform="translate(0,125)" d="M10,0h280" style="stroke: rgb(235, 240, 248); stroke-opacity: 1; stroke-width: 2px;"/></g><path class="xlines-below"/><path class="ylines-below"/><g class="overlines-below"/><g class="xaxislayer-below"/><g class="yaxislayer-below"/><g class="overaxes-below"/><g class="plot" transform="translate(10,50)" clip-path="url(#clip775394xyplot)"><g class="scatterlayer mlayer"><g class="trace scatter tracedbf543" style="stroke-miterlimit: 2; opacity: 1;"><g class="fills"/><g class="errorbars"/><g class="lines"><path class="js-line" d="M0,5.5L36.92,6.47L38.46,7.24L47.69,7.24L49.23,8.8L52.31,15.79L53.85,15.79L60,16.95L61.54,17.53L66.15,18.12L67.69,18.12L92.31,19.09L93.85,20.25L96.92,20.25L98.46,22.19L100,22.19L101.54,24.13L104.62,27.24L106.15,27.63L132.31,27.63L133.85,24.13L135.38,21.22L136.92,22.19L144.62,20.25L146.15,20.25L206.15,19.09L207.69,16.37L210.77,13.85L212.31,13.07L218.46,13.07L220,4.72L280,3.75" style="vector-effect: non-scaling-stroke; fill: none; stroke: rgb(99, 110, 250); stroke-opacity: 1; stroke-width: 5px; opacity: 1;"/></g><g class="points"/><g class="text"/></g><g class="trace scatter trace059686" style="stroke-miterlimit: 2; opacity: 1;"><g class="fills"/><g class="errorbars"/><g class="lines"><path class="js-line" d="M0,30.54L92.31,29.76L93.85,27.63L96.92,27.63L98.46,25.88L100,25.88L101.54,21.81L104.62,13.85L106.15,11.71L118.46,10.93L120,10.35L132.31,10.35L133.85,11.71L136.92,15.79L138.46,15.79L206.15,16.37L207.69,17.53L212.31,18.12L213.85,18.12L216.92,18.7L218.46,18.12L220,23.75L221.54,24.52L226.15,25.11L227.69,25.11L230.77,26.27L232.31,27.63L235.38,28.41L236.92,28.99L258.46,28.99L260,30.54L261.54,31.9L263.08,35.98L264.62,39.47L266.15,39.47L280,39.47" style="vector-effect: non-scaling-stroke; fill: none; stroke: rgb(239, 85, 59); stroke-opacity: 1; stroke-width: 5px; opacity: 1;"/></g><g class="points"/><g class="text"/></g><g class="trace scatter tracee9ef51" style="stroke-miterlimit: 2; opacity: 1;"><g class="fills"/><g class="errorbars"/><g class="lines"><path class="js-line" d="M0,62.57L49.23,63.16L50.77,64.52L53.85,65.49L55.38,65.49L96.92,65.49L98.46,60.83L104.62,61.99L106.15,62.57L110.77,61.99L112.31,61.99L175.38,60.83L176.92,59.27L180,54.62L181.54,54.62L201.54,54.62L203.08,53.06L206.15,52.29L207.69,51.31L209.23,51.31L210.77,49.96L213.85,48.6L215.38,47.63L218.46,45.3L220,45.68L260,45.88L261.54,46.46L266.15,43.35L267.69,43.35L280,43.35" style="vector-effect: non-scaling-stroke; fill: none; stroke: rgb(0, 204, 150); stroke-opacity: 1; stroke-width: 5px; opacity: 1;"/></g><g class="points"/><g class="text"/></g><g class="trace scatter trace97aecc" style="stroke-miterlimit: 2; opacity: 1;"><g class="fills"/><g class="errorbars"/><g class="lines"><path class="js-line" d="M0,68.59L47.69,68.59L49.23,66.07L52.31,64.9L53.85,64.9L60,64.13L61.54,63.55L67.69,63.16L69.23,63.16L103.08,63.16L104.62,64.32L109.23,64.9L110.77,64.9L116.92,64.52L118.46,64.32L133.85,63.16L135.38,64.52L138.46,65.49L140,65.49L209.23,66.07L210.77,66.46L220,66.65L221.54,66.46L226.15,64.9L227.69,64.9L256.92,64.13L258.46,63.55L261.54,54.62L263.08,54.62L280,54.62" style="vector-effect: non-scaling-stroke; fill: none; stroke: rgb(171, 99, 250); stroke-opacity: 1; stroke-width: 5px; opacity: 1;"/></g><g class="points"/><g class="text"/></g><g class="trace scatter trace8b022c" style="stroke-miterlimit: 2; opacity: 1;"><g class="fills"/><g class="errorbars"/><g class="lines"><path class="js-line" d="M0,61.41L100,61.99L101.54,62.38L112.31,62.57L113.85,62.57L120,63.16L121.54,63.16L210.77,64.32L212.31,64.52L218.46,65.49L220,65.88L230.77,66.07L232.31,66.07L280,66.65" style="vector-effect: non-scaling-stroke; fill: none; stroke: rgb(255, 161, 90); stroke-opacity: 1; stroke-width: 5px; opacity: 1;"/></g><g class="points"/><g class="text"/></g></g></g><g class="overplot"/><path class="xlines-above crisp" d="M0,0" style="fill: none;"/><path class="ylines-above crisp" d="M0,0" style="fill: none;"/><g class="overlines-above"/><g class="xaxislayer-above"/><g class="yaxislayer-above"/><g class="overaxes-above"/></g></g><g class="polarlayer"/><g class="smithlayer"/><g class="ternarylayer"/><g class="geolayer"/><g class="funnelarealayer"/><g class="pielayer"/><g class="iciclelayer"/><g class="treemaplayer"/><g class="sunburstlayer"/><g class="glimages"/><defs id="topdefs-775394"><g class="clips"/></defs><g class="layer-above"><g class="imagelayer"/><g class="shapelayer"/></g><g class="infolayer"><g class="g-gtitle"><text class="gtitle" x="15" y="25" text-anchor="start" dy="0em" style="font-family: Ubuntu, verdana, arial, sans-serif; font-size: 16px; fill: rgb(233, 84, 32); opacity: 1; font-weight: normal; white-space: pre;">Prezident/ka ČR 2023</text></g><g class="g-xtitle"/><g class="g-ytitle"/></g></svg>