<svg class="main-svg" xmlns="http://www.w3.org/2000/svg" xmlns:xlink="http://www.w3.org/1999/xlink" width="300" height="135" style="" viewBox="0 0 300 135"><rect x="0" y="0" width="300" height="135" style="fill: rgb(255, 255, 255); fill-opacity: 1;"/><defs id="defs-2a6c0d"><g class="clips"><clipPath id="clip2a6c0dxyplot" class="plotclip"><rect width="280" height="75"/></clipPath><clipPath class="axesclip" id="clip2a6c0dx"><rect x="10" y="0" width="280" height="135"/></clipPath><clipPath class="axesclip" id="clip2a6c0dy"><rect x="0" y="50" width="300" height="75"/></clipPath><clipPath class="axesclip" id="clip2a6c0dxy"><rect x="10" y="50" width="280" height="75"/></clipPath></g><g class="gradients"/><g class="patterns"/></defs><g class="bglayer"/><g class="layer-below"><g class="imagelayer"/><g class="shapelayer"/></g><g class="cartesianlayer"><g class="subplot xy"><g class="layer-subplot"><g class="shapelayer"/><g class="imagelayer"/></g><g class="minor-gridlayer"><g class="x"/><g class="y"/></g><g class="gridlayer"><g class="x"><path class="xgrid crisp" transform="translate(49.15,0)" d="M0,50v75" style="stroke: rgb(235, 240, 248); stroke-opacity: 1; stroke-width: 1px;"/><path class="xgrid crisp" transform="translate(121.53,0)" d="M0,50v75" style="stroke: rgb(235, 240, 248); stroke-opacity: 1; stroke-width: 1px;"/><path class="xgrid crisp" transform="translate(195.08,0)" d="M0,50v75" style="stroke: rgb(235, 240, 248); stroke-opacity: 1; stroke-width: 1px;"/><path class="xgrid crisp" transform="translate(267.46,0)" d="M0,50v75" style="stroke: rgb(235, 240, 248); stroke-opacity: 1; stroke-width: 1px;"/></g><g class="y"><path class="ygrid crisp" transform="translate(0,97.65)" d="M10,0h280" style="stroke: rgb(235, 240, 248); stroke-opacity: 1; stroke-width: 1px;"/><path class="ygrid crisp" transform="translate(0,70.3)" d="M10,0h280" style="stroke: rgb(235, 240, 248); stroke-opacity: 1; stroke-width: 1px;"/></g></g><g class="zerolinelayer"><path class="yzl zl crisp" transform="translate(0,125)" d="M10,0h280" style="stroke: rgb(235, 240, 248); stroke-opacity: 1; stroke-width: 2px;"/></g><path class="xlines-below"/><path class="ylines-below"/><g class="overlines-below"/><g class="xaxislayer-below"/><g class="yaxislayer-below"/><g class="overaxes-below"/><g class="plot" transform="translate(10,50)" clip-path="url(#clip2a6c0dxyplot)"><g class="scatterlayer mlayer"><g class="trace scatter trace50974b" style="stroke-miterlimit: 2; opacity: 1;"><g class="fills"/><g class="errorbars"/><g class="lines"><path class="js-line" d="M0,15.92L28.47,16.61L29.66,17.29L36.78,17.29L37.97,18.66L40.34,24.54L41.53,24.54L46.27,25.63L47.46,26.04L51.02,26.59L52.2,26.59L71.19,27.55L72.37,28.37L74.75,28.37L75.93,30.14L77.12,30.14L78.31,31.79L80.68,34.25L81.86,34.66L102.03,34.66L103.22,31.79L104.41,29.32L105.59,30.14L111.53,28.37L112.71,28.37L158.98,27.55L160.17,25.08L162.54,22.9L163.73,22.35L168.47,22.35L169.66,15.24L223.05,14.42L224.24,15.92L228.98,17.29L230.17,17.29L233.73,17.29L234.92,15.24L237.29,12.91L238.47,12.91L239.66,12.91L240.85,10.45L244.41,3.75L245.59,3.75L246.78,3.75L256.27,11.27L258.64,12.91L261.02,12.91L263.39,11.27L264.58,12.09L266.95,19.89L268.14,17.29L280,17.29" style="vector-effect: non-scaling-stroke; fill: none; stroke: rgb(99, 110, 250); stroke-opacity: 1; stroke-width: 5px; opacity: 1;"/></g><g class="points"/><g class="text"/></g><g class="trace scatter trace11251e" style="stroke-miterlimit: 2; opacity: 1;"><g class="fills"/><g class="errorbars"/><g class="lines"><path class="js-line" d="M0,64.47L37.97,64.88L39.15,65.97L41.53,66.93L42.71,66.93L74.75,66.93L75.93,62.83L80.68,63.92L81.86,64.47L85.42,63.92L86.61,63.92L135.25,62.83L136.44,61.6L138.81,57.63L140,57.63L157.8,56.4L158.98,55.58L168.47,49.84L169.66,49.97L202.88,49.56L204.07,48.06L224.24,47.1L225.42,46.14L226.61,46.14L227.8,47.51L230.17,48.06L231.36,46.55L233.73,44.78L234.92,43.96L237.29,43.14L238.47,43.14L240.85,43.55L242.03,41.36L244.41,38.35L245.59,38.35L246.78,38.35L256.27,43.68L258.64,44.78L261.02,44.78L263.39,45.46L264.58,45.05L268.14,40.4L269.32,40.4L280,39.85" style="vector-effect: non-scaling-stroke; fill: none; stroke: rgb(239, 85, 59); stroke-opacity: 1; stroke-width: 5px; opacity: 1;"/></g><g class="points"/><g class="text"/></g><g class="trace scatter trace4d0928" style="stroke-miterlimit: 2; opacity: 1;"><g class="fills"/><g class="errorbars"/><g class="lines"><path class="js-line" d="M0,37.12L71.19,36.57L72.37,34.66L74.75,34.66L75.93,33.29L77.12,33.29L78.31,29.73L80.68,22.9L81.86,21.12L103.22,21.12L104.41,23.44L106.78,24.54L107.97,24.54L158.98,25.08L160.17,26.04L163.73,26.59L164.92,26.59L168.47,26.59L169.66,31.37L173.22,32.47L174.41,32.47L177.97,33.56L179.15,34.66L199.32,35.89L200.51,37.12L201.69,38.35L202.88,41.77L205.25,44.78L206.44,44.78L219.49,44.78L220.68,46.55L223.05,48.06L224.24,47.65L231.36,49.97L232.54,50.79L233.73,50.79L234.92,52.98L237.29,54.76L238.47,54.76L240.85,54.76L242.03,57.08L244.41,58.86L245.59,58.86L246.78,58.86L256.27,39.44L258.64,36.57L261.02,36.57L263.39,39.44L264.58,39.44L270.51,40.4L271.69,40.4L280,40.95" style="vector-effect: non-scaling-stroke; fill: none; stroke: rgb(0, 204, 150); stroke-opacity: 1; stroke-width: 5px; opacity: 1;"/></g><g class="points"/><g class="text"/></g><g class="trace scatter trace16048f" style="stroke-miterlimit: 2; opacity: 1;"><g class="fills"/><g class="errorbars"/><g class="lines"><path class="js-line" d="M0,63.51L77.12,63.92L78.31,64.2L84.24,64.47L85.42,64.47L161.36,65.7L162.54,65.84L181.53,67.48L182.71,67.48L223.05,66.66L224.24,65.29L230.17,66.38L231.36,66.38L240.85,66.38L242.03,67.89L244.41,69.53L245.59,69.53L280,70.49" style="vector-effect: non-scaling-stroke; fill: none; stroke: rgb(171, 99, 250); stroke-opacity: 1; stroke-width: 5px; opacity: 1;"/></g><g class="points"/><g class="text"/></g><g class="trace scatter traceaab37f" style="stroke-miterlimit: 2; opacity: 1;"><g class="fills"/><g class="errorbars"/><g class="lines"><path class="js-line" d="M0,71.58L136.44,71.03L137.63,70.49L266.95,71.58L268.14,71.72L280,71.85" style="vector-effect: non-scaling-stroke; fill: none; stroke: rgb(255, 161, 90); stroke-opacity: 1; stroke-width: 5px; opacity: 1;"/></g><g class="points"/><g class="text"/></g></g></g><g class="overplot"/><path class="xlines-above crisp" d="M0,0" style="fill: none;"/><path class="ylines-above crisp" d="M0,0" style="fill: none;"/><g class="overlines-above"/><g class="xaxislayer-above"/><g class="yaxislayer-above"/><g class="overaxes-above"/></g></g><g class="polarlayer"/><g class="smithlayer"/><g class="ternarylayer"/><g class="geolayer"/><g class="funnelarealayer"/><g class="pielayer"/><g class="iciclelayer"/><g class="treemaplayer"/><g class="sunburstlayer"/><g class="glimages"/><defs id="topdefs-2a6c0d"><g class="clips"/></defs><g class="layer-above"><g class="imagelayer"/><g class="shapelayer"/></g><g class="infolayer"><g class="g-gtitle"><text class="gtitle" x="15" y="25" text-anchor="start" dy="0em" style="font-family: Ubuntu, verdana, arial, sans-serif; font-size: 16px; fill: rgb(233, 84, 32); opacity: 1; font-weight: normal; white-space: pre;">Prezident/ka ČR 2023</text></g><g class="g-xtitle"/><g class="g-ytitle"/></g></svg>