<svg class="main-svg" xmlns="http://www.w3.org/2000/svg" xmlns:xlink="http://www.w3.org/1999/xlink" width="300" height="135" style="" viewBox="0 0 300 135"><rect x="0" y="0" width="300" height="135" style="fill: rgb(255, 255, 255); fill-opacity: 1;"/><defs id="defs-4a8d58"><g class="clips"><clipPath id="clip4a8d58xyplot" class="plotclip"><rect width="280" height="75"/></clipPath><clipPath class="axesclip" id="clip4a8d58x"><rect x="10" y="0" width="280" height="135"/></clipPath><clipPath class="axesclip" id="clip4a8d58y"><rect x="0" y="50" width="300" height="75"/></clipPath><clipPath class="axesclip" id="clip4a8d58xy"><rect x="10" y="50" width="280" height="75"/></clipPath></g><g class="gradients"/><g class="patterns"/></defs><g class="bglayer"/><g class="layer-below"><g class="imagelayer"/><g class="shapelayer"/></g><g class="cartesianlayer"><g class="subplot xy"><g class="layer-subplot"><g class="shapelayer"/><g class="imagelayer"/></g><g class="minor-gridlayer"><g class="x"/><g class="y"/></g><g class="gridlayer"><g class="x"><path class="xgrid crisp" transform="translate(69.61,0)" d="M0,50v75" style="stroke: rgb(235, 240, 248); stroke-opacity: 1; stroke-width: 1px;"/><path class="xgrid crisp" transform="translate(179.81,0)" d="M0,50v75" style="stroke: rgb(235, 240, 248); stroke-opacity: 1; stroke-width: 1px;"/></g><g class="y"><path class="ygrid crisp" transform="translate(0,106.35)" d="M10,0h280" style="stroke: rgb(235, 240, 248); stroke-opacity: 1; stroke-width: 1px;"/><path class="ygrid crisp" transform="translate(0,87.7)" d="M10,0h280" style="stroke: rgb(235, 240, 248); stroke-opacity: 1; stroke-width: 1px;"/><path class="ygrid crisp" transform="translate(0,69.03999999999999)" d="M10,0h280" style="stroke: rgb(235, 240, 248); stroke-opacity: 1; stroke-width: 1px;"/></g></g><g class="zerolinelayer"><path class="yzl zl crisp" transform="translate(0,125)" d="M10,0h280" style="stroke: rgb(235, 240, 248); stroke-opacity: 1; stroke-width: 2px;"/></g><path class="xlines-below"/><path class="ylines-below"/><g class="overlines-below"/><g class="xaxislayer-below"/><g class="yaxislayer-below"/><g class="overaxes-below"/><g class="plot" transform="translate(10,50)" clip-path="url(#clip4a8d58xyplot)"><g class="scatterlayer mlayer"><g class="trace scatter trace10a3e0" style="stroke-miterlimit: 2; opacity: 1;"><g class="fills"/><g class="errorbars"/><g class="lines"><path class="js-line" d="M0,5.43L43.35,6.36L45.16,7.11L56,7.11L57.81,8.79L61.42,15.69L63.23,15.69L70.45,16.81L72.26,17.37L77.68,17.93L79.48,17.93L108.39,19.04L110.19,20.16L113.81,20.16L115.61,22.22L117.42,22.22L119.23,24.08L122.84,27.06L124.65,27.44L155.35,27.44L157.16,24.08L158.97,21.28L160.77,22.22L168,20.16L169.81,20.16L242.06,19.04L243.87,16.25L247.48,13.64L249.29,13.08L256.52,13.08L258.32,4.68L280,3.75" style="vector-effect: non-scaling-stroke; fill: none; stroke: rgb(99, 110, 250); stroke-opacity: 1; stroke-width: 5px; opacity: 1;"/></g><g class="points"/><g class="text"/></g><g class="trace scatter traceffda41" style="stroke-miterlimit: 2; opacity: 1;"><g class="fills"/><g class="errorbars"/><g class="lines"><path class="js-line" d="M0,30.42L108.39,29.86L110.19,27.44L113.81,27.44L115.61,25.95L117.42,25.95L119.23,21.66L122.84,13.64L124.65,11.77L139.1,11.02L140.9,10.28L155.35,10.28L157.16,11.77L160.77,15.69L162.58,15.69L242.06,16.25L243.87,17.37L249.29,17.93L251.1,17.93L254.71,18.67L256.52,17.93L258.32,23.71L260.13,24.64L267.35,25.01L269.16,25.01L274.58,27.44L276.39,28.37L280,29.12" style="vector-effect: non-scaling-stroke; fill: none; stroke: rgb(239, 85, 59); stroke-opacity: 1; stroke-width: 5px; opacity: 1;"/></g><g class="points"/><g class="text"/></g><g class="trace scatter trace42e1f4" style="stroke-miterlimit: 2; opacity: 1;"><g class="fills"/><g class="errorbars"/><g class="lines"><path class="js-line" d="M0,62.69L57.81,63.06L59.61,64.37L63.23,65.49L65.03,65.49L113.81,65.49L115.61,60.82L121.03,61.38L122.84,62.13L126.45,62.13L128.26,62.13L135.48,61.38L137.29,60.82L205.94,60.82L207.74,59.15L211.35,54.67L213.16,54.67L236.65,54.67L238.45,52.99L242.06,52.24L243.87,51.31L245.68,51.31L247.48,50.01L254.71,45.9L256.52,45.34L260.13,45.72L261.94,45.16L274.58,44.97L276.39,44.97L280,44.97" style="vector-effect: non-scaling-stroke; fill: none; stroke: rgb(0, 204, 150); stroke-opacity: 1; stroke-width: 5px; opacity: 1;"/></g><g class="points"/><g class="text"/></g><g class="trace scatter trace6cd0e1" style="stroke-miterlimit: 2; opacity: 1;"><g class="fills"/><g class="errorbars"/><g class="lines"><path class="js-line" d="M0,68.47L56,68.47L57.81,66.05L61.42,64.74L63.23,64.74L72.26,63.62L74.06,63.06L121.03,63.06L122.84,64.18L128.26,64.74L130.06,64.74L137.29,64.37L139.1,64.18L157.16,63.06L158.97,64.37L162.58,65.49L164.39,65.49L207.74,65.49L209.55,66.05L260.13,66.42L261.94,65.49L265.55,64.74L267.35,64.74L280,64.74" style="vector-effect: non-scaling-stroke; fill: none; stroke: rgb(171, 99, 250); stroke-opacity: 1; stroke-width: 5px; opacity: 1;"/></g><g class="points"/><g class="text"/></g><g class="trace scatter traced36778" style="stroke-miterlimit: 2; opacity: 1;"><g class="fills"/><g class="errorbars"/><g class="lines"><path class="js-line" d="M0,61.38L72.26,61.38L74.06,62.13L205.94,63.06L207.74,63.62L214.97,64L216.77,64L254.71,65.11L256.52,65.49L261.94,66.05L263.74,66.05L280,66.05" style="vector-effect: non-scaling-stroke; fill: none; stroke: rgb(255, 161, 90); stroke-opacity: 1; stroke-width: 5px; opacity: 1;"/></g><g class="points"/><g class="text"/></g></g></g><g class="overplot"/><path class="xlines-above crisp" d="M0,0" style="fill: none;"/><path class="ylines-above crisp" d="M0,0" style="fill: none;"/><g class="overlines-above"/><g class="xaxislayer-above"/><g class="yaxislayer-above"/><g class="overaxes-above"/></g></g><g class="polarlayer"/><g class="smithlayer"/><g class="ternarylayer"/><g class="geolayer"/><g class="funnelarealayer"/><g class="pielayer"/><g class="iciclelayer"/><g class="treemaplayer"/><g class="sunburstlayer"/><g class="glimages"/><defs id="topdefs-4a8d58"><g class="clips"/></defs><g class="layer-above"><g class="imagelayer"/><g class="shapelayer"/></g><g class="infolayer"><g class="g-gtitle"><text class="gtitle" x="15" y="25" text-anchor="start" dy="0em" style="font-family: Ubuntu, verdana, arial, sans-serif; font-size: 16px; fill: rgb(233, 84, 32); opacity: 1; font-weight: normal; white-space: pre;">Prezident/ka ČR 2023</text></g><g class="g-xtitle"/><g class="g-ytitle"/></g></svg>