<svg class="main-svg" xmlns="http://www.w3.org/2000/svg" xmlns:xlink="http://www.w3.org/1999/xlink" width="400" height="400" style="" viewBox="0 0 400 400"><rect x="0" y="0" width="400" height="400" style="fill: rgb(255, 255, 255); fill-opacity: 1;"/><defs id="defs-3458c9"><g class="clips"><clipPath id="clip3458c9xyplot" class="plotclip"><rect width="191" height="330"/></clipPath><clipPath class="axesclip" id="clip3458c9x"><rect x="50" y="0" width="191" height="400"/></clipPath><clipPath class="axesclip" id="clip3458c9y"><rect x="0" y="20" width="400" height="330"/></clipPath><clipPath class="axesclip" id="clip3458c9xy"><rect x="50" y="20" width="191" height="330"/></clipPath></g><g class="gradients"/><g class="patterns"/></defs><g class="bglayer"/><g class="layer-below"><g class="imagelayer"/><g class="shapelayer"/></g><g class="cartesianlayer"><g class="subplot xy"><g class="layer-subplot"><g class="shapelayer"/><g class="imagelayer"/></g><g class="minor-gridlayer"><g class="x"/><g class="y"/></g><g class="gridlayer"><g class="x"><path class="xgrid crisp" transform="translate(71.73,0)" d="M0,20v330" style="stroke: rgb(235, 240, 248); stroke-opacity: 1; stroke-width: 1px;"/><path class="xgrid crisp" transform="translate(111.91,0)" d="M0,20v330" style="stroke: rgb(235, 240, 248); stroke-opacity: 1; stroke-width: 1px;"/><path class="xgrid crisp" transform="translate(152.74,0)" d="M0,20v330" style="stroke: rgb(235, 240, 248); stroke-opacity: 1; stroke-width: 1px;"/><path class="xgrid crisp" transform="translate(192.92,0)" d="M0,20v330" style="stroke: rgb(235, 240, 248); stroke-opacity: 1; stroke-width: 1px;"/><path class="xgrid crisp" transform="translate(233.1,0)" d="M0,20v330" style="stroke: rgb(235, 240, 248); stroke-opacity: 1; stroke-width: 1px;"/></g><g class="y"><path class="ygrid crisp" transform="translate(0,288.77)" d="M50,0h191" style="stroke: rgb(235, 240, 248); stroke-opacity: 1; stroke-width: 1px;"/><path class="ygrid crisp" transform="translate(0,227.54)" d="M50,0h191" style="stroke: rgb(235, 240, 248); stroke-opacity: 1; stroke-width: 1px;"/><path class="ygrid crisp" transform="translate(0,166.31)" d="M50,0h191" style="stroke: rgb(235, 240, 248); stroke-opacity: 1; stroke-width: 1px;"/><path class="ygrid crisp" transform="translate(0,105.08)" d="M50,0h191" style="stroke: rgb(235, 240, 248); stroke-opacity: 1; stroke-width: 1px;"/><path class="ygrid crisp" transform="translate(0,43.85)" d="M50,0h191" style="stroke: rgb(235, 240, 248); stroke-opacity: 1; stroke-width: 1px;"/></g></g><g class="zerolinelayer"><path class="yzl zl crisp" transform="translate(0,350)" d="M50,0h191" style="stroke: rgb(235, 240, 248); stroke-opacity: 1; stroke-width: 2px;"/></g><path class="xlines-below"/><path class="ylines-below"/><g class="overlines-below"/><g class="xaxislayer-below"/><g class="yaxislayer-below"/><g class="overaxes-below"/><g class="plot" transform="translate(50,20)" clip-path="url(#clip3458c9xyplot)"><g class="scatterlayer mlayer"><g class="trace scatter trace5ddddb" style="stroke-miterlimit: 2; opacity: 1;"><g class="fills"/><g class="errorbars"/><g class="lines"><path class="js-line" d="M0,69.77L15.15,69.77L15.81,72.83L17.12,75.89L17.78,75.89L20.42,75.89L21.08,82.02L23.05,107.73L23.71,107.73L27,116.92L27.66,116.92L30.96,116.92L31.61,118.75L33.59,120.59L34.25,120.59L39.52,120.59L40.18,124.88L41.49,124.88L42.15,132.23L42.81,132.23L43.47,139.57L45.44,152.43L46.1,152.43L56.64,152.43L57.3,139.57L57.96,128.55L58.62,132.23L59.28,130.39L60.59,124.88L61.25,124.88L64.54,124.88L65.2,123.04L66.52,120.59L67.18,120.59L75.74,120.59L76.4,123.04L78.38,124.88L79.03,124.88L87.6,124.88L88.26,120.59L90.89,97.94L91.55,97.94L93.52,97.94L94.18,66.71L94.84,66.71L95.5,63.04L123.82,63.04L124.48,69.77L125.14,72.83L125.8,69.77L127.11,75.89L127.77,75.89L129.75,75.89L130.41,66.71L131.72,56.3L132.38,56.3L133.04,56.3L133.7,45.28L136.33,16.5L136.99,16.5L143.58,56.3L144.9,56.3L146.21,49.56L146.87,52.63L148.19,87.53L148.85,75.89L149.51,75.89L157.41,75.89L158.07,72.83L160.04,63.04L160.7,93.04L163.34,93.04" style="vector-effect: non-scaling-stroke; fill: none; stroke: rgb(99, 110, 250); stroke-opacity: 1; stroke-width: 5px; opacity: 1;"/></g><g class="points"/><g class="text"/></g><g class="trace scatter trace239bba" style="stroke-miterlimit: 2; opacity: 1;"><g class="fills"/><g class="errorbars"/><g class="lines"><path class="js-line" d="M0,163.45L15.81,162.23L16.47,160.39L39.52,160.39L40.18,152.43L41.49,152.43L42.15,146.31L42.81,146.31L43.47,130.39L45.44,93.04L46.1,93.04L50.06,93.04L50.71,89.98L52.03,87.53L52.69,87.53L56.64,87.53L57.3,93.04L59.28,107.73L59.93,107.73L87.6,107.73L88.26,110.18L90.23,116.92L90.89,116.92L91.55,116.92L92.21,118.75L92.87,118.75L93.52,116.92L95.5,142.63L96.16,142.63L98.13,142.63L98.79,147.53L101.43,157.94L102.09,157.94L110.65,157.94L111.31,163.45L111.97,168.35L112.62,183.66L113.94,196.52L114.6,196.52L121.84,196.52L122.5,204.48L123.82,211.21L124.48,209.38L126.46,211.21L127.11,211.21L131.72,241.22L132.38,241.22L133.7,241.22L134.36,251.01L135.68,258.97L136.33,258.97L136.99,258.97L142.26,173.25L143.58,160.39L144.9,160.39L146.21,173.25L146.87,173.25L149.51,177.54L150.17,177.54L152.8,177.54L153.46,179.99L158.73,179.99L159.39,177.54L160.04,177.54L160.7,157.94L163.34,157.94" style="vector-effect: non-scaling-stroke; fill: none; stroke: rgb(239, 85, 59); stroke-opacity: 1; stroke-width: 5px; opacity: 1;"/></g><g class="points"/><g class="text"/></g><g class="trace scatter trace68b3b6" style="stroke-miterlimit: 2; opacity: 1;"><g class="fills"/><g class="errorbars"/><g class="lines"><path class="js-line" d="M0,283.46L3.29,283.46L3.95,285.3L21.08,285.3L21.73,290.2L23.05,294.49L23.71,294.49L41.49,294.49L42.15,276.73L43.47,277.95L44.13,279.18L45.44,283.46L46.1,281.63L48.74,281.63L49.4,279.18L50.71,276.73L51.37,276.73L75.08,276.73L75.74,270.61L77.72,254.07L78.38,254.07L86.28,254.07L86.94,247.95L87.6,247.95L88.26,244.89L93.52,219.17L94.18,219.79L95.5,218.56L96.16,217.95L110.65,217.95L111.31,220.4L111.97,223.46L112.62,217.95L113.94,211.21L114.6,211.21L123.82,211.21L124.48,207.54L125.8,203.25L126.46,208.76L127.77,211.21L128.43,204.48L130.41,193.46L131.07,189.78L133.04,189.78L133.7,191.62L135.68,168.35L136.33,168.35L136.99,168.35L142.26,192.23L143.58,196.52L144.9,196.52L146.21,200.19L146.87,198.35L148.85,177.54L149.51,177.54L152.8,177.54L153.46,175.09L157.41,174.47L158.07,173.25L158.73,170.8L159.39,173.25L161.36,157.94L162.02,157.94L163.34,157.94" style="vector-effect: non-scaling-stroke; fill: none; stroke: rgb(0, 204, 150); stroke-opacity: 1; stroke-width: 5px; opacity: 1;"/></g><g class="points"/><g class="text"/></g><g class="trace scatter trace8726b4" style="stroke-miterlimit: 2; opacity: 1;"><g class="fills"/><g class="errorbars"/><g class="lines"><path class="js-line" d="M0,279.18L3.29,279.18L3.95,276.73L25.69,276.73L26.34,279.18L27.66,281.63L28.32,281.63L43.47,282.85L44.13,283.46L49.4,284.69L50.06,285.3L75.08,285.3L75.74,287.14L77.72,288.98L78.38,288.98L91.55,290.2L92.21,291.42L95.5,296.94L96.16,296.94L112.62,296.94L113.28,298.77L123.16,298.77L123.82,293.26L124.48,287.14L125.14,288.98L125.8,288.98L126.46,288.98L127.11,292.04L133.7,292.04L134.36,298.77L136.33,305.51L136.99,305.51L144.9,309.18L145.56,309.18L160.04,310.41L160.7,316.53L163.34,316.53" style="vector-effect: non-scaling-stroke; fill: none; stroke: rgb(171, 99, 250); stroke-opacity: 1; stroke-width: 5px; opacity: 1;"/></g><g class="points"/><g class="text"/></g><g class="trace scatter tracedde8f7" style="stroke-miterlimit: 2; opacity: 1;"><g class="fills"/><g class="errorbars"/><g class="lines"><path class="js-line" d="M0,315.3L57.96,315.92L58.62,314.69L75.08,314.69L75.74,312.86L77.06,310.41L77.72,310.41L94.18,309.79L94.84,309.18L112.62,310.41L113.28,311.02L124.48,311.63L125.14,313.47L127.11,314.69L127.77,314.69L160.04,315.92L160.7,319.59L163.34,319.59" style="vector-effect: non-scaling-stroke; fill: none; stroke: rgb(255, 161, 90); stroke-opacity: 1; stroke-width: 5px; opacity: 1;"/></g><g class="points"/><g class="text"/></g><g class="trace scatter trace4f5a69" style="stroke-miterlimit: 2; opacity: 1;"><g class="fills"/><g class="errorbars"/><g class="lines"><path class="js-line" d="M0,305.51L20.42,305.51L21.08,296.94L22.39,292.04L23.05,292.04L23.71,292.04L24.37,290.2L28.32,285.3L28.98,285.3L31.61,284.69L32.27,282.85L34.25,281.63L34.91,281.63L41.49,281.63L42.15,283.46L43.47,283.46L44.13,285.3L46.1,292.04L46.76,292.04L47.42,292.04L48.08,290.2L48.74,288.98L49.4,289.59L50.06,290.2L52.69,288.98L53.35,288.98L54.67,288.98L55.32,287.14L57.3,285.3L57.96,290.2L59.28,294.49L59.93,294.49L64.54,293.26L65.2,292.04L75.08,292.04L75.74,294.49L77.06,296.94L77.72,296.94L90.23,297.55L90.89,298.77L94.84,298.16L95.5,294.49L96.82,292.04L97.48,292.04L105.38,292.04L106.04,290.2L108.01,288.98L108.67,288.98L109.99,288.98L110.65,287.14L112.62,254.07L113.28,254.07L121.84,254.07L122.5,247.95L123.82,241.22L124.48,241.22L127.77,241.22L128.43,254.07L131.07,279.18L131.72,279.18L133.04,279.18L133.7,288.36L135.68,303.06L136.33,303.06L136.99,303.06L142.26,320.2L160.04,320.2L160.7,322.65L163.34,322.65" style="vector-effect: non-scaling-stroke; fill: none; stroke: rgb(25, 211, 243); stroke-opacity: 1; stroke-width: 5px; opacity: 1;"/></g><g class="points"/><g class="text"/></g></g></g><g class="overplot"/><path class="xlines-above crisp" d="M0,0" style="fill: none;"/><path class="ylines-above crisp" d="M0,0" style="fill: none;"/><g class="overlines-above"/><g class="xaxislayer-above"><g class="xtick"><text text-anchor="middle" x="0" y="363" transform="translate(71.73,0)" style="font-family: 'Open Sans', verdana, arial, sans-serif; font-size: 12px; fill: rgb(42, 63, 95); fill-opacity: 1; white-space: pre; opacity: 1;">1.5.22</text></g><g class="xtick"><text text-anchor="middle" x="0" y="363" style="font-family: 'Open Sans', verdana, arial, sans-serif; font-size: 12px; fill: rgb(42, 63, 95); fill-opacity: 1; white-space: pre; opacity: 1;" transform="translate(111.91,0)">1.7.22</text></g><g class="xtick"><text text-anchor="middle" x="0" y="363" style="font-family: 'Open Sans', verdana, arial, sans-serif; font-size: 12px; fill: rgb(42, 63, 95); fill-opacity: 1; white-space: pre; opacity: 1;" transform="translate(152.74,0)">1.9.22</text></g><g class="xtick"><text text-anchor="middle" x="0" y="363" style="font-family: 'Open Sans', verdana, arial, sans-serif; font-size: 12px; fill: rgb(42, 63, 95); fill-opacity: 1; white-space: pre; opacity: 1;" transform="translate(192.92,0)">1.11.22</text></g><g class="xtick"><text text-anchor="middle" x="0" y="363" style="font-family: 'Open Sans', verdana, arial, sans-serif; font-size: 12px; fill: rgb(42, 63, 95); fill-opacity: 1; white-space: pre; opacity: 1;" transform="translate(233.1,0)">1.1.23</text></g></g><g class="yaxislayer-above"><g class="ytick"><text text-anchor="end" x="49" y="4.199999999999999" transform="translate(0,350)" style="font-family: 'Open Sans', verdana, arial, sans-serif; font-size: 12px; fill: rgb(42, 63, 95); fill-opacity: 1; white-space: pre; opacity: 1;">0%</text></g><g class="ytick"><text text-anchor="end" x="49" y="4.199999999999999" style="font-family: 'Open Sans', verdana, arial, sans-serif; font-size: 12px; fill: rgb(42, 63, 95); fill-opacity: 1; white-space: pre; opacity: 1;" transform="translate(0,288.77)">10%</text></g><g class="ytick"><text text-anchor="end" x="49" y="4.199999999999999" style="font-family: 'Open Sans', verdana, arial, sans-serif; font-size: 12px; fill: rgb(42, 63, 95); fill-opacity: 1; white-space: pre; opacity: 1;" transform="translate(0,227.54)">20%</text></g><g class="ytick"><text text-anchor="end" x="49" y="4.199999999999999" style="font-family: 'Open Sans', verdana, arial, sans-serif; font-size: 12px; fill: rgb(42, 63, 95); fill-opacity: 1; white-space: pre; opacity: 1;" transform="translate(0,166.31)">30%</text></g><g class="ytick"><text text-anchor="end" x="49" y="4.199999999999999" style="font-family: 'Open Sans', verdana, arial, sans-serif; font-size: 12px; fill: rgb(42, 63, 95); fill-opacity: 1; white-space: pre; opacity: 1;" transform="translate(0,105.08)">40%</text></g><g class="ytick"><text text-anchor="end" x="49" y="4.199999999999999" style="font-family: 'Open Sans', verdana, arial, sans-serif; font-size: 12px; fill: rgb(42, 63, 95); fill-opacity: 1; white-space: pre; opacity: 1;" transform="translate(0,43.85)">50%</text></g></g><g class="overaxes-above"/></g></g><g class="polarlayer"/><g class="smithlayer"/><g class="ternarylayer"/><g class="geolayer"/><g class="funnelarealayer"/><g class="pielayer"/><g class="iciclelayer"/><g class="treemaplayer"/><g class="sunburstlayer"/><g class="glimages"/><defs id="topdefs-3458c9"><g class="clips"/><clipPath id="legend3458c9"><rect width="143" height="124" x="0" y="0"/></clipPath></defs><g class="layer-above"><g class="imagelayer"/><g class="shapelayer"/></g><g class="infolayer"><g class="legend" pointer-events="all" transform="translate(244.82,20)"><rect class="bg" shape-rendering="crispEdges" width="143" height="124" x="0" y="0" style="stroke: rgb(68, 68, 68); stroke-opacity: 1; fill: rgb(255, 255, 255); fill-opacity: 1; stroke-width: 0px;"/><g class="scrollbox" transform="" clip-path="url(#legend3458c9)"><g class="groups"><g class="traces" transform="translate(0,14.5)" style="opacity: 1;"><text class="legendtext" text-anchor="start" x="40" y="4.680000000000001" style="font-family: 'Open Sans', verdana, arial, sans-serif; font-size: 12px; fill: rgb(42, 63, 95); fill-opacity: 1; white-space: pre;">Pavel Petr</text><g class="layers" style="opacity: 1;"><g class="legendfill"/><g class="legendlines"><path class="js-line" d="M5,0h30" style="fill: none; stroke: rgb(99, 110, 250); stroke-opacity: 1; stroke-width: 5px;"/></g><g class="legendsymbols"><g class="legendpoints"/></g></g><rect class="legendtoggle" x="0" y="-9.5" width="137.0625" height="19" style="fill: rgb(0, 0, 0); fill-opacity: 0;"/></g><g class="traces" transform="translate(0,33.5)" style="opacity: 1;"><text class="legendtext" text-anchor="start" x="40" y="4.680000000000001" style="font-family: 'Open Sans', verdana, arial, sans-serif; font-size: 12px; fill: rgb(42, 63, 95); fill-opacity: 1; white-space: pre;">Babiš Andrej</text><g class="layers" style="opacity: 1;"><g class="legendfill"/><g class="legendlines"><path class="js-line" d="M5,0h30" style="fill: none; stroke: rgb(239, 85, 59); stroke-opacity: 1; stroke-width: 5px;"/></g><g class="legendsymbols"><g class="legendpoints"/></g></g><rect class="legendtoggle" x="0" y="-9.5" width="137.0625" height="19" style="fill: rgb(0, 0, 0); fill-opacity: 0;"/></g><g class="traces" transform="translate(0,52.5)" style="opacity: 1;"><text class="legendtext" text-anchor="start" x="40" y="4.680000000000001" style="font-family: 'Open Sans', verdana, arial, sans-serif; font-size: 12px; fill: rgb(42, 63, 95); fill-opacity: 1; white-space: pre;">Nerudová Danuše</text><g class="layers" style="opacity: 1;"><g class="legendfill"/><g class="legendlines"><path class="js-line" d="M5,0h30" style="fill: none; stroke: rgb(0, 204, 150); stroke-opacity: 1; stroke-width: 5px;"/></g><g class="legendsymbols"><g class="legendpoints"/></g></g><rect class="legendtoggle" x="0" y="-9.5" width="137.0625" height="19" style="fill: rgb(0, 0, 0); fill-opacity: 0;"/></g><g class="traces" transform="translate(0,71.5)" style="opacity: 1;"><text class="legendtext" text-anchor="start" x="40" y="4.680000000000001" style="font-family: 'Open Sans', verdana, arial, sans-serif; font-size: 12px; fill: rgb(42, 63, 95); fill-opacity: 1; white-space: pre;">Fischer Pavel</text><g class="layers" style="opacity: 1;"><g class="legendfill"/><g class="legendlines"><path class="js-line" d="M5,0h30" style="fill: none; stroke: rgb(171, 99, 250); stroke-opacity: 1; stroke-width: 5px;"/></g><g class="legendsymbols"><g class="legendpoints"/></g></g><rect class="legendtoggle" x="0" y="-9.5" width="137.0625" height="19" style="fill: rgb(0, 0, 0); fill-opacity: 0;"/></g><g class="traces" transform="translate(0,90.5)" style="opacity: 1;"><text class="legendtext" text-anchor="start" x="40" y="4.680000000000001" style="font-family: 'Open Sans', verdana, arial, sans-serif; font-size: 12px; fill: rgb(42, 63, 95); fill-opacity: 1; white-space: pre;">Hilšer Marek</text><g class="layers" style="opacity: 1;"><g class="legendfill"/><g class="legendlines"><path class="js-line" d="M5,0h30" style="fill: none; stroke: rgb(255, 161, 90); stroke-opacity: 1; stroke-width: 5px;"/></g><g class="legendsymbols"><g class="legendpoints"/></g></g><rect class="legendtoggle" x="0" y="-9.5" width="137.0625" height="19" style="fill: rgb(0, 0, 0); fill-opacity: 0;"/></g><g class="traces" transform="translate(0,109.5)" style="opacity: 1;"><text class="legendtext" text-anchor="start" x="40" y="4.680000000000001" style="font-family: 'Open Sans', verdana, arial, sans-serif; font-size: 12px; fill: rgb(42, 63, 95); fill-opacity: 1; white-space: pre;">Středula Josef</text><g class="layers" style="opacity: 1;"><g class="legendfill"/><g class="legendlines"><path class="js-line" d="M5,0h30" style="fill: none; stroke: rgb(25, 211, 243); stroke-opacity: 1; stroke-width: 5px;"/></g><g class="legendsymbols"><g class="legendpoints"/></g></g><rect class="legendtoggle" x="0" y="-9.5" width="137.0625" height="19" style="fill: rgb(0, 0, 0); fill-opacity: 0;"/></g></g></g><rect class="scrollbar" rx="20" ry="3" width="0" height="0" x="0" y="0" style="fill: rgb(128, 139, 164); fill-opacity: 1;"/></g><g class="g-gtitle"/><g class="g-xtitle"/><g class="g-ytitle"/></g></svg>