<svg class="main-svg" xmlns="http://www.w3.org/2000/svg" xmlns:xlink="http://www.w3.org/1999/xlink" width="300" height="135" style="" viewBox="0 0 300 135"><rect x="0" y="0" width="300" height="135" style="fill: rgb(255, 255, 255); fill-opacity: 1;"/><defs id="defs-79a634"><g class="clips"><clipPath id="clip79a634xyplot" class="plotclip"><rect width="280" height="75"/></clipPath><clipPath class="axesclip" id="clip79a634x"><rect x="10" y="0" width="280" height="135"/></clipPath><clipPath class="axesclip" id="clip79a634y"><rect x="0" y="50" width="300" height="75"/></clipPath><clipPath class="axesclip" id="clip79a634xy"><rect x="10" y="50" width="280" height="75"/></clipPath></g><g class="gradients"/><g class="patterns"/></defs><g class="bglayer"/><g class="layer-below"><g class="imagelayer"/><g class="shapelayer"/></g><g class="cartesianlayer"><g class="subplot xy"><g class="layer-subplot"><g class="shapelayer"/><g class="imagelayer"/></g><g class="minor-gridlayer"><g class="x"/><g class="y"/></g><g class="gridlayer"><g class="x"><path class="xgrid crisp" transform="translate(62.2,0)" d="M0,50v75" style="stroke: rgb(235, 240, 248); stroke-opacity: 1; stroke-width: 1px;"/><path class="xgrid crisp" transform="translate(158.7,0)" d="M0,50v75" style="stroke: rgb(235, 240, 248); stroke-opacity: 1; stroke-width: 1px;"/><path class="xgrid crisp" transform="translate(256.78,0)" d="M0,50v75" style="stroke: rgb(235, 240, 248); stroke-opacity: 1; stroke-width: 1px;"/></g><g class="y"><path class="ygrid crisp" transform="translate(0,105.59)" d="M10,0h280" style="stroke: rgb(235, 240, 248); stroke-opacity: 1; stroke-width: 1px;"/><path class="ygrid crisp" transform="translate(0,86.17)" d="M10,0h280" style="stroke: rgb(235, 240, 248); stroke-opacity: 1; stroke-width: 1px;"/><path class="ygrid crisp" transform="translate(0,66.76)" d="M10,0h280" style="stroke: rgb(235, 240, 248); stroke-opacity: 1; stroke-width: 1px;"/></g></g><g class="zerolinelayer"><path class="yzl zl crisp" transform="translate(0,125)" d="M10,0h280" style="stroke: rgb(235, 240, 248); stroke-opacity: 1; stroke-width: 2px;"/></g><path class="xlines-below"/><path class="ylines-below"/><g class="overlines-below"/><g class="xaxislayer-below"/><g class="yaxislayer-below"/><g class="overaxes-below"/><g class="plot" transform="translate(10,50)" clip-path="url(#clip79a634xyplot)"><g class="scatterlayer mlayer"><g class="trace scatter traced700b4" style="stroke-miterlimit: 2; opacity: 1;"><g class="fills"/><g class="errorbars"/><g class="lines"><path class="js-line" d="M0,5.5L37.97,6.47L39.55,7.24L49.04,7.24L50.62,8.8L53.79,15.59L55.37,15.59L58.53,16.37L60.11,16.95L74.35,18.12L75.93,18.7L82.26,19.09L83.84,19.09L99.66,20.25L101.24,22.19L102.82,22.19L104.41,24.13L107.57,27.05L109.15,27.63L136.05,27.63L137.63,24.13L139.21,21.22L140.79,22.19L148.7,20.25L150.28,20.25L211.98,19.09L213.56,16.37L216.72,13.85L218.31,13.07L224.63,13.07L226.21,4.72L280,3.75" style="vector-effect: non-scaling-stroke; fill: none; stroke: rgb(99, 110, 250); stroke-opacity: 1; stroke-width: 5px; opacity: 1;"/></g><g class="points"/><g class="text"/></g><g class="trace scatter trace1d2aee" style="stroke-miterlimit: 2; opacity: 1;"><g class="fills"/><g class="errorbars"/><g class="lines"><path class="js-line" d="M0,30.54L94.92,29.76L96.5,27.63L99.66,27.63L101.24,25.88L102.82,25.88L104.41,21.81L107.57,13.85L109.15,11.71L121.81,10.93L123.39,10.35L136.05,10.35L137.63,11.71L140.79,15.59L142.37,15.59L211.98,16.37L213.56,17.53L218.31,18.12L219.89,18.12L223.05,18.7L224.63,18.12L226.21,23.75L227.8,24.52L232.54,25.11L234.12,25.11L237.29,26.27L238.87,27.63L242.03,28.41L243.62,28.99L265.76,28.99L267.34,30.54L268.93,31.9L270.51,35.98L272.09,39.47L273.67,39.47L280,39.47" style="vector-effect: non-scaling-stroke; fill: none; stroke: rgb(239, 85, 59); stroke-opacity: 1; stroke-width: 5px; opacity: 1;"/></g><g class="points"/><g class="text"/></g><g class="trace scatter trace7751bf" style="stroke-miterlimit: 2; opacity: 1;"><g class="fills"/><g class="errorbars"/><g class="lines"><path class="js-line" d="M0,62.57L50.62,63.16L52.2,64.52L55.37,65.49L56.95,65.49L99.66,65.49L101.24,60.83L107.57,61.99L109.15,62.57L113.9,61.99L115.48,61.99L180.34,60.83L181.92,59.27L185.08,54.62L186.67,54.62L207.23,54.62L208.81,53.06L211.98,52.29L213.56,51.31L215.14,51.31L216.72,49.96L219.89,48.6L221.47,47.63L224.63,45.3L226.21,45.68L267.34,45.88L268.93,46.46L273.67,43.35L275.25,43.35L280,43.35" style="vector-effect: non-scaling-stroke; fill: none; stroke: rgb(0, 204, 150); stroke-opacity: 1; stroke-width: 5px; opacity: 1;"/></g><g class="points"/><g class="text"/></g><g class="trace scatter tracefd291b" style="stroke-miterlimit: 2; opacity: 1;"><g class="fills"/><g class="errorbars"/><g class="lines"><path class="js-line" d="M0,68.59L49.04,68.59L50.62,66.07L53.79,64.9L55.37,64.9L61.69,64.13L63.28,63.55L69.6,63.16L71.19,63.16L105.99,63.16L107.57,64.32L112.32,64.9L113.9,64.9L120.23,64.52L121.81,64.32L137.63,63.16L139.21,64.52L142.37,65.49L143.95,65.49L215.14,66.07L216.72,66.46L226.21,66.65L227.8,66.46L232.54,64.9L234.12,64.9L264.18,64.13L265.76,63.55L268.93,54.62L270.51,54.62L280,54.62" style="vector-effect: non-scaling-stroke; fill: none; stroke: rgb(171, 99, 250); stroke-opacity: 1; stroke-width: 5px; opacity: 1;"/></g><g class="points"/><g class="text"/></g><g class="trace scatter trace343223" style="stroke-miterlimit: 2; opacity: 1;"><g class="fills"/><g class="errorbars"/><g class="lines"><path class="js-line" d="M0,61.41L102.82,61.99L104.41,62.38L115.48,62.57L117.06,62.57L123.39,63.16L124.97,63.16L216.72,64.32L218.31,64.52L224.63,65.49L226.21,65.88L237.29,66.07L238.87,66.07L280,66.65" style="vector-effect: non-scaling-stroke; fill: none; stroke: rgb(255, 161, 90); stroke-opacity: 1; stroke-width: 5px; opacity: 1;"/></g><g class="points"/><g class="text"/></g></g></g><g class="overplot"/><path class="xlines-above crisp" d="M0,0" style="fill: none;"/><path class="ylines-above crisp" d="M0,0" style="fill: none;"/><g class="overlines-above"/><g class="xaxislayer-above"/><g class="yaxislayer-above"/><g class="overaxes-above"/></g></g><g class="polarlayer"/><g class="smithlayer"/><g class="ternarylayer"/><g class="geolayer"/><g class="funnelarealayer"/><g class="pielayer"/><g class="iciclelayer"/><g class="treemaplayer"/><g class="sunburstlayer"/><g class="glimages"/><defs id="topdefs-79a634"><g class="clips"/></defs><g class="layer-above"><g class="imagelayer"/><g class="shapelayer"/></g><g class="infolayer"><g class="g-gtitle"><text class="gtitle" x="15" y="25" text-anchor="start" dy="0em" style="font-family: Ubuntu, verdana, arial, sans-serif; font-size: 16px; fill: rgb(233, 84, 32); opacity: 1; font-weight: normal; white-space: pre;">Prezident/ka ČR 2023</text></g><g class="g-xtitle"/><g class="g-ytitle"/></g></svg>