<svg class="main-svg" xmlns="http://www.w3.org/2000/svg" xmlns:xlink="http://www.w3.org/1999/xlink" width="300" height="135" style="" viewBox="0 0 300 135"><rect x="0" y="0" width="300" height="135" style="fill: rgb(255, 255, 255); fill-opacity: 1;"/><defs id="defs-f50f0c"><g class="clips"><clipPath id="clipf50f0cxyplot" class="plotclip"><rect width="280" height="75"/></clipPath><clipPath class="axesclip" id="clipf50f0cx"><rect x="10" y="0" width="280" height="135"/></clipPath><clipPath class="axesclip" id="clipf50f0cy"><rect x="0" y="50" width="300" height="75"/></clipPath><clipPath class="axesclip" id="clipf50f0cxy"><rect x="10" y="50" width="280" height="75"/></clipPath></g><g class="gradients"/><g class="patterns"/></defs><g class="bglayer"/><g class="layer-below"><g class="imagelayer"/><g class="shapelayer"/></g><g class="cartesianlayer"><g class="subplot xy"><g class="layer-subplot"><g class="shapelayer"/><g class="imagelayer"/></g><g class="minor-gridlayer"><g class="x"/><g class="y"/></g><g class="gridlayer"><g class="x"><path class="xgrid crisp" transform="translate(41.54,0)" d="M0,50v75" style="stroke: rgb(235, 240, 248); stroke-opacity: 1; stroke-width: 1px;"/><path class="xgrid crisp" transform="translate(99.83,0)" d="M0,50v75" style="stroke: rgb(235, 240, 248); stroke-opacity: 1; stroke-width: 1px;"/><path class="xgrid crisp" transform="translate(159.08,0)" d="M0,50v75" style="stroke: rgb(235, 240, 248); stroke-opacity: 1; stroke-width: 1px;"/><path class="xgrid crisp" transform="translate(217.37,0)" d="M0,50v75" style="stroke: rgb(235, 240, 248); stroke-opacity: 1; stroke-width: 1px;"/><path class="xgrid crisp" transform="translate(275.67,0)" d="M0,50v75" style="stroke: rgb(235, 240, 248); stroke-opacity: 1; stroke-width: 1px;"/></g><g class="y"><path class="ygrid crisp" transform="translate(0,107.89)" d="M10,0h280" style="stroke: rgb(235, 240, 248); stroke-opacity: 1; stroke-width: 1px;"/><path class="ygrid crisp" transform="translate(0,90.78999999999999)" d="M10,0h280" style="stroke: rgb(235, 240, 248); stroke-opacity: 1; stroke-width: 1px;"/><path class="ygrid crisp" transform="translate(0,73.68)" d="M10,0h280" style="stroke: rgb(235, 240, 248); stroke-opacity: 1; stroke-width: 1px;"/><path class="ygrid crisp" transform="translate(0,56.57)" d="M10,0h280" style="stroke: rgb(235, 240, 248); stroke-opacity: 1; stroke-width: 1px;"/></g></g><g class="zerolinelayer"><path class="yzl zl crisp" transform="translate(0,125)" d="M10,0h280" style="stroke: rgb(235, 240, 248); stroke-opacity: 1; stroke-width: 2px;"/></g><path class="xlines-below"/><path class="ylines-below"/><g class="overlines-below"/><g class="xaxislayer-below"/><g class="yaxislayer-below"/><g class="overaxes-below"/><g class="plot" transform="translate(10,50)" clip-path="url(#clipf50f0cxyplot)"><g class="scatterlayer mlayer"><g class="trace scatter trace9c2e0b" style="stroke-miterlimit: 2; opacity: 1;"><g class="fills"/><g class="errorbars"/><g class="lines"><path class="js-line" d="M0,35.83L29.62,36.68L30.58,37.62L33.45,41.47L34.4,41.47L41.09,42.84L42.05,42.84L57.34,43.44L58.29,44.12L62.12,45.23L63.07,46.26L65.94,48.23L66.89,48.23L82.18,48.23L83.14,46.26L84.1,44.64L85.05,45.23L86.01,44.98L87.92,44.12L88.87,44.12L128.05,43.44L129.01,41.81L131.88,40.02L132.83,40.02L135.7,40.02L136.66,35.31L180.61,35.83L181.57,36.25L183.48,36.68L184.44,36.68L188.26,36.68L189.22,35.31L191.13,33.77L192.08,33.77L193.04,33.77L193.99,32.15L196.86,27.7L197.82,27.7L198.77,27.7L206.42,32.66L210.24,33.77L211.19,32.66L213.11,33.26L214.06,35.83L215.02,38.48L215.97,36.68L229.35,36.25L230.31,35.31L232.22,34.8L233.17,39.25L237,39.25L239.86,42.84L242.73,43.44L243.69,46L245.6,48.23L246.55,48.23L251.33,48.23L252.29,48.66L257.06,41.47L258.02,41.47L263.75,41.47L264.71,40.02L266.62,38.9L267.58,37.62L269.49,37.62L270.44,31.55L273.31,28.13L274.27,24.79L275.22,24.11L276.18,18.8L277.13,18.03L279.04,3.75L280,4.52" style="vector-effect: non-scaling-stroke; fill: none; stroke: rgb(99, 110, 250); stroke-opacity: 1; stroke-width: 5px; opacity: 1;"/></g><g class="points"/><g class="text"/></g><g class="trace scatter trace0a55fe" style="stroke-miterlimit: 2; opacity: 1;"><g class="fills"/><g class="errorbars"/><g class="lines"><path class="js-line" d="M0,49.85L57.34,49.51L58.29,48.23L62.12,47.29L63.07,44.98L65.94,39.25L66.89,39.25L83.14,39.25L84.1,40.79L86.96,41.47L87.92,41.47L129.01,42.5L129.97,42.84L135.7,42.84L136.66,46L140.48,46.77L141.43,46.77L143.34,47.54L144.3,48.23L160.55,49.08L161.5,49.85L162.46,50.62L163.41,53.02L165.32,54.9L166.28,54.9L177.75,56.1L178.7,57.12L185.39,57.89L186.35,58.41L189.22,60.37L190.17,61.57L193.99,61.57L194.95,63.11L196.86,64.31L197.82,64.31L198.77,64.31L206.42,51.39L208.33,49.51L210.24,49.51L212.15,51.39L213.11,51.39L217.88,51.99L218.84,51.99L232.22,51.99L233.17,49.08L242.73,48.66L243.69,50.79L245.6,53.27L246.55,53.27L255.15,54.39L256.11,54.9L269.49,55.41L270.44,57.12L272.35,57.12L273.31,51.05L275.22,50.62L276.18,52.25L277.13,52.5L279.04,61.57L280,59.95" style="vector-effect: non-scaling-stroke; fill: none; stroke: rgb(239, 85, 59); stroke-opacity: 1; stroke-width: 5px; opacity: 1;"/></g><g class="points"/><g class="text"/></g></g></g><g class="overplot"/><path class="xlines-above crisp" d="M0,0" style="fill: none;"/><path class="ylines-above crisp" d="M0,0" style="fill: none;"/><g class="overlines-above"/><g class="xaxislayer-above"/><g class="yaxislayer-above"/><g class="overaxes-above"/></g></g><g class="polarlayer"/><g class="smithlayer"/><g class="ternarylayer"/><g class="geolayer"/><g class="funnelarealayer"/><g class="pielayer"/><g class="iciclelayer"/><g class="treemaplayer"/><g class="sunburstlayer"/><g class="glimages"/><defs id="topdefs-f50f0c"><g class="clips"/></defs><g class="layer-above"><g class="imagelayer"/><g class="shapelayer"/></g><g class="infolayer"><g class="g-gtitle"><text class="gtitle" x="15" y="25" text-anchor="start" dy="0em" style="font-family: Ubuntu, verdana, arial, sans-serif; font-size: 16px; fill: rgb(233, 84, 32); opacity: 1; font-weight: normal; white-space: pre;">Prezident/ka ČR 2023</text></g><g class="g-xtitle"/><g class="g-ytitle"/></g></svg>