<svg class="main-svg" xmlns="http://www.w3.org/2000/svg" xmlns:xlink="http://www.w3.org/1999/xlink" width="1200" height="600" style="" viewBox="0 0 1200 600"><rect x="0" y="0" width="1200" height="600" style="fill: rgb(255, 255, 255); fill-opacity: 1;"/><defs id="defs-c4f135"><g class="clips"><clipPath id="clipc4f135xyplot" class="plotclip"><rect width="966" height="530"/></clipPath><clipPath class="axesclip" id="clipc4f135x"><rect x="50" y="0" width="966" height="600"/></clipPath><clipPath class="axesclip" id="clipc4f135y"><rect x="0" y="20" width="1200" height="530"/></clipPath><clipPath class="axesclip" id="clipc4f135xy"><rect x="50" y="20" width="966" height="530"/></clipPath></g><g class="gradients"/><g class="patterns"/></defs><g class="bglayer"/><g class="layer-below"><g class="imagelayer"/><g class="shapelayer"/></g><g class="cartesianlayer"><g class="subplot xy"><g class="layer-subplot"><g class="shapelayer"/><g class="imagelayer"/></g><g class="gridlayer"><g class="x"><path class="xgrid crisp" transform="translate(59.99,0)" d="M0,20v530" style="stroke: rgb(235, 240, 248); stroke-opacity: 1; stroke-width: 1px;"/><path class="xgrid crisp" transform="translate(159.92000000000002,0)" d="M0,20v530" style="stroke: rgb(235, 240, 248); stroke-opacity: 1; stroke-width: 1px;"/><path class="xgrid crisp" transform="translate(263.19,0)" d="M0,20v530" style="stroke: rgb(235, 240, 248); stroke-opacity: 1; stroke-width: 1px;"/><path class="xgrid crisp" transform="translate(363.12,0)" d="M0,20v530" style="stroke: rgb(235, 240, 248); stroke-opacity: 1; stroke-width: 1px;"/><path class="xgrid crisp" transform="translate(466.38,0)" d="M0,20v530" style="stroke: rgb(235, 240, 248); stroke-opacity: 1; stroke-width: 1px;"/><path class="xgrid crisp" transform="translate(569.64,0)" d="M0,20v530" style="stroke: rgb(235, 240, 248); stroke-opacity: 1; stroke-width: 1px;"/><path class="xgrid crisp" transform="translate(669.57,0)" d="M0,20v530" style="stroke: rgb(235, 240, 248); stroke-opacity: 1; stroke-width: 1px;"/><path class="xgrid crisp" transform="translate(772.83,0)" d="M0,20v530" style="stroke: rgb(235, 240, 248); stroke-opacity: 1; stroke-width: 1px;"/><path class="xgrid crisp" transform="translate(872.77,0)" d="M0,20v530" style="stroke: rgb(235, 240, 248); stroke-opacity: 1; stroke-width: 1px;"/><path class="xgrid crisp" transform="translate(976.03,0)" d="M0,20v530" style="stroke: rgb(235, 240, 248); stroke-opacity: 1; stroke-width: 1px;"/></g><g class="y"><path class="ygrid crisp" transform="translate(0,459.28)" d="M50,0h966" style="stroke: rgb(235, 240, 248); stroke-opacity: 1; stroke-width: 1px;"/><path class="ygrid crisp" transform="translate(0,368.56)" d="M50,0h966" style="stroke: rgb(235, 240, 248); stroke-opacity: 1; stroke-width: 1px;"/><path class="ygrid crisp" transform="translate(0,277.84)" d="M50,0h966" style="stroke: rgb(235, 240, 248); stroke-opacity: 1; stroke-width: 1px;"/><path class="ygrid crisp" transform="translate(0,187.12)" d="M50,0h966" style="stroke: rgb(235, 240, 248); stroke-opacity: 1; stroke-width: 1px;"/><path class="ygrid crisp" transform="translate(0,96.4)" d="M50,0h966" style="stroke: rgb(235, 240, 248); stroke-opacity: 1; stroke-width: 1px;"/></g></g><g class="zerolinelayer"><path class="yzl zl crisp" transform="translate(0,550)" d="M50,0h966" style="stroke: rgb(235, 240, 248); stroke-opacity: 1; stroke-width: 2px;"/></g><path class="xlines-below"/><path class="ylines-below"/><g class="overlines-below"/><g class="xaxislayer-below"/><g class="yaxislayer-below"/><g class="overaxes-below"/><g class="plot" transform="translate(50,20)" clip-path="url(#clipc4f135xyplot)"><g class="scatterlayer mlayer"><g class="trace scatter tracec90ae4" style="stroke-miterlimit: 2; opacity: 1;"><g class="fills"/><g class="errorbars"/><g class="lines"><path class="js-line" d="M0,112.68L76.61,112.68L79.94,117.22L83.28,122.66L86.61,122.66L103.26,122.66L106.59,131.74L113.26,173.47L116.59,173.47L119.92,173.47L123.25,177.1L126.58,180.73L129.91,180.73L136.57,187.98L139.9,187.98L156.56,187.98L159.89,190.7L163.22,194.33L166.55,194.33L199.86,194.33L203.19,200.68L209.86,200.68L213.19,213.38L216.52,213.38L219.85,224.27L223.18,236.97L226.51,242.42L229.84,244.23L233.17,244.23L286.47,244.23L289.8,224.27L293.13,207.03L296.46,213.38L299.79,209.76L303.12,200.68L326.44,200.68L329.77,197.96L333.1,194.33L336.43,194.33L383.07,194.33L386.4,197.96L389.73,200.68L393.06,200.68L443.03,200.68L446.36,194.33L453.02,165.3L456.35,161.67L459.68,158.05L463.01,158.05L473.01,158.05L476.34,107.24L479.67,107.24L483,101.8L626.23,101.8L629.57,112.68L632.9,117.22L636.23,112.68L639.56,122.66L642.89,122.66L656.21,122.66L659.54,107.24L662.88,90.91L666.21,90.91L672.87,90.91L676.2,73.67L682.86,41.02L686.19,26.5L692.86,26.5L719.5,79.12L726.17,90.91L732.83,90.91L736.16,79.12L739.49,79.12L742.82,85.47L746.15,112.68L749.48,140.81L752.81,122.66L796.12,122.66L799.45,117.22L802.78,107.24L806.11,101.8L809.44,101.8L812.77,149.88L826.1,149.88L836.09,187.98L842.75,194.33L846.08,194.33L852.74,244.23L856.08,244.23L866.07,244.23L869.4,235.16L872.73,244.23L876.06,244.23L879.39,249.67L882.72,229.71L886.06,218.83L889.39,200.68L892.72,173.47L896.05,173.47L919.37,173.47L922.7,158.05L926.03,158.05L929.36,145.34L932.69,131.74L936.02,131.74L939.35,131.74L942.68,67.32L946.01,54.62L949.34,54.62L952.68,26.5" style="vector-effect: non-scaling-stroke; fill: none; stroke: rgb(99, 110, 250); stroke-opacity: 1; stroke-width: 5px; opacity: 1;"/></g><g class="points"/><g class="text"/></g><g class="trace scatter tracef2e74e" style="stroke-miterlimit: 2; opacity: 1;"><g class="fills"/><g class="errorbars"/><g class="lines"><path class="js-line" d="M0,262.37L76.61,262.37L79.94,260.56L83.28,257.84L86.61,257.84L199.86,257.84L203.19,244.23L209.86,244.23L213.19,235.16L216.52,235.16L219.85,209.76L223.18,177.1L226.51,161.67L229.84,149.88L233.17,149.88L253.16,149.88L256.49,145.34L259.82,140.81L263.15,140.81L286.47,140.81L289.8,149.88L293.13,165.3L296.46,173.47L443.03,173.47L446.36,177.1L449.69,184.35L453.02,187.98L463.01,187.98L466.34,190.7L469.68,190.7L473.01,187.98L476.34,221.55L479.67,226.99L483,229.71L486.33,229.71L496.32,229.71L499.66,236.97L502.99,244.23L506.32,244.23L512.98,254.21L516.31,254.21L559.61,254.21L562.94,262.37L566.28,270.54L569.61,295.03L572.94,315.9L576.27,315.9L616.24,315.9L619.57,328.6L622.9,339.49L626.23,339.49L629.57,336.76L632.9,339.49L642.89,339.49L646.22,347.65L652.88,358.54L656.21,358.54L662.88,387.57L666.21,387.57L676.2,387.57L679.53,402.99L682.86,415.69L686.19,415.69L692.86,415.69L719.5,277.8L722.83,264.19L726.17,257.84L732.83,257.84L736.16,277.8L742.82,277.8L746.15,281.43L749.48,285.05L752.81,285.05L772.8,285.05L776.13,288.68L796.12,288.68L799.45,290.5L802.78,288.68L806.11,285.05L809.44,285.05L812.77,254.21L826.1,254.21L836.09,249.67L846.08,249.67L849.41,272.35L852.74,298.66L856.08,298.66L872.73,298.66L876.06,305.01L886.06,305.01L889.39,310.46L892.72,315.9L896.05,315.9L919.37,315.9L922.7,325.88L926.03,325.88L929.36,324.06L932.69,321.34L936.02,321.34L939.35,321.34L942.68,339.49L949.34,339.49L952.68,305.01" style="vector-effect: non-scaling-stroke; fill: none; stroke: rgb(239, 85, 59); stroke-opacity: 1; stroke-width: 5px; opacity: 1;"/></g><g class="points"/><g class="text"/></g><g class="trace scatter trace7a3ba7" style="stroke-miterlimit: 2; opacity: 1;"><g class="fills"/><g class="errorbars"/><g class="lines"><path class="js-line" d="M0,455.61L16.66,455.61L19.99,458.33L106.59,458.33L109.92,466.5L113.26,472.85L116.59,472.85L209.86,472.85L213.19,444.72L216.52,444.72L219.85,446.54L223.18,448.35L226.51,451.98L229.84,455.61L233.17,451.98L246.5,451.98L249.83,448.35L253.16,444.72L256.49,444.72L379.74,444.72L383.07,434.74L386.4,415.69L389.73,407.53L436.37,407.53L439.7,398.45L443.03,398.45L446.36,393.01L449.69,387.57L453.02,387.57L459.68,371.24L463.01,371.24L466.34,365.8L469.68,354.91L473.01,351.28L476.34,353.09L479.67,353.09L483,350.37L489.66,349.47L492.99,349.47L559.61,349.47L562.94,354L566.28,358.54L569.61,349.47L572.94,339.49L576.27,339.49L626.23,339.49L629.57,333.14L632.9,325.88L636.23,325.88L639.56,335.86L642.89,339.49L646.22,339.49L649.55,328.6L652.88,315.9L656.21,315.9L662.88,305.01L666.21,305.01L672.87,305.01L676.2,307.73L679.53,292.31L682.86,270.54L692.86,270.54L719.5,308.64L722.83,315.9L726.17,315.9L732.83,315.9L736.16,321.34L739.49,321.34L742.82,318.62L746.15,307.73L749.48,285.05L772.8,285.05L776.13,281.43L792.79,281.43L796.12,279.61L799.45,277.8L802.78,274.17L806.11,277.8L809.44,270.54L812.77,254.21L816.1,254.21L826.1,254.21L836.09,213.38L842.75,200.68L846.08,200.68L852.74,112.68L856.08,112.68L866.07,112.68L869.4,122.66L876.06,101.8L879.39,101.8L889.39,158.05L892.72,173.47L919.37,173.47L922.7,187.98L926.03,187.98L929.36,200.68L932.69,213.38L936.02,213.38L939.35,213.38L942.68,270.54L946.01,285.05L949.34,285.05L952.68,351.28" style="vector-effect: non-scaling-stroke; fill: none; stroke: rgb(0, 204, 150); stroke-opacity: 1; stroke-width: 5px; opacity: 1;"/></g><g class="points"/><g class="text"/></g></g></g><g class="overplot"/><path class="xlines-above crisp" d="M0,0" style="fill: none;"/><path class="ylines-above crisp" d="M0,0" style="fill: none;"/><g class="overlines-above"/><g class="xaxislayer-above"><g class="xtick"><text text-anchor="middle" x="0" y="563" transform="translate(59.99,0)" style="font-family: 'Open Sans', verdana, arial, sans-serif; font-size: 12px; fill: rgb(42, 63, 95); fill-opacity: 1; white-space: pre; opacity: 1;">1.4.22</text></g><g class="xtick"><text text-anchor="middle" x="0" y="563" style="font-family: 'Open Sans', verdana, arial, sans-serif; font-size: 12px; fill: rgb(42, 63, 95); fill-opacity: 1; white-space: pre; opacity: 1;" transform="translate(159.92000000000002,0)">1.5.22</text></g><g class="xtick"><text text-anchor="middle" x="0" y="563" style="font-family: 'Open Sans', verdana, arial, sans-serif; font-size: 12px; fill: rgb(42, 63, 95); fill-opacity: 1; white-space: pre; opacity: 1;" transform="translate(263.19,0)">1.6.22</text></g><g class="xtick"><text text-anchor="middle" x="0" y="563" style="font-family: 'Open Sans', verdana, arial, sans-serif; font-size: 12px; fill: rgb(42, 63, 95); fill-opacity: 1; white-space: pre; opacity: 1;" transform="translate(363.12,0)">1.7.22</text></g><g class="xtick"><text text-anchor="middle" x="0" y="563" style="font-family: 'Open Sans', verdana, arial, sans-serif; font-size: 12px; fill: rgb(42, 63, 95); fill-opacity: 1; white-space: pre; opacity: 1;" transform="translate(466.38,0)">1.8.22</text></g><g class="xtick"><text text-anchor="middle" x="0" y="563" style="font-family: 'Open Sans', verdana, arial, sans-serif; font-size: 12px; fill: rgb(42, 63, 95); fill-opacity: 1; white-space: pre; opacity: 1;" transform="translate(569.64,0)">1.9.22</text></g><g class="xtick"><text text-anchor="middle" x="0" y="563" style="font-family: 'Open Sans', verdana, arial, sans-serif; font-size: 12px; fill: rgb(42, 63, 95); fill-opacity: 1; white-space: pre; opacity: 1;" transform="translate(669.57,0)">1.10.22</text></g><g class="xtick"><text text-anchor="middle" x="0" y="563" style="font-family: 'Open Sans', verdana, arial, sans-serif; font-size: 12px; fill: rgb(42, 63, 95); fill-opacity: 1; white-space: pre; opacity: 1;" transform="translate(772.83,0)">1.11.22</text></g><g class="xtick"><text text-anchor="middle" x="0" y="563" style="font-family: 'Open Sans', verdana, arial, sans-serif; font-size: 12px; fill: rgb(42, 63, 95); fill-opacity: 1; white-space: pre; opacity: 1;" transform="translate(872.77,0)">1.12.22</text></g><g class="xtick"><text text-anchor="middle" x="0" y="563" style="font-family: 'Open Sans', verdana, arial, sans-serif; font-size: 12px; fill: rgb(42, 63, 95); fill-opacity: 1; white-space: pre; opacity: 1;" transform="translate(976.03,0)">1.1.23</text></g></g><g class="yaxislayer-above"><g class="ytick"><text text-anchor="end" x="49" y="4.199999999999999" transform="translate(0,550)" style="font-family: 'Open Sans', verdana, arial, sans-serif; font-size: 12px; fill: rgb(42, 63, 95); fill-opacity: 1; white-space: pre; opacity: 1;">0%</text></g><g class="ytick"><text text-anchor="end" x="49" y="4.199999999999999" style="font-family: 'Open Sans', verdana, arial, sans-serif; font-size: 12px; fill: rgb(42, 63, 95); fill-opacity: 1; white-space: pre; opacity: 1;" transform="translate(0,459.28)">10%</text></g><g class="ytick"><text text-anchor="end" x="49" y="4.199999999999999" style="font-family: 'Open Sans', verdana, arial, sans-serif; font-size: 12px; fill: rgb(42, 63, 95); fill-opacity: 1; white-space: pre; opacity: 1;" transform="translate(0,368.56)">20%</text></g><g class="ytick"><text text-anchor="end" x="49" y="4.199999999999999" style="font-family: 'Open Sans', verdana, arial, sans-serif; font-size: 12px; fill: rgb(42, 63, 95); fill-opacity: 1; white-space: pre; opacity: 1;" transform="translate(0,277.84)">30%</text></g><g class="ytick"><text text-anchor="end" x="49" y="4.199999999999999" style="font-family: 'Open Sans', verdana, arial, sans-serif; font-size: 12px; fill: rgb(42, 63, 95); fill-opacity: 1; white-space: pre; opacity: 1;" transform="translate(0,187.12)">40%</text></g><g class="ytick"><text text-anchor="end" x="49" y="4.199999999999999" style="font-family: 'Open Sans', verdana, arial, sans-serif; font-size: 12px; fill: rgb(42, 63, 95); fill-opacity: 1; white-space: pre; opacity: 1;" transform="translate(0,96.4)">50%</text></g></g><g class="overaxes-above"/></g></g><g class="polarlayer"/><g class="smithlayer"/><g class="ternarylayer"/><g class="geolayer"/><g class="funnelarealayer"/><g class="pielayer"/><g class="iciclelayer"/><g class="treemaplayer"/><g class="sunburstlayer"/><g class="glimages"/><defs id="topdefs-c4f135"><g class="clips"/><clipPath id="legendc4f135"><rect width="153" height="67" x="0" y="0"/></clipPath></defs><g class="layer-above"><g class="imagelayer"/><g class="shapelayer"/></g><g class="infolayer"><g class="legend" pointer-events="all" transform="translate(1035.3200000000002,20)"><rect class="bg" shape-rendering="crispEdges" style="stroke: rgb(68, 68, 68); stroke-opacity: 1; fill: rgb(255, 255, 255); fill-opacity: 1; stroke-width: 0px;" width="153" height="67" x="0" y="0"/><g class="scrollbox" transform="" clip-path="url(#legendc4f135)"><g class="groups"><g class="traces" transform="translate(0,14.5)" style="opacity: 1;"><text class="legendtext" text-anchor="start" x="40" y="4.680000000000001" style="font-family: 'Open Sans', verdana, arial, sans-serif; font-size: 12px; fill: rgb(42, 63, 95); fill-opacity: 1; white-space: pre;">Pavel Petr</text><g class="layers" style="opacity: 1;"><g class="legendfill"/><g class="legendlines"><path class="js-line" d="M5,0h30" style="fill: none; stroke: rgb(99, 110, 250); stroke-opacity: 1; stroke-width: 5px;"/></g><g class="legendsymbols"><g class="legendpoints"/></g></g><rect class="legendtoggle" x="0" y="-9.5" width="147.09375" height="19" style="fill: rgb(0, 0, 0); fill-opacity: 0;"/></g><g class="traces" transform="translate(0,33.5)" style="opacity: 1;"><text class="legendtext" text-anchor="start" x="40" y="4.680000000000001" style="font-family: 'Open Sans', verdana, arial, sans-serif; font-size: 12px; fill: rgb(42, 63, 95); fill-opacity: 1; white-space: pre;">Babiš Andrej</text><g class="layers" style="opacity: 1;"><g class="legendfill"/><g class="legendlines"><path class="js-line" d="M5,0h30" style="fill: none; stroke: rgb(239, 85, 59); stroke-opacity: 1; stroke-width: 5px;"/></g><g class="legendsymbols"><g class="legendpoints"/></g></g><rect class="legendtoggle" x="0" y="-9.5" width="147.09375" height="19" style="fill: rgb(0, 0, 0); fill-opacity: 0;"/></g><g class="traces" transform="translate(0,52.5)" style="opacity: 1;"><text class="legendtext" text-anchor="start" x="40" y="4.680000000000001" style="font-family: 'Open Sans', verdana, arial, sans-serif; font-size: 12px; fill: rgb(42, 63, 95); fill-opacity: 1; white-space: pre;">Nerudová Danuše</text><g class="layers" style="opacity: 1;"><g class="legendfill"/><g class="legendlines"><path class="js-line" d="M5,0h30" style="fill: none; stroke: rgb(0, 204, 150); stroke-opacity: 1; stroke-width: 5px;"/></g><g class="legendsymbols"><g class="legendpoints"/></g></g><rect class="legendtoggle" x="0" y="-9.5" width="147.09375" height="19" style="fill: rgb(0, 0, 0); fill-opacity: 0;"/></g></g></g><rect class="scrollbar" rx="20" ry="3" width="0" height="0" style="fill: rgb(128, 139, 164); fill-opacity: 1;" x="0" y="0"/></g><g class="g-gtitle"/><g class="g-xtitle"/><g class="g-ytitle"/></g></svg>