<svg class="main-svg" xmlns="http://www.w3.org/2000/svg" xmlns:xlink="http://www.w3.org/1999/xlink" width="300" height="135" style="" viewBox="0 0 300 135"><rect x="0" y="0" width="300" height="135" style="fill: rgb(255, 255, 255); fill-opacity: 1;"/><defs id="defs-e14131"><g class="clips"><clipPath id="clipe14131xyplot" class="plotclip"><rect width="280" height="75"/></clipPath><clipPath class="axesclip" id="clipe14131x"><rect x="10" y="0" width="280" height="135"/></clipPath><clipPath class="axesclip" id="clipe14131y"><rect x="0" y="50" width="300" height="75"/></clipPath><clipPath class="axesclip" id="clipe14131xy"><rect x="10" y="50" width="280" height="75"/></clipPath></g><g class="gradients"/><g class="patterns"/></defs><g class="bglayer"/><g class="layer-below"><g class="imagelayer"/><g class="shapelayer"/></g><g class="cartesianlayer"><g class="subplot xy"><g class="layer-subplot"><g class="shapelayer"/><g class="imagelayer"/></g><g class="minor-gridlayer"><g class="x"/><g class="y"/></g><g class="gridlayer"><g class="x"><path class="xgrid crisp" transform="translate(65,0)" d="M0,50v75" style="stroke: rgb(235, 240, 248); stroke-opacity: 1; stroke-width: 1px;"/><path class="xgrid crisp" transform="translate(166.67,0)" d="M0,50v75" style="stroke: rgb(235, 240, 248); stroke-opacity: 1; stroke-width: 1px;"/><path class="xgrid crisp" transform="translate(270,0)" d="M0,50v75" style="stroke: rgb(235, 240, 248); stroke-opacity: 1; stroke-width: 1px;"/></g><g class="y"><path class="ygrid crisp" transform="translate(0,105.47999999999999)" d="M10,0h280" style="stroke: rgb(235, 240, 248); stroke-opacity: 1; stroke-width: 1px;"/><path class="ygrid crisp" transform="translate(0,85.96000000000001)" d="M10,0h280" style="stroke: rgb(235, 240, 248); stroke-opacity: 1; stroke-width: 1px;"/><path class="ygrid crisp" transform="translate(0,66.44)" d="M10,0h280" style="stroke: rgb(235, 240, 248); stroke-opacity: 1; stroke-width: 1px;"/></g></g><g class="zerolinelayer"><path class="yzl zl crisp" transform="translate(0,125)" d="M10,0h280" style="stroke: rgb(235, 240, 248); stroke-opacity: 1; stroke-width: 2px;"/></g><path class="xlines-below"/><path class="ylines-below"/><g class="overlines-below"/><g class="xaxislayer-below"/><g class="yaxislayer-below"/><g class="overaxes-below"/><g class="plot" transform="translate(10,50)" clip-path="url(#clipe14131xyplot)"><g class="scatterlayer mlayer"><g class="trace scatter trace7fbf40" style="stroke-miterlimit: 2; opacity: 1;"><g class="fills"/><g class="errorbars"/><g class="lines"><path class="js-line" d="M0,5.51L40,6.29L41.67,7.07L51.67,7.07L53.33,8.63L56.67,15.66L58.33,15.66L65,16.83L66.67,17.41L71.67,18L73.33,18L100,19.17L101.67,20.15L105,20.15L106.67,22.29L108.33,22.29L110,24.05L113.33,27.17L115,27.57L143.33,27.57L145,24.05L146.67,21.12L148.33,22.29L155,20.15L156.67,20.15L223.33,19.17L225,16.24L228.33,13.71L230,12.92L236.67,12.92L238.33,4.53L280,3.75" style="vector-effect: non-scaling-stroke; fill: none; stroke: rgb(99, 110, 250); stroke-opacity: 1; stroke-width: 5px; opacity: 1;"/></g><g class="points"/><g class="text"/></g><g class="trace scatter trace0a19b9" style="stroke-miterlimit: 2; opacity: 1;"><g class="fills"/><g class="errorbars"/><g class="lines"><path class="js-line" d="M0,30.49L100,29.71L101.67,27.57L105,27.57L106.67,25.81L108.33,25.81L110,21.71L113.33,13.71L115,11.56L128.33,10.97L130,10.19L143.33,10.19L145,11.56L148.33,15.66L150,15.66L223.33,16.24L225,17.41L230,18L231.67,18L235,18.59L236.67,18L238.33,23.66L240,24.44L245,25.03L246.67,25.03L250,26.2L251.67,27.57L255,28.35L256.67,28.93L280,28.93" style="vector-effect: non-scaling-stroke; fill: none; stroke: rgb(239, 85, 59); stroke-opacity: 1; stroke-width: 5px; opacity: 1;"/></g><g class="points"/><g class="text"/></g><g class="trace scatter trace27a9b1" style="stroke-miterlimit: 2; opacity: 1;"><g class="fills"/><g class="errorbars"/><g class="lines"><path class="js-line" d="M0,62.51L53.33,63.09L55,64.46L58.33,65.43L60,65.43L105,65.43L106.67,60.75L111.67,61.34L113.33,62.12L118.33,62.12L120,62.12L125,61.34L126.67,60.75L190,60.75L191.67,59.19L195,54.7L196.67,54.7L218.33,54.7L220,53.14L223.33,52.16L225,51.18L228.33,50.01L230,48.65L233.33,47.67L235,45.91L238.33,45.52L240,45.52L246.67,44.94L248.33,44.94L280,44.94" style="vector-effect: non-scaling-stroke; fill: none; stroke: rgb(0, 204, 150); stroke-opacity: 1; stroke-width: 5px; opacity: 1;"/></g><g class="points"/><g class="text"/></g><g class="trace scatter trace9f585e" style="stroke-miterlimit: 2; opacity: 1;"><g class="fills"/><g class="errorbars"/><g class="lines"><path class="js-line" d="M0,68.56L51.67,68.56L53.33,66.02L56.67,64.85L58.33,64.85L66.67,63.68L68.33,63.09L111.67,63.09L113.33,64.26L118.33,64.85L120,64.85L126.67,64.46L128.33,64.26L145,63.09L146.67,64.46L150,65.43L151.67,65.43L226.67,66.02L228.33,66.41L238.33,66.8L240,66.41L245,64.85L246.67,64.85L280,63.68" style="vector-effect: non-scaling-stroke; fill: none; stroke: rgb(171, 99, 250); stroke-opacity: 1; stroke-width: 5px; opacity: 1;"/></g><g class="points"/><g class="text"/></g><g class="trace scatter traced7f137" style="stroke-miterlimit: 2; opacity: 1;"><g class="fills"/><g class="errorbars"/><g class="lines"><path class="js-line" d="M0,61.34L66.67,61.34L68.33,62.12L190,63.09L191.67,63.68L198.33,64.07L200,64.07L235,65.24L236.67,65.43L241.67,66.02L243.33,66.02L280,66.02" style="vector-effect: non-scaling-stroke; fill: none; stroke: rgb(255, 161, 90); stroke-opacity: 1; stroke-width: 5px; opacity: 1;"/></g><g class="points"/><g class="text"/></g></g></g><g class="overplot"/><path class="xlines-above crisp" d="M0,0" style="fill: none;"/><path class="ylines-above crisp" d="M0,0" style="fill: none;"/><g class="overlines-above"/><g class="xaxislayer-above"/><g class="yaxislayer-above"/><g class="overaxes-above"/></g></g><g class="polarlayer"/><g class="smithlayer"/><g class="ternarylayer"/><g class="geolayer"/><g class="funnelarealayer"/><g class="pielayer"/><g class="iciclelayer"/><g class="treemaplayer"/><g class="sunburstlayer"/><g class="glimages"/><defs id="topdefs-e14131"><g class="clips"/></defs><g class="layer-above"><g class="imagelayer"/><g class="shapelayer"/></g><g class="infolayer"><g class="g-gtitle"><text class="gtitle" x="15" y="25" text-anchor="start" dy="0em" style="font-family: Ubuntu, verdana, arial, sans-serif; font-size: 16px; fill: rgb(233, 84, 32); opacity: 1; font-weight: normal; white-space: pre;">Prezident/ka ČR 2023</text></g><g class="g-xtitle"/><g class="g-ytitle"/></g></svg>