<svg class="main-svg" xmlns="http://www.w3.org/2000/svg" xmlns:xlink="http://www.w3.org/1999/xlink" width="1200" height="600" style="" viewBox="0 0 1200 600"><rect x="0" y="0" width="1200" height="600" style="fill: rgb(255, 255, 255); fill-opacity: 1;"/><defs id="defs-02b42e"><g class="clips"><clipPath id="clip02b42exyplot" class="plotclip"><rect width="975" height="530"/></clipPath><clipPath class="axesclip" id="clip02b42ex"><rect x="50" y="0" width="975" height="600"/></clipPath><clipPath class="axesclip" id="clip02b42ey"><rect x="0" y="20" width="1200" height="530"/></clipPath><clipPath class="axesclip" id="clip02b42exy"><rect x="50" y="20" width="975" height="530"/></clipPath></g><g class="gradients"/><g class="patterns"/></defs><g class="bglayer"/><g class="layer-below"><g class="imagelayer"/><g class="shapelayer"/></g><g class="cartesianlayer"><g class="subplot xy"><g class="layer-subplot"><g class="shapelayer"/><g class="imagelayer"/></g><g class="minor-gridlayer"><g class="x"/><g class="y"/></g><g class="gridlayer"><g class="x"><path class="xgrid crisp" transform="translate(60.09,0)" d="M0,20v530" style="stroke: rgb(235, 240, 248); stroke-opacity: 1; stroke-width: 1px;"/><path class="xgrid crisp" transform="translate(160.95,0)" d="M0,20v530" style="stroke: rgb(235, 240, 248); stroke-opacity: 1; stroke-width: 1px;"/><path class="xgrid crisp" transform="translate(265.16999999999996,0)" d="M0,20v530" style="stroke: rgb(235, 240, 248); stroke-opacity: 1; stroke-width: 1px;"/><path class="xgrid crisp" transform="translate(366.03,0)" d="M0,20v530" style="stroke: rgb(235, 240, 248); stroke-opacity: 1; stroke-width: 1px;"/><path class="xgrid crisp" transform="translate(470.26,0)" d="M0,20v530" style="stroke: rgb(235, 240, 248); stroke-opacity: 1; stroke-width: 1px;"/><path class="xgrid crisp" transform="translate(574.48,0)" d="M0,20v530" style="stroke: rgb(235, 240, 248); stroke-opacity: 1; stroke-width: 1px;"/><path class="xgrid crisp" transform="translate(675.34,0)" d="M0,20v530" style="stroke: rgb(235, 240, 248); stroke-opacity: 1; stroke-width: 1px;"/><path class="xgrid crisp" transform="translate(779.57,0)" d="M0,20v530" style="stroke: rgb(235, 240, 248); stroke-opacity: 1; stroke-width: 1px;"/><path class="xgrid crisp" transform="translate(880.43,0)" d="M0,20v530" style="stroke: rgb(235, 240, 248); stroke-opacity: 1; stroke-width: 1px;"/><path class="xgrid crisp" transform="translate(984.66,0)" d="M0,20v530" style="stroke: rgb(235, 240, 248); stroke-opacity: 1; stroke-width: 1px;"/></g><g class="y"><path class="ygrid crisp" transform="translate(0,452.8)" d="M50,0h975" style="stroke: rgb(235, 240, 248); stroke-opacity: 1; stroke-width: 1px;"/><path class="ygrid crisp" transform="translate(0,355.6)" d="M50,0h975" style="stroke: rgb(235, 240, 248); stroke-opacity: 1; stroke-width: 1px;"/><path class="ygrid crisp" transform="translate(0,258.4)" d="M50,0h975" style="stroke: rgb(235, 240, 248); stroke-opacity: 1; stroke-width: 1px;"/><path class="ygrid crisp" transform="translate(0,161.2)" d="M50,0h975" style="stroke: rgb(235, 240, 248); stroke-opacity: 1; stroke-width: 1px;"/><path class="ygrid crisp" transform="translate(0,64)" d="M50,0h975" style="stroke: rgb(235, 240, 248); stroke-opacity: 1; stroke-width: 1px;"/></g></g><g class="zerolinelayer"><path class="yzl zl crisp" transform="translate(0,550)" d="M50,0h975" style="stroke: rgb(235, 240, 248); stroke-opacity: 1; stroke-width: 2px;"/></g><path class="xlines-below"/><path class="ylines-below"/><g class="overlines-below"/><g class="xaxislayer-below"/><g class="yaxislayer-below"/><g class="overaxes-below"/><g class="plot" transform="translate(50,20)" clip-path="url(#clip02b42exyplot)"><g class="scatterlayer mlayer"><g class="trace scatter trace3d0598" style="stroke-miterlimit: 2; opacity: 1;"><g class="fills"/><g class="errorbars"/><g class="lines"><path class="js-line" d="M0,112.04L77.33,112.04L80.69,117.87L84.05,122.73L87.41,122.73L104.22,122.73L107.59,131.48L114.31,173.27L117.67,173.27L121.03,173.27L124.4,177.16L127.76,181.05L131.12,181.05L137.84,187.85L141.21,187.85L158.02,187.85L161.38,190.77L164.74,194.66L168.1,194.66L201.72,194.66L205.09,200.49L211.81,200.49L215.17,213.13L218.53,213.13L221.9,224.79L225.26,237.43L228.62,242.29L231.98,245.2L235.34,245.2L289.14,245.2L292.5,224.79L295.86,207.29L299.22,213.13L302.59,210.21L305.95,200.49L329.48,200.49L332.84,197.57L336.21,194.66L339.57,194.66L386.64,194.66L390,197.57L393.36,200.49L396.72,200.49L447.16,200.49L450.52,194.66L457.24,165.5L460.6,161.61L463.97,157.72L467.33,157.72L477.41,157.72L480.78,107.18L484.14,107.18L487.5,102.32L632.07,102.32L635.43,112.04L638.79,117.87L642.16,112.04L645.52,122.73L648.88,122.73L662.33,122.73L665.69,107.18L669.05,90.65L672.41,90.65L679.14,90.65L682.5,73.16L689.22,41.08L692.59,26.5L699.31,26.5L726.21,79.96L732.93,90.65L739.66,90.65L743.02,79.96L746.38,79.96L749.74,85.79L753.1,102.32" style="vector-effect: non-scaling-stroke; fill: none; stroke: rgb(99, 110, 250); stroke-opacity: 1; stroke-width: 5px; opacity: 1;"/></g><g class="points"/><g class="text"/></g><g class="trace scatter tracea3690f" style="stroke-miterlimit: 2; opacity: 1;"><g class="fills"/><g class="errorbars"/><g class="lines"><path class="js-line" d="M0,262.7L77.33,262.7L80.69,260.75L84.05,257.84L87.41,257.84L201.72,257.84L205.09,245.2L211.81,245.2L215.17,234.51L218.53,234.51L221.9,210.21L225.26,177.16L228.62,161.61L231.98,149.94L235.34,149.94L255.52,149.94L258.88,145.08L262.24,141.2L265.6,141.2L289.14,141.2L292.5,149.94L295.86,165.5L299.22,173.27L447.16,173.27L450.52,177.16L453.88,183.97L457.24,187.85L467.33,187.85L470.69,190.77L474.05,190.77L477.41,187.85L480.78,221.87L484.14,226.73L487.5,229.65L490.86,229.65L500.95,229.65L504.31,237.43L507.67,245.2L511.03,245.2L517.76,253.95L521.12,253.95L564.83,253.95L568.19,262.7L571.55,270.47L574.91,295.75L578.28,316.16L581.64,316.16L621.98,316.16L625.34,328.79L628.71,339.49L632.07,339.49L635.43,336.57L638.79,339.49L648.88,339.49L652.24,348.23L658.97,358.93L662.33,358.93L669.05,387.11L672.41,387.11L682.5,387.11L685.86,403.64L689.22,416.28L692.59,416.28L699.31,416.28L726.21,278.25L729.57,264.64L732.93,257.84L739.66,257.84L743.02,278.25L753.1,278.25" style="vector-effect: non-scaling-stroke; fill: none; stroke: rgb(239, 85, 59); stroke-opacity: 1; stroke-width: 5px; opacity: 1;"/></g><g class="points"/><g class="text"/></g><g class="trace scatter tracef1dec7" style="stroke-miterlimit: 2; opacity: 1;"><g class="fills"/><g class="errorbars"/><g class="lines"><path class="js-line" d="M0,455.16L16.81,455.16L20.17,459.04L107.59,459.04L110.95,466.82L114.31,472.65L117.67,472.65L211.81,472.65L215.17,444.46L218.53,444.46L221.9,446.41L225.26,448.35L228.62,452.24L231.98,455.16L235.34,452.24L248.79,452.24L252.16,448.35L255.52,444.46L258.88,444.46L383.28,444.46L386.64,434.74L390,416.28L393.36,407.53L440.43,407.53L443.79,398.78L447.16,398.78L450.52,392.95L453.88,387.11L457.24,387.11L463.97,371.56L467.33,371.56L470.69,365.73L474.05,355.04L477.41,352.12L480.78,353.09L484.14,353.09L487.5,351.15L494.22,350.18L497.59,350.18L564.83,350.18L568.19,354.07L571.55,358.93L574.91,350.18L578.28,339.49L581.64,339.49L632.07,339.49L635.43,333.65L638.79,325.88L642.16,325.88L645.52,335.6L648.88,339.49L652.24,339.49L655.6,328.79L658.97,316.16L662.33,316.16L669.05,304.49L672.41,304.49L679.14,304.49L682.5,307.41L689.22,270.47L692.59,270.47L699.31,270.47L726.21,308.38L729.57,316.16L732.93,316.16L739.66,316.16L743.02,321.02L746.38,321.02L749.74,319.07L753.1,310.33" style="vector-effect: non-scaling-stroke; fill: none; stroke: rgb(0, 204, 150); stroke-opacity: 1; stroke-width: 5px; opacity: 1;"/></g><g class="points"/><g class="text"/></g><g class="trace scatter tracea9ab0c" style="stroke-miterlimit: 2; opacity: 1;"><g class="fills"/><g class="errorbars"/><g class="lines"><path class="js-line" d="M0,448.35L16.81,448.35L20.17,444.46L131.12,444.46L134.48,448.35L137.84,452.24L141.21,452.24L218.53,452.24L221.9,454.18L228.62,455.16L231.98,455.16L248.79,455.16L252.16,457.1L255.52,459.04L258.88,459.04L383.28,459.04L386.64,461.96L390,463.9L393.36,463.9L457.24,463.9L460.6,465.85L470.69,467.79L474.05,470.71L484.14,476.54L487.5,476.54L574.91,476.54L578.28,479.46L628.71,479.46L632.07,470.71L635.43,461.96L638.79,463.9L645.52,463.9L648.88,468.76L682.5,468.76L685.86,479.46L689.22,489.18L692.59,491.12L699.31,491.12L726.21,495.98L753.1,496.95" style="vector-effect: non-scaling-stroke; fill: none; stroke: rgb(171, 99, 250); stroke-opacity: 1; stroke-width: 5px; opacity: 1;"/></g><g class="points"/><g class="text"/></g><g class="trace scatter trace57b3fb" style="stroke-miterlimit: 2; opacity: 1;"><g class="fills"/><g class="errorbars"/><g class="lines"><path class="js-line" d="M0,506.67L110.95,507.64L114.31,508.62L295.86,507.64L299.22,505.7L383.28,505.7L386.64,502.78L390,497.92L393.36,497.92L474.05,498.9L477.41,499.87L484.14,496.95L487.5,496.95L494.22,497.92L497.59,497.92L574.91,497.92L578.28,499.87L635.43,500.84L638.79,503.76L642.16,505.7L645.52,505.7L753.1,505.7" style="vector-effect: non-scaling-stroke; fill: none; stroke: rgb(255, 161, 90); stroke-opacity: 1; stroke-width: 5px; opacity: 1;"/></g><g class="points"/><g class="text"/></g><g class="trace scatter trace2cd91e" style="stroke-miterlimit: 2; opacity: 1;"><g class="fills"/><g class="errorbars"/><g class="lines"><path class="js-line" d="M0,491.12L104.22,491.12L107.59,476.54L110.95,468.76L114.31,468.76L121.03,468.76L124.4,466.82L127.76,463.9L131.12,463.9L137.84,459.04L141.21,459.04L158.02,459.04L161.38,457.1L168.1,452.24L171.47,452.24L211.81,452.24L215.17,455.16L221.9,455.16L225.26,459.04L228.62,465.85L231.98,468.76L242.07,468.76L245.43,466.82L248.79,463.9L252.16,465.85L255.52,466.82L258.88,465.85L262.24,463.9L265.6,463.9L279.05,463.9L282.41,461.96L285.78,459.04L289.14,459.04L292.5,459.04L295.86,466.82L299.22,472.65L302.59,472.65L326.12,472.65L329.48,470.71L332.84,468.76L336.21,468.76L383.28,468.76L386.64,472.65L390,476.54L393.36,476.54L457.24,476.54L460.6,478.48L467.33,479.46L470.69,479.46L477.41,478.48L480.78,480.43L484.14,478.48L487.5,472.65L490.86,468.76L494.22,468.76L537.93,468.76L541.29,466.82L544.66,463.9L548.02,463.9L561.47,463.9L564.83,461.96L568.19,439.6L571.55,407.53L621.98,407.53L625.34,398.78L628.71,387.11L632.07,387.11L652.24,387.11L655.6,407.53L658.97,423.08L662.33,423.08L669.05,448.35L672.41,448.35L679.14,448.35L682.5,462.93L685.86,481.4L689.22,487.23L699.31,487.23L726.21,514.45L753.1,514.45" style="vector-effect: non-scaling-stroke; fill: none; stroke: rgb(25, 211, 243); stroke-opacity: 1; stroke-width: 5px; opacity: 1;"/></g><g class="points"/><g class="text"/></g></g></g><g class="overplot"/><path class="xlines-above crisp" d="M0,0" style="fill: none;"/><path class="ylines-above crisp" d="M0,0" style="fill: none;"/><g class="overlines-above"/><g class="xaxislayer-above"><g class="xtick"><text text-anchor="middle" x="0" y="563" transform="translate(60.09,0)" style="font-family: 'Open Sans', verdana, arial, sans-serif; font-size: 12px; fill: rgb(42, 63, 95); fill-opacity: 1; white-space: pre; opacity: 1;">1.4.22</text></g><g class="xtick"><text text-anchor="middle" x="0" y="563" style="font-family: 'Open Sans', verdana, arial, sans-serif; font-size: 12px; fill: rgb(42, 63, 95); fill-opacity: 1; white-space: pre; opacity: 1;" transform="translate(160.95,0)">1.5.22</text></g><g class="xtick"><text text-anchor="middle" x="0" y="563" style="font-family: 'Open Sans', verdana, arial, sans-serif; font-size: 12px; fill: rgb(42, 63, 95); fill-opacity: 1; white-space: pre; opacity: 1;" transform="translate(265.16999999999996,0)">1.6.22</text></g><g class="xtick"><text text-anchor="middle" x="0" y="563" style="font-family: 'Open Sans', verdana, arial, sans-serif; font-size: 12px; fill: rgb(42, 63, 95); fill-opacity: 1; white-space: pre; opacity: 1;" transform="translate(366.03,0)">1.7.22</text></g><g class="xtick"><text text-anchor="middle" x="0" y="563" style="font-family: 'Open Sans', verdana, arial, sans-serif; font-size: 12px; fill: rgb(42, 63, 95); fill-opacity: 1; white-space: pre; opacity: 1;" transform="translate(470.26,0)">1.8.22</text></g><g class="xtick"><text text-anchor="middle" x="0" y="563" style="font-family: 'Open Sans', verdana, arial, sans-serif; font-size: 12px; fill: rgb(42, 63, 95); fill-opacity: 1; white-space: pre; opacity: 1;" transform="translate(574.48,0)">1.9.22</text></g><g class="xtick"><text text-anchor="middle" x="0" y="563" style="font-family: 'Open Sans', verdana, arial, sans-serif; font-size: 12px; fill: rgb(42, 63, 95); fill-opacity: 1; white-space: pre; opacity: 1;" transform="translate(675.34,0)">1.10.22</text></g><g class="xtick"><text text-anchor="middle" x="0" y="563" style="font-family: 'Open Sans', verdana, arial, sans-serif; font-size: 12px; fill: rgb(42, 63, 95); fill-opacity: 1; white-space: pre; opacity: 1;" transform="translate(779.57,0)">1.11.22</text></g><g class="xtick"><text text-anchor="middle" x="0" y="563" style="font-family: 'Open Sans', verdana, arial, sans-serif; font-size: 12px; fill: rgb(42, 63, 95); fill-opacity: 1; white-space: pre; opacity: 1;" transform="translate(880.43,0)">1.12.22</text></g><g class="xtick"><text text-anchor="middle" x="0" y="563" style="font-family: 'Open Sans', verdana, arial, sans-serif; font-size: 12px; fill: rgb(42, 63, 95); fill-opacity: 1; white-space: pre; opacity: 1;" transform="translate(984.66,0)">1.1.23</text></g></g><g class="yaxislayer-above"><g class="ytick"><text text-anchor="end" x="49" y="4.199999999999999" transform="translate(0,550)" style="font-family: 'Open Sans', verdana, arial, sans-serif; font-size: 12px; fill: rgb(42, 63, 95); fill-opacity: 1; white-space: pre; opacity: 1;">0%</text></g><g class="ytick"><text text-anchor="end" x="49" y="4.199999999999999" style="font-family: 'Open Sans', verdana, arial, sans-serif; font-size: 12px; fill: rgb(42, 63, 95); fill-opacity: 1; white-space: pre; opacity: 1;" transform="translate(0,452.8)">10%</text></g><g class="ytick"><text text-anchor="end" x="49" y="4.199999999999999" style="font-family: 'Open Sans', verdana, arial, sans-serif; font-size: 12px; fill: rgb(42, 63, 95); fill-opacity: 1; white-space: pre; opacity: 1;" transform="translate(0,355.6)">20%</text></g><g class="ytick"><text text-anchor="end" x="49" y="4.199999999999999" style="font-family: 'Open Sans', verdana, arial, sans-serif; font-size: 12px; fill: rgb(42, 63, 95); fill-opacity: 1; white-space: pre; opacity: 1;" transform="translate(0,258.4)">30%</text></g><g class="ytick"><text text-anchor="end" x="49" y="4.199999999999999" style="font-family: 'Open Sans', verdana, arial, sans-serif; font-size: 12px; fill: rgb(42, 63, 95); fill-opacity: 1; white-space: pre; opacity: 1;" transform="translate(0,161.2)">40%</text></g><g class="ytick"><text text-anchor="end" x="49" y="4.199999999999999" style="font-family: 'Open Sans', verdana, arial, sans-serif; font-size: 12px; fill: rgb(42, 63, 95); fill-opacity: 1; white-space: pre; opacity: 1;" transform="translate(0,64)">50%</text></g></g><g class="overaxes-above"/></g></g><g class="polarlayer"/><g class="smithlayer"/><g class="ternarylayer"/><g class="geolayer"/><g class="funnelarealayer"/><g class="pielayer"/><g class="iciclelayer"/><g class="treemaplayer"/><g class="sunburstlayer"/><g class="glimages"/><defs id="topdefs-02b42e"><g class="clips"/><clipPath id="legend02b42e"><rect width="143" height="124" x="0" y="0"/></clipPath></defs><g class="layer-above"><g class="imagelayer"/><g class="shapelayer"/></g><g class="infolayer"><g class="legend" pointer-events="all" transform="translate(1044.5,20)"><rect class="bg" shape-rendering="crispEdges" style="stroke: rgb(68, 68, 68); stroke-opacity: 1; fill: rgb(255, 255, 255); fill-opacity: 1; stroke-width: 0px;" width="143" height="124" x="0" y="0"/><g class="scrollbox" transform="" clip-path="url(#legend02b42e)"><g class="groups"><g class="traces" transform="translate(0,14.5)" style="opacity: 1;"><text class="legendtext" text-anchor="start" x="40" y="4.680000000000001" style="font-family: 'Open Sans', verdana, arial, sans-serif; font-size: 12px; fill: rgb(42, 63, 95); fill-opacity: 1; white-space: pre;">Pavel Petr</text><g class="layers" style="opacity: 1;"><g class="legendfill"/><g class="legendlines"><path class="js-line" d="M5,0h30" style="fill: none; stroke: rgb(99, 110, 250); stroke-opacity: 1; stroke-width: 5px;"/></g><g class="legendsymbols"><g class="legendpoints"/></g></g><rect class="legendtoggle" x="0" y="-9.5" width="137.0625" height="19" style="fill: rgb(0, 0, 0); fill-opacity: 0;"/></g><g class="traces" transform="translate(0,33.5)" style="opacity: 1;"><text class="legendtext" text-anchor="start" x="40" y="4.680000000000001" style="font-family: 'Open Sans', verdana, arial, sans-serif; font-size: 12px; fill: rgb(42, 63, 95); fill-opacity: 1; white-space: pre;">Babiš Andrej</text><g class="layers" style="opacity: 1;"><g class="legendfill"/><g class="legendlines"><path class="js-line" d="M5,0h30" style="fill: none; stroke: rgb(239, 85, 59); stroke-opacity: 1; stroke-width: 5px;"/></g><g class="legendsymbols"><g class="legendpoints"/></g></g><rect class="legendtoggle" x="0" y="-9.5" width="137.0625" height="19" style="fill: rgb(0, 0, 0); fill-opacity: 0;"/></g><g class="traces" transform="translate(0,52.5)" style="opacity: 1;"><text class="legendtext" text-anchor="start" x="40" y="4.680000000000001" style="font-family: 'Open Sans', verdana, arial, sans-serif; font-size: 12px; fill: rgb(42, 63, 95); fill-opacity: 1; white-space: pre;">Nerudová Danuše</text><g class="layers" style="opacity: 1;"><g class="legendfill"/><g class="legendlines"><path class="js-line" d="M5,0h30" style="fill: none; stroke: rgb(0, 204, 150); stroke-opacity: 1; stroke-width: 5px;"/></g><g class="legendsymbols"><g class="legendpoints"/></g></g><rect class="legendtoggle" x="0" y="-9.5" width="137.0625" height="19" style="fill: rgb(0, 0, 0); fill-opacity: 0;"/></g><g class="traces" transform="translate(0,71.5)" style="opacity: 1;"><text class="legendtext" text-anchor="start" x="40" y="4.680000000000001" style="font-family: 'Open Sans', verdana, arial, sans-serif; font-size: 12px; fill: rgb(42, 63, 95); fill-opacity: 1; white-space: pre;">Fischer Pavel</text><g class="layers" style="opacity: 1;"><g class="legendfill"/><g class="legendlines"><path class="js-line" d="M5,0h30" style="fill: none; stroke: rgb(171, 99, 250); stroke-opacity: 1; stroke-width: 5px;"/></g><g class="legendsymbols"><g class="legendpoints"/></g></g><rect class="legendtoggle" x="0" y="-9.5" width="137.0625" height="19" style="fill: rgb(0, 0, 0); fill-opacity: 0;"/></g><g class="traces" transform="translate(0,90.5)" style="opacity: 1;"><text class="legendtext" text-anchor="start" x="40" y="4.680000000000001" style="font-family: 'Open Sans', verdana, arial, sans-serif; font-size: 12px; fill: rgb(42, 63, 95); fill-opacity: 1; white-space: pre;">Hilšer Marek</text><g class="layers" style="opacity: 1;"><g class="legendfill"/><g class="legendlines"><path class="js-line" d="M5,0h30" style="fill: none; stroke: rgb(255, 161, 90); stroke-opacity: 1; stroke-width: 5px;"/></g><g class="legendsymbols"><g class="legendpoints"/></g></g><rect class="legendtoggle" x="0" y="-9.5" width="137.0625" height="19" style="fill: rgb(0, 0, 0); fill-opacity: 0;"/></g><g class="traces" transform="translate(0,109.5)" style="opacity: 1;"><text class="legendtext" text-anchor="start" x="40" y="4.680000000000001" style="font-family: 'Open Sans', verdana, arial, sans-serif; font-size: 12px; fill: rgb(42, 63, 95); fill-opacity: 1; white-space: pre;">Středula Josef</text><g class="layers" style="opacity: 1;"><g class="legendfill"/><g class="legendlines"><path class="js-line" d="M5,0h30" style="fill: none; stroke: rgb(25, 211, 243); stroke-opacity: 1; stroke-width: 5px;"/></g><g class="legendsymbols"><g class="legendpoints"/></g></g><rect class="legendtoggle" x="0" y="-9.5" width="137.0625" height="19" style="fill: rgb(0, 0, 0); fill-opacity: 0;"/></g></g></g><rect class="scrollbar" rx="20" ry="3" width="0" height="0" style="fill: rgb(128, 139, 164); fill-opacity: 1;" x="0" y="0"/></g><g class="g-gtitle"/><g class="g-xtitle"/><g class="g-ytitle"/></g></svg>