<svg class="main-svg" xmlns="http://www.w3.org/2000/svg" xmlns:xlink="http://www.w3.org/1999/xlink" width="400" height="400" style="" viewBox="0 0 400 400"><rect x="0" y="0" width="400" height="400" style="fill: rgb(255, 255, 255); fill-opacity: 1;"/><defs id="defs-d2fd03"><g class="clips"><clipPath id="clipd2fd03xyplot" class="plotclip"><rect width="191" height="330"/></clipPath><clipPath class="axesclip" id="clipd2fd03x"><rect x="50" y="0" width="191" height="400"/></clipPath><clipPath class="axesclip" id="clipd2fd03y"><rect x="0" y="20" width="400" height="330"/></clipPath><clipPath class="axesclip" id="clipd2fd03xy"><rect x="50" y="20" width="191" height="330"/></clipPath></g><g class="gradients"/><g class="patterns"/></defs><g class="bglayer"/><g class="layer-below"><g class="imagelayer"/><g class="shapelayer"/></g><g class="cartesianlayer"><g class="subplot xy"><g class="layer-subplot"><g class="shapelayer"/><g class="imagelayer"/></g><g class="minor-gridlayer"><g class="x"/><g class="y"/></g><g class="gridlayer"><g class="x"><path class="xgrid crisp" transform="translate(71.73,0)" d="M0,20v330" style="stroke: rgb(235, 240, 248); stroke-opacity: 1; stroke-width: 1px;"/><path class="xgrid crisp" transform="translate(111.91,0)" d="M0,20v330" style="stroke: rgb(235, 240, 248); stroke-opacity: 1; stroke-width: 1px;"/><path class="xgrid crisp" transform="translate(152.74,0)" d="M0,20v330" style="stroke: rgb(235, 240, 248); stroke-opacity: 1; stroke-width: 1px;"/><path class="xgrid crisp" transform="translate(192.92,0)" d="M0,20v330" style="stroke: rgb(235, 240, 248); stroke-opacity: 1; stroke-width: 1px;"/><path class="xgrid crisp" transform="translate(233.1,0)" d="M0,20v330" style="stroke: rgb(235, 240, 248); stroke-opacity: 1; stroke-width: 1px;"/></g><g class="y"><path class="ygrid crisp" transform="translate(0,293.21)" d="M50,0h191" style="stroke: rgb(235, 240, 248); stroke-opacity: 1; stroke-width: 1px;"/><path class="ygrid crisp" transform="translate(0,236.41)" d="M50,0h191" style="stroke: rgb(235, 240, 248); stroke-opacity: 1; stroke-width: 1px;"/><path class="ygrid crisp" transform="translate(0,179.62)" d="M50,0h191" style="stroke: rgb(235, 240, 248); stroke-opacity: 1; stroke-width: 1px;"/><path class="ygrid crisp" transform="translate(0,122.83)" d="M50,0h191" style="stroke: rgb(235, 240, 248); stroke-opacity: 1; stroke-width: 1px;"/><path class="ygrid crisp" transform="translate(0,66.03)" d="M50,0h191" style="stroke: rgb(235, 240, 248); stroke-opacity: 1; stroke-width: 1px;"/></g></g><g class="zerolinelayer"><path class="yzl zl crisp" transform="translate(0,350)" d="M50,0h191" style="stroke: rgb(235, 240, 248); stroke-opacity: 1; stroke-width: 2px;"/></g><path class="xlines-below"/><path class="ylines-below"/><g class="overlines-below"/><g class="xaxislayer-below"/><g class="yaxislayer-below"/><g class="overaxes-below"/><g class="plot" transform="translate(50,20)" clip-path="url(#clipd2fd03xyplot)"><g class="scatterlayer mlayer"><g class="trace scatter trace149315" style="stroke-miterlimit: 2; opacity: 1;"><g class="fills"/><g class="errorbars"/><g class="lines"><path class="js-line" d="M0,69.89L15.15,69.89L15.81,73.29L17.12,76.13L17.78,76.13L20.42,76.13L21.08,82.38L23.05,107.94L23.71,107.94L27,117.02L27.66,117.02L30.96,117.02L31.61,118.73L32.93,121L33.59,121L39.52,121L40.18,124.98L41.49,124.98L42.15,132.36L42.81,132.36L43.47,139.74L45.44,152.24L46.1,152.24L56.64,152.24L57.3,139.74L57.96,128.95L58.62,132.36L59.28,130.65L60.59,124.98L61.25,124.98L64.54,124.98L65.2,123.27L66.52,121L67.18,121L75.74,121L76.4,123.27L78.38,124.98L79.03,124.98L87.6,124.98L88.26,121L90.23,100.55L90.89,98.28L93.52,98.28L94.18,67.05L94.84,67.05L95.5,63.64L123.82,63.64L124.48,69.89L125.14,73.29L125.8,69.89L127.11,76.13L127.77,76.13L129.75,76.13L130.41,67.05L131.72,56.82L132.38,56.82L133.04,56.82L133.7,46.03L136.33,16.5L136.99,16.5L143.58,56.82L144.9,56.82L146.21,49.44L146.87,53.42L148.19,88.06L148.85,76.13L149.51,76.13L157.41,76.13L158.07,73.29L160.04,63.64L160.7,93.17L163.34,93.17L165.31,117.02L167.29,121L167.95,138.04L169.27,152.24L169.92,152.24L171.24,152.24L171.9,145.99L173.88,155.08L174.53,143.15L175.85,124.98L176.51,107.94L181.78,107.94L182.44,98.28L183.1,98.28L183.76,90.33L185.07,82.38L185.73,82.38L186.39,42.06" style="vector-effect: non-scaling-stroke; fill: none; stroke: rgb(99, 110, 250); stroke-opacity: 1; stroke-width: 5px; opacity: 1;"/></g><g class="points"/><g class="text"/></g><g class="trace scatter traced4acef" style="stroke-miterlimit: 2; opacity: 1;"><g class="fills"/><g class="errorbars"/><g class="lines"><path class="js-line" d="M0,283.43L3.29,283.43L3.95,285.7L21.08,285.7L21.73,290.24L23.05,294.22L23.71,294.22L41.49,294.22L42.15,276.61L43.47,277.75L44.13,279.45L45.44,283.43L46.1,281.73L48.74,281.73L49.4,279.45L50.71,276.61L51.37,276.61L75.08,276.61L75.74,270.93L77.72,253.9L78.38,253.9L86.28,253.9L86.94,248.22L87.6,248.22L88.26,244.81L93.52,219.25L94.18,220.39L94.84,220.39L96.82,217.55L97.48,217.55L110.65,217.55L111.31,220.96L111.97,223.23L112.62,217.55L113.94,211.3L114.6,211.3L123.82,211.3L124.48,207.33L125.8,203.35L126.46,209.03L127.77,211.3L128.43,204.49L130.41,193.13L131.07,189.72L133.04,189.72L133.7,191.42L135.68,168.71L136.33,168.71L136.99,168.71L142.26,191.99L143.58,196.54L144.9,196.54L146.21,199.94L146.87,198.24L148.85,177.79L149.51,177.79L152.8,177.79L153.46,175.52L157.41,174.39L158.07,173.25L158.73,170.98L159.39,173.25L161.36,157.92L162.02,157.92L163.34,157.92L165.31,132.36L167.29,124.98L167.95,100.55L169.27,69.89L169.92,69.89L171.24,69.89L171.9,76.13L173.88,63.64L174.53,76.13L177.17,107.94L177.83,107.94L181.78,107.94L182.44,117.02L183.1,117.02L183.76,124.98L185.07,132.36L185.73,132.36L186.39,168.71" style="vector-effect: non-scaling-stroke; fill: none; stroke: rgb(239, 85, 59); stroke-opacity: 1; stroke-width: 5px; opacity: 1;"/></g><g class="points"/><g class="text"/></g><g class="trace scatter trace83d9b2" style="stroke-miterlimit: 2; opacity: 1;"><g class="fills"/><g class="errorbars"/><g class="lines"><path class="js-line" d="M0,163.6L15.15,163.6L15.81,161.89L17.78,160.76L18.44,160.76L39.52,160.76L40.18,152.24L41.49,152.24L42.15,145.99L42.81,145.99L43.47,130.65L45.44,93.17L46.1,93.17L50.06,93.17L50.71,90.33L52.03,88.06L52.69,88.06L56.64,88.06L57.3,93.17L59.28,107.94L59.93,107.94L87.6,107.94L88.26,110.21L90.23,117.02L90.89,117.02L91.55,117.02L92.21,118.73L92.87,118.73L93.52,117.02L95.5,143.15L96.16,143.15L98.13,143.15L98.79,147.69L101.43,157.92L102.09,157.92L110.65,157.92L111.31,163.6L111.97,168.71L112.62,184.04L113.94,196.54L114.6,196.54L121.84,196.54L122.5,204.49L123.82,211.3L124.48,209.6L126.46,211.3L127.11,211.3L131.72,241.4L132.38,241.4L133.7,241.4L134.36,251.06L135.68,259.01L136.33,259.01L136.99,259.01L142.26,173.25L143.58,160.76L144.9,160.76L146.21,173.25L146.87,173.25L148.85,177.79L149.51,177.79L152.8,177.79L153.46,180.07L158.73,180.07L159.39,177.79L160.04,177.79L160.7,157.92L163.34,157.92L165.31,155.08L167.29,155.08L167.95,169.84L169.27,185.74L169.92,185.74L172.56,185.74L173.22,189.72L175.19,189.72L175.85,193.13L177.17,196.54L177.83,196.54L181.78,196.54L182.44,203.35L183.1,203.35L183.76,201.65L185.73,199.94L186.39,211.3" style="vector-effect: non-scaling-stroke; fill: none; stroke: rgb(0, 204, 150); stroke-opacity: 1; stroke-width: 5px; opacity: 1;"/></g><g class="points"/><g class="text"/></g></g></g><g class="overplot"/><path class="xlines-above crisp" d="M0,0" style="fill: none;"/><path class="ylines-above crisp" d="M0,0" style="fill: none;"/><g class="overlines-above"/><g class="xaxislayer-above"><g class="xtick"><text text-anchor="middle" x="0" y="363" transform="translate(71.73,0)" style="font-family: 'Open Sans', verdana, arial, sans-serif; font-size: 12px; fill: rgb(42, 63, 95); fill-opacity: 1; white-space: pre; opacity: 1;">1.5.22</text></g><g class="xtick"><text text-anchor="middle" x="0" y="363" style="font-family: 'Open Sans', verdana, arial, sans-serif; font-size: 12px; fill: rgb(42, 63, 95); fill-opacity: 1; white-space: pre; opacity: 1;" transform="translate(111.91,0)">1.7.22</text></g><g class="xtick"><text text-anchor="middle" x="0" y="363" style="font-family: 'Open Sans', verdana, arial, sans-serif; font-size: 12px; fill: rgb(42, 63, 95); fill-opacity: 1; white-space: pre; opacity: 1;" transform="translate(152.74,0)">1.9.22</text></g><g class="xtick"><text text-anchor="middle" x="0" y="363" style="font-family: 'Open Sans', verdana, arial, sans-serif; font-size: 12px; fill: rgb(42, 63, 95); fill-opacity: 1; white-space: pre; opacity: 1;" transform="translate(192.92,0)">1.11.22</text></g><g class="xtick"><text text-anchor="middle" x="0" y="363" style="font-family: 'Open Sans', verdana, arial, sans-serif; font-size: 12px; fill: rgb(42, 63, 95); fill-opacity: 1; white-space: pre; opacity: 1;" transform="translate(233.1,0)">1.1.23</text></g></g><g class="yaxislayer-above"><g class="ytick"><text text-anchor="end" x="49" y="4.199999999999999" transform="translate(0,350)" style="font-family: 'Open Sans', verdana, arial, sans-serif; font-size: 12px; fill: rgb(42, 63, 95); fill-opacity: 1; white-space: pre; opacity: 1;">0%</text></g><g class="ytick"><text text-anchor="end" x="49" y="4.199999999999999" style="font-family: 'Open Sans', verdana, arial, sans-serif; font-size: 12px; fill: rgb(42, 63, 95); fill-opacity: 1; white-space: pre; opacity: 1;" transform="translate(0,293.21)">10%</text></g><g class="ytick"><text text-anchor="end" x="49" y="4.199999999999999" style="font-family: 'Open Sans', verdana, arial, sans-serif; font-size: 12px; fill: rgb(42, 63, 95); fill-opacity: 1; white-space: pre; opacity: 1;" transform="translate(0,236.41)">20%</text></g><g class="ytick"><text text-anchor="end" x="49" y="4.199999999999999" style="font-family: 'Open Sans', verdana, arial, sans-serif; font-size: 12px; fill: rgb(42, 63, 95); fill-opacity: 1; white-space: pre; opacity: 1;" transform="translate(0,179.62)">30%</text></g><g class="ytick"><text text-anchor="end" x="49" y="4.199999999999999" style="font-family: 'Open Sans', verdana, arial, sans-serif; font-size: 12px; fill: rgb(42, 63, 95); fill-opacity: 1; white-space: pre; opacity: 1;" transform="translate(0,122.83)">40%</text></g><g class="ytick"><text text-anchor="end" x="49" y="4.199999999999999" style="font-family: 'Open Sans', verdana, arial, sans-serif; font-size: 12px; fill: rgb(42, 63, 95); fill-opacity: 1; white-space: pre; opacity: 1;" transform="translate(0,66.03)">50%</text></g></g><g class="overaxes-above"/></g></g><g class="polarlayer"/><g class="smithlayer"/><g class="ternarylayer"/><g class="geolayer"/><g class="funnelarealayer"/><g class="pielayer"/><g class="iciclelayer"/><g class="treemaplayer"/><g class="sunburstlayer"/><g class="glimages"/><defs id="topdefs-d2fd03"><g class="clips"/><clipPath id="legendd2fd03"><rect width="143" height="67" x="0" y="0"/></clipPath></defs><g class="layer-above"><g class="imagelayer"/><g class="shapelayer"/></g><g class="infolayer"><g class="legend" pointer-events="all" transform="translate(244.82,20)"><rect class="bg" shape-rendering="crispEdges" width="143" height="67" x="0" y="0" style="stroke: rgb(68, 68, 68); stroke-opacity: 1; fill: rgb(255, 255, 255); fill-opacity: 1; stroke-width: 0px;"/><g class="scrollbox" transform="" clip-path="url(#legendd2fd03)"><g class="groups"><g class="traces" transform="translate(0,14.5)" style="opacity: 1;"><text class="legendtext" text-anchor="start" x="40" y="4.680000000000001" style="font-family: 'Open Sans', verdana, arial, sans-serif; font-size: 12px; fill: rgb(42, 63, 95); fill-opacity: 1; white-space: pre;">Pavel Petr</text><g class="layers" style="opacity: 1;"><g class="legendfill"/><g class="legendlines"><path class="js-line" d="M5,0h30" style="fill: none; stroke: rgb(99, 110, 250); stroke-opacity: 1; stroke-width: 5px;"/></g><g class="legendsymbols"><g class="legendpoints"/></g></g><rect class="legendtoggle" x="0" y="-9.5" width="137.0625" height="19" style="fill: rgb(0, 0, 0); fill-opacity: 0;"/></g><g class="traces" transform="translate(0,33.5)" style="opacity: 1;"><text class="legendtext" text-anchor="start" x="40" y="4.680000000000001" style="font-family: 'Open Sans', verdana, arial, sans-serif; font-size: 12px; fill: rgb(42, 63, 95); fill-opacity: 1; white-space: pre;">Nerudová Danuše</text><g class="layers" style="opacity: 1;"><g class="legendfill"/><g class="legendlines"><path class="js-line" d="M5,0h30" style="fill: none; stroke: rgb(239, 85, 59); stroke-opacity: 1; stroke-width: 5px;"/></g><g class="legendsymbols"><g class="legendpoints"/></g></g><rect class="legendtoggle" x="0" y="-9.5" width="137.0625" height="19" style="fill: rgb(0, 0, 0); fill-opacity: 0;"/></g><g class="traces" transform="translate(0,52.5)" style="opacity: 1;"><text class="legendtext" text-anchor="start" x="40" y="4.680000000000001" style="font-family: 'Open Sans', verdana, arial, sans-serif; font-size: 12px; fill: rgb(42, 63, 95); fill-opacity: 1; white-space: pre;">Babiš Andrej</text><g class="layers" style="opacity: 1;"><g class="legendfill"/><g class="legendlines"><path class="js-line" d="M5,0h30" style="fill: none; stroke: rgb(0, 204, 150); stroke-opacity: 1; stroke-width: 5px;"/></g><g class="legendsymbols"><g class="legendpoints"/></g></g><rect class="legendtoggle" x="0" y="-9.5" width="137.0625" height="19" style="fill: rgb(0, 0, 0); fill-opacity: 0;"/></g></g></g><rect class="scrollbar" rx="20" ry="3" width="0" height="0" x="0" y="0" style="fill: rgb(128, 139, 164); fill-opacity: 1;"/></g><g class="g-gtitle"/><g class="g-xtitle"/><g class="g-ytitle"/></g></svg>