<svg class="main-svg" xmlns="http://www.w3.org/2000/svg" xmlns:xlink="http://www.w3.org/1999/xlink" width="300" height="135" style="" viewBox="0 0 300 135"><rect x="0" y="0" width="300" height="135" style="fill: rgb(255, 255, 255); fill-opacity: 1;"/><defs id="defs-41237b"><g class="clips"><clipPath id="clip41237bxyplot" class="plotclip"><rect width="280" height="75"/></clipPath><clipPath class="axesclip" id="clip41237bx"><rect x="10" y="0" width="280" height="135"/></clipPath><clipPath class="axesclip" id="clip41237by"><rect x="0" y="50" width="300" height="75"/></clipPath><clipPath class="axesclip" id="clip41237bxy"><rect x="10" y="50" width="280" height="75"/></clipPath></g><g class="gradients"/><g class="patterns"/></defs><g class="bglayer"/><g class="layer-below"><g class="imagelayer"/><g class="shapelayer"/></g><g class="cartesianlayer"><g class="subplot xy"><g class="layer-subplot"><g class="shapelayer"/><g class="imagelayer"/></g><g class="minor-gridlayer"><g class="x"/><g class="y"/></g><g class="gridlayer"><g class="x"><path class="xgrid crisp" transform="translate(55.52,0)" d="M0,50v75" style="stroke: rgb(235, 240, 248); stroke-opacity: 1; stroke-width: 1px;"/><path class="xgrid crisp" transform="translate(139.66,0)" d="M0,50v75" style="stroke: rgb(235, 240, 248); stroke-opacity: 1; stroke-width: 1px;"/><path class="xgrid crisp" transform="translate(225.17,0)" d="M0,50v75" style="stroke: rgb(235, 240, 248); stroke-opacity: 1; stroke-width: 1px;"/></g><g class="y"><path class="ygrid crisp" transform="translate(0,107.45)" d="M10,0h280" style="stroke: rgb(235, 240, 248); stroke-opacity: 1; stroke-width: 1px;"/><path class="ygrid crisp" transform="translate(0,89.9)" d="M10,0h280" style="stroke: rgb(235, 240, 248); stroke-opacity: 1; stroke-width: 1px;"/><path class="ygrid crisp" transform="translate(0,72.35)" d="M10,0h280" style="stroke: rgb(235, 240, 248); stroke-opacity: 1; stroke-width: 1px;"/><path class="ygrid crisp" transform="translate(0,54.8)" d="M10,0h280" style="stroke: rgb(235, 240, 248); stroke-opacity: 1; stroke-width: 1px;"/></g></g><g class="zerolinelayer"><path class="yzl zl crisp" transform="translate(0,125)" d="M10,0h280" style="stroke: rgb(235, 240, 248); stroke-opacity: 1; stroke-width: 2px;"/></g><path class="xlines-below"/><path class="ylines-below"/><g class="overlines-below"/><g class="xaxislayer-below"/><g class="yaxislayer-below"/><g class="overaxes-below"/><g class="plot" transform="translate(10,50)" clip-path="url(#clip41237bxyplot)"><g class="scatterlayer mlayer"><g class="trace scatter trace59b6b8" style="stroke-miterlimit: 2; opacity: 1;"><g class="fills"/><g class="errorbars"/><g class="lines"><path class="js-line" d="M0,7.26L33.1,7.96L34.48,8.84L42.76,8.84L44.14,10.42L46.9,17.09L48.28,17.09L53.79,18.32L55.17,18.84L59.31,19.37L60.69,19.37L82.76,20.42L84.14,21.47L86.9,21.47L88.28,23.58L89.66,23.58L91.03,25.34L93.79,28.32L95.17,28.67L118.62,28.67L120,25.34L121.38,22.53L122.76,23.58L128.28,21.47L129.66,21.47L184.83,20.42L186.21,17.61L188.97,15.16L190.34,14.63L195.86,14.63L197.24,6.38L259.31,5.5L260.69,7.26L266.21,8.84L267.59,8.84L271.72,8.84L273.1,6.38L275.86,3.75L277.24,3.75L280,3.75" style="vector-effect: non-scaling-stroke; fill: none; stroke: rgb(99, 110, 250); stroke-opacity: 1; stroke-width: 5px; opacity: 1;"/></g><g class="points"/><g class="text"/></g><g class="trace scatter trace4078a8" style="stroke-miterlimit: 2; opacity: 1;"><g class="fills"/><g class="errorbars"/><g class="lines"><path class="js-line" d="M0,62.89L44.14,63.42L45.52,64.65L48.28,65.7L49.66,65.7L86.9,65.7L88.28,61.14L93.79,62.36L95.17,62.89L99.31,62.36L100.69,62.36L157.24,61.14L158.62,59.56L161.38,55.17L162.76,55.17L180.69,55.17L182.07,53.59L184.83,52.71L186.21,51.83L188.97,50.61L190.34,49.2L193.1,48.33L194.48,46.57L197.24,46.39L198.62,46.39L202.76,45.69L204.14,45.69L233.1,46.57L234.48,47.27L238.62,44.11L240,44.11L260.69,43.06L262.07,41.83L263.45,41.83L264.83,43.41L267.59,44.11L268.97,42.36L271.72,40.25L273.1,39.38L275.86,38.5L277.24,38.5L280,38.5" style="vector-effect: non-scaling-stroke; fill: none; stroke: rgb(239, 85, 59); stroke-opacity: 1; stroke-width: 5px; opacity: 1;"/></g><g class="points"/><g class="text"/></g><g class="trace scatter tracee902a5" style="stroke-miterlimit: 2; opacity: 1;"><g class="fills"/><g class="errorbars"/><g class="lines"><path class="js-line" d="M0,31.65L82.76,30.95L84.14,28.67L86.9,28.67L88.28,27.09L89.66,27.09L91.03,23.05L93.79,15.16L95.17,13.23L106.21,12.52L107.59,11.82L118.62,11.82L120,13.23L122.76,17.09L124.14,17.09L184.83,17.61L186.21,18.84L190.34,19.37L191.72,19.37L194.48,19.9L195.86,19.37L198.62,25.86L200,26.21L206.9,27.44L208.28,28.67L211.03,29.37L212.41,30.25L231.72,30.25L233.1,31.65L234.48,32.88L235.86,36.92L237.24,40.25L238.62,40.25L255.17,40.25L256.55,42.36L259.31,44.11L260.69,43.59L264.83,44.11L266.21,44.11L270.34,47.27L271.72,47.27L274.48,51.83L275.86,51.83L280,51.83" style="vector-effect: non-scaling-stroke; fill: none; stroke: rgb(0, 204, 150); stroke-opacity: 1; stroke-width: 5px; opacity: 1;"/></g><g class="points"/><g class="text"/></g><g class="trace scatter tracef35328" style="stroke-miterlimit: 2; opacity: 1;"><g class="fills"/><g class="errorbars"/><g class="lines"><path class="js-line" d="M0,68.68L42.76,68.68L44.14,66.4L46.9,65L48.28,65L55.17,63.94L56.55,63.42L92.41,63.42L93.79,64.47L97.93,65L99.31,65L106.21,64.47L107.59,64.29L121.38,64.65L122.76,65.7L158.62,65.7L160,66.4L200,65.7L201.38,65L231.72,63.94L233.1,60.43L234.48,55.17L235.86,55.17L255.17,55.17L256.55,53.59L259.31,51.83L260.69,51.83L267.59,51.83L268.97,55.17L271.72,57.63L273.1,59.91L275.86,61.84L277.24,61.84L280,61.84" style="vector-effect: non-scaling-stroke; fill: none; stroke: rgb(171, 99, 250); stroke-opacity: 1; stroke-width: 5px; opacity: 1;"/></g><g class="points"/><g class="text"/></g><g class="trace scatter trace13a452" style="stroke-miterlimit: 2; opacity: 1;"><g class="fills"/><g class="errorbars"/><g class="lines"><path class="js-line" d="M0,61.84L89.66,62.36L91.03,62.72L106.21,63.42L107.59,63.42L191.72,64.65L193.1,64.82L200,66.4L201.38,66.4L257.93,66.75L259.31,65.35L262.07,64.29L263.45,64.29L280,65" style="vector-effect: non-scaling-stroke; fill: none; stroke: rgb(255, 161, 90); stroke-opacity: 1; stroke-width: 5px; opacity: 1;"/></g><g class="points"/><g class="text"/></g></g></g><g class="overplot"/><path class="xlines-above crisp" d="M0,0" style="fill: none;"/><path class="ylines-above crisp" d="M0,0" style="fill: none;"/><g class="overlines-above"/><g class="xaxislayer-above"/><g class="yaxislayer-above"/><g class="overaxes-above"/></g></g><g class="polarlayer"/><g class="smithlayer"/><g class="ternarylayer"/><g class="geolayer"/><g class="funnelarealayer"/><g class="pielayer"/><g class="iciclelayer"/><g class="treemaplayer"/><g class="sunburstlayer"/><g class="glimages"/><defs id="topdefs-41237b"><g class="clips"/></defs><g class="layer-above"><g class="imagelayer"/><g class="shapelayer"/></g><g class="infolayer"><g class="g-gtitle"><text class="gtitle" x="15" y="25" text-anchor="start" dy="0em" style="font-family: Ubuntu, verdana, arial, sans-serif; font-size: 16px; fill: rgb(233, 84, 32); opacity: 1; font-weight: normal; white-space: pre;">Prezident/ka ČR 2023</text></g><g class="g-xtitle"/><g class="g-ytitle"/></g></svg>