<svg class="main-svg" xmlns="http://www.w3.org/2000/svg" xmlns:xlink="http://www.w3.org/1999/xlink" width="300" height="135" style="" viewBox="0 0 300 135"><rect x="0" y="0" width="300" height="135" style="fill: rgb(255, 255, 255); fill-opacity: 1;"/><defs id="defs-a40c26"><g class="clips"><clipPath id="clipa40c26xyplot" class="plotclip"><rect width="280" height="75"/></clipPath><clipPath class="axesclip" id="clipa40c26x"><rect x="10" y="0" width="280" height="135"/></clipPath><clipPath class="axesclip" id="clipa40c26y"><rect x="0" y="50" width="300" height="75"/></clipPath><clipPath class="axesclip" id="clipa40c26xy"><rect x="10" y="50" width="280" height="75"/></clipPath></g><g class="gradients"/><g class="patterns"/></defs><g class="bglayer"/><g class="layer-below"><g class="imagelayer"/><g class="shapelayer"/></g><g class="cartesianlayer"><g class="subplot xy"><g class="layer-subplot"><g class="shapelayer"/><g class="imagelayer"/></g><g class="minor-gridlayer"><g class="x"/><g class="y"/></g><g class="gridlayer"><g class="x"><path class="xgrid crisp" transform="translate(41.64,0)" d="M0,50v75" style="stroke: rgb(235, 240, 248); stroke-opacity: 1; stroke-width: 1px;"/><path class="xgrid crisp" transform="translate(100.14,0)" d="M0,50v75" style="stroke: rgb(235, 240, 248); stroke-opacity: 1; stroke-width: 1px;"/><path class="xgrid crisp" transform="translate(159.59,0)" d="M0,50v75" style="stroke: rgb(235, 240, 248); stroke-opacity: 1; stroke-width: 1px;"/><path class="xgrid crisp" transform="translate(218.08,0)" d="M0,50v75" style="stroke: rgb(235, 240, 248); stroke-opacity: 1; stroke-width: 1px;"/><path class="xgrid crisp" transform="translate(276.58,0)" d="M0,50v75" style="stroke: rgb(235, 240, 248); stroke-opacity: 1; stroke-width: 1px;"/></g><g class="y"><path class="ygrid crisp" transform="translate(0,108.25)" d="M10,0h280" style="stroke: rgb(235, 240, 248); stroke-opacity: 1; stroke-width: 1px;"/><path class="ygrid crisp" transform="translate(0,91.50999999999999)" d="M10,0h280" style="stroke: rgb(235, 240, 248); stroke-opacity: 1; stroke-width: 1px;"/><path class="ygrid crisp" transform="translate(0,74.76)" d="M10,0h280" style="stroke: rgb(235, 240, 248); stroke-opacity: 1; stroke-width: 1px;"/><path class="ygrid crisp" transform="translate(0,58.019999999999996)" d="M10,0h280" style="stroke: rgb(235, 240, 248); stroke-opacity: 1; stroke-width: 1px;"/></g></g><g class="zerolinelayer"><path class="yzl zl crisp" transform="translate(0,125)" d="M10,0h280" style="stroke: rgb(235, 240, 248); stroke-opacity: 1; stroke-width: 2px;"/></g><path class="xlines-below"/><path class="ylines-below"/><g class="overlines-below"/><g class="xaxislayer-below"/><g class="yaxislayer-below"/><g class="overaxes-below"/><g class="plot" transform="translate(10,50)" clip-path="url(#clipa40c26xyplot)"><g class="scatterlayer mlayer"><g class="trace scatter traceb9593b" style="stroke-miterlimit: 2; opacity: 1;"><g class="fills"/><g class="errorbars"/><g class="lines"><path class="js-line" d="M0,36.07L29.73,36.99L30.68,37.91L33.56,41.76L34.52,41.76L41.23,43.1L42.19,43.1L60.41,44.27L61.37,45.45L63.29,46.53L64.25,47.71L68.08,48.38L69.04,48.38L82.47,48.38L83.42,46.53L84.38,44.86L85.34,45.45L86.3,45.19L88.22,44.27L89.18,44.27L128.49,43.69L129.45,42.1L132.33,40.34L133.29,40.34L136.16,40.34L137.12,35.57L181.23,36.07L182.19,36.57L183.15,36.07L184.11,36.99L188.9,36.99L189.86,35.57L191.78,34.06L192.74,34.06L193.7,34.06L194.66,32.47L197.53,28.03L198.49,28.03L199.45,28.03L207.12,32.97L210.96,34.06L211.92,32.97L213.84,33.56L214.79,36.07L215.75,38.75L216.71,36.99L230.14,36.57L231.1,35.57L233.01,35.06L233.97,39.5L237.81,39.5L240.68,43.1L243.56,43.69L244.52,46.28L246.44,48.38L247.4,48.38L252.19,48.38L253.15,48.79L257.95,41.76L258.9,41.76L264.66,41.76L265.62,40.34L267.53,39.17L268.49,37.91L270.41,37.91L271.37,31.88L274.25,28.45L275.21,25.1L276.16,24.51L277.12,19.16L278.08,18.4L280,3.75" style="vector-effect: non-scaling-stroke; fill: none; stroke: rgb(99, 110, 250); stroke-opacity: 1; stroke-width: 5px; opacity: 1;"/></g><g class="points"/><g class="text"/></g><g class="trace scatter tracec26f6c" style="stroke-miterlimit: 2; opacity: 1;"><g class="fills"/><g class="errorbars"/><g class="lines"><path class="js-line" d="M0,50.05L57.53,49.63L58.49,48.38L62.33,47.45L63.29,45.19L66.16,39.5L67.12,39.5L83.42,39.5L84.38,41.01L87.26,41.76L88.22,41.76L129.45,42.77L130.41,43.1L136.16,43.1L137.12,46.28L140.96,47.04L141.92,47.04L143.84,47.71L144.79,48.38L161.1,49.3L162.05,50.05L163.01,50.8L163.97,53.15L165.89,55.07L166.85,55.07L178.36,56.25L179.32,57.25L186.03,58L186.99,58.51L189.86,60.52L190.82,61.69L194.66,61.69L195.62,63.19L197.53,64.37L198.49,64.37L199.45,64.37L207.12,51.56L209.04,49.63L210.96,49.63L212.88,51.56L213.84,51.56L218.63,52.23L219.59,52.23L233.01,52.23L233.97,49.3L243.56,48.79L244.52,50.97L246.44,53.4L247.4,53.4L256.03,54.57L256.99,55.07L270.41,55.58L271.37,57.25L273.29,57.25L274.25,51.22L276.16,50.8L277.12,52.39L278.08,52.65L280,62.52" style="vector-effect: non-scaling-stroke; fill: none; stroke: rgb(239, 85, 59); stroke-opacity: 1; stroke-width: 5px; opacity: 1;"/></g><g class="points"/><g class="text"/></g></g></g><g class="overplot"/><path class="xlines-above crisp" d="M0,0" style="fill: none;"/><path class="ylines-above crisp" d="M0,0" style="fill: none;"/><g class="overlines-above"/><g class="xaxislayer-above"/><g class="yaxislayer-above"/><g class="overaxes-above"/></g></g><g class="polarlayer"/><g class="smithlayer"/><g class="ternarylayer"/><g class="geolayer"/><g class="funnelarealayer"/><g class="pielayer"/><g class="iciclelayer"/><g class="treemaplayer"/><g class="sunburstlayer"/><g class="glimages"/><defs id="topdefs-a40c26"><g class="clips"/></defs><g class="layer-above"><g class="imagelayer"/><g class="shapelayer"/></g><g class="infolayer"><g class="g-gtitle"><text class="gtitle" x="15" y="25" text-anchor="start" dy="0em" style="font-family: Ubuntu, verdana, arial, sans-serif; font-size: 16px; fill: rgb(233, 84, 32); opacity: 1; font-weight: normal; white-space: pre;">Prezident/ka ČR 2023</text></g><g class="g-xtitle"/><g class="g-ytitle"/></g></svg>