<svg class="main-svg" xmlns="http://www.w3.org/2000/svg" xmlns:xlink="http://www.w3.org/1999/xlink" width="1200" height="600" style="" viewBox="0 0 1200 600"><rect x="0" y="0" width="1200" height="600" style="fill: rgb(255, 255, 255); fill-opacity: 1;"/><defs id="defs-764b4b"><g class="clips"><clipPath id="clip764b4bxyplot" class="plotclip"><rect width="975" height="530"/></clipPath><clipPath class="axesclip" id="clip764b4bx"><rect x="50" y="0" width="975" height="600"/></clipPath><clipPath class="axesclip" id="clip764b4by"><rect x="0" y="20" width="1200" height="530"/></clipPath><clipPath class="axesclip" id="clip764b4bxy"><rect x="50" y="20" width="975" height="530"/></clipPath></g><g class="gradients"/><g class="patterns"/></defs><g class="bglayer"/><g class="layer-below"><g class="imagelayer"/><g class="shapelayer"/></g><g class="cartesianlayer"><g class="subplot xy"><g class="layer-subplot"><g class="shapelayer"/><g class="imagelayer"/></g><g class="minor-gridlayer"><g class="x"/><g class="y"/></g><g class="gridlayer"><g class="x"><path class="xgrid crisp" transform="translate(60.09,0)" d="M0,20v530" style="stroke: rgb(235, 240, 248); stroke-opacity: 1; stroke-width: 1px;"/><path class="xgrid crisp" transform="translate(160.95,0)" d="M0,20v530" style="stroke: rgb(235, 240, 248); stroke-opacity: 1; stroke-width: 1px;"/><path class="xgrid crisp" transform="translate(265.16999999999996,0)" d="M0,20v530" style="stroke: rgb(235, 240, 248); stroke-opacity: 1; stroke-width: 1px;"/><path class="xgrid crisp" transform="translate(366.03,0)" d="M0,20v530" style="stroke: rgb(235, 240, 248); stroke-opacity: 1; stroke-width: 1px;"/><path class="xgrid crisp" transform="translate(470.26,0)" d="M0,20v530" style="stroke: rgb(235, 240, 248); stroke-opacity: 1; stroke-width: 1px;"/><path class="xgrid crisp" transform="translate(574.48,0)" d="M0,20v530" style="stroke: rgb(235, 240, 248); stroke-opacity: 1; stroke-width: 1px;"/><path class="xgrid crisp" transform="translate(675.34,0)" d="M0,20v530" style="stroke: rgb(235, 240, 248); stroke-opacity: 1; stroke-width: 1px;"/><path class="xgrid crisp" transform="translate(779.57,0)" d="M0,20v530" style="stroke: rgb(235, 240, 248); stroke-opacity: 1; stroke-width: 1px;"/><path class="xgrid crisp" transform="translate(880.43,0)" d="M0,20v530" style="stroke: rgb(235, 240, 248); stroke-opacity: 1; stroke-width: 1px;"/><path class="xgrid crisp" transform="translate(984.66,0)" d="M0,20v530" style="stroke: rgb(235, 240, 248); stroke-opacity: 1; stroke-width: 1px;"/></g><g class="y"><path class="ygrid crisp" transform="translate(0,473.94)" d="M50,0h975" style="stroke: rgb(235, 240, 248); stroke-opacity: 1; stroke-width: 1px;"/><path class="ygrid crisp" transform="translate(0,397.89)" d="M50,0h975" style="stroke: rgb(235, 240, 248); stroke-opacity: 1; stroke-width: 1px;"/><path class="ygrid crisp" transform="translate(0,321.83)" d="M50,0h975" style="stroke: rgb(235, 240, 248); stroke-opacity: 1; stroke-width: 1px;"/><path class="ygrid crisp" transform="translate(0,245.77)" d="M50,0h975" style="stroke: rgb(235, 240, 248); stroke-opacity: 1; stroke-width: 1px;"/><path class="ygrid crisp" transform="translate(0,169.71)" d="M50,0h975" style="stroke: rgb(235, 240, 248); stroke-opacity: 1; stroke-width: 1px;"/><path class="ygrid crisp" transform="translate(0,93.66)" d="M50,0h975" style="stroke: rgb(235, 240, 248); stroke-opacity: 1; stroke-width: 1px;"/></g></g><g class="zerolinelayer"><path class="yzl zl crisp" transform="translate(0,550)" d="M50,0h975" style="stroke: rgb(235, 240, 248); stroke-opacity: 1; stroke-width: 2px;"/></g><path class="xlines-below"/><path class="ylines-below"/><g class="overlines-below"/><g class="xaxislayer-below"/><g class="yaxislayer-below"/><g class="overaxes-below"/><g class="plot" transform="translate(50,20)" clip-path="url(#clip764b4bxyplot)"><g class="scatterlayer mlayer"><g class="trace scatter traceffd1c7" style="stroke-miterlimit: 2; opacity: 1;"><g class="fills"/><g class="errorbars"/><g class="lines"><path class="js-line" d="M0,177.09L77.33,177.09L80.69,181.66L84.05,185.46L87.41,185.46L104.22,185.46L107.59,193.83L114.31,228.81L117.67,228.81L121.03,228.81L124.4,231.85L127.76,234.9L131.12,234.9L137.84,240.98L141.21,240.98L158.02,240.98L161.38,244.02L164.74,246.31L168.1,246.31L201.72,246.31L205.09,251.63L211.81,251.63L215.17,262.28L218.53,262.28L221.9,272.17L225.26,282.81L228.62,286.62L231.98,288.9L235.34,288.9L289.14,288.9L292.5,272.17L295.86,256.95L299.22,262.28L302.59,260L305.95,251.63L329.48,251.63L332.84,249.35L336.21,246.31L339.57,246.31L386.64,246.31L390,249.35L393.36,251.63L396.72,251.63L447.16,251.63L450.52,246.31L457.24,221.97L460.6,218.93L463.97,215.88L467.33,215.88L477.41,215.88L480.78,173.29L484.14,173.29L487.5,168.73L632.07,168.73L635.43,177.09L638.79,181.66L642.16,177.09L645.52,185.46L648.88,185.46L662.33,185.46L665.69,173.29L669.05,159.6L672.41,159.6L679.14,159.6L682.5,144.39L689.22,117.01L692.59,104.84L699.31,104.84L726.21,149.71L732.93,159.6L739.66,159.6L743.02,149.71L746.38,149.71L749.74,154.28L753.1,177.09L756.47,201.43L759.83,185.46L803.53,185.46L806.9,181.66L810.26,173.29L813.62,168.73L816.98,168.73L820.34,209.04L833.79,209.04L843.88,240.98L850.6,246.31L853.97,246.31L860.69,288.9L864.05,288.9L874.14,288.9L877.5,280.53L880.86,288.9L884.22,288.9L887.59,292.7L890.95,275.97L894.31,266.84L897.67,251.63L901.03,228.81L904.4,228.81L927.93,228.81L931.29,215.88L934.66,215.88L938.02,205.23L941.38,193.83L944.74,193.83L948.1,193.83L951.47,139.06L954.83,128.42L958.19,128.42L961.55,107.88L964.91,78.22L968.28,72.13L971.64,26.5" style="vector-effect: non-scaling-stroke; fill: none; stroke: rgb(99, 110, 250); stroke-opacity: 1; stroke-width: 5px; opacity: 1;"/></g><g class="points"/><g class="text"/></g><g class="trace scatter traceb1f7bf" style="stroke-miterlimit: 2; opacity: 1;"><g class="fills"/><g class="errorbars"/><g class="lines"><path class="js-line" d="M0,304.11L77.33,304.11L80.69,302.59L84.05,300.31L87.41,300.31L201.72,300.31L205.09,288.9L211.81,288.9L215.17,280.53L218.53,280.53L221.9,260L225.26,231.85L228.62,218.93L231.98,209.04L235.34,209.04L255.52,209.04L258.88,205.23L262.24,201.43L265.6,201.43L289.14,201.43L292.5,209.04L295.86,221.97L299.22,228.81L447.16,228.81L450.52,231.85L453.88,237.94L457.24,240.98L467.33,240.98L470.69,244.02L474.05,244.02L477.41,240.98L480.78,269.12L484.14,274.45L487.5,275.97L490.86,275.97L500.95,275.97L504.31,282.81L507.67,288.9L511.03,288.9L517.76,296.5L521.12,296.5L564.83,296.5L568.19,304.11L571.55,310.95L574.91,332.25L578.28,348.98L581.64,348.98L621.98,348.98L625.34,359.63L628.71,369.52L632.07,369.52L635.43,366.48L638.79,369.52L648.88,369.52L652.24,376.36L658.97,385.49L662.33,385.49L669.05,409.83L672.41,409.83L682.5,409.83L685.86,422.76L689.22,433.41L692.59,433.41L699.31,433.41L726.21,317.04L729.57,305.63L732.93,300.31L739.66,300.31L743.02,317.04L749.74,317.04L753.1,320.08L756.47,323.12L759.83,323.12L780,323.12L783.36,326.17L803.53,326.17L806.9,327.69L810.26,326.17L813.62,323.12L816.98,323.12L820.34,296.5L833.79,296.5L843.88,292.7L853.97,292.7L857.33,312.48L860.69,334.53L864.05,334.53L880.86,334.53L884.22,339.86L894.31,339.86L897.67,344.42L901.03,348.98L904.4,348.98L927.93,348.98L931.29,358.11L934.66,358.11L938.02,355.83L941.38,353.55L944.74,353.55L948.1,353.55L951.47,369.52L958.19,369.52L961.55,314.76L964.91,307.91L968.28,310.95L971.64,324.65" style="vector-effect: non-scaling-stroke; fill: none; stroke: rgb(239, 85, 59); stroke-opacity: 1; stroke-width: 5px; opacity: 1;"/></g><g class="points"/><g class="text"/></g><g class="trace scatter trace55468c" style="stroke-miterlimit: 2; opacity: 1;"><g class="fills"/><g class="errorbars"/><g class="lines"><path class="js-line" d="M0,466.87L16.81,466.87L20.17,469.91L107.59,469.91L110.95,476.76L114.31,482.08L117.67,482.08L211.81,482.08L215.17,457.75L218.53,457.75L221.9,459.27L225.26,460.79L228.62,464.59L231.98,466.87L235.34,464.59L248.79,464.59L252.16,460.79L255.52,457.75L258.88,457.75L383.28,457.75L386.64,449.38L390,433.41L393.36,426.56L440.43,426.56L443.79,418.96L447.16,418.96L450.52,414.39L453.88,409.83L457.24,409.83L463.97,396.14L467.33,396.14L470.69,390.81L474.05,382.45L477.41,379.41L480.78,380.93L484.14,380.93L487.5,378.65L494.22,377.89L497.59,377.89L564.83,377.89L568.19,381.69L571.55,385.49L574.91,377.89L578.28,369.52L581.64,369.52L632.07,369.52L635.43,363.43L638.79,358.11L642.16,358.11L645.52,365.72L648.88,369.52L652.24,369.52L655.6,359.63L658.97,348.98L662.33,348.98L669.05,339.86L672.41,339.86L679.14,339.86L682.5,342.14L685.86,329.21L689.22,310.95L699.31,310.95L726.21,342.9L729.57,348.98L732.93,348.98L739.66,348.98L743.02,353.55L746.38,353.55L749.74,351.27L753.1,342.14L756.47,323.12L780,323.12L783.36,320.08L800.17,320.08L803.53,318.56L806.9,317.04L810.26,314L813.62,317.04L816.98,310.95L820.34,296.5L823.71,296.5L833.79,296.5L843.88,262.28L850.6,251.63L853.97,251.63L860.69,177.09L864.05,177.09L874.14,177.09L877.5,185.46L884.22,168.73L887.59,168.73L897.67,215.88L901.03,228.81L927.93,228.81L931.29,240.98L934.66,240.98L938.02,251.63L941.38,262.28L944.74,262.28L948.1,262.28L951.47,310.95L954.83,323.12L958.19,323.12L961.55,399.94L964.91,439.49L968.28,444.82L971.64,478.28" style="vector-effect: non-scaling-stroke; fill: none; stroke: rgb(0, 204, 150); stroke-opacity: 1; stroke-width: 5px; opacity: 1;"/></g><g class="points"/><g class="text"/></g></g></g><g class="overplot"/><path class="xlines-above crisp" d="M0,0" style="fill: none;"/><path class="ylines-above crisp" d="M0,0" style="fill: none;"/><g class="overlines-above"/><g class="xaxislayer-above"><g class="xtick"><text text-anchor="middle" x="0" y="563" transform="translate(60.09,0)" style="font-family: 'Open Sans', verdana, arial, sans-serif; font-size: 12px; fill: rgb(42, 63, 95); fill-opacity: 1; white-space: pre; opacity: 1;">1.4.22</text></g><g class="xtick"><text text-anchor="middle" x="0" y="563" style="font-family: 'Open Sans', verdana, arial, sans-serif; font-size: 12px; fill: rgb(42, 63, 95); fill-opacity: 1; white-space: pre; opacity: 1;" transform="translate(160.95,0)">1.5.22</text></g><g class="xtick"><text text-anchor="middle" x="0" y="563" style="font-family: 'Open Sans', verdana, arial, sans-serif; font-size: 12px; fill: rgb(42, 63, 95); fill-opacity: 1; white-space: pre; opacity: 1;" transform="translate(265.16999999999996,0)">1.6.22</text></g><g class="xtick"><text text-anchor="middle" x="0" y="563" style="font-family: 'Open Sans', verdana, arial, sans-serif; font-size: 12px; fill: rgb(42, 63, 95); fill-opacity: 1; white-space: pre; opacity: 1;" transform="translate(366.03,0)">1.7.22</text></g><g class="xtick"><text text-anchor="middle" x="0" y="563" style="font-family: 'Open Sans', verdana, arial, sans-serif; font-size: 12px; fill: rgb(42, 63, 95); fill-opacity: 1; white-space: pre; opacity: 1;" transform="translate(470.26,0)">1.8.22</text></g><g class="xtick"><text text-anchor="middle" x="0" y="563" style="font-family: 'Open Sans', verdana, arial, sans-serif; font-size: 12px; fill: rgb(42, 63, 95); fill-opacity: 1; white-space: pre; opacity: 1;" transform="translate(574.48,0)">1.9.22</text></g><g class="xtick"><text text-anchor="middle" x="0" y="563" style="font-family: 'Open Sans', verdana, arial, sans-serif; font-size: 12px; fill: rgb(42, 63, 95); fill-opacity: 1; white-space: pre; opacity: 1;" transform="translate(675.34,0)">1.10.22</text></g><g class="xtick"><text text-anchor="middle" x="0" y="563" style="font-family: 'Open Sans', verdana, arial, sans-serif; font-size: 12px; fill: rgb(42, 63, 95); fill-opacity: 1; white-space: pre; opacity: 1;" transform="translate(779.57,0)">1.11.22</text></g><g class="xtick"><text text-anchor="middle" x="0" y="563" style="font-family: 'Open Sans', verdana, arial, sans-serif; font-size: 12px; fill: rgb(42, 63, 95); fill-opacity: 1; white-space: pre; opacity: 1;" transform="translate(880.43,0)">1.12.22</text></g><g class="xtick"><text text-anchor="middle" x="0" y="563" style="font-family: 'Open Sans', verdana, arial, sans-serif; font-size: 12px; fill: rgb(42, 63, 95); fill-opacity: 1; white-space: pre; opacity: 1;" transform="translate(984.66,0)">1.1.23</text></g></g><g class="yaxislayer-above"><g class="ytick"><text text-anchor="end" x="49" y="4.199999999999999" transform="translate(0,550)" style="font-family: 'Open Sans', verdana, arial, sans-serif; font-size: 12px; fill: rgb(42, 63, 95); fill-opacity: 1; white-space: pre; opacity: 1;">0%</text></g><g class="ytick"><text text-anchor="end" x="49" y="4.199999999999999" style="font-family: 'Open Sans', verdana, arial, sans-serif; font-size: 12px; fill: rgb(42, 63, 95); fill-opacity: 1; white-space: pre; opacity: 1;" transform="translate(0,473.94)">10%</text></g><g class="ytick"><text text-anchor="end" x="49" y="4.199999999999999" style="font-family: 'Open Sans', verdana, arial, sans-serif; font-size: 12px; fill: rgb(42, 63, 95); fill-opacity: 1; white-space: pre; opacity: 1;" transform="translate(0,397.89)">20%</text></g><g class="ytick"><text text-anchor="end" x="49" y="4.199999999999999" style="font-family: 'Open Sans', verdana, arial, sans-serif; font-size: 12px; fill: rgb(42, 63, 95); fill-opacity: 1; white-space: pre; opacity: 1;" transform="translate(0,321.83)">30%</text></g><g class="ytick"><text text-anchor="end" x="49" y="4.199999999999999" style="font-family: 'Open Sans', verdana, arial, sans-serif; font-size: 12px; fill: rgb(42, 63, 95); fill-opacity: 1; white-space: pre; opacity: 1;" transform="translate(0,245.77)">40%</text></g><g class="ytick"><text text-anchor="end" x="49" y="4.199999999999999" style="font-family: 'Open Sans', verdana, arial, sans-serif; font-size: 12px; fill: rgb(42, 63, 95); fill-opacity: 1; white-space: pre; opacity: 1;" transform="translate(0,169.71)">50%</text></g><g class="ytick"><text text-anchor="end" x="49" y="4.199999999999999" style="font-family: 'Open Sans', verdana, arial, sans-serif; font-size: 12px; fill: rgb(42, 63, 95); fill-opacity: 1; white-space: pre; opacity: 1;" transform="translate(0,93.66)">60%</text></g></g><g class="overaxes-above"/></g></g><g class="polarlayer"/><g class="smithlayer"/><g class="ternarylayer"/><g class="geolayer"/><g class="funnelarealayer"/><g class="pielayer"/><g class="iciclelayer"/><g class="treemaplayer"/><g class="sunburstlayer"/><g class="glimages"/><defs id="topdefs-764b4b"><g class="clips"/><clipPath id="legend764b4b"><rect width="143" height="67" x="0" y="0"/></clipPath></defs><g class="layer-above"><g class="imagelayer"/><g class="shapelayer"/></g><g class="infolayer"><g class="legend" pointer-events="all" transform="translate(1044.5,20)"><rect class="bg" shape-rendering="crispEdges" style="stroke: rgb(68, 68, 68); stroke-opacity: 1; fill: rgb(255, 255, 255); fill-opacity: 1; stroke-width: 0px;" width="143" height="67" x="0" y="0"/><g class="scrollbox" transform="" clip-path="url(#legend764b4b)"><g class="groups"><g class="traces" transform="translate(0,14.5)" style="opacity: 1;"><text class="legendtext" text-anchor="start" x="40" y="4.680000000000001" style="font-family: 'Open Sans', verdana, arial, sans-serif; font-size: 12px; fill: rgb(42, 63, 95); fill-opacity: 1; white-space: pre;">Pavel Petr</text><g class="layers" style="opacity: 1;"><g class="legendfill"/><g class="legendlines"><path class="js-line" d="M5,0h30" style="fill: none; stroke: rgb(99, 110, 250); stroke-opacity: 1; stroke-width: 5px;"/></g><g class="legendsymbols"><g class="legendpoints"/></g></g><rect class="legendtoggle" x="0" y="-9.5" width="137.0625" height="19" style="fill: rgb(0, 0, 0); fill-opacity: 0;"/></g><g class="traces" transform="translate(0,33.5)" style="opacity: 1;"><text class="legendtext" text-anchor="start" x="40" y="4.680000000000001" style="font-family: 'Open Sans', verdana, arial, sans-serif; font-size: 12px; fill: rgb(42, 63, 95); fill-opacity: 1; white-space: pre;">Babiš Andrej</text><g class="layers" style="opacity: 1;"><g class="legendfill"/><g class="legendlines"><path class="js-line" d="M5,0h30" style="fill: none; stroke: rgb(239, 85, 59); stroke-opacity: 1; stroke-width: 5px;"/></g><g class="legendsymbols"><g class="legendpoints"/></g></g><rect class="legendtoggle" x="0" y="-9.5" width="137.0625" height="19" style="fill: rgb(0, 0, 0); fill-opacity: 0;"/></g><g class="traces" transform="translate(0,52.5)" style="opacity: 1;"><text class="legendtext" text-anchor="start" x="40" y="4.680000000000001" style="font-family: 'Open Sans', verdana, arial, sans-serif; font-size: 12px; fill: rgb(42, 63, 95); fill-opacity: 1; white-space: pre;">Nerudová Danuše</text><g class="layers" style="opacity: 1;"><g class="legendfill"/><g class="legendlines"><path class="js-line" d="M5,0h30" style="fill: none; stroke: rgb(0, 204, 150); stroke-opacity: 1; stroke-width: 5px;"/></g><g class="legendsymbols"><g class="legendpoints"/></g></g><rect class="legendtoggle" x="0" y="-9.5" width="137.0625" height="19" style="fill: rgb(0, 0, 0); fill-opacity: 0;"/></g></g></g><rect class="scrollbar" rx="20" ry="3" width="0" height="0" style="fill: rgb(128, 139, 164); fill-opacity: 1;" x="0" y="0"/></g><g class="g-gtitle"/><g class="g-xtitle"/><g class="g-ytitle"/></g></svg>