<svg class="main-svg" xmlns="http://www.w3.org/2000/svg" xmlns:xlink="http://www.w3.org/1999/xlink" width="300" height="135" style="" viewBox="0 0 300 135"><rect x="0" y="0" width="300" height="135" style="fill: rgb(255, 255, 255); fill-opacity: 1;"/><defs id="defs-467dd5"><g class="clips"><clipPath id="clip467dd5xyplot" class="plotclip"><rect width="280" height="75"/></clipPath><clipPath class="axesclip" id="clip467dd5x"><rect x="10" y="0" width="280" height="135"/></clipPath><clipPath class="axesclip" id="clip467dd5y"><rect x="0" y="50" width="300" height="75"/></clipPath><clipPath class="axesclip" id="clip467dd5xy"><rect x="10" y="50" width="280" height="75"/></clipPath></g><g class="gradients"/><g class="patterns"/></defs><g class="bglayer"/><g class="layer-below"><g class="imagelayer"/><g class="shapelayer"/></g><g class="cartesianlayer"><g class="subplot xy"><g class="layer-subplot"><g class="shapelayer"/><g class="imagelayer"/></g><g class="minor-gridlayer"><g class="x"/><g class="y"/></g><g class="gridlayer"><g class="x"><path class="xgrid crisp" transform="translate(50,0)" d="M0,50v75" style="stroke: rgb(235, 240, 248); stroke-opacity: 1; stroke-width: 1px;"/><path class="xgrid crisp" transform="translate(123.94,0)" d="M0,50v75" style="stroke: rgb(235, 240, 248); stroke-opacity: 1; stroke-width: 1px;"/><path class="xgrid crisp" transform="translate(199.09,0)" d="M0,50v75" style="stroke: rgb(235, 240, 248); stroke-opacity: 1; stroke-width: 1px;"/><path class="xgrid crisp" transform="translate(273.03,0)" d="M0,50v75" style="stroke: rgb(235, 240, 248); stroke-opacity: 1; stroke-width: 1px;"/></g><g class="y"><path class="ygrid crisp" transform="translate(0,97.65)" d="M10,0h280" style="stroke: rgb(235, 240, 248); stroke-opacity: 1; stroke-width: 1px;"/><path class="ygrid crisp" transform="translate(0,70.3)" d="M10,0h280" style="stroke: rgb(235, 240, 248); stroke-opacity: 1; stroke-width: 1px;"/></g></g><g class="zerolinelayer"><path class="yzl zl crisp" transform="translate(0,125)" d="M10,0h280" style="stroke: rgb(235, 240, 248); stroke-opacity: 1; stroke-width: 2px;"/></g><path class="xlines-below"/><path class="ylines-below"/><g class="overlines-below"/><g class="xaxislayer-below"/><g class="yaxislayer-below"/><g class="overaxes-below"/><g class="plot" transform="translate(10,50)" clip-path="url(#clip467dd5xyplot)"><g class="scatterlayer mlayer"><g class="trace scatter trace00526a" style="stroke-miterlimit: 2; opacity: 1;"><g class="fills"/><g class="errorbars"/><g class="lines"><path class="js-line" d="M0,15.92L29.09,16.61L30.3,17.29L37.58,17.29L38.79,18.66L41.21,24.54L42.42,24.54L47.27,25.63L48.48,26.04L52.12,26.59L53.33,26.59L72.73,27.55L73.94,28.37L76.36,28.37L77.58,30.14L78.79,30.14L80,31.79L82.42,34.25L83.64,34.66L104.24,34.66L105.45,31.79L106.67,29.32L107.88,30.14L113.94,28.37L115.15,28.37L162.42,27.55L163.64,25.08L166.06,22.9L167.27,22.35L172.12,22.35L173.33,15.24L227.88,14.42L229.09,15.92L233.94,17.29L235.15,17.29L238.79,17.29L240,15.24L242.42,12.91L243.64,12.91L244.85,12.91L246.06,10.45L249.7,3.75L250.91,3.75L252.12,3.75L261.82,11.27L264.24,12.91L266.67,12.91L269.09,11.27L270.3,12.09L272.73,19.89L273.94,17.29L280,17.29" style="vector-effect: non-scaling-stroke; fill: none; stroke: rgb(99, 110, 250); stroke-opacity: 1; stroke-width: 5px; opacity: 1;"/></g><g class="points"/><g class="text"/></g><g class="trace scatter trace9cdb06" style="stroke-miterlimit: 2; opacity: 1;"><g class="fills"/><g class="errorbars"/><g class="lines"><path class="js-line" d="M0,37.12L72.73,36.57L73.94,34.66L76.36,34.66L77.58,33.29L78.79,33.29L80,29.73L82.42,22.9L83.64,21.12L105.45,21.12L106.67,23.44L109.09,24.54L110.3,24.54L162.42,25.08L163.64,26.04L167.27,26.59L168.48,26.59L172.12,26.59L173.33,31.37L176.97,32.47L178.18,32.47L181.82,33.56L183.03,34.66L203.64,35.89L204.85,37.12L206.06,38.35L207.27,41.77L209.7,44.78L210.91,44.78L224.24,44.78L225.45,46.55L227.88,48.06L229.09,47.65L236.36,49.97L237.58,50.79L238.79,50.79L240,52.98L242.42,54.76L243.64,54.76L246.06,54.76L247.27,57.08L249.7,58.86L250.91,58.86L252.12,58.86L261.82,39.44L264.24,36.57L266.67,36.57L269.09,39.44L270.3,39.44L276.36,40.4L277.58,40.4L280,40.4" style="vector-effect: non-scaling-stroke; fill: none; stroke: rgb(239, 85, 59); stroke-opacity: 1; stroke-width: 5px; opacity: 1;"/></g><g class="points"/><g class="text"/></g><g class="trace scatter traceadb3cc" style="stroke-miterlimit: 2; opacity: 1;"><g class="fills"/><g class="errorbars"/><g class="lines"><path class="js-line" d="M0,64.47L38.79,64.88L40,65.97L42.42,66.93L43.64,66.93L76.36,66.93L77.58,62.83L82.42,63.92L83.64,64.47L87.27,63.92L88.48,63.92L138.18,62.83L139.39,61.6L141.82,57.63L143.03,57.63L161.21,56.4L162.42,55.58L172.12,49.7L173.33,49.97L207.27,49.56L208.48,48.06L229.09,47.1L230.3,46.14L231.52,46.14L232.73,47.51L235.15,48.06L236.36,46.55L238.79,44.78L240,43.96L242.42,43.14L243.64,43.14L246.06,43.55L247.27,41.36L249.7,38.35L250.91,38.35L252.12,38.35L261.82,43.68L264.24,44.78L266.67,44.78L269.09,45.46L270.3,45.05L273.94,40.4L275.15,40.4L280,40.4" style="vector-effect: non-scaling-stroke; fill: none; stroke: rgb(0, 204, 150); stroke-opacity: 1; stroke-width: 5px; opacity: 1;"/></g><g class="points"/><g class="text"/></g><g class="trace scatter traced3afd3" style="stroke-miterlimit: 2; opacity: 1;"><g class="fills"/><g class="errorbars"/><g class="lines"><path class="js-line" d="M0,63.51L78.79,63.92L80,64.2L86.06,64.47L87.27,64.47L164.85,65.7L166.06,65.84L185.45,67.48L186.67,67.48L227.88,66.66L229.09,65.29L235.15,66.38L236.36,66.38L246.06,66.38L247.27,67.89L249.7,69.53L250.91,69.53L280,70.49" style="vector-effect: non-scaling-stroke; fill: none; stroke: rgb(171, 99, 250); stroke-opacity: 1; stroke-width: 5px; opacity: 1;"/></g><g class="points"/><g class="text"/></g><g class="trace scatter tracea4442a" style="stroke-miterlimit: 2; opacity: 1;"><g class="fills"/><g class="errorbars"/><g class="lines"><path class="js-line" d="M0,71.58L139.39,71.03L140.61,70.49L272.73,71.58L273.94,71.72L280,71.85" style="vector-effect: non-scaling-stroke; fill: none; stroke: rgb(255, 161, 90); stroke-opacity: 1; stroke-width: 5px; opacity: 1;"/></g><g class="points"/><g class="text"/></g></g></g><g class="overplot"/><path class="xlines-above crisp" d="M0,0" style="fill: none;"/><path class="ylines-above crisp" d="M0,0" style="fill: none;"/><g class="overlines-above"/><g class="xaxislayer-above"/><g class="yaxislayer-above"/><g class="overaxes-above"/></g></g><g class="polarlayer"/><g class="smithlayer"/><g class="ternarylayer"/><g class="geolayer"/><g class="funnelarealayer"/><g class="pielayer"/><g class="iciclelayer"/><g class="treemaplayer"/><g class="sunburstlayer"/><g class="glimages"/><defs id="topdefs-467dd5"><g class="clips"/></defs><g class="layer-above"><g class="imagelayer"/><g class="shapelayer"/></g><g class="infolayer"><g class="g-gtitle"><text class="gtitle" x="15" y="25" text-anchor="start" dy="0em" style="font-family: Ubuntu, verdana, arial, sans-serif; font-size: 16px; fill: rgb(233, 84, 32); opacity: 1; font-weight: normal; white-space: pre;">Prezident/ka ČR 2023</text></g><g class="g-xtitle"/><g class="g-ytitle"/></g></svg>