<svg class="main-svg" xmlns="http://www.w3.org/2000/svg" xmlns:xlink="http://www.w3.org/1999/xlink" width="300" height="135" style="" viewBox="0 0 300 135"><rect x="0" y="0" width="300" height="135" style="fill: rgb(255, 255, 255); fill-opacity: 1;"/><defs id="defs-279cfc"><g class="clips"><clipPath id="clip279cfcxyplot" class="plotclip"><rect width="280" height="75"/></clipPath><clipPath class="axesclip" id="clip279cfcx"><rect x="10" y="0" width="280" height="135"/></clipPath><clipPath class="axesclip" id="clip279cfcy"><rect x="0" y="50" width="300" height="75"/></clipPath><clipPath class="axesclip" id="clip279cfcxy"><rect x="10" y="50" width="280" height="75"/></clipPath></g><g class="gradients"/><g class="patterns"/></defs><g class="bglayer"/><g class="layer-below"><g class="imagelayer"/><g class="shapelayer"/></g><g class="cartesianlayer"><g class="subplot xy"><g class="layer-subplot"><g class="shapelayer"/><g class="imagelayer"/></g><g class="minor-gridlayer"><g class="x"/><g class="y"/></g><g class="gridlayer"><g class="x"><path class="xgrid crisp" transform="translate(40.7,0)" d="M0,50v75" style="stroke: rgb(235, 240, 248); stroke-opacity: 1; stroke-width: 1px;"/><path class="xgrid crisp" transform="translate(97.44,0)" d="M0,50v75" style="stroke: rgb(235, 240, 248); stroke-opacity: 1; stroke-width: 1px;"/><path class="xgrid crisp" transform="translate(155.12,0)" d="M0,50v75" style="stroke: rgb(235, 240, 248); stroke-opacity: 1; stroke-width: 1px;"/><path class="xgrid crisp" transform="translate(211.86,0)" d="M0,50v75" style="stroke: rgb(235, 240, 248); stroke-opacity: 1; stroke-width: 1px;"/><path class="xgrid crisp" transform="translate(268.6,0)" d="M0,50v75" style="stroke: rgb(235, 240, 248); stroke-opacity: 1; stroke-width: 1px;"/></g><g class="y"><path class="ygrid crisp" transform="translate(0,108.93)" d="M10,0h280" style="stroke: rgb(235, 240, 248); stroke-opacity: 1; stroke-width: 1px;"/><path class="ygrid crisp" transform="translate(0,92.87)" d="M10,0h280" style="stroke: rgb(235, 240, 248); stroke-opacity: 1; stroke-width: 1px;"/><path class="ygrid crisp" transform="translate(0,76.8)" d="M10,0h280" style="stroke: rgb(235, 240, 248); stroke-opacity: 1; stroke-width: 1px;"/><path class="ygrid crisp" transform="translate(0,60.74)" d="M10,0h280" style="stroke: rgb(235, 240, 248); stroke-opacity: 1; stroke-width: 1px;"/></g></g><g class="zerolinelayer"><path class="yzl zl crisp" transform="translate(0,125)" d="M10,0h280" style="stroke: rgb(235, 240, 248); stroke-opacity: 1; stroke-width: 2px;"/></g><path class="xlines-below"/><path class="ylines-below"/><g class="overlines-below"/><g class="xaxislayer-below"/><g class="yaxislayer-below"/><g class="overaxes-below"/><g class="plot" transform="translate(10,50)" clip-path="url(#clip279cfcxyplot)"><g class="scatterlayer mlayer"><g class="trace scatter traceb79965" style="stroke-miterlimit: 2; opacity: 1;"><g class="fills"/><g class="errorbars"/><g class="lines"><path class="js-line" d="M0,38.13L28.84,39.01L29.77,39.9L32.56,43.51L33.49,43.51L40.93,44.8L41.86,44.8L58.6,45.92L59.53,47.05L61.4,48.01L62.33,49.22L66.98,49.86L67.91,49.86L80,49.86L80.93,48.01L81.86,46.48L82.79,47.05L83.72,46.81L85.58,45.92L86.51,45.92L124.65,45.36L125.58,43.83L128.37,42.15L129.3,42.15L132.09,42.15L133.02,37.73L175.81,38.13L176.74,38.61L178.6,39.01L179.53,39.01L183.26,39.01L184.19,37.73L186.05,36.28L186.98,36.28L187.91,36.28L188.84,34.76L192.56,30.58L193.49,30.58L204.65,36.28L205.58,35.24L207.44,35.8L208.37,38.13L209.3,40.7L210.23,39.01L223.26,38.61L224.19,37.73L226.05,37.25L226.98,41.42L230.7,41.42L233.49,44.8L236.28,45.36L237.21,47.77L239.07,49.86L240,49.86L244.65,49.86L245.58,50.26L250.23,43.51L251.16,43.51L256.74,43.51L257.67,42.15L259.53,41.1L260.47,39.9L262.33,39.9L263.26,34.19L266.05,30.98L266.98,27.85L267.91,27.21L268.84,22.23L269.77,21.42L271.63,8.09L274.42,9.94L275.35,9.94L277.21,8.57L278.14,6.08L280,3.75" style="vector-effect: non-scaling-stroke; fill: none; stroke: rgb(99, 110, 250); stroke-opacity: 1; stroke-width: 5px; opacity: 1;"/></g><g class="points"/><g class="text"/></g><g class="trace scatter trace59c645" style="stroke-miterlimit: 2; opacity: 1;"><g class="fills"/><g class="errorbars"/><g class="lines"><path class="js-line" d="M0,51.38L55.81,51.06L56.74,49.86L60.47,48.97L61.4,46.81L64.19,41.42L65.12,41.42L80.93,41.42L81.86,42.87L84.65,43.51L85.58,43.51L125.58,44.48L126.51,44.8L132.09,44.8L133.02,47.77L136.74,48.49L137.67,48.49L139.53,49.22L140.47,49.86L156.28,50.66L157.21,51.38L159.07,54.28L160,56.12L173.02,57.25L173.95,58.21L180.47,58.93L181.4,59.42L184.19,61.26L185.12,62.39L188.84,62.39L189.77,63.83L191.63,64.96L192.56,64.96L193.49,64.96L200.93,52.83L202.79,51.06L204.65,51.06L206.51,52.83L207.44,52.83L212.09,53.39L213.02,53.39L226.05,53.39L226.98,50.66L236.28,50.26L237.21,52.27L239.07,54.6L240,54.6L248.37,55.64L249.3,56.12L262.33,56.61L263.26,58.21L265.12,58.21L266.05,52.51L267.91,52.11L268.84,53.63L269.77,53.87L271.63,62.39L274.42,58.93L275.35,59.18L280,65.92" style="vector-effect: non-scaling-stroke; fill: none; stroke: rgb(239, 85, 59); stroke-opacity: 1; stroke-width: 5px; opacity: 1;"/></g><g class="points"/><g class="text"/></g></g></g><g class="overplot"/><path class="xlines-above crisp" d="M0,0" style="fill: none;"/><path class="ylines-above crisp" d="M0,0" style="fill: none;"/><g class="overlines-above"/><g class="xaxislayer-above"/><g class="yaxislayer-above"/><g class="overaxes-above"/></g></g><g class="polarlayer"/><g class="smithlayer"/><g class="ternarylayer"/><g class="geolayer"/><g class="funnelarealayer"/><g class="pielayer"/><g class="iciclelayer"/><g class="treemaplayer"/><g class="sunburstlayer"/><g class="glimages"/><defs id="topdefs-279cfc"><g class="clips"/></defs><g class="layer-above"><g class="imagelayer"/><g class="shapelayer"/></g><g class="infolayer"><g class="g-gtitle"><text class="gtitle" x="15" y="25" text-anchor="start" dy="0em" style="font-family: Ubuntu, verdana, arial, sans-serif; font-size: 16px; fill: rgb(233, 84, 32); opacity: 1; font-weight: normal; white-space: pre;">Prezident/ka ČR 2023</text></g><g class="g-xtitle"/><g class="g-ytitle"/></g></svg>