<svg class="main-svg" xmlns="http://www.w3.org/2000/svg" xmlns:xlink="http://www.w3.org/1999/xlink" width="300" height="135" style="" viewBox="0 0 300 135"><rect x="0" y="0" width="300" height="135" style="fill: rgb(255, 255, 255); fill-opacity: 1;"/><defs id="defs-15f688"><g class="clips"><clipPath id="clip15f688xyplot" class="plotclip"><rect width="280" height="75"/></clipPath><clipPath class="axesclip" id="clip15f688x"><rect x="10" y="0" width="280" height="135"/></clipPath><clipPath class="axesclip" id="clip15f688y"><rect x="0" y="50" width="300" height="75"/></clipPath><clipPath class="axesclip" id="clip15f688xy"><rect x="10" y="50" width="280" height="75"/></clipPath></g><g class="gradients"/><g class="patterns"/></defs><g class="bglayer"/><g class="layer-below"><g class="imagelayer"/><g class="shapelayer"/></g><g class="cartesianlayer"><g class="subplot xy"><g class="layer-subplot"><g class="shapelayer"/><g class="imagelayer"/></g><g class="minor-gridlayer"><g class="x"/><g class="y"/></g><g class="gridlayer"><g class="x"><path class="xgrid crisp" transform="translate(65.66,0)" d="M0,50v75" style="stroke: rgb(235, 240, 248); stroke-opacity: 1; stroke-width: 1px;"/><path class="xgrid crisp" transform="translate(168.55,0)" d="M0,50v75" style="stroke: rgb(235, 240, 248); stroke-opacity: 1; stroke-width: 1px;"/><path class="xgrid crisp" transform="translate(273.13,0)" d="M0,50v75" style="stroke: rgb(235, 240, 248); stroke-opacity: 1; stroke-width: 1px;"/></g><g class="y"><path class="ygrid crisp" transform="translate(0,105.53)" d="M10,0h280" style="stroke: rgb(235, 240, 248); stroke-opacity: 1; stroke-width: 1px;"/><path class="ygrid crisp" transform="translate(0,86.07)" d="M10,0h280" style="stroke: rgb(235, 240, 248); stroke-opacity: 1; stroke-width: 1px;"/><path class="ygrid crisp" transform="translate(0,66.6)" d="M10,0h280" style="stroke: rgb(235, 240, 248); stroke-opacity: 1; stroke-width: 1px;"/></g></g><g class="zerolinelayer"><path class="yzl zl crisp" transform="translate(0,125)" d="M10,0h280" style="stroke: rgb(235, 240, 248); stroke-opacity: 1; stroke-width: 2px;"/></g><path class="xlines-below"/><path class="ylines-below"/><g class="overlines-below"/><g class="xaxislayer-below"/><g class="yaxislayer-below"/><g class="overaxes-below"/><g class="plot" transform="translate(10,50)" clip-path="url(#clip15f688xyplot)"><g class="scatterlayer mlayer"><g class="trace scatter trace46b710" style="stroke-miterlimit: 2; opacity: 1;"><g class="fills"/><g class="errorbars"/><g class="lines"><path class="js-line" d="M0,5.5L40.48,6.28L42.17,7.06L52.29,7.06L53.98,8.81L57.35,15.63L59.04,15.63L65.78,16.79L67.47,17.38L72.53,17.96L74.22,17.96L101.2,19.13L102.89,20.1L106.27,20.1L107.95,22.24L109.64,22.24L111.33,24.19L114.7,27.11L116.39,27.5L145.06,27.5L146.75,24.19L148.43,21.27L150.12,22.24L156.87,20.1L158.55,20.1L226.02,19.13L227.71,16.21L231.08,13.68L232.77,13.09L239.52,13.09L241.2,4.72L280,3.75" style="vector-effect: non-scaling-stroke; fill: none; stroke: rgb(99, 110, 250); stroke-opacity: 1; stroke-width: 5px; opacity: 1;"/></g><g class="points"/><g class="text"/></g><g class="trace scatter trace6190f9" style="stroke-miterlimit: 2; opacity: 1;"><g class="fills"/><g class="errorbars"/><g class="lines"><path class="js-line" d="M0,30.42L101.2,29.84L102.89,27.5L106.27,27.5L107.95,25.94L109.64,25.94L111.33,21.66L114.7,13.68L116.39,11.73L129.88,10.95L131.57,10.17L145.06,10.17L146.75,11.73L150.12,15.63L151.81,15.63L226.02,16.21L227.71,17.38L232.77,17.96L234.46,17.96L237.83,18.55L239.52,17.96L241.2,23.61L242.89,24.58L249.64,24.97L251.33,24.97L256.39,27.5L258.07,28.28L261.45,29.06L263.13,29.06L280,29.06" style="vector-effect: non-scaling-stroke; fill: none; stroke: rgb(239, 85, 59); stroke-opacity: 1; stroke-width: 5px; opacity: 1;"/></g><g class="points"/><g class="text"/></g><g class="trace scatter trace513955" style="stroke-miterlimit: 2; opacity: 1;"><g class="fills"/><g class="errorbars"/><g class="lines"><path class="js-line" d="M0,62.54L53.98,63.13L55.66,64.49L59.04,65.46L60.72,65.46L106.27,65.46L107.95,60.79L114.7,61.96L116.39,62.54L121.45,61.96L123.13,61.96L192.29,60.79L193.98,59.23L197.35,54.56L199.04,54.56L220.96,54.56L222.65,53L226.02,52.22L227.71,51.25L231.08,50.08L232.77,48.52L236.14,47.55L237.83,45.99L241.2,45.6L242.89,45.6L249.64,45.02L251.33,45.02L280,45.02" style="vector-effect: non-scaling-stroke; fill: none; stroke: rgb(0, 204, 150); stroke-opacity: 1; stroke-width: 5px; opacity: 1;"/></g><g class="points"/><g class="text"/></g><g class="trace scatter tracef281df" style="stroke-miterlimit: 2; opacity: 1;"><g class="fills"/><g class="errorbars"/><g class="lines"><path class="js-line" d="M0,68.58L52.29,68.58L53.98,66.05L57.35,64.88L59.04,64.88L65.78,64.1L67.47,63.51L74.22,63.13L75.9,63.13L113.01,63.13L114.7,64.29L119.76,64.88L121.45,64.88L128.19,64.49L129.88,64.29L146.75,63.13L148.43,64.49L151.81,65.46L153.49,65.46L229.4,66.05L231.08,66.43L241.2,66.82L242.89,66.43L247.95,64.88L249.64,64.88L280,64.1" style="vector-effect: non-scaling-stroke; fill: none; stroke: rgb(171, 99, 250); stroke-opacity: 1; stroke-width: 5px; opacity: 1;"/></g><g class="points"/><g class="text"/></g><g class="trace scatter traceb47af3" style="stroke-miterlimit: 2; opacity: 1;"><g class="fills"/><g class="errorbars"/><g class="lines"><path class="js-line" d="M0,61.37L109.64,61.96L111.33,62.35L123.13,62.54L124.82,62.54L131.57,63.13L133.25,63.13L231.08,64.29L232.77,64.49L239.52,65.46L241.2,66.05L280,66.05" style="vector-effect: non-scaling-stroke; fill: none; stroke: rgb(255, 161, 90); stroke-opacity: 1; stroke-width: 5px; opacity: 1;"/></g><g class="points"/><g class="text"/></g></g></g><g class="overplot"/><path class="xlines-above crisp" d="M0,0" style="fill: none;"/><path class="ylines-above crisp" d="M0,0" style="fill: none;"/><g class="overlines-above"/><g class="xaxislayer-above"/><g class="yaxislayer-above"/><g class="overaxes-above"/></g></g><g class="polarlayer"/><g class="smithlayer"/><g class="ternarylayer"/><g class="geolayer"/><g class="funnelarealayer"/><g class="pielayer"/><g class="iciclelayer"/><g class="treemaplayer"/><g class="sunburstlayer"/><g class="glimages"/><defs id="topdefs-15f688"><g class="clips"/></defs><g class="layer-above"><g class="imagelayer"/><g class="shapelayer"/></g><g class="infolayer"><g class="g-gtitle"><text class="gtitle" x="15" y="25" text-anchor="start" dy="0em" style="font-family: Ubuntu, verdana, arial, sans-serif; font-size: 16px; fill: rgb(233, 84, 32); opacity: 1; font-weight: normal; white-space: pre;">Prezident/ka ČR 2023</text></g><g class="g-xtitle"/><g class="g-ytitle"/></g></svg>