<svg class="main-svg" xmlns="http://www.w3.org/2000/svg" xmlns:xlink="http://www.w3.org/1999/xlink" width="300" height="135" style="" viewBox="0 0 300 135"><rect x="0" y="0" width="300" height="135" style="fill: rgb(255, 255, 255); fill-opacity: 1;"/><defs id="defs-efa7d1"><g class="clips"><clipPath id="clipefa7d1xyplot" class="plotclip"><rect width="280" height="75"/></clipPath><clipPath class="axesclip" id="clipefa7d1x"><rect x="10" y="0" width="280" height="135"/></clipPath><clipPath class="axesclip" id="clipefa7d1y"><rect x="0" y="50" width="300" height="75"/></clipPath><clipPath class="axesclip" id="clipefa7d1xy"><rect x="10" y="50" width="280" height="75"/></clipPath></g><g class="gradients"/><g class="patterns"/></defs><g class="bglayer"/><g class="layer-below"><g class="imagelayer"/><g class="shapelayer"/></g><g class="cartesianlayer"><g class="subplot xy"><g class="layer-subplot"><g class="shapelayer"/><g class="imagelayer"/></g><g class="minor-gridlayer"><g class="x"/><g class="y"/></g><g class="gridlayer"><g class="x"><path class="xgrid crisp" transform="translate(51.25,0)" d="M0,50v75" style="stroke: rgb(235, 240, 248); stroke-opacity: 1; stroke-width: 1px;"/><path class="xgrid crisp" transform="translate(127.5,0)" d="M0,50v75" style="stroke: rgb(235, 240, 248); stroke-opacity: 1; stroke-width: 1px;"/><path class="xgrid crisp" transform="translate(205,0)" d="M0,50v75" style="stroke: rgb(235, 240, 248); stroke-opacity: 1; stroke-width: 1px;"/><path class="xgrid crisp" transform="translate(281.25,0)" d="M0,50v75" style="stroke: rgb(235, 240, 248); stroke-opacity: 1; stroke-width: 1px;"/></g><g class="y"><path class="ygrid crisp" transform="translate(0,97.81)" d="M10,0h280" style="stroke: rgb(235, 240, 248); stroke-opacity: 1; stroke-width: 1px;"/><path class="ygrid crisp" transform="translate(0,70.61)" d="M10,0h280" style="stroke: rgb(235, 240, 248); stroke-opacity: 1; stroke-width: 1px;"/></g></g><g class="zerolinelayer"><path class="yzl zl crisp" transform="translate(0,125)" d="M10,0h280" style="stroke: rgb(235, 240, 248); stroke-opacity: 1; stroke-width: 2px;"/></g><path class="xlines-below"/><path class="ylines-below"/><g class="overlines-below"/><g class="xaxislayer-below"/><g class="yaxislayer-below"/><g class="overaxes-below"/><g class="plot" transform="translate(10,50)" clip-path="url(#clipefa7d1xyplot)"><g class="scatterlayer mlayer"><g class="trace scatter tracea88e89" style="stroke-miterlimit: 2; opacity: 1;"><g class="fills"/><g class="errorbars"/><g class="lines"><path class="js-line" d="M0,15.85L30,16.67L31.25,17.35L38.75,17.35L40,18.71L43.75,24.55L45,24.55L52.5,26.59L53.75,26.59L75,27.55L76.25,28.36L78.75,28.36L80,30.13L81.25,30.13L82.5,31.76L85,34.34L86.25,34.62L107.5,34.62L108.75,31.76L110,29.31L111.25,30.13L117.5,28.36L118.75,28.36L167.5,27.55L168.75,25.1L171.25,22.92L172.5,22.38L177.5,22.38L178.75,15.17L235,14.49L236.25,15.85L237.5,16.67L238.75,15.85L241.25,17.35L242.5,17.35L246.25,17.35L247.5,15.17L250,12.86L251.25,12.86L252.5,12.86L253.75,10.41L257.5,3.75L258.75,3.75L260,3.75L270,11.23L272.5,12.86L275,12.86L277.5,11.23L278.75,12.04L280,15.85" style="vector-effect: non-scaling-stroke; fill: none; stroke: rgb(99, 110, 250); stroke-opacity: 1; stroke-width: 5px; opacity: 1;"/></g><g class="points"/><g class="text"/></g><g class="trace scatter traceddc88c" style="stroke-miterlimit: 2; opacity: 1;"><g class="fills"/><g class="errorbars"/><g class="lines"><path class="js-line" d="M0,37.2L75,36.52L76.25,34.62L78.75,34.62L80,33.26L81.25,33.26L82.5,29.72L85,22.92L86.25,21.15L108.75,21.15L110,23.47L112.5,24.55L113.75,24.55L167.5,25.1L168.75,26.05L172.5,26.59L173.75,26.59L177.5,26.59L178.75,31.35L182.5,32.44L183.75,32.44L187.5,33.53L188.75,34.62L191.25,35.3L192.5,35.98L211.25,37.2L212.5,38.29L215,44.68L216.25,44.68L231.25,44.68L232.5,46.45L235,48.08L236.25,47.67L243.75,49.98L245,50.8L246.25,50.8L247.5,52.97L250,54.88L251.25,54.88L253.75,54.88L255,57.05L257.5,58.82L258.75,58.82L260,58.82L270,39.38L272.5,36.52L275,36.52L277.5,39.38L278.75,39.38L280,39.92" style="vector-effect: non-scaling-stroke; fill: none; stroke: rgb(239, 85, 59); stroke-opacity: 1; stroke-width: 5px; opacity: 1;"/></g><g class="points"/><g class="text"/></g><g class="trace scatter traceed9fa2" style="stroke-miterlimit: 2; opacity: 1;"><g class="fills"/><g class="errorbars"/><g class="lines"><path class="js-line" d="M0,64.53L40,64.94L41.25,66.03L43.75,66.98L45,66.98L78.75,66.98L80,62.9L85,63.99L86.25,64.53L90,63.99L91.25,63.99L142.5,62.9L143.75,61.54L146.25,57.73L147.5,57.73L163.75,57.73L165,56.37L167.5,55.56L168.75,54.88L171.25,53.79L172.5,52.56L175,51.75L176.25,50.25L180,49.98L181.25,49.57L193.75,49.44L195,49.44L211.25,50.12L212.5,50.8L216.25,48.08L217.5,48.08L236.25,47.13L237.5,46.17L238.75,46.17L240,47.53L242.5,48.08L243.75,46.45L246.25,44.68L247.5,44L250,43.18L251.25,43.18L253.75,43.59L255,41.41L257.5,38.29L258.75,38.29L260,38.29L270,43.73L272.5,44.68L275,44.68L277.5,45.49L278.75,45.09L280,43.59" style="vector-effect: non-scaling-stroke; fill: none; stroke: rgb(0, 204, 150); stroke-opacity: 1; stroke-width: 5px; opacity: 1;"/></g><g class="points"/><g class="text"/></g><g class="trace scatter trace05c200" style="stroke-miterlimit: 2; opacity: 1;"><g class="fills"/><g class="errorbars"/><g class="lines"><path class="js-line" d="M0,63.44L81.25,63.99L82.5,64.26L88.75,64.53L90,64.53L170,65.62L171.25,65.89L190,67.39L191.25,67.39L235,66.71L236.25,65.35L246.25,66.3L247.5,66.3L253.75,66.3L255,67.93L257.5,69.56L258.75,69.56L280,70.38" style="vector-effect: non-scaling-stroke; fill: none; stroke: rgb(171, 99, 250); stroke-opacity: 1; stroke-width: 5px; opacity: 1;"/></g><g class="points"/><g class="text"/></g><g class="trace scatter trace121ea0" style="stroke-miterlimit: 2; opacity: 1;"><g class="fills"/><g class="errorbars"/><g class="lines"><path class="js-line" d="M0,71.6L143.75,71.06L145,70.51L280,71.6" style="vector-effect: non-scaling-stroke; fill: none; stroke: rgb(255, 161, 90); stroke-opacity: 1; stroke-width: 5px; opacity: 1;"/></g><g class="points"/><g class="text"/></g></g></g><g class="overplot"/><path class="xlines-above crisp" d="M0,0" style="fill: none;"/><path class="ylines-above crisp" d="M0,0" style="fill: none;"/><g class="overlines-above"/><g class="xaxislayer-above"/><g class="yaxislayer-above"/><g class="overaxes-above"/></g></g><g class="polarlayer"/><g class="smithlayer"/><g class="ternarylayer"/><g class="geolayer"/><g class="funnelarealayer"/><g class="pielayer"/><g class="iciclelayer"/><g class="treemaplayer"/><g class="sunburstlayer"/><g class="glimages"/><defs id="topdefs-efa7d1"><g class="clips"/></defs><g class="layer-above"><g class="imagelayer"/><g class="shapelayer"/></g><g class="infolayer"><g class="g-gtitle"><text class="gtitle" x="15" y="25" text-anchor="start" dy="0em" style="font-family: Ubuntu, verdana, arial, sans-serif; font-size: 16px; fill: rgb(233, 84, 32); opacity: 1; font-weight: normal; white-space: pre;">Prezident/ka ČR 2023</text></g><g class="g-xtitle"/><g class="g-ytitle"/></g></svg>