<svg class="main-svg" xmlns="http://www.w3.org/2000/svg" xmlns:xlink="http://www.w3.org/1999/xlink" width="300" height="135" style="" viewBox="0 0 300 135"><rect x="0" y="0" width="300" height="135" style="fill: rgb(255, 255, 255); fill-opacity: 1;"/><defs id="defs-50f442"><g class="clips"><clipPath id="clip50f442xyplot" class="plotclip"><rect width="280" height="75"/></clipPath><clipPath class="axesclip" id="clip50f442x"><rect x="10" y="0" width="280" height="135"/></clipPath><clipPath class="axesclip" id="clip50f442y"><rect x="0" y="50" width="300" height="75"/></clipPath><clipPath class="axesclip" id="clip50f442xy"><rect x="10" y="50" width="280" height="75"/></clipPath></g><g class="gradients"/><g class="patterns"/></defs><g class="bglayer"/><g class="layer-below"><g class="imagelayer"/><g class="shapelayer"/></g><g class="cartesianlayer"><g class="subplot xy"><g class="layer-subplot"><g class="shapelayer"/><g class="imagelayer"/></g><g class="minor-gridlayer"><g class="x"/><g class="y"/></g><g class="gridlayer"><g class="x"><path class="xgrid crisp" transform="translate(55.07,0)" d="M0,50v75" style="stroke: rgb(235, 240, 248); stroke-opacity: 1; stroke-width: 1px;"/><path class="xgrid crisp" transform="translate(138.39,0)" d="M0,50v75" style="stroke: rgb(235, 240, 248); stroke-opacity: 1; stroke-width: 1px;"/><path class="xgrid crisp" transform="translate(223.07,0)" d="M0,50v75" style="stroke: rgb(235, 240, 248); stroke-opacity: 1; stroke-width: 1px;"/></g><g class="y"><path class="ygrid crisp" transform="translate(0,109.47999999999999)" d="M10,0h280" style="stroke: rgb(235, 240, 248); stroke-opacity: 1; stroke-width: 1px;"/><path class="ygrid crisp" transform="translate(0,93.95)" d="M10,0h280" style="stroke: rgb(235, 240, 248); stroke-opacity: 1; stroke-width: 1px;"/><path class="ygrid crisp" transform="translate(0,78.43)" d="M10,0h280" style="stroke: rgb(235, 240, 248); stroke-opacity: 1; stroke-width: 1px;"/><path class="ygrid crisp" transform="translate(0,62.91)" d="M10,0h280" style="stroke: rgb(235, 240, 248); stroke-opacity: 1; stroke-width: 1px;"/></g></g><g class="zerolinelayer"><path class="yzl zl crisp" transform="translate(0,125)" d="M10,0h280" style="stroke: rgb(235, 240, 248); stroke-opacity: 1; stroke-width: 2px;"/></g><path class="xlines-below"/><path class="ylines-below"/><g class="overlines-below"/><g class="xaxislayer-below"/><g class="yaxislayer-below"/><g class="overaxes-below"/><g class="plot" transform="translate(10,50)" clip-path="url(#clip50f442xyplot)"><g class="scatterlayer mlayer"><g class="trace scatter trace93a66f" style="stroke-miterlimit: 2; opacity: 1;"><g class="fills"/><g class="errorbars"/><g class="lines"><path class="js-line" d="M0,14.15L32.78,14.93L34.15,15.7L43.71,16.94L45.07,20.2L47.8,23L49.17,23L56,25.17L57.37,25.17L81.95,26.1L83.32,27.03L86.05,27.03L87.41,28.9L88.78,28.9L90.15,30.45L92.88,33.09L94.24,33.4L117.46,33.4L118.83,30.45L120.2,27.97L121.56,28.9L127.02,27.03L128.39,27.03L183.02,26.1L184.39,23.62L187.12,21.45L188.49,20.83L193.95,20.83L195.32,13.37L256.78,12.6L258.15,14.15L259.51,14.93L260.88,14.15L263.61,15.7L264.98,15.7L269.07,15.7L270.44,13.37L273.17,11.05L274.54,11.05L275.9,11.05L277.27,8.56L280,3.75" style="vector-effect: non-scaling-stroke; fill: none; stroke: rgb(99, 110, 250); stroke-opacity: 1; stroke-width: 5px; opacity: 1;"/></g><g class="points"/><g class="text"/></g><g class="trace scatter trace1d2874" style="stroke-miterlimit: 2; opacity: 1;"><g class="fills"/><g class="errorbars"/><g class="lines"><path class="js-line" d="M0,64.13L43.71,64.6L45.07,65.84L47.8,66.62L49.17,66.62L86.05,66.62L87.41,62.58L92.88,63.67L94.24,64.13L98.34,63.67L99.71,63.67L155.71,62.58L157.07,61.18L159.8,57.15L161.17,57.15L178.93,57.15L180.29,55.75L183.02,54.98L184.39,54.2L187.12,53.11L188.49,51.87L191.22,51.09L192.59,49.54L198.05,48.92L199.41,48.77L233.56,48.77L234.93,47.37L258.15,46.28L259.51,45.35L262.24,46.59L263.61,47.37L264.98,47.37L266.34,45.66L269.07,43.8L270.44,43.02L273.17,42.25L274.54,42.25L277.27,42.56L278.63,40.38L280,37.28" style="vector-effect: non-scaling-stroke; fill: none; stroke: rgb(239, 85, 59); stroke-opacity: 1; stroke-width: 5px; opacity: 1;"/></g><g class="points"/><g class="text"/></g><g class="trace scatter trace79cdb6" style="stroke-miterlimit: 2; opacity: 1;"><g class="fills"/><g class="errorbars"/><g class="lines"><path class="js-line" d="M0,36.04L81.95,35.42L83.32,33.4L86.05,33.4L87.41,32L88.78,32L90.15,28.43L92.88,21.45L94.24,19.58L118.83,19.58L120.2,21.91L122.93,23L124.29,23L183.02,23.62L184.39,24.55L188.49,25.17L189.85,25.17L192.59,25.64L193.95,25.17L196.68,30.92L198.05,31.23L204.88,32.31L206.24,33.4L208.98,34.17L210.34,34.8L230.83,36.04L232.2,37.28L234.93,43.8L236.29,43.8L252.68,43.8L254.05,45.66L256.78,47.37L258.15,46.75L262.24,47.37L263.61,47.37L267.71,50.01L269.07,50.01L271.8,54.2L273.17,54.2L277.27,54.2L278.63,56.53L280,58.39" style="vector-effect: non-scaling-stroke; fill: none; stroke: rgb(0, 204, 150); stroke-opacity: 1; stroke-width: 5px; opacity: 1;"/></g><g class="points"/><g class="text"/></g><g class="trace scatter trace44ef1d" style="stroke-miterlimit: 2; opacity: 1;"><g class="fills"/><g class="errorbars"/><g class="lines"><path class="js-line" d="M0,73.6L258.15,73.6L259.51,71.9L262.24,70.65L263.61,69.26L266.34,67.39L267.71,67.24L280,67.24" style="vector-effect: non-scaling-stroke; fill: none; stroke: rgb(171, 99, 250); stroke-opacity: 1; stroke-width: 5px; opacity: 1;"/></g><g class="points"/><g class="text"/></g><g class="trace scatter trace400346" style="stroke-miterlimit: 2; opacity: 1;"><g class="fills"/><g class="errorbars"/><g class="lines"><path class="js-line" d="M0,69.26L42.34,69.26L43.71,67.24L46.44,66.15L47.8,66.15L54.63,65.07L56,64.6L91.51,64.6L92.88,65.53L96.98,66.15L98.34,66.15L106.54,65.38L107.9,65.38L120.2,65.84L121.56,66.62L187.12,67.39L188.49,67.7L198.05,66.62L199.41,66.15L229.46,65.07L230.83,61.81L232.2,57.15L233.56,57.15L252.68,57.15L254.05,55.75L256.78,54.2L258.15,54.2L264.98,54.2L266.34,57.15L269.07,59.48L270.44,61.5L273.17,63.2L274.54,63.2L275.9,63.2L277.27,65.22L280,68.79" style="vector-effect: non-scaling-stroke; fill: none; stroke: rgb(255, 161, 90); stroke-opacity: 1; stroke-width: 5px; opacity: 1;"/></g><g class="points"/><g class="text"/></g></g></g><g class="overplot"/><path class="xlines-above crisp" d="M0,0" style="fill: none;"/><path class="ylines-above crisp" d="M0,0" style="fill: none;"/><g class="overlines-above"/><g class="xaxislayer-above"/><g class="yaxislayer-above"/><g class="overaxes-above"/></g></g><g class="polarlayer"/><g class="smithlayer"/><g class="ternarylayer"/><g class="geolayer"/><g class="funnelarealayer"/><g class="pielayer"/><g class="iciclelayer"/><g class="treemaplayer"/><g class="sunburstlayer"/><g class="glimages"/><defs id="topdefs-50f442"><g class="clips"/></defs><g class="layer-above"><g class="imagelayer"/><g class="shapelayer"/></g><g class="infolayer"><g class="g-gtitle"><text class="gtitle" x="15" y="25" text-anchor="start" dy="0em" style="font-family: Ubuntu, verdana, arial, sans-serif; font-size: 16px; fill: rgb(233, 84, 32); opacity: 1; font-weight: normal; white-space: pre;">Prezident/ka ČR 2023</text></g><g class="g-xtitle"/><g class="g-ytitle"/></g></svg>