<svg class="main-svg" xmlns="http://www.w3.org/2000/svg" xmlns:xlink="http://www.w3.org/1999/xlink" width="300" height="135" style="" viewBox="0 0 300 135"><rect x="0" y="0" width="300" height="135" style="fill: rgb(255, 255, 255); fill-opacity: 1;"/><defs id="defs-10837b"><g class="clips"><clipPath id="clip10837bxyplot" class="plotclip"><rect width="280" height="75"/></clipPath><clipPath class="axesclip" id="clip10837bx"><rect x="10" y="0" width="280" height="135"/></clipPath><clipPath class="axesclip" id="clip10837by"><rect x="0" y="50" width="300" height="75"/></clipPath><clipPath class="axesclip" id="clip10837bxy"><rect x="10" y="50" width="280" height="75"/></clipPath></g><g class="gradients"/><g class="patterns"/></defs><g class="bglayer"/><g class="layer-below"><g class="imagelayer"/><g class="shapelayer"/></g><g class="cartesianlayer"><g class="subplot xy"><g class="layer-subplot"><g class="shapelayer"/><g class="imagelayer"/></g><g class="minor-gridlayer"><g class="x"/><g class="y"/></g><g class="gridlayer"><g class="x"><path class="xgrid crisp" transform="translate(58.13,0)" d="M0,50v75" style="stroke: rgb(235, 240, 248); stroke-opacity: 1; stroke-width: 1px;"/><path class="xgrid crisp" transform="translate(147.08,0)" d="M0,50v75" style="stroke: rgb(235, 240, 248); stroke-opacity: 1; stroke-width: 1px;"/><path class="xgrid crisp" transform="translate(237.5,0)" d="M0,50v75" style="stroke: rgb(235, 240, 248); stroke-opacity: 1; stroke-width: 1px;"/></g><g class="y"><path class="ygrid crisp" transform="translate(0,106.15)" d="M10,0h280" style="stroke: rgb(235, 240, 248); stroke-opacity: 1; stroke-width: 1px;"/><path class="ygrid crisp" transform="translate(0,87.3)" d="M10,0h280" style="stroke: rgb(235, 240, 248); stroke-opacity: 1; stroke-width: 1px;"/><path class="ygrid crisp" transform="translate(0,68.45)" d="M10,0h280" style="stroke: rgb(235, 240, 248); stroke-opacity: 1; stroke-width: 1px;"/></g></g><g class="zerolinelayer"><path class="yzl zl crisp" transform="translate(0,125)" d="M10,0h280" style="stroke: rgb(235, 240, 248); stroke-opacity: 1; stroke-width: 2px;"/></g><path class="xlines-below"/><path class="ylines-below"/><g class="overlines-below"/><g class="xaxislayer-below"/><g class="yaxislayer-below"/><g class="overaxes-below"/><g class="plot" transform="translate(10,50)" clip-path="url(#clip10837bxyplot)"><g class="scatterlayer mlayer"><g class="trace scatter traceb4c7be" style="stroke-miterlimit: 2; opacity: 1;"><g class="fills"/><g class="errorbars"/><g class="lines"><path class="js-line" d="M0,5.63L35,6.39L36.46,7.14L45.21,7.14L46.67,8.84L49.58,15.63L51.04,15.63L53.96,16.38L55.42,16.94L68.54,18.08L70,18.64L74.38,19.21L75.83,19.21L91.88,20.34L93.33,22.22L94.79,22.22L96.25,24.11L99.17,27.12L100.63,27.5L125.42,27.5L126.88,24.11L128.33,21.28L129.79,22.22L137.08,20.34L138.54,20.34L195.42,19.21L196.88,16.38L199.79,13.74L201.25,13.17L207.08,13.17L208.54,4.69L274.17,3.75L275.63,5.63L277.08,6.39L278.54,5.63L280,7.14" style="vector-effect: non-scaling-stroke; fill: none; stroke: rgb(99, 110, 250); stroke-opacity: 1; stroke-width: 5px; opacity: 1;"/></g><g class="points"/><g class="text"/></g><g class="trace scatter traceec96da" style="stroke-miterlimit: 2; opacity: 1;"><g class="fills"/><g class="errorbars"/><g class="lines"><path class="js-line" d="M0,62.56L46.67,63.13L48.13,64.44L51.04,65.58L52.5,65.58L91.88,65.58L93.33,60.67L97.71,61.43L99.17,61.99L102.08,61.99L103.54,61.99L109.38,61.43L110.83,60.67L166.25,60.67L167.71,59.17L170.63,54.64L172.08,54.64L191.04,54.64L192.5,53.13L195.42,52.19L196.88,51.25L199.79,50.12L201.25,48.61L204.17,47.67L205.63,45.97L210,45.6L211.46,45.22L221.67,45.03L223.13,45.03L246.46,45.78L247.92,46.54L252.29,43.33L253.75,43.33L275.63,42.2L277.08,41.07L278.54,41.07L280,42.58" style="vector-effect: non-scaling-stroke; fill: none; stroke: rgb(239, 85, 59); stroke-opacity: 1; stroke-width: 5px; opacity: 1;"/></g><g class="points"/><g class="text"/></g><g class="trace scatter trace0c2ba2" style="stroke-miterlimit: 2; opacity: 1;"><g class="fills"/><g class="errorbars"/><g class="lines"><path class="js-line" d="M0,30.52L87.5,29.76L88.96,27.5L91.88,27.5L93.33,25.99L94.79,25.99L96.25,21.85L99.17,13.74L100.63,11.67L112.29,11.1L113.75,10.35L125.42,10.35L126.88,11.67L129.79,15.63L131.25,15.63L195.42,16.38L196.88,17.51L201.25,18.08L202.71,18.08L205.63,18.64L207.08,18.08L210,24.67L211.46,25.05L217.29,25.05L218.75,26.37L223.13,28.25L224.58,29.01L245,29.01L246.46,30.52L247.92,31.84L249.38,35.98L250.83,39.38L252.29,39.38L269.79,39.38L271.25,41.45L274.17,43.33L275.63,42.77L280,43.33" style="vector-effect: non-scaling-stroke; fill: none; stroke: rgb(0, 204, 150); stroke-opacity: 1; stroke-width: 5px; opacity: 1;"/></g><g class="points"/><g class="text"/></g><g class="trace scatter tracebc4d19" style="stroke-miterlimit: 2; opacity: 1;"><g class="fills"/><g class="errorbars"/><g class="lines"><path class="js-line" d="M0,68.59L45.21,68.59L46.67,66.14L49.58,64.82L51.04,64.82L58.33,63.69L59.79,63.13L97.71,63.13L99.17,64.26L103.54,64.82L105,64.82L110.83,64.44L112.29,64.26L126.88,63.13L128.33,64.44L131.25,65.58L132.71,65.58L167.71,65.58L169.17,66.14L211.46,65.58L212.92,64.82L245,63.69L246.46,60.11L247.92,54.64L249.38,54.64L269.79,54.64L271.25,53.13L274.17,51.25L275.63,51.25L280,51.25" style="vector-effect: non-scaling-stroke; fill: none; stroke: rgb(171, 99, 250); stroke-opacity: 1; stroke-width: 5px; opacity: 1;"/></g><g class="points"/><g class="text"/></g><g class="trace scatter trace2dff15" style="stroke-miterlimit: 2; opacity: 1;"><g class="fills"/><g class="errorbars"/><g class="lines"><path class="js-line" d="M0,61.43L58.33,61.43L59.79,61.99L166.25,63.13L167.71,63.69L173.54,64.07L175,64.07L205.63,65.2L207.08,65.58L212.92,66.14L214.38,66.14L272.71,66.71L274.17,65.2L275.63,63.69L277.08,64.07L280,64.07" style="vector-effect: non-scaling-stroke; fill: none; stroke: rgb(255, 161, 90); stroke-opacity: 1; stroke-width: 5px; opacity: 1;"/></g><g class="points"/><g class="text"/></g></g></g><g class="overplot"/><path class="xlines-above crisp" d="M0,0" style="fill: none;"/><path class="ylines-above crisp" d="M0,0" style="fill: none;"/><g class="overlines-above"/><g class="xaxislayer-above"/><g class="yaxislayer-above"/><g class="overaxes-above"/></g></g><g class="polarlayer"/><g class="smithlayer"/><g class="ternarylayer"/><g class="geolayer"/><g class="funnelarealayer"/><g class="pielayer"/><g class="iciclelayer"/><g class="treemaplayer"/><g class="sunburstlayer"/><g class="glimages"/><defs id="topdefs-10837b"><g class="clips"/></defs><g class="layer-above"><g class="imagelayer"/><g class="shapelayer"/></g><g class="infolayer"><g class="g-gtitle"><text class="gtitle" x="15" y="25" text-anchor="start" dy="0em" style="font-family: Ubuntu, verdana, arial, sans-serif; font-size: 16px; fill: rgb(233, 84, 32); opacity: 1; font-weight: normal; white-space: pre;">Prezident/ka ČR 2023</text></g><g class="g-xtitle"/><g class="g-ytitle"/></g></svg>