<svg class="main-svg" xmlns="http://www.w3.org/2000/svg" xmlns:xlink="http://www.w3.org/1999/xlink" width="300" height="135" style="" viewBox="0 0 300 135"><rect x="0" y="0" width="300" height="135" style="fill: rgb(255, 255, 255); fill-opacity: 1;"/><defs id="defs-bff8ed"><g class="clips"><clipPath id="clipbff8edxyplot" class="plotclip"><rect width="280" height="75"/></clipPath><clipPath class="axesclip" id="clipbff8edx"><rect x="10" y="0" width="280" height="135"/></clipPath><clipPath class="axesclip" id="clipbff8edy"><rect x="0" y="50" width="300" height="75"/></clipPath><clipPath class="axesclip" id="clipbff8edxy"><rect x="10" y="50" width="280" height="75"/></clipPath></g><g class="gradients"/><g class="patterns"/></defs><g class="bglayer"/><g class="layer-below"><g class="imagelayer"/><g class="shapelayer"/></g><g class="cartesianlayer"><g class="subplot xy"><g class="layer-subplot"><g class="shapelayer"/><g class="imagelayer"/></g><g class="minor-gridlayer"><g class="x"/><g class="y"/></g><g class="gridlayer"><g class="x"><path class="xgrid crisp" transform="translate(67.39,0)" d="M0,50v75" style="stroke: rgb(235, 240, 248); stroke-opacity: 1; stroke-width: 1px;"/><path class="xgrid crisp" transform="translate(173.48,0)" d="M0,50v75" style="stroke: rgb(235, 240, 248); stroke-opacity: 1; stroke-width: 1px;"/><path class="xgrid crisp" transform="translate(281.3,0)" d="M0,50v75" style="stroke: rgb(235, 240, 248); stroke-opacity: 1; stroke-width: 1px;"/></g><g class="y"><path class="ygrid crisp" transform="translate(0,106.3)" d="M10,0h280" style="stroke: rgb(235, 240, 248); stroke-opacity: 1; stroke-width: 1px;"/><path class="ygrid crisp" transform="translate(0,87.6)" d="M10,0h280" style="stroke: rgb(235, 240, 248); stroke-opacity: 1; stroke-width: 1px;"/><path class="ygrid crisp" transform="translate(0,68.9)" d="M10,0h280" style="stroke: rgb(235, 240, 248); stroke-opacity: 1; stroke-width: 1px;"/></g></g><g class="zerolinelayer"><path class="yzl zl crisp" transform="translate(0,125)" d="M10,0h280" style="stroke: rgb(235, 240, 248); stroke-opacity: 1; stroke-width: 2px;"/></g><path class="xlines-below"/><path class="ylines-below"/><g class="overlines-below"/><g class="xaxislayer-below"/><g class="yaxislayer-below"/><g class="overaxes-below"/><g class="plot" transform="translate(10,50)" clip-path="url(#clipbff8edxyplot)"><g class="scatterlayer mlayer"><g class="trace scatter trace0c9c5a" style="stroke-miterlimit: 2; opacity: 1;"><g class="fills"/><g class="errorbars"/><g class="lines"><path class="js-line" d="M0,5.43L41.74,6.37L43.48,7.12L53.91,7.12L55.65,8.61L59.13,15.53L60.87,15.53L64.35,16.28L66.09,16.84L81.74,17.96L83.48,18.52L88.7,19.08L90.43,19.08L109.57,20.21L111.3,22.26L113.04,22.26L114.78,24.13L118.26,27.13L120,27.5L149.57,27.5L151.3,24.13L153.04,21.14L154.78,22.26L161.74,20.21L163.48,20.21L233.04,19.08L234.78,16.28L238.26,13.66L240,13.1L246.96,13.1L248.7,4.69L280,3.75" style="vector-effect: non-scaling-stroke; fill: none; stroke: rgb(99, 110, 250); stroke-opacity: 1; stroke-width: 5px; opacity: 1;"/></g><g class="points"/><g class="text"/></g><g class="trace scatter tracee58a28" style="stroke-miterlimit: 2; opacity: 1;"><g class="fills"/><g class="errorbars"/><g class="lines"><path class="js-line" d="M0,30.49L104.35,29.74L106.09,27.5L109.57,27.5L111.3,25.82L113.04,25.82L114.78,21.7L118.26,13.66L120,11.6L133.91,10.86L135.65,10.3L149.57,10.3L151.3,11.6L154.78,15.53L156.52,15.53L233.04,16.28L234.78,17.4L240,17.96L241.74,17.96L245.22,18.52L246.96,17.96L248.7,23.57L250.43,24.51L255.65,25.07L257.39,25.07L260.87,26.19L262.61,27.5L266.09,28.25L267.83,29L280,29" style="vector-effect: non-scaling-stroke; fill: none; stroke: rgb(239, 85, 59); stroke-opacity: 1; stroke-width: 5px; opacity: 1;"/></g><g class="points"/><g class="text"/></g><g class="trace scatter trace6c4487" style="stroke-miterlimit: 2; opacity: 1;"><g class="fills"/><g class="errorbars"/><g class="lines"><path class="js-line" d="M0,62.66L55.65,63.03L57.39,64.53L60.87,65.46L62.61,65.46L109.57,65.46L111.3,60.79L116.52,61.35L118.26,62.1L121.74,62.1L123.48,62.1L130.43,61.35L132.17,60.79L198.26,60.79L200,59.1L203.48,54.62L205.22,54.62L227.83,54.62L229.57,53.12L233.04,52.19L234.78,51.25L236.52,51.25L238.26,49.94L245.22,45.83L246.96,45.27L250.43,45.64L252.17,45.08L280,45.08" style="vector-effect: non-scaling-stroke; fill: none; stroke: rgb(0, 204, 150); stroke-opacity: 1; stroke-width: 5px; opacity: 1;"/></g><g class="points"/><g class="text"/></g><g class="trace scatter trace64b020" style="stroke-miterlimit: 2; opacity: 1;"><g class="fills"/><g class="errorbars"/><g class="lines"><path class="js-line" d="M0,68.45L53.91,68.45L55.65,66.02L59.13,64.9L60.87,64.9L67.83,63.97L69.57,63.59L74.78,63.03L76.52,63.03L116.52,63.03L118.26,64.15L121.74,64.9L123.48,64.9L144.35,63.97L146.09,63.59L151.3,63.03L153.04,64.53L156.52,65.46L158.26,65.46L236.52,66.02L238.26,66.4L248.7,66.77L250.43,66.4L255.65,64.9L257.39,64.9L280,64.53" style="vector-effect: non-scaling-stroke; fill: none; stroke: rgb(171, 99, 250); stroke-opacity: 1; stroke-width: 5px; opacity: 1;"/></g><g class="points"/><g class="text"/></g><g class="trace scatter trace405d2e" style="stroke-miterlimit: 2; opacity: 1;"><g class="fills"/><g class="errorbars"/><g class="lines"><path class="js-line" d="M0,61.35L69.57,61.35L71.3,62.1L198.26,63.03L200,63.59L206.96,63.97L208.7,63.97L245.22,65.09L246.96,65.46L252.17,66.02L253.91,66.02L280,66.02" style="vector-effect: non-scaling-stroke; fill: none; stroke: rgb(255, 161, 90); stroke-opacity: 1; stroke-width: 5px; opacity: 1;"/></g><g class="points"/><g class="text"/></g></g></g><g class="overplot"/><path class="xlines-above crisp" d="M0,0" style="fill: none;"/><path class="ylines-above crisp" d="M0,0" style="fill: none;"/><g class="overlines-above"/><g class="xaxislayer-above"/><g class="yaxislayer-above"/><g class="overaxes-above"/></g></g><g class="polarlayer"/><g class="smithlayer"/><g class="ternarylayer"/><g class="geolayer"/><g class="funnelarealayer"/><g class="pielayer"/><g class="iciclelayer"/><g class="treemaplayer"/><g class="sunburstlayer"/><g class="glimages"/><defs id="topdefs-bff8ed"><g class="clips"/></defs><g class="layer-above"><g class="imagelayer"/><g class="shapelayer"/></g><g class="infolayer"><g class="g-gtitle"><text class="gtitle" x="15" y="25" text-anchor="start" dy="0em" style="font-family: Ubuntu, verdana, arial, sans-serif; font-size: 16px; fill: rgb(233, 84, 32); opacity: 1; font-weight: normal; white-space: pre;">Prezident/ka ČR 2023</text></g><g class="g-xtitle"/><g class="g-ytitle"/></g></svg>