<svg class="main-svg" xmlns="http://www.w3.org/2000/svg" xmlns:xlink="http://www.w3.org/1999/xlink" width="300" height="135" style="" viewBox="0 0 300 135"><rect x="0" y="0" width="300" height="135" style="fill: rgb(255, 255, 255); fill-opacity: 1;"/><defs id="defs-6b5f0e"><g class="clips"><clipPath id="clip6b5f0exyplot" class="plotclip"><rect width="280" height="75"/></clipPath><clipPath class="axesclip" id="clip6b5f0ex"><rect x="10" y="0" width="280" height="135"/></clipPath><clipPath class="axesclip" id="clip6b5f0ey"><rect x="0" y="50" width="300" height="75"/></clipPath><clipPath class="axesclip" id="clip6b5f0exy"><rect x="10" y="50" width="280" height="75"/></clipPath></g><g class="gradients"/><g class="patterns"/></defs><g class="bglayer"/><g class="layer-below"><g class="imagelayer"/><g class="shapelayer"/></g><g class="cartesianlayer"><g class="subplot xy"><g class="layer-subplot"><g class="shapelayer"/><g class="imagelayer"/></g><g class="minor-gridlayer"><g class="x"/><g class="y"/></g><g class="gridlayer"><g class="x"><path class="xgrid crisp" transform="translate(54.85,0)" d="M0,50v75" style="stroke: rgb(235, 240, 248); stroke-opacity: 1; stroke-width: 1px;"/><path class="xgrid crisp" transform="translate(137.76999999999998,0)" d="M0,50v75" style="stroke: rgb(235, 240, 248); stroke-opacity: 1; stroke-width: 1px;"/><path class="xgrid crisp" transform="translate(222.04,0)" d="M0,50v75" style="stroke: rgb(235, 240, 248); stroke-opacity: 1; stroke-width: 1px;"/></g><g class="y"><path class="ygrid crisp" transform="translate(0,109.81)" d="M10,0h280" style="stroke: rgb(235, 240, 248); stroke-opacity: 1; stroke-width: 1px;"/><path class="ygrid crisp" transform="translate(0,94.62)" d="M10,0h280" style="stroke: rgb(235, 240, 248); stroke-opacity: 1; stroke-width: 1px;"/><path class="ygrid crisp" transform="translate(0,79.42)" d="M10,0h280" style="stroke: rgb(235, 240, 248); stroke-opacity: 1; stroke-width: 1px;"/><path class="ygrid crisp" transform="translate(0,64.23)" d="M10,0h280" style="stroke: rgb(235, 240, 248); stroke-opacity: 1; stroke-width: 1px;"/></g></g><g class="zerolinelayer"><path class="yzl zl crisp" transform="translate(0,125)" d="M10,0h280" style="stroke: rgb(235, 240, 248); stroke-opacity: 1; stroke-width: 2px;"/></g><path class="xlines-below"/><path class="ylines-below"/><g class="overlines-below"/><g class="xaxislayer-below"/><g class="yaxislayer-below"/><g class="overaxes-below"/><g class="plot" transform="translate(10,50)" clip-path="url(#clip6b5f0exyplot)"><g class="scatterlayer mlayer"><g class="trace scatter trace9ac441" style="stroke-miterlimit: 2; opacity: 1;"><g class="fills"/><g class="errorbars"/><g class="lines"><path class="js-line" d="M0,15.9L32.62,16.66L33.98,17.27L42.14,17.27L43.5,18.64L46.21,24.56L47.57,24.56L53.01,25.63L54.37,26.08L58.45,26.54L59.81,26.54L81.55,27.45L82.91,28.36L85.63,28.36L86.99,30.18L88.35,30.18L89.71,31.7L92.43,34.29L93.79,34.59L116.89,34.59L118.25,31.7L119.61,29.27L120.97,30.18L126.41,28.36L127.77,28.36L182.14,27.45L183.5,25.02L187.57,22.28L188.93,22.28L193.01,22.28L194.37,15.14L255.53,14.38L256.89,15.9L258.25,16.66L259.61,15.9L262.33,17.27L263.69,17.27L267.77,17.27L269.13,15.14L271.84,12.87L273.2,12.87L274.56,12.87L275.92,10.43L280,3.75" style="vector-effect: non-scaling-stroke; fill: none; stroke: rgb(99, 110, 250); stroke-opacity: 1; stroke-width: 5px; opacity: 1;"/></g><g class="points"/><g class="text"/></g><g class="trace scatter trace165208" style="stroke-miterlimit: 2; opacity: 1;"><g class="fills"/><g class="errorbars"/><g class="lines"><path class="js-line" d="M0,64.52L43.5,64.97L44.85,66.04L47.57,66.95L48.93,66.95L85.63,66.95L86.99,62.85L92.43,64.06L93.79,64.52L97.86,64.06L99.22,64.06L154.95,62.85L156.31,61.48L159.03,57.68L160.39,57.68L178.06,57.68L179.42,56.31L182.14,55.55L183.5,54.79L186.21,53.73L187.57,52.52L190.29,51.76L191.65,50.24L197.09,49.63L198.45,49.48L229.71,50.24L231.07,50.84L235.15,48.11L236.5,48.11L256.89,47.2L258.25,46.14L259.61,46.14L260.97,47.5L263.69,48.11L265.05,46.44L267.77,44.77L269.13,44.01L271.84,43.1L273.2,43.1L275.92,43.55L277.28,41.43L278.64,38.24L280,38.24" style="vector-effect: non-scaling-stroke; fill: none; stroke: rgb(239, 85, 59); stroke-opacity: 1; stroke-width: 5px; opacity: 1;"/></g><g class="points"/><g class="text"/></g><g class="trace scatter trace135841" style="stroke-miterlimit: 2; opacity: 1;"><g class="fills"/><g class="errorbars"/><g class="lines"><path class="js-line" d="M0,37.17L81.55,36.56L82.91,34.59L85.63,34.59L86.99,33.22L88.35,33.22L89.71,29.73L92.43,22.89L93.79,21.22L118.25,21.22L119.61,23.5L122.33,24.56L123.69,24.56L182.14,25.02L183.5,26.08L187.57,26.54L188.93,26.54L191.65,26.99L193.01,26.54L195.73,32.16L197.09,32.46L203.88,33.68L205.24,34.59L207.96,35.35L209.32,35.96L229.71,37.17L231.07,38.24L233.79,44.77L235.15,44.77L251.46,44.77L252.82,46.44L255.53,48.11L256.89,47.65L260.97,48.11L262.33,48.11L269.13,52.97L270.49,54.79L275.92,54.79L277.28,57.07L280,58.9" style="vector-effect: non-scaling-stroke; fill: none; stroke: rgb(0, 204, 150); stroke-opacity: 1; stroke-width: 5px; opacity: 1;"/></g><g class="points"/><g class="text"/></g><g class="trace scatter traceac43b4" style="stroke-miterlimit: 2; opacity: 1;"><g class="fills"/><g class="errorbars"/><g class="lines"><path class="js-line" d="M0,73.63L256.89,73.63L258.25,71.96L260.97,70.9L262.33,69.53L265.05,67.71L266.41,67.4L278.64,67.4L280,67.86" style="vector-effect: non-scaling-stroke; fill: none; stroke: rgb(171, 99, 250); stroke-opacity: 1; stroke-width: 5px; opacity: 1;"/></g><g class="points"/><g class="text"/></g><g class="trace scatter traceba8d2b" style="stroke-miterlimit: 2; opacity: 1;"><g class="fills"/><g class="errorbars"/><g class="lines"><path class="js-line" d="M0,69.53L42.14,69.53L43.5,67.4L46.21,66.34L47.57,66.34L54.37,65.28L55.73,64.97L91.07,64.97L92.43,65.88L96.5,66.34L97.86,66.34L106.02,65.73L107.38,65.73L119.61,66.04L120.97,66.95L184.85,67.4L186.21,67.71L195.73,67.71L197.09,66.95L201.17,66.34L202.52,66.34L228.35,65.28L229.71,62.24L231.07,57.68L232.43,57.68L251.46,57.68L252.82,56.31L255.53,54.79L256.89,54.79L263.69,54.79L265.05,57.68L269.13,61.93L270.49,63.45L274.56,63.45L275.92,65.43L278.64,68.92L280,68.92" style="vector-effect: non-scaling-stroke; fill: none; stroke: rgb(255, 161, 90); stroke-opacity: 1; stroke-width: 5px; opacity: 1;"/></g><g class="points"/><g class="text"/></g></g></g><g class="overplot"/><path class="xlines-above crisp" d="M0,0" style="fill: none;"/><path class="ylines-above crisp" d="M0,0" style="fill: none;"/><g class="overlines-above"/><g class="xaxislayer-above"/><g class="yaxislayer-above"/><g class="overaxes-above"/></g></g><g class="polarlayer"/><g class="smithlayer"/><g class="ternarylayer"/><g class="geolayer"/><g class="funnelarealayer"/><g class="pielayer"/><g class="iciclelayer"/><g class="treemaplayer"/><g class="sunburstlayer"/><g class="glimages"/><defs id="topdefs-6b5f0e"><g class="clips"/></defs><g class="layer-above"><g class="imagelayer"/><g class="shapelayer"/></g><g class="infolayer"><g class="g-gtitle"><text class="gtitle" x="15" y="25" text-anchor="start" dy="0em" style="font-family: Ubuntu, verdana, arial, sans-serif; font-size: 16px; fill: rgb(233, 84, 32); opacity: 1; font-weight: normal; white-space: pre;">Prezident/ka ČR 2023</text></g><g class="g-xtitle"/><g class="g-ytitle"/></g></svg>