<svg class="main-svg" xmlns="http://www.w3.org/2000/svg" xmlns:xlink="http://www.w3.org/1999/xlink" width="300" height="135" style="" viewBox="0 0 300 135"><rect x="0" y="0" width="300" height="135" style="fill: rgb(255, 255, 255); fill-opacity: 1;"/><defs id="defs-5e9507"><g class="clips"><clipPath id="clip5e9507xyplot" class="plotclip"><rect width="280" height="75"/></clipPath><clipPath class="axesclip" id="clip5e9507x"><rect x="10" y="0" width="280" height="135"/></clipPath><clipPath class="axesclip" id="clip5e9507y"><rect x="0" y="50" width="300" height="75"/></clipPath><clipPath class="axesclip" id="clip5e9507xy"><rect x="10" y="50" width="280" height="75"/></clipPath></g><g class="gradients"/><g class="patterns"/></defs><g class="bglayer"/><g class="layer-below"><g class="imagelayer"/><g class="shapelayer"/></g><g class="cartesianlayer"><g class="subplot xy"><g class="layer-subplot"><g class="shapelayer"/><g class="imagelayer"/></g><g class="minor-gridlayer"><g class="x"/><g class="y"/></g><g class="gridlayer"><g class="x"><path class="xgrid crisp" transform="translate(51.25,0)" d="M0,50v75" style="stroke: rgb(235, 240, 248); stroke-opacity: 1; stroke-width: 1px;"/><path class="xgrid crisp" transform="translate(127.5,0)" d="M0,50v75" style="stroke: rgb(235, 240, 248); stroke-opacity: 1; stroke-width: 1px;"/><path class="xgrid crisp" transform="translate(205,0)" d="M0,50v75" style="stroke: rgb(235, 240, 248); stroke-opacity: 1; stroke-width: 1px;"/><path class="xgrid crisp" transform="translate(281.25,0)" d="M0,50v75" style="stroke: rgb(235, 240, 248); stroke-opacity: 1; stroke-width: 1px;"/></g><g class="y"><path class="ygrid crisp" transform="translate(0,97.49000000000001)" d="M10,0h280" style="stroke: rgb(235, 240, 248); stroke-opacity: 1; stroke-width: 1px;"/><path class="ygrid crisp" transform="translate(0,69.98)" d="M10,0h280" style="stroke: rgb(235, 240, 248); stroke-opacity: 1; stroke-width: 1px;"/></g></g><g class="zerolinelayer"><path class="yzl zl crisp" transform="translate(0,125)" d="M10,0h280" style="stroke: rgb(235, 240, 248); stroke-opacity: 1; stroke-width: 2px;"/></g><path class="xlines-below"/><path class="ylines-below"/><g class="overlines-below"/><g class="xaxislayer-below"/><g class="yaxislayer-below"/><g class="overaxes-below"/><g class="plot" transform="translate(10,50)" clip-path="url(#clip5e9507xyplot)"><g class="scatterlayer mlayer"><g class="trace scatter trace292512" style="stroke-miterlimit: 2; opacity: 1;"><g class="fills"/><g class="errorbars"/><g class="lines"><path class="js-line" d="M0,15.85L30,16.68L31.25,17.37L40,18.61L41.25,21.77L43.75,24.52L45,24.52L52.5,26.58L53.75,26.58L75,27.55L76.25,28.37L78.75,28.37L80,30.16L81.25,30.16L82.5,31.81L85,34.29L86.25,34.7L107.5,34.7L108.75,31.81L110,29.33L111.25,30.16L117.5,28.37L118.75,28.37L167.5,27.55L168.75,25.07L171.25,22.87L172.5,22.32L177.5,22.32L178.75,15.17L235,14.48L236.25,15.85L237.5,16.68L238.75,15.85L241.25,17.37L242.5,17.37L246.25,17.37L247.5,15.17L250,12.83L251.25,12.83L252.5,12.83L253.75,10.35L257.5,3.75L258.75,3.75L260,3.75L270,11.32L272.5,12.83L275,12.83L277.5,11.32L278.75,12.14L280,14.48" style="vector-effect: non-scaling-stroke; fill: none; stroke: rgb(99, 110, 250); stroke-opacity: 1; stroke-width: 5px; opacity: 1;"/></g><g class="points"/><g class="text"/></g><g class="trace scatter tracef2835f" style="stroke-miterlimit: 2; opacity: 1;"><g class="fills"/><g class="errorbars"/><g class="lines"><path class="js-line" d="M0,37.17L75,36.49L76.25,34.7L78.75,34.7L80,33.19L81.25,33.19L82.5,29.75L85,22.87L86.25,21.22L108.75,21.22L110,23.42L112.5,24.52L113.75,24.52L167.5,25.07L168.75,26.03L172.5,26.58L173.75,26.58L177.5,26.58L178.75,31.4L182.5,32.5L183.75,32.5L187.5,33.6L188.75,34.7L210,35.94L211.25,37.17L212.5,38.27L213.75,41.85L216.25,44.74L217.5,44.74L231.25,44.74L232.5,46.53L235,48.04L236.25,47.63L243.75,49.97L245,50.79L246.25,50.79L247.5,52.99L250,54.78L251.25,54.78L253.75,54.78L255,57.12L257.5,58.91L258.75,58.91L260,58.91L270,39.38L272.5,36.49L275,36.49L277.5,39.38L278.75,39.38L280,39.38" style="vector-effect: non-scaling-stroke; fill: none; stroke: rgb(239, 85, 59); stroke-opacity: 1; stroke-width: 5px; opacity: 1;"/></g><g class="points"/><g class="text"/></g><g class="trace scatter trace7d754e" style="stroke-miterlimit: 2; opacity: 1;"><g class="fills"/><g class="errorbars"/><g class="lines"><path class="js-line" d="M0,64.41L40,64.96L41.25,66.06L43.75,66.88L45,66.88L78.75,66.88L80,62.9L85,64L86.25,64.41L91.25,64L92.5,64L97.5,62.9L98.75,62.9L142.5,62.9L143.75,61.52L146.25,57.67L147.5,57.67L166.25,56.43L167.5,55.61L177.5,49.83L178.75,49.97L213.75,49.55L215,48.04L236.25,47.22L237.5,46.11L238.75,46.11L240,47.49L242.5,48.04L243.75,46.53L246.25,44.74L247.5,43.91L250,43.09L251.25,43.09L253.75,43.5L255,41.3L257.5,38.27L258.75,38.27L260,38.27L270,43.64L272.5,44.74L275,44.74L277.5,45.43L278.75,45.15L280,43.91" style="vector-effect: non-scaling-stroke; fill: none; stroke: rgb(0, 204, 150); stroke-opacity: 1; stroke-width: 5px; opacity: 1;"/></g><g class="points"/><g class="text"/></g><g class="trace scatter trace9c7668" style="stroke-miterlimit: 2; opacity: 1;"><g class="fills"/><g class="errorbars"/><g class="lines"><path class="js-line" d="M0,63.45L81.25,64L82.5,64.27L98.75,64.96L100,64.96L175,66.2L176.25,66.61L185,67.43L186.25,67.43L235,66.61L236.25,65.37L246.25,66.33L247.5,66.33L253.75,66.33L255,67.85L257.5,69.5L258.75,69.5L280,70.32" style="vector-effect: non-scaling-stroke; fill: none; stroke: rgb(171, 99, 250); stroke-opacity: 1; stroke-width: 5px; opacity: 1;"/></g><g class="points"/><g class="text"/></g><g class="trace scatter trace4aa818" style="stroke-miterlimit: 2; opacity: 1;"><g class="fills"/><g class="errorbars"/><g class="lines"><path class="js-line" d="M0,71.7L143.75,71.15L145,70.46L280,71.56" style="vector-effect: non-scaling-stroke; fill: none; stroke: rgb(255, 161, 90); stroke-opacity: 1; stroke-width: 5px; opacity: 1;"/></g><g class="points"/><g class="text"/></g></g></g><g class="overplot"/><path class="xlines-above crisp" d="M0,0" style="fill: none;"/><path class="ylines-above crisp" d="M0,0" style="fill: none;"/><g class="overlines-above"/><g class="xaxislayer-above"/><g class="yaxislayer-above"/><g class="overaxes-above"/></g></g><g class="polarlayer"/><g class="smithlayer"/><g class="ternarylayer"/><g class="geolayer"/><g class="funnelarealayer"/><g class="pielayer"/><g class="iciclelayer"/><g class="treemaplayer"/><g class="sunburstlayer"/><g class="glimages"/><defs id="topdefs-5e9507"><g class="clips"/></defs><g class="layer-above"><g class="imagelayer"/><g class="shapelayer"/></g><g class="infolayer"><g class="g-gtitle"><text class="gtitle" x="15" y="25" text-anchor="start" dy="0em" style="font-family: Ubuntu, verdana, arial, sans-serif; font-size: 16px; fill: rgb(233, 84, 32); opacity: 1; font-weight: normal; white-space: pre;">Prezident/ka ČR 2023</text></g><g class="g-xtitle"/><g class="g-ytitle"/></g></svg>