<svg class="main-svg" xmlns="http://www.w3.org/2000/svg" xmlns:xlink="http://www.w3.org/1999/xlink" width="300" height="135" style="" viewBox="0 0 300 135"><rect x="0" y="0" width="300" height="135" style="fill: rgb(255, 255, 255); fill-opacity: 1;"/><defs id="defs-a029a1"><g class="clips"><clipPath id="clipa029a1xyplot" class="plotclip"><rect width="280" height="75"/></clipPath><clipPath class="axesclip" id="clipa029a1x"><rect x="10" y="0" width="280" height="135"/></clipPath><clipPath class="axesclip" id="clipa029a1y"><rect x="0" y="50" width="300" height="75"/></clipPath><clipPath class="axesclip" id="clipa029a1xy"><rect x="10" y="50" width="280" height="75"/></clipPath></g><g class="gradients"/><g class="patterns"/></defs><g class="bglayer"/><g class="layer-below"><g class="imagelayer"/><g class="shapelayer"/></g><g class="cartesianlayer"><g class="subplot xy"><g class="layer-subplot"><g class="shapelayer"/><g class="imagelayer"/></g><g class="minor-gridlayer"><g class="x"/><g class="y"/></g><g class="gridlayer"><g class="x"><path class="xgrid crisp" transform="translate(41.22,0)" d="M0,50v75" style="stroke: rgb(235, 240, 248); stroke-opacity: 1; stroke-width: 1px;"/><path class="xgrid crisp" transform="translate(98.92,0)" d="M0,50v75" style="stroke: rgb(235, 240, 248); stroke-opacity: 1; stroke-width: 1px;"/><path class="xgrid crisp" transform="translate(157.57,0)" d="M0,50v75" style="stroke: rgb(235, 240, 248); stroke-opacity: 1; stroke-width: 1px;"/><path class="xgrid crisp" transform="translate(215.27,0)" d="M0,50v75" style="stroke: rgb(235, 240, 248); stroke-opacity: 1; stroke-width: 1px;"/><path class="xgrid crisp" transform="translate(272.97,0)" d="M0,50v75" style="stroke: rgb(235, 240, 248); stroke-opacity: 1; stroke-width: 1px;"/></g><g class="y"><path class="ygrid crisp" transform="translate(0,107.75)" d="M10,0h280" style="stroke: rgb(235, 240, 248); stroke-opacity: 1; stroke-width: 1px;"/><path class="ygrid crisp" transform="translate(0,90.5)" d="M10,0h280" style="stroke: rgb(235, 240, 248); stroke-opacity: 1; stroke-width: 1px;"/><path class="ygrid crisp" transform="translate(0,73.24)" d="M10,0h280" style="stroke: rgb(235, 240, 248); stroke-opacity: 1; stroke-width: 1px;"/><path class="ygrid crisp" transform="translate(0,55.99)" d="M10,0h280" style="stroke: rgb(235, 240, 248); stroke-opacity: 1; stroke-width: 1px;"/></g></g><g class="zerolinelayer"><path class="yzl zl crisp" transform="translate(0,125)" d="M10,0h280" style="stroke: rgb(235, 240, 248); stroke-opacity: 1; stroke-width: 2px;"/></g><path class="xlines-below"/><path class="ylines-below"/><g class="overlines-below"/><g class="xaxislayer-below"/><g class="yaxislayer-below"/><g class="overaxes-below"/><g class="plot" transform="translate(10,50)" clip-path="url(#clipa029a1xyplot)"><g class="scatterlayer mlayer"><g class="trace scatter tracebab006" style="stroke-miterlimit: 2; opacity: 1;"><g class="fills"/><g class="errorbars"/><g class="lines"><path class="js-line" d="M0,35.75L29.32,36.7L30.27,37.56L33.11,41.53L34.05,41.53L40.68,42.83L41.62,42.83L59.59,44.03L60.54,45.24L62.43,46.28L63.38,47.48L67.16,48.17L68.11,48.17L81.35,48.17L82.3,46.28L83.24,44.64L84.19,45.24L85.14,44.9L87.03,44.03L87.97,44.03L126.76,43.43L127.7,41.88L130.54,40.07L131.49,40.07L134.32,40.07L135.27,35.32L178.78,35.75L179.73,36.27L180.68,35.75L181.62,36.7L186.35,36.7L187.3,35.32L189.19,33.77L190.14,33.77L191.08,33.77L192.03,32.13L194.86,27.73L195.81,27.73L196.76,27.73L204.32,32.65L208.11,33.77L209.05,32.65L210.95,33.25L211.89,35.75L212.84,38.43L213.78,36.7L227.03,36.27L227.97,35.32L229.86,34.8L230.81,39.29L234.59,39.29L237.43,42.83L240.27,43.43L241.22,46.02L243.11,48.17L244.05,48.17L248.78,48.17L249.73,48.6L254.46,41.53L255.41,41.53L261.08,41.53L262.03,40.07L263.92,38.86L264.86,37.56L266.76,37.56L267.7,31.53L270.54,28.08L271.49,24.71L272.43,24.11L273.38,18.76L274.32,17.98L276.22,3.75L279.05,5.65L280,5.65" style="vector-effect: non-scaling-stroke; fill: none; stroke: rgb(99, 110, 250); stroke-opacity: 1; stroke-width: 5px; opacity: 1;"/></g><g class="points"/><g class="text"/></g><g class="trace scatter trace52f785" style="stroke-miterlimit: 2; opacity: 1;"><g class="fills"/><g class="errorbars"/><g class="lines"><path class="js-line" d="M0,49.9L56.76,49.47L57.7,48.17L61.49,47.31L62.43,44.9L65.27,39.29L66.22,39.29L82.3,39.29L83.24,40.76L86.08,41.53L87.03,41.53L127.7,42.48L128.65,42.83L134.32,42.83L135.27,46.02L139.05,46.79L140,46.79L141.89,47.48L142.84,48.17L158.92,49.04L159.86,49.9L160.81,50.59L161.76,53L163.65,54.9L164.59,54.9L175.95,56.11L176.89,57.14L183.51,57.92L184.46,58.44L187.3,60.34L188.24,61.63L192.03,61.63L192.97,63.1L194.86,64.3L195.81,64.3L196.76,64.3L204.32,51.37L206.22,49.47L208.11,49.47L210,51.37L210.95,51.37L215.68,52.06L216.62,52.06L229.86,52.06L230.81,49.04L240.27,48.6L241.22,50.85L243.11,53.26L244.05,53.26L252.57,54.38L253.51,54.9L266.76,55.42L267.7,57.14L269.59,57.14L270.54,51.11L272.43,50.59L273.38,52.23L274.32,52.49L276.22,61.54L279.05,57.92L280,58.09" style="vector-effect: non-scaling-stroke; fill: none; stroke: rgb(239, 85, 59); stroke-opacity: 1; stroke-width: 5px; opacity: 1;"/></g><g class="points"/><g class="text"/></g></g></g><g class="overplot"/><path class="xlines-above crisp" d="M0,0" style="fill: none;"/><path class="ylines-above crisp" d="M0,0" style="fill: none;"/><g class="overlines-above"/><g class="xaxislayer-above"/><g class="yaxislayer-above"/><g class="overaxes-above"/></g></g><g class="polarlayer"/><g class="smithlayer"/><g class="ternarylayer"/><g class="geolayer"/><g class="funnelarealayer"/><g class="pielayer"/><g class="iciclelayer"/><g class="treemaplayer"/><g class="sunburstlayer"/><g class="glimages"/><defs id="topdefs-a029a1"><g class="clips"/></defs><g class="layer-above"><g class="imagelayer"/><g class="shapelayer"/></g><g class="infolayer"><g class="g-gtitle"><text class="gtitle" x="15" y="25" text-anchor="start" dy="0em" style="font-family: Ubuntu, verdana, arial, sans-serif; font-size: 16px; fill: rgb(233, 84, 32); opacity: 1; font-weight: normal; white-space: pre;">Prezident/ka ČR 2023</text></g><g class="g-xtitle"/><g class="g-ytitle"/></g></svg>