<svg class="main-svg" xmlns="http://www.w3.org/2000/svg" xmlns:xlink="http://www.w3.org/1999/xlink" width="300" height="135" style="" viewBox="0 0 300 135"><rect x="0" y="0" width="300" height="135" style="fill: rgb(255, 255, 255); fill-opacity: 1;"/><defs id="defs-0f943e"><g class="clips"><clipPath id="clip0f943exyplot" class="plotclip"><rect width="280" height="75"/></clipPath><clipPath class="axesclip" id="clip0f943ex"><rect x="10" y="0" width="280" height="135"/></clipPath><clipPath class="axesclip" id="clip0f943ey"><rect x="0" y="50" width="300" height="75"/></clipPath><clipPath class="axesclip" id="clip0f943exy"><rect x="10" y="50" width="280" height="75"/></clipPath></g><g class="gradients"/><g class="patterns"/></defs><g class="bglayer"/><g class="layer-below"><g class="imagelayer"/><g class="shapelayer"/></g><g class="cartesianlayer"><g class="subplot xy"><g class="layer-subplot"><g class="shapelayer"/><g class="imagelayer"/></g><g class="minor-gridlayer"><g class="x"/><g class="y"/></g><g class="gridlayer"><g class="x"><path class="xgrid crisp" transform="translate(46.24,0)" d="M0,50v75" style="stroke: rgb(235, 240, 248); stroke-opacity: 1; stroke-width: 1px;"/><path class="xgrid crisp" transform="translate(113.22,0)" d="M0,50v75" style="stroke: rgb(235, 240, 248); stroke-opacity: 1; stroke-width: 1px;"/><path class="xgrid crisp" transform="translate(181.29,0)" d="M0,50v75" style="stroke: rgb(235, 240, 248); stroke-opacity: 1; stroke-width: 1px;"/><path class="xgrid crisp" transform="translate(248.27,0)" d="M0,50v75" style="stroke: rgb(235, 240, 248); stroke-opacity: 1; stroke-width: 1px;"/></g><g class="y"><path class="ygrid crisp" transform="translate(0,98.21000000000001)" d="M10,0h280" style="stroke: rgb(235, 240, 248); stroke-opacity: 1; stroke-width: 1px;"/><path class="ygrid crisp" transform="translate(0,71.43)" d="M10,0h280" style="stroke: rgb(235, 240, 248); stroke-opacity: 1; stroke-width: 1px;"/></g></g><g class="zerolinelayer"><path class="yzl zl crisp" transform="translate(0,125)" d="M10,0h280" style="stroke: rgb(235, 240, 248); stroke-opacity: 1; stroke-width: 2px;"/></g><path class="xlines-below"/><path class="ylines-below"/><g class="overlines-below"/><g class="xaxislayer-below"/><g class="yaxislayer-below"/><g class="overaxes-below"/><g class="plot" transform="translate(10,50)" clip-path="url(#clip0f943exyplot)"><g class="scatterlayer mlayer"><g class="trace scatter tracecd3ad6" style="stroke-miterlimit: 2; opacity: 1;"><g class="fills"/><g class="errorbars"/><g class="lines"><path class="js-line" d="M0,64.42L35.14,64.96L36.24,66.03L38.43,66.96L39.53,66.96L69.18,66.96L70.27,62.95L74.67,64.02L75.76,64.42L80.16,64.02L81.25,64.02L85.65,62.95L86.75,62.95L125.18,62.95L126.27,61.47L128.47,57.72L129.57,57.72L143.84,57.72L144.94,56.38L147.14,55.58L148.24,54.78L150.43,53.71L151.53,52.5L153.73,51.7L154.82,50.22L160.31,49.55L161.41,49.55L187.76,49.55L188.86,48.08L207.53,47.14L208.63,46.21L210.82,47.41L211.92,48.08L213.02,48.08L214.12,46.47L216.31,44.73L217.41,43.93L219.61,43.13L220.71,43.13L222.9,43.53L224,41.38L226.2,38.3L227.29,38.3L228.39,38.3L237.18,43.66L239.37,44.73L241.57,44.73L243.76,45.4L244.86,45.13L248.16,40.45L249.25,40.45L263.53,39.38L264.63,38.84L265.73,39.38L266.82,38.3L269.02,35.89L270.12,35.89L272.31,35.89L275.61,30.13L278.9,28.39L280,22.9" style="vector-effect: non-scaling-stroke; fill: none; stroke: rgb(99, 110, 250); stroke-opacity: 1; stroke-width: 5px; opacity: 1;"/></g><g class="points"/><g class="text"/></g><g class="trace scatter trace62f909" style="stroke-miterlimit: 2; opacity: 1;"><g class="fills"/><g class="errorbars"/><g class="lines"><path class="js-line" d="M0,15.94L26.35,16.61L27.45,17.28L34.04,17.28L35.14,18.62L38.43,24.51L39.53,24.51L46.12,26.52L47.22,26.52L65.88,27.46L66.98,28.39L69.18,28.39L70.27,30.13L71.37,30.13L72.47,31.74L74.67,34.29L75.76,34.55L94.43,34.55L95.53,31.74L96.63,29.33L97.73,30.13L103.22,28.39L104.31,28.39L147.14,27.46L148.24,25.04L151.53,22.37L152.63,22.37L155.92,22.37L157.02,15.13L206.43,14.46L207.53,15.94L211.92,17.28L213.02,17.28L216.31,17.28L217.41,15.13L219.61,12.86L220.71,12.86L221.8,12.86L222.9,10.45L226.2,3.75L227.29,3.75L228.39,3.75L237.18,11.25L239.37,12.86L241.57,12.86L243.76,11.25L244.86,12.05L247.06,19.96L248.16,17.28L263.53,16.61L264.63,15.13L266.82,14.46L267.92,21.16L272.31,21.16L275.61,26.52L278.9,27.46L280,31.34" style="vector-effect: non-scaling-stroke; fill: none; stroke: rgb(239, 85, 59); stroke-opacity: 1; stroke-width: 5px; opacity: 1;"/></g><g class="points"/><g class="text"/></g><g class="trace scatter trace0e2935" style="stroke-miterlimit: 2; opacity: 1;"><g class="fills"/><g class="errorbars"/><g class="lines"><path class="js-line" d="M0,37.1L65.88,36.56L66.98,34.55L69.18,34.55L70.27,33.21L71.37,33.21L72.47,29.73L75.76,21.16L76.86,21.16L95.53,21.16L96.63,23.44L98.82,24.51L99.92,24.51L147.14,25.04L148.24,26.12L153.73,27.05L154.82,27.05L155.92,26.52L157.02,31.34L160.31,32.54L161.41,32.54L164.71,33.62L165.8,34.55L168,35.22L169.1,35.89L185.57,37.1L186.67,38.3L189.96,44.73L191.06,44.73L203.14,44.73L204.24,46.47L206.43,48.08L207.53,47.68L214.12,49.96L215.22,50.76L216.31,50.76L217.41,53.04L219.61,54.78L220.71,54.78L222.9,54.78L224,57.05L226.2,58.79L227.29,58.79L228.39,58.79L237.18,39.38L239.37,36.56L241.57,36.56L243.76,39.38L244.86,39.38L249.25,40.45L250.35,40.45L266.82,40.45L267.92,35.89L278.9,35.22L280,38.57" style="vector-effect: non-scaling-stroke; fill: none; stroke: rgb(0, 204, 150); stroke-opacity: 1; stroke-width: 5px; opacity: 1;"/></g><g class="points"/><g class="text"/></g><g class="trace scatter trace1db6ae" style="stroke-miterlimit: 2; opacity: 1;"><g class="fills"/><g class="errorbars"/><g class="lines"><path class="js-line" d="M0,63.48L71.37,64.02L72.47,64.29L87.84,64.96L88.94,64.96L153.73,66.16L154.82,66.7L161.41,67.37L162.51,67.37L206.43,66.7L207.53,65.36L216.31,66.29L217.41,66.29L222.9,66.29L224,67.9L226.2,69.51L227.29,69.51L266.82,70.45L267.92,71.92L278.9,71.92L280,73.26" style="vector-effect: non-scaling-stroke; fill: none; stroke: rgb(171, 99, 250); stroke-opacity: 1; stroke-width: 5px; opacity: 1;"/></g><g class="points"/><g class="text"/></g></g></g><g class="overplot"/><path class="xlines-above crisp" d="M0,0" style="fill: none;"/><path class="ylines-above crisp" d="M0,0" style="fill: none;"/><g class="overlines-above"/><g class="xaxislayer-above"/><g class="yaxislayer-above"/><g class="overaxes-above"/></g></g><g class="polarlayer"/><g class="smithlayer"/><g class="ternarylayer"/><g class="geolayer"/><g class="funnelarealayer"/><g class="pielayer"/><g class="iciclelayer"/><g class="treemaplayer"/><g class="sunburstlayer"/><g class="glimages"/><defs id="topdefs-0f943e"><g class="clips"/></defs><g class="layer-above"><g class="imagelayer"/><g class="shapelayer"/></g><g class="infolayer"><g class="g-gtitle"><text class="gtitle" x="15" y="25" text-anchor="start" dy="0em" style="font-family: Ubuntu, verdana, arial, sans-serif; font-size: 16px; fill: rgb(233, 84, 32); opacity: 1; font-weight: normal; white-space: pre;">Prezident/ka ČR 2023</text></g><g class="g-xtitle"/><g class="g-ytitle"/></g></svg>