<svg class="main-svg" xmlns="http://www.w3.org/2000/svg" xmlns:xlink="http://www.w3.org/1999/xlink" width="300" height="135" style="" viewBox="0 0 300 135"><rect x="0" y="0" width="300" height="135" style="fill: rgb(255, 255, 255); fill-opacity: 1;"/><defs id="defs-7f9fcd"><g class="clips"><clipPath id="clip7f9fcdxyplot" class="plotclip"><rect width="280" height="75"/></clipPath><clipPath class="axesclip" id="clip7f9fcdx"><rect x="10" y="0" width="280" height="135"/></clipPath><clipPath class="axesclip" id="clip7f9fcdy"><rect x="0" y="50" width="300" height="75"/></clipPath><clipPath class="axesclip" id="clip7f9fcdxy"><rect x="10" y="50" width="280" height="75"/></clipPath></g><g class="gradients"/><g class="patterns"/></defs><g class="bglayer"/><g class="layer-below"><g class="imagelayer"/><g class="shapelayer"/></g><g class="cartesianlayer"><g class="subplot xy"><g class="layer-subplot"><g class="shapelayer"/><g class="imagelayer"/></g><g class="minor-gridlayer"><g class="x"/><g class="y"/></g><g class="gridlayer"><g class="x"><path class="xgrid crisp" transform="translate(68.11,0)" d="M0,50v75" style="stroke: rgb(235, 240, 248); stroke-opacity: 1; stroke-width: 1px;"/><path class="xgrid crisp" transform="translate(175.53,0)" d="M0,50v75" style="stroke: rgb(235, 240, 248); stroke-opacity: 1; stroke-width: 1px;"/><path class="xgrid crisp" transform="translate(284.72,0)" d="M0,50v75" style="stroke: rgb(235, 240, 248); stroke-opacity: 1; stroke-width: 1px;"/></g><g class="y"><path class="ygrid crisp" transform="translate(0,106.35)" d="M10,0h280" style="stroke: rgb(235, 240, 248); stroke-opacity: 1; stroke-width: 1px;"/><path class="ygrid crisp" transform="translate(0,87.7)" d="M10,0h280" style="stroke: rgb(235, 240, 248); stroke-opacity: 1; stroke-width: 1px;"/><path class="ygrid crisp" transform="translate(0,69.03999999999999)" d="M10,0h280" style="stroke: rgb(235, 240, 248); stroke-opacity: 1; stroke-width: 1px;"/></g></g><g class="zerolinelayer"><path class="yzl zl crisp" transform="translate(0,125)" d="M10,0h280" style="stroke: rgb(235, 240, 248); stroke-opacity: 1; stroke-width: 2px;"/></g><path class="xlines-below"/><path class="ylines-below"/><g class="overlines-below"/><g class="xaxislayer-below"/><g class="yaxislayer-below"/><g class="overaxes-below"/><g class="plot" transform="translate(10,50)" clip-path="url(#clip7f9fcdxyplot)"><g class="scatterlayer mlayer"><g class="trace scatter trace44dcbc" style="stroke-miterlimit: 2; opacity: 1;"><g class="fills"/><g class="errorbars"/><g class="lines"><path class="js-line" d="M0,5.43L42.26,6.36L44.03,7.11L54.59,7.11L56.35,8.79L59.87,15.69L61.64,15.69L68.68,16.81L70.44,17.37L75.72,17.93L77.48,17.93L105.66,19.04L107.42,20.16L110.94,20.16L112.7,22.22L114.47,22.22L116.23,24.08L119.75,27.06L121.51,27.44L151.45,27.44L153.21,24.08L154.97,21.28L156.73,22.22L163.77,20.16L165.53,20.16L235.97,19.04L237.74,16.25L241.26,13.64L243.02,13.08L250.06,13.08L251.82,4.68L280,3.75" style="vector-effect: non-scaling-stroke; fill: none; stroke: rgb(99, 110, 250); stroke-opacity: 1; stroke-width: 5px; opacity: 1;"/></g><g class="points"/><g class="text"/></g><g class="trace scatter trace968839" style="stroke-miterlimit: 2; opacity: 1;"><g class="fills"/><g class="errorbars"/><g class="lines"><path class="js-line" d="M0,30.42L105.66,29.86L107.42,27.44L110.94,27.44L112.7,25.95L114.47,25.95L116.23,21.66L119.75,13.64L121.51,11.77L135.6,11.02L137.36,10.28L151.45,10.28L153.21,11.77L156.73,15.69L158.49,15.69L235.97,16.25L237.74,17.37L243.02,17.93L244.78,17.93L248.3,18.67L250.06,17.93L251.82,23.71L253.58,24.64L260.63,25.01L262.39,25.01L267.67,27.44L269.43,28.37L272.96,29.12L274.72,29.12L280,29.12" style="vector-effect: non-scaling-stroke; fill: none; stroke: rgb(239, 85, 59); stroke-opacity: 1; stroke-width: 5px; opacity: 1;"/></g><g class="points"/><g class="text"/></g><g class="trace scatter trace02494c" style="stroke-miterlimit: 2; opacity: 1;"><g class="fills"/><g class="errorbars"/><g class="lines"><path class="js-line" d="M0,62.69L56.35,63.06L58.11,64.37L61.64,65.49L63.4,65.49L110.94,65.49L112.7,60.82L117.99,61.38L119.75,62.13L123.27,62.13L125.03,62.13L132.08,61.38L133.84,60.82L200.75,60.82L202.52,59.15L206.04,54.67L207.8,54.67L230.69,54.67L232.45,52.99L235.97,52.24L237.74,51.31L239.5,51.31L241.26,50.01L248.3,45.9L250.06,45.34L253.58,45.72L255.35,45.16L267.67,44.97L269.43,44.97L280,44.97" style="vector-effect: non-scaling-stroke; fill: none; stroke: rgb(0, 204, 150); stroke-opacity: 1; stroke-width: 5px; opacity: 1;"/></g><g class="points"/><g class="text"/></g><g class="trace scatter traced8d768" style="stroke-miterlimit: 2; opacity: 1;"><g class="fills"/><g class="errorbars"/><g class="lines"><path class="js-line" d="M0,68.47L54.59,68.47L56.35,66.05L59.87,64.74L61.64,64.74L70.44,63.62L72.2,63.06L117.99,63.06L119.75,64.18L125.03,64.74L126.79,64.74L133.84,64.37L135.6,64.18L153.21,63.06L154.97,64.37L158.49,65.49L160.25,65.49L202.52,65.49L204.28,66.05L253.58,66.42L255.35,65.49L258.87,64.74L260.63,64.74L280,64.74" style="vector-effect: non-scaling-stroke; fill: none; stroke: rgb(171, 99, 250); stroke-opacity: 1; stroke-width: 5px; opacity: 1;"/></g><g class="points"/><g class="text"/></g><g class="trace scatter tracee483f6" style="stroke-miterlimit: 2; opacity: 1;"><g class="fills"/><g class="errorbars"/><g class="lines"><path class="js-line" d="M0,61.38L70.44,61.38L72.2,62.13L200.75,63.06L202.52,63.62L209.56,64L211.32,64L248.3,65.11L250.06,65.49L255.35,66.05L257.11,66.05L280,66.05" style="vector-effect: non-scaling-stroke; fill: none; stroke: rgb(255, 161, 90); stroke-opacity: 1; stroke-width: 5px; opacity: 1;"/></g><g class="points"/><g class="text"/></g></g></g><g class="overplot"/><path class="xlines-above crisp" d="M0,0" style="fill: none;"/><path class="ylines-above crisp" d="M0,0" style="fill: none;"/><g class="overlines-above"/><g class="xaxislayer-above"/><g class="yaxislayer-above"/><g class="overaxes-above"/></g></g><g class="polarlayer"/><g class="smithlayer"/><g class="ternarylayer"/><g class="geolayer"/><g class="funnelarealayer"/><g class="pielayer"/><g class="iciclelayer"/><g class="treemaplayer"/><g class="sunburstlayer"/><g class="glimages"/><defs id="topdefs-7f9fcd"><g class="clips"/></defs><g class="layer-above"><g class="imagelayer"/><g class="shapelayer"/></g><g class="infolayer"><g class="g-gtitle"><text class="gtitle" x="15" y="25" text-anchor="start" dy="0em" style="font-family: Ubuntu, verdana, arial, sans-serif; font-size: 16px; fill: rgb(233, 84, 32); opacity: 1; font-weight: normal; white-space: pre;">Prezident/ka ČR 2023</text></g><g class="g-xtitle"/><g class="g-ytitle"/></g></svg>