<svg class="main-svg" xmlns="http://www.w3.org/2000/svg" xmlns:xlink="http://www.w3.org/1999/xlink" width="400" height="400" style="" viewBox="0 0 400 400"><rect x="0" y="0" width="400" height="400" style="fill: rgb(255, 255, 255); fill-opacity: 1;"/><defs id="defs-626677"><g class="clips"><clipPath id="clip626677xyplot" class="plotclip"><rect width="191" height="330"/></clipPath><clipPath class="axesclip" id="clip626677x"><rect x="50" y="0" width="191" height="400"/></clipPath><clipPath class="axesclip" id="clip626677y"><rect x="0" y="20" width="400" height="330"/></clipPath><clipPath class="axesclip" id="clip626677xy"><rect x="50" y="20" width="191" height="330"/></clipPath></g><g class="gradients"/><g class="patterns"/></defs><g class="bglayer"/><g class="layer-below"><g class="imagelayer"/><g class="shapelayer"/></g><g class="cartesianlayer"><g class="subplot xy"><g class="layer-subplot"><g class="shapelayer"/><g class="imagelayer"/></g><g class="minor-gridlayer"><g class="x"/><g class="y"/></g><g class="gridlayer"><g class="x"><path class="xgrid crisp" transform="translate(71.73,0)" d="M0,20v330" style="stroke: rgb(235, 240, 248); stroke-opacity: 1; stroke-width: 1px;"/><path class="xgrid crisp" transform="translate(111.91,0)" d="M0,20v330" style="stroke: rgb(235, 240, 248); stroke-opacity: 1; stroke-width: 1px;"/><path class="xgrid crisp" transform="translate(152.74,0)" d="M0,20v330" style="stroke: rgb(235, 240, 248); stroke-opacity: 1; stroke-width: 1px;"/><path class="xgrid crisp" transform="translate(192.92,0)" d="M0,20v330" style="stroke: rgb(235, 240, 248); stroke-opacity: 1; stroke-width: 1px;"/><path class="xgrid crisp" transform="translate(233.1,0)" d="M0,20v330" style="stroke: rgb(235, 240, 248); stroke-opacity: 1; stroke-width: 1px;"/></g><g class="y"><path class="ygrid crisp" transform="translate(0,293.41)" d="M50,0h191" style="stroke: rgb(235, 240, 248); stroke-opacity: 1; stroke-width: 1px;"/><path class="ygrid crisp" transform="translate(0,236.82)" d="M50,0h191" style="stroke: rgb(235, 240, 248); stroke-opacity: 1; stroke-width: 1px;"/><path class="ygrid crisp" transform="translate(0,180.23)" d="M50,0h191" style="stroke: rgb(235, 240, 248); stroke-opacity: 1; stroke-width: 1px;"/><path class="ygrid crisp" transform="translate(0,123.65)" d="M50,0h191" style="stroke: rgb(235, 240, 248); stroke-opacity: 1; stroke-width: 1px;"/><path class="ygrid crisp" transform="translate(0,67.06)" d="M50,0h191" style="stroke: rgb(235, 240, 248); stroke-opacity: 1; stroke-width: 1px;"/></g></g><g class="zerolinelayer"><path class="yzl zl crisp" transform="translate(0,350)" d="M50,0h191" style="stroke: rgb(235, 240, 248); stroke-opacity: 1; stroke-width: 2px;"/></g><path class="xlines-below"/><path class="ylines-below"/><g class="overlines-below"/><g class="xaxislayer-below"/><g class="yaxislayer-below"/><g class="overaxes-below"/><g class="plot" transform="translate(50,20)" clip-path="url(#clip626677xyplot)"><g class="scatterlayer mlayer"><g class="trace scatter tracee13f89" style="stroke-miterlimit: 2; opacity: 1;"><g class="fills"/><g class="errorbars"/><g class="lines"><path class="js-line" d="M0,69.69L15.15,69.69L15.81,73.09L17.12,75.92L17.78,75.92L20.42,75.92L21.08,82.14L23.05,107.61L23.71,107.61L27,116.66L27.66,116.66L30.96,116.66L31.61,118.93L33.59,120.62L34.25,120.62L39.52,120.62L40.18,124.58L41.49,124.58L42.15,132.51L42.81,132.51L43.47,139.3L45.44,152.31L46.1,152.31L56.64,152.31L57.3,139.3L57.96,128.55L58.62,132.51L59.28,130.81L60.59,124.58L61.25,124.58L64.54,124.58L65.2,122.89L66.52,120.62L67.18,120.62L75.74,120.62L76.4,122.89L78.38,124.58L79.03,124.58L87.6,124.58L88.26,120.62L90.23,100.82L90.89,97.99L93.52,97.99L94.18,66.86L94.84,66.86L95.5,63.47L123.82,63.47L124.48,69.69L125.14,73.09L125.8,69.69L127.11,75.92L127.77,75.92L129.75,75.92L130.41,66.86L131.72,56.68L132.38,56.68L133.04,56.68L133.7,45.36L136.33,16.5L136.99,16.5L143.58,56.68L144.9,56.68L146.21,49.32L146.87,52.72L148.19,87.8L148.85,75.92L149.51,75.92L157.41,75.92L158.07,73.09L160.04,63.47L160.7,92.89L163.34,92.89L165.31,116.66L167.29,120.62L167.95,137.6L169.27,152.31L169.92,152.31L171.24,152.31L171.9,146.09L173.88,155.14L174.53,142.69L175.85,124.58L176.51,107.61L181.78,107.61L182.44,97.99L183.1,97.99L183.76,90.06L185.07,82.14L185.73,82.14L187.71,33.48L188.37,18.76" style="vector-effect: non-scaling-stroke; fill: none; stroke: rgb(99, 110, 250); stroke-opacity: 1; stroke-width: 5px; opacity: 1;"/></g><g class="points"/><g class="text"/></g><g class="trace scatter trace842f74" style="stroke-miterlimit: 2; opacity: 1;"><g class="fills"/><g class="errorbars"/><g class="lines"><path class="js-line" d="M0,163.06L15.81,161.93L16.47,160.8L39.52,160.8L40.18,152.31L41.49,152.31L42.15,146.09L42.81,146.09L43.47,130.81L45.44,92.89L46.1,92.89L50.06,92.89L50.71,90.06L52.03,87.8L52.69,87.8L56.64,87.8L57.3,92.89L59.28,107.61L59.93,107.61L87.6,107.61L88.26,109.87L90.23,116.66L90.89,116.66L91.55,116.66L92.21,118.93L92.87,118.93L93.52,116.66L95.5,142.69L96.16,142.69L98.13,142.69L98.79,147.79L101.43,157.97L102.09,157.97L110.65,157.97L111.31,163.06L111.97,168.16L112.62,184L113.94,196.45L114.6,196.45L121.84,196.45L122.5,204.37L123.82,211.73L124.48,209.47L125.8,211.73L126.46,211.73L127.11,211.73L127.77,216.26L130.41,233.23L131.07,241.16L133.7,241.16L134.36,250.78L135.68,258.7L136.33,258.7L136.99,258.7L142.26,173.25L143.58,160.8L144.9,160.8L146.21,173.25L146.87,173.25L148.85,177.78L149.51,177.78L152.8,177.78L153.46,179.47L158.73,179.47L159.39,177.78L160.04,177.78L160.7,157.97L163.34,157.97L165.31,155.14L167.29,155.14L167.95,169.85L169.27,185.7L169.92,185.7L172.56,185.7L173.22,189.66L175.19,189.66L175.85,193.06L177.17,196.45L177.83,196.45L181.78,196.45L182.44,203.24L183.1,203.24L183.76,201.54L185.73,199.85L186.39,211.73L187.71,211.73L188.37,170.99" style="vector-effect: non-scaling-stroke; fill: none; stroke: rgb(239, 85, 59); stroke-opacity: 1; stroke-width: 5px; opacity: 1;"/></g><g class="points"/><g class="text"/></g><g class="trace scatter trace46e38c" style="stroke-miterlimit: 2; opacity: 1;"><g class="fills"/><g class="errorbars"/><g class="lines"><path class="js-line" d="M0,283.6L3.29,283.6L3.95,285.3L21.08,285.3L21.73,290.39L23.05,294.35L23.71,294.35L41.49,294.35L42.15,276.81L43.47,277.94L44.13,279.07L45.44,283.6L46.1,281.33L48.74,281.33L49.4,279.07L50.71,276.81L51.37,276.81L75.08,276.81L75.74,270.58L77.72,253.61L78.38,253.61L86.28,253.61L86.94,247.95L87.6,247.95L88.26,244.55L93.52,219.09L94.18,220.22L94.84,220.22L96.82,217.95L97.48,217.95L110.65,217.95L111.31,220.78L111.97,223.05L112.62,217.95L113.94,211.73L114.6,211.73L123.82,211.73L124.48,207.2L125.8,203.24L126.46,208.9L127.77,211.73L128.43,204.37L130.41,193.06L131.07,189.66L133.04,189.66L133.7,191.36L135.68,168.16L136.33,168.16L136.99,168.16L142.26,191.92L143.58,196.45L144.9,196.45L146.21,199.85L146.87,198.15L148.85,177.78L149.51,177.78L152.8,177.78L153.46,175.51L157.41,174.38L158.07,173.25L158.73,170.99L159.39,173.25L161.36,157.97L162.02,157.97L163.34,157.97L165.31,132.51L167.29,124.58L167.95,100.82L169.27,69.69L169.92,69.69L171.24,69.69L171.9,75.92L173.88,63.47L174.53,75.92L177.17,107.61L177.83,107.61L181.78,107.61L182.44,116.66L183.1,116.66L183.76,124.58L185.07,132.51L185.73,132.51L188.37,233.8" style="vector-effect: non-scaling-stroke; fill: none; stroke: rgb(0, 204, 150); stroke-opacity: 1; stroke-width: 5px; opacity: 1;"/></g><g class="points"/><g class="text"/></g></g></g><g class="overplot"/><path class="xlines-above crisp" d="M0,0" style="fill: none;"/><path class="ylines-above crisp" d="M0,0" style="fill: none;"/><g class="overlines-above"/><g class="xaxislayer-above"><g class="xtick"><text text-anchor="middle" x="0" y="363" transform="translate(71.73,0)" style="font-family: 'Open Sans', verdana, arial, sans-serif; font-size: 12px; fill: rgb(42, 63, 95); fill-opacity: 1; white-space: pre; opacity: 1;">1.5.22</text></g><g class="xtick"><text text-anchor="middle" x="0" y="363" style="font-family: 'Open Sans', verdana, arial, sans-serif; font-size: 12px; fill: rgb(42, 63, 95); fill-opacity: 1; white-space: pre; opacity: 1;" transform="translate(111.91,0)">1.7.22</text></g><g class="xtick"><text text-anchor="middle" x="0" y="363" style="font-family: 'Open Sans', verdana, arial, sans-serif; font-size: 12px; fill: rgb(42, 63, 95); fill-opacity: 1; white-space: pre; opacity: 1;" transform="translate(152.74,0)">1.9.22</text></g><g class="xtick"><text text-anchor="middle" x="0" y="363" style="font-family: 'Open Sans', verdana, arial, sans-serif; font-size: 12px; fill: rgb(42, 63, 95); fill-opacity: 1; white-space: pre; opacity: 1;" transform="translate(192.92,0)">1.11.22</text></g><g class="xtick"><text text-anchor="middle" x="0" y="363" style="font-family: 'Open Sans', verdana, arial, sans-serif; font-size: 12px; fill: rgb(42, 63, 95); fill-opacity: 1; white-space: pre; opacity: 1;" transform="translate(233.1,0)">1.1.23</text></g></g><g class="yaxislayer-above"><g class="ytick"><text text-anchor="end" x="49" y="4.199999999999999" transform="translate(0,350)" style="font-family: 'Open Sans', verdana, arial, sans-serif; font-size: 12px; fill: rgb(42, 63, 95); fill-opacity: 1; white-space: pre; opacity: 1;">0%</text></g><g class="ytick"><text text-anchor="end" x="49" y="4.199999999999999" style="font-family: 'Open Sans', verdana, arial, sans-serif; font-size: 12px; fill: rgb(42, 63, 95); fill-opacity: 1; white-space: pre; opacity: 1;" transform="translate(0,293.41)">10%</text></g><g class="ytick"><text text-anchor="end" x="49" y="4.199999999999999" style="font-family: 'Open Sans', verdana, arial, sans-serif; font-size: 12px; fill: rgb(42, 63, 95); fill-opacity: 1; white-space: pre; opacity: 1;" transform="translate(0,236.82)">20%</text></g><g class="ytick"><text text-anchor="end" x="49" y="4.199999999999999" style="font-family: 'Open Sans', verdana, arial, sans-serif; font-size: 12px; fill: rgb(42, 63, 95); fill-opacity: 1; white-space: pre; opacity: 1;" transform="translate(0,180.23)">30%</text></g><g class="ytick"><text text-anchor="end" x="49" y="4.199999999999999" style="font-family: 'Open Sans', verdana, arial, sans-serif; font-size: 12px; fill: rgb(42, 63, 95); fill-opacity: 1; white-space: pre; opacity: 1;" transform="translate(0,123.65)">40%</text></g><g class="ytick"><text text-anchor="end" x="49" y="4.199999999999999" style="font-family: 'Open Sans', verdana, arial, sans-serif; font-size: 12px; fill: rgb(42, 63, 95); fill-opacity: 1; white-space: pre; opacity: 1;" transform="translate(0,67.06)">50%</text></g></g><g class="overaxes-above"/></g></g><g class="polarlayer"/><g class="smithlayer"/><g class="ternarylayer"/><g class="geolayer"/><g class="funnelarealayer"/><g class="pielayer"/><g class="iciclelayer"/><g class="treemaplayer"/><g class="sunburstlayer"/><g class="glimages"/><defs id="topdefs-626677"><g class="clips"/><clipPath id="legend626677"><rect width="143" height="67" x="0" y="0"/></clipPath></defs><g class="layer-above"><g class="imagelayer"/><g class="shapelayer"/></g><g class="infolayer"><g class="legend" pointer-events="all" transform="translate(244.82,20)"><rect class="bg" shape-rendering="crispEdges" width="143" height="67" x="0" y="0" style="stroke: rgb(68, 68, 68); stroke-opacity: 1; fill: rgb(255, 255, 255); fill-opacity: 1; stroke-width: 0px;"/><g class="scrollbox" transform="" clip-path="url(#legend626677)"><g class="groups"><g class="traces" transform="translate(0,14.5)" style="opacity: 1;"><text class="legendtext" text-anchor="start" x="40" y="4.680000000000001" style="font-family: 'Open Sans', verdana, arial, sans-serif; font-size: 12px; fill: rgb(42, 63, 95); fill-opacity: 1; white-space: pre;">Pavel Petr</text><g class="layers" style="opacity: 1;"><g class="legendfill"/><g class="legendlines"><path class="js-line" d="M5,0h30" style="fill: none; stroke: rgb(99, 110, 250); stroke-opacity: 1; stroke-width: 5px;"/></g><g class="legendsymbols"><g class="legendpoints"/></g></g><rect class="legendtoggle" x="0" y="-9.5" width="137.0625" height="19" style="fill: rgb(0, 0, 0); fill-opacity: 0;"/></g><g class="traces" transform="translate(0,33.5)" style="opacity: 1;"><text class="legendtext" text-anchor="start" x="40" y="4.680000000000001" style="font-family: 'Open Sans', verdana, arial, sans-serif; font-size: 12px; fill: rgb(42, 63, 95); fill-opacity: 1; white-space: pre;">Babiš Andrej</text><g class="layers" style="opacity: 1;"><g class="legendfill"/><g class="legendlines"><path class="js-line" d="M5,0h30" style="fill: none; stroke: rgb(239, 85, 59); stroke-opacity: 1; stroke-width: 5px;"/></g><g class="legendsymbols"><g class="legendpoints"/></g></g><rect class="legendtoggle" x="0" y="-9.5" width="137.0625" height="19" style="fill: rgb(0, 0, 0); fill-opacity: 0;"/></g><g class="traces" transform="translate(0,52.5)" style="opacity: 1;"><text class="legendtext" text-anchor="start" x="40" y="4.680000000000001" style="font-family: 'Open Sans', verdana, arial, sans-serif; font-size: 12px; fill: rgb(42, 63, 95); fill-opacity: 1; white-space: pre;">Nerudová Danuše</text><g class="layers" style="opacity: 1;"><g class="legendfill"/><g class="legendlines"><path class="js-line" d="M5,0h30" style="fill: none; stroke: rgb(0, 204, 150); stroke-opacity: 1; stroke-width: 5px;"/></g><g class="legendsymbols"><g class="legendpoints"/></g></g><rect class="legendtoggle" x="0" y="-9.5" width="137.0625" height="19" style="fill: rgb(0, 0, 0); fill-opacity: 0;"/></g></g></g><rect class="scrollbar" rx="20" ry="3" width="0" height="0" x="0" y="0" style="fill: rgb(128, 139, 164); fill-opacity: 1;"/></g><g class="g-gtitle"/><g class="g-xtitle"/><g class="g-ytitle"/></g></svg>