<svg class="main-svg" xmlns="http://www.w3.org/2000/svg" xmlns:xlink="http://www.w3.org/1999/xlink" width="1200" height="600" style="" viewBox="0 0 1200 600"><rect x="0" y="0" width="1200" height="600" style="fill: rgb(255, 255, 255); fill-opacity: 1;"/><defs id="defs-a3a4d0"><g class="clips"><clipPath id="clipa3a4d0xyplot" class="plotclip"><rect width="996" height="530"/></clipPath><clipPath class="axesclip" id="clipa3a4d0x"><rect x="50" y="0" width="996" height="600"/></clipPath><clipPath class="axesclip" id="clipa3a4d0y"><rect x="0" y="20" width="1200" height="530"/></clipPath><clipPath class="axesclip" id="clipa3a4d0xy"><rect x="50" y="20" width="996" height="530"/></clipPath></g><g class="gradients"/><g class="patterns"/></defs><g class="bglayer"/><g class="layer-below"><g class="imagelayer"/><g class="shapelayer"/></g><g class="cartesianlayer"><g class="subplot xy"><g class="layer-subplot"><g class="shapelayer"/><g class="imagelayer"/></g><g class="gridlayer"><g class="x"><path class="xgrid crisp" transform="translate(157.76,0)" d="M0,20v530" style="stroke: rgb(235, 240, 248); stroke-opacity: 1; stroke-width: 1px;"/><path class="xgrid crisp" transform="translate(356.96,0)" d="M0,20v530" style="stroke: rgb(235, 240, 248); stroke-opacity: 1; stroke-width: 1px;"/><path class="xgrid crisp" transform="translate(559.4300000000001,0)" d="M0,20v530" style="stroke: rgb(235, 240, 248); stroke-opacity: 1; stroke-width: 1px;"/><path class="xgrid crisp" transform="translate(758.63,0)" d="M0,20v530" style="stroke: rgb(235, 240, 248); stroke-opacity: 1; stroke-width: 1px;"/><path class="xgrid crisp" transform="translate(957.83,0)" d="M0,20v530" style="stroke: rgb(235, 240, 248); stroke-opacity: 1; stroke-width: 1px;"/></g><g class="y"><path class="ygrid crisp" transform="translate(0,493.55)" d="M50,0h996" style="stroke: rgb(235, 240, 248); stroke-opacity: 1; stroke-width: 1px;"/><path class="ygrid crisp" transform="translate(0,437.11)" d="M50,0h996" style="stroke: rgb(235, 240, 248); stroke-opacity: 1; stroke-width: 1px;"/><path class="ygrid crisp" transform="translate(0,380.66)" d="M50,0h996" style="stroke: rgb(235, 240, 248); stroke-opacity: 1; stroke-width: 1px;"/><path class="ygrid crisp" transform="translate(0,324.22)" d="M50,0h996" style="stroke: rgb(235, 240, 248); stroke-opacity: 1; stroke-width: 1px;"/><path class="ygrid crisp" transform="translate(0,267.77)" d="M50,0h996" style="stroke: rgb(235, 240, 248); stroke-opacity: 1; stroke-width: 1px;"/><path class="ygrid crisp" transform="translate(0,211.32)" d="M50,0h996" style="stroke: rgb(235, 240, 248); stroke-opacity: 1; stroke-width: 1px;"/><path class="ygrid crisp" transform="translate(0,154.88)" d="M50,0h996" style="stroke: rgb(235, 240, 248); stroke-opacity: 1; stroke-width: 1px;"/><path class="ygrid crisp" transform="translate(0,98.43)" d="M50,0h996" style="stroke: rgb(235, 240, 248); stroke-opacity: 1; stroke-width: 1px;"/><path class="ygrid crisp" transform="translate(0,41.980000000000004)" d="M50,0h996" style="stroke: rgb(235, 240, 248); stroke-opacity: 1; stroke-width: 1px;"/></g></g><g class="zerolinelayer"><path class="yzl zl crisp" transform="translate(0,550)" d="M50,0h996" style="stroke: rgb(235, 240, 248); stroke-opacity: 1; stroke-width: 2px;"/></g><path class="xlines-below"/><path class="ylines-below"/><g class="overlines-below"/><g class="xaxislayer-below"/><g class="yaxislayer-below"/><g class="overaxes-below"/><g class="plot" transform="translate(50,20)" clip-path="url(#clipa3a4d0xyplot)"><g class="scatterlayer mlayer"><g class="trace scatter trace3da235" style="stroke-miterlimit: 2; opacity: 1;"><g class="fills"/><g class="errorbars"/><g class="lines"><path class="js-line" d="M0,270.91L75.11,270.91L78.37,274.3L81.64,277.12L84.9,277.12L101.23,277.12L104.5,283.33L111.03,308.73L114.3,308.73L117.56,308.73L120.83,310.99L124.09,313.25L127.36,313.25L133.89,317.76L137.15,317.76L153.48,317.76L156.75,320.02L160.01,321.71L163.28,321.71L195.93,321.71L199.2,325.66L205.73,325.66L209,333.57L212.26,333.57L215.53,340.34L218.79,348.81L222.06,351.63L225.32,353.32L228.59,353.32L280.84,353.32L284.1,340.34L287.37,329.62L290.64,333.57L293.9,331.31L297.17,325.66L320.03,325.66L323.29,323.97L326.56,321.71L329.82,321.71L375.54,321.71L378.81,323.97L382.07,325.66L385.34,325.66L434.32,325.66L437.59,321.71L444.12,304.22L447.38,301.96L450.65,299.14L453.91,299.14L463.71,299.14L466.98,268.09L470.24,268.09L473.51,264.7L613.93,264.7L617.19,270.91L620.46,274.3L623.72,270.91L626.99,277.12L630.26,277.12L643.32,277.12L646.58,268.09L649.85,257.93L653.11,257.93L659.65,257.93L662.91,246.64L669.44,226.88L672.71,217.85L679.24,217.85L705.36,250.59L711.9,257.93L718.43,257.93L721.69,250.59L724.96,250.59L728.22,254.54L731.49,270.91L734.75,288.97L738.02,277.12L780.47,277.12L783.74,274.3L787,268.09L790.27,264.7L793.53,264.7L796.8,294.05L809.86,294.05L819.66,317.76L826.19,321.71L829.46,321.71L835.99,353.32L839.25,353.32L849.05,353.32L852.31,347.11L855.58,353.32L858.85,353.32L862.11,356.15L865.38,343.73L868.64,336.95L871.91,325.66L875.17,308.73L878.44,308.73L901.3,308.73L904.56,299.14L907.83,299.14L911.1,291.23L914.36,283.33L917.63,283.33L920.89,283.33L924.16,243.25L927.42,235.35L930.69,235.35L933.95,220.11L937.22,198.1L940.49,194.15L943.75,158.58L947.02,153.5L953.55,59.8L960.08,71.09L963.34,72.22L966.61,72.22L969.88,68.27L973.14,63.19L976.41,45.13L982.94,26.5" style="vector-effect: non-scaling-stroke; fill: none; stroke: rgb(99, 110, 250); stroke-opacity: 1; stroke-width: 5px; opacity: 1;"/></g><g class="points"/><g class="text"/></g><g class="trace scatter traceeccaff" style="stroke-miterlimit: 2; opacity: 1;"><g class="fills"/><g class="errorbars"/><g class="lines"><path class="js-line" d="M0,364.05L78.37,362.92L81.64,361.23L195.93,361.23L199.2,353.32L205.73,353.32L209,347.11L212.26,347.11L215.53,331.31L218.79,310.99L222.06,301.96L225.32,294.05L228.59,294.05L248.18,294.05L251.45,291.23L254.71,288.97L257.98,288.97L280.84,288.97L284.1,294.05L287.37,304.22L290.64,308.73L434.32,308.73L437.59,310.99L440.85,315.5L444.12,317.76L453.91,317.76L457.18,320.02L460.45,320.02L463.71,317.76L466.98,338.65L470.24,342.03L473.51,343.73L476.77,343.73L486.57,343.73L489.84,348.81L493.1,353.32L496.37,353.32L502.9,358.97L506.16,358.97L548.62,358.97L551.88,364.05L555.15,369.13L558.41,384.37L561.68,397.35L564.94,397.35L604.13,397.35L607.4,405.25L610.66,412.03L613.93,412.03L617.19,409.77L620.46,412.03L630.26,412.03L633.52,417.11L640.05,423.88L643.32,423.88L649.85,441.38L653.11,441.38L662.91,441.38L666.18,451.54L669.44,459.44L672.71,459.44L679.24,459.44L705.36,373.64L708.63,365.18L711.9,361.23L718.43,361.23L721.69,373.64L728.22,373.64L731.49,375.9L734.75,378.16L738.02,378.16L757.61,378.16L760.88,380.42L787,380.42L790.27,378.16L793.53,378.16L796.8,358.97L809.86,358.97L819.66,356.15L829.46,356.15L832.72,370.26L835.99,386.63L839.25,386.63L855.58,386.63L858.85,390.58L868.64,390.58L871.91,393.96L875.17,397.35L878.44,397.35L901.3,397.35L904.56,403.56L907.83,403.56L911.1,401.87L917.63,400.74L920.89,400.74L924.16,412.03L927.42,412.03L930.69,412.03L933.95,371.95L937.22,366.87L940.49,369.13L943.75,379.85L947.02,381.55L953.55,441.38L956.81,426.7L960.08,418.8L963.34,417.11L966.61,418.8L969.88,428.96L973.14,434.04L976.41,450.41L982.94,469.04" style="vector-effect: non-scaling-stroke; fill: none; stroke: rgb(239, 85, 59); stroke-opacity: 1; stroke-width: 5px; opacity: 1;"/></g><g class="points"/><g class="text"/></g></g></g><g class="overplot"/><path class="xlines-above crisp" d="M0,0" style="fill: none;"/><path class="ylines-above crisp" d="M0,0" style="fill: none;"/><g class="overlines-above"/><g class="xaxislayer-above"><g class="xtick"><text text-anchor="middle" x="0" y="563" transform="translate(157.76,0)" style="font-family: 'Open Sans', verdana, arial, sans-serif; font-size: 12px; fill: rgb(42, 63, 95); fill-opacity: 1; white-space: pre; opacity: 1;">1.5.22</text></g><g class="xtick"><text text-anchor="middle" x="0" y="563" style="font-family: 'Open Sans', verdana, arial, sans-serif; font-size: 12px; fill: rgb(42, 63, 95); fill-opacity: 1; white-space: pre; opacity: 1;" transform="translate(356.96,0)">1.7.22</text></g><g class="xtick"><text text-anchor="middle" x="0" y="563" style="font-family: 'Open Sans', verdana, arial, sans-serif; font-size: 12px; fill: rgb(42, 63, 95); fill-opacity: 1; white-space: pre; opacity: 1;" transform="translate(559.4300000000001,0)">1.9.22</text></g><g class="xtick"><text text-anchor="middle" x="0" y="563" style="font-family: 'Open Sans', verdana, arial, sans-serif; font-size: 12px; fill: rgb(42, 63, 95); fill-opacity: 1; white-space: pre; opacity: 1;" transform="translate(758.63,0)">1.11.22</text></g><g class="xtick"><text text-anchor="middle" x="0" y="563" style="font-family: 'Open Sans', verdana, arial, sans-serif; font-size: 12px; fill: rgb(42, 63, 95); fill-opacity: 1; white-space: pre; opacity: 1;" transform="translate(957.83,0)">1.1.23</text></g></g><g class="yaxislayer-above"><g class="ytick"><text text-anchor="end" x="49" y="4.199999999999999" transform="translate(0,550)" style="font-family: 'Open Sans', verdana, arial, sans-serif; font-size: 12px; fill: rgb(42, 63, 95); fill-opacity: 1; white-space: pre; opacity: 1;">0%</text></g><g class="ytick"><text text-anchor="end" x="49" y="4.199999999999999" style="font-family: 'Open Sans', verdana, arial, sans-serif; font-size: 12px; fill: rgb(42, 63, 95); fill-opacity: 1; white-space: pre; opacity: 1;" transform="translate(0,493.55)">10%</text></g><g class="ytick"><text text-anchor="end" x="49" y="4.199999999999999" style="font-family: 'Open Sans', verdana, arial, sans-serif; font-size: 12px; fill: rgb(42, 63, 95); fill-opacity: 1; white-space: pre; opacity: 1;" transform="translate(0,437.11)">20%</text></g><g class="ytick"><text text-anchor="end" x="49" y="4.199999999999999" style="font-family: 'Open Sans', verdana, arial, sans-serif; font-size: 12px; fill: rgb(42, 63, 95); fill-opacity: 1; white-space: pre; opacity: 1;" transform="translate(0,380.66)">30%</text></g><g class="ytick"><text text-anchor="end" x="49" y="4.199999999999999" style="font-family: 'Open Sans', verdana, arial, sans-serif; font-size: 12px; fill: rgb(42, 63, 95); fill-opacity: 1; white-space: pre; opacity: 1;" transform="translate(0,324.22)">40%</text></g><g class="ytick"><text text-anchor="end" x="49" y="4.199999999999999" style="font-family: 'Open Sans', verdana, arial, sans-serif; font-size: 12px; fill: rgb(42, 63, 95); fill-opacity: 1; white-space: pre; opacity: 1;" transform="translate(0,267.77)">50%</text></g><g class="ytick"><text text-anchor="end" x="49" y="4.199999999999999" style="font-family: 'Open Sans', verdana, arial, sans-serif; font-size: 12px; fill: rgb(42, 63, 95); fill-opacity: 1; white-space: pre; opacity: 1;" transform="translate(0,211.32)">60%</text></g><g class="ytick"><text text-anchor="end" x="49" y="4.199999999999999" style="font-family: 'Open Sans', verdana, arial, sans-serif; font-size: 12px; fill: rgb(42, 63, 95); fill-opacity: 1; white-space: pre; opacity: 1;" transform="translate(0,154.88)">70%</text></g><g class="ytick"><text text-anchor="end" x="49" y="4.199999999999999" style="font-family: 'Open Sans', verdana, arial, sans-serif; font-size: 12px; fill: rgb(42, 63, 95); fill-opacity: 1; white-space: pre; opacity: 1;" transform="translate(0,98.43)">80%</text></g><g class="ytick"><text text-anchor="end" x="49" y="4.199999999999999" style="font-family: 'Open Sans', verdana, arial, sans-serif; font-size: 12px; fill: rgb(42, 63, 95); fill-opacity: 1; white-space: pre; opacity: 1;" transform="translate(0,41.980000000000004)">90%</text></g></g><g class="overaxes-above"/></g></g><g class="polarlayer"/><g class="smithlayer"/><g class="ternarylayer"/><g class="geolayer"/><g class="funnelarealayer"/><g class="pielayer"/><g class="iciclelayer"/><g class="treemaplayer"/><g class="sunburstlayer"/><g class="glimages"/><defs id="topdefs-a3a4d0"><g class="clips"/><clipPath id="legenda3a4d0"><rect width="122" height="48" x="0" y="0"/></clipPath></defs><g class="layer-above"><g class="imagelayer"/><g class="shapelayer"/></g><g class="infolayer"><g class="legend" pointer-events="all" transform="translate(1065.92,20)"><rect class="bg" shape-rendering="crispEdges" style="stroke: rgb(68, 68, 68); stroke-opacity: 1; fill: rgb(255, 255, 255); fill-opacity: 1; stroke-width: 0px;" width="122" height="48" x="0" y="0"/><g class="scrollbox" transform="" clip-path="url(#legenda3a4d0)"><g class="groups"><g class="traces" transform="translate(0,14.5)" style="opacity: 1;"><text class="legendtext" text-anchor="start" x="40" y="4.680000000000001" style="font-family: 'Open Sans', verdana, arial, sans-serif; font-size: 12px; fill: rgb(42, 63, 95); fill-opacity: 1; white-space: pre;">Pavel Petr</text><g class="layers" style="opacity: 1;"><g class="legendfill"/><g class="legendlines"><path class="js-line" d="M5,0h30" style="fill: none; stroke: rgb(99, 110, 250); stroke-opacity: 1; stroke-width: 5px;"/></g><g class="legendsymbols"><g class="legendpoints"/></g></g><rect class="legendtoggle" x="0" y="-9.5" width="116.359375" height="19" style="fill: rgb(0, 0, 0); fill-opacity: 0;"/></g><g class="traces" transform="translate(0,33.5)" style="opacity: 1;"><text class="legendtext" text-anchor="start" x="40" y="4.680000000000001" style="font-family: 'Open Sans', verdana, arial, sans-serif; font-size: 12px; fill: rgb(42, 63, 95); fill-opacity: 1; white-space: pre;">Babiš Andrej</text><g class="layers" style="opacity: 1;"><g class="legendfill"/><g class="legendlines"><path class="js-line" d="M5,0h30" style="fill: none; stroke: rgb(239, 85, 59); stroke-opacity: 1; stroke-width: 5px;"/></g><g class="legendsymbols"><g class="legendpoints"/></g></g><rect class="legendtoggle" x="0" y="-9.5" width="116.359375" height="19" style="fill: rgb(0, 0, 0); fill-opacity: 0;"/></g></g></g><rect class="scrollbar" rx="20" ry="3" width="0" height="0" style="fill: rgb(128, 139, 164); fill-opacity: 1;" x="0" y="0"/></g><g class="g-gtitle"/><g class="g-xtitle"/><g class="g-ytitle"/></g></svg>