<svg class="main-svg" xmlns="http://www.w3.org/2000/svg" xmlns:xlink="http://www.w3.org/1999/xlink" width="300" height="135" style="" viewBox="0 0 300 135"><rect x="0" y="0" width="300" height="135" style="fill: rgb(255, 255, 255); fill-opacity: 1;"/><defs id="defs-693bb2"><g class="clips"><clipPath id="clip693bb2xyplot" class="plotclip"><rect width="280" height="75"/></clipPath><clipPath class="axesclip" id="clip693bb2x"><rect x="10" y="0" width="280" height="135"/></clipPath><clipPath class="axesclip" id="clip693bb2y"><rect x="0" y="50" width="300" height="75"/></clipPath><clipPath class="axesclip" id="clip693bb2xy"><rect x="10" y="50" width="280" height="75"/></clipPath></g><g class="gradients"/><g class="patterns"/></defs><g class="bglayer"/><g class="layer-below"><g class="imagelayer"/><g class="shapelayer"/></g><g class="cartesianlayer"><g class="subplot xy"><g class="layer-subplot"><g class="shapelayer"/><g class="imagelayer"/></g><g class="minor-gridlayer"><g class="x"/><g class="y"/></g><g class="gridlayer"><g class="x"><path class="xgrid crisp" transform="translate(55.29,0)" d="M0,50v75" style="stroke: rgb(235, 240, 248); stroke-opacity: 1; stroke-width: 1px;"/><path class="xgrid crisp" transform="translate(139.02,0)" d="M0,50v75" style="stroke: rgb(235, 240, 248); stroke-opacity: 1; stroke-width: 1px;"/><path class="xgrid crisp" transform="translate(224.12,0)" d="M0,50v75" style="stroke: rgb(235, 240, 248); stroke-opacity: 1; stroke-width: 1px;"/></g><g class="y"><path class="ygrid crisp" transform="translate(0,109.02000000000001)" d="M10,0h280" style="stroke: rgb(235, 240, 248); stroke-opacity: 1; stroke-width: 1px;"/><path class="ygrid crisp" transform="translate(0,93.05)" d="M10,0h280" style="stroke: rgb(235, 240, 248); stroke-opacity: 1; stroke-width: 1px;"/><path class="ygrid crisp" transform="translate(0,77.07)" d="M10,0h280" style="stroke: rgb(235, 240, 248); stroke-opacity: 1; stroke-width: 1px;"/><path class="ygrid crisp" transform="translate(0,61.1)" d="M10,0h280" style="stroke: rgb(235, 240, 248); stroke-opacity: 1; stroke-width: 1px;"/></g></g><g class="zerolinelayer"><path class="yzl zl crisp" transform="translate(0,125)" d="M10,0h280" style="stroke: rgb(235, 240, 248); stroke-opacity: 1; stroke-width: 2px;"/></g><path class="xlines-below"/><path class="ylines-below"/><g class="overlines-below"/><g class="xaxislayer-below"/><g class="yaxislayer-below"/><g class="overaxes-below"/><g class="plot" transform="translate(10,50)" clip-path="url(#clip693bb2xyplot)"><g class="scatterlayer mlayer"><g class="trace scatter trace3bf0bd" style="stroke-miterlimit: 2; opacity: 1;"><g class="fills"/><g class="errorbars"/><g class="lines"><path class="js-line" d="M0,12.54L32.94,13.18L34.31,13.97L42.55,13.97L43.92,15.41L46.67,21.64L48.04,21.64L53.53,22.76L54.9,23.24L59.02,23.72L60.39,23.72L82.35,24.68L83.73,25.64L86.47,25.64L87.84,27.55L89.22,27.55L90.59,29.31L93.33,31.87L94.71,32.35L118.04,32.35L119.41,29.31L120.78,26.59L122.16,27.55L127.65,25.64L129.02,25.64L183.92,24.68L185.29,22.12L189.41,19.25L190.78,19.25L194.9,19.25L196.27,11.74L258.04,10.94L259.41,12.54L264.9,13.97L266.27,13.97L270.39,13.97L271.76,11.74L274.51,9.34L275.88,9.34L277.25,9.34L278.63,6.63L280,3.75" style="vector-effect: non-scaling-stroke; fill: none; stroke: rgb(99, 110, 250); stroke-opacity: 1; stroke-width: 5px; opacity: 1;"/></g><g class="points"/><g class="text"/></g><g class="trace scatter trace3b5610" style="stroke-miterlimit: 2; opacity: 1;"><g class="fills"/><g class="errorbars"/><g class="lines"><path class="js-line" d="M0,63.82L43.92,64.3L45.29,65.57L48.04,66.53L49.41,66.53L86.47,66.53L87.84,62.22L93.33,63.34L94.71,63.82L98.82,63.34L100.2,63.34L156.47,62.22L157.84,60.78L160.59,56.63L161.96,56.63L179.8,56.63L181.18,55.35L183.92,54.55L185.29,53.59L188.04,52.47L189.41,51.2L192.16,50.4L193.53,48.8L199.02,48.16L200.39,48L231.96,48.64L233.33,49.44L237.45,46.56L238.82,46.56L259.41,45.61L260.78,44.49L262.16,44.49L263.53,45.92L266.27,46.56L267.65,44.81L270.39,42.89L271.76,42.09L274.51,41.29L275.88,41.29L278.63,41.77L280,39.38" style="vector-effect: non-scaling-stroke; fill: none; stroke: rgb(239, 85, 59); stroke-opacity: 1; stroke-width: 5px; opacity: 1;"/></g><g class="points"/><g class="text"/></g><g class="trace scatter tracee6eb72" style="stroke-miterlimit: 2; opacity: 1;"><g class="fills"/><g class="errorbars"/><g class="lines"><path class="js-line" d="M0,34.9L82.35,34.26L83.73,32.35L86.47,32.35L87.84,30.75L89.22,30.75L90.59,27.07L93.33,19.89L94.71,17.97L105.69,17.33L107.06,16.69L118.04,16.69L119.41,17.97L122.16,21.64L123.53,21.64L183.92,22.12L185.29,23.24L189.41,23.72L190.78,23.72L193.53,24.2L194.9,23.72L197.65,29.63L199.02,30.11L205.88,31.23L207.25,32.35L210,32.98L211.37,33.62L230.59,33.62L231.96,34.9L233.33,36.18L234.71,39.85L237.45,42.89L238.82,42.89L253.92,42.89L255.29,44.81L258.04,46.56L259.41,46.08L263.53,46.56L264.9,46.56L271.76,51.68L273.14,53.59L278.63,53.59L280,55.99" style="vector-effect: non-scaling-stroke; fill: none; stroke: rgb(0, 204, 150); stroke-opacity: 1; stroke-width: 5px; opacity: 1;"/></g><g class="points"/><g class="text"/></g><g class="trace scatter trace724982" style="stroke-miterlimit: 2; opacity: 1;"><g class="fills"/><g class="errorbars"/><g class="lines"><path class="js-line" d="M0,73.56L259.41,73.56L260.78,71.8L262.16,71.8L263.53,70.53L267.65,67.17L269.02,67.01L280,66.21" style="vector-effect: non-scaling-stroke; fill: none; stroke: rgb(171, 99, 250); stroke-opacity: 1; stroke-width: 5px; opacity: 1;"/></g><g class="points"/><g class="text"/></g><g class="trace scatter trace3fc2fe" style="stroke-miterlimit: 2; opacity: 1;"><g class="fills"/><g class="errorbars"/><g class="lines"><path class="js-line" d="M0,62.86L89.22,63.34L90.59,63.66L105.69,64.3L107.06,64.3L188.04,65.26L189.41,65.57L194.9,66.53L196.27,66.85L207.25,67.01L208.63,67.01L256.67,67.49L258.04,66.21L260.78,65.1L262.16,65.1L278.63,65.89L280,67.49" style="vector-effect: non-scaling-stroke; fill: none; stroke: rgb(255, 161, 90); stroke-opacity: 1; stroke-width: 5px; opacity: 1;"/></g><g class="points"/><g class="text"/></g></g></g><g class="overplot"/><path class="xlines-above crisp" d="M0,0" style="fill: none;"/><path class="ylines-above crisp" d="M0,0" style="fill: none;"/><g class="overlines-above"/><g class="xaxislayer-above"/><g class="yaxislayer-above"/><g class="overaxes-above"/></g></g><g class="polarlayer"/><g class="smithlayer"/><g class="ternarylayer"/><g class="geolayer"/><g class="funnelarealayer"/><g class="pielayer"/><g class="iciclelayer"/><g class="treemaplayer"/><g class="sunburstlayer"/><g class="glimages"/><defs id="topdefs-693bb2"><g class="clips"/></defs><g class="layer-above"><g class="imagelayer"/><g class="shapelayer"/></g><g class="infolayer"><g class="g-gtitle"><text class="gtitle" x="15" y="25" text-anchor="start" dy="0em" style="font-family: Ubuntu, verdana, arial, sans-serif; font-size: 16px; fill: rgb(233, 84, 32); opacity: 1; font-weight: normal; white-space: pre;">Prezident/ka ČR 2023</text></g><g class="g-xtitle"/><g class="g-ytitle"/></g></svg>