<svg class="main-svg" xmlns="http://www.w3.org/2000/svg" xmlns:xlink="http://www.w3.org/1999/xlink" width="1200" height="600" style="" viewBox="0 0 1200 600"><rect x="0" y="0" width="1200" height="600" style="fill: rgb(255, 255, 255); fill-opacity: 1;"/><defs id="defs-59c8c1"><g class="clips"><clipPath id="clip59c8c1xyplot" class="plotclip"><rect width="975" height="530"/></clipPath><clipPath class="axesclip" id="clip59c8c1x"><rect x="50" y="0" width="975" height="600"/></clipPath><clipPath class="axesclip" id="clip59c8c1y"><rect x="0" y="20" width="1200" height="530"/></clipPath><clipPath class="axesclip" id="clip59c8c1xy"><rect x="50" y="20" width="975" height="530"/></clipPath></g><g class="gradients"/><g class="patterns"/></defs><g class="bglayer"/><g class="layer-below"><g class="imagelayer"/><g class="shapelayer"/></g><g class="cartesianlayer"><g class="subplot xy"><g class="layer-subplot"><g class="shapelayer"/><g class="imagelayer"/></g><g class="minor-gridlayer"><g class="x"/><g class="y"/></g><g class="gridlayer"><g class="x"><path class="xgrid crisp" transform="translate(60.09,0)" d="M0,20v530" style="stroke: rgb(235, 240, 248); stroke-opacity: 1; stroke-width: 1px;"/><path class="xgrid crisp" transform="translate(160.95,0)" d="M0,20v530" style="stroke: rgb(235, 240, 248); stroke-opacity: 1; stroke-width: 1px;"/><path class="xgrid crisp" transform="translate(265.16999999999996,0)" d="M0,20v530" style="stroke: rgb(235, 240, 248); stroke-opacity: 1; stroke-width: 1px;"/><path class="xgrid crisp" transform="translate(366.03,0)" d="M0,20v530" style="stroke: rgb(235, 240, 248); stroke-opacity: 1; stroke-width: 1px;"/><path class="xgrid crisp" transform="translate(470.26,0)" d="M0,20v530" style="stroke: rgb(235, 240, 248); stroke-opacity: 1; stroke-width: 1px;"/><path class="xgrid crisp" transform="translate(574.48,0)" d="M0,20v530" style="stroke: rgb(235, 240, 248); stroke-opacity: 1; stroke-width: 1px;"/><path class="xgrid crisp" transform="translate(675.34,0)" d="M0,20v530" style="stroke: rgb(235, 240, 248); stroke-opacity: 1; stroke-width: 1px;"/><path class="xgrid crisp" transform="translate(779.57,0)" d="M0,20v530" style="stroke: rgb(235, 240, 248); stroke-opacity: 1; stroke-width: 1px;"/><path class="xgrid crisp" transform="translate(880.43,0)" d="M0,20v530" style="stroke: rgb(235, 240, 248); stroke-opacity: 1; stroke-width: 1px;"/><path class="xgrid crisp" transform="translate(984.66,0)" d="M0,20v530" style="stroke: rgb(235, 240, 248); stroke-opacity: 1; stroke-width: 1px;"/></g><g class="y"><path class="ygrid crisp" transform="translate(0,450.49)" d="M50,0h975" style="stroke: rgb(235, 240, 248); stroke-opacity: 1; stroke-width: 1px;"/><path class="ygrid crisp" transform="translate(0,350.99)" d="M50,0h975" style="stroke: rgb(235, 240, 248); stroke-opacity: 1; stroke-width: 1px;"/><path class="ygrid crisp" transform="translate(0,251.48)" d="M50,0h975" style="stroke: rgb(235, 240, 248); stroke-opacity: 1; stroke-width: 1px;"/><path class="ygrid crisp" transform="translate(0,151.98)" d="M50,0h975" style="stroke: rgb(235, 240, 248); stroke-opacity: 1; stroke-width: 1px;"/><path class="ygrid crisp" transform="translate(0,52.47)" d="M50,0h975" style="stroke: rgb(235, 240, 248); stroke-opacity: 1; stroke-width: 1px;"/></g></g><g class="zerolinelayer"><path class="yzl zl crisp" transform="translate(0,550)" d="M50,0h975" style="stroke: rgb(235, 240, 248); stroke-opacity: 1; stroke-width: 2px;"/></g><path class="xlines-below"/><path class="ylines-below"/><g class="overlines-below"/><g class="xaxislayer-below"/><g class="yaxislayer-below"/><g class="overaxes-below"/><g class="plot" transform="translate(50,20)" clip-path="url(#clip59c8c1xyplot)"><g class="scatterlayer mlayer"><g class="trace scatter tracee4636d" style="stroke-miterlimit: 2; opacity: 1;"><g class="fills"/><g class="errorbars"/><g class="lines"><path class="js-line" d="M0,113.07L77.33,113.07L80.69,118.05L84.05,123.02L87.41,123.02L104.22,123.02L107.59,131.98L114.31,173.77L117.67,173.77L121.03,173.77L124.4,176.75L127.76,180.73L131.12,180.73L137.84,187.7L141.21,187.7L158.02,187.7L161.38,190.68L164.74,194.67L168.1,194.67L201.72,194.67L205.09,200.64L211.81,200.64L215.17,213.57L218.53,213.57L221.9,224.52L225.26,237.45L228.62,242.43L231.98,244.42L235.34,244.42L289.14,244.42L292.5,224.52L295.86,207.6L299.22,213.57L302.59,210.59L305.95,200.64L329.48,200.64L332.84,197.65L336.21,194.67L339.57,194.67L386.64,194.67L390,197.65L393.36,200.64L396.72,200.64L447.16,200.64L450.52,194.67L453.88,176.75L457.24,165.81L463.97,157.85L467.33,157.85L477.41,157.85L480.78,107.1L484.14,107.1L487.5,102.12L632.07,102.12L635.43,113.07L638.79,118.05L642.16,113.07L645.52,123.02L648.88,123.02L662.33,123.02L665.69,107.1L669.05,91.18L672.41,91.18L679.14,91.18L682.5,73.27L689.22,41.43L692.59,26.5L699.31,26.5L726.21,79.24L732.93,91.18L739.66,91.18L743.02,79.24L746.38,79.24L749.74,85.21L753.1,113.07L756.47,140.93L759.83,123.02L803.53,123.02L806.9,118.05L810.26,107.1L813.62,102.12L816.98,102.12L820.34,149.89L833.79,149.89L843.88,187.7L850.6,194.67" style="vector-effect: non-scaling-stroke; fill: none; stroke: rgb(99, 110, 250); stroke-opacity: 1; stroke-width: 5px; opacity: 1;"/></g><g class="points"/><g class="text"/></g><g class="trace scatter traced0e1bf" style="stroke-miterlimit: 2; opacity: 1;"><g class="fills"/><g class="errorbars"/><g class="lines"><path class="js-line" d="M0,455.37L16.81,455.37L20.17,458.36L107.59,458.36L110.95,466.32L114.31,473.28L117.67,473.28L211.81,473.28L215.17,444.42L218.53,444.42L221.9,446.42L225.26,448.41L228.62,452.39L231.98,455.37L235.34,452.39L248.79,452.39L252.16,448.41L255.52,444.42L258.88,444.42L383.28,444.42L386.64,434.47L390,415.57L393.36,407.61L440.43,407.61L443.79,398.65L447.16,398.65L450.52,392.68L453.88,387.71L457.24,387.71L463.97,371.79L467.33,371.79L470.69,365.82L474.05,355.86L477.41,351.88L480.78,353.87L484.14,353.87L487.5,350.89L494.22,349.89L497.59,349.89L564.83,349.89L568.19,354.87L571.55,358.85L574.91,349.89L578.28,339.94L581.64,339.94L632.07,339.94L635.43,332.98L638.79,326.01L642.16,326.01L645.52,335.96L648.88,339.94L652.24,339.94L655.6,329L658.97,316.06L662.33,316.06L669.05,305.12L672.41,305.12L679.14,305.12L682.5,308.1L689.22,270.29L692.59,270.29L699.31,270.29L726.21,309.1L729.57,316.06L732.93,316.06L739.66,316.06L743.02,321.04L746.38,321.04L749.74,319.05L753.1,308.1L756.47,285.22L780,285.22L783.36,282.23L800.17,282.23L803.53,280.24L806.9,278.25L810.26,274.27L813.62,278.25L816.98,270.29L820.34,254.37L823.71,254.37L833.79,254.37L843.88,213.57L850.6,200.64" style="vector-effect: non-scaling-stroke; fill: none; stroke: rgb(239, 85, 59); stroke-opacity: 1; stroke-width: 5px; opacity: 1;"/></g><g class="points"/><g class="text"/></g><g class="trace scatter trace33c3a4" style="stroke-miterlimit: 2; opacity: 1;"><g class="fills"/><g class="errorbars"/><g class="lines"><path class="js-line" d="M0,262.33L77.33,262.33L80.69,260.34L84.05,258.35L87.41,258.35L201.72,258.35L205.09,244.42L211.81,244.42L215.17,234.47L218.53,234.47L221.9,210.59L225.26,176.75L228.62,161.83L231.98,149.89L235.34,149.89L255.52,149.89L258.88,145.91L262.24,140.93L265.6,140.93L289.14,140.93L292.5,149.89L295.86,165.81L299.22,173.77L447.16,173.77L450.52,176.75L453.88,184.71L457.24,187.7L467.33,187.7L470.69,190.68L474.05,190.68L477.41,187.7L480.78,221.53L484.14,227.5L487.5,229.49L490.86,229.49L500.95,229.49L504.31,237.45L507.67,244.42L511.03,244.42L517.76,254.37L521.12,254.37L564.83,254.37L568.19,262.33L571.55,270.29L574.91,295.17L578.28,316.06L581.64,316.06L621.98,316.06L625.34,329L628.71,339.94L632.07,339.94L635.43,336.96L638.79,339.94L648.88,339.94L652.24,347.9L658.97,358.85L662.33,358.85L669.05,387.71L672.41,387.71L682.5,387.71L685.86,403.63L689.22,415.57L692.59,415.57L699.31,415.57L726.21,278.25L729.57,264.32L732.93,258.35L739.66,258.35L743.02,278.25L749.74,278.25L753.1,282.23L756.47,285.22L759.83,285.22L780,285.22L783.36,289.2L810.26,289.2L813.62,285.22L816.98,285.22L820.34,254.37L833.79,254.37L843.88,249.39L850.6,249.39" style="vector-effect: non-scaling-stroke; fill: none; stroke: rgb(0, 204, 150); stroke-opacity: 1; stroke-width: 5px; opacity: 1;"/></g><g class="points"/><g class="text"/></g><g class="trace scatter trace7613ab" style="stroke-miterlimit: 2; opacity: 1;"><g class="fills"/><g class="errorbars"/><g class="lines"><path class="js-line" d="M0,448.41L16.81,448.41L20.17,444.42L131.12,444.42L134.48,448.41L137.84,452.39L141.21,452.39L218.53,452.39L221.9,454.38L228.62,455.37L231.98,455.37L248.79,455.37L252.16,457.36L258.88,458.36L262.24,458.36L383.28,458.36L386.64,461.34L390,464.33L393.36,464.33L460.6,465.32L463.97,466.32L470.69,467.31L474.05,471.29L484.14,476.27L487.5,476.27L574.91,476.27L578.28,479.25L628.71,479.25L632.07,471.29L635.43,461.34L638.79,464.33L645.52,464.33L648.88,469.3L682.5,469.3L685.86,479.25L689.22,489.2L692.59,491.19L699.31,491.19L726.21,496.17L756.47,497.16L759.83,498.16L816.98,498.16L820.34,509.1L850.6,509.1" style="vector-effect: non-scaling-stroke; fill: none; stroke: rgb(171, 99, 250); stroke-opacity: 1; stroke-width: 5px; opacity: 1;"/></g><g class="points"/><g class="text"/></g><g class="trace scatter traceedea6d" style="stroke-miterlimit: 2; opacity: 1;"><g class="fills"/><g class="errorbars"/><g class="lines"><path class="js-line" d="M0,506.12L110.95,507.11L114.31,509.1L292.5,509.1L295.86,507.11L299.22,505.12L302.59,505.12L383.28,505.12L386.64,502.14L390,498.16L393.36,498.16L480.78,498.16L484.14,497.16L574.91,498.16L578.28,499.15L635.43,500.15L638.79,504.13L645.52,505.12L648.88,505.12L759.83,506.12L763.19,507.11L816.98,507.11L820.34,513.08L850.6,513.08" style="vector-effect: non-scaling-stroke; fill: none; stroke: rgb(255, 161, 90); stroke-opacity: 1; stroke-width: 5px; opacity: 1;"/></g><g class="points"/><g class="text"/></g><g class="trace scatter traceeb63fa" style="stroke-miterlimit: 2; opacity: 1;"><g class="fills"/><g class="errorbars"/><g class="lines"><path class="js-line" d="M0,491.19L104.22,491.19L107.59,476.27L110.95,469.3L114.31,469.3L121.03,469.3L124.4,466.32L127.76,464.33L131.12,464.33L137.84,458.36L141.21,458.36L161.38,457.36L164.74,454.38L168.1,452.39L171.47,452.39L211.81,452.39L215.17,455.37L221.9,455.37L225.26,458.36L228.62,465.32L231.98,469.3L242.07,469.3L245.43,466.32L248.79,464.33L252.16,465.32L255.52,466.32L258.88,465.32L265.6,464.33L268.97,464.33L279.05,464.33L282.41,461.34L285.78,458.36L289.14,458.36L292.5,458.36L295.86,466.32L299.22,473.28L302.59,473.28L326.12,473.28L329.48,471.29L332.84,469.3L336.21,469.3L383.28,469.3L386.64,473.28L390,476.27L393.36,476.27L457.24,476.27L460.6,478.26L467.33,479.25L470.69,479.25L477.41,478.26L480.78,480.25L484.14,479.25L487.5,473.28L490.86,469.3L494.22,469.3L537.93,469.3L541.29,466.32L544.66,464.33L548.02,464.33L561.47,464.33L564.83,461.34L568.19,439.45L571.55,407.61L621.98,407.61L625.34,398.65L628.71,387.71L632.07,387.71L652.24,387.71L655.6,407.61L658.97,423.53L662.33,423.53L669.05,448.41L672.41,448.41L679.14,448.41L682.5,463.33L685.86,481.24L689.22,487.21L699.31,487.21L726.21,514.08L816.98,514.08L820.34,519.05L850.6,519.05" style="vector-effect: non-scaling-stroke; fill: none; stroke: rgb(25, 211, 243); stroke-opacity: 1; stroke-width: 5px; opacity: 1;"/></g><g class="points"/><g class="text"/></g></g></g><g class="overplot"/><path class="xlines-above crisp" d="M0,0" style="fill: none;"/><path class="ylines-above crisp" d="M0,0" style="fill: none;"/><g class="overlines-above"/><g class="xaxislayer-above"><g class="xtick"><text text-anchor="middle" x="0" y="563" transform="translate(60.09,0)" style="font-family: 'Open Sans', verdana, arial, sans-serif; font-size: 12px; fill: rgb(42, 63, 95); fill-opacity: 1; white-space: pre; opacity: 1;">1.4.22</text></g><g class="xtick"><text text-anchor="middle" x="0" y="563" style="font-family: 'Open Sans', verdana, arial, sans-serif; font-size: 12px; fill: rgb(42, 63, 95); fill-opacity: 1; white-space: pre; opacity: 1;" transform="translate(160.95,0)">1.5.22</text></g><g class="xtick"><text text-anchor="middle" x="0" y="563" style="font-family: 'Open Sans', verdana, arial, sans-serif; font-size: 12px; fill: rgb(42, 63, 95); fill-opacity: 1; white-space: pre; opacity: 1;" transform="translate(265.16999999999996,0)">1.6.22</text></g><g class="xtick"><text text-anchor="middle" x="0" y="563" style="font-family: 'Open Sans', verdana, arial, sans-serif; font-size: 12px; fill: rgb(42, 63, 95); fill-opacity: 1; white-space: pre; opacity: 1;" transform="translate(366.03,0)">1.7.22</text></g><g class="xtick"><text text-anchor="middle" x="0" y="563" style="font-family: 'Open Sans', verdana, arial, sans-serif; font-size: 12px; fill: rgb(42, 63, 95); fill-opacity: 1; white-space: pre; opacity: 1;" transform="translate(470.26,0)">1.8.22</text></g><g class="xtick"><text text-anchor="middle" x="0" y="563" style="font-family: 'Open Sans', verdana, arial, sans-serif; font-size: 12px; fill: rgb(42, 63, 95); fill-opacity: 1; white-space: pre; opacity: 1;" transform="translate(574.48,0)">1.9.22</text></g><g class="xtick"><text text-anchor="middle" x="0" y="563" style="font-family: 'Open Sans', verdana, arial, sans-serif; font-size: 12px; fill: rgb(42, 63, 95); fill-opacity: 1; white-space: pre; opacity: 1;" transform="translate(675.34,0)">1.10.22</text></g><g class="xtick"><text text-anchor="middle" x="0" y="563" style="font-family: 'Open Sans', verdana, arial, sans-serif; font-size: 12px; fill: rgb(42, 63, 95); fill-opacity: 1; white-space: pre; opacity: 1;" transform="translate(779.57,0)">1.11.22</text></g><g class="xtick"><text text-anchor="middle" x="0" y="563" style="font-family: 'Open Sans', verdana, arial, sans-serif; font-size: 12px; fill: rgb(42, 63, 95); fill-opacity: 1; white-space: pre; opacity: 1;" transform="translate(880.43,0)">1.12.22</text></g><g class="xtick"><text text-anchor="middle" x="0" y="563" style="font-family: 'Open Sans', verdana, arial, sans-serif; font-size: 12px; fill: rgb(42, 63, 95); fill-opacity: 1; white-space: pre; opacity: 1;" transform="translate(984.66,0)">1.1.23</text></g></g><g class="yaxislayer-above"><g class="ytick"><text text-anchor="end" x="49" y="4.199999999999999" transform="translate(0,550)" style="font-family: 'Open Sans', verdana, arial, sans-serif; font-size: 12px; fill: rgb(42, 63, 95); fill-opacity: 1; white-space: pre; opacity: 1;">0%</text></g><g class="ytick"><text text-anchor="end" x="49" y="4.199999999999999" style="font-family: 'Open Sans', verdana, arial, sans-serif; font-size: 12px; fill: rgb(42, 63, 95); fill-opacity: 1; white-space: pre; opacity: 1;" transform="translate(0,450.49)">10%</text></g><g class="ytick"><text text-anchor="end" x="49" y="4.199999999999999" style="font-family: 'Open Sans', verdana, arial, sans-serif; font-size: 12px; fill: rgb(42, 63, 95); fill-opacity: 1; white-space: pre; opacity: 1;" transform="translate(0,350.99)">20%</text></g><g class="ytick"><text text-anchor="end" x="49" y="4.199999999999999" style="font-family: 'Open Sans', verdana, arial, sans-serif; font-size: 12px; fill: rgb(42, 63, 95); fill-opacity: 1; white-space: pre; opacity: 1;" transform="translate(0,251.48)">30%</text></g><g class="ytick"><text text-anchor="end" x="49" y="4.199999999999999" style="font-family: 'Open Sans', verdana, arial, sans-serif; font-size: 12px; fill: rgb(42, 63, 95); fill-opacity: 1; white-space: pre; opacity: 1;" transform="translate(0,151.98)">40%</text></g><g class="ytick"><text text-anchor="end" x="49" y="4.199999999999999" style="font-family: 'Open Sans', verdana, arial, sans-serif; font-size: 12px; fill: rgb(42, 63, 95); fill-opacity: 1; white-space: pre; opacity: 1;" transform="translate(0,52.47)">50%</text></g></g><g class="overaxes-above"/></g></g><g class="polarlayer"/><g class="smithlayer"/><g class="ternarylayer"/><g class="geolayer"/><g class="funnelarealayer"/><g class="pielayer"/><g class="iciclelayer"/><g class="treemaplayer"/><g class="sunburstlayer"/><g class="glimages"/><defs id="topdefs-59c8c1"><g class="clips"/><clipPath id="legend59c8c1"><rect width="143" height="124" x="0" y="0"/></clipPath></defs><g class="layer-above"><g class="imagelayer"/><g class="shapelayer"/></g><g class="infolayer"><g class="legend" pointer-events="all" transform="translate(1044.5,20)"><rect class="bg" shape-rendering="crispEdges" style="stroke: rgb(68, 68, 68); stroke-opacity: 1; fill: rgb(255, 255, 255); fill-opacity: 1; stroke-width: 0px;" width="143" height="124" x="0" y="0"/><g class="scrollbox" transform="" clip-path="url(#legend59c8c1)"><g class="groups"><g class="traces" transform="translate(0,14.5)" style="opacity: 1;"><text class="legendtext" text-anchor="start" x="40" y="4.680000000000001" style="font-family: 'Open Sans', verdana, arial, sans-serif; font-size: 12px; fill: rgb(42, 63, 95); fill-opacity: 1; white-space: pre;">Pavel Petr</text><g class="layers" style="opacity: 1;"><g class="legendfill"/><g class="legendlines"><path class="js-line" d="M5,0h30" style="fill: none; stroke: rgb(99, 110, 250); stroke-opacity: 1; stroke-width: 5px;"/></g><g class="legendsymbols"><g class="legendpoints"/></g></g><rect class="legendtoggle" x="0" y="-9.5" width="137.0625" height="19" style="fill: rgb(0, 0, 0); fill-opacity: 0;"/></g><g class="traces" transform="translate(0,33.5)" style="opacity: 1;"><text class="legendtext" text-anchor="start" x="40" y="4.680000000000001" style="font-family: 'Open Sans', verdana, arial, sans-serif; font-size: 12px; fill: rgb(42, 63, 95); fill-opacity: 1; white-space: pre;">Nerudová Danuše</text><g class="layers" style="opacity: 1;"><g class="legendfill"/><g class="legendlines"><path class="js-line" d="M5,0h30" style="fill: none; stroke: rgb(239, 85, 59); stroke-opacity: 1; stroke-width: 5px;"/></g><g class="legendsymbols"><g class="legendpoints"/></g></g><rect class="legendtoggle" x="0" y="-9.5" width="137.0625" height="19" style="fill: rgb(0, 0, 0); fill-opacity: 0;"/></g><g class="traces" transform="translate(0,52.5)" style="opacity: 1;"><text class="legendtext" text-anchor="start" x="40" y="4.680000000000001" style="font-family: 'Open Sans', verdana, arial, sans-serif; font-size: 12px; fill: rgb(42, 63, 95); fill-opacity: 1; white-space: pre;">Babiš Andrej</text><g class="layers" style="opacity: 1;"><g class="legendfill"/><g class="legendlines"><path class="js-line" d="M5,0h30" style="fill: none; stroke: rgb(0, 204, 150); stroke-opacity: 1; stroke-width: 5px;"/></g><g class="legendsymbols"><g class="legendpoints"/></g></g><rect class="legendtoggle" x="0" y="-9.5" width="137.0625" height="19" style="fill: rgb(0, 0, 0); fill-opacity: 0;"/></g><g class="traces" transform="translate(0,71.5)" style="opacity: 1;"><text class="legendtext" text-anchor="start" x="40" y="4.680000000000001" style="font-family: 'Open Sans', verdana, arial, sans-serif; font-size: 12px; fill: rgb(42, 63, 95); fill-opacity: 1; white-space: pre;">Fischer Pavel</text><g class="layers" style="opacity: 1;"><g class="legendfill"/><g class="legendlines"><path class="js-line" d="M5,0h30" style="fill: none; stroke: rgb(171, 99, 250); stroke-opacity: 1; stroke-width: 5px;"/></g><g class="legendsymbols"><g class="legendpoints"/></g></g><rect class="legendtoggle" x="0" y="-9.5" width="137.0625" height="19" style="fill: rgb(0, 0, 0); fill-opacity: 0;"/></g><g class="traces" transform="translate(0,90.5)" style="opacity: 1;"><text class="legendtext" text-anchor="start" x="40" y="4.680000000000001" style="font-family: 'Open Sans', verdana, arial, sans-serif; font-size: 12px; fill: rgb(42, 63, 95); fill-opacity: 1; white-space: pre;">Hilšer Marek</text><g class="layers" style="opacity: 1;"><g class="legendfill"/><g class="legendlines"><path class="js-line" d="M5,0h30" style="fill: none; stroke: rgb(255, 161, 90); stroke-opacity: 1; stroke-width: 5px;"/></g><g class="legendsymbols"><g class="legendpoints"/></g></g><rect class="legendtoggle" x="0" y="-9.5" width="137.0625" height="19" style="fill: rgb(0, 0, 0); fill-opacity: 0;"/></g><g class="traces" transform="translate(0,109.5)" style="opacity: 1;"><text class="legendtext" text-anchor="start" x="40" y="4.680000000000001" style="font-family: 'Open Sans', verdana, arial, sans-serif; font-size: 12px; fill: rgb(42, 63, 95); fill-opacity: 1; white-space: pre;">Středula Josef</text><g class="layers" style="opacity: 1;"><g class="legendfill"/><g class="legendlines"><path class="js-line" d="M5,0h30" style="fill: none; stroke: rgb(25, 211, 243); stroke-opacity: 1; stroke-width: 5px;"/></g><g class="legendsymbols"><g class="legendpoints"/></g></g><rect class="legendtoggle" x="0" y="-9.5" width="137.0625" height="19" style="fill: rgb(0, 0, 0); fill-opacity: 0;"/></g></g></g><rect class="scrollbar" rx="20" ry="3" width="0" height="0" style="fill: rgb(128, 139, 164); fill-opacity: 1;" x="0" y="0"/></g><g class="g-gtitle"/><g class="g-xtitle"/><g class="g-ytitle"/></g></svg>