<svg class="main-svg" xmlns="http://www.w3.org/2000/svg" xmlns:xlink="http://www.w3.org/1999/xlink" width="1200" height="600" style="" viewBox="0 0 1200 600"><rect x="0" y="0" width="1200" height="600" style="fill: rgb(255, 255, 255); fill-opacity: 1;"/><defs id="defs-9e7e1f"><g class="clips"><clipPath id="clip9e7e1fxyplot" class="plotclip"><rect width="975" height="530"/></clipPath><clipPath class="axesclip" id="clip9e7e1fx"><rect x="50" y="0" width="975" height="600"/></clipPath><clipPath class="axesclip" id="clip9e7e1fy"><rect x="0" y="20" width="1200" height="530"/></clipPath><clipPath class="axesclip" id="clip9e7e1fxy"><rect x="50" y="20" width="975" height="530"/></clipPath></g><g class="gradients"/><g class="patterns"/></defs><g class="bglayer"/><g class="layer-below"><g class="imagelayer"/><g class="shapelayer"/></g><g class="cartesianlayer"><g class="subplot xy"><g class="layer-subplot"><g class="shapelayer"/><g class="imagelayer"/></g><g class="minor-gridlayer"><g class="x"/><g class="y"/></g><g class="gridlayer"><g class="x"><path class="xgrid crisp" transform="translate(60.09,0)" d="M0,20v530" style="stroke: rgb(235, 240, 248); stroke-opacity: 1; stroke-width: 1px;"/><path class="xgrid crisp" transform="translate(160.95,0)" d="M0,20v530" style="stroke: rgb(235, 240, 248); stroke-opacity: 1; stroke-width: 1px;"/><path class="xgrid crisp" transform="translate(265.16999999999996,0)" d="M0,20v530" style="stroke: rgb(235, 240, 248); stroke-opacity: 1; stroke-width: 1px;"/><path class="xgrid crisp" transform="translate(366.03,0)" d="M0,20v530" style="stroke: rgb(235, 240, 248); stroke-opacity: 1; stroke-width: 1px;"/><path class="xgrid crisp" transform="translate(470.26,0)" d="M0,20v530" style="stroke: rgb(235, 240, 248); stroke-opacity: 1; stroke-width: 1px;"/><path class="xgrid crisp" transform="translate(574.48,0)" d="M0,20v530" style="stroke: rgb(235, 240, 248); stroke-opacity: 1; stroke-width: 1px;"/><path class="xgrid crisp" transform="translate(675.34,0)" d="M0,20v530" style="stroke: rgb(235, 240, 248); stroke-opacity: 1; stroke-width: 1px;"/><path class="xgrid crisp" transform="translate(779.57,0)" d="M0,20v530" style="stroke: rgb(235, 240, 248); stroke-opacity: 1; stroke-width: 1px;"/><path class="xgrid crisp" transform="translate(880.43,0)" d="M0,20v530" style="stroke: rgb(235, 240, 248); stroke-opacity: 1; stroke-width: 1px;"/><path class="xgrid crisp" transform="translate(984.66,0)" d="M0,20v530" style="stroke: rgb(235, 240, 248); stroke-opacity: 1; stroke-width: 1px;"/></g><g class="y"><path class="ygrid crisp" transform="translate(0,464.81)" d="M50,0h975" style="stroke: rgb(235, 240, 248); stroke-opacity: 1; stroke-width: 1px;"/><path class="ygrid crisp" transform="translate(0,379.61)" d="M50,0h975" style="stroke: rgb(235, 240, 248); stroke-opacity: 1; stroke-width: 1px;"/><path class="ygrid crisp" transform="translate(0,294.42)" d="M50,0h975" style="stroke: rgb(235, 240, 248); stroke-opacity: 1; stroke-width: 1px;"/><path class="ygrid crisp" transform="translate(0,209.22)" d="M50,0h975" style="stroke: rgb(235, 240, 248); stroke-opacity: 1; stroke-width: 1px;"/><path class="ygrid crisp" transform="translate(0,124.03)" d="M50,0h975" style="stroke: rgb(235, 240, 248); stroke-opacity: 1; stroke-width: 1px;"/><path class="ygrid crisp" transform="translate(0,38.83)" d="M50,0h975" style="stroke: rgb(235, 240, 248); stroke-opacity: 1; stroke-width: 1px;"/></g></g><g class="zerolinelayer"><path class="yzl zl crisp" transform="translate(0,550)" d="M50,0h975" style="stroke: rgb(235, 240, 248); stroke-opacity: 1; stroke-width: 2px;"/></g><path class="xlines-below"/><path class="ylines-below"/><g class="overlines-below"/><g class="xaxislayer-below"/><g class="yaxislayer-below"/><g class="overaxes-below"/><g class="plot" transform="translate(50,20)" clip-path="url(#clip9e7e1fxyplot)"><g class="scatterlayer mlayer"><g class="trace scatter tracec4defa" style="stroke-miterlimit: 2; opacity: 1;"><g class="fills"/><g class="errorbars"/><g class="lines"><path class="js-line" d="M0,137.25L77.33,137.25L80.69,141.51L84.05,146.62L87.41,146.62L104.22,146.62L107.59,155.14L114.31,194.33L117.67,194.33L121.03,194.33L124.4,197.74L127.76,201.15L131.12,201.15L137.84,207.96L141.21,207.96L158.02,207.96L161.38,211.37L164.74,213.93L168.1,213.93L201.72,213.93L205.09,219.89L211.81,219.89L215.17,231.82L218.53,231.82L221.9,242.04L225.26,254.82L228.62,259.08L231.98,261.64L235.34,261.64L289.14,261.64L292.5,242.04L295.86,225.86L299.22,231.82L302.59,229.26L305.95,219.89L329.48,219.89L332.84,217.34L336.21,213.93L339.57,213.93L386.64,213.93L390,217.34L393.36,219.89L396.72,219.89L447.16,219.89L450.52,213.93L457.24,187.52L460.6,183.26L463.97,179.85L467.33,179.85L477.41,179.85L480.78,132.14L484.14,132.14L487.5,127.03L632.07,127.03L635.43,137.25L638.79,141.51L642.16,137.25L645.52,146.62L648.88,146.62L662.33,146.62L665.69,132.14L669.05,116.81L672.41,116.81L679.14,116.81L682.5,100.62L689.22,69.95L692.59,56.32L699.31,56.32L726.21,105.73L732.93,116.81L739.66,116.81L743.02,105.73L746.38,105.73L749.74,111.69L753.1,137.25L756.47,163.66L759.83,146.62L803.53,146.62L806.9,141.51L810.26,132.14L813.62,127.03L816.98,127.03L820.34,172.18L833.79,172.18L843.88,207.96L850.6,213.93L853.97,213.93L860.69,261.64L864.05,261.64L874.14,261.64L877.5,252.27L880.86,261.64L884.22,261.64L887.59,265.9L890.95,247.15L894.31,236.93L897.67,219.89L901.03,194.33L904.4,194.33L927.93,194.33L931.29,179.85L934.66,179.85L938.02,167.92L941.38,155.14L944.74,155.14L948.1,155.14L951.47,94.66L954.83,82.73L958.19,82.73L961.55,59.73L964.91,26.5L968.28,26.5" style="vector-effect: non-scaling-stroke; fill: none; stroke: rgb(99, 110, 250); stroke-opacity: 1; stroke-width: 5px; opacity: 1;"/></g><g class="points"/><g class="text"/></g><g class="trace scatter tracee4b3bb" style="stroke-miterlimit: 2; opacity: 1;"><g class="fills"/><g class="errorbars"/><g class="lines"><path class="js-line" d="M0,278.68L77.33,278.68L80.69,276.12L84.05,274.42L87.41,274.42L201.72,274.42L205.09,261.64L211.81,261.64L215.17,252.27L218.53,252.27L221.9,229.26L225.26,197.74L228.62,183.26L231.98,172.18L235.34,172.18L255.52,172.18L258.88,167.92L262.24,163.66L265.6,163.66L289.14,163.66L292.5,172.18L295.86,187.52L299.22,194.33L447.16,194.33L450.52,197.74L453.88,204.56L457.24,207.96L467.33,207.96L470.69,211.37L474.05,211.37L477.41,207.96L480.78,239.49L484.14,244.6L487.5,247.15L490.86,247.15L500.95,247.15L504.31,254.82L507.67,261.64L511.03,261.64L517.76,270.16L521.12,270.16L564.83,270.16L568.19,278.68L571.55,285.49L574.91,309.35L578.28,328.94L581.64,328.94L621.98,328.94L625.34,340.87L628.71,351.09L632.07,351.09L635.43,347.68L638.79,351.09L648.88,351.09L652.24,358.76L658.97,368.98L662.33,368.98L669.05,395.39L672.41,395.39L682.5,395.39L685.86,410.73L689.22,422.65L692.59,422.65L699.31,422.65L726.21,293.16L729.57,280.38L732.93,274.42L739.66,274.42L743.02,293.16L749.74,293.16L753.1,296.57L756.47,299.97L759.83,299.97L780,299.97L783.36,303.38L803.53,303.38L806.9,305.09L810.26,303.38L813.62,299.97L816.98,299.97L820.34,270.16L833.79,270.16L843.88,265.9L853.97,265.9L857.33,288.05L860.69,311.9L864.05,311.9L880.86,311.9L884.22,317.87L894.31,317.87L897.67,323.83L901.03,328.94L904.4,328.94L927.93,328.94L931.29,338.31L934.66,338.31L938.02,335.76L941.38,333.2L944.74,333.2L948.1,333.2L951.47,351.09L958.19,351.09L961.55,290.6L964.91,282.08L968.28,282.08" style="vector-effect: non-scaling-stroke; fill: none; stroke: rgb(239, 85, 59); stroke-opacity: 1; stroke-width: 5px; opacity: 1;"/></g><g class="points"/><g class="text"/></g><g class="trace scatter trace7a00a1" style="stroke-miterlimit: 2; opacity: 1;"><g class="fills"/><g class="errorbars"/><g class="lines"><path class="js-line" d="M0,460.14L16.81,460.14L20.17,462.7L107.59,462.7L110.95,470.36L114.31,476.33L117.67,476.33L211.81,476.33L215.17,449.07L218.53,449.07L221.9,451.62L225.26,453.32L228.62,456.73L231.98,460.14L235.34,456.73L248.79,456.73L252.16,453.32L255.52,449.07L258.88,449.07L383.28,449.07L386.64,440.55L390,422.65L393.36,414.99L440.43,414.99L443.79,406.47L447.16,406.47L450.52,401.36L453.88,395.39L457.24,395.39L463.97,380.91L467.33,380.91L470.69,374.95L474.05,365.57L477.41,362.17L480.78,363.87L484.14,363.87L487.5,361.31L494.22,360.46L497.59,360.46L564.83,360.46L568.19,364.72L571.55,368.98L574.91,360.46L578.28,351.09L581.64,351.09L632.07,351.09L635.43,345.13L638.79,338.31L642.16,338.31L645.52,346.83L648.88,351.09L652.24,351.09L655.6,340.87L658.97,328.94L662.33,328.94L669.05,317.87L672.41,317.87L679.14,317.87L682.5,320.42L685.86,305.94L689.22,285.49L699.31,285.49L726.21,321.27L729.57,328.94L732.93,328.94L739.66,328.94L743.02,333.2L746.38,333.2L749.74,331.5L753.1,320.42L756.47,299.97L780,299.97L783.36,296.57L800.17,296.57L803.53,294.86L806.9,293.16L810.26,289.75L813.62,293.16L816.98,285.49L820.34,270.16L823.71,270.16L833.79,270.16L843.88,231.82L850.6,219.89L853.97,219.89L860.69,137.25L864.05,137.25L874.14,137.25L877.5,146.62L884.22,127.03L887.59,127.03L897.67,179.85L901.03,194.33L927.93,194.33L931.29,207.96L934.66,207.96L938.02,219.89L941.38,231.82L944.74,231.82L948.1,231.82L951.47,285.49L954.83,299.97L958.19,299.97L961.55,385.17L964.91,429.47L968.28,429.47" style="vector-effect: non-scaling-stroke; fill: none; stroke: rgb(0, 204, 150); stroke-opacity: 1; stroke-width: 5px; opacity: 1;"/></g><g class="points"/><g class="text"/></g></g></g><g class="overplot"/><path class="xlines-above crisp" d="M0,0" style="fill: none;"/><path class="ylines-above crisp" d="M0,0" style="fill: none;"/><g class="overlines-above"/><g class="xaxislayer-above"><g class="xtick"><text text-anchor="middle" x="0" y="563" transform="translate(60.09,0)" style="font-family: 'Open Sans', verdana, arial, sans-serif; font-size: 12px; fill: rgb(42, 63, 95); fill-opacity: 1; white-space: pre; opacity: 1;">1.4.22</text></g><g class="xtick"><text text-anchor="middle" x="0" y="563" style="font-family: 'Open Sans', verdana, arial, sans-serif; font-size: 12px; fill: rgb(42, 63, 95); fill-opacity: 1; white-space: pre; opacity: 1;" transform="translate(160.95,0)">1.5.22</text></g><g class="xtick"><text text-anchor="middle" x="0" y="563" style="font-family: 'Open Sans', verdana, arial, sans-serif; font-size: 12px; fill: rgb(42, 63, 95); fill-opacity: 1; white-space: pre; opacity: 1;" transform="translate(265.16999999999996,0)">1.6.22</text></g><g class="xtick"><text text-anchor="middle" x="0" y="563" style="font-family: 'Open Sans', verdana, arial, sans-serif; font-size: 12px; fill: rgb(42, 63, 95); fill-opacity: 1; white-space: pre; opacity: 1;" transform="translate(366.03,0)">1.7.22</text></g><g class="xtick"><text text-anchor="middle" x="0" y="563" style="font-family: 'Open Sans', verdana, arial, sans-serif; font-size: 12px; fill: rgb(42, 63, 95); fill-opacity: 1; white-space: pre; opacity: 1;" transform="translate(470.26,0)">1.8.22</text></g><g class="xtick"><text text-anchor="middle" x="0" y="563" style="font-family: 'Open Sans', verdana, arial, sans-serif; font-size: 12px; fill: rgb(42, 63, 95); fill-opacity: 1; white-space: pre; opacity: 1;" transform="translate(574.48,0)">1.9.22</text></g><g class="xtick"><text text-anchor="middle" x="0" y="563" style="font-family: 'Open Sans', verdana, arial, sans-serif; font-size: 12px; fill: rgb(42, 63, 95); fill-opacity: 1; white-space: pre; opacity: 1;" transform="translate(675.34,0)">1.10.22</text></g><g class="xtick"><text text-anchor="middle" x="0" y="563" style="font-family: 'Open Sans', verdana, arial, sans-serif; font-size: 12px; fill: rgb(42, 63, 95); fill-opacity: 1; white-space: pre; opacity: 1;" transform="translate(779.57,0)">1.11.22</text></g><g class="xtick"><text text-anchor="middle" x="0" y="563" style="font-family: 'Open Sans', verdana, arial, sans-serif; font-size: 12px; fill: rgb(42, 63, 95); fill-opacity: 1; white-space: pre; opacity: 1;" transform="translate(880.43,0)">1.12.22</text></g><g class="xtick"><text text-anchor="middle" x="0" y="563" style="font-family: 'Open Sans', verdana, arial, sans-serif; font-size: 12px; fill: rgb(42, 63, 95); fill-opacity: 1; white-space: pre; opacity: 1;" transform="translate(984.66,0)">1.1.23</text></g></g><g class="yaxislayer-above"><g class="ytick"><text text-anchor="end" x="49" y="4.199999999999999" transform="translate(0,550)" style="font-family: 'Open Sans', verdana, arial, sans-serif; font-size: 12px; fill: rgb(42, 63, 95); fill-opacity: 1; white-space: pre; opacity: 1;">0%</text></g><g class="ytick"><text text-anchor="end" x="49" y="4.199999999999999" style="font-family: 'Open Sans', verdana, arial, sans-serif; font-size: 12px; fill: rgb(42, 63, 95); fill-opacity: 1; white-space: pre; opacity: 1;" transform="translate(0,464.81)">10%</text></g><g class="ytick"><text text-anchor="end" x="49" y="4.199999999999999" style="font-family: 'Open Sans', verdana, arial, sans-serif; font-size: 12px; fill: rgb(42, 63, 95); fill-opacity: 1; white-space: pre; opacity: 1;" transform="translate(0,379.61)">20%</text></g><g class="ytick"><text text-anchor="end" x="49" y="4.199999999999999" style="font-family: 'Open Sans', verdana, arial, sans-serif; font-size: 12px; fill: rgb(42, 63, 95); fill-opacity: 1; white-space: pre; opacity: 1;" transform="translate(0,294.42)">30%</text></g><g class="ytick"><text text-anchor="end" x="49" y="4.199999999999999" style="font-family: 'Open Sans', verdana, arial, sans-serif; font-size: 12px; fill: rgb(42, 63, 95); fill-opacity: 1; white-space: pre; opacity: 1;" transform="translate(0,209.22)">40%</text></g><g class="ytick"><text text-anchor="end" x="49" y="4.199999999999999" style="font-family: 'Open Sans', verdana, arial, sans-serif; font-size: 12px; fill: rgb(42, 63, 95); fill-opacity: 1; white-space: pre; opacity: 1;" transform="translate(0,124.03)">50%</text></g><g class="ytick"><text text-anchor="end" x="49" y="4.199999999999999" style="font-family: 'Open Sans', verdana, arial, sans-serif; font-size: 12px; fill: rgb(42, 63, 95); fill-opacity: 1; white-space: pre; opacity: 1;" transform="translate(0,38.83)">60%</text></g></g><g class="overaxes-above"/></g></g><g class="polarlayer"/><g class="smithlayer"/><g class="ternarylayer"/><g class="geolayer"/><g class="funnelarealayer"/><g class="pielayer"/><g class="iciclelayer"/><g class="treemaplayer"/><g class="sunburstlayer"/><g class="glimages"/><defs id="topdefs-9e7e1f"><g class="clips"/><clipPath id="legend9e7e1f"><rect width="143" height="67" x="0" y="0"/></clipPath></defs><g class="layer-above"><g class="imagelayer"/><g class="shapelayer"/></g><g class="infolayer"><g class="legend" pointer-events="all" transform="translate(1044.5,20)"><rect class="bg" shape-rendering="crispEdges" style="stroke: rgb(68, 68, 68); stroke-opacity: 1; fill: rgb(255, 255, 255); fill-opacity: 1; stroke-width: 0px;" width="143" height="67" x="0" y="0"/><g class="scrollbox" transform="" clip-path="url(#legend9e7e1f)"><g class="groups"><g class="traces" transform="translate(0,14.5)" style="opacity: 1;"><text class="legendtext" text-anchor="start" x="40" y="4.680000000000001" style="font-family: 'Open Sans', verdana, arial, sans-serif; font-size: 12px; fill: rgb(42, 63, 95); fill-opacity: 1; white-space: pre;">Pavel Petr</text><g class="layers" style="opacity: 1;"><g class="legendfill"/><g class="legendlines"><path class="js-line" d="M5,0h30" style="fill: none; stroke: rgb(99, 110, 250); stroke-opacity: 1; stroke-width: 5px;"/></g><g class="legendsymbols"><g class="legendpoints"/></g></g><rect class="legendtoggle" x="0" y="-9.5" width="137.0625" height="19" style="fill: rgb(0, 0, 0); fill-opacity: 0;"/></g><g class="traces" transform="translate(0,33.5)" style="opacity: 1;"><text class="legendtext" text-anchor="start" x="40" y="4.680000000000001" style="font-family: 'Open Sans', verdana, arial, sans-serif; font-size: 12px; fill: rgb(42, 63, 95); fill-opacity: 1; white-space: pre;">Babiš Andrej</text><g class="layers" style="opacity: 1;"><g class="legendfill"/><g class="legendlines"><path class="js-line" d="M5,0h30" style="fill: none; stroke: rgb(239, 85, 59); stroke-opacity: 1; stroke-width: 5px;"/></g><g class="legendsymbols"><g class="legendpoints"/></g></g><rect class="legendtoggle" x="0" y="-9.5" width="137.0625" height="19" style="fill: rgb(0, 0, 0); fill-opacity: 0;"/></g><g class="traces" transform="translate(0,52.5)" style="opacity: 1;"><text class="legendtext" text-anchor="start" x="40" y="4.680000000000001" style="font-family: 'Open Sans', verdana, arial, sans-serif; font-size: 12px; fill: rgb(42, 63, 95); fill-opacity: 1; white-space: pre;">Nerudová Danuše</text><g class="layers" style="opacity: 1;"><g class="legendfill"/><g class="legendlines"><path class="js-line" d="M5,0h30" style="fill: none; stroke: rgb(0, 204, 150); stroke-opacity: 1; stroke-width: 5px;"/></g><g class="legendsymbols"><g class="legendpoints"/></g></g><rect class="legendtoggle" x="0" y="-9.5" width="137.0625" height="19" style="fill: rgb(0, 0, 0); fill-opacity: 0;"/></g></g></g><rect class="scrollbar" rx="20" ry="3" width="0" height="0" style="fill: rgb(128, 139, 164); fill-opacity: 1;" x="0" y="0"/></g><g class="g-gtitle"/><g class="g-xtitle"/><g class="g-ytitle"/></g></svg>