<svg class="main-svg" xmlns="http://www.w3.org/2000/svg" xmlns:xlink="http://www.w3.org/1999/xlink" width="300" height="135" style="" viewBox="0 0 300 135"><rect x="0" y="0" width="300" height="135" style="fill: rgb(255, 255, 255); fill-opacity: 1;"/><defs id="defs-049957"><g class="clips"><clipPath id="clip049957xyplot" class="plotclip"><rect width="280" height="75"/></clipPath><clipPath class="axesclip" id="clip049957x"><rect x="10" y="0" width="280" height="135"/></clipPath><clipPath class="axesclip" id="clip049957y"><rect x="0" y="50" width="300" height="75"/></clipPath><clipPath class="axesclip" id="clip049957xy"><rect x="10" y="50" width="280" height="75"/></clipPath></g><g class="gradients"/><g class="patterns"/></defs><g class="bglayer"/><g class="layer-below"><g class="imagelayer"/><g class="shapelayer"/></g><g class="cartesianlayer"><g class="subplot xy"><g class="layer-subplot"><g class="shapelayer"/><g class="imagelayer"/></g><g class="minor-gridlayer"><g class="x"/><g class="y"/></g><g class="gridlayer"><g class="x"><path class="xgrid crisp" transform="translate(41.64,0)" d="M0,50v75" style="stroke: rgb(235, 240, 248); stroke-opacity: 1; stroke-width: 1px;"/><path class="xgrid crisp" transform="translate(100.14,0)" d="M0,50v75" style="stroke: rgb(235, 240, 248); stroke-opacity: 1; stroke-width: 1px;"/><path class="xgrid crisp" transform="translate(159.59,0)" d="M0,50v75" style="stroke: rgb(235, 240, 248); stroke-opacity: 1; stroke-width: 1px;"/><path class="xgrid crisp" transform="translate(218.08,0)" d="M0,50v75" style="stroke: rgb(235, 240, 248); stroke-opacity: 1; stroke-width: 1px;"/><path class="xgrid crisp" transform="translate(276.58,0)" d="M0,50v75" style="stroke: rgb(235, 240, 248); stroke-opacity: 1; stroke-width: 1px;"/></g><g class="y"><path class="ygrid crisp" transform="translate(0,108.22)" d="M10,0h280" style="stroke: rgb(235, 240, 248); stroke-opacity: 1; stroke-width: 1px;"/><path class="ygrid crisp" transform="translate(0,91.43)" d="M10,0h280" style="stroke: rgb(235, 240, 248); stroke-opacity: 1; stroke-width: 1px;"/><path class="ygrid crisp" transform="translate(0,74.65)" d="M10,0h280" style="stroke: rgb(235, 240, 248); stroke-opacity: 1; stroke-width: 1px;"/><path class="ygrid crisp" transform="translate(0,57.86)" d="M10,0h280" style="stroke: rgb(235, 240, 248); stroke-opacity: 1; stroke-width: 1px;"/></g></g><g class="zerolinelayer"><path class="yzl zl crisp" transform="translate(0,125)" d="M10,0h280" style="stroke: rgb(235, 240, 248); stroke-opacity: 1; stroke-width: 2px;"/></g><path class="xlines-below"/><path class="ylines-below"/><g class="overlines-below"/><g class="xaxislayer-below"/><g class="yaxislayer-below"/><g class="overaxes-below"/><g class="plot" transform="translate(10,50)" clip-path="url(#clip049957xyplot)"><g class="scatterlayer mlayer"><g class="trace scatter trace006f1f" style="stroke-miterlimit: 2; opacity: 1;"><g class="fills"/><g class="errorbars"/><g class="lines"><path class="js-line" d="M0,35.98L29.73,36.9L30.68,37.82L33.56,41.68L34.52,41.68L41.23,43.03L42.19,43.03L60.41,44.28L61.37,45.38L63.29,46.47L64.25,47.64L68.08,48.31L69.04,48.31L82.47,48.31L83.42,46.47L84.38,44.79L85.34,45.38L86.3,45.12L88.22,44.28L89.18,44.28L128.49,43.61L129.45,42.02L132.33,40.26L133.29,40.26L136.16,40.26L137.12,35.56L181.23,35.98L182.19,36.48L183.15,35.98L184.11,36.9L188.9,36.9L189.86,35.56L191.78,33.96L192.74,33.96L193.7,33.96L194.66,32.37L197.53,28L198.49,28L199.45,28L207.12,32.95L210.96,33.96L211.92,32.95L213.84,33.46L214.79,35.98L215.75,38.66L216.71,36.9L230.14,36.48L231.1,35.56L233.01,35.05L233.97,39.5L237.81,39.5L240.68,43.03L243.56,43.61L244.52,46.21L246.44,48.31L247.4,48.31L252.19,48.31L253.15,48.82L257.95,41.68L258.9,41.68L264.66,41.68L265.62,40.26L267.53,39.08L268.49,37.82L270.41,37.82L271.37,31.78L274.25,28.34L275.21,25.07L276.16,24.39L277.12,19.11L278.08,18.27L280,3.75" style="vector-effect: non-scaling-stroke; fill: none; stroke: rgb(99, 110, 250); stroke-opacity: 1; stroke-width: 5px; opacity: 1;"/></g><g class="points"/><g class="text"/></g><g class="trace scatter trace926368" style="stroke-miterlimit: 2; opacity: 1;"><g class="fills"/><g class="errorbars"/><g class="lines"><path class="js-line" d="M0,49.99L57.53,49.66L58.49,48.31L62.33,47.39L63.29,45.12L66.16,39.5L67.12,39.5L83.42,39.5L84.38,41.01L87.26,41.68L88.22,41.68L129.45,42.69L130.41,43.03L136.16,43.03L137.12,46.21L140.96,46.97L141.92,46.97L143.84,47.64L144.79,48.31L161.1,49.24L162.05,49.99L163.97,53.1L164.93,55.03L178.36,56.2L179.32,57.21L186.03,57.96L186.99,58.55L189.86,60.48L190.82,61.66L194.66,61.66L195.62,63.17L197.53,64.34L198.49,64.34L199.45,64.34L207.12,51.5L209.04,49.66L210.96,49.66L212.88,51.5L213.84,51.5L218.63,52.17L219.59,52.17L233.01,52.17L233.97,49.24L243.56,48.82L244.52,50.91L246.44,53.43L247.4,53.43L256.03,54.52L256.99,55.03L270.41,55.53L271.37,57.21L273.29,57.21L274.25,51.17L276.16,50.75L277.12,52.34L278.08,52.59L280,62.33" style="vector-effect: non-scaling-stroke; fill: none; stroke: rgb(239, 85, 59); stroke-opacity: 1; stroke-width: 5px; opacity: 1;"/></g><g class="points"/><g class="text"/></g></g></g><g class="overplot"/><path class="xlines-above crisp" d="M0,0" style="fill: none;"/><path class="ylines-above crisp" d="M0,0" style="fill: none;"/><g class="overlines-above"/><g class="xaxislayer-above"/><g class="yaxislayer-above"/><g class="overaxes-above"/></g></g><g class="polarlayer"/><g class="smithlayer"/><g class="ternarylayer"/><g class="geolayer"/><g class="funnelarealayer"/><g class="pielayer"/><g class="iciclelayer"/><g class="treemaplayer"/><g class="sunburstlayer"/><g class="glimages"/><defs id="topdefs-049957"><g class="clips"/></defs><g class="layer-above"><g class="imagelayer"/><g class="shapelayer"/></g><g class="infolayer"><g class="g-gtitle"><text class="gtitle" x="15" y="25" text-anchor="start" dy="0em" style="font-family: Ubuntu, verdana, arial, sans-serif; font-size: 16px; fill: rgb(233, 84, 32); opacity: 1; font-weight: normal; white-space: pre;">Prezident/ka ČR 2023</text></g><g class="g-xtitle"/><g class="g-ytitle"/></g></svg>