<svg class="main-svg" xmlns="http://www.w3.org/2000/svg" xmlns:xlink="http://www.w3.org/1999/xlink" width="300" height="135" style="" viewBox="0 0 300 135"><rect x="0" y="0" width="300" height="135" style="fill: rgb(255, 255, 255); fill-opacity: 1;"/><defs id="defs-815ba6"><g class="clips"><clipPath id="clip815ba6xyplot" class="plotclip"><rect width="280" height="75"/></clipPath><clipPath class="axesclip" id="clip815ba6x"><rect x="10" y="0" width="280" height="135"/></clipPath><clipPath class="axesclip" id="clip815ba6y"><rect x="0" y="50" width="300" height="75"/></clipPath><clipPath class="axesclip" id="clip815ba6xy"><rect x="10" y="50" width="280" height="75"/></clipPath></g><g class="gradients"/><g class="patterns"/></defs><g class="bglayer"/><g class="layer-below"><g class="imagelayer"/><g class="shapelayer"/></g><g class="cartesianlayer"><g class="subplot xy"><g class="layer-subplot"><g class="shapelayer"/><g class="imagelayer"/></g><g class="minor-gridlayer"><g class="x"/><g class="y"/></g><g class="gridlayer"><g class="x"><path class="xgrid crisp" transform="translate(68.47999999999999,0)" d="M0,50v75" style="stroke: rgb(235, 240, 248); stroke-opacity: 1; stroke-width: 1px;"/><path class="xgrid crisp" transform="translate(176.58,0)" d="M0,50v75" style="stroke: rgb(235, 240, 248); stroke-opacity: 1; stroke-width: 1px;"/><path class="xgrid crisp" transform="translate(286.46,0)" d="M0,50v75" style="stroke: rgb(235, 240, 248); stroke-opacity: 1; stroke-width: 1px;"/></g><g class="y"><path class="ygrid crisp" transform="translate(0,106.35)" d="M10,0h280" style="stroke: rgb(235, 240, 248); stroke-opacity: 1; stroke-width: 1px;"/><path class="ygrid crisp" transform="translate(0,87.7)" d="M10,0h280" style="stroke: rgb(235, 240, 248); stroke-opacity: 1; stroke-width: 1px;"/><path class="ygrid crisp" transform="translate(0,69.03999999999999)" d="M10,0h280" style="stroke: rgb(235, 240, 248); stroke-opacity: 1; stroke-width: 1px;"/></g></g><g class="zerolinelayer"><path class="yzl zl crisp" transform="translate(0,125)" d="M10,0h280" style="stroke: rgb(235, 240, 248); stroke-opacity: 1; stroke-width: 2px;"/></g><path class="xlines-below"/><path class="ylines-below"/><g class="overlines-below"/><g class="xaxislayer-below"/><g class="yaxislayer-below"/><g class="overaxes-below"/><g class="plot" transform="translate(10,50)" clip-path="url(#clip815ba6xyplot)"><g class="scatterlayer mlayer"><g class="trace scatter traceaca106" style="stroke-miterlimit: 2; opacity: 1;"><g class="fills"/><g class="errorbars"/><g class="lines"><path class="js-line" d="M0,5.43L42.53,6.36L44.3,7.11L54.94,7.11L56.71,8.79L60.25,15.69L62.03,15.69L69.11,16.81L70.89,17.37L76.2,17.93L77.97,17.93L106.33,19.04L108.1,20.16L111.65,20.16L113.42,22.22L115.19,22.22L116.96,24.08L120.51,27.06L122.28,27.44L152.41,27.44L154.18,24.08L155.95,21.28L157.72,22.22L164.81,20.16L166.58,20.16L237.47,19.04L239.24,16.25L242.78,13.64L244.56,13.08L251.65,13.08L253.42,4.68L280,3.75" style="vector-effect: non-scaling-stroke; fill: none; stroke: rgb(99, 110, 250); stroke-opacity: 1; stroke-width: 5px; opacity: 1;"/></g><g class="points"/><g class="text"/></g><g class="trace scatter trace8fb448" style="stroke-miterlimit: 2; opacity: 1;"><g class="fills"/><g class="errorbars"/><g class="lines"><path class="js-line" d="M0,30.42L106.33,29.86L108.1,27.44L111.65,27.44L113.42,25.95L115.19,25.95L116.96,21.66L120.51,13.64L122.28,11.77L136.46,11.02L138.23,10.28L152.41,10.28L154.18,11.77L157.72,15.69L159.49,15.69L237.47,16.25L239.24,17.37L244.56,17.93L246.33,17.93L249.87,18.67L251.65,17.93L253.42,23.71L255.19,24.64L262.28,25.01L264.05,25.01L269.37,27.44L271.14,28.37L274.68,29.12L276.46,29.12L280,29.12" style="vector-effect: non-scaling-stroke; fill: none; stroke: rgb(239, 85, 59); stroke-opacity: 1; stroke-width: 5px; opacity: 1;"/></g><g class="points"/><g class="text"/></g><g class="trace scatter tracee8a4bf" style="stroke-miterlimit: 2; opacity: 1;"><g class="fills"/><g class="errorbars"/><g class="lines"><path class="js-line" d="M0,62.69L56.71,63.06L58.48,64.37L62.03,65.49L63.8,65.49L111.65,65.49L113.42,60.82L118.73,61.38L120.51,62.13L124.05,62.13L125.82,62.13L132.91,61.38L134.68,60.82L202.03,60.82L203.8,59.15L207.34,54.67L209.11,54.67L232.15,54.67L233.92,52.99L237.47,52.24L239.24,51.31L241.01,51.31L242.78,50.01L249.87,45.9L251.65,45.34L255.19,45.72L256.96,45.16L269.37,44.97L271.14,44.97L280,44.97" style="vector-effect: non-scaling-stroke; fill: none; stroke: rgb(0, 204, 150); stroke-opacity: 1; stroke-width: 5px; opacity: 1;"/></g><g class="points"/><g class="text"/></g><g class="trace scatter tracef42f6b" style="stroke-miterlimit: 2; opacity: 1;"><g class="fills"/><g class="errorbars"/><g class="lines"><path class="js-line" d="M0,68.47L54.94,68.47L56.71,66.05L60.25,64.74L62.03,64.74L70.89,63.62L72.66,63.06L118.73,63.06L120.51,64.18L125.82,64.74L127.59,64.74L134.68,64.37L136.46,64.18L154.18,63.06L155.95,64.37L159.49,65.49L161.27,65.49L203.8,65.49L205.57,66.05L255.19,66.42L256.96,65.49L260.51,64.74L262.28,64.74L280,64.74" style="vector-effect: non-scaling-stroke; fill: none; stroke: rgb(171, 99, 250); stroke-opacity: 1; stroke-width: 5px; opacity: 1;"/></g><g class="points"/><g class="text"/></g><g class="trace scatter trace2cf51c" style="stroke-miterlimit: 2; opacity: 1;"><g class="fills"/><g class="errorbars"/><g class="lines"><path class="js-line" d="M0,61.38L70.89,61.38L72.66,62.13L202.03,63.06L203.8,63.62L210.89,64L212.66,64L249.87,65.11L251.65,65.49L256.96,66.05L258.73,66.05L280,66.05" style="vector-effect: non-scaling-stroke; fill: none; stroke: rgb(255, 161, 90); stroke-opacity: 1; stroke-width: 5px; opacity: 1;"/></g><g class="points"/><g class="text"/></g></g></g><g class="overplot"/><path class="xlines-above crisp" d="M0,0" style="fill: none;"/><path class="ylines-above crisp" d="M0,0" style="fill: none;"/><g class="overlines-above"/><g class="xaxislayer-above"/><g class="yaxislayer-above"/><g class="overaxes-above"/></g></g><g class="polarlayer"/><g class="smithlayer"/><g class="ternarylayer"/><g class="geolayer"/><g class="funnelarealayer"/><g class="pielayer"/><g class="iciclelayer"/><g class="treemaplayer"/><g class="sunburstlayer"/><g class="glimages"/><defs id="topdefs-815ba6"><g class="clips"/></defs><g class="layer-above"><g class="imagelayer"/><g class="shapelayer"/></g><g class="infolayer"><g class="g-gtitle"><text class="gtitle" x="15" y="25" text-anchor="start" dy="0em" style="font-family: Ubuntu, verdana, arial, sans-serif; font-size: 16px; fill: rgb(233, 84, 32); opacity: 1; font-weight: normal; white-space: pre;">Prezident/ka ČR 2023</text></g><g class="g-xtitle"/><g class="g-ytitle"/></g></svg>