<svg class="main-svg" xmlns="http://www.w3.org/2000/svg" xmlns:xlink="http://www.w3.org/1999/xlink" width="300" height="135" style="" viewBox="0 0 300 135"><rect x="0" y="0" width="300" height="135" style="fill: rgb(255, 255, 255); fill-opacity: 1;"/><defs id="defs-7c27bd"><g class="clips"><clipPath id="clip7c27bdxyplot" class="plotclip"><rect width="280" height="75"/></clipPath><clipPath class="axesclip" id="clip7c27bdx"><rect x="10" y="0" width="280" height="135"/></clipPath><clipPath class="axesclip" id="clip7c27bdy"><rect x="0" y="50" width="300" height="75"/></clipPath><clipPath class="axesclip" id="clip7c27bdxy"><rect x="10" y="50" width="280" height="75"/></clipPath></g><g class="gradients"/><g class="patterns"/></defs><g class="bglayer"/><g class="layer-below"><g class="imagelayer"/><g class="shapelayer"/></g><g class="cartesianlayer"><g class="subplot xy"><g class="layer-subplot"><g class="shapelayer"/><g class="imagelayer"/></g><g class="minor-gridlayer"><g class="x"/><g class="y"/></g><g class="gridlayer"><g class="x"><path class="xgrid crisp" transform="translate(48.99,0)" d="M0,50v75" style="stroke: rgb(235, 240, 248); stroke-opacity: 1; stroke-width: 1px;"/><path class="xgrid crisp" transform="translate(121.05,0)" d="M0,50v75" style="stroke: rgb(235, 240, 248); stroke-opacity: 1; stroke-width: 1px;"/><path class="xgrid crisp" transform="translate(194.3,0)" d="M0,50v75" style="stroke: rgb(235, 240, 248); stroke-opacity: 1; stroke-width: 1px;"/><path class="xgrid crisp" transform="translate(266.37,0)" d="M0,50v75" style="stroke: rgb(235, 240, 248); stroke-opacity: 1; stroke-width: 1px;"/></g><g class="y"><path class="ygrid crisp" transform="translate(0,97.65)" d="M10,0h280" style="stroke: rgb(235, 240, 248); stroke-opacity: 1; stroke-width: 1px;"/><path class="ygrid crisp" transform="translate(0,70.3)" d="M10,0h280" style="stroke: rgb(235, 240, 248); stroke-opacity: 1; stroke-width: 1px;"/></g></g><g class="zerolinelayer"><path class="yzl zl crisp" transform="translate(0,125)" d="M10,0h280" style="stroke: rgb(235, 240, 248); stroke-opacity: 1; stroke-width: 2px;"/></g><path class="xlines-below"/><path class="ylines-below"/><g class="overlines-below"/><g class="xaxislayer-below"/><g class="yaxislayer-below"/><g class="overaxes-below"/><g class="plot" transform="translate(10,50)" clip-path="url(#clip7c27bdxyplot)"><g class="scatterlayer mlayer"><g class="trace scatter trace70ce87" style="stroke-miterlimit: 2; opacity: 1;"><g class="fills"/><g class="errorbars"/><g class="lines"><path class="js-line" d="M0,15.92L28.35,16.61L29.54,17.29L36.62,17.29L37.81,18.66L41.35,24.54L42.53,24.54L49.62,26.59L50.8,26.59L70.89,27.55L72.07,28.37L74.43,28.37L75.61,30.14L76.79,30.14L77.97,31.79L80.34,34.25L81.52,34.66L101.6,34.66L102.78,31.79L103.97,29.32L105.15,30.14L111.05,28.37L112.24,28.37L158.31,27.55L159.49,25.08L161.86,22.9L163.04,22.35L167.76,22.35L168.95,15.24L222.11,14.42L223.29,15.92L228.02,17.29L229.2,17.29L232.74,17.29L233.92,15.24L236.29,12.91L237.47,12.91L238.65,12.91L239.83,10.45L243.38,3.75L244.56,3.75L245.74,3.75L255.19,11.27L257.55,12.91L259.92,12.91L262.28,11.27L263.46,12.09L265.82,19.89L267,17.29L280,17.29" style="vector-effect: non-scaling-stroke; fill: none; stroke: rgb(99, 110, 250); stroke-opacity: 1; stroke-width: 5px; opacity: 1;"/></g><g class="points"/><g class="text"/></g><g class="trace scatter trace1006bd" style="stroke-miterlimit: 2; opacity: 1;"><g class="fills"/><g class="errorbars"/><g class="lines"><path class="js-line" d="M0,64.47L37.81,64.88L38.99,65.97L41.35,66.93L42.53,66.93L74.43,66.93L75.61,62.83L80.34,63.92L81.52,64.47L85.06,63.92L86.24,63.92L134.68,62.83L135.86,61.6L138.23,57.63L139.41,57.63L157.13,56.4L158.31,55.58L167.76,49.84L168.95,49.97L202.03,49.56L203.21,48.06L223.29,47.1L224.47,46.14L225.65,46.14L226.84,47.51L229.2,48.06L230.38,46.55L232.74,44.78L233.92,43.96L236.29,43.14L237.47,43.14L239.83,43.55L241.01,41.36L243.38,38.35L244.56,38.35L245.74,38.35L255.19,43.68L257.55,44.78L259.92,44.78L262.28,45.46L263.46,45.05L267,40.4L268.19,40.4L280,39.85" style="vector-effect: non-scaling-stroke; fill: none; stroke: rgb(239, 85, 59); stroke-opacity: 1; stroke-width: 5px; opacity: 1;"/></g><g class="points"/><g class="text"/></g><g class="trace scatter trace304ff5" style="stroke-miterlimit: 2; opacity: 1;"><g class="fills"/><g class="errorbars"/><g class="lines"><path class="js-line" d="M0,37.12L70.89,36.57L72.07,34.66L74.43,34.66L75.61,33.29L76.79,33.29L77.97,29.73L80.34,22.9L81.52,21.12L102.78,21.12L103.97,23.44L106.33,24.54L107.51,24.54L158.31,25.08L159.49,26.04L163.04,26.59L164.22,26.59L167.76,26.59L168.95,31.37L172.49,32.47L173.67,32.47L177.22,33.56L178.4,34.66L198.48,35.89L199.66,37.12L200.84,38.35L202.03,41.77L204.39,44.78L205.57,44.78L218.57,44.78L219.75,46.55L222.11,48.06L223.29,47.65L230.38,49.97L231.56,50.79L232.74,50.79L233.92,52.98L236.29,54.76L237.47,54.76L239.83,54.76L241.01,57.08L243.38,58.86L244.56,58.86L245.74,58.86L255.19,39.44L257.55,36.57L259.92,36.57L262.28,39.44L263.46,39.44L269.37,40.4L270.55,40.4L280,40.95" style="vector-effect: non-scaling-stroke; fill: none; stroke: rgb(0, 204, 150); stroke-opacity: 1; stroke-width: 5px; opacity: 1;"/></g><g class="points"/><g class="text"/></g><g class="trace scatter tracef326cf" style="stroke-miterlimit: 2; opacity: 1;"><g class="fills"/><g class="errorbars"/><g class="lines"><path class="js-line" d="M0,63.51L76.79,63.92L77.97,64.2L83.88,64.47L85.06,64.47L160.68,65.7L161.86,65.84L180.76,67.48L181.94,67.48L222.11,66.66L223.29,65.29L229.2,66.38L230.38,66.38L239.83,66.38L241.01,67.89L243.38,69.53L244.56,69.53L280,70.49" style="vector-effect: non-scaling-stroke; fill: none; stroke: rgb(171, 99, 250); stroke-opacity: 1; stroke-width: 5px; opacity: 1;"/></g><g class="points"/><g class="text"/></g><g class="trace scatter trace8ce039" style="stroke-miterlimit: 2; opacity: 1;"><g class="fills"/><g class="errorbars"/><g class="lines"><path class="js-line" d="M0,71.58L135.86,71.03L137.05,70.49L265.82,71.58L267,71.72L278.82,71.85L280,71.85" style="vector-effect: non-scaling-stroke; fill: none; stroke: rgb(255, 161, 90); stroke-opacity: 1; stroke-width: 5px; opacity: 1;"/></g><g class="points"/><g class="text"/></g></g></g><g class="overplot"/><path class="xlines-above crisp" d="M0,0" style="fill: none;"/><path class="ylines-above crisp" d="M0,0" style="fill: none;"/><g class="overlines-above"/><g class="xaxislayer-above"/><g class="yaxislayer-above"/><g class="overaxes-above"/></g></g><g class="polarlayer"/><g class="smithlayer"/><g class="ternarylayer"/><g class="geolayer"/><g class="funnelarealayer"/><g class="pielayer"/><g class="iciclelayer"/><g class="treemaplayer"/><g class="sunburstlayer"/><g class="glimages"/><defs id="topdefs-7c27bd"><g class="clips"/></defs><g class="layer-above"><g class="imagelayer"/><g class="shapelayer"/></g><g class="infolayer"><g class="g-gtitle"><text class="gtitle" x="15" y="25" text-anchor="start" dy="0em" style="font-family: Ubuntu, verdana, arial, sans-serif; font-size: 16px; fill: rgb(233, 84, 32); opacity: 1; font-weight: normal; white-space: pre;">Prezident/ka ČR 2023</text></g><g class="g-xtitle"/><g class="g-ytitle"/></g></svg>