<svg class="main-svg" xmlns="http://www.w3.org/2000/svg" xmlns:xlink="http://www.w3.org/1999/xlink" width="400" height="400" style="" viewBox="0 0 400 400"><rect x="0" y="0" width="400" height="400" style="fill: rgb(255, 255, 255); fill-opacity: 1;"/><defs id="defs-33c789"><g class="clips"><clipPath id="clip33c789xyplot" class="plotclip"><rect width="191" height="330"/></clipPath><clipPath class="axesclip" id="clip33c789x"><rect x="50" y="0" width="191" height="400"/></clipPath><clipPath class="axesclip" id="clip33c789y"><rect x="0" y="20" width="400" height="330"/></clipPath><clipPath class="axesclip" id="clip33c789xy"><rect x="50" y="20" width="191" height="330"/></clipPath></g><g class="gradients"/><g class="patterns"/></defs><g class="bglayer"/><g class="layer-below"><g class="imagelayer"/><g class="shapelayer"/></g><g class="cartesianlayer"><g class="subplot xy"><g class="layer-subplot"><g class="shapelayer"/><g class="imagelayer"/></g><g class="minor-gridlayer"><g class="x"/><g class="y"/></g><g class="gridlayer"><g class="x"><path class="xgrid crisp" transform="translate(71.73,0)" d="M0,20v330" style="stroke: rgb(235, 240, 248); stroke-opacity: 1; stroke-width: 1px;"/><path class="xgrid crisp" transform="translate(111.91,0)" d="M0,20v330" style="stroke: rgb(235, 240, 248); stroke-opacity: 1; stroke-width: 1px;"/><path class="xgrid crisp" transform="translate(152.74,0)" d="M0,20v330" style="stroke: rgb(235, 240, 248); stroke-opacity: 1; stroke-width: 1px;"/><path class="xgrid crisp" transform="translate(192.92,0)" d="M0,20v330" style="stroke: rgb(235, 240, 248); stroke-opacity: 1; stroke-width: 1px;"/><path class="xgrid crisp" transform="translate(233.1,0)" d="M0,20v330" style="stroke: rgb(235, 240, 248); stroke-opacity: 1; stroke-width: 1px;"/></g><g class="y"><path class="ygrid crisp" transform="translate(0,302.64)" d="M50,0h191" style="stroke: rgb(235, 240, 248); stroke-opacity: 1; stroke-width: 1px;"/><path class="ygrid crisp" transform="translate(0,255.29)" d="M50,0h191" style="stroke: rgb(235, 240, 248); stroke-opacity: 1; stroke-width: 1px;"/><path class="ygrid crisp" transform="translate(0,207.93)" d="M50,0h191" style="stroke: rgb(235, 240, 248); stroke-opacity: 1; stroke-width: 1px;"/><path class="ygrid crisp" transform="translate(0,160.57)" d="M50,0h191" style="stroke: rgb(235, 240, 248); stroke-opacity: 1; stroke-width: 1px;"/><path class="ygrid crisp" transform="translate(0,113.22)" d="M50,0h191" style="stroke: rgb(235, 240, 248); stroke-opacity: 1; stroke-width: 1px;"/><path class="ygrid crisp" transform="translate(0,65.86)" d="M50,0h191" style="stroke: rgb(235, 240, 248); stroke-opacity: 1; stroke-width: 1px;"/></g></g><g class="zerolinelayer"><path class="yzl zl crisp" transform="translate(0,350)" d="M50,0h191" style="stroke: rgb(235, 240, 248); stroke-opacity: 1; stroke-width: 2px;"/></g><path class="xlines-below"/><path class="ylines-below"/><g class="overlines-below"/><g class="xaxislayer-below"/><g class="yaxislayer-below"/><g class="overaxes-below"/><g class="plot" transform="translate(50,20)" clip-path="url(#clip33c789xyplot)"><g class="scatterlayer mlayer"><g class="trace scatter trace9fe215" style="stroke-miterlimit: 2; opacity: 1;"><g class="fills"/><g class="errorbars"/><g class="lines"><path class="js-line" d="M0,110.27L15.15,110.27L15.81,113.11L17.12,115.48L17.78,115.48L20.42,115.48L21.08,120.68L23.05,142.47L23.71,142.47L27.66,150.05L28.32,150.05L30.96,150.05L31.61,151.94L33.59,153.36L34.25,153.36L39.52,153.36L40.18,156.68L41.49,156.68L42.15,163.31L42.81,163.31L43.47,169.46L45.44,179.88L46.1,179.88L56.64,179.88L57.3,169.46L57.96,159.99L58.62,163.31L59.28,161.88L60.59,156.68L61.25,156.68L64.54,156.68L65.2,155.25L67.18,153.36L67.84,153.36L75.74,153.36L76.4,155.25L78.38,156.68L79.03,156.68L87.6,156.68L88.26,153.36L90.23,136.31L90.89,134.42L93.52,134.42L94.18,107.9L94.84,107.9L95.5,105.06L123.82,105.06L124.48,110.27L125.14,113.11L125.8,110.27L127.11,115.48L127.77,115.48L129.75,115.48L130.41,107.9L131.72,99.37L132.38,99.37L133.04,99.37L133.7,89.9L136.33,65.28L136.99,65.28L143.58,99.37L144.9,99.37L146.21,93.22L146.87,96.06L148.19,125.42L148.85,115.48L149.51,115.48L157.41,115.48L158.07,113.11L160.04,105.06L160.7,130.16L163.34,130.16L165.31,150.05L167.29,153.36L167.95,167.57L169.27,179.88L169.92,179.88L171.24,179.88L171.9,174.67L173.88,182.25L174.53,171.83L175.85,156.68L176.51,142.47L181.78,142.47L182.44,134.42L183.1,134.42L183.76,127.79L185.07,120.68L185.73,120.68L187.71,79.96L188.37,67.17L190.34,16.5" style="vector-effect: non-scaling-stroke; fill: none; stroke: rgb(99, 110, 250); stroke-opacity: 1; stroke-width: 5px; opacity: 1;"/></g><g class="points"/><g class="text"/></g><g class="trace scatter trace442ff2" style="stroke-miterlimit: 2; opacity: 1;"><g class="fills"/><g class="errorbars"/><g class="lines"><path class="js-line" d="M0,189.35L15.81,188.4L16.47,186.98L39.52,186.98L40.18,179.88L41.49,179.88L42.15,174.67L42.81,174.67L43.47,161.88L45.44,130.16L46.1,130.16L50.06,130.16L50.71,127.79L52.03,125.42L52.69,125.42L56.64,125.42L57.3,130.16L59.28,142.47L59.93,142.47L87.6,142.47L88.26,144.36L90.23,150.05L90.89,150.05L91.55,150.05L92.21,151.94L92.87,151.94L93.52,150.05L95.5,171.83L96.16,171.83L98.13,171.83L98.79,176.09L101.43,184.62L102.09,184.62L110.65,184.62L111.31,189.35L111.97,193.61L112.62,206.87L113.94,217.29L114.6,217.29L121.84,217.29L122.5,223.92L123.82,230.08L124.48,228.18L126.46,230.08L127.11,230.08L131.72,255.18L132.38,255.18L133.7,255.18L134.36,263.23L135.68,269.86L136.33,269.86L136.99,269.86L142.26,197.4L143.58,186.98L144.9,186.98L146.21,197.4L146.87,197.4L148.85,201.19L149.51,201.19L152.8,201.19L153.46,203.08L158.73,203.08L159.39,201.19L160.04,201.19L160.7,184.62L163.34,184.62L165.31,182.25L167.29,182.25L167.95,194.56L169.27,208.29L169.92,208.29L172.56,208.29L173.22,211.61L175.19,211.61L175.85,214.45L177.17,217.29L177.83,217.29L181.78,217.29L182.44,222.97L183.1,222.97L183.76,221.55L185.73,220.13L186.39,230.08L187.71,230.08L188.37,195.98L189.02,191.72L189.68,193.61L190.34,202.14" style="vector-effect: non-scaling-stroke; fill: none; stroke: rgb(239, 85, 59); stroke-opacity: 1; stroke-width: 5px; opacity: 1;"/></g><g class="points"/><g class="text"/></g><g class="trace scatter trace43f386" style="stroke-miterlimit: 2; opacity: 1;"><g class="fills"/><g class="errorbars"/><g class="lines"><path class="js-line" d="M0,290.69L3.29,290.69L3.95,292.59L21.08,292.59L21.73,296.85L23.05,300.17L23.71,300.17L41.49,300.17L42.15,285.01L43.47,285.96L44.13,286.91L45.44,290.69L46.1,289.27L48.74,289.27L49.4,286.91L51.37,285.01L52.03,285.01L75.08,285.01L75.74,279.8L77.72,265.6L78.38,265.6L86.28,265.6L86.94,260.86L87.6,260.86L88.26,258.02L93.52,236.23L94.18,237.18L94.84,237.18L96.82,235.29L97.48,235.29L110.65,235.29L111.31,237.65L111.97,240.02L112.62,235.29L113.94,230.08L114.6,230.08L123.82,230.08L124.48,226.29L125.8,222.97L126.46,227.71L127.77,230.08L128.43,223.92L130.41,214.45L131.07,211.61L133.04,211.61L133.7,213.03L135.68,193.61L136.33,193.61L136.99,193.61L142.26,213.5L143.58,217.29L144.9,217.29L146.21,220.13L146.87,218.71L148.85,201.19L149.51,201.19L152.8,201.19L153.46,199.3L157.41,198.35L158.07,197.4L160.04,193.61L160.7,184.62L163.34,184.62L165.31,163.31L167.29,156.68L167.95,136.31L169.27,110.27L169.92,110.27L171.24,110.27L171.9,115.48L173.88,105.06L174.53,115.48L177.17,142.47L177.83,142.47L181.78,142.47L182.44,150.05L183.1,150.05L183.76,156.68L185.07,163.31L185.73,163.31L189.02,273.65L189.68,276.96L190.34,297.8" style="vector-effect: non-scaling-stroke; fill: none; stroke: rgb(0, 204, 150); stroke-opacity: 1; stroke-width: 5px; opacity: 1;"/></g><g class="points"/><g class="text"/></g></g></g><g class="overplot"/><path class="xlines-above crisp" d="M0,0" style="fill: none;"/><path class="ylines-above crisp" d="M0,0" style="fill: none;"/><g class="overlines-above"/><g class="xaxislayer-above"><g class="xtick"><text text-anchor="middle" x="0" y="363" transform="translate(71.73,0)" style="font-family: 'Open Sans', verdana, arial, sans-serif; font-size: 12px; fill: rgb(42, 63, 95); fill-opacity: 1; white-space: pre; opacity: 1;">1.5.22</text></g><g class="xtick"><text text-anchor="middle" x="0" y="363" style="font-family: 'Open Sans', verdana, arial, sans-serif; font-size: 12px; fill: rgb(42, 63, 95); fill-opacity: 1; white-space: pre; opacity: 1;" transform="translate(111.91,0)">1.7.22</text></g><g class="xtick"><text text-anchor="middle" x="0" y="363" style="font-family: 'Open Sans', verdana, arial, sans-serif; font-size: 12px; fill: rgb(42, 63, 95); fill-opacity: 1; white-space: pre; opacity: 1;" transform="translate(152.74,0)">1.9.22</text></g><g class="xtick"><text text-anchor="middle" x="0" y="363" style="font-family: 'Open Sans', verdana, arial, sans-serif; font-size: 12px; fill: rgb(42, 63, 95); fill-opacity: 1; white-space: pre; opacity: 1;" transform="translate(192.92,0)">1.11.22</text></g><g class="xtick"><text text-anchor="middle" x="0" y="363" style="font-family: 'Open Sans', verdana, arial, sans-serif; font-size: 12px; fill: rgb(42, 63, 95); fill-opacity: 1; white-space: pre; opacity: 1;" transform="translate(233.1,0)">1.1.23</text></g></g><g class="yaxislayer-above"><g class="ytick"><text text-anchor="end" x="49" y="4.199999999999999" transform="translate(0,350)" style="font-family: 'Open Sans', verdana, arial, sans-serif; font-size: 12px; fill: rgb(42, 63, 95); fill-opacity: 1; white-space: pre; opacity: 1;">0%</text></g><g class="ytick"><text text-anchor="end" x="49" y="4.199999999999999" style="font-family: 'Open Sans', verdana, arial, sans-serif; font-size: 12px; fill: rgb(42, 63, 95); fill-opacity: 1; white-space: pre; opacity: 1;" transform="translate(0,302.64)">10%</text></g><g class="ytick"><text text-anchor="end" x="49" y="4.199999999999999" style="font-family: 'Open Sans', verdana, arial, sans-serif; font-size: 12px; fill: rgb(42, 63, 95); fill-opacity: 1; white-space: pre; opacity: 1;" transform="translate(0,255.29)">20%</text></g><g class="ytick"><text text-anchor="end" x="49" y="4.199999999999999" style="font-family: 'Open Sans', verdana, arial, sans-serif; font-size: 12px; fill: rgb(42, 63, 95); fill-opacity: 1; white-space: pre; opacity: 1;" transform="translate(0,207.93)">30%</text></g><g class="ytick"><text text-anchor="end" x="49" y="4.199999999999999" style="font-family: 'Open Sans', verdana, arial, sans-serif; font-size: 12px; fill: rgb(42, 63, 95); fill-opacity: 1; white-space: pre; opacity: 1;" transform="translate(0,160.57)">40%</text></g><g class="ytick"><text text-anchor="end" x="49" y="4.199999999999999" style="font-family: 'Open Sans', verdana, arial, sans-serif; font-size: 12px; fill: rgb(42, 63, 95); fill-opacity: 1; white-space: pre; opacity: 1;" transform="translate(0,113.22)">50%</text></g><g class="ytick"><text text-anchor="end" x="49" y="4.199999999999999" style="font-family: 'Open Sans', verdana, arial, sans-serif; font-size: 12px; fill: rgb(42, 63, 95); fill-opacity: 1; white-space: pre; opacity: 1;" transform="translate(0,65.86)">60%</text></g></g><g class="overaxes-above"/></g></g><g class="polarlayer"/><g class="smithlayer"/><g class="ternarylayer"/><g class="geolayer"/><g class="funnelarealayer"/><g class="pielayer"/><g class="iciclelayer"/><g class="treemaplayer"/><g class="sunburstlayer"/><g class="glimages"/><defs id="topdefs-33c789"><g class="clips"/><clipPath id="legend33c789"><rect width="143" height="67" x="0" y="0"/></clipPath></defs><g class="layer-above"><g class="imagelayer"/><g class="shapelayer"/></g><g class="infolayer"><g class="legend" pointer-events="all" transform="translate(244.82,20)"><rect class="bg" shape-rendering="crispEdges" width="143" height="67" x="0" y="0" style="stroke: rgb(68, 68, 68); stroke-opacity: 1; fill: rgb(255, 255, 255); fill-opacity: 1; stroke-width: 0px;"/><g class="scrollbox" transform="" clip-path="url(#legend33c789)"><g class="groups"><g class="traces" transform="translate(0,14.5)" style="opacity: 1;"><text class="legendtext" text-anchor="start" x="40" y="4.680000000000001" style="font-family: 'Open Sans', verdana, arial, sans-serif; font-size: 12px; fill: rgb(42, 63, 95); fill-opacity: 1; white-space: pre;">Pavel Petr</text><g class="layers" style="opacity: 1;"><g class="legendfill"/><g class="legendlines"><path class="js-line" d="M5,0h30" style="fill: none; stroke: rgb(99, 110, 250); stroke-opacity: 1; stroke-width: 5px;"/></g><g class="legendsymbols"><g class="legendpoints"/></g></g><rect class="legendtoggle" x="0" y="-9.5" width="137.0625" height="19" style="fill: rgb(0, 0, 0); fill-opacity: 0;"/></g><g class="traces" transform="translate(0,33.5)" style="opacity: 1;"><text class="legendtext" text-anchor="start" x="40" y="4.680000000000001" style="font-family: 'Open Sans', verdana, arial, sans-serif; font-size: 12px; fill: rgb(42, 63, 95); fill-opacity: 1; white-space: pre;">Babiš Andrej</text><g class="layers" style="opacity: 1;"><g class="legendfill"/><g class="legendlines"><path class="js-line" d="M5,0h30" style="fill: none; stroke: rgb(239, 85, 59); stroke-opacity: 1; stroke-width: 5px;"/></g><g class="legendsymbols"><g class="legendpoints"/></g></g><rect class="legendtoggle" x="0" y="-9.5" width="137.0625" height="19" style="fill: rgb(0, 0, 0); fill-opacity: 0;"/></g><g class="traces" transform="translate(0,52.5)" style="opacity: 1;"><text class="legendtext" text-anchor="start" x="40" y="4.680000000000001" style="font-family: 'Open Sans', verdana, arial, sans-serif; font-size: 12px; fill: rgb(42, 63, 95); fill-opacity: 1; white-space: pre;">Nerudová Danuše</text><g class="layers" style="opacity: 1;"><g class="legendfill"/><g class="legendlines"><path class="js-line" d="M5,0h30" style="fill: none; stroke: rgb(0, 204, 150); stroke-opacity: 1; stroke-width: 5px;"/></g><g class="legendsymbols"><g class="legendpoints"/></g></g><rect class="legendtoggle" x="0" y="-9.5" width="137.0625" height="19" style="fill: rgb(0, 0, 0); fill-opacity: 0;"/></g></g></g><rect class="scrollbar" rx="20" ry="3" width="0" height="0" x="0" y="0" style="fill: rgb(128, 139, 164); fill-opacity: 1;"/></g><g class="g-gtitle"/><g class="g-xtitle"/><g class="g-ytitle"/></g></svg>