<svg class="main-svg" xmlns="http://www.w3.org/2000/svg" xmlns:xlink="http://www.w3.org/1999/xlink" width="400" height="400" style="" viewBox="0 0 400 400"><rect x="0" y="0" width="400" height="400" style="fill: rgb(255, 255, 255); fill-opacity: 1;"/><defs id="defs-a73a8a"><g class="clips"><clipPath id="clipa73a8axyplot" class="plotclip"><rect width="203" height="330"/></clipPath><clipPath class="axesclip" id="clipa73a8ax"><rect x="50" y="0" width="203" height="400"/></clipPath><clipPath class="axesclip" id="clipa73a8ay"><rect x="0" y="20" width="400" height="330"/></clipPath><clipPath class="axesclip" id="clipa73a8axy"><rect x="50" y="20" width="203" height="330"/></clipPath></g><g class="gradients"/><g class="patterns"/></defs><g class="bglayer"/><g class="layer-below"><g class="imagelayer"/><g class="shapelayer"/></g><g class="cartesianlayer"><g class="subplot xy"><g class="layer-subplot"><g class="shapelayer"/><g class="imagelayer"/></g><g class="gridlayer"><g class="x"><path class="xgrid crisp" transform="translate(61.74,0)" d="M0,20v330" style="stroke: rgb(235, 240, 248); stroke-opacity: 1; stroke-width: 1px;"/><path class="xgrid crisp" transform="translate(112.72999999999999,0)" d="M0,20v330" style="stroke: rgb(235, 240, 248); stroke-opacity: 1; stroke-width: 1px;"/><path class="xgrid crisp" transform="translate(163.72,0)" d="M0,20v330" style="stroke: rgb(235, 240, 248); stroke-opacity: 1; stroke-width: 1px;"/><path class="xgrid crisp" transform="translate(214.86,0)" d="M0,20v330" style="stroke: rgb(235, 240, 248); stroke-opacity: 1; stroke-width: 1px;"/></g><g class="y"><path class="ygrid crisp" transform="translate(0,305.78)" d="M50,0h203" style="stroke: rgb(235, 240, 248); stroke-opacity: 1; stroke-width: 1px;"/><path class="ygrid crisp" transform="translate(0,261.57)" d="M50,0h203" style="stroke: rgb(235, 240, 248); stroke-opacity: 1; stroke-width: 1px;"/><path class="ygrid crisp" transform="translate(0,217.35)" d="M50,0h203" style="stroke: rgb(235, 240, 248); stroke-opacity: 1; stroke-width: 1px;"/><path class="ygrid crisp" transform="translate(0,173.14)" d="M50,0h203" style="stroke: rgb(235, 240, 248); stroke-opacity: 1; stroke-width: 1px;"/><path class="ygrid crisp" transform="translate(0,128.92000000000002)" d="M50,0h203" style="stroke: rgb(235, 240, 248); stroke-opacity: 1; stroke-width: 1px;"/><path class="ygrid crisp" transform="translate(0,84.7)" d="M50,0h203" style="stroke: rgb(235, 240, 248); stroke-opacity: 1; stroke-width: 1px;"/><path class="ygrid crisp" transform="translate(0,40.489999999999995)" d="M50,0h203" style="stroke: rgb(235, 240, 248); stroke-opacity: 1; stroke-width: 1px;"/></g></g><g class="zerolinelayer"><path class="yzl zl crisp" transform="translate(0,350)" d="M50,0h203" style="stroke: rgb(235, 240, 248); stroke-opacity: 1; stroke-width: 2px;"/></g><path class="xlines-below"/><path class="ylines-below"/><g class="overlines-below"/><g class="xaxislayer-below"/><g class="yaxislayer-below"/><g class="overaxes-below"/><g class="plot" transform="translate(50,20)" clip-path="url(#clipa73a8axyplot)"><g class="scatterlayer mlayer"><g class="trace scatter trace0f1b39" style="stroke-miterlimit: 2; opacity: 1;"><g class="fills"><g><path class="js-fill" d="M0,43.5Q2.56,44.4 4.47,45.17C7.96,46.58 16.06,52.75 19.14,51.57C21.5,50.67 21.62,45.37 23.05,43.02C24.18,41.15 25.47,40.04 26.68,38.36C28.03,36.49 29.86,33.65 30.74,32.28C31.18,31.59 31.29,31.32 31.71,30.72C32.33,29.84 33.3,28.98 34.23,27.58C35.79,25.23 37.9,18.92 39.68,17.55C40.53,16.9 41.36,17.11 42.19,16.93C42.99,16.76 43.92,16.26 44.57,16.5C45.22,16.74 46.25,18.05 46.1,18.38C45.94,18.73 43.45,18.38 43.45,18.45C43.45,18.55 48.22,19.43 48.48,19C48.62,18.77 47.71,17.71 47.64,17.75C47.42,17.87 52,24.85 53.37,31.83C56.79,49.33 56.8,126.76 53.37,127.43C52,127.7 47.42,113.48 47.64,113.36C47.71,113.32 48.62,114.37 48.48,114.6C48.22,115.03 43.45,114.15 43.45,114.05C43.45,113.98 45.94,114.33 46.1,113.98C46.25,113.65 45.22,112.34 44.57,112.1C43.92,111.86 42.99,112.36 42.19,112.53C41.36,112.71 40.56,112.55 39.68,113.15C38,114.3 35.62,118.5 34.23,120.91C33.12,122.82 32.47,126.13 31.71,126.32C31.37,126.41 31.13,125.54 30.74,125.61C29.78,125.78 28.16,130.23 26.68,131.69C25.54,132.82 24.1,132.74 23.05,134.07C21.33,136.24 21.67,143.98 19.14,144.89C16.06,146 8.04,136.94 4.47,136.22Q2.63,135.85 0,136.83Z" style="fill: rgb(38, 16, 96); fill-opacity: 0.05; stroke-width: 0;"/></g></g><g class="errorbars"/><g class="lines"><path class="js-line" d="M0,43.5Q2.56,44.4 4.47,45.17C7.96,46.58 16.06,52.75 19.14,51.57C21.5,50.67 21.62,45.37 23.05,43.02C24.18,41.15 25.47,40.04 26.68,38.36C28.03,36.49 29.86,33.65 30.74,32.28C31.18,31.59 31.29,31.32 31.71,30.72C32.33,29.84 33.3,28.98 34.23,27.58C35.79,25.23 37.9,18.92 39.68,17.55C40.53,16.9 41.36,17.11 42.19,16.93C42.99,16.76 43.92,16.26 44.57,16.5C45.22,16.74 46.25,18.05 46.1,18.38C45.94,18.73 43.45,18.38 43.45,18.45C43.45,18.55 48.22,19.43 48.48,19C48.62,18.77 47.71,17.71 47.64,17.75C47.42,17.87 52,24.85 53.37,31.83C56.79,49.33 56.8,126.76 53.37,127.43C52,127.7 47.42,113.48 47.64,113.36C47.71,113.32 48.62,114.37 48.48,114.6C48.22,115.03 43.45,114.15 43.45,114.05C43.45,113.98 45.94,114.33 46.1,113.98C46.25,113.65 45.22,112.34 44.57,112.1C43.92,111.86 42.99,112.36 42.19,112.53C41.36,112.71 40.56,112.55 39.68,113.15C38,114.3 35.62,118.5 34.23,120.91C33.12,122.82 32.47,126.13 31.71,126.32C31.37,126.41 31.13,125.54 30.74,125.61C29.78,125.78 28.16,130.23 26.68,131.69C25.54,132.82 24.1,132.74 23.05,134.07C21.33,136.24 21.67,143.98 19.14,144.89C16.06,146 8.04,136.94 4.47,136.22Q2.63,135.85 0,136.83" style="vector-effect: non-scaling-stroke; fill: none; stroke: rgb(255, 255, 255); stroke-opacity: 0; stroke-width: 2px; opacity: 1;"/></g><g class="points"/><g class="text"/></g><g class="trace scatter trace3c1385" style="stroke-miterlimit: 2; opacity: 1;"><g class="fills"><g><path class="js-fill" d="M0,168.63Q2.78,162.84 4.47,157.63C8.31,145.8 15.31,108.76 19.14,98.27C20.6,94.28 21.4,91.18 23.05,90.34C24.12,89.8 25.66,89.93 26.68,90.97C29.42,93.76 29.11,116.07 30.74,117.25C31.05,117.48 31.41,116.88 31.71,117.09C32.83,117.87 32.98,125.76 34.23,130.16C35.57,134.88 37.7,143.42 39.68,144.49C40.49,144.93 41.41,144.33 42.19,143.95C43.05,143.54 43.92,141.9 44.57,142.02C45.23,142.15 46.26,144.62 46.1,144.76C45.93,144.91 43.42,143.46 43.45,142.73C43.49,141.76 48.05,139.23 48.48,139.56C48.77,139.78 47.68,142.14 47.64,142.13C47.52,142.1 52.12,119.89 53.37,120.05C55.74,120.35 56.1,184.85 53.37,201.99C52.07,210.12 47.64,219.52 47.64,219.52C47.64,219.52 48.77,217.17 48.48,216.95C48.05,216.62 43.49,219.16 43.45,220.13C43.42,220.85 45.93,222.3 46.1,222.15C46.26,222.01 45.23,219.54 44.57,219.41C43.92,219.29 43.05,220.93 42.19,221.34C41.41,221.72 40.51,222.3 39.68,221.88C37.81,220.94 35.58,213.8 34.23,209.83C33,206.2 32.74,199.73 31.71,199.04C31.4,198.84 31.06,199.42 30.74,199.2C29.24,198.15 29.18,179.94 26.68,177.47C25.66,176.46 24.15,176.38 23.05,176.84C21.55,177.47 20.57,179.49 19.14,182.49C15.2,190.76 8.35,223 4.47,232.75Q2.79,236.97 0,241.47Z" style="fill: rgb(0, 68, 148); fill-opacity: 0.05; stroke-width: 0;"/></g></g><g class="errorbars"/><g class="lines"><path class="js-line" d="M0,168.63Q2.78,162.84 4.47,157.63C8.31,145.8 15.31,108.76 19.14,98.27C20.6,94.28 21.4,91.18 23.05,90.34C24.12,89.8 25.66,89.93 26.68,90.97C29.42,93.76 29.11,116.07 30.74,117.25C31.05,117.48 31.41,116.88 31.71,117.09C32.83,117.87 32.98,125.76 34.23,130.16C35.57,134.88 37.7,143.42 39.68,144.49C40.49,144.93 41.41,144.33 42.19,143.95C43.05,143.54 43.92,141.9 44.57,142.02C45.23,142.15 46.26,144.62 46.1,144.76C45.93,144.91 43.42,143.46 43.45,142.73C43.49,141.76 48.05,139.23 48.48,139.56C48.77,139.78 47.68,142.14 47.64,142.13C47.52,142.1 52.12,119.89 53.37,120.05C55.74,120.35 56.1,184.85 53.37,201.99C52.07,210.12 47.64,219.52 47.64,219.52C47.64,219.52 48.77,217.17 48.48,216.95C48.05,216.62 43.49,219.16 43.45,220.13C43.42,220.85 45.93,222.3 46.1,222.15C46.26,222.01 45.23,219.54 44.57,219.41C43.92,219.29 43.05,220.93 42.19,221.34C41.41,221.72 40.51,222.3 39.68,221.88C37.81,220.94 35.58,213.8 34.23,209.83C33,206.2 32.74,199.73 31.71,199.04C31.4,198.84 31.06,199.42 30.74,199.2C29.24,198.15 29.18,179.94 26.68,177.47C25.66,176.46 24.15,176.38 23.05,176.84C21.55,177.47 20.57,179.49 19.14,182.49C15.2,190.76 8.35,223 4.47,232.75Q2.79,236.97 0,241.47" style="vector-effect: non-scaling-stroke; fill: none; stroke: rgb(255, 255, 255); stroke-opacity: 0; stroke-width: 2px; opacity: 1;"/></g><g class="points"/><g class="text"/></g><g class="trace scatter trace12e83c" style="stroke-miterlimit: 2; opacity: 1;"><g class="fills"><g><path class="js-fill" d="M0,214.52Q2.74,215.16 4.47,214.41C8.22,212.78 15.88,199.21 19.14,199.41C20.95,199.52 21.77,204.53 23.05,204.54C24.28,204.55 25.44,201.48 26.68,199.87C28,198.15 29.79,194.71 30.74,194.52C31.13,194.44 31.38,195.19 31.71,195.08C32.49,194.83 32.92,190.93 34.23,189.47C35.56,187.99 38.23,187.24 39.68,186.31C40.69,185.66 41.38,184.51 42.19,184.55C43.01,184.59 43.88,186.65 44.57,186.61C45.15,186.58 46.22,185.21 46.1,184.98C45.97,184.72 43.54,184.95 43.45,185.32C43.32,185.88 48.25,188.95 48.48,188.73C48.6,188.62 47.57,187.3 47.64,187.25C47.79,187.14 51.97,190.01 53.37,193.7C57.25,203.91 57.76,257.48 53.37,259.71C51.93,260.44 47.89,255.31 47.64,255.53C47.52,255.64 48.61,256.9 48.48,257.02C48.24,257.24 43.32,254.17 43.45,253.61C43.54,253.24 45.97,253.02 46.1,253.27C46.22,253.5 45.21,254.58 44.57,254.89C43.91,255.21 42.99,255.15 42.19,255.11C41.36,255.07 40.64,254.44 39.68,254.6C38.17,254.85 35.61,256.54 34.23,257.76C33.1,258.76 32.41,260.95 31.71,261.09C31.35,261.16 31.16,260.5 30.74,260.53C29.84,260.59 27.92,262.37 26.68,263.6C25.34,264.92 24.38,268.09 23.05,268.28C21.85,268.45 20.86,265.44 19.14,265.43C15.81,265.41 8.09,274.66 4.47,275.87Q2.67,276.47 0,275.98Z" style="fill: rgb(234, 35, 41); fill-opacity: 0.05; stroke-width: 0;"/></g></g><g class="errorbars"/><g class="lines"><path class="js-line" d="M0,214.52Q2.74,215.16 4.47,214.41C8.22,212.78 15.88,199.21 19.14,199.41C20.95,199.52 21.77,204.53 23.05,204.54C24.28,204.55 25.44,201.48 26.68,199.87C28,198.15 29.79,194.71 30.74,194.52C31.13,194.44 31.38,195.19 31.71,195.08C32.49,194.83 32.92,190.93 34.23,189.47C35.56,187.99 38.23,187.24 39.68,186.31C40.69,185.66 41.38,184.51 42.19,184.55C43.01,184.59 43.88,186.65 44.57,186.61C45.15,186.58 46.22,185.21 46.1,184.98C45.97,184.72 43.54,184.95 43.45,185.32C43.32,185.88 48.25,188.95 48.48,188.73C48.6,188.62 47.57,187.3 47.64,187.25C47.79,187.14 51.97,190.01 53.37,193.7C57.25,203.91 57.76,257.48 53.37,259.71C51.93,260.44 47.89,255.31 47.64,255.53C47.52,255.64 48.61,256.9 48.48,257.02C48.24,257.24 43.32,254.17 43.45,253.61C43.54,253.24 45.97,253.02 46.1,253.27C46.22,253.5 45.21,254.58 44.57,254.89C43.91,255.21 42.99,255.15 42.19,255.11C41.36,255.07 40.64,254.44 39.68,254.6C38.17,254.85 35.61,256.54 34.23,257.76C33.1,258.76 32.41,260.95 31.71,261.09C31.35,261.16 31.16,260.5 30.74,260.53C29.84,260.59 27.92,262.37 26.68,263.6C25.34,264.92 24.38,268.09 23.05,268.28C21.85,268.45 20.86,265.44 19.14,265.43C15.81,265.41 8.09,274.66 4.47,275.87Q2.67,276.47 0,275.98" style="vector-effect: non-scaling-stroke; fill: none; stroke: rgb(255, 255, 255); stroke-opacity: 0; stroke-width: 2px; opacity: 1;"/></g><g class="points"/><g class="text"/></g><g class="trace scatter trace789ad5" style="stroke-miterlimit: 2; opacity: 1;"><g class="fills"><g><path class="js-fill" d="M0,219.22Q2.23,223.93 4.47,226.29C7.75,229.75 15.69,235.86 19.14,236.67C20.76,237.05 21.78,235.96 23.05,236.06C24.29,236.16 25.64,237.79 26.68,237.24C28.7,236.17 29.81,226.11 30.74,223.31C31.15,222.09 31.33,221.83 31.71,220.7C32.38,218.69 32.67,214.13 34.23,212.19C35.54,210.57 38.21,209.19 39.68,209.2C40.68,209.2 41.37,210.12 42.19,210.6C43,211.07 43.84,211.78 44.57,212.04C45.11,212.23 46.08,212.34 46.1,212.26C46.13,212.15 43.4,211.31 43.45,211.03C43.51,210.66 48.44,210.44 48.48,210.59C48.5,210.66 47.72,211.05 47.64,210.95C47.38,210.63 52,202.52 53.37,202.96C56.86,204.08 57.32,257.18 53.37,266.7C51.96,270.09 47.5,272.2 47.64,272.41C47.69,272.48 48.5,272.11 48.48,272.04C48.44,271.88 43.51,272.12 43.45,272.49C43.4,272.77 46.13,273.61 46.1,273.72C46.08,273.8 45.11,273.69 44.57,273.5C43.84,273.24 43.02,272.15 42.19,272.06C41.38,271.97 40.69,272.69 39.68,272.93C38.23,273.27 35.54,272.63 34.23,273.65C32.78,274.78 32.54,279.1 31.71,279.89C31.39,280.2 31.08,279.88 30.74,280.22C29.57,281.39 28.56,290.94 26.68,291.87C25.63,292.39 24.29,290.79 23.05,290.69C21.78,290.59 20.83,291.49 19.14,291.3C15.77,290.92 7.71,288.16 4.47,285.47Q2.11,283.51 0,278.4Z" style="fill: rgb(0, 0, 0); fill-opacity: 0.05; stroke-width: 0;"/></g></g><g class="errorbars"/><g class="lines"><path class="js-line" d="M0,219.22Q2.23,223.93 4.47,226.29C7.75,229.75 15.69,235.86 19.14,236.67C20.76,237.05 21.78,235.96 23.05,236.06C24.29,236.16 25.64,237.79 26.68,237.24C28.7,236.17 29.81,226.11 30.74,223.31C31.15,222.09 31.33,221.83 31.71,220.7C32.38,218.69 32.67,214.13 34.23,212.19C35.54,210.57 38.21,209.19 39.68,209.2C40.68,209.2 41.37,210.12 42.19,210.6C43,211.07 43.84,211.78 44.57,212.04C45.11,212.23 46.08,212.34 46.1,212.26C46.13,212.15 43.4,211.31 43.45,211.03C43.51,210.66 48.44,210.44 48.48,210.59C48.5,210.66 47.72,211.05 47.64,210.95C47.38,210.63 52,202.52 53.37,202.96C56.86,204.08 57.32,257.18 53.37,266.7C51.96,270.09 47.5,272.2 47.64,272.41C47.69,272.48 48.5,272.11 48.48,272.04C48.44,271.88 43.51,272.12 43.45,272.49C43.4,272.77 46.13,273.61 46.1,273.72C46.08,273.8 45.11,273.69 44.57,273.5C43.84,273.24 43.02,272.15 42.19,272.06C41.38,271.97 40.69,272.69 39.68,272.93C38.23,273.27 35.54,272.63 34.23,273.65C32.78,274.78 32.54,279.1 31.71,279.89C31.39,280.2 31.08,279.88 30.74,280.22C29.57,281.39 28.56,290.94 26.68,291.87C25.63,292.39 24.29,290.79 23.05,290.69C21.78,290.59 20.83,291.49 19.14,291.3C15.77,290.92 7.71,288.16 4.47,285.47Q2.11,283.51 0,278.4" style="vector-effect: non-scaling-stroke; fill: none; stroke: rgb(255, 255, 255); stroke-opacity: 0; stroke-width: 2px; opacity: 1;"/></g><g class="points"/><g class="text"/></g><g class="trace scatter trace7549de" style="stroke-miterlimit: 2; opacity: 1;"><g class="fills"><g><path class="js-fill" d="M0,231.4Q-0.12,198.87 4.47,196.85C7.76,195.4 16.02,203.64 19.14,207.2C21.28,209.64 21.78,212.21 23.05,214.68C24.29,217.09 25.57,218.95 26.68,221.84C28.22,225.86 29.85,233.57 30.74,236.81C31.17,238.37 31.31,238.87 31.71,240.28C32.35,242.51 32.83,246.44 34.23,248.9C35.55,251.22 38.11,253.61 39.68,254.75C40.6,255.42 41.36,255.57 42.19,255.92C42.99,256.25 43.91,256.98 44.57,256.8C45.21,256.63 46.12,254.99 46.1,254.97C46.08,254.95 43.52,257.88 43.45,257.82C43.35,257.74 48.1,250.82 48.48,251C48.72,251.11 47.23,253.95 47.64,254.26C48.21,254.7 51.97,250.2 53.37,251.02C57.24,253.28 57.55,296.16 53.37,301.1C51.95,302.78 47.85,302.43 47.64,302.06C47.54,301.89 48.51,301.11 48.48,301.08C48.42,301.02 43.51,305.68 43.45,305.62C43.4,305.57 46.08,302.75 46.1,302.77C46.12,302.79 45.21,304.43 44.57,304.6C43.91,304.78 42.99,304.05 42.19,303.72C41.36,303.37 40.65,303.09 39.68,302.55C38.19,301.72 35.55,300.6 34.23,298.98C32.87,297.32 32.44,293.88 31.71,292.63C31.36,292.04 31.11,292.08 30.74,291.44C29.74,289.72 28.2,283.76 26.68,281.02C25.56,279 24.28,277.79 23.05,276.14C21.77,274.43 21.11,272.65 19.14,270.94C15.97,268.19 7.71,261.31 4.47,262.86Q0.44,264.79 0,288.31Z" style="fill: rgb(93, 140, 0); fill-opacity: 0.05; stroke-width: 0;"/></g></g><g class="errorbars"/><g class="lines"><path class="js-line" d="M0,231.4Q-0.12,198.87 4.47,196.85C7.76,195.4 16.02,203.64 19.14,207.2C21.28,209.64 21.78,212.21 23.05,214.68C24.29,217.09 25.57,218.95 26.68,221.84C28.22,225.86 29.85,233.57 30.74,236.81C31.17,238.37 31.31,238.87 31.71,240.28C32.35,242.51 32.83,246.44 34.23,248.9C35.55,251.22 38.11,253.61 39.68,254.75C40.6,255.42 41.36,255.57 42.19,255.92C42.99,256.25 43.91,256.98 44.57,256.8C45.21,256.63 46.12,254.99 46.1,254.97C46.08,254.95 43.52,257.88 43.45,257.82C43.35,257.74 48.1,250.82 48.48,251C48.72,251.11 47.23,253.95 47.64,254.26C48.21,254.7 51.97,250.2 53.37,251.02C57.24,253.28 57.55,296.16 53.37,301.1C51.95,302.78 47.85,302.43 47.64,302.06C47.54,301.89 48.51,301.11 48.48,301.08C48.42,301.02 43.51,305.68 43.45,305.62C43.4,305.57 46.08,302.75 46.1,302.77C46.12,302.79 45.21,304.43 44.57,304.6C43.91,304.78 42.99,304.05 42.19,303.72C41.36,303.37 40.65,303.09 39.68,302.55C38.19,301.72 35.55,300.6 34.23,298.98C32.87,297.32 32.44,293.88 31.71,292.63C31.36,292.04 31.11,292.08 30.74,291.44C29.74,289.72 28.2,283.76 26.68,281.02C25.56,279 24.28,277.79 23.05,276.14C21.77,274.43 21.11,272.65 19.14,270.94C15.97,268.19 7.71,261.31 4.47,262.86Q0.44,264.79 0,288.31" style="vector-effect: non-scaling-stroke; fill: none; stroke: rgb(255, 255, 255); stroke-opacity: 0; stroke-width: 2px; opacity: 1;"/></g><g class="points"/><g class="text"/></g><g class="trace scatter tracea92c4b" style="stroke-miterlimit: 2; opacity: 1;"><g class="fills"><g><path class="js-fill" d="M0,240.53Q2.7,240.71 4.47,241.66C8.14,243.63 16.05,250.35 19.14,254.92C21.48,258.39 21.58,262.7 23.05,265.58C24.16,267.76 25.26,270.64 26.68,270.98C27.88,271.27 29.84,268.83 30.74,268.71C31.16,268.66 31.34,269.05 31.71,268.96C32.39,268.79 33.14,267.24 34.23,266.69C35.63,265.99 38.21,265.81 39.68,265.62C40.67,265.49 41.37,265.58 42.19,265.45C43,265.32 43.9,265.18 44.57,264.82C45.18,264.49 46.05,263.42 46.1,263.46C46.16,263.52 43.28,266.5 43.45,266.69C43.65,266.92 48.47,263.62 48.48,263.64C48.49,263.65 47.62,264.17 47.64,264.2C47.69,264.28 51.98,260.67 53.37,261.56C57.11,263.95 57.34,302.86 53.37,307.09C51.96,308.59 48.03,306.78 47.64,307.45C47.42,307.84 48.7,308.75 48.48,309.16C48.13,309.84 43.48,310.07 43.45,309.94C43.42,309.84 46.02,308.85 46.1,308.99C46.17,309.11 45.15,310.31 44.57,310.35C43.88,310.39 43.04,308.94 42.19,308.7C41.4,308.48 40.67,308.73 39.68,308.86C38.21,309.05 35.63,309.24 34.23,309.94C33.14,310.49 32.39,312.04 31.71,312.21C31.34,312.3 31.16,311.91 30.74,311.96C29.84,312.08 27.88,314.52 26.68,314.23C25.26,313.89 24.27,310.69 23.05,308.83C21.76,306.86 21.19,304.7 19.14,302.72C16,299.68 8.03,295.48 4.47,294.01Q2.62,293.25 0,292.89Z" style="fill: rgb(114, 55, 105); fill-opacity: 0.05; stroke-width: 0;"/></g></g><g class="errorbars"/><g class="lines"><path class="js-line" d="M0,240.53Q2.7,240.71 4.47,241.66C8.14,243.63 16.05,250.35 19.14,254.92C21.48,258.39 21.58,262.7 23.05,265.58C24.16,267.76 25.26,270.64 26.68,270.98C27.88,271.27 29.84,268.83 30.74,268.71C31.16,268.66 31.34,269.05 31.71,268.96C32.39,268.79 33.14,267.24 34.23,266.69C35.63,265.99 38.21,265.81 39.68,265.62C40.67,265.49 41.37,265.58 42.19,265.45C43,265.32 43.9,265.18 44.57,264.82C45.18,264.49 46.05,263.42 46.1,263.46C46.16,263.52 43.28,266.5 43.45,266.69C43.65,266.92 48.47,263.62 48.48,263.64C48.49,263.65 47.62,264.17 47.64,264.2C47.69,264.28 51.98,260.67 53.37,261.56C57.11,263.95 57.34,302.86 53.37,307.09C51.96,308.59 48.03,306.78 47.64,307.45C47.42,307.84 48.7,308.75 48.48,309.16C48.13,309.84 43.48,310.07 43.45,309.94C43.42,309.84 46.02,308.85 46.1,308.99C46.17,309.11 45.15,310.31 44.57,310.35C43.88,310.39 43.04,308.94 42.19,308.7C41.4,308.48 40.67,308.73 39.68,308.86C38.21,309.05 35.63,309.24 34.23,309.94C33.14,310.49 32.39,312.04 31.71,312.21C31.34,312.3 31.16,311.91 30.74,311.96C29.84,312.08 27.88,314.52 26.68,314.23C25.26,313.89 24.27,310.69 23.05,308.83C21.76,306.86 21.19,304.7 19.14,302.72C16,299.68 8.03,295.48 4.47,294.01Q2.62,293.25 0,292.89" style="vector-effect: non-scaling-stroke; fill: none; stroke: rgb(255, 255, 255); stroke-opacity: 0; stroke-width: 2px; opacity: 1;"/></g><g class="points"/><g class="text"/></g><g class="trace scatter tracec0d437" style="stroke-miterlimit: 2; opacity: 1;"><g class="fills"><g><path class="js-fill" d="M0,251.17Q0.99,266.72 4.47,268.68C7.67,270.49 15.97,263.37 19.14,264.26C21.1,264.81 21.67,267.56 23.05,268.64C24.21,269.55 25.41,270.08 26.68,270.57C27.97,271.07 29.87,271.74 30.74,271.61C31.19,271.54 31.3,271.08 31.71,271.03C32.34,270.95 33.22,271.55 34.23,271.79C35.69,272.13 38.31,271.93 39.68,272.72C40.84,273.39 41.31,275.64 42.19,275.75C42.95,275.84 43.89,274.62 44.57,274.01C45.17,273.48 46.19,272.48 46.1,272.35C45.99,272.2 43.45,273.52 43.45,273.53C43.46,273.54 48.34,271.19 48.48,271.39C48.54,271.48 47.59,271.93 47.64,272.28C47.76,273.1 52.02,273.26 53.37,275.61C56.63,281.28 56.92,311.35 53.37,314.31C51.99,315.46 47.82,313.82 47.64,313.26C47.56,313 48.55,312.45 48.48,312.36C48.34,312.16 43.45,314.52 43.45,314.51C43.45,314.5 45.99,313.18 46.1,313.33C46.19,313.46 45.2,314.78 44.57,314.98C43.91,315.19 42.99,314.66 42.19,314.45C41.36,314.23 40.69,313.93 39.68,313.69C38.22,313.35 35.66,312.5 34.23,312.77C33.19,312.97 32.31,314.44 31.71,314.28C31.22,314.15 31.31,313.02 30.74,312.59C29.91,311.96 28,311.64 26.68,311.54C25.44,311.44 24.18,312.33 23.05,311.89C21.62,311.33 21.1,308.06 19.14,307.51C15.97,306.62 7.66,313.44 4.47,311.93Q1.7,310.62 0,301.25Z" style="fill: rgb(230, 172, 33); fill-opacity: 0.05; stroke-width: 0;"/></g></g><g class="errorbars"/><g class="lines"><path class="js-line" d="M0,251.17Q0.99,266.72 4.47,268.68C7.67,270.49 15.97,263.37 19.14,264.26C21.1,264.81 21.67,267.56 23.05,268.64C24.21,269.55 25.41,270.08 26.68,270.57C27.97,271.07 29.87,271.74 30.74,271.61C31.19,271.54 31.3,271.08 31.71,271.03C32.34,270.95 33.22,271.55 34.23,271.79C35.69,272.13 38.31,271.93 39.68,272.72C40.84,273.39 41.31,275.64 42.19,275.75C42.95,275.84 43.89,274.62 44.57,274.01C45.17,273.48 46.19,272.48 46.1,272.35C45.99,272.2 43.45,273.52 43.45,273.53C43.46,273.54 48.34,271.19 48.48,271.39C48.54,271.48 47.59,271.93 47.64,272.28C47.76,273.1 52.02,273.26 53.37,275.61C56.63,281.28 56.92,311.35 53.37,314.31C51.99,315.46 47.82,313.82 47.64,313.26C47.56,313 48.55,312.45 48.48,312.36C48.34,312.16 43.45,314.52 43.45,314.51C43.45,314.5 45.99,313.18 46.1,313.33C46.19,313.46 45.2,314.78 44.57,314.98C43.91,315.19 42.99,314.66 42.19,314.45C41.36,314.23 40.69,313.93 39.68,313.69C38.22,313.35 35.66,312.5 34.23,312.77C33.19,312.97 32.31,314.44 31.71,314.28C31.22,314.15 31.31,313.02 30.74,312.59C29.91,311.96 28,311.64 26.68,311.54C25.44,311.44 24.18,312.33 23.05,311.89C21.62,311.33 21.1,308.06 19.14,307.51C15.97,306.62 7.66,313.44 4.47,311.93Q1.7,310.62 0,301.25" style="vector-effect: non-scaling-stroke; fill: none; stroke: rgb(255, 255, 255); stroke-opacity: 0; stroke-width: 2px; opacity: 1;"/></g><g class="points"/><g class="text"/></g><g class="trace scatter trace404bbf" style="stroke-miterlimit: 2; opacity: 1;"><g class="fills"><g><path class="js-fill" d="M0,267.37Q2.58,269.36 4.47,270.98C7.98,273.97 15.61,282.79 19.14,284.21C20.71,284.84 21.9,284.9 23.05,284.32C24.51,283.58 25.59,281.36 26.68,279.13C28.29,275.83 29.53,266.5 30.74,265.94C31.07,265.79 31.34,266.44 31.71,266.36C32.4,266.21 33.19,263.62 34.23,263.55C35.66,263.45 38.13,267.35 39.68,268.11C40.61,268.57 41.46,268.13 42.19,268.65C43.17,269.36 43.8,271.67 44.57,272.64C45.09,273.3 46.02,274.2 46.1,274.13C46.23,274.03 43.38,269.84 43.45,269.79C43.54,269.73 48.48,276.64 48.48,276.64C48.48,276.64 47.54,275.63 47.64,275.5C47.86,275.23 52.01,275.9 53.37,277.97C56.76,283.13 56.76,314.44 53.37,316.67C52.01,317.57 47.86,313.93 47.64,314.2C47.54,314.33 48.58,315.21 48.48,315.33C48.29,315.57 43.55,312.88 43.45,313.04C43.37,313.17 46.06,315.14 46.1,315.1C46.13,315.07 45.16,314.1 44.57,313.61C43.88,313.03 43.04,312.27 42.19,311.9C41.4,311.55 40.66,311.67 39.68,311.36C38.19,310.89 35.72,309.22 34.23,309.08C33.25,308.99 32.3,309.17 31.71,309.61C31.18,310.01 31.2,310.67 30.74,311.46C29.87,312.96 28.14,316.2 26.68,317.83C25.54,319.11 24.37,320.3 23.05,320.74C21.84,321.15 20.81,321 19.14,320.63C15.76,319.87 7.86,316.29 4.47,314.23Q2.44,313 0,310.62Z" style="fill: rgb(240, 125, 0); fill-opacity: 0.05; stroke-width: 0;"/></g></g><g class="errorbars"/><g class="lines"><path class="js-line" d="M0,267.37Q2.58,269.36 4.47,270.98C7.98,273.97 15.61,282.79 19.14,284.21C20.71,284.84 21.9,284.9 23.05,284.32C24.51,283.58 25.59,281.36 26.68,279.13C28.29,275.83 29.53,266.5 30.74,265.94C31.07,265.79 31.34,266.44 31.71,266.36C32.4,266.21 33.19,263.62 34.23,263.55C35.66,263.45 38.13,267.35 39.68,268.11C40.61,268.57 41.46,268.13 42.19,268.65C43.17,269.36 43.8,271.67 44.57,272.64C45.09,273.3 46.02,274.2 46.1,274.13C46.23,274.03 43.38,269.84 43.45,269.79C43.54,269.73 48.48,276.64 48.48,276.64C48.48,276.64 47.54,275.63 47.64,275.5C47.86,275.23 52.01,275.9 53.37,277.97C56.76,283.13 56.76,314.44 53.37,316.67C52.01,317.57 47.86,313.93 47.64,314.2C47.54,314.33 48.58,315.21 48.48,315.33C48.29,315.57 43.55,312.88 43.45,313.04C43.37,313.17 46.06,315.14 46.1,315.1C46.13,315.07 45.16,314.1 44.57,313.61C43.88,313.03 43.04,312.27 42.19,311.9C41.4,311.55 40.66,311.67 39.68,311.36C38.19,310.89 35.72,309.22 34.23,309.08C33.25,308.99 32.3,309.17 31.71,309.61C31.18,310.01 31.2,310.67 30.74,311.46C29.87,312.96 28.14,316.2 26.68,317.83C25.54,319.11 24.37,320.3 23.05,320.74C21.84,321.15 20.81,321 19.14,320.63C15.76,319.87 7.86,316.29 4.47,314.23Q2.44,313 0,310.62" style="vector-effect: non-scaling-stroke; fill: none; stroke: rgb(255, 255, 255); stroke-opacity: 0; stroke-width: 2px; opacity: 1;"/></g><g class="points"/><g class="text"/></g><g class="trace scatter tracefb7c5c" style="stroke-miterlimit: 2; opacity: 1;"><g class="fills"><g><path class="js-fill" d="M0,273.13Q1.59,282.29 4.47,284.25C7.66,286.42 15.85,285 19.14,284.35C20.91,284 21.81,282.58 23.05,282.72C24.32,282.86 25.42,284.46 26.68,285.29C27.98,286.14 29.9,286.93 30.74,287.75C31.26,288.26 31.21,288.98 31.71,289.27C32.3,289.61 33.31,289.74 34.23,289.4C35.81,288.82 38.13,285.26 39.68,284.26C40.61,283.66 41.4,283.71 42.19,283.24C43.03,282.75 43.83,281.49 44.57,281.33C45.11,281.21 46.11,281.69 46.1,281.72C46.09,281.76 43.45,281.3 43.45,281.31C43.45,281.32 48.45,282.27 48.48,282.16C48.49,282.11 47.66,281.77 47.64,281.81C47.58,281.92 52.05,283.26 53.37,285.77C56.28,291.32 56.59,317.5 53.37,319.91C52.02,320.92 47.66,318.17 47.64,318.23C47.63,318.25 48.49,318.44 48.48,318.58C48.46,318.92 43.56,320.24 43.45,320.01C43.36,319.83 46.01,318.04 46.1,318.14C46.18,318.23 45.22,319.77 44.57,320.02C43.92,320.27 42.98,319.57 42.19,319.66C41.35,319.76 40.66,320.22 39.68,320.68C38.2,321.37 35.74,323.21 34.23,323.54C33.26,323.75 32.3,323.76 31.71,323.42C31.21,323.13 31.3,322.21 30.74,321.89C29.91,321.41 27.94,322.14 26.68,321.71C25.36,321.26 24.32,319.28 23.05,319.14C21.81,319 20.91,320.42 19.14,320.77C15.85,321.42 7.71,322.4 4.47,320.67Q2.09,319.4 0,314.11Z" style="fill: rgb(0, 51, 255); fill-opacity: 0.05; stroke-width: 0;"/></g></g><g class="errorbars"/><g class="lines"><path class="js-line" d="M0,273.13Q1.59,282.29 4.47,284.25C7.66,286.42 15.85,285 19.14,284.35C20.91,284 21.81,282.58 23.05,282.72C24.32,282.86 25.42,284.46 26.68,285.29C27.98,286.14 29.9,286.93 30.74,287.75C31.26,288.26 31.21,288.98 31.71,289.27C32.3,289.61 33.31,289.74 34.23,289.4C35.81,288.82 38.13,285.26 39.68,284.26C40.61,283.66 41.4,283.71 42.19,283.24C43.03,282.75 43.83,281.49 44.57,281.33C45.11,281.21 46.11,281.69 46.1,281.72C46.09,281.76 43.45,281.3 43.45,281.31C43.45,281.32 48.45,282.27 48.48,282.16C48.49,282.11 47.66,281.77 47.64,281.81C47.58,281.92 52.05,283.26 53.37,285.77C56.28,291.32 56.59,317.5 53.37,319.91C52.02,320.92 47.66,318.17 47.64,318.23C47.63,318.25 48.49,318.44 48.48,318.58C48.46,318.92 43.56,320.24 43.45,320.01C43.36,319.83 46.01,318.04 46.1,318.14C46.18,318.23 45.22,319.77 44.57,320.02C43.92,320.27 42.98,319.57 42.19,319.66C41.35,319.76 40.66,320.22 39.68,320.68C38.2,321.37 35.74,323.21 34.23,323.54C33.26,323.75 32.3,323.76 31.71,323.42C31.21,323.13 31.3,322.21 30.74,321.89C29.91,321.41 27.94,322.14 26.68,321.71C25.36,321.26 24.32,319.28 23.05,319.14C21.81,319 20.91,320.42 19.14,320.77C15.85,321.42 7.71,322.4 4.47,320.67Q2.09,319.4 0,314.11" style="vector-effect: non-scaling-stroke; fill: none; stroke: rgb(255, 255, 255); stroke-opacity: 0; stroke-width: 2px; opacity: 1;"/></g><g class="points"/><g class="text"/></g><g class="trace scatter tracede4a45" style="stroke-miterlimit: 2; opacity: 1;"><g class="fills"><g><path class="js-fill" d="M0,279.5Q2.75,278.18 4.47,278.79C8.25,280.12 15.72,294.71 19.14,294.98C20.78,295.11 21.68,292.31 23.05,291.83C24.21,291.43 25.47,292.15 26.68,291.86C28.04,291.53 29.83,289.98 30.74,289.73C31.16,289.62 31.33,289.81 31.71,289.68C32.38,289.44 33.16,288.16 34.23,287.83C35.64,287.39 38.22,287.78 39.68,287.98C40.69,288.12 41.36,288.41 42.19,288.6C42.99,288.79 43.96,288.53 44.57,289.12C45.54,290.06 46.21,295.07 46.1,295.11C45.97,295.15 43.15,288.24 43.45,288.08C43.77,287.91 48.27,295.26 48.48,295.14C48.59,295.08 47.35,293.36 47.64,292.99C48.11,292.41 52.05,292.33 53.37,293.87C56.36,297.36 56.33,319.69 53.37,323.46C52.05,325.14 47.63,324.81 47.64,324.86C47.64,324.88 48.46,324.85 48.48,324.73C48.53,324.42 43.59,322.03 43.45,322.23C43.34,322.39 46.1,324.7 46.1,324.7C46.1,324.7 45.19,323.59 44.57,323.27C43.9,322.92 42.99,322.94 42.19,322.75C41.36,322.56 40.69,322.27 39.68,322.13C38.22,321.93 35.7,322.11 34.23,321.97C33.23,321.87 32.35,321.59 31.71,321.55C31.31,321.53 31.16,321.48 30.74,321.59C29.83,321.83 28.04,323.4 26.68,323.73C25.47,324.02 24.27,323.56 23.05,323.69C21.76,323.83 20.82,324.76 19.14,324.57C15.76,324.18 8.01,318.01 4.47,317.49Q2.6,317.22 0,318.2Z" style="fill: rgb(140, 0, 0); fill-opacity: 0.05; stroke-width: 0;"/></g></g><g class="errorbars"/><g class="lines"><path class="js-line" d="M0,279.5Q2.75,278.18 4.47,278.79C8.25,280.12 15.72,294.71 19.14,294.98C20.78,295.11 21.68,292.31 23.05,291.83C24.21,291.43 25.47,292.15 26.68,291.86C28.04,291.53 29.83,289.98 30.74,289.73C31.16,289.62 31.33,289.81 31.71,289.68C32.38,289.44 33.16,288.16 34.23,287.83C35.64,287.39 38.22,287.78 39.68,287.98C40.69,288.12 41.36,288.41 42.19,288.6C42.99,288.79 43.96,288.53 44.57,289.12C45.54,290.06 46.21,295.07 46.1,295.11C45.97,295.15 43.15,288.24 43.45,288.08C43.77,287.91 48.27,295.26 48.48,295.14C48.59,295.08 47.35,293.36 47.64,292.99C48.11,292.41 52.05,292.33 53.37,293.87C56.36,297.36 56.33,319.69 53.37,323.46C52.05,325.14 47.63,324.81 47.64,324.86C47.64,324.88 48.46,324.85 48.48,324.73C48.53,324.42 43.59,322.03 43.45,322.23C43.34,322.39 46.1,324.7 46.1,324.7C46.1,324.7 45.19,323.59 44.57,323.27C43.9,322.92 42.99,322.94 42.19,322.75C41.36,322.56 40.69,322.27 39.68,322.13C38.22,321.93 35.7,322.11 34.23,321.97C33.23,321.87 32.35,321.59 31.71,321.55C31.31,321.53 31.16,321.48 30.74,321.59C29.83,321.83 28.04,323.4 26.68,323.73C25.47,324.02 24.27,323.56 23.05,323.69C21.76,323.83 20.82,324.76 19.14,324.57C15.76,324.18 8.01,318.01 4.47,317.49Q2.6,317.22 0,318.2" style="vector-effect: non-scaling-stroke; fill: none; stroke: rgb(255, 255, 255); stroke-opacity: 0; stroke-width: 2px; opacity: 1;"/></g><g class="points"/><g class="text"/></g><g class="trace scatter trace7d2b45" style="stroke-miterlimit: 2; opacity: 1;"><g class="fills"/><g class="errorbars"/><g class="lines"><path class="js-line" d="M0,90.68Q2.61,90.72 4.47,91.29C8.01,92.38 16.06,99.72 19.14,98.55C21.6,97.62 21.56,91.41 23.05,88.89C24.16,87.02 25.45,86 26.68,84.44C28.01,82.76 29.8,80.06 30.74,79.14C31.14,78.75 31.35,78.8 31.71,78.43C32.41,77.71 33.24,76.22 34.23,74.74C35.71,72.55 38.06,68.17 39.68,66.56C40.58,65.67 41.33,65.09 42.19,64.91C42.96,64.75 43.87,65.18 44.57,65.33C45.14,65.45 46.11,65.66 46.1,65.73C46.09,65.82 43.48,65.51 43.45,65.66C43.41,65.88 48.29,67.65 48.48,67.38C48.57,67.25 47.72,66.3 47.64,66.35Q47.38,66.51 53.37,79.6" style="vector-effect: non-scaling-stroke; fill: none; stroke: rgb(38, 16, 96); stroke-opacity: 1; stroke-width: 7px; opacity: 1;"/></g><g class="points"/><g class="text"/></g><g class="trace scatter trace827fa7" style="stroke-miterlimit: 2; opacity: 1;"><g class="fills"/><g class="errorbars"/><g class="lines"/><g class="points"><path class="point" transform="translate(0,90.35)" d="M7.5,0A7.5,7.5 0 1,1 0,-7.5A7.5,7.5 0 0,1 7.5,0Z" style="opacity: 1; stroke-width: 0px; fill: rgb(38, 16, 96); fill-opacity: 0.25;"/><path class="point" transform="translate(4.47,91.23)" d="M7.5,0A7.5,7.5 0 1,1 0,-7.5A7.5,7.5 0 0,1 7.5,0Z" style="opacity: 1; stroke-width: 0px; fill: rgb(38, 16, 96); fill-opacity: 0.25;"/><path class="point" transform="translate(19.14,108.92)" d="M7.5,0A7.5,7.5 0 1,1 0,-7.5A7.5,7.5 0 0,1 7.5,0Z" style="opacity: 1; stroke-width: 0px; fill: rgb(38, 16, 96); fill-opacity: 0.25;"/><path class="point" transform="translate(23.05,86.81)" d="M7.5,0A7.5,7.5 0 1,1 0,-7.5A7.5,7.5 0 0,1 7.5,0Z" style="opacity: 1; stroke-width: 0px; fill: rgb(38, 16, 96); fill-opacity: 0.25;"/><path class="point" transform="translate(26.68,86.81)" d="M7.5,0A7.5,7.5 0 1,1 0,-7.5A7.5,7.5 0 0,1 7.5,0Z" style="opacity: 1; stroke-width: 0px; fill: rgb(38, 16, 96); fill-opacity: 0.25;"/><path class="point" transform="translate(30.74,77.97)" d="M7.5,0A7.5,7.5 0 1,1 0,-7.5A7.5,7.5 0 0,1 7.5,0Z" style="opacity: 1; stroke-width: 0px; fill: rgb(38, 16, 96); fill-opacity: 0.25;"/><path class="point" transform="translate(31.71,82.39)" d="M7.5,0A7.5,7.5 0 1,1 0,-7.5A7.5,7.5 0 0,1 7.5,0Z" style="opacity: 1; stroke-width: 0px; fill: rgb(38, 16, 96); fill-opacity: 0.25;"/><path class="point" transform="translate(34.23,73.55)" d="M7.5,0A7.5,7.5 0 1,1 0,-7.5A7.5,7.5 0 0,1 7.5,0Z" style="opacity: 1; stroke-width: 0px; fill: rgb(38, 16, 96); fill-opacity: 0.25;"/><path class="point" transform="translate(39.68,64.7)" d="M7.5,0A7.5,7.5 0 1,1 0,-7.5A7.5,7.5 0 0,1 7.5,0Z" style="opacity: 1; stroke-width: 0px; fill: rgb(38, 16, 96); fill-opacity: 0.25;"/><path class="point" transform="translate(42.19,54.98)" d="M7.5,0A7.5,7.5 0 1,1 0,-7.5A7.5,7.5 0 0,1 7.5,0Z" style="opacity: 1; stroke-width: 0px; fill: rgb(38, 16, 96); fill-opacity: 0.25;"/><path class="point" transform="translate(44.57,60.28)" d="M7.5,0A7.5,7.5 0 1,1 0,-7.5A7.5,7.5 0 0,1 7.5,0Z" style="opacity: 1; stroke-width: 0px; fill: rgb(38, 16, 96); fill-opacity: 0.25;"/><path class="point" transform="translate(46.1,64.7)" d="M7.5,0A7.5,7.5 0 1,1 0,-7.5A7.5,7.5 0 0,1 7.5,0Z" style="opacity: 1; stroke-width: 0px; fill: rgb(38, 16, 96); fill-opacity: 0.25;"/><path class="point" transform="translate(43.45,73.55)" d="M7.5,0A7.5,7.5 0 1,1 0,-7.5A7.5,7.5 0 0,1 7.5,0Z" style="opacity: 1; stroke-width: 0px; fill: rgb(38, 16, 96); fill-opacity: 0.25;"/><path class="point" transform="translate(48.48,69.12)" d="M7.5,0A7.5,7.5 0 1,1 0,-7.5A7.5,7.5 0 0,1 7.5,0Z" style="opacity: 1; stroke-width: 0px; fill: rgb(38, 16, 96); fill-opacity: 0.25;"/><path class="point" transform="translate(47.64,60.28)" d="M7.5,0A7.5,7.5 0 1,1 0,-7.5A7.5,7.5 0 0,1 7.5,0Z" style="opacity: 1; stroke-width: 0px; fill: rgb(38, 16, 96); fill-opacity: 0.25;"/><path class="point" transform="translate(53.37,95.65)" d="M7.5,0A7.5,7.5 0 1,1 0,-7.5A7.5,7.5 0 0,1 7.5,0Z" style="opacity: 1; stroke-width: 0px; fill: rgb(38, 16, 96); fill-opacity: 0.25;"/></g><g class="text"/></g><g class="trace scatter trace07e5d5" style="stroke-miterlimit: 2; opacity: 1;"><g class="fills"/><g class="errorbars"/><g class="lines"><path class="js-line" d="M0,204.56Q2.79,199.65 4.47,195.08C8.36,184.49 15.12,149.37 19.14,140.62C20.55,137.55 21.54,135.86 23.05,134.89C24.15,134.18 25.66,133.54 26.68,134.26C29.29,136.1 29.18,156.51 30.74,158.06C31.05,158.37 31.41,157.93 31.71,158.22C32.78,159.25 32.98,166.18 34.23,170.19C35.57,174.5 37.76,181.59 39.68,183.18C40.5,183.86 41.43,183.97 42.19,183.72C43.09,183.43 43.87,181.08 44.57,181.09C45.14,181.1 46.24,182.64 46.1,182.91C45.95,183.2 43.55,183.03 43.45,182.66C43.3,182.1 48.16,178.74 48.48,179C48.67,179.15 47.69,181.01 47.64,180.99Q47.48,180.93 53.37,162.1" style="vector-effect: non-scaling-stroke; fill: none; stroke: rgb(0, 68, 148); stroke-opacity: 1; stroke-width: 7px; opacity: 1;"/></g><g class="points"/><g class="text"/></g><g class="trace scatter trace771c58" style="stroke-miterlimit: 2; opacity: 1;"><g class="fills"/><g class="errorbars"/><g class="lines"/><g class="points"><path class="point" transform="translate(0,209.73)" d="M7.5,0A7.5,7.5 0 1,1 0,-7.5A7.5,7.5 0 0,1 7.5,0Z" style="opacity: 1; stroke-width: 0px; fill: rgb(0, 68, 148); fill-opacity: 0.25;"/><path class="point" transform="translate(4.47,192.93)" d="M7.5,0A7.5,7.5 0 1,1 0,-7.5A7.5,7.5 0 0,1 7.5,0Z" style="opacity: 1; stroke-width: 0px; fill: rgb(0, 68, 148); fill-opacity: 0.25;"/><path class="point" transform="translate(19.14,144.29)" d="M7.5,0A7.5,7.5 0 1,1 0,-7.5A7.5,7.5 0 0,1 7.5,0Z" style="opacity: 1; stroke-width: 0px; fill: rgb(0, 68, 148); fill-opacity: 0.25;"/><path class="point" transform="translate(23.05,131.03)" d="M7.5,0A7.5,7.5 0 1,1 0,-7.5A7.5,7.5 0 0,1 7.5,0Z" style="opacity: 1; stroke-width: 0px; fill: rgb(0, 68, 148); fill-opacity: 0.25;"/><path class="point" transform="translate(26.68,100.08)" d="M7.5,0A7.5,7.5 0 1,1 0,-7.5A7.5,7.5 0 0,1 7.5,0Z" style="opacity: 1; stroke-width: 0px; fill: rgb(0, 68, 148); fill-opacity: 0.25;"/><path class="point" transform="translate(30.74,184.09)" d="M7.5,0A7.5,7.5 0 1,1 0,-7.5A7.5,7.5 0 0,1 7.5,0Z" style="opacity: 1; stroke-width: 0px; fill: rgb(0, 68, 148); fill-opacity: 0.25;"/><path class="point" transform="translate(31.71,131.03)" d="M7.5,0A7.5,7.5 0 1,1 0,-7.5A7.5,7.5 0 0,1 7.5,0Z" style="opacity: 1; stroke-width: 0px; fill: rgb(0, 68, 148); fill-opacity: 0.25;"/><path class="point" transform="translate(34.23,187.62)" d="M7.5,0A7.5,7.5 0 1,1 0,-7.5A7.5,7.5 0 0,1 7.5,0Z" style="opacity: 1; stroke-width: 0px; fill: rgb(0, 68, 148); fill-opacity: 0.25;"/><path class="point" transform="translate(39.68,192.93)" d="M7.5,0A7.5,7.5 0 1,1 0,-7.5A7.5,7.5 0 0,1 7.5,0Z" style="opacity: 1; stroke-width: 0px; fill: rgb(0, 68, 148); fill-opacity: 0.25;"/><path class="point" transform="translate(42.19,192.93)" d="M7.5,0A7.5,7.5 0 1,1 0,-7.5A7.5,7.5 0 0,1 7.5,0Z" style="opacity: 1; stroke-width: 0px; fill: rgb(0, 68, 148); fill-opacity: 0.25;"/><path class="point" transform="translate(44.57,157.56)" d="M7.5,0A7.5,7.5 0 1,1 0,-7.5A7.5,7.5 0 0,1 7.5,0Z" style="opacity: 1; stroke-width: 0px; fill: rgb(0, 68, 148); fill-opacity: 0.25;"/><path class="point" transform="translate(46.1,204.43)" d="M7.5,0A7.5,7.5 0 1,1 0,-7.5A7.5,7.5 0 0,1 7.5,0Z" style="opacity: 1; stroke-width: 0px; fill: rgb(0, 68, 148); fill-opacity: 0.25;"/><path class="point" transform="translate(43.45,188.51)" d="M7.5,0A7.5,7.5 0 1,1 0,-7.5A7.5,7.5 0 0,1 7.5,0Z" style="opacity: 1; stroke-width: 0px; fill: rgb(0, 68, 148); fill-opacity: 0.25;"/><path class="point" transform="translate(48.48,170.82)" d="M7.5,0A7.5,7.5 0 1,1 0,-7.5A7.5,7.5 0 0,1 7.5,0Z" style="opacity: 1; stroke-width: 0px; fill: rgb(0, 68, 148); fill-opacity: 0.25;"/><path class="point" transform="translate(47.64,188.51)" d="M7.5,0A7.5,7.5 0 1,1 0,-7.5A7.5,7.5 0 0,1 7.5,0Z" style="opacity: 1; stroke-width: 0px; fill: rgb(0, 68, 148); fill-opacity: 0.25;"/><path class="point" transform="translate(53.37,139.87)" d="M7.5,0A7.5,7.5 0 1,1 0,-7.5A7.5,7.5 0 0,1 7.5,0Z" style="opacity: 1; stroke-width: 0px; fill: rgb(0, 68, 148); fill-opacity: 0.25;"/></g><g class="text"/></g><g class="trace scatter tracea439ef" style="stroke-miterlimit: 2; opacity: 1;"><g class="fills"/><g class="errorbars"/><g class="lines"><path class="js-line" d="M0,245.17Q2.7,245.9 4.47,245.28C8.14,243.99 15.86,232.8 19.14,232.96C20.91,233.04 21.8,237 23.05,236.94C24.32,236.88 25.39,233.89 26.68,232.51C27.95,231.16 29.82,229.43 30.74,228.75C31.15,228.45 31.35,228.51 31.71,228.19C32.41,227.55 33.11,225.78 34.23,224.69C35.62,223.35 38.16,221.67 39.68,221.03C40.63,220.63 41.36,220.56 42.19,220.51C42.99,220.47 43.88,220.84 44.57,220.73C45.15,220.64 46.12,220.24 46.1,220.08C46.07,219.88 43.54,219.51 43.45,219.74C43.32,220.09 48.42,223.24 48.48,223.16C48.51,223.13 47.63,222.38 47.64,222.37Q47.66,222.35 53.37,227.29" style="vector-effect: non-scaling-stroke; fill: none; stroke: rgb(234, 35, 41); stroke-opacity: 1; stroke-width: 7px; opacity: 1;"/></g><g class="points"/><g class="text"/></g><g class="trace scatter trace288181" style="stroke-miterlimit: 2; opacity: 1;"><g class="fills"/><g class="errorbars"/><g class="lines"/><g class="points"><path class="point" transform="translate(0,245.1)" d="M7.5,0A7.5,7.5 0 1,1 0,-7.5A7.5,7.5 0 0,1 7.5,0Z" style="opacity: 1; stroke-width: 0px; fill: rgb(234, 35, 41); fill-opacity: 0.25;"/><path class="point" transform="translate(4.47,245.99)" d="M7.5,0A7.5,7.5 0 1,1 0,-7.5A7.5,7.5 0 0,1 7.5,0Z" style="opacity: 1; stroke-width: 0px; fill: rgb(234, 35, 41); fill-opacity: 0.25;"/><path class="point" transform="translate(19.14,228.3)" d="M7.5,0A7.5,7.5 0 1,1 0,-7.5A7.5,7.5 0 0,1 7.5,0Z" style="opacity: 1; stroke-width: 0px; fill: rgb(234, 35, 41); fill-opacity: 0.25;"/><path class="point" transform="translate(23.05,245.99)" d="M7.5,0A7.5,7.5 0 1,1 0,-7.5A7.5,7.5 0 0,1 7.5,0Z" style="opacity: 1; stroke-width: 0px; fill: rgb(234, 35, 41); fill-opacity: 0.25;"/><path class="point" transform="translate(26.68,232.72)" d="M7.5,0A7.5,7.5 0 1,1 0,-7.5A7.5,7.5 0 0,1 7.5,0Z" style="opacity: 1; stroke-width: 0px; fill: rgb(234, 35, 41); fill-opacity: 0.25;"/><path class="point" transform="translate(30.74,228.3)" d="M7.5,0A7.5,7.5 0 1,1 0,-7.5A7.5,7.5 0 0,1 7.5,0Z" style="opacity: 1; stroke-width: 0px; fill: rgb(234, 35, 41); fill-opacity: 0.25;"/><path class="point" transform="translate(31.71,232.72)" d="M7.5,0A7.5,7.5 0 1,1 0,-7.5A7.5,7.5 0 0,1 7.5,0Z" style="opacity: 1; stroke-width: 0px; fill: rgb(234, 35, 41); fill-opacity: 0.25;"/><path class="point" transform="translate(34.23,219.46)" d="M7.5,0A7.5,7.5 0 1,1 0,-7.5A7.5,7.5 0 0,1 7.5,0Z" style="opacity: 1; stroke-width: 0px; fill: rgb(234, 35, 41); fill-opacity: 0.25;"/><path class="point" transform="translate(39.68,219.46)" d="M7.5,0A7.5,7.5 0 1,1 0,-7.5A7.5,7.5 0 0,1 7.5,0Z" style="opacity: 1; stroke-width: 0px; fill: rgb(234, 35, 41); fill-opacity: 0.25;"/><path class="point" transform="translate(42.19,224.77)" d="M7.5,0A7.5,7.5 0 1,1 0,-7.5A7.5,7.5 0 0,1 7.5,0Z" style="opacity: 1; stroke-width: 0px; fill: rgb(234, 35, 41); fill-opacity: 0.25;"/><path class="point" transform="translate(44.57,232.72)" d="M7.5,0A7.5,7.5 0 1,1 0,-7.5A7.5,7.5 0 0,1 7.5,0Z" style="opacity: 1; stroke-width: 0px; fill: rgb(234, 35, 41); fill-opacity: 0.25;"/><path class="point" transform="translate(46.1,203.54)" d="M7.5,0A7.5,7.5 0 1,1 0,-7.5A7.5,7.5 0 0,1 7.5,0Z" style="opacity: 1; stroke-width: 0px; fill: rgb(234, 35, 41); fill-opacity: 0.25;"/><path class="point" transform="translate(43.45,206.19)" d="M7.5,0A7.5,7.5 0 1,1 0,-7.5A7.5,7.5 0 0,1 7.5,0Z" style="opacity: 1; stroke-width: 0px; fill: rgb(234, 35, 41); fill-opacity: 0.25;"/><path class="point" transform="translate(48.48,228.3)" d="M7.5,0A7.5,7.5 0 1,1 0,-7.5A7.5,7.5 0 0,1 7.5,0Z" style="opacity: 1; stroke-width: 0px; fill: rgb(234, 35, 41); fill-opacity: 0.25;"/><path class="point" transform="translate(47.64,228.3)" d="M7.5,0A7.5,7.5 0 1,1 0,-7.5A7.5,7.5 0 0,1 7.5,0Z" style="opacity: 1; stroke-width: 0px; fill: rgb(234, 35, 41); fill-opacity: 0.25;"/><path class="point" transform="translate(53.37,232.72)" d="M7.5,0A7.5,7.5 0 1,1 0,-7.5A7.5,7.5 0 0,1 7.5,0Z" style="opacity: 1; stroke-width: 0px; fill: rgb(234, 35, 41); fill-opacity: 0.25;"/></g><g class="text"/></g><g class="trace scatter trace7a578b" style="stroke-miterlimit: 2; opacity: 1;"><g class="fills"/><g class="errorbars"/><g class="lines"><path class="js-line" d="M0,249.58Q2.21,254.13 4.47,256.17C7.74,259.11 15.74,262.85 19.14,263.99C20.8,264.55 21.78,264.32 23.05,264.61C24.29,264.89 25.64,266.26 26.68,265.7C28.67,264.63 29.77,254.75 30.74,252.31C31.12,251.35 31.35,251.24 31.71,250.37C32.4,248.71 32.69,244.42 34.23,242.95C35.54,241.7 38.22,241.35 39.68,241.39C40.68,241.42 41.36,241.97 42.19,242.26C42.99,242.54 43.86,243.03 44.57,243.1C45.13,243.16 46.08,243.03 46.1,242.88C46.12,242.67 43.41,241.98 43.45,241.83C43.5,241.63 48.44,242.44 48.48,242.28C48.5,242.21 47.69,242.16 47.64,241.91Q47.5,241.16 53.37,236.24" style="vector-effect: non-scaling-stroke; fill: none; stroke: rgb(0, 0, 0); stroke-opacity: 1; stroke-width: 7px; opacity: 1;"/></g><g class="points"/><g class="text"/></g><g class="trace scatter traceee6136" style="stroke-miterlimit: 2; opacity: 1;"><g class="fills"/><g class="errorbars"/><g class="lines"/><g class="points"><path class="point" transform="translate(0,245.99)" d="M7.5,0A7.5,7.5 0 1,1 0,-7.5A7.5,7.5 0 0,1 7.5,0Z" style="opacity: 1; stroke-width: 0px; fill: rgb(0, 0, 0); fill-opacity: 0.25;"/><path class="point" transform="translate(4.47,259.25)" d="M7.5,0A7.5,7.5 0 1,1 0,-7.5A7.5,7.5 0 0,1 7.5,0Z" style="opacity: 1; stroke-width: 0px; fill: rgb(0, 0, 0); fill-opacity: 0.25;"/><path class="point" transform="translate(19.14,263.68)" d="M7.5,0A7.5,7.5 0 1,1 0,-7.5A7.5,7.5 0 0,1 7.5,0Z" style="opacity: 1; stroke-width: 0px; fill: rgb(0, 0, 0); fill-opacity: 0.25;"/><path class="point" transform="translate(23.05,263.68)" d="M7.5,0A7.5,7.5 0 1,1 0,-7.5A7.5,7.5 0 0,1 7.5,0Z" style="opacity: 1; stroke-width: 0px; fill: rgb(0, 0, 0); fill-opacity: 0.25;"/><path class="point" transform="translate(26.68,285.78)" d="M7.5,0A7.5,7.5 0 1,1 0,-7.5A7.5,7.5 0 0,1 7.5,0Z" style="opacity: 1; stroke-width: 0px; fill: rgb(0, 0, 0); fill-opacity: 0.25;"/><path class="point" transform="translate(30.74,250.41)" d="M7.5,0A7.5,7.5 0 1,1 0,-7.5A7.5,7.5 0 0,1 7.5,0Z" style="opacity: 1; stroke-width: 0px; fill: rgb(0, 0, 0); fill-opacity: 0.25;"/><path class="point" transform="translate(31.71,254.83)" d="M7.5,0A7.5,7.5 0 1,1 0,-7.5A7.5,7.5 0 0,1 7.5,0Z" style="opacity: 1; stroke-width: 0px; fill: rgb(0, 0, 0); fill-opacity: 0.25;"/><path class="point" transform="translate(34.23,225.65)" d="M7.5,0A7.5,7.5 0 1,1 0,-7.5A7.5,7.5 0 0,1 7.5,0Z" style="opacity: 1; stroke-width: 0px; fill: rgb(0, 0, 0); fill-opacity: 0.25;"/><path class="point" transform="translate(39.68,237.15)" d="M7.5,0A7.5,7.5 0 1,1 0,-7.5A7.5,7.5 0 0,1 7.5,0Z" style="opacity: 1; stroke-width: 0px; fill: rgb(0, 0, 0); fill-opacity: 0.25;"/><path class="point" transform="translate(42.19,247.76)" d="M7.5,0A7.5,7.5 0 1,1 0,-7.5A7.5,7.5 0 0,1 7.5,0Z" style="opacity: 1; stroke-width: 0px; fill: rgb(0, 0, 0); fill-opacity: 0.25;"/><path class="point" transform="translate(44.57,254.83)" d="M7.5,0A7.5,7.5 0 1,1 0,-7.5A7.5,7.5 0 0,1 7.5,0Z" style="opacity: 1; stroke-width: 0px; fill: rgb(0, 0, 0); fill-opacity: 0.25;"/><path class="point" transform="translate(46.1,246.87)" d="M7.5,0A7.5,7.5 0 1,1 0,-7.5A7.5,7.5 0 0,1 7.5,0Z" style="opacity: 1; stroke-width: 0px; fill: rgb(0, 0, 0); fill-opacity: 0.25;"/><path class="point" transform="translate(43.45,228.3)" d="M7.5,0A7.5,7.5 0 1,1 0,-7.5A7.5,7.5 0 0,1 7.5,0Z" style="opacity: 1; stroke-width: 0px; fill: rgb(0, 0, 0); fill-opacity: 0.25;"/><path class="point" transform="translate(48.48,250.41)" d="M7.5,0A7.5,7.5 0 1,1 0,-7.5A7.5,7.5 0 0,1 7.5,0Z" style="opacity: 1; stroke-width: 0px; fill: rgb(0, 0, 0); fill-opacity: 0.25;"/><path class="point" transform="translate(47.64,232.72)" d="M7.5,0A7.5,7.5 0 1,1 0,-7.5A7.5,7.5 0 0,1 7.5,0Z" style="opacity: 1; stroke-width: 0px; fill: rgb(0, 0, 0); fill-opacity: 0.25;"/><path class="point" transform="translate(53.37,228.3)" d="M7.5,0A7.5,7.5 0 1,1 0,-7.5A7.5,7.5 0 0,1 7.5,0Z" style="opacity: 1; stroke-width: 0px; fill: rgb(0, 0, 0); fill-opacity: 0.25;"/></g><g class="text"/></g><g class="trace scatter trace5fbdfa" style="stroke-miterlimit: 2; opacity: 1;"><g class="fills"/><g class="errorbars"/><g class="lines"><path class="js-line" d="M0,260.15Q0.11,233.15 4.47,230.97C7.74,229.33 16.01,235.92 19.14,238.83C21.22,240.76 21.8,242.91 23.05,245.01C24.31,247.13 25.55,248.94 26.68,251.51C28.17,254.91 29.87,261.02 30.74,263.85C31.19,265.32 31.29,265.88 31.71,267.21C32.34,269.19 32.9,272.38 34.23,274.52C35.56,276.67 38.12,278.98 39.68,280.06C40.61,280.7 41.36,281.14 42.19,281.16C42.99,281.18 43.86,280.51 44.57,280.28C45.13,280.1 46.06,279.76 46.1,279.84C46.15,279.95 43.51,281.62 43.45,281.54C43.36,281.42 48.34,276.85 48.48,276.97C48.55,277.03 47.49,278.06 47.64,278.27Q47.93,278.68 53.37,276.96" style="vector-effect: non-scaling-stroke; fill: none; stroke: rgb(93, 140, 0); stroke-opacity: 1; stroke-width: 7px; opacity: 1;"/></g><g class="points"/><g class="text"/></g><g class="trace scatter tracef7abb0" style="stroke-miterlimit: 2; opacity: 1;"><g class="fills"/><g class="errorbars"/><g class="lines"/><g class="points"><path class="point" transform="translate(0,276.06)" d="M7.5,0A7.5,7.5 0 1,1 0,-7.5A7.5,7.5 0 0,1 7.5,0Z" style="opacity: 1; stroke-width: 0px; fill: rgb(93, 140, 0); fill-opacity: 0.25;"/><path class="point" transform="translate(4.47,215.04)" d="M7.5,0A7.5,7.5 0 1,1 0,-7.5A7.5,7.5 0 0,1 7.5,0Z" style="opacity: 1; stroke-width: 0px; fill: rgb(93, 140, 0); fill-opacity: 0.25;"/><path class="point" transform="translate(19.14,232.72)" d="M7.5,0A7.5,7.5 0 1,1 0,-7.5A7.5,7.5 0 0,1 7.5,0Z" style="opacity: 1; stroke-width: 0px; fill: rgb(93, 140, 0); fill-opacity: 0.25;"/><path class="point" transform="translate(23.05,241.57)" d="M7.5,0A7.5,7.5 0 1,1 0,-7.5A7.5,7.5 0 0,1 7.5,0Z" style="opacity: 1; stroke-width: 0px; fill: rgb(93, 140, 0); fill-opacity: 0.25;"/><path class="point" transform="translate(26.68,241.57)" d="M7.5,0A7.5,7.5 0 1,1 0,-7.5A7.5,7.5 0 0,1 7.5,0Z" style="opacity: 1; stroke-width: 0px; fill: rgb(93, 140, 0); fill-opacity: 0.25;"/><path class="point" transform="translate(30.74,254.83)" d="M7.5,0A7.5,7.5 0 1,1 0,-7.5A7.5,7.5 0 0,1 7.5,0Z" style="opacity: 1; stroke-width: 0px; fill: rgb(93, 140, 0); fill-opacity: 0.25;"/><path class="point" transform="translate(31.71,272.52)" d="M7.5,0A7.5,7.5 0 1,1 0,-7.5A7.5,7.5 0 0,1 7.5,0Z" style="opacity: 1; stroke-width: 0px; fill: rgb(93, 140, 0); fill-opacity: 0.25;"/><path class="point" transform="translate(34.23,287.55)" d="M7.5,0A7.5,7.5 0 1,1 0,-7.5A7.5,7.5 0 0,1 7.5,0Z" style="opacity: 1; stroke-width: 0px; fill: rgb(93, 140, 0); fill-opacity: 0.25;"/><path class="point" transform="translate(39.68,281.36)" d="M7.5,0A7.5,7.5 0 1,1 0,-7.5A7.5,7.5 0 0,1 7.5,0Z" style="opacity: 1; stroke-width: 0px; fill: rgb(93, 140, 0); fill-opacity: 0.25;"/><path class="point" transform="translate(42.19,281.36)" d="M7.5,0A7.5,7.5 0 1,1 0,-7.5A7.5,7.5 0 0,1 7.5,0Z" style="opacity: 1; stroke-width: 0px; fill: rgb(93, 140, 0); fill-opacity: 0.25;"/><path class="point" transform="translate(44.57,272.52)" d="M7.5,0A7.5,7.5 0 1,1 0,-7.5A7.5,7.5 0 0,1 7.5,0Z" style="opacity: 1; stroke-width: 0px; fill: rgb(93, 140, 0); fill-opacity: 0.25;"/><path class="point" transform="translate(46.1,285.78)" d="M7.5,0A7.5,7.5 0 1,1 0,-7.5A7.5,7.5 0 0,1 7.5,0Z" style="opacity: 1; stroke-width: 0px; fill: rgb(93, 140, 0); fill-opacity: 0.25;"/><path class="point" transform="translate(43.45,294.63)" d="M7.5,0A7.5,7.5 0 1,1 0,-7.5A7.5,7.5 0 0,1 7.5,0Z" style="opacity: 1; stroke-width: 0px; fill: rgb(93, 140, 0); fill-opacity: 0.25;"/><path class="point" transform="translate(48.48,263.68)" d="M7.5,0A7.5,7.5 0 1,1 0,-7.5A7.5,7.5 0 0,1 7.5,0Z" style="opacity: 1; stroke-width: 0px; fill: rgb(93, 140, 0); fill-opacity: 0.25;"/><path class="point" transform="translate(47.64,281.36)" d="M7.5,0A7.5,7.5 0 1,1 0,-7.5A7.5,7.5 0 0,1 7.5,0Z" style="opacity: 1; stroke-width: 0px; fill: rgb(93, 140, 0); fill-opacity: 0.25;"/><path class="point" transform="translate(53.37,276.94)" d="M7.5,0A7.5,7.5 0 1,1 0,-7.5A7.5,7.5 0 0,1 7.5,0Z" style="opacity: 1; stroke-width: 0px; fill: rgb(93, 140, 0); fill-opacity: 0.25;"/></g><g class="text"/></g><g class="trace scatter trace864af7" style="stroke-miterlimit: 2; opacity: 1;"><g class="fills"/><g class="errorbars"/><g class="lines"><path class="js-line" d="M0,266.96Q2.67,267.21 4.47,268.11C8.1,269.93 16.02,276.06 19.14,279.88C21.24,282.45 21.73,285.09 23.05,287.44C24.25,289.57 25.22,293.04 26.68,293.42C27.87,293.73 29.83,291.49 30.74,291.13C31.16,290.96 31.34,291.09 31.71,290.89C32.39,290.53 33.14,289.17 34.23,288.61C35.63,287.89 38.2,287.51 39.68,287.4C40.67,287.33 41.37,287.44 42.19,287.57C43,287.7 43.88,288.29 44.57,288.19C45.16,288.11 46.11,287.3 46.1,287.28C46.08,287.25 43.41,288.51 43.45,288.6C43.5,288.72 48.41,287.55 48.48,287.1C48.51,286.9 47.61,286.75 47.64,286.54Q47.71,286.03 53.37,284.62" style="vector-effect: non-scaling-stroke; fill: none; stroke: rgb(114, 55, 105); stroke-opacity: 1; stroke-width: 7px; opacity: 1;"/></g><g class="points"/><g class="text"/></g><g class="trace scatter tracebf20f3" style="stroke-miterlimit: 2; opacity: 1;"><g class="fills"/><g class="errorbars"/><g class="lines"/><g class="points"><path class="point" transform="translate(0,266.33)" d="M7.5,0A7.5,7.5 0 1,1 0,-7.5A7.5,7.5 0 0,1 7.5,0Z" style="opacity: 1; stroke-width: 0px; fill: rgb(114, 55, 105); fill-opacity: 0.25;"/><path class="point" transform="translate(4.47,268.1)" d="M7.5,0A7.5,7.5 0 1,1 0,-7.5A7.5,7.5 0 0,1 7.5,0Z" style="opacity: 1; stroke-width: 0px; fill: rgb(114, 55, 105); fill-opacity: 0.25;"/><path class="point" transform="translate(19.14,272.52)" d="M7.5,0A7.5,7.5 0 1,1 0,-7.5A7.5,7.5 0 0,1 7.5,0Z" style="opacity: 1; stroke-width: 0px; fill: rgb(114, 55, 105); fill-opacity: 0.25;"/><path class="point" transform="translate(23.05,285.78)" d="M7.5,0A7.5,7.5 0 1,1 0,-7.5A7.5,7.5 0 0,1 7.5,0Z" style="opacity: 1; stroke-width: 0px; fill: rgb(114, 55, 105); fill-opacity: 0.25;"/><path class="point" transform="translate(26.68,303.47)" d="M7.5,0A7.5,7.5 0 1,1 0,-7.5A7.5,7.5 0 0,1 7.5,0Z" style="opacity: 1; stroke-width: 0px; fill: rgb(114, 55, 105); fill-opacity: 0.25;"/><path class="point" transform="translate(30.74,290.21)" d="M7.5,0A7.5,7.5 0 1,1 0,-7.5A7.5,7.5 0 0,1 7.5,0Z" style="opacity: 1; stroke-width: 0px; fill: rgb(114, 55, 105); fill-opacity: 0.25;"/><path class="point" transform="translate(31.71,294.63)" d="M7.5,0A7.5,7.5 0 1,1 0,-7.5A7.5,7.5 0 0,1 7.5,0Z" style="opacity: 1; stroke-width: 0px; fill: rgb(114, 55, 105); fill-opacity: 0.25;"/><path class="point" transform="translate(34.23,284.02)" d="M7.5,0A7.5,7.5 0 1,1 0,-7.5A7.5,7.5 0 0,1 7.5,0Z" style="opacity: 1; stroke-width: 0px; fill: rgb(114, 55, 105); fill-opacity: 0.25;"/><path class="point" transform="translate(39.68,285.78)" d="M7.5,0A7.5,7.5 0 1,1 0,-7.5A7.5,7.5 0 0,1 7.5,0Z" style="opacity: 1; stroke-width: 0px; fill: rgb(114, 55, 105); fill-opacity: 0.25;"/><path class="point" transform="translate(42.19,280.48)" d="M7.5,0A7.5,7.5 0 1,1 0,-7.5A7.5,7.5 0 0,1 7.5,0Z" style="opacity: 1; stroke-width: 0px; fill: rgb(114, 55, 105); fill-opacity: 0.25;"/><path class="point" transform="translate(44.57,290.21)" d="M7.5,0A7.5,7.5 0 1,1 0,-7.5A7.5,7.5 0 0,1 7.5,0Z" style="opacity: 1; stroke-width: 0px; fill: rgb(114, 55, 105); fill-opacity: 0.25;"/><path class="point" transform="translate(46.1,285.78)" d="M7.5,0A7.5,7.5 0 1,1 0,-7.5A7.5,7.5 0 0,1 7.5,0Z" style="opacity: 1; stroke-width: 0px; fill: rgb(114, 55, 105); fill-opacity: 0.25;"/><path class="point" transform="translate(43.45,299.05)" d="M7.5,0A7.5,7.5 0 1,1 0,-7.5A7.5,7.5 0 0,1 7.5,0Z" style="opacity: 1; stroke-width: 0px; fill: rgb(114, 55, 105); fill-opacity: 0.25;"/><path class="point" transform="translate(48.48,294.63)" d="M7.5,0A7.5,7.5 0 1,1 0,-7.5A7.5,7.5 0 0,1 7.5,0Z" style="opacity: 1; stroke-width: 0px; fill: rgb(114, 55, 105); fill-opacity: 0.25;"/><path class="point" transform="translate(47.64,276.94)" d="M7.5,0A7.5,7.5 0 1,1 0,-7.5A7.5,7.5 0 0,1 7.5,0Z" style="opacity: 1; stroke-width: 0px; fill: rgb(114, 55, 105); fill-opacity: 0.25;"/><path class="point" transform="translate(53.37,281.36)" d="M7.5,0A7.5,7.5 0 1,1 0,-7.5A7.5,7.5 0 0,1 7.5,0Z" style="opacity: 1; stroke-width: 0px; fill: rgb(114, 55, 105); fill-opacity: 0.25;"/></g><g class="text"/></g><g class="trace scatter trace94c3fa" style="stroke-miterlimit: 2; opacity: 1;"><g class="fills"/><g class="errorbars"/><g class="lines"><path class="js-line" d="M0,276.81Q1.32,289.53 4.47,291.17C7.66,292.83 15.98,285.55 19.14,286.48C21.13,287.06 21.6,290.44 23.05,291.21C24.17,291.8 25.45,291.31 26.68,291.55C28.01,291.81 29.87,292.39 30.74,292.78C31.19,292.98 31.3,293.31 31.71,293.36C32.34,293.44 33.23,292.62 34.23,292.6C35.7,292.56 38.25,293.37 39.68,293.96C40.72,294.39 41.34,295.33 42.19,295.47C42.97,295.6 43.87,295.16 44.57,294.94C45.14,294.76 46.1,294.32 46.1,294.32C46.1,294.32 43.46,295.45 43.45,295.42C43.43,295.38 48.23,292.74 48.48,293.01C48.61,293.16 47.48,294.01 47.64,294.39Q47.95,295.11 53.37,295.62" style="vector-effect: non-scaling-stroke; fill: none; stroke: rgb(230, 172, 33); stroke-opacity: 1; stroke-width: 7px; opacity: 1;"/></g><g class="points"/><g class="text"/></g><g class="trace scatter traceee5394" style="stroke-miterlimit: 2; opacity: 1;"><g class="fills"/><g class="errorbars"/><g class="lines"/><g class="points"><path class="point" transform="translate(0,268.98)" d="M7.5,0A7.5,7.5 0 1,1 0,-7.5A7.5,7.5 0 0,1 7.5,0Z" style="opacity: 1; stroke-width: 0px; fill: rgb(230, 172, 33); fill-opacity: 0.25;"/><path class="point" transform="translate(4.47,299.05)" d="M7.5,0A7.5,7.5 0 1,1 0,-7.5A7.5,7.5 0 0,1 7.5,0Z" style="opacity: 1; stroke-width: 0px; fill: rgb(230, 172, 33); fill-opacity: 0.25;"/><path class="point" transform="translate(19.14,281.36)" d="M7.5,0A7.5,7.5 0 1,1 0,-7.5A7.5,7.5 0 0,1 7.5,0Z" style="opacity: 1; stroke-width: 0px; fill: rgb(230, 172, 33); fill-opacity: 0.25;"/><path class="point" transform="translate(23.05,294.63)" d="M7.5,0A7.5,7.5 0 1,1 0,-7.5A7.5,7.5 0 0,1 7.5,0Z" style="opacity: 1; stroke-width: 0px; fill: rgb(230, 172, 33); fill-opacity: 0.25;"/><path class="point" transform="translate(26.68,290.21)" d="M7.5,0A7.5,7.5 0 1,1 0,-7.5A7.5,7.5 0 0,1 7.5,0Z" style="opacity: 1; stroke-width: 0px; fill: rgb(230, 172, 33); fill-opacity: 0.25;"/><path class="point" transform="translate(30.74,290.21)" d="M7.5,0A7.5,7.5 0 1,1 0,-7.5A7.5,7.5 0 0,1 7.5,0Z" style="opacity: 1; stroke-width: 0px; fill: rgb(230, 172, 33); fill-opacity: 0.25;"/><path class="point" transform="translate(31.71,299.05)" d="M7.5,0A7.5,7.5 0 1,1 0,-7.5A7.5,7.5 0 0,1 7.5,0Z" style="opacity: 1; stroke-width: 0px; fill: rgb(230, 172, 33); fill-opacity: 0.25;"/><path class="point" transform="translate(34.23,289.32)" d="M7.5,0A7.5,7.5 0 1,1 0,-7.5A7.5,7.5 0 0,1 7.5,0Z" style="opacity: 1; stroke-width: 0px; fill: rgb(230, 172, 33); fill-opacity: 0.25;"/><path class="point" transform="translate(39.68,290.21)" d="M7.5,0A7.5,7.5 0 1,1 0,-7.5A7.5,7.5 0 0,1 7.5,0Z" style="opacity: 1; stroke-width: 0px; fill: rgb(230, 172, 33); fill-opacity: 0.25;"/><path class="point" transform="translate(42.19,299.93)" d="M7.5,0A7.5,7.5 0 1,1 0,-7.5A7.5,7.5 0 0,1 7.5,0Z" style="opacity: 1; stroke-width: 0px; fill: rgb(230, 172, 33); fill-opacity: 0.25;"/><path class="point" transform="translate(44.57,294.63)" d="M7.5,0A7.5,7.5 0 1,1 0,-7.5A7.5,7.5 0 0,1 7.5,0Z" style="opacity: 1; stroke-width: 0px; fill: rgb(230, 172, 33); fill-opacity: 0.25;"/><path class="point" transform="translate(46.1,290.21)" d="M7.5,0A7.5,7.5 0 1,1 0,-7.5A7.5,7.5 0 0,1 7.5,0Z" style="opacity: 1; stroke-width: 0px; fill: rgb(230, 172, 33); fill-opacity: 0.25;"/><path class="point" transform="translate(43.45,299.05)" d="M7.5,0A7.5,7.5 0 1,1 0,-7.5A7.5,7.5 0 0,1 7.5,0Z" style="opacity: 1; stroke-width: 0px; fill: rgb(230, 172, 33); fill-opacity: 0.25;"/><path class="point" transform="translate(48.48,276.94)" d="M7.5,0A7.5,7.5 0 1,1 0,-7.5A7.5,7.5 0 0,1 7.5,0Z" style="opacity: 1; stroke-width: 0px; fill: rgb(230, 172, 33); fill-opacity: 0.25;"/><path class="point" transform="translate(47.64,307.89)" d="M7.5,0A7.5,7.5 0 1,1 0,-7.5A7.5,7.5 0 0,1 7.5,0Z" style="opacity: 1; stroke-width: 0px; fill: rgb(230, 172, 33); fill-opacity: 0.25;"/><path class="point" transform="translate(53.37,299.05)" d="M7.5,0A7.5,7.5 0 1,1 0,-7.5A7.5,7.5 0 0,1 7.5,0Z" style="opacity: 1; stroke-width: 0px; fill: rgb(230, 172, 33); fill-opacity: 0.25;"/></g><g class="text"/></g><g class="trace scatter traceb076f1" style="stroke-miterlimit: 2; opacity: 1;"><g class="fills"/><g class="errorbars"/><g class="lines"><path class="js-line" d="M0,290.19Q2.53,292.09 4.47,293.42C7.93,295.79 15.7,301.98 19.14,302.95C20.77,303.41 21.87,303.38 23.05,302.84C24.43,302.21 25.57,300.64 26.68,298.92C28.23,296.53 29.65,290.47 30.74,289.36C31.09,289 31.32,289.15 31.71,288.93C32.37,288.56 33.19,287.3 34.23,287.19C35.67,287.04 38.24,288.67 39.68,289.46C40.71,290.03 41.41,290.49 42.19,291.2C43.05,291.99 43.8,293.43 44.57,294.04C45.09,294.46 46.04,294.9 46.1,294.82C46.18,294.71 43.44,292.34 43.45,292.33C43.46,292.32 48.37,296.97 48.48,296.87C48.53,296.83 47.53,295.88 47.64,295.73Q47.87,295.42 53.37,297.81" style="vector-effect: non-scaling-stroke; fill: none; stroke: rgb(240, 125, 0); stroke-opacity: 1; stroke-width: 7px; opacity: 1;"/></g><g class="points"/><g class="text"/></g><g class="trace scatter trace84e0bc" style="stroke-miterlimit: 2; opacity: 1;"><g class="fills"/><g class="errorbars"/><g class="lines"/><g class="points"><path class="point" transform="translate(0,288.44)" d="M7.5,0A7.5,7.5 0 1,1 0,-7.5A7.5,7.5 0 0,1 7.5,0Z" style="opacity: 1; stroke-width: 0px; fill: rgb(240, 125, 0); fill-opacity: 0.25;"/><path class="point" transform="translate(4.47,294.63)" d="M7.5,0A7.5,7.5 0 1,1 0,-7.5A7.5,7.5 0 0,1 7.5,0Z" style="opacity: 1; stroke-width: 0px; fill: rgb(240, 125, 0); fill-opacity: 0.25;"/><path class="point" transform="translate(19.14,303.47)" d="M7.5,0A7.5,7.5 0 1,1 0,-7.5A7.5,7.5 0 0,1 7.5,0Z" style="opacity: 1; stroke-width: 0px; fill: rgb(240, 125, 0); fill-opacity: 0.25;"/><path class="point" transform="translate(23.05,307.89)" d="M7.5,0A7.5,7.5 0 1,1 0,-7.5A7.5,7.5 0 0,1 7.5,0Z" style="opacity: 1; stroke-width: 0px; fill: rgb(240, 125, 0); fill-opacity: 0.25;"/><path class="point" transform="translate(26.68,307.89)" d="M7.5,0A7.5,7.5 0 1,1 0,-7.5A7.5,7.5 0 0,1 7.5,0Z" style="opacity: 1; stroke-width: 0px; fill: rgb(240, 125, 0); fill-opacity: 0.25;"/><path class="point" transform="translate(30.74,281.36)" d="M7.5,0A7.5,7.5 0 1,1 0,-7.5A7.5,7.5 0 0,1 7.5,0Z" style="opacity: 1; stroke-width: 0px; fill: rgb(240, 125, 0); fill-opacity: 0.25;"/><path class="point" transform="translate(31.71,290.21)" d="M7.5,0A7.5,7.5 0 1,1 0,-7.5A7.5,7.5 0 0,1 7.5,0Z" style="opacity: 1; stroke-width: 0px; fill: rgb(240, 125, 0); fill-opacity: 0.25;"/><path class="point" transform="translate(34.23,280.48)" d="M7.5,0A7.5,7.5 0 1,1 0,-7.5A7.5,7.5 0 0,1 7.5,0Z" style="opacity: 1; stroke-width: 0px; fill: rgb(240, 125, 0); fill-opacity: 0.25;"/><path class="point" transform="translate(39.68,285.78)" d="M7.5,0A7.5,7.5 0 1,1 0,-7.5A7.5,7.5 0 0,1 7.5,0Z" style="opacity: 1; stroke-width: 0px; fill: rgb(240, 125, 0); fill-opacity: 0.25;"/><path class="point" transform="translate(42.19,287.55)" d="M7.5,0A7.5,7.5 0 1,1 0,-7.5A7.5,7.5 0 0,1 7.5,0Z" style="opacity: 1; stroke-width: 0px; fill: rgb(240, 125, 0); fill-opacity: 0.25;"/><path class="point" transform="translate(44.57,303.47)" d="M7.5,0A7.5,7.5 0 1,1 0,-7.5A7.5,7.5 0 0,1 7.5,0Z" style="opacity: 1; stroke-width: 0px; fill: rgb(240, 125, 0); fill-opacity: 0.25;"/><path class="point" transform="translate(46.1,294.63)" d="M7.5,0A7.5,7.5 0 1,1 0,-7.5A7.5,7.5 0 0,1 7.5,0Z" style="opacity: 1; stroke-width: 0px; fill: rgb(240, 125, 0); fill-opacity: 0.25;"/><path class="point" transform="translate(43.45,285.78)" d="M7.5,0A7.5,7.5 0 1,1 0,-7.5A7.5,7.5 0 0,1 7.5,0Z" style="opacity: 1; stroke-width: 0px; fill: rgb(240, 125, 0); fill-opacity: 0.25;"/><path class="point" transform="translate(48.48,307.89)" d="M7.5,0A7.5,7.5 0 1,1 0,-7.5A7.5,7.5 0 0,1 7.5,0Z" style="opacity: 1; stroke-width: 0px; fill: rgb(240, 125, 0); fill-opacity: 0.25;"/><path class="point" transform="translate(47.64,290.21)" d="M7.5,0A7.5,7.5 0 1,1 0,-7.5A7.5,7.5 0 0,1 7.5,0Z" style="opacity: 1; stroke-width: 0px; fill: rgb(240, 125, 0); fill-opacity: 0.25;"/><path class="point" transform="translate(53.37,299.05)" d="M7.5,0A7.5,7.5 0 1,1 0,-7.5A7.5,7.5 0 0,1 7.5,0Z" style="opacity: 1; stroke-width: 0px; fill: rgb(240, 125, 0); fill-opacity: 0.25;"/></g><g class="text"/></g><g class="trace scatter tracefdc75c" style="stroke-miterlimit: 2; opacity: 1;"><g class="fills"/><g class="errorbars"/><g class="lines"><path class="js-line" d="M0,293.54Q1.78,301.23 4.47,302.91C7.67,304.91 15.82,303.09 19.14,302.81C20.87,302.66 21.81,301.96 23.05,302.17C24.32,302.39 25.43,303.49 26.68,304.15C27.99,304.85 29.87,305.68 30.74,306.24C31.19,306.53 31.28,306.85 31.71,306.99C32.33,307.18 33.29,307.2 34.23,306.87C35.77,306.33 38.18,303.81 39.68,302.9C40.65,302.31 41.34,301.91 42.19,301.64C42.97,301.39 43.87,301.42 44.57,301.28C45.14,301.16 46.11,300.92 46.1,300.89C46.09,300.85 43.45,301.3 43.45,301.29C43.45,301.28 48.45,300.34 48.48,300.45C48.49,300.49 47.65,300.61 47.64,300.79Q47.62,301.27 53.37,303.67" style="vector-effect: non-scaling-stroke; fill: none; stroke: rgb(0, 51, 255); stroke-opacity: 1; stroke-width: 7px; opacity: 1;"/></g><g class="points"/><g class="text"/></g><g class="trace scatter trace40d6bd" style="stroke-miterlimit: 2; opacity: 1;"><g class="fills"/><g class="errorbars"/><g class="lines"/><g class="points"><path class="point" transform="translate(0,288.44)" d="M7.5,0A7.5,7.5 0 1,1 0,-7.5A7.5,7.5 0 0,1 7.5,0Z" style="opacity: 1; stroke-width: 0px; fill: rgb(0, 51, 255); fill-opacity: 0.25;"/><path class="point" transform="translate(4.47,307.89)" d="M7.5,0A7.5,7.5 0 1,1 0,-7.5A7.5,7.5 0 0,1 7.5,0Z" style="opacity: 1; stroke-width: 0px; fill: rgb(0, 51, 255); fill-opacity: 0.25;"/><path class="point" transform="translate(19.14,303.47)" d="M7.5,0A7.5,7.5 0 1,1 0,-7.5A7.5,7.5 0 0,1 7.5,0Z" style="opacity: 1; stroke-width: 0px; fill: rgb(0, 51, 255); fill-opacity: 0.25;"/><path class="point" transform="translate(23.05,299.05)" d="M7.5,0A7.5,7.5 0 1,1 0,-7.5A7.5,7.5 0 0,1 7.5,0Z" style="opacity: 1; stroke-width: 0px; fill: rgb(0, 51, 255); fill-opacity: 0.25;"/><path class="point" transform="translate(26.68,303.47)" d="M7.5,0A7.5,7.5 0 1,1 0,-7.5A7.5,7.5 0 0,1 7.5,0Z" style="opacity: 1; stroke-width: 0px; fill: rgb(0, 51, 255); fill-opacity: 0.25;"/><path class="point" transform="translate(30.74,303.47)" d="M7.5,0A7.5,7.5 0 1,1 0,-7.5A7.5,7.5 0 0,1 7.5,0Z" style="opacity: 1; stroke-width: 0px; fill: rgb(0, 51, 255); fill-opacity: 0.25;"/><path class="point" transform="translate(31.71,312.31)" d="M7.5,0A7.5,7.5 0 1,1 0,-7.5A7.5,7.5 0 0,1 7.5,0Z" style="opacity: 1; stroke-width: 0px; fill: rgb(0, 51, 255); fill-opacity: 0.25;"/><path class="point" transform="translate(34.23,310.54)" d="M7.5,0A7.5,7.5 0 1,1 0,-7.5A7.5,7.5 0 0,1 7.5,0Z" style="opacity: 1; stroke-width: 0px; fill: rgb(0, 51, 255); fill-opacity: 0.25;"/><path class="point" transform="translate(39.68,303.47)" d="M7.5,0A7.5,7.5 0 1,1 0,-7.5A7.5,7.5 0 0,1 7.5,0Z" style="opacity: 1; stroke-width: 0px; fill: rgb(0, 51, 255); fill-opacity: 0.25;"/><path class="point" transform="translate(42.19,300.82)" d="M7.5,0A7.5,7.5 0 1,1 0,-7.5A7.5,7.5 0 0,1 7.5,0Z" style="opacity: 1; stroke-width: 0px; fill: rgb(0, 51, 255); fill-opacity: 0.25;"/><path class="point" transform="translate(44.57,303.47)" d="M7.5,0A7.5,7.5 0 1,1 0,-7.5A7.5,7.5 0 0,1 7.5,0Z" style="opacity: 1; stroke-width: 0px; fill: rgb(0, 51, 255); fill-opacity: 0.25;"/><path class="point" transform="translate(46.1,299.05)" d="M7.5,0A7.5,7.5 0 1,1 0,-7.5A7.5,7.5 0 0,1 7.5,0Z" style="opacity: 1; stroke-width: 0px; fill: rgb(0, 51, 255); fill-opacity: 0.25;"/><path class="point" transform="translate(43.45,299.05)" d="M7.5,0A7.5,7.5 0 1,1 0,-7.5A7.5,7.5 0 0,1 7.5,0Z" style="opacity: 1; stroke-width: 0px; fill: rgb(0, 51, 255); fill-opacity: 0.25;"/><path class="point" transform="translate(48.48,294.63)" d="M7.5,0A7.5,7.5 0 1,1 0,-7.5A7.5,7.5 0 0,1 7.5,0Z" style="opacity: 1; stroke-width: 0px; fill: rgb(0, 51, 255); fill-opacity: 0.25;"/><path class="point" transform="translate(47.64,303.47)" d="M7.5,0A7.5,7.5 0 1,1 0,-7.5A7.5,7.5 0 0,1 7.5,0Z" style="opacity: 1; stroke-width: 0px; fill: rgb(0, 51, 255); fill-opacity: 0.25;"/><path class="point" transform="translate(53.37,307.89)" d="M7.5,0A7.5,7.5 0 1,1 0,-7.5A7.5,7.5 0 0,1 7.5,0Z" style="opacity: 1; stroke-width: 0px; fill: rgb(0, 51, 255); fill-opacity: 0.25;"/></g><g class="text"/></g><g class="trace scatter trace9ac11b" style="stroke-miterlimit: 2; opacity: 1;"><g class="fills"/><g class="errorbars"/><g class="lines"><path class="js-line" d="M0,298.55Q2.67,298.49 4.47,299.26C8.1,300.81 15.7,309.86 19.14,310.39C20.77,310.64 21.75,309.22 23.05,308.99C24.26,308.77 25.48,309.3 26.68,308.96C28.05,308.58 29.83,306.77 30.74,306.54C31.15,306.44 31.31,306.6 31.71,306.58C32.35,306.54 33.23,306.26 34.23,306.16C35.7,306.02 38.22,306.21 39.68,306.01C40.69,305.87 41.4,305.23 42.19,305.39C43.04,305.56 43.93,306.38 44.57,307.14C45.26,307.97 46.15,310.23 46.1,310.26C46.04,310.29 43.23,306.08 43.45,305.9C43.7,305.69 48.61,309.94 48.48,310.23C48.43,310.33 47.64,310.16 47.64,310.1Q47.64,309.94 53.37,309.22" style="vector-effect: non-scaling-stroke; fill: none; stroke: rgb(140, 0, 0); stroke-opacity: 1; stroke-width: 7px; opacity: 1;"/></g><g class="points"/><g class="text"/></g><g class="trace scatter trace342a61" style="stroke-miterlimit: 2; opacity: 1;"><g class="fills"/><g class="errorbars"/><g class="lines"/><g class="points"><path class="point" transform="translate(0,298.16)" d="M7.5,0A7.5,7.5 0 1,1 0,-7.5A7.5,7.5 0 0,1 7.5,0Z" style="opacity: 1; stroke-width: 0px; fill: rgb(140, 0, 0); fill-opacity: 0.25;"/><path class="point" transform="translate(4.47,299.05)" d="M7.5,0A7.5,7.5 0 1,1 0,-7.5A7.5,7.5 0 0,1 7.5,0Z" style="opacity: 1; stroke-width: 0px; fill: rgb(140, 0, 0); fill-opacity: 0.25;"/><path class="point" transform="translate(19.14,312.31)" d="M7.5,0A7.5,7.5 0 1,1 0,-7.5A7.5,7.5 0 0,1 7.5,0Z" style="opacity: 1; stroke-width: 0px; fill: rgb(140, 0, 0); fill-opacity: 0.25;"/><path class="point" transform="translate(23.05,307.89)" d="M7.5,0A7.5,7.5 0 1,1 0,-7.5A7.5,7.5 0 0,1 7.5,0Z" style="opacity: 1; stroke-width: 0px; fill: rgb(140, 0, 0); fill-opacity: 0.25;"/><path class="point" transform="translate(26.68,312.31)" d="M7.5,0A7.5,7.5 0 1,1 0,-7.5A7.5,7.5 0 0,1 7.5,0Z" style="opacity: 1; stroke-width: 0px; fill: rgb(140, 0, 0); fill-opacity: 0.25;"/><path class="point" transform="translate(30.74,303.47)" d="M7.5,0A7.5,7.5 0 1,1 0,-7.5A7.5,7.5 0 0,1 7.5,0Z" style="opacity: 1; stroke-width: 0px; fill: rgb(140, 0, 0); fill-opacity: 0.25;"/><path class="point" transform="translate(31.71,307.89)" d="M7.5,0A7.5,7.5 0 1,1 0,-7.5A7.5,7.5 0 0,1 7.5,0Z" style="opacity: 1; stroke-width: 0px; fill: rgb(140, 0, 0); fill-opacity: 0.25;"/><path class="point" transform="translate(34.23,305.24)" d="M7.5,0A7.5,7.5 0 1,1 0,-7.5A7.5,7.5 0 0,1 7.5,0Z" style="opacity: 1; stroke-width: 0px; fill: rgb(140, 0, 0); fill-opacity: 0.25;"/><path class="point" transform="translate(39.68,307.89)" d="M7.5,0A7.5,7.5 0 1,1 0,-7.5A7.5,7.5 0 0,1 7.5,0Z" style="opacity: 1; stroke-width: 0px; fill: rgb(140, 0, 0); fill-opacity: 0.25;"/><path class="point" transform="translate(42.19,299.93)" d="M7.5,0A7.5,7.5 0 1,1 0,-7.5A7.5,7.5 0 0,1 7.5,0Z" style="opacity: 1; stroke-width: 0px; fill: rgb(140, 0, 0); fill-opacity: 0.25;"/><path class="point" transform="translate(44.57,299.05)" d="M7.5,0A7.5,7.5 0 1,1 0,-7.5A7.5,7.5 0 0,1 7.5,0Z" style="opacity: 1; stroke-width: 0px; fill: rgb(140, 0, 0); fill-opacity: 0.25;"/><path class="point" transform="translate(43.45,299.05)" d="M7.5,0A7.5,7.5 0 1,1 0,-7.5A7.5,7.5 0 0,1 7.5,0Z" style="opacity: 1; stroke-width: 0px; fill: rgb(140, 0, 0); fill-opacity: 0.25;"/><path class="point" transform="translate(48.48,312.31)" d="M7.5,0A7.5,7.5 0 1,1 0,-7.5A7.5,7.5 0 0,1 7.5,0Z" style="opacity: 1; stroke-width: 0px; fill: rgb(140, 0, 0); fill-opacity: 0.25;"/><path class="point" transform="translate(47.64,307.89)" d="M7.5,0A7.5,7.5 0 1,1 0,-7.5A7.5,7.5 0 0,1 7.5,0Z" style="opacity: 1; stroke-width: 0px; fill: rgb(140, 0, 0); fill-opacity: 0.25;"/><path class="point" transform="translate(53.37,307.89)" d="M7.5,0A7.5,7.5 0 1,1 0,-7.5A7.5,7.5 0 0,1 7.5,0Z" style="opacity: 1; stroke-width: 0px; fill: rgb(140, 0, 0); fill-opacity: 0.25;"/></g><g class="text"/></g></g></g><g class="overplot"/><path class="xlines-above crisp" d="M0,0" style="fill: none;"/><path class="ylines-above crisp" d="M0,0" style="fill: none;"/><g class="overlines-above"/><g class="xaxislayer-above"><g class="xtick"><text text-anchor="middle" x="0" y="363" transform="translate(61.74,0)" style="font-family: 'Open Sans', verdana, arial, sans-serif; font-size: 12px; fill: rgb(42, 63, 95); fill-opacity: 1; white-space: pre; opacity: 1;">1.1.22</text></g><g class="xtick"><text text-anchor="middle" x="0" y="363" style="font-family: 'Open Sans', verdana, arial, sans-serif; font-size: 12px; fill: rgb(42, 63, 95); fill-opacity: 1; white-space: pre; opacity: 1;" transform="translate(112.72999999999999,0)">1.1.23</text></g><g class="xtick"><text text-anchor="middle" x="0" y="363" style="font-family: 'Open Sans', verdana, arial, sans-serif; font-size: 12px; fill: rgb(42, 63, 95); fill-opacity: 1; white-space: pre; opacity: 1;" transform="translate(163.72,0)">1.1.24</text></g><g class="xtick"><text text-anchor="middle" x="0" y="363" style="font-family: 'Open Sans', verdana, arial, sans-serif; font-size: 12px; fill: rgb(42, 63, 95); fill-opacity: 1; white-space: pre; opacity: 1;" transform="translate(214.86,0)">1.1.25</text></g></g><g class="yaxislayer-above"><g class="ytick"><text text-anchor="end" x="49" y="4.199999999999999" transform="translate(0,350)" style="font-family: 'Open Sans', verdana, arial, sans-serif; font-size: 12px; fill: rgb(42, 63, 95); fill-opacity: 1; white-space: pre; opacity: 1;">0%</text></g><g class="ytick"><text text-anchor="end" x="49" y="4.199999999999999" style="font-family: 'Open Sans', verdana, arial, sans-serif; font-size: 12px; fill: rgb(42, 63, 95); fill-opacity: 1; white-space: pre; opacity: 1;" transform="translate(0,305.78)">5%</text></g><g class="ytick"><text text-anchor="end" x="49" y="4.199999999999999" style="font-family: 'Open Sans', verdana, arial, sans-serif; font-size: 12px; fill: rgb(42, 63, 95); fill-opacity: 1; white-space: pre; opacity: 1;" transform="translate(0,261.57)">10%</text></g><g class="ytick"><text text-anchor="end" x="49" y="4.199999999999999" style="font-family: 'Open Sans', verdana, arial, sans-serif; font-size: 12px; fill: rgb(42, 63, 95); fill-opacity: 1; white-space: pre; opacity: 1;" transform="translate(0,217.35)">15%</text></g><g class="ytick"><text text-anchor="end" x="49" y="4.199999999999999" style="font-family: 'Open Sans', verdana, arial, sans-serif; font-size: 12px; fill: rgb(42, 63, 95); fill-opacity: 1; white-space: pre; opacity: 1;" transform="translate(0,173.14)">20%</text></g><g class="ytick"><text text-anchor="end" x="49" y="4.199999999999999" style="font-family: 'Open Sans', verdana, arial, sans-serif; font-size: 12px; fill: rgb(42, 63, 95); fill-opacity: 1; white-space: pre; opacity: 1;" transform="translate(0,128.92000000000002)">25%</text></g><g class="ytick"><text text-anchor="end" x="49" y="4.199999999999999" style="font-family: 'Open Sans', verdana, arial, sans-serif; font-size: 12px; fill: rgb(42, 63, 95); fill-opacity: 1; white-space: pre; opacity: 1;" transform="translate(0,84.7)">30%</text></g><g class="ytick"><text text-anchor="end" x="49" y="4.199999999999999" style="font-family: 'Open Sans', verdana, arial, sans-serif; font-size: 12px; fill: rgb(42, 63, 95); fill-opacity: 1; white-space: pre; opacity: 1;" transform="translate(0,40.489999999999995)">35%</text></g></g><g class="overaxes-above"/></g></g><g class="polarlayer"/><g class="smithlayer"/><g class="ternarylayer"/><g class="geolayer"/><g class="funnelarealayer"/><g class="pielayer"/><g class="iciclelayer"/><g class="treemaplayer"/><g class="sunburstlayer"/><g class="glimages"/><defs id="topdefs-a73a8a"><g class="clips"/><clipPath id="legenda73a8a"><rect width="131" height="200" x="0" y="0"/></clipPath></defs><g class="layer-above"><g class="imagelayer"/><g class="shapelayer"/></g><g class="infolayer"><g class="legend" pointer-events="all" transform="translate(257.06,20)"><rect class="bg" shape-rendering="crispEdges" width="131" height="200" x="0" y="0" style="stroke: rgb(68, 68, 68); stroke-opacity: 1; fill: rgb(255, 255, 255); fill-opacity: 1; stroke-width: 0px;"/><g class="scrollbox" transform="" clip-path="url(#legenda73a8a)"><g class="groups"><g class="traces" transform="translate(0,14.5)" style="opacity: 1;"><text class="legendtext" text-anchor="start" x="40" y="4.680000000000001" style="font-family: 'Open Sans', verdana, arial, sans-serif; font-size: 12px; fill: rgb(42, 63, 95); fill-opacity: 1; white-space: pre;">ANO: 28%</text><g class="layers" style="opacity: 1;"><g class="legendfill"/><g class="legendlines"><path class="js-line" d="M5,0h30" style="fill: none; stroke: rgb(38, 16, 96); stroke-opacity: 1; stroke-width: 7px;"/></g><g class="legendsymbols"><g class="legendpoints"/></g></g><rect class="legendtoggle" x="0" y="-9.5" width="125.359375" height="19" style="fill: rgb(0, 0, 0); fill-opacity: 0;"/></g><g class="traces" transform="translate(0,33.5)" style="opacity: 1;"><text class="legendtext" text-anchor="start" x="40" y="4.680000000000001" style="font-family: 'Open Sans', verdana, arial, sans-serif; font-size: 12px; fill: rgb(42, 63, 95); fill-opacity: 1; white-space: pre;">ODS: 19%</text><g class="layers" style="opacity: 1;"><g class="legendfill"/><g class="legendlines"><path class="js-line" d="M5,0h30" style="fill: none; stroke: rgb(0, 68, 148); stroke-opacity: 1; stroke-width: 7px;"/></g><g class="legendsymbols"><g class="legendpoints"/></g></g><rect class="legendtoggle" x="0" y="-9.5" width="125.359375" height="19" style="fill: rgb(0, 0, 0); fill-opacity: 0;"/></g><g class="traces" transform="translate(0,52.5)" style="opacity: 1;"><text class="legendtext" text-anchor="start" x="40" y="4.680000000000001" style="font-family: 'Open Sans', verdana, arial, sans-serif; font-size: 12px; fill: rgb(42, 63, 95); fill-opacity: 1; white-space: pre;">SPD: 12%</text><g class="layers" style="opacity: 1;"><g class="legendfill"/><g class="legendlines"><path class="js-line" d="M5,0h30" style="fill: none; stroke: rgb(234, 35, 41); stroke-opacity: 1; stroke-width: 7px;"/></g><g class="legendsymbols"><g class="legendpoints"/></g></g><rect class="legendtoggle" x="0" y="-9.5" width="125.359375" height="19" style="fill: rgb(0, 0, 0); fill-opacity: 0;"/></g><g class="traces" transform="translate(0,71.5)" style="opacity: 1;"><text class="legendtext" text-anchor="start" x="40" y="4.680000000000001" style="font-family: 'Open Sans', verdana, arial, sans-serif; font-size: 12px; fill: rgb(42, 63, 95); fill-opacity: 1; white-space: pre;">Pirti: 11%</text><g class="layers" style="opacity: 1;"><g class="legendfill"/><g class="legendlines"><path class="js-line" d="M5,0h30" style="fill: none; stroke: rgb(0, 0, 0); stroke-opacity: 1; stroke-width: 7px;"/></g><g class="legendsymbols"><g class="legendpoints"/></g></g><rect class="legendtoggle" x="0" y="-9.5" width="125.359375" height="19" style="fill: rgb(0, 0, 0); fill-opacity: 0;"/></g><g class="traces" transform="translate(0,90.5)" style="opacity: 1;"><text class="legendtext" text-anchor="start" x="40" y="4.680000000000001" style="font-family: 'Open Sans', verdana, arial, sans-serif; font-size: 12px; fill: rgb(42, 63, 95); fill-opacity: 1; white-space: pre;">STAN: 6%</text><g class="layers" style="opacity: 1;"><g class="legendfill"/><g class="legendlines"><path class="js-line" d="M5,0h30" style="fill: none; stroke: rgb(93, 140, 0); stroke-opacity: 1; stroke-width: 7px;"/></g><g class="legendsymbols"><g class="legendpoints"/></g></g><rect class="legendtoggle" x="0" y="-9.5" width="125.359375" height="19" style="fill: rgb(0, 0, 0); fill-opacity: 0;"/></g><g class="traces" transform="translate(0,109.5)" style="opacity: 1;"><text class="legendtext" text-anchor="start" x="40" y="4.680000000000001" style="font-family: 'Open Sans', verdana, arial, sans-serif; font-size: 12px; fill: rgb(42, 63, 95); fill-opacity: 1; white-space: pre;">TOP 09: 5%</text><g class="layers" style="opacity: 1;"><g class="legendfill"/><g class="legendlines"><path class="js-line" d="M5,0h30" style="fill: none; stroke: rgb(114, 55, 105); stroke-opacity: 1; stroke-width: 7px;"/></g><g class="legendsymbols"><g class="legendpoints"/></g></g><rect class="legendtoggle" x="0" y="-9.5" width="125.359375" height="19" style="fill: rgb(0, 0, 0); fill-opacity: 0;"/></g><g class="traces" transform="translate(0,128.5)" style="opacity: 1;"><text class="legendtext" text-anchor="start" x="40" y="4.680000000000001" style="font-family: 'Open Sans', verdana, arial, sans-serif; font-size: 12px; fill: rgb(42, 63, 95); fill-opacity: 1; white-space: pre;">KDU-SL: 4%</text><g class="layers" style="opacity: 1;"><g class="legendfill"/><g class="legendlines"><path class="js-line" d="M5,0h30" style="fill: none; stroke: rgb(230, 172, 33); stroke-opacity: 1; stroke-width: 7px;"/></g><g class="legendsymbols"><g class="legendpoints"/></g></g><rect class="legendtoggle" x="0" y="-9.5" width="125.359375" height="19" style="fill: rgb(0, 0, 0); fill-opacity: 0;"/></g><g class="traces" transform="translate(0,147.5)" style="opacity: 1;"><text class="legendtext" text-anchor="start" x="40" y="4.680000000000001" style="font-family: 'Open Sans', verdana, arial, sans-serif; font-size: 12px; fill: rgb(42, 63, 95); fill-opacity: 1; white-space: pre;">SSD: 4%</text><g class="layers" style="opacity: 1;"><g class="legendfill"/><g class="legendlines"><path class="js-line" d="M5,0h30" style="fill: none; stroke: rgb(240, 125, 0); stroke-opacity: 1; stroke-width: 7px;"/></g><g class="legendsymbols"><g class="legendpoints"/></g></g><rect class="legendtoggle" x="0" y="-9.5" width="125.359375" height="19" style="fill: rgb(0, 0, 0); fill-opacity: 0;"/></g><g class="traces" transform="translate(0,166.5)" style="opacity: 1;"><text class="legendtext" text-anchor="start" x="40" y="4.680000000000001" style="font-family: 'Open Sans', verdana, arial, sans-serif; font-size: 12px; fill: rgb(42, 63, 95); fill-opacity: 1; white-space: pre;">Psaha: 3%</text><g class="layers" style="opacity: 1;"><g class="legendfill"/><g class="legendlines"><path class="js-line" d="M5,0h30" style="fill: none; stroke: rgb(0, 51, 255); stroke-opacity: 1; stroke-width: 7px;"/></g><g class="legendsymbols"><g class="legendpoints"/></g></g><rect class="legendtoggle" x="0" y="-9.5" width="125.359375" height="19" style="fill: rgb(0, 0, 0); fill-opacity: 0;"/></g><g class="traces" transform="translate(0,185.5)" style="opacity: 1;"><text class="legendtext" text-anchor="start" x="40" y="4.680000000000001" style="font-family: 'Open Sans', verdana, arial, sans-serif; font-size: 12px; fill: rgb(42, 63, 95); fill-opacity: 1; white-space: pre;">KSM: 2%</text><g class="layers" style="opacity: 1;"><g class="legendfill"/><g class="legendlines"><path class="js-line" d="M5,0h30" style="fill: none; stroke: rgb(140, 0, 0); stroke-opacity: 1; stroke-width: 7px;"/></g><g class="legendsymbols"><g class="legendpoints"/></g></g><rect class="legendtoggle" x="0" y="-9.5" width="125.359375" height="19" style="fill: rgb(0, 0, 0); fill-opacity: 0;"/></g></g></g><rect class="scrollbar" rx="20" ry="3" width="0" height="0" x="0" y="0" style="fill: rgb(128, 139, 164); fill-opacity: 1;"/></g><g class="g-gtitle"/><g class="g-xtitle"/><g class="g-ytitle"/></g></svg>