<svg class="main-svg" xmlns="http://www.w3.org/2000/svg" xmlns:xlink="http://www.w3.org/1999/xlink" width="300" height="135" style="" viewBox="0 0 300 135"><rect x="0" y="0" width="300" height="135" style="fill: rgb(255, 255, 255); fill-opacity: 1;"/><defs id="defs-4bead3"><g class="clips"><clipPath id="clip4bead3xyplot" class="plotclip"><rect width="280" height="75"/></clipPath><clipPath class="axesclip" id="clip4bead3x"><rect x="10" y="0" width="280" height="135"/></clipPath><clipPath class="axesclip" id="clip4bead3y"><rect x="0" y="50" width="300" height="75"/></clipPath><clipPath class="axesclip" id="clip4bead3xy"><rect x="10" y="50" width="280" height="75"/></clipPath></g><g class="gradients"/><g class="patterns"/></defs><g class="bglayer"/><g class="layer-below"><g class="imagelayer"/><g class="shapelayer"/></g><g class="cartesianlayer"><g class="subplot xy"><g class="layer-subplot"><g class="shapelayer"/><g class="imagelayer"/></g><g class="minor-gridlayer"><g class="x"/><g class="y"/></g><g class="gridlayer"><g class="x"><path class="xgrid crisp" transform="translate(28.86,0)" d="M0,50v75" style="stroke: rgb(235, 240, 248); stroke-opacity: 1; stroke-width: 1px;"/><path class="xgrid crisp" transform="translate(110.82,0)" d="M0,50v75" style="stroke: rgb(235, 240, 248); stroke-opacity: 1; stroke-width: 1px;"/><path class="xgrid crisp" transform="translate(192.77,0)" d="M0,50v75" style="stroke: rgb(235, 240, 248); stroke-opacity: 1; stroke-width: 1px;"/><path class="xgrid crisp" transform="translate(274.96,0)" d="M0,50v75" style="stroke: rgb(235, 240, 248); stroke-opacity: 1; stroke-width: 1px;"/></g><g class="y"><path class="ygrid crisp" transform="translate(0,104.50999999999999)" d="M10,0h280" style="stroke: rgb(235, 240, 248); stroke-opacity: 1; stroke-width: 1px;"/><path class="ygrid crisp" transform="translate(0,84.03)" d="M10,0h280" style="stroke: rgb(235, 240, 248); stroke-opacity: 1; stroke-width: 1px;"/><path class="ygrid crisp" transform="translate(0,63.54)" d="M10,0h280" style="stroke: rgb(235, 240, 248); stroke-opacity: 1; stroke-width: 1px;"/></g></g><g class="zerolinelayer"><path class="yzl zl crisp" transform="translate(0,125)" d="M10,0h280" style="stroke: rgb(235, 240, 248); stroke-opacity: 1; stroke-width: 2px;"/></g><path class="xlines-below"/><path class="ylines-below"/><g class="overlines-below"/><g class="xaxislayer-below"/><g class="yaxislayer-below"/><g class="overaxes-below"/><g class="plot" transform="translate(10,50)" clip-path="url(#clip4bead3xyplot)"><g class="scatterlayer mlayer"><g class="trace scatter trace6f34a9" style="stroke-miterlimit: 2; opacity: 1;"><g class="fills"/><g class="errorbars"/><g class="lines"><path class="js-line" d="M0,19.48Q4.1,19.54 7.19,19.7C12.78,19.98 25.46,22.1 30.76,21.38C33.58,21 34.97,19.69 37.05,19.14C39.01,18.62 40.89,18.47 42.89,18.1C45,17.71 47.97,17.08 49.4,16.87C50.1,16.77 50.33,16.8 50.97,16.7C52.01,16.53 53.41,16.18 55.01,15.83C57.37,15.32 61.4,14.29 63.77,13.91C65.37,13.66 66.69,13.52 67.81,13.5C68.6,13.49 69.18,13.64 69.83,13.65C70.45,13.66 70.98,13.56 71.63,13.55C72.39,13.53 73.28,13.57 74.1,13.58C74.92,13.59 75.87,13.57 76.57,13.61C77.09,13.64 77.31,13.69 77.91,13.73C79.14,13.82 82.1,13.7 83.53,14.02C84.47,14.23 84.77,14.83 85.77,14.92C87.65,15.08 90.75,13.72 94.08,13.17C99,12.35 111.26,11.2 112.49,10.91C112.63,10.88 112.59,10.87 112.72,10.83C113.32,10.66 116.51,9.69 117.88,9.7C118.78,9.71 119.26,10.18 120.13,10.24C121.32,10.32 123.2,9.99 124.39,9.8C125.26,9.66 125.77,9.6 126.64,9.32C127.94,8.9 130.25,7.57 131.36,7.22C131.93,7.04 132.44,7.01 132.7,6.96C132.81,6.94 132.8,6.94 132.93,6.92C133.6,6.8 137.09,5.78 139.21,5.73C141.36,5.67 143.22,6.38 145.73,6.62C149.14,6.95 155.84,7.52 157.85,7.28C158.54,7.2 158.87,6.95 159.2,6.88C159.39,6.84 159.41,6.85 159.65,6.81C160.52,6.68 164.28,6 165.71,5.93C166.48,5.89 166.83,6.04 167.51,6.02C168.41,6 169.65,5.84 170.65,5.71C171.58,5.59 172.82,5.35 173.34,5.29C173.55,5.26 173.64,5.26 173.79,5.25C173.94,5.24 174.01,5.24 174.24,5.23C174.96,5.21 176.99,5.07 178.73,5.15C181.17,5.27 186.69,6.08 187.49,6.16C187.62,6.17 187.64,6.18 187.71,6.18C187.79,6.18 187.81,6.15 187.94,6.13C188.55,6.05 192.3,6.14 193.33,5.93C193.77,5.84 193.79,5.62 194.23,5.59C195.35,5.51 199.64,6.82 200.29,6.9C200.41,6.92 200.4,6.91 200.51,6.91C200.8,6.92 201.44,6.84 202.09,6.9C203.17,6.99 204.99,7.44 206.35,7.66C207.6,7.86 208.72,8.06 209.94,8.18C211.19,8.31 212.38,8.28 213.76,8.4C215.4,8.54 218.11,8.89 219.15,9.04C219.58,9.1 220.05,9.19 220.05,9.19C220.05,9.19 220.05,9.19 220.05,9.19C220.05,9.19 223.93,10.4 225.21,10.43C225.96,10.45 226.28,10.16 227.01,10.08C228.13,9.96 229.72,10.25 231.28,9.97C233.29,9.61 236.93,7.94 238.01,7.67C238.34,7.59 238.4,7.62 238.68,7.56C239.18,7.46 239.9,7.26 240.71,7.08C241.91,6.81 244.66,6.19 245.2,6.13C245.32,6.12 245.42,6.13 245.42,6.13C245.42,6.13 245.42,6.13 245.42,6.13C245.42,6.13 246.86,5.86 247.67,5.68C248.63,5.47 250.02,5.03 250.81,4.95C251.27,4.9 251.58,4.97 251.93,4.97C252.25,4.97 252.49,4.94 252.83,4.95C253.28,4.96 253.74,5.03 254.4,5.06C255.55,5.11 258.09,5.15 259.12,5.15C259.62,5.15 259.72,5.14 260.24,5.12C261.4,5.07 264.88,4.84 265.85,4.78C266.19,4.76 266.3,4.75 266.53,4.74C266.75,4.73 267.04,4.72 267.2,4.71C267.3,4.7 267.32,4.69 267.43,4.68C267.72,4.64 269,4.49 269,4.49C269,4.49 269,4.49 269,4.49C269,4.49 269.43,4.43 269.67,4.39C269.95,4.34 270.57,4.22 270.57,4.22C270.57,4.22 270.57,4.22 270.57,4.22C270.57,4.22 271.69,4.17 272.14,4.14C272.48,4.12 272.76,4.09 273.04,4.07C273.28,4.05 273.44,4.03 273.71,4.01C274.12,3.97 274.87,3.92 275.28,3.87C275.55,3.84 275.72,3.78 275.96,3.76C276.24,3.74 276.58,3.75 276.86,3.75C277.1,3.75 277.29,3.75 277.53,3.78C277.81,3.81 278.09,3.88 278.43,3.93Q278.88,4 280,4.15" style="vector-effect: none; fill: none; stroke: rgb(39, 42, 89); stroke-opacity: 1; stroke-width: 5px; opacity: 1;"/></g><g class="points"/><g class="text"/></g><g class="trace scatter tracebb2b1d" style="stroke-miterlimit: 2; opacity: 1;"><g class="fills"/><g class="errorbars"/><g class="lines"><path class="js-line" d="M0,18.25Q4.16,20.63 7.19,20.41C12.84,20 25.34,9.98 30.76,9.44C33.46,9.17 34.99,10.48 37.05,10.96C39.03,11.42 40.99,11.37 42.89,12.29C45.13,13.38 47.9,16.96 49.4,17.56C50.05,17.82 50.35,17.5 50.97,17.68C52.03,17.98 53.38,19.06 55.01,19.76C57.34,20.76 61.38,22.25 63.77,22.81C65.35,23.18 66.69,23.26 67.81,23.33C68.6,23.38 69.18,23.42 69.83,23.33C70.45,23.24 70.98,22.88 71.63,22.8C72.38,22.71 73.28,22.97 74.1,22.91C74.93,22.85 75.88,22.63 76.57,22.44C77.09,22.3 77.3,22.1 77.91,21.95C79.13,21.66 82.11,21.71 83.53,21.29C84.48,21.01 84.77,20.23 85.77,20.19C87.65,20.11 90.7,22.95 94.08,23.39C98.95,24.02 111.26,21.01 112.49,21.34C112.64,21.38 112.58,21.45 112.72,21.51C113.31,21.77 116.51,22.35 117.88,22.45C118.78,22.52 119.26,22.31 120.13,22.37C121.33,22.45 123.19,22.94 124.39,23.1C125.26,23.22 125.77,23.13 126.64,23.33C127.94,23.63 130.26,24.67 131.36,25.06C131.94,25.27 132.44,25.46 132.7,25.52C132.81,25.54 132.8,25.52 132.93,25.55C133.6,25.7 137.07,27.23 139.21,27.46C141.34,27.69 143.23,26.84 145.73,26.96C149.16,27.13 155.83,28.7 157.85,29.1C158.53,29.23 158.87,29.33 159.2,29.4C159.39,29.44 159.41,29.47 159.65,29.5C160.51,29.59 164.29,29.39 165.71,29.45C166.49,29.48 166.83,29.54 167.51,29.61C168.41,29.71 169.64,29.98 170.65,30C171.58,30.02 172.82,29.74 173.34,29.79C173.56,29.81 173.64,29.89 173.79,29.91C173.94,29.93 174.01,29.89 174.24,29.89C174.96,29.9 176.98,30.11 178.73,30.19C181.17,30.31 186.69,30.46 187.49,30.44C187.62,30.44 187.64,30.43 187.71,30.42C187.79,30.41 187.81,30.38 187.94,30.37C188.55,30.31 192.29,30.56 193.33,30.56C193.76,30.56 193.8,30.55 194.23,30.52C195.35,30.45 199.64,30.09 200.29,30C200.41,29.98 200.4,29.97 200.51,29.96C200.8,29.92 201.44,29.81 202.09,29.81C203.17,29.81 204.99,30.28 206.35,30.23C207.6,30.19 208.72,29.67 209.94,29.63C211.19,29.59 212.38,29.89 213.76,30.03C215.4,30.2 218.11,30.48 219.15,30.58C219.58,30.62 220.05,30.66 220.05,30.66C220.05,30.66 220.05,30.66 220.05,30.66C220.05,30.66 223.93,31.85 225.21,32.11C225.96,32.26 226.28,32.25 227.01,32.33C228.13,32.45 229.7,32.52 231.28,32.74C233.27,33.02 236.95,33.62 238.01,34C238.37,34.13 238.38,34.28 238.68,34.37C239.16,34.52 239.9,34.55 240.71,34.56C241.91,34.57 244.66,34.18 245.2,34.21C245.32,34.22 245.42,34.25 245.42,34.25C245.42,34.25 245.42,34.25 245.42,34.25C245.42,34.25 246.86,34.43 247.67,34.52C248.63,34.63 250.03,34.69 250.81,34.84C251.28,34.93 251.58,35.04 251.93,35.16C252.25,35.27 252.48,35.44 252.83,35.55C253.28,35.69 253.73,35.76 254.4,35.89C255.55,36.12 258.09,36.58 259.12,36.74C259.62,36.82 259.72,36.84 260.24,36.89C261.39,37 264.88,37.2 265.85,37.24C266.19,37.26 266.3,37.25 266.53,37.26C266.75,37.26 267.04,37.27 267.2,37.27C267.3,37.27 267.32,37.27 267.43,37.26C267.72,37.24 269,37.16 269,37.16C269,37.16 269,37.16 269,37.16C269,37.16 269.43,37.1 269.67,37.08C269.95,37.05 270.57,37 270.57,37C270.57,37 270.57,37 270.57,37C270.57,37 271.69,37.08 272.14,37.12C272.48,37.15 272.76,37.18 273.04,37.21C273.28,37.24 273.44,37.26 273.71,37.3C274.12,37.36 274.86,37.48 275.28,37.52C275.55,37.54 275.72,37.54 275.96,37.54C276.24,37.54 276.58,37.54 276.86,37.52C277.1,37.5 277.29,37.46 277.53,37.45C277.81,37.44 278.09,37.49 278.43,37.49Q278.88,37.49 280,37.45" style="vector-effect: none; fill: none; stroke: rgb(94, 102, 213); stroke-opacity: 1; stroke-width: 5px; opacity: 1;"/></g><g class="points"/><g class="text"/></g><g class="trace scatter tracebad126" style="stroke-miterlimit: 2; opacity: 1;"><g class="fills"/><g class="errorbars"/><g class="lines"><path class="js-line" d="M0,62.5Q3.37,53.88 7.19,52.06C12.4,49.57 25.43,53.07 30.76,53.88C33.55,54.3 35,54.82 37.05,55.32C39.04,55.8 40.92,56.14 42.89,56.82C45.03,57.56 47.98,59.03 49.4,59.69C50.11,60.02 50.32,60.16 50.97,60.46C52,60.93 53.37,61.7 55.01,62.15C57.34,62.8 61.4,63.18 63.77,63.43C65.37,63.6 66.69,63.62 67.81,63.68C68.6,63.72 69.18,63.8 69.83,63.76C70.45,63.72 70.98,63.53 71.63,63.47C72.39,63.4 73.28,63.45 74.1,63.38C74.93,63.31 75.87,63.16 76.57,63.05C77.09,62.97 77.31,62.84 77.91,62.79C79.14,62.69 82.08,62.94 83.53,62.93C84.45,62.92 84.79,62.89 85.77,62.83C87.66,62.72 90.77,62.46 94.08,62.22C99.01,61.86 111.26,60.92 112.49,60.87C112.63,60.86 112.59,60.87 112.72,60.87C113.32,60.88 116.52,60.84 117.88,60.99C118.79,61.09 119.26,61.35 120.13,61.44C121.32,61.57 123.2,61.41 124.39,61.51C125.26,61.58 125.75,61.74 126.64,61.84C127.92,61.99 130.27,62.18 131.36,62.25C131.94,62.29 132.44,62.3 132.7,62.3C132.81,62.3 132.8,62.3 132.93,62.3C133.6,62.32 137.1,62.62 139.21,62.6C141.36,62.58 143.22,62.27 145.73,62.16C149.15,62.02 155.83,62.13 157.85,61.96C158.53,61.9 158.87,61.8 159.2,61.75C159.39,61.72 159.41,61.71 159.65,61.69C160.51,61.63 164.29,61.74 165.71,61.7C166.49,61.68 166.83,61.62 167.51,61.6C168.41,61.57 169.64,61.61 170.65,61.6C171.58,61.59 172.82,61.58 173.34,61.56C173.55,61.55 173.64,61.54 173.79,61.53C173.94,61.52 174.01,61.52 174.24,61.51C174.96,61.48 176.99,61.44 178.73,61.35C181.17,61.22 186.69,60.77 187.49,60.72C187.62,60.71 187.64,60.71 187.71,60.71C187.79,60.71 187.81,60.71 187.94,60.7C188.56,60.65 192.29,60.09 193.33,60.09C193.76,60.09 193.8,60.15 194.23,60.19C195.35,60.3 199.64,60.69 200.29,60.7C200.41,60.7 200.4,60.7 200.51,60.69C200.8,60.67 201.44,60.63 202.09,60.54C203.17,60.38 204.99,59.93 206.35,59.7C207.6,59.49 208.73,59.37 209.94,59.17C211.2,58.96 212.37,58.67 213.76,58.47C215.4,58.23 218.11,58.08 219.15,57.89C219.58,57.81 220.05,57.66 220.05,57.66C220.05,57.66 220.05,57.66 220.05,57.66C220.05,57.66 223.93,56.68 225.21,56.47C225.96,56.35 226.28,56.37 227.01,56.29C228.13,56.16 229.69,55.9 231.28,55.72C233.27,55.49 236.94,55.33 238.01,55.08C238.36,55 238.4,54.93 238.68,54.82C239.17,54.62 239.89,54.26 240.71,53.98C241.9,53.57 244.66,52.8 245.2,52.71C245.32,52.69 245.42,52.7 245.42,52.7C245.42,52.7 245.42,52.7 245.42,52.7C245.42,52.7 246.86,52.75 247.67,52.78C248.63,52.82 250.03,52.87 250.81,52.93C251.28,52.97 251.58,53.05 251.93,53.05C252.25,53.05 252.49,53 252.83,52.97C253.28,52.94 253.74,52.94 254.4,52.87C255.55,52.75 258.09,52.34 259.12,52.21C259.62,52.15 259.72,52.1 260.24,52.08C261.39,52.03 264.88,52.26 265.85,52.24C266.19,52.23 266.3,52.22 266.53,52.19C266.75,52.17 267.03,52.11 267.2,52.09C267.3,52.08 267.32,52.09 267.43,52.08C267.72,52.06 269,51.97 269,51.97C269,51.97 269,51.97 269,51.97C269,51.97 269.43,51.92 269.67,51.9C269.95,51.88 270.57,51.85 270.57,51.85C270.57,51.85 270.57,51.85 270.57,51.85C270.57,51.85 271.69,51.78 272.14,51.75C272.48,51.73 272.76,51.7 273.04,51.68C273.28,51.67 273.44,51.66 273.71,51.65C274.12,51.63 274.86,51.59 275.28,51.59C275.55,51.59 275.72,51.6 275.96,51.62C276.24,51.64 276.58,51.69 276.86,51.72C277.1,51.75 277.29,51.77 277.53,51.79C277.81,51.81 278.09,51.83 278.43,51.84Q278.88,51.86 280,51.86" style="vector-effect: none; fill: none; stroke: rgb(255, 26, 74); stroke-opacity: 1; stroke-width: 5px; opacity: 1;"/></g><g class="points"/><g class="text"/></g><g class="trace scatter trace1e25b8" style="stroke-miterlimit: 2; opacity: 1;"><g class="fills"/><g class="errorbars"/><g class="lines"><path class="js-line" d="M0,55.33Q4.11,55.55 7.19,55.37C12.79,55.05 25.41,52.45 30.76,52.52C33.53,52.55 34.99,53.47 37.05,53.44C39.04,53.41 40.89,52.72 42.89,52.41C45,52.08 47.97,51.69 49.4,51.54C50.1,51.46 50.33,51.5 50.97,51.41C52.01,51.26 53.4,50.84 55.01,50.6C57.36,50.25 61.41,49.91 63.77,49.77C65.37,49.67 66.7,49.72 67.81,49.66C68.6,49.62 69.18,49.48 69.83,49.49C70.45,49.5 70.98,49.69 71.63,49.72C72.39,49.75 73.28,49.54 74.1,49.6C74.93,49.66 75.87,49.99 76.57,50.11C77.08,50.2 77.31,50.22 77.91,50.28C79.14,50.4 82.08,50.57 83.53,50.71C84.45,50.8 84.78,50.93 85.77,50.98C87.66,51.08 90.81,50.42 94.08,50.88C99.06,51.57 111.25,56.2 112.49,56.35C112.63,56.37 112.59,56.34 112.72,56.34C113.32,56.33 116.52,56.34 117.88,56.47C118.79,56.56 119.26,56.77 120.13,56.86C121.32,56.98 123.19,56.98 124.39,56.99C125.26,57 125.75,56.96 126.64,56.96C127.93,56.96 130.27,57.03 131.36,57.02C131.94,57.02 132.44,56.98 132.7,56.98C132.81,56.98 132.8,56.99 132.93,56.99C133.6,56.97 137.09,56.37 139.21,56.31C141.36,56.25 143.23,56.82 145.73,56.67C149.16,56.47 155.82,54.65 157.85,54.54C158.52,54.5 158.87,54.62 159.2,54.63C159.39,54.64 159.41,54.64 159.65,54.63C160.52,54.6 164.28,54.28 165.71,54.22C166.49,54.19 166.83,54.19 167.51,54.2C168.41,54.21 169.65,54.16 170.65,54.3C171.59,54.43 172.82,54.88 173.34,54.96C173.55,54.99 173.64,54.98 173.79,54.99C173.94,55 174.01,55.02 174.24,55.04C174.96,55.1 176.98,55.28 178.73,55.33C181.17,55.4 186.69,55.25 187.49,55.27C187.62,55.27 187.64,55.27 187.71,55.28C187.79,55.29 187.81,55.29 187.94,55.31C188.56,55.4 192.29,55.95 193.33,56.12C193.76,56.19 193.8,56.2 194.23,56.28C195.35,56.48 199.64,57.31 200.29,57.35C200.41,57.36 200.4,57.34 200.51,57.34C200.8,57.34 201.44,57.41 202.09,57.41C203.16,57.41 204.99,57.16 206.35,57.24C207.6,57.31 208.73,57.56 209.94,57.8C211.2,58.05 212.37,58.46 213.76,58.75C215.4,59.09 218.11,59.5 219.15,59.64C219.57,59.7 220.05,59.73 220.05,59.73C220.05,59.73 220.05,59.73 220.05,59.73C220.05,59.73 223.93,60.01 225.21,60.04C225.96,60.06 226.28,60 227.01,60.03C228.13,60.08 229.69,60.42 231.28,60.45C233.27,60.49 236.93,60.12 238.01,60.08C238.35,60.07 238.4,60.07 238.68,60.07C239.17,60.07 239.9,60.1 240.71,60.11C241.91,60.12 244.66,60.09 245.2,60.08C245.32,60.08 245.42,60.07 245.42,60.07C245.42,60.07 245.42,60.07 245.42,60.07C245.42,60.07 246.86,60.33 247.67,60.36C248.63,60.4 250.03,60.24 250.81,60.19C251.28,60.16 251.58,60.12 251.93,60.12C252.25,60.12 252.49,60.16 252.83,60.18C253.28,60.21 253.74,60.25 254.4,60.26C255.55,60.28 258.09,60.2 259.12,60.22C259.62,60.23 259.73,60.3 260.24,60.28C261.4,60.23 264.88,59.58 265.85,59.48C266.19,59.45 266.3,59.45 266.53,59.44C266.75,59.43 267.04,59.43 267.2,59.43C267.3,59.43 267.32,59.42 267.43,59.42C267.72,59.41 269,59.41 269,59.41C269,59.41 269,59.41 269,59.41C269,59.41 269.43,59.44 269.67,59.45C269.95,59.46 270.57,59.46 270.57,59.46C270.57,59.46 270.57,59.46 270.57,59.46C270.57,59.46 271.69,59.39 272.14,59.37C272.48,59.35 272.76,59.35 273.04,59.34C273.28,59.33 273.44,59.32 273.71,59.32C274.12,59.31 274.86,59.31 275.28,59.32C275.55,59.32 275.72,59.34 275.96,59.34C276.24,59.34 276.58,59.31 276.86,59.3C277.1,59.29 277.29,59.28 277.53,59.26C277.81,59.24 278.09,59.2 278.43,59.18Q278.88,59.16 280,59.17" style="vector-effect: none; fill: none; stroke: rgb(164, 125, 3); stroke-opacity: 1; stroke-width: 5px; opacity: 1;"/></g><g class="points"/><g class="text"/></g><g class="trace scatter traceee8e5a" style="stroke-miterlimit: 2; opacity: 1;"><g class="fills"/><g class="errorbars"/><g class="lines"><path class="js-line" d="M0,55.54Q4.05,57.27 7.19,57.9C12.73,59.01 25.41,59.44 30.76,59.71C33.52,59.85 34.99,59.78 37.05,59.85C39.03,59.91 40.94,60.5 42.89,60.1C45.06,59.66 47.96,57.54 49.4,56.99C50.09,56.73 50.33,56.77 50.97,56.54C52.01,56.17 53.37,55.19 55.01,54.82C57.33,54.29 61.41,54.44 63.77,54.44C65.37,54.44 66.69,54.63 67.81,54.63C68.6,54.63 69.18,54.49 69.83,54.52C70.45,54.55 70.98,54.75 71.63,54.79C72.39,54.83 73.28,54.76 74.1,54.7C74.92,54.64 75.87,54.47 76.57,54.44C77.08,54.42 77.31,54.52 77.91,54.48C79.14,54.4 82.08,53.75 83.53,53.56C84.44,53.44 84.79,53.32 85.77,53.34C87.66,53.38 90.76,54.3 94.08,54.51C99,54.82 111.26,54.36 112.49,54.22C112.63,54.2 112.59,54.18 112.72,54.17C113.32,54.12 116.52,54.47 117.88,54.34C118.79,54.26 119.26,53.98 120.13,53.84C121.32,53.64 123.19,53.5 124.39,53.37C125.26,53.27 125.75,53.19 126.64,53.12C127.92,53.01 130.27,52.93 131.36,52.85C131.94,52.81 132.44,52.76 132.7,52.73C132.81,52.72 132.8,52.71 132.93,52.7C133.6,52.65 137.1,52.6 139.21,52.52C141.36,52.44 143.23,52.07 145.73,52.23C149.16,52.45 155.82,54.16 157.85,54.33C158.52,54.39 158.87,54.3 159.2,54.33C159.39,54.35 159.41,54.39 159.65,54.41C160.51,54.47 164.29,54.37 165.71,54.24C166.49,54.17 166.83,54.05 167.51,53.95C168.41,53.82 169.64,53.69 170.65,53.56C171.58,53.44 172.82,53.25 173.34,53.19C173.55,53.17 173.64,53.15 173.79,53.15C173.94,53.15 174.01,53.16 174.24,53.16C174.96,53.16 176.99,53.15 178.73,53.09C181.17,53.01 186.69,52.66 187.49,52.64C187.62,52.64 187.64,52.63 187.71,52.64C187.79,52.65 187.81,52.68 187.94,52.7C188.55,52.81 192.29,53.16 193.33,53.3C193.76,53.36 193.8,53.4 194.23,53.44C195.35,53.55 199.64,53.61 200.29,53.64C200.41,53.64 200.4,53.65 200.51,53.65C200.8,53.66 201.44,53.68 202.09,53.72C203.17,53.78 204.99,53.95 206.35,54.04C207.6,54.12 208.73,54.08 209.94,54.22C211.2,54.36 212.38,54.65 213.76,54.9C215.4,55.2 218.11,55.77 219.15,55.9C219.57,55.95 220.05,55.96 220.05,55.96C220.05,55.96 220.05,55.96 220.05,55.96C220.05,55.96 223.94,56.75 225.21,57.05C225.97,57.23 226.28,57.35 227.01,57.53C228.13,57.8 229.69,58.14 231.28,58.47C233.27,58.88 236.93,59.59 238.01,59.78C238.35,59.84 238.4,59.84 238.68,59.89C239.17,59.98 239.91,60.1 240.71,60.29C241.92,60.58 244.66,61.48 245.2,61.58C245.32,61.6 245.42,61.6 245.42,61.6C245.42,61.6 245.42,61.6 245.42,61.6C245.42,61.6 246.86,61.67 247.67,61.72C248.63,61.77 250.03,61.84 250.81,61.91C251.28,61.95 251.58,62 251.93,62.03C252.25,62.06 252.49,62.08 252.83,62.1C253.28,62.12 253.74,62.11 254.4,62.13C255.55,62.17 258.09,62.3 259.12,62.33C259.62,62.35 259.72,62.35 260.24,62.35C261.39,62.36 264.88,62.33 265.85,62.35C266.19,62.36 266.3,62.36 266.53,62.38C266.75,62.39 267.03,62.43 267.2,62.44C267.3,62.45 267.32,62.45 267.43,62.46C267.72,62.49 269,62.64 269,62.64C269,62.64 269,62.64 269,62.64C269,62.64 269.43,62.64 269.67,62.65C269.95,62.67 270.57,62.74 270.57,62.74C270.57,62.74 270.57,62.74 270.57,62.74C270.57,62.74 271.69,62.76 272.14,62.76C272.48,62.76 272.76,62.76 273.04,62.74C273.28,62.72 273.44,62.7 273.71,62.67C274.12,62.63 274.86,62.55 275.28,62.51C275.55,62.49 275.72,62.48 275.96,62.46C276.24,62.44 276.58,62.42 276.86,62.41C277.1,62.41 277.29,62.42 277.53,62.42C277.81,62.41 278.09,62.38 278.43,62.37Q278.88,62.36 280,62.36" style="vector-effect: none; fill: none; stroke: rgb(17, 17, 17); stroke-opacity: 1; stroke-width: 5px; opacity: 1;"/></g><g class="points"/><g class="text"/></g></g></g><g class="overplot"/><path class="xlines-above crisp" d="M0,0" style="fill: none;"/><path class="ylines-above crisp" d="M0,0" style="fill: none;"/><g class="overlines-above"/><g class="xaxislayer-above"/><g class="yaxislayer-above"/><g class="overaxes-above"/></g></g><g class="polarlayer"/><g class="smithlayer"/><g class="ternarylayer"/><g class="geolayer"/><g class="funnelarealayer"/><g class="pielayer"/><g class="iciclelayer"/><g class="treemaplayer"/><g class="sunburstlayer"/><g class="glimages"/><defs id="topdefs-4bead3"><g class="clips"/></defs><g class="layer-above"><g class="imagelayer"/><g class="shapelayer"/></g><g class="infolayer"><g class="g-gtitle"><text class="gtitle" x="15" y="25" text-anchor="start" dy="0em" style="font-family: Ubuntu, verdana, arial, sans-serif; font-size: 16px; fill: rgb(233, 84, 32); opacity: 1; font-weight: normal; white-space: pre;">Sněmovna 2021-2025</text></g><g class="g-xtitle"/><g class="g-ytitle"/></g></svg>