<svg class="main-svg" xmlns="http://www.w3.org/2000/svg" xmlns:xlink="http://www.w3.org/1999/xlink" width="300" height="135" style="" viewBox="0 0 300 135"><rect x="0" y="0" width="300" height="135" style="fill: rgb(255, 255, 255); fill-opacity: 1;"/><defs id="defs-afae92"><g class="clips"><clipPath id="clipafae92xyplot" class="plotclip"><rect width="280" height="75"/></clipPath><clipPath class="axesclip" id="clipafae92x"><rect x="10" y="0" width="280" height="135"/></clipPath><clipPath class="axesclip" id="clipafae92y"><rect x="0" y="50" width="300" height="75"/></clipPath><clipPath class="axesclip" id="clipafae92xy"><rect x="10" y="50" width="280" height="75"/></clipPath></g><g class="gradients"/><g class="patterns"/></defs><g class="bglayer"/><g class="layer-below"><g class="imagelayer"/><g class="shapelayer"/></g><g class="cartesianlayer"><g class="subplot xy"><g class="layer-subplot"><g class="shapelayer"/><g class="imagelayer"/></g><g class="minor-gridlayer"><g class="x"/><g class="y"/></g><g class="gridlayer"><g class="x"><path class="xgrid crisp" transform="translate(26.3,0)" d="M0,50v75" style="stroke: rgb(235, 240, 248); stroke-opacity: 1; stroke-width: 1px;"/><path class="xgrid crisp" transform="translate(97.12,0)" d="M0,50v75" style="stroke: rgb(235, 240, 248); stroke-opacity: 1; stroke-width: 1px;"/><path class="xgrid crisp" transform="translate(167.95,0)" d="M0,50v75" style="stroke: rgb(235, 240, 248); stroke-opacity: 1; stroke-width: 1px;"/><path class="xgrid crisp" transform="translate(238.97,0)" d="M0,50v75" style="stroke: rgb(235, 240, 248); stroke-opacity: 1; stroke-width: 1px;"/></g><g class="y"><path class="ygrid crisp" transform="translate(0,104.14)" d="M10,0h280" style="stroke: rgb(235, 240, 248); stroke-opacity: 1; stroke-width: 1px;"/><path class="ygrid crisp" transform="translate(0,83.28)" d="M10,0h280" style="stroke: rgb(235, 240, 248); stroke-opacity: 1; stroke-width: 1px;"/><path class="ygrid crisp" transform="translate(0,62.42)" d="M10,0h280" style="stroke: rgb(235, 240, 248); stroke-opacity: 1; stroke-width: 1px;"/></g></g><g class="zerolinelayer"><path class="yzl zl crisp" transform="translate(0,125)" d="M10,0h280" style="stroke: rgb(235, 240, 248); stroke-opacity: 1; stroke-width: 2px;"/></g><path class="xlines-below"/><path class="ylines-below"/><g class="overlines-below"/><g class="xaxislayer-below"/><g class="yaxislayer-below"/><g class="overaxes-below"/><g class="plot" transform="translate(10,50)" clip-path="url(#clipafae92xyplot)"><g class="scatterlayer mlayer"><g class="trace scatter trace74002d" style="stroke-miterlimit: 2; opacity: 1;"><g class="fills"/><g class="errorbars"/><g class="lines"><path class="js-line" d="M0,18.47Q3.55,18.53 6.21,18.69C11.04,18.98 22.01,21.12 26.58,20.4C29.03,20.01 30.21,18.68 32.02,18.12C33.71,17.59 35.33,17.43 37.06,17.06C38.89,16.67 41.45,16.02 42.69,15.81C43.29,15.71 43.5,15.74 44.05,15.64C44.95,15.47 46.15,15.11 47.54,14.75C49.58,14.23 53.06,13.17 55.11,12.79C56.49,12.53 57.63,12.4 58.6,12.38C59.28,12.37 59.78,12.52 60.35,12.53C60.88,12.54 61.34,12.44 61.9,12.43C62.55,12.41 63.32,12.45 64.03,12.46C64.74,12.47 65.57,12.45 66.17,12.49C66.62,12.52 66.81,12.57 67.33,12.61C68.39,12.7 70.95,12.58 72.18,12.9C73,13.11 73.25,13.74 74.12,13.83C75.74,13.99 78.42,12.61 81.3,12.04C85.55,11.21 96.14,10.03 97.21,9.74C97.33,9.71 97.3,9.7 97.41,9.66C97.93,9.49 100.69,8.5 101.87,8.51C102.65,8.52 103.05,9 103.81,9.06C104.84,9.14 106.47,8.8 107.5,8.61C108.25,8.47 108.69,8.41 109.44,8.12C110.57,7.69 112.55,6.33 113.51,5.98C114,5.8 114.46,5.77 114.68,5.72C114.77,5.7 114.76,5.7 114.87,5.68C115.44,5.56 118.47,4.53 120.3,4.47C122.15,4.41 123.76,5.13 125.93,5.37C128.88,5.7 134.68,6.29 136.41,6.05C137,5.97 137.28,5.72 137.57,5.64C137.73,5.59 137.76,5.6 137.96,5.56C138.71,5.42 141.97,4.74 143.2,4.67C143.87,4.63 144.16,4.78 144.75,4.76C145.53,4.74 146.6,4.57 147.47,4.44C148.28,4.32 149.35,4.08 149.8,4.02C149.98,3.99 150.06,3.99 150.19,3.98C150.32,3.97 150.38,3.97 150.58,3.96C151.2,3.94 152.96,3.78 154.46,3.87C156.57,3.99 161.31,4.84 162.02,4.91C162.13,4.92 162.15,4.93 162.22,4.92C162.28,4.91 162.3,4.89 162.41,4.87C162.93,4.79 166.18,4.88 167.07,4.67C167.45,4.58 167.46,4.35 167.84,4.32C168.8,4.24 172.51,5.57 173.08,5.66C173.19,5.68 173.18,5.67 173.28,5.67C173.53,5.68 174.08,5.6 174.64,5.66C175.57,5.75 177.14,6.21 178.32,6.43C179.4,6.63 180.37,6.83 181.43,6.96C182.51,7.09 183.54,7.07 184.73,7.19C186.15,7.34 188.48,7.68 189.38,7.83C189.75,7.89 190.16,7.99 190.16,7.99C190.16,7.99 190.16,7.99 190.16,7.99C190.16,7.99 193.51,9.22 194.62,9.25C195.27,9.27 195.54,8.97 196.17,8.89C197.13,8.77 198.52,9.06 199.86,8.78C201.61,8.42 204.74,6.72 205.68,6.45C205.97,6.37 206.02,6.4 206.26,6.34C206.69,6.24 207.31,6.03 208.01,5.85C209.05,5.58 211.41,4.96 211.89,4.9C212,4.89 212.09,4.9 212.09,4.9C212.09,4.9 212.09,4.9 212.09,4.9C212.09,4.9 213.33,4.63 214.03,4.46C214.86,4.26 216.06,3.83 216.74,3.75C217.14,3.7 217.4,3.78 217.71,3.78C217.98,3.78 218.19,3.76 218.49,3.77C218.88,3.79 219.27,3.87 219.85,3.91C220.84,3.99 223.03,4.09 223.92,4.11C224.35,4.12 224.44,4.12 224.89,4.11C225.89,4.1 228.9,4 229.74,3.97C230.03,3.96 230.13,3.95 230.33,3.95C230.52,3.95 230.77,3.96 230.91,3.95C230.99,3.95 231.01,3.94 231.1,3.93C231.35,3.91 232.46,3.86 232.46,3.86C232.46,3.86 232.46,3.86 232.46,3.86C232.46,3.86 232.83,3.84 233.04,3.83C233.28,3.81 233.82,3.77 233.82,3.77C233.82,3.77 233.82,3.77 233.82,3.77C233.82,3.77 234.79,3.87 235.18,3.91C235.47,3.94 235.71,3.96 235.95,3.99C236.16,4.01 236.31,4.03 236.53,4.06C236.81,4.1 237.18,4.16 237.51,4.21C237.83,4.25 238.23,4.28 238.48,4.33C238.64,4.36 238.73,4.41 238.86,4.45C238.99,4.49 239.11,4.51 239.25,4.55C239.43,4.6 239.62,4.67 239.83,4.76C240.07,4.86 240.61,5.13 240.61,5.13C240.61,5.13 240.61,5.13 240.61,5.13C240.61,5.13 241.97,5.67 241.97,5.67C241.97,5.67 241.97,5.67 241.97,5.67C241.97,5.67 243.33,6.05 243.33,6.05C243.33,6.05 243.33,6.05 243.33,6.05C243.33,6.05 244.68,6.28 245.27,6.43C245.77,6.56 246.63,6.88 246.63,6.88C246.63,6.88 246.63,6.88 246.63,6.88C246.63,6.88 246.97,7 247.21,7.04C247.57,7.1 248.21,7.12 248.57,7.15C248.8,7.17 248.92,7.17 249.15,7.19C249.51,7.22 250.51,7.3 250.51,7.3C250.51,7.3 250.51,7.3 250.51,7.3C250.51,7.3 250.61,7.29 250.7,7.29C250.95,7.29 251.81,7.38 252.06,7.4C252.15,7.41 252.16,7.4 252.25,7.41C252.52,7.44 253.3,7.62 253.8,7.68C254.27,7.74 255.16,7.78 255.16,7.78C255.16,7.78 255.16,7.78 255.16,7.78C255.16,7.78 255.88,7.82 256.13,7.85C256.29,7.87 256.52,7.91 256.52,7.91C256.52,7.91 256.52,7.91 256.52,7.91C256.52,7.91 257.37,7.95 257.69,7.98C257.92,8 258.06,8.04 258.27,8.06C258.51,8.09 258.75,8.1 259.04,8.12C259.43,8.14 260.08,8.16 260.4,8.16C260.57,8.16 260.68,8.16 260.79,8.16C260.86,8.16 260.9,8.17 260.98,8.17C261.15,8.18 261.46,8.2 261.76,8.22C262.15,8.24 263.12,8.3 263.12,8.3C263.12,8.3 263.12,8.3 263.12,8.3C263.12,8.3 264.23,8.49 264.48,8.52C264.57,8.53 264.58,8.54 264.67,8.54C264.89,8.55 265.45,8.52 265.84,8.5C266.23,8.48 266.78,8.44 267,8.43C267.09,8.43 267.1,8.43 267.19,8.43C267.44,8.44 268.11,8.47 268.55,8.49C268.95,8.51 269.5,8.5 269.72,8.53C269.81,8.54 269.83,8.56 269.91,8.57C270.05,8.59 270.28,8.63 270.49,8.65C270.73,8.67 270.98,8.67 271.27,8.69C271.62,8.72 272.2,8.77 272.43,8.8C272.52,8.81 272.53,8.81 272.63,8.83C272.88,8.88 273.53,9.05 273.98,9.16C274.43,9.27 275.09,9.44 275.34,9.5C275.44,9.52 275.45,9.52 275.54,9.54C275.77,9.6 276.7,9.88 276.7,9.88C276.7,9.88 276.7,9.88 276.7,9.88C276.7,9.88 277.6,10.16 278.06,10.34C278.56,10.54 279.26,10.91 279.61,11.03Q279.78,11.09 280,11.12" style="vector-effect: none; fill: none; stroke: rgb(39, 42, 89); stroke-opacity: 1; stroke-width: 5px; opacity: 1;"/></g><g class="points"/><g class="text"/></g><g class="trace scatter tracef4e9cf" style="stroke-miterlimit: 2; opacity: 1;"><g class="fills"/><g class="errorbars"/><g class="lines"><path class="js-line" d="M0,17.22Q3.6,19.62 6.21,19.41C11.11,19.01 21.88,8.77 26.58,8.24C28.9,7.98 30.24,9.3 32.02,9.79C33.73,10.26 35.44,10.23 37.06,11.14C39.03,12.25 41.37,15.91 42.69,16.51C43.24,16.76 43.52,16.45 44.05,16.63C44.97,16.93 46.12,18.03 47.54,18.75C49.55,19.77 53.04,21.29 55.11,21.86C56.47,22.24 57.63,22.32 58.6,22.39C59.28,22.44 59.79,22.47 60.35,22.38C60.89,22.29 61.33,21.93 61.9,21.85C62.55,21.76 63.32,22.02 64.03,21.96C64.75,21.9 65.57,21.67 66.17,21.48C66.62,21.33 66.8,21.14 67.33,20.99C68.38,20.7 70.96,20.73 72.18,20.31C73.01,20.03 73.25,19.23 74.12,19.19C75.74,19.11 78.36,22.01 81.3,22.45C85.49,23.07 96.15,20.03 97.21,20.36C97.35,20.4 97.29,20.48 97.41,20.54C97.92,20.8 100.68,21.39 101.87,21.49C102.64,21.56 103.06,21.35 103.81,21.41C104.85,21.49 106.46,21.98 107.5,22.15C108.25,22.27 108.69,22.19 109.44,22.39C110.57,22.7 112.56,23.75 113.51,24.15C114.02,24.36 114.45,24.56 114.68,24.62C114.77,24.64 114.77,24.62 114.87,24.65C115.44,24.8 118.45,26.35 120.3,26.59C122.13,26.82 123.77,25.96 125.93,26.08C128.9,26.25 134.67,27.85 136.41,28.26C136.99,28.4 137.29,28.48 137.57,28.56C137.73,28.6 137.75,28.64 137.96,28.67C138.71,28.77 141.97,28.56 143.2,28.62C143.87,28.65 144.16,28.72 144.75,28.79C145.53,28.89 146.6,29.16 147.47,29.18C148.28,29.2 149.35,28.93 149.8,28.97C149.99,28.99 150.06,29.06 150.19,29.08C150.32,29.1 150.38,29.06 150.58,29.07C151.2,29.09 152.95,29.29 154.46,29.37C156.56,29.49 161.31,29.63 162.02,29.62C162.13,29.62 162.15,29.62 162.22,29.61C162.28,29.6 162.3,29.56 162.41,29.55C162.93,29.48 166.17,29.76 167.07,29.75C167.44,29.75 167.47,29.73 167.84,29.7C168.81,29.62 172.51,29.28 173.08,29.18C173.19,29.16 173.18,29.15 173.28,29.13C173.53,29.09 174.08,28.99 174.64,28.99C175.57,29 177.15,29.46 178.32,29.41C179.4,29.37 180.37,28.84 181.43,28.8C182.51,28.76 183.54,29.06 184.73,29.21C186.15,29.38 188.48,29.67 189.38,29.77C189.75,29.81 190.16,29.85 190.16,29.85C190.16,29.85 190.16,29.85 190.16,29.85C190.16,29.85 193.51,31.07 194.62,31.33C195.26,31.48 195.54,31.48 196.17,31.56C197.14,31.69 198.5,31.75 199.86,31.97C201.59,32.25 204.76,32.86 205.68,33.25C205.99,33.38 206,33.54 206.26,33.63C206.67,33.78 207.31,33.82 208.01,33.83C209.05,33.84 211.41,33.44 211.89,33.47C212,33.48 212.09,33.51 212.09,33.51C212.09,33.51 212.09,33.51 212.09,33.51C212.09,33.51 213.33,33.69 214.03,33.78C214.86,33.89 216.07,33.95 216.74,34.1C217.15,34.19 217.41,34.3 217.71,34.42C217.99,34.53 218.19,34.69 218.49,34.8C218.87,34.94 219.27,35 219.85,35.13C220.84,35.35 223.03,35.77 223.92,35.91C224.35,35.98 224.44,35.99 224.89,36.03C225.89,36.11 228.9,36.21 229.74,36.24C230.03,36.25 230.13,36.25 230.33,36.25C230.52,36.25 230.77,36.25 230.91,36.24C230.99,36.24 231.01,36.23 231.1,36.22C231.35,36.19 232.46,36.08 232.46,36.08C232.46,36.08 232.46,36.08 232.46,36.08C232.46,36.08 232.83,36.01 233.04,35.98C233.28,35.94 233.82,35.86 233.82,35.86C233.82,35.86 233.82,35.86 233.82,35.86C233.82,35.86 234.79,35.84 235.18,35.84C235.47,35.84 235.71,35.84 235.95,35.84C236.16,35.84 236.31,35.84 236.53,35.84C236.81,35.84 237.18,35.84 237.51,35.83C237.83,35.82 238.23,35.81 238.48,35.8C238.64,35.79 238.73,35.79 238.86,35.77C238.99,35.75 239.11,35.73 239.25,35.69C239.43,35.65 239.62,35.57 239.83,35.52C240.07,35.46 240.61,35.37 240.61,35.37C240.61,35.37 240.61,35.37 240.61,35.37C240.61,35.37 241.97,34.98 241.97,34.98C241.97,34.98 241.97,34.98 241.97,34.98C241.97,34.98 243.33,34.59 243.33,34.59C243.33,34.59 243.33,34.59 243.33,34.59C243.33,34.59 244.68,34.15 245.27,33.98C245.76,33.84 246.63,33.64 246.63,33.64C246.63,33.64 246.63,33.64 246.63,33.64C246.63,33.64 246.98,33.55 247.21,33.5C247.57,33.42 248.21,33.29 248.57,33.22C248.8,33.17 248.92,33.15 249.15,33.1C249.51,33.03 250.51,32.83 250.51,32.83C250.51,32.83 250.51,32.83 250.51,32.83C250.51,32.83 250.61,32.8 250.7,32.78C250.95,32.72 251.81,32.5 252.06,32.44C252.15,32.42 252.16,32.42 252.25,32.4C252.52,32.35 253.3,32.2 253.8,32.13C254.27,32.06 255.16,31.98 255.16,31.98C255.16,31.98 255.16,31.98 255.16,31.98C255.16,31.98 255.88,31.91 256.13,31.89C256.29,31.88 256.52,31.86 256.52,31.86C256.52,31.86 256.52,31.86 256.52,31.86C256.52,31.86 257.37,31.91 257.69,31.92C257.92,31.93 258.06,31.94 258.27,31.94C258.51,31.95 258.75,31.94 259.04,31.95C259.43,31.96 260.08,32.01 260.4,32.02C260.57,32.03 260.68,32.03 260.79,32.03C260.86,32.03 260.9,32.04 260.98,32.04C261.15,32.04 261.46,32.03 261.76,32.03C262.15,32.03 263.12,32.02 263.12,32.02C263.12,32.02 263.12,32.02 263.12,32.02C263.12,32.02 264.23,32.05 264.48,32.06C264.57,32.06 264.58,32.06 264.67,32.07C264.89,32.08 265.45,32.13 265.84,32.15C266.23,32.17 266.78,32.17 267,32.17C267.09,32.17 267.1,32.17 267.19,32.17C267.44,32.17 268.11,32.16 268.55,32.16C268.95,32.16 269.5,32.17 269.72,32.18C269.81,32.18 269.83,32.18 269.91,32.19C270.05,32.2 270.28,32.24 270.49,32.26C270.73,32.28 270.98,32.28 271.27,32.29C271.62,32.3 272.2,32.3 272.43,32.3C272.52,32.3 272.53,32.3 272.63,32.3C272.88,32.3 273.53,32.32 273.98,32.34C274.43,32.36 275.09,32.42 275.34,32.43C275.44,32.44 275.45,32.43 275.54,32.44C275.77,32.46 276.7,32.61 276.7,32.61C276.7,32.61 276.7,32.61 276.7,32.61C276.7,32.61 277.59,32.73 278.06,32.79C278.56,32.85 279.26,32.95 279.61,32.95Q279.78,32.95 280,32.92" style="vector-effect: none; fill: none; stroke: rgb(94, 102, 213); stroke-opacity: 1; stroke-width: 5px; opacity: 1;"/></g><g class="points"/><g class="text"/></g><g class="trace scatter tracede11a0" style="stroke-miterlimit: 2; opacity: 1;"><g class="fills"/><g class="errorbars"/><g class="lines"><path class="js-line" d="M0,54.97Q3.55,55.19 6.21,55.01C11.05,54.68 21.96,52.05 26.58,52.11C28.97,52.14 30.24,53.07 32.02,53.04C33.73,53.01 35.33,52.32 37.06,52C38.88,51.67 41.45,51.27 42.69,51.11C43.3,51.03 43.5,51.07 44.05,50.98C44.95,50.83 46.15,50.4 47.54,50.16C49.57,49.81 53.07,49.46 55.11,49.31C56.49,49.21 57.64,49.26 58.6,49.2C59.28,49.16 59.79,49.02 60.35,49.03C60.88,49.04 61.34,49.24 61.9,49.26C62.55,49.29 63.32,49.07 64.03,49.13C64.75,49.19 65.56,49.53 66.17,49.65C66.61,49.74 66.81,49.77 67.33,49.83C68.39,49.96 70.93,50.11 72.18,50.26C72.97,50.35 73.27,50.48 74.12,50.54C75.75,50.65 78.48,49.98 81.3,50.44C85.61,51.14 96.14,55.86 97.21,56.01C97.33,56.03 97.3,56 97.41,56C97.93,56 100.69,56 101.87,56.14C102.65,56.23 103.06,56.44 103.81,56.53C104.84,56.65 106.47,56.65 107.5,56.66C108.25,56.67 108.67,56.63 109.44,56.63C110.55,56.63 112.56,56.7 113.51,56.69C114.02,56.69 114.46,56.65 114.68,56.65C114.77,56.65 114.76,56.66 114.87,56.66C115.44,56.64 118.47,56.03 120.3,55.97C122.16,55.91 123.78,56.49 125.93,56.34C128.9,56.13 134.66,54.28 136.41,54.17C136.99,54.13 137.29,54.25 137.57,54.26C137.73,54.27 137.76,54.27 137.96,54.26C138.71,54.23 141.97,53.9 143.2,53.84C143.87,53.81 144.16,53.81 144.75,53.82C145.53,53.83 146.61,53.79 147.47,53.93C148.28,54.06 149.35,54.5 149.8,54.59C149.98,54.62 150.06,54.62 150.19,54.63C150.32,54.65 150.38,54.66 150.58,54.68C151.2,54.74 152.95,54.93 154.46,54.98C156.56,55.05 161.31,54.9 162.02,54.91C162.13,54.91 162.15,54.91 162.22,54.92C162.28,54.93 162.3,54.93 162.41,54.95C162.93,55.04 166.17,55.59 167.07,55.77C167.44,55.84 167.47,55.86 167.84,55.94C168.81,56.15 172.51,56.99 173.08,57.03C173.19,57.04 173.18,57.02 173.28,57.02C173.53,57.02 174.08,57.08 174.64,57.08C175.57,57.08 177.15,56.84 178.32,56.92C179.4,56.99 180.38,57.23 181.43,57.48C182.52,57.74 183.53,58.16 184.73,58.45C186.14,58.79 188.48,59.22 189.38,59.36C189.75,59.42 190.16,59.45 190.16,59.45C190.16,59.45 190.16,59.45 190.16,59.45C190.16,59.45 193.52,59.73 194.62,59.76C195.27,59.78 195.54,59.72 196.17,59.75C197.14,59.8 198.49,60.14 199.86,60.17C201.58,60.21 204.75,59.83 205.68,59.79C205.97,59.78 206.01,59.78 206.26,59.78C206.69,59.78 207.31,59.82 208.01,59.82C209.05,59.83 211.41,59.79 211.89,59.77C212,59.77 212.09,59.76 212.09,59.76C212.09,59.76 212.09,59.76 212.09,59.76C212.09,59.76 213.33,60.01 214.03,60.03C214.86,60.06 216.06,59.89 216.74,59.83C217.14,59.8 217.4,59.74 217.71,59.74C217.98,59.74 218.19,59.78 218.49,59.79C218.88,59.81 219.28,59.83 219.85,59.83C220.84,59.82 223.03,59.67 223.92,59.66C224.35,59.65 224.45,59.71 224.89,59.67C225.89,59.58 228.9,58.86 229.74,58.74C230.03,58.7 230.13,58.7 230.33,58.68C230.52,58.67 230.77,58.66 230.91,58.65C230.99,58.64 231.01,58.63 231.1,58.62C231.35,58.59 232.46,58.53 232.46,58.53C232.46,58.53 232.46,58.53 232.46,58.53C232.46,58.53 232.83,58.53 233.04,58.52C233.28,58.51 233.82,58.45 233.82,58.45C233.82,58.45 233.82,58.45 233.82,58.45C233.82,58.45 234.79,58.27 235.18,58.2C235.47,58.15 235.71,58.11 235.95,58.07C236.16,58.03 236.31,58 236.53,57.96C236.81,57.91 237.19,57.86 237.51,57.79C237.84,57.72 238.23,57.63 238.48,57.56C238.64,57.52 238.73,57.48 238.86,57.44C238.99,57.4 239.11,57.37 239.25,57.32C239.42,57.26 239.62,57.19 239.83,57.11C240.07,57.02 240.61,56.79 240.61,56.79C240.61,56.79 240.61,56.79 240.61,56.79C240.61,56.79 241.97,56.13 241.97,56.13C241.97,56.13 241.97,56.13 241.97,56.13C241.97,56.13 243.33,55.37 243.33,55.37C243.33,55.37 243.33,55.37 243.33,55.37C243.33,55.37 244.68,54.52 245.27,54.15C245.76,53.84 246.63,53.29 246.63,53.29C246.63,53.29 246.63,53.29 246.63,53.29C246.63,53.29 246.97,53.09 247.21,52.96C247.57,52.77 248.21,52.46 248.57,52.29C248.8,52.18 248.92,52.13 249.15,52.02C249.51,51.86 250.51,51.42 250.51,51.42C250.51,51.42 250.51,51.42 250.51,51.42C250.51,51.42 250.61,51.39 250.7,51.36C250.95,51.27 251.81,50.93 252.06,50.84C252.15,50.81 252.16,50.81 252.25,50.78C252.52,50.68 253.3,50.34 253.8,50.17C254.26,50.01 255.16,49.76 255.16,49.76C255.16,49.76 255.16,49.76 255.16,49.76C255.16,49.76 255.88,49.62 256.13,49.56C256.29,49.52 256.52,49.45 256.52,49.45C256.52,49.45 256.52,49.45 256.52,49.45C256.52,49.45 257.37,49.29 257.69,49.2C257.92,49.14 258.06,49.06 258.27,49.01C258.51,48.96 258.75,48.95 259.04,48.91C259.43,48.86 260.08,48.79 260.4,48.76C260.57,48.74 260.68,48.74 260.79,48.73C260.86,48.72 260.9,48.72 260.98,48.71C261.15,48.7 261.46,48.68 261.76,48.66C262.15,48.64 263.12,48.59 263.12,48.59C263.12,48.59 263.12,48.59 263.12,48.59C263.12,48.59 264.23,48.49 264.48,48.47C264.57,48.46 264.58,48.46 264.67,48.46C264.89,48.45 265.45,48.45 265.84,48.45C266.23,48.45 266.78,48.43 267,48.44C267.09,48.44 267.1,48.45 267.19,48.46C267.44,48.48 268.11,48.49 268.55,48.52C268.96,48.55 269.5,48.63 269.72,48.65C269.81,48.66 269.83,48.66 269.91,48.66C270.05,48.67 270.28,48.67 270.49,48.7C270.73,48.73 270.98,48.8 271.27,48.85C271.62,48.91 272.2,49.02 272.43,49.05C272.52,49.06 272.53,49.07 272.63,49.07C272.88,49.08 273.53,49.05 273.98,49.05C274.43,49.05 275.09,49.06 275.34,49.07C275.44,49.07 275.45,49.08 275.54,49.08C275.77,49.08 276.7,49.06 276.7,49.06C276.7,49.06 276.7,49.06 276.7,49.06C276.7,49.06 277.59,49.04 278.06,49.02C278.56,48.99 279.27,48.94 279.61,48.9Q279.78,48.88 280,48.85" style="vector-effect: none; fill: none; stroke: rgb(164, 125, 3); stroke-opacity: 1; stroke-width: 5px; opacity: 1;"/></g><g class="points"/><g class="text"/></g><g class="trace scatter tracebe90d2" style="stroke-miterlimit: 2; opacity: 1;"><g class="fills"/><g class="errorbars"/><g class="lines"><path class="js-line" d="M0,62.27Q2.74,53.43 6.21,51.64C10.68,49.34 21.98,52.68 26.58,53.5C29,53.93 30.25,54.45 32.02,54.96C33.74,55.45 35.37,55.8 37.06,56.49C38.92,57.25 41.46,58.73 42.69,59.41C43.3,59.75 43.49,59.9 44.05,60.2C44.94,60.68 46.11,61.46 47.54,61.92C49.54,62.57 53.06,62.97 55.11,63.22C56.49,63.39 57.64,63.41 58.6,63.47C59.28,63.51 59.79,63.59 60.35,63.55C60.88,63.51 61.34,63.33 61.9,63.26C62.55,63.18 63.32,63.23 64.03,63.16C64.74,63.09 65.57,62.94 66.17,62.83C66.62,62.75 66.81,62.62 67.33,62.57C68.39,62.47 70.93,62.72 72.18,62.71C72.97,62.7 73.27,62.67 74.12,62.61C75.76,62.5 78.44,62.23 81.3,61.98C85.56,61.61 96.14,60.67 97.21,60.62C97.33,60.61 97.3,60.62 97.41,60.62C97.93,60.63 100.69,60.58 101.87,60.73C102.66,60.83 103.05,61.09 103.81,61.19C104.84,61.32 106.47,61.16 107.5,61.26C108.25,61.33 108.67,61.49 109.44,61.6C110.55,61.75 112.56,61.94 113.51,62.01C114.02,62.05 114.46,62.06 114.68,62.07C114.77,62.07 114.76,62.07 114.87,62.07C115.44,62.09 118.47,62.4 120.3,62.38C122.16,62.36 123.76,62.04 125.93,61.93C128.88,61.78 134.67,61.89 136.41,61.72C136.99,61.66 137.29,61.56 137.57,61.51C137.73,61.48 137.75,61.46 137.96,61.44C138.71,61.37 141.97,61.5 143.2,61.46C143.87,61.44 144.16,61.37 144.75,61.35C145.53,61.32 146.6,61.37 147.47,61.36C148.28,61.35 149.35,61.35 149.8,61.32C149.98,61.31 150.06,61.29 150.19,61.28C150.32,61.27 150.38,61.28 150.58,61.27C151.2,61.25 152.95,61.2 154.46,61.1C156.56,60.96 161.31,60.51 162.02,60.46C162.13,60.45 162.15,60.45 162.22,60.45C162.28,60.45 162.3,60.45 162.41,60.44C162.93,60.39 166.17,59.82 167.07,59.82C167.43,59.82 167.47,59.88 167.84,59.92C168.81,60.03 172.51,60.43 173.08,60.44C173.19,60.44 173.18,60.44 173.28,60.43C173.53,60.41 174.08,60.38 174.64,60.28C175.57,60.12 177.14,59.66 178.32,59.42C179.4,59.2 180.38,59.08 181.43,58.88C182.52,58.67 183.53,58.37 184.73,58.17C186.14,57.93 188.48,57.77 189.38,57.58C189.75,57.5 190.16,57.34 190.16,57.34C190.16,57.34 190.16,57.34 190.16,57.34C190.16,57.34 193.51,56.35 194.62,56.13C195.26,56 195.54,56.03 196.17,55.94C197.14,55.81 198.49,55.55 199.86,55.37C201.58,55.14 204.76,54.95 205.68,54.7C205.98,54.62 206.02,54.56 206.26,54.45C206.69,54.25 207.3,53.88 208.01,53.59C209.04,53.17 211.41,52.39 211.89,52.3C212,52.28 212.09,52.29 212.09,52.29C212.09,52.29 212.09,52.29 212.09,52.29C212.09,52.29 213.33,52.34 214.03,52.37C214.86,52.41 216.06,52.45 216.74,52.51C217.15,52.55 217.4,52.63 217.71,52.63C217.98,52.63 218.19,52.57 218.49,52.54C218.88,52.5 219.28,52.51 219.85,52.44C220.85,52.32 223.03,51.91 223.92,51.78C224.35,51.72 224.44,51.67 224.89,51.65C225.89,51.6 228.9,51.81 229.74,51.79C230.03,51.78 230.13,51.76 230.33,51.74C230.52,51.72 230.77,51.68 230.91,51.66C230.99,51.65 231.01,51.65 231.1,51.64C231.35,51.62 232.46,51.55 232.46,51.55C232.46,51.55 232.46,51.55 232.46,51.55C232.46,51.55 232.83,51.51 233.04,51.49C233.28,51.47 233.82,51.45 233.82,51.45C233.82,51.45 233.82,51.45 233.82,51.45C233.82,51.45 234.79,51.4 235.18,51.38C235.47,51.36 235.71,51.34 235.95,51.33C236.16,51.32 236.31,51.31 236.53,51.31C236.81,51.3 237.18,51.32 237.51,51.3C237.83,51.28 238.23,51.23 238.48,51.22C238.64,51.21 238.73,51.21 238.86,51.21C238.99,51.21 239.11,51.22 239.25,51.22C239.42,51.22 239.62,51.23 239.83,51.23C240.07,51.23 240.61,51.22 240.61,51.22C240.61,51.22 240.61,51.22 240.61,51.22C240.61,51.22 241.97,51.29 241.97,51.29C241.97,51.29 241.97,51.29 241.97,51.29C241.97,51.29 243.33,51.38 243.33,51.38C243.33,51.38 243.33,51.38 243.33,51.38C243.33,51.38 244.68,51.6 245.27,51.67C245.76,51.73 246.63,51.81 246.63,51.81C246.63,51.81 246.63,51.81 246.63,51.81C246.63,51.81 246.98,51.84 247.21,51.88C247.57,51.93 248.21,52.07 248.57,52.13C248.8,52.17 248.92,52.18 249.15,52.21C249.51,52.25 250.51,52.33 250.51,52.33C250.51,52.33 250.51,52.33 250.51,52.33C250.51,52.33 250.61,52.33 250.7,52.33C250.95,52.34 251.81,52.42 252.06,52.43C252.15,52.43 252.16,52.43 252.25,52.43C252.52,52.43 253.3,52.43 253.8,52.41C254.27,52.39 255.16,52.34 255.16,52.34C255.16,52.34 255.16,52.34 255.16,52.34C255.16,52.34 255.88,52.29 256.13,52.28C256.29,52.28 256.52,52.28 256.52,52.28C256.52,52.28 256.52,52.28 256.52,52.28C256.52,52.28 257.37,52.3 257.69,52.3C257.92,52.3 258.06,52.28 258.27,52.28C258.51,52.28 258.75,52.29 259.04,52.29C259.43,52.29 260.08,52.31 260.4,52.3C260.57,52.29 260.68,52.27 260.79,52.27C260.86,52.27 260.9,52.28 260.98,52.27C261.15,52.26 261.46,52.21 261.76,52.17C262.15,52.11 263.12,51.96 263.12,51.96C263.12,51.96 263.12,51.96 263.12,51.96C263.12,51.96 264.23,51.84 264.48,51.82C264.57,51.81 264.58,51.81 264.67,51.81C264.89,51.8 265.45,51.8 265.84,51.81C266.23,51.82 266.78,51.85 267,51.86C267.09,51.86 267.1,51.86 267.19,51.87C267.44,51.89 268.11,51.97 268.55,52C268.95,52.03 269.5,52.06 269.72,52.07C269.81,52.07 269.83,52.07 269.91,52.07C270.05,52.07 270.28,52.06 270.49,52.06C270.73,52.05 270.98,52.05 271.27,52.04C271.62,52.03 272.2,51.99 272.43,51.98C272.52,51.98 272.53,51.98 272.63,51.98C272.88,51.98 273.53,51.99 273.98,51.98C274.43,51.97 275.09,51.91 275.34,51.89C275.44,51.88 275.45,51.88 275.54,51.87C275.77,51.84 276.7,51.72 276.7,51.72C276.7,51.72 276.7,51.72 276.7,51.72C276.7,51.72 277.59,51.59 278.06,51.54C278.56,51.48 279.26,51.43 279.61,51.4Q279.78,51.39 280,51.37" style="vector-effect: none; fill: none; stroke: rgb(255, 26, 74); stroke-opacity: 1; stroke-width: 5px; opacity: 1;"/></g><g class="points"/><g class="text"/></g><g class="trace scatter trace322536" style="stroke-miterlimit: 2; opacity: 1;"><g class="fills"/><g class="errorbars"/><g class="lines"><path class="js-line" d="M0,53.1Q3.39,56.1 6.21,57.05C10.91,58.64 21.95,58.79 26.58,58.8C28.97,58.8 30.25,58.61 32.02,58.35C33.74,58.1 35.38,57.91 37.06,57.29C38.94,56.6 41.46,54.93 42.69,54.23C43.3,53.88 43.49,53.76 44.05,53.43C44.95,52.9 46.09,51.8 47.54,51.32C49.52,50.67 53.07,50.63 55.11,50.63C56.5,50.63 57.64,50.86 58.6,50.96C59.28,51.03 59.79,51.01 60.35,51.15C60.89,51.29 61.33,51.68 61.9,51.8C62.54,51.93 63.33,51.9 64.03,51.81C64.75,51.72 65.56,51.32 66.17,51.23C66.61,51.17 66.81,51.25 67.33,51.21C68.39,51.14 70.93,50.6 72.18,50.61C72.97,50.62 73.28,50.71 74.12,50.89C75.77,51.25 78.41,52.7 81.3,52.97C85.53,53.37 96.14,51.77 97.21,51.49C97.33,51.46 97.3,51.43 97.41,51.4C97.93,51.28 100.69,51.38 101.87,51.25C102.65,51.16 103.07,51.07 103.81,50.89C104.85,50.64 106.46,50.07 107.5,49.83C108.24,49.66 108.67,49.57 109.44,49.48C110.54,49.36 112.57,49.47 113.51,49.3C114.03,49.2 114.45,48.97 114.68,48.91C114.77,48.89 114.76,48.89 114.87,48.87C115.44,48.77 118.47,48.31 120.3,48.18C122.16,48.05 123.77,47.95 125.93,48.12C128.89,48.35 134.66,49.64 136.41,49.88C136.99,49.96 137.29,49.94 137.57,50C137.74,50.04 137.75,50.08 137.96,50.13C138.71,50.3 141.97,50.72 143.2,50.74C143.87,50.75 144.17,50.71 144.75,50.62C145.53,50.5 146.6,50.19 147.47,49.98C148.28,49.79 149.35,49.52 149.8,49.43C149.98,49.39 150.06,49.36 150.19,49.36C150.32,49.36 150.38,49.39 150.58,49.4C151.2,49.44 152.95,49.46 154.46,49.44C156.56,49.41 161.32,49.11 162.02,49.17C162.14,49.18 162.16,49.19 162.22,49.21C162.29,49.23 162.3,49.27 162.41,49.3C162.93,49.44 166.17,49.58 167.07,49.72C167.44,49.78 167.47,49.88 167.84,49.89C168.81,49.92 172.51,49.07 173.08,49.02C173.19,49.01 173.18,49.02 173.28,49.02C173.53,49.02 174.08,49.03 174.64,49.05C175.57,49.08 177.15,49.15 178.32,49.22C179.4,49.29 180.39,49.27 181.43,49.46C182.52,49.66 183.53,50.13 184.73,50.44C186.14,50.81 188.48,51.35 189.38,51.49C189.75,51.55 190.16,51.56 190.16,51.56C190.16,51.56 190.16,51.56 190.16,51.56C190.16,51.56 193.51,52.89 194.62,53.18C195.26,53.35 195.54,53.31 196.17,53.43C197.14,53.61 198.49,53.9 199.86,54.22C201.58,54.62 204.75,55.4 205.68,55.66C205.98,55.74 206.02,55.75 206.26,55.84C206.69,55.99 207.32,56.22 208.01,56.53C209.06,57 211.41,58.33 211.89,58.47C211.99,58.5 212.09,58.49 212.09,58.49C212.09,58.49 212.09,58.49 212.09,58.49C212.09,58.49 213.33,58.65 214.03,58.67C214.86,58.69 216.06,58.55 216.74,58.56C217.14,58.57 217.4,58.6 217.71,58.63C217.98,58.66 218.19,58.72 218.49,58.72C218.88,58.73 219.27,58.62 219.85,58.6C220.84,58.57 223.03,58.67 223.92,58.68C224.35,58.68 224.44,58.68 224.89,58.68C225.89,58.69 228.9,58.7 229.74,58.73C230.03,58.74 230.13,58.74 230.33,58.76C230.52,58.78 230.77,58.82 230.91,58.84C230.99,58.85 231.01,58.85 231.1,58.87C231.35,58.91 232.46,59.12 232.46,59.12C232.46,59.12 232.46,59.12 232.46,59.12C232.46,59.12 232.83,59.16 233.04,59.19C233.28,59.22 233.82,59.29 233.82,59.29C233.82,59.29 233.82,59.29 233.82,59.29C233.82,59.29 234.79,59.37 235.18,59.4C235.47,59.43 235.71,59.47 235.95,59.47C236.16,59.47 236.31,59.45 236.53,59.44C236.81,59.43 237.18,59.44 237.51,59.42C237.83,59.4 238.23,59.36 238.48,59.34C238.64,59.33 238.73,59.32 238.86,59.32C238.99,59.32 239.11,59.33 239.25,59.33C239.42,59.33 239.62,59.34 239.83,59.34C240.07,59.34 240.61,59.31 240.61,59.31C240.61,59.31 240.61,59.31 240.61,59.31C240.61,59.31 241.97,59.19 241.97,59.19C241.97,59.19 241.97,59.19 241.97,59.19C241.97,59.19 243.33,59.08 243.33,59.08C243.33,59.08 243.33,59.08 243.33,59.08C243.33,59.08 244.68,59.09 245.27,59.08C245.76,59.07 246.63,59.02 246.63,59.02C246.63,59.02 246.63,59.02 246.63,59.02C246.63,59.02 246.98,59.03 247.21,59.04C247.57,59.05 248.21,59.1 248.57,59.1C248.8,59.1 248.92,59.1 249.15,59.08C249.51,59.05 250.51,58.91 250.51,58.91C250.51,58.91 250.51,58.91 250.51,58.91C250.51,58.91 250.61,58.89 250.7,58.88C250.95,58.85 251.81,58.77 252.06,58.75C252.15,58.74 252.16,58.74 252.25,58.74C252.52,58.73 253.3,58.71 253.8,58.7C254.27,58.69 255.16,58.67 255.16,58.67C255.16,58.67 255.16,58.67 255.16,58.67C255.16,58.67 255.88,58.64 256.13,58.62C256.29,58.61 256.52,58.57 256.52,58.57C256.52,58.57 256.52,58.57 256.52,58.57C256.52,58.57 257.37,58.45 257.69,58.41C257.92,58.38 258.06,58.37 258.27,58.35C258.51,58.32 258.75,58.29 259.04,58.26C259.43,58.22 260.08,58.15 260.4,58.13C260.57,58.12 260.68,58.12 260.79,58.12C260.86,58.12 260.9,58.12 260.98,58.12C261.15,58.12 261.46,58.13 261.76,58.14C262.15,58.15 263.12,58.16 263.12,58.16C263.12,58.16 263.12,58.16 263.12,58.16C263.12,58.16 264.23,58.09 264.48,58.08C264.57,58.07 264.58,58.08 264.67,58.07C264.89,58.05 265.45,58.01 265.84,57.97C266.23,57.94 266.78,57.89 267,57.86C267.09,57.85 267.1,57.85 267.19,57.83C267.44,57.79 268.11,57.67 268.55,57.6C268.95,57.53 269.5,57.44 269.72,57.4C269.81,57.39 269.83,57.38 269.91,57.37C270.05,57.35 270.28,57.3 270.49,57.26C270.73,57.22 270.98,57.17 271.27,57.12C271.62,57.06 272.2,56.97 272.43,56.94C272.52,56.93 272.53,56.93 272.63,56.92C272.88,56.89 273.53,56.79 273.98,56.73C274.43,56.67 275.09,56.59 275.34,56.55C275.44,56.54 275.45,56.54 275.54,56.52C275.77,56.48 276.7,56.27 276.7,56.27C276.7,56.27 276.7,56.27 276.7,56.27C276.7,56.27 277.59,56.11 278.06,56.01C278.56,55.91 279.26,55.71 279.61,55.66Q279.78,55.64 280,55.64" style="vector-effect: none; fill: none; stroke: rgb(17, 17, 17); stroke-opacity: 1; stroke-width: 5px; opacity: 1;"/></g><g class="points"/><g class="text"/></g></g></g><g class="overplot"/><path class="xlines-above crisp" d="M0,0" style="fill: none;"/><path class="ylines-above crisp" d="M0,0" style="fill: none;"/><g class="overlines-above"/><g class="xaxislayer-above"/><g class="yaxislayer-above"/><g class="overaxes-above"/></g></g><g class="polarlayer"/><g class="smithlayer"/><g class="ternarylayer"/><g class="geolayer"/><g class="funnelarealayer"/><g class="pielayer"/><g class="iciclelayer"/><g class="treemaplayer"/><g class="sunburstlayer"/><g class="glimages"/><defs id="topdefs-afae92"><g class="clips"/></defs><g class="layer-above"><g class="imagelayer"/><g class="shapelayer"/></g><g class="infolayer"><g class="g-gtitle"><text class="gtitle" x="15" y="25" text-anchor="start" dy="0em" style="font-family: Ubuntu, verdana, arial, sans-serif; font-size: 16px; fill: rgb(233, 84, 32); opacity: 1; font-weight: normal; white-space: pre;">Sněmovna volby 2025</text></g><g class="g-xtitle"/><g class="g-ytitle"/></g></svg>