<svg class="main-svg" xmlns="http://www.w3.org/2000/svg" xmlns:xlink="http://www.w3.org/1999/xlink" width="300" height="135" style="" viewBox="0 0 300 135"><rect x="0" y="0" width="300" height="135" style="fill: rgb(255, 255, 255); fill-opacity: 1;"/><defs id="defs-a75a27"><g class="clips"><clipPath id="clipa75a27xyplot" class="plotclip"><rect width="280" height="75"/></clipPath><clipPath class="axesclip" id="clipa75a27x"><rect x="10" y="0" width="280" height="135"/></clipPath><clipPath class="axesclip" id="clipa75a27y"><rect x="0" y="50" width="300" height="75"/></clipPath><clipPath class="axesclip" id="clipa75a27xy"><rect x="10" y="50" width="280" height="75"/></clipPath></g><g class="gradients"/><g class="patterns"/></defs><g class="bglayer"/><g class="layer-below"><g class="imagelayer"/><g class="shapelayer"/></g><g class="cartesianlayer"><g class="subplot xy"><g class="layer-subplot"><g class="shapelayer"/><g class="imagelayer"/></g><g class="minor-gridlayer"><g class="x"/><g class="y"/></g><g class="gridlayer"><g class="x"><path class="xgrid crisp" transform="translate(27.24,0)" d="M0,50v75" style="stroke: rgb(235, 240, 248); stroke-opacity: 1; stroke-width: 1px;"/><path class="xgrid crisp" transform="translate(102.17,0)" d="M0,50v75" style="stroke: rgb(235, 240, 248); stroke-opacity: 1; stroke-width: 1px;"/><path class="xgrid crisp" transform="translate(177.1,0)" d="M0,50v75" style="stroke: rgb(235, 240, 248); stroke-opacity: 1; stroke-width: 1px;"/><path class="xgrid crisp" transform="translate(252.23,0)" d="M0,50v75" style="stroke: rgb(235, 240, 248); stroke-opacity: 1; stroke-width: 1px;"/></g><g class="y"><path class="ygrid crisp" transform="translate(0,104.14)" d="M10,0h280" style="stroke: rgb(235, 240, 248); stroke-opacity: 1; stroke-width: 1px;"/><path class="ygrid crisp" transform="translate(0,83.28)" d="M10,0h280" style="stroke: rgb(235, 240, 248); stroke-opacity: 1; stroke-width: 1px;"/><path class="ygrid crisp" transform="translate(0,62.42)" d="M10,0h280" style="stroke: rgb(235, 240, 248); stroke-opacity: 1; stroke-width: 1px;"/></g></g><g class="zerolinelayer"><path class="yzl zl crisp" transform="translate(0,125)" d="M10,0h280" style="stroke: rgb(235, 240, 248); stroke-opacity: 1; stroke-width: 2px;"/></g><path class="xlines-below"/><path class="ylines-below"/><g class="overlines-below"/><g class="xaxislayer-below"/><g class="yaxislayer-below"/><g class="overaxes-below"/><g class="plot" transform="translate(10,50)" clip-path="url(#clipa75a27xyplot)"><g class="scatterlayer mlayer"><g class="trace scatter tracecf405b" style="stroke-miterlimit: 2; opacity: 1;"><g class="fills"/><g class="errorbars"/><g class="lines"><path class="js-line" d="M0,18.47Q3.75,18.53 6.57,18.69C11.68,18.98 23.28,21.13 28.12,20.4C30.71,20.01 31.96,18.68 33.87,18.12C35.66,17.59 37.38,17.44 39.21,17.07C41.14,16.68 43.85,16.03 45.16,15.81C45.8,15.7 46.01,15.75 46.6,15.64C47.55,15.47 48.82,15.11 50.29,14.75C52.45,14.23 56.13,13.17 58.3,12.79C59.76,12.53 60.97,12.4 61.99,12.38C62.71,12.37 63.24,12.52 63.84,12.53C64.4,12.54 64.89,12.44 65.48,12.43C66.17,12.41 66.99,12.45 67.74,12.46C68.49,12.47 69.36,12.45 70,12.49C70.47,12.52 70.68,12.57 71.23,12.61C72.35,12.7 75.06,12.58 76.36,12.9C77.23,13.11 77.5,13.74 78.42,13.83C80.13,14 82.97,12.61 86.01,12.04C90.5,11.21 101.72,10.03 102.84,9.74C102.97,9.71 102.93,9.7 103.05,9.66C103.6,9.49 106.52,8.5 107.77,8.51C108.6,8.52 109.02,9 109.82,9.06C110.91,9.14 112.63,8.8 113.72,8.61C114.52,8.47 114.99,8.41 115.78,8.12C116.98,7.69 119.07,6.33 120.09,5.98C120.61,5.8 121.08,5.77 121.32,5.72C121.41,5.7 121.41,5.7 121.52,5.68C122.12,5.56 125.33,4.53 127.27,4.47C129.23,4.41 130.93,5.13 133.23,5.37C136.35,5.7 142.48,6.29 144.31,6.05C144.94,5.97 145.24,5.72 145.54,5.64C145.71,5.59 145.73,5.6 145.95,5.56C146.74,5.42 150.19,4.74 151.5,4.67C152.21,4.63 152.52,4.78 153.14,4.76C153.96,4.74 155.09,4.58 156.01,4.45C156.87,4.33 158,4.08 158.48,4.02C158.67,3.99 158.75,3.99 158.89,3.98C159.03,3.97 159.09,3.97 159.3,3.96C159.96,3.94 161.81,3.79 163.4,3.88C165.63,4 170.68,4.85 171.41,4.91C171.52,4.92 171.54,4.92 171.61,4.92C171.68,4.92 171.7,4.89 171.82,4.88C172.38,4.81 175.8,4.88 176.74,4.67C177.14,4.58 177.16,4.35 177.57,4.32C178.59,4.24 182.52,5.57 183.11,5.66C183.22,5.68 183.21,5.67 183.31,5.67C183.57,5.68 184.16,5.6 184.75,5.66C185.74,5.75 187.4,6.21 188.65,6.43C189.79,6.63 190.82,6.83 191.94,6.96C193.08,7.09 194.17,7.07 195.43,7.19C196.93,7.34 199.4,7.69 200.35,7.84C200.74,7.9 201.17,7.99 201.17,7.99C201.17,7.99 201.17,7.99 201.17,7.99C201.17,7.99 204.72,9.22 205.89,9.25C206.58,9.27 206.87,8.97 207.54,8.89C208.56,8.77 210.02,9.06 211.44,8.78C213.29,8.42 216.61,6.72 217.6,6.45C217.9,6.37 217.95,6.4 218.21,6.34C218.66,6.24 219.32,6.03 220.06,5.85C221.16,5.58 223.65,4.96 224.16,4.9C224.27,4.89 224.37,4.9 224.37,4.9C224.37,4.9 224.37,4.9 224.37,4.9C224.37,4.9 225.68,4.63 226.42,4.46C227.3,4.26 228.58,3.83 229.3,3.75C229.72,3.7 230,3.78 230.32,3.78C230.61,3.78 230.83,3.76 231.14,3.77C231.55,3.79 231.97,3.87 232.58,3.91C233.63,3.98 235.95,4.07 236.89,4.1C237.35,4.11 237.45,4.11 237.92,4.11C238.98,4.1 242.17,3.98 243.05,3.96C243.36,3.95 243.46,3.95 243.67,3.95C243.87,3.95 244.13,3.95 244.28,3.94C244.37,3.94 244.39,3.93 244.49,3.92C244.75,3.9 245.92,3.85 245.92,3.85C245.92,3.85 245.92,3.85 245.92,3.85C245.92,3.85 246.32,3.83 246.54,3.82C246.79,3.8 247.36,3.76 247.36,3.76C247.36,3.76 247.36,3.76 247.36,3.76C247.36,3.76 248.39,3.86 248.8,3.9C249.11,3.93 249.37,3.95 249.62,3.98C249.84,4 250,4.02 250.23,4.05C250.53,4.09 250.92,4.14 251.26,4.19C251.6,4.23 252.03,4.27 252.29,4.32C252.46,4.35 252.56,4.39 252.7,4.43C252.84,4.46 252.96,4.49 253.11,4.53C253.29,4.58 253.5,4.65 253.72,4.74C253.98,4.84 254.55,5.11 254.55,5.11C254.55,5.11 254.55,5.11 254.55,5.11C254.55,5.11 255.98,5.64 255.98,5.64C255.98,5.64 255.98,5.64 255.98,5.64C255.98,5.64 257.42,6.02 257.42,6.02C257.42,6.02 257.42,6.02 257.42,6.02C257.42,6.02 258.85,6.24 259.47,6.39C260,6.52 260.91,6.84 260.91,6.84C260.91,6.84 260.91,6.84 260.91,6.84C260.91,6.84 261.27,6.97 261.52,7.01C261.9,7.07 262.58,7.09 262.96,7.11C263.21,7.12 263.33,7.12 263.58,7.14C263.96,7.16 265.01,7.25 265.01,7.25C265.01,7.25 265.01,7.25 265.01,7.25C265.01,7.25 265.12,7.24 265.22,7.24C265.49,7.24 266.4,7.32 266.66,7.34C266.76,7.35 266.76,7.34 266.86,7.35C267.14,7.38 267.97,7.55 268.5,7.61C268.99,7.67 269.94,7.71 269.94,7.71C269.94,7.71 269.94,7.71 269.94,7.71C269.94,7.71 270.7,7.74 270.97,7.77C271.14,7.79 271.38,7.83 271.38,7.83C271.38,7.83 271.38,7.83 271.38,7.83C271.38,7.83 272.27,7.85 272.61,7.88C272.85,7.9 273.01,7.95 273.23,7.97C273.48,8 273.74,8.01 274.05,8.02C274.46,8.04 275.15,8.04 275.48,8.04C275.66,8.04 275.78,8.03 275.89,8.03C275.97,8.03 276.01,8.04 276.1,8.04C276.28,8.05 276.61,8.07 276.92,8.08C277.33,8.1 278.36,8.13 278.36,8.13C278.36,8.13 278.36,8.13 278.36,8.13Q278.36,8.13 280,8.5" style="vector-effect: none; fill: none; stroke: rgb(39, 42, 89); stroke-opacity: 1; stroke-width: 5px; opacity: 1;"/></g><g class="points"/><g class="text"/></g><g class="trace scatter trace650246" style="stroke-miterlimit: 2; opacity: 1;"><g class="fills"/><g class="errorbars"/><g class="lines"><path class="js-line" d="M0,17.22Q3.81,19.63 6.57,19.41C11.74,19 23.15,8.78 28.12,8.24C30.58,7.97 31.99,9.3 33.87,9.79C35.68,10.26 37.49,10.22 39.21,11.14C41.28,12.25 43.78,15.91 45.16,16.51C45.75,16.76 46.03,16.45 46.6,16.63C47.57,16.93 48.79,18.03 50.29,18.75C52.42,19.77 56.11,21.29 58.3,21.86C59.74,22.24 60.97,22.32 61.99,22.39C62.71,22.44 63.25,22.47 63.84,22.38C64.41,22.29 64.88,21.93 65.48,21.85C66.17,21.76 66.99,22.02 67.74,21.96C68.5,21.9 69.37,21.67 70,21.48C70.48,21.33 70.67,21.14 71.23,20.99C72.34,20.7 75.06,20.73 76.36,20.31C77.23,20.03 77.5,19.23 78.42,19.19C80.14,19.11 82.91,22.01 86.01,22.45C90.45,23.08 101.72,20.02 102.84,20.36C102.98,20.4 102.92,20.48 103.05,20.54C103.59,20.8 106.52,21.39 107.77,21.49C108.59,21.56 109.03,21.35 109.82,21.41C110.92,21.49 112.62,21.98 113.72,22.15C114.51,22.27 114.98,22.19 115.78,22.39C116.97,22.7 119.09,23.75 120.09,24.15C120.62,24.36 121.08,24.56 121.32,24.62C121.41,24.64 121.41,24.62 121.52,24.65C122.12,24.8 125.31,26.36 127.27,26.6C129.21,26.83 130.95,25.96 133.23,26.08C136.37,26.25 142.47,27.85 144.31,28.26C144.93,28.4 145.24,28.48 145.54,28.56C145.71,28.6 145.73,28.64 145.95,28.67C146.74,28.77 150.2,28.56 151.5,28.62C152.21,28.65 152.52,28.72 153.14,28.79C153.96,28.89 155.09,29.16 156.01,29.18C156.86,29.2 158.01,28.93 158.48,28.97C158.68,28.99 158.75,29.06 158.89,29.08C159.03,29.1 159.09,29.06 159.3,29.07C159.96,29.09 161.81,29.29 163.4,29.37C165.63,29.49 170.68,29.65 171.41,29.63C171.53,29.63 171.54,29.62 171.61,29.61C171.68,29.6 171.7,29.56 171.82,29.55C172.38,29.48 175.79,29.76 176.74,29.75C177.13,29.75 177.17,29.73 177.57,29.7C178.6,29.62 182.52,29.27 183.11,29.18C183.22,29.16 183.21,29.15 183.31,29.14C183.57,29.1 184.15,28.99 184.75,28.99C185.73,28.99 187.41,29.46 188.65,29.41C189.8,29.37 190.82,28.84 191.94,28.8C193.08,28.76 194.17,29.06 195.43,29.21C196.93,29.38 199.4,29.67 200.35,29.77C200.74,29.81 201.17,29.85 201.17,29.85C201.17,29.85 201.17,29.85 201.17,29.85C201.17,29.85 204.71,31.07 205.89,31.33C206.57,31.48 206.87,31.48 207.54,31.56C208.56,31.69 210,31.75 211.44,31.97C213.27,32.25 216.63,32.86 217.6,33.25C217.93,33.38 217.94,33.54 218.21,33.63C218.65,33.78 219.32,33.82 220.06,33.83C221.16,33.84 223.66,33.44 224.16,33.47C224.27,33.48 224.37,33.51 224.37,33.51C224.37,33.51 224.37,33.51 224.37,33.51C224.37,33.51 225.68,33.69 226.42,33.78C227.3,33.89 228.59,33.95 229.3,34.1C229.73,34.19 230,34.3 230.32,34.42C230.61,34.53 230.82,34.69 231.14,34.8C231.55,34.94 231.97,35 232.58,35.13C233.63,35.35 235.95,35.77 236.89,35.91C237.35,35.98 237.44,35.99 237.92,36.03C238.98,36.11 242.17,36.22 243.05,36.25C243.36,36.26 243.46,36.26 243.67,36.26C243.87,36.26 244.13,36.26 244.28,36.25C244.37,36.25 244.39,36.24 244.49,36.23C244.75,36.2 245.92,36.08 245.92,36.08C245.92,36.08 245.92,36.08 245.92,36.08C245.92,36.08 246.32,36.01 246.54,35.98C246.79,35.94 247.36,35.87 247.36,35.87C247.36,35.87 247.36,35.87 247.36,35.87C247.36,35.87 248.39,35.85 248.8,35.85C249.11,35.85 249.37,35.85 249.62,35.85C249.84,35.85 250,35.85 250.23,35.85C250.53,35.85 250.92,35.84 251.26,35.84C251.6,35.83 252.02,35.84 252.29,35.82C252.46,35.81 252.56,35.8 252.7,35.78C252.84,35.76 252.96,35.74 253.11,35.71C253.29,35.67 253.5,35.59 253.72,35.54C253.97,35.48 254.55,35.39 254.55,35.39C254.55,35.39 254.55,35.39 254.55,35.39C254.55,35.39 255.98,35 255.98,35C255.98,35 255.98,35 255.98,35C255.98,35 257.42,34.62 257.42,34.62C257.42,34.62 257.42,34.62 257.42,34.62C257.42,34.62 258.84,34.18 259.47,34.01C259.99,33.87 260.91,33.66 260.91,33.66C260.91,33.66 260.91,33.66 260.91,33.66C260.91,33.66 261.27,33.57 261.52,33.52C261.9,33.44 262.58,33.32 262.96,33.24C263.21,33.19 263.33,33.16 263.58,33.11C263.96,33.03 265.01,32.84 265.01,32.84C265.01,32.84 265.01,32.84 265.01,32.84C265.01,32.84 265.12,32.82 265.22,32.8C265.49,32.74 266.4,32.51 266.66,32.44C266.76,32.42 266.76,32.41 266.86,32.39C267.14,32.33 267.97,32.18 268.5,32.1C268.99,32.03 269.94,31.93 269.94,31.93C269.94,31.93 269.94,31.93 269.94,31.93C269.94,31.93 270.7,31.85 270.97,31.82C271.14,31.8 271.38,31.78 271.38,31.78C271.38,31.78 271.38,31.78 271.38,31.78C271.38,31.78 272.27,31.82 272.61,31.83C272.85,31.84 273.01,31.85 273.23,31.85C273.48,31.85 273.74,31.83 274.05,31.83C274.46,31.83 275.15,31.87 275.48,31.88C275.66,31.89 275.78,31.89 275.89,31.89C275.97,31.89 276.01,31.9 276.1,31.9C276.28,31.9 276.61,31.87 276.92,31.85C277.33,31.82 278.36,31.76 278.36,31.76C278.36,31.76 278.36,31.76 278.36,31.76Q278.36,31.76 280,31.67" style="vector-effect: none; fill: none; stroke: rgb(94, 102, 213); stroke-opacity: 1; stroke-width: 5px; opacity: 1;"/></g><g class="points"/><g class="text"/></g><g class="trace scatter trace6acd6f" style="stroke-miterlimit: 2; opacity: 1;"><g class="fills"/><g class="errorbars"/><g class="lines"><path class="js-line" d="M0,54.97Q3.76,55.19 6.57,55.01C11.69,54.68 23.23,52.04 28.12,52.11C30.65,52.15 31.99,53.08 33.87,53.05C35.69,53.02 37.38,52.32 39.21,52C41.14,51.67 43.85,51.27 45.16,51.11C45.8,51.03 46.01,51.07 46.6,50.98C47.55,50.83 48.82,50.4 50.29,50.16C52.44,49.81 56.14,49.46 58.3,49.31C59.76,49.21 60.97,49.26 61.99,49.2C62.71,49.16 63.24,49.02 63.84,49.03C64.4,49.04 64.89,49.24 65.48,49.26C66.17,49.29 66.99,49.07 67.74,49.13C68.5,49.19 69.36,49.53 70,49.65C70.47,49.74 70.68,49.77 71.23,49.83C72.35,49.96 75.03,50.11 76.36,50.26C77.2,50.35 77.51,50.48 78.42,50.54C80.15,50.65 83.03,49.99 86.01,50.45C90.57,51.16 101.71,55.86 102.84,56.01C102.96,56.03 102.93,56 103.05,56C103.6,56 106.52,56 107.77,56.14C108.6,56.23 109.02,56.44 109.82,56.53C110.91,56.65 112.63,56.65 113.72,56.66C114.52,56.67 114.97,56.63 115.78,56.63C116.95,56.63 119.09,56.7 120.09,56.69C120.62,56.69 121.08,56.65 121.32,56.65C121.42,56.65 121.41,56.66 121.52,56.66C122.12,56.64 125.33,56.03 127.27,55.97C129.24,55.91 130.95,56.49 133.23,56.34C136.37,56.13 142.46,54.28 144.31,54.17C144.92,54.13 145.24,54.25 145.54,54.26C145.71,54.27 145.74,54.27 145.95,54.26C146.74,54.23 150.2,53.9 151.5,53.84C152.21,53.81 152.52,53.81 153.14,53.82C153.96,53.83 155.1,53.79 156.01,53.93C156.87,54.06 158,54.5 158.48,54.59C158.67,54.62 158.75,54.62 158.89,54.63C159.03,54.65 159.09,54.66 159.3,54.68C159.96,54.74 161.81,54.93 163.4,54.98C165.63,55.05 170.68,54.89 171.41,54.91C171.53,54.91 171.54,54.91 171.61,54.92C171.68,54.93 171.7,54.93 171.82,54.95C172.38,55.04 175.79,55.59 176.74,55.77C177.13,55.84 177.17,55.86 177.57,55.94C178.6,56.15 182.52,56.99 183.11,57.03C183.22,57.04 183.21,57.02 183.31,57.02C183.57,57.02 184.15,57.08 184.75,57.08C185.73,57.08 187.41,56.84 188.65,56.92C189.8,56.99 190.83,57.23 191.94,57.48C193.09,57.74 194.16,58.16 195.43,58.45C196.92,58.79 199.4,59.22 200.35,59.36C200.74,59.42 201.17,59.45 201.17,59.45C201.17,59.45 201.17,59.45 201.17,59.45C201.17,59.45 204.72,59.73 205.89,59.76C206.58,59.78 206.87,59.72 207.54,59.75C208.57,59.8 209.99,60.14 211.44,60.17C213.26,60.21 216.62,59.83 217.6,59.79C217.91,59.78 217.95,59.78 218.21,59.78C218.66,59.78 219.32,59.82 220.06,59.82C221.16,59.83 223.66,59.81 224.16,59.78C224.27,59.77 224.37,59.76 224.37,59.76C224.37,59.76 224.37,59.76 224.37,59.76C224.37,59.76 225.68,60.02 226.42,60.04C227.3,60.07 228.58,59.9 229.3,59.84C229.73,59.81 230,59.76 230.32,59.75C230.61,59.74 230.83,59.78 231.14,59.79C231.55,59.81 231.97,59.84 232.58,59.84C233.63,59.84 235.95,59.68 236.89,59.67C237.35,59.66 237.45,59.72 237.92,59.68C238.98,59.59 242.17,58.88 243.05,58.76C243.36,58.72 243.46,58.72 243.67,58.7C243.87,58.68 244.13,58.67 244.28,58.66C244.37,58.65 244.39,58.65 244.49,58.64C244.75,58.62 245.92,58.55 245.92,58.55C245.92,58.55 245.92,58.55 245.92,58.55C245.92,58.55 246.32,58.55 246.54,58.54C246.79,58.53 247.36,58.48 247.36,58.48C247.36,58.48 247.36,58.48 247.36,58.48C247.36,58.48 248.39,58.3 248.8,58.23C249.11,58.18 249.37,58.14 249.62,58.1C249.84,58.06 250,58.04 250.23,58C250.53,57.95 250.92,57.89 251.26,57.83C251.6,57.76 252.03,57.68 252.29,57.61C252.46,57.57 252.56,57.53 252.7,57.49C252.84,57.45 252.96,57.42 253.11,57.37C253.29,57.31 253.5,57.24 253.72,57.16C253.98,57.07 254.55,56.85 254.55,56.85C254.55,56.85 254.55,56.85 254.55,56.85C254.55,56.85 255.98,56.21 255.98,56.21C255.98,56.21 255.98,56.21 255.98,56.21C255.98,56.21 257.42,55.45 257.42,55.45C257.42,55.45 257.42,55.45 257.42,55.45C257.42,55.45 258.85,54.62 259.47,54.25C259.99,53.94 260.91,53.4 260.91,53.4C260.91,53.4 260.91,53.4 260.91,53.4C260.91,53.4 261.27,53.19 261.52,53.07C261.9,52.88 262.58,52.58 262.96,52.41C263.21,52.3 263.33,52.25 263.58,52.15C263.96,51.99 265.01,51.55 265.01,51.55C265.01,51.55 265.01,51.55 265.01,51.55C265.01,51.55 265.12,51.52 265.22,51.49C265.49,51.41 266.4,51.08 266.66,50.99C266.76,50.96 266.76,50.96 266.86,50.92C267.14,50.82 267.97,50.49 268.5,50.32C268.99,50.16 269.94,49.91 269.94,49.91C269.94,49.91 269.94,49.91 269.94,49.91C269.94,49.91 270.7,49.78 270.97,49.72C271.14,49.68 271.38,49.62 271.38,49.62C271.38,49.62 271.38,49.62 271.38,49.62C271.38,49.62 272.27,49.46 272.61,49.37C272.85,49.31 273.01,49.22 273.23,49.17C273.48,49.12 273.74,49.11 274.05,49.08C274.46,49.04 275.15,48.97 275.48,48.95C275.66,48.94 275.78,48.94 275.89,48.93C275.97,48.92 276.01,48.92 276.1,48.91C276.28,48.9 276.61,48.89 276.92,48.89C277.33,48.88 278.36,48.89 278.36,48.89C278.36,48.89 278.36,48.89 278.36,48.89Q278.36,48.89 280,48.81" style="vector-effect: none; fill: none; stroke: rgb(164, 125, 3); stroke-opacity: 1; stroke-width: 5px; opacity: 1;"/></g><g class="points"/><g class="text"/></g><g class="trace scatter traceca4abf" style="stroke-miterlimit: 2; opacity: 1;"><g class="fills"/><g class="errorbars"/><g class="lines"><path class="js-line" d="M0,62.28Q2.97,53.45 6.57,51.64C11.31,49.26 23.25,52.68 28.12,53.5C30.67,53.93 31.99,54.45 33.87,54.96C35.69,55.45 37.41,55.8 39.21,56.49C41.17,57.25 43.86,58.73 45.16,59.41C45.81,59.75 46,59.9 46.6,60.2C47.54,60.68 48.79,61.46 50.29,61.92C52.41,62.57 56.14,62.97 58.3,63.22C59.76,63.39 60.97,63.41 61.99,63.47C62.71,63.51 63.24,63.59 63.84,63.55C64.41,63.51 64.89,63.33 65.48,63.26C66.17,63.18 66.99,63.23 67.74,63.16C68.5,63.09 69.36,62.94 70,62.83C70.47,62.75 70.68,62.62 71.23,62.57C72.35,62.47 75.03,62.72 76.36,62.71C77.2,62.7 77.52,62.67 78.42,62.61C80.15,62.5 82.98,62.23 86.01,61.98C90.52,61.61 101.71,60.67 102.84,60.62C102.97,60.61 102.93,60.62 103.05,60.62C103.6,60.63 106.53,60.58 107.77,60.73C108.6,60.83 109.02,61.09 109.82,61.19C110.91,61.32 112.63,61.16 113.72,61.26C114.52,61.33 114.97,61.49 115.78,61.6C116.95,61.75 119.09,61.94 120.09,62.01C120.62,62.05 121.08,62.06 121.32,62.07C121.41,62.07 121.41,62.07 121.52,62.07C122.12,62.09 125.34,62.4 127.27,62.38C129.24,62.36 130.94,62.04 133.23,61.93C136.35,61.78 142.47,61.89 144.31,61.72C144.93,61.66 145.24,61.56 145.54,61.51C145.71,61.48 145.73,61.46 145.95,61.44C146.74,61.37 150.2,61.5 151.5,61.46C152.21,61.44 152.52,61.37 153.14,61.35C153.96,61.32 155.09,61.37 156.01,61.36C156.86,61.35 158,61.35 158.48,61.32C158.67,61.31 158.75,61.29 158.89,61.28C159.03,61.27 159.09,61.28 159.3,61.27C159.96,61.25 161.81,61.2 163.4,61.1C165.63,60.96 170.68,60.51 171.41,60.46C171.53,60.45 171.54,60.45 171.61,60.45C171.68,60.45 171.7,60.45 171.82,60.44C172.38,60.39 175.78,59.82 176.74,59.82C177.13,59.82 177.17,59.88 177.57,59.92C178.6,60.03 182.52,60.43 183.11,60.44C183.22,60.44 183.21,60.44 183.31,60.43C183.57,60.41 184.16,60.38 184.75,60.28C185.74,60.12 187.4,59.66 188.65,59.42C189.79,59.2 190.83,59.08 191.94,58.88C193.09,58.67 194.16,58.37 195.43,58.17C196.93,57.93 199.4,57.77 200.35,57.58C200.74,57.5 201.17,57.34 201.17,57.34C201.17,57.34 201.17,57.34 201.17,57.34C201.17,57.34 204.72,56.35 205.89,56.13C206.58,56 206.87,56.03 207.54,55.94C208.57,55.81 209.99,55.55 211.44,55.37C213.26,55.14 216.62,54.95 217.6,54.7C217.92,54.62 217.95,54.56 218.21,54.45C218.66,54.25 219.31,53.88 220.06,53.59C221.15,53.17 223.65,52.39 224.16,52.3C224.27,52.28 224.37,52.29 224.37,52.29C224.37,52.29 224.37,52.29 224.37,52.29C224.37,52.29 225.68,52.34 226.42,52.37C227.3,52.41 228.58,52.45 229.3,52.51C229.73,52.55 230,52.63 230.32,52.63C230.61,52.63 230.83,52.57 231.14,52.54C231.55,52.5 231.97,52.51 232.58,52.44C233.63,52.32 235.95,51.91 236.89,51.78C237.35,51.72 237.44,51.67 237.92,51.65C238.98,51.6 242.17,51.81 243.05,51.79C243.36,51.78 243.46,51.76 243.67,51.74C243.87,51.72 244.13,51.67 244.28,51.66C244.37,51.65 244.39,51.66 244.49,51.65C244.75,51.63 245.92,51.55 245.92,51.55C245.92,51.55 245.92,51.55 245.92,51.55C245.92,51.55 246.32,51.51 246.54,51.49C246.79,51.47 247.36,51.45 247.36,51.45C247.36,51.45 247.36,51.45 247.36,51.45C247.36,51.45 248.39,51.4 248.8,51.38C249.11,51.36 249.37,51.34 249.62,51.33C249.84,51.32 250,51.31 250.23,51.31C250.53,51.3 250.92,51.31 251.26,51.3C251.6,51.29 252.02,51.23 252.29,51.22C252.46,51.21 252.56,51.21 252.7,51.21C252.84,51.21 252.96,51.22 253.11,51.22C253.29,51.22 253.5,51.23 253.72,51.23C253.98,51.23 254.55,51.22 254.55,51.22C254.55,51.22 254.55,51.22 254.55,51.22C254.55,51.22 255.98,51.29 255.98,51.29C255.98,51.29 255.98,51.29 255.98,51.29C255.98,51.29 257.42,51.38 257.42,51.38C257.42,51.38 257.42,51.38 257.42,51.38C257.42,51.38 258.85,51.59 259.47,51.67C259.99,51.73 260.91,51.82 260.91,51.82C260.91,51.82 260.91,51.82 260.91,51.82C260.91,51.82 261.27,51.86 261.52,51.9C261.9,51.96 262.58,52.09 262.96,52.15C263.21,52.19 263.33,52.2 263.58,52.23C263.96,52.27 265.01,52.37 265.01,52.37C265.01,52.37 265.01,52.37 265.01,52.37C265.01,52.37 265.12,52.37 265.22,52.37C265.49,52.38 266.4,52.46 266.66,52.48C266.76,52.49 266.76,52.49 266.86,52.49C267.14,52.5 267.97,52.5 268.5,52.49C269,52.48 269.94,52.42 269.94,52.42C269.94,52.42 269.94,52.42 269.94,52.42C269.94,52.42 270.7,52.39 270.97,52.38C271.14,52.38 271.38,52.38 271.38,52.38C271.38,52.38 271.38,52.38 271.38,52.38C271.38,52.38 272.27,52.42 272.61,52.43C272.85,52.43 273.01,52.42 273.23,52.43C273.48,52.44 273.74,52.46 274.05,52.47C274.46,52.49 275.15,52.53 275.48,52.53C275.66,52.53 275.78,52.52 275.89,52.52C275.97,52.52 276.01,52.52 276.1,52.52C276.28,52.51 276.61,52.48 276.92,52.45C277.33,52.41 278.36,52.26 278.36,52.26C278.36,52.26 278.36,52.26 278.36,52.26Q278.36,52.26 280,52.14" style="vector-effect: none; fill: none; stroke: rgb(255, 26, 74); stroke-opacity: 1; stroke-width: 5px; opacity: 1;"/></g><g class="points"/><g class="text"/></g><g class="trace scatter trace04e4b5" style="stroke-miterlimit: 2; opacity: 1;"><g class="fills"/><g class="errorbars"/><g class="lines"><path class="js-line" d="M0,53.1Q3.6,56.1 6.57,57.05C11.56,58.65 23.23,58.79 28.12,58.8C30.65,58.8 32,58.61 33.87,58.35C35.69,58.1 37.43,57.91 39.21,57.29C41.19,56.6 43.86,54.93 45.16,54.23C45.81,53.88 46.01,53.76 46.6,53.43C47.55,52.9 48.76,51.8 50.29,51.32C52.39,50.66 56.14,50.63 58.3,50.63C59.77,50.63 60.97,50.86 61.99,50.96C62.71,51.03 63.25,51.01 63.84,51.15C64.41,51.29 64.88,51.68 65.48,51.8C66.16,51.93 66.99,51.9 67.74,51.81C68.5,51.72 69.36,51.32 70,51.23C70.47,51.17 70.68,51.25 71.23,51.21C72.36,51.14 75.03,50.6 76.36,50.61C77.2,50.62 77.52,50.71 78.42,50.89C80.16,51.25 82.95,52.69 86.01,52.97C90.49,53.37 101.72,51.77 102.84,51.49C102.97,51.46 102.93,51.43 103.05,51.4C103.59,51.28 106.52,51.39 107.77,51.26C108.6,51.17 109.03,51.07 109.82,50.89C110.92,50.64 112.62,50.07 113.72,49.83C114.51,49.66 114.96,49.57 115.78,49.48C116.95,49.36 119.1,49.47 120.09,49.3C120.63,49.2 121.08,48.97 121.32,48.91C121.41,48.89 121.41,48.89 121.52,48.87C122.12,48.77 125.33,48.31 127.27,48.18C129.24,48.05 130.95,47.95 133.23,48.12C136.36,48.35 142.46,49.64 144.31,49.88C144.92,49.96 145.24,49.94 145.54,50C145.72,50.04 145.73,50.08 145.95,50.13C146.74,50.3 150.2,50.72 151.5,50.74C152.21,50.75 152.52,50.71 153.14,50.62C153.97,50.5 155.09,50.19 156.01,49.98C156.86,49.79 158,49.52 158.48,49.43C158.67,49.39 158.75,49.36 158.89,49.36C159.03,49.36 159.09,49.39 159.3,49.4C159.96,49.44 161.81,49.46 163.4,49.44C165.63,49.41 170.68,49.11 171.41,49.17C171.53,49.18 171.54,49.19 171.61,49.21C171.68,49.23 171.7,49.27 171.82,49.3C172.38,49.44 175.79,49.58 176.74,49.72C177.13,49.78 177.17,49.88 177.57,49.89C178.6,49.91 182.52,49.07 183.11,49.02C183.22,49.01 183.21,49.02 183.31,49.02C183.57,49.02 184.15,49.03 184.75,49.05C185.73,49.08 187.41,49.15 188.65,49.22C189.79,49.29 190.84,49.27 191.94,49.46C193.1,49.66 194.16,50.13 195.43,50.44C196.92,50.81 199.4,51.35 200.35,51.49C200.74,51.55 201.17,51.56 201.17,51.56C201.17,51.56 201.17,51.56 201.17,51.56C201.17,51.56 204.71,52.89 205.89,53.18C206.57,53.35 206.88,53.31 207.54,53.43C208.57,53.61 209.99,53.9 211.44,54.22C213.26,54.62 216.62,55.4 217.6,55.66C217.91,55.74 217.95,55.75 218.21,55.84C218.66,55.99 219.33,56.22 220.06,56.53C221.17,57 223.65,58.33 224.16,58.47C224.27,58.5 224.37,58.49 224.37,58.49C224.37,58.49 224.37,58.49 224.37,58.49C224.37,58.49 225.68,58.65 226.42,58.67C227.3,58.69 228.58,58.55 229.3,58.56C229.73,58.57 230,58.6 230.32,58.63C230.61,58.66 230.83,58.72 231.14,58.72C231.55,58.73 231.97,58.62 232.58,58.6C233.63,58.57 235.95,58.67 236.89,58.68C237.35,58.68 237.45,58.68 237.92,58.68C238.98,58.69 242.17,58.7 243.05,58.73C243.36,58.74 243.46,58.74 243.67,58.76C243.87,58.78 244.13,58.82 244.28,58.84C244.37,58.85 244.39,58.85 244.49,58.87C244.75,58.91 245.92,59.12 245.92,59.12C245.92,59.12 245.92,59.12 245.92,59.12C245.92,59.12 246.32,59.17 246.54,59.2C246.79,59.23 247.36,59.29 247.36,59.29C247.36,59.29 247.36,59.29 247.36,59.29C247.36,59.29 248.39,59.37 248.8,59.4C249.11,59.43 249.37,59.46 249.62,59.47C249.84,59.48 250,59.46 250.23,59.45C250.53,59.44 250.92,59.45 251.26,59.43C251.6,59.41 252.02,59.37 252.29,59.35C252.46,59.34 252.56,59.33 252.7,59.33C252.84,59.33 252.96,59.34 253.11,59.34C253.29,59.34 253.5,59.35 253.72,59.35C253.98,59.35 254.55,59.32 254.55,59.32C254.55,59.32 254.55,59.32 254.55,59.32C254.55,59.32 255.98,59.2 255.98,59.2C255.98,59.2 255.98,59.2 255.98,59.2C255.98,59.2 257.42,59.1 257.42,59.1C257.42,59.1 257.42,59.1 257.42,59.1C257.42,59.1 258.85,59.11 259.47,59.1C259.99,59.09 260.91,59.05 260.91,59.05C260.91,59.05 260.91,59.05 260.91,59.05C260.91,59.05 261.27,59.06 261.52,59.07C261.9,59.09 262.58,59.15 262.96,59.15C263.21,59.15 263.33,59.15 263.58,59.13C263.96,59.1 265.01,58.96 265.01,58.96C265.01,58.96 265.01,58.96 265.01,58.96C265.01,58.96 265.12,58.94 265.22,58.93C265.49,58.9 266.4,58.83 266.66,58.81C266.76,58.8 266.76,58.8 266.86,58.8C267.14,58.79 267.97,58.79 268.5,58.78C269,58.78 269.94,58.77 269.94,58.77C269.94,58.77 269.94,58.77 269.94,58.77C269.94,58.77 270.7,58.74 270.97,58.72C271.14,58.71 271.38,58.68 271.38,58.68C271.38,58.68 271.38,58.68 271.38,58.68C271.38,58.68 272.27,58.57 272.61,58.53C272.85,58.5 273.01,58.49 273.23,58.47C273.48,58.45 273.74,58.42 274.05,58.39C274.46,58.35 275.15,58.29 275.48,58.27C275.66,58.26 275.78,58.26 275.89,58.26C275.97,58.26 276.01,58.27 276.1,58.28C276.28,58.3 276.61,58.32 276.92,58.34C277.33,58.37 278.36,58.45 278.36,58.45C278.36,58.45 278.36,58.45 278.36,58.45Q278.36,58.45 280,58.45" style="vector-effect: none; fill: none; stroke: rgb(17, 17, 17); stroke-opacity: 1; stroke-width: 5px; opacity: 1;"/></g><g class="points"/><g class="text"/></g></g></g><g class="overplot"/><path class="xlines-above crisp" d="M0,0" style="fill: none;"/><path class="ylines-above crisp" d="M0,0" style="fill: none;"/><g class="overlines-above"/><g class="xaxislayer-above"/><g class="yaxislayer-above"/><g class="overaxes-above"/></g></g><g class="polarlayer"/><g class="smithlayer"/><g class="ternarylayer"/><g class="geolayer"/><g class="funnelarealayer"/><g class="pielayer"/><g class="iciclelayer"/><g class="treemaplayer"/><g class="sunburstlayer"/><g class="glimages"/><defs id="topdefs-a75a27"><g class="clips"/></defs><g class="layer-above"><g class="imagelayer"/><g class="shapelayer"/></g><g class="infolayer"><g class="g-gtitle"><text class="gtitle" x="15" y="25" text-anchor="start" dy="0em" style="font-family: Ubuntu, verdana, arial, sans-serif; font-size: 16px; fill: rgb(233, 84, 32); opacity: 1; font-weight: normal; white-space: pre;">Sněmovna volby 2025</text></g><g class="g-xtitle"/><g class="g-ytitle"/></g></svg>