<svg class="main-svg" xmlns="http://www.w3.org/2000/svg" xmlns:xlink="http://www.w3.org/1999/xlink" width="300" height="135" style="" viewBox="0 0 300 135"><rect x="0" y="0" width="300" height="135" style="fill: rgb(255, 255, 255); fill-opacity: 1;"/><defs id="defs-12032d"><g class="clips"><clipPath id="clip12032dxyplot" class="plotclip"><rect width="280" height="75"/></clipPath><clipPath class="axesclip" id="clip12032dx"><rect x="10" y="0" width="280" height="135"/></clipPath><clipPath class="axesclip" id="clip12032dy"><rect x="0" y="50" width="300" height="75"/></clipPath><clipPath class="axesclip" id="clip12032dxy"><rect x="10" y="50" width="280" height="75"/></clipPath></g><g class="gradients"/><g class="patterns"/></defs><g class="bglayer"/><g class="layer-below"><g class="imagelayer"/><g class="shapelayer"/></g><g class="cartesianlayer"><g class="subplot xy"><g class="layer-subplot"><g class="shapelayer"/><g class="imagelayer"/></g><g class="minor-gridlayer"><g class="x"/><g class="y"/></g><g class="gridlayer"><g class="x"><path class="xgrid crisp" transform="translate(29.52,0)" d="M0,50v75" style="stroke: rgb(235, 240, 248); stroke-opacity: 1; stroke-width: 1px;"/><path class="xgrid crisp" transform="translate(114.33,0)" d="M0,50v75" style="stroke: rgb(235, 240, 248); stroke-opacity: 1; stroke-width: 1px;"/><path class="xgrid crisp" transform="translate(199.15,0)" d="M0,50v75" style="stroke: rgb(235, 240, 248); stroke-opacity: 1; stroke-width: 1px;"/><path class="xgrid crisp" transform="translate(284.19,0)" d="M0,50v75" style="stroke: rgb(235, 240, 248); stroke-opacity: 1; stroke-width: 1px;"/></g><g class="y"><path class="ygrid crisp" transform="translate(0,104.41)" d="M10,0h280" style="stroke: rgb(235, 240, 248); stroke-opacity: 1; stroke-width: 1px;"/><path class="ygrid crisp" transform="translate(0,83.81)" d="M10,0h280" style="stroke: rgb(235, 240, 248); stroke-opacity: 1; stroke-width: 1px;"/><path class="ygrid crisp" transform="translate(0,63.22)" d="M10,0h280" style="stroke: rgb(235, 240, 248); stroke-opacity: 1; stroke-width: 1px;"/></g></g><g class="zerolinelayer"><path class="yzl zl crisp" transform="translate(0,125)" d="M10,0h280" style="stroke: rgb(235, 240, 248); stroke-opacity: 1; stroke-width: 2px;"/></g><path class="xlines-below"/><path class="ylines-below"/><g class="overlines-below"/><g class="xaxislayer-below"/><g class="yaxislayer-below"/><g class="overaxes-below"/><g class="plot" transform="translate(10,50)" clip-path="url(#clip12032dxyplot)"><g class="scatterlayer mlayer"><g class="trace scatter trace7a4092" style="stroke-miterlimit: 2; opacity: 1;"><g class="fills"/><g class="errorbars"/><g class="lines"><path class="js-line" d="M0,17.95Q4.3,20.34 7.44,20.12C13.28,19.71 26.23,9.63 31.83,9.09C34.63,8.82 36.21,10.13 38.34,10.62C40.39,11.09 42.41,11.03 44.38,11.96C46.69,13.06 49.57,16.66 51.12,17.26C51.8,17.52 52.1,17.2 52.75,17.38C53.85,17.68 55.24,18.77 56.93,19.47C59.35,20.48 63.52,21.97 65.99,22.54C67.63,22.92 69.01,22.99 70.17,23.06C70.99,23.11 71.6,23.14 72.27,23.05C72.91,22.96 73.45,22.61 74.12,22.53C74.9,22.44 75.83,22.7 76.68,22.64C77.54,22.58 78.52,22.36 79.24,22.17C79.78,22.02 80,21.82 80.63,21.67C81.89,21.37 84.97,21.42 86.44,21C87.42,20.72 87.73,19.94 88.76,19.9C90.71,19.82 93.87,22.68 97.36,23.12C102.4,23.76 115.14,20.73 116.41,21.06C116.57,21.1 116.51,21.17 116.65,21.23C117.26,21.49 120.57,22.07 121.99,22.17C122.92,22.24 123.42,22.03 124.32,22.09C125.56,22.17 127.49,22.66 128.73,22.83C129.62,22.95 130.15,22.86 131.05,23.06C132.39,23.36 134.79,24.41 135.93,24.8C136.54,25.01 137.06,25.2 137.33,25.26C137.44,25.28 137.43,25.26 137.56,25.29C138.25,25.44 141.86,26.98 144.07,27.21C146.27,27.44 148.22,26.58 150.8,26.7C154.35,26.87 161.26,28.46 163.35,28.86C164.05,29 164.41,29.09 164.75,29.16C164.94,29.2 164.97,29.23 165.21,29.26C166.1,29.35 170.02,29.15 171.49,29.21C172.29,29.24 172.64,29.3 173.34,29.37C174.27,29.47 175.55,29.75 176.6,29.77C177.57,29.79 178.85,29.52 179.39,29.56C179.61,29.58 179.69,29.65 179.85,29.67C180,29.69 180.08,29.66 180.32,29.66C181.07,29.68 183.16,29.87 184.96,29.95C187.48,30.06 193.17,30.22 194.02,30.2C194.16,30.2 194.18,30.19 194.26,30.18C194.34,30.17 194.36,30.14 194.49,30.13C195.12,30.07 198.99,30.34 200.07,30.33C200.51,30.33 200.55,30.31 201,30.28C202.16,30.2 206.6,29.85 207.27,29.76C207.4,29.74 207.39,29.73 207.5,29.72C207.8,29.68 208.45,29.57 209.13,29.57C210.24,29.57 212.14,30.04 213.54,29.99C214.84,29.95 216,29.43 217.26,29.39C218.55,29.35 219.78,29.65 221.21,29.79C222.91,29.96 225.71,30.24 226.79,30.34C227.23,30.38 227.72,30.42 227.72,30.42C227.72,30.42 227.72,30.42 227.72,30.42C227.72,30.42 231.73,31.61 233.06,31.87C233.83,32.02 234.17,32.02 234.92,32.1C236.08,32.22 237.7,32.28 239.34,32.5C241.41,32.78 245.21,33.37 246.31,33.75C246.68,33.88 246.7,34.03 247,34.12C247.5,34.27 248.26,34.31 249.1,34.31C250.34,34.32 253.17,33.92 253.74,33.93C253.87,33.93 253.98,33.96 253.98,33.96C253.98,33.96 253.98,33.96 253.98,33.96C253.98,33.96 255.46,34.13 256.3,34.21C257.29,34.3 258.74,34.34 259.55,34.48C260.04,34.57 260.35,34.68 260.71,34.8C261.04,34.91 261.28,35.07 261.64,35.18C262.1,35.32 262.58,35.38 263.27,35.5C264.46,35.71 267.08,36.15 268.15,36.3C268.67,36.37 268.77,36.39 269.31,36.43C270.51,36.52 274.12,36.63 275.12,36.66C275.47,36.67 275.59,36.67 275.82,36.67C276.05,36.67 276.34,36.68 276.51,36.66C276.61,36.65 276.63,36.64 276.75,36.62C277.05,36.57 277.94,36.4 278.37,36.32C278.65,36.27 278.82,36.24 279.07,36.19C279.36,36.13 280,36 280,36Q280,36 280,36" style="vector-effect: none; fill: none; stroke: rgb(0, 68, 148); stroke-opacity: 1; stroke-width: 5px; opacity: 1;"/></g><g class="points"/><g class="text"/></g><g class="trace scatter trace93016d" style="stroke-miterlimit: 2; opacity: 1;"><g class="fills"/><g class="errorbars"/><g class="lines"><path class="js-line" d="M0,19.19Q4.25,19.25 7.44,19.41C13.23,19.7 26.34,21.83 31.83,21.1C34.74,20.71 36.19,19.39 38.34,18.84C40.37,18.32 42.31,18.17 44.38,17.8C46.57,17.41 49.64,16.77 51.12,16.56C51.85,16.46 52.08,16.49 52.75,16.39C53.82,16.22 55.27,15.87 56.93,15.52C59.37,15 63.54,13.96 65.99,13.58C67.64,13.33 69.01,13.19 70.17,13.18C70.99,13.17 71.59,13.32 72.27,13.33C72.91,13.34 73.45,13.25 74.12,13.23C74.9,13.21 75.83,13.24 76.68,13.25C77.53,13.26 78.52,13.25 79.24,13.29C79.77,13.32 80.01,13.37 80.63,13.41C81.9,13.5 84.96,13.37 86.44,13.69C87.41,13.9 87.72,14.52 88.76,14.61C90.7,14.78 93.92,13.4 97.36,12.84C102.45,12.01 115.13,10.86 116.41,10.57C116.56,10.54 116.52,10.53 116.65,10.49C117.27,10.32 120.58,9.33 121.99,9.35C122.93,9.36 123.41,9.84 124.32,9.9C125.55,9.98 127.5,9.64 128.73,9.45C129.63,9.31 130.15,9.25 131.05,8.97C132.4,8.54 134.78,7.21 135.93,6.86C136.52,6.68 137.06,6.64 137.33,6.6C137.44,6.58 137.43,6.59 137.56,6.57C138.25,6.46 141.88,5.43 144.07,5.37C146.29,5.31 148.2,6.02 150.8,6.26C154.33,6.59 161.27,7.17 163.35,6.93C164.06,6.85 164.41,6.6 164.75,6.52C164.94,6.48 164.97,6.49 165.21,6.45C166.1,6.32 170.01,5.64 171.49,5.57C172.29,5.53 172.64,5.67 173.34,5.65C174.27,5.63 175.56,5.47 176.6,5.34C177.57,5.22 178.85,4.98 179.39,4.92C179.61,4.89 179.7,4.89 179.85,4.88C180.01,4.87 180.08,4.87 180.32,4.87C181.07,4.85 183.16,4.7 184.96,4.78C187.48,4.9 193.17,5.73 194.02,5.8C194.16,5.81 194.18,5.82 194.26,5.81C194.34,5.8 194.36,5.78 194.49,5.77C195.12,5.7 199,5.77 200.07,5.56C200.52,5.47 200.55,5.25 201,5.22C202.16,5.14 206.6,6.46 207.27,6.54C207.4,6.56 207.39,6.55 207.5,6.55C207.8,6.56 208.46,6.48 209.13,6.54C210.24,6.63 212.13,7.08 213.54,7.3C214.83,7.5 216,7.71 217.26,7.83C218.55,7.96 219.78,7.93 221.21,8.05C222.91,8.19 225.71,8.54 226.79,8.69C227.23,8.75 227.72,8.85 227.72,8.85C227.72,8.85 227.72,8.85 227.72,8.85C227.72,8.85 231.74,10.07 233.06,10.1C233.84,10.12 234.16,9.83 234.92,9.75C236.08,9.63 237.72,9.93 239.34,9.65C241.42,9.29 245.19,7.61 246.31,7.34C246.65,7.26 246.71,7.29 247,7.23C247.51,7.13 248.26,6.93 249.1,6.75C250.34,6.48 253.17,5.86 253.74,5.8C253.87,5.79 253.98,5.8 253.98,5.8C253.98,5.8 253.98,5.8 253.98,5.8C253.98,5.8 255.46,5.53 256.3,5.35C257.29,5.14 258.74,4.69 259.55,4.6C260.03,4.55 260.34,4.62 260.71,4.62C261.04,4.62 261.29,4.59 261.64,4.6C262.11,4.61 262.58,4.69 263.27,4.73C264.46,4.79 267.08,4.86 268.15,4.87C268.67,4.87 268.78,4.87 269.31,4.85C270.51,4.8 274.12,4.55 275.12,4.48C275.47,4.46 275.59,4.45 275.82,4.43C276.05,4.42 276.34,4.41 276.51,4.39C276.61,4.38 276.63,4.36 276.75,4.34C277.05,4.28 277.94,4.13 278.37,4.06C278.65,4.02 278.82,4.01 279.07,3.96C279.36,3.91 280,3.75 280,3.75Q280,3.75 280,3.75" style="vector-effect: none; fill: none; stroke: rgb(38, 16, 96); stroke-opacity: 1; stroke-width: 5px; opacity: 1;"/></g><g class="points"/><g class="text"/></g><g class="trace scatter trace8b3ceb" style="stroke-miterlimit: 2; opacity: 1;"><g class="fills"/><g class="errorbars"/><g class="lines"><path class="js-line" d="M0,55.23Q4.25,55.45 7.44,55.27C13.23,54.95 26.29,52.34 31.83,52.4C34.69,52.43 36.21,53.35 38.34,53.32C40.39,53.29 42.31,52.6 44.38,52.29C46.56,51.96 49.64,51.57 51.12,51.42C51.85,51.34 52.08,51.38 52.75,51.29C53.82,51.14 55.26,50.71 56.93,50.47C59.37,50.12 63.54,49.78 65.99,49.64C67.65,49.54 69.01,49.59 70.17,49.53C70.99,49.49 71.59,49.35 72.27,49.36C72.91,49.37 73.45,49.57 74.12,49.59C74.9,49.62 75.83,49.4 76.68,49.46C77.54,49.52 78.51,49.86 79.24,49.98C79.77,50.07 80.01,50.09 80.63,50.15C81.9,50.27 84.94,50.43 86.44,50.58C87.39,50.67 87.74,50.8 88.76,50.86C90.72,50.97 93.97,50.3 97.36,50.76C102.51,51.46 115.13,56.1 116.41,56.25C116.55,56.27 116.52,56.24 116.65,56.24C117.27,56.24 120.58,56.24 121.99,56.38C122.93,56.47 123.42,56.68 124.32,56.77C125.55,56.89 127.49,56.89 128.73,56.9C129.63,56.91 130.13,56.86 131.05,56.86C132.38,56.86 134.8,56.93 135.93,56.92C136.54,56.92 137.06,56.89 137.33,56.89C137.44,56.89 137.43,56.9 137.56,56.9C138.25,56.88 141.88,56.28 144.07,56.22C146.29,56.16 148.22,56.73 150.8,56.58C154.35,56.38 161.25,54.56 163.35,54.44C164.05,54.4 164.41,54.51 164.75,54.52C164.94,54.53 164.97,54.53 165.21,54.52C166.1,54.49 170.02,54.17 171.49,54.11C172.29,54.08 172.64,54.08 173.34,54.09C174.27,54.1 175.56,54.06 176.6,54.2C177.57,54.33 178.85,54.76 179.39,54.85C179.61,54.88 179.7,54.88 179.85,54.89C180.01,54.91 180.08,54.92 180.32,54.94C181.07,55 183.16,55.18 184.96,55.23C187.48,55.3 193.17,55.15 194.02,55.16C194.16,55.16 194.18,55.16 194.26,55.17C194.34,55.18 194.36,55.19 194.49,55.21C195.12,55.31 198.99,55.85 200.07,56.02C200.51,56.09 200.55,56.1 201,56.18C202.16,56.38 206.6,57.22 207.27,57.26C207.4,57.27 207.39,57.25 207.5,57.25C207.8,57.25 208.45,57.31 209.13,57.31C210.24,57.31 212.14,57.07 213.54,57.15C214.84,57.22 216.01,57.46 217.26,57.7C218.56,57.95 219.77,58.37 221.21,58.66C222.9,59 225.71,59.42 226.79,59.56C227.23,59.62 227.72,59.65 227.72,59.65C227.72,59.65 227.72,59.65 227.72,59.65C227.72,59.65 231.74,59.93 233.06,59.96C233.84,59.98 234.17,59.92 234.92,59.95C236.08,60 237.7,60.34 239.34,60.38C241.4,60.43 245.2,60.05 246.31,60.01C246.66,60 246.71,60 247,60C247.51,60 248.26,60.04 249.1,60.05C250.34,60.06 253.17,60.06 253.74,60.03C253.87,60.02 253.98,60.01 253.98,60.01C253.98,60.01 253.98,60.01 253.98,60.01C253.98,60.01 255.46,60.29 256.3,60.33C257.29,60.37 258.74,60.21 259.55,60.17C260.03,60.14 260.34,60.1 260.71,60.1C261.04,60.1 261.29,60.15 261.64,60.18C262.11,60.22 262.58,60.26 263.27,60.29C264.46,60.34 267.08,60.32 268.15,60.37C268.67,60.4 268.78,60.48 269.31,60.47C270.51,60.44 274.12,59.74 275.12,59.64C275.47,59.61 275.59,59.61 275.82,59.6C276.05,59.59 276.34,59.6 276.51,59.6C276.61,59.6 276.63,59.59 276.75,59.59C277.05,59.59 277.94,59.61 278.37,59.65C278.65,59.68 278.82,59.72 279.07,59.75C279.36,59.78 280,59.82 280,59.82Q280,59.82 280,59.82" style="vector-effect: none; fill: none; stroke: rgb(234, 35, 41); stroke-opacity: 1; stroke-width: 5px; opacity: 1;"/></g><g class="points"/><g class="text"/></g><g class="trace scatter trace0031a8" style="stroke-miterlimit: 2; opacity: 1;"><g class="fills"/><g class="errorbars"/><g class="lines"><path class="js-line" d="M0,67.59Q4.25,67.62 7.44,67.84C13.23,68.24 26.29,70.27 31.83,70.43C34.69,70.51 36.21,70.16 38.34,70.11C40.39,70.06 42.31,70.19 44.38,70.1C46.57,70.01 49.64,69.6 51.12,69.54C51.85,69.51 52.08,69.56 52.75,69.55C53.82,69.54 55.27,69.47 56.93,69.45C59.37,69.42 63.55,69.46 65.99,69.42C67.65,69.39 69.01,69.27 70.17,69.29C70.99,69.3 71.59,69.34 72.27,69.41C72.91,69.48 73.45,69.64 74.12,69.69C74.9,69.75 75.83,69.58 76.68,69.69C77.54,69.8 78.51,70.24 79.24,70.34C79.77,70.41 80.01,70.36 80.63,70.36C81.9,70.35 84.94,70.29 86.44,70.19C87.39,70.13 87.75,70.1 88.76,69.95C90.72,69.65 93.91,68.51 97.36,68.25C102.45,67.87 115.13,69.14 116.41,69.09C116.55,69.08 116.52,69.07 116.65,69.06C117.27,69.01 120.57,68.93 121.99,68.89C122.93,68.87 123.42,68.89 124.32,68.84C125.56,68.77 127.49,68.45 128.73,68.41C129.63,68.38 130.14,68.5 131.05,68.48C132.38,68.46 134.79,68.21 135.93,68.15C136.54,68.12 137.06,68.1 137.33,68.1C137.44,68.1 137.43,68.1 137.56,68.11C138.25,68.15 141.88,68.56 144.07,68.61C146.29,68.66 148.21,68.55 150.8,68.41C154.34,68.22 161.25,67.43 163.35,67.41C164.05,67.4 164.41,67.45 164.75,67.49C164.95,67.51 164.97,67.53 165.21,67.56C166.1,67.67 170.02,68.03 171.49,68.11C172.29,68.16 172.64,68.13 173.34,68.16C174.27,68.19 175.56,68.28 176.6,68.31C177.57,68.34 178.85,68.33 179.39,68.35C179.61,68.36 179.7,68.37 179.85,68.37C180.01,68.37 180.08,68.37 180.32,68.35C181.07,68.28 183.15,67.83 184.96,67.63C187.47,67.36 193.17,67.04 194.02,67.05C194.16,67.05 194.18,67.06 194.26,67.07C194.34,67.08 194.36,67.09 194.49,67.1C195.12,67.16 198.99,67.32 200.07,67.39C200.51,67.42 200.55,67.46 201,67.47C202.16,67.49 206.6,67.14 207.27,67.12C207.4,67.12 207.39,67.11 207.5,67.12C207.8,67.14 208.45,67.26 209.13,67.31C210.24,67.39 212.13,67.42 213.54,67.46C214.83,67.49 216,67.6 217.26,67.52C218.56,67.43 219.78,67.12 221.21,66.93C222.91,66.7 225.71,66.32 226.79,66.26C227.23,66.23 227.72,66.26 227.72,66.26C227.72,66.26 227.72,66.26 227.72,66.26C227.72,66.26 231.74,65.66 233.06,65.57C233.84,65.52 234.17,65.6 234.92,65.56C236.08,65.51 237.7,65.21 239.34,65.17C241.4,65.12 245.2,65.41 246.31,65.44C246.66,65.45 246.71,65.45 247,65.45C247.51,65.45 248.26,65.46 249.1,65.46C250.34,65.46 253.17,65.46 253.74,65.42C253.87,65.41 253.98,65.39 253.98,65.39C253.98,65.39 253.98,65.39 253.98,65.39C253.98,65.39 255.46,65.24 256.3,65.16C257.29,65.07 258.74,65.01 259.55,64.89C260.04,64.82 260.34,64.72 260.71,64.65C261.04,64.59 261.29,64.55 261.64,64.5C262.11,64.44 262.58,64.36 263.27,64.33C264.46,64.27 267.08,64.35 268.15,64.36C268.67,64.36 268.78,64.37 269.31,64.37C270.51,64.37 274.12,64.35 275.12,64.35C275.47,64.35 275.59,64.35 275.82,64.35C276.05,64.35 276.34,64.34 276.51,64.34C276.61,64.34 276.63,64.34 276.75,64.34C277.05,64.33 277.94,64.29 278.37,64.28C278.65,64.27 278.82,64.3 279.07,64.28C279.36,64.26 280,64.16 280,64.16Q280,64.16 280,64.16" style="vector-effect: none; fill: none; stroke: rgb(140, 0, 0); stroke-opacity: 1; stroke-width: 5px; opacity: 1;"/></g><g class="points"/><g class="text"/></g><g class="trace scatter trace5557d3" style="stroke-miterlimit: 2; opacity: 1;"><g class="fills"/><g class="errorbars"/><g class="lines"><path class="js-line" d="M0,62.44Q3.52,53.78 7.44,51.94C12.84,49.4 26.31,52.96 31.83,53.77C34.71,54.19 36.21,54.71 38.34,55.21C40.39,55.7 42.34,56.04 44.38,56.73C46.59,57.47 49.64,58.93 51.12,59.6C51.85,59.93 52.08,60.09 52.75,60.39C53.82,60.86 55.24,61.63 56.93,62.09C59.34,62.74 63.54,63.12 65.99,63.37C67.65,63.54 69.01,63.56 70.17,63.62C70.99,63.66 71.59,63.74 72.27,63.7C72.91,63.66 73.45,63.48 74.12,63.41C74.9,63.33 75.83,63.38 76.68,63.31C77.53,63.24 78.52,63.09 79.24,62.98C79.77,62.9 80,62.78 80.63,62.73C81.9,62.63 84.94,62.88 86.44,62.87C87.39,62.86 87.74,62.83 88.76,62.77C90.72,62.66 93.93,62.4 97.36,62.15C102.46,61.79 115.13,60.85 116.41,60.8C116.55,60.79 116.52,60.8 116.65,60.8C117.27,60.81 120.58,60.76 121.99,60.91C122.93,61.01 123.42,61.27 124.32,61.37C125.55,61.5 127.5,61.34 128.73,61.44C129.63,61.51 130.13,61.67 131.05,61.77C132.38,61.92 134.79,62.11 135.93,62.18C136.54,62.22 137.06,62.24 137.33,62.24C137.44,62.24 137.43,62.23 137.56,62.23C138.25,62.23 141.88,62.56 144.07,62.54C146.3,62.52 148.21,62.2 150.8,62.09C154.34,61.94 161.26,62.06 163.35,61.89C164.05,61.83 164.41,61.73 164.75,61.68C164.94,61.65 164.97,61.64 165.21,61.62C166.1,61.56 170.02,61.67 171.49,61.63C172.29,61.61 172.64,61.55 173.34,61.53C174.27,61.5 175.56,61.54 176.6,61.53C177.57,61.52 178.85,61.51 179.39,61.49C179.61,61.48 179.7,61.47 179.85,61.46C180.01,61.45 180.08,61.45 180.32,61.44C181.07,61.41 183.16,61.37 184.96,61.28C187.48,61.15 193.17,60.7 194.02,60.65C194.16,60.64 194.18,60.64 194.26,60.64C194.34,60.64 194.36,60.64 194.49,60.63C195.12,60.58 198.99,60.01 200.07,60.01C200.51,60.01 200.55,60.07 201,60.11C202.16,60.22 206.6,60.62 207.27,60.63C207.4,60.63 207.39,60.63 207.5,60.62C207.8,60.6 208.46,60.57 209.13,60.47C210.24,60.31 212.13,59.86 213.54,59.62C214.83,59.4 216,59.29 217.26,59.09C218.56,58.88 219.78,58.58 221.21,58.38C222.91,58.14 225.72,57.99 226.79,57.8C227.23,57.72 227.72,57.57 227.72,57.57C227.72,57.57 227.72,57.57 227.72,57.57C227.72,57.57 231.73,56.59 233.06,56.38C233.84,56.26 234.17,56.28 234.92,56.2C236.08,56.07 237.7,55.82 239.34,55.64C241.4,55.42 245.21,55.25 246.31,55C246.67,54.92 246.71,54.86 247,54.75C247.51,54.55 248.25,54.19 249.1,53.9C250.33,53.48 253.16,52.71 253.74,52.62C253.87,52.6 253.98,52.61 253.98,52.61C253.98,52.61 253.98,52.61 253.98,52.61C253.98,52.61 255.46,52.66 256.3,52.7C257.29,52.75 258.74,52.8 259.55,52.87C260.04,52.91 260.34,53 260.71,53.01C261.04,53.02 261.29,52.96 261.64,52.94C262.11,52.91 262.58,52.92 263.27,52.86C264.46,52.75 267.08,52.34 268.15,52.2C268.67,52.13 268.77,52.08 269.31,52.06C270.51,52.02 274.12,52.4 275.12,52.38C275.47,52.37 275.59,52.35 275.82,52.32C276.05,52.29 276.34,52.23 276.51,52.21C276.61,52.2 276.63,52.21 276.75,52.2C277.05,52.18 277.94,52.14 278.37,52.1C278.65,52.08 278.82,52.03 279.07,52.02C279.36,52 280,52.02 280,52.02Q280,52.02 280,52.02" style="vector-effect: none; fill: none; stroke: rgb(206, 15, 104); stroke-opacity: 1; stroke-width: 5px; opacity: 1;"/></g><g class="points"/><g class="text"/></g></g></g><g class="overplot"/><path class="xlines-above crisp" d="M0,0" style="fill: none;"/><path class="ylines-above crisp" d="M0,0" style="fill: none;"/><g class="overlines-above"/><g class="xaxislayer-above"/><g class="yaxislayer-above"/><g class="overaxes-above"/></g></g><g class="polarlayer"/><g class="smithlayer"/><g class="ternarylayer"/><g class="geolayer"/><g class="funnelarealayer"/><g class="pielayer"/><g class="iciclelayer"/><g class="treemaplayer"/><g class="sunburstlayer"/><g class="glimages"/><defs id="topdefs-12032d"><g class="clips"/></defs><g class="layer-above"><g class="imagelayer"/><g class="shapelayer"/></g><g class="infolayer"><g class="g-gtitle"><text class="gtitle" x="15" y="25" text-anchor="start" dy="0em" style="font-family: Ubuntu, verdana, arial, sans-serif; font-size: 16px; fill: rgb(233, 84, 32); opacity: 1; font-weight: normal; white-space: pre;">Sněmovna 2021-2025</text></g><g class="g-xtitle"/><g class="g-ytitle"/></g></svg>