<svg class="main-svg" xmlns="http://www.w3.org/2000/svg" xmlns:xlink="http://www.w3.org/1999/xlink" width="1200" height="600" style="" viewBox="0 0 1200 600"><rect x="0" y="0" width="1200" height="600" style="fill: rgb(255, 255, 255); fill-opacity: 1;"/><defs id="defs-485201"><g class="clips"><clipPath id="clip485201xyplot" class="plotclip"><rect width="995" height="530"/></clipPath><clipPath class="axesclip" id="clip485201x"><rect x="50" y="0" width="995" height="600"/></clipPath><clipPath class="axesclip" id="clip485201y"><rect x="0" y="20" width="1200" height="530"/></clipPath><clipPath class="axesclip" id="clip485201xy"><rect x="50" y="20" width="995" height="530"/></clipPath></g><g class="gradients"/><g class="patterns"/></defs><g class="bglayer"/><g class="layer-below"><g class="imagelayer"/><g class="shapelayer"/></g><g class="cartesianlayer"><g class="subplot xy"><g class="layer-subplot"><g class="shapelayer"/><g class="imagelayer"/></g><g class="minor-gridlayer"><g class="x"/><g class="y"/></g><g class="gridlayer"><g class="x"><path class="xgrid crisp" transform="translate(107.52000000000001,0)" d="M0,20v530" style="stroke: rgb(235, 240, 248); stroke-opacity: 1; stroke-width: 1px;"/><path class="xgrid crisp" transform="translate(231.47,0)" d="M0,20v530" style="stroke: rgb(235, 240, 248); stroke-opacity: 1; stroke-width: 1px;"/><path class="xgrid crisp" transform="translate(357.47,0)" d="M0,20v530" style="stroke: rgb(235, 240, 248); stroke-opacity: 1; stroke-width: 1px;"/><path class="xgrid crisp" transform="translate(481.42,0)" d="M0,20v530" style="stroke: rgb(235, 240, 248); stroke-opacity: 1; stroke-width: 1px;"/><path class="xgrid crisp" transform="translate(607.42,0)" d="M0,20v530" style="stroke: rgb(235, 240, 248); stroke-opacity: 1; stroke-width: 1px;"/><path class="xgrid crisp" transform="translate(732.05,0)" d="M0,20v530" style="stroke: rgb(235, 240, 248); stroke-opacity: 1; stroke-width: 1px;"/><path class="xgrid crisp" transform="translate(858.05,0)" d="M0,20v530" style="stroke: rgb(235, 240, 248); stroke-opacity: 1; stroke-width: 1px;"/><path class="xgrid crisp" transform="translate(982,0)" d="M0,20v530" style="stroke: rgb(235, 240, 248); stroke-opacity: 1; stroke-width: 1px;"/></g><g class="y"><path class="ygrid crisp" transform="translate(0,479.68)" d="M50,0h995" style="stroke: rgb(235, 240, 248); stroke-opacity: 1; stroke-width: 1px;"/><path class="ygrid crisp" transform="translate(0,409.36)" d="M50,0h995" style="stroke: rgb(235, 240, 248); stroke-opacity: 1; stroke-width: 1px;"/><path class="ygrid crisp" transform="translate(0,339.03)" d="M50,0h995" style="stroke: rgb(235, 240, 248); stroke-opacity: 1; stroke-width: 1px;"/><path class="ygrid crisp" transform="translate(0,268.71000000000004)" d="M50,0h995" style="stroke: rgb(235, 240, 248); stroke-opacity: 1; stroke-width: 1px;"/><path class="ygrid crisp" transform="translate(0,198.39)" d="M50,0h995" style="stroke: rgb(235, 240, 248); stroke-opacity: 1; stroke-width: 1px;"/><path class="ygrid crisp" transform="translate(0,128.07)" d="M50,0h995" style="stroke: rgb(235, 240, 248); stroke-opacity: 1; stroke-width: 1px;"/><path class="ygrid crisp" transform="translate(0,57.75)" d="M50,0h995" style="stroke: rgb(235, 240, 248); stroke-opacity: 1; stroke-width: 1px;"/></g></g><g class="zerolinelayer"><path class="yzl zl crisp" transform="translate(0,550)" d="M50,0h995" style="stroke: rgb(235, 240, 248); stroke-opacity: 1; stroke-width: 2px;"/></g><path class="xlines-below"/><path class="ylines-below"/><g class="overlines-below"/><g class="xaxislayer-below"/><g class="yaxislayer-below"/><g class="overaxes-below"/><g class="plot" transform="translate(50,20)" clip-path="url(#clip485201xyplot)"><g class="scatterlayer mlayer"><g class="trace scatter tracec68803" style="stroke-miterlimit: 2; opacity: 1;"><g class="fills"><g><path class="js-fill" d="M0,74.35Q12.51,75.78 21.91,77C38.97,79.22 77.97,90.87 93.82,86.99C102.84,84.78 106.52,76.96 112.99,73.34C118.86,70.06 124.74,68.57 130.79,65.79C137.27,62.82 146.22,56.52 150.65,55.97C152.74,55.71 153.58,57.39 155.45,57.01C158.73,56.34 162.83,51.6 167.77,48.29C174.92,43.49 187.13,35.07 194.48,31.34C199.24,28.92 202.69,27.16 206.81,26.5C210.68,25.88 215.41,23.96 218.45,27.18C229.42,38.81 229.42,168.88 218.45,179.23C215.41,182.1 210.68,177.94 206.81,178.55C202.69,179.2 199.24,180.97 194.48,183.38C187.13,187.11 175.11,196.53 167.77,200.34C163,202.82 158.64,205.16 155.45,205.44C153.51,205.61 152.74,204.13 150.65,204.39C146.22,204.93 137.27,211.24 130.79,214.22C124.74,217 118.86,218.49 112.99,221.77C106.52,225.39 102.82,233.45 93.82,235.42C77.96,238.9 39.01,223.02 21.91,221.8Q12.55,221.13 0,222.78Z" style="fill: rgb(38, 16, 96); fill-opacity: 0.05; stroke-width: 0;"/></g></g><g class="errorbars"/><g class="lines"><path class="js-line" d="M0,74.35Q12.51,75.78 21.91,77C38.97,79.22 77.97,90.87 93.82,86.99C102.84,84.78 106.52,76.96 112.99,73.34C118.86,70.06 124.74,68.57 130.79,65.79C137.27,62.82 146.22,56.52 150.65,55.97C152.74,55.71 153.58,57.39 155.45,57.01C158.73,56.34 162.83,51.6 167.77,48.29C174.92,43.49 187.13,35.07 194.48,31.34C199.24,28.92 202.69,27.16 206.81,26.5C210.68,25.88 215.41,23.96 218.45,27.18C229.42,38.81 229.42,168.88 218.45,179.23C215.41,182.1 210.68,177.94 206.81,178.55C202.69,179.2 199.24,180.97 194.48,183.38C187.13,187.11 175.11,196.53 167.77,200.34C163,202.82 158.64,205.16 155.45,205.44C153.51,205.61 152.74,204.13 150.65,204.39C146.22,204.93 137.27,211.24 130.79,214.22C124.74,217 118.86,218.49 112.99,221.77C106.52,225.39 102.82,233.45 93.82,235.42C77.96,238.9 39.01,223.02 21.91,221.8Q12.55,221.13 0,222.78" style="vector-effect: non-scaling-stroke; fill: none; stroke: rgb(255, 255, 255); stroke-opacity: 0; stroke-width: 2px; opacity: 1;"/></g><g class="points"/><g class="text"/></g><g class="trace scatter trace0eb0fe" style="stroke-miterlimit: 2; opacity: 1;"><g class="fills"><g><path class="js-fill" d="M0,273.35Q13.24,264.88 21.91,255.86C39.95,237.09 75.93,172.57 93.82,158.13C101.26,152.12 106.58,151.25 112.99,149.52C118.91,147.92 125.56,144.7 130.79,147.65C139.23,152.4 145.27,186.21 150.65,189.74C152.38,190.87 153.74,188.96 155.45,189.89C159.07,191.85 162.41,201.59 167.77,207.52C174.63,215.11 186.81,227.35 194.48,230.53C199.02,232.41 203.09,232.97 206.81,231.45C211.25,229.64 215.62,217.17 218.45,218.24C226.03,221.1 226.81,327.22 218.45,344.94C215.57,351.05 211.04,353.19 206.81,354.53C202.98,355.75 199.17,355.09 194.48,353.62C187.04,351.29 174.51,344.09 167.77,337.85C162.16,332.65 159.07,322.18 155.45,320.22C153.74,319.29 152.43,321.14 150.65,320.07C145.51,316.98 138.77,289.3 130.79,285.21C125.46,282.48 118.91,285.48 112.99,287.08C106.58,288.81 101.5,290.1 93.82,295.7C76.46,308.34 39.77,360.26 21.91,375.32Q13.13,382.72 0,389.2Z" style="fill: rgb(0, 68, 148); fill-opacity: 0.05; stroke-width: 0;"/></g></g><g class="errorbars"/><g class="lines"><path class="js-line" d="M0,273.35Q13.24,264.88 21.91,255.86C39.95,237.09 75.93,172.57 93.82,158.13C101.26,152.12 106.58,151.25 112.99,149.52C118.91,147.92 125.56,144.7 130.79,147.65C139.23,152.4 145.27,186.21 150.65,189.74C152.38,190.87 153.74,188.96 155.45,189.89C159.07,191.85 162.41,201.59 167.77,207.52C174.63,215.11 186.81,227.35 194.48,230.53C199.02,232.41 203.09,232.97 206.81,231.45C211.25,229.64 215.62,217.17 218.45,218.24C226.03,221.1 226.81,327.22 218.45,344.94C215.57,351.05 211.04,353.19 206.81,354.53C202.98,355.75 199.17,355.09 194.48,353.62C187.04,351.29 174.51,344.09 167.77,337.85C162.16,332.65 159.07,322.18 155.45,320.22C153.74,319.29 152.43,321.14 150.65,320.07C145.51,316.98 138.77,289.3 130.79,285.21C125.46,282.48 118.91,285.48 112.99,287.08C106.58,288.81 101.5,290.1 93.82,295.7C76.46,308.34 39.77,360.26 21.91,375.32Q13.13,382.72 0,389.2" style="vector-effect: non-scaling-stroke; fill: none; stroke: rgb(255, 255, 255); stroke-opacity: 0; stroke-width: 2px; opacity: 1;"/></g><g class="points"/><g class="text"/></g><g class="trace scatter tracebc8c6d" style="stroke-miterlimit: 2; opacity: 1;"><g class="fills"><g><path class="js-fill" d="M0,346.34Q12.65,347.7 21.91,346.16C39.13,343.29 77.57,321.6 93.82,322.19C102.32,322.5 106.73,330.21 112.99,330.17C119.04,330.14 124.61,324.65 130.79,322.52C137.15,320.32 146.37,319.08 150.65,317.25C152.89,316.3 153.45,315.42 155.45,314.33C158.57,312.64 162.72,309.66 167.77,308.43C174.83,306.71 187.28,307.4 194.48,307.59C199.38,307.72 202.8,307.86 206.81,308.63C210.79,309.39 215.54,308.25 218.45,312.17C227.14,323.89 227.13,414.35 218.45,420.78C215.54,422.93 210.79,417.99 206.81,417.23C202.8,416.46 199.38,416.33 194.48,416.2C187.28,416.01 174.83,415.31 167.77,417.03C162.72,418.26 158.67,422.45 155.45,422.94C153.53,423.23 152.78,422.11 150.65,422.23C146.27,422.48 137.24,425.92 130.79,427.51C124.71,429.01 119.03,431.54 112.99,431.54C106.72,431.54 102.25,427.15 93.82,427.17C77.49,427.21 39.04,441.87 21.91,443.91Q12.58,445.02 0,444.09Z" style="fill: rgb(234, 35, 41); fill-opacity: 0.05; stroke-width: 0;"/></g></g><g class="errorbars"/><g class="lines"><path class="js-line" d="M0,346.34Q12.65,347.7 21.91,346.16C39.13,343.29 77.57,321.6 93.82,322.19C102.32,322.5 106.73,330.21 112.99,330.17C119.04,330.14 124.61,324.65 130.79,322.52C137.15,320.32 146.37,319.08 150.65,317.25C152.89,316.3 153.45,315.42 155.45,314.33C158.57,312.64 162.72,309.66 167.77,308.43C174.83,306.71 187.28,307.4 194.48,307.59C199.38,307.72 202.8,307.86 206.81,308.63C210.79,309.39 215.54,308.25 218.45,312.17C227.14,323.89 227.13,414.35 218.45,420.78C215.54,422.93 210.79,417.99 206.81,417.23C202.8,416.46 199.38,416.33 194.48,416.2C187.28,416.01 174.83,415.31 167.77,417.03C162.72,418.26 158.67,422.45 155.45,422.94C153.53,423.23 152.78,422.11 150.65,422.23C146.27,422.48 137.24,425.92 130.79,427.51C124.71,429.01 119.03,431.54 112.99,431.54C106.72,431.54 102.25,427.15 93.82,427.17C77.49,427.21 39.04,441.87 21.91,443.91Q12.58,445.02 0,444.09" style="vector-effect: non-scaling-stroke; fill: none; stroke: rgb(255, 255, 255); stroke-opacity: 0; stroke-width: 2px; opacity: 1;"/></g><g class="points"/><g class="text"/></g><g class="trace scatter trace01192f" style="stroke-miterlimit: 2; opacity: 1;"><g class="fills"><g><path class="js-fill" d="M0,353.81Q12.21,361.52 21.91,365.05C38.7,371.16 77.45,378.5 93.82,381.4C102.2,382.88 106.71,383.19 112.99,383.85C119.03,384.48 125.3,387.75 130.79,385.31C138.22,382.02 146.11,364.25 150.65,359.39C152.66,357.24 153.54,357.04 155.45,355.16C158.68,351.99 162.19,344.06 167.77,341.64C174.52,338.72 187.42,340.36 194.48,342.01C199.53,343.19 202.79,345.83 206.81,347.91C210.78,349.97 215.63,349.61 218.45,354.41C225.94,367.17 226.46,442.25 218.45,448.53C215.59,450.77 210.68,447.04 206.81,445.66C202.68,444.18 199.53,440.94 194.48,439.76C187.42,438.11 174.66,437.02 167.77,439.39C162.47,441.21 158.58,446.64 155.45,449.28C153.46,450.96 152.78,451.58 150.65,453.52C146.27,457.52 137.73,470.5 130.79,472.19C125.07,473.58 119.09,467.78 112.99,467.12C106.77,466.44 102.23,468.56 93.82,468.28C77.48,467.74 38.65,464.35 21.91,459.17Q12.15,456.15 0,447.93Z" style="fill: rgb(0, 0, 0); fill-opacity: 0.05; stroke-width: 0;"/></g></g><g class="errorbars"/><g class="lines"><path class="js-line" d="M0,353.81Q12.21,361.52 21.91,365.05C38.7,371.16 77.45,378.5 93.82,381.4C102.2,382.88 106.71,383.19 112.99,383.85C119.03,384.48 125.3,387.75 130.79,385.31C138.22,382.02 146.11,364.25 150.65,359.39C152.66,357.24 153.54,357.04 155.45,355.16C158.68,351.99 162.19,344.06 167.77,341.64C174.52,338.72 187.42,340.36 194.48,342.01C199.53,343.19 202.79,345.83 206.81,347.91C210.78,349.97 215.63,349.61 218.45,354.41C225.94,367.17 226.46,442.25 218.45,448.53C215.59,450.77 210.68,447.04 206.81,445.66C202.68,444.18 199.53,440.94 194.48,439.76C187.42,438.11 174.66,437.02 167.77,439.39C162.47,441.21 158.58,446.64 155.45,449.28C153.46,450.96 152.78,451.58 150.65,453.52C146.27,457.52 137.73,470.5 130.79,472.19C125.07,473.58 119.09,467.78 112.99,467.12C106.77,466.44 102.23,468.56 93.82,468.28C77.48,467.74 38.65,464.35 21.91,459.17Q12.15,456.15 0,447.93" style="vector-effect: non-scaling-stroke; fill: none; stroke: rgb(255, 255, 255); stroke-opacity: 0; stroke-width: 2px; opacity: 1;"/></g><g class="points"/><g class="text"/></g><g class="trace scatter traced8430e" style="stroke-miterlimit: 2; opacity: 1;"><g class="fills"><g><path class="js-fill" d="M0,373.2Q7.92,325.55 21.91,318.25C37.54,310.09 77.66,329.6 93.82,335C102.43,337.88 106.85,340.12 112.99,343.48C119.18,346.87 125.07,350.1 130.79,355.26C137.72,361.51 146.27,374.2 150.65,379.42C152.78,381.95 153.47,382.73 155.45,385.01C158.6,388.64 162.22,395.56 167.77,399.04C174.53,403.28 187.22,405.5 194.48,406.44C199.32,407.07 202.76,406.44 206.81,406.29C210.75,406.14 215.66,402.93 218.45,405.54C225.57,412.21 225.28,471.71 218.45,481.57C215.69,485.56 210.81,485.18 206.81,485.93C202.82,486.68 199.32,486.72 194.48,486.09C187.22,485.15 174.84,481.56 167.77,478.68C162.73,476.63 158.46,474.33 155.45,471.89C153.27,470.12 152.91,468.56 150.65,466.31C146.39,462.07 137.53,453.69 130.79,449.39C124.95,445.66 119.04,443.96 112.99,441.23C106.73,438.41 102.48,435.18 93.82,432.74C77.71,428.21 37.64,415.22 21.91,423.24Q9.38,429.63 0,463.7Z" style="fill: rgb(93, 140, 0); fill-opacity: 0.05; stroke-width: 0;"/></g></g><g class="errorbars"/><g class="lines"><path class="js-line" d="M0,373.2Q7.92,325.55 21.91,318.25C37.54,310.09 77.66,329.6 93.82,335C102.43,337.88 106.85,340.12 112.99,343.48C119.18,346.87 125.07,350.1 130.79,355.26C137.72,361.51 146.27,374.2 150.65,379.42C152.78,381.95 153.47,382.73 155.45,385.01C158.6,388.64 162.22,395.56 167.77,399.04C174.53,403.28 187.22,405.5 194.48,406.44C199.32,407.07 202.76,406.44 206.81,406.29C210.75,406.14 215.66,402.93 218.45,405.54C225.57,412.21 225.28,471.71 218.45,481.57C215.69,485.56 210.81,485.18 206.81,485.93C202.82,486.68 199.32,486.72 194.48,486.09C187.22,485.15 174.84,481.56 167.77,478.68C162.73,476.63 158.46,474.33 155.45,471.89C153.27,470.12 152.91,468.56 150.65,466.31C146.39,462.07 137.53,453.69 130.79,449.39C124.95,445.66 119.04,443.96 112.99,441.23C106.73,438.41 102.48,435.18 93.82,432.74C77.71,428.21 37.64,415.22 21.91,423.24Q9.38,429.63 0,463.7" style="vector-effect: non-scaling-stroke; fill: none; stroke: rgb(255, 255, 255); stroke-opacity: 0; stroke-width: 2px; opacity: 1;"/></g><g class="points"/><g class="text"/></g><g class="trace scatter traceb1fd2f" style="stroke-miterlimit: 2; opacity: 1;"><g class="fills"><g><path class="js-fill" d="M0,387.71Q12.61,387.77 21.91,389.5C39.08,392.69 78.08,401.97 93.82,410.67C103.02,415.75 106.56,422.6 112.99,427.59C118.89,432.17 124.48,438.89 130.79,439.69C137.04,440.48 146.24,433.11 150.65,432.53C152.76,432.25 153.56,433.35 155.45,432.94C158.69,432.24 162.68,427.74 167.77,426.06C174.8,423.74 187.29,423.71 194.48,422.6C199.39,421.85 202.81,420 206.81,420.4C210.8,420.8 215.71,420.96 218.45,424.98C225.04,434.66 225.04,492.89 218.45,497.38C215.71,499.25 210.8,493.2 206.81,492.8C202.81,492.4 199.39,494.25 194.48,495C187.29,496.11 174.94,497.05 167.77,498.46C162.84,499.43 158.63,501.44 155.45,501.72C153.5,501.89 152.79,501.21 150.65,501.31C146.28,501.51 137.1,505.71 130.79,504.86C124.55,504.02 119.02,499.34 112.99,496.38C106.7,493.29 102.53,489.67 93.82,486.69C77.74,481.19 39.01,475.12 21.91,472.77Q12.54,471.48 0,470.98Z" style="fill: rgb(114, 55, 105); fill-opacity: 0.05; stroke-width: 0;"/></g></g><g class="errorbars"/><g class="lines"><path class="js-line" d="M0,387.71Q12.61,387.77 21.91,389.5C39.08,392.69 78.08,401.97 93.82,410.67C103.02,415.75 106.56,422.6 112.99,427.59C118.89,432.17 124.48,438.89 130.79,439.69C137.04,440.48 146.24,433.11 150.65,432.53C152.76,432.25 153.56,433.35 155.45,432.94C158.69,432.24 162.68,427.74 167.77,426.06C174.8,423.74 187.29,423.71 194.48,422.6C199.39,421.85 202.81,420 206.81,420.4C210.8,420.8 215.71,420.96 218.45,424.98C225.04,434.66 225.04,492.89 218.45,497.38C215.71,499.25 210.8,493.2 206.81,492.8C202.81,492.4 199.39,494.25 194.48,495C187.29,496.11 174.94,497.05 167.77,498.46C162.84,499.43 158.63,501.44 155.45,501.72C153.5,501.89 152.79,501.21 150.65,501.31C146.28,501.51 137.1,505.71 130.79,504.86C124.55,504.02 119.02,499.34 112.99,496.38C106.7,493.29 102.53,489.67 93.82,486.69C77.74,481.19 39.01,475.12 21.91,472.77Q12.54,471.48 0,470.98" style="vector-effect: non-scaling-stroke; fill: none; stroke: rgb(255, 255, 255); stroke-opacity: 0; stroke-width: 2px; opacity: 1;"/></g><g class="points"/><g class="text"/></g><g class="trace scatter tracee0314a" style="stroke-miterlimit: 2; opacity: 1;"><g class="fills"><g><path class="js-fill" d="M0,430.4Q12.52,433.53 21.91,436.13C38.98,440.85 77.38,454.7 93.82,457.1C102.14,458.31 106.86,458.55 112.99,457.21C119.19,455.86 125.06,453.01 130.79,448.92C137.71,443.97 145.97,429.84 150.65,428.26C152.58,427.61 153.5,429.16 155.45,429C158.63,428.75 162.83,425.39 167.77,425.02C174.92,424.49 187.32,427.77 194.48,429.47C199.42,430.64 202.89,431.42 206.81,433.29C210.9,435.24 215.8,436.12 218.45,441.09C224.17,451.8 224.65,501.9 218.45,506.26C215.75,508.16 210.76,503.4 206.81,502.08C202.77,500.73 199.44,499.09 194.48,498.26C187.34,497.07 174.97,497.44 167.77,497.43C162.88,497.43 158.52,496.89 155.45,497.79C153.38,498.4 152.83,499.48 150.65,500.67C146.32,503.03 137.35,508.01 130.79,510.46C124.81,512.69 119.09,514.36 112.99,515.13C106.77,515.91 102.22,515.63 93.82,515.02C77.47,513.83 38.89,508.31 21.91,504.91Q12.43,503.01 0,499.18Z" style="fill: rgb(240, 125, 0); fill-opacity: 0.05; stroke-width: 0;"/></g></g><g class="errorbars"/><g class="lines"><path class="js-line" d="M0,430.4Q12.52,433.53 21.91,436.13C38.98,440.85 77.38,454.7 93.82,457.1C102.14,458.31 106.86,458.55 112.99,457.21C119.19,455.86 125.06,453.01 130.79,448.92C137.71,443.97 145.97,429.84 150.65,428.26C152.58,427.61 153.5,429.16 155.45,429C158.63,428.75 162.83,425.39 167.77,425.02C174.92,424.49 187.32,427.77 194.48,429.47C199.42,430.64 202.89,431.42 206.81,433.29C210.9,435.24 215.8,436.12 218.45,441.09C224.17,451.8 224.65,501.9 218.45,506.26C215.75,508.16 210.76,503.4 206.81,502.08C202.77,500.73 199.44,499.09 194.48,498.26C187.34,497.07 174.97,497.44 167.77,497.43C162.88,497.43 158.52,496.89 155.45,497.79C153.38,498.4 152.83,499.48 150.65,500.67C146.32,503.03 137.35,508.01 130.79,510.46C124.81,512.69 119.09,514.36 112.99,515.13C106.77,515.91 102.22,515.63 93.82,515.02C77.47,513.83 38.89,508.31 21.91,504.91Q12.43,503.01 0,499.18" style="vector-effect: non-scaling-stroke; fill: none; stroke: rgb(255, 255, 255); stroke-opacity: 0; stroke-width: 2px; opacity: 1;"/></g><g class="points"/><g class="text"/></g><g class="trace scatter traceb31820" style="stroke-miterlimit: 2; opacity: 1;"><g class="fills"><g><path class="js-fill" d="M0,404.63Q10.7,427.69 21.91,432.48C37.92,439.32 77.65,423.46 93.82,425.5C102.41,426.59 106.64,430.76 112.99,432.46C118.96,434.06 124.68,434.79 130.79,435.59C137.21,436.43 146.3,437.53 150.65,437.3C152.81,437.19 153.48,436.73 155.45,436.37C158.6,435.79 162.86,434.47 167.77,434.23C174.95,433.88 187.48,433.96 194.48,436.22C199.62,437.88 202.63,443.19 206.81,443.78C210.63,444.32 215.74,438.51 218.45,440.58C224.75,445.38 224.9,499.52 218.45,505.74C215.72,508.37 210.75,505.44 206.81,505.32C202.76,505.19 199.37,505.24 194.48,505C187.27,504.64 174.95,502.67 167.77,503.02C162.86,503.26 158.54,505.69 155.45,505.16C153.4,504.81 152.9,503.15 150.65,502.46C146.37,501.14 137.23,500.94 130.79,500.75C124.7,500.57 118.94,502.21 112.99,501.25C106.62,500.22 102.41,495.38 93.82,494.29C77.65,492.24 38.36,506.02 21.91,501.26Q11.72,498.31 0,484.27Z" style="fill: rgb(230, 172, 33); fill-opacity: 0.05; stroke-width: 0;"/></g></g><g class="errorbars"/><g class="lines"><path class="js-line" d="M0,404.63Q10.7,427.69 21.91,432.48C37.92,439.32 77.65,423.46 93.82,425.5C102.41,426.59 106.64,430.76 112.99,432.46C118.96,434.06 124.68,434.79 130.79,435.59C137.21,436.43 146.3,437.53 150.65,437.3C152.81,437.19 153.48,436.73 155.45,436.37C158.6,435.79 162.86,434.47 167.77,434.23C174.95,433.88 187.48,433.96 194.48,436.22C199.62,437.88 202.63,443.19 206.81,443.78C210.63,444.32 215.74,438.51 218.45,440.58C224.75,445.38 224.9,499.52 218.45,505.74C215.72,508.37 210.75,505.44 206.81,505.32C202.76,505.19 199.37,505.24 194.48,505C187.27,504.64 174.95,502.67 167.77,503.02C162.86,503.26 158.54,505.69 155.45,505.16C153.4,504.81 152.9,503.15 150.65,502.46C146.37,501.14 137.23,500.94 130.79,500.75C124.7,500.57 118.94,502.21 112.99,501.25C106.62,500.22 102.41,495.38 93.82,494.29C77.65,492.24 38.36,506.02 21.91,501.26Q11.72,498.31 0,484.27" style="vector-effect: non-scaling-stroke; fill: none; stroke: rgb(255, 255, 255); stroke-opacity: 0; stroke-width: 2px; opacity: 1;"/></g><g class="points"/><g class="text"/></g><g class="trace scatter trace330d61" style="stroke-miterlimit: 2; opacity: 1;"><g class="fills"><g><path class="js-fill" d="M0,449.69Q12.67,447.2 21.91,448.56C39.15,451.1 77.42,473.57 93.82,474.3C102.17,474.67 106.67,470.1 112.99,469.3C118.98,468.54 124.71,469.85 130.79,469.37C137.25,468.86 146.28,466.5 150.65,466.13C152.79,465.95 153.49,466.31 155.45,466.1C158.62,465.75 162.85,464.13 167.77,463.45C174.94,462.46 187.33,463.07 194.48,461.79C199.44,460.9 202.82,459.62 206.81,458.09C210.81,456.56 215.79,450.9 218.45,452.59C224.27,456.28 224.62,508.81 218.45,514.13C215.75,516.46 210.71,512.12 206.81,512.4C202.73,512.69 199.44,515.21 194.48,516.09C187.33,517.37 174.97,517.82 167.77,517.76C162.88,517.72 158.61,516.9 155.45,516.78C153.48,516.71 152.79,516.63 150.65,516.81C146.28,517.18 137.25,519.54 130.79,520.05C124.71,520.53 119.03,519.77 112.99,519.98C106.71,520.19 102.22,521.71 93.82,521.36C77.47,520.68 38.99,510.99 21.91,510.1Q12.53,509.61 0,511.23Z" style="fill: rgb(140, 0, 0); fill-opacity: 0.05; stroke-width: 0;"/></g></g><g class="errorbars"/><g class="lines"><path class="js-line" d="M0,449.69Q12.67,447.2 21.91,448.56C39.15,451.1 77.42,473.57 93.82,474.3C102.17,474.67 106.67,470.1 112.99,469.3C118.98,468.54 124.71,469.85 130.79,469.37C137.25,468.86 146.28,466.5 150.65,466.13C152.79,465.95 153.49,466.31 155.45,466.1C158.62,465.75 162.85,464.13 167.77,463.45C174.94,462.46 187.33,463.07 194.48,461.79C199.44,460.9 202.82,459.62 206.81,458.09C210.81,456.56 215.79,450.9 218.45,452.59C224.27,456.28 224.62,508.81 218.45,514.13C215.75,516.46 210.71,512.12 206.81,512.4C202.73,512.69 199.44,515.21 194.48,516.09C187.33,517.37 174.97,517.82 167.77,517.76C162.88,517.72 158.61,516.9 155.45,516.78C153.48,516.71 152.79,516.63 150.65,516.81C146.28,517.18 137.25,519.54 130.79,520.05C124.71,520.53 119.03,519.77 112.99,519.98C106.71,520.19 102.22,521.71 93.82,521.36C77.47,520.68 38.99,510.99 21.91,510.1Q12.53,509.61 0,511.23" style="vector-effect: non-scaling-stroke; fill: none; stroke: rgb(255, 255, 255); stroke-opacity: 0; stroke-width: 2px; opacity: 1;"/></g><g class="points"/><g class="text"/></g><g class="trace scatter trace5e487c" style="stroke-miterlimit: 2; opacity: 1;"><g class="fills"><g><path class="js-fill" d="M0,439.56Q11.65,453.6 21.91,457.24C38.32,463.05 77.52,458.47 93.82,457.38C102.27,456.82 106.74,454.5 112.99,454.77C119.06,455.03 124.75,456.99 130.79,458.77C137.29,460.68 146.31,464.22 150.65,466.04C152.82,466.95 153.42,467.89 155.45,468.32C158.55,468.97 162.96,468.84 167.77,467.97C175.05,466.66 187.21,460.66 194.48,458.87C199.31,457.68 202.75,457.29 206.81,456.94C210.73,456.6 215.77,454.11 218.45,456.75C224.43,462.63 224.43,508.6 218.45,514.67C215.77,517.39 210.73,514.52 206.81,514.86C202.75,515.21 199.39,516.24 194.48,516.79C187.29,517.6 174.98,518.3 167.77,518.65C162.88,518.89 158.55,519.65 155.45,519C153.42,518.57 152.87,517.22 150.65,516.72C146.35,515.75 137.19,517.41 130.79,516.69C124.66,516 119.06,512.95 112.99,512.69C106.74,512.42 102.27,514.73 93.82,515.3C77.52,516.39 38.67,518.98 21.91,515.17Q12.17,512.96 0,504.72Z" style="fill: rgb(0, 51, 255); fill-opacity: 0.05; stroke-width: 0;"/></g></g><g class="errorbars"/><g class="lines"><path class="js-line" d="M0,439.56Q11.65,453.6 21.91,457.24C38.32,463.05 77.52,458.47 93.82,457.38C102.27,456.82 106.74,454.5 112.99,454.77C119.06,455.03 124.75,456.99 130.79,458.77C137.29,460.68 146.31,464.22 150.65,466.04C152.82,466.95 153.42,467.89 155.45,468.32C158.55,468.97 162.96,468.84 167.77,467.97C175.05,466.66 187.21,460.66 194.48,458.87C199.31,457.68 202.75,457.29 206.81,456.94C210.73,456.6 215.77,454.11 218.45,456.75C224.43,462.63 224.43,508.6 218.45,514.67C215.77,517.39 210.73,514.52 206.81,514.86C202.75,515.21 199.39,516.24 194.48,516.79C187.29,517.6 174.98,518.3 167.77,518.65C162.88,518.89 158.55,519.65 155.45,519C153.42,518.57 152.87,517.22 150.65,516.72C146.35,515.75 137.19,517.41 130.79,516.69C124.66,516 119.06,512.95 112.99,512.69C106.74,512.42 102.27,514.73 93.82,515.3C77.52,516.39 38.67,518.98 21.91,515.17Q12.17,512.96 0,504.72" style="vector-effect: non-scaling-stroke; fill: none; stroke: rgb(255, 255, 255); stroke-opacity: 0; stroke-width: 2px; opacity: 1;"/></g><g class="points"/><g class="text"/></g><g class="trace scatter traceaa30c3" style="stroke-miterlimit: 2; opacity: 1;"><g class="fills"/><g class="errorbars"/><g class="lines"><path class="js-line" d="M0,149.39Q12.54,149.39 21.91,150.36C39,152.13 78.05,166.22 93.82,162.09C102.97,159.69 106.42,150.56 112.99,146.78C118.79,143.44 124.71,142.3 130.79,139.85C137.24,137.25 146.24,132.95 150.65,131.57C152.76,130.91 153.52,131.18 155.45,130.53C158.65,129.45 162.95,127.3 167.77,124.77C175.04,120.95 187.22,113.03 194.48,109.14C199.32,106.55 202.65,104.2 206.81,103.11Q210.65,102.1 218.45,102.43" style="vector-effect: non-scaling-stroke; fill: none; stroke: rgb(38, 16, 96); stroke-opacity: 1; stroke-width: 7px; opacity: 1;"/></g><g class="points"/><g class="text"/></g><g class="trace scatter trace1ef02d" style="stroke-miterlimit: 2; opacity: 1;"><g class="fills"/><g class="errorbars"/><g class="lines"/><g class="points"><path class="point" transform="translate(0,148.86)" d="M7.5,0A7.5,7.5 0 1,1 0,-7.5A7.5,7.5 0 0,1 7.5,0Z" style="opacity: 1; stroke-width: 0px; fill: rgb(38, 16, 96); fill-opacity: 0.25;"/><path class="point" transform="translate(21.91,150.26)" d="M7.5,0A7.5,7.5 0 1,1 0,-7.5A7.5,7.5 0 0,1 7.5,0Z" style="opacity: 1; stroke-width: 0px; fill: rgb(38, 16, 96); fill-opacity: 0.25;"/><path class="point" transform="translate(93.82,178.39)" d="M7.5,0A7.5,7.5 0 1,1 0,-7.5A7.5,7.5 0 0,1 7.5,0Z" style="opacity: 1; stroke-width: 0px; fill: rgb(38, 16, 96); fill-opacity: 0.25;"/><path class="point" transform="translate(112.99,143.23)" d="M7.5,0A7.5,7.5 0 1,1 0,-7.5A7.5,7.5 0 0,1 7.5,0Z" style="opacity: 1; stroke-width: 0px; fill: rgb(38, 16, 96); fill-opacity: 0.25;"/><path class="point" transform="translate(130.79,143.23)" d="M7.5,0A7.5,7.5 0 1,1 0,-7.5A7.5,7.5 0 0,1 7.5,0Z" style="opacity: 1; stroke-width: 0px; fill: rgb(38, 16, 96); fill-opacity: 0.25;"/><path class="point" transform="translate(150.65,129.16)" d="M7.5,0A7.5,7.5 0 1,1 0,-7.5A7.5,7.5 0 0,1 7.5,0Z" style="opacity: 1; stroke-width: 0px; fill: rgb(38, 16, 96); fill-opacity: 0.25;"/><path class="point" transform="translate(155.45,136.2)" d="M7.5,0A7.5,7.5 0 1,1 0,-7.5A7.5,7.5 0 0,1 7.5,0Z" style="opacity: 1; stroke-width: 0px; fill: rgb(38, 16, 96); fill-opacity: 0.25;"/><path class="point" transform="translate(167.77,122.13)" d="M7.5,0A7.5,7.5 0 1,1 0,-7.5A7.5,7.5 0 0,1 7.5,0Z" style="opacity: 1; stroke-width: 0px; fill: rgb(38, 16, 96); fill-opacity: 0.25;"/><path class="point" transform="translate(194.48,108.07)" d="M7.5,0A7.5,7.5 0 1,1 0,-7.5A7.5,7.5 0 0,1 7.5,0Z" style="opacity: 1; stroke-width: 0px; fill: rgb(38, 16, 96); fill-opacity: 0.25;"/><path class="point" transform="translate(206.81,92.6)" d="M7.5,0A7.5,7.5 0 1,1 0,-7.5A7.5,7.5 0 0,1 7.5,0Z" style="opacity: 1; stroke-width: 0px; fill: rgb(38, 16, 96); fill-opacity: 0.25;"/><path class="point" transform="translate(218.45,101.04)" d="M7.5,0A7.5,7.5 0 1,1 0,-7.5A7.5,7.5 0 0,1 7.5,0Z" style="opacity: 1; stroke-width: 0px; fill: rgb(38, 16, 96); fill-opacity: 0.25;"/></g><g class="text"/></g><g class="trace scatter tracea4b537" style="stroke-miterlimit: 2; opacity: 1;"><g class="fills"/><g class="errorbars"/><g class="lines"><path class="js-line" d="M0,330.5Q13.19,323.4 21.91,315.42C39.87,298.98 76.33,242.37 93.82,228.52C101.44,222.49 106.55,220.87 112.99,219.03C118.88,217.34 125.5,214.44 130.79,217.28C138.94,221.66 145.42,251.79 150.65,254.83C152.41,255.85 153.75,253.8 155.45,254.68C159.11,256.57 162.25,267.35 167.77,273.25C174.55,280.5 186.9,291.42 194.48,293.68C199.08,295.05 203.06,294.53 206.81,292.77Q211.18,290.71 218.45,280.64" style="vector-effect: non-scaling-stroke; fill: none; stroke: rgb(0, 68, 148); stroke-opacity: 1; stroke-width: 7px; opacity: 1;"/></g><g class="points"/><g class="text"/></g><g class="trace scatter trace669dcc" style="stroke-miterlimit: 2; opacity: 1;"><g class="fills"/><g class="errorbars"/><g class="lines"/><g class="points"><path class="point" transform="translate(0,338.72)" d="M7.5,0A7.5,7.5 0 1,1 0,-7.5A7.5,7.5 0 0,1 7.5,0Z" style="opacity: 1; stroke-width: 0px; fill: rgb(0, 68, 148); fill-opacity: 0.25;"/><path class="point" transform="translate(21.91,312)" d="M7.5,0A7.5,7.5 0 1,1 0,-7.5A7.5,7.5 0 0,1 7.5,0Z" style="opacity: 1; stroke-width: 0px; fill: rgb(0, 68, 148); fill-opacity: 0.25;"/><path class="point" transform="translate(93.82,234.65)" d="M7.5,0A7.5,7.5 0 1,1 0,-7.5A7.5,7.5 0 0,1 7.5,0Z" style="opacity: 1; stroke-width: 0px; fill: rgb(0, 68, 148); fill-opacity: 0.25;"/><path class="point" transform="translate(112.99,213.55)" d="M7.5,0A7.5,7.5 0 1,1 0,-7.5A7.5,7.5 0 0,1 7.5,0Z" style="opacity: 1; stroke-width: 0px; fill: rgb(0, 68, 148); fill-opacity: 0.25;"/><path class="point" transform="translate(130.79,164.33)" d="M7.5,0A7.5,7.5 0 1,1 0,-7.5A7.5,7.5 0 0,1 7.5,0Z" style="opacity: 1; stroke-width: 0px; fill: rgb(0, 68, 148); fill-opacity: 0.25;"/><path class="point" transform="translate(150.65,297.94)" d="M7.5,0A7.5,7.5 0 1,1 0,-7.5A7.5,7.5 0 0,1 7.5,0Z" style="opacity: 1; stroke-width: 0px; fill: rgb(0, 68, 148); fill-opacity: 0.25;"/><path class="point" transform="translate(155.45,213.55)" d="M7.5,0A7.5,7.5 0 1,1 0,-7.5A7.5,7.5 0 0,1 7.5,0Z" style="opacity: 1; stroke-width: 0px; fill: rgb(0, 68, 148); fill-opacity: 0.25;"/><path class="point" transform="translate(167.77,303.56)" d="M7.5,0A7.5,7.5 0 1,1 0,-7.5A7.5,7.5 0 0,1 7.5,0Z" style="opacity: 1; stroke-width: 0px; fill: rgb(0, 68, 148); fill-opacity: 0.25;"/><path class="point" transform="translate(194.48,312)" d="M7.5,0A7.5,7.5 0 1,1 0,-7.5A7.5,7.5 0 0,1 7.5,0Z" style="opacity: 1; stroke-width: 0px; fill: rgb(0, 68, 148); fill-opacity: 0.25;"/><path class="point" transform="translate(206.81,312)" d="M7.5,0A7.5,7.5 0 1,1 0,-7.5A7.5,7.5 0 0,1 7.5,0Z" style="opacity: 1; stroke-width: 0px; fill: rgb(0, 68, 148); fill-opacity: 0.25;"/><path class="point" transform="translate(218.45,255.74)" d="M7.5,0A7.5,7.5 0 1,1 0,-7.5A7.5,7.5 0 0,1 7.5,0Z" style="opacity: 1; stroke-width: 0px; fill: rgb(0, 68, 148); fill-opacity: 0.25;"/></g><g class="text"/></g><g class="trace scatter trace07fc55" style="stroke-miterlimit: 2; opacity: 1;"><g class="fills"/><g class="errorbars"/><g class="lines"><path class="js-line" d="M0,395.08Q12.6,396.46 21.91,395.26C39.07,393.05 77.55,375.28 93.82,375.79C102.3,376.06 106.74,382.41 112.99,382.29C119.06,382.17 124.65,377.5 130.79,375.46C137.18,373.34 146.27,370.8 150.65,369.87C152.78,369.42 153.52,369.69 155.45,369.17C158.65,368.31 162.77,365.46 167.77,364.22C174.87,362.46 187.3,361.06 194.48,361.43C199.4,361.68 202.79,362.95 206.81,364.01Q210.77,365.05 218.45,367.71" style="vector-effect: non-scaling-stroke; fill: none; stroke: rgb(234, 35, 41); stroke-opacity: 1; stroke-width: 7px; opacity: 1;"/></g><g class="points"/><g class="text"/></g><g class="trace scatter trace945141" style="stroke-miterlimit: 2; opacity: 1;"><g class="fills"/><g class="errorbars"/><g class="lines"/><g class="points"><path class="point" transform="translate(0,394.98)" d="M7.5,0A7.5,7.5 0 1,1 0,-7.5A7.5,7.5 0 0,1 7.5,0Z" style="opacity: 1; stroke-width: 0px; fill: rgb(234, 35, 41); fill-opacity: 0.25;"/><path class="point" transform="translate(21.91,396.39)" d="M7.5,0A7.5,7.5 0 1,1 0,-7.5A7.5,7.5 0 0,1 7.5,0Z" style="opacity: 1; stroke-width: 0px; fill: rgb(234, 35, 41); fill-opacity: 0.25;"/><path class="point" transform="translate(93.82,368.26)" d="M7.5,0A7.5,7.5 0 1,1 0,-7.5A7.5,7.5 0 0,1 7.5,0Z" style="opacity: 1; stroke-width: 0px; fill: rgb(234, 35, 41); fill-opacity: 0.25;"/><path class="point" transform="translate(112.99,396.39)" d="M7.5,0A7.5,7.5 0 1,1 0,-7.5A7.5,7.5 0 0,1 7.5,0Z" style="opacity: 1; stroke-width: 0px; fill: rgb(234, 35, 41); fill-opacity: 0.25;"/><path class="point" transform="translate(130.79,375.29)" d="M7.5,0A7.5,7.5 0 1,1 0,-7.5A7.5,7.5 0 0,1 7.5,0Z" style="opacity: 1; stroke-width: 0px; fill: rgb(234, 35, 41); fill-opacity: 0.25;"/><path class="point" transform="translate(150.65,368.26)" d="M7.5,0A7.5,7.5 0 1,1 0,-7.5A7.5,7.5 0 0,1 7.5,0Z" style="opacity: 1; stroke-width: 0px; fill: rgb(234, 35, 41); fill-opacity: 0.25;"/><path class="point" transform="translate(155.45,375.29)" d="M7.5,0A7.5,7.5 0 1,1 0,-7.5A7.5,7.5 0 0,1 7.5,0Z" style="opacity: 1; stroke-width: 0px; fill: rgb(234, 35, 41); fill-opacity: 0.25;"/><path class="point" transform="translate(167.77,354.2)" d="M7.5,0A7.5,7.5 0 1,1 0,-7.5A7.5,7.5 0 0,1 7.5,0Z" style="opacity: 1; stroke-width: 0px; fill: rgb(234, 35, 41); fill-opacity: 0.25;"/><path class="point" transform="translate(194.48,354.2)" d="M7.5,0A7.5,7.5 0 1,1 0,-7.5A7.5,7.5 0 0,1 7.5,0Z" style="opacity: 1; stroke-width: 0px; fill: rgb(234, 35, 41); fill-opacity: 0.25;"/><path class="point" transform="translate(206.81,362.63)" d="M7.5,0A7.5,7.5 0 1,1 0,-7.5A7.5,7.5 0 0,1 7.5,0Z" style="opacity: 1; stroke-width: 0px; fill: rgb(234, 35, 41); fill-opacity: 0.25;"/><path class="point" transform="translate(218.45,375.29)" d="M7.5,0A7.5,7.5 0 1,1 0,-7.5A7.5,7.5 0 0,1 7.5,0Z" style="opacity: 1; stroke-width: 0px; fill: rgb(234, 35, 41); fill-opacity: 0.25;"/></g><g class="text"/></g><g class="trace scatter trace78b7cd" style="stroke-miterlimit: 2; opacity: 1;"><g class="fills"/><g class="errorbars"/><g class="lines"><path class="js-line" d="M0,402.1Q12.22,409.48 21.91,412.58C38.71,417.96 77.46,423.27 93.82,425.19C102.21,426.18 106.73,425.78 112.99,426.35C119.04,426.9 125.18,430.55 130.79,428.52C137.93,425.93 146.11,411.1 150.65,407.37C152.66,405.72 153.57,405.83 155.45,404.37C158.71,401.83 162.32,394.78 167.77,392.54C174.58,389.74 187.38,390.85 194.48,392.17C199.49,393.1 202.75,395.55 206.81,397.13Q210.74,398.66 218.45,401.5" style="vector-effect: non-scaling-stroke; fill: none; stroke: rgb(0, 0, 0); stroke-opacity: 1; stroke-width: 7px; opacity: 1;"/></g><g class="points"/><g class="text"/></g><g class="trace scatter trace02cc0d" style="stroke-miterlimit: 2; opacity: 1;"><g class="fills"/><g class="errorbars"/><g class="lines"/><g class="points"><path class="point" transform="translate(0,396.39)" d="M7.5,0A7.5,7.5 0 1,1 0,-7.5A7.5,7.5 0 0,1 7.5,0Z" style="opacity: 1; stroke-width: 0px; fill: rgb(0, 0, 0); fill-opacity: 0.25;"/><path class="point" transform="translate(21.91,417.48)" d="M7.5,0A7.5,7.5 0 1,1 0,-7.5A7.5,7.5 0 0,1 7.5,0Z" style="opacity: 1; stroke-width: 0px; fill: rgb(0, 0, 0); fill-opacity: 0.25;"/><path class="point" transform="translate(93.82,424.52)" d="M7.5,0A7.5,7.5 0 1,1 0,-7.5A7.5,7.5 0 0,1 7.5,0Z" style="opacity: 1; stroke-width: 0px; fill: rgb(0, 0, 0); fill-opacity: 0.25;"/><path class="point" transform="translate(112.99,424.52)" d="M7.5,0A7.5,7.5 0 1,1 0,-7.5A7.5,7.5 0 0,1 7.5,0Z" style="opacity: 1; stroke-width: 0px; fill: rgb(0, 0, 0); fill-opacity: 0.25;"/><path class="point" transform="translate(130.79,459.68)" d="M7.5,0A7.5,7.5 0 1,1 0,-7.5A7.5,7.5 0 0,1 7.5,0Z" style="opacity: 1; stroke-width: 0px; fill: rgb(0, 0, 0); fill-opacity: 0.25;"/><path class="point" transform="translate(150.65,403.42)" d="M7.5,0A7.5,7.5 0 1,1 0,-7.5A7.5,7.5 0 0,1 7.5,0Z" style="opacity: 1; stroke-width: 0px; fill: rgb(0, 0, 0); fill-opacity: 0.25;"/><path class="point" transform="translate(155.45,410.45)" d="M7.5,0A7.5,7.5 0 1,1 0,-7.5A7.5,7.5 0 0,1 7.5,0Z" style="opacity: 1; stroke-width: 0px; fill: rgb(0, 0, 0); fill-opacity: 0.25;"/><path class="point" transform="translate(167.77,364.04)" d="M7.5,0A7.5,7.5 0 1,1 0,-7.5A7.5,7.5 0 0,1 7.5,0Z" style="opacity: 1; stroke-width: 0px; fill: rgb(0, 0, 0); fill-opacity: 0.25;"/><path class="point" transform="translate(194.48,382.32)" d="M7.5,0A7.5,7.5 0 1,1 0,-7.5A7.5,7.5 0 0,1 7.5,0Z" style="opacity: 1; stroke-width: 0px; fill: rgb(0, 0, 0); fill-opacity: 0.25;"/><path class="point" transform="translate(206.81,399.2)" d="M7.5,0A7.5,7.5 0 1,1 0,-7.5A7.5,7.5 0 0,1 7.5,0Z" style="opacity: 1; stroke-width: 0px; fill: rgb(0, 0, 0); fill-opacity: 0.25;"/><path class="point" transform="translate(218.45,410.45)" d="M7.5,0A7.5,7.5 0 1,1 0,-7.5A7.5,7.5 0 0,1 7.5,0Z" style="opacity: 1; stroke-width: 0px; fill: rgb(0, 0, 0); fill-opacity: 0.25;"/></g><g class="text"/></g><g class="trace scatter trace5b162e" style="stroke-miterlimit: 2; opacity: 1;"><g class="fills"/><g class="errorbars"/><g class="lines"><path class="js-line" d="M0,418.91Q8.77,379.35 21.91,372.49C37.58,364.32 77.75,379.45 93.82,384.71C102.53,387.56 106.75,391.02 112.99,394.32C119.07,397.54 124.97,399.93 130.79,404.26C137.57,409.31 146.33,419.08 150.65,423.54C152.84,425.81 153.42,426.78 155.45,428.82C158.55,431.94 162.43,437.21 167.77,440.13C174.63,443.89 187.23,446.22 194.48,447.21C199.33,447.87 202.79,447.82 206.81,447.36Q210.78,446.9 218.45,444.49" style="vector-effect: non-scaling-stroke; fill: none; stroke: rgb(93, 140, 0); stroke-opacity: 1; stroke-width: 7px; opacity: 1;"/></g><g class="points"/><g class="text"/></g><g class="trace scatter tracedfe2f4" style="stroke-miterlimit: 2; opacity: 1;"><g class="fills"/><g class="errorbars"/><g class="lines"/><g class="points"><path class="point" transform="translate(0,444.21)" d="M7.5,0A7.5,7.5 0 1,1 0,-7.5A7.5,7.5 0 0,1 7.5,0Z" style="opacity: 1; stroke-width: 0px; fill: rgb(93, 140, 0); fill-opacity: 0.25;"/><path class="point" transform="translate(21.91,347.16)" d="M7.5,0A7.5,7.5 0 1,1 0,-7.5A7.5,7.5 0 0,1 7.5,0Z" style="opacity: 1; stroke-width: 0px; fill: rgb(93, 140, 0); fill-opacity: 0.25;"/><path class="point" transform="translate(93.82,375.29)" d="M7.5,0A7.5,7.5 0 1,1 0,-7.5A7.5,7.5 0 0,1 7.5,0Z" style="opacity: 1; stroke-width: 0px; fill: rgb(93, 140, 0); fill-opacity: 0.25;"/><path class="point" transform="translate(112.99,389.36)" d="M7.5,0A7.5,7.5 0 1,1 0,-7.5A7.5,7.5 0 0,1 7.5,0Z" style="opacity: 1; stroke-width: 0px; fill: rgb(93, 140, 0); fill-opacity: 0.25;"/><path class="point" transform="translate(130.79,389.36)" d="M7.5,0A7.5,7.5 0 1,1 0,-7.5A7.5,7.5 0 0,1 7.5,0Z" style="opacity: 1; stroke-width: 0px; fill: rgb(93, 140, 0); fill-opacity: 0.25;"/><path class="point" transform="translate(150.65,410.45)" d="M7.5,0A7.5,7.5 0 1,1 0,-7.5A7.5,7.5 0 0,1 7.5,0Z" style="opacity: 1; stroke-width: 0px; fill: rgb(93, 140, 0); fill-opacity: 0.25;"/><path class="point" transform="translate(155.45,438.58)" d="M7.5,0A7.5,7.5 0 1,1 0,-7.5A7.5,7.5 0 0,1 7.5,0Z" style="opacity: 1; stroke-width: 0px; fill: rgb(93, 140, 0); fill-opacity: 0.25;"/><path class="point" transform="translate(167.77,462.49)" d="M7.5,0A7.5,7.5 0 1,1 0,-7.5A7.5,7.5 0 0,1 7.5,0Z" style="opacity: 1; stroke-width: 0px; fill: rgb(93, 140, 0); fill-opacity: 0.25;"/><path class="point" transform="translate(194.48,452.65)" d="M7.5,0A7.5,7.5 0 1,1 0,-7.5A7.5,7.5 0 0,1 7.5,0Z" style="opacity: 1; stroke-width: 0px; fill: rgb(93, 140, 0); fill-opacity: 0.25;"/><path class="point" transform="translate(206.81,452.65)" d="M7.5,0A7.5,7.5 0 1,1 0,-7.5A7.5,7.5 0 0,1 7.5,0Z" style="opacity: 1; stroke-width: 0px; fill: rgb(93, 140, 0); fill-opacity: 0.25;"/><path class="point" transform="translate(218.45,438.58)" d="M7.5,0A7.5,7.5 0 1,1 0,-7.5A7.5,7.5 0 0,1 7.5,0Z" style="opacity: 1; stroke-width: 0px; fill: rgb(93, 140, 0); fill-opacity: 0.25;"/></g><g class="text"/></g><g class="trace scatter trace38bc9d" style="stroke-miterlimit: 2; opacity: 1;"><g class="fills"/><g class="errorbars"/><g class="lines"><path class="js-line" d="M0,429.73Q12.59,429.97 21.91,431.56C39.05,434.48 77.84,443.34 93.82,450.23C102.64,454.04 106.66,458.57 112.99,462.26C118.98,465.75 124.51,470.89 130.79,471.88C137.06,472.86 146.28,468.77 150.65,468.18C152.79,467.89 153.51,468.16 155.45,467.77C158.63,467.13 162.82,464.94 167.77,463.8C174.92,462.15 187.27,460.93 194.48,460.01C199.37,459.38 202.78,458.38 206.81,458.6Q210.76,458.82 218.45,461.25" style="vector-effect: non-scaling-stroke; fill: none; stroke: rgb(114, 55, 105); stroke-opacity: 1; stroke-width: 7px; opacity: 1;"/></g><g class="points"/><g class="text"/></g><g class="trace scatter trace71f277" style="stroke-miterlimit: 2; opacity: 1;"><g class="fills"/><g class="errorbars"/><g class="lines"/><g class="points"><path class="point" transform="translate(0,428.74)" d="M7.5,0A7.5,7.5 0 1,1 0,-7.5A7.5,7.5 0 0,1 7.5,0Z" style="opacity: 1; stroke-width: 0px; fill: rgb(114, 55, 105); fill-opacity: 0.25;"/><path class="point" transform="translate(21.91,431.55)" d="M7.5,0A7.5,7.5 0 1,1 0,-7.5A7.5,7.5 0 0,1 7.5,0Z" style="opacity: 1; stroke-width: 0px; fill: rgb(114, 55, 105); fill-opacity: 0.25;"/><path class="point" transform="translate(93.82,438.58)" d="M7.5,0A7.5,7.5 0 1,1 0,-7.5A7.5,7.5 0 0,1 7.5,0Z" style="opacity: 1; stroke-width: 0px; fill: rgb(114, 55, 105); fill-opacity: 0.25;"/><path class="point" transform="translate(112.99,459.68)" d="M7.5,0A7.5,7.5 0 1,1 0,-7.5A7.5,7.5 0 0,1 7.5,0Z" style="opacity: 1; stroke-width: 0px; fill: rgb(114, 55, 105); fill-opacity: 0.25;"/><path class="point" transform="translate(130.79,487.81)" d="M7.5,0A7.5,7.5 0 1,1 0,-7.5A7.5,7.5 0 0,1 7.5,0Z" style="opacity: 1; stroke-width: 0px; fill: rgb(114, 55, 105); fill-opacity: 0.25;"/><path class="point" transform="translate(150.65,466.71)" d="M7.5,0A7.5,7.5 0 1,1 0,-7.5A7.5,7.5 0 0,1 7.5,0Z" style="opacity: 1; stroke-width: 0px; fill: rgb(114, 55, 105); fill-opacity: 0.25;"/><path class="point" transform="translate(155.45,473.74)" d="M7.5,0A7.5,7.5 0 1,1 0,-7.5A7.5,7.5 0 0,1 7.5,0Z" style="opacity: 1; stroke-width: 0px; fill: rgb(114, 55, 105); fill-opacity: 0.25;"/><path class="point" transform="translate(167.77,456.87)" d="M7.5,0A7.5,7.5 0 1,1 0,-7.5A7.5,7.5 0 0,1 7.5,0Z" style="opacity: 1; stroke-width: 0px; fill: rgb(114, 55, 105); fill-opacity: 0.25;"/><path class="point" transform="translate(194.48,459.68)" d="M7.5,0A7.5,7.5 0 1,1 0,-7.5A7.5,7.5 0 0,1 7.5,0Z" style="opacity: 1; stroke-width: 0px; fill: rgb(114, 55, 105); fill-opacity: 0.25;"/><path class="point" transform="translate(206.81,451.24)" d="M7.5,0A7.5,7.5 0 1,1 0,-7.5A7.5,7.5 0 0,1 7.5,0Z" style="opacity: 1; stroke-width: 0px; fill: rgb(114, 55, 105); fill-opacity: 0.25;"/><path class="point" transform="translate(218.45,466.71)" d="M7.5,0A7.5,7.5 0 1,1 0,-7.5A7.5,7.5 0 0,1 7.5,0Z" style="opacity: 1; stroke-width: 0px; fill: rgb(114, 55, 105); fill-opacity: 0.25;"/></g><g class="text"/></g><g class="trace scatter traced3e30a" style="stroke-miterlimit: 2; opacity: 1;"><g class="fills"/><g class="errorbars"/><g class="lines"><path class="js-line" d="M0,466.69Q12.48,469.72 21.91,471.82C38.95,475.62 77.43,485.38 93.82,487.05C102.19,487.9 106.8,488.01 112.99,486.95C119.12,485.9 124.95,483.94 130.79,480.76C137.54,477.08 146.1,467.18 150.65,465.21C152.65,464.34 153.49,464.88 155.45,464.47C158.62,463.81 162.84,461.59 167.77,461.21C174.93,460.66 187.32,462.64 194.48,464C199.42,464.94 202.86,465.77 206.81,467.42Q210.86,469.11 218.45,474.1" style="vector-effect: non-scaling-stroke; fill: none; stroke: rgb(240, 125, 0); stroke-opacity: 1; stroke-width: 7px; opacity: 1;"/></g><g class="points"/><g class="text"/></g><g class="trace scatter tracebeb1e4" style="stroke-miterlimit: 2; opacity: 1;"><g class="fills"/><g class="errorbars"/><g class="lines"/><g class="points"><path class="point" transform="translate(0,463.9)" d="M7.5,0A7.5,7.5 0 1,1 0,-7.5A7.5,7.5 0 0,1 7.5,0Z" style="opacity: 1; stroke-width: 0px; fill: rgb(240, 125, 0); fill-opacity: 0.25;"/><path class="point" transform="translate(21.91,473.74)" d="M7.5,0A7.5,7.5 0 1,1 0,-7.5A7.5,7.5 0 0,1 7.5,0Z" style="opacity: 1; stroke-width: 0px; fill: rgb(240, 125, 0); fill-opacity: 0.25;"/><path class="point" transform="translate(93.82,487.81)" d="M7.5,0A7.5,7.5 0 1,1 0,-7.5A7.5,7.5 0 0,1 7.5,0Z" style="opacity: 1; stroke-width: 0px; fill: rgb(240, 125, 0); fill-opacity: 0.25;"/><path class="point" transform="translate(112.99,494.84)" d="M7.5,0A7.5,7.5 0 1,1 0,-7.5A7.5,7.5 0 0,1 7.5,0Z" style="opacity: 1; stroke-width: 0px; fill: rgb(240, 125, 0); fill-opacity: 0.25;"/><path class="point" transform="translate(130.79,494.84)" d="M7.5,0A7.5,7.5 0 1,1 0,-7.5A7.5,7.5 0 0,1 7.5,0Z" style="opacity: 1; stroke-width: 0px; fill: rgb(240, 125, 0); fill-opacity: 0.25;"/><path class="point" transform="translate(150.65,452.65)" d="M7.5,0A7.5,7.5 0 1,1 0,-7.5A7.5,7.5 0 0,1 7.5,0Z" style="opacity: 1; stroke-width: 0px; fill: rgb(240, 125, 0); fill-opacity: 0.25;"/><path class="point" transform="translate(155.45,466.71)" d="M7.5,0A7.5,7.5 0 1,1 0,-7.5A7.5,7.5 0 0,1 7.5,0Z" style="opacity: 1; stroke-width: 0px; fill: rgb(240, 125, 0); fill-opacity: 0.25;"/><path class="point" transform="translate(167.77,451.24)" d="M7.5,0A7.5,7.5 0 1,1 0,-7.5A7.5,7.5 0 0,1 7.5,0Z" style="opacity: 1; stroke-width: 0px; fill: rgb(240, 125, 0); fill-opacity: 0.25;"/><path class="point" transform="translate(194.48,459.68)" d="M7.5,0A7.5,7.5 0 1,1 0,-7.5A7.5,7.5 0 0,1 7.5,0Z" style="opacity: 1; stroke-width: 0px; fill: rgb(240, 125, 0); fill-opacity: 0.25;"/><path class="point" transform="translate(206.81,462.49)" d="M7.5,0A7.5,7.5 0 1,1 0,-7.5A7.5,7.5 0 0,1 7.5,0Z" style="opacity: 1; stroke-width: 0px; fill: rgb(240, 125, 0); fill-opacity: 0.25;"/><path class="point" transform="translate(218.45,487.81)" d="M7.5,0A7.5,7.5 0 1,1 0,-7.5A7.5,7.5 0 0,1 7.5,0Z" style="opacity: 1; stroke-width: 0px; fill: rgb(240, 125, 0); fill-opacity: 0.25;"/></g><g class="text"/></g><g class="trace scatter trace92b9b5" style="stroke-miterlimit: 2; opacity: 1;"><g class="fills"/><g class="errorbars"/><g class="lines"><path class="js-line" d="M0,445.4Q11.2,464.32 21.91,468.24C38.1,474.17 77.67,458.54 93.82,460.73C102.44,461.9 106.6,466.95 112.99,468.25C118.93,469.46 124.7,468.36 130.79,468.74C137.24,469.14 146.3,470.02 150.65,470.65C152.81,470.96 153.47,471.51 155.45,471.58C158.6,471.69 162.87,470.24 167.77,470.1C174.96,469.89 187.32,470.57 194.48,471.74C199.42,472.54 202.72,474.58 206.81,475.04Q210.71,475.48 218.45,474.61" style="vector-effect: non-scaling-stroke; fill: none; stroke: rgb(230, 172, 33); stroke-opacity: 1; stroke-width: 7px; opacity: 1;"/></g><g class="points"/><g class="text"/></g><g class="trace scatter traceff2d10" style="stroke-miterlimit: 2; opacity: 1;"><g class="fills"/><g class="errorbars"/><g class="lines"/><g class="points"><path class="point" transform="translate(0,432.96)" d="M7.5,0A7.5,7.5 0 1,1 0,-7.5A7.5,7.5 0 0,1 7.5,0Z" style="opacity: 1; stroke-width: 0px; fill: rgb(230, 172, 33); fill-opacity: 0.25;"/><path class="point" transform="translate(21.91,480.77)" d="M7.5,0A7.5,7.5 0 1,1 0,-7.5A7.5,7.5 0 0,1 7.5,0Z" style="opacity: 1; stroke-width: 0px; fill: rgb(230, 172, 33); fill-opacity: 0.25;"/><path class="point" transform="translate(93.82,452.65)" d="M7.5,0A7.5,7.5 0 1,1 0,-7.5A7.5,7.5 0 0,1 7.5,0Z" style="opacity: 1; stroke-width: 0px; fill: rgb(230, 172, 33); fill-opacity: 0.25;"/><path class="point" transform="translate(112.99,473.74)" d="M7.5,0A7.5,7.5 0 1,1 0,-7.5A7.5,7.5 0 0,1 7.5,0Z" style="opacity: 1; stroke-width: 0px; fill: rgb(230, 172, 33); fill-opacity: 0.25;"/><path class="point" transform="translate(130.79,466.71)" d="M7.5,0A7.5,7.5 0 1,1 0,-7.5A7.5,7.5 0 0,1 7.5,0Z" style="opacity: 1; stroke-width: 0px; fill: rgb(230, 172, 33); fill-opacity: 0.25;"/><path class="point" transform="translate(150.65,466.71)" d="M7.5,0A7.5,7.5 0 1,1 0,-7.5A7.5,7.5 0 0,1 7.5,0Z" style="opacity: 1; stroke-width: 0px; fill: rgb(230, 172, 33); fill-opacity: 0.25;"/><path class="point" transform="translate(155.45,480.77)" d="M7.5,0A7.5,7.5 0 1,1 0,-7.5A7.5,7.5 0 0,1 7.5,0Z" style="opacity: 1; stroke-width: 0px; fill: rgb(230, 172, 33); fill-opacity: 0.25;"/><path class="point" transform="translate(167.77,465.3)" d="M7.5,0A7.5,7.5 0 1,1 0,-7.5A7.5,7.5 0 0,1 7.5,0Z" style="opacity: 1; stroke-width: 0px; fill: rgb(230, 172, 33); fill-opacity: 0.25;"/><path class="point" transform="translate(194.48,466.71)" d="M7.5,0A7.5,7.5 0 1,1 0,-7.5A7.5,7.5 0 0,1 7.5,0Z" style="opacity: 1; stroke-width: 0px; fill: rgb(230, 172, 33); fill-opacity: 0.25;"/><path class="point" transform="translate(206.81,482.18)" d="M7.5,0A7.5,7.5 0 1,1 0,-7.5A7.5,7.5 0 0,1 7.5,0Z" style="opacity: 1; stroke-width: 0px; fill: rgb(230, 172, 33); fill-opacity: 0.25;"/><path class="point" transform="translate(218.45,473.74)" d="M7.5,0A7.5,7.5 0 1,1 0,-7.5A7.5,7.5 0 0,1 7.5,0Z" style="opacity: 1; stroke-width: 0px; fill: rgb(230, 172, 33); fill-opacity: 0.25;"/></g><g class="text"/></g><g class="trace scatter trace37d496" style="stroke-miterlimit: 2; opacity: 1;"><g class="fills"/><g class="errorbars"/><g class="lines"><path class="js-line" d="M0,479.98Q12.58,479.73 21.91,481.11C39.05,483.64 77.43,497.78 93.82,498.81C102.19,499.34 106.71,496.96 112.99,496.58C119.02,496.22 124.73,497.13 130.79,496.51C137.26,495.85 146.27,492.92 150.65,492.5C152.78,492.29 153.48,492.6 155.45,492.53C158.61,492.42 162.88,491.93 167.77,491.56C174.97,491.01 187.33,490.87 194.48,489.6C199.43,488.72 202.73,486.94 206.81,486.06Q210.72,485.21 218.45,484.33" style="vector-effect: non-scaling-stroke; fill: none; stroke: rgb(140, 0, 0); stroke-opacity: 1; stroke-width: 7px; opacity: 1;"/></g><g class="points"/><g class="text"/></g><g class="trace scatter trace6f962a" style="stroke-miterlimit: 2; opacity: 1;"><g class="fills"/><g class="errorbars"/><g class="lines"/><g class="points"><path class="point" transform="translate(0,479.37)" d="M7.5,0A7.5,7.5 0 1,1 0,-7.5A7.5,7.5 0 0,1 7.5,0Z" style="opacity: 1; stroke-width: 0px; fill: rgb(140, 0, 0); fill-opacity: 0.25;"/><path class="point" transform="translate(21.91,480.77)" d="M7.5,0A7.5,7.5 0 1,1 0,-7.5A7.5,7.5 0 0,1 7.5,0Z" style="opacity: 1; stroke-width: 0px; fill: rgb(140, 0, 0); fill-opacity: 0.25;"/><path class="point" transform="translate(93.82,501.87)" d="M7.5,0A7.5,7.5 0 1,1 0,-7.5A7.5,7.5 0 0,1 7.5,0Z" style="opacity: 1; stroke-width: 0px; fill: rgb(140, 0, 0); fill-opacity: 0.25;"/><path class="point" transform="translate(112.99,494.84)" d="M7.5,0A7.5,7.5 0 1,1 0,-7.5A7.5,7.5 0 0,1 7.5,0Z" style="opacity: 1; stroke-width: 0px; fill: rgb(140, 0, 0); fill-opacity: 0.25;"/><path class="point" transform="translate(130.79,501.87)" d="M7.5,0A7.5,7.5 0 1,1 0,-7.5A7.5,7.5 0 0,1 7.5,0Z" style="opacity: 1; stroke-width: 0px; fill: rgb(140, 0, 0); fill-opacity: 0.25;"/><path class="point" transform="translate(150.65,487.81)" d="M7.5,0A7.5,7.5 0 1,1 0,-7.5A7.5,7.5 0 0,1 7.5,0Z" style="opacity: 1; stroke-width: 0px; fill: rgb(140, 0, 0); fill-opacity: 0.25;"/><path class="point" transform="translate(155.45,494.84)" d="M7.5,0A7.5,7.5 0 1,1 0,-7.5A7.5,7.5 0 0,1 7.5,0Z" style="opacity: 1; stroke-width: 0px; fill: rgb(140, 0, 0); fill-opacity: 0.25;"/><path class="point" transform="translate(167.77,490.62)" d="M7.5,0A7.5,7.5 0 1,1 0,-7.5A7.5,7.5 0 0,1 7.5,0Z" style="opacity: 1; stroke-width: 0px; fill: rgb(140, 0, 0); fill-opacity: 0.25;"/><path class="point" transform="translate(194.48,494.84)" d="M7.5,0A7.5,7.5 0 1,1 0,-7.5A7.5,7.5 0 0,1 7.5,0Z" style="opacity: 1; stroke-width: 0px; fill: rgb(140, 0, 0); fill-opacity: 0.25;"/><path class="point" transform="translate(206.81,482.18)" d="M7.5,0A7.5,7.5 0 1,1 0,-7.5A7.5,7.5 0 0,1 7.5,0Z" style="opacity: 1; stroke-width: 0px; fill: rgb(140, 0, 0); fill-opacity: 0.25;"/><path class="point" transform="translate(218.45,480.77)" d="M7.5,0A7.5,7.5 0 1,1 0,-7.5A7.5,7.5 0 0,1 7.5,0Z" style="opacity: 1; stroke-width: 0px; fill: rgb(140, 0, 0); fill-opacity: 0.25;"/></g><g class="text"/></g><g class="trace scatter traceb1ade7" style="stroke-miterlimit: 2; opacity: 1;"><g class="fills"/><g class="errorbars"/><g class="lines"><path class="js-line" d="M0,472.01Q11.87,483.83 21.91,486.91C38.45,491.98 77.5,487.21 93.82,486.77C102.25,486.54 106.74,485.37 112.99,485.77C119.06,486.16 124.69,487.9 130.79,489.01C137.23,490.18 146.3,491.6 150.65,492.6C152.81,493.1 153.46,493.64 155.45,493.94C158.58,494.41 162.91,494.71 167.77,494.29C175,493.67 187.26,490.13 194.48,488.91C199.36,488.08 202.75,487.45 206.81,487.21Q210.74,486.97 218.45,487.41" style="vector-effect: non-scaling-stroke; fill: none; stroke: rgb(0, 51, 255); stroke-opacity: 1; stroke-width: 7px; opacity: 1;"/></g><g class="points"/><g class="text"/></g><g class="trace scatter trace514d54" style="stroke-miterlimit: 2; opacity: 1;"><g class="fills"/><g class="errorbars"/><g class="lines"/><g class="points"><path class="point" transform="translate(0,463.9)" d="M7.5,0A7.5,7.5 0 1,1 0,-7.5A7.5,7.5 0 0,1 7.5,0Z" style="opacity: 1; stroke-width: 0px; fill: rgb(0, 51, 255); fill-opacity: 0.25;"/><path class="point" transform="translate(21.91,494.84)" d="M7.5,0A7.5,7.5 0 1,1 0,-7.5A7.5,7.5 0 0,1 7.5,0Z" style="opacity: 1; stroke-width: 0px; fill: rgb(0, 51, 255); fill-opacity: 0.25;"/><path class="point" transform="translate(93.82,487.81)" d="M7.5,0A7.5,7.5 0 1,1 0,-7.5A7.5,7.5 0 0,1 7.5,0Z" style="opacity: 1; stroke-width: 0px; fill: rgb(0, 51, 255); fill-opacity: 0.25;"/><path class="point" transform="translate(112.99,480.77)" d="M7.5,0A7.5,7.5 0 1,1 0,-7.5A7.5,7.5 0 0,1 7.5,0Z" style="opacity: 1; stroke-width: 0px; fill: rgb(0, 51, 255); fill-opacity: 0.25;"/><path class="point" transform="translate(130.79,487.81)" d="M7.5,0A7.5,7.5 0 1,1 0,-7.5A7.5,7.5 0 0,1 7.5,0Z" style="opacity: 1; stroke-width: 0px; fill: rgb(0, 51, 255); fill-opacity: 0.25;"/><path class="point" transform="translate(150.65,487.81)" d="M7.5,0A7.5,7.5 0 1,1 0,-7.5A7.5,7.5 0 0,1 7.5,0Z" style="opacity: 1; stroke-width: 0px; fill: rgb(0, 51, 255); fill-opacity: 0.25;"/><path class="point" transform="translate(155.45,501.87)" d="M7.5,0A7.5,7.5 0 1,1 0,-7.5A7.5,7.5 0 0,1 7.5,0Z" style="opacity: 1; stroke-width: 0px; fill: rgb(0, 51, 255); fill-opacity: 0.25;"/><path class="point" transform="translate(167.77,499.06)" d="M7.5,0A7.5,7.5 0 1,1 0,-7.5A7.5,7.5 0 0,1 7.5,0Z" style="opacity: 1; stroke-width: 0px; fill: rgb(0, 51, 255); fill-opacity: 0.25;"/><path class="point" transform="translate(194.48,487.81)" d="M7.5,0A7.5,7.5 0 1,1 0,-7.5A7.5,7.5 0 0,1 7.5,0Z" style="opacity: 1; stroke-width: 0px; fill: rgb(0, 51, 255); fill-opacity: 0.25;"/><path class="point" transform="translate(206.81,483.59)" d="M7.5,0A7.5,7.5 0 1,1 0,-7.5A7.5,7.5 0 0,1 7.5,0Z" style="opacity: 1; stroke-width: 0px; fill: rgb(0, 51, 255); fill-opacity: 0.25;"/><path class="point" transform="translate(218.45,487.81)" d="M7.5,0A7.5,7.5 0 1,1 0,-7.5A7.5,7.5 0 0,1 7.5,0Z" style="opacity: 1; stroke-width: 0px; fill: rgb(0, 51, 255); fill-opacity: 0.25;"/></g><g class="text"/></g></g></g><g class="overplot"/><path class="xlines-above crisp" d="M0,0" style="fill: none;"/><path class="ylines-above crisp" d="M0,0" style="fill: none;"/><g class="overlines-above"/><g class="xaxislayer-above"><g class="xtick"><text text-anchor="middle" x="0" y="563" transform="translate(107.52000000000001,0)" style="font-family: 'Open Sans', verdana, arial, sans-serif; font-size: 12px; fill: rgb(42, 63, 95); fill-opacity: 1; white-space: pre; opacity: 1;">1.1.22</text></g><g class="xtick"><text text-anchor="middle" x="0" y="563" style="font-family: 'Open Sans', verdana, arial, sans-serif; font-size: 12px; fill: rgb(42, 63, 95); fill-opacity: 1; white-space: pre; opacity: 1;" transform="translate(231.47,0)">1.7.22</text></g><g class="xtick"><text text-anchor="middle" x="0" y="563" style="font-family: 'Open Sans', verdana, arial, sans-serif; font-size: 12px; fill: rgb(42, 63, 95); fill-opacity: 1; white-space: pre; opacity: 1;" transform="translate(357.47,0)">1.1.23</text></g><g class="xtick"><text text-anchor="middle" x="0" y="563" style="font-family: 'Open Sans', verdana, arial, sans-serif; font-size: 12px; fill: rgb(42, 63, 95); fill-opacity: 1; white-space: pre; opacity: 1;" transform="translate(481.42,0)">1.7.23</text></g><g class="xtick"><text text-anchor="middle" x="0" y="563" style="font-family: 'Open Sans', verdana, arial, sans-serif; font-size: 12px; fill: rgb(42, 63, 95); fill-opacity: 1; white-space: pre; opacity: 1;" transform="translate(607.42,0)">1.1.24</text></g><g class="xtick"><text text-anchor="middle" x="0" y="563" style="font-family: 'Open Sans', verdana, arial, sans-serif; font-size: 12px; fill: rgb(42, 63, 95); fill-opacity: 1; white-space: pre; opacity: 1;" transform="translate(732.05,0)">1.7.24</text></g><g class="xtick"><text text-anchor="middle" x="0" y="563" style="font-family: 'Open Sans', verdana, arial, sans-serif; font-size: 12px; fill: rgb(42, 63, 95); fill-opacity: 1; white-space: pre; opacity: 1;" transform="translate(858.05,0)">1.1.25</text></g><g class="xtick"><text text-anchor="middle" x="0" y="563" style="font-family: 'Open Sans', verdana, arial, sans-serif; font-size: 12px; fill: rgb(42, 63, 95); fill-opacity: 1; white-space: pre; opacity: 1;" transform="translate(982,0)">1.7.25</text></g></g><g class="yaxislayer-above"><g class="ytick"><text text-anchor="end" x="49" y="4.199999999999999" transform="translate(0,550)" style="font-family: 'Open Sans', verdana, arial, sans-serif; font-size: 12px; fill: rgb(42, 63, 95); fill-opacity: 1; white-space: pre; opacity: 1;">0%</text></g><g class="ytick"><text text-anchor="end" x="49" y="4.199999999999999" style="font-family: 'Open Sans', verdana, arial, sans-serif; font-size: 12px; fill: rgb(42, 63, 95); fill-opacity: 1; white-space: pre; opacity: 1;" transform="translate(0,479.68)">5%</text></g><g class="ytick"><text text-anchor="end" x="49" y="4.199999999999999" style="font-family: 'Open Sans', verdana, arial, sans-serif; font-size: 12px; fill: rgb(42, 63, 95); fill-opacity: 1; white-space: pre; opacity: 1;" transform="translate(0,409.36)">10%</text></g><g class="ytick"><text text-anchor="end" x="49" y="4.199999999999999" style="font-family: 'Open Sans', verdana, arial, sans-serif; font-size: 12px; fill: rgb(42, 63, 95); fill-opacity: 1; white-space: pre; opacity: 1;" transform="translate(0,339.03)">15%</text></g><g class="ytick"><text text-anchor="end" x="49" y="4.199999999999999" style="font-family: 'Open Sans', verdana, arial, sans-serif; font-size: 12px; fill: rgb(42, 63, 95); fill-opacity: 1; white-space: pre; opacity: 1;" transform="translate(0,268.71000000000004)">20%</text></g><g class="ytick"><text text-anchor="end" x="49" y="4.199999999999999" style="font-family: 'Open Sans', verdana, arial, sans-serif; font-size: 12px; fill: rgb(42, 63, 95); fill-opacity: 1; white-space: pre; opacity: 1;" transform="translate(0,198.39)">25%</text></g><g class="ytick"><text text-anchor="end" x="49" y="4.199999999999999" style="font-family: 'Open Sans', verdana, arial, sans-serif; font-size: 12px; fill: rgb(42, 63, 95); fill-opacity: 1; white-space: pre; opacity: 1;" transform="translate(0,128.07)">30%</text></g><g class="ytick"><text text-anchor="end" x="49" y="4.199999999999999" style="font-family: 'Open Sans', verdana, arial, sans-serif; font-size: 12px; fill: rgb(42, 63, 95); fill-opacity: 1; white-space: pre; opacity: 1;" transform="translate(0,57.75)">35%</text></g></g><g class="overaxes-above"/></g></g><g class="polarlayer"/><g class="smithlayer"/><g class="ternarylayer"/><g class="geolayer"/><g class="funnelarealayer"/><g class="pielayer"/><g class="iciclelayer"/><g class="treemaplayer"/><g class="sunburstlayer"/><g class="glimages"/><defs id="topdefs-485201"><g class="clips"/><clipPath id="legend485201"><rect width="123" height="200" x="0" y="0"/></clipPath></defs><g class="layer-above"><g class="imagelayer"/><g class="shapelayer"/></g><g class="infolayer"><g class="legend" pointer-events="all" transform="translate(1064.9,20)"><rect class="bg" shape-rendering="crispEdges" style="stroke: rgb(68, 68, 68); stroke-opacity: 1; fill: rgb(255, 255, 255); fill-opacity: 1; stroke-width: 0px;" width="123" height="200" x="0" y="0"/><g class="scrollbox" transform="" clip-path="url(#legend485201)"><g class="groups"><g class="traces" transform="translate(0,14.5)" style="opacity: 1;"><text class="legendtext" text-anchor="start" x="40" y="4.680000000000001" style="font-family: 'Open Sans', verdana, arial, sans-serif; font-size: 12px; fill: rgb(42, 63, 95); fill-opacity: 1; white-space: pre;">ANO: 30%</text><g class="layers" style="opacity: 1;"><g class="legendfill"/><g class="legendlines"><path class="js-line" d="M5,0h30" style="fill: none; stroke: rgb(38, 16, 96); stroke-opacity: 1; stroke-width: 7px;"/></g><g class="legendsymbols"><g class="legendpoints"/></g></g><rect class="legendtoggle" x="0" y="-9.5" width="117.03125" height="19" style="fill: rgb(0, 0, 0); fill-opacity: 0;"/></g><g class="traces" transform="translate(0,33.5)" style="opacity: 1;"><text class="legendtext" text-anchor="start" x="40" y="4.680000000000001" style="font-family: 'Open Sans', verdana, arial, sans-serif; font-size: 12px; fill: rgb(42, 63, 95); fill-opacity: 1; white-space: pre;">ODS: 18%</text><g class="layers" style="opacity: 1;"><g class="legendfill"/><g class="legendlines"><path class="js-line" d="M5,0h30" style="fill: none; stroke: rgb(0, 68, 148); stroke-opacity: 1; stroke-width: 7px;"/></g><g class="legendsymbols"><g class="legendpoints"/></g></g><rect class="legendtoggle" x="0" y="-9.5" width="117.03125" height="19" style="fill: rgb(0, 0, 0); fill-opacity: 0;"/></g><g class="traces" transform="translate(0,52.5)" style="opacity: 1;"><text class="legendtext" text-anchor="start" x="40" y="4.680000000000001" style="font-family: 'Open Sans', verdana, arial, sans-serif; font-size: 12px; fill: rgb(42, 63, 95); fill-opacity: 1; white-space: pre;">SPD: 12%</text><g class="layers" style="opacity: 1;"><g class="legendfill"/><g class="legendlines"><path class="js-line" d="M5,0h30" style="fill: none; stroke: rgb(234, 35, 41); stroke-opacity: 1; stroke-width: 7px;"/></g><g class="legendsymbols"><g class="legendpoints"/></g></g><rect class="legendtoggle" x="0" y="-9.5" width="117.03125" height="19" style="fill: rgb(0, 0, 0); fill-opacity: 0;"/></g><g class="traces" transform="translate(0,71.5)" style="opacity: 1;"><text class="legendtext" text-anchor="start" x="40" y="4.680000000000001" style="font-family: 'Open Sans', verdana, arial, sans-serif; font-size: 12px; fill: rgb(42, 63, 95); fill-opacity: 1; white-space: pre;">Pirti: 9%</text><g class="layers" style="opacity: 1;"><g class="legendfill"/><g class="legendlines"><path class="js-line" d="M5,0h30" style="fill: none; stroke: rgb(0, 0, 0); stroke-opacity: 1; stroke-width: 7px;"/></g><g class="legendsymbols"><g class="legendpoints"/></g></g><rect class="legendtoggle" x="0" y="-9.5" width="117.03125" height="19" style="fill: rgb(0, 0, 0); fill-opacity: 0;"/></g><g class="traces" transform="translate(0,90.5)" style="opacity: 1;"><text class="legendtext" text-anchor="start" x="40" y="4.680000000000001" style="font-family: 'Open Sans', verdana, arial, sans-serif; font-size: 12px; fill: rgb(42, 63, 95); fill-opacity: 1; white-space: pre;">STAN: 6%</text><g class="layers" style="opacity: 1;"><g class="legendfill"/><g class="legendlines"><path class="js-line" d="M5,0h30" style="fill: none; stroke: rgb(93, 140, 0); stroke-opacity: 1; stroke-width: 7px;"/></g><g class="legendsymbols"><g class="legendpoints"/></g></g><rect class="legendtoggle" x="0" y="-9.5" width="117.03125" height="19" style="fill: rgb(0, 0, 0); fill-opacity: 0;"/></g><g class="traces" transform="translate(0,109.5)" style="opacity: 1;"><text class="legendtext" text-anchor="start" x="40" y="4.680000000000001" style="font-family: 'Open Sans', verdana, arial, sans-serif; font-size: 12px; fill: rgb(42, 63, 95); fill-opacity: 1; white-space: pre;">TOP 09: 5%</text><g class="layers" style="opacity: 1;"><g class="legendfill"/><g class="legendlines"><path class="js-line" d="M5,0h30" style="fill: none; stroke: rgb(114, 55, 105); stroke-opacity: 1; stroke-width: 7px;"/></g><g class="legendsymbols"><g class="legendpoints"/></g></g><rect class="legendtoggle" x="0" y="-9.5" width="117.03125" height="19" style="fill: rgb(0, 0, 0); fill-opacity: 0;"/></g><g class="traces" transform="translate(0,128.5)" style="opacity: 1;"><text class="legendtext" text-anchor="start" x="40" y="4.680000000000001" style="font-family: 'Open Sans', verdana, arial, sans-serif; font-size: 12px; fill: rgb(42, 63, 95); fill-opacity: 1; white-space: pre;">SSD: 4%</text><g class="layers" style="opacity: 1;"><g class="legendfill"/><g class="legendlines"><path class="js-line" d="M5,0h30" style="fill: none; stroke: rgb(240, 125, 0); stroke-opacity: 1; stroke-width: 7px;"/></g><g class="legendsymbols"><g class="legendpoints"/></g></g><rect class="legendtoggle" x="0" y="-9.5" width="117.03125" height="19" style="fill: rgb(0, 0, 0); fill-opacity: 0;"/></g><g class="traces" transform="translate(0,147.5)" style="opacity: 1;"><text class="legendtext" text-anchor="start" x="40" y="4.680000000000001" style="font-family: 'Open Sans', verdana, arial, sans-serif; font-size: 12px; fill: rgb(42, 63, 95); fill-opacity: 1; white-space: pre;">KDU-SL: 4%</text><g class="layers" style="opacity: 1;"><g class="legendfill"/><g class="legendlines"><path class="js-line" d="M5,0h30" style="fill: none; stroke: rgb(230, 172, 33); stroke-opacity: 1; stroke-width: 7px;"/></g><g class="legendsymbols"><g class="legendpoints"/></g></g><rect class="legendtoggle" x="0" y="-9.5" width="117.03125" height="19" style="fill: rgb(0, 0, 0); fill-opacity: 0;"/></g><g class="traces" transform="translate(0,166.5)" style="opacity: 1;"><text class="legendtext" text-anchor="start" x="40" y="4.680000000000001" style="font-family: 'Open Sans', verdana, arial, sans-serif; font-size: 12px; fill: rgb(42, 63, 95); fill-opacity: 1; white-space: pre;">KSM: 3%</text><g class="layers" style="opacity: 1;"><g class="legendfill"/><g class="legendlines"><path class="js-line" d="M5,0h30" style="fill: none; stroke: rgb(140, 0, 0); stroke-opacity: 1; stroke-width: 7px;"/></g><g class="legendsymbols"><g class="legendpoints"/></g></g><rect class="legendtoggle" x="0" y="-9.5" width="117.03125" height="19" style="fill: rgb(0, 0, 0); fill-opacity: 0;"/></g><g class="traces" transform="translate(0,185.5)" style="opacity: 1;"><text class="legendtext" text-anchor="start" x="40" y="4.680000000000001" style="font-family: 'Open Sans', verdana, arial, sans-serif; font-size: 12px; fill: rgb(42, 63, 95); fill-opacity: 1; white-space: pre;">Psaha: 3%</text><g class="layers" style="opacity: 1;"><g class="legendfill"/><g class="legendlines"><path class="js-line" d="M5,0h30" style="fill: none; stroke: rgb(0, 51, 255); stroke-opacity: 1; stroke-width: 7px;"/></g><g class="legendsymbols"><g class="legendpoints"/></g></g><rect class="legendtoggle" x="0" y="-9.5" width="117.03125" height="19" style="fill: rgb(0, 0, 0); fill-opacity: 0;"/></g></g></g><rect class="scrollbar" rx="20" ry="3" width="0" height="0" style="fill: rgb(128, 139, 164); fill-opacity: 1;" x="0" y="0"/></g><g class="g-gtitle"/><g class="g-xtitle"/><g class="g-ytitle"/></g></svg>