<svg class="main-svg" xmlns="http://www.w3.org/2000/svg" xmlns:xlink="http://www.w3.org/1999/xlink" width="300" height="135" style="" viewBox="0 0 300 135"><rect x="0" y="0" width="300" height="135" style="fill: rgb(255, 255, 255); fill-opacity: 1;"/><defs id="defs-e304be"><g class="clips"><clipPath id="clipe304bexyplot" class="plotclip"><rect width="280" height="75"/></clipPath><clipPath class="axesclip" id="clipe304bex"><rect x="10" y="0" width="280" height="135"/></clipPath><clipPath class="axesclip" id="clipe304bey"><rect x="0" y="50" width="300" height="75"/></clipPath><clipPath class="axesclip" id="clipe304bexy"><rect x="10" y="50" width="280" height="75"/></clipPath></g><g class="gradients"/><g class="patterns"/></defs><g class="bglayer"/><g class="layer-below"><g class="imagelayer"/><g class="shapelayer"/></g><g class="cartesianlayer"><g class="subplot xy"><g class="layer-subplot"><g class="shapelayer"/><g class="imagelayer"/></g><g class="minor-gridlayer"><g class="x"/><g class="y"/></g><g class="gridlayer"><g class="x"><path class="xgrid crisp" transform="translate(29.76,0)" d="M0,50v75" style="stroke: rgb(235, 240, 248); stroke-opacity: 1; stroke-width: 1px;"/><path class="xgrid crisp" transform="translate(115.65,0)" d="M0,50v75" style="stroke: rgb(235, 240, 248); stroke-opacity: 1; stroke-width: 1px;"/><path class="xgrid crisp" transform="translate(201.53,0)" d="M0,50v75" style="stroke: rgb(235, 240, 248); stroke-opacity: 1; stroke-width: 1px;"/><path class="xgrid crisp" transform="translate(287.65,0)" d="M0,50v75" style="stroke: rgb(235, 240, 248); stroke-opacity: 1; stroke-width: 1px;"/></g><g class="y"><path class="ygrid crisp" transform="translate(0,104.13)" d="M10,0h280" style="stroke: rgb(235, 240, 248); stroke-opacity: 1; stroke-width: 1px;"/><path class="ygrid crisp" transform="translate(0,83.25999999999999)" d="M10,0h280" style="stroke: rgb(235, 240, 248); stroke-opacity: 1; stroke-width: 1px;"/><path class="ygrid crisp" transform="translate(0,62.39)" d="M10,0h280" style="stroke: rgb(235, 240, 248); stroke-opacity: 1; stroke-width: 1px;"/></g></g><g class="zerolinelayer"><path class="yzl zl crisp" transform="translate(0,125)" d="M10,0h280" style="stroke: rgb(235, 240, 248); stroke-opacity: 1; stroke-width: 2px;"/></g><path class="xlines-below"/><path class="ylines-below"/><g class="overlines-below"/><g class="xaxislayer-below"/><g class="yaxislayer-below"/><g class="overaxes-below"/><g class="plot" transform="translate(10,50)" clip-path="url(#clipe304bexyplot)"><g class="scatterlayer mlayer"><g class="trace scatter trace2d3598" style="stroke-miterlimit: 2; opacity: 1;"><g class="fills"/><g class="errorbars"/><g class="lines"><path class="js-line" d="M0,18.45Q4.3,18.51 7.53,18.67C13.39,18.96 26.68,21.12 32.24,20.38C35.19,19.99 36.64,18.66 38.82,18.1C40.88,17.57 42.85,17.41 44.94,17.04C47.15,16.64 50.26,16 51.76,15.78C52.49,15.67 52.74,15.71 53.41,15.61C54.5,15.44 55.97,15.08 57.65,14.73C60.13,14.21 64.34,13.15 66.82,12.77C68.49,12.51 69.89,12.38 71.06,12.36C71.89,12.35 72.49,12.5 73.18,12.51C73.83,12.52 74.38,12.43 75.06,12.41C75.85,12.39 76.79,12.42 77.65,12.43C78.51,12.44 79.51,12.43 80.24,12.47C80.78,12.5 81.02,12.55 81.65,12.59C82.94,12.68 86.03,12.56 87.53,12.88C88.51,13.09 88.83,13.71 89.88,13.8C91.85,13.97 95.1,12.58 98.59,12.02C103.74,11.19 116.59,10 117.88,9.71C118.03,9.68 117.99,9.67 118.12,9.63C118.75,9.46 122.1,8.47 123.53,8.48C124.48,8.49 124.97,8.97 125.88,9.03C127.13,9.11 129.1,8.77 130.35,8.58C131.27,8.44 131.8,8.38 132.71,8.09C134.07,7.66 136.49,6.3 137.65,5.95C138.25,5.77 138.79,5.73 139.06,5.69C139.17,5.67 139.16,5.68 139.29,5.66C139.98,5.55 143.66,4.5 145.88,4.44C148.13,4.38 150.08,5.1 152.71,5.34C156.29,5.67 163.3,6.26 165.41,6.02C166.13,5.94 166.47,5.69 166.82,5.61C167.02,5.57 167.04,5.58 167.29,5.54C168.2,5.41 172.15,4.71 173.65,4.64C174.46,4.6 174.82,4.75 175.53,4.73C176.47,4.71 177.77,4.55 178.82,4.42C179.8,4.3 181.1,4.05 181.65,3.99C181.87,3.96 181.96,3.96 182.12,3.95C182.28,3.94 182.35,3.94 182.59,3.93C183.34,3.91 185.47,3.76 187.29,3.85C189.85,3.97 195.62,4.81 196.47,4.88C196.61,4.89 196.63,4.9 196.71,4.89C196.79,4.88 196.81,4.86 196.94,4.85C197.57,4.78 201.51,4.86 202.59,4.64C203.05,4.55 203.07,4.32 203.53,4.29C204.7,4.2 209.19,5.54 209.88,5.63C210.01,5.65 210,5.64 210.12,5.64C210.42,5.65 211.08,5.57 211.76,5.63C212.89,5.72 214.81,6.17 216.24,6.4C217.55,6.61 218.72,6.81 220,6.94C221.31,7.07 222.55,7.04 224,7.16C225.72,7.31 228.56,7.65 229.65,7.81C230.1,7.87 230.59,7.97 230.59,7.97C230.59,7.97 230.59,7.97 230.59,7.97C230.59,7.97 234.66,9.22 236,9.25C236.79,9.27 237.12,8.97 237.88,8.89C239.05,8.77 240.71,9.09 242.35,8.81C244.46,8.45 248.27,6.75 249.41,6.48C249.76,6.39 249.82,6.43 250.12,6.37C250.64,6.27 251.39,6.07 252.24,5.89C253.5,5.62 256.36,4.98 256.94,4.93C257.07,4.92 257.18,4.94 257.18,4.94C257.18,4.94 257.18,4.94 257.18,4.94C257.18,4.94 258.68,4.68 259.53,4.5C260.54,4.29 261.99,3.83 262.82,3.75C263.31,3.7 263.63,3.79 264,3.79C264.33,3.79 264.58,3.76 264.94,3.78C265.41,3.8 265.89,3.9 266.59,3.97C267.8,4.09 270.45,4.3 271.53,4.38C272.06,4.42 272.17,4.43 272.71,4.46C273.92,4.52 277.58,4.64 278.59,4.69C278.94,4.71 279.06,4.7 279.29,4.73Q279.53,4.76 280,4.86" style="vector-effect: none; fill: none; stroke: rgb(38, 16, 96); stroke-opacity: 1; stroke-width: 5px; opacity: 1;"/></g><g class="points"/><g class="text"/></g><g class="trace scatter tracedd08bb" style="stroke-miterlimit: 2; opacity: 1;"><g class="fills"/><g class="errorbars"/><g class="lines"><path class="js-line" d="M264,64.44Q264.58,64.44 264.94,64.44C265.41,64.44 265.99,64.75 266.59,64.44C267.97,63.72 270.31,57.99 271.53,57.35C271.98,57.11 272.26,57.61 272.71,57.35C274.12,56.54 277.53,48.62 278.59,47.22C278.9,46.81 279.04,46.68 279.29,46.5Q279.51,46.34 280,46.18" style="vector-effect: none; fill: none; stroke: rgb(0, 68, 148); stroke-opacity: 1; stroke-width: 5px; opacity: 1;"/></g><g class="points"/><g class="text"/></g><g class="trace scatter trace78d385" style="stroke-miterlimit: 2; opacity: 1;"><g class="fills"/><g class="errorbars"/><g class="lines"><path class="js-line" d="M0,62.27Q3.56,53.5 7.53,51.63C13,49.06 26.65,52.66 32.24,53.49C35.15,53.92 36.67,54.44 38.82,54.95C40.9,55.44 42.87,55.78 44.94,56.48C47.18,57.23 50.27,58.72 51.76,59.4C52.5,59.74 52.73,59.89 53.41,60.19C54.49,60.67 55.93,61.45 57.65,61.91C60.09,62.57 64.34,62.96 66.82,63.21C68.5,63.38 69.89,63.4 71.06,63.46C71.89,63.5 72.5,63.59 73.18,63.55C73.83,63.51 74.38,63.33 75.06,63.26C75.85,63.18 76.79,63.23 77.65,63.16C78.52,63.09 79.51,62.94 80.24,62.82C80.78,62.73 81.02,62.61 81.65,62.56C82.94,62.46 86.01,62.73 87.53,62.71C88.49,62.7 88.85,62.66 89.88,62.6C91.87,62.48 95.12,62.23 98.59,61.98C103.76,61.61 116.59,60.66 117.88,60.61C118.02,60.6 117.99,60.61 118.12,60.61C118.75,60.62 122.1,60.58 123.53,60.73C124.48,60.83 124.97,61.09 125.88,61.19C127.13,61.32 129.1,61.16 130.35,61.26C131.26,61.33 131.78,61.49 132.71,61.6C134.05,61.75 136.5,61.94 137.65,62.01C138.26,62.05 138.79,62.07 139.06,62.07C139.17,62.07 139.16,62.06 139.29,62.06C139.98,62.06 143.66,62.39 145.88,62.37C148.14,62.35 150.08,62.03 152.71,61.92C156.29,61.77 163.3,61.9 165.41,61.72C166.12,61.66 166.48,61.55 166.82,61.5C167.02,61.47 167.04,61.46 167.29,61.44C168.2,61.38 172.16,61.5 173.65,61.46C174.46,61.44 174.82,61.37 175.53,61.35C176.47,61.32 177.76,61.36 178.82,61.35C179.8,61.34 181.1,61.33 181.65,61.31C181.87,61.3 181.96,61.29 182.12,61.28C182.28,61.27 182.35,61.27 182.59,61.26C183.34,61.23 185.46,61.2 187.29,61.1C189.84,60.97 195.62,60.48 196.47,60.45C196.61,60.45 196.63,60.45 196.71,60.45C196.79,60.45 196.81,60.45 196.94,60.44C197.57,60.39 201.5,59.81 202.59,59.81C203.04,59.81 203.08,59.87 203.53,59.91C204.71,60.02 209.19,60.43 209.88,60.44C210.01,60.44 210,60.44 210.12,60.43C210.42,60.41 211.08,60.38 211.76,60.28C212.89,60.12 214.81,59.65 216.24,59.41C217.55,59.19 218.73,59.08 220,58.88C221.31,58.67 222.55,58.36 224,58.16C225.72,57.92 228.56,57.77 229.65,57.58C230.1,57.5 230.59,57.34 230.59,57.34C230.59,57.34 230.59,57.34 230.59,57.34C230.59,57.34 234.66,56.35 236,56.14C236.78,56.02 237.12,56.04 237.88,55.96C239.05,55.83 240.69,55.58 242.35,55.4C244.43,55.18 248.28,55.01 249.41,54.76C249.78,54.68 249.82,54.62 250.12,54.51C250.64,54.31 251.38,53.93 252.24,53.64C253.49,53.21 256.36,52.43 256.94,52.34C257.07,52.32 257.18,52.33 257.18,52.33C257.18,52.33 257.18,52.33 257.18,52.33C257.18,52.33 258.68,52.39 259.53,52.43C260.53,52.48 262,52.55 262.82,52.63C263.31,52.68 263.63,52.78 264,52.79C264.33,52.8 264.58,52.74 264.94,52.72C265.41,52.69 265.89,52.72 266.59,52.66C267.8,52.56 270.45,52.14 271.53,51.99C272.06,51.92 272.17,51.84 272.71,51.83C273.92,51.82 277.58,52.48 278.59,52.5C278.94,52.51 279.06,52.48 279.29,52.45Q279.53,52.42 280,52.3" style="vector-effect: none; fill: none; stroke: rgb(206, 15, 104); stroke-opacity: 1; stroke-width: 5px; opacity: 1;"/></g><g class="points"/><g class="text"/></g><g class="trace scatter traced73cb7" style="stroke-miterlimit: 2; opacity: 1;"><g class="fills"/><g class="errorbars"/><g class="lines"><path class="js-line" d="M0,54.97Q4.3,55.19 7.53,55.01C13.4,54.68 26.64,52.03 32.24,52.1C35.14,52.14 36.67,53.07 38.82,53.04C40.9,53.01 42.84,52.31 44.94,51.99C47.15,51.66 50.26,51.26 51.76,51.1C52.5,51.02 52.74,51.06 53.41,50.97C54.5,50.82 55.96,50.39 57.65,50.15C60.12,49.8 64.34,49.45 66.82,49.3C68.5,49.2 69.89,49.25 71.06,49.19C71.89,49.15 72.5,49.01 73.18,49.02C73.83,49.03 74.38,49.23 75.06,49.25C75.85,49.28 76.79,49.06 77.65,49.12C78.52,49.18 79.51,49.52 80.24,49.64C80.78,49.73 81.02,49.76 81.65,49.82C82.94,49.95 86.01,50.1 87.53,50.25C88.49,50.34 88.85,50.47 89.88,50.53C91.86,50.64 95.16,49.97 98.59,50.44C103.8,51.15 116.59,55.84 117.88,56C118.02,56.02 117.99,55.99 118.12,55.99C118.75,55.99 122.1,55.99 123.53,56.13C124.48,56.22 124.97,56.43 125.88,56.52C127.13,56.64 129.1,56.65 130.35,56.66C131.26,56.67 131.78,56.62 132.71,56.62C134.06,56.62 136.5,56.69 137.65,56.68C138.26,56.68 138.79,56.64 139.06,56.64C139.17,56.64 139.16,56.65 139.29,56.65C139.98,56.63 143.66,56.03 145.88,55.97C148.13,55.91 150.09,56.48 152.71,56.33C156.3,56.12 163.29,54.27 165.41,54.16C166.11,54.12 166.48,54.24 166.82,54.25C167.02,54.26 167.04,54.26 167.29,54.25C168.2,54.22 172.16,53.89 173.65,53.83C174.46,53.8 174.82,53.8 175.53,53.81C176.47,53.82 177.77,53.78 178.82,53.92C179.81,54.05 181.1,54.49 181.65,54.58C181.87,54.61 181.96,54.61 182.12,54.62C182.28,54.64 182.35,54.65 182.59,54.67C183.34,54.73 185.46,54.92 187.29,54.97C189.84,55.04 195.62,54.89 196.47,54.9C196.61,54.9 196.63,54.9 196.71,54.91C196.79,54.92 196.81,54.92 196.94,54.94C197.57,55.03 201.5,55.6 202.59,55.77C203.04,55.84 203.08,55.85 203.53,55.93C204.71,56.13 209.19,56.98 209.88,57.02C210.01,57.03 210,57.01 210.12,57.01C210.42,57.01 211.08,57.08 211.76,57.08C212.89,57.08 214.82,56.83 216.24,56.91C217.55,56.98 218.73,57.22 220,57.47C221.32,57.73 222.55,58.16 224,58.45C225.71,58.8 228.56,59.21 229.65,59.35C230.09,59.41 230.59,59.44 230.59,59.44C230.59,59.44 230.59,59.44 230.59,59.44C230.59,59.44 234.66,59.72 236,59.76C236.79,59.78 237.12,59.71 237.88,59.75C239.05,59.8 240.69,60.15 242.35,60.19C244.43,60.24 248.28,59.86 249.41,59.82C249.77,59.81 249.82,59.81 250.12,59.81C250.64,59.81 251.39,59.85 252.24,59.86C253.5,59.87 256.36,59.85 256.94,59.84C257.07,59.84 257.18,59.83 257.18,59.83C257.18,59.83 257.18,59.83 257.18,59.83C257.18,59.83 258.68,60.12 259.53,60.16C260.53,60.21 262,60.06 262.82,60.02C263.31,59.99 263.63,59.94 264,59.95C264.33,59.96 264.58,60.01 264.94,60.04C265.41,60.08 265.89,60.14 266.59,60.19C267.8,60.27 270.45,60.3 271.53,60.41C272.06,60.46 272.17,60.59 272.71,60.59C273.92,60.59 277.58,59.79 278.59,59.68C278.94,59.64 279.06,59.64 279.29,59.64Q279.53,59.64 280,59.68" style="vector-effect: none; fill: none; stroke: rgb(234, 35, 41); stroke-opacity: 1; stroke-width: 5px; opacity: 1;"/></g><g class="points"/><g class="text"/></g><g class="trace scatter trace25937c" style="stroke-miterlimit: 2; opacity: 1;"><g class="fills"/><g class="errorbars"/><g class="lines"><path class="js-line" d="M0,55.17Q4.25,56.94 7.53,57.58C13.34,58.71 26.63,59.15 32.24,59.42C35.13,59.56 36.67,59.49 38.82,59.56C40.9,59.63 42.89,60.23 44.94,59.82C47.21,59.37 50.25,57.22 51.76,56.66C52.48,56.39 52.74,56.43 53.41,56.2C54.5,55.82 55.93,54.83 57.65,54.45C60.09,53.91 64.35,54.06 66.82,54.06C68.5,54.06 69.89,54.25 71.06,54.25C71.89,54.25 72.5,54.11 73.18,54.14C73.83,54.17 74.38,54.37 75.06,54.41C75.85,54.45 76.79,54.38 77.65,54.32C78.51,54.26 79.51,54.09 80.24,54.06C80.78,54.04 81.02,54.13 81.65,54.09C82.94,54 86.01,53.35 87.53,53.16C88.49,53.04 88.85,52.92 89.88,52.94C91.87,52.98 95.11,53.91 98.59,54.12C103.75,54.43 116.59,53.97 117.88,53.83C118.03,53.81 117.99,53.79 118.12,53.78C118.75,53.73 122.1,54.09 123.53,53.96C124.48,53.87 124.97,53.59 125.88,53.44C127.13,53.24 129.1,53.09 130.35,52.96C131.26,52.86 131.78,52.79 132.71,52.72C134.06,52.61 136.5,52.53 137.65,52.44C138.26,52.39 138.79,52.33 139.06,52.31C139.17,52.3 139.16,52.3 139.29,52.29C139.98,52.25 143.66,52.18 145.88,52.1C148.14,52.02 150.09,51.65 152.71,51.81C156.3,52.03 163.29,53.78 165.41,53.95C166.11,54.01 166.48,53.91 166.82,53.94C167.02,53.96 167.04,54.01 167.29,54.03C168.19,54.1 172.16,54 173.65,53.86C174.47,53.78 174.82,53.66 175.53,53.56C176.47,53.43 177.76,53.29 178.82,53.16C179.8,53.04 181.1,52.85 181.65,52.79C181.87,52.77 181.96,52.76 182.12,52.75C182.28,52.74 182.35,52.75 182.59,52.75C183.34,52.74 185.46,52.74 187.29,52.68C189.84,52.6 195.62,52.24 196.47,52.22C196.61,52.22 196.63,52.21 196.71,52.22C196.79,52.23 196.81,52.26 196.94,52.28C197.57,52.4 201.5,52.74 202.59,52.89C203.04,52.95 203.08,53 203.53,53.04C204.7,53.15 209.19,53.21 209.88,53.24C210.01,53.24 210,53.25 210.12,53.25C210.42,53.26 211.08,53.28 211.76,53.32C212.89,53.39 214.81,53.56 216.24,53.65C217.55,53.73 218.73,53.69 220,53.83C221.32,53.97 222.55,54.26 224,54.52C225.72,54.82 228.56,55.41 229.65,55.54C230.09,55.59 230.59,55.6 230.59,55.6C230.59,55.6 230.59,55.6 230.59,55.6C230.59,55.6 234.67,56.39 236,56.7C236.79,56.88 237.12,57 237.88,57.18C239.05,57.45 240.69,57.8 242.35,58.13C244.43,58.54 248.28,59.25 249.41,59.44C249.77,59.5 249.82,59.5 250.12,59.55C250.64,59.64 251.4,59.76 252.24,59.96C253.5,60.26 256.36,61.17 256.94,61.27C257.07,61.29 257.18,61.29 257.18,61.29C257.18,61.29 257.18,61.29 257.18,61.29C257.18,61.29 258.68,61.37 259.53,61.41C260.53,61.46 262,61.51 262.82,61.57C263.31,61.61 263.63,61.66 264,61.69C264.33,61.72 264.58,61.74 264.94,61.75C265.41,61.77 265.89,61.74 266.59,61.75C267.8,61.76 270.45,61.85 271.53,61.85C272.06,61.85 272.17,61.86 272.71,61.83C273.92,61.77 277.58,61.42 278.59,61.36C278.94,61.34 279.06,61.33 279.29,61.33Q279.53,61.33 280,61.37" style="vector-effect: none; fill: none; stroke: rgb(0, 0, 0); stroke-opacity: 1; stroke-width: 5px; opacity: 1;"/></g><g class="points"/><g class="text"/></g></g></g><g class="overplot"/><path class="xlines-above crisp" d="M0,0" style="fill: none;"/><path class="ylines-above crisp" d="M0,0" style="fill: none;"/><g class="overlines-above"/><g class="xaxislayer-above"/><g class="yaxislayer-above"/><g class="overaxes-above"/></g></g><g class="polarlayer"/><g class="smithlayer"/><g class="ternarylayer"/><g class="geolayer"/><g class="funnelarealayer"/><g class="pielayer"/><g class="iciclelayer"/><g class="treemaplayer"/><g class="sunburstlayer"/><g class="glimages"/><defs id="topdefs-e304be"><g class="clips"/></defs><g class="layer-above"><g class="imagelayer"/><g class="shapelayer"/></g><g class="infolayer"><g class="g-gtitle"><text class="gtitle" x="15" y="25" text-anchor="start" dy="0em" style="font-family: Ubuntu, verdana, arial, sans-serif; font-size: 16px; fill: rgb(233, 84, 32); opacity: 1; font-weight: normal; white-space: pre;">Sněmovna 2021-2025</text></g><g class="g-xtitle"/><g class="g-ytitle"/></g></svg>