<svg class="main-svg" xmlns="http://www.w3.org/2000/svg" xmlns:xlink="http://www.w3.org/1999/xlink" width="400" height="400" style="" viewBox="0 0 400 400"><rect x="0" y="0" width="400" height="400" style="fill: rgb(255, 255, 255); fill-opacity: 1;"/><defs id="defs-8c3b07"><g class="clips"><clipPath id="clip8c3b07xyplot" class="plotclip"><rect width="211" height="330"/></clipPath><clipPath class="axesclip" id="clip8c3b07x"><rect x="50" y="0" width="211" height="400"/></clipPath><clipPath class="axesclip" id="clip8c3b07y"><rect x="0" y="20" width="400" height="330"/></clipPath><clipPath class="axesclip" id="clip8c3b07xy"><rect x="50" y="20" width="211" height="330"/></clipPath></g><g class="gradients"/><g class="patterns"/></defs><g class="bglayer"/><g class="layer-below"><g class="imagelayer"/><g class="shapelayer"/></g><g class="cartesianlayer"><g class="subplot xy"><g class="layer-subplot"><g class="shapelayer"/><g class="imagelayer"/></g><g class="minor-gridlayer"><g class="x"/><g class="y"/></g><g class="gridlayer"><g class="x"><path class="xgrid crisp" transform="translate(62.2,0)" d="M0,20v330" style="stroke: rgb(235, 240, 248); stroke-opacity: 1; stroke-width: 1px;"/><path class="xgrid crisp" transform="translate(115.2,0)" d="M0,20v330" style="stroke: rgb(235, 240, 248); stroke-opacity: 1; stroke-width: 1px;"/><path class="xgrid crisp" transform="translate(168.20999999999998,0)" d="M0,20v330" style="stroke: rgb(235, 240, 248); stroke-opacity: 1; stroke-width: 1px;"/><path class="xgrid crisp" transform="translate(221.36,0)" d="M0,20v330" style="stroke: rgb(235, 240, 248); stroke-opacity: 1; stroke-width: 1px;"/></g><g class="y"><path class="ygrid crisp" transform="translate(0,305.77)" d="M50,0h211" style="stroke: rgb(235, 240, 248); stroke-opacity: 1; stroke-width: 1px;"/><path class="ygrid crisp" transform="translate(0,261.55)" d="M50,0h211" style="stroke: rgb(235, 240, 248); stroke-opacity: 1; stroke-width: 1px;"/><path class="ygrid crisp" transform="translate(0,217.32)" d="M50,0h211" style="stroke: rgb(235, 240, 248); stroke-opacity: 1; stroke-width: 1px;"/><path class="ygrid crisp" transform="translate(0,173.09)" d="M50,0h211" style="stroke: rgb(235, 240, 248); stroke-opacity: 1; stroke-width: 1px;"/><path class="ygrid crisp" transform="translate(0,128.86)" d="M50,0h211" style="stroke: rgb(235, 240, 248); stroke-opacity: 1; stroke-width: 1px;"/><path class="ygrid crisp" transform="translate(0,84.64)" d="M50,0h211" style="stroke: rgb(235, 240, 248); stroke-opacity: 1; stroke-width: 1px;"/><path class="ygrid crisp" transform="translate(0,40.41)" d="M50,0h211" style="stroke: rgb(235, 240, 248); stroke-opacity: 1; stroke-width: 1px;"/></g></g><g class="zerolinelayer"><path class="yzl zl crisp" transform="translate(0,350)" d="M50,0h211" style="stroke: rgb(235, 240, 248); stroke-opacity: 1; stroke-width: 2px;"/></g><path class="xlines-below"/><path class="ylines-below"/><g class="overlines-below"/><g class="xaxislayer-below"/><g class="yaxislayer-below"/><g class="overaxes-below"/><g class="plot" transform="translate(50,20)" clip-path="url(#clip8c3b07xyplot)"><g class="scatterlayer mlayer"><g class="trace scatter trace869a3f" style="stroke-miterlimit: 2; opacity: 1;"><g class="fills"><g><path class="js-fill" d="M0,43.43Q2.67,44.33 4.65,45.1C8.28,46.51 16.68,52.73 19.89,51.51C22.32,50.58 22.48,45.31 23.96,42.96C25.14,41.09 26.48,39.99 27.74,38.32C29.14,36.46 31.03,33.63 31.95,32.27C32.41,31.59 32.52,31.3 32.96,30.71C33.61,29.84 34.61,29 35.58,27.62C37.2,25.3 39.41,19.03 41.24,17.7C42.13,17.06 43,17.29 43.86,17.16C44.69,17.04 45.59,17 46.32,16.93C46.91,16.87 47.92,16.84 47.92,16.78C47.92,16.7 45.19,16.38 45.16,16.5C45.12,16.67 50.06,18.67 50.39,18.28C50.59,18.05 49.47,16.61 49.52,16.58C49.63,16.51 54.93,25.51 55.47,25.28C55.9,25.09 54.4,18.73 54.02,18.77C52.57,18.93 52.18,103.37 54.02,114.4C54.42,116.78 55.78,118.45 55.47,118.63C55.04,118.89 49.73,112.06 49.52,112.21C49.42,112.28 50.59,113.68 50.39,113.91C50.06,114.3 45.12,112.3 45.16,112.13C45.19,112.01 47.92,112.33 47.92,112.41C47.92,112.47 46.91,112.5 46.32,112.55C45.59,112.62 44.69,112.65 43.86,112.78C43,112.91 42.16,112.74 41.24,113.33C39.51,114.44 37.13,119.01 35.58,120.97C34.57,122.25 33.61,123.19 32.96,124.06C32.52,124.65 32.41,124.93 31.95,125.61C31.03,126.97 29.27,130.21 27.74,131.67C26.55,132.8 25.06,132.69 23.96,134.04C22.19,136.21 22.49,143.92 19.89,144.86C16.69,146.01 8.36,136.9 4.65,136.17Q2.73,135.79 0,136.78Z" style="fill: rgb(38, 16, 96); fill-opacity: 0.05; stroke-width: 0;"/></g></g><g class="errorbars"/><g class="lines"><path class="js-line" d="M0,43.43Q2.67,44.33 4.65,45.1C8.28,46.51 16.68,52.73 19.89,51.51C22.32,50.58 22.48,45.31 23.96,42.96C25.14,41.09 26.48,39.99 27.74,38.32C29.14,36.46 31.03,33.63 31.95,32.27C32.41,31.59 32.52,31.3 32.96,30.71C33.61,29.84 34.61,29 35.58,27.62C37.2,25.3 39.41,19.03 41.24,17.7C42.13,17.06 43,17.29 43.86,17.16C44.69,17.04 45.59,17 46.32,16.93C46.91,16.87 47.92,16.84 47.92,16.78C47.92,16.7 45.19,16.38 45.16,16.5C45.12,16.67 50.06,18.67 50.39,18.28C50.59,18.05 49.47,16.61 49.52,16.58C49.63,16.51 54.93,25.51 55.47,25.28C55.9,25.09 54.4,18.73 54.02,18.77C52.57,18.93 52.18,103.37 54.02,114.4C54.42,116.78 55.78,118.45 55.47,118.63C55.04,118.89 49.73,112.06 49.52,112.21C49.42,112.28 50.59,113.68 50.39,113.91C50.06,114.3 45.12,112.3 45.16,112.13C45.19,112.01 47.92,112.33 47.92,112.41C47.92,112.47 46.91,112.5 46.32,112.55C45.59,112.62 44.69,112.65 43.86,112.78C43,112.91 42.16,112.74 41.24,113.33C39.51,114.44 37.13,119.01 35.58,120.97C34.57,122.25 33.61,123.19 32.96,124.06C32.52,124.65 32.41,124.93 31.95,125.61C31.03,126.97 29.27,130.21 27.74,131.67C26.55,132.8 25.06,132.69 23.96,134.04C22.19,136.21 22.49,143.92 19.89,144.86C16.69,146.01 8.36,136.9 4.65,136.17Q2.73,135.79 0,136.78" style="vector-effect: non-scaling-stroke; fill: none; stroke: rgb(255, 255, 255); stroke-opacity: 0; stroke-width: 2px; opacity: 1;"/></g><g class="points"/><g class="text"/></g><g class="trace scatter tracea4f8cf" style="stroke-miterlimit: 2; opacity: 1;"><g class="fills"><g><path class="js-fill" d="M0,168.59Q2.89,162.81 4.65,157.59C8.64,145.76 15.91,108.69 19.89,98.2C21.41,94.19 22.26,91.12 23.96,90.25C25.07,89.68 26.68,89.78 27.74,90.84C30.53,93.62 30.29,115.93 31.95,117.1C32.28,117.33 32.64,116.7 32.96,116.91C34.1,117.68 34.28,125.55 35.58,129.91C36.97,134.58 39.31,141.77 41.24,144.02C42.1,145.02 43.04,145.66 43.86,145.56C44.74,145.46 45.62,143.11 46.32,143.18C46.95,143.24 48.08,145.33 47.92,145.52C47.75,145.71 45.11,144.54 45.16,144.17C45.22,143.68 50.16,142.74 50.39,143.11C50.51,143.3 49.54,144.29 49.52,144.28C49.46,144.24 54.96,134.72 55.47,134.93C55.86,135.09 54.4,137.97 54.02,141.33C52.71,153.03 52.71,220.87 54.02,221.02C54.4,221.06 55.97,214.87 55.47,214.62C54.87,214.32 49.56,221.73 49.52,221.7C49.5,221.69 50.51,220.71 50.39,220.52C50.15,220.15 45.22,221.09 45.16,221.58C45.11,221.95 47.75,223.12 47.92,222.93C48.08,222.74 46.95,220.65 46.32,220.59C45.62,220.52 44.74,222.88 43.86,222.98C43.04,223.08 42.12,222.4 41.24,221.43C39.4,219.42 36.98,213.52 35.58,209.6C34.3,206.01 34.01,199.56 32.96,198.88C32.64,198.67 32.28,199.29 31.95,199.06C30.42,198.01 30.29,179.82 27.74,177.36C26.68,176.34 25.11,176.29 23.96,176.77C22.4,177.42 21.38,179.42 19.89,182.44C15.81,190.72 8.68,222.97 4.65,232.72Q2.9,236.95 0,241.45Z" style="fill: rgb(0, 68, 148); fill-opacity: 0.05; stroke-width: 0;"/></g></g><g class="errorbars"/><g class="lines"><path class="js-line" d="M0,168.59Q2.89,162.81 4.65,157.59C8.64,145.76 15.91,108.69 19.89,98.2C21.41,94.19 22.26,91.12 23.96,90.25C25.07,89.68 26.68,89.78 27.74,90.84C30.53,93.62 30.29,115.93 31.95,117.1C32.28,117.33 32.64,116.7 32.96,116.91C34.1,117.68 34.28,125.55 35.58,129.91C36.97,134.58 39.31,141.77 41.24,144.02C42.1,145.02 43.04,145.66 43.86,145.56C44.74,145.46 45.62,143.11 46.32,143.18C46.95,143.24 48.08,145.33 47.92,145.52C47.75,145.71 45.11,144.54 45.16,144.17C45.22,143.68 50.16,142.74 50.39,143.11C50.51,143.3 49.54,144.29 49.52,144.28C49.46,144.24 54.96,134.72 55.47,134.93C55.86,135.09 54.4,137.97 54.02,141.33C52.71,153.03 52.71,220.87 54.02,221.02C54.4,221.06 55.97,214.87 55.47,214.62C54.87,214.32 49.56,221.73 49.52,221.7C49.5,221.69 50.51,220.71 50.39,220.52C50.15,220.15 45.22,221.09 45.16,221.58C45.11,221.95 47.75,223.12 47.92,222.93C48.08,222.74 46.95,220.65 46.32,220.59C45.62,220.52 44.74,222.88 43.86,222.98C43.04,223.08 42.12,222.4 41.24,221.43C39.4,219.42 36.98,213.52 35.58,209.6C34.3,206.01 34.01,199.56 32.96,198.88C32.64,198.67 32.28,199.29 31.95,199.06C30.42,198.01 30.29,179.82 27.74,177.36C26.68,176.34 25.11,176.29 23.96,176.77C22.4,177.42 21.38,179.42 19.89,182.44C15.81,190.72 8.68,222.97 4.65,232.72Q2.9,236.95 0,241.45" style="vector-effect: non-scaling-stroke; fill: none; stroke: rgb(255, 255, 255); stroke-opacity: 0; stroke-width: 2px; opacity: 1;"/></g><g class="points"/><g class="text"/></g><g class="trace scatter trace5637e0" style="stroke-miterlimit: 2; opacity: 1;"><g class="fills"><g><path class="js-fill" d="M0,214.5Q2.84,215.16 4.65,214.39C8.53,212.75 16.5,199.17 19.89,199.38C21.77,199.5 22.62,204.51 23.96,204.52C25.24,204.53 26.45,201.46 27.74,199.84C29.11,198.12 30.96,194.69 31.95,194.49C32.36,194.41 32.61,195.16 32.96,195.05C33.77,194.79 34.23,190.9 35.58,189.44C36.96,187.94 39.67,186.49 41.24,186.23C42.24,186.06 43,186.68 43.86,186.71C44.69,186.74 45.64,186.8 46.32,186.46C46.98,186.13 48.05,184.98 47.92,184.74C47.78,184.48 45.25,184.78 45.16,185.17C45.03,185.76 50.14,188.85 50.39,188.62C50.52,188.5 49.42,187.18 49.52,187.09C49.74,186.91 55.54,192.17 55.47,192.26C55.44,192.3 54.44,191.09 54.02,191.31C51.45,192.7 52.33,249.43 54.02,257.34C54.41,259.17 55.71,260.39 55.47,260.57C55.11,260.84 49.74,255.22 49.52,255.4C49.42,255.49 50.52,256.81 50.39,256.93C50.14,257.16 45.03,254.06 45.16,253.47C45.25,253.08 47.78,252.79 47.92,253.05C48.04,253.29 46.98,254.43 46.32,254.76C45.64,255.1 44.69,255.05 43.86,255.02C43,254.99 42.24,254.37 41.24,254.54C39.67,254.8 37.02,256.51 35.58,257.75C34.42,258.75 33.68,260.93 32.96,261.08C32.58,261.16 32.39,260.49 31.95,260.52C31.01,260.58 29.03,262.37 27.74,263.6C26.35,264.92 25.34,268.08 23.96,268.27C22.7,268.45 21.68,265.42 19.89,265.41C16.43,265.39 8.4,274.65 4.65,275.86Q2.77,276.47 0,275.97Z" style="fill: rgb(234, 35, 41); fill-opacity: 0.05; stroke-width: 0;"/></g></g><g class="errorbars"/><g class="lines"><path class="js-line" d="M0,214.5Q2.84,215.16 4.65,214.39C8.53,212.75 16.5,199.17 19.89,199.38C21.77,199.5 22.62,204.51 23.96,204.52C25.24,204.53 26.45,201.46 27.74,199.84C29.11,198.12 30.96,194.69 31.95,194.49C32.36,194.41 32.61,195.16 32.96,195.05C33.77,194.79 34.23,190.9 35.58,189.44C36.96,187.94 39.67,186.49 41.24,186.23C42.24,186.06 43,186.68 43.86,186.71C44.69,186.74 45.64,186.8 46.32,186.46C46.98,186.13 48.05,184.98 47.92,184.74C47.78,184.48 45.25,184.78 45.16,185.17C45.03,185.76 50.14,188.85 50.39,188.62C50.52,188.5 49.42,187.18 49.52,187.09C49.74,186.91 55.54,192.17 55.47,192.26C55.44,192.3 54.44,191.09 54.02,191.31C51.45,192.7 52.33,249.43 54.02,257.34C54.41,259.17 55.71,260.39 55.47,260.57C55.11,260.84 49.74,255.22 49.52,255.4C49.42,255.49 50.52,256.81 50.39,256.93C50.14,257.16 45.03,254.06 45.16,253.47C45.25,253.08 47.78,252.79 47.92,253.05C48.04,253.29 46.98,254.43 46.32,254.76C45.64,255.1 44.69,255.05 43.86,255.02C43,254.99 42.24,254.37 41.24,254.54C39.67,254.8 37.02,256.51 35.58,257.75C34.42,258.75 33.68,260.93 32.96,261.08C32.58,261.16 32.39,260.49 31.95,260.52C31.01,260.58 29.03,262.37 27.74,263.6C26.35,264.92 25.34,268.08 23.96,268.27C22.7,268.45 21.68,265.42 19.89,265.41C16.43,265.39 8.4,274.65 4.65,275.86Q2.77,276.47 0,275.97" style="vector-effect: non-scaling-stroke; fill: none; stroke: rgb(255, 255, 255); stroke-opacity: 0; stroke-width: 2px; opacity: 1;"/></g><g class="points"/><g class="text"/></g><g class="trace scatter trace866240" style="stroke-miterlimit: 2; opacity: 1;"><g class="fills"><g><path class="js-fill" d="M0,219.19Q2.34,223.91 4.65,226.26C8.07,229.73 16.31,235.84 19.89,236.66C21.58,237.05 22.64,235.95 23.96,236.05C25.26,236.15 26.66,237.82 27.74,237.25C29.81,236.16 30.99,226.11 31.95,223.32C32.37,222.1 32.57,221.85 32.96,220.72C33.66,218.71 33.97,214.13 35.58,212.21C36.94,210.59 39.72,209.27 41.24,209.3C42.29,209.32 42.98,210.68 43.86,210.79C44.67,210.89 45.59,210.12 46.32,210.11C46.91,210.1 47.89,210.57 47.92,210.49C47.96,210.38 45.09,209.23 45.16,208.98C45.25,208.65 50.39,209.16 50.39,209.26C50.39,209.3 49.61,209.53 49.52,209.38C49.23,208.88 55.25,201.42 55.47,201.55C55.6,201.63 54.41,202.87 54.02,204.63C52.32,212.23 51.44,266.86 54.02,268.38C54.44,268.63 55.42,267.5 55.47,267.58C55.59,267.75 49.35,272.76 49.52,273.13C49.58,273.25 50.39,273.05 50.39,273.01C50.39,272.91 45.19,272.97 45.16,272.73C45.14,272.56 47.77,271.74 47.92,271.97C48.06,272.18 46.96,273.77 46.32,273.86C45.62,273.96 44.72,272.38 43.86,272.26C43.03,272.14 42.29,272.83 41.24,273.05C39.72,273.36 36.95,272.66 35.58,273.68C34.09,274.79 33.82,279.14 32.96,279.92C32.62,280.23 32.3,279.9 31.95,280.24C30.74,281.4 29.67,290.94 27.74,291.89C26.65,292.43 25.26,290.79 23.96,290.69C22.64,290.59 21.65,291.49 19.89,291.3C16.39,290.92 8.03,288.18 4.65,285.46Q2.22,283.5 0,278.38Z" style="fill: rgb(0, 0, 0); fill-opacity: 0.05; stroke-width: 0;"/></g></g><g class="errorbars"/><g class="lines"><path class="js-line" d="M0,219.19Q2.34,223.91 4.65,226.26C8.07,229.73 16.31,235.84 19.89,236.66C21.58,237.05 22.64,235.95 23.96,236.05C25.26,236.15 26.66,237.82 27.74,237.25C29.81,236.16 30.99,226.11 31.95,223.32C32.37,222.1 32.57,221.85 32.96,220.72C33.66,218.71 33.97,214.13 35.58,212.21C36.94,210.59 39.72,209.27 41.24,209.3C42.29,209.32 42.98,210.68 43.86,210.79C44.67,210.89 45.59,210.12 46.32,210.11C46.91,210.1 47.89,210.57 47.92,210.49C47.96,210.38 45.09,209.23 45.16,208.98C45.25,208.65 50.39,209.16 50.39,209.26C50.39,209.3 49.61,209.53 49.52,209.38C49.23,208.88 55.25,201.42 55.47,201.55C55.6,201.63 54.41,202.87 54.02,204.63C52.32,212.23 51.44,266.86 54.02,268.38C54.44,268.63 55.42,267.5 55.47,267.58C55.59,267.75 49.35,272.76 49.52,273.13C49.58,273.25 50.39,273.05 50.39,273.01C50.39,272.91 45.19,272.97 45.16,272.73C45.14,272.56 47.77,271.74 47.92,271.97C48.06,272.18 46.96,273.77 46.32,273.86C45.62,273.96 44.72,272.38 43.86,272.26C43.03,272.14 42.29,272.83 41.24,273.05C39.72,273.36 36.95,272.66 35.58,273.68C34.09,274.79 33.82,279.14 32.96,279.92C32.62,280.23 32.3,279.9 31.95,280.24C30.74,281.4 29.67,290.94 27.74,291.89C26.65,292.43 25.26,290.79 23.96,290.69C22.64,290.59 21.65,291.49 19.89,291.3C16.39,290.92 8.03,288.18 4.65,285.46Q2.22,283.5 0,278.38" style="vector-effect: non-scaling-stroke; fill: none; stroke: rgb(255, 255, 255); stroke-opacity: 0; stroke-width: 2px; opacity: 1;"/></g><g class="points"/><g class="text"/></g><g class="trace scatter trace87fb51" style="stroke-miterlimit: 2; opacity: 1;"><g class="fills"><g><path class="js-fill" d="M0,231.38Q-0.05,198.92 4.65,196.82C8.07,195.29 16.65,203.58 19.89,207.16C22.09,209.59 22.64,212.16 23.96,214.63C25.25,217.04 26.58,218.89 27.74,221.78C29.34,225.79 31.02,233.51 31.95,236.75C32.4,238.31 32.54,238.81 32.96,240.22C33.62,242.45 34.14,246.39 35.58,248.85C36.95,251.18 39.61,253.56 41.24,254.71C42.21,255.39 42.99,255.56 43.86,255.9C44.68,256.23 45.64,256.93 46.32,256.74C46.98,256.56 47.94,254.88 47.92,254.87C47.9,254.85 45.13,257.78 45.16,257.81C45.2,257.85 50.29,252.72 50.39,252.81C50.43,252.85 49.4,253.83 49.52,254C49.77,254.35 55.17,251.73 55.47,252.15C55.66,252.41 54.41,252.96 54.02,254.19C52.3,259.58 51.67,299.23 54.02,302C54.43,302.48 55.47,302.21 55.47,302.24C55.46,302.3 49.79,302.39 49.52,301.81C49.39,301.52 50.43,300.67 50.39,300.63C50.29,300.54 45.2,305.66 45.16,305.62C45.13,305.59 47.9,302.66 47.92,302.68C47.94,302.69 46.98,304.38 46.32,304.56C45.64,304.75 44.69,304.04 43.86,303.71C42.99,303.36 42.26,303.07 41.24,302.52C39.69,301.68 36.96,300.58 35.58,298.94C34.18,297.28 33.72,293.84 32.96,292.59C32.6,291.99 32.34,292.03 31.95,291.39C30.91,289.67 29.31,283.72 27.74,280.98C26.57,278.95 25.24,277.76 23.96,276.11C22.63,274.4 21.93,272.62 19.89,270.91C16.59,268.15 8.02,261.21 4.65,262.84Q0.53,264.84 0,288.3Z" style="fill: rgb(93, 140, 0); fill-opacity: 0.05; stroke-width: 0;"/></g></g><g class="errorbars"/><g class="lines"><path class="js-line" d="M0,231.38Q-0.05,198.92 4.65,196.82C8.07,195.29 16.65,203.58 19.89,207.16C22.09,209.59 22.64,212.16 23.96,214.63C25.25,217.04 26.58,218.89 27.74,221.78C29.34,225.79 31.02,233.51 31.95,236.75C32.4,238.31 32.54,238.81 32.96,240.22C33.62,242.45 34.14,246.39 35.58,248.85C36.95,251.18 39.61,253.56 41.24,254.71C42.21,255.39 42.99,255.56 43.86,255.9C44.68,256.23 45.64,256.93 46.32,256.74C46.98,256.56 47.94,254.88 47.92,254.87C47.9,254.85 45.13,257.78 45.16,257.81C45.2,257.85 50.29,252.72 50.39,252.81C50.43,252.85 49.4,253.83 49.52,254C49.77,254.35 55.17,251.73 55.47,252.15C55.66,252.41 54.41,252.96 54.02,254.19C52.3,259.58 51.67,299.23 54.02,302C54.43,302.48 55.47,302.21 55.47,302.24C55.46,302.3 49.79,302.39 49.52,301.81C49.39,301.52 50.43,300.67 50.39,300.63C50.29,300.54 45.2,305.66 45.16,305.62C45.13,305.59 47.9,302.66 47.92,302.68C47.94,302.69 46.98,304.38 46.32,304.56C45.64,304.75 44.69,304.04 43.86,303.71C42.99,303.36 42.26,303.07 41.24,302.52C39.69,301.68 36.96,300.58 35.58,298.94C34.18,297.28 33.72,293.84 32.96,292.59C32.6,291.99 32.34,292.03 31.95,291.39C30.91,289.67 29.31,283.72 27.74,280.98C26.57,278.95 25.24,277.76 23.96,276.11C22.63,274.4 21.93,272.62 19.89,270.91C16.59,268.15 8.02,261.21 4.65,262.84Q0.53,264.84 0,288.3" style="vector-effect: non-scaling-stroke; fill: none; stroke: rgb(255, 255, 255); stroke-opacity: 0; stroke-width: 2px; opacity: 1;"/></g><g class="points"/><g class="text"/></g><g class="trace scatter tracef716ee" style="stroke-miterlimit: 2; opacity: 1;"><g class="fills"><g><path class="js-fill" d="M0,240.51Q2.8,240.67 4.65,241.63C8.46,243.59 16.68,250.3 19.89,254.9C22.3,258.36 22.43,262.69 23.96,265.57C25.12,267.76 26.27,270.62 27.74,270.97C28.99,271.27 31.01,268.83 31.95,268.71C32.39,268.65 32.57,269.05 32.96,268.96C33.67,268.79 34.5,267.46 35.58,266.68C37.07,265.61 39.74,263.24 41.24,263.35C42.31,263.43 42.95,265.26 43.86,265.47C44.65,265.65 45.62,265.24 46.32,264.89C46.96,264.57 47.87,263.48 47.92,263.53C47.99,263.6 44.99,266.56 45.16,266.76C45.36,267 50.39,263.77 50.39,263.76C50.39,263.76 49.52,264.23 49.52,264.24C49.53,264.26 55.31,261.03 55.47,261.25C55.56,261.37 54.42,261.78 54.02,262.78C52.17,267.42 52.17,307.58 54.02,308.32C54.42,308.48 55.6,307.06 55.47,306.79C55.24,306.34 49.93,306.76 49.52,307.5C49.29,307.93 50.62,308.86 50.39,309.29C50.02,309.98 45.19,310.16 45.16,310.02C45.13,309.91 47.84,308.92 47.92,309.06C47.99,309.18 46.92,310.4 46.32,310.43C45.6,310.47 44.74,308.98 43.86,308.73C43.04,308.5 42.27,308.75 41.24,308.88C39.71,309.07 37.04,309.23 35.58,309.94C34.45,310.49 33.67,312.05 32.96,312.22C32.57,312.31 32.39,311.91 31.95,311.97C31.01,312.09 28.99,314.53 27.74,314.23C26.27,313.88 25.23,310.69 23.96,308.82C22.62,306.85 22,304.68 19.89,302.71C16.62,299.66 8.34,295.47 4.65,294Q2.72,293.23 0,292.88Z" style="fill: rgb(114, 55, 105); fill-opacity: 0.05; stroke-width: 0;"/></g></g><g class="errorbars"/><g class="lines"><path class="js-line" d="M0,240.51Q2.8,240.67 4.65,241.63C8.46,243.59 16.68,250.3 19.89,254.9C22.3,258.36 22.43,262.69 23.96,265.57C25.12,267.76 26.27,270.62 27.74,270.97C28.99,271.27 31.01,268.83 31.95,268.71C32.39,268.65 32.57,269.05 32.96,268.96C33.67,268.79 34.5,267.46 35.58,266.68C37.07,265.61 39.74,263.24 41.24,263.35C42.31,263.43 42.95,265.26 43.86,265.47C44.65,265.65 45.62,265.24 46.32,264.89C46.96,264.57 47.87,263.48 47.92,263.53C47.99,263.6 44.99,266.56 45.16,266.76C45.36,267 50.39,263.77 50.39,263.76C50.39,263.76 49.52,264.23 49.52,264.24C49.53,264.26 55.31,261.03 55.47,261.25C55.56,261.37 54.42,261.78 54.02,262.78C52.17,267.42 52.17,307.58 54.02,308.32C54.42,308.48 55.6,307.06 55.47,306.79C55.24,306.34 49.93,306.76 49.52,307.5C49.29,307.93 50.62,308.86 50.39,309.29C50.02,309.98 45.19,310.16 45.16,310.02C45.13,309.91 47.84,308.92 47.92,309.06C47.99,309.18 46.92,310.4 46.32,310.43C45.6,310.47 44.74,308.98 43.86,308.73C43.04,308.5 42.27,308.75 41.24,308.88C39.71,309.07 37.04,309.23 35.58,309.94C34.45,310.49 33.67,312.05 32.96,312.22C32.57,312.31 32.39,311.91 31.95,311.97C31.01,312.09 28.99,314.53 27.74,314.23C26.27,313.88 25.23,310.69 23.96,308.82C22.62,306.85 22,304.68 19.89,302.71C16.62,299.66 8.34,295.47 4.65,294Q2.72,293.23 0,292.88" style="vector-effect: non-scaling-stroke; fill: none; stroke: rgb(255, 255, 255); stroke-opacity: 0; stroke-width: 2px; opacity: 1;"/></g><g class="points"/><g class="text"/></g><g class="trace scatter tracefa4e7c" style="stroke-miterlimit: 2; opacity: 1;"><g class="fills"><g><path class="js-fill" d="M0,251.15Q1.1,266.65 4.65,268.66C7.98,270.54 16.59,263.32 19.89,264.24C21.92,264.8 22.53,267.54 23.96,268.63C25.17,269.54 26.42,270.07 27.74,270.57C29.08,271.07 31.04,271.75 31.95,271.63C32.42,271.57 32.53,271.11 32.96,271.06C33.62,270.99 34.53,271.59 35.58,271.85C37.1,272.23 39.72,272.56 41.24,272.97C42.29,273.26 43.02,273.98 43.86,273.89C44.72,273.8 45.61,272.91 46.32,272.38C46.93,271.93 47.89,270.94 47.92,270.98C47.97,271.03 45.15,274.04 45.16,274.05C45.18,274.07 50,268.24 50.39,268.47C50.64,268.61 49.14,271.03 49.52,271.38C50.08,271.89 55.05,270.1 55.47,268.98C55.76,268.19 54.4,266.06 54.02,266.15C52.62,266.49 52.62,303.6 54.02,309.41C54.4,310.99 55.8,311.68 55.47,312.24C55.01,313 49.63,312.69 49.52,312.36C49.47,312.22 50.4,311.74 50.39,311.73C50.37,311.7 45.06,314.81 45.16,315.03C45.23,315.18 47.88,314.56 47.92,314.24C47.95,313.98 46.91,313.35 46.32,313.36C45.58,313.38 44.72,314.78 43.86,314.87C43.02,314.96 42.29,314.24 41.24,313.95C39.72,313.54 37.07,312.6 35.58,312.84C34.5,313.01 33.58,314.49 32.96,314.32C32.46,314.19 32.53,313.05 31.95,312.61C31.09,311.96 29.11,311.66 27.74,311.55C26.45,311.45 25.14,312.34 23.96,311.89C22.48,311.32 21.92,308.06 19.89,307.5C16.59,306.58 7.97,313.48 4.65,311.92Q1.81,310.59 0,301.24Z" style="fill: rgb(230, 172, 33); fill-opacity: 0.05; stroke-width: 0;"/></g></g><g class="errorbars"/><g class="lines"><path class="js-line" d="M0,251.15Q1.1,266.65 4.65,268.66C7.98,270.54 16.59,263.32 19.89,264.24C21.92,264.8 22.53,267.54 23.96,268.63C25.17,269.54 26.42,270.07 27.74,270.57C29.08,271.07 31.04,271.75 31.95,271.63C32.42,271.57 32.53,271.11 32.96,271.06C33.62,270.99 34.53,271.59 35.58,271.85C37.1,272.23 39.72,272.56 41.24,272.97C42.29,273.26 43.02,273.98 43.86,273.89C44.72,273.8 45.61,272.91 46.32,272.38C46.93,271.93 47.89,270.94 47.92,270.98C47.97,271.03 45.15,274.04 45.16,274.05C45.18,274.07 50,268.24 50.39,268.47C50.64,268.61 49.14,271.03 49.52,271.38C50.08,271.89 55.05,270.1 55.47,268.98C55.76,268.19 54.4,266.06 54.02,266.15C52.62,266.49 52.62,303.6 54.02,309.41C54.4,310.99 55.8,311.68 55.47,312.24C55.01,313 49.63,312.69 49.52,312.36C49.47,312.22 50.4,311.74 50.39,311.73C50.37,311.7 45.06,314.81 45.16,315.03C45.23,315.18 47.88,314.56 47.92,314.24C47.95,313.98 46.91,313.35 46.32,313.36C45.58,313.38 44.72,314.78 43.86,314.87C43.02,314.96 42.29,314.24 41.24,313.95C39.72,313.54 37.07,312.6 35.58,312.84C34.5,313.01 33.58,314.49 32.96,314.32C32.46,314.19 32.53,313.05 31.95,312.61C31.09,311.96 29.11,311.66 27.74,311.55C26.45,311.45 25.14,312.34 23.96,311.89C22.48,311.32 21.92,308.06 19.89,307.5C16.59,306.58 7.97,313.48 4.65,311.92Q1.81,310.59 0,301.24" style="vector-effect: non-scaling-stroke; fill: none; stroke: rgb(255, 255, 255); stroke-opacity: 0; stroke-width: 2px; opacity: 1;"/></g><g class="points"/><g class="text"/></g><g class="trace scatter trace7f3d73" style="stroke-miterlimit: 2; opacity: 1;"><g class="fills"><g><path class="js-fill" d="M0,267.36Q2.68,269.35 4.65,270.96C8.3,273.95 16.23,282.78 19.89,284.2C21.53,284.84 22.76,284.9 23.96,284.31C25.47,283.57 26.6,281.38 27.74,279.14C29.41,275.85 30.71,266.52 31.95,265.94C32.3,265.78 32.58,266.44 32.96,266.36C33.67,266.21 34.43,263.8 35.58,263.56C37.03,263.25 39.79,264.92 41.24,265.95C42.39,266.77 43.05,267.75 43.86,268.86C44.76,270.1 45.44,272.76 46.32,273.09C46.83,273.28 47.85,272.88 47.92,272.55C48.02,272.06 45.1,270.16 45.16,270.09C45.23,270 50.36,272.92 50.39,273.66C50.4,273.97 49.47,274.24 49.52,274.35C49.64,274.6 55.33,273.65 55.47,273.05C55.55,272.72 54.42,271.72 54.02,271.91C52.14,272.82 52.14,309.04 54.02,312.9C54.42,313.72 55.54,313.7 55.47,314.03C55.33,314.63 49.64,315.58 49.52,315.33C49.47,315.22 50.44,314.86 50.39,314.64C50.28,314.16 45.14,313.48 45.16,313.35C45.17,313.26 47.9,313.37 47.92,313.53C47.94,313.65 46.88,314.17 46.32,314.07C45.55,313.94 44.74,312.55 43.86,312.12C43.04,311.72 42.26,311.82 41.24,311.48C39.7,310.97 37.13,309.26 35.58,309.1C34.56,309 33.57,309.17 32.96,309.62C32.42,310.02 32.42,310.68 31.95,311.47C31.05,312.97 29.25,316.22 27.74,317.84C26.55,319.12 25.33,320.3 23.96,320.74C22.7,321.15 21.63,321.01 19.89,320.63C16.38,319.87 8.18,316.28 4.65,314.22Q2.55,312.99 0,310.62Z" style="fill: rgb(240, 125, 0); fill-opacity: 0.05; stroke-width: 0;"/></g></g><g class="errorbars"/><g class="lines"><path class="js-line" d="M0,267.36Q2.68,269.35 4.65,270.96C8.3,273.95 16.23,282.78 19.89,284.2C21.53,284.84 22.76,284.9 23.96,284.31C25.47,283.57 26.6,281.38 27.74,279.14C29.41,275.85 30.71,266.52 31.95,265.94C32.3,265.78 32.58,266.44 32.96,266.36C33.67,266.21 34.43,263.8 35.58,263.56C37.03,263.25 39.79,264.92 41.24,265.95C42.39,266.77 43.05,267.75 43.86,268.86C44.76,270.1 45.44,272.76 46.32,273.09C46.83,273.28 47.85,272.88 47.92,272.55C48.02,272.06 45.1,270.16 45.16,270.09C45.23,270 50.36,272.92 50.39,273.66C50.4,273.97 49.47,274.24 49.52,274.35C49.64,274.6 55.33,273.65 55.47,273.05C55.55,272.72 54.42,271.72 54.02,271.91C52.14,272.82 52.14,309.04 54.02,312.9C54.42,313.72 55.54,313.7 55.47,314.03C55.33,314.63 49.64,315.58 49.52,315.33C49.47,315.22 50.44,314.86 50.39,314.64C50.28,314.16 45.14,313.48 45.16,313.35C45.17,313.26 47.9,313.37 47.92,313.53C47.94,313.65 46.88,314.17 46.32,314.07C45.55,313.94 44.74,312.55 43.86,312.12C43.04,311.72 42.26,311.82 41.24,311.48C39.7,310.97 37.13,309.26 35.58,309.1C34.56,309 33.57,309.17 32.96,309.62C32.42,310.02 32.42,310.68 31.95,311.47C31.05,312.97 29.25,316.22 27.74,317.84C26.55,319.12 25.33,320.3 23.96,320.74C22.7,321.15 21.63,321.01 19.89,320.63C16.38,319.87 8.18,316.28 4.65,314.22Q2.55,312.99 0,310.62" style="vector-effect: non-scaling-stroke; fill: none; stroke: rgb(255, 255, 255); stroke-opacity: 0; stroke-width: 2px; opacity: 1;"/></g><g class="points"/><g class="text"/></g><g class="trace scatter tracefc65be" style="stroke-miterlimit: 2; opacity: 1;"><g class="fills"><g><path class="js-fill" d="M0,273.12Q1.7,282.26 4.65,284.24C7.96,286.46 16.47,284.99 19.89,284.34C21.72,283.99 22.66,282.56 23.96,282.7C25.28,282.84 26.43,284.44 27.74,285.27C29.09,286.12 31.08,286.9 31.95,287.73C32.48,288.23 32.45,288.96 32.96,289.25C33.58,289.6 34.62,289.71 35.58,289.36C37.22,288.76 39.63,285.15 41.24,284.11C42.22,283.48 42.98,283.13 43.86,282.99C44.68,282.86 45.59,283.12 46.32,283.19C46.91,283.25 47.92,283.36 47.92,283.38C47.92,283.41 45.16,283.29 45.16,283.26C45.16,283.22 50.39,283.24 50.39,283.21C50.39,283.2 49.57,283.03 49.52,283.16C49.37,283.54 55.62,287.38 55.47,288.11C55.4,288.43 54.42,288 54.02,288.53C52.12,291.06 52.12,321.25 54.02,322.68C54.42,322.98 55.45,322.49 55.47,322.26C55.5,321.77 49.47,319.79 49.52,319.59C49.54,319.52 50.39,319.63 50.39,319.64C50.39,319.67 45.16,319.65 45.16,319.69C45.16,319.72 47.92,319.84 47.92,319.81C47.92,319.79 46.91,319.68 46.32,319.62C45.59,319.55 44.68,319.29 43.86,319.42C42.98,319.56 42.27,320.05 41.24,320.54C39.7,321.27 37.15,323.16 35.58,323.51C34.58,323.74 33.58,323.75 32.96,323.4C32.45,323.11 32.52,322.2 31.95,321.88C31.08,321.39 29.05,322.13 27.74,321.7C26.38,321.25 25.28,319.27 23.96,319.13C22.66,318.99 21.72,320.42 19.89,320.77C16.47,321.42 8.02,322.43 4.65,320.67Q2.2,319.39 0,314.1Z" style="fill: rgb(0, 51, 255); fill-opacity: 0.05; stroke-width: 0;"/></g></g><g class="errorbars"/><g class="lines"><path class="js-line" d="M0,273.12Q1.7,282.26 4.65,284.24C7.96,286.46 16.47,284.99 19.89,284.34C21.72,283.99 22.66,282.56 23.96,282.7C25.28,282.84 26.43,284.44 27.74,285.27C29.09,286.12 31.08,286.9 31.95,287.73C32.48,288.23 32.45,288.96 32.96,289.25C33.58,289.6 34.62,289.71 35.58,289.36C37.22,288.76 39.63,285.15 41.24,284.11C42.22,283.48 42.98,283.13 43.86,282.99C44.68,282.86 45.59,283.12 46.32,283.19C46.91,283.25 47.92,283.36 47.92,283.38C47.92,283.41 45.16,283.29 45.16,283.26C45.16,283.22 50.39,283.24 50.39,283.21C50.39,283.2 49.57,283.03 49.52,283.16C49.37,283.54 55.62,287.38 55.47,288.11C55.4,288.43 54.42,288 54.02,288.53C52.12,291.06 52.12,321.25 54.02,322.68C54.42,322.98 55.45,322.49 55.47,322.26C55.5,321.77 49.47,319.79 49.52,319.59C49.54,319.52 50.39,319.63 50.39,319.64C50.39,319.67 45.16,319.65 45.16,319.69C45.16,319.72 47.92,319.84 47.92,319.81C47.92,319.79 46.91,319.68 46.32,319.62C45.59,319.55 44.68,319.29 43.86,319.42C42.98,319.56 42.27,320.05 41.24,320.54C39.7,321.27 37.15,323.16 35.58,323.51C34.58,323.74 33.58,323.75 32.96,323.4C32.45,323.11 32.52,322.2 31.95,321.88C31.08,321.39 29.05,322.13 27.74,321.7C26.38,321.25 25.28,319.27 23.96,319.13C22.66,318.99 21.72,320.42 19.89,320.77C16.47,321.42 8.02,322.43 4.65,320.67Q2.2,319.39 0,314.1" style="vector-effect: non-scaling-stroke; fill: none; stroke: rgb(255, 255, 255); stroke-opacity: 0; stroke-width: 2px; opacity: 1;"/></g><g class="points"/><g class="text"/></g><g class="trace scatter trace4a8a60" style="stroke-miterlimit: 2; opacity: 1;"><g class="fills"><g><path class="js-fill" d="M0,279.49Q2.85,278.16 4.65,278.78C8.56,280.13 16.34,294.69 19.89,294.97C21.6,295.1 22.54,292.3 23.96,291.82C25.18,291.41 26.48,292.15 27.74,291.85C29.15,291.52 31.01,289.95 31.95,289.7C32.39,289.59 32.57,289.79 32.96,289.66C33.66,289.42 34.47,288.14 35.58,287.79C37.05,287.33 39.72,287.71 41.24,287.88C42.29,288 43.07,287.97 43.86,288.43C44.79,288.97 45.65,290.14 46.32,291.2C47.02,292.31 47.9,295 47.92,294.99C47.95,294.98 44.85,288.06 45.16,287.89C45.49,287.71 50.66,294.23 50.39,294.92C50.3,295.14 49.53,295.11 49.52,295.08C49.5,295 55.21,292.7 55.47,293.07C55.63,293.3 54.4,293.82 54.02,294.91C52.68,298.78 52.28,322.14 54.02,324.5C54.41,325.03 55.48,324.87 55.47,324.95C55.44,325.12 49.53,324.81 49.52,324.68C49.52,324.63 50.37,324.64 50.39,324.51C50.43,324.17 45.31,321.82 45.16,322.04C45.04,322.21 47.92,324.59 47.92,324.59C47.92,324.59 46.97,323.41 46.32,323.08C45.63,322.72 44.69,322.76 43.86,322.59C43,322.41 42.29,322.15 41.24,322.03C39.72,321.86 37.05,321.48 35.58,321.94C34.47,322.29 33.57,323.97 32.96,323.81C32.43,323.67 32.57,321.8 31.95,321.58C31.09,321.28 29.15,323.39 27.74,323.72C26.48,324.02 25.24,323.56 23.96,323.69C22.62,323.83 21.64,324.76 19.89,324.57C16.38,324.18 8.32,318.01 4.65,317.49Q2.71,317.21 0,318.2Z" style="fill: rgb(140, 0, 0); fill-opacity: 0.05; stroke-width: 0;"/></g></g><g class="errorbars"/><g class="lines"><path class="js-line" d="M0,279.49Q2.85,278.16 4.65,278.78C8.56,280.13 16.34,294.69 19.89,294.97C21.6,295.1 22.54,292.3 23.96,291.82C25.18,291.41 26.48,292.15 27.74,291.85C29.15,291.52 31.01,289.95 31.95,289.7C32.39,289.59 32.57,289.79 32.96,289.66C33.66,289.42 34.47,288.14 35.58,287.79C37.05,287.33 39.72,287.71 41.24,287.88C42.29,288 43.07,287.97 43.86,288.43C44.79,288.97 45.65,290.14 46.32,291.2C47.02,292.31 47.9,295 47.92,294.99C47.95,294.98 44.85,288.06 45.16,287.89C45.49,287.71 50.66,294.23 50.39,294.92C50.3,295.14 49.53,295.11 49.52,295.08C49.5,295 55.21,292.7 55.47,293.07C55.63,293.3 54.4,293.82 54.02,294.91C52.68,298.78 52.28,322.14 54.02,324.5C54.41,325.03 55.48,324.87 55.47,324.95C55.44,325.12 49.53,324.81 49.52,324.68C49.52,324.63 50.37,324.64 50.39,324.51C50.43,324.17 45.31,321.82 45.16,322.04C45.04,322.21 47.92,324.59 47.92,324.59C47.92,324.59 46.97,323.41 46.32,323.08C45.63,322.72 44.69,322.76 43.86,322.59C43,322.41 42.29,322.15 41.24,322.03C39.72,321.86 37.05,321.48 35.58,321.94C34.47,322.29 33.57,323.97 32.96,323.81C32.43,323.67 32.57,321.8 31.95,321.58C31.09,321.28 29.15,323.39 27.74,323.72C26.48,324.02 25.24,323.56 23.96,323.69C22.62,323.83 21.64,324.76 19.89,324.57C16.38,324.18 8.32,318.01 4.65,317.49Q2.71,317.21 0,318.2" style="vector-effect: non-scaling-stroke; fill: none; stroke: rgb(255, 255, 255); stroke-opacity: 0; stroke-width: 2px; opacity: 1;"/></g><g class="points"/><g class="text"/></g><g class="trace scatter trace3a9583" style="stroke-miterlimit: 2; opacity: 1;"><g class="fills"/><g class="errorbars"/><g class="lines"><path class="js-line" d="M0,90.62Q2.71,90.66 4.65,91.23C8.33,92.32 16.69,99.7 19.89,98.48C22.41,97.52 22.41,91.33 23.96,88.81C25.11,86.93 26.46,85.91 27.74,84.35C29.12,82.66 30.98,79.95 31.95,79.02C32.37,78.62 32.58,78.68 32.96,78.3C33.68,77.57 34.55,76.06 35.58,74.56C37.11,72.34 39.56,67.91 41.24,66.26C42.18,65.34 42.96,64.76 43.86,64.53C44.66,64.33 45.59,64.69 46.32,64.76C46.91,64.82 47.92,64.85 47.92,64.91C47.92,64.99 45.16,65.08 45.16,65.19C45.16,65.33 50.3,65.94 50.39,65.69C50.43,65.58 49.57,65.05 49.52,65.11C49.37,65.28 55.01,72.59 55.47,72.34Q55.81,72.16 54.02,67.47" style="vector-effect: non-scaling-stroke; fill: none; stroke: rgb(38, 16, 96); stroke-opacity: 1; stroke-width: 7px; opacity: 1;"/></g><g class="points"/><g class="text"/></g><g class="trace scatter tracea1256d" style="stroke-miterlimit: 2; opacity: 1;"><g class="fills"/><g class="errorbars"/><g class="lines"/><g class="points"><path class="point" transform="translate(0,90.29)" d="M7.5,0A7.5,7.5 0 1,1 0,-7.5A7.5,7.5 0 0,1 7.5,0Z" style="opacity: 1; stroke-width: 0px; fill: rgb(38, 16, 96); fill-opacity: 0.25;"/><path class="point" transform="translate(4.65,91.17)" d="M7.5,0A7.5,7.5 0 1,1 0,-7.5A7.5,7.5 0 0,1 7.5,0Z" style="opacity: 1; stroke-width: 0px; fill: rgb(38, 16, 96); fill-opacity: 0.25;"/><path class="point" transform="translate(19.89,108.86)" d="M7.5,0A7.5,7.5 0 1,1 0,-7.5A7.5,7.5 0 0,1 7.5,0Z" style="opacity: 1; stroke-width: 0px; fill: rgb(38, 16, 96); fill-opacity: 0.25;"/><path class="point" transform="translate(23.96,86.75)" d="M7.5,0A7.5,7.5 0 1,1 0,-7.5A7.5,7.5 0 0,1 7.5,0Z" style="opacity: 1; stroke-width: 0px; fill: rgb(38, 16, 96); fill-opacity: 0.25;"/><path class="point" transform="translate(27.74,86.75)" d="M7.5,0A7.5,7.5 0 1,1 0,-7.5A7.5,7.5 0 0,1 7.5,0Z" style="opacity: 1; stroke-width: 0px; fill: rgb(38, 16, 96); fill-opacity: 0.25;"/><path class="point" transform="translate(31.95,77.91)" d="M7.5,0A7.5,7.5 0 1,1 0,-7.5A7.5,7.5 0 0,1 7.5,0Z" style="opacity: 1; stroke-width: 0px; fill: rgb(38, 16, 96); fill-opacity: 0.25;"/><path class="point" transform="translate(32.96,82.33)" d="M7.5,0A7.5,7.5 0 1,1 0,-7.5A7.5,7.5 0 0,1 7.5,0Z" style="opacity: 1; stroke-width: 0px; fill: rgb(38, 16, 96); fill-opacity: 0.25;"/><path class="point" transform="translate(35.58,73.48)" d="M7.5,0A7.5,7.5 0 1,1 0,-7.5A7.5,7.5 0 0,1 7.5,0Z" style="opacity: 1; stroke-width: 0px; fill: rgb(38, 16, 96); fill-opacity: 0.25;"/><path class="point" transform="translate(41.24,64.64)" d="M7.5,0A7.5,7.5 0 1,1 0,-7.5A7.5,7.5 0 0,1 7.5,0Z" style="opacity: 1; stroke-width: 0px; fill: rgb(38, 16, 96); fill-opacity: 0.25;"/><path class="point" transform="translate(43.86,54.91)" d="M7.5,0A7.5,7.5 0 1,1 0,-7.5A7.5,7.5 0 0,1 7.5,0Z" style="opacity: 1; stroke-width: 0px; fill: rgb(38, 16, 96); fill-opacity: 0.25;"/><path class="point" transform="translate(46.32,60.21)" d="M7.5,0A7.5,7.5 0 1,1 0,-7.5A7.5,7.5 0 0,1 7.5,0Z" style="opacity: 1; stroke-width: 0px; fill: rgb(38, 16, 96); fill-opacity: 0.25;"/><path class="point" transform="translate(47.92,64.64)" d="M7.5,0A7.5,7.5 0 1,1 0,-7.5A7.5,7.5 0 0,1 7.5,0Z" style="opacity: 1; stroke-width: 0px; fill: rgb(38, 16, 96); fill-opacity: 0.25;"/><path class="point" transform="translate(45.16,73.48)" d="M7.5,0A7.5,7.5 0 1,1 0,-7.5A7.5,7.5 0 0,1 7.5,0Z" style="opacity: 1; stroke-width: 0px; fill: rgb(38, 16, 96); fill-opacity: 0.25;"/><path class="point" transform="translate(50.39,69.06)" d="M7.5,0A7.5,7.5 0 1,1 0,-7.5A7.5,7.5 0 0,1 7.5,0Z" style="opacity: 1; stroke-width: 0px; fill: rgb(38, 16, 96); fill-opacity: 0.25;"/><path class="point" transform="translate(49.52,60.21)" d="M7.5,0A7.5,7.5 0 1,1 0,-7.5A7.5,7.5 0 0,1 7.5,0Z" style="opacity: 1; stroke-width: 0px; fill: rgb(38, 16, 96); fill-opacity: 0.25;"/><path class="point" transform="translate(55.47,95.6)" d="M7.5,0A7.5,7.5 0 1,1 0,-7.5A7.5,7.5 0 0,1 7.5,0Z" style="opacity: 1; stroke-width: 0px; fill: rgb(38, 16, 96); fill-opacity: 0.25;"/><path class="point" transform="translate(54.02,51.37)" d="M7.5,0A7.5,7.5 0 1,1 0,-7.5A7.5,7.5 0 0,1 7.5,0Z" style="opacity: 1; stroke-width: 0px; fill: rgb(38, 16, 96); fill-opacity: 0.25;"/></g><g class="text"/></g><g class="trace scatter trace510284" style="stroke-miterlimit: 2; opacity: 1;"><g class="fills"/><g class="errorbars"/><g class="lines"><path class="js-line" d="M0,204.53Q2.9,199.62 4.65,195.04C8.69,184.45 15.72,149.31 19.89,140.59C21.36,137.52 22.4,135.84 23.96,134.88C25.11,134.17 26.68,133.53 27.74,134.29C30.41,136.2 30.36,156.51 31.95,158.12C32.28,158.45 32.64,158 32.96,158.31C34.06,159.38 34.29,166.31 35.58,170.35C36.98,174.72 39.27,181.84 41.24,183.57C42.1,184.32 43.05,184.49 43.86,184.3C44.75,184.1 45.62,182.05 46.32,182.13C46.96,182.2 48.09,184.11 47.92,184.34C47.75,184.58 45.15,183.72 45.16,183.42C45.18,183.01 50.18,181.86 50.39,182.2C50.5,182.37 49.54,183.32 49.52,183.3C49.46,183.26 54.89,174.2 55.47,174.44Q55.96,174.64 54.02,181.7" style="vector-effect: non-scaling-stroke; fill: none; stroke: rgb(0, 68, 148); stroke-opacity: 1; stroke-width: 7px; opacity: 1;"/></g><g class="points"/><g class="text"/></g><g class="trace scatter trace38b2a2" style="stroke-miterlimit: 2; opacity: 1;"><g class="fills"/><g class="errorbars"/><g class="lines"/><g class="points"><path class="point" transform="translate(0,209.7)" d="M7.5,0A7.5,7.5 0 1,1 0,-7.5A7.5,7.5 0 0,1 7.5,0Z" style="opacity: 1; stroke-width: 0px; fill: rgb(0, 68, 148); fill-opacity: 0.25;"/><path class="point" transform="translate(4.65,192.9)" d="M7.5,0A7.5,7.5 0 1,1 0,-7.5A7.5,7.5 0 0,1 7.5,0Z" style="opacity: 1; stroke-width: 0px; fill: rgb(0, 68, 148); fill-opacity: 0.25;"/><path class="point" transform="translate(19.89,144.25)" d="M7.5,0A7.5,7.5 0 1,1 0,-7.5A7.5,7.5 0 0,1 7.5,0Z" style="opacity: 1; stroke-width: 0px; fill: rgb(0, 68, 148); fill-opacity: 0.25;"/><path class="point" transform="translate(23.96,130.98)" d="M7.5,0A7.5,7.5 0 1,1 0,-7.5A7.5,7.5 0 0,1 7.5,0Z" style="opacity: 1; stroke-width: 0px; fill: rgb(0, 68, 148); fill-opacity: 0.25;"/><path class="point" transform="translate(27.74,100.02)" d="M7.5,0A7.5,7.5 0 1,1 0,-7.5A7.5,7.5 0 0,1 7.5,0Z" style="opacity: 1; stroke-width: 0px; fill: rgb(0, 68, 148); fill-opacity: 0.25;"/><path class="point" transform="translate(31.95,184.05)" d="M7.5,0A7.5,7.5 0 1,1 0,-7.5A7.5,7.5 0 0,1 7.5,0Z" style="opacity: 1; stroke-width: 0px; fill: rgb(0, 68, 148); fill-opacity: 0.25;"/><path class="point" transform="translate(32.96,130.98)" d="M7.5,0A7.5,7.5 0 1,1 0,-7.5A7.5,7.5 0 0,1 7.5,0Z" style="opacity: 1; stroke-width: 0px; fill: rgb(0, 68, 148); fill-opacity: 0.25;"/><path class="point" transform="translate(35.58,187.59)" d="M7.5,0A7.5,7.5 0 1,1 0,-7.5A7.5,7.5 0 0,1 7.5,0Z" style="opacity: 1; stroke-width: 0px; fill: rgb(0, 68, 148); fill-opacity: 0.25;"/><path class="point" transform="translate(41.24,192.9)" d="M7.5,0A7.5,7.5 0 1,1 0,-7.5A7.5,7.5 0 0,1 7.5,0Z" style="opacity: 1; stroke-width: 0px; fill: rgb(0, 68, 148); fill-opacity: 0.25;"/><path class="point" transform="translate(43.86,192.9)" d="M7.5,0A7.5,7.5 0 1,1 0,-7.5A7.5,7.5 0 0,1 7.5,0Z" style="opacity: 1; stroke-width: 0px; fill: rgb(0, 68, 148); fill-opacity: 0.25;"/><path class="point" transform="translate(46.32,157.51)" d="M7.5,0A7.5,7.5 0 1,1 0,-7.5A7.5,7.5 0 0,1 7.5,0Z" style="opacity: 1; stroke-width: 0px; fill: rgb(0, 68, 148); fill-opacity: 0.25;"/><path class="point" transform="translate(47.92,204.39)" d="M7.5,0A7.5,7.5 0 1,1 0,-7.5A7.5,7.5 0 0,1 7.5,0Z" style="opacity: 1; stroke-width: 0px; fill: rgb(0, 68, 148); fill-opacity: 0.25;"/><path class="point" transform="translate(45.16,188.47)" d="M7.5,0A7.5,7.5 0 1,1 0,-7.5A7.5,7.5 0 0,1 7.5,0Z" style="opacity: 1; stroke-width: 0px; fill: rgb(0, 68, 148); fill-opacity: 0.25;"/><path class="point" transform="translate(50.39,170.78)" d="M7.5,0A7.5,7.5 0 1,1 0,-7.5A7.5,7.5 0 0,1 7.5,0Z" style="opacity: 1; stroke-width: 0px; fill: rgb(0, 68, 148); fill-opacity: 0.25;"/><path class="point" transform="translate(49.52,188.47)" d="M7.5,0A7.5,7.5 0 1,1 0,-7.5A7.5,7.5 0 0,1 7.5,0Z" style="opacity: 1; stroke-width: 0px; fill: rgb(0, 68, 148); fill-opacity: 0.25;"/><path class="point" transform="translate(55.47,139.82)" d="M7.5,0A7.5,7.5 0 1,1 0,-7.5A7.5,7.5 0 0,1 7.5,0Z" style="opacity: 1; stroke-width: 0px; fill: rgb(0, 68, 148); fill-opacity: 0.25;"/><path class="point" transform="translate(54.02,210.59)" d="M7.5,0A7.5,7.5 0 1,1 0,-7.5A7.5,7.5 0 0,1 7.5,0Z" style="opacity: 1; stroke-width: 0px; fill: rgb(0, 68, 148); fill-opacity: 0.25;"/></g><g class="text"/></g><g class="trace scatter trace86c4e0" style="stroke-miterlimit: 2; opacity: 1;"><g class="fills"/><g class="errorbars"/><g class="lines"><path class="js-line" d="M0,245.14Q2.8,245.88 4.65,245.25C8.45,243.96 16.48,232.77 19.89,232.93C21.73,233.02 22.66,236.97 23.96,236.91C25.28,236.85 26.4,233.84 27.74,232.47C29.06,231.12 31,229.39 31.95,228.72C32.38,228.42 32.59,228.49 32.96,228.16C33.69,227.52 34.42,225.74 35.58,224.66C37.02,223.32 39.66,221.66 41.24,221.04C42.23,220.65 43,220.59 43.86,220.56C44.69,220.53 45.6,220.91 46.32,220.82C46.92,220.75 47.93,220.4 47.92,220.25C47.9,220.05 45.24,219.61 45.16,219.83C45.04,220.16 50.34,223.28 50.39,223.21C50.41,223.18 49.5,222.49 49.52,222.46C49.57,222.39 55.39,226.49 55.47,226.39Q55.51,226.34 54.02,225.07" style="vector-effect: non-scaling-stroke; fill: none; stroke: rgb(234, 35, 41); stroke-opacity: 1; stroke-width: 7px; opacity: 1;"/></g><g class="points"/><g class="text"/></g><g class="trace scatter trace66cb07" style="stroke-miterlimit: 2; opacity: 1;"><g class="fills"/><g class="errorbars"/><g class="lines"/><g class="points"><path class="point" transform="translate(0,245.08)" d="M7.5,0A7.5,7.5 0 1,1 0,-7.5A7.5,7.5 0 0,1 7.5,0Z" style="opacity: 1; stroke-width: 0px; fill: rgb(234, 35, 41); fill-opacity: 0.25;"/><path class="point" transform="translate(4.65,245.97)" d="M7.5,0A7.5,7.5 0 1,1 0,-7.5A7.5,7.5 0 0,1 7.5,0Z" style="opacity: 1; stroke-width: 0px; fill: rgb(234, 35, 41); fill-opacity: 0.25;"/><path class="point" transform="translate(19.89,228.28)" d="M7.5,0A7.5,7.5 0 1,1 0,-7.5A7.5,7.5 0 0,1 7.5,0Z" style="opacity: 1; stroke-width: 0px; fill: rgb(234, 35, 41); fill-opacity: 0.25;"/><path class="point" transform="translate(23.96,245.97)" d="M7.5,0A7.5,7.5 0 1,1 0,-7.5A7.5,7.5 0 0,1 7.5,0Z" style="opacity: 1; stroke-width: 0px; fill: rgb(234, 35, 41); fill-opacity: 0.25;"/><path class="point" transform="translate(27.74,232.7)" d="M7.5,0A7.5,7.5 0 1,1 0,-7.5A7.5,7.5 0 0,1 7.5,0Z" style="opacity: 1; stroke-width: 0px; fill: rgb(234, 35, 41); fill-opacity: 0.25;"/><path class="point" transform="translate(31.95,228.28)" d="M7.5,0A7.5,7.5 0 1,1 0,-7.5A7.5,7.5 0 0,1 7.5,0Z" style="opacity: 1; stroke-width: 0px; fill: rgb(234, 35, 41); fill-opacity: 0.25;"/><path class="point" transform="translate(32.96,232.7)" d="M7.5,0A7.5,7.5 0 1,1 0,-7.5A7.5,7.5 0 0,1 7.5,0Z" style="opacity: 1; stroke-width: 0px; fill: rgb(234, 35, 41); fill-opacity: 0.25;"/><path class="point" transform="translate(35.58,219.43)" d="M7.5,0A7.5,7.5 0 1,1 0,-7.5A7.5,7.5 0 0,1 7.5,0Z" style="opacity: 1; stroke-width: 0px; fill: rgb(234, 35, 41); fill-opacity: 0.25;"/><path class="point" transform="translate(41.24,219.43)" d="M7.5,0A7.5,7.5 0 1,1 0,-7.5A7.5,7.5 0 0,1 7.5,0Z" style="opacity: 1; stroke-width: 0px; fill: rgb(234, 35, 41); fill-opacity: 0.25;"/><path class="point" transform="translate(43.86,224.74)" d="M7.5,0A7.5,7.5 0 1,1 0,-7.5A7.5,7.5 0 0,1 7.5,0Z" style="opacity: 1; stroke-width: 0px; fill: rgb(234, 35, 41); fill-opacity: 0.25;"/><path class="point" transform="translate(46.32,232.7)" d="M7.5,0A7.5,7.5 0 1,1 0,-7.5A7.5,7.5 0 0,1 7.5,0Z" style="opacity: 1; stroke-width: 0px; fill: rgb(234, 35, 41); fill-opacity: 0.25;"/><path class="point" transform="translate(47.92,203.51)" d="M7.5,0A7.5,7.5 0 1,1 0,-7.5A7.5,7.5 0 0,1 7.5,0Z" style="opacity: 1; stroke-width: 0px; fill: rgb(234, 35, 41); fill-opacity: 0.25;"/><path class="point" transform="translate(45.16,206.16)" d="M7.5,0A7.5,7.5 0 1,1 0,-7.5A7.5,7.5 0 0,1 7.5,0Z" style="opacity: 1; stroke-width: 0px; fill: rgb(234, 35, 41); fill-opacity: 0.25;"/><path class="point" transform="translate(50.39,228.28)" d="M7.5,0A7.5,7.5 0 1,1 0,-7.5A7.5,7.5 0 0,1 7.5,0Z" style="opacity: 1; stroke-width: 0px; fill: rgb(234, 35, 41); fill-opacity: 0.25;"/><path class="point" transform="translate(49.52,228.28)" d="M7.5,0A7.5,7.5 0 1,1 0,-7.5A7.5,7.5 0 0,1 7.5,0Z" style="opacity: 1; stroke-width: 0px; fill: rgb(234, 35, 41); fill-opacity: 0.25;"/><path class="point" transform="translate(55.47,232.7)" d="M7.5,0A7.5,7.5 0 1,1 0,-7.5A7.5,7.5 0 0,1 7.5,0Z" style="opacity: 1; stroke-width: 0px; fill: rgb(234, 35, 41); fill-opacity: 0.25;"/><path class="point" transform="translate(54.02,223.85)" d="M7.5,0A7.5,7.5 0 1,1 0,-7.5A7.5,7.5 0 0,1 7.5,0Z" style="opacity: 1; stroke-width: 0px; fill: rgb(234, 35, 41); fill-opacity: 0.25;"/></g><g class="text"/></g><g class="trace scatter trace4b298f" style="stroke-miterlimit: 2; opacity: 1;"><g class="fills"/><g class="errorbars"/><g class="lines"><path class="js-line" d="M0,249.56Q2.31,254.12 4.65,256.15C8.06,259.11 16.36,262.83 19.89,263.96C21.62,264.52 22.64,264.28 23.96,264.57C25.25,264.85 26.66,266.23 27.74,265.65C29.78,264.55 30.94,254.69 31.95,252.25C32.35,251.28 32.58,251.18 32.96,250.3C33.68,248.64 34.01,244.37 35.58,242.88C36.94,241.59 39.71,241.22 41.24,241.23C42.28,241.23 43,241.77 43.86,242.02C44.69,242.26 45.59,242.69 46.32,242.7C46.91,242.71 47.92,242.48 47.92,242.32C47.92,242.11 45.14,241.73 45.16,241.55C45.19,241.31 50.39,241.38 50.39,241.28C50.39,241.24 49.58,241.35 49.52,241.16C49.33,240.59 55.46,235.31 55.47,235.32Q55.48,235.33 54.02,236.79" style="vector-effect: non-scaling-stroke; fill: none; stroke: rgb(0, 0, 0); stroke-opacity: 1; stroke-width: 7px; opacity: 1;"/></g><g class="points"/><g class="text"/></g><g class="trace scatter trace0dee60" style="stroke-miterlimit: 2; opacity: 1;"><g class="fills"/><g class="errorbars"/><g class="lines"/><g class="points"><path class="point" transform="translate(0,245.97)" d="M7.5,0A7.5,7.5 0 1,1 0,-7.5A7.5,7.5 0 0,1 7.5,0Z" style="opacity: 1; stroke-width: 0px; fill: rgb(0, 0, 0); fill-opacity: 0.25;"/><path class="point" transform="translate(4.65,259.24)" d="M7.5,0A7.5,7.5 0 1,1 0,-7.5A7.5,7.5 0 0,1 7.5,0Z" style="opacity: 1; stroke-width: 0px; fill: rgb(0, 0, 0); fill-opacity: 0.25;"/><path class="point" transform="translate(19.89,263.66)" d="M7.5,0A7.5,7.5 0 1,1 0,-7.5A7.5,7.5 0 0,1 7.5,0Z" style="opacity: 1; stroke-width: 0px; fill: rgb(0, 0, 0); fill-opacity: 0.25;"/><path class="point" transform="translate(23.96,263.66)" d="M7.5,0A7.5,7.5 0 1,1 0,-7.5A7.5,7.5 0 0,1 7.5,0Z" style="opacity: 1; stroke-width: 0px; fill: rgb(0, 0, 0); fill-opacity: 0.25;"/><path class="point" transform="translate(27.74,285.77)" d="M7.5,0A7.5,7.5 0 1,1 0,-7.5A7.5,7.5 0 0,1 7.5,0Z" style="opacity: 1; stroke-width: 0px; fill: rgb(0, 0, 0); fill-opacity: 0.25;"/><path class="point" transform="translate(31.95,250.39)" d="M7.5,0A7.5,7.5 0 1,1 0,-7.5A7.5,7.5 0 0,1 7.5,0Z" style="opacity: 1; stroke-width: 0px; fill: rgb(0, 0, 0); fill-opacity: 0.25;"/><path class="point" transform="translate(32.96,254.81)" d="M7.5,0A7.5,7.5 0 1,1 0,-7.5A7.5,7.5 0 0,1 7.5,0Z" style="opacity: 1; stroke-width: 0px; fill: rgb(0, 0, 0); fill-opacity: 0.25;"/><path class="point" transform="translate(35.58,225.62)" d="M7.5,0A7.5,7.5 0 1,1 0,-7.5A7.5,7.5 0 0,1 7.5,0Z" style="opacity: 1; stroke-width: 0px; fill: rgb(0, 0, 0); fill-opacity: 0.25;"/><path class="point" transform="translate(41.24,237.12)" d="M7.5,0A7.5,7.5 0 1,1 0,-7.5A7.5,7.5 0 0,1 7.5,0Z" style="opacity: 1; stroke-width: 0px; fill: rgb(0, 0, 0); fill-opacity: 0.25;"/><path class="point" transform="translate(43.86,247.74)" d="M7.5,0A7.5,7.5 0 1,1 0,-7.5A7.5,7.5 0 0,1 7.5,0Z" style="opacity: 1; stroke-width: 0px; fill: rgb(0, 0, 0); fill-opacity: 0.25;"/><path class="point" transform="translate(46.32,254.81)" d="M7.5,0A7.5,7.5 0 1,1 0,-7.5A7.5,7.5 0 0,1 7.5,0Z" style="opacity: 1; stroke-width: 0px; fill: rgb(0, 0, 0); fill-opacity: 0.25;"/><path class="point" transform="translate(47.92,246.85)" d="M7.5,0A7.5,7.5 0 1,1 0,-7.5A7.5,7.5 0 0,1 7.5,0Z" style="opacity: 1; stroke-width: 0px; fill: rgb(0, 0, 0); fill-opacity: 0.25;"/><path class="point" transform="translate(45.16,228.28)" d="M7.5,0A7.5,7.5 0 1,1 0,-7.5A7.5,7.5 0 0,1 7.5,0Z" style="opacity: 1; stroke-width: 0px; fill: rgb(0, 0, 0); fill-opacity: 0.25;"/><path class="point" transform="translate(50.39,250.39)" d="M7.5,0A7.5,7.5 0 1,1 0,-7.5A7.5,7.5 0 0,1 7.5,0Z" style="opacity: 1; stroke-width: 0px; fill: rgb(0, 0, 0); fill-opacity: 0.25;"/><path class="point" transform="translate(49.52,232.7)" d="M7.5,0A7.5,7.5 0 1,1 0,-7.5A7.5,7.5 0 0,1 7.5,0Z" style="opacity: 1; stroke-width: 0px; fill: rgb(0, 0, 0); fill-opacity: 0.25;"/><path class="point" transform="translate(55.47,228.28)" d="M7.5,0A7.5,7.5 0 1,1 0,-7.5A7.5,7.5 0 0,1 7.5,0Z" style="opacity: 1; stroke-width: 0px; fill: rgb(0, 0, 0); fill-opacity: 0.25;"/><path class="point" transform="translate(54.02,232.7)" d="M7.5,0A7.5,7.5 0 1,1 0,-7.5A7.5,7.5 0 0,1 7.5,0Z" style="opacity: 1; stroke-width: 0px; fill: rgb(0, 0, 0); fill-opacity: 0.25;"/></g><g class="text"/></g><g class="trace scatter tracec04536" style="stroke-miterlimit: 2; opacity: 1;"><g class="fills"/><g class="errorbars"/><g class="lines"><path class="js-line" d="M0,260.14Q0.19,233.2 4.65,230.95C8.04,229.23 16.63,235.89 19.89,238.82C22.03,240.75 22.66,242.9 23.96,245.01C25.27,247.13 26.56,248.94 27.74,251.52C29.29,254.92 31.04,261.04 31.95,263.87C32.42,265.34 32.52,265.9 32.96,267.23C33.61,269.21 34.21,272.41 35.58,274.54C36.96,276.69 39.62,279 41.24,280.07C42.21,280.71 43,281.12 43.86,281.15C44.69,281.18 45.58,280.53 46.32,280.31C46.91,280.14 47.89,279.83 47.92,279.91C47.97,280.03 45.21,281.59 45.16,281.52C45.09,281.42 50.28,277.3 50.39,277.41C50.44,277.46 49.4,278.28 49.52,278.5C49.76,278.96 55.46,278.01 55.47,278.07Q55.47,278.1 54.02,278.31" style="vector-effect: non-scaling-stroke; fill: none; stroke: rgb(93, 140, 0); stroke-opacity: 1; stroke-width: 7px; opacity: 1;"/></g><g class="points"/><g class="text"/></g><g class="trace scatter trace5b1585" style="stroke-miterlimit: 2; opacity: 1;"><g class="fills"/><g class="errorbars"/><g class="lines"/><g class="points"><path class="point" transform="translate(0,276.04)" d="M7.5,0A7.5,7.5 0 1,1 0,-7.5A7.5,7.5 0 0,1 7.5,0Z" style="opacity: 1; stroke-width: 0px; fill: rgb(93, 140, 0); fill-opacity: 0.25;"/><path class="point" transform="translate(4.65,215.01)" d="M7.5,0A7.5,7.5 0 1,1 0,-7.5A7.5,7.5 0 0,1 7.5,0Z" style="opacity: 1; stroke-width: 0px; fill: rgb(93, 140, 0); fill-opacity: 0.25;"/><path class="point" transform="translate(19.89,232.7)" d="M7.5,0A7.5,7.5 0 1,1 0,-7.5A7.5,7.5 0 0,1 7.5,0Z" style="opacity: 1; stroke-width: 0px; fill: rgb(93, 140, 0); fill-opacity: 0.25;"/><path class="point" transform="translate(23.96,241.55)" d="M7.5,0A7.5,7.5 0 1,1 0,-7.5A7.5,7.5 0 0,1 7.5,0Z" style="opacity: 1; stroke-width: 0px; fill: rgb(93, 140, 0); fill-opacity: 0.25;"/><path class="point" transform="translate(27.74,241.55)" d="M7.5,0A7.5,7.5 0 1,1 0,-7.5A7.5,7.5 0 0,1 7.5,0Z" style="opacity: 1; stroke-width: 0px; fill: rgb(93, 140, 0); fill-opacity: 0.25;"/><path class="point" transform="translate(31.95,254.81)" d="M7.5,0A7.5,7.5 0 1,1 0,-7.5A7.5,7.5 0 0,1 7.5,0Z" style="opacity: 1; stroke-width: 0px; fill: rgb(93, 140, 0); fill-opacity: 0.25;"/><path class="point" transform="translate(32.96,272.5)" d="M7.5,0A7.5,7.5 0 1,1 0,-7.5A7.5,7.5 0 0,1 7.5,0Z" style="opacity: 1; stroke-width: 0px; fill: rgb(93, 140, 0); fill-opacity: 0.25;"/><path class="point" transform="translate(35.58,287.54)" d="M7.5,0A7.5,7.5 0 1,1 0,-7.5A7.5,7.5 0 0,1 7.5,0Z" style="opacity: 1; stroke-width: 0px; fill: rgb(93, 140, 0); fill-opacity: 0.25;"/><path class="point" transform="translate(41.24,281.35)" d="M7.5,0A7.5,7.5 0 1,1 0,-7.5A7.5,7.5 0 0,1 7.5,0Z" style="opacity: 1; stroke-width: 0px; fill: rgb(93, 140, 0); fill-opacity: 0.25;"/><path class="point" transform="translate(43.86,281.35)" d="M7.5,0A7.5,7.5 0 1,1 0,-7.5A7.5,7.5 0 0,1 7.5,0Z" style="opacity: 1; stroke-width: 0px; fill: rgb(93, 140, 0); fill-opacity: 0.25;"/><path class="point" transform="translate(46.32,272.5)" d="M7.5,0A7.5,7.5 0 1,1 0,-7.5A7.5,7.5 0 0,1 7.5,0Z" style="opacity: 1; stroke-width: 0px; fill: rgb(93, 140, 0); fill-opacity: 0.25;"/><path class="point" transform="translate(47.92,285.77)" d="M7.5,0A7.5,7.5 0 1,1 0,-7.5A7.5,7.5 0 0,1 7.5,0Z" style="opacity: 1; stroke-width: 0px; fill: rgb(93, 140, 0); fill-opacity: 0.25;"/><path class="point" transform="translate(45.16,294.62)" d="M7.5,0A7.5,7.5 0 1,1 0,-7.5A7.5,7.5 0 0,1 7.5,0Z" style="opacity: 1; stroke-width: 0px; fill: rgb(93, 140, 0); fill-opacity: 0.25;"/><path class="point" transform="translate(50.39,263.66)" d="M7.5,0A7.5,7.5 0 1,1 0,-7.5A7.5,7.5 0 0,1 7.5,0Z" style="opacity: 1; stroke-width: 0px; fill: rgb(93, 140, 0); fill-opacity: 0.25;"/><path class="point" transform="translate(49.52,281.35)" d="M7.5,0A7.5,7.5 0 1,1 0,-7.5A7.5,7.5 0 0,1 7.5,0Z" style="opacity: 1; stroke-width: 0px; fill: rgb(93, 140, 0); fill-opacity: 0.25;"/><path class="point" transform="translate(55.47,276.93)" d="M7.5,0A7.5,7.5 0 1,1 0,-7.5A7.5,7.5 0 0,1 7.5,0Z" style="opacity: 1; stroke-width: 0px; fill: rgb(93, 140, 0); fill-opacity: 0.25;"/><path class="point" transform="translate(54.02,281.35)" d="M7.5,0A7.5,7.5 0 1,1 0,-7.5A7.5,7.5 0 0,1 7.5,0Z" style="opacity: 1; stroke-width: 0px; fill: rgb(93, 140, 0); fill-opacity: 0.25;"/></g><g class="text"/></g><g class="trace scatter tracee0f2fe" style="stroke-miterlimit: 2; opacity: 1;"><g class="fills"/><g class="errorbars"/><g class="lines"><path class="js-line" d="M0,266.94Q2.77,267.19 4.65,268.1C8.41,269.92 16.64,276.04 19.89,279.87C22.06,282.43 22.59,285.07 23.96,287.42C25.21,289.55 26.24,293.01 27.74,293.4C28.98,293.72 31.01,291.47 31.95,291.11C32.39,290.94 32.57,291.06 32.96,290.86C33.67,290.49 34.45,289.14 35.58,288.58C37.04,287.85 39.71,287.49 41.24,287.37C42.27,287.29 43.01,287.4 43.86,287.52C44.7,287.64 45.6,288.19 46.32,288.09C46.93,288 47.93,287.21 47.92,287.19C47.91,287.16 45.13,288.42 45.16,288.51C45.2,288.62 50.34,287.38 50.39,286.96C50.41,286.78 49.5,286.65 49.52,286.47C49.58,286.03 55.42,284.77 55.47,284.91Q55.5,284.98 54.02,285.65" style="vector-effect: non-scaling-stroke; fill: none; stroke: rgb(114, 55, 105); stroke-opacity: 1; stroke-width: 7px; opacity: 1;"/></g><g class="points"/><g class="text"/></g><g class="trace scatter trace841a98" style="stroke-miterlimit: 2; opacity: 1;"><g class="fills"/><g class="errorbars"/><g class="lines"/><g class="points"><path class="point" transform="translate(0,266.31)" d="M7.5,0A7.5,7.5 0 1,1 0,-7.5A7.5,7.5 0 0,1 7.5,0Z" style="opacity: 1; stroke-width: 0px; fill: rgb(114, 55, 105); fill-opacity: 0.25;"/><path class="point" transform="translate(4.65,268.08)" d="M7.5,0A7.5,7.5 0 1,1 0,-7.5A7.5,7.5 0 0,1 7.5,0Z" style="opacity: 1; stroke-width: 0px; fill: rgb(114, 55, 105); fill-opacity: 0.25;"/><path class="point" transform="translate(19.89,272.5)" d="M7.5,0A7.5,7.5 0 1,1 0,-7.5A7.5,7.5 0 0,1 7.5,0Z" style="opacity: 1; stroke-width: 0px; fill: rgb(114, 55, 105); fill-opacity: 0.25;"/><path class="point" transform="translate(23.96,285.77)" d="M7.5,0A7.5,7.5 0 1,1 0,-7.5A7.5,7.5 0 0,1 7.5,0Z" style="opacity: 1; stroke-width: 0px; fill: rgb(114, 55, 105); fill-opacity: 0.25;"/><path class="point" transform="translate(27.74,303.46)" d="M7.5,0A7.5,7.5 0 1,1 0,-7.5A7.5,7.5 0 0,1 7.5,0Z" style="opacity: 1; stroke-width: 0px; fill: rgb(114, 55, 105); fill-opacity: 0.25;"/><path class="point" transform="translate(31.95,290.2)" d="M7.5,0A7.5,7.5 0 1,1 0,-7.5A7.5,7.5 0 0,1 7.5,0Z" style="opacity: 1; stroke-width: 0px; fill: rgb(114, 55, 105); fill-opacity: 0.25;"/><path class="point" transform="translate(32.96,294.62)" d="M7.5,0A7.5,7.5 0 1,1 0,-7.5A7.5,7.5 0 0,1 7.5,0Z" style="opacity: 1; stroke-width: 0px; fill: rgb(114, 55, 105); fill-opacity: 0.25;"/><path class="point" transform="translate(35.58,284)" d="M7.5,0A7.5,7.5 0 1,1 0,-7.5A7.5,7.5 0 0,1 7.5,0Z" style="opacity: 1; stroke-width: 0px; fill: rgb(114, 55, 105); fill-opacity: 0.25;"/><path class="point" transform="translate(41.24,285.77)" d="M7.5,0A7.5,7.5 0 1,1 0,-7.5A7.5,7.5 0 0,1 7.5,0Z" style="opacity: 1; stroke-width: 0px; fill: rgb(114, 55, 105); fill-opacity: 0.25;"/><path class="point" transform="translate(43.86,280.47)" d="M7.5,0A7.5,7.5 0 1,1 0,-7.5A7.5,7.5 0 0,1 7.5,0Z" style="opacity: 1; stroke-width: 0px; fill: rgb(114, 55, 105); fill-opacity: 0.25;"/><path class="point" transform="translate(46.32,290.2)" d="M7.5,0A7.5,7.5 0 1,1 0,-7.5A7.5,7.5 0 0,1 7.5,0Z" style="opacity: 1; stroke-width: 0px; fill: rgb(114, 55, 105); fill-opacity: 0.25;"/><path class="point" transform="translate(47.92,285.77)" d="M7.5,0A7.5,7.5 0 1,1 0,-7.5A7.5,7.5 0 0,1 7.5,0Z" style="opacity: 1; stroke-width: 0px; fill: rgb(114, 55, 105); fill-opacity: 0.25;"/><path class="point" transform="translate(45.16,299.04)" d="M7.5,0A7.5,7.5 0 1,1 0,-7.5A7.5,7.5 0 0,1 7.5,0Z" style="opacity: 1; stroke-width: 0px; fill: rgb(114, 55, 105); fill-opacity: 0.25;"/><path class="point" transform="translate(50.39,294.62)" d="M7.5,0A7.5,7.5 0 1,1 0,-7.5A7.5,7.5 0 0,1 7.5,0Z" style="opacity: 1; stroke-width: 0px; fill: rgb(114, 55, 105); fill-opacity: 0.25;"/><path class="point" transform="translate(49.52,276.93)" d="M7.5,0A7.5,7.5 0 1,1 0,-7.5A7.5,7.5 0 0,1 7.5,0Z" style="opacity: 1; stroke-width: 0px; fill: rgb(114, 55, 105); fill-opacity: 0.25;"/><path class="point" transform="translate(55.47,281.35)" d="M7.5,0A7.5,7.5 0 1,1 0,-7.5A7.5,7.5 0 0,1 7.5,0Z" style="opacity: 1; stroke-width: 0px; fill: rgb(114, 55, 105); fill-opacity: 0.25;"/><path class="point" transform="translate(54.02,285.77)" d="M7.5,0A7.5,7.5 0 1,1 0,-7.5A7.5,7.5 0 0,1 7.5,0Z" style="opacity: 1; stroke-width: 0px; fill: rgb(114, 55, 105); fill-opacity: 0.25;"/></g><g class="text"/></g><g class="trace scatter trace570016" style="stroke-miterlimit: 2; opacity: 1;"><g class="fills"/><g class="errorbars"/><g class="lines"><path class="js-line" d="M0,276.79Q1.43,289.48 4.65,291.16C7.96,292.88 16.6,285.52 19.89,286.47C21.95,287.06 22.46,290.42 23.96,291.19C25.13,291.79 26.46,291.29 27.74,291.53C29.12,291.79 31.04,292.36 31.95,292.74C32.42,292.94 32.53,293.26 32.96,293.31C33.62,293.38 34.53,292.57 35.58,292.52C37.1,292.45 39.74,293.15 41.24,293.68C42.31,294.06 42.98,294.96 43.86,295.04C44.68,295.11 45.6,294.59 46.32,294.28C46.93,294.02 47.92,293.39 47.92,293.39C47.92,293.38 45.19,294.93 45.16,294.88C45.12,294.81 50.12,291.11 50.39,291.35C50.54,291.48 49.33,292.78 49.52,293C49.87,293.4 55.24,291.71 55.47,290.84Q55.61,290.32 54.02,289.12" style="vector-effect: non-scaling-stroke; fill: none; stroke: rgb(230, 172, 33); stroke-opacity: 1; stroke-width: 7px; opacity: 1;"/></g><g class="points"/><g class="text"/></g><g class="trace scatter tracef52e14" style="stroke-miterlimit: 2; opacity: 1;"><g class="fills"/><g class="errorbars"/><g class="lines"/><g class="points"><path class="point" transform="translate(0,268.97)" d="M7.5,0A7.5,7.5 0 1,1 0,-7.5A7.5,7.5 0 0,1 7.5,0Z" style="opacity: 1; stroke-width: 0px; fill: rgb(230, 172, 33); fill-opacity: 0.25;"/><path class="point" transform="translate(4.65,299.04)" d="M7.5,0A7.5,7.5 0 1,1 0,-7.5A7.5,7.5 0 0,1 7.5,0Z" style="opacity: 1; stroke-width: 0px; fill: rgb(230, 172, 33); fill-opacity: 0.25;"/><path class="point" transform="translate(19.89,281.35)" d="M7.5,0A7.5,7.5 0 1,1 0,-7.5A7.5,7.5 0 0,1 7.5,0Z" style="opacity: 1; stroke-width: 0px; fill: rgb(230, 172, 33); fill-opacity: 0.25;"/><path class="point" transform="translate(23.96,294.62)" d="M7.5,0A7.5,7.5 0 1,1 0,-7.5A7.5,7.5 0 0,1 7.5,0Z" style="opacity: 1; stroke-width: 0px; fill: rgb(230, 172, 33); fill-opacity: 0.25;"/><path class="point" transform="translate(27.74,290.2)" d="M7.5,0A7.5,7.5 0 1,1 0,-7.5A7.5,7.5 0 0,1 7.5,0Z" style="opacity: 1; stroke-width: 0px; fill: rgb(230, 172, 33); fill-opacity: 0.25;"/><path class="point" transform="translate(31.95,290.2)" d="M7.5,0A7.5,7.5 0 1,1 0,-7.5A7.5,7.5 0 0,1 7.5,0Z" style="opacity: 1; stroke-width: 0px; fill: rgb(230, 172, 33); fill-opacity: 0.25;"/><path class="point" transform="translate(32.96,299.04)" d="M7.5,0A7.5,7.5 0 1,1 0,-7.5A7.5,7.5 0 0,1 7.5,0Z" style="opacity: 1; stroke-width: 0px; fill: rgb(230, 172, 33); fill-opacity: 0.25;"/><path class="point" transform="translate(35.58,289.31)" d="M7.5,0A7.5,7.5 0 1,1 0,-7.5A7.5,7.5 0 0,1 7.5,0Z" style="opacity: 1; stroke-width: 0px; fill: rgb(230, 172, 33); fill-opacity: 0.25;"/><path class="point" transform="translate(41.24,290.2)" d="M7.5,0A7.5,7.5 0 1,1 0,-7.5A7.5,7.5 0 0,1 7.5,0Z" style="opacity: 1; stroke-width: 0px; fill: rgb(230, 172, 33); fill-opacity: 0.25;"/><path class="point" transform="translate(43.86,299.93)" d="M7.5,0A7.5,7.5 0 1,1 0,-7.5A7.5,7.5 0 0,1 7.5,0Z" style="opacity: 1; stroke-width: 0px; fill: rgb(230, 172, 33); fill-opacity: 0.25;"/><path class="point" transform="translate(46.32,294.62)" d="M7.5,0A7.5,7.5 0 1,1 0,-7.5A7.5,7.5 0 0,1 7.5,0Z" style="opacity: 1; stroke-width: 0px; fill: rgb(230, 172, 33); fill-opacity: 0.25;"/><path class="point" transform="translate(47.92,290.2)" d="M7.5,0A7.5,7.5 0 1,1 0,-7.5A7.5,7.5 0 0,1 7.5,0Z" style="opacity: 1; stroke-width: 0px; fill: rgb(230, 172, 33); fill-opacity: 0.25;"/><path class="point" transform="translate(45.16,299.04)" d="M7.5,0A7.5,7.5 0 1,1 0,-7.5A7.5,7.5 0 0,1 7.5,0Z" style="opacity: 1; stroke-width: 0px; fill: rgb(230, 172, 33); fill-opacity: 0.25;"/><path class="point" transform="translate(50.39,276.93)" d="M7.5,0A7.5,7.5 0 1,1 0,-7.5A7.5,7.5 0 0,1 7.5,0Z" style="opacity: 1; stroke-width: 0px; fill: rgb(230, 172, 33); fill-opacity: 0.25;"/><path class="point" transform="translate(49.52,307.89)" d="M7.5,0A7.5,7.5 0 1,1 0,-7.5A7.5,7.5 0 0,1 7.5,0Z" style="opacity: 1; stroke-width: 0px; fill: rgb(230, 172, 33); fill-opacity: 0.25;"/><path class="point" transform="translate(55.47,299.04)" d="M7.5,0A7.5,7.5 0 1,1 0,-7.5A7.5,7.5 0 0,1 7.5,0Z" style="opacity: 1; stroke-width: 0px; fill: rgb(230, 172, 33); fill-opacity: 0.25;"/><path class="point" transform="translate(54.02,276.93)" d="M7.5,0A7.5,7.5 0 1,1 0,-7.5A7.5,7.5 0 0,1 7.5,0Z" style="opacity: 1; stroke-width: 0px; fill: rgb(230, 172, 33); fill-opacity: 0.25;"/></g><g class="text"/></g><g class="trace scatter traceec1861" style="stroke-miterlimit: 2; opacity: 1;"><g class="fills"/><g class="errorbars"/><g class="lines"><path class="js-line" d="M0,290.18Q2.63,292.08 4.65,293.41C8.25,295.78 16.32,301.97 19.89,302.94C21.59,303.4 22.73,303.37 23.96,302.83C25.39,302.2 26.58,300.63 27.74,298.9C29.34,296.51 30.82,290.44 31.95,289.33C32.32,288.97 32.56,289.12 32.96,288.9C33.64,288.53 34.5,287.27 35.58,287.15C37.07,286.98 39.74,288.57 41.24,289.32C42.31,289.85 43.04,290.29 43.86,290.96C44.74,291.68 45.52,293.06 46.32,293.57C46.87,293.92 47.87,294.2 47.92,294.1C47.99,293.96 45.13,292.06 45.16,292.01C45.21,291.94 50.35,295.33 50.39,295.27C50.41,295.25 49.47,294.78 49.52,294.58C49.64,294.11 55.33,294.16 55.47,293.6Q55.55,293.29 54.02,292.46" style="vector-effect: non-scaling-stroke; fill: none; stroke: rgb(240, 125, 0); stroke-opacity: 1; stroke-width: 7px; opacity: 1;"/></g><g class="points"/><g class="text"/></g><g class="trace scatter trace48ed6f" style="stroke-miterlimit: 2; opacity: 1;"><g class="fills"/><g class="errorbars"/><g class="lines"/><g class="points"><path class="point" transform="translate(0,288.43)" d="M7.5,0A7.5,7.5 0 1,1 0,-7.5A7.5,7.5 0 0,1 7.5,0Z" style="opacity: 1; stroke-width: 0px; fill: rgb(240, 125, 0); fill-opacity: 0.25;"/><path class="point" transform="translate(4.65,294.62)" d="M7.5,0A7.5,7.5 0 1,1 0,-7.5A7.5,7.5 0 0,1 7.5,0Z" style="opacity: 1; stroke-width: 0px; fill: rgb(240, 125, 0); fill-opacity: 0.25;"/><path class="point" transform="translate(19.89,303.46)" d="M7.5,0A7.5,7.5 0 1,1 0,-7.5A7.5,7.5 0 0,1 7.5,0Z" style="opacity: 1; stroke-width: 0px; fill: rgb(240, 125, 0); fill-opacity: 0.25;"/><path class="point" transform="translate(23.96,307.89)" d="M7.5,0A7.5,7.5 0 1,1 0,-7.5A7.5,7.5 0 0,1 7.5,0Z" style="opacity: 1; stroke-width: 0px; fill: rgb(240, 125, 0); fill-opacity: 0.25;"/><path class="point" transform="translate(27.74,307.89)" d="M7.5,0A7.5,7.5 0 1,1 0,-7.5A7.5,7.5 0 0,1 7.5,0Z" style="opacity: 1; stroke-width: 0px; fill: rgb(240, 125, 0); fill-opacity: 0.25;"/><path class="point" transform="translate(31.95,281.35)" d="M7.5,0A7.5,7.5 0 1,1 0,-7.5A7.5,7.5 0 0,1 7.5,0Z" style="opacity: 1; stroke-width: 0px; fill: rgb(240, 125, 0); fill-opacity: 0.25;"/><path class="point" transform="translate(32.96,290.2)" d="M7.5,0A7.5,7.5 0 1,1 0,-7.5A7.5,7.5 0 0,1 7.5,0Z" style="opacity: 1; stroke-width: 0px; fill: rgb(240, 125, 0); fill-opacity: 0.25;"/><path class="point" transform="translate(35.58,280.47)" d="M7.5,0A7.5,7.5 0 1,1 0,-7.5A7.5,7.5 0 0,1 7.5,0Z" style="opacity: 1; stroke-width: 0px; fill: rgb(240, 125, 0); fill-opacity: 0.25;"/><path class="point" transform="translate(41.24,285.77)" d="M7.5,0A7.5,7.5 0 1,1 0,-7.5A7.5,7.5 0 0,1 7.5,0Z" style="opacity: 1; stroke-width: 0px; fill: rgb(240, 125, 0); fill-opacity: 0.25;"/><path class="point" transform="translate(43.86,287.54)" d="M7.5,0A7.5,7.5 0 1,1 0,-7.5A7.5,7.5 0 0,1 7.5,0Z" style="opacity: 1; stroke-width: 0px; fill: rgb(240, 125, 0); fill-opacity: 0.25;"/><path class="point" transform="translate(46.32,303.46)" d="M7.5,0A7.5,7.5 0 1,1 0,-7.5A7.5,7.5 0 0,1 7.5,0Z" style="opacity: 1; stroke-width: 0px; fill: rgb(240, 125, 0); fill-opacity: 0.25;"/><path class="point" transform="translate(47.92,294.62)" d="M7.5,0A7.5,7.5 0 1,1 0,-7.5A7.5,7.5 0 0,1 7.5,0Z" style="opacity: 1; stroke-width: 0px; fill: rgb(240, 125, 0); fill-opacity: 0.25;"/><path class="point" transform="translate(45.16,285.77)" d="M7.5,0A7.5,7.5 0 1,1 0,-7.5A7.5,7.5 0 0,1 7.5,0Z" style="opacity: 1; stroke-width: 0px; fill: rgb(240, 125, 0); fill-opacity: 0.25;"/><path class="point" transform="translate(50.39,307.89)" d="M7.5,0A7.5,7.5 0 1,1 0,-7.5A7.5,7.5 0 0,1 7.5,0Z" style="opacity: 1; stroke-width: 0px; fill: rgb(240, 125, 0); fill-opacity: 0.25;"/><path class="point" transform="translate(49.52,290.2)" d="M7.5,0A7.5,7.5 0 1,1 0,-7.5A7.5,7.5 0 0,1 7.5,0Z" style="opacity: 1; stroke-width: 0px; fill: rgb(240, 125, 0); fill-opacity: 0.25;"/><path class="point" transform="translate(55.47,299.04)" d="M7.5,0A7.5,7.5 0 1,1 0,-7.5A7.5,7.5 0 0,1 7.5,0Z" style="opacity: 1; stroke-width: 0px; fill: rgb(240, 125, 0); fill-opacity: 0.25;"/><path class="point" transform="translate(54.02,281.35)" d="M7.5,0A7.5,7.5 0 1,1 0,-7.5A7.5,7.5 0 0,1 7.5,0Z" style="opacity: 1; stroke-width: 0px; fill: rgb(240, 125, 0); fill-opacity: 0.25;"/></g><g class="text"/></g><g class="trace scatter traceb33e17" style="stroke-miterlimit: 2; opacity: 1;"><g class="fills"/><g class="errorbars"/><g class="lines"><path class="js-line" d="M0,293.53Q1.9,301.2 4.65,302.9C7.97,304.95 16.44,303.08 19.89,302.8C21.69,302.66 22.66,301.95 23.96,302.17C25.28,302.39 26.44,303.49 27.74,304.15C29.1,304.85 31.04,305.69 31.95,306.25C32.42,306.54 32.51,306.86 32.96,307C33.6,307.2 34.59,307.22 35.58,306.89C37.17,306.36 39.68,303.9 41.24,303.03C42.25,302.47 42.98,302.1 43.86,301.88C44.68,301.67 45.59,301.75 46.32,301.68C46.91,301.62 47.92,301.51 47.92,301.49C47.92,301.46 45.16,301.57 45.16,301.6C45.16,301.64 50.39,301.63 50.39,301.66C50.39,301.67 49.56,301.57 49.52,301.7C49.41,302.09 55.58,305.65 55.47,305.87Q55.42,305.97 54.02,305.44" style="vector-effect: non-scaling-stroke; fill: none; stroke: rgb(0, 51, 255); stroke-opacity: 1; stroke-width: 7px; opacity: 1;"/></g><g class="points"/><g class="text"/></g><g class="trace scatter tracec3c0cc" style="stroke-miterlimit: 2; opacity: 1;"><g class="fills"/><g class="errorbars"/><g class="lines"/><g class="points"><path class="point" transform="translate(0,288.43)" d="M7.5,0A7.5,7.5 0 1,1 0,-7.5A7.5,7.5 0 0,1 7.5,0Z" style="opacity: 1; stroke-width: 0px; fill: rgb(0, 51, 255); fill-opacity: 0.25;"/><path class="point" transform="translate(4.65,307.89)" d="M7.5,0A7.5,7.5 0 1,1 0,-7.5A7.5,7.5 0 0,1 7.5,0Z" style="opacity: 1; stroke-width: 0px; fill: rgb(0, 51, 255); fill-opacity: 0.25;"/><path class="point" transform="translate(19.89,303.46)" d="M7.5,0A7.5,7.5 0 1,1 0,-7.5A7.5,7.5 0 0,1 7.5,0Z" style="opacity: 1; stroke-width: 0px; fill: rgb(0, 51, 255); fill-opacity: 0.25;"/><path class="point" transform="translate(23.96,299.04)" d="M7.5,0A7.5,7.5 0 1,1 0,-7.5A7.5,7.5 0 0,1 7.5,0Z" style="opacity: 1; stroke-width: 0px; fill: rgb(0, 51, 255); fill-opacity: 0.25;"/><path class="point" transform="translate(27.74,303.46)" d="M7.5,0A7.5,7.5 0 1,1 0,-7.5A7.5,7.5 0 0,1 7.5,0Z" style="opacity: 1; stroke-width: 0px; fill: rgb(0, 51, 255); fill-opacity: 0.25;"/><path class="point" transform="translate(31.95,303.46)" d="M7.5,0A7.5,7.5 0 1,1 0,-7.5A7.5,7.5 0 0,1 7.5,0Z" style="opacity: 1; stroke-width: 0px; fill: rgb(0, 51, 255); fill-opacity: 0.25;"/><path class="point" transform="translate(32.96,312.31)" d="M7.5,0A7.5,7.5 0 1,1 0,-7.5A7.5,7.5 0 0,1 7.5,0Z" style="opacity: 1; stroke-width: 0px; fill: rgb(0, 51, 255); fill-opacity: 0.25;"/><path class="point" transform="translate(35.58,310.54)" d="M7.5,0A7.5,7.5 0 1,1 0,-7.5A7.5,7.5 0 0,1 7.5,0Z" style="opacity: 1; stroke-width: 0px; fill: rgb(0, 51, 255); fill-opacity: 0.25;"/><path class="point" transform="translate(41.24,303.46)" d="M7.5,0A7.5,7.5 0 1,1 0,-7.5A7.5,7.5 0 0,1 7.5,0Z" style="opacity: 1; stroke-width: 0px; fill: rgb(0, 51, 255); fill-opacity: 0.25;"/><path class="point" transform="translate(43.86,300.81)" d="M7.5,0A7.5,7.5 0 1,1 0,-7.5A7.5,7.5 0 0,1 7.5,0Z" style="opacity: 1; stroke-width: 0px; fill: rgb(0, 51, 255); fill-opacity: 0.25;"/><path class="point" transform="translate(46.32,303.46)" d="M7.5,0A7.5,7.5 0 1,1 0,-7.5A7.5,7.5 0 0,1 7.5,0Z" style="opacity: 1; stroke-width: 0px; fill: rgb(0, 51, 255); fill-opacity: 0.25;"/><path class="point" transform="translate(47.92,299.04)" d="M7.5,0A7.5,7.5 0 1,1 0,-7.5A7.5,7.5 0 0,1 7.5,0Z" style="opacity: 1; stroke-width: 0px; fill: rgb(0, 51, 255); fill-opacity: 0.25;"/><path class="point" transform="translate(45.16,299.04)" d="M7.5,0A7.5,7.5 0 1,1 0,-7.5A7.5,7.5 0 0,1 7.5,0Z" style="opacity: 1; stroke-width: 0px; fill: rgb(0, 51, 255); fill-opacity: 0.25;"/><path class="point" transform="translate(50.39,294.62)" d="M7.5,0A7.5,7.5 0 1,1 0,-7.5A7.5,7.5 0 0,1 7.5,0Z" style="opacity: 1; stroke-width: 0px; fill: rgb(0, 51, 255); fill-opacity: 0.25;"/><path class="point" transform="translate(49.52,303.46)" d="M7.5,0A7.5,7.5 0 1,1 0,-7.5A7.5,7.5 0 0,1 7.5,0Z" style="opacity: 1; stroke-width: 0px; fill: rgb(0, 51, 255); fill-opacity: 0.25;"/><path class="point" transform="translate(55.47,307.89)" d="M7.5,0A7.5,7.5 0 1,1 0,-7.5A7.5,7.5 0 0,1 7.5,0Z" style="opacity: 1; stroke-width: 0px; fill: rgb(0, 51, 255); fill-opacity: 0.25;"/><path class="point" transform="translate(54.02,312.31)" d="M7.5,0A7.5,7.5 0 1,1 0,-7.5A7.5,7.5 0 0,1 7.5,0Z" style="opacity: 1; stroke-width: 0px; fill: rgb(0, 51, 255); fill-opacity: 0.25;"/></g><g class="text"/></g><g class="trace scatter trace916d4d" style="stroke-miterlimit: 2; opacity: 1;"><g class="fills"/><g class="errorbars"/><g class="lines"><path class="js-line" d="M0,298.54Q2.77,298.48 4.65,299.26C8.41,300.82 16.33,309.84 19.89,310.38C21.59,310.64 22.61,309.22 23.96,308.99C25.23,308.77 26.49,309.29 27.74,308.95C29.16,308.57 31,306.77 31.95,306.54C32.38,306.44 32.55,306.61 32.96,306.59C33.63,306.55 34.54,306.27 35.58,306.18C37.1,306.05 39.72,306.27 41.24,306.1C42.29,305.98 43.04,305.37 43.86,305.54C44.74,305.73 45.65,306.56 46.32,307.33C47.03,308.15 47.97,310.34 47.92,310.37C47.86,310.4 44.95,306.26 45.16,306.08C45.4,305.87 50.52,310.17 50.39,310.44C50.34,310.54 49.52,310.32 49.52,310.27C49.53,310.14 55.44,309.85 55.47,310.01Q55.48,310.09 54.02,310.45" style="vector-effect: non-scaling-stroke; fill: none; stroke: rgb(140, 0, 0); stroke-opacity: 1; stroke-width: 7px; opacity: 1;"/></g><g class="points"/><g class="text"/></g><g class="trace scatter traced78b75" style="stroke-miterlimit: 2; opacity: 1;"><g class="fills"/><g class="errorbars"/><g class="lines"/><g class="points"><path class="point" transform="translate(0,298.16)" d="M7.5,0A7.5,7.5 0 1,1 0,-7.5A7.5,7.5 0 0,1 7.5,0Z" style="opacity: 1; stroke-width: 0px; fill: rgb(140, 0, 0); fill-opacity: 0.25;"/><path class="point" transform="translate(4.65,299.04)" d="M7.5,0A7.5,7.5 0 1,1 0,-7.5A7.5,7.5 0 0,1 7.5,0Z" style="opacity: 1; stroke-width: 0px; fill: rgb(140, 0, 0); fill-opacity: 0.25;"/><path class="point" transform="translate(19.89,312.31)" d="M7.5,0A7.5,7.5 0 1,1 0,-7.5A7.5,7.5 0 0,1 7.5,0Z" style="opacity: 1; stroke-width: 0px; fill: rgb(140, 0, 0); fill-opacity: 0.25;"/><path class="point" transform="translate(23.96,307.89)" d="M7.5,0A7.5,7.5 0 1,1 0,-7.5A7.5,7.5 0 0,1 7.5,0Z" style="opacity: 1; stroke-width: 0px; fill: rgb(140, 0, 0); fill-opacity: 0.25;"/><path class="point" transform="translate(27.74,312.31)" d="M7.5,0A7.5,7.5 0 1,1 0,-7.5A7.5,7.5 0 0,1 7.5,0Z" style="opacity: 1; stroke-width: 0px; fill: rgb(140, 0, 0); fill-opacity: 0.25;"/><path class="point" transform="translate(31.95,303.46)" d="M7.5,0A7.5,7.5 0 1,1 0,-7.5A7.5,7.5 0 0,1 7.5,0Z" style="opacity: 1; stroke-width: 0px; fill: rgb(140, 0, 0); fill-opacity: 0.25;"/><path class="point" transform="translate(32.96,307.89)" d="M7.5,0A7.5,7.5 0 1,1 0,-7.5A7.5,7.5 0 0,1 7.5,0Z" style="opacity: 1; stroke-width: 0px; fill: rgb(140, 0, 0); fill-opacity: 0.25;"/><path class="point" transform="translate(35.58,305.23)" d="M7.5,0A7.5,7.5 0 1,1 0,-7.5A7.5,7.5 0 0,1 7.5,0Z" style="opacity: 1; stroke-width: 0px; fill: rgb(140, 0, 0); fill-opacity: 0.25;"/><path class="point" transform="translate(41.24,307.89)" d="M7.5,0A7.5,7.5 0 1,1 0,-7.5A7.5,7.5 0 0,1 7.5,0Z" style="opacity: 1; stroke-width: 0px; fill: rgb(140, 0, 0); fill-opacity: 0.25;"/><path class="point" transform="translate(43.86,299.93)" d="M7.5,0A7.5,7.5 0 1,1 0,-7.5A7.5,7.5 0 0,1 7.5,0Z" style="opacity: 1; stroke-width: 0px; fill: rgb(140, 0, 0); fill-opacity: 0.25;"/><path class="point" transform="translate(46.32,299.04)" d="M7.5,0A7.5,7.5 0 1,1 0,-7.5A7.5,7.5 0 0,1 7.5,0Z" style="opacity: 1; stroke-width: 0px; fill: rgb(140, 0, 0); fill-opacity: 0.25;"/><path class="point" transform="translate(45.16,299.04)" d="M7.5,0A7.5,7.5 0 1,1 0,-7.5A7.5,7.5 0 0,1 7.5,0Z" style="opacity: 1; stroke-width: 0px; fill: rgb(140, 0, 0); fill-opacity: 0.25;"/><path class="point" transform="translate(50.39,312.31)" d="M7.5,0A7.5,7.5 0 1,1 0,-7.5A7.5,7.5 0 0,1 7.5,0Z" style="opacity: 1; stroke-width: 0px; fill: rgb(140, 0, 0); fill-opacity: 0.25;"/><path class="point" transform="translate(49.52,307.89)" d="M7.5,0A7.5,7.5 0 1,1 0,-7.5A7.5,7.5 0 0,1 7.5,0Z" style="opacity: 1; stroke-width: 0px; fill: rgb(140, 0, 0); fill-opacity: 0.25;"/><path class="point" transform="translate(55.47,307.89)" d="M7.5,0A7.5,7.5 0 1,1 0,-7.5A7.5,7.5 0 0,1 7.5,0Z" style="opacity: 1; stroke-width: 0px; fill: rgb(140, 0, 0); fill-opacity: 0.25;"/><path class="point" transform="translate(54.02,312.31)" d="M7.5,0A7.5,7.5 0 1,1 0,-7.5A7.5,7.5 0 0,1 7.5,0Z" style="opacity: 1; stroke-width: 0px; fill: rgb(140, 0, 0); fill-opacity: 0.25;"/></g><g class="text"/></g></g></g><g class="overplot"/><path class="xlines-above crisp" d="M0,0" style="fill: none;"/><path class="ylines-above crisp" d="M0,0" style="fill: none;"/><g class="overlines-above"/><g class="xaxislayer-above"><g class="xtick"><text text-anchor="middle" x="0" y="363" transform="translate(62.2,0)" style="font-family: 'Open Sans', verdana, arial, sans-serif; font-size: 12px; fill: rgb(42, 63, 95); fill-opacity: 1; white-space: pre; opacity: 1;">1.1.22</text></g><g class="xtick"><text text-anchor="middle" x="0" y="363" style="font-family: 'Open Sans', verdana, arial, sans-serif; font-size: 12px; fill: rgb(42, 63, 95); fill-opacity: 1; white-space: pre; opacity: 1;" transform="translate(115.2,0)">1.1.23</text></g><g class="xtick"><text text-anchor="middle" x="0" y="363" style="font-family: 'Open Sans', verdana, arial, sans-serif; font-size: 12px; fill: rgb(42, 63, 95); fill-opacity: 1; white-space: pre; opacity: 1;" transform="translate(168.20999999999998,0)">1.1.24</text></g><g class="xtick"><text text-anchor="middle" x="0" y="363" style="font-family: 'Open Sans', verdana, arial, sans-serif; font-size: 12px; fill: rgb(42, 63, 95); fill-opacity: 1; white-space: pre; opacity: 1;" transform="translate(221.36,0)">1.1.25</text></g></g><g class="yaxislayer-above"><g class="ytick"><text text-anchor="end" x="49" y="4.199999999999999" transform="translate(0,350)" style="font-family: 'Open Sans', verdana, arial, sans-serif; font-size: 12px; fill: rgb(42, 63, 95); fill-opacity: 1; white-space: pre; opacity: 1;">0%</text></g><g class="ytick"><text text-anchor="end" x="49" y="4.199999999999999" style="font-family: 'Open Sans', verdana, arial, sans-serif; font-size: 12px; fill: rgb(42, 63, 95); fill-opacity: 1; white-space: pre; opacity: 1;" transform="translate(0,305.77)">5%</text></g><g class="ytick"><text text-anchor="end" x="49" y="4.199999999999999" style="font-family: 'Open Sans', verdana, arial, sans-serif; font-size: 12px; fill: rgb(42, 63, 95); fill-opacity: 1; white-space: pre; opacity: 1;" transform="translate(0,261.55)">10%</text></g><g class="ytick"><text text-anchor="end" x="49" y="4.199999999999999" style="font-family: 'Open Sans', verdana, arial, sans-serif; font-size: 12px; fill: rgb(42, 63, 95); fill-opacity: 1; white-space: pre; opacity: 1;" transform="translate(0,217.32)">15%</text></g><g class="ytick"><text text-anchor="end" x="49" y="4.199999999999999" style="font-family: 'Open Sans', verdana, arial, sans-serif; font-size: 12px; fill: rgb(42, 63, 95); fill-opacity: 1; white-space: pre; opacity: 1;" transform="translate(0,173.09)">20%</text></g><g class="ytick"><text text-anchor="end" x="49" y="4.199999999999999" style="font-family: 'Open Sans', verdana, arial, sans-serif; font-size: 12px; fill: rgb(42, 63, 95); fill-opacity: 1; white-space: pre; opacity: 1;" transform="translate(0,128.86)">25%</text></g><g class="ytick"><text text-anchor="end" x="49" y="4.199999999999999" style="font-family: 'Open Sans', verdana, arial, sans-serif; font-size: 12px; fill: rgb(42, 63, 95); fill-opacity: 1; white-space: pre; opacity: 1;" transform="translate(0,84.64)">30%</text></g><g class="ytick"><text text-anchor="end" x="49" y="4.199999999999999" style="font-family: 'Open Sans', verdana, arial, sans-serif; font-size: 12px; fill: rgb(42, 63, 95); fill-opacity: 1; white-space: pre; opacity: 1;" transform="translate(0,40.41)">35%</text></g></g><g class="overaxes-above"/></g></g><g class="polarlayer"/><g class="smithlayer"/><g class="ternarylayer"/><g class="geolayer"/><g class="funnelarealayer"/><g class="pielayer"/><g class="iciclelayer"/><g class="treemaplayer"/><g class="sunburstlayer"/><g class="glimages"/><defs id="topdefs-8c3b07"><g class="clips"/><clipPath id="legend8c3b07"><rect width="123" height="200" x="0" y="0"/></clipPath></defs><g class="layer-above"><g class="imagelayer"/><g class="shapelayer"/></g><g class="infolayer"><g class="legend" pointer-events="all" transform="translate(265.22,20)"><rect class="bg" shape-rendering="crispEdges" width="123" height="200" x="0" y="0" style="stroke: rgb(68, 68, 68); stroke-opacity: 1; fill: rgb(255, 255, 255); fill-opacity: 1; stroke-width: 0px;"/><g class="scrollbox" transform="" clip-path="url(#legend8c3b07)"><g class="groups"><g class="traces" transform="translate(0,14.5)" style="opacity: 1;"><text class="legendtext" text-anchor="start" x="40" y="4.680000000000001" style="font-family: 'Open Sans', verdana, arial, sans-serif; font-size: 12px; fill: rgb(42, 63, 95); fill-opacity: 1; white-space: pre;">ANO: 30%</text><g class="layers" style="opacity: 1;"><g class="legendfill"/><g class="legendlines"><path class="js-line" d="M5,0h30" style="fill: none; stroke: rgb(38, 16, 96); stroke-opacity: 1; stroke-width: 7px;"/></g><g class="legendsymbols"><g class="legendpoints"/></g></g><rect class="legendtoggle" x="0" y="-9.5" width="117.03125" height="19" style="fill: rgb(0, 0, 0); fill-opacity: 0;"/></g><g class="traces" transform="translate(0,33.5)" style="opacity: 1;"><text class="legendtext" text-anchor="start" x="40" y="4.680000000000001" style="font-family: 'Open Sans', verdana, arial, sans-serif; font-size: 12px; fill: rgb(42, 63, 95); fill-opacity: 1; white-space: pre;">ODS: 17%</text><g class="layers" style="opacity: 1;"><g class="legendfill"/><g class="legendlines"><path class="js-line" d="M5,0h30" style="fill: none; stroke: rgb(0, 68, 148); stroke-opacity: 1; stroke-width: 7px;"/></g><g class="legendsymbols"><g class="legendpoints"/></g></g><rect class="legendtoggle" x="0" y="-9.5" width="117.03125" height="19" style="fill: rgb(0, 0, 0); fill-opacity: 0;"/></g><g class="traces" transform="translate(0,52.5)" style="opacity: 1;"><text class="legendtext" text-anchor="start" x="40" y="4.680000000000001" style="font-family: 'Open Sans', verdana, arial, sans-serif; font-size: 12px; fill: rgb(42, 63, 95); fill-opacity: 1; white-space: pre;">SPD: 12%</text><g class="layers" style="opacity: 1;"><g class="legendfill"/><g class="legendlines"><path class="js-line" d="M5,0h30" style="fill: none; stroke: rgb(234, 35, 41); stroke-opacity: 1; stroke-width: 7px;"/></g><g class="legendsymbols"><g class="legendpoints"/></g></g><rect class="legendtoggle" x="0" y="-9.5" width="117.03125" height="19" style="fill: rgb(0, 0, 0); fill-opacity: 0;"/></g><g class="traces" transform="translate(0,71.5)" style="opacity: 1;"><text class="legendtext" text-anchor="start" x="40" y="4.680000000000001" style="font-family: 'Open Sans', verdana, arial, sans-serif; font-size: 12px; fill: rgb(42, 63, 95); fill-opacity: 1; white-space: pre;">Pirti: 11%</text><g class="layers" style="opacity: 1;"><g class="legendfill"/><g class="legendlines"><path class="js-line" d="M5,0h30" style="fill: none; stroke: rgb(0, 0, 0); stroke-opacity: 1; stroke-width: 7px;"/></g><g class="legendsymbols"><g class="legendpoints"/></g></g><rect class="legendtoggle" x="0" y="-9.5" width="117.03125" height="19" style="fill: rgb(0, 0, 0); fill-opacity: 0;"/></g><g class="traces" transform="translate(0,90.5)" style="opacity: 1;"><text class="legendtext" text-anchor="start" x="40" y="4.680000000000001" style="font-family: 'Open Sans', verdana, arial, sans-serif; font-size: 12px; fill: rgb(42, 63, 95); fill-opacity: 1; white-space: pre;">STAN: 6%</text><g class="layers" style="opacity: 1;"><g class="legendfill"/><g class="legendlines"><path class="js-line" d="M5,0h30" style="fill: none; stroke: rgb(93, 140, 0); stroke-opacity: 1; stroke-width: 7px;"/></g><g class="legendsymbols"><g class="legendpoints"/></g></g><rect class="legendtoggle" x="0" y="-9.5" width="117.03125" height="19" style="fill: rgb(0, 0, 0); fill-opacity: 0;"/></g><g class="traces" transform="translate(0,109.5)" style="opacity: 1;"><text class="legendtext" text-anchor="start" x="40" y="4.680000000000001" style="font-family: 'Open Sans', verdana, arial, sans-serif; font-size: 12px; fill: rgb(42, 63, 95); fill-opacity: 1; white-space: pre;">TOP 09: 5%</text><g class="layers" style="opacity: 1;"><g class="legendfill"/><g class="legendlines"><path class="js-line" d="M5,0h30" style="fill: none; stroke: rgb(114, 55, 105); stroke-opacity: 1; stroke-width: 7px;"/></g><g class="legendsymbols"><g class="legendpoints"/></g></g><rect class="legendtoggle" x="0" y="-9.5" width="117.03125" height="19" style="fill: rgb(0, 0, 0); fill-opacity: 0;"/></g><g class="traces" transform="translate(0,128.5)" style="opacity: 1;"><text class="legendtext" text-anchor="start" x="40" y="4.680000000000001" style="font-family: 'Open Sans', verdana, arial, sans-serif; font-size: 12px; fill: rgb(42, 63, 95); fill-opacity: 1; white-space: pre;">KDU-SL: 5%</text><g class="layers" style="opacity: 1;"><g class="legendfill"/><g class="legendlines"><path class="js-line" d="M5,0h30" style="fill: none; stroke: rgb(230, 172, 33); stroke-opacity: 1; stroke-width: 7px;"/></g><g class="legendsymbols"><g class="legendpoints"/></g></g><rect class="legendtoggle" x="0" y="-9.5" width="117.03125" height="19" style="fill: rgb(0, 0, 0); fill-opacity: 0;"/></g><g class="traces" transform="translate(0,147.5)" style="opacity: 1;"><text class="legendtext" text-anchor="start" x="40" y="4.680000000000001" style="font-family: 'Open Sans', verdana, arial, sans-serif; font-size: 12px; fill: rgb(42, 63, 95); fill-opacity: 1; white-space: pre;">SSD: 4%</text><g class="layers" style="opacity: 1;"><g class="legendfill"/><g class="legendlines"><path class="js-line" d="M5,0h30" style="fill: none; stroke: rgb(240, 125, 0); stroke-opacity: 1; stroke-width: 7px;"/></g><g class="legendsymbols"><g class="legendpoints"/></g></g><rect class="legendtoggle" x="0" y="-9.5" width="117.03125" height="19" style="fill: rgb(0, 0, 0); fill-opacity: 0;"/></g><g class="traces" transform="translate(0,166.5)" style="opacity: 1;"><text class="legendtext" text-anchor="start" x="40" y="4.680000000000001" style="font-family: 'Open Sans', verdana, arial, sans-serif; font-size: 12px; fill: rgb(42, 63, 95); fill-opacity: 1; white-space: pre;">Psaha: 3%</text><g class="layers" style="opacity: 1;"><g class="legendfill"/><g class="legendlines"><path class="js-line" d="M5,0h30" style="fill: none; stroke: rgb(0, 51, 255); stroke-opacity: 1; stroke-width: 7px;"/></g><g class="legendsymbols"><g class="legendpoints"/></g></g><rect class="legendtoggle" x="0" y="-9.5" width="117.03125" height="19" style="fill: rgb(0, 0, 0); fill-opacity: 0;"/></g><g class="traces" transform="translate(0,185.5)" style="opacity: 1;"><text class="legendtext" text-anchor="start" x="40" y="4.680000000000001" style="font-family: 'Open Sans', verdana, arial, sans-serif; font-size: 12px; fill: rgb(42, 63, 95); fill-opacity: 1; white-space: pre;">KSM: 2%</text><g class="layers" style="opacity: 1;"><g class="legendfill"/><g class="legendlines"><path class="js-line" d="M5,0h30" style="fill: none; stroke: rgb(140, 0, 0); stroke-opacity: 1; stroke-width: 7px;"/></g><g class="legendsymbols"><g class="legendpoints"/></g></g><rect class="legendtoggle" x="0" y="-9.5" width="117.03125" height="19" style="fill: rgb(0, 0, 0); fill-opacity: 0;"/></g></g></g><rect class="scrollbar" rx="20" ry="3" width="0" height="0" x="0" y="0" style="fill: rgb(128, 139, 164); fill-opacity: 1;"/></g><g class="g-gtitle"/><g class="g-xtitle"/><g class="g-ytitle"/></g></svg>