<svg class="main-svg" xmlns="http://www.w3.org/2000/svg" xmlns:xlink="http://www.w3.org/1999/xlink" width="300" height="135" style="" viewBox="0 0 300 135"><rect x="0" y="0" width="300" height="135" style="fill: rgb(255, 255, 255); fill-opacity: 1;"/><defs id="defs-2a5b51"><g class="clips"><clipPath id="clip2a5b51xyplot" class="plotclip"><rect width="280" height="75"/></clipPath><clipPath class="axesclip" id="clip2a5b51x"><rect x="10" y="0" width="280" height="135"/></clipPath><clipPath class="axesclip" id="clip2a5b51y"><rect x="0" y="50" width="300" height="75"/></clipPath><clipPath class="axesclip" id="clip2a5b51xy"><rect x="10" y="50" width="280" height="75"/></clipPath></g><g class="gradients"/><g class="patterns"/></defs><g class="bglayer"/><g class="layer-below"><g class="imagelayer"/><g class="shapelayer"/></g><g class="cartesianlayer"><g class="subplot xy"><g class="layer-subplot"><g class="shapelayer"/><g class="imagelayer"/></g><g class="minor-gridlayer"><g class="x"/><g class="y"/></g><g class="gridlayer"><g class="x"><path class="xgrid crisp" transform="translate(29.03,0)" d="M0,50v75" style="stroke: rgb(235, 240, 248); stroke-opacity: 1; stroke-width: 1px;"/><path class="xgrid crisp" transform="translate(111.72,0)" d="M0,50v75" style="stroke: rgb(235, 240, 248); stroke-opacity: 1; stroke-width: 1px;"/><path class="xgrid crisp" transform="translate(194.4,0)" d="M0,50v75" style="stroke: rgb(235, 240, 248); stroke-opacity: 1; stroke-width: 1px;"/><path class="xgrid crisp" transform="translate(277.31,0)" d="M0,50v75" style="stroke: rgb(235, 240, 248); stroke-opacity: 1; stroke-width: 1px;"/></g><g class="y"><path class="ygrid crisp" transform="translate(0,104.68)" d="M10,0h280" style="stroke: rgb(235, 240, 248); stroke-opacity: 1; stroke-width: 1px;"/><path class="ygrid crisp" transform="translate(0,84.37)" d="M10,0h280" style="stroke: rgb(235, 240, 248); stroke-opacity: 1; stroke-width: 1px;"/><path class="ygrid crisp" transform="translate(0,64.05)" d="M10,0h280" style="stroke: rgb(235, 240, 248); stroke-opacity: 1; stroke-width: 1px;"/></g></g><g class="zerolinelayer"><path class="yzl zl crisp" transform="translate(0,125)" d="M10,0h280" style="stroke: rgb(235, 240, 248); stroke-opacity: 1; stroke-width: 2px;"/></g><path class="xlines-below"/><path class="ylines-below"/><g class="overlines-below"/><g class="xaxislayer-below"/><g class="yaxislayer-below"/><g class="overaxes-below"/><g class="plot" transform="translate(10,50)" clip-path="url(#clip2a5b51xyplot)"><g class="scatterlayer mlayer"><g class="trace scatter trace585ebc" style="stroke-miterlimit: 2; opacity: 1;"><g class="fills"/><g class="errorbars"/><g class="lines"><path class="js-line" d="M0,19.95Q4.14,20.01 7.25,20.16C12.89,20.44 25.69,22.55 31.04,21.83C33.88,21.45 35.28,20.16 37.38,19.61C39.36,19.09 41.25,18.94 43.27,18.58C45.4,18.2 48.4,17.57 49.84,17.36C50.54,17.26 50.77,17.29 51.42,17.19C52.47,17.02 53.88,16.68 55.5,16.33C57.88,15.82 61.95,14.79 64.34,14.42C65.95,14.17 67.28,14.03 68.41,14.02C69.21,14.01 69.79,14.16 70.45,14.17C71.07,14.18 71.62,14.09 72.27,14.07C73.03,14.05 73.93,14.08 74.76,14.09C75.59,14.1 76.55,14.08 77.25,14.12C77.77,14.15 78,14.2 78.61,14.24C79.85,14.33 82.83,14.22 84.27,14.53C85.22,14.74 85.53,15.34 86.54,15.43C88.44,15.59 91.56,14.24 94.92,13.69C99.88,12.88 112.29,11.74 113.5,11.45C113.64,11.42 113.6,11.41 113.72,11.37C114.31,11.2 117.55,10.24 118.93,10.25C119.84,10.26 120.32,10.72 121.2,10.78C122.4,10.86 124.3,10.53 125.5,10.34C126.38,10.2 126.89,10.15 127.77,9.87C129.08,9.45 131.4,8.14 132.52,7.79C133.1,7.61 133.62,7.57 133.88,7.53C133.99,7.51 133.98,7.52 134.11,7.5C134.79,7.39 138.31,6.37 140.45,6.31C142.62,6.25 144.49,6.95 147.02,7.19C150.47,7.51 157.24,8.09 159.26,7.85C159.95,7.77 160.28,7.52 160.61,7.45C160.8,7.41 160.83,7.42 161.07,7.38C161.95,7.25 165.74,6.58 167.18,6.51C167.96,6.47 168.31,6.62 169,6.6C169.91,6.58 171.16,6.42 172.17,6.29C173.11,6.17 174.37,5.94 174.89,5.88C175.1,5.85 175.19,5.85 175.34,5.84C175.49,5.83 175.56,5.83 175.79,5.82C176.51,5.8 178.56,5.66 180.32,5.74C182.78,5.86 188.34,6.68 189.16,6.74C189.29,6.75 189.31,6.76 189.39,6.75C189.46,6.74 189.49,6.72 189.61,6.71C190.22,6.64 194.01,6.72 195.05,6.51C195.49,6.42 195.51,6.2 195.95,6.17C197.07,6.08 201.41,7.39 202.07,7.47C202.2,7.49 202.19,7.48 202.3,7.48C202.59,7.49 203.23,7.42 203.88,7.47C204.97,7.56 206.81,8 208.19,8.22C209.45,8.42 210.58,8.62 211.81,8.74C213.07,8.87 214.27,8.84 215.66,8.96C217.32,9.1 220.05,9.44 221.1,9.59C221.53,9.65 222.01,9.74 222.01,9.74C222.01,9.74 222.01,9.74 222.01,9.74C222.01,9.74 225.93,10.94 227.22,10.97C227.98,10.99 228.29,10.7 229.03,10.62C230.15,10.5 231.76,10.8 233.33,10.52C235.36,10.16 239.04,8.51 240.13,8.24C240.47,8.16 240.52,8.19 240.81,8.13C241.31,8.03 242.03,7.83 242.85,7.65C244.06,7.38 246.82,6.77 247.38,6.71C247.5,6.7 247.61,6.71 247.61,6.71C247.61,6.71 247.61,6.71 247.61,6.71C247.61,6.71 249.05,6.44 249.87,6.26C250.84,6.05 252.25,5.61 253.04,5.53C253.51,5.48 253.81,5.55 254.17,5.55C254.49,5.55 254.73,5.52 255.08,5.53C255.54,5.54 256,5.61 256.67,5.64C257.83,5.69 260.38,5.72 261.42,5.71C261.93,5.71 262.04,5.7 262.56,5.68C263.73,5.63 267.25,5.37 268.22,5.31C268.56,5.29 268.67,5.28 268.9,5.27C269.13,5.26 269.41,5.25 269.58,5.23C269.68,5.22 269.7,5.21 269.81,5.2C270.1,5.16 271.39,4.99 271.39,4.99C271.39,4.99 271.39,4.99 271.39,4.99C271.39,4.99 271.83,4.93 272.07,4.88C272.35,4.83 272.98,4.68 272.98,4.68C272.98,4.68 272.98,4.68 272.98,4.68C272.98,4.68 274.11,4.6 274.56,4.56C274.91,4.53 275.19,4.49 275.47,4.45C275.71,4.42 275.88,4.4 276.15,4.36C276.57,4.3 277.31,4.2 277.73,4.11C278.01,4.05 278.16,3.97 278.41,3.92C278.69,3.87 279.04,3.85 279.32,3.82Q279.56,3.79 280,3.75" style="vector-effect: none; fill: none; stroke: rgb(39, 42, 89); stroke-opacity: 1; stroke-width: 5px; opacity: 1;"/></g><g class="points"/><g class="text"/></g><g class="trace scatter trace206c9b" style="stroke-miterlimit: 2; opacity: 1;"><g class="fills"/><g class="errorbars"/><g class="lines"><path class="js-line" d="M254.17,62.11Q254.73,62.11 255.08,62.11C255.54,62.11 256.12,62.46 256.67,62.11C258.12,61.19 260.14,52.83 261.42,52.01C261.83,51.75 262.13,52.26 262.56,52.01C263.93,51.21 267.18,43.27 268.22,41.98C268.51,41.62 268.67,41.56 268.9,41.38C269.12,41.2 269.41,41.01 269.58,40.9C269.68,40.83 269.7,40.82 269.81,40.75C270.1,40.57 271.39,39.85 271.39,39.85C271.39,39.85 271.39,39.85 271.39,39.85C271.39,39.85 271.82,39.63 272.07,39.53C272.35,39.41 272.98,39.18 272.98,39.18C272.98,39.18 272.98,39.18 272.98,39.18C272.98,39.18 274.1,39.01 274.56,38.96C274.9,38.92 275.19,38.9 275.47,38.89C275.71,38.88 275.88,38.88 276.15,38.88C276.57,38.88 277.31,38.91 277.73,38.9C278,38.89 278.17,38.87 278.41,38.85C278.69,38.82 279.04,38.78 279.32,38.74Q279.56,38.7 280,38.61" style="vector-effect: none; fill: none; stroke: rgb(94, 102, 213); stroke-opacity: 1; stroke-width: 5px; opacity: 1;"/></g><g class="points"/><g class="text"/></g><g class="trace scatter traceacae80" style="stroke-miterlimit: 2; opacity: 1;"><g class="fills"/><g class="errorbars"/><g class="lines"><path class="js-line" d="M0,62.61Q3.42,54.06 7.25,52.25C12.51,49.76 25.66,53.26 31.04,54.06C33.85,54.48 35.31,54.98 37.38,55.48C39.38,55.96 41.28,56.3 43.27,56.98C45.43,57.71 48.4,59.15 49.84,59.81C50.55,60.14 50.76,60.29 51.42,60.59C52.46,61.06 53.85,61.81 55.5,62.26C57.85,62.9 61.95,63.28 64.34,63.52C65.95,63.68 67.29,63.71 68.41,63.77C69.21,63.81 69.79,63.89 70.45,63.85C71.08,63.81 71.61,63.63 72.27,63.57C73.03,63.5 73.93,63.54 74.76,63.47C75.59,63.4 76.55,63.26 77.25,63.15C77.77,63.07 78,62.94 78.61,62.89C79.85,62.79 82.81,63.04 84.27,63.03C85.2,63.02 85.55,62.99 86.54,62.93C88.45,62.82 91.58,62.56 94.92,62.32C99.9,61.96 112.28,61.03 113.5,60.99C113.63,60.99 113.6,60.99 113.72,60.99C114.31,61 117.55,60.95 118.93,61.1C119.85,61.2 120.32,61.46 121.2,61.55C122.4,61.68 124.3,61.52 125.5,61.62C126.38,61.69 126.87,61.85 127.77,61.95C129.06,62.1 131.42,62.28 132.52,62.35C133.11,62.39 133.62,62.4 133.88,62.41C133.99,62.41 133.98,62.41 134.11,62.41C134.79,62.43 138.32,62.73 140.45,62.71C142.62,62.69 144.49,62.38 147.02,62.27C150.47,62.13 157.23,62.24 159.26,62.07C159.94,62.01 160.28,61.91 160.61,61.86C160.8,61.83 160.83,61.82 161.07,61.8C161.95,61.74 165.74,61.86 167.18,61.82C167.97,61.8 168.31,61.73 169,61.71C169.91,61.68 171.15,61.72 172.17,61.71C173.11,61.7 174.37,61.69 174.89,61.67C175.1,61.66 175.19,61.65 175.34,61.64C175.49,61.63 175.56,61.64 175.79,61.63C176.51,61.61 178.56,61.56 180.32,61.47C182.78,61.34 188.34,60.89 189.16,60.84C189.29,60.83 189.31,60.83 189.39,60.83C189.46,60.83 189.49,60.83 189.61,60.82C190.22,60.77 194,60.23 195.05,60.22C195.48,60.22 195.52,60.27 195.95,60.31C197.08,60.41 201.41,60.81 202.07,60.82C202.2,60.82 202.19,60.82 202.3,60.81C202.59,60.79 203.23,60.76 203.88,60.67C204.97,60.52 206.81,60.05 208.19,59.82C209.45,59.61 210.59,59.51 211.81,59.31C213.08,59.11 214.26,58.81 215.66,58.61C217.31,58.37 220.05,58.23 221.1,58.04C221.53,57.96 222.01,57.8 222.01,57.8C222.01,57.8 222.01,57.8 222.01,57.8C222.01,57.8 225.93,56.83 227.22,56.62C227.97,56.5 228.3,56.53 229.03,56.45C230.16,56.32 231.73,56.07 233.33,55.89C235.34,55.67 239.05,55.5 240.13,55.25C240.48,55.17 240.52,55.11 240.81,55C241.31,54.81 242.03,54.44 242.85,54.16C244.05,53.75 246.82,52.99 247.38,52.9C247.5,52.88 247.61,52.89 247.61,52.89C247.61,52.89 247.61,52.89 247.61,52.89C247.61,52.89 249.05,52.94 249.87,52.97C250.84,53.01 252.25,53.06 253.04,53.12C253.51,53.15 253.81,53.23 254.17,53.23C254.49,53.23 254.73,53.18 255.08,53.16C255.54,53.13 256,53.13 256.67,53.06C257.83,52.94 260.38,52.52 261.42,52.39C261.93,52.33 262.03,52.28 262.56,52.26C263.73,52.21 267.25,52.43 268.22,52.41C268.56,52.4 268.67,52.38 268.9,52.36C269.13,52.33 269.41,52.28 269.58,52.26C269.68,52.25 269.7,52.25 269.81,52.24C270.1,52.22 271.39,52.13 271.39,52.13C271.39,52.13 271.39,52.13 271.39,52.13C271.39,52.13 271.83,52.07 272.07,52.05C272.35,52.03 272.98,52 272.98,52C272.98,52 272.98,52 272.98,52C272.98,52 274.11,51.92 274.56,51.88C274.91,51.85 275.19,51.81 275.47,51.79C275.71,51.77 275.88,51.77 276.15,51.75C276.57,51.72 277.31,51.65 277.73,51.64C278,51.63 278.17,51.64 278.41,51.65C278.69,51.66 279.04,51.71 279.32,51.73Q279.56,51.75 280,51.77" style="vector-effect: none; fill: none; stroke: rgb(255, 26, 74); stroke-opacity: 1; stroke-width: 5px; opacity: 1;"/></g><g class="points"/><g class="text"/></g><g class="trace scatter trace51fb00" style="stroke-miterlimit: 2; opacity: 1;"><g class="fills"/><g class="errorbars"/><g class="lines"><path class="js-line" d="M0,55.5Q4.14,55.72 7.25,55.54C12.9,55.22 25.64,52.64 31.04,52.71C33.83,52.74 35.31,53.65 37.38,53.62C39.38,53.59 41.25,52.91 43.27,52.6C45.4,52.28 48.4,51.89 49.84,51.74C50.55,51.66 50.77,51.7 51.42,51.61C52.47,51.46 53.87,51.05 55.5,50.81C57.88,50.47 61.96,50.12 64.34,49.98C65.95,49.88 67.29,49.93 68.41,49.87C69.21,49.83 69.79,49.7 70.45,49.71C71.07,49.72 71.61,49.91 72.27,49.93C73.03,49.96 73.93,49.75 74.76,49.81C75.59,49.87 76.54,50.2 77.25,50.32C77.77,50.41 78,50.43 78.61,50.49C79.85,50.61 82.81,50.77 84.27,50.91C85.2,51 85.54,51.13 86.54,51.18C88.45,51.28 91.62,50.64 94.92,51.09C99.94,51.78 112.28,56.36 113.5,56.51C113.63,56.53 113.6,56.5 113.72,56.5C114.31,56.49 117.55,56.5 118.93,56.63C119.85,56.72 120.32,56.92 121.2,57.01C122.4,57.13 124.29,57.13 125.5,57.14C126.38,57.15 126.88,57.11 127.77,57.11C129.06,57.11 131.42,57.18 132.52,57.17C133.11,57.17 133.62,57.13 133.88,57.13C133.99,57.13 133.98,57.14 134.11,57.14C134.79,57.12 138.32,56.52 140.45,56.47C142.62,56.42 144.5,56.98 147.02,56.83C150.48,56.63 157.22,54.82 159.26,54.71C159.93,54.67 160.28,54.79 160.61,54.8C160.8,54.81 160.83,54.81 161.07,54.8C161.95,54.77 165.74,54.45 167.18,54.39C167.96,54.36 168.31,54.36 169,54.37C169.91,54.38 171.16,54.35 172.17,54.48C173.12,54.61 174.36,55.04 174.89,55.12C175.1,55.15 175.19,55.15 175.34,55.16C175.49,55.18 175.56,55.19 175.79,55.21C176.51,55.27 178.56,55.45 180.32,55.5C182.78,55.57 188.34,55.42 189.16,55.43C189.29,55.43 189.31,55.43 189.39,55.44C189.46,55.45 189.49,55.45 189.61,55.47C190.22,55.56 194,56.11 195.05,56.28C195.48,56.35 195.52,56.36 195.95,56.44C197.08,56.64 201.41,57.46 202.07,57.5C202.2,57.51 202.19,57.49 202.3,57.49C202.59,57.49 203.22,57.55 203.88,57.55C204.96,57.55 206.82,57.31 208.19,57.39C209.45,57.46 210.59,57.7 211.81,57.94C213.08,58.19 214.26,58.6 215.66,58.89C217.31,59.23 220.05,59.63 221.1,59.77C221.53,59.83 222.01,59.86 222.01,59.86C222.01,59.86 222.01,59.86 222.01,59.86C222.01,59.86 225.93,60.13 227.22,60.16C227.98,60.18 228.3,60.12 229.03,60.15C230.16,60.2 231.73,60.53 233.33,60.57C235.34,60.61 239.04,60.25 240.13,60.21C240.47,60.2 240.52,60.2 240.81,60.2C241.31,60.2 242.04,60.23 242.85,60.24C244.06,60.25 246.82,60.22 247.38,60.21C247.51,60.21 247.61,60.2 247.61,60.2C247.61,60.2 247.61,60.2 247.61,60.2C247.61,60.2 249.05,60.46 249.87,60.49C250.84,60.53 252.25,60.38 253.04,60.33C253.51,60.3 253.81,60.25 254.17,60.25C254.49,60.25 254.73,60.3 255.08,60.32C255.54,60.35 256,60.38 256.67,60.4C257.83,60.43 260.38,60.35 261.42,60.38C261.93,60.39 262.04,60.46 262.56,60.44C263.73,60.39 267.25,59.76 268.22,59.66C268.56,59.63 268.67,59.63 268.9,59.62C269.13,59.61 269.41,59.61 269.58,59.61C269.68,59.61 269.7,59.6 269.81,59.6C270.1,59.59 271.39,59.6 271.39,59.6C271.39,59.6 271.39,59.6 271.39,59.6C271.39,59.6 271.83,59.64 272.07,59.65C272.35,59.66 272.98,59.68 272.98,59.68C272.98,59.68 272.98,59.68 272.98,59.68C272.98,59.68 274.11,59.61 274.56,59.6C274.9,59.59 275.19,59.59 275.47,59.59C275.71,59.59 275.88,59.59 276.15,59.59C276.57,59.6 277.31,59.62 277.73,59.64C278,59.65 278.17,59.68 278.41,59.69C278.69,59.7 279.04,59.69 279.32,59.69Q279.56,59.69 280,59.69" style="vector-effect: none; fill: none; stroke: rgb(164, 125, 3); stroke-opacity: 1; stroke-width: 5px; opacity: 1;"/></g><g class="points"/><g class="text"/></g><g class="trace scatter tracea4cc97" style="stroke-miterlimit: 2; opacity: 1;"><g class="fills"/><g class="errorbars"/><g class="lines"><path class="js-line" d="M0,55.7Q4.09,57.42 7.25,58.04C12.85,59.14 25.64,59.57 31.04,59.83C33.83,59.97 35.31,59.9 37.38,59.97C39.38,60.03 41.3,60.61 43.27,60.22C45.45,59.78 48.38,57.68 49.84,57.14C50.53,56.88 50.78,56.92 51.42,56.7C52.47,56.33 53.84,55.36 55.5,54.99C57.85,54.47 61.96,54.62 64.34,54.62C65.96,54.62 67.29,54.81 68.41,54.8C69.21,54.8 69.79,54.66 70.45,54.69C71.08,54.72 71.61,54.92 72.27,54.96C73.03,55 73.93,54.93 74.76,54.87C75.59,54.81 76.54,54.65 77.25,54.62C77.77,54.6 78,54.69 78.61,54.65C79.85,54.56 82.8,53.93 84.27,53.74C85.19,53.62 85.55,53.5 86.54,53.52C88.45,53.56 91.57,54.48 94.92,54.68C99.89,54.98 112.29,54.51 113.5,54.39C113.63,54.38 113.6,54.36 113.72,54.35C114.31,54.31 117.56,54.64 118.93,54.51C119.85,54.42 120.32,54.15 121.2,54.01C122.4,53.81 124.29,53.68 125.5,53.55C126.38,53.46 126.87,53.38 127.77,53.31C129.06,53.2 131.42,53.12 132.52,53.04C133.11,52.99 133.62,52.93 133.88,52.91C133.99,52.9 133.98,52.9 134.11,52.89C134.79,52.85 138.32,52.79 140.45,52.71C142.62,52.63 144.5,52.26 147.02,52.42C150.48,52.64 157.22,54.34 159.26,54.51C159.93,54.56 160.28,54.47 160.61,54.5C160.8,54.52 160.83,54.56 161.07,54.58C161.95,54.64 165.74,54.55 167.18,54.42C167.97,54.35 168.31,54.23 169,54.13C169.91,54 171.15,53.87 172.17,53.74C173.11,53.62 174.37,53.44 174.89,53.38C175.1,53.36 175.19,53.35 175.34,53.34C175.49,53.33 175.56,53.34 175.79,53.34C176.51,53.33 178.56,53.33 180.32,53.27C182.78,53.19 188.34,52.85 189.16,52.83C189.29,52.83 189.31,52.82 189.39,52.83C189.46,52.84 189.49,52.87 189.61,52.89C190.22,53 194,53.34 195.05,53.48C195.48,53.54 195.51,53.58 195.95,53.62C197.08,53.73 201.41,53.79 202.07,53.82C202.2,53.82 202.19,53.83 202.3,53.83C202.59,53.84 203.22,53.86 203.88,53.9C204.96,53.96 206.82,54.13 208.19,54.21C209.45,54.29 210.59,54.25 211.81,54.39C213.08,54.53 214.27,54.82 215.66,55.07C217.32,55.37 220.05,55.93 221.1,56.06C221.53,56.11 222.01,56.12 222.01,56.12C222.01,56.12 222.01,56.12 222.01,56.12C222.01,56.12 225.93,56.9 227.22,57.2C227.98,57.38 228.3,57.49 229.03,57.67C230.16,57.94 231.73,58.28 233.33,58.61C235.34,59.02 239.04,59.72 240.13,59.91C240.47,59.97 240.52,59.97 240.81,60.02C241.31,60.11 242.04,60.23 242.85,60.42C244.07,60.71 246.82,61.59 247.38,61.69C247.5,61.71 247.61,61.71 247.61,61.71C247.61,61.71 247.61,61.71 247.61,61.71C247.61,61.71 249.05,61.79 249.87,61.84C250.84,61.9 252.25,61.95 253.04,62.02C253.51,62.06 253.81,62.12 254.17,62.15C254.49,62.18 254.73,62.2 255.08,62.21C255.54,62.23 256,62.22 256.67,62.24C257.83,62.28 260.38,62.42 261.42,62.45C261.93,62.47 262.04,62.46 262.56,62.47C263.73,62.48 267.25,62.46 268.22,62.48C268.56,62.49 268.67,62.49 268.9,62.51C269.13,62.53 269.41,62.56 269.58,62.58C269.68,62.59 269.7,62.59 269.81,62.6C270.1,62.63 271.39,62.79 271.39,62.79C271.39,62.79 271.39,62.79 271.39,62.79C271.39,62.79 271.83,62.79 272.07,62.81C272.35,62.83 272.98,62.91 272.98,62.91C272.98,62.91 272.98,62.91 272.98,62.91C272.98,62.91 274.11,62.95 274.56,62.95C274.9,62.95 275.19,62.95 275.47,62.94C275.71,62.93 275.88,62.91 276.15,62.89C276.57,62.85 277.31,62.77 277.73,62.74C278,62.72 278.17,62.72 278.41,62.71C278.69,62.7 279.04,62.68 279.32,62.69Q279.56,62.69 280,62.73" style="vector-effect: none; fill: none; stroke: rgb(17, 17, 17); stroke-opacity: 1; stroke-width: 5px; opacity: 1;"/></g><g class="points"/><g class="text"/></g></g></g><g class="overplot"/><path class="xlines-above crisp" d="M0,0" style="fill: none;"/><path class="ylines-above crisp" d="M0,0" style="fill: none;"/><g class="overlines-above"/><g class="xaxislayer-above"/><g class="yaxislayer-above"/><g class="overaxes-above"/></g></g><g class="polarlayer"/><g class="smithlayer"/><g class="ternarylayer"/><g class="geolayer"/><g class="funnelarealayer"/><g class="pielayer"/><g class="iciclelayer"/><g class="treemaplayer"/><g class="sunburstlayer"/><g class="glimages"/><defs id="topdefs-2a5b51"><g class="clips"/></defs><g class="layer-above"><g class="imagelayer"/><g class="shapelayer"/></g><g class="infolayer"><g class="g-gtitle"><text class="gtitle" x="15" y="25" text-anchor="start" dy="0em" style="font-family: Ubuntu, verdana, arial, sans-serif; font-size: 16px; fill: rgb(233, 84, 32); opacity: 1; font-weight: normal; white-space: pre;">Sněmovna 2021-2025</text></g><g class="g-xtitle"/><g class="g-ytitle"/></g></svg>