<svg class="main-svg" xmlns="http://www.w3.org/2000/svg" xmlns:xlink="http://www.w3.org/1999/xlink" width="300" height="135" style="" viewBox="0 0 300 135"><rect x="0" y="0" width="300" height="135" style="fill: rgb(255, 255, 255); fill-opacity: 1;"/><defs id="defs-458e8d"><g class="clips"><clipPath id="clip458e8dxyplot" class="plotclip"><rect width="280" height="75"/></clipPath><clipPath class="axesclip" id="clip458e8dx"><rect x="10" y="0" width="280" height="135"/></clipPath><clipPath class="axesclip" id="clip458e8dy"><rect x="0" y="50" width="300" height="75"/></clipPath><clipPath class="axesclip" id="clip458e8dxy"><rect x="10" y="50" width="280" height="75"/></clipPath></g><g class="gradients"/><g class="patterns"/></defs><g class="bglayer"/><g class="layer-below"><g class="imagelayer"/><g class="shapelayer"/></g><g class="cartesianlayer"><g class="subplot xy"><g class="layer-subplot"><g class="shapelayer"/><g class="imagelayer"/></g><g class="minor-gridlayer"><g class="x"/><g class="y"/></g><g class="gridlayer"><g class="x"><path class="xgrid crisp" transform="translate(43.46,0)" d="M0,50v75" style="stroke: rgb(235, 240, 248); stroke-opacity: 1; stroke-width: 1px;"/><path class="xgrid crisp" transform="translate(115.55,0)" d="M0,50v75" style="stroke: rgb(235, 240, 248); stroke-opacity: 1; stroke-width: 1px;"/><path class="xgrid crisp" transform="translate(188.83,0)" d="M0,50v75" style="stroke: rgb(235, 240, 248); stroke-opacity: 1; stroke-width: 1px;"/><path class="xgrid crisp" transform="translate(260.91999999999996,0)" d="M0,50v75" style="stroke: rgb(235, 240, 248); stroke-opacity: 1; stroke-width: 1px;"/></g><g class="y"><path class="ygrid crisp" transform="translate(0,103.93)" d="M10,0h280" style="stroke: rgb(235, 240, 248); stroke-opacity: 1; stroke-width: 1px;"/><path class="ygrid crisp" transform="translate(0,82.85)" d="M10,0h280" style="stroke: rgb(235, 240, 248); stroke-opacity: 1; stroke-width: 1px;"/><path class="ygrid crisp" transform="translate(0,61.78)" d="M10,0h280" style="stroke: rgb(235, 240, 248); stroke-opacity: 1; stroke-width: 1px;"/></g></g><g class="zerolinelayer"><path class="yzl zl crisp" transform="translate(0,125)" d="M10,0h280" style="stroke: rgb(235, 240, 248); stroke-opacity: 1; stroke-width: 2px;"/></g><path class="xlines-below"/><path class="ylines-below"/><g class="overlines-below"/><g class="xaxislayer-below"/><g class="yaxislayer-below"/><g class="overaxes-below"/><g class="plot" transform="translate(10,50)" clip-path="url(#clip458e8dxyplot)"><g class="scatterlayer mlayer"><g class="trace scatter trace309cfe" style="stroke-miterlimit: 2; opacity: 1;"><g class="fills"/><g class="errorbars"/><g class="lines"><path class="js-line" d="M0,17.89Q7.27,17.95 12.75,18.11C22.67,18.4 45.11,20.61 54.57,19.84C59.5,19.44 62.06,18.11 65.72,17.54C69.22,17 72.53,16.85 76.07,16.47C79.82,16.07 85.08,15.42 87.62,15.2C88.87,15.09 89.27,15.14 90.41,15.03C92.25,14.86 94.73,14.5 97.58,14.14C101.77,13.61 108.93,12.54 113.12,12.15C115.96,11.89 118.3,11.76 120.28,11.74C121.68,11.73 122.71,11.88 123.87,11.89C124.96,11.9 125.91,11.81 127.06,11.79C128.4,11.77 129.98,11.8 131.44,11.81C132.9,11.82 134.58,11.81 135.82,11.85C136.74,11.88 137.14,11.93 138.21,11.97C140.39,12.06 145.61,11.94 148.17,12.27C149.81,12.48 150.39,13.11 152.15,13.2C155.5,13.38 161,11.97 166.88,11.4C175.62,10.55 197.37,9.36 199.54,9.07C199.78,9.04 199.72,9.03 199.94,8.99C200.99,8.82 206.67,7.81 209.1,7.83C210.7,7.84 211.55,8.33 213.09,8.39C215.21,8.48 218.53,8.14 220.65,7.95C222.19,7.81 223.08,7.75 224.64,7.45C226.93,7.01 231.05,5.65 233,5.29C234.03,5.1 234.93,5.08 235.39,5.03C235.58,5.01 235.57,5.01 235.79,4.99C236.97,4.86 243.19,3.78 246.94,3.75C250.75,3.72 254.06,4.25 258.49,4.86Q264.57,5.69 280,8.71" style="vector-effect: none; fill: none; stroke: rgb(38, 16, 96); stroke-opacity: 1; stroke-width: 5px; opacity: 1;"/></g><g class="points"/><g class="text"/></g><g class="trace scatter trace47d321" style="stroke-miterlimit: 2; opacity: 1;"><g class="fills"/><g class="errorbars"/><g class="lines"><path class="js-line" d="M0,46.34Q7.29,44.44 12.75,42.85C22.69,39.95 45.01,31.92 54.57,29.87C59.41,28.83 62.07,28.76 65.72,28.51C69.23,28.27 72.62,27.59 76.07,28.37C79.92,29.24 85.03,33.42 87.62,34.05C88.82,34.34 89.29,33.87 90.41,34.1C92.27,34.48 94.69,36.1 97.58,36.97C101.73,38.21 108.91,39.65 113.12,40.13C115.95,40.45 118.3,40.34 120.28,40.31C121.68,40.29 122.71,40.2 123.87,40.11C124.97,40.03 125.91,39.79 127.06,39.81C128.41,39.83 129.98,40.3 131.44,40.35C132.9,40.4 134.58,40.22 135.82,40.13C136.74,40.06 137.14,39.95 138.21,39.9C140.39,39.81 145.62,40.42 148.17,40.01C149.82,39.75 150.39,38.76 152.15,38.66C155.49,38.46 160.98,41.49 166.88,41.78C175.6,42.21 197.38,37.9 199.54,38.2C199.79,38.23 199.71,38.31 199.94,38.36C200.99,38.61 206.67,39.16 209.1,39.19C210.7,39.21 211.56,38.82 213.09,38.93C215.22,39.08 218.52,40.2 220.65,40.48C222.18,40.68 223.07,40.58 224.64,40.73C226.92,40.95 231.06,41.62 233,41.8C234.04,41.89 234.93,41.93 235.39,41.93C235.58,41.93 235.57,41.9 235.79,41.91C236.97,41.95 243.18,42.93 246.94,43.21C250.75,43.49 254.06,43.2 258.49,43.56Q264.56,44.05 280,46.38" style="vector-effect: none; fill: none; stroke: rgb(0, 68, 148); stroke-opacity: 1; stroke-width: 5px; opacity: 1;"/></g><g class="points"/><g class="text"/></g><g class="trace scatter trace1bd619" style="stroke-miterlimit: 2; opacity: 1;"><g class="fills"/><g class="errorbars"/><g class="lines"><path class="js-line" d="M0,54.77Q7.28,54.99 12.75,54.81C22.67,54.48 45.08,51.8 54.57,51.87C59.47,51.91 62.07,52.85 65.72,52.82C69.24,52.79 72.52,52.08 76.07,51.76C79.81,51.42 85.08,51.03 87.62,50.87C88.87,50.79 89.27,50.83 90.41,50.74C92.25,50.59 94.73,50.15 97.58,49.9C101.77,49.54 108.93,49.19 113.12,49.04C115.96,48.94 118.3,48.99 120.28,48.93C121.68,48.89 122.71,48.74 123.87,48.76C124.97,48.78 125.91,48.97 127.06,49C128.4,49.03 129.98,48.81 131.44,48.87C132.9,48.93 134.58,49.27 135.82,49.39C136.74,49.48 137.14,49.51 138.21,49.57C140.39,49.7 145.6,49.86 148.17,50.01C149.8,50.1 150.4,50.23 152.15,50.29C155.51,50.4 161.03,49.71 166.88,50.19C175.65,50.91 197.37,55.66 199.54,55.82C199.78,55.84 199.72,55.81 199.94,55.81C201,55.8 206.67,55.81 209.1,55.95C210.7,56.04 211.55,56.26 213.09,56.35C215.21,56.47 218.53,56.47 220.65,56.48C222.19,56.49 223.07,56.45 224.64,56.45C226.92,56.45 231.06,56.54 233,56.53C234.04,56.53 234.93,56.48 235.39,56.49C235.58,56.49 235.57,56.51 235.79,56.51C236.97,56.51 243.19,55.86 246.94,55.86C250.76,55.86 254.06,56.74 258.49,56.53Q264.57,56.24 280,53.22" style="vector-effect: none; fill: none; stroke: rgb(234, 35, 41); stroke-opacity: 1; stroke-width: 5px; opacity: 1;"/></g><g class="points"/><g class="text"/></g><g class="trace scatter trace468c31" style="stroke-miterlimit: 2; opacity: 1;"><g class="fills"/><g class="errorbars"/><g class="lines"><path class="js-line" d="M0,54.98Q7.24,56.76 12.75,57.4C22.64,58.55 45.07,59 54.57,59.27C59.47,59.41 62.07,59.34 65.72,59.41C69.23,59.48 72.56,60.1 76.07,59.67C79.85,59.21 85.07,57.04 87.62,56.48C88.86,56.21 89.27,56.25 90.41,56.01C92.25,55.63 94.71,54.63 97.58,54.24C101.75,53.68 108.93,53.85 113.12,53.85C115.96,53.85 118.3,54.04 120.28,54.04C121.68,54.04 122.71,53.9 123.87,53.93C124.97,53.96 125.91,54.17 127.06,54.21C128.4,54.26 129.98,54.18 131.44,54.12C132.9,54.06 134.58,53.88 135.82,53.85C136.74,53.83 137.14,53.93 138.21,53.89C140.39,53.81 145.6,53.15 148.17,52.95C149.79,52.83 150.41,52.7 152.15,52.72C155.51,52.76 161,53.71 166.88,53.92C175.62,54.24 197.37,53.77 199.54,53.62C199.78,53.6 199.72,53.58 199.94,53.57C200.99,53.51 206.68,53.88 209.1,53.75C210.71,53.66 211.55,53.38 213.09,53.23C215.21,53.02 218.53,52.88 220.65,52.74C222.19,52.64 223.07,52.57 224.64,52.49C226.92,52.38 231.06,52.29 233,52.2C234.04,52.15 234.93,52.1 235.39,52.07C235.58,52.06 235.57,52.05 235.79,52.04C236.97,51.98 243.19,51.92 246.94,51.77C250.76,51.62 254.05,50.99 258.49,51.14Q264.56,51.35 280,53.81" style="vector-effect: none; fill: none; stroke: rgb(0, 0, 0); stroke-opacity: 1; stroke-width: 5px; opacity: 1;"/></g><g class="points"/><g class="text"/></g><g class="trace scatter trace1d6ada" style="stroke-miterlimit: 2; opacity: 1;"><g class="fills"/><g class="errorbars"/><g class="lines"><path class="js-line" d="M0,62.14Q6.74,53.44 12.75,51.4C22.27,48.16 45.09,52.44 54.57,53.28C59.48,53.71 62.07,54.24 65.72,54.75C69.24,55.25 72.54,55.59 76.07,56.3C79.83,57.06 85.09,58.56 87.62,59.25C88.87,59.59 89.26,59.75 90.41,60.05C92.24,60.53 94.71,61.32 97.58,61.79C101.75,62.47 108.93,62.85 113.12,63.1C115.96,63.27 118.3,63.29 120.28,63.35C121.68,63.39 122.71,63.47 123.87,63.43C124.97,63.39 125.91,63.21 127.06,63.14C128.4,63.06 129.98,63.11 131.44,63.04C132.9,62.97 134.58,62.82 135.82,62.7C136.74,62.61 137.14,62.49 138.21,62.44C140.39,62.34 145.6,62.61 148.17,62.59C149.8,62.58 150.4,62.54 152.15,62.48C155.51,62.36 161.01,62.1 166.88,61.85C175.63,61.48 197.37,60.52 199.54,60.47C199.78,60.46 199.72,60.47 199.94,60.47C201,60.48 206.68,60.42 209.1,60.58C210.71,60.68 211.55,60.95 213.09,61.05C215.21,61.18 218.53,61.02 220.65,61.12C222.19,61.19 223.07,61.36 224.64,61.47C226.92,61.63 231.06,61.81 233,61.89C234.04,61.93 234.93,61.96 235.39,61.96C235.58,61.96 235.57,61.95 235.79,61.95C236.97,61.96 243.19,62.33 246.94,62.34C250.76,62.35 254.05,61.94 258.49,62.02Q264.56,62.12 280,63.35" style="vector-effect: none; fill: none; stroke: rgb(93, 140, 0); stroke-opacity: 1; stroke-width: 5px; opacity: 1;"/></g><g class="points"/><g class="text"/></g></g></g><g class="overplot"/><path class="xlines-above crisp" d="M0,0" style="fill: none;"/><path class="ylines-above crisp" d="M0,0" style="fill: none;"/><g class="overlines-above"/><g class="xaxislayer-above"/><g class="yaxislayer-above"/><g class="overaxes-above"/></g></g><g class="polarlayer"/><g class="smithlayer"/><g class="ternarylayer"/><g class="geolayer"/><g class="funnelarealayer"/><g class="pielayer"/><g class="iciclelayer"/><g class="treemaplayer"/><g class="sunburstlayer"/><g class="glimages"/><defs id="topdefs-458e8d"><g class="clips"/></defs><g class="layer-above"><g class="imagelayer"/><g class="shapelayer"/></g><g class="infolayer"><g class="g-gtitle"><text class="gtitle" x="15" y="25" text-anchor="start" dy="0em" style="font-family: Ubuntu, verdana, arial, sans-serif; font-size: 16px; fill: rgb(233, 84, 32); opacity: 1; font-weight: normal; white-space: pre;">Sněmovna 2021-2025</text></g><g class="g-xtitle"/><g class="g-ytitle"/></g></svg>