<svg class="main-svg" xmlns="http://www.w3.org/2000/svg" xmlns:xlink="http://www.w3.org/1999/xlink" width="300" height="135" style="" viewBox="0 0 300 135"><rect x="0" y="0" width="300" height="135" style="fill: rgb(255, 255, 255); fill-opacity: 1;"/><defs id="defs-a14145"><g class="clips"><clipPath id="clipa14145xyplot" class="plotclip"><rect width="280" height="75"/></clipPath><clipPath class="axesclip" id="clipa14145x"><rect x="10" y="0" width="280" height="135"/></clipPath><clipPath class="axesclip" id="clipa14145y"><rect x="0" y="50" width="300" height="75"/></clipPath><clipPath class="axesclip" id="clipa14145xy"><rect x="10" y="50" width="280" height="75"/></clipPath></g><g class="gradients"/><g class="patterns"/></defs><g class="bglayer"/><g class="layer-below"><g class="imagelayer"/><g class="shapelayer"/></g><g class="cartesianlayer"><g class="subplot xy"><g class="layer-subplot"><g class="shapelayer"/><g class="imagelayer"/></g><g class="minor-gridlayer"><g class="x"/><g class="y"/></g><g class="gridlayer"><g class="x"><path class="xgrid crisp" transform="translate(31.52,0)" d="M0,50v75" style="stroke: rgb(235, 240, 248); stroke-opacity: 1; stroke-width: 1px;"/><path class="xgrid crisp" transform="translate(125.02,0)" d="M0,50v75" style="stroke: rgb(235, 240, 248); stroke-opacity: 1; stroke-width: 1px;"/><path class="xgrid crisp" transform="translate(218.53,0)" d="M0,50v75" style="stroke: rgb(235, 240, 248); stroke-opacity: 1; stroke-width: 1px;"/></g><g class="y"><path class="ygrid crisp" transform="translate(0,104.1)" d="M10,0h280" style="stroke: rgb(235, 240, 248); stroke-opacity: 1; stroke-width: 1px;"/><path class="ygrid crisp" transform="translate(0,83.21000000000001)" d="M10,0h280" style="stroke: rgb(235, 240, 248); stroke-opacity: 1; stroke-width: 1px;"/><path class="ygrid crisp" transform="translate(0,62.31)" d="M10,0h280" style="stroke: rgb(235, 240, 248); stroke-opacity: 1; stroke-width: 1px;"/></g></g><g class="zerolinelayer"><path class="yzl zl crisp" transform="translate(0,125)" d="M10,0h280" style="stroke: rgb(235, 240, 248); stroke-opacity: 1; stroke-width: 2px;"/></g><path class="xlines-below"/><path class="ylines-below"/><g class="overlines-below"/><g class="xaxislayer-below"/><g class="yaxislayer-below"/><g class="overaxes-below"/><g class="plot" transform="translate(10,50)" clip-path="url(#clipa14145xyplot)"><g class="scatterlayer mlayer"><g class="trace scatter traceb7c7dc" style="stroke-miterlimit: 2; opacity: 1;"><g class="fills"/><g class="errorbars"/><g class="lines"><path class="js-line" d="M0,18.37Q4.68,18.43 8.2,18.59C14.58,18.88 29.04,21.04 35.1,20.3C38.3,19.91 39.9,18.58 42.27,18.02C44.51,17.49 46.65,17.33 48.93,16.96C51.34,16.56 54.73,15.92 56.36,15.7C57.16,15.59 57.42,15.63 58.15,15.53C59.33,15.36 60.93,15 62.76,14.65C65.45,14.13 70.05,13.07 72.75,12.68C74.58,12.42 76.1,12.28 77.37,12.27C78.27,12.26 78.93,12.41 79.67,12.42C80.37,12.43 80.98,12.33 81.72,12.32C82.58,12.3 83.6,12.34 84.54,12.35C85.48,12.36 86.56,12.34 87.36,12.38C87.95,12.41 88.2,12.46 88.89,12.5C90.29,12.59 93.66,12.46 95.3,12.79C96.37,13 96.72,13.63 97.86,13.72C100.01,13.89 103.55,12.5 107.34,11.93C112.95,11.09 126.94,9.91 128.34,9.62C128.5,9.59 128.46,9.58 128.6,9.54C129.28,9.37 132.93,8.38 134.49,8.39C135.52,8.4 136.06,8.88 137.05,8.94C138.41,9.02 140.56,8.68 141.92,8.49C142.91,8.35 143.49,8.29 144.48,8C145.96,7.57 148.6,6.21 149.86,5.86C150.52,5.68 151.1,5.65 151.4,5.6C151.52,5.58 151.51,5.58 151.66,5.56C152.42,5.44 156.41,4.41 158.83,4.35C161.28,4.29 163.4,5.01 166.26,5.25C170.15,5.58 177.79,6.17 180.09,5.93C180.87,5.85 181.25,5.6 181.63,5.52C181.84,5.47 181.87,5.48 182.14,5.44C183.12,5.3 187.43,4.62 189.06,4.55C189.94,4.51 190.33,4.65 191.11,4.63C192.14,4.61 193.54,4.45 194.69,4.32C195.76,4.2 197.18,3.95 197.77,3.89C198.01,3.86 198.11,3.86 198.28,3.85C198.45,3.84 198.53,3.84 198.79,3.84C199.61,3.82 201.93,3.67 203.92,3.75C206.7,3.87 213,4.7 213.91,4.78C214.05,4.79 214.08,4.8 214.16,4.8C214.25,4.8 214.28,4.77 214.42,4.75C215.12,4.67 219.39,4.75 220.57,4.54C221.06,4.45 221.09,4.23 221.59,4.2C222.86,4.12 227.77,5.45 228.51,5.54C228.65,5.56 228.64,5.55 228.76,5.55C229.09,5.56 229.82,5.48 230.56,5.54C231.79,5.63 233.88,6.08 235.43,6.31C236.85,6.52 238.13,6.72 239.52,6.85C240.95,6.98 242.3,6.96 243.88,7.09C245.76,7.25 248.84,7.61 250.03,7.77C250.51,7.83 251.05,7.93 251.05,7.93C251.05,7.93 251.05,7.93 251.05,7.93C251.05,7.93 255.48,9.28 256.94,9.34C257.8,9.38 258.16,9.08 258.99,9.03C260.26,8.96 262.07,9.42 263.86,9.19C266.15,8.9 270.32,7.17 271.55,6.92C271.93,6.84 271.99,6.88 272.31,6.83C272.87,6.74 273.7,6.57 274.62,6.37C275.99,6.08 279.11,5.24 279.74,5.19Q279.88,5.18 280,5.21" style="vector-effect: none; fill: none; stroke: rgb(38, 16, 96); stroke-opacity: 1; stroke-width: 5px; opacity: 1;"/></g><g class="points"/><g class="text"/></g><g class="trace scatter trace2b6f01" style="stroke-miterlimit: 2; opacity: 1;"><g class="fills"/><g class="errorbars"/><g class="lines"><path class="js-line" d="M0,46.58Q4.7,44.69 8.2,43.12C14.6,40.24 28.9,32.28 35.1,30.25C38.17,29.25 39.91,29.14 42.27,28.9C44.52,28.67 46.77,28.07 48.93,28.77C51.49,29.6 54.66,33.81 56.36,34.4C57.11,34.66 57.45,34.23 58.15,34.44C59.37,34.8 60.86,36.42 62.76,37.29C65.4,38.49 70.03,39.95 72.75,40.42C74.56,40.73 76.1,40.63 77.37,40.6C78.27,40.58 78.93,40.48 79.67,40.4C80.37,40.32 80.98,40.09 81.72,40.11C82.59,40.13 83.6,40.59 84.54,40.64C85.48,40.69 86.56,40.52 87.36,40.43C87.95,40.36 88.2,40.25 88.89,40.2C90.29,40.11 93.68,40.68 95.3,40.3C96.39,40.04 96.71,39.06 97.86,38.96C100,38.78 103.52,41.77 107.34,42.06C112.93,42.48 126.94,38.27 128.34,38.52C128.51,38.55 128.45,38.62 128.6,38.67C129.28,38.9 132.93,39.48 134.49,39.51C135.52,39.53 136.07,39.16 137.05,39.26C138.43,39.4 140.54,40.52 141.92,40.8C142.9,41 143.47,40.91 144.48,41.06C145.95,41.28 148.61,41.97 149.86,42.15C150.53,42.25 151.1,42.28 151.4,42.29C151.52,42.29 151.52,42.27 151.66,42.28C152.43,42.34 156.41,43.34 158.83,43.71C161.28,44.08 163.41,44.06 166.26,44.51C170.17,45.13 177.78,47.09 180.09,47.41C180.85,47.51 181.25,47.49 181.63,47.51C181.85,47.52 181.87,47.54 182.14,47.53C183.13,47.49 187.43,46.92 189.06,46.75C189.94,46.66 190.33,46.55 191.11,46.56C192.14,46.57 193.54,46.96 194.69,46.99C195.75,47.01 197.18,46.74 197.77,46.76C198.01,46.77 198.11,46.82 198.28,46.83C198.45,46.84 198.53,46.83 198.79,46.84C199.61,46.86 201.93,46.96 203.92,46.94C206.7,46.92 213,46.63 213.91,46.58C214.05,46.57 214.08,46.57 214.16,46.56C214.25,46.55 214.27,46.52 214.42,46.5C215.12,46.4 219.39,46.36 220.57,46.22C221.06,46.16 221.1,46.11 221.59,46.03C222.87,45.83 227.77,45.26 228.51,45.17C228.65,45.15 228.64,45.15 228.76,45.14C229.09,45.1 229.81,44.95 230.56,44.93C231.79,44.9 233.88,45.28 235.43,45.27C236.85,45.26 238.13,44.94 239.52,44.92C240.95,44.9 242.3,45.07 243.88,45.18C245.75,45.31 248.84,45.54 250.03,45.68C250.51,45.74 251.05,45.83 251.05,45.83C251.05,45.83 251.05,45.83 251.05,45.83C251.05,45.83 255.48,46.85 256.94,46.94C257.8,46.99 258.16,46.83 258.99,46.8C260.27,46.75 262.06,46.67 263.86,46.77C266.14,46.89 270.33,47.39 271.55,47.65C271.94,47.73 271.98,47.82 272.31,47.89C272.87,48.01 273.7,48.13 274.62,48.14C275.99,48.16 279.11,47.69 279.74,47.7Q279.88,47.7 280,47.73" style="vector-effect: none; fill: none; stroke: rgb(0, 68, 148); stroke-opacity: 1; stroke-width: 5px; opacity: 1;"/></g><g class="points"/><g class="text"/></g><g class="trace scatter traced09bfa" style="stroke-miterlimit: 2; opacity: 1;"><g class="fills"/><g class="errorbars"/><g class="lines"><path class="js-line" d="M0,62.25Q3.98,53.5 8.2,51.6C14.18,48.91 29.01,52.63 35.1,53.46C38.27,53.89 39.93,54.41 42.27,54.92C44.53,55.41 46.68,55.76 48.93,56.46C51.37,57.22 54.73,58.7 56.36,59.38C57.17,59.72 57.41,59.87 58.15,60.17C59.32,60.65 60.9,61.44 62.76,61.9C65.42,62.56 70.05,62.95 72.75,63.2C74.58,63.37 76.1,63.39 77.37,63.45C78.27,63.49 78.93,63.57 79.67,63.53C80.37,63.49 80.98,63.31 81.72,63.24C82.58,63.16 83.6,63.21 84.54,63.14C85.48,63.07 86.56,62.92 87.36,62.81C87.95,62.73 88.2,62.6 88.89,62.55C90.29,62.45 93.65,62.7 95.3,62.69C96.35,62.68 96.74,62.65 97.86,62.59C100.02,62.48 103.56,62.21 107.34,61.96C112.97,61.59 126.94,60.64 128.34,60.59C128.5,60.58 128.46,60.59 128.6,60.59C129.28,60.6 132.93,60.56 134.49,60.71C135.52,60.81 136.06,61.07 137.05,61.17C138.41,61.3 140.56,61.14 141.92,61.24C142.91,61.31 143.47,61.47 144.48,61.58C145.94,61.73 148.61,61.92 149.86,61.99C150.53,62.03 151.1,62.04 151.4,62.05C151.52,62.05 151.51,62.05 151.66,62.05C152.42,62.07 156.42,62.38 158.83,62.36C161.29,62.34 163.4,62.01 166.26,61.9C170.16,61.75 177.79,61.88 180.09,61.7C180.86,61.64 181.25,61.53 181.63,61.48C181.85,61.45 181.87,61.44 182.14,61.42C183.12,61.36 187.43,61.48 189.06,61.44C189.95,61.42 190.33,61.35 191.11,61.33C192.14,61.3 193.54,61.34 194.69,61.33C195.76,61.32 197.18,61.31 197.77,61.29C198.01,61.28 198.11,61.27 198.28,61.26C198.45,61.25 198.53,61.26 198.79,61.25C199.61,61.23 201.93,61.18 203.92,61.08C206.7,60.94 213,60.49 213.91,60.44C214.05,60.43 214.08,60.43 214.16,60.43C214.25,60.43 214.28,60.43 214.42,60.42C215.12,60.37 219.38,59.81 220.57,59.8C221.05,59.8 221.1,59.85 221.59,59.89C222.87,60 227.77,60.41 228.51,60.42C228.65,60.42 228.64,60.42 228.76,60.41C229.09,60.39 229.82,60.36 230.56,60.26C231.79,60.1 233.87,59.65 235.43,59.41C236.85,59.19 238.14,59.08 239.52,58.88C240.95,58.67 242.3,58.38 243.88,58.18C245.75,57.94 248.85,57.81 250.03,57.62C250.52,57.54 251.05,57.39 251.05,57.39C251.05,57.39 251.05,57.39 251.05,57.39C251.05,57.39 255.48,56.43 256.94,56.24C257.8,56.13 258.16,56.17 258.99,56.1C260.27,56 262.05,55.79 263.86,55.66C266.13,55.5 270.33,55.54 271.55,55.29C271.95,55.21 271.99,55.13 272.31,55C272.87,54.77 273.7,54.38 274.62,53.99C275.99,53.41 279.11,52.07 279.74,51.89Q279.88,51.85 280,51.85" style="vector-effect: none; fill: none; stroke: rgb(206, 15, 104); stroke-opacity: 1; stroke-width: 5px; opacity: 1;"/></g><g class="points"/><g class="text"/></g><g class="trace scatter trace9389ea" style="stroke-miterlimit: 2; opacity: 1;"><g class="fills"/><g class="errorbars"/><g class="lines"><path class="js-line" d="M0,54.94Q4.68,55.16 8.2,54.98C14.59,54.65 29,52 35.1,52.07C38.26,52.11 39.93,53.04 42.27,53.01C44.53,52.98 46.65,52.28 48.93,51.96C51.34,51.63 54.73,51.23 56.36,51.07C57.16,50.99 57.42,51.03 58.15,50.94C59.33,50.79 60.92,50.35 62.76,50.11C65.45,49.75 70.05,49.41 72.75,49.26C74.58,49.16 76.1,49.21 77.37,49.15C78.27,49.11 78.93,48.96 79.67,48.98C80.37,49 80.98,49.19 81.72,49.22C82.58,49.25 83.6,49.03 84.54,49.09C85.48,49.15 86.56,49.49 87.36,49.61C87.95,49.7 88.2,49.72 88.89,49.78C90.29,49.91 93.65,50.07 95.3,50.22C96.35,50.31 96.73,50.44 97.86,50.5C100.02,50.61 103.6,49.93 107.34,50.4C113.01,51.11 126.94,55.82 128.34,55.98C128.49,56 128.46,55.97 128.6,55.97C129.28,55.96 132.93,55.96 134.49,56.1C135.52,56.19 136.06,56.41 137.05,56.5C138.41,56.62 140.56,56.62 141.92,56.63C142.91,56.64 143.47,56.59 144.48,56.59C145.94,56.59 148.61,56.67 149.86,56.66C150.53,56.66 151.1,56.62 151.4,56.62C151.52,56.62 151.51,56.63 151.66,56.63C152.42,56.61 156.42,56 158.83,55.94C161.28,55.88 163.41,56.46 166.26,56.31C170.17,56.1 177.78,54.24 180.09,54.13C180.86,54.09 181.25,54.21 181.63,54.22C181.85,54.23 181.87,54.23 182.14,54.22C183.13,54.19 187.43,53.86 189.06,53.8C189.94,53.77 190.33,53.77 191.11,53.78C192.14,53.79 193.55,53.75 194.69,53.89C195.76,54.02 197.17,54.46 197.77,54.55C198.01,54.58 198.11,54.58 198.28,54.59C198.45,54.61 198.53,54.62 198.79,54.64C199.61,54.7 201.93,54.89 203.92,54.94C206.7,55.01 213,54.86 213.91,54.87C214.05,54.87 214.08,54.87 214.16,54.88C214.25,54.89 214.28,54.89 214.42,54.91C215.12,55 219.38,55.57 220.57,55.74C221.05,55.81 221.1,55.82 221.59,55.9C222.87,56.1 227.77,56.96 228.51,57C228.65,57.01 228.64,56.99 228.76,56.99C229.09,56.99 229.81,57.05 230.56,57.05C231.79,57.05 233.88,56.8 235.43,56.88C236.86,56.95 238.14,57.19 239.52,57.44C240.96,57.7 242.3,58.13 243.88,58.42C245.75,58.77 248.84,59.19 250.03,59.33C250.51,59.39 251.05,59.42 251.05,59.42C251.05,59.42 251.05,59.42 251.05,59.42C251.05,59.42 255.48,59.71 256.94,59.75C257.8,59.77 258.16,59.71 258.99,59.75C260.27,59.81 262.05,60.19 263.86,60.24C266.13,60.3 270.32,59.93 271.55,59.89C271.94,59.88 271.99,59.87 272.31,59.88C272.87,59.89 273.7,59.95 274.62,59.99C275.99,60.04 279.11,60.15 279.74,60.15Q279.88,60.15 280,60.14" style="vector-effect: none; fill: none; stroke: rgb(234, 35, 41); stroke-opacity: 1; stroke-width: 5px; opacity: 1;"/></g><g class="points"/><g class="text"/></g><g class="trace scatter traced1d43e" style="stroke-miterlimit: 2; opacity: 1;"><g class="fills"/><g class="errorbars"/><g class="lines"><path class="js-line" d="M0,55.15Q4.63,56.91 8.2,57.55C14.54,58.68 28.99,59.13 35.1,59.4C38.25,59.54 39.92,59.47 42.27,59.54C44.53,59.61 46.7,60.21 48.93,59.8C51.39,59.35 54.71,57.19 56.36,56.63C57.15,56.36 57.42,56.4 58.15,56.17C59.34,55.79 60.89,54.8 62.76,54.42C65.42,53.88 70.05,54.03 72.75,54.03C74.58,54.03 76.1,54.22 77.37,54.22C78.27,54.22 78.93,54.08 79.67,54.11C80.37,54.14 80.98,54.34 81.72,54.38C82.58,54.42 83.6,54.36 84.54,54.3C85.48,54.24 86.56,54.06 87.36,54.03C87.95,54.01 88.21,54.11 88.89,54.07C90.29,53.99 93.64,53.32 95.3,53.13C96.34,53.01 96.74,52.89 97.86,52.91C100.02,52.95 103.55,53.89 107.34,54.1C112.96,54.41 126.94,53.94 128.34,53.8C128.5,53.78 128.46,53.76 128.6,53.75C129.28,53.7 132.94,54.06 134.49,53.93C135.52,53.84 136.06,53.56 137.05,53.41C138.41,53.21 140.56,53.06 141.92,52.93C142.91,52.83 143.47,52.76 144.48,52.69C145.94,52.58 148.61,52.5 149.86,52.41C150.53,52.36 151.1,52.3 151.4,52.28C151.52,52.27 151.51,52.27 151.66,52.26C152.42,52.22 156.42,52.15 158.83,52.07C161.28,51.99 163.41,51.62 166.26,51.78C170.17,52 177.78,53.75 180.09,53.92C180.86,53.98 181.26,53.88 181.63,53.91C181.85,53.93 181.87,53.98 182.14,54C183.12,54.07 187.44,53.97 189.06,53.83C189.95,53.75 190.33,53.63 191.11,53.53C192.14,53.4 193.54,53.26 194.69,53.13C195.76,53.01 197.18,52.82 197.77,52.76C198.01,52.74 198.11,52.73 198.28,52.72C198.45,52.71 198.53,52.72 198.79,52.72C199.61,52.71 201.93,52.71 203.92,52.65C206.7,52.57 213,52.21 213.91,52.19C214.05,52.19 214.08,52.18 214.16,52.19C214.25,52.2 214.27,52.23 214.42,52.25C215.12,52.36 219.38,52.72 220.57,52.86C221.05,52.92 221.1,52.96 221.59,53C222.87,53.11 227.77,53.17 228.51,53.2C228.65,53.2 228.64,53.21 228.76,53.21C229.09,53.22 229.81,53.24 230.56,53.28C231.79,53.34 233.88,53.52 235.43,53.6C236.85,53.67 238.14,53.63 239.52,53.76C240.95,53.9 242.3,54.19 243.88,54.44C245.75,54.74 248.84,55.3 250.03,55.42C250.51,55.47 251.05,55.47 251.05,55.47C251.05,55.47 251.05,55.47 251.05,55.47C251.05,55.47 255.49,56.18 256.94,56.46C257.8,56.62 258.16,56.75 258.99,56.9C260.27,57.14 262.05,57.4 263.86,57.67C266.13,58 270.32,58.56 271.55,58.71C271.93,58.76 271.99,58.75 272.31,58.79C272.87,58.85 273.71,58.87 274.62,59.05C276,59.33 279.11,60.46 279.74,60.55Q279.88,60.57 280,60.55" style="vector-effect: none; fill: none; stroke: rgb(0, 0, 0); stroke-opacity: 1; stroke-width: 5px; opacity: 1;"/></g><g class="points"/><g class="text"/></g></g></g><g class="overplot"/><path class="xlines-above crisp" d="M0,0" style="fill: none;"/><path class="ylines-above crisp" d="M0,0" style="fill: none;"/><g class="overlines-above"/><g class="xaxislayer-above"/><g class="yaxislayer-above"/><g class="overaxes-above"/></g></g><g class="polarlayer"/><g class="smithlayer"/><g class="ternarylayer"/><g class="geolayer"/><g class="funnelarealayer"/><g class="pielayer"/><g class="iciclelayer"/><g class="treemaplayer"/><g class="sunburstlayer"/><g class="glimages"/><defs id="topdefs-a14145"><g class="clips"/></defs><g class="layer-above"><g class="imagelayer"/><g class="shapelayer"/></g><g class="infolayer"><g class="g-gtitle"><text class="gtitle" x="15" y="25" text-anchor="start" dy="0em" style="font-family: Ubuntu, verdana, arial, sans-serif; font-size: 16px; fill: rgb(233, 84, 32); opacity: 1; font-weight: normal; white-space: pre;">Sněmovna 2021-2025</text></g><g class="g-xtitle"/><g class="g-ytitle"/></g></svg>