<svg class="main-svg" xmlns="http://www.w3.org/2000/svg" xmlns:xlink="http://www.w3.org/1999/xlink" width="400" height="400" style="" viewBox="0 0 400 400"><rect x="0" y="0" width="400" height="400" style="fill: rgb(255, 255, 255); fill-opacity: 1;"/><defs id="defs-2b99f5"><g class="clips"><clipPath id="clip2b99f5xyplot" class="plotclip"><rect width="203" height="330"/></clipPath><clipPath class="axesclip" id="clip2b99f5x"><rect x="50" y="0" width="203" height="400"/></clipPath><clipPath class="axesclip" id="clip2b99f5y"><rect x="0" y="20" width="400" height="330"/></clipPath><clipPath class="axesclip" id="clip2b99f5xy"><rect x="50" y="20" width="203" height="330"/></clipPath></g><g class="gradients"/><g class="patterns"/></defs><g class="bglayer"/><g class="layer-below"><g class="imagelayer"/><g class="shapelayer"/></g><g class="cartesianlayer"><g class="subplot xy"><g class="layer-subplot"><g class="shapelayer"/><g class="imagelayer"/></g><g class="gridlayer"><g class="x"><path class="xgrid crisp" transform="translate(61.74,0)" d="M0,20v330" style="stroke: rgb(235, 240, 248); stroke-opacity: 1; stroke-width: 1px;"/><path class="xgrid crisp" transform="translate(112.72999999999999,0)" d="M0,20v330" style="stroke: rgb(235, 240, 248); stroke-opacity: 1; stroke-width: 1px;"/><path class="xgrid crisp" transform="translate(163.72,0)" d="M0,20v330" style="stroke: rgb(235, 240, 248); stroke-opacity: 1; stroke-width: 1px;"/><path class="xgrid crisp" transform="translate(214.86,0)" d="M0,20v330" style="stroke: rgb(235, 240, 248); stroke-opacity: 1; stroke-width: 1px;"/></g><g class="y"><path class="ygrid crisp" transform="translate(0,306.74)" d="M50,0h203" style="stroke: rgb(235, 240, 248); stroke-opacity: 1; stroke-width: 1px;"/><path class="ygrid crisp" transform="translate(0,263.48)" d="M50,0h203" style="stroke: rgb(235, 240, 248); stroke-opacity: 1; stroke-width: 1px;"/><path class="ygrid crisp" transform="translate(0,220.22)" d="M50,0h203" style="stroke: rgb(235, 240, 248); stroke-opacity: 1; stroke-width: 1px;"/><path class="ygrid crisp" transform="translate(0,176.96)" d="M50,0h203" style="stroke: rgb(235, 240, 248); stroke-opacity: 1; stroke-width: 1px;"/><path class="ygrid crisp" transform="translate(0,133.69)" d="M50,0h203" style="stroke: rgb(235, 240, 248); stroke-opacity: 1; stroke-width: 1px;"/><path class="ygrid crisp" transform="translate(0,90.43)" d="M50,0h203" style="stroke: rgb(235, 240, 248); stroke-opacity: 1; stroke-width: 1px;"/><path class="ygrid crisp" transform="translate(0,47.17)" d="M50,0h203" style="stroke: rgb(235, 240, 248); stroke-opacity: 1; stroke-width: 1px;"/></g></g><g class="zerolinelayer"><path class="yzl zl crisp" transform="translate(0,350)" d="M50,0h203" style="stroke: rgb(235, 240, 248); stroke-opacity: 1; stroke-width: 2px;"/></g><path class="xlines-below"/><path class="ylines-below"/><g class="overlines-below"/><g class="xaxislayer-below"/><g class="yaxislayer-below"/><g class="overaxes-below"/><g class="plot" transform="translate(50,20)" clip-path="url(#clip2b99f5xyplot)"><g class="scatterlayer mlayer"><g class="trace scatter trace6cef93" style="stroke-miterlimit: 2; opacity: 1;"><g class="fills"><g><path class="js-fill" d="M0,50.02Q2.58,50.64 4.47,51.32C7.98,52.57 16.05,58.77 19.14,57.59C21.49,56.69 21.62,51.53 23.05,49.24C24.18,47.42 25.47,46.34 26.68,44.7C28.03,42.88 29.86,40.11 30.74,38.78C31.18,38.11 31.29,37.84 31.71,37.26C32.33,36.41 33.3,35.59 34.23,34.24C35.79,31.98 37.91,25.86 39.68,24.56C40.53,23.94 41.51,24.27 42.19,24.03C42.7,23.85 43.04,23.42 43.45,23.4C43.83,23.38 44.16,23.77 44.57,23.83C45.03,23.9 45.59,23.75 46.1,23.71C46.61,23.66 47.25,23.34 47.64,23.56C48.07,23.8 47.96,24.84 48.48,25.27C49.19,25.86 51.15,25.55 51.97,26.22C52.73,26.84 52.68,28.92 53.37,28.99C54.5,29.1 56.22,24.38 58.54,22.46C61.43,20.07 69.23,16.2 70,16.5C70.13,16.55 70.09,16.62 70.13,16.85C70.78,20.44 70.4,102.67 70.13,110.39C70.09,111.48 70.46,111.67 70,112.26C68.84,113.75 61.41,114 58.54,116C56.16,117.66 54.5,122.64 53.37,122.53C52.68,122.46 52.73,120.38 51.97,119.76C51.15,119.09 49.19,119.4 48.48,118.81C47.96,118.38 48.07,117.34 47.64,117.1C47.25,116.88 46.61,117.21 46.1,117.25C45.59,117.29 45.03,117.43 44.57,117.36C44.16,117.3 43.83,116.91 43.45,116.93C43.04,116.95 42.7,117.38 42.19,117.56C41.51,117.8 40.56,117.52 39.68,118.09C38.01,119.17 35.73,123.63 34.23,125.55C33.25,126.8 32.33,127.72 31.71,128.57C31.29,129.15 31.18,129.42 30.74,130.09C29.86,131.42 28.15,134.59 26.68,136.01C25.54,137.11 24.11,137.01 23.05,138.32C21.34,140.44 21.65,148 19.14,148.9C16.06,150.01 8.03,140.97 4.47,140.4Q2.62,140.1 0,141.33Z" style="fill: rgb(38, 16, 96); fill-opacity: 0.05; stroke-width: 0;"/></g></g><g class="errorbars"/><g class="lines"><path class="js-line" d="M0,50.02Q2.58,50.64 4.47,51.32C7.98,52.57 16.05,58.77 19.14,57.59C21.49,56.69 21.62,51.53 23.05,49.24C24.18,47.42 25.47,46.34 26.68,44.7C28.03,42.88 29.86,40.11 30.74,38.78C31.18,38.11 31.29,37.84 31.71,37.26C32.33,36.41 33.3,35.59 34.23,34.24C35.79,31.98 37.91,25.86 39.68,24.56C40.53,23.94 41.51,24.27 42.19,24.03C42.7,23.85 43.04,23.42 43.45,23.4C43.83,23.38 44.16,23.77 44.57,23.83C45.03,23.9 45.59,23.75 46.1,23.71C46.61,23.66 47.25,23.34 47.64,23.56C48.07,23.8 47.96,24.84 48.48,25.27C49.19,25.86 51.15,25.55 51.97,26.22C52.73,26.84 52.68,28.92 53.37,28.99C54.5,29.1 56.22,24.38 58.54,22.46C61.43,20.07 69.23,16.2 70,16.5C70.13,16.55 70.09,16.62 70.13,16.85C70.78,20.44 70.4,102.67 70.13,110.39C70.09,111.48 70.46,111.67 70,112.26C68.84,113.75 61.41,114 58.54,116C56.16,117.66 54.5,122.64 53.37,122.53C52.68,122.46 52.73,120.38 51.97,119.76C51.15,119.09 49.19,119.4 48.48,118.81C47.96,118.38 48.07,117.34 47.64,117.1C47.25,116.88 46.61,117.21 46.1,117.25C45.59,117.29 45.03,117.43 44.57,117.36C44.16,117.3 43.83,116.91 43.45,116.93C43.04,116.95 42.7,117.38 42.19,117.56C41.51,117.8 40.56,117.52 39.68,118.09C38.01,119.17 35.73,123.63 34.23,125.55C33.25,126.8 32.33,127.72 31.71,128.57C31.29,129.15 31.18,129.42 30.74,130.09C29.86,131.42 28.15,134.59 26.68,136.01C25.54,137.11 24.11,137.01 23.05,138.32C21.34,140.44 21.65,148 19.14,148.9C16.06,150.01 8.03,140.97 4.47,140.4Q2.62,140.1 0,141.33" style="vector-effect: non-scaling-stroke; fill: none; stroke: rgb(255, 255, 255); stroke-opacity: 0; stroke-width: 2px; opacity: 1;"/></g><g class="points"/><g class="text"/></g><g class="trace scatter trace10ab43" style="stroke-miterlimit: 2; opacity: 1;"><g class="fills"><g><path class="js-fill" d="M0,175.97Q2.65,167.87 4.47,161.35C8.07,148.44 15.32,113.53 19.14,103.26C20.6,99.35 21.41,96.32 23.05,95.48C24.12,94.93 25.66,95.03 26.68,96.05C29.39,98.76 29.13,120.61 30.74,121.73C31.05,121.95 31.41,121.34 31.71,121.54C32.81,122.28 32.97,129.99 34.23,134.25C35.57,138.81 37.82,145.83 39.68,148.01C40.51,148.98 41.53,149.6 42.19,149.5C42.72,149.42 43.03,148.52 43.45,148.1C43.82,147.72 44.19,147.04 44.57,147.08C45.07,147.14 45.55,149.26 46.1,149.33C46.58,149.39 47.23,148.46 47.64,147.99C48,147.58 48.03,146.84 48.48,146.72C49.2,146.53 51.15,148.91 51.97,148.5C53.13,147.92 52.61,140.78 53.37,140.73C54.47,140.65 56.16,156.25 58.54,156.47C61.41,156.73 69.13,135.19 70,135.37C70.2,135.41 70.09,135.91 70.13,136.68C70.43,142.64 70.42,214.62 70.13,214.63C70.09,214.63 70.23,213.37 70,213.31C69.09,213.07 61.45,230.21 58.54,229.96C56.26,229.76 54.48,218.58 53.37,218.68C52.62,218.75 52.95,223.78 51.97,224.22C51.16,224.59 49.2,222.25 48.48,222.44C48.03,222.56 48,223.3 47.64,223.71C47.23,224.18 46.58,225.11 46.1,225.05C45.55,224.98 45.07,222.86 44.57,222.8C44.19,222.76 43.82,223.44 43.45,223.82C43.03,224.24 42.72,225.14 42.19,225.22C41.53,225.32 40.53,224.66 39.68,223.73C37.91,221.78 35.58,216.02 34.23,212.2C32.99,208.69 32.73,202.38 31.71,201.72C31.4,201.52 31.06,202.12 30.74,201.9C29.26,200.89 29.15,183.07 26.68,180.68C25.66,179.69 24.15,179.64 23.05,180.11C21.55,180.75 20.57,182.71 19.14,185.66C15.21,193.76 8.07,223.93 4.47,234.85Q2.65,240.38 0,247.23Z" style="fill: rgb(0, 68, 148); fill-opacity: 0.05; stroke-width: 0;"/></g></g><g class="errorbars"/><g class="lines"><path class="js-line" d="M0,175.97Q2.65,167.87 4.47,161.35C8.07,148.44 15.32,113.53 19.14,103.26C20.6,99.35 21.41,96.32 23.05,95.48C24.12,94.93 25.66,95.03 26.68,96.05C29.39,98.76 29.13,120.61 30.74,121.73C31.05,121.95 31.41,121.34 31.71,121.54C32.81,122.28 32.97,129.99 34.23,134.25C35.57,138.81 37.82,145.83 39.68,148.01C40.51,148.98 41.53,149.6 42.19,149.5C42.72,149.42 43.03,148.52 43.45,148.1C43.82,147.72 44.19,147.04 44.57,147.08C45.07,147.14 45.55,149.26 46.1,149.33C46.58,149.39 47.23,148.46 47.64,147.99C48,147.58 48.03,146.84 48.48,146.72C49.2,146.53 51.15,148.91 51.97,148.5C53.13,147.92 52.61,140.78 53.37,140.73C54.47,140.65 56.16,156.25 58.54,156.47C61.41,156.73 69.13,135.19 70,135.37C70.2,135.41 70.09,135.91 70.13,136.68C70.43,142.64 70.42,214.62 70.13,214.63C70.09,214.63 70.23,213.37 70,213.31C69.09,213.07 61.45,230.21 58.54,229.96C56.26,229.76 54.48,218.58 53.37,218.68C52.62,218.75 52.95,223.78 51.97,224.22C51.16,224.59 49.2,222.25 48.48,222.44C48.03,222.56 48,223.3 47.64,223.71C47.23,224.18 46.58,225.11 46.1,225.05C45.55,224.98 45.07,222.86 44.57,222.8C44.19,222.76 43.82,223.44 43.45,223.82C43.03,224.24 42.72,225.14 42.19,225.22C41.53,225.32 40.53,224.66 39.68,223.73C37.91,221.78 35.58,216.02 34.23,212.2C32.99,208.69 32.73,202.38 31.71,201.72C31.4,201.52 31.06,202.12 30.74,201.9C29.26,200.89 29.15,183.07 26.68,180.68C25.66,179.69 24.15,179.64 23.05,180.11C21.55,180.75 20.57,182.71 19.14,185.66C15.21,193.76 8.07,223.93 4.47,234.85Q2.65,240.38 0,247.23" style="vector-effect: non-scaling-stroke; fill: none; stroke: rgb(255, 255, 255); stroke-opacity: 0; stroke-width: 2px; opacity: 1;"/></g><g class="points"/><g class="text"/></g><g class="trace scatter trace3fdd7f" style="stroke-miterlimit: 2; opacity: 1;"><g class="fills"><g><path class="js-fill" d="M0,218.44Q1.94,225.47 4.47,228.53C7.68,232.42 15.69,237.9 19.14,238.7C20.76,239.07 21.78,238 23.05,238.1C24.29,238.2 25.65,239.85 26.68,239.28C28.81,238.11 29.43,224.83 30.74,223.43C31.07,223.08 31.4,223.43 31.71,223.11C32.63,222.17 32.67,216.66 34.23,214.78C35.54,213.2 38.22,211.89 39.68,211.92C40.68,211.94 41.54,213.51 42.19,213.37C42.75,213.25 43.02,211.64 43.45,211.6C43.82,211.57 44.13,212.46 44.57,212.7C45.01,212.94 45.61,213.16 46.1,213.06C46.64,212.95 47.18,212.11 47.64,211.92C47.94,211.79 48.16,211.98 48.48,211.78C49.34,211.23 50.99,206.94 51.97,206.76C52.49,206.67 52.76,207.28 53.37,207.72C54.56,208.58 56.32,210.94 58.54,211.65C61.49,212.59 68.82,212.41 70,211.27C70.48,210.81 70.09,209.38 70.13,209.38C70.34,209.39 70.66,271.64 70.13,271.74C70.09,271.75 70.14,271.47 70,271.4C69.22,270.98 61.5,274.65 58.54,274.01C56.34,273.53 54.56,270.92 53.37,270.07C52.76,269.63 52.49,269.02 51.97,269.12C50.99,269.3 49.34,273.59 48.48,274.14C48.16,274.34 47.95,274.35 47.64,274.28C47.18,274.18 46.58,273.12 46.1,273.19C45.55,273.26 45.05,275.03 44.57,275.06C44.18,275.08 43.87,274.21 43.45,273.95C43.07,273.71 42.68,273.51 42.19,273.5C41.5,273.49 40.69,274.07 39.68,274.28C38.22,274.59 35.55,273.92 34.23,274.91C32.79,276 32.54,280.24 31.71,281.01C31.38,281.31 31.08,281 30.74,281.33C29.57,282.47 28.55,291.81 26.68,292.73C25.63,293.25 24.29,291.65 23.05,291.55C21.78,291.45 20.83,292.34 19.14,292.15C15.78,291.78 7.67,289.49 4.47,286.43Q1.79,283.87 0,276.34Z" style="fill: rgb(0, 0, 0); fill-opacity: 0.05; stroke-width: 0;"/></g></g><g class="errorbars"/><g class="lines"><path class="js-line" d="M0,218.44Q1.94,225.47 4.47,228.53C7.68,232.42 15.69,237.9 19.14,238.7C20.76,239.07 21.78,238 23.05,238.1C24.29,238.2 25.65,239.85 26.68,239.28C28.81,238.11 29.43,224.83 30.74,223.43C31.07,223.08 31.4,223.43 31.71,223.11C32.63,222.17 32.67,216.66 34.23,214.78C35.54,213.2 38.22,211.89 39.68,211.92C40.68,211.94 41.54,213.51 42.19,213.37C42.75,213.25 43.02,211.64 43.45,211.6C43.82,211.57 44.13,212.46 44.57,212.7C45.01,212.94 45.61,213.16 46.1,213.06C46.64,212.95 47.18,212.11 47.64,211.92C47.94,211.79 48.16,211.98 48.48,211.78C49.34,211.23 50.99,206.94 51.97,206.76C52.49,206.67 52.76,207.28 53.37,207.72C54.56,208.58 56.32,210.94 58.54,211.65C61.49,212.59 68.82,212.41 70,211.27C70.48,210.81 70.09,209.38 70.13,209.38C70.34,209.39 70.66,271.64 70.13,271.74C70.09,271.75 70.14,271.47 70,271.4C69.22,270.98 61.5,274.65 58.54,274.01C56.34,273.53 54.56,270.92 53.37,270.07C52.76,269.63 52.49,269.02 51.97,269.12C50.99,269.3 49.34,273.59 48.48,274.14C48.16,274.34 47.95,274.35 47.64,274.28C47.18,274.18 46.58,273.12 46.1,273.19C45.55,273.26 45.05,275.03 44.57,275.06C44.18,275.08 43.87,274.21 43.45,273.95C43.07,273.71 42.68,273.51 42.19,273.5C41.5,273.49 40.69,274.07 39.68,274.28C38.22,274.59 35.55,273.92 34.23,274.91C32.79,276 32.54,280.24 31.71,281.01C31.38,281.31 31.08,281 30.74,281.33C29.57,282.47 28.55,291.81 26.68,292.73C25.63,293.25 24.29,291.65 23.05,291.55C21.78,291.45 20.83,292.34 19.14,292.15C15.78,291.78 7.67,289.49 4.47,286.43Q1.79,283.87 0,276.34" style="vector-effect: non-scaling-stroke; fill: none; stroke: rgb(255, 255, 255); stroke-opacity: 0; stroke-width: 2px; opacity: 1;"/></g><g class="points"/><g class="text"/></g><g class="trace scatter trace5cadf5" style="stroke-miterlimit: 2; opacity: 1;"><g class="fills"><g><path class="js-fill" d="M0,217.08Q2.73,217.67 4.47,216.91C8.21,215.28 15.88,202.04 19.14,202.24C20.94,202.35 21.77,207.25 23.05,207.26C24.28,207.27 25.44,204.27 26.68,202.69C28,201.01 29.79,197.65 30.74,197.46C31.13,197.38 31.38,198.11 31.71,198C32.49,197.74 32.93,193.94 34.23,192.51C35.56,191.05 38.17,189.62 39.68,189.36C40.64,189.2 41.54,190.06 42.19,189.83C42.76,189.62 43.04,188.31 43.45,188.3C43.83,188.29 44.17,189.57 44.57,189.57C45.04,189.57 45.61,187.84 46.1,187.88C46.64,187.92 47.22,189.49 47.64,190.19C47.98,190.74 48.03,191.17 48.48,191.7C49.2,192.55 51.07,193.72 51.97,194.43C52.54,194.88 52.71,195.38 53.37,195.54C54.51,195.82 56.84,193.66 58.54,194.55C62.46,196.59 69.19,219.1 70,220.02C70.06,220.09 70.09,220.03 70.13,220.1C70.95,221.57 70.93,279.82 70.13,280.24C70.09,280.26 70.06,280.22 70,280.15C69.22,279.28 62.26,260.9 58.54,259.14C56.79,258.32 54.51,260.41 53.37,260.13C52.7,259.97 52.59,259.28 51.97,259.01C51.1,258.64 49.19,259 48.48,258.51C47.98,258.17 48.06,257.26 47.64,257C47.25,256.76 46.61,257.02 46.1,256.92C45.58,256.82 45.01,256.67 44.57,256.38C44.12,256.08 43.83,255.11 43.45,255.12C43.04,255.13 42.76,256.43 42.19,256.64C41.54,256.87 40.64,256 39.68,256.17C38.17,256.43 35.62,258.12 34.23,259.33C33.11,260.31 32.41,262.45 31.71,262.59C31.35,262.66 31.16,262.01 30.74,262.04C29.84,262.1 27.92,263.85 26.68,265.05C25.34,266.34 24.38,269.43 23.05,269.62C21.84,269.79 20.86,266.83 19.14,266.82C15.82,266.8 8.09,275.83 4.47,277.04Q2.66,277.65 0,277.21Z" style="fill: rgb(234, 35, 41); fill-opacity: 0.05; stroke-width: 0;"/></g></g><g class="errorbars"/><g class="lines"><path class="js-line" d="M0,217.08Q2.73,217.67 4.47,216.91C8.21,215.28 15.88,202.04 19.14,202.24C20.94,202.35 21.77,207.25 23.05,207.26C24.28,207.27 25.44,204.27 26.68,202.69C28,201.01 29.79,197.65 30.74,197.46C31.13,197.38 31.38,198.11 31.71,198C32.49,197.74 32.93,193.94 34.23,192.51C35.56,191.05 38.17,189.62 39.68,189.36C40.64,189.2 41.54,190.06 42.19,189.83C42.76,189.62 43.04,188.31 43.45,188.3C43.83,188.29 44.17,189.57 44.57,189.57C45.04,189.57 45.61,187.84 46.1,187.88C46.64,187.92 47.22,189.49 47.64,190.19C47.98,190.74 48.03,191.17 48.48,191.7C49.2,192.55 51.07,193.72 51.97,194.43C52.54,194.88 52.71,195.38 53.37,195.54C54.51,195.82 56.84,193.66 58.54,194.55C62.46,196.59 69.19,219.1 70,220.02C70.06,220.09 70.09,220.03 70.13,220.1C70.95,221.57 70.93,279.82 70.13,280.24C70.09,280.26 70.06,280.22 70,280.15C69.22,279.28 62.26,260.9 58.54,259.14C56.79,258.32 54.51,260.41 53.37,260.13C52.7,259.97 52.59,259.28 51.97,259.01C51.1,258.64 49.19,259 48.48,258.51C47.98,258.17 48.06,257.26 47.64,257C47.25,256.76 46.61,257.02 46.1,256.92C45.58,256.82 45.01,256.67 44.57,256.38C44.12,256.08 43.83,255.11 43.45,255.12C43.04,255.13 42.76,256.43 42.19,256.64C41.54,256.87 40.64,256 39.68,256.17C38.17,256.43 35.62,258.12 34.23,259.33C33.11,260.31 32.41,262.45 31.71,262.59C31.35,262.66 31.16,262.01 30.74,262.04C29.84,262.1 27.92,263.85 26.68,265.05C25.34,266.34 24.38,269.43 23.05,269.62C21.84,269.79 20.86,266.83 19.14,266.82C15.82,266.8 8.09,275.83 4.47,277.04Q2.66,277.65 0,277.21" style="vector-effect: non-scaling-stroke; fill: none; stroke: rgb(255, 255, 255); stroke-opacity: 0; stroke-width: 2px; opacity: 1;"/></g><g class="points"/><g class="text"/></g><g class="trace scatter trace67c6d8" style="stroke-miterlimit: 2; opacity: 1;"><g class="fills"><g><path class="js-fill" d="M0,251.38Q-1.34,202.47 4.47,199.73C7.88,198.12 16.02,206.35 19.14,209.84C21.27,212.22 21.78,214.74 23.05,217.15C24.29,219.5 25.57,221.31 26.68,224.14C28.22,228.06 29.85,235.61 30.74,238.78C31.17,240.31 31.31,240.79 31.71,242.18C32.35,244.37 32.84,248.22 34.23,250.63C35.55,252.91 38.12,255.25 39.68,256.38C40.61,257.05 41.55,257.01 42.19,257.56C42.77,258.06 43.08,259.49 43.45,259.44C43.9,259.38 43.97,256.5 44.57,256.18C44.98,255.97 45.6,256.66 46.1,256.6C46.63,256.54 47.23,256.12 47.64,255.76C48.01,255.44 48.02,254.89 48.48,254.6C49.2,254.15 51.07,253.93 51.97,253.98C52.55,254.01 52.8,254.51 53.37,254.39C54.6,254.14 56.42,251.68 58.54,250.17C61.55,248.03 69.26,243.35 70,243.17C70.07,243.15 70.09,243.14 70.13,243.18C70.95,244.06 70.95,293.64 70.13,294.4C70.09,294.44 70.07,294.37 70,294.39C69.26,294.57 61.72,300.57 58.54,301.39C56.57,301.9 54.48,300.64 53.37,301.16C52.63,301.5 52.63,302.82 51.97,302.98C51.12,303.19 49.21,301.18 48.48,301.37C48.04,301.49 48.01,302.21 47.64,302.53C47.23,302.89 46.58,302.98 46.1,303.37C45.54,303.82 45.06,304.67 44.57,305.18C44.18,305.59 43.81,306.25 43.45,306.21C43.01,306.16 42.77,304.83 42.19,304.33C41.55,303.78 40.66,303.69 39.68,303.15C38.19,302.32 35.56,301.22 34.23,299.62C32.88,297.99 32.44,294.62 31.71,293.4C31.36,292.82 31.11,292.86 30.74,292.23C29.74,290.55 28.2,284.73 26.68,282.05C25.56,280.07 24.28,278.89 23.05,277.28C21.77,275.61 21.11,273.87 19.14,272.2C15.97,269.51 7.79,262.59 4.47,264.31Q-0.44,266.85 0,300.38Z" style="fill: rgb(93, 140, 0); fill-opacity: 0.05; stroke-width: 0;"/></g></g><g class="errorbars"/><g class="lines"><path class="js-line" d="M0,251.38Q-1.34,202.47 4.47,199.73C7.88,198.12 16.02,206.35 19.14,209.84C21.27,212.22 21.78,214.74 23.05,217.15C24.29,219.5 25.57,221.31 26.68,224.14C28.22,228.06 29.85,235.61 30.74,238.78C31.17,240.31 31.31,240.79 31.71,242.18C32.35,244.37 32.84,248.22 34.23,250.63C35.55,252.91 38.12,255.25 39.68,256.38C40.61,257.05 41.55,257.01 42.19,257.56C42.77,258.06 43.08,259.49 43.45,259.44C43.9,259.38 43.97,256.5 44.57,256.18C44.98,255.97 45.6,256.66 46.1,256.6C46.63,256.54 47.23,256.12 47.64,255.76C48.01,255.44 48.02,254.89 48.48,254.6C49.2,254.15 51.07,253.93 51.97,253.98C52.55,254.01 52.8,254.51 53.37,254.39C54.6,254.14 56.42,251.68 58.54,250.17C61.55,248.03 69.26,243.35 70,243.17C70.07,243.15 70.09,243.14 70.13,243.18C70.95,244.06 70.95,293.64 70.13,294.4C70.09,294.44 70.07,294.37 70,294.39C69.26,294.57 61.72,300.57 58.54,301.39C56.57,301.9 54.48,300.64 53.37,301.16C52.63,301.5 52.63,302.82 51.97,302.98C51.12,303.19 49.21,301.18 48.48,301.37C48.04,301.49 48.01,302.21 47.64,302.53C47.23,302.89 46.58,302.98 46.1,303.37C45.54,303.82 45.06,304.67 44.57,305.18C44.18,305.59 43.81,306.25 43.45,306.21C43.01,306.16 42.77,304.83 42.19,304.33C41.55,303.78 40.66,303.69 39.68,303.15C38.19,302.32 35.56,301.22 34.23,299.62C32.88,297.99 32.44,294.62 31.71,293.4C31.36,292.82 31.11,292.86 30.74,292.23C29.74,290.55 28.2,284.73 26.68,282.05C25.56,280.07 24.28,278.89 23.05,277.28C21.77,275.61 21.11,273.87 19.14,272.2C15.97,269.51 7.79,262.59 4.47,264.31Q-0.44,266.85 0,300.38" style="vector-effect: non-scaling-stroke; fill: none; stroke: rgb(255, 255, 255); stroke-opacity: 0; stroke-width: 2px; opacity: 1;"/></g><g class="points"/><g class="text"/></g><g class="trace scatter traceca0b04" style="stroke-miterlimit: 2; opacity: 1;"><g class="fills"><g><path class="js-fill" d="M0,240.85Q2.63,242.21 4.47,243.57C8.04,246.2 16.05,252.05 19.14,256.54C21.47,259.92 21.58,264.15 23.05,266.97C24.16,269.11 25.26,271.92 26.68,272.26C27.88,272.55 29.84,270.17 30.74,270.05C31.16,270 31.34,270.38 31.71,270.29C32.39,270.12 33.19,268.83 34.23,268.07C35.66,267.02 38.24,264.69 39.68,264.8C40.71,264.88 41.51,266.25 42.19,266.87C42.7,267.33 43.07,268.18 43.45,268.14C43.87,268.09 44.12,266.84 44.57,266.31C45.01,265.79 45.56,265.04 46.1,264.96C46.59,264.88 47.21,265.65 47.64,265.63C47.97,265.61 48.09,265.33 48.48,265.16C49.24,264.83 51.12,264.6 51.97,264.03C52.63,263.59 52.68,262.49 53.37,262.34C54.5,262.1 56.41,264.52 58.54,264.94C61.55,265.53 69.26,264.08 70,264.05C70.08,264.05 70.09,264.01 70.13,264.05C70.89,264.81 70.89,307.83 70.13,308.59C70.09,308.63 70.08,308.59 70,308.59C69.26,308.62 61.61,309.47 58.54,309.48C56.48,309.49 54.54,309.37 53.37,309.11C52.74,308.97 52.54,308.59 51.97,308.58C51.07,308.56 49.19,310.01 48.48,309.7C47.96,309.48 48.02,308.01 47.64,307.95C47.24,307.88 46.62,309.01 46.1,309.5C45.6,309.97 45.07,310.75 44.57,310.85C44.19,310.92 43.81,310.68 43.45,310.45C43.01,310.17 42.74,309.4 42.19,309.19C41.54,308.94 40.67,309.22 39.68,309.34C38.21,309.52 35.63,309.69 34.23,310.38C33.14,310.92 32.39,312.45 31.71,312.61C31.34,312.7 31.16,312.31 30.74,312.36C29.84,312.47 27.88,314.87 26.68,314.58C25.26,314.24 24.27,311.11 23.05,309.29C21.76,307.36 21.18,305.24 19.14,303.31C16,300.33 8.04,295.96 4.47,294.79Q2.63,294.19 0,294.3Z" style="fill: rgb(114, 55, 105); fill-opacity: 0.05; stroke-width: 0;"/></g></g><g class="errorbars"/><g class="lines"><path class="js-line" d="M0,240.85Q2.63,242.21 4.47,243.57C8.04,246.2 16.05,252.05 19.14,256.54C21.47,259.92 21.58,264.15 23.05,266.97C24.16,269.11 25.26,271.92 26.68,272.26C27.88,272.55 29.84,270.17 30.74,270.05C31.16,270 31.34,270.38 31.71,270.29C32.39,270.12 33.19,268.83 34.23,268.07C35.66,267.02 38.24,264.69 39.68,264.8C40.71,264.88 41.51,266.25 42.19,266.87C42.7,267.33 43.07,268.18 43.45,268.14C43.87,268.09 44.12,266.84 44.57,266.31C45.01,265.79 45.56,265.04 46.1,264.96C46.59,264.88 47.21,265.65 47.64,265.63C47.97,265.61 48.09,265.33 48.48,265.16C49.24,264.83 51.12,264.6 51.97,264.03C52.63,263.59 52.68,262.49 53.37,262.34C54.5,262.1 56.41,264.52 58.54,264.94C61.55,265.53 69.26,264.08 70,264.05C70.08,264.05 70.09,264.01 70.13,264.05C70.89,264.81 70.89,307.83 70.13,308.59C70.09,308.63 70.08,308.59 70,308.59C69.26,308.62 61.61,309.47 58.54,309.48C56.48,309.49 54.54,309.37 53.37,309.11C52.74,308.97 52.54,308.59 51.97,308.58C51.07,308.56 49.19,310.01 48.48,309.7C47.96,309.48 48.02,308.01 47.64,307.95C47.24,307.88 46.62,309.01 46.1,309.5C45.6,309.97 45.07,310.75 44.57,310.85C44.19,310.92 43.81,310.68 43.45,310.45C43.01,310.17 42.74,309.4 42.19,309.19C41.54,308.94 40.67,309.22 39.68,309.34C38.21,309.52 35.63,309.69 34.23,310.38C33.14,310.92 32.39,312.45 31.71,312.61C31.34,312.7 31.16,312.31 30.74,312.36C29.84,312.47 27.88,314.87 26.68,314.58C25.26,314.24 24.27,311.11 23.05,309.29C21.76,307.36 21.18,305.24 19.14,303.31C16,300.33 8.04,295.96 4.47,294.79Q2.63,294.19 0,294.3" style="vector-effect: non-scaling-stroke; fill: none; stroke: rgb(255, 255, 255); stroke-opacity: 0; stroke-width: 2px; opacity: 1;"/></g><g class="points"/><g class="text"/></g><g class="trace scatter trace784299" style="stroke-miterlimit: 2; opacity: 1;"><g class="fills"><g><path class="js-fill" d="M0,268.22Q2.54,270.53 4.47,272.25C7.94,275.35 15.61,283.81 19.14,285.2C20.72,285.82 21.9,285.88 23.05,285.31C24.5,284.59 25.59,282.44 26.68,280.25C28.29,277.03 29.54,267.88 30.74,267.33C31.08,267.18 31.34,267.83 31.71,267.75C32.4,267.6 33.12,265.25 34.23,265.01C35.62,264.71 38.29,266.33 39.68,267.33C40.79,268.13 41.48,269.44 42.19,270.18C42.67,270.68 43.09,270.84 43.45,271.38C43.93,272.11 44,274.06 44.57,274.33C44.98,274.52 45.63,273.68 46.1,273.81C46.67,273.96 47.19,275.54 47.64,275.58C47.95,275.61 48.09,275.17 48.48,274.92C49.23,274.43 51.09,272.99 51.97,273.09C52.57,273.16 52.69,274.03 53.37,274.27C54.5,274.67 56.59,274.79 58.54,274.14C61.75,273.08 69.26,266.07 70,266.05C70.08,266.05 70.09,266.06 70.13,266.13C70.83,267.38 70.83,310.28 70.13,310.67C70.09,310.69 70.08,310.6 70,310.59C69.27,310.5 61.64,313.71 58.54,314.23C56.51,314.57 54.51,314.75 53.37,314.35C52.7,314.11 52.57,313.24 51.97,313.18C51.09,313.09 49.23,314.52 48.48,315.01C48.09,315.26 47.95,315.7 47.64,315.67C47.19,315.63 46.67,314.04 46.1,313.89C45.63,313.76 45.03,314.46 44.57,314.41C44.15,314.36 43.82,313.99 43.45,313.7C43.03,313.37 42.73,312.79 42.19,312.49C41.53,312.13 40.66,312.2 39.68,311.87C38.19,311.37 35.72,309.7 34.23,309.55C33.25,309.45 32.3,309.62 31.71,310.06C31.18,310.45 31.2,311.1 30.74,311.87C29.87,313.34 28.14,316.52 26.68,318.11C25.53,319.36 24.37,320.52 23.05,320.95C21.84,321.35 20.81,321.2 19.14,320.83C15.76,320.08 7.83,316.72 4.47,314.57Q2.4,313.25 0,310.53Z" style="fill: rgb(240, 125, 0); fill-opacity: 0.05; stroke-width: 0;"/></g></g><g class="errorbars"/><g class="lines"><path class="js-line" d="M0,268.22Q2.54,270.53 4.47,272.25C7.94,275.35 15.61,283.81 19.14,285.2C20.72,285.82 21.9,285.88 23.05,285.31C24.5,284.59 25.59,282.44 26.68,280.25C28.29,277.03 29.54,267.88 30.74,267.33C31.08,267.18 31.34,267.83 31.71,267.75C32.4,267.6 33.12,265.25 34.23,265.01C35.62,264.71 38.29,266.33 39.68,267.33C40.79,268.13 41.48,269.44 42.19,270.18C42.67,270.68 43.09,270.84 43.45,271.38C43.93,272.11 44,274.06 44.57,274.33C44.98,274.52 45.63,273.68 46.1,273.81C46.67,273.96 47.19,275.54 47.64,275.58C47.95,275.61 48.09,275.17 48.48,274.92C49.23,274.43 51.09,272.99 51.97,273.09C52.57,273.16 52.69,274.03 53.37,274.27C54.5,274.67 56.59,274.79 58.54,274.14C61.75,273.08 69.26,266.07 70,266.05C70.08,266.05 70.09,266.06 70.13,266.13C70.83,267.38 70.83,310.28 70.13,310.67C70.09,310.69 70.08,310.6 70,310.59C69.27,310.5 61.64,313.71 58.54,314.23C56.51,314.57 54.51,314.75 53.37,314.35C52.7,314.11 52.57,313.24 51.97,313.18C51.09,313.09 49.23,314.52 48.48,315.01C48.09,315.26 47.95,315.7 47.64,315.67C47.19,315.63 46.67,314.04 46.1,313.89C45.63,313.76 45.03,314.46 44.57,314.41C44.15,314.36 43.82,313.99 43.45,313.7C43.03,313.37 42.73,312.79 42.19,312.49C41.53,312.13 40.66,312.2 39.68,311.87C38.19,311.37 35.72,309.7 34.23,309.55C33.25,309.45 32.3,309.62 31.71,310.06C31.18,310.45 31.2,311.1 30.74,311.87C29.87,313.34 28.14,316.52 26.68,318.11C25.53,319.36 24.37,320.52 23.05,320.95C21.84,321.35 20.81,321.2 19.14,320.83C15.76,320.08 7.83,316.72 4.47,314.57Q2.4,313.25 0,310.53" style="vector-effect: non-scaling-stroke; fill: none; stroke: rgb(255, 255, 255); stroke-opacity: 0; stroke-width: 2px; opacity: 1;"/></g><g class="points"/><g class="text"/></g><g class="trace scatter trace8e6ee9" style="stroke-miterlimit: 2; opacity: 1;"><g class="fills"><g><path class="js-fill" d="M0,244.94Q0.27,267.4 4.47,270C7.73,272.02 15.97,264.79 19.14,265.68C21.09,266.23 21.67,268.91 23.05,269.97C24.21,270.86 25.41,271.38 26.68,271.87C27.97,272.36 29.87,273.03 30.74,272.91C31.19,272.85 31.3,272.4 31.71,272.35C32.34,272.28 33.22,272.87 34.23,273.13C35.69,273.5 38.22,273.82 39.68,274.23C40.69,274.52 41.49,274.98 42.19,275.15C42.67,275.27 43.08,275.47 43.45,275.31C43.91,275.11 44.13,274.18 44.57,273.69C45.01,273.19 45.55,272.47 46.1,272.34C46.58,272.23 47.26,272.97 47.64,272.75C48.16,272.46 47.88,270.7 48.48,269.89C49.19,268.93 51.14,267.39 51.97,267.63C52.71,267.84 52.56,270.37 53.37,270.62C54.47,270.96 56.52,267.47 58.54,267.58C61.66,267.75 69.26,276.05 70,276.08C70.08,276.08 70.09,275.98 70.13,276C70.79,276.37 70.79,314.91 70.13,316.09C70.09,316.16 70.08,316.17 70,316.17C69.27,316.19 61.6,309.84 58.54,309.89C56.47,309.92 54.47,313.28 53.37,312.94C52.56,312.69 52.71,310.15 51.97,309.94C51.14,309.7 49.24,311.68 48.48,312.21C48.1,312.48 47.94,312.55 47.64,312.84C47.18,313.27 46.66,314.56 46.1,314.66C45.62,314.74 45,313.68 44.57,313.78C44.11,313.88 43.91,315.2 43.45,315.4C43.08,315.56 42.67,315.36 42.19,315.24C41.49,315.07 40.69,314.61 39.68,314.32C38.22,313.91 35.67,312.99 34.23,313.22C33.19,313.39 32.31,314.82 31.71,314.66C31.22,314.53 31.3,313.42 30.74,313C29.91,312.37 28,312.07 26.68,311.96C25.44,311.86 24.18,312.72 23.05,312.28C21.62,311.72 21.09,308.55 19.14,308C15.97,307.11 7.67,314.1 4.47,312.32Q1.12,310.46 0,296.16Z" style="fill: rgb(230, 172, 33); fill-opacity: 0.05; stroke-width: 0;"/></g></g><g class="errorbars"/><g class="lines"><path class="js-line" d="M0,244.94Q0.27,267.4 4.47,270C7.73,272.02 15.97,264.79 19.14,265.68C21.09,266.23 21.67,268.91 23.05,269.97C24.21,270.86 25.41,271.38 26.68,271.87C27.97,272.36 29.87,273.03 30.74,272.91C31.19,272.85 31.3,272.4 31.71,272.35C32.34,272.28 33.22,272.87 34.23,273.13C35.69,273.5 38.22,273.82 39.68,274.23C40.69,274.52 41.49,274.98 42.19,275.15C42.67,275.27 43.08,275.47 43.45,275.31C43.91,275.11 44.13,274.18 44.57,273.69C45.01,273.19 45.55,272.47 46.1,272.34C46.58,272.23 47.26,272.97 47.64,272.75C48.16,272.46 47.88,270.7 48.48,269.89C49.19,268.93 51.14,267.39 51.97,267.63C52.71,267.84 52.56,270.37 53.37,270.62C54.47,270.96 56.52,267.47 58.54,267.58C61.66,267.75 69.26,276.05 70,276.08C70.08,276.08 70.09,275.98 70.13,276C70.79,276.37 70.79,314.91 70.13,316.09C70.09,316.16 70.08,316.17 70,316.17C69.27,316.19 61.6,309.84 58.54,309.89C56.47,309.92 54.47,313.28 53.37,312.94C52.56,312.69 52.71,310.15 51.97,309.94C51.14,309.7 49.24,311.68 48.48,312.21C48.1,312.48 47.94,312.55 47.64,312.84C47.18,313.27 46.66,314.56 46.1,314.66C45.62,314.74 45,313.68 44.57,313.78C44.11,313.88 43.91,315.2 43.45,315.4C43.08,315.56 42.67,315.36 42.19,315.24C41.49,315.07 40.69,314.61 39.68,314.32C38.22,313.91 35.67,312.99 34.23,313.22C33.19,313.39 32.31,314.82 31.71,314.66C31.22,314.53 31.3,313.42 30.74,313C29.91,312.37 28,312.07 26.68,311.96C25.44,311.86 24.18,312.72 23.05,312.28C21.62,311.72 21.09,308.55 19.14,308C15.97,307.11 7.67,314.1 4.47,312.32Q1.12,310.46 0,296.16" style="vector-effect: non-scaling-stroke; fill: none; stroke: rgb(255, 255, 255); stroke-opacity: 0; stroke-width: 2px; opacity: 1;"/></g><g class="points"/><g class="text"/></g><g class="trace scatter trace013a4e" style="stroke-miterlimit: 2; opacity: 1;"><g class="fills"><g><path class="js-fill" d="M0,278.75Q2.74,278.87 4.47,279.9C8.22,282.14 15.72,295.47 19.14,295.74C20.78,295.87 21.68,293.12 23.05,292.65C24.22,292.25 25.47,292.98 26.68,292.69C28.04,292.37 29.83,290.84 30.74,290.59C31.16,290.48 31.33,290.67 31.71,290.54C32.38,290.3 33.16,289.05 34.23,288.72C35.65,288.28 38.22,288.66 39.68,288.84C40.68,288.96 41.5,289.46 42.19,289.4C42.69,289.36 43.06,288.82 43.45,288.89Q43.86,288.97 44.57,289.93ZM47.64,293.91Q48.11,293.81 48.48,293.83C49.25,293.87 51.11,294.76 51.97,294.52C52.6,294.35 52.84,293.96 53.37,293.26C54.69,291.51 55.91,283.53 58.54,282.73C61.34,281.88 68.85,290.01 70,289.39C70.45,289.15 70.1,287.36 70.13,287.36C70.28,287.36 70.63,322.84 70.13,322.99C70.09,323 70.1,322.88 70,322.8C69.26,322.22 61.43,317.64 58.54,318.37C56.21,318.96 54.61,324.28 53.37,324.44C52.8,324.51 52.56,323.53 51.97,323.47C51.09,323.39 49.26,324.81 48.48,325.01Q48.11,325.11 47.64,325.09ZM44.57,323.34Q43.86,322.37 43.45,322.29C43.06,322.22 42.69,322.77 42.19,322.81C41.5,322.87 40.68,322.36 39.68,322.24C38.22,322.06 35.7,322.26 34.23,322.13C33.23,322.04 32.35,321.76 31.71,321.72C31.31,321.7 31.16,321.66 30.74,321.77C29.83,322.02 28.04,323.55 26.68,323.87C25.47,324.16 24.28,323.7 23.05,323.83C21.76,323.96 20.82,324.88 19.14,324.69C15.76,324.31 7.99,319.03 4.47,317.76Q2.59,317.08 0,316.61Z" style="fill: rgb(140, 0, 0); fill-opacity: 0.05; stroke-width: 0;"/></g></g><g class="errorbars"/><g class="lines"><path class="js-line" d="M0,278.75Q2.74,278.87 4.47,279.9C8.22,282.14 15.72,295.47 19.14,295.74C20.78,295.87 21.68,293.12 23.05,292.65C24.22,292.25 25.47,292.98 26.68,292.69C28.04,292.37 29.83,290.84 30.74,290.59C31.16,290.48 31.33,290.67 31.71,290.54C32.38,290.3 33.16,289.05 34.23,288.72C35.65,288.28 38.22,288.66 39.68,288.84C40.68,288.96 41.5,289.46 42.19,289.4C42.69,289.36 43.06,288.82 43.45,288.89Q43.86,288.97 44.57,289.93" style="vector-effect: non-scaling-stroke; fill: none; stroke: rgb(255, 255, 255); stroke-opacity: 0; stroke-width: 2px; opacity: 1;"/><path class="js-line" d="M47.64,293.91Q48.11,293.81 48.48,293.83C49.25,293.87 51.11,294.76 51.97,294.52C52.6,294.35 52.84,293.96 53.37,293.26C54.69,291.51 55.91,283.53 58.54,282.73C61.34,281.88 68.85,290.01 70,289.39C70.45,289.15 70.1,287.36 70.13,287.36C70.28,287.36 70.63,322.84 70.13,322.99C70.09,323 70.1,322.88 70,322.8C69.26,322.22 61.43,317.64 58.54,318.37C56.21,318.96 54.61,324.28 53.37,324.44C52.8,324.51 52.56,323.53 51.97,323.47C51.09,323.39 49.26,324.81 48.48,325.01Q48.11,325.11 47.64,325.09" style="vector-effect: non-scaling-stroke; fill: none; stroke: rgb(255, 255, 255); stroke-opacity: 0; stroke-width: 2px; opacity: 1;"/><path class="js-line" d="M44.57,323.34Q43.86,322.37 43.45,322.29C43.06,322.22 42.69,322.77 42.19,322.81C41.5,322.87 40.68,322.36 39.68,322.24C38.22,322.06 35.7,322.26 34.23,322.13C33.23,322.04 32.35,321.76 31.71,321.72C31.31,321.7 31.16,321.66 30.74,321.77C29.83,322.02 28.04,323.55 26.68,323.87C25.47,324.16 24.28,323.7 23.05,323.83C21.76,323.96 20.82,324.88 19.14,324.69C15.76,324.31 7.99,319.03 4.47,317.76Q2.59,317.08 0,316.61" style="vector-effect: non-scaling-stroke; fill: none; stroke: rgb(255, 255, 255); stroke-opacity: 0; stroke-width: 2px; opacity: 1;"/></g><g class="points"/><g class="text"/></g><g class="trace scatter tracedc0576" style="stroke-miterlimit: 2; opacity: 1;"><g class="fills"><g><path class="js-fill" d="M0,268.22Q0.96,282.52 4.47,285.24C7.68,287.73 15.85,285.97 19.14,285.33C20.9,284.99 21.81,283.59 23.05,283.73C24.32,283.87 25.42,285.43 26.68,286.24C27.98,287.07 29.9,287.83 30.74,288.64C31.26,289.13 31.21,289.85 31.71,290.13C32.3,290.47 33.31,290.57 34.23,290.22C35.82,289.62 38.13,286.06 39.68,285.02C40.62,284.39 41.48,283.96 42.19,283.88C42.67,283.82 43.04,284.1 43.45,284.12C43.83,284.14 44.17,284.01 44.57,284C45.04,283.99 45.59,284.12 46.1,284.08C46.62,284.04 47.2,283.81 47.64,283.73C47.96,283.67 48.17,283.47 48.48,283.63C49.39,284.11 50.94,288.99 51.97,290.2Q52.47,290.79 53.37,291.26ZM70,293.1Q70.09,293.07 70.13,293.12C70.76,293.85 70.76,323.76 70.13,324.3Q70.09,324.33 70,324.28ZM53.37,324.66Q52.5,324.13 51.97,323.61C51.02,322.69 49.32,319.62 48.48,319.27C48.15,319.13 47.96,319.31 47.64,319.36C47.2,319.43 46.62,319.68 46.1,319.72C45.59,319.76 45.04,319.62 44.57,319.63C44.17,319.64 43.83,319.77 43.45,319.75C43.04,319.73 42.67,319.45 42.19,319.51C41.48,319.6 40.67,320.17 39.68,320.66C38.2,321.4 35.74,323.27 34.23,323.63C33.27,323.86 32.3,323.88 31.71,323.54C31.21,323.26 31.29,322.36 30.74,322.05C29.91,321.57 27.94,322.29 26.68,321.87C25.37,321.43 24.32,319.5 23.05,319.36C21.81,319.23 20.91,320.63 19.14,320.97C15.85,321.61 7.66,322.98 4.47,320.87Q1.67,319.02 0,310.53Z" style="fill: rgb(0, 51, 255); fill-opacity: 0.05; stroke-width: 0;"/></g></g><g class="errorbars"/><g class="lines"><path class="js-line" d="M0,268.22Q0.96,282.52 4.47,285.24C7.68,287.73 15.85,285.97 19.14,285.33C20.9,284.99 21.81,283.59 23.05,283.73C24.32,283.87 25.42,285.43 26.68,286.24C27.98,287.07 29.9,287.83 30.74,288.64C31.26,289.13 31.21,289.85 31.71,290.13C32.3,290.47 33.31,290.57 34.23,290.22C35.82,289.62 38.13,286.06 39.68,285.02C40.62,284.39 41.48,283.96 42.19,283.88C42.67,283.82 43.04,284.1 43.45,284.12C43.83,284.14 44.17,284.01 44.57,284C45.04,283.99 45.59,284.12 46.1,284.08C46.62,284.04 47.2,283.81 47.64,283.73C47.96,283.67 48.17,283.47 48.48,283.63C49.39,284.11 50.94,288.99 51.97,290.2Q52.47,290.79 53.37,291.26" style="vector-effect: non-scaling-stroke; fill: none; stroke: rgb(255, 255, 255); stroke-opacity: 0; stroke-width: 2px; opacity: 1;"/><path class="js-line" d="M70,293.1Q70.09,293.07 70.13,293.12C70.76,293.85 70.76,323.76 70.13,324.3Q70.09,324.33 70,324.28" style="vector-effect: non-scaling-stroke; fill: none; stroke: rgb(255, 255, 255); stroke-opacity: 0; stroke-width: 2px; opacity: 1;"/><path class="js-line" d="M53.37,324.66Q52.5,324.13 51.97,323.61C51.02,322.69 49.32,319.62 48.48,319.27C48.15,319.13 47.96,319.31 47.64,319.36C47.2,319.43 46.62,319.68 46.1,319.72C45.59,319.76 45.04,319.62 44.57,319.63C44.17,319.64 43.83,319.77 43.45,319.75C43.04,319.73 42.67,319.45 42.19,319.51C41.48,319.6 40.67,320.17 39.68,320.66C38.2,321.4 35.74,323.27 34.23,323.63C33.27,323.86 32.3,323.88 31.71,323.54C31.21,323.26 31.29,322.36 30.74,322.05C29.91,321.57 27.94,322.29 26.68,321.87C25.37,321.43 24.32,319.5 23.05,319.36C21.81,319.23 20.91,320.63 19.14,320.97C15.85,321.61 7.66,322.98 4.47,320.87Q1.67,319.02 0,310.53" style="vector-effect: non-scaling-stroke; fill: none; stroke: rgb(255, 255, 255); stroke-opacity: 0; stroke-width: 2px; opacity: 1;"/></g><g class="points"/><g class="text"/></g><g class="trace scatter traceb530c6" style="stroke-miterlimit: 2; opacity: 1;"><g class="fills"/><g class="errorbars"/><g class="lines"><path class="js-line" d="M0,95.52Q2.6,95.81 4.47,96.45C8,97.65 16.06,104.71 19.14,103.54C21.58,102.61 21.56,96.55 23.05,94.08C24.16,92.24 25.45,91.24 26.68,89.71C28.01,88.06 29.8,85.39 30.74,84.49C31.14,84.11 31.35,84.16 31.71,83.79C32.41,83.08 33.23,81.59 34.23,80.12C35.71,77.95 38.06,73.61 39.68,71.99C40.58,71.09 41.48,70.35 42.19,70.3C42.67,70.27 43.04,70.9 43.45,70.92C43.83,70.94 44.16,70.55 44.57,70.49C45.03,70.42 45.59,70.57 46.1,70.61C46.61,70.66 47.22,70.62 47.64,70.76C47.98,70.87 48.09,71.08 48.48,71.27C49.23,71.63 51.16,71.73 51.97,72.55C52.83,73.42 52.6,76.34 53.37,76.46C54.47,76.63 56.17,71.52 58.54,69.63C61.41,67.34 69.22,65.29 70,64.46Q70.13,64.32 70.13,64.11" style="vector-effect: non-scaling-stroke; fill: none; stroke: rgb(38, 16, 96); stroke-opacity: 1; stroke-width: 7px; opacity: 1;"/></g><g class="points"/><g class="text"/></g><g class="trace scatter tracee545e0" style="stroke-miterlimit: 2; opacity: 1;"><g class="fills"/><g class="errorbars"/><g class="lines"/><g class="points"><path class="point" transform="translate(0,95.52)" d="M7.5,0A7.5,7.5 0 1,1 0,-7.5A7.5,7.5 0 0,1 7.5,0Z" style="opacity: 1; stroke-width: 0px; fill: rgb(38, 16, 96); fill-opacity: 0.25;"/><path class="point" transform="translate(4.47,96.39)" d="M7.5,0A7.5,7.5 0 1,1 0,-7.5A7.5,7.5 0 0,1 7.5,0Z" style="opacity: 1; stroke-width: 0px; fill: rgb(38, 16, 96); fill-opacity: 0.25;"/><path class="point" transform="translate(19.14,113.69)" d="M7.5,0A7.5,7.5 0 1,1 0,-7.5A7.5,7.5 0 0,1 7.5,0Z" style="opacity: 1; stroke-width: 0px; fill: rgb(38, 16, 96); fill-opacity: 0.25;"/><path class="point" transform="translate(23.05,92.06)" d="M7.5,0A7.5,7.5 0 1,1 0,-7.5A7.5,7.5 0 0,1 7.5,0Z" style="opacity: 1; stroke-width: 0px; fill: rgb(38, 16, 96); fill-opacity: 0.25;"/><path class="point" transform="translate(26.68,92.06)" d="M7.5,0A7.5,7.5 0 1,1 0,-7.5A7.5,7.5 0 0,1 7.5,0Z" style="opacity: 1; stroke-width: 0px; fill: rgb(38, 16, 96); fill-opacity: 0.25;"/><path class="point" transform="translate(30.74,83.41)" d="M7.5,0A7.5,7.5 0 1,1 0,-7.5A7.5,7.5 0 0,1 7.5,0Z" style="opacity: 1; stroke-width: 0px; fill: rgb(38, 16, 96); fill-opacity: 0.25;"/><path class="point" transform="translate(31.71,87.74)" d="M7.5,0A7.5,7.5 0 1,1 0,-7.5A7.5,7.5 0 0,1 7.5,0Z" style="opacity: 1; stroke-width: 0px; fill: rgb(38, 16, 96); fill-opacity: 0.25;"/><path class="point" transform="translate(34.23,79.09)" d="M7.5,0A7.5,7.5 0 1,1 0,-7.5A7.5,7.5 0 0,1 7.5,0Z" style="opacity: 1; stroke-width: 0px; fill: rgb(38, 16, 96); fill-opacity: 0.25;"/><path class="point" transform="translate(39.68,70.43)" d="M7.5,0A7.5,7.5 0 1,1 0,-7.5A7.5,7.5 0 0,1 7.5,0Z" style="opacity: 1; stroke-width: 0px; fill: rgb(38, 16, 96); fill-opacity: 0.25;"/><path class="point" transform="translate(42.19,60.92)" d="M7.5,0A7.5,7.5 0 1,1 0,-7.5A7.5,7.5 0 0,1 7.5,0Z" style="opacity: 1; stroke-width: 0px; fill: rgb(38, 16, 96); fill-opacity: 0.25;"/><path class="point" transform="translate(43.45,79.09)" d="M7.5,0A7.5,7.5 0 1,1 0,-7.5A7.5,7.5 0 0,1 7.5,0Z" style="opacity: 1; stroke-width: 0px; fill: rgb(38, 16, 96); fill-opacity: 0.25;"/><path class="point" transform="translate(44.57,66.11)" d="M7.5,0A7.5,7.5 0 1,1 0,-7.5A7.5,7.5 0 0,1 7.5,0Z" style="opacity: 1; stroke-width: 0px; fill: rgb(38, 16, 96); fill-opacity: 0.25;"/><path class="point" transform="translate(46.1,70.43)" d="M7.5,0A7.5,7.5 0 1,1 0,-7.5A7.5,7.5 0 0,1 7.5,0Z" style="opacity: 1; stroke-width: 0px; fill: rgb(38, 16, 96); fill-opacity: 0.25;"/><path class="point" transform="translate(47.64,66.11)" d="M7.5,0A7.5,7.5 0 1,1 0,-7.5A7.5,7.5 0 0,1 7.5,0Z" style="opacity: 1; stroke-width: 0px; fill: rgb(38, 16, 96); fill-opacity: 0.25;"/><path class="point" transform="translate(48.48,74.76)" d="M7.5,0A7.5,7.5 0 1,1 0,-7.5A7.5,7.5 0 0,1 7.5,0Z" style="opacity: 1; stroke-width: 0px; fill: rgb(38, 16, 96); fill-opacity: 0.25;"/><path class="point" transform="translate(51.97,57.46)" d="M7.5,0A7.5,7.5 0 1,1 0,-7.5A7.5,7.5 0 0,1 7.5,0Z" style="opacity: 1; stroke-width: 0px; fill: rgb(38, 16, 96); fill-opacity: 0.25;"/><path class="point" transform="translate(53.37,100.72)" d="M7.5,0A7.5,7.5 0 1,1 0,-7.5A7.5,7.5 0 0,1 7.5,0Z" style="opacity: 1; stroke-width: 0px; fill: rgb(38, 16, 96); fill-opacity: 0.25;"/><path class="point" transform="translate(58.54,63.51)" d="M7.5,0A7.5,7.5 0 1,1 0,-7.5A7.5,7.5 0 0,1 7.5,0Z" style="opacity: 1; stroke-width: 0px; fill: rgb(38, 16, 96); fill-opacity: 0.25;"/><path class="point" transform="translate(70,74.76)" d="M7.5,0A7.5,7.5 0 1,1 0,-7.5A7.5,7.5 0 0,1 7.5,0Z" style="opacity: 1; stroke-width: 0px; fill: rgb(38, 16, 96); fill-opacity: 0.25;"/><path class="point" transform="translate(70.13,53.13)" d="M7.5,0A7.5,7.5 0 1,1 0,-7.5A7.5,7.5 0 0,1 7.5,0Z" style="opacity: 1; stroke-width: 0px; fill: rgb(38, 16, 96); fill-opacity: 0.25;"/></g><g class="text"/></g><g class="trace scatter trace548d7e" style="stroke-miterlimit: 2; opacity: 1;"><g class="fills"/><g class="errorbars"/><g class="lines"><path class="js-line" d="M0,212.33Q2.62,204.3 4.47,197.99C8.02,185.88 15.12,153.26 19.14,144.73C20.55,141.73 21.55,140.09 23.05,139.15C24.15,138.46 25.66,137.85 26.68,138.58C29.27,140.43 29.2,160.34 30.74,161.9C31.06,162.22 31.41,161.78 31.71,162.08C32.78,163.12 32.99,169.91 34.23,173.87C35.57,178.15 37.78,185.12 39.68,186.83C40.5,187.57 41.51,187.68 42.19,187.58C42.7,187.5 43.06,187.08 43.45,186.75C43.86,186.4 44.19,185.5 44.57,185.53C45.06,185.56 45.52,187.62 46.1,187.75C46.57,187.86 47.23,187.2 47.64,186.86C47.99,186.57 48.04,186.07 48.48,185.9C49.21,185.62 51.16,186.9 51.97,186.35C53.01,185.64 52.66,180.81 53.37,180.76C54.49,180.69 56.22,193.77 58.54,193.97C61.43,194.22 69.18,174.81 70,174.98Q70.17,175.01 70.13,175.9" style="vector-effect: non-scaling-stroke; fill: none; stroke: rgb(0, 68, 148); stroke-opacity: 1; stroke-width: 7px; opacity: 1;"/></g><g class="points"/><g class="text"/></g><g class="trace scatter trace57567c" style="stroke-miterlimit: 2; opacity: 1;"><g class="fills"/><g class="errorbars"/><g class="lines"/><g class="points"><path class="point" transform="translate(0,212.33)" d="M7.5,0A7.5,7.5 0 1,1 0,-7.5A7.5,7.5 0 0,1 7.5,0Z" style="opacity: 1; stroke-width: 0px; fill: rgb(0, 68, 148); fill-opacity: 0.25;"/><path class="point" transform="translate(4.47,195.89)" d="M7.5,0A7.5,7.5 0 1,1 0,-7.5A7.5,7.5 0 0,1 7.5,0Z" style="opacity: 1; stroke-width: 0px; fill: rgb(0, 68, 148); fill-opacity: 0.25;"/><path class="point" transform="translate(19.14,148.3)" d="M7.5,0A7.5,7.5 0 1,1 0,-7.5A7.5,7.5 0 0,1 7.5,0Z" style="opacity: 1; stroke-width: 0px; fill: rgb(0, 68, 148); fill-opacity: 0.25;"/><path class="point" transform="translate(23.05,135.33)" d="M7.5,0A7.5,7.5 0 1,1 0,-7.5A7.5,7.5 0 0,1 7.5,0Z" style="opacity: 1; stroke-width: 0px; fill: rgb(0, 68, 148); fill-opacity: 0.25;"/><path class="point" transform="translate(26.68,105.04)" d="M7.5,0A7.5,7.5 0 1,1 0,-7.5A7.5,7.5 0 0,1 7.5,0Z" style="opacity: 1; stroke-width: 0px; fill: rgb(0, 68, 148); fill-opacity: 0.25;"/><path class="point" transform="translate(30.74,187.24)" d="M7.5,0A7.5,7.5 0 1,1 0,-7.5A7.5,7.5 0 0,1 7.5,0Z" style="opacity: 1; stroke-width: 0px; fill: rgb(0, 68, 148); fill-opacity: 0.25;"/><path class="point" transform="translate(31.71,135.33)" d="M7.5,0A7.5,7.5 0 1,1 0,-7.5A7.5,7.5 0 0,1 7.5,0Z" style="opacity: 1; stroke-width: 0px; fill: rgb(0, 68, 148); fill-opacity: 0.25;"/><path class="point" transform="translate(34.23,190.7)" d="M7.5,0A7.5,7.5 0 1,1 0,-7.5A7.5,7.5 0 0,1 7.5,0Z" style="opacity: 1; stroke-width: 0px; fill: rgb(0, 68, 148); fill-opacity: 0.25;"/><path class="point" transform="translate(39.68,195.89)" d="M7.5,0A7.5,7.5 0 1,1 0,-7.5A7.5,7.5 0 0,1 7.5,0Z" style="opacity: 1; stroke-width: 0px; fill: rgb(0, 68, 148); fill-opacity: 0.25;"/><path class="point" transform="translate(42.19,195.89)" d="M7.5,0A7.5,7.5 0 1,1 0,-7.5A7.5,7.5 0 0,1 7.5,0Z" style="opacity: 1; stroke-width: 0px; fill: rgb(0, 68, 148); fill-opacity: 0.25;"/><path class="point" transform="translate(43.45,191.56)" d="M7.5,0A7.5,7.5 0 1,1 0,-7.5A7.5,7.5 0 0,1 7.5,0Z" style="opacity: 1; stroke-width: 0px; fill: rgb(0, 68, 148); fill-opacity: 0.25;"/><path class="point" transform="translate(44.57,161.28)" d="M7.5,0A7.5,7.5 0 1,1 0,-7.5A7.5,7.5 0 0,1 7.5,0Z" style="opacity: 1; stroke-width: 0px; fill: rgb(0, 68, 148); fill-opacity: 0.25;"/><path class="point" transform="translate(46.1,207.14)" d="M7.5,0A7.5,7.5 0 1,1 0,-7.5A7.5,7.5 0 0,1 7.5,0Z" style="opacity: 1; stroke-width: 0px; fill: rgb(0, 68, 148); fill-opacity: 0.25;"/><path class="point" transform="translate(47.64,191.56)" d="M7.5,0A7.5,7.5 0 1,1 0,-7.5A7.5,7.5 0 0,1 7.5,0Z" style="opacity: 1; stroke-width: 0px; fill: rgb(0, 68, 148); fill-opacity: 0.25;"/><path class="point" transform="translate(48.48,174.26)" d="M7.5,0A7.5,7.5 0 1,1 0,-7.5A7.5,7.5 0 0,1 7.5,0Z" style="opacity: 1; stroke-width: 0px; fill: rgb(0, 68, 148); fill-opacity: 0.25;"/><path class="point" transform="translate(51.97,213.2)" d="M7.5,0A7.5,7.5 0 1,1 0,-7.5A7.5,7.5 0 0,1 7.5,0Z" style="opacity: 1; stroke-width: 0px; fill: rgb(0, 68, 148); fill-opacity: 0.25;"/><path class="point" transform="translate(53.37,143.98)" d="M7.5,0A7.5,7.5 0 1,1 0,-7.5A7.5,7.5 0 0,1 7.5,0Z" style="opacity: 1; stroke-width: 0px; fill: rgb(0, 68, 148); fill-opacity: 0.25;"/><path class="point" transform="translate(58.54,209.73)" d="M7.5,0A7.5,7.5 0 1,1 0,-7.5A7.5,7.5 0 0,1 7.5,0Z" style="opacity: 1; stroke-width: 0px; fill: rgb(0, 68, 148); fill-opacity: 0.25;"/><path class="point" transform="translate(70,143.98)" d="M7.5,0A7.5,7.5 0 1,1 0,-7.5A7.5,7.5 0 0,1 7.5,0Z" style="opacity: 1; stroke-width: 0px; fill: rgb(0, 68, 148); fill-opacity: 0.25;"/><path class="point" transform="translate(70.13,204.54)" d="M7.5,0A7.5,7.5 0 1,1 0,-7.5A7.5,7.5 0 0,1 7.5,0Z" style="opacity: 1; stroke-width: 0px; fill: rgb(0, 68, 148); fill-opacity: 0.25;"/></g><g class="text"/></g><g class="trace scatter trace9b1e8b" style="stroke-miterlimit: 2; opacity: 1;"><g class="fills"/><g class="errorbars"/><g class="lines"><path class="js-line" d="M0,247.8Q1.87,255 4.47,257.76C7.67,261.16 15.74,264.3 19.14,265.41C20.8,265.95 21.78,265.72 23.05,266C24.29,266.27 25.64,267.62 26.68,267.06C28.66,266 29.77,256.34 30.74,253.95C31.12,253 31.35,252.9 31.71,252.04C32.4,250.42 32.71,246.24 34.23,244.79C35.54,243.54 38.21,243.18 39.68,243.19C40.68,243.2 41.5,243.99 42.19,243.97C42.68,243.96 43.07,243.43 43.45,243.51C43.87,243.6 44.13,244.5 44.57,244.63C45.01,244.76 45.61,244.5 46.1,244.28C46.64,244.04 47.18,243.29 47.64,243.18C47.95,243.11 48.15,243.44 48.48,243.32C49.31,243.03 51.03,240.27 51.97,239.44C52.51,238.97 52.78,238.43 53.37,238.48C54.58,238.58 56.25,242.74 58.54,243.46C61.45,244.37 69.22,242.25 70,241.61Q70.14,241.5 70.13,241.27" style="vector-effect: non-scaling-stroke; fill: none; stroke: rgb(0, 0, 0); stroke-opacity: 1; stroke-width: 7px; opacity: 1;"/></g><g class="points"/><g class="text"/></g><g class="trace scatter trace1bc233" style="stroke-miterlimit: 2; opacity: 1;"><g class="fills"/><g class="errorbars"/><g class="lines"/><g class="points"><path class="point" transform="translate(0,247.8)" d="M7.5,0A7.5,7.5 0 1,1 0,-7.5A7.5,7.5 0 0,1 7.5,0Z" style="opacity: 1; stroke-width: 0px; fill: rgb(0, 0, 0); fill-opacity: 0.25;"/><path class="point" transform="translate(4.47,260.78)" d="M7.5,0A7.5,7.5 0 1,1 0,-7.5A7.5,7.5 0 0,1 7.5,0Z" style="opacity: 1; stroke-width: 0px; fill: rgb(0, 0, 0); fill-opacity: 0.25;"/><path class="point" transform="translate(19.14,265.11)" d="M7.5,0A7.5,7.5 0 1,1 0,-7.5A7.5,7.5 0 0,1 7.5,0Z" style="opacity: 1; stroke-width: 0px; fill: rgb(0, 0, 0); fill-opacity: 0.25;"/><path class="point" transform="translate(23.05,265.11)" d="M7.5,0A7.5,7.5 0 1,1 0,-7.5A7.5,7.5 0 0,1 7.5,0Z" style="opacity: 1; stroke-width: 0px; fill: rgb(0, 0, 0); fill-opacity: 0.25;"/><path class="point" transform="translate(26.68,286.74)" d="M7.5,0A7.5,7.5 0 1,1 0,-7.5A7.5,7.5 0 0,1 7.5,0Z" style="opacity: 1; stroke-width: 0px; fill: rgb(0, 0, 0); fill-opacity: 0.25;"/><path class="point" transform="translate(30.74,252.13)" d="M7.5,0A7.5,7.5 0 1,1 0,-7.5A7.5,7.5 0 0,1 7.5,0Z" style="opacity: 1; stroke-width: 0px; fill: rgb(0, 0, 0); fill-opacity: 0.25;"/><path class="point" transform="translate(31.71,256.46)" d="M7.5,0A7.5,7.5 0 1,1 0,-7.5A7.5,7.5 0 0,1 7.5,0Z" style="opacity: 1; stroke-width: 0px; fill: rgb(0, 0, 0); fill-opacity: 0.25;"/><path class="point" transform="translate(34.23,227.9)" d="M7.5,0A7.5,7.5 0 1,1 0,-7.5A7.5,7.5 0 0,1 7.5,0Z" style="opacity: 1; stroke-width: 0px; fill: rgb(0, 0, 0); fill-opacity: 0.25;"/><path class="point" transform="translate(39.68,239.15)" d="M7.5,0A7.5,7.5 0 1,1 0,-7.5A7.5,7.5 0 0,1 7.5,0Z" style="opacity: 1; stroke-width: 0px; fill: rgb(0, 0, 0); fill-opacity: 0.25;"/><path class="point" transform="translate(42.19,249.53)" d="M7.5,0A7.5,7.5 0 1,1 0,-7.5A7.5,7.5 0 0,1 7.5,0Z" style="opacity: 1; stroke-width: 0px; fill: rgb(0, 0, 0); fill-opacity: 0.25;"/><path class="point" transform="translate(43.45,230.5)" d="M7.5,0A7.5,7.5 0 1,1 0,-7.5A7.5,7.5 0 0,1 7.5,0Z" style="opacity: 1; stroke-width: 0px; fill: rgb(0, 0, 0); fill-opacity: 0.25;"/><path class="point" transform="translate(44.57,256.46)" d="M7.5,0A7.5,7.5 0 1,1 0,-7.5A7.5,7.5 0 0,1 7.5,0Z" style="opacity: 1; stroke-width: 0px; fill: rgb(0, 0, 0); fill-opacity: 0.25;"/><path class="point" transform="translate(46.1,248.67)" d="M7.5,0A7.5,7.5 0 1,1 0,-7.5A7.5,7.5 0 0,1 7.5,0Z" style="opacity: 1; stroke-width: 0px; fill: rgb(0, 0, 0); fill-opacity: 0.25;"/><path class="point" transform="translate(47.64,234.83)" d="M7.5,0A7.5,7.5 0 1,1 0,-7.5A7.5,7.5 0 0,1 7.5,0Z" style="opacity: 1; stroke-width: 0px; fill: rgb(0, 0, 0); fill-opacity: 0.25;"/><path class="point" transform="translate(48.48,252.13)" d="M7.5,0A7.5,7.5 0 1,1 0,-7.5A7.5,7.5 0 0,1 7.5,0Z" style="opacity: 1; stroke-width: 0px; fill: rgb(0, 0, 0); fill-opacity: 0.25;"/><path class="point" transform="translate(51.97,234.83)" d="M7.5,0A7.5,7.5 0 1,1 0,-7.5A7.5,7.5 0 0,1 7.5,0Z" style="opacity: 1; stroke-width: 0px; fill: rgb(0, 0, 0); fill-opacity: 0.25;"/><path class="point" transform="translate(53.37,230.5)" d="M7.5,0A7.5,7.5 0 1,1 0,-7.5A7.5,7.5 0 0,1 7.5,0Z" style="opacity: 1; stroke-width: 0px; fill: rgb(0, 0, 0); fill-opacity: 0.25;"/><path class="point" transform="translate(58.54,248.67)" d="M7.5,0A7.5,7.5 0 1,1 0,-7.5A7.5,7.5 0 0,1 7.5,0Z" style="opacity: 1; stroke-width: 0px; fill: rgb(0, 0, 0); fill-opacity: 0.25;"/><path class="point" transform="translate(70,252.13)" d="M7.5,0A7.5,7.5 0 1,1 0,-7.5A7.5,7.5 0 0,1 7.5,0Z" style="opacity: 1; stroke-width: 0px; fill: rgb(0, 0, 0); fill-opacity: 0.25;"/><path class="point" transform="translate(70.13,230.5)" d="M7.5,0A7.5,7.5 0 1,1 0,-7.5A7.5,7.5 0 0,1 7.5,0Z" style="opacity: 1; stroke-width: 0px; fill: rgb(0, 0, 0); fill-opacity: 0.25;"/></g><g class="text"/></g><g class="trace scatter trace394a47" style="stroke-miterlimit: 2; opacity: 1;"><g class="fills"/><g class="errorbars"/><g class="lines"><path class="js-line" d="M0,246.94Q2.69,247.71 4.47,247.11C8.13,245.88 15.86,234.89 19.14,235.05C20.91,235.13 21.8,239 23.05,238.94C24.32,238.88 25.39,235.94 26.68,234.6C27.95,233.28 29.83,231.59 30.74,230.93C31.15,230.63 31.35,230.7 31.71,230.38C32.41,229.76 33.11,228.02 34.23,226.96C35.62,225.65 38.16,224.03 39.68,223.43C40.63,223.05 41.51,223.22 42.19,222.97C42.7,222.79 43.06,222.22 43.45,222.26C43.85,222.3 44.14,223.15 44.57,223.23C45.02,223.32 45.64,222.54 46.1,222.69C46.69,222.88 47.18,224.32 47.64,224.83C47.94,225.16 48.08,225.29 48.48,225.55C49.23,226.04 51.09,226.72 51.97,227.28C52.57,227.66 52.71,228.24 53.37,228.39C54.51,228.64 56.82,226.34 58.54,227.15C62.36,228.95 69.21,250.47 70,250.68Q70.06,250.7 70.13,250.59" style="vector-effect: non-scaling-stroke; fill: none; stroke: rgb(234, 35, 41); stroke-opacity: 1; stroke-width: 7px; opacity: 1;"/></g><g class="points"/><g class="text"/></g><g class="trace scatter trace595533" style="stroke-miterlimit: 2; opacity: 1;"><g class="fills"/><g class="errorbars"/><g class="lines"/><g class="points"><path class="point" transform="translate(0,246.94)" d="M7.5,0A7.5,7.5 0 1,1 0,-7.5A7.5,7.5 0 0,1 7.5,0Z" style="opacity: 1; stroke-width: 0px; fill: rgb(234, 35, 41); fill-opacity: 0.25;"/><path class="point" transform="translate(4.47,247.8)" d="M7.5,0A7.5,7.5 0 1,1 0,-7.5A7.5,7.5 0 0,1 7.5,0Z" style="opacity: 1; stroke-width: 0px; fill: rgb(234, 35, 41); fill-opacity: 0.25;"/><path class="point" transform="translate(19.14,230.5)" d="M7.5,0A7.5,7.5 0 1,1 0,-7.5A7.5,7.5 0 0,1 7.5,0Z" style="opacity: 1; stroke-width: 0px; fill: rgb(234, 35, 41); fill-opacity: 0.25;"/><path class="point" transform="translate(23.05,247.8)" d="M7.5,0A7.5,7.5 0 1,1 0,-7.5A7.5,7.5 0 0,1 7.5,0Z" style="opacity: 1; stroke-width: 0px; fill: rgb(234, 35, 41); fill-opacity: 0.25;"/><path class="point" transform="translate(26.68,234.83)" d="M7.5,0A7.5,7.5 0 1,1 0,-7.5A7.5,7.5 0 0,1 7.5,0Z" style="opacity: 1; stroke-width: 0px; fill: rgb(234, 35, 41); fill-opacity: 0.25;"/><path class="point" transform="translate(30.74,230.5)" d="M7.5,0A7.5,7.5 0 1,1 0,-7.5A7.5,7.5 0 0,1 7.5,0Z" style="opacity: 1; stroke-width: 0px; fill: rgb(234, 35, 41); fill-opacity: 0.25;"/><path class="point" transform="translate(31.71,234.83)" d="M7.5,0A7.5,7.5 0 1,1 0,-7.5A7.5,7.5 0 0,1 7.5,0Z" style="opacity: 1; stroke-width: 0px; fill: rgb(234, 35, 41); fill-opacity: 0.25;"/><path class="point" transform="translate(34.23,221.85)" d="M7.5,0A7.5,7.5 0 1,1 0,-7.5A7.5,7.5 0 0,1 7.5,0Z" style="opacity: 1; stroke-width: 0px; fill: rgb(234, 35, 41); fill-opacity: 0.25;"/><path class="point" transform="translate(39.68,221.85)" d="M7.5,0A7.5,7.5 0 1,1 0,-7.5A7.5,7.5 0 0,1 7.5,0Z" style="opacity: 1; stroke-width: 0px; fill: rgb(234, 35, 41); fill-opacity: 0.25;"/><path class="point" transform="translate(42.19,227.04)" d="M7.5,0A7.5,7.5 0 1,1 0,-7.5A7.5,7.5 0 0,1 7.5,0Z" style="opacity: 1; stroke-width: 0px; fill: rgb(234, 35, 41); fill-opacity: 0.25;"/><path class="point" transform="translate(43.45,208.87)" d="M7.5,0A7.5,7.5 0 1,1 0,-7.5A7.5,7.5 0 0,1 7.5,0Z" style="opacity: 1; stroke-width: 0px; fill: rgb(234, 35, 41); fill-opacity: 0.25;"/><path class="point" transform="translate(44.57,234.83)" d="M7.5,0A7.5,7.5 0 1,1 0,-7.5A7.5,7.5 0 0,1 7.5,0Z" style="opacity: 1; stroke-width: 0px; fill: rgb(234, 35, 41); fill-opacity: 0.25;"/><path class="point" transform="translate(46.1,206.27)" d="M7.5,0A7.5,7.5 0 1,1 0,-7.5A7.5,7.5 0 0,1 7.5,0Z" style="opacity: 1; stroke-width: 0px; fill: rgb(234, 35, 41); fill-opacity: 0.25;"/><path class="point" transform="translate(47.64,230.5)" d="M7.5,0A7.5,7.5 0 1,1 0,-7.5A7.5,7.5 0 0,1 7.5,0Z" style="opacity: 1; stroke-width: 0px; fill: rgb(234, 35, 41); fill-opacity: 0.25;"/><path class="point" transform="translate(48.48,230.5)" d="M7.5,0A7.5,7.5 0 1,1 0,-7.5A7.5,7.5 0 0,1 7.5,0Z" style="opacity: 1; stroke-width: 0px; fill: rgb(234, 35, 41); fill-opacity: 0.25;"/><path class="point" transform="translate(51.97,226.17)" d="M7.5,0A7.5,7.5 0 1,1 0,-7.5A7.5,7.5 0 0,1 7.5,0Z" style="opacity: 1; stroke-width: 0px; fill: rgb(234, 35, 41); fill-opacity: 0.25;"/><path class="point" transform="translate(53.37,234.83)" d="M7.5,0A7.5,7.5 0 1,1 0,-7.5A7.5,7.5 0 0,1 7.5,0Z" style="opacity: 1; stroke-width: 0px; fill: rgb(234, 35, 41); fill-opacity: 0.25;"/><path class="point" transform="translate(58.54,222.71)" d="M7.5,0A7.5,7.5 0 1,1 0,-7.5A7.5,7.5 0 0,1 7.5,0Z" style="opacity: 1; stroke-width: 0px; fill: rgb(234, 35, 41); fill-opacity: 0.25;"/><path class="point" transform="translate(70,256.46)" d="M7.5,0A7.5,7.5 0 1,1 0,-7.5A7.5,7.5 0 0,1 7.5,0Z" style="opacity: 1; stroke-width: 0px; fill: rgb(234, 35, 41); fill-opacity: 0.25;"/><path class="point" transform="translate(70.13,247.8)" d="M7.5,0A7.5,7.5 0 1,1 0,-7.5A7.5,7.5 0 0,1 7.5,0Z" style="opacity: 1; stroke-width: 0px; fill: rgb(234, 35, 41); fill-opacity: 0.25;"/></g><g class="text"/></g><g class="trace scatter trace350ce5" style="stroke-miterlimit: 2; opacity: 1;"><g class="fills"/><g class="errorbars"/><g class="lines"><path class="js-line" d="M0,277.22Q-1.06,236.08 4.47,233.11C7.85,231.29 16.01,237.95 19.14,240.81C21.21,242.7 21.8,244.81 23.05,246.87C24.31,248.95 25.55,250.72 26.68,253.24C28.17,256.57 29.87,262.55 30.74,265.32C31.19,266.76 31.29,267.31 31.71,268.61C32.34,270.54 32.91,273.67 34.23,275.75C35.56,277.84 38.12,280.09 39.68,281.13C40.61,281.75 41.49,281.94 42.19,282.18C42.68,282.35 43.07,282.63 43.45,282.52C43.87,282.4 44.12,281.6 44.57,281.33C45.01,281.07 45.62,281.17 46.1,280.91C46.65,280.61 47.22,279.98 47.64,279.53C47.98,279.16 48.03,278.62 48.48,278.45C49.2,278.17 51.07,279.12 51.97,279.07C52.55,279.04 52.77,278.89 53.37,278.66C54.56,278.21 56.5,277.26 58.54,276.21C61.63,274.62 69.26,270.1 70,269.85Q70.07,269.82 70.13,269.83" style="vector-effect: non-scaling-stroke; fill: none; stroke: rgb(93, 140, 0); stroke-opacity: 1; stroke-width: 7px; opacity: 1;"/></g><g class="points"/><g class="text"/></g><g class="trace scatter tracee2ec8d" style="stroke-miterlimit: 2; opacity: 1;"><g class="fills"/><g class="errorbars"/><g class="lines"/><g class="points"><path class="point" transform="translate(0,277.22)" d="M7.5,0A7.5,7.5 0 1,1 0,-7.5A7.5,7.5 0 0,1 7.5,0Z" style="opacity: 1; stroke-width: 0px; fill: rgb(93, 140, 0); fill-opacity: 0.25;"/><path class="point" transform="translate(4.47,217.52)" d="M7.5,0A7.5,7.5 0 1,1 0,-7.5A7.5,7.5 0 0,1 7.5,0Z" style="opacity: 1; stroke-width: 0px; fill: rgb(93, 140, 0); fill-opacity: 0.25;"/><path class="point" transform="translate(19.14,234.83)" d="M7.5,0A7.5,7.5 0 1,1 0,-7.5A7.5,7.5 0 0,1 7.5,0Z" style="opacity: 1; stroke-width: 0px; fill: rgb(93, 140, 0); fill-opacity: 0.25;"/><path class="point" transform="translate(23.05,243.48)" d="M7.5,0A7.5,7.5 0 1,1 0,-7.5A7.5,7.5 0 0,1 7.5,0Z" style="opacity: 1; stroke-width: 0px; fill: rgb(93, 140, 0); fill-opacity: 0.25;"/><path class="point" transform="translate(26.68,243.48)" d="M7.5,0A7.5,7.5 0 1,1 0,-7.5A7.5,7.5 0 0,1 7.5,0Z" style="opacity: 1; stroke-width: 0px; fill: rgb(93, 140, 0); fill-opacity: 0.25;"/><path class="point" transform="translate(30.74,256.46)" d="M7.5,0A7.5,7.5 0 1,1 0,-7.5A7.5,7.5 0 0,1 7.5,0Z" style="opacity: 1; stroke-width: 0px; fill: rgb(93, 140, 0); fill-opacity: 0.25;"/><path class="point" transform="translate(31.71,273.76)" d="M7.5,0A7.5,7.5 0 1,1 0,-7.5A7.5,7.5 0 0,1 7.5,0Z" style="opacity: 1; stroke-width: 0px; fill: rgb(93, 140, 0); fill-opacity: 0.25;"/><path class="point" transform="translate(34.23,288.47)" d="M7.5,0A7.5,7.5 0 1,1 0,-7.5A7.5,7.5 0 0,1 7.5,0Z" style="opacity: 1; stroke-width: 0px; fill: rgb(93, 140, 0); fill-opacity: 0.25;"/><path class="point" transform="translate(39.68,282.41)" d="M7.5,0A7.5,7.5 0 1,1 0,-7.5A7.5,7.5 0 0,1 7.5,0Z" style="opacity: 1; stroke-width: 0px; fill: rgb(93, 140, 0); fill-opacity: 0.25;"/><path class="point" transform="translate(42.19,282.41)" d="M7.5,0A7.5,7.5 0 1,1 0,-7.5A7.5,7.5 0 0,1 7.5,0Z" style="opacity: 1; stroke-width: 0px; fill: rgb(93, 140, 0); fill-opacity: 0.25;"/><path class="point" transform="translate(43.45,295.39)" d="M7.5,0A7.5,7.5 0 1,1 0,-7.5A7.5,7.5 0 0,1 7.5,0Z" style="opacity: 1; stroke-width: 0px; fill: rgb(93, 140, 0); fill-opacity: 0.25;"/><path class="point" transform="translate(44.57,273.76)" d="M7.5,0A7.5,7.5 0 1,1 0,-7.5A7.5,7.5 0 0,1 7.5,0Z" style="opacity: 1; stroke-width: 0px; fill: rgb(93, 140, 0); fill-opacity: 0.25;"/><path class="point" transform="translate(46.1,286.74)" d="M7.5,0A7.5,7.5 0 1,1 0,-7.5A7.5,7.5 0 0,1 7.5,0Z" style="opacity: 1; stroke-width: 0px; fill: rgb(93, 140, 0); fill-opacity: 0.25;"/><path class="point" transform="translate(47.64,282.41)" d="M7.5,0A7.5,7.5 0 1,1 0,-7.5A7.5,7.5 0 0,1 7.5,0Z" style="opacity: 1; stroke-width: 0px; fill: rgb(93, 140, 0); fill-opacity: 0.25;"/><path class="point" transform="translate(48.48,265.11)" d="M7.5,0A7.5,7.5 0 1,1 0,-7.5A7.5,7.5 0 0,1 7.5,0Z" style="opacity: 1; stroke-width: 0px; fill: rgb(93, 140, 0); fill-opacity: 0.25;"/><path class="point" transform="translate(51.97,282.41)" d="M7.5,0A7.5,7.5 0 1,1 0,-7.5A7.5,7.5 0 0,1 7.5,0Z" style="opacity: 1; stroke-width: 0px; fill: rgb(93, 140, 0); fill-opacity: 0.25;"/><path class="point" transform="translate(53.37,278.09)" d="M7.5,0A7.5,7.5 0 1,1 0,-7.5A7.5,7.5 0 0,1 7.5,0Z" style="opacity: 1; stroke-width: 0px; fill: rgb(93, 140, 0); fill-opacity: 0.25;"/><path class="point" transform="translate(58.54,274.63)" d="M7.5,0A7.5,7.5 0 1,1 0,-7.5A7.5,7.5 0 0,1 7.5,0Z" style="opacity: 1; stroke-width: 0px; fill: rgb(93, 140, 0); fill-opacity: 0.25;"/><path class="point" transform="translate(70,269.43)" d="M7.5,0A7.5,7.5 0 1,1 0,-7.5A7.5,7.5 0 0,1 7.5,0Z" style="opacity: 1; stroke-width: 0px; fill: rgb(93, 140, 0); fill-opacity: 0.25;"/><path class="point" transform="translate(70.13,269.43)" d="M7.5,0A7.5,7.5 0 1,1 0,-7.5A7.5,7.5 0 0,1 7.5,0Z" style="opacity: 1; stroke-width: 0px; fill: rgb(93, 140, 0); fill-opacity: 0.25;"/></g><g class="text"/></g><g class="trace scatter trace064fdf" style="stroke-miterlimit: 2; opacity: 1;"><g class="fills"/><g class="errorbars"/><g class="lines"><path class="js-line" d="M0,267.7Q2.65,268.41 4.47,269.45C8.06,271.51 16.01,277.23 19.14,280.97C21.23,283.47 21.73,286.05 23.05,288.35C24.25,290.43 25.23,293.82 26.68,294.2C27.87,294.51 29.84,292.31 30.74,291.96C31.16,291.8 31.34,291.91 31.71,291.72C32.39,291.36 33.14,290.04 34.23,289.49C35.63,288.78 38.2,288.41 39.68,288.3C40.67,288.22 41.53,288.2 42.19,288.45C42.72,288.65 43.02,289.35 43.45,289.42C43.82,289.48 44.18,289.2 44.57,289.02C45.05,288.8 45.58,288.4 46.1,288.14C46.61,287.89 47.21,287.45 47.64,287.47C47.97,287.49 48.09,287.9 48.48,287.94C49.24,288.02 51.07,287.15 51.97,286.84C52.55,286.64 52.75,286.31 53.37,286.3C54.55,286.29 56.44,287.92 58.54,288.16C61.58,288.51 69.26,286.9 70,286.83Q70.08,286.82 70.13,286.82" style="vector-effect: non-scaling-stroke; fill: none; stroke: rgb(114, 55, 105); stroke-opacity: 1; stroke-width: 7px; opacity: 1;"/></g><g class="points"/><g class="text"/></g><g class="trace scatter tracedd1ead" style="stroke-miterlimit: 2; opacity: 1;"><g class="fills"/><g class="errorbars"/><g class="lines"/><g class="points"><path class="point" transform="translate(0,267.7)" d="M7.5,0A7.5,7.5 0 1,1 0,-7.5A7.5,7.5 0 0,1 7.5,0Z" style="opacity: 1; stroke-width: 0px; fill: rgb(114, 55, 105); fill-opacity: 0.25;"/><path class="point" transform="translate(4.47,269.43)" d="M7.5,0A7.5,7.5 0 1,1 0,-7.5A7.5,7.5 0 0,1 7.5,0Z" style="opacity: 1; stroke-width: 0px; fill: rgb(114, 55, 105); fill-opacity: 0.25;"/><path class="point" transform="translate(19.14,273.76)" d="M7.5,0A7.5,7.5 0 1,1 0,-7.5A7.5,7.5 0 0,1 7.5,0Z" style="opacity: 1; stroke-width: 0px; fill: rgb(114, 55, 105); fill-opacity: 0.25;"/><path class="point" transform="translate(23.05,286.74)" d="M7.5,0A7.5,7.5 0 1,1 0,-7.5A7.5,7.5 0 0,1 7.5,0Z" style="opacity: 1; stroke-width: 0px; fill: rgb(114, 55, 105); fill-opacity: 0.25;"/><path class="point" transform="translate(26.68,304.04)" d="M7.5,0A7.5,7.5 0 1,1 0,-7.5A7.5,7.5 0 0,1 7.5,0Z" style="opacity: 1; stroke-width: 0px; fill: rgb(114, 55, 105); fill-opacity: 0.25;"/><path class="point" transform="translate(30.74,291.07)" d="M7.5,0A7.5,7.5 0 1,1 0,-7.5A7.5,7.5 0 0,1 7.5,0Z" style="opacity: 1; stroke-width: 0px; fill: rgb(114, 55, 105); fill-opacity: 0.25;"/><path class="point" transform="translate(31.71,295.39)" d="M7.5,0A7.5,7.5 0 1,1 0,-7.5A7.5,7.5 0 0,1 7.5,0Z" style="opacity: 1; stroke-width: 0px; fill: rgb(114, 55, 105); fill-opacity: 0.25;"/><path class="point" transform="translate(34.23,285.01)" d="M7.5,0A7.5,7.5 0 1,1 0,-7.5A7.5,7.5 0 0,1 7.5,0Z" style="opacity: 1; stroke-width: 0px; fill: rgb(114, 55, 105); fill-opacity: 0.25;"/><path class="point" transform="translate(39.68,286.74)" d="M7.5,0A7.5,7.5 0 1,1 0,-7.5A7.5,7.5 0 0,1 7.5,0Z" style="opacity: 1; stroke-width: 0px; fill: rgb(114, 55, 105); fill-opacity: 0.25;"/><path class="point" transform="translate(42.19,281.55)" d="M7.5,0A7.5,7.5 0 1,1 0,-7.5A7.5,7.5 0 0,1 7.5,0Z" style="opacity: 1; stroke-width: 0px; fill: rgb(114, 55, 105); fill-opacity: 0.25;"/><path class="point" transform="translate(43.45,299.72)" d="M7.5,0A7.5,7.5 0 1,1 0,-7.5A7.5,7.5 0 0,1 7.5,0Z" style="opacity: 1; stroke-width: 0px; fill: rgb(114, 55, 105); fill-opacity: 0.25;"/><path class="point" transform="translate(44.57,291.07)" d="M7.5,0A7.5,7.5 0 1,1 0,-7.5A7.5,7.5 0 0,1 7.5,0Z" style="opacity: 1; stroke-width: 0px; fill: rgb(114, 55, 105); fill-opacity: 0.25;"/><path class="point" transform="translate(46.1,286.74)" d="M7.5,0A7.5,7.5 0 1,1 0,-7.5A7.5,7.5 0 0,1 7.5,0Z" style="opacity: 1; stroke-width: 0px; fill: rgb(114, 55, 105); fill-opacity: 0.25;"/><path class="point" transform="translate(47.64,278.09)" d="M7.5,0A7.5,7.5 0 1,1 0,-7.5A7.5,7.5 0 0,1 7.5,0Z" style="opacity: 1; stroke-width: 0px; fill: rgb(114, 55, 105); fill-opacity: 0.25;"/><path class="point" transform="translate(48.48,295.39)" d="M7.5,0A7.5,7.5 0 1,1 0,-7.5A7.5,7.5 0 0,1 7.5,0Z" style="opacity: 1; stroke-width: 0px; fill: rgb(114, 55, 105); fill-opacity: 0.25;"/><path class="point" transform="translate(51.97,286.74)" d="M7.5,0A7.5,7.5 0 1,1 0,-7.5A7.5,7.5 0 0,1 7.5,0Z" style="opacity: 1; stroke-width: 0px; fill: rgb(114, 55, 105); fill-opacity: 0.25;"/><path class="point" transform="translate(53.37,282.41)" d="M7.5,0A7.5,7.5 0 1,1 0,-7.5A7.5,7.5 0 0,1 7.5,0Z" style="opacity: 1; stroke-width: 0px; fill: rgb(114, 55, 105); fill-opacity: 0.25;"/><path class="point" transform="translate(58.54,290.2)" d="M7.5,0A7.5,7.5 0 1,1 0,-7.5A7.5,7.5 0 0,1 7.5,0Z" style="opacity: 1; stroke-width: 0px; fill: rgb(114, 55, 105); fill-opacity: 0.25;"/><path class="point" transform="translate(70,286.74)" d="M7.5,0A7.5,7.5 0 1,1 0,-7.5A7.5,7.5 0 0,1 7.5,0Z" style="opacity: 1; stroke-width: 0px; fill: rgb(114, 55, 105); fill-opacity: 0.25;"/><path class="point" transform="translate(70.13,286.74)" d="M7.5,0A7.5,7.5 0 1,1 0,-7.5A7.5,7.5 0 0,1 7.5,0Z" style="opacity: 1; stroke-width: 0px; fill: rgb(114, 55, 105); fill-opacity: 0.25;"/></g><g class="text"/></g><g class="trace scatter trace9dfba7" style="stroke-miterlimit: 2; opacity: 1;"><g class="fills"/><g class="errorbars"/><g class="lines"><path class="js-line" d="M0,289.33Q2.4,292.47 4.47,294.21C7.83,297.03 15.7,302.58 19.14,303.53C20.77,303.98 21.87,303.95 23.05,303.42C24.42,302.81 25.57,301.26 26.68,299.58C28.22,297.24 29.65,291.31 30.74,290.22C31.09,289.87 31.32,290.01 31.71,289.8C32.37,289.44 33.19,288.21 34.23,288.09C35.67,287.93 38.24,289.5 39.68,290.23C40.71,290.75 41.51,291.34 42.19,291.83C42.69,292.19 43.07,292.45 43.45,292.85C43.86,293.28 44.1,294.02 44.57,294.36C45,294.67 45.59,294.72 46.1,294.88C46.61,295.04 47.22,295.12 47.64,295.34C47.98,295.52 48.1,296 48.48,296C49.24,296.01 51.07,293.37 51.97,293.37C52.54,293.37 52.71,294.19 53.37,294.42C54.51,294.82 56.53,294.96 58.54,294.55C61.67,293.91 69.27,289.67 70,289.28Q70.08,289.24 70.13,289.2" style="vector-effect: non-scaling-stroke; fill: none; stroke: rgb(240, 125, 0); stroke-opacity: 1; stroke-width: 7px; opacity: 1;"/></g><g class="points"/><g class="text"/></g><g class="trace scatter trace059d3d" style="stroke-miterlimit: 2; opacity: 1;"><g class="fills"/><g class="errorbars"/><g class="lines"/><g class="points"><path class="point" transform="translate(0,289.33)" d="M7.5,0A7.5,7.5 0 1,1 0,-7.5A7.5,7.5 0 0,1 7.5,0Z" style="opacity: 1; stroke-width: 0px; fill: rgb(240, 125, 0); fill-opacity: 0.25;"/><path class="point" transform="translate(4.47,295.39)" d="M7.5,0A7.5,7.5 0 1,1 0,-7.5A7.5,7.5 0 0,1 7.5,0Z" style="opacity: 1; stroke-width: 0px; fill: rgb(240, 125, 0); fill-opacity: 0.25;"/><path class="point" transform="translate(19.14,304.04)" d="M7.5,0A7.5,7.5 0 1,1 0,-7.5A7.5,7.5 0 0,1 7.5,0Z" style="opacity: 1; stroke-width: 0px; fill: rgb(240, 125, 0); fill-opacity: 0.25;"/><path class="point" transform="translate(23.05,308.37)" d="M7.5,0A7.5,7.5 0 1,1 0,-7.5A7.5,7.5 0 0,1 7.5,0Z" style="opacity: 1; stroke-width: 0px; fill: rgb(240, 125, 0); fill-opacity: 0.25;"/><path class="point" transform="translate(26.68,308.37)" d="M7.5,0A7.5,7.5 0 1,1 0,-7.5A7.5,7.5 0 0,1 7.5,0Z" style="opacity: 1; stroke-width: 0px; fill: rgb(240, 125, 0); fill-opacity: 0.25;"/><path class="point" transform="translate(30.74,282.41)" d="M7.5,0A7.5,7.5 0 1,1 0,-7.5A7.5,7.5 0 0,1 7.5,0Z" style="opacity: 1; stroke-width: 0px; fill: rgb(240, 125, 0); fill-opacity: 0.25;"/><path class="point" transform="translate(31.71,291.07)" d="M7.5,0A7.5,7.5 0 1,1 0,-7.5A7.5,7.5 0 0,1 7.5,0Z" style="opacity: 1; stroke-width: 0px; fill: rgb(240, 125, 0); fill-opacity: 0.25;"/><path class="point" transform="translate(34.23,281.55)" d="M7.5,0A7.5,7.5 0 1,1 0,-7.5A7.5,7.5 0 0,1 7.5,0Z" style="opacity: 1; stroke-width: 0px; fill: rgb(240, 125, 0); fill-opacity: 0.25;"/><path class="point" transform="translate(39.68,286.74)" d="M7.5,0A7.5,7.5 0 1,1 0,-7.5A7.5,7.5 0 0,1 7.5,0Z" style="opacity: 1; stroke-width: 0px; fill: rgb(240, 125, 0); fill-opacity: 0.25;"/><path class="point" transform="translate(42.19,288.47)" d="M7.5,0A7.5,7.5 0 1,1 0,-7.5A7.5,7.5 0 0,1 7.5,0Z" style="opacity: 1; stroke-width: 0px; fill: rgb(240, 125, 0); fill-opacity: 0.25;"/><path class="point" transform="translate(43.45,286.74)" d="M7.5,0A7.5,7.5 0 1,1 0,-7.5A7.5,7.5 0 0,1 7.5,0Z" style="opacity: 1; stroke-width: 0px; fill: rgb(240, 125, 0); fill-opacity: 0.25;"/><path class="point" transform="translate(44.57,304.04)" d="M7.5,0A7.5,7.5 0 1,1 0,-7.5A7.5,7.5 0 0,1 7.5,0Z" style="opacity: 1; stroke-width: 0px; fill: rgb(240, 125, 0); fill-opacity: 0.25;"/><path class="point" transform="translate(46.1,295.39)" d="M7.5,0A7.5,7.5 0 1,1 0,-7.5A7.5,7.5 0 0,1 7.5,0Z" style="opacity: 1; stroke-width: 0px; fill: rgb(240, 125, 0); fill-opacity: 0.25;"/><path class="point" transform="translate(47.64,291.07)" d="M7.5,0A7.5,7.5 0 1,1 0,-7.5A7.5,7.5 0 0,1 7.5,0Z" style="opacity: 1; stroke-width: 0px; fill: rgb(240, 125, 0); fill-opacity: 0.25;"/><path class="point" transform="translate(48.48,308.37)" d="M7.5,0A7.5,7.5 0 1,1 0,-7.5A7.5,7.5 0 0,1 7.5,0Z" style="opacity: 1; stroke-width: 0px; fill: rgb(240, 125, 0); fill-opacity: 0.25;"/><path class="point" transform="translate(51.97,282.41)" d="M7.5,0A7.5,7.5 0 1,1 0,-7.5A7.5,7.5 0 0,1 7.5,0Z" style="opacity: 1; stroke-width: 0px; fill: rgb(240, 125, 0); fill-opacity: 0.25;"/><path class="point" transform="translate(53.37,299.72)" d="M7.5,0A7.5,7.5 0 1,1 0,-7.5A7.5,7.5 0 0,1 7.5,0Z" style="opacity: 1; stroke-width: 0px; fill: rgb(240, 125, 0); fill-opacity: 0.25;"/><path class="point" transform="translate(58.54,295.39)" d="M7.5,0A7.5,7.5 0 1,1 0,-7.5A7.5,7.5 0 0,1 7.5,0Z" style="opacity: 1; stroke-width: 0px; fill: rgb(240, 125, 0); fill-opacity: 0.25;"/><path class="point" transform="translate(70,291.07)" d="M7.5,0A7.5,7.5 0 1,1 0,-7.5A7.5,7.5 0 0,1 7.5,0Z" style="opacity: 1; stroke-width: 0px; fill: rgb(240, 125, 0); fill-opacity: 0.25;"/><path class="point" transform="translate(70.13,286.74)" d="M7.5,0A7.5,7.5 0 1,1 0,-7.5A7.5,7.5 0 0,1 7.5,0Z" style="opacity: 1; stroke-width: 0px; fill: rgb(240, 125, 0); fill-opacity: 0.25;"/></g><g class="text"/></g><g class="trace scatter trace261bd3" style="stroke-miterlimit: 2; opacity: 1;"><g class="fills"/><g class="errorbars"/><g class="lines"><path class="js-line" d="M0,270.3Q0.59,289.71 4.47,292C7.7,293.9 15.98,286.5 19.14,287.42C21.12,288 21.6,291.29 23.05,292.04C24.17,292.62 25.45,292.14 26.68,292.37C28.01,292.62 29.87,293.18 30.74,293.55C31.19,293.74 31.3,294.06 31.71,294.11C32.34,294.18 33.22,293.38 34.23,293.33C35.69,293.26 38.24,293.95 39.68,294.46C40.71,294.83 41.48,295.65 42.19,295.77C42.67,295.85 43.05,295.73 43.45,295.6C43.85,295.47 44.17,295.22 44.57,295C45.04,294.74 45.57,294.34 46.1,294.12C46.6,293.91 47.25,294.02 47.64,293.71C48.06,293.38 48,292.62 48.48,292.11C49.2,291.33 51.1,289.81 51.97,289.92C52.58,290 52.68,291.19 53.37,291.38C54.5,291.69 56.55,289.68 58.54,289.97C61.69,290.43 69.26,296.61 70,297.06Q70.08,297.11 70.13,297.14" style="vector-effect: non-scaling-stroke; fill: none; stroke: rgb(230, 172, 33); stroke-opacity: 1; stroke-width: 7px; opacity: 1;"/></g><g class="points"/><g class="text"/></g><g class="trace scatter trace606d87" style="stroke-miterlimit: 2; opacity: 1;"><g class="fills"/><g class="errorbars"/><g class="lines"/><g class="points"><path class="point" transform="translate(0,270.3)" d="M7.5,0A7.5,7.5 0 1,1 0,-7.5A7.5,7.5 0 0,1 7.5,0Z" style="opacity: 1; stroke-width: 0px; fill: rgb(230, 172, 33); fill-opacity: 0.25;"/><path class="point" transform="translate(4.47,299.72)" d="M7.5,0A7.5,7.5 0 1,1 0,-7.5A7.5,7.5 0 0,1 7.5,0Z" style="opacity: 1; stroke-width: 0px; fill: rgb(230, 172, 33); fill-opacity: 0.25;"/><path class="point" transform="translate(19.14,282.41)" d="M7.5,0A7.5,7.5 0 1,1 0,-7.5A7.5,7.5 0 0,1 7.5,0Z" style="opacity: 1; stroke-width: 0px; fill: rgb(230, 172, 33); fill-opacity: 0.25;"/><path class="point" transform="translate(23.05,295.39)" d="M7.5,0A7.5,7.5 0 1,1 0,-7.5A7.5,7.5 0 0,1 7.5,0Z" style="opacity: 1; stroke-width: 0px; fill: rgb(230, 172, 33); fill-opacity: 0.25;"/><path class="point" transform="translate(26.68,291.07)" d="M7.5,0A7.5,7.5 0 1,1 0,-7.5A7.5,7.5 0 0,1 7.5,0Z" style="opacity: 1; stroke-width: 0px; fill: rgb(230, 172, 33); fill-opacity: 0.25;"/><path class="point" transform="translate(30.74,291.07)" d="M7.5,0A7.5,7.5 0 1,1 0,-7.5A7.5,7.5 0 0,1 7.5,0Z" style="opacity: 1; stroke-width: 0px; fill: rgb(230, 172, 33); fill-opacity: 0.25;"/><path class="point" transform="translate(31.71,299.72)" d="M7.5,0A7.5,7.5 0 1,1 0,-7.5A7.5,7.5 0 0,1 7.5,0Z" style="opacity: 1; stroke-width: 0px; fill: rgb(230, 172, 33); fill-opacity: 0.25;"/><path class="point" transform="translate(34.23,290.2)" d="M7.5,0A7.5,7.5 0 1,1 0,-7.5A7.5,7.5 0 0,1 7.5,0Z" style="opacity: 1; stroke-width: 0px; fill: rgb(230, 172, 33); fill-opacity: 0.25;"/><path class="point" transform="translate(39.68,291.07)" d="M7.5,0A7.5,7.5 0 1,1 0,-7.5A7.5,7.5 0 0,1 7.5,0Z" style="opacity: 1; stroke-width: 0px; fill: rgb(230, 172, 33); fill-opacity: 0.25;"/><path class="point" transform="translate(42.19,300.58)" d="M7.5,0A7.5,7.5 0 1,1 0,-7.5A7.5,7.5 0 0,1 7.5,0Z" style="opacity: 1; stroke-width: 0px; fill: rgb(230, 172, 33); fill-opacity: 0.25;"/><path class="point" transform="translate(43.45,299.72)" d="M7.5,0A7.5,7.5 0 1,1 0,-7.5A7.5,7.5 0 0,1 7.5,0Z" style="opacity: 1; stroke-width: 0px; fill: rgb(230, 172, 33); fill-opacity: 0.25;"/><path class="point" transform="translate(44.57,295.39)" d="M7.5,0A7.5,7.5 0 1,1 0,-7.5A7.5,7.5 0 0,1 7.5,0Z" style="opacity: 1; stroke-width: 0px; fill: rgb(230, 172, 33); fill-opacity: 0.25;"/><path class="point" transform="translate(46.1,291.07)" d="M7.5,0A7.5,7.5 0 1,1 0,-7.5A7.5,7.5 0 0,1 7.5,0Z" style="opacity: 1; stroke-width: 0px; fill: rgb(230, 172, 33); fill-opacity: 0.25;"/><path class="point" transform="translate(47.64,308.37)" d="M7.5,0A7.5,7.5 0 1,1 0,-7.5A7.5,7.5 0 0,1 7.5,0Z" style="opacity: 1; stroke-width: 0px; fill: rgb(230, 172, 33); fill-opacity: 0.25;"/><path class="point" transform="translate(48.48,278.09)" d="M7.5,0A7.5,7.5 0 1,1 0,-7.5A7.5,7.5 0 0,1 7.5,0Z" style="opacity: 1; stroke-width: 0px; fill: rgb(230, 172, 33); fill-opacity: 0.25;"/><path class="point" transform="translate(51.97,278.09)" d="M7.5,0A7.5,7.5 0 1,1 0,-7.5A7.5,7.5 0 0,1 7.5,0Z" style="opacity: 1; stroke-width: 0px; fill: rgb(230, 172, 33); fill-opacity: 0.25;"/><path class="point" transform="translate(53.37,299.72)" d="M7.5,0A7.5,7.5 0 1,1 0,-7.5A7.5,7.5 0 0,1 7.5,0Z" style="opacity: 1; stroke-width: 0px; fill: rgb(230, 172, 33); fill-opacity: 0.25;"/><path class="point" transform="translate(58.54,287.6)" d="M7.5,0A7.5,7.5 0 1,1 0,-7.5A7.5,7.5 0 0,1 7.5,0Z" style="opacity: 1; stroke-width: 0px; fill: rgb(230, 172, 33); fill-opacity: 0.25;"/><path class="point" transform="translate(70,295.39)" d="M7.5,0A7.5,7.5 0 1,1 0,-7.5A7.5,7.5 0 0,1 7.5,0Z" style="opacity: 1; stroke-width: 0px; fill: rgb(230, 172, 33); fill-opacity: 0.25;"/><path class="point" transform="translate(70.13,299.72)" d="M7.5,0A7.5,7.5 0 1,1 0,-7.5A7.5,7.5 0 0,1 7.5,0Z" style="opacity: 1; stroke-width: 0px; fill: rgb(230, 172, 33); fill-opacity: 0.25;"/></g><g class="text"/></g><g class="trace scatter traceb8530b" style="stroke-miterlimit: 2; opacity: 1;"><g class="fills"/><g class="errorbars"/><g class="lines"><path class="js-line" d="M0,298.85Q2.66,299.08 4.47,299.93C8.08,301.62 15.71,310.29 19.14,310.81C20.77,311.06 21.75,309.67 23.05,309.44C24.26,309.23 25.48,309.74 26.68,309.41C28.05,309.04 29.83,307.27 30.74,307.05C31.15,306.95 31.31,307.12 31.71,307.1C32.35,307.06 33.23,306.78 34.23,306.69C35.7,306.56 38.22,306.76 39.68,306.58C40.68,306.46 41.5,305.95 42.19,306.01C42.69,306.05 43.07,306.27 43.45,306.53Q43.87,306.82 44.57,307.71" style="vector-effect: non-scaling-stroke; fill: none; stroke: rgb(140, 0, 0); stroke-opacity: 1; stroke-width: 7px; opacity: 1;"/><path class="js-line" d="M47.64,310.42Q48.11,310.52 48.48,310.5C49.25,310.46 51.1,310.18 51.97,309.81C52.58,309.55 52.82,309.38 53.37,308.83C54.64,307.57 56.11,302.28 58.54,301.55C61.39,300.7 69.26,306.27 70,306.03Q70.1,306 70.13,305.83" style="vector-effect: non-scaling-stroke; fill: none; stroke: rgb(140, 0, 0); stroke-opacity: 1; stroke-width: 7px; opacity: 1;"/></g><g class="points"/><g class="text"/></g><g class="trace scatter tracecdce41" style="stroke-miterlimit: 2; opacity: 1;"><g class="fills"/><g class="errorbars"/><g class="lines"/><g class="points"><path class="point" transform="translate(0,298.85)" d="M7.5,0A7.5,7.5 0 1,1 0,-7.5A7.5,7.5 0 0,1 7.5,0Z" style="opacity: 1; stroke-width: 0px; fill: rgb(140, 0, 0); fill-opacity: 0.25;"/><path class="point" transform="translate(4.47,299.72)" d="M7.5,0A7.5,7.5 0 1,1 0,-7.5A7.5,7.5 0 0,1 7.5,0Z" style="opacity: 1; stroke-width: 0px; fill: rgb(140, 0, 0); fill-opacity: 0.25;"/><path class="point" transform="translate(19.14,312.7)" d="M7.5,0A7.5,7.5 0 1,1 0,-7.5A7.5,7.5 0 0,1 7.5,0Z" style="opacity: 1; stroke-width: 0px; fill: rgb(140, 0, 0); fill-opacity: 0.25;"/><path class="point" transform="translate(23.05,308.37)" d="M7.5,0A7.5,7.5 0 1,1 0,-7.5A7.5,7.5 0 0,1 7.5,0Z" style="opacity: 1; stroke-width: 0px; fill: rgb(140, 0, 0); fill-opacity: 0.25;"/><path class="point" transform="translate(26.68,312.7)" d="M7.5,0A7.5,7.5 0 1,1 0,-7.5A7.5,7.5 0 0,1 7.5,0Z" style="opacity: 1; stroke-width: 0px; fill: rgb(140, 0, 0); fill-opacity: 0.25;"/><path class="point" transform="translate(30.74,304.04)" d="M7.5,0A7.5,7.5 0 1,1 0,-7.5A7.5,7.5 0 0,1 7.5,0Z" style="opacity: 1; stroke-width: 0px; fill: rgb(140, 0, 0); fill-opacity: 0.25;"/><path class="point" transform="translate(31.71,308.37)" d="M7.5,0A7.5,7.5 0 1,1 0,-7.5A7.5,7.5 0 0,1 7.5,0Z" style="opacity: 1; stroke-width: 0px; fill: rgb(140, 0, 0); fill-opacity: 0.25;"/><path class="point" transform="translate(34.23,305.77)" d="M7.5,0A7.5,7.5 0 1,1 0,-7.5A7.5,7.5 0 0,1 7.5,0Z" style="opacity: 1; stroke-width: 0px; fill: rgb(140, 0, 0); fill-opacity: 0.25;"/><path class="point" transform="translate(39.68,308.37)" d="M7.5,0A7.5,7.5 0 1,1 0,-7.5A7.5,7.5 0 0,1 7.5,0Z" style="opacity: 1; stroke-width: 0px; fill: rgb(140, 0, 0); fill-opacity: 0.25;"/><path class="point" transform="translate(42.19,300.58)" d="M7.5,0A7.5,7.5 0 1,1 0,-7.5A7.5,7.5 0 0,1 7.5,0Z" style="opacity: 1; stroke-width: 0px; fill: rgb(140, 0, 0); fill-opacity: 0.25;"/><path class="point" transform="translate(43.45,299.72)" d="M7.5,0A7.5,7.5 0 1,1 0,-7.5A7.5,7.5 0 0,1 7.5,0Z" style="opacity: 1; stroke-width: 0px; fill: rgb(140, 0, 0); fill-opacity: 0.25;"/><path class="point" transform="translate(44.57,299.72)" d="M7.5,0A7.5,7.5 0 1,1 0,-7.5A7.5,7.5 0 0,1 7.5,0Z" style="opacity: 1; stroke-width: 0px; fill: rgb(140, 0, 0); fill-opacity: 0.25;"/><path class="point" transform="translate(47.64,308.37)" d="M7.5,0A7.5,7.5 0 1,1 0,-7.5A7.5,7.5 0 0,1 7.5,0Z" style="opacity: 1; stroke-width: 0px; fill: rgb(140, 0, 0); fill-opacity: 0.25;"/><path class="point" transform="translate(48.48,312.7)" d="M7.5,0A7.5,7.5 0 1,1 0,-7.5A7.5,7.5 0 0,1 7.5,0Z" style="opacity: 1; stroke-width: 0px; fill: rgb(140, 0, 0); fill-opacity: 0.25;"/><path class="point" transform="translate(51.97,312.7)" d="M7.5,0A7.5,7.5 0 1,1 0,-7.5A7.5,7.5 0 0,1 7.5,0Z" style="opacity: 1; stroke-width: 0px; fill: rgb(140, 0, 0); fill-opacity: 0.25;"/><path class="point" transform="translate(53.37,308.37)" d="M7.5,0A7.5,7.5 0 1,1 0,-7.5A7.5,7.5 0 0,1 7.5,0Z" style="opacity: 1; stroke-width: 0px; fill: rgb(140, 0, 0); fill-opacity: 0.25;"/><path class="point" transform="translate(58.54,293.66)" d="M7.5,0A7.5,7.5 0 1,1 0,-7.5A7.5,7.5 0 0,1 7.5,0Z" style="opacity: 1; stroke-width: 0px; fill: rgb(140, 0, 0); fill-opacity: 0.25;"/><path class="point" transform="translate(70,312.7)" d="M7.5,0A7.5,7.5 0 1,1 0,-7.5A7.5,7.5 0 0,1 7.5,0Z" style="opacity: 1; stroke-width: 0px; fill: rgb(140, 0, 0); fill-opacity: 0.25;"/><path class="point" transform="translate(70.13,299.72)" d="M7.5,0A7.5,7.5 0 1,1 0,-7.5A7.5,7.5 0 0,1 7.5,0Z" style="opacity: 1; stroke-width: 0px; fill: rgb(140, 0, 0); fill-opacity: 0.25;"/></g><g class="text"/></g><g class="trace scatter tracefe56c3" style="stroke-miterlimit: 2; opacity: 1;"><g class="fills"/><g class="errorbars"/><g class="lines"><path class="js-line" d="M0,289.33Q1.26,301.15 4.47,303.49C7.66,305.81 15.82,303.67 19.14,303.4C20.87,303.26 21.8,302.57 23.05,302.78C24.32,302.99 25.43,304.07 26.68,304.72C27.99,305.4 29.87,306.24 30.74,306.78C31.19,307.06 31.28,307.37 31.71,307.51C32.33,307.7 33.28,307.73 34.23,307.42C35.76,306.92 38.18,304.53 39.68,303.71C40.65,303.18 41.49,302.85 42.19,302.63C42.67,302.48 43.04,302.41 43.45,302.39C43.83,302.37 44.17,302.5 44.57,302.51C45.04,302.52 45.59,302.38 46.1,302.42C46.62,302.46 47.2,302.71 47.64,302.78C47.96,302.83 48.15,302.69 48.48,302.87C49.33,303.35 51.02,306.45 51.97,307.44Q52.5,308 53.37,308.61" style="vector-effect: non-scaling-stroke; fill: none; stroke: rgb(0, 51, 255); stroke-opacity: 1; stroke-width: 7px; opacity: 1;"/><path class="js-line" d="M70,308.99L70.13,308.97" style="vector-effect: non-scaling-stroke; fill: none; stroke: rgb(0, 51, 255); stroke-opacity: 1; stroke-width: 7px; opacity: 1;"/></g><g class="points"/><g class="text"/></g><g class="trace scatter trace9cd9b6" style="stroke-miterlimit: 2; opacity: 1;"><g class="fills"/><g class="errorbars"/><g class="lines"/><g class="points"><path class="point" transform="translate(0,289.33)" d="M7.5,0A7.5,7.5 0 1,1 0,-7.5A7.5,7.5 0 0,1 7.5,0Z" style="opacity: 1; stroke-width: 0px; fill: rgb(0, 51, 255); fill-opacity: 0.25;"/><path class="point" transform="translate(4.47,308.37)" d="M7.5,0A7.5,7.5 0 1,1 0,-7.5A7.5,7.5 0 0,1 7.5,0Z" style="opacity: 1; stroke-width: 0px; fill: rgb(0, 51, 255); fill-opacity: 0.25;"/><path class="point" transform="translate(19.14,304.04)" d="M7.5,0A7.5,7.5 0 1,1 0,-7.5A7.5,7.5 0 0,1 7.5,0Z" style="opacity: 1; stroke-width: 0px; fill: rgb(0, 51, 255); fill-opacity: 0.25;"/><path class="point" transform="translate(23.05,299.72)" d="M7.5,0A7.5,7.5 0 1,1 0,-7.5A7.5,7.5 0 0,1 7.5,0Z" style="opacity: 1; stroke-width: 0px; fill: rgb(0, 51, 255); fill-opacity: 0.25;"/><path class="point" transform="translate(26.68,304.04)" d="M7.5,0A7.5,7.5 0 1,1 0,-7.5A7.5,7.5 0 0,1 7.5,0Z" style="opacity: 1; stroke-width: 0px; fill: rgb(0, 51, 255); fill-opacity: 0.25;"/><path class="point" transform="translate(30.74,304.04)" d="M7.5,0A7.5,7.5 0 1,1 0,-7.5A7.5,7.5 0 0,1 7.5,0Z" style="opacity: 1; stroke-width: 0px; fill: rgb(0, 51, 255); fill-opacity: 0.25;"/><path class="point" transform="translate(31.71,312.7)" d="M7.5,0A7.5,7.5 0 1,1 0,-7.5A7.5,7.5 0 0,1 7.5,0Z" style="opacity: 1; stroke-width: 0px; fill: rgb(0, 51, 255); fill-opacity: 0.25;"/><path class="point" transform="translate(34.23,310.97)" d="M7.5,0A7.5,7.5 0 1,1 0,-7.5A7.5,7.5 0 0,1 7.5,0Z" style="opacity: 1; stroke-width: 0px; fill: rgb(0, 51, 255); fill-opacity: 0.25;"/><path class="point" transform="translate(39.68,304.04)" d="M7.5,0A7.5,7.5 0 1,1 0,-7.5A7.5,7.5 0 0,1 7.5,0Z" style="opacity: 1; stroke-width: 0px; fill: rgb(0, 51, 255); fill-opacity: 0.25;"/><path class="point" transform="translate(42.19,301.45)" d="M7.5,0A7.5,7.5 0 1,1 0,-7.5A7.5,7.5 0 0,1 7.5,0Z" style="opacity: 1; stroke-width: 0px; fill: rgb(0, 51, 255); fill-opacity: 0.25;"/><path class="point" transform="translate(43.45,299.72)" d="M7.5,0A7.5,7.5 0 1,1 0,-7.5A7.5,7.5 0 0,1 7.5,0Z" style="opacity: 1; stroke-width: 0px; fill: rgb(0, 51, 255); fill-opacity: 0.25;"/><path class="point" transform="translate(44.57,304.04)" d="M7.5,0A7.5,7.5 0 1,1 0,-7.5A7.5,7.5 0 0,1 7.5,0Z" style="opacity: 1; stroke-width: 0px; fill: rgb(0, 51, 255); fill-opacity: 0.25;"/><path class="point" transform="translate(46.1,299.72)" d="M7.5,0A7.5,7.5 0 1,1 0,-7.5A7.5,7.5 0 0,1 7.5,0Z" style="opacity: 1; stroke-width: 0px; fill: rgb(0, 51, 255); fill-opacity: 0.25;"/><path class="point" transform="translate(47.64,304.04)" d="M7.5,0A7.5,7.5 0 1,1 0,-7.5A7.5,7.5 0 0,1 7.5,0Z" style="opacity: 1; stroke-width: 0px; fill: rgb(0, 51, 255); fill-opacity: 0.25;"/><path class="point" transform="translate(48.48,295.39)" d="M7.5,0A7.5,7.5 0 1,1 0,-7.5A7.5,7.5 0 0,1 7.5,0Z" style="opacity: 1; stroke-width: 0px; fill: rgb(0, 51, 255); fill-opacity: 0.25;"/><path class="point" transform="translate(51.97,312.7)" d="M7.5,0A7.5,7.5 0 1,1 0,-7.5A7.5,7.5 0 0,1 7.5,0Z" style="opacity: 1; stroke-width: 0px; fill: rgb(0, 51, 255); fill-opacity: 0.25;"/><path class="point" transform="translate(53.37,308.37)" d="M7.5,0A7.5,7.5 0 1,1 0,-7.5A7.5,7.5 0 0,1 7.5,0Z" style="opacity: 1; stroke-width: 0px; fill: rgb(0, 51, 255); fill-opacity: 0.25;"/><path class="point" transform="translate(70,308.37)" d="M7.5,0A7.5,7.5 0 1,1 0,-7.5A7.5,7.5 0 0,1 7.5,0Z" style="opacity: 1; stroke-width: 0px; fill: rgb(0, 51, 255); fill-opacity: 0.25;"/><path class="point" transform="translate(70.13,308.37)" d="M7.5,0A7.5,7.5 0 1,1 0,-7.5A7.5,7.5 0 0,1 7.5,0Z" style="opacity: 1; stroke-width: 0px; fill: rgb(0, 51, 255); fill-opacity: 0.25;"/></g><g class="text"/></g></g></g><g class="overplot"/><path class="xlines-above crisp" d="M0,0" style="fill: none;"/><path class="ylines-above crisp" d="M0,0" style="fill: none;"/><g class="overlines-above"/><g class="xaxislayer-above"><g class="xtick"><text text-anchor="middle" x="0" y="363" transform="translate(61.74,0)" style="font-family: 'Open Sans', verdana, arial, sans-serif; font-size: 12px; fill: rgb(42, 63, 95); fill-opacity: 1; white-space: pre; opacity: 1;">1.1.22</text></g><g class="xtick"><text text-anchor="middle" x="0" y="363" style="font-family: 'Open Sans', verdana, arial, sans-serif; font-size: 12px; fill: rgb(42, 63, 95); fill-opacity: 1; white-space: pre; opacity: 1;" transform="translate(112.72999999999999,0)">1.1.23</text></g><g class="xtick"><text text-anchor="middle" x="0" y="363" style="font-family: 'Open Sans', verdana, arial, sans-serif; font-size: 12px; fill: rgb(42, 63, 95); fill-opacity: 1; white-space: pre; opacity: 1;" transform="translate(163.72,0)">1.1.24</text></g><g class="xtick"><text text-anchor="middle" x="0" y="363" style="font-family: 'Open Sans', verdana, arial, sans-serif; font-size: 12px; fill: rgb(42, 63, 95); fill-opacity: 1; white-space: pre; opacity: 1;" transform="translate(214.86,0)">1.1.25</text></g></g><g class="yaxislayer-above"><g class="ytick"><text text-anchor="end" x="49" y="4.199999999999999" transform="translate(0,350)" style="font-family: 'Open Sans', verdana, arial, sans-serif; font-size: 12px; fill: rgb(42, 63, 95); fill-opacity: 1; white-space: pre; opacity: 1;">0%</text></g><g class="ytick"><text text-anchor="end" x="49" y="4.199999999999999" style="font-family: 'Open Sans', verdana, arial, sans-serif; font-size: 12px; fill: rgb(42, 63, 95); fill-opacity: 1; white-space: pre; opacity: 1;" transform="translate(0,306.74)">5%</text></g><g class="ytick"><text text-anchor="end" x="49" y="4.199999999999999" style="font-family: 'Open Sans', verdana, arial, sans-serif; font-size: 12px; fill: rgb(42, 63, 95); fill-opacity: 1; white-space: pre; opacity: 1;" transform="translate(0,263.48)">10%</text></g><g class="ytick"><text text-anchor="end" x="49" y="4.199999999999999" style="font-family: 'Open Sans', verdana, arial, sans-serif; font-size: 12px; fill: rgb(42, 63, 95); fill-opacity: 1; white-space: pre; opacity: 1;" transform="translate(0,220.22)">15%</text></g><g class="ytick"><text text-anchor="end" x="49" y="4.199999999999999" style="font-family: 'Open Sans', verdana, arial, sans-serif; font-size: 12px; fill: rgb(42, 63, 95); fill-opacity: 1; white-space: pre; opacity: 1;" transform="translate(0,176.96)">20%</text></g><g class="ytick"><text text-anchor="end" x="49" y="4.199999999999999" style="font-family: 'Open Sans', verdana, arial, sans-serif; font-size: 12px; fill: rgb(42, 63, 95); fill-opacity: 1; white-space: pre; opacity: 1;" transform="translate(0,133.69)">25%</text></g><g class="ytick"><text text-anchor="end" x="49" y="4.199999999999999" style="font-family: 'Open Sans', verdana, arial, sans-serif; font-size: 12px; fill: rgb(42, 63, 95); fill-opacity: 1; white-space: pre; opacity: 1;" transform="translate(0,90.43)">30%</text></g><g class="ytick"><text text-anchor="end" x="49" y="4.199999999999999" style="font-family: 'Open Sans', verdana, arial, sans-serif; font-size: 12px; fill: rgb(42, 63, 95); fill-opacity: 1; white-space: pre; opacity: 1;" transform="translate(0,47.17)">35%</text></g></g><g class="overaxes-above"/></g></g><g class="polarlayer"/><g class="smithlayer"/><g class="ternarylayer"/><g class="geolayer"/><g class="funnelarealayer"/><g class="pielayer"/><g class="iciclelayer"/><g class="treemaplayer"/><g class="sunburstlayer"/><g class="glimages"/><defs id="topdefs-2b99f5"><g class="clips"/><clipPath id="legend2b99f5"><rect width="131" height="200" x="0" y="0"/></clipPath></defs><g class="layer-above"><g class="imagelayer"/><g class="shapelayer"/></g><g class="infolayer"><g class="legend" pointer-events="all" transform="translate(257.06,20)"><rect class="bg" shape-rendering="crispEdges" width="131" height="200" x="0" y="0" style="stroke: rgb(68, 68, 68); stroke-opacity: 1; fill: rgb(255, 255, 255); fill-opacity: 1; stroke-width: 0px;"/><g class="scrollbox" transform="" clip-path="url(#legend2b99f5)"><g class="groups"><g class="traces" transform="translate(0,14.5)" style="opacity: 1;"><text class="legendtext" text-anchor="start" x="40" y="4.680000000000001" style="font-family: 'Open Sans', verdana, arial, sans-serif; font-size: 12px; fill: rgb(42, 63, 95); fill-opacity: 1; white-space: pre;">ANO: 31%</text><g class="layers" style="opacity: 1;"><g class="legendfill"/><g class="legendlines"><path class="js-line" d="M5,0h30" style="fill: none; stroke: rgb(38, 16, 96); stroke-opacity: 1; stroke-width: 7px;"/></g><g class="legendsymbols"><g class="legendpoints"/></g></g><rect class="legendtoggle" x="0" y="-9.5" width="125.359375" height="19" style="fill: rgb(0, 0, 0); fill-opacity: 0;"/></g><g class="traces" transform="translate(0,33.5)" style="opacity: 1;"><text class="legendtext" text-anchor="start" x="40" y="4.680000000000001" style="font-family: 'Open Sans', verdana, arial, sans-serif; font-size: 12px; fill: rgb(42, 63, 95); fill-opacity: 1; white-space: pre;">ODS: 18%</text><g class="layers" style="opacity: 1;"><g class="legendfill"/><g class="legendlines"><path class="js-line" d="M5,0h30" style="fill: none; stroke: rgb(0, 68, 148); stroke-opacity: 1; stroke-width: 7px;"/></g><g class="legendsymbols"><g class="legendpoints"/></g></g><rect class="legendtoggle" x="0" y="-9.5" width="125.359375" height="19" style="fill: rgb(0, 0, 0); fill-opacity: 0;"/></g><g class="traces" transform="translate(0,52.5)" style="opacity: 1;"><text class="legendtext" text-anchor="start" x="40" y="4.680000000000001" style="font-family: 'Open Sans', verdana, arial, sans-serif; font-size: 12px; fill: rgb(42, 63, 95); fill-opacity: 1; white-space: pre;">Pirti: 10%</text><g class="layers" style="opacity: 1;"><g class="legendfill"/><g class="legendlines"><path class="js-line" d="M5,0h30" style="fill: none; stroke: rgb(0, 0, 0); stroke-opacity: 1; stroke-width: 7px;"/></g><g class="legendsymbols"><g class="legendpoints"/></g></g><rect class="legendtoggle" x="0" y="-9.5" width="125.359375" height="19" style="fill: rgb(0, 0, 0); fill-opacity: 0;"/></g><g class="traces" transform="translate(0,71.5)" style="opacity: 1;"><text class="legendtext" text-anchor="start" x="40" y="4.680000000000001" style="font-family: 'Open Sans', verdana, arial, sans-serif; font-size: 12px; fill: rgb(42, 63, 95); fill-opacity: 1; white-space: pre;">SPD: 9%</text><g class="layers" style="opacity: 1;"><g class="legendfill"/><g class="legendlines"><path class="js-line" d="M5,0h30" style="fill: none; stroke: rgb(234, 35, 41); stroke-opacity: 1; stroke-width: 7px;"/></g><g class="legendsymbols"><g class="legendpoints"/></g></g><rect class="legendtoggle" x="0" y="-9.5" width="125.359375" height="19" style="fill: rgb(0, 0, 0); fill-opacity: 0;"/></g><g class="traces" transform="translate(0,90.5)" style="opacity: 1;"><text class="legendtext" text-anchor="start" x="40" y="4.680000000000001" style="font-family: 'Open Sans', verdana, arial, sans-serif; font-size: 12px; fill: rgb(42, 63, 95); fill-opacity: 1; white-space: pre;">STAN: 7%</text><g class="layers" style="opacity: 1;"><g class="legendfill"/><g class="legendlines"><path class="js-line" d="M5,0h30" style="fill: none; stroke: rgb(93, 140, 0); stroke-opacity: 1; stroke-width: 7px;"/></g><g class="legendsymbols"><g class="legendpoints"/></g></g><rect class="legendtoggle" x="0" y="-9.5" width="125.359375" height="19" style="fill: rgb(0, 0, 0); fill-opacity: 0;"/></g><g class="traces" transform="translate(0,109.5)" style="opacity: 1;"><text class="legendtext" text-anchor="start" x="40" y="4.680000000000001" style="font-family: 'Open Sans', verdana, arial, sans-serif; font-size: 12px; fill: rgb(42, 63, 95); fill-opacity: 1; white-space: pre;">TOP 09: 5%</text><g class="layers" style="opacity: 1;"><g class="legendfill"/><g class="legendlines"><path class="js-line" d="M5,0h30" style="fill: none; stroke: rgb(114, 55, 105); stroke-opacity: 1; stroke-width: 7px;"/></g><g class="legendsymbols"><g class="legendpoints"/></g></g><rect class="legendtoggle" x="0" y="-9.5" width="125.359375" height="19" style="fill: rgb(0, 0, 0); fill-opacity: 0;"/></g><g class="traces" transform="translate(0,128.5)" style="opacity: 1;"><text class="legendtext" text-anchor="start" x="40" y="4.680000000000001" style="font-family: 'Open Sans', verdana, arial, sans-serif; font-size: 12px; fill: rgb(42, 63, 95); fill-opacity: 1; white-space: pre;">SSD: 5%</text><g class="layers" style="opacity: 1;"><g class="legendfill"/><g class="legendlines"><path class="js-line" d="M5,0h30" style="fill: none; stroke: rgb(240, 125, 0); stroke-opacity: 1; stroke-width: 7px;"/></g><g class="legendsymbols"><g class="legendpoints"/></g></g><rect class="legendtoggle" x="0" y="-9.5" width="125.359375" height="19" style="fill: rgb(0, 0, 0); fill-opacity: 0;"/></g><g class="traces" transform="translate(0,147.5)" style="opacity: 1;"><text class="legendtext" text-anchor="start" x="40" y="4.680000000000001" style="font-family: 'Open Sans', verdana, arial, sans-serif; font-size: 12px; fill: rgb(42, 63, 95); fill-opacity: 1; white-space: pre;">KDU-SL: 4%</text><g class="layers" style="opacity: 1;"><g class="legendfill"/><g class="legendlines"><path class="js-line" d="M5,0h30" style="fill: none; stroke: rgb(230, 172, 33); stroke-opacity: 1; stroke-width: 7px;"/></g><g class="legendsymbols"><g class="legendpoints"/></g></g><rect class="legendtoggle" x="0" y="-9.5" width="125.359375" height="19" style="fill: rgb(0, 0, 0); fill-opacity: 0;"/></g><g class="traces" transform="translate(0,166.5)" style="opacity: 1;"><text class="legendtext" text-anchor="start" x="40" y="4.680000000000001" style="font-family: 'Open Sans', verdana, arial, sans-serif; font-size: 12px; fill: rgb(42, 63, 95); fill-opacity: 1; white-space: pre;">KSM: 3%</text><g class="layers" style="opacity: 1;"><g class="legendfill"/><g class="legendlines"><path class="js-line" d="M5,0h30" style="fill: none; stroke: rgb(140, 0, 0); stroke-opacity: 1; stroke-width: 7px;"/></g><g class="legendsymbols"><g class="legendpoints"/></g></g><rect class="legendtoggle" x="0" y="-9.5" width="125.359375" height="19" style="fill: rgb(0, 0, 0); fill-opacity: 0;"/></g><g class="traces" transform="translate(0,185.5)" style="opacity: 1;"><text class="legendtext" text-anchor="start" x="40" y="4.680000000000001" style="font-family: 'Open Sans', verdana, arial, sans-serif; font-size: 12px; fill: rgb(42, 63, 95); fill-opacity: 1; white-space: pre;">Psaha: 2%</text><g class="layers" style="opacity: 1;"><g class="legendfill"/><g class="legendlines"><path class="js-line" d="M5,0h30" style="fill: none; stroke: rgb(0, 51, 255); stroke-opacity: 1; stroke-width: 7px;"/></g><g class="legendsymbols"><g class="legendpoints"/></g></g><rect class="legendtoggle" x="0" y="-9.5" width="125.359375" height="19" style="fill: rgb(0, 0, 0); fill-opacity: 0;"/></g></g></g><rect class="scrollbar" rx="20" ry="3" width="0" height="0" x="0" y="0" style="fill: rgb(128, 139, 164); fill-opacity: 1;"/></g><g class="g-gtitle"/><g class="g-xtitle"/><g class="g-ytitle"/></g></svg>