<svg class="main-svg" xmlns="http://www.w3.org/2000/svg" xmlns:xlink="http://www.w3.org/1999/xlink" width="1200" height="600" style="" viewBox="0 0 1200 600"><rect x="0" y="0" width="1200" height="600" style="fill: rgb(255, 255, 255); fill-opacity: 1;"/><defs id="defs-48e4e8"><g class="clips"><clipPath id="clip48e4e8xyplot" class="plotclip"><rect width="987" height="530"/></clipPath><clipPath class="axesclip" id="clip48e4e8x"><rect x="50" y="0" width="987" height="600"/></clipPath><clipPath class="axesclip" id="clip48e4e8y"><rect x="0" y="20" width="1200" height="530"/></clipPath><clipPath class="axesclip" id="clip48e4e8xy"><rect x="50" y="20" width="987" height="530"/></clipPath></g><g class="gradients"/><g class="patterns"/></defs><g class="bglayer"/><g class="layer-below"><g class="imagelayer"/><g class="shapelayer"/></g><g class="cartesianlayer"><g class="subplot xy"><g class="layer-subplot"><g class="shapelayer"/><g class="imagelayer"/></g><g class="gridlayer"><g class="x"><path class="xgrid crisp" transform="translate(107.06,0)" d="M0,20v530" style="stroke: rgb(235, 240, 248); stroke-opacity: 1; stroke-width: 1px;"/><path class="xgrid crisp" transform="translate(230.01,0)" d="M0,20v530" style="stroke: rgb(235, 240, 248); stroke-opacity: 1; stroke-width: 1px;"/><path class="xgrid crisp" transform="translate(355,0)" d="M0,20v530" style="stroke: rgb(235, 240, 248); stroke-opacity: 1; stroke-width: 1px;"/><path class="xgrid crisp" transform="translate(477.95,0)" d="M0,20v530" style="stroke: rgb(235, 240, 248); stroke-opacity: 1; stroke-width: 1px;"/><path class="xgrid crisp" transform="translate(602.94,0)" d="M0,20v530" style="stroke: rgb(235, 240, 248); stroke-opacity: 1; stroke-width: 1px;"/><path class="xgrid crisp" transform="translate(726.57,0)" d="M0,20v530" style="stroke: rgb(235, 240, 248); stroke-opacity: 1; stroke-width: 1px;"/><path class="xgrid crisp" transform="translate(851.56,0)" d="M0,20v530" style="stroke: rgb(235, 240, 248); stroke-opacity: 1; stroke-width: 1px;"/><path class="xgrid crisp" transform="translate(974.51,0)" d="M0,20v530" style="stroke: rgb(235, 240, 248); stroke-opacity: 1; stroke-width: 1px;"/></g><g class="y"><path class="ygrid crisp" transform="translate(0,478.95)" d="M50,0h987" style="stroke: rgb(235, 240, 248); stroke-opacity: 1; stroke-width: 1px;"/><path class="ygrid crisp" transform="translate(0,407.89)" d="M50,0h987" style="stroke: rgb(235, 240, 248); stroke-opacity: 1; stroke-width: 1px;"/><path class="ygrid crisp" transform="translate(0,336.84)" d="M50,0h987" style="stroke: rgb(235, 240, 248); stroke-opacity: 1; stroke-width: 1px;"/><path class="ygrid crisp" transform="translate(0,265.78)" d="M50,0h987" style="stroke: rgb(235, 240, 248); stroke-opacity: 1; stroke-width: 1px;"/><path class="ygrid crisp" transform="translate(0,194.73)" d="M50,0h987" style="stroke: rgb(235, 240, 248); stroke-opacity: 1; stroke-width: 1px;"/><path class="ygrid crisp" transform="translate(0,123.67)" d="M50,0h987" style="stroke: rgb(235, 240, 248); stroke-opacity: 1; stroke-width: 1px;"/><path class="ygrid crisp" transform="translate(0,52.62)" d="M50,0h987" style="stroke: rgb(235, 240, 248); stroke-opacity: 1; stroke-width: 1px;"/></g></g><g class="zerolinelayer"><path class="yzl zl crisp" transform="translate(0,550)" d="M50,0h987" style="stroke: rgb(235, 240, 248); stroke-opacity: 1; stroke-width: 2px;"/></g><path class="xlines-below"/><path class="ylines-below"/><g class="overlines-below"/><g class="xaxislayer-below"/><g class="yaxislayer-below"/><g class="overaxes-below"/><g class="plot" transform="translate(50,20)" clip-path="url(#clip48e4e8xyplot)"><g class="scatterlayer mlayer"><g class="trace scatter tracee80b07" style="stroke-miterlimit: 2; opacity: 1;"><g class="fills"><g><path class="js-fill" d="M0,69.6Q12.41,71.04 21.74,72.28C38.66,74.54 77.35,86.38 93.06,82.5C102.03,80.29 105.65,72.38 112.08,68.74C117.89,65.45 123.73,63.98 129.74,61.2C136.17,58.23 145.12,53.6 149.44,51.37C151.58,50.26 152.22,49.76 154.2,48.82C157.3,47.34 161.66,46.09 166.42,43.71C173.67,40.09 185.54,30.3 192.92,28.15C197.57,26.79 201.12,27.82 205.14,27.71C209.04,27.6 213.26,27.53 216.69,27.48C219.45,27.44 224.16,27.54 224.16,27.43C224.16,27.28 214.59,23.4 211.26,26.5C199.77,37.19 199.77,167.78 211.26,180.13C214.59,183.71 224.16,180.91 224.16,181.06C224.16,181.17 219.45,181.07 216.69,181.11C213.26,181.16 209.04,181.23 205.14,181.34C201.12,181.45 197.57,180.42 192.92,181.78C185.54,183.93 173.67,193.72 166.42,197.34C161.66,199.72 157.36,202.19 154.2,202.45C152.28,202.61 151.51,201.1 149.44,201.34C145.05,201.86 136.27,208.87 129.74,211.18C123.82,213.27 117.7,212.13 112.08,215.05C105.36,218.53 102.32,229.86 93.06,232.47C77.52,236.85 38.71,219.84 21.74,218.59Q12.45,217.91 0,219.58Z" style="fill: rgb(38, 16, 96); fill-opacity: 0.05; stroke-width: 0;"/></g></g><g class="errorbars"/><g class="lines"><path class="js-line" d="M0,69.6Q12.41,71.04 21.74,72.28C38.66,74.54 77.35,86.38 93.06,82.5C102.03,80.29 105.65,72.38 112.08,68.74C117.89,65.45 123.73,63.98 129.74,61.2C136.17,58.23 145.12,53.6 149.44,51.37C151.58,50.26 152.22,49.76 154.2,48.82C157.3,47.34 161.66,46.09 166.42,43.71C173.67,40.09 185.54,30.3 192.92,28.15C197.57,26.79 201.12,27.82 205.14,27.71C209.04,27.6 213.26,27.53 216.69,27.48C219.45,27.44 224.16,27.54 224.16,27.43C224.16,27.28 214.59,23.4 211.26,26.5C199.77,37.19 199.77,167.78 211.26,180.13C214.59,183.71 224.16,180.91 224.16,181.06C224.16,181.17 219.45,181.07 216.69,181.11C213.26,181.16 209.04,181.23 205.14,181.34C201.12,181.45 197.57,180.42 192.92,181.78C185.54,183.93 173.67,193.72 166.42,197.34C161.66,199.72 157.36,202.19 154.2,202.45C152.28,202.61 151.51,201.1 149.44,201.34C145.05,201.86 136.27,208.87 129.74,211.18C123.82,213.27 117.7,212.13 112.08,215.05C105.36,218.53 102.32,229.86 93.06,232.47C77.52,236.85 38.71,219.84 21.74,218.59Q12.45,217.91 0,219.58" style="vector-effect: non-scaling-stroke; fill: none; stroke: rgb(255, 255, 255); stroke-opacity: 0; stroke-width: 2px; opacity: 1;"/></g><g class="points"/><g class="text"/></g><g class="trace scatter tracee72ab6" style="stroke-miterlimit: 2; opacity: 1;"><g class="fills"><g><path class="js-fill" d="M0,270.68Q13.09,262 21.74,253C39.56,234.44 75.75,174.06 93.06,157.69C100.64,150.52 105.56,146.78 112.08,145.05C117.82,143.53 124.51,142.8 129.74,146.25C137.92,151.64 144.53,179.04 149.44,184.79C151.25,186.91 152.47,186.35 154.2,188.26C157.7,192.12 160.81,202.57 166.42,209.1C173.09,216.87 185.38,227.27 192.92,230.65C197.46,232.68 201.16,232.89 205.14,232.61C209.08,232.34 213.49,228.15 216.69,229.06C219.79,229.94 224.76,236.6 224.16,237.56C223.51,238.6 214.5,231.55 211.26,234.02C201.39,241.55 201.39,345.44 211.26,358.39C214.5,362.64 223.51,362.97 224.16,361.93C224.76,360.97 219.79,354.31 216.69,353.43C213.49,352.52 209.08,356.7 205.14,356.97C201.16,357.25 197.54,356.84 192.92,355.02C185.5,352.09 173.15,343.69 166.42,337.13C160.96,331.8 157.77,321.7 154.2,319.95C152.5,319.12 151.2,321.12 149.44,320.14C144.33,317.29 137.68,290.26 129.74,285.25C124.46,281.92 117.93,282.94 112.08,284.05C105.7,285.25 100.68,287.31 93.06,293.03C75.83,305.97 39.48,358.47 21.74,373.71Q13.04,381.18 0,387.73Z" style="fill: rgb(0, 68, 148); fill-opacity: 0.05; stroke-width: 0;"/></g></g><g class="errorbars"/><g class="lines"><path class="js-line" d="M0,270.68Q13.09,262 21.74,253C39.56,234.44 75.75,174.06 93.06,157.69C100.64,150.52 105.56,146.78 112.08,145.05C117.82,143.53 124.51,142.8 129.74,146.25C137.92,151.64 144.53,179.04 149.44,184.79C151.25,186.91 152.47,186.35 154.2,188.26C157.7,192.12 160.81,202.57 166.42,209.1C173.09,216.87 185.38,227.27 192.92,230.65C197.46,232.68 201.16,232.89 205.14,232.61C209.08,232.34 213.49,228.15 216.69,229.06C219.79,229.94 224.76,236.6 224.16,237.56C223.51,238.6 214.5,231.55 211.26,234.02C201.39,241.55 201.39,345.44 211.26,358.39C214.5,362.64 223.51,362.97 224.16,361.93C224.76,360.97 219.79,354.31 216.69,353.43C213.49,352.52 209.08,356.7 205.14,356.97C201.16,357.25 197.54,356.84 192.92,355.02C185.5,352.09 173.15,343.69 166.42,337.13C160.96,331.8 157.77,321.7 154.2,319.95C152.5,319.12 151.2,321.12 149.44,320.14C144.33,317.29 137.68,290.26 129.74,285.25C124.46,281.92 117.93,282.94 112.08,284.05C105.7,285.25 100.68,287.31 93.06,293.03C75.83,305.97 39.48,358.47 21.74,373.71Q13.04,381.18 0,387.73" style="vector-effect: non-scaling-stroke; fill: none; stroke: rgb(255, 255, 255); stroke-opacity: 0; stroke-width: 2px; opacity: 1;"/></g><g class="points"/><g class="text"/></g><g class="trace scatter tracecae7d6" style="stroke-miterlimit: 2; opacity: 1;"><g class="fills"><g><path class="js-fill" d="M0,344.43Q12.56,345.8 21.74,344.25C38.82,341.37 76.95,319.48 93.06,320.14C101.51,320.49 105.85,328.34 112.08,328.36C118.07,328.38 123.7,323.45 129.74,320.85C136.13,318.1 145.06,312.77 149.44,312.28C151.52,312.05 152.35,313.6 154.2,313.19C157.46,312.47 161.3,306.86 166.42,304.37C173.34,301 185.74,298.32 192.92,296.7C197.73,295.62 201.12,294.83 205.14,294.72C209.04,294.61 213.45,297 216.69,295.94C219.71,294.95 224.55,289.83 224.16,289.16C223.71,288.38 214.46,288.86 211.26,293.21C202,305.82 202,399.8 211.26,406.6C214.46,408.95 224.1,402.38 224.16,402.55C224.21,402.68 219.5,404.8 216.69,405.67C213.3,406.73 209.06,407.97 205.14,408.11C201.14,408.25 197.73,406.08 192.92,406.43C185.73,406.95 173.51,411.6 166.42,414.11C161.51,415.85 157.37,418.93 154.2,419.27C152.28,419.47 151.56,418.3 149.44,418.36C145.1,418.48 136.05,421.16 129.74,423.27C123.61,425.32 118.16,430.27 112.08,430.78C105.94,431.29 101.42,426.24 93.06,426.22C76.87,426.19 38.74,440.97 21.74,443.02Q12.48,444.13 0,443.2Z" style="fill: rgb(234, 35, 41); fill-opacity: 0.05; stroke-width: 0;"/></g></g><g class="errorbars"/><g class="lines"><path class="js-line" d="M0,344.43Q12.56,345.8 21.74,344.25C38.82,341.37 76.95,319.48 93.06,320.14C101.51,320.49 105.85,328.34 112.08,328.36C118.07,328.38 123.7,323.45 129.74,320.85C136.13,318.1 145.06,312.77 149.44,312.28C151.52,312.05 152.35,313.6 154.2,313.19C157.46,312.47 161.3,306.86 166.42,304.37C173.34,301 185.74,298.32 192.92,296.7C197.73,295.62 201.12,294.83 205.14,294.72C209.04,294.61 213.45,297 216.69,295.94C219.71,294.95 224.55,289.83 224.16,289.16C223.71,288.38 214.46,288.86 211.26,293.21C202,305.82 202,399.8 211.26,406.6C214.46,408.95 224.1,402.38 224.16,402.55C224.21,402.68 219.5,404.8 216.69,405.67C213.3,406.73 209.06,407.97 205.14,408.11C201.14,408.25 197.73,406.08 192.92,406.43C185.73,406.95 173.51,411.6 166.42,414.11C161.51,415.85 157.37,418.93 154.2,419.27C152.28,419.47 151.56,418.3 149.44,418.36C145.1,418.48 136.05,421.16 129.74,423.27C123.61,425.32 118.16,430.27 112.08,430.78C105.94,431.29 101.42,426.24 93.06,426.22C76.87,426.19 38.74,440.97 21.74,443.02Q12.48,444.13 0,443.2" style="vector-effect: non-scaling-stroke; fill: none; stroke: rgb(255, 255, 255); stroke-opacity: 0; stroke-width: 2px; opacity: 1;"/></g><g class="points"/><g class="text"/></g><g class="trace scatter trace1df363" style="stroke-miterlimit: 2; opacity: 1;"><g class="fills"><g><path class="js-fill" d="M0,351.97Q12.11,359.75 21.74,363.33C38.39,369.51 76.8,378.55 93.06,379.97C101.35,380.7 105.92,378.18 112.08,378.93C118.14,379.67 124.26,386.13 129.74,384.36C137.03,382.01 144.93,363.16 149.44,358.3C151.43,356.16 152.31,355.97 154.2,354.1C157.4,350.92 160.9,343.6 166.42,340.5C173.12,336.73 185.77,335.64 192.92,335.51C197.76,335.42 201.19,336.22 205.14,337.34C209.12,338.47 213.19,341.77 216.69,342.31C219.39,342.73 224.11,342.09 224.16,341.56C224.22,340.85 214.4,335.55 211.26,337.93C202.73,344.39 202.73,425.42 211.26,436.69C214.4,440.84 224.22,439.62 224.16,440.33C224.11,440.86 219.45,441.1 216.69,441.08C213.26,441.06 209.04,440.27 205.14,439.76C201.12,439.23 197.79,438.18 192.92,437.94C185.79,437.59 173.25,436.65 166.42,439.27C161.16,441.29 157.31,446.57 154.2,449.21C152.23,450.88 151.61,451.63 149.44,453.41C145.15,456.94 136.52,466.56 129.74,468.49C124.01,470.12 118.08,466.86 112.08,466.72C105.86,466.58 101.4,468.07 93.06,467.76C76.85,467.15 38.34,463.68 21.74,458.44Q12.05,455.38 0,447.08Z" style="fill: rgb(0, 0, 0); fill-opacity: 0.05; stroke-width: 0;"/></g></g><g class="errorbars"/><g class="lines"><path class="js-line" d="M0,351.97Q12.11,359.75 21.74,363.33C38.39,369.51 76.8,378.55 93.06,379.97C101.35,380.7 105.92,378.18 112.08,378.93C118.14,379.67 124.26,386.13 129.74,384.36C137.03,382.01 144.93,363.16 149.44,358.3C151.43,356.16 152.31,355.97 154.2,354.1C157.4,350.92 160.9,343.6 166.42,340.5C173.12,336.73 185.77,335.64 192.92,335.51C197.76,335.42 201.19,336.22 205.14,337.34C209.12,338.47 213.19,341.77 216.69,342.31C219.39,342.73 224.11,342.09 224.16,341.56C224.22,340.85 214.4,335.55 211.26,337.93C202.73,344.39 202.73,425.42 211.26,436.69C214.4,440.84 224.22,439.62 224.16,440.33C224.11,440.86 219.45,441.1 216.69,441.08C213.26,441.06 209.04,440.27 205.14,439.76C201.12,439.23 197.79,438.18 192.92,437.94C185.79,437.59 173.25,436.65 166.42,439.27C161.16,441.29 157.31,446.57 154.2,449.21C152.23,450.88 151.61,451.63 149.44,453.41C145.15,456.94 136.52,466.56 129.74,468.49C124.01,470.12 118.08,466.86 112.08,466.72C105.86,466.58 101.4,468.07 93.06,467.76C76.85,467.15 38.34,463.68 21.74,458.44Q12.05,455.38 0,447.08" style="vector-effect: non-scaling-stroke; fill: none; stroke: rgb(255, 255, 255); stroke-opacity: 0; stroke-width: 2px; opacity: 1;"/></g><g class="points"/><g class="text"/></g><g class="trace scatter tracecfe6c9" style="stroke-miterlimit: 2; opacity: 1;"><g class="fills"><g><path class="js-fill" d="M0,371.56Q7.76,323.38 21.74,316.03C37.24,307.89 77.22,326.09 93.06,332.74C101.84,336.43 105.87,340.8 112.08,344.8C118.09,348.68 123.95,351.59 129.74,356.38C136.44,361.93 145.33,371.05 149.44,376.77C151.92,380.23 151.98,382.75 154.2,385.97C157.15,390.26 161.05,395.69 166.42,399.65C173.19,404.64 185.74,408.72 192.92,411.73C197.74,413.75 201.09,416.24 205.14,416.42C209.02,416.59 213.27,413 216.69,413.1C219.46,413.18 224.24,415.31 224.16,415.73C224.05,416.27 214.31,412.2 211.26,415.11C203.82,422.2 203.82,484.13 211.26,491.93C214.31,495.13 224.06,493.08 224.16,492.54C224.24,492.12 219.5,490.44 216.69,489.92C213.3,489.29 209.04,489.8 205.14,489.58C201.12,489.35 197.71,489.49 192.92,488.54C185.71,487.11 173.3,483.85 166.42,480.12C161.24,477.31 157.45,472.01 154.2,470.1C152.35,469.01 151.44,469.42 149.44,468.22C144.95,465.53 136.43,455.71 129.74,451.49C123.95,447.83 118.08,446.23 112.08,443.56C105.86,440.79 101.63,437.8 93.06,435.16C77.06,430.24 37.34,414.56 21.74,422.11Q9.27,428.14 0,463.01Z" style="fill: rgb(93, 140, 0); fill-opacity: 0.05; stroke-width: 0;"/></g></g><g class="errorbars"/><g class="lines"><path class="js-line" d="M0,371.56Q7.76,323.38 21.74,316.03C37.24,307.89 77.22,326.09 93.06,332.74C101.84,336.43 105.87,340.8 112.08,344.8C118.09,348.68 123.95,351.59 129.74,356.38C136.44,361.93 145.33,371.05 149.44,376.77C151.92,380.23 151.98,382.75 154.2,385.97C157.15,390.26 161.05,395.69 166.42,399.65C173.19,404.64 185.74,408.72 192.92,411.73C197.74,413.75 201.09,416.24 205.14,416.42C209.02,416.59 213.27,413 216.69,413.1C219.46,413.18 224.24,415.31 224.16,415.73C224.05,416.27 214.31,412.2 211.26,415.11C203.82,422.2 203.82,484.13 211.26,491.93C214.31,495.13 224.06,493.08 224.16,492.54C224.24,492.12 219.5,490.44 216.69,489.92C213.3,489.29 209.04,489.8 205.14,489.58C201.12,489.35 197.71,489.49 192.92,488.54C185.71,487.11 173.3,483.85 166.42,480.12C161.24,477.31 157.45,472.01 154.2,470.1C152.35,469.01 151.44,469.42 149.44,468.22C144.95,465.53 136.43,455.71 129.74,451.49C123.95,447.83 118.08,446.23 112.08,443.56C105.86,440.79 101.63,437.8 93.06,435.16C77.06,430.24 37.34,414.56 21.74,422.11Q9.27,428.14 0,463.01" style="vector-effect: non-scaling-stroke; fill: none; stroke: rgb(255, 255, 255); stroke-opacity: 0; stroke-width: 2px; opacity: 1;"/></g><g class="points"/><g class="text"/></g><g class="trace scatter trace3a4ff9" style="stroke-miterlimit: 2; opacity: 1;"><g class="fills"><g><path class="js-fill" d="M0,386.23Q12.52,386.3 21.74,388.04C38.77,391.26 77.46,400.6 93.06,409.36C102.21,414.5 105.7,421.42 112.08,426.47C117.93,431.1 123.47,437.94 129.74,438.73C135.94,439.51 145.07,432 149.44,431.39C151.52,431.1 152.27,431.97 154.2,431.76C157.36,431.42 161.51,428.98 166.42,428.06C173.51,426.74 185.77,426.5 192.92,426.06C197.77,425.76 201.13,425.27 205.14,425.48C209.05,425.68 213.26,426.75 216.69,427.23C219.45,427.62 224.15,427.76 224.16,428.2C224.17,428.78 214.26,426.96 211.26,430.55C204.36,438.82 204.36,494.29 211.26,500.05C214.26,502.55 224.08,497.39 224.16,497.7C224.22,497.94 219.49,500.12 216.69,500.39C213.29,500.72 209.03,499.42 205.14,498.64C201.1,497.83 197.81,495.98 192.92,495.56C185.81,494.95 173.51,496.24 166.42,497.56C161.51,498.48 157.36,500.92 154.2,501.26C152.27,501.47 151.56,500.78 149.44,500.89C145.1,501.12 135.99,505.42 129.74,504.58C123.55,503.74 118.06,498.97 112.08,495.97C105.84,492.84 101.71,489.19 93.06,486.18C77.12,480.64 38.7,474.53 21.74,472.17Q12.45,470.87 0,470.36Z" style="fill: rgb(114, 55, 105); fill-opacity: 0.05; stroke-width: 0;"/></g></g><g class="errorbars"/><g class="lines"><path class="js-line" d="M0,386.23Q12.52,386.3 21.74,388.04C38.77,391.26 77.46,400.6 93.06,409.36C102.21,414.5 105.7,421.42 112.08,426.47C117.93,431.1 123.47,437.94 129.74,438.73C135.94,439.51 145.07,432 149.44,431.39C151.52,431.1 152.27,431.97 154.2,431.76C157.36,431.42 161.51,428.98 166.42,428.06C173.51,426.74 185.77,426.5 192.92,426.06C197.77,425.76 201.13,425.27 205.14,425.48C209.05,425.68 213.26,426.75 216.69,427.23C219.45,427.62 224.15,427.76 224.16,428.2C224.17,428.78 214.26,426.96 211.26,430.55C204.36,438.82 204.36,494.29 211.26,500.05C214.26,502.55 224.08,497.39 224.16,497.7C224.22,497.94 219.49,500.12 216.69,500.39C213.29,500.72 209.03,499.42 205.14,498.64C201.1,497.83 197.81,495.98 192.92,495.56C185.81,494.95 173.51,496.24 166.42,497.56C161.51,498.48 157.36,500.92 154.2,501.26C152.27,501.47 151.56,500.78 149.44,500.89C145.1,501.12 135.99,505.42 129.74,504.58C123.55,503.74 118.06,498.97 112.08,495.97C105.84,492.84 101.71,489.19 93.06,486.18C77.12,480.64 38.7,474.53 21.74,472.17Q12.45,470.87 0,470.36" style="vector-effect: non-scaling-stroke; fill: none; stroke: rgb(255, 255, 255); stroke-opacity: 0; stroke-width: 2px; opacity: 1;"/></g><g class="points"/><g class="text"/></g><g class="trace scatter trace9c3688" style="stroke-miterlimit: 2; opacity: 1;"><g class="fills"><g><path class="js-fill" d="M0,429.36Q12.43,432.52 21.74,435.15C38.68,439.93 76.75,453.95 93.06,456.4C101.31,457.64 106,457.9 112.08,456.57C118.24,455.22 124.07,452.38 129.74,448.25C136.63,443.24 144.78,428.83 149.44,427.22C151.35,426.56 152.27,428.12 154.2,427.95C157.36,427.66 161.51,424.13 166.42,423.73C173.51,423.16 185.76,427.33 192.92,428.31C197.76,428.97 201.25,428.3 205.14,429.54C209.19,430.83 213.15,435.28 216.69,436.09C219.35,436.7 224.1,436.1 224.16,435.58C224.24,434.88 214.24,429.36 211.26,431.56C204.49,436.54 204.49,491.86 211.26,501.06C214.24,505.12 224.09,505.26 224.16,505.08C224.21,504.94 219.49,502.86 216.69,501.93C213.3,500.8 209.07,499.73 205.14,499.04C201.15,498.34 197.78,498.14 192.92,497.81C185.78,497.33 173.56,496.85 166.42,496.89C161.57,496.92 157.24,496.51 154.2,497.45C152.14,498.08 151.6,499.17 149.44,500.38C145.14,502.79 136.26,507.95 129.74,510.44C123.82,512.7 118.13,514.33 112.08,515.09C105.91,515.86 101.39,515.56 93.06,514.93C76.84,513.7 38.58,508.09 21.74,504.65Q12.33,502.73 0,498.86Z" style="fill: rgb(240, 125, 0); fill-opacity: 0.05; stroke-width: 0;"/></g></g><g class="errorbars"/><g class="lines"><path class="js-line" d="M0,429.36Q12.43,432.52 21.74,435.15C38.68,439.93 76.75,453.95 93.06,456.4C101.31,457.64 106,457.9 112.08,456.57C118.24,455.22 124.07,452.38 129.74,448.25C136.63,443.24 144.78,428.83 149.44,427.22C151.35,426.56 152.27,428.12 154.2,427.95C157.36,427.66 161.51,424.13 166.42,423.73C173.51,423.16 185.76,427.33 192.92,428.31C197.76,428.97 201.25,428.3 205.14,429.54C209.19,430.83 213.15,435.28 216.69,436.09C219.35,436.7 224.1,436.1 224.16,435.58C224.24,434.88 214.24,429.36 211.26,431.56C204.49,436.54 204.49,491.86 211.26,501.06C214.24,505.12 224.09,505.26 224.16,505.08C224.21,504.94 219.49,502.86 216.69,501.93C213.3,500.8 209.07,499.73 205.14,499.04C201.15,498.34 197.78,498.14 192.92,497.81C185.78,497.33 173.56,496.85 166.42,496.89C161.57,496.92 157.24,496.51 154.2,497.45C152.14,498.08 151.6,499.17 149.44,500.38C145.14,502.79 136.26,507.95 129.74,510.44C123.82,512.7 118.13,514.33 112.08,515.09C105.91,515.86 101.39,515.56 93.06,514.93C76.84,513.7 38.58,508.09 21.74,504.65Q12.33,502.73 0,498.86" style="vector-effect: non-scaling-stroke; fill: none; stroke: rgb(255, 255, 255); stroke-opacity: 0; stroke-width: 2px; opacity: 1;"/></g><g class="points"/><g class="text"/></g><g class="trace scatter trace3443af" style="stroke-miterlimit: 2; opacity: 1;"><g class="fills"><g><path class="js-fill" d="M0,403.32Q10.57,426.64 21.74,431.46C37.6,438.3 77.03,422.31 93.06,424.37C101.59,425.47 105.78,429.7 112.08,431.41C118,433.02 123.67,433.74 129.74,434.53C136.11,435.36 145.12,436.45 149.44,436.21C151.58,436.09 152.24,435.36 154.2,435.27C157.32,435.13 161.56,436.16 166.42,436.55C173.56,437.13 185.86,436.57 192.92,438.05C197.87,439.09 201.09,442.35 205.14,442.6C209.01,442.84 213.27,440.79 216.69,439.86C219.46,439.11 224.12,437.46 224.16,437.57C224.21,437.71 214.18,438.35 211.26,442.64C205.07,451.72 204.8,499.03 211.26,504.82C214.21,507.47 224.09,503.06 224.16,503.41C224.22,503.68 219.48,505.4 216.69,505.71C213.29,506.08 209.04,505.09 205.14,504.79C201.12,504.48 197.77,504.21 192.92,503.89C185.78,503.43 173.54,501.92 166.42,502.4C161.54,502.73 157.26,505.28 154.2,504.77C152.17,504.43 151.67,502.75 149.44,502.05C145.2,500.73 136.13,500.54 129.74,500.37C123.7,500.21 117.98,501.87 112.08,500.91C105.76,499.88 101.59,494.97 93.06,493.87C77.03,491.81 38.04,505.73 21.74,500.96Q11.61,498 0,483.8Z" style="fill: rgb(230, 172, 33); fill-opacity: 0.05; stroke-width: 0;"/></g></g><g class="errorbars"/><g class="lines"><path class="js-line" d="M0,403.32Q10.57,426.64 21.74,431.46C37.6,438.3 77.03,422.31 93.06,424.37C101.59,425.47 105.78,429.7 112.08,431.41C118,433.02 123.67,433.74 129.74,434.53C136.11,435.36 145.12,436.45 149.44,436.21C151.58,436.09 152.24,435.36 154.2,435.27C157.32,435.13 161.56,436.16 166.42,436.55C173.56,437.13 185.86,436.57 192.92,438.05C197.87,439.09 201.09,442.35 205.14,442.6C209.01,442.84 213.27,440.79 216.69,439.86C219.46,439.11 224.12,437.46 224.16,437.57C224.21,437.71 214.18,438.35 211.26,442.64C205.07,451.72 204.8,499.03 211.26,504.82C214.21,507.47 224.09,503.06 224.16,503.41C224.22,503.68 219.48,505.4 216.69,505.71C213.29,506.08 209.04,505.09 205.14,504.79C201.12,504.48 197.77,504.21 192.92,503.89C185.78,503.43 173.54,501.92 166.42,502.4C161.54,502.73 157.26,505.28 154.2,504.77C152.17,504.43 151.67,502.75 149.44,502.05C145.2,500.73 136.13,500.54 129.74,500.37C123.7,500.21 117.98,501.87 112.08,500.91C105.76,499.88 101.59,494.97 93.06,493.87C77.03,491.81 38.04,505.73 21.74,500.96Q11.61,498 0,483.8" style="vector-effect: non-scaling-stroke; fill: none; stroke: rgb(255, 255, 255); stroke-opacity: 0; stroke-width: 2px; opacity: 1;"/></g><g class="points"/><g class="text"/></g><g class="trace scatter trace821a23" style="stroke-miterlimit: 2; opacity: 1;"><g class="fills"><g><path class="js-fill" d="M0,438.61Q11.53,452.82 21.74,456.49C38,462.34 76.89,457.74 93.06,456.64C101.45,456.07 105.88,453.73 112.08,454.01C118.1,454.28 123.76,456.29 129.74,458.12C136.19,460.09 145.09,465.41 149.44,465.65C151.54,465.76 152.23,464.65 154.2,464.4C157.31,464 161.63,465.17 166.42,464.45C173.63,463.36 185.72,457.69 192.92,456.12C197.72,455.07 201.12,454.74 205.14,454.58C209.04,454.42 213.31,455.67 216.69,455.1C219.51,454.63 224.23,452.34 224.16,452.13C224.07,451.86 214.17,451.48 211.26,455.16C205.14,462.89 205.14,508.84 211.26,513.69C214.17,516 224.07,510.38 224.16,510.65C224.23,510.86 219.51,513.14 216.69,513.62C213.31,514.19 209.04,512.95 205.14,513.11C201.12,513.27 197.76,513.92 192.92,514.65C185.76,515.73 173.59,518.71 166.42,519.32C161.59,519.73 157.27,520.01 154.2,519.27C152.17,518.78 151.65,517.4 149.44,516.86C145.19,515.82 136.09,517.4 129.74,516.64C123.65,515.91 118.1,512.81 112.08,512.54C105.88,512.26 101.45,514.6 93.06,515.17C76.89,516.26 38.36,518.85 21.74,515.01Q12.07,512.78 0,504.46Z" style="fill: rgb(0, 51, 255); fill-opacity: 0.05; stroke-width: 0;"/></g></g><g class="errorbars"/><g class="lines"><path class="js-line" d="M0,438.61Q11.53,452.82 21.74,456.49C38,462.34 76.89,457.74 93.06,456.64C101.45,456.07 105.88,453.73 112.08,454.01C118.1,454.28 123.76,456.29 129.74,458.12C136.19,460.09 145.09,465.41 149.44,465.65C151.54,465.76 152.23,464.65 154.2,464.4C157.31,464 161.63,465.17 166.42,464.45C173.63,463.36 185.72,457.69 192.92,456.12C197.72,455.07 201.12,454.74 205.14,454.58C209.04,454.42 213.31,455.67 216.69,455.1C219.51,454.63 224.23,452.34 224.16,452.13C224.07,451.86 214.17,451.48 211.26,455.16C205.14,462.89 205.14,508.84 211.26,513.69C214.17,516 224.07,510.38 224.16,510.65C224.23,510.86 219.51,513.14 216.69,513.62C213.31,514.19 209.04,512.95 205.14,513.11C201.12,513.27 197.76,513.92 192.92,514.65C185.76,515.73 173.59,518.71 166.42,519.32C161.59,519.73 157.27,520.01 154.2,519.27C152.17,518.78 151.65,517.4 149.44,516.86C145.19,515.82 136.09,517.4 129.74,516.64C123.65,515.91 118.1,512.81 112.08,512.54C105.88,512.26 101.45,514.6 93.06,515.17C76.89,516.26 38.36,518.85 21.74,515.01Q12.07,512.78 0,504.46" style="vector-effect: non-scaling-stroke; fill: none; stroke: rgb(255, 255, 255); stroke-opacity: 0; stroke-width: 2px; opacity: 1;"/></g><g class="points"/><g class="text"/></g><g class="trace scatter trace246e6a" style="stroke-miterlimit: 2; opacity: 1;"><g class="fills"><g><path class="js-fill" d="M0,448.85Q12.58,446.34 21.74,447.71C38.84,450.27 76.79,472.99 93.06,473.72C101.34,474.09 105.8,469.47 112.08,468.66C118.02,467.89 123.71,469.22 129.74,468.72C136.15,468.19 145.1,465.74 149.44,465.34C151.56,465.15 152.26,465.52 154.2,465.28C157.35,464.89 161.53,462.9 166.42,462.39C173.53,461.65 185.8,463.59 192.92,463.06C197.79,462.69 201.18,460.5 205.14,460.9C209.1,461.3 213.46,463.24 216.69,465.44C219.73,467.5 224.19,473.41 224.16,473.44C224.12,473.48 213.98,459.11 211.26,460.22C206.57,462.13 205.65,506.36 211.26,515.09C214.11,519.53 224.07,521.17 224.16,520.99C224.23,520.85 219.57,517.55 216.69,516.65C213.36,515.61 209.03,515.57 205.14,515.76C201.11,515.96 197.79,517.56 192.92,517.93C185.8,518.47 173.56,517.58 166.42,517.26C161.57,517.05 157.33,516.57 154.2,516.49C152.25,516.44 151.56,516.36 149.44,516.55C145.1,516.95 136.15,519.4 129.74,519.93C123.71,520.43 118.07,519.66 112.08,519.87C105.85,520.09 101.39,521.63 93.06,521.28C76.84,520.6 38.69,510.8 21.74,509.9Q12.44,509.41 0,511.04Z" style="fill: rgb(140, 0, 0); fill-opacity: 0.05; stroke-width: 0;"/></g></g><g class="errorbars"/><g class="lines"><path class="js-line" d="M0,448.85Q12.58,446.34 21.74,447.71C38.84,450.27 76.79,472.99 93.06,473.72C101.34,474.09 105.8,469.47 112.08,468.66C118.02,467.89 123.71,469.22 129.74,468.72C136.15,468.19 145.1,465.74 149.44,465.34C151.56,465.15 152.26,465.52 154.2,465.28C157.35,464.89 161.53,462.9 166.42,462.39C173.53,461.65 185.8,463.59 192.92,463.06C197.79,462.69 201.18,460.5 205.14,460.9C209.1,461.3 213.46,463.24 216.69,465.44C219.73,467.5 224.19,473.41 224.16,473.44C224.12,473.48 213.98,459.11 211.26,460.22C206.57,462.13 205.65,506.36 211.26,515.09C214.11,519.53 224.07,521.17 224.16,520.99C224.23,520.85 219.57,517.55 216.69,516.65C213.36,515.61 209.03,515.57 205.14,515.76C201.11,515.96 197.79,517.56 192.92,517.93C185.8,518.47 173.56,517.58 166.42,517.26C161.57,517.05 157.33,516.57 154.2,516.49C152.25,516.44 151.56,516.36 149.44,516.55C145.1,516.95 136.15,519.4 129.74,519.93C123.71,520.43 118.07,519.66 112.08,519.87C105.85,520.09 101.39,521.63 93.06,521.28C76.84,520.6 38.69,510.8 21.74,509.9Q12.44,509.41 0,511.04" style="vector-effect: non-scaling-stroke; fill: none; stroke: rgb(255, 255, 255); stroke-opacity: 0; stroke-width: 2px; opacity: 1;"/></g><g class="points"/><g class="text"/></g><g class="trace scatter tracecce0fe" style="stroke-miterlimit: 2; opacity: 1;"><g class="fills"/><g class="errorbars"/><g class="lines"><path class="js-line" d="M0,145.42Q12.44,145.43 21.74,146.4C38.69,148.17 77.43,162.29 93.06,158.13C102.17,155.7 105.56,146.48 112.08,142.63C117.82,139.24 123.71,138.04 129.74,135.53C136.14,132.87 145.07,128.51 149.44,127.08C151.53,126.39 152.29,126.64 154.2,125.97C157.38,124.85 161.59,122.51 166.42,120.1C173.59,116.53 185.65,109.2 192.92,106.4C197.65,104.58 201.09,103.66 205.14,103.18C209.01,102.72 213.26,103.38 216.69,103.42C219.45,103.46 224.16,103.35 224.16,103.46Q224.16,103.6 211.26,104.39" style="vector-effect: non-scaling-stroke; fill: none; stroke: rgb(38, 16, 96); stroke-opacity: 1; stroke-width: 7px; opacity: 1;"/></g><g class="points"/><g class="text"/></g><g class="trace scatter trace167db4" style="stroke-miterlimit: 2; opacity: 1;"><g class="fills"/><g class="errorbars"/><g class="lines"/><g class="points"><path class="point" transform="translate(0,144.88)" d="M7.5,0A7.5,7.5 0 1,1 0,-7.5A7.5,7.5 0 0,1 7.5,0Z" style="opacity: 1; stroke-width: 0px; fill: rgb(38, 16, 96); fill-opacity: 0.25;"/><path class="point" transform="translate(21.74,146.3)" d="M7.5,0A7.5,7.5 0 1,1 0,-7.5A7.5,7.5 0 0,1 7.5,0Z" style="opacity: 1; stroke-width: 0px; fill: rgb(38, 16, 96); fill-opacity: 0.25;"/><path class="point" transform="translate(93.06,174.73)" d="M7.5,0A7.5,7.5 0 1,1 0,-7.5A7.5,7.5 0 0,1 7.5,0Z" style="opacity: 1; stroke-width: 0px; fill: rgb(38, 16, 96); fill-opacity: 0.25;"/><path class="point" transform="translate(112.08,139.2)" d="M7.5,0A7.5,7.5 0 1,1 0,-7.5A7.5,7.5 0 0,1 7.5,0Z" style="opacity: 1; stroke-width: 0px; fill: rgb(38, 16, 96); fill-opacity: 0.25;"/><path class="point" transform="translate(129.74,139.2)" d="M7.5,0A7.5,7.5 0 1,1 0,-7.5A7.5,7.5 0 0,1 7.5,0Z" style="opacity: 1; stroke-width: 0px; fill: rgb(38, 16, 96); fill-opacity: 0.25;"/><path class="point" transform="translate(149.44,124.99)" d="M7.5,0A7.5,7.5 0 1,1 0,-7.5A7.5,7.5 0 0,1 7.5,0Z" style="opacity: 1; stroke-width: 0px; fill: rgb(38, 16, 96); fill-opacity: 0.25;"/><path class="point" transform="translate(154.2,132.09)" d="M7.5,0A7.5,7.5 0 1,1 0,-7.5A7.5,7.5 0 0,1 7.5,0Z" style="opacity: 1; stroke-width: 0px; fill: rgb(38, 16, 96); fill-opacity: 0.25;"/><path class="point" transform="translate(166.42,117.88)" d="M7.5,0A7.5,7.5 0 1,1 0,-7.5A7.5,7.5 0 0,1 7.5,0Z" style="opacity: 1; stroke-width: 0px; fill: rgb(38, 16, 96); fill-opacity: 0.25;"/><path class="point" transform="translate(192.92,103.67)" d="M7.5,0A7.5,7.5 0 1,1 0,-7.5A7.5,7.5 0 0,1 7.5,0Z" style="opacity: 1; stroke-width: 0px; fill: rgb(38, 16, 96); fill-opacity: 0.25;"/><path class="point" transform="translate(205.14,88.04)" d="M7.5,0A7.5,7.5 0 1,1 0,-7.5A7.5,7.5 0 0,1 7.5,0Z" style="opacity: 1; stroke-width: 0px; fill: rgb(38, 16, 96); fill-opacity: 0.25;"/><path class="point" transform="translate(216.69,96.57)" d="M7.5,0A7.5,7.5 0 1,1 0,-7.5A7.5,7.5 0 0,1 7.5,0Z" style="opacity: 1; stroke-width: 0px; fill: rgb(38, 16, 96); fill-opacity: 0.25;"/><path class="point" transform="translate(224.16,103.67)" d="M7.5,0A7.5,7.5 0 1,1 0,-7.5A7.5,7.5 0 0,1 7.5,0Z" style="opacity: 1; stroke-width: 0px; fill: rgb(38, 16, 96); fill-opacity: 0.25;"/><path class="point" transform="translate(211.26,117.88)" d="M7.5,0A7.5,7.5 0 1,1 0,-7.5A7.5,7.5 0 0,1 7.5,0Z" style="opacity: 1; stroke-width: 0px; fill: rgb(38, 16, 96); fill-opacity: 0.25;"/></g><g class="text"/></g><g class="trace scatter trace3cbff7" style="stroke-miterlimit: 2; opacity: 1;"><g class="fills"/><g class="errorbars"/><g class="lines"><path class="js-line" d="M0,328.42Q13.1,321.22 21.74,313.18C39.57,296.59 75.66,239.42 93.06,225.6C100.59,219.61 105.69,218 112.08,216.29C117.92,214.73 124.51,212.14 129.74,215.09C137.9,219.69 144.22,250.03 149.44,253.36C151.18,254.47 152.53,252.58 154.2,253.55C157.87,255.67 160.95,266.67 166.42,272.95C173.14,280.68 185.34,291.92 192.92,295.3C197.44,297.32 201.16,297.35 205.14,297C209.09,296.65 213.4,292.61 216.69,293.23C219.62,293.78 224.49,298.74 224.16,299.36Q223.78,300.09 211.26,295.58" style="vector-effect: non-scaling-stroke; fill: none; stroke: rgb(0, 68, 148); stroke-opacity: 1; stroke-width: 7px; opacity: 1;"/></g><g class="points"/><g class="text"/></g><g class="trace scatter tracec1db93" style="stroke-miterlimit: 2; opacity: 1;"><g class="fills"/><g class="errorbars"/><g class="lines"/><g class="points"><path class="point" transform="translate(0,336.73)" d="M7.5,0A7.5,7.5 0 1,1 0,-7.5A7.5,7.5 0 0,1 7.5,0Z" style="opacity: 1; stroke-width: 0px; fill: rgb(0, 68, 148); fill-opacity: 0.25;"/><path class="point" transform="translate(21.74,309.73)" d="M7.5,0A7.5,7.5 0 1,1 0,-7.5A7.5,7.5 0 0,1 7.5,0Z" style="opacity: 1; stroke-width: 0px; fill: rgb(0, 68, 148); fill-opacity: 0.25;"/><path class="point" transform="translate(93.06,231.57)" d="M7.5,0A7.5,7.5 0 1,1 0,-7.5A7.5,7.5 0 0,1 7.5,0Z" style="opacity: 1; stroke-width: 0px; fill: rgb(0, 68, 148); fill-opacity: 0.25;"/><path class="point" transform="translate(112.08,210.25)" d="M7.5,0A7.5,7.5 0 1,1 0,-7.5A7.5,7.5 0 0,1 7.5,0Z" style="opacity: 1; stroke-width: 0px; fill: rgb(0, 68, 148); fill-opacity: 0.25;"/><path class="point" transform="translate(129.74,160.51)" d="M7.5,0A7.5,7.5 0 1,1 0,-7.5A7.5,7.5 0 0,1 7.5,0Z" style="opacity: 1; stroke-width: 0px; fill: rgb(0, 68, 148); fill-opacity: 0.25;"/><path class="point" transform="translate(149.44,295.52)" d="M7.5,0A7.5,7.5 0 1,1 0,-7.5A7.5,7.5 0 0,1 7.5,0Z" style="opacity: 1; stroke-width: 0px; fill: rgb(0, 68, 148); fill-opacity: 0.25;"/><path class="point" transform="translate(154.2,210.25)" d="M7.5,0A7.5,7.5 0 1,1 0,-7.5A7.5,7.5 0 0,1 7.5,0Z" style="opacity: 1; stroke-width: 0px; fill: rgb(0, 68, 148); fill-opacity: 0.25;"/><path class="point" transform="translate(166.42,301.2)" d="M7.5,0A7.5,7.5 0 1,1 0,-7.5A7.5,7.5 0 0,1 7.5,0Z" style="opacity: 1; stroke-width: 0px; fill: rgb(0, 68, 148); fill-opacity: 0.25;"/><path class="point" transform="translate(192.92,309.73)" d="M7.5,0A7.5,7.5 0 1,1 0,-7.5A7.5,7.5 0 0,1 7.5,0Z" style="opacity: 1; stroke-width: 0px; fill: rgb(0, 68, 148); fill-opacity: 0.25;"/><path class="point" transform="translate(205.14,309.73)" d="M7.5,0A7.5,7.5 0 1,1 0,-7.5A7.5,7.5 0 0,1 7.5,0Z" style="opacity: 1; stroke-width: 0px; fill: rgb(0, 68, 148); fill-opacity: 0.25;"/><path class="point" transform="translate(216.69,252.89)" d="M7.5,0A7.5,7.5 0 1,1 0,-7.5A7.5,7.5 0 0,1 7.5,0Z" style="opacity: 1; stroke-width: 0px; fill: rgb(0, 68, 148); fill-opacity: 0.25;"/><path class="point" transform="translate(224.16,328.2)" d="M7.5,0A7.5,7.5 0 1,1 0,-7.5A7.5,7.5 0 0,1 7.5,0Z" style="opacity: 1; stroke-width: 0px; fill: rgb(0, 68, 148); fill-opacity: 0.25;"/><path class="point" transform="translate(211.26,302.62)" d="M7.5,0A7.5,7.5 0 1,1 0,-7.5A7.5,7.5 0 0,1 7.5,0Z" style="opacity: 1; stroke-width: 0px; fill: rgb(0, 68, 148); fill-opacity: 0.25;"/></g><g class="text"/></g><g class="trace scatter tracec858ca" style="stroke-miterlimit: 2; opacity: 1;"><g class="fills"/><g class="errorbars"/><g class="lines"><path class="js-line" d="M0,393.67Q12.51,395.07 21.74,393.85C38.77,391.6 76.91,373.63 93.06,374.07C101.47,374.3 105.89,380.66 112.08,380.48C118.11,380.3 123.65,375.52 129.74,373.36C136.08,371.11 145.09,368.37 149.44,367.29C151.55,366.77 152.29,367 154.2,366.38C157.38,365.34 161.47,362.39 166.42,360.58C173.47,358.01 185.74,355.05 192.92,353.62C197.74,352.66 201.12,352.43 205.14,351.94C209.04,351.47 213.35,351.78 216.69,350.72C219.56,349.81 224.31,346.91 224.16,346.52Q223.97,346.04 211.26,349.79" style="vector-effect: non-scaling-stroke; fill: none; stroke: rgb(234, 35, 41); stroke-opacity: 1; stroke-width: 7px; opacity: 1;"/></g><g class="points"/><g class="text"/></g><g class="trace scatter tracecfa016" style="stroke-miterlimit: 2; opacity: 1;"><g class="fills"/><g class="errorbars"/><g class="lines"/><g class="points"><path class="point" transform="translate(0,393.57)" d="M7.5,0A7.5,7.5 0 1,1 0,-7.5A7.5,7.5 0 0,1 7.5,0Z" style="opacity: 1; stroke-width: 0px; fill: rgb(234, 35, 41); fill-opacity: 0.25;"/><path class="point" transform="translate(21.74,395)" d="M7.5,0A7.5,7.5 0 1,1 0,-7.5A7.5,7.5 0 0,1 7.5,0Z" style="opacity: 1; stroke-width: 0px; fill: rgb(234, 35, 41); fill-opacity: 0.25;"/><path class="point" transform="translate(93.06,366.57)" d="M7.5,0A7.5,7.5 0 1,1 0,-7.5A7.5,7.5 0 0,1 7.5,0Z" style="opacity: 1; stroke-width: 0px; fill: rgb(234, 35, 41); fill-opacity: 0.25;"/><path class="point" transform="translate(112.08,395)" d="M7.5,0A7.5,7.5 0 1,1 0,-7.5A7.5,7.5 0 0,1 7.5,0Z" style="opacity: 1; stroke-width: 0px; fill: rgb(234, 35, 41); fill-opacity: 0.25;"/><path class="point" transform="translate(129.74,373.68)" d="M7.5,0A7.5,7.5 0 1,1 0,-7.5A7.5,7.5 0 0,1 7.5,0Z" style="opacity: 1; stroke-width: 0px; fill: rgb(234, 35, 41); fill-opacity: 0.25;"/><path class="point" transform="translate(149.44,366.57)" d="M7.5,0A7.5,7.5 0 1,1 0,-7.5A7.5,7.5 0 0,1 7.5,0Z" style="opacity: 1; stroke-width: 0px; fill: rgb(234, 35, 41); fill-opacity: 0.25;"/><path class="point" transform="translate(154.2,373.68)" d="M7.5,0A7.5,7.5 0 1,1 0,-7.5A7.5,7.5 0 0,1 7.5,0Z" style="opacity: 1; stroke-width: 0px; fill: rgb(234, 35, 41); fill-opacity: 0.25;"/><path class="point" transform="translate(166.42,352.36)" d="M7.5,0A7.5,7.5 0 1,1 0,-7.5A7.5,7.5 0 0,1 7.5,0Z" style="opacity: 1; stroke-width: 0px; fill: rgb(234, 35, 41); fill-opacity: 0.25;"/><path class="point" transform="translate(192.92,352.36)" d="M7.5,0A7.5,7.5 0 1,1 0,-7.5A7.5,7.5 0 0,1 7.5,0Z" style="opacity: 1; stroke-width: 0px; fill: rgb(234, 35, 41); fill-opacity: 0.25;"/><path class="point" transform="translate(205.14,360.89)" d="M7.5,0A7.5,7.5 0 1,1 0,-7.5A7.5,7.5 0 0,1 7.5,0Z" style="opacity: 1; stroke-width: 0px; fill: rgb(234, 35, 41); fill-opacity: 0.25;"/><path class="point" transform="translate(216.69,373.68)" d="M7.5,0A7.5,7.5 0 1,1 0,-7.5A7.5,7.5 0 0,1 7.5,0Z" style="opacity: 1; stroke-width: 0px; fill: rgb(234, 35, 41); fill-opacity: 0.25;"/><path class="point" transform="translate(224.16,326.78)" d="M7.5,0A7.5,7.5 0 1,1 0,-7.5A7.5,7.5 0 0,1 7.5,0Z" style="opacity: 1; stroke-width: 0px; fill: rgb(234, 35, 41); fill-opacity: 0.25;"/><path class="point" transform="translate(211.26,331.05)" d="M7.5,0A7.5,7.5 0 1,1 0,-7.5A7.5,7.5 0 0,1 7.5,0Z" style="opacity: 1; stroke-width: 0px; fill: rgb(234, 35, 41); fill-opacity: 0.25;"/></g><g class="text"/></g><g class="trace scatter trace07c87f" style="stroke-miterlimit: 2; opacity: 1;"><g class="fills"/><g class="errorbars"/><g class="lines"><path class="js-line" d="M0,400.77Q12.12,408.22 21.74,411.35C38.4,416.76 76.83,422.09 93.06,423.97C101.38,424.93 105.86,424.52 112.08,425.02C118.08,425.51 124.19,429.01 129.74,426.91C136.85,424.22 144.94,409.24 149.44,405.41C151.43,403.72 152.33,403.79 154.2,402.29C157.44,399.68 161,392.79 166.42,390.29C173.17,387.18 185.79,387.74 192.92,387.96C197.78,388.11 201.13,389.08 205.14,389.79C209.05,390.48 213.25,391.61 216.69,392.13C219.44,392.55 224.11,393.13 224.16,392.88Q224.22,392.55 211.26,389.2" style="vector-effect: non-scaling-stroke; fill: none; stroke: rgb(0, 0, 0); stroke-opacity: 1; stroke-width: 7px; opacity: 1;"/></g><g class="points"/><g class="text"/></g><g class="trace scatter tracebfc886" style="stroke-miterlimit: 2; opacity: 1;"><g class="fills"/><g class="errorbars"/><g class="lines"/><g class="points"><path class="point" transform="translate(0,395)" d="M7.5,0A7.5,7.5 0 1,1 0,-7.5A7.5,7.5 0 0,1 7.5,0Z" style="opacity: 1; stroke-width: 0px; fill: rgb(0, 0, 0); fill-opacity: 0.25;"/><path class="point" transform="translate(21.74,416.31)" d="M7.5,0A7.5,7.5 0 1,1 0,-7.5A7.5,7.5 0 0,1 7.5,0Z" style="opacity: 1; stroke-width: 0px; fill: rgb(0, 0, 0); fill-opacity: 0.25;"/><path class="point" transform="translate(93.06,423.42)" d="M7.5,0A7.5,7.5 0 1,1 0,-7.5A7.5,7.5 0 0,1 7.5,0Z" style="opacity: 1; stroke-width: 0px; fill: rgb(0, 0, 0); fill-opacity: 0.25;"/><path class="point" transform="translate(112.08,423.42)" d="M7.5,0A7.5,7.5 0 1,1 0,-7.5A7.5,7.5 0 0,1 7.5,0Z" style="opacity: 1; stroke-width: 0px; fill: rgb(0, 0, 0); fill-opacity: 0.25;"/><path class="point" transform="translate(129.74,458.95)" d="M7.5,0A7.5,7.5 0 1,1 0,-7.5A7.5,7.5 0 0,1 7.5,0Z" style="opacity: 1; stroke-width: 0px; fill: rgb(0, 0, 0); fill-opacity: 0.25;"/><path class="point" transform="translate(149.44,402.1)" d="M7.5,0A7.5,7.5 0 1,1 0,-7.5A7.5,7.5 0 0,1 7.5,0Z" style="opacity: 1; stroke-width: 0px; fill: rgb(0, 0, 0); fill-opacity: 0.25;"/><path class="point" transform="translate(154.2,409.21)" d="M7.5,0A7.5,7.5 0 1,1 0,-7.5A7.5,7.5 0 0,1 7.5,0Z" style="opacity: 1; stroke-width: 0px; fill: rgb(0, 0, 0); fill-opacity: 0.25;"/><path class="point" transform="translate(166.42,362.31)" d="M7.5,0A7.5,7.5 0 1,1 0,-7.5A7.5,7.5 0 0,1 7.5,0Z" style="opacity: 1; stroke-width: 0px; fill: rgb(0, 0, 0); fill-opacity: 0.25;"/><path class="point" transform="translate(192.92,380.78)" d="M7.5,0A7.5,7.5 0 1,1 0,-7.5A7.5,7.5 0 0,1 7.5,0Z" style="opacity: 1; stroke-width: 0px; fill: rgb(0, 0, 0); fill-opacity: 0.25;"/><path class="point" transform="translate(205.14,397.84)" d="M7.5,0A7.5,7.5 0 1,1 0,-7.5A7.5,7.5 0 0,1 7.5,0Z" style="opacity: 1; stroke-width: 0px; fill: rgb(0, 0, 0); fill-opacity: 0.25;"/><path class="point" transform="translate(216.69,409.21)" d="M7.5,0A7.5,7.5 0 1,1 0,-7.5A7.5,7.5 0 0,1 7.5,0Z" style="opacity: 1; stroke-width: 0px; fill: rgb(0, 0, 0); fill-opacity: 0.25;"/><path class="point" transform="translate(224.16,396.42)" d="M7.5,0A7.5,7.5 0 1,1 0,-7.5A7.5,7.5 0 0,1 7.5,0Z" style="opacity: 1; stroke-width: 0px; fill: rgb(0, 0, 0); fill-opacity: 0.25;"/><path class="point" transform="translate(211.26,366.57)" d="M7.5,0A7.5,7.5 0 1,1 0,-7.5A7.5,7.5 0 0,1 7.5,0Z" style="opacity: 1; stroke-width: 0px; fill: rgb(0, 0, 0); fill-opacity: 0.25;"/></g><g class="text"/></g><g class="trace scatter trace493587" style="stroke-miterlimit: 2; opacity: 1;"><g class="fills"/><g class="errorbars"/><g class="lines"><path class="js-line" d="M0,417.76Q8.61,377.71 21.74,370.86C37.28,362.75 77.14,378.02 93.06,383.42C101.72,386.36 105.9,389.88 112.08,393.3C118.12,396.64 123.98,399.2 129.74,403.67C136.47,408.9 145.16,418.92 149.44,423.51C151.62,425.85 152.19,426.83 154.2,428.95C157.28,432.21 161.13,437.52 166.42,440.88C173.23,445.2 185.71,448.65 192.92,450.75C197.71,452.15 201.1,453 205.14,453.37C209.02,453.72 213.26,452.85 216.69,453.03C219.46,453.18 224.17,453.8 224.16,454.06Q224.14,454.4 211.26,454.68" style="vector-effect: non-scaling-stroke; fill: none; stroke: rgb(93, 140, 0); stroke-opacity: 1; stroke-width: 7px; opacity: 1;"/></g><g class="points"/><g class="text"/></g><g class="trace scatter tracee04b3f" style="stroke-miterlimit: 2; opacity: 1;"><g class="fills"/><g class="errorbars"/><g class="lines"/><g class="points"><path class="point" transform="translate(0,443.31)" d="M7.5,0A7.5,7.5 0 1,1 0,-7.5A7.5,7.5 0 0,1 7.5,0Z" style="opacity: 1; stroke-width: 0px; fill: rgb(93, 140, 0); fill-opacity: 0.25;"/><path class="point" transform="translate(21.74,345.26)" d="M7.5,0A7.5,7.5 0 1,1 0,-7.5A7.5,7.5 0 0,1 7.5,0Z" style="opacity: 1; stroke-width: 0px; fill: rgb(93, 140, 0); fill-opacity: 0.25;"/><path class="point" transform="translate(93.06,373.68)" d="M7.5,0A7.5,7.5 0 1,1 0,-7.5A7.5,7.5 0 0,1 7.5,0Z" style="opacity: 1; stroke-width: 0px; fill: rgb(93, 140, 0); fill-opacity: 0.25;"/><path class="point" transform="translate(112.08,387.89)" d="M7.5,0A7.5,7.5 0 1,1 0,-7.5A7.5,7.5 0 0,1 7.5,0Z" style="opacity: 1; stroke-width: 0px; fill: rgb(93, 140, 0); fill-opacity: 0.25;"/><path class="point" transform="translate(129.74,387.89)" d="M7.5,0A7.5,7.5 0 1,1 0,-7.5A7.5,7.5 0 0,1 7.5,0Z" style="opacity: 1; stroke-width: 0px; fill: rgb(93, 140, 0); fill-opacity: 0.25;"/><path class="point" transform="translate(149.44,409.21)" d="M7.5,0A7.5,7.5 0 1,1 0,-7.5A7.5,7.5 0 0,1 7.5,0Z" style="opacity: 1; stroke-width: 0px; fill: rgb(93, 140, 0); fill-opacity: 0.25;"/><path class="point" transform="translate(154.2,437.63)" d="M7.5,0A7.5,7.5 0 1,1 0,-7.5A7.5,7.5 0 0,1 7.5,0Z" style="opacity: 1; stroke-width: 0px; fill: rgb(93, 140, 0); fill-opacity: 0.25;"/><path class="point" transform="translate(166.42,461.79)" d="M7.5,0A7.5,7.5 0 1,1 0,-7.5A7.5,7.5 0 0,1 7.5,0Z" style="opacity: 1; stroke-width: 0px; fill: rgb(93, 140, 0); fill-opacity: 0.25;"/><path class="point" transform="translate(192.92,451.84)" d="M7.5,0A7.5,7.5 0 1,1 0,-7.5A7.5,7.5 0 0,1 7.5,0Z" style="opacity: 1; stroke-width: 0px; fill: rgb(93, 140, 0); fill-opacity: 0.25;"/><path class="point" transform="translate(205.14,451.84)" d="M7.5,0A7.5,7.5 0 1,1 0,-7.5A7.5,7.5 0 0,1 7.5,0Z" style="opacity: 1; stroke-width: 0px; fill: rgb(93, 140, 0); fill-opacity: 0.25;"/><path class="point" transform="translate(216.69,437.63)" d="M7.5,0A7.5,7.5 0 1,1 0,-7.5A7.5,7.5 0 0,1 7.5,0Z" style="opacity: 1; stroke-width: 0px; fill: rgb(93, 140, 0); fill-opacity: 0.25;"/><path class="point" transform="translate(224.16,458.95)" d="M7.5,0A7.5,7.5 0 1,1 0,-7.5A7.5,7.5 0 0,1 7.5,0Z" style="opacity: 1; stroke-width: 0px; fill: rgb(93, 140, 0); fill-opacity: 0.25;"/><path class="point" transform="translate(211.26,473.16)" d="M7.5,0A7.5,7.5 0 1,1 0,-7.5A7.5,7.5 0 0,1 7.5,0Z" style="opacity: 1; stroke-width: 0px; fill: rgb(93, 140, 0); fill-opacity: 0.25;"/></g><g class="text"/></g><g class="trace scatter trace504f95" style="stroke-miterlimit: 2; opacity: 1;"><g class="fills"/><g class="errorbars"/><g class="lines"><path class="js-line" d="M0,428.69Q12.49,428.93 21.74,430.54C38.75,433.5 77.21,442.5 93.06,449.46C101.82,453.31 105.8,457.89 112.08,461.61C118.02,465.13 123.5,470.29 129.74,471.29C135.96,472.29 145.1,468.23 149.44,467.66C151.56,467.38 152.27,467.65 154.2,467.29C157.35,466.71 161.51,464.54 166.42,463.67C173.51,462.42 185.77,462.07 192.92,462.02C197.77,461.98 201.14,462.18 205.14,462.6C209.06,463.02 213.25,464.45 216.69,464.51C219.45,464.56 224.16,463.57 224.16,463.53Q224.15,463.48 211.26,464.84" style="vector-effect: non-scaling-stroke; fill: none; stroke: rgb(114, 55, 105); stroke-opacity: 1; stroke-width: 7px; opacity: 1;"/></g><g class="points"/><g class="text"/></g><g class="trace scatter trace4abf94" style="stroke-miterlimit: 2; opacity: 1;"><g class="fills"/><g class="errorbars"/><g class="lines"/><g class="points"><path class="point" transform="translate(0,427.68)" d="M7.5,0A7.5,7.5 0 1,1 0,-7.5A7.5,7.5 0 0,1 7.5,0Z" style="opacity: 1; stroke-width: 0px; fill: rgb(114, 55, 105); fill-opacity: 0.25;"/><path class="point" transform="translate(21.74,430.52)" d="M7.5,0A7.5,7.5 0 1,1 0,-7.5A7.5,7.5 0 0,1 7.5,0Z" style="opacity: 1; stroke-width: 0px; fill: rgb(114, 55, 105); fill-opacity: 0.25;"/><path class="point" transform="translate(93.06,437.63)" d="M7.5,0A7.5,7.5 0 1,1 0,-7.5A7.5,7.5 0 0,1 7.5,0Z" style="opacity: 1; stroke-width: 0px; fill: rgb(114, 55, 105); fill-opacity: 0.25;"/><path class="point" transform="translate(112.08,458.95)" d="M7.5,0A7.5,7.5 0 1,1 0,-7.5A7.5,7.5 0 0,1 7.5,0Z" style="opacity: 1; stroke-width: 0px; fill: rgb(114, 55, 105); fill-opacity: 0.25;"/><path class="point" transform="translate(129.74,487.37)" d="M7.5,0A7.5,7.5 0 1,1 0,-7.5A7.5,7.5 0 0,1 7.5,0Z" style="opacity: 1; stroke-width: 0px; fill: rgb(114, 55, 105); fill-opacity: 0.25;"/><path class="point" transform="translate(149.44,466.05)" d="M7.5,0A7.5,7.5 0 1,1 0,-7.5A7.5,7.5 0 0,1 7.5,0Z" style="opacity: 1; stroke-width: 0px; fill: rgb(114, 55, 105); fill-opacity: 0.25;"/><path class="point" transform="translate(154.2,473.16)" d="M7.5,0A7.5,7.5 0 1,1 0,-7.5A7.5,7.5 0 0,1 7.5,0Z" style="opacity: 1; stroke-width: 0px; fill: rgb(114, 55, 105); fill-opacity: 0.25;"/><path class="point" transform="translate(166.42,456.1)" d="M7.5,0A7.5,7.5 0 1,1 0,-7.5A7.5,7.5 0 0,1 7.5,0Z" style="opacity: 1; stroke-width: 0px; fill: rgb(114, 55, 105); fill-opacity: 0.25;"/><path class="point" transform="translate(192.92,458.95)" d="M7.5,0A7.5,7.5 0 1,1 0,-7.5A7.5,7.5 0 0,1 7.5,0Z" style="opacity: 1; stroke-width: 0px; fill: rgb(114, 55, 105); fill-opacity: 0.25;"/><path class="point" transform="translate(205.14,450.42)" d="M7.5,0A7.5,7.5 0 1,1 0,-7.5A7.5,7.5 0 0,1 7.5,0Z" style="opacity: 1; stroke-width: 0px; fill: rgb(114, 55, 105); fill-opacity: 0.25;"/><path class="point" transform="translate(216.69,466.05)" d="M7.5,0A7.5,7.5 0 1,1 0,-7.5A7.5,7.5 0 0,1 7.5,0Z" style="opacity: 1; stroke-width: 0px; fill: rgb(114, 55, 105); fill-opacity: 0.25;"/><path class="point" transform="translate(224.16,458.95)" d="M7.5,0A7.5,7.5 0 1,1 0,-7.5A7.5,7.5 0 0,1 7.5,0Z" style="opacity: 1; stroke-width: 0px; fill: rgb(114, 55, 105); fill-opacity: 0.25;"/><path class="point" transform="translate(211.26,480.26)" d="M7.5,0A7.5,7.5 0 1,1 0,-7.5A7.5,7.5 0 0,1 7.5,0Z" style="opacity: 1; stroke-width: 0px; fill: rgb(114, 55, 105); fill-opacity: 0.25;"/></g><g class="text"/></g><g class="trace scatter trace9d859f" style="stroke-miterlimit: 2; opacity: 1;"><g class="fills"/><g class="errorbars"/><g class="lines"><path class="js-line" d="M0,466.03Q12.39,469.1 21.74,471.22C38.64,475.05 76.8,484.9 93.06,486.55C101.36,487.39 105.95,487.47 112.08,486.38C118.17,485.29 123.95,483.27 129.74,480.06C136.44,476.35 144.92,466.48 149.44,464.52C151.42,463.66 152.26,464.18 154.2,463.79C157.34,463.15 161.53,461.05 166.42,460.69C173.53,460.17 185.8,462.35 192.92,463.42C197.79,464.15 201.17,464.7 205.14,465.85C209.09,466.99 213.21,469.51 216.69,470.28C219.4,470.88 224.12,471.05 224.16,470.79Q224.21,470.45 211.26,467.49" style="vector-effect: non-scaling-stroke; fill: none; stroke: rgb(240, 125, 0); stroke-opacity: 1; stroke-width: 7px; opacity: 1;"/></g><g class="points"/><g class="text"/></g><g class="trace scatter tracedc5815" style="stroke-miterlimit: 2; opacity: 1;"><g class="fills"/><g class="errorbars"/><g class="lines"/><g class="points"><path class="point" transform="translate(0,463.21)" d="M7.5,0A7.5,7.5 0 1,1 0,-7.5A7.5,7.5 0 0,1 7.5,0Z" style="opacity: 1; stroke-width: 0px; fill: rgb(240, 125, 0); fill-opacity: 0.25;"/><path class="point" transform="translate(21.74,473.16)" d="M7.5,0A7.5,7.5 0 1,1 0,-7.5A7.5,7.5 0 0,1 7.5,0Z" style="opacity: 1; stroke-width: 0px; fill: rgb(240, 125, 0); fill-opacity: 0.25;"/><path class="point" transform="translate(93.06,487.37)" d="M7.5,0A7.5,7.5 0 1,1 0,-7.5A7.5,7.5 0 0,1 7.5,0Z" style="opacity: 1; stroke-width: 0px; fill: rgb(240, 125, 0); fill-opacity: 0.25;"/><path class="point" transform="translate(112.08,494.47)" d="M7.5,0A7.5,7.5 0 1,1 0,-7.5A7.5,7.5 0 0,1 7.5,0Z" style="opacity: 1; stroke-width: 0px; fill: rgb(240, 125, 0); fill-opacity: 0.25;"/><path class="point" transform="translate(129.74,494.47)" d="M7.5,0A7.5,7.5 0 1,1 0,-7.5A7.5,7.5 0 0,1 7.5,0Z" style="opacity: 1; stroke-width: 0px; fill: rgb(240, 125, 0); fill-opacity: 0.25;"/><path class="point" transform="translate(149.44,451.84)" d="M7.5,0A7.5,7.5 0 1,1 0,-7.5A7.5,7.5 0 0,1 7.5,0Z" style="opacity: 1; stroke-width: 0px; fill: rgb(240, 125, 0); fill-opacity: 0.25;"/><path class="point" transform="translate(154.2,466.05)" d="M7.5,0A7.5,7.5 0 1,1 0,-7.5A7.5,7.5 0 0,1 7.5,0Z" style="opacity: 1; stroke-width: 0px; fill: rgb(240, 125, 0); fill-opacity: 0.25;"/><path class="point" transform="translate(166.42,450.42)" d="M7.5,0A7.5,7.5 0 1,1 0,-7.5A7.5,7.5 0 0,1 7.5,0Z" style="opacity: 1; stroke-width: 0px; fill: rgb(240, 125, 0); fill-opacity: 0.25;"/><path class="point" transform="translate(192.92,458.95)" d="M7.5,0A7.5,7.5 0 1,1 0,-7.5A7.5,7.5 0 0,1 7.5,0Z" style="opacity: 1; stroke-width: 0px; fill: rgb(240, 125, 0); fill-opacity: 0.25;"/><path class="point" transform="translate(205.14,461.79)" d="M7.5,0A7.5,7.5 0 1,1 0,-7.5A7.5,7.5 0 0,1 7.5,0Z" style="opacity: 1; stroke-width: 0px; fill: rgb(240, 125, 0); fill-opacity: 0.25;"/><path class="point" transform="translate(216.69,487.37)" d="M7.5,0A7.5,7.5 0 1,1 0,-7.5A7.5,7.5 0 0,1 7.5,0Z" style="opacity: 1; stroke-width: 0px; fill: rgb(240, 125, 0); fill-opacity: 0.25;"/><path class="point" transform="translate(224.16,473.16)" d="M7.5,0A7.5,7.5 0 1,1 0,-7.5A7.5,7.5 0 0,1 7.5,0Z" style="opacity: 1; stroke-width: 0px; fill: rgb(240, 125, 0); fill-opacity: 0.25;"/><path class="point" transform="translate(211.26,458.95)" d="M7.5,0A7.5,7.5 0 1,1 0,-7.5A7.5,7.5 0 0,1 7.5,0Z" style="opacity: 1; stroke-width: 0px; fill: rgb(240, 125, 0); fill-opacity: 0.25;"/></g><g class="text"/></g><g class="trace scatter traced83180" style="stroke-miterlimit: 2; opacity: 1;"><g class="fills"/><g class="errorbars"/><g class="lines"><path class="js-line" d="M0,444.52Q11.08,463.64 21.74,467.59C37.78,473.53 77.05,457.84 93.06,460.05C101.62,461.23 105.74,466.33 112.08,467.65C117.97,468.87 123.7,467.79 129.74,468.18C136.13,468.6 145.12,469.52 149.44,470.16C151.58,470.48 152.24,471.01 154.2,471.1C157.32,471.24 161.56,469.87 166.42,469.81C173.56,469.73 185.81,470.89 192.92,471.98C197.8,472.73 201.1,474.45 205.14,474.74C209.02,475.02 213.27,474.27 216.69,473.82C219.46,473.46 224.16,472.47 224.16,472.46Q224.16,472.44 211.26,474.7" style="vector-effect: non-scaling-stroke; fill: none; stroke: rgb(230, 172, 33); stroke-opacity: 1; stroke-width: 7px; opacity: 1;"/></g><g class="points"/><g class="text"/></g><g class="trace scatter trace30c9a6" style="stroke-miterlimit: 2; opacity: 1;"><g class="fills"/><g class="errorbars"/><g class="lines"/><g class="points"><path class="point" transform="translate(0,431.94)" d="M7.5,0A7.5,7.5 0 1,1 0,-7.5A7.5,7.5 0 0,1 7.5,0Z" style="opacity: 1; stroke-width: 0px; fill: rgb(230, 172, 33); fill-opacity: 0.25;"/><path class="point" transform="translate(21.74,480.26)" d="M7.5,0A7.5,7.5 0 1,1 0,-7.5A7.5,7.5 0 0,1 7.5,0Z" style="opacity: 1; stroke-width: 0px; fill: rgb(230, 172, 33); fill-opacity: 0.25;"/><path class="point" transform="translate(93.06,451.84)" d="M7.5,0A7.5,7.5 0 1,1 0,-7.5A7.5,7.5 0 0,1 7.5,0Z" style="opacity: 1; stroke-width: 0px; fill: rgb(230, 172, 33); fill-opacity: 0.25;"/><path class="point" transform="translate(112.08,473.16)" d="M7.5,0A7.5,7.5 0 1,1 0,-7.5A7.5,7.5 0 0,1 7.5,0Z" style="opacity: 1; stroke-width: 0px; fill: rgb(230, 172, 33); fill-opacity: 0.25;"/><path class="point" transform="translate(129.74,466.05)" d="M7.5,0A7.5,7.5 0 1,1 0,-7.5A7.5,7.5 0 0,1 7.5,0Z" style="opacity: 1; stroke-width: 0px; fill: rgb(230, 172, 33); fill-opacity: 0.25;"/><path class="point" transform="translate(149.44,466.05)" d="M7.5,0A7.5,7.5 0 1,1 0,-7.5A7.5,7.5 0 0,1 7.5,0Z" style="opacity: 1; stroke-width: 0px; fill: rgb(230, 172, 33); fill-opacity: 0.25;"/><path class="point" transform="translate(154.2,480.26)" d="M7.5,0A7.5,7.5 0 1,1 0,-7.5A7.5,7.5 0 0,1 7.5,0Z" style="opacity: 1; stroke-width: 0px; fill: rgb(230, 172, 33); fill-opacity: 0.25;"/><path class="point" transform="translate(166.42,464.63)" d="M7.5,0A7.5,7.5 0 1,1 0,-7.5A7.5,7.5 0 0,1 7.5,0Z" style="opacity: 1; stroke-width: 0px; fill: rgb(230, 172, 33); fill-opacity: 0.25;"/><path class="point" transform="translate(192.92,466.05)" d="M7.5,0A7.5,7.5 0 1,1 0,-7.5A7.5,7.5 0 0,1 7.5,0Z" style="opacity: 1; stroke-width: 0px; fill: rgb(230, 172, 33); fill-opacity: 0.25;"/><path class="point" transform="translate(205.14,481.68)" d="M7.5,0A7.5,7.5 0 1,1 0,-7.5A7.5,7.5 0 0,1 7.5,0Z" style="opacity: 1; stroke-width: 0px; fill: rgb(230, 172, 33); fill-opacity: 0.25;"/><path class="point" transform="translate(216.69,473.16)" d="M7.5,0A7.5,7.5 0 1,1 0,-7.5A7.5,7.5 0 0,1 7.5,0Z" style="opacity: 1; stroke-width: 0px; fill: rgb(230, 172, 33); fill-opacity: 0.25;"/><path class="point" transform="translate(224.16,466.05)" d="M7.5,0A7.5,7.5 0 1,1 0,-7.5A7.5,7.5 0 0,1 7.5,0Z" style="opacity: 1; stroke-width: 0px; fill: rgb(230, 172, 33); fill-opacity: 0.25;"/><path class="point" transform="translate(211.26,480.26)" d="M7.5,0A7.5,7.5 0 1,1 0,-7.5A7.5,7.5 0 0,1 7.5,0Z" style="opacity: 1; stroke-width: 0px; fill: rgb(230, 172, 33); fill-opacity: 0.25;"/></g><g class="text"/></g><g class="trace scatter trace589cb7" style="stroke-miterlimit: 2; opacity: 1;"><g class="fills"/><g class="errorbars"/><g class="lines"><path class="js-line" d="M0,471.41Q11.76,483.35 21.74,486.46C38.13,491.56 76.87,486.77 93.06,486.31C101.43,486.07 105.88,484.89 112.08,485.28C118.1,485.66 123.69,487.41 129.74,488.49C136.13,489.63 145.12,490.99 149.44,491.93C151.58,492.4 152.23,492.93 154.2,493.18C157.31,493.57 161.61,493.7 166.42,493.12C173.61,492.26 185.76,488.3 192.92,486.83C197.75,485.84 201.11,485.15 205.14,484.71C209.03,484.29 213.26,484.43 216.69,484.19C219.45,484 224.16,483.56 224.16,483.5Q224.15,483.42 211.26,484.13" style="vector-effect: non-scaling-stroke; fill: none; stroke: rgb(0, 51, 255); stroke-opacity: 1; stroke-width: 7px; opacity: 1;"/></g><g class="points"/><g class="text"/></g><g class="trace scatter tracef540c7" style="stroke-miterlimit: 2; opacity: 1;"><g class="fills"/><g class="errorbars"/><g class="lines"/><g class="points"><path class="point" transform="translate(0,463.21)" d="M7.5,0A7.5,7.5 0 1,1 0,-7.5A7.5,7.5 0 0,1 7.5,0Z" style="opacity: 1; stroke-width: 0px; fill: rgb(0, 51, 255); fill-opacity: 0.25;"/><path class="point" transform="translate(21.74,494.47)" d="M7.5,0A7.5,7.5 0 1,1 0,-7.5A7.5,7.5 0 0,1 7.5,0Z" style="opacity: 1; stroke-width: 0px; fill: rgb(0, 51, 255); fill-opacity: 0.25;"/><path class="point" transform="translate(93.06,487.37)" d="M7.5,0A7.5,7.5 0 1,1 0,-7.5A7.5,7.5 0 0,1 7.5,0Z" style="opacity: 1; stroke-width: 0px; fill: rgb(0, 51, 255); fill-opacity: 0.25;"/><path class="point" transform="translate(112.08,480.26)" d="M7.5,0A7.5,7.5 0 1,1 0,-7.5A7.5,7.5 0 0,1 7.5,0Z" style="opacity: 1; stroke-width: 0px; fill: rgb(0, 51, 255); fill-opacity: 0.25;"/><path class="point" transform="translate(129.74,487.37)" d="M7.5,0A7.5,7.5 0 1,1 0,-7.5A7.5,7.5 0 0,1 7.5,0Z" style="opacity: 1; stroke-width: 0px; fill: rgb(0, 51, 255); fill-opacity: 0.25;"/><path class="point" transform="translate(149.44,487.37)" d="M7.5,0A7.5,7.5 0 1,1 0,-7.5A7.5,7.5 0 0,1 7.5,0Z" style="opacity: 1; stroke-width: 0px; fill: rgb(0, 51, 255); fill-opacity: 0.25;"/><path class="point" transform="translate(154.2,501.58)" d="M7.5,0A7.5,7.5 0 1,1 0,-7.5A7.5,7.5 0 0,1 7.5,0Z" style="opacity: 1; stroke-width: 0px; fill: rgb(0, 51, 255); fill-opacity: 0.25;"/><path class="point" transform="translate(166.42,498.74)" d="M7.5,0A7.5,7.5 0 1,1 0,-7.5A7.5,7.5 0 0,1 7.5,0Z" style="opacity: 1; stroke-width: 0px; fill: rgb(0, 51, 255); fill-opacity: 0.25;"/><path class="point" transform="translate(192.92,487.37)" d="M7.5,0A7.5,7.5 0 1,1 0,-7.5A7.5,7.5 0 0,1 7.5,0Z" style="opacity: 1; stroke-width: 0px; fill: rgb(0, 51, 255); fill-opacity: 0.25;"/><path class="point" transform="translate(205.14,483.1)" d="M7.5,0A7.5,7.5 0 1,1 0,-7.5A7.5,7.5 0 0,1 7.5,0Z" style="opacity: 1; stroke-width: 0px; fill: rgb(0, 51, 255); fill-opacity: 0.25;"/><path class="point" transform="translate(216.69,487.37)" d="M7.5,0A7.5,7.5 0 1,1 0,-7.5A7.5,7.5 0 0,1 7.5,0Z" style="opacity: 1; stroke-width: 0px; fill: rgb(0, 51, 255); fill-opacity: 0.25;"/><path class="point" transform="translate(224.16,480.26)" d="M7.5,0A7.5,7.5 0 1,1 0,-7.5A7.5,7.5 0 0,1 7.5,0Z" style="opacity: 1; stroke-width: 0px; fill: rgb(0, 51, 255); fill-opacity: 0.25;"/><path class="point" transform="translate(211.26,480.26)" d="M7.5,0A7.5,7.5 0 1,1 0,-7.5A7.5,7.5 0 0,1 7.5,0Z" style="opacity: 1; stroke-width: 0px; fill: rgb(0, 51, 255); fill-opacity: 0.25;"/></g><g class="text"/></g><g class="trace scatter trace8c7523" style="stroke-miterlimit: 2; opacity: 1;"><g class="fills"/><g class="errorbars"/><g class="lines"><path class="js-line" d="M0,479.46Q12.49,479.21 21.74,480.6C38.74,483.15 76.8,497.45 93.06,498.49C101.36,499.02 105.85,496.62 112.08,496.24C118.07,495.88 123.72,496.79 129.74,496.18C136.16,495.53 145.1,492.64 149.44,492.24C151.55,492.04 152.25,492.35 154.2,492.3C157.33,492.22 161.57,491.74 166.42,491.53C173.56,491.21 185.79,491.38 192.92,490.86C197.78,490.5 201.14,489.14 205.14,489.37C209.06,489.59 213.43,490.44 216.69,492.14C219.68,493.7 224.31,498.58 224.16,498.77Q223.97,499.01 211.26,490.04" style="vector-effect: non-scaling-stroke; fill: none; stroke: rgb(140, 0, 0); stroke-opacity: 1; stroke-width: 7px; opacity: 1;"/></g><g class="points"/><g class="text"/></g><g class="trace scatter trace687c6d" style="stroke-miterlimit: 2; opacity: 1;"><g class="fills"/><g class="errorbars"/><g class="lines"/><g class="points"><path class="point" transform="translate(0,478.84)" d="M7.5,0A7.5,7.5 0 1,1 0,-7.5A7.5,7.5 0 0,1 7.5,0Z" style="opacity: 1; stroke-width: 0px; fill: rgb(140, 0, 0); fill-opacity: 0.25;"/><path class="point" transform="translate(21.74,480.26)" d="M7.5,0A7.5,7.5 0 1,1 0,-7.5A7.5,7.5 0 0,1 7.5,0Z" style="opacity: 1; stroke-width: 0px; fill: rgb(140, 0, 0); fill-opacity: 0.25;"/><path class="point" transform="translate(93.06,501.58)" d="M7.5,0A7.5,7.5 0 1,1 0,-7.5A7.5,7.5 0 0,1 7.5,0Z" style="opacity: 1; stroke-width: 0px; fill: rgb(140, 0, 0); fill-opacity: 0.25;"/><path class="point" transform="translate(112.08,494.47)" d="M7.5,0A7.5,7.5 0 1,1 0,-7.5A7.5,7.5 0 0,1 7.5,0Z" style="opacity: 1; stroke-width: 0px; fill: rgb(140, 0, 0); fill-opacity: 0.25;"/><path class="point" transform="translate(129.74,501.58)" d="M7.5,0A7.5,7.5 0 1,1 0,-7.5A7.5,7.5 0 0,1 7.5,0Z" style="opacity: 1; stroke-width: 0px; fill: rgb(140, 0, 0); fill-opacity: 0.25;"/><path class="point" transform="translate(149.44,487.37)" d="M7.5,0A7.5,7.5 0 1,1 0,-7.5A7.5,7.5 0 0,1 7.5,0Z" style="opacity: 1; stroke-width: 0px; fill: rgb(140, 0, 0); fill-opacity: 0.25;"/><path class="point" transform="translate(154.2,494.47)" d="M7.5,0A7.5,7.5 0 1,1 0,-7.5A7.5,7.5 0 0,1 7.5,0Z" style="opacity: 1; stroke-width: 0px; fill: rgb(140, 0, 0); fill-opacity: 0.25;"/><path class="point" transform="translate(166.42,490.21)" d="M7.5,0A7.5,7.5 0 1,1 0,-7.5A7.5,7.5 0 0,1 7.5,0Z" style="opacity: 1; stroke-width: 0px; fill: rgb(140, 0, 0); fill-opacity: 0.25;"/><path class="point" transform="translate(192.92,494.47)" d="M7.5,0A7.5,7.5 0 1,1 0,-7.5A7.5,7.5 0 0,1 7.5,0Z" style="opacity: 1; stroke-width: 0px; fill: rgb(140, 0, 0); fill-opacity: 0.25;"/><path class="point" transform="translate(205.14,481.68)" d="M7.5,0A7.5,7.5 0 1,1 0,-7.5A7.5,7.5 0 0,1 7.5,0Z" style="opacity: 1; stroke-width: 0px; fill: rgb(140, 0, 0); fill-opacity: 0.25;"/><path class="point" transform="translate(216.69,480.26)" d="M7.5,0A7.5,7.5 0 1,1 0,-7.5A7.5,7.5 0 0,1 7.5,0Z" style="opacity: 1; stroke-width: 0px; fill: rgb(140, 0, 0); fill-opacity: 0.25;"/><path class="point" transform="translate(211.26,480.26)" d="M7.5,0A7.5,7.5 0 1,1 0,-7.5A7.5,7.5 0 0,1 7.5,0Z" style="opacity: 1; stroke-width: 0px; fill: rgb(140, 0, 0); fill-opacity: 0.25;"/></g><g class="text"/></g></g></g><g class="overplot"/><path class="xlines-above crisp" d="M0,0" style="fill: none;"/><path class="ylines-above crisp" d="M0,0" style="fill: none;"/><g class="overlines-above"/><g class="xaxislayer-above"><g class="xtick"><text text-anchor="middle" x="0" y="563" transform="translate(107.06,0)" style="font-family: 'Open Sans', verdana, arial, sans-serif; font-size: 12px; fill: rgb(42, 63, 95); fill-opacity: 1; white-space: pre; opacity: 1;">1.1.22</text></g><g class="xtick"><text text-anchor="middle" x="0" y="563" style="font-family: 'Open Sans', verdana, arial, sans-serif; font-size: 12px; fill: rgb(42, 63, 95); fill-opacity: 1; white-space: pre; opacity: 1;" transform="translate(230.01,0)">1.7.22</text></g><g class="xtick"><text text-anchor="middle" x="0" y="563" style="font-family: 'Open Sans', verdana, arial, sans-serif; font-size: 12px; fill: rgb(42, 63, 95); fill-opacity: 1; white-space: pre; opacity: 1;" transform="translate(355,0)">1.1.23</text></g><g class="xtick"><text text-anchor="middle" x="0" y="563" style="font-family: 'Open Sans', verdana, arial, sans-serif; font-size: 12px; fill: rgb(42, 63, 95); fill-opacity: 1; white-space: pre; opacity: 1;" transform="translate(477.95,0)">1.7.23</text></g><g class="xtick"><text text-anchor="middle" x="0" y="563" style="font-family: 'Open Sans', verdana, arial, sans-serif; font-size: 12px; fill: rgb(42, 63, 95); fill-opacity: 1; white-space: pre; opacity: 1;" transform="translate(602.94,0)">1.1.24</text></g><g class="xtick"><text text-anchor="middle" x="0" y="563" style="font-family: 'Open Sans', verdana, arial, sans-serif; font-size: 12px; fill: rgb(42, 63, 95); fill-opacity: 1; white-space: pre; opacity: 1;" transform="translate(726.57,0)">1.7.24</text></g><g class="xtick"><text text-anchor="middle" x="0" y="563" style="font-family: 'Open Sans', verdana, arial, sans-serif; font-size: 12px; fill: rgb(42, 63, 95); fill-opacity: 1; white-space: pre; opacity: 1;" transform="translate(851.56,0)">1.1.25</text></g><g class="xtick"><text text-anchor="middle" x="0" y="563" style="font-family: 'Open Sans', verdana, arial, sans-serif; font-size: 12px; fill: rgb(42, 63, 95); fill-opacity: 1; white-space: pre; opacity: 1;" transform="translate(974.51,0)">1.7.25</text></g></g><g class="yaxislayer-above"><g class="ytick"><text text-anchor="end" x="49" y="4.199999999999999" transform="translate(0,550)" style="font-family: 'Open Sans', verdana, arial, sans-serif; font-size: 12px; fill: rgb(42, 63, 95); fill-opacity: 1; white-space: pre; opacity: 1;">0%</text></g><g class="ytick"><text text-anchor="end" x="49" y="4.199999999999999" style="font-family: 'Open Sans', verdana, arial, sans-serif; font-size: 12px; fill: rgb(42, 63, 95); fill-opacity: 1; white-space: pre; opacity: 1;" transform="translate(0,478.95)">5%</text></g><g class="ytick"><text text-anchor="end" x="49" y="4.199999999999999" style="font-family: 'Open Sans', verdana, arial, sans-serif; font-size: 12px; fill: rgb(42, 63, 95); fill-opacity: 1; white-space: pre; opacity: 1;" transform="translate(0,407.89)">10%</text></g><g class="ytick"><text text-anchor="end" x="49" y="4.199999999999999" style="font-family: 'Open Sans', verdana, arial, sans-serif; font-size: 12px; fill: rgb(42, 63, 95); fill-opacity: 1; white-space: pre; opacity: 1;" transform="translate(0,336.84)">15%</text></g><g class="ytick"><text text-anchor="end" x="49" y="4.199999999999999" style="font-family: 'Open Sans', verdana, arial, sans-serif; font-size: 12px; fill: rgb(42, 63, 95); fill-opacity: 1; white-space: pre; opacity: 1;" transform="translate(0,265.78)">20%</text></g><g class="ytick"><text text-anchor="end" x="49" y="4.199999999999999" style="font-family: 'Open Sans', verdana, arial, sans-serif; font-size: 12px; fill: rgb(42, 63, 95); fill-opacity: 1; white-space: pre; opacity: 1;" transform="translate(0,194.73)">25%</text></g><g class="ytick"><text text-anchor="end" x="49" y="4.199999999999999" style="font-family: 'Open Sans', verdana, arial, sans-serif; font-size: 12px; fill: rgb(42, 63, 95); fill-opacity: 1; white-space: pre; opacity: 1;" transform="translate(0,123.67)">30%</text></g><g class="ytick"><text text-anchor="end" x="49" y="4.199999999999999" style="font-family: 'Open Sans', verdana, arial, sans-serif; font-size: 12px; fill: rgb(42, 63, 95); fill-opacity: 1; white-space: pre; opacity: 1;" transform="translate(0,52.62)">35%</text></g></g><g class="overaxes-above"/></g></g><g class="polarlayer"/><g class="smithlayer"/><g class="ternarylayer"/><g class="geolayer"/><g class="funnelarealayer"/><g class="pielayer"/><g class="iciclelayer"/><g class="treemaplayer"/><g class="sunburstlayer"/><g class="glimages"/><defs id="topdefs-48e4e8"><g class="clips"/><clipPath id="legend48e4e8"><rect width="131" height="200" x="0" y="0"/></clipPath></defs><g class="layer-above"><g class="imagelayer"/><g class="shapelayer"/></g><g class="infolayer"><g class="legend" pointer-events="all" transform="translate(1056.74,20)"><rect class="bg" shape-rendering="crispEdges" style="stroke: rgb(68, 68, 68); stroke-opacity: 1; fill: rgb(255, 255, 255); fill-opacity: 1; stroke-width: 0px;" width="131" height="200" x="0" y="0"/><g class="scrollbox" transform="" clip-path="url(#legend48e4e8)"><g class="groups"><g class="traces" transform="translate(0,14.5)" style="opacity: 1;"><text class="legendtext" text-anchor="start" x="40" y="4.680000000000001" style="font-family: 'Open Sans', verdana, arial, sans-serif; font-size: 12px; fill: rgb(42, 63, 95); fill-opacity: 1; white-space: pre;">ANO: 30%</text><g class="layers" style="opacity: 1;"><g class="legendfill"/><g class="legendlines"><path class="js-line" d="M5,0h30" style="fill: none; stroke: rgb(38, 16, 96); stroke-opacity: 1; stroke-width: 7px;"/></g><g class="legendsymbols"><g class="legendpoints"/></g></g><rect class="legendtoggle" x="0" y="-9.5" width="125.359375" height="19" style="fill: rgb(0, 0, 0); fill-opacity: 0;"/></g><g class="traces" transform="translate(0,33.5)" style="opacity: 1;"><text class="legendtext" text-anchor="start" x="40" y="4.680000000000001" style="font-family: 'Open Sans', verdana, arial, sans-serif; font-size: 12px; fill: rgb(42, 63, 95); fill-opacity: 1; white-space: pre;">ODS: 16%</text><g class="layers" style="opacity: 1;"><g class="legendfill"/><g class="legendlines"><path class="js-line" d="M5,0h30" style="fill: none; stroke: rgb(0, 68, 148); stroke-opacity: 1; stroke-width: 7px;"/></g><g class="legendsymbols"><g class="legendpoints"/></g></g><rect class="legendtoggle" x="0" y="-9.5" width="125.359375" height="19" style="fill: rgb(0, 0, 0); fill-opacity: 0;"/></g><g class="traces" transform="translate(0,52.5)" style="opacity: 1;"><text class="legendtext" text-anchor="start" x="40" y="4.680000000000001" style="font-family: 'Open Sans', verdana, arial, sans-serif; font-size: 12px; fill: rgb(42, 63, 95); fill-opacity: 1; white-space: pre;">SPD: 13%</text><g class="layers" style="opacity: 1;"><g class="legendfill"/><g class="legendlines"><path class="js-line" d="M5,0h30" style="fill: none; stroke: rgb(234, 35, 41); stroke-opacity: 1; stroke-width: 7px;"/></g><g class="legendsymbols"><g class="legendpoints"/></g></g><rect class="legendtoggle" x="0" y="-9.5" width="125.359375" height="19" style="fill: rgb(0, 0, 0); fill-opacity: 0;"/></g><g class="traces" transform="translate(0,71.5)" style="opacity: 1;"><text class="legendtext" text-anchor="start" x="40" y="4.680000000000001" style="font-family: 'Open Sans', verdana, arial, sans-serif; font-size: 12px; fill: rgb(42, 63, 95); fill-opacity: 1; white-space: pre;">Pirti: 10%</text><g class="layers" style="opacity: 1;"><g class="legendfill"/><g class="legendlines"><path class="js-line" d="M5,0h30" style="fill: none; stroke: rgb(0, 0, 0); stroke-opacity: 1; stroke-width: 7px;"/></g><g class="legendsymbols"><g class="legendpoints"/></g></g><rect class="legendtoggle" x="0" y="-9.5" width="125.359375" height="19" style="fill: rgb(0, 0, 0); fill-opacity: 0;"/></g><g class="traces" transform="translate(0,90.5)" style="opacity: 1;"><text class="legendtext" text-anchor="start" x="40" y="4.680000000000001" style="font-family: 'Open Sans', verdana, arial, sans-serif; font-size: 12px; fill: rgb(42, 63, 95); fill-opacity: 1; white-space: pre;">STAN: 5%</text><g class="layers" style="opacity: 1;"><g class="legendfill"/><g class="legendlines"><path class="js-line" d="M5,0h30" style="fill: none; stroke: rgb(93, 140, 0); stroke-opacity: 1; stroke-width: 7px;"/></g><g class="legendsymbols"><g class="legendpoints"/></g></g><rect class="legendtoggle" x="0" y="-9.5" width="125.359375" height="19" style="fill: rgb(0, 0, 0); fill-opacity: 0;"/></g><g class="traces" transform="translate(0,109.5)" style="opacity: 1;"><text class="legendtext" text-anchor="start" x="40" y="4.680000000000001" style="font-family: 'Open Sans', verdana, arial, sans-serif; font-size: 12px; fill: rgb(42, 63, 95); fill-opacity: 1; white-space: pre;">TOP 09: 5%</text><g class="layers" style="opacity: 1;"><g class="legendfill"/><g class="legendlines"><path class="js-line" d="M5,0h30" style="fill: none; stroke: rgb(114, 55, 105); stroke-opacity: 1; stroke-width: 7px;"/></g><g class="legendsymbols"><g class="legendpoints"/></g></g><rect class="legendtoggle" x="0" y="-9.5" width="125.359375" height="19" style="fill: rgb(0, 0, 0); fill-opacity: 0;"/></g><g class="traces" transform="translate(0,128.5)" style="opacity: 1;"><text class="legendtext" text-anchor="start" x="40" y="4.680000000000001" style="font-family: 'Open Sans', verdana, arial, sans-serif; font-size: 12px; fill: rgb(42, 63, 95); fill-opacity: 1; white-space: pre;">SSD: 4%</text><g class="layers" style="opacity: 1;"><g class="legendfill"/><g class="legendlines"><path class="js-line" d="M5,0h30" style="fill: none; stroke: rgb(240, 125, 0); stroke-opacity: 1; stroke-width: 7px;"/></g><g class="legendsymbols"><g class="legendpoints"/></g></g><rect class="legendtoggle" x="0" y="-9.5" width="125.359375" height="19" style="fill: rgb(0, 0, 0); fill-opacity: 0;"/></g><g class="traces" transform="translate(0,147.5)" style="opacity: 1;"><text class="legendtext" text-anchor="start" x="40" y="4.680000000000001" style="font-family: 'Open Sans', verdana, arial, sans-serif; font-size: 12px; fill: rgb(42, 63, 95); fill-opacity: 1; white-space: pre;">KDU-SL: 4%</text><g class="layers" style="opacity: 1;"><g class="legendfill"/><g class="legendlines"><path class="js-line" d="M5,0h30" style="fill: none; stroke: rgb(230, 172, 33); stroke-opacity: 1; stroke-width: 7px;"/></g><g class="legendsymbols"><g class="legendpoints"/></g></g><rect class="legendtoggle" x="0" y="-9.5" width="125.359375" height="19" style="fill: rgb(0, 0, 0); fill-opacity: 0;"/></g><g class="traces" transform="translate(0,166.5)" style="opacity: 1;"><text class="legendtext" text-anchor="start" x="40" y="4.680000000000001" style="font-family: 'Open Sans', verdana, arial, sans-serif; font-size: 12px; fill: rgb(42, 63, 95); fill-opacity: 1; white-space: pre;">Psaha: 3%</text><g class="layers" style="opacity: 1;"><g class="legendfill"/><g class="legendlines"><path class="js-line" d="M5,0h30" style="fill: none; stroke: rgb(0, 51, 255); stroke-opacity: 1; stroke-width: 7px;"/></g><g class="legendsymbols"><g class="legendpoints"/></g></g><rect class="legendtoggle" x="0" y="-9.5" width="125.359375" height="19" style="fill: rgb(0, 0, 0); fill-opacity: 0;"/></g><g class="traces" transform="translate(0,185.5)" style="opacity: 1;"><text class="legendtext" text-anchor="start" x="40" y="4.680000000000001" style="font-family: 'Open Sans', verdana, arial, sans-serif; font-size: 12px; fill: rgb(42, 63, 95); fill-opacity: 1; white-space: pre;">KSM: 3%</text><g class="layers" style="opacity: 1;"><g class="legendfill"/><g class="legendlines"><path class="js-line" d="M5,0h30" style="fill: none; stroke: rgb(140, 0, 0); stroke-opacity: 1; stroke-width: 7px;"/></g><g class="legendsymbols"><g class="legendpoints"/></g></g><rect class="legendtoggle" x="0" y="-9.5" width="125.359375" height="19" style="fill: rgb(0, 0, 0); fill-opacity: 0;"/></g></g></g><rect class="scrollbar" rx="20" ry="3" width="0" height="0" style="fill: rgb(128, 139, 164); fill-opacity: 1;" x="0" y="0"/></g><g class="g-gtitle"/><g class="g-xtitle"/><g class="g-ytitle"/></g></svg>