<svg class="main-svg" xmlns="http://www.w3.org/2000/svg" xmlns:xlink="http://www.w3.org/1999/xlink" width="400" height="400" style="" viewBox="0 0 400 400"><rect x="0" y="0" width="400" height="400" style="fill: rgb(255, 255, 255); fill-opacity: 1;"/><defs id="defs-48c810"><g class="clips"><clipPath id="clip48c810xyplot" class="plotclip"><rect width="203" height="330"/></clipPath><clipPath class="axesclip" id="clip48c810x"><rect x="50" y="0" width="203" height="400"/></clipPath><clipPath class="axesclip" id="clip48c810y"><rect x="0" y="20" width="400" height="330"/></clipPath><clipPath class="axesclip" id="clip48c810xy"><rect x="50" y="20" width="203" height="330"/></clipPath></g><g class="gradients"/><g class="patterns"/></defs><g class="bglayer"/><g class="layer-below"><g class="imagelayer"/><g class="shapelayer"/></g><g class="cartesianlayer"><g class="subplot xy"><g class="layer-subplot"><g class="shapelayer"/><g class="imagelayer"/></g><g class="gridlayer"><g class="x"><path class="xgrid crisp" transform="translate(61.74,0)" d="M0,20v330" style="stroke: rgb(235, 240, 248); stroke-opacity: 1; stroke-width: 1px;"/><path class="xgrid crisp" transform="translate(112.72999999999999,0)" d="M0,20v330" style="stroke: rgb(235, 240, 248); stroke-opacity: 1; stroke-width: 1px;"/><path class="xgrid crisp" transform="translate(163.72,0)" d="M0,20v330" style="stroke: rgb(235, 240, 248); stroke-opacity: 1; stroke-width: 1px;"/><path class="xgrid crisp" transform="translate(214.86,0)" d="M0,20v330" style="stroke: rgb(235, 240, 248); stroke-opacity: 1; stroke-width: 1px;"/></g><g class="y"><path class="ygrid crisp" transform="translate(0,305.77)" d="M50,0h203" style="stroke: rgb(235, 240, 248); stroke-opacity: 1; stroke-width: 1px;"/><path class="ygrid crisp" transform="translate(0,261.55)" d="M50,0h203" style="stroke: rgb(235, 240, 248); stroke-opacity: 1; stroke-width: 1px;"/><path class="ygrid crisp" transform="translate(0,217.32)" d="M50,0h203" style="stroke: rgb(235, 240, 248); stroke-opacity: 1; stroke-width: 1px;"/><path class="ygrid crisp" transform="translate(0,173.09)" d="M50,0h203" style="stroke: rgb(235, 240, 248); stroke-opacity: 1; stroke-width: 1px;"/><path class="ygrid crisp" transform="translate(0,128.86)" d="M50,0h203" style="stroke: rgb(235, 240, 248); stroke-opacity: 1; stroke-width: 1px;"/><path class="ygrid crisp" transform="translate(0,84.64)" d="M50,0h203" style="stroke: rgb(235, 240, 248); stroke-opacity: 1; stroke-width: 1px;"/><path class="ygrid crisp" transform="translate(0,40.41)" d="M50,0h203" style="stroke: rgb(235, 240, 248); stroke-opacity: 1; stroke-width: 1px;"/></g></g><g class="zerolinelayer"><path class="yzl zl crisp" transform="translate(0,350)" d="M50,0h203" style="stroke: rgb(235, 240, 248); stroke-opacity: 1; stroke-width: 2px;"/></g><path class="xlines-below"/><path class="ylines-below"/><g class="overlines-below"/><g class="xaxislayer-below"/><g class="yaxislayer-below"/><g class="overaxes-below"/><g class="plot" transform="translate(50,20)" clip-path="url(#clip48c810xyplot)"><g class="scatterlayer mlayer"><g class="trace scatter trace761240" style="stroke-miterlimit: 2; opacity: 1;"><g class="fills"><g><path class="js-fill" d="M0,43.43Q2.56,44.33 4.47,45.1C7.96,46.51 16.06,52.69 19.14,51.51C21.5,50.61 21.62,45.31 23.05,42.96C24.18,41.1 25.47,39.99 26.68,38.32C28.03,36.46 29.86,33.63 30.74,32.27C31.18,31.59 31.29,31.3 31.71,30.71C32.33,29.84 33.3,29 34.23,27.62C35.79,25.3 37.9,19.02 39.68,17.7C40.53,17.07 41.36,17.29 42.19,17.16C42.99,17.04 43.86,17 44.57,16.93C45.14,16.87 46.1,16.84 46.1,16.78C46.1,16.7 43.48,16.38 43.45,16.5C43.41,16.67 48.15,18.65 48.48,18.28C48.68,18.06 47.59,16.61 47.64,16.58C47.75,16.52 52.85,25.5 53.37,25.28C53.79,25.1 52.34,18.73 51.97,18.77C50.57,18.92 50.19,103.37 51.97,114.4C52.35,116.78 53.67,118.45 53.37,118.63C52.95,118.87 47.84,112.07 47.64,112.21C47.54,112.27 48.68,113.69 48.48,113.91C48.15,114.28 43.41,112.3 43.45,112.13C43.48,112.01 46.1,112.33 46.1,112.41C46.1,112.47 45.14,112.5 44.57,112.55C43.86,112.62 42.99,112.65 42.19,112.78C41.36,112.91 40.56,112.75 39.68,113.33C38.01,114.43 35.73,119.01 34.23,120.97C33.25,122.25 32.33,123.19 31.71,124.06C31.29,124.65 31.18,124.93 30.74,125.61C29.86,126.97 28.16,130.21 26.68,131.67C25.54,132.79 24.1,132.71 23.05,134.04C21.33,136.21 21.67,143.95 19.14,144.86C16.06,145.96 8.04,136.89 4.47,136.17Q2.63,135.8 0,136.78Z" style="fill: rgb(38, 16, 96); fill-opacity: 0.05; stroke-width: 0;"/></g></g><g class="errorbars"/><g class="lines"><path class="js-line" d="M0,43.43Q2.56,44.33 4.47,45.1C7.96,46.51 16.06,52.69 19.14,51.51C21.5,50.61 21.62,45.31 23.05,42.96C24.18,41.1 25.47,39.99 26.68,38.32C28.03,36.46 29.86,33.63 30.74,32.27C31.18,31.59 31.29,31.3 31.71,30.71C32.33,29.84 33.3,29 34.23,27.62C35.79,25.3 37.9,19.02 39.68,17.7C40.53,17.07 41.36,17.29 42.19,17.16C42.99,17.04 43.86,17 44.57,16.93C45.14,16.87 46.1,16.84 46.1,16.78C46.1,16.7 43.48,16.38 43.45,16.5C43.41,16.67 48.15,18.65 48.48,18.28C48.68,18.06 47.59,16.61 47.64,16.58C47.75,16.52 52.85,25.5 53.37,25.28C53.79,25.1 52.34,18.73 51.97,18.77C50.57,18.92 50.19,103.37 51.97,114.4C52.35,116.78 53.67,118.45 53.37,118.63C52.95,118.87 47.84,112.07 47.64,112.21C47.54,112.27 48.68,113.69 48.48,113.91C48.15,114.28 43.41,112.3 43.45,112.13C43.48,112.01 46.1,112.33 46.1,112.41C46.1,112.47 45.14,112.5 44.57,112.55C43.86,112.62 42.99,112.65 42.19,112.78C41.36,112.91 40.56,112.75 39.68,113.33C38.01,114.43 35.73,119.01 34.23,120.97C33.25,122.25 32.33,123.19 31.71,124.06C31.29,124.65 31.18,124.93 30.74,125.61C29.86,126.97 28.16,130.21 26.68,131.67C25.54,132.79 24.1,132.71 23.05,134.04C21.33,136.21 21.67,143.95 19.14,144.86C16.06,145.96 8.04,136.89 4.47,136.17Q2.63,135.8 0,136.78" style="vector-effect: non-scaling-stroke; fill: none; stroke: rgb(255, 255, 255); stroke-opacity: 0; stroke-width: 2px; opacity: 1;"/></g><g class="points"/><g class="text"/></g><g class="trace scatter tracedaf382" style="stroke-miterlimit: 2; opacity: 1;"><g class="fills"><g><path class="js-fill" d="M0,168.59Q2.78,162.8 4.47,157.59C8.31,145.76 15.31,108.7 19.14,98.2C20.6,94.2 21.4,91.1 23.05,90.25C24.11,89.7 25.66,89.81 26.68,90.84C29.42,93.6 29.12,115.96 30.74,117.1C31.05,117.32 31.41,116.71 31.71,116.91C32.82,117.66 32.97,125.54 34.23,129.91C35.57,134.58 37.81,141.77 39.68,144.02C40.51,145.01 41.4,145.65 42.19,145.56C43.04,145.46 43.9,143.11 44.57,143.18C45.18,143.24 46.26,145.34 46.1,145.52C45.93,145.71 43.4,144.54 43.45,144.17C43.51,143.68 48.25,142.75 48.48,143.11C48.6,143.3 47.66,144.29 47.64,144.28C47.58,144.24 52.88,134.73 53.37,134.93C53.75,135.08 52.33,137.97 51.97,141.33C50.71,153.03 50.71,220.88 51.97,221.02C52.33,221.06 53.86,214.86 53.37,214.62C52.79,214.34 47.68,221.73 47.64,221.7C47.62,221.69 48.61,220.71 48.48,220.52C48.24,220.16 43.51,221.09 43.45,221.58C43.4,221.95 45.93,223.12 46.1,222.93C46.26,222.75 45.18,220.65 44.57,220.59C43.9,220.52 43.04,222.88 42.19,222.98C41.4,223.07 40.53,222.39 39.68,221.43C37.9,219.42 35.58,213.51 34.23,209.6C32.99,206 32.73,199.55 31.71,198.88C31.4,198.68 31.06,199.28 30.74,199.06C29.24,198.03 29.18,179.8 26.68,177.36C25.66,176.36 24.15,176.3 23.05,176.77C21.54,177.41 20.57,179.44 19.14,182.44C15.2,190.73 8.35,222.96 4.47,232.72Q2.79,236.94 0,241.45Z" style="fill: rgb(0, 68, 148); fill-opacity: 0.05; stroke-width: 0;"/></g></g><g class="errorbars"/><g class="lines"><path class="js-line" d="M0,168.59Q2.78,162.8 4.47,157.59C8.31,145.76 15.31,108.7 19.14,98.2C20.6,94.2 21.4,91.1 23.05,90.25C24.11,89.7 25.66,89.81 26.68,90.84C29.42,93.6 29.12,115.96 30.74,117.1C31.05,117.32 31.41,116.71 31.71,116.91C32.82,117.66 32.97,125.54 34.23,129.91C35.57,134.58 37.81,141.77 39.68,144.02C40.51,145.01 41.4,145.65 42.19,145.56C43.04,145.46 43.9,143.11 44.57,143.18C45.18,143.24 46.26,145.34 46.1,145.52C45.93,145.71 43.4,144.54 43.45,144.17C43.51,143.68 48.25,142.75 48.48,143.11C48.6,143.3 47.66,144.29 47.64,144.28C47.58,144.24 52.88,134.73 53.37,134.93C53.75,135.08 52.33,137.97 51.97,141.33C50.71,153.03 50.71,220.88 51.97,221.02C52.33,221.06 53.86,214.86 53.37,214.62C52.79,214.34 47.68,221.73 47.64,221.7C47.62,221.69 48.61,220.71 48.48,220.52C48.24,220.16 43.51,221.09 43.45,221.58C43.4,221.95 45.93,223.12 46.1,222.93C46.26,222.75 45.18,220.65 44.57,220.59C43.9,220.52 43.04,222.88 42.19,222.98C41.4,223.07 40.53,222.39 39.68,221.43C37.9,219.42 35.58,213.51 34.23,209.6C32.99,206 32.73,199.55 31.71,198.88C31.4,198.68 31.06,199.28 30.74,199.06C29.24,198.03 29.18,179.8 26.68,177.36C25.66,176.36 24.15,176.3 23.05,176.77C21.54,177.41 20.57,179.44 19.14,182.44C15.2,190.73 8.35,222.96 4.47,232.72Q2.79,236.94 0,241.45" style="vector-effect: non-scaling-stroke; fill: none; stroke: rgb(255, 255, 255); stroke-opacity: 0; stroke-width: 2px; opacity: 1;"/></g><g class="points"/><g class="text"/></g><g class="trace scatter trace4a5ab6" style="stroke-miterlimit: 2; opacity: 1;"><g class="fills"><g><path class="js-fill" d="M0,214.5Q2.74,215.14 4.47,214.39C8.22,212.76 15.88,199.18 19.14,199.38C20.95,199.49 21.77,204.51 23.05,204.52C24.28,204.53 25.44,201.46 26.68,199.84C28,198.12 29.79,194.68 30.74,194.49C31.13,194.41 31.38,195.16 31.71,195.05C32.49,194.8 32.92,190.91 34.23,189.44C35.56,187.95 38.17,186.49 39.68,186.23C40.64,186.06 41.36,186.68 42.19,186.71C42.99,186.74 43.91,186.8 44.57,186.46C45.21,186.13 46.23,184.97 46.1,184.74C45.96,184.49 43.54,184.78 43.45,185.17C43.32,185.76 48.24,188.84 48.48,188.62C48.61,188.5 47.54,187.17 47.64,187.09C47.86,186.92 53.44,192.17 53.37,192.26C53.34,192.3 52.37,191.1 51.97,191.31C49.46,192.64 50.33,249.42 51.97,257.34C52.35,259.17 53.61,260.4 53.37,260.57C53.01,260.83 47.86,255.23 47.64,255.4C47.54,255.48 48.61,256.81 48.48,256.93C48.24,257.15 43.32,254.06 43.45,253.47C43.54,253.08 45.96,252.8 46.1,253.05C46.23,253.28 45.21,254.43 44.57,254.76C43.91,255.1 42.99,255.05 42.19,255.02C41.36,254.99 40.64,254.37 39.68,254.54C38.17,254.8 35.61,256.52 34.23,257.75C33.1,258.75 32.41,260.94 31.71,261.08C31.35,261.15 31.16,260.49 30.74,260.52C29.84,260.58 27.92,262.37 26.68,263.6C25.34,264.92 24.38,268.08 23.05,268.27C21.85,268.44 20.86,265.42 19.14,265.41C15.82,265.39 8.09,274.65 4.47,275.86Q2.67,276.46 0,275.97Z" style="fill: rgb(234, 35, 41); fill-opacity: 0.05; stroke-width: 0;"/></g></g><g class="errorbars"/><g class="lines"><path class="js-line" d="M0,214.5Q2.74,215.14 4.47,214.39C8.22,212.76 15.88,199.18 19.14,199.38C20.95,199.49 21.77,204.51 23.05,204.52C24.28,204.53 25.44,201.46 26.68,199.84C28,198.12 29.79,194.68 30.74,194.49C31.13,194.41 31.38,195.16 31.71,195.05C32.49,194.8 32.92,190.91 34.23,189.44C35.56,187.95 38.17,186.49 39.68,186.23C40.64,186.06 41.36,186.68 42.19,186.71C42.99,186.74 43.91,186.8 44.57,186.46C45.21,186.13 46.23,184.97 46.1,184.74C45.96,184.49 43.54,184.78 43.45,185.17C43.32,185.76 48.24,188.84 48.48,188.62C48.61,188.5 47.54,187.17 47.64,187.09C47.86,186.92 53.44,192.17 53.37,192.26C53.34,192.3 52.37,191.1 51.97,191.31C49.46,192.64 50.33,249.42 51.97,257.34C52.35,259.17 53.61,260.4 53.37,260.57C53.01,260.83 47.86,255.23 47.64,255.4C47.54,255.48 48.61,256.81 48.48,256.93C48.24,257.15 43.32,254.06 43.45,253.47C43.54,253.08 45.96,252.8 46.1,253.05C46.23,253.28 45.21,254.43 44.57,254.76C43.91,255.1 42.99,255.05 42.19,255.02C41.36,254.99 40.64,254.37 39.68,254.54C38.17,254.8 35.61,256.52 34.23,257.75C33.1,258.75 32.41,260.94 31.71,261.08C31.35,261.15 31.16,260.49 30.74,260.52C29.84,260.58 27.92,262.37 26.68,263.6C25.34,264.92 24.38,268.08 23.05,268.27C21.85,268.44 20.86,265.42 19.14,265.41C15.82,265.39 8.09,274.65 4.47,275.86Q2.67,276.46 0,275.97" style="vector-effect: non-scaling-stroke; fill: none; stroke: rgb(255, 255, 255); stroke-opacity: 0; stroke-width: 2px; opacity: 1;"/></g><g class="points"/><g class="text"/></g><g class="trace scatter tracee8582b" style="stroke-miterlimit: 2; opacity: 1;"><g class="fills"><g><path class="js-fill" d="M0,219.19Q2.23,223.9 4.47,226.26C7.75,229.72 15.69,235.85 19.14,236.66C20.76,237.04 21.78,235.95 23.05,236.05C24.3,236.15 25.64,237.79 26.68,237.25C28.7,236.19 29.81,226.11 30.74,223.32C31.15,222.1 31.33,221.84 31.71,220.72C32.38,218.71 32.66,214.13 34.23,212.21C35.54,210.6 38.22,209.27 39.68,209.3C40.68,209.32 41.34,210.68 42.19,210.79C42.97,210.89 43.86,210.12 44.57,210.11C45.13,210.1 46.07,210.57 46.1,210.49C46.14,210.38 43.38,209.23 43.45,208.98C43.55,208.66 48.48,209.16 48.48,209.26C48.48,209.3 47.73,209.53 47.64,209.38C47.35,208.89 53.16,201.43 53.37,201.55C53.5,201.62 52.35,202.88 51.97,204.63C50.32,212.23 49.44,266.91 51.97,268.38C52.37,268.61 53.31,267.51 53.37,267.58C53.49,267.74 47.46,272.77 47.64,273.13C47.7,273.25 48.48,273.05 48.48,273.01C48.48,272.91 43.48,272.97 43.45,272.73C43.43,272.56 45.95,271.75 46.1,271.97C46.24,272.18 45.19,273.77 44.57,273.86C43.9,273.96 43.02,272.38 42.19,272.26C41.39,272.14 40.69,272.83 39.68,273.05C38.22,273.36 35.54,272.68 34.23,273.68C32.77,274.79 32.54,279.14 31.71,279.92C31.39,280.22 31.08,279.91 30.74,280.24C29.56,281.4 28.56,290.96 26.68,291.89C25.63,292.41 24.3,290.79 23.05,290.69C21.78,290.59 20.83,291.49 19.14,291.3C15.77,290.92 7.71,288.16 4.47,285.46Q2.11,283.5 0,278.38Z" style="fill: rgb(0, 0, 0); fill-opacity: 0.05; stroke-width: 0;"/></g></g><g class="errorbars"/><g class="lines"><path class="js-line" d="M0,219.19Q2.23,223.9 4.47,226.26C7.75,229.72 15.69,235.85 19.14,236.66C20.76,237.04 21.78,235.95 23.05,236.05C24.3,236.15 25.64,237.79 26.68,237.25C28.7,236.19 29.81,226.11 30.74,223.32C31.15,222.1 31.33,221.84 31.71,220.72C32.38,218.71 32.66,214.13 34.23,212.21C35.54,210.6 38.22,209.27 39.68,209.3C40.68,209.32 41.34,210.68 42.19,210.79C42.97,210.89 43.86,210.12 44.57,210.11C45.13,210.1 46.07,210.57 46.1,210.49C46.14,210.38 43.38,209.23 43.45,208.98C43.55,208.66 48.48,209.16 48.48,209.26C48.48,209.3 47.73,209.53 47.64,209.38C47.35,208.89 53.16,201.43 53.37,201.55C53.5,201.62 52.35,202.88 51.97,204.63C50.32,212.23 49.44,266.91 51.97,268.38C52.37,268.61 53.31,267.51 53.37,267.58C53.49,267.74 47.46,272.77 47.64,273.13C47.7,273.25 48.48,273.05 48.48,273.01C48.48,272.91 43.48,272.97 43.45,272.73C43.43,272.56 45.95,271.75 46.1,271.97C46.24,272.18 45.19,273.77 44.57,273.86C43.9,273.96 43.02,272.38 42.19,272.26C41.39,272.14 40.69,272.83 39.68,273.05C38.22,273.36 35.54,272.68 34.23,273.68C32.77,274.79 32.54,279.14 31.71,279.92C31.39,280.22 31.08,279.91 30.74,280.24C29.56,281.4 28.56,290.96 26.68,291.89C25.63,292.41 24.3,290.79 23.05,290.69C21.78,290.59 20.83,291.49 19.14,291.3C15.77,290.92 7.71,288.16 4.47,285.46Q2.11,283.5 0,278.38" style="vector-effect: non-scaling-stroke; fill: none; stroke: rgb(255, 255, 255); stroke-opacity: 0; stroke-width: 2px; opacity: 1;"/></g><g class="points"/><g class="text"/></g><g class="trace scatter trace0312b8" style="stroke-miterlimit: 2; opacity: 1;"><g class="fills"><g><path class="js-fill" d="M0,231.38Q-0.12,198.84 4.47,196.82C7.76,195.37 16.02,203.6 19.14,207.16C21.28,209.6 21.78,212.16 23.05,214.63C24.29,217.04 25.57,218.89 26.68,221.78C28.23,225.8 29.85,233.51 30.74,236.75C31.17,238.31 31.31,238.81 31.71,240.22C32.35,242.45 32.83,246.39 34.23,248.85C35.55,251.17 38.11,253.56 39.68,254.71C40.6,255.39 41.36,255.56 42.19,255.9C42.99,256.23 43.91,256.92 44.57,256.74C45.21,256.56 46.12,254.88 46.1,254.87C46.08,254.85 43.42,257.78 43.45,257.81C43.49,257.85 48.38,252.73 48.48,252.81C48.52,252.85 47.52,253.83 47.64,254C47.89,254.34 53.07,251.74 53.37,252.15C53.56,252.41 52.35,252.96 51.97,254.19C50.3,259.58 49.66,299.26 51.97,302C52.37,302.47 53.37,302.21 53.37,302.24C53.36,302.3 47.91,302.38 47.64,301.81C47.51,301.52 48.52,300.67 48.48,300.63C48.38,300.55 43.49,305.66 43.45,305.62C43.42,305.59 46.08,302.66 46.1,302.68C46.12,302.69 45.21,304.38 44.57,304.56C43.91,304.74 42.99,304.04 42.19,303.71C41.36,303.36 40.65,303.07 39.68,302.52C38.19,301.68 35.55,300.57 34.23,298.94C32.87,297.28 32.44,293.84 31.71,292.59C31.36,291.99 31.11,292.03 30.74,291.39C29.74,289.67 28.2,283.72 26.68,280.98C25.56,278.96 24.28,277.76 23.05,276.11C21.77,274.4 21.11,272.62 19.14,270.91C15.97,268.16 7.71,261.28 4.47,262.84Q0.44,264.77 0,288.3Z" style="fill: rgb(93, 140, 0); fill-opacity: 0.05; stroke-width: 0;"/></g></g><g class="errorbars"/><g class="lines"><path class="js-line" d="M0,231.38Q-0.12,198.84 4.47,196.82C7.76,195.37 16.02,203.6 19.14,207.16C21.28,209.6 21.78,212.16 23.05,214.63C24.29,217.04 25.57,218.89 26.68,221.78C28.23,225.8 29.85,233.51 30.74,236.75C31.17,238.31 31.31,238.81 31.71,240.22C32.35,242.45 32.83,246.39 34.23,248.85C35.55,251.17 38.11,253.56 39.68,254.71C40.6,255.39 41.36,255.56 42.19,255.9C42.99,256.23 43.91,256.92 44.57,256.74C45.21,256.56 46.12,254.88 46.1,254.87C46.08,254.85 43.42,257.78 43.45,257.81C43.49,257.85 48.38,252.73 48.48,252.81C48.52,252.85 47.52,253.83 47.64,254C47.89,254.34 53.07,251.74 53.37,252.15C53.56,252.41 52.35,252.96 51.97,254.19C50.3,259.58 49.66,299.26 51.97,302C52.37,302.47 53.37,302.21 53.37,302.24C53.36,302.3 47.91,302.38 47.64,301.81C47.51,301.52 48.52,300.67 48.48,300.63C48.38,300.55 43.49,305.66 43.45,305.62C43.42,305.59 46.08,302.66 46.1,302.68C46.12,302.69 45.21,304.38 44.57,304.56C43.91,304.74 42.99,304.04 42.19,303.71C41.36,303.36 40.65,303.07 39.68,302.52C38.19,301.68 35.55,300.57 34.23,298.94C32.87,297.28 32.44,293.84 31.71,292.59C31.36,291.99 31.11,292.03 30.74,291.39C29.74,289.67 28.2,283.72 26.68,280.98C25.56,278.96 24.28,277.76 23.05,276.11C21.77,274.4 21.11,272.62 19.14,270.91C15.97,268.16 7.71,261.28 4.47,262.84Q0.44,264.77 0,288.3" style="vector-effect: non-scaling-stroke; fill: none; stroke: rgb(255, 255, 255); stroke-opacity: 0; stroke-width: 2px; opacity: 1;"/></g><g class="points"/><g class="text"/></g><g class="trace scatter tracee0be88" style="stroke-miterlimit: 2; opacity: 1;"><g class="fills"><g><path class="js-fill" d="M0,240.51Q2.7,240.68 4.47,241.63C8.14,243.59 16.05,250.32 19.14,254.9C21.48,258.37 21.58,262.68 23.05,265.57C24.16,267.75 25.26,270.63 26.68,270.97C27.88,271.26 29.84,268.83 30.74,268.71C31.16,268.66 31.34,269.05 31.71,268.96C32.39,268.79 33.19,267.46 34.23,266.68C35.66,265.61 38.24,263.24 39.68,263.35C40.71,263.43 41.31,265.26 42.19,265.47C42.95,265.65 43.9,265.24 44.57,264.89C45.18,264.57 46.05,263.49 46.1,263.53C46.16,263.59 43.28,266.56 43.45,266.76C43.65,266.99 48.49,263.77 48.48,263.76C48.48,263.76 47.64,264.23 47.64,264.24C47.65,264.26 53.21,261.04 53.37,261.25C53.46,261.37 52.35,261.79 51.97,262.78C50.17,267.42 50.17,307.62 51.97,308.32C52.35,308.47 53.51,307.06 53.37,306.79C53.14,306.35 48.04,306.77 47.64,307.5C47.4,307.93 48.71,308.86 48.48,309.29C48.11,309.97 43.49,310.16 43.45,310.02C43.42,309.91 46.02,308.92 46.1,309.06C46.17,309.18 45.15,310.4 44.57,310.43C43.88,310.47 43.04,308.97 42.19,308.73C41.4,308.5 40.67,308.75 39.68,308.88C38.21,309.07 35.63,309.24 34.23,309.94C33.13,310.49 32.39,312.05 31.71,312.22C31.34,312.31 31.16,311.92 30.74,311.97C29.84,312.09 27.88,314.52 26.68,314.23C25.26,313.89 24.27,310.69 23.05,308.82C21.76,306.85 21.19,304.69 19.14,302.71C16,299.67 8.03,295.47 4.47,294Q2.62,293.24 0,292.88Z" style="fill: rgb(114, 55, 105); fill-opacity: 0.05; stroke-width: 0;"/></g></g><g class="errorbars"/><g class="lines"><path class="js-line" d="M0,240.51Q2.7,240.68 4.47,241.63C8.14,243.59 16.05,250.32 19.14,254.9C21.48,258.37 21.58,262.68 23.05,265.57C24.16,267.75 25.26,270.63 26.68,270.97C27.88,271.26 29.84,268.83 30.74,268.71C31.16,268.66 31.34,269.05 31.71,268.96C32.39,268.79 33.19,267.46 34.23,266.68C35.66,265.61 38.24,263.24 39.68,263.35C40.71,263.43 41.31,265.26 42.19,265.47C42.95,265.65 43.9,265.24 44.57,264.89C45.18,264.57 46.05,263.49 46.1,263.53C46.16,263.59 43.28,266.56 43.45,266.76C43.65,266.99 48.49,263.77 48.48,263.76C48.48,263.76 47.64,264.23 47.64,264.24C47.65,264.26 53.21,261.04 53.37,261.25C53.46,261.37 52.35,261.79 51.97,262.78C50.17,267.42 50.17,307.62 51.97,308.32C52.35,308.47 53.51,307.06 53.37,306.79C53.14,306.35 48.04,306.77 47.64,307.5C47.4,307.93 48.71,308.86 48.48,309.29C48.11,309.97 43.49,310.16 43.45,310.02C43.42,309.91 46.02,308.92 46.1,309.06C46.17,309.18 45.15,310.4 44.57,310.43C43.88,310.47 43.04,308.97 42.19,308.73C41.4,308.5 40.67,308.75 39.68,308.88C38.21,309.07 35.63,309.24 34.23,309.94C33.13,310.49 32.39,312.05 31.71,312.22C31.34,312.31 31.16,311.92 30.74,311.97C29.84,312.09 27.88,314.52 26.68,314.23C25.26,313.89 24.27,310.69 23.05,308.82C21.76,306.85 21.19,304.69 19.14,302.71C16,299.67 8.03,295.47 4.47,294Q2.62,293.24 0,292.88" style="vector-effect: non-scaling-stroke; fill: none; stroke: rgb(255, 255, 255); stroke-opacity: 0; stroke-width: 2px; opacity: 1;"/></g><g class="points"/><g class="text"/></g><g class="trace scatter trace915a68" style="stroke-miterlimit: 2; opacity: 1;"><g class="fills"><g><path class="js-fill" d="M0,251.15Q0.99,266.7 4.47,268.66C7.67,270.47 15.97,263.34 19.14,264.24C21.1,264.79 21.67,267.54 23.05,268.63C24.21,269.54 25.41,270.07 26.68,270.57C27.97,271.07 29.87,271.75 30.74,271.63C31.19,271.57 31.3,271.11 31.71,271.06C32.34,270.99 33.22,271.59 34.23,271.85C35.69,272.23 38.22,272.56 39.68,272.97C40.69,273.26 41.38,273.98 42.19,273.89C43.02,273.8 43.88,272.91 44.57,272.38C45.16,271.93 46.07,270.95 46.1,270.98C46.15,271.03 43.44,274.04 43.45,274.05C43.47,274.07 48.1,268.26 48.48,268.47C48.72,268.6 47.26,271.04 47.64,271.38C48.19,271.87 52.96,270.09 53.37,268.98C53.66,268.19 52.34,266.06 51.97,266.15C50.61,266.47 50.61,303.59 51.97,309.41C52.34,310.98 53.71,311.69 53.37,312.24C52.92,312.99 47.75,312.69 47.64,312.36C47.59,312.22 48.49,311.74 48.48,311.73C48.46,311.7 43.35,314.82 43.45,315.03C43.52,315.17 46.06,314.56 46.1,314.24C46.13,313.98 45.13,313.35 44.57,313.36C43.86,313.38 43.02,314.78 42.19,314.87C41.38,314.96 40.69,314.24 39.68,313.95C38.22,313.54 35.67,312.6 34.23,312.84C33.19,313.01 32.31,314.48 31.71,314.32C31.22,314.19 31.31,313.05 30.74,312.61C29.91,311.97 28,311.66 26.68,311.55C25.45,311.45 24.18,312.33 23.05,311.89C21.62,311.33 21.1,308.05 19.14,307.5C15.97,306.6 7.66,313.43 4.47,311.92Q1.7,310.61 0,301.24Z" style="fill: rgb(230, 172, 33); fill-opacity: 0.05; stroke-width: 0;"/></g></g><g class="errorbars"/><g class="lines"><path class="js-line" d="M0,251.15Q0.99,266.7 4.47,268.66C7.67,270.47 15.97,263.34 19.14,264.24C21.1,264.79 21.67,267.54 23.05,268.63C24.21,269.54 25.41,270.07 26.68,270.57C27.97,271.07 29.87,271.75 30.74,271.63C31.19,271.57 31.3,271.11 31.71,271.06C32.34,270.99 33.22,271.59 34.23,271.85C35.69,272.23 38.22,272.56 39.68,272.97C40.69,273.26 41.38,273.98 42.19,273.89C43.02,273.8 43.88,272.91 44.57,272.38C45.16,271.93 46.07,270.95 46.1,270.98C46.15,271.03 43.44,274.04 43.45,274.05C43.47,274.07 48.1,268.26 48.48,268.47C48.72,268.6 47.26,271.04 47.64,271.38C48.19,271.87 52.96,270.09 53.37,268.98C53.66,268.19 52.34,266.06 51.97,266.15C50.61,266.47 50.61,303.59 51.97,309.41C52.34,310.98 53.71,311.69 53.37,312.24C52.92,312.99 47.75,312.69 47.64,312.36C47.59,312.22 48.49,311.74 48.48,311.73C48.46,311.7 43.35,314.82 43.45,315.03C43.52,315.17 46.06,314.56 46.1,314.24C46.13,313.98 45.13,313.35 44.57,313.36C43.86,313.38 43.02,314.78 42.19,314.87C41.38,314.96 40.69,314.24 39.68,313.95C38.22,313.54 35.67,312.6 34.23,312.84C33.19,313.01 32.31,314.48 31.71,314.32C31.22,314.19 31.31,313.05 30.74,312.61C29.91,311.97 28,311.66 26.68,311.55C25.45,311.45 24.18,312.33 23.05,311.89C21.62,311.33 21.1,308.05 19.14,307.5C15.97,306.6 7.66,313.43 4.47,311.92Q1.7,310.61 0,301.24" style="vector-effect: non-scaling-stroke; fill: none; stroke: rgb(255, 255, 255); stroke-opacity: 0; stroke-width: 2px; opacity: 1;"/></g><g class="points"/><g class="text"/></g><g class="trace scatter trace438054" style="stroke-miterlimit: 2; opacity: 1;"><g class="fills"><g><path class="js-fill" d="M0,267.36Q2.58,269.35 4.47,270.96C7.98,273.95 15.61,282.78 19.14,284.2C20.71,284.83 21.9,284.89 23.05,284.31C24.51,283.58 25.59,281.37 26.68,279.14C28.29,275.84 29.53,266.5 30.74,265.94C31.07,265.79 31.34,266.44 31.71,266.36C32.4,266.21 33.12,263.8 34.23,263.56C35.62,263.26 38.29,264.93 39.68,265.95C40.79,266.77 41.41,267.76 42.19,268.86C43.06,270.1 43.72,272.77 44.57,273.09C45.06,273.27 46.03,272.88 46.1,272.55C46.2,272.06 43.39,270.16 43.45,270.09C43.52,270 48.45,272.92 48.48,273.66C48.49,273.97 47.59,274.25 47.64,274.35C47.76,274.59 53.23,273.65 53.37,273.05C53.45,272.72 52.36,271.73 51.97,271.91C50.13,272.78 50.13,309.05 51.97,312.9C52.36,313.71 53.45,313.7 53.37,314.03C53.23,314.62 47.76,315.57 47.64,315.33C47.59,315.23 48.53,314.86 48.48,314.64C48.37,314.16 43.43,313.48 43.45,313.35C43.46,313.26 46.08,313.37 46.1,313.53C46.12,313.65 45.11,314.16 44.57,314.07C43.83,313.94 43.05,312.55 42.19,312.12C41.41,311.72 40.66,311.82 39.68,311.48C38.19,310.97 35.72,309.26 34.23,309.1C33.25,309 32.3,309.18 31.71,309.62C31.18,310.02 31.2,310.68 30.74,311.47C29.87,312.97 28.14,316.22 26.68,317.84C25.54,319.11 24.37,320.3 23.05,320.74C21.84,321.15 20.81,321 19.14,320.63C15.76,319.87 7.86,316.27 4.47,314.22Q2.44,312.99 0,310.62Z" style="fill: rgb(240, 125, 0); fill-opacity: 0.05; stroke-width: 0;"/></g></g><g class="errorbars"/><g class="lines"><path class="js-line" d="M0,267.36Q2.58,269.35 4.47,270.96C7.98,273.95 15.61,282.78 19.14,284.2C20.71,284.83 21.9,284.89 23.05,284.31C24.51,283.58 25.59,281.37 26.68,279.14C28.29,275.84 29.53,266.5 30.74,265.94C31.07,265.79 31.34,266.44 31.71,266.36C32.4,266.21 33.12,263.8 34.23,263.56C35.62,263.26 38.29,264.93 39.68,265.95C40.79,266.77 41.41,267.76 42.19,268.86C43.06,270.1 43.72,272.77 44.57,273.09C45.06,273.27 46.03,272.88 46.1,272.55C46.2,272.06 43.39,270.16 43.45,270.09C43.52,270 48.45,272.92 48.48,273.66C48.49,273.97 47.59,274.25 47.64,274.35C47.76,274.59 53.23,273.65 53.37,273.05C53.45,272.72 52.36,271.73 51.97,271.91C50.13,272.78 50.13,309.05 51.97,312.9C52.36,313.71 53.45,313.7 53.37,314.03C53.23,314.62 47.76,315.57 47.64,315.33C47.59,315.23 48.53,314.86 48.48,314.64C48.37,314.16 43.43,313.48 43.45,313.35C43.46,313.26 46.08,313.37 46.1,313.53C46.12,313.65 45.11,314.16 44.57,314.07C43.83,313.94 43.05,312.55 42.19,312.12C41.41,311.72 40.66,311.82 39.68,311.48C38.19,310.97 35.72,309.26 34.23,309.1C33.25,309 32.3,309.18 31.71,309.62C31.18,310.02 31.2,310.68 30.74,311.47C29.87,312.97 28.14,316.22 26.68,317.84C25.54,319.11 24.37,320.3 23.05,320.74C21.84,321.15 20.81,321 19.14,320.63C15.76,319.87 7.86,316.27 4.47,314.22Q2.44,312.99 0,310.62" style="vector-effect: non-scaling-stroke; fill: none; stroke: rgb(255, 255, 255); stroke-opacity: 0; stroke-width: 2px; opacity: 1;"/></g><g class="points"/><g class="text"/></g><g class="trace scatter trace86f9d5" style="stroke-miterlimit: 2; opacity: 1;"><g class="fills"><g><path class="js-fill" d="M0,273.12Q1.59,282.28 4.47,284.24C7.66,286.41 15.85,284.99 19.14,284.34C20.91,283.99 21.81,282.56 23.05,282.7C24.32,282.84 25.42,284.44 26.68,285.27C27.98,286.12 29.9,286.91 30.74,287.73C31.26,288.24 31.21,288.96 31.71,289.25C32.3,289.59 33.31,289.71 34.23,289.36C35.82,288.76 38.13,285.15 39.68,284.11C40.61,283.48 41.35,283.13 42.19,282.99C42.98,282.86 43.86,283.12 44.57,283.19C45.14,283.25 46.1,283.36 46.1,283.38C46.1,283.41 43.45,283.29 43.45,283.26C43.45,283.22 48.48,283.24 48.48,283.21C48.48,283.2 47.69,283.03 47.64,283.16C47.49,283.54 53.52,287.38 53.37,288.11C53.3,288.43 52.36,288.01 51.97,288.53C50.1,291.04 50.1,321.29 51.97,322.68C52.36,322.97 53.35,322.49 53.37,322.26C53.41,321.77 47.59,319.79 47.64,319.59C47.66,319.52 48.48,319.63 48.48,319.64C48.48,319.67 43.45,319.65 43.45,319.69C43.45,319.72 46.1,319.84 46.1,319.81C46.1,319.79 45.14,319.68 44.57,319.62C43.86,319.55 42.98,319.29 42.19,319.42C41.35,319.56 40.67,320.05 39.68,320.54C38.2,321.27 35.74,323.16 34.23,323.51C33.27,323.73 32.3,323.74 31.71,323.4C31.21,323.11 31.29,322.2 30.74,321.88C29.91,321.4 27.94,322.13 26.68,321.7C25.36,321.25 24.32,319.27 23.05,319.13C21.81,318.99 20.91,320.42 19.14,320.77C15.85,321.42 7.71,322.4 4.47,320.67Q2.09,319.4 0,314.1Z" style="fill: rgb(0, 51, 255); fill-opacity: 0.05; stroke-width: 0;"/></g></g><g class="errorbars"/><g class="lines"><path class="js-line" d="M0,273.12Q1.59,282.28 4.47,284.24C7.66,286.41 15.85,284.99 19.14,284.34C20.91,283.99 21.81,282.56 23.05,282.7C24.32,282.84 25.42,284.44 26.68,285.27C27.98,286.12 29.9,286.91 30.74,287.73C31.26,288.24 31.21,288.96 31.71,289.25C32.3,289.59 33.31,289.71 34.23,289.36C35.82,288.76 38.13,285.15 39.68,284.11C40.61,283.48 41.35,283.13 42.19,282.99C42.98,282.86 43.86,283.12 44.57,283.19C45.14,283.25 46.1,283.36 46.1,283.38C46.1,283.41 43.45,283.29 43.45,283.26C43.45,283.22 48.48,283.24 48.48,283.21C48.48,283.2 47.69,283.03 47.64,283.16C47.49,283.54 53.52,287.38 53.37,288.11C53.3,288.43 52.36,288.01 51.97,288.53C50.1,291.04 50.1,321.29 51.97,322.68C52.36,322.97 53.35,322.49 53.37,322.26C53.41,321.77 47.59,319.79 47.64,319.59C47.66,319.52 48.48,319.63 48.48,319.64C48.48,319.67 43.45,319.65 43.45,319.69C43.45,319.72 46.1,319.84 46.1,319.81C46.1,319.79 45.14,319.68 44.57,319.62C43.86,319.55 42.98,319.29 42.19,319.42C41.35,319.56 40.67,320.05 39.68,320.54C38.2,321.27 35.74,323.16 34.23,323.51C33.27,323.73 32.3,323.74 31.71,323.4C31.21,323.11 31.29,322.2 30.74,321.88C29.91,321.4 27.94,322.13 26.68,321.7C25.36,321.25 24.32,319.27 23.05,319.13C21.81,318.99 20.91,320.42 19.14,320.77C15.85,321.42 7.71,322.4 4.47,320.67Q2.09,319.4 0,314.1" style="vector-effect: non-scaling-stroke; fill: none; stroke: rgb(255, 255, 255); stroke-opacity: 0; stroke-width: 2px; opacity: 1;"/></g><g class="points"/><g class="text"/></g><g class="trace scatter trace9d5e78" style="stroke-miterlimit: 2; opacity: 1;"><g class="fills"><g><path class="js-fill" d="M0,279.49Q2.75,278.17 4.47,278.78C8.25,280.11 15.72,294.7 19.14,294.97C20.78,295.1 21.68,292.3 23.05,291.82C24.21,291.42 25.47,292.14 26.68,291.85C28.04,291.52 29.83,289.95 30.74,289.7C31.16,289.59 31.34,289.79 31.71,289.66C32.38,289.42 33.16,288.13 34.23,287.79C35.64,287.34 38.22,287.71 39.68,287.88C40.68,288 41.43,287.98 42.19,288.43C43.09,288.97 43.93,290.15 44.57,291.2C45.25,292.32 46.08,295 46.1,294.99C46.13,294.98 43.15,288.05 43.45,287.89C43.77,287.72 48.76,294.23 48.48,294.92C48.39,295.14 47.65,295.11 47.64,295.08C47.62,295 53.11,292.71 53.37,293.07C53.53,293.29 52.33,293.83 51.97,294.91C50.67,298.78 50.26,322.15 51.97,324.5C52.35,325.02 53.39,324.87 53.37,324.95C53.34,325.12 47.65,324.81 47.64,324.68C47.64,324.63 48.46,324.64 48.48,324.51C48.52,324.17 43.6,321.83 43.45,322.04C43.33,322.21 46.1,324.59 46.1,324.59C46.1,324.59 45.19,323.41 44.57,323.08C43.91,322.73 42.99,322.76 42.19,322.59C41.36,322.41 40.68,322.15 39.68,322.03C38.22,321.86 35.64,321.49 34.23,321.94C33.16,322.28 32.3,323.97 31.71,323.81C31.19,323.67 31.34,321.79 30.74,321.58C29.91,321.29 28.04,323.39 26.68,323.72C25.47,324.01 24.27,323.56 23.05,323.69C21.76,323.83 20.82,324.76 19.14,324.57C15.76,324.18 8.01,318.01 4.47,317.49Q2.6,317.22 0,318.2Z" style="fill: rgb(140, 0, 0); fill-opacity: 0.05; stroke-width: 0;"/></g></g><g class="errorbars"/><g class="lines"><path class="js-line" d="M0,279.49Q2.75,278.17 4.47,278.78C8.25,280.11 15.72,294.7 19.14,294.97C20.78,295.1 21.68,292.3 23.05,291.82C24.21,291.42 25.47,292.14 26.68,291.85C28.04,291.52 29.83,289.95 30.74,289.7C31.16,289.59 31.34,289.79 31.71,289.66C32.38,289.42 33.16,288.13 34.23,287.79C35.64,287.34 38.22,287.71 39.68,287.88C40.68,288 41.43,287.98 42.19,288.43C43.09,288.97 43.93,290.15 44.57,291.2C45.25,292.32 46.08,295 46.1,294.99C46.13,294.98 43.15,288.05 43.45,287.89C43.77,287.72 48.76,294.23 48.48,294.92C48.39,295.14 47.65,295.11 47.64,295.08C47.62,295 53.11,292.71 53.37,293.07C53.53,293.29 52.33,293.83 51.97,294.91C50.67,298.78 50.26,322.15 51.97,324.5C52.35,325.02 53.39,324.87 53.37,324.95C53.34,325.12 47.65,324.81 47.64,324.68C47.64,324.63 48.46,324.64 48.48,324.51C48.52,324.17 43.6,321.83 43.45,322.04C43.33,322.21 46.1,324.59 46.1,324.59C46.1,324.59 45.19,323.41 44.57,323.08C43.91,322.73 42.99,322.76 42.19,322.59C41.36,322.41 40.68,322.15 39.68,322.03C38.22,321.86 35.64,321.49 34.23,321.94C33.16,322.28 32.3,323.97 31.71,323.81C31.19,323.67 31.34,321.79 30.74,321.58C29.91,321.29 28.04,323.39 26.68,323.72C25.47,324.01 24.27,323.56 23.05,323.69C21.76,323.83 20.82,324.76 19.14,324.57C15.76,324.18 8.01,318.01 4.47,317.49Q2.6,317.22 0,318.2" style="vector-effect: non-scaling-stroke; fill: none; stroke: rgb(255, 255, 255); stroke-opacity: 0; stroke-width: 2px; opacity: 1;"/></g><g class="points"/><g class="text"/></g><g class="trace scatter trace059ed4" style="stroke-miterlimit: 2; opacity: 1;"><g class="fills"/><g class="errorbars"/><g class="lines"><path class="js-line" d="M0,90.62Q2.61,90.66 4.47,91.23C8.01,92.32 16.06,99.65 19.14,98.48C21.6,97.54 21.56,91.33 23.05,88.81C24.16,86.94 25.45,85.91 26.68,84.35C28.01,82.66 29.8,79.95 30.74,79.02C31.14,78.63 31.35,78.68 31.71,78.3C32.41,77.57 33.24,76.06 34.23,74.56C35.71,72.34 38.06,67.92 39.68,66.26C40.58,65.34 41.32,64.75 42.19,64.53C42.96,64.33 43.86,64.69 44.57,64.76C45.14,64.82 46.1,64.85 46.1,64.91C46.1,64.99 43.45,65.09 43.45,65.19C43.45,65.33 48.39,65.94 48.48,65.69C48.52,65.58 47.69,65.05 47.64,65.11C47.49,65.28 52.92,72.57 53.37,72.34Q53.7,72.17 51.97,67.47" style="vector-effect: non-scaling-stroke; fill: none; stroke: rgb(38, 16, 96); stroke-opacity: 1; stroke-width: 7px; opacity: 1;"/></g><g class="points"/><g class="text"/></g><g class="trace scatter trace4b1dc9" style="stroke-miterlimit: 2; opacity: 1;"><g class="fills"/><g class="errorbars"/><g class="lines"/><g class="points"><path class="point" transform="translate(0,90.29)" d="M7.5,0A7.5,7.5 0 1,1 0,-7.5A7.5,7.5 0 0,1 7.5,0Z" style="opacity: 1; stroke-width: 0px; fill: rgb(38, 16, 96); fill-opacity: 0.25;"/><path class="point" transform="translate(4.47,91.17)" d="M7.5,0A7.5,7.5 0 1,1 0,-7.5A7.5,7.5 0 0,1 7.5,0Z" style="opacity: 1; stroke-width: 0px; fill: rgb(38, 16, 96); fill-opacity: 0.25;"/><path class="point" transform="translate(19.14,108.86)" d="M7.5,0A7.5,7.5 0 1,1 0,-7.5A7.5,7.5 0 0,1 7.5,0Z" style="opacity: 1; stroke-width: 0px; fill: rgb(38, 16, 96); fill-opacity: 0.25;"/><path class="point" transform="translate(23.05,86.75)" d="M7.5,0A7.5,7.5 0 1,1 0,-7.5A7.5,7.5 0 0,1 7.5,0Z" style="opacity: 1; stroke-width: 0px; fill: rgb(38, 16, 96); fill-opacity: 0.25;"/><path class="point" transform="translate(26.68,86.75)" d="M7.5,0A7.5,7.5 0 1,1 0,-7.5A7.5,7.5 0 0,1 7.5,0Z" style="opacity: 1; stroke-width: 0px; fill: rgb(38, 16, 96); fill-opacity: 0.25;"/><path class="point" transform="translate(30.74,77.91)" d="M7.5,0A7.5,7.5 0 1,1 0,-7.5A7.5,7.5 0 0,1 7.5,0Z" style="opacity: 1; stroke-width: 0px; fill: rgb(38, 16, 96); fill-opacity: 0.25;"/><path class="point" transform="translate(31.71,82.33)" d="M7.5,0A7.5,7.5 0 1,1 0,-7.5A7.5,7.5 0 0,1 7.5,0Z" style="opacity: 1; stroke-width: 0px; fill: rgb(38, 16, 96); fill-opacity: 0.25;"/><path class="point" transform="translate(34.23,73.48)" d="M7.5,0A7.5,7.5 0 1,1 0,-7.5A7.5,7.5 0 0,1 7.5,0Z" style="opacity: 1; stroke-width: 0px; fill: rgb(38, 16, 96); fill-opacity: 0.25;"/><path class="point" transform="translate(39.68,64.64)" d="M7.5,0A7.5,7.5 0 1,1 0,-7.5A7.5,7.5 0 0,1 7.5,0Z" style="opacity: 1; stroke-width: 0px; fill: rgb(38, 16, 96); fill-opacity: 0.25;"/><path class="point" transform="translate(42.19,54.91)" d="M7.5,0A7.5,7.5 0 1,1 0,-7.5A7.5,7.5 0 0,1 7.5,0Z" style="opacity: 1; stroke-width: 0px; fill: rgb(38, 16, 96); fill-opacity: 0.25;"/><path class="point" transform="translate(44.57,60.21)" d="M7.5,0A7.5,7.5 0 1,1 0,-7.5A7.5,7.5 0 0,1 7.5,0Z" style="opacity: 1; stroke-width: 0px; fill: rgb(38, 16, 96); fill-opacity: 0.25;"/><path class="point" transform="translate(46.1,64.64)" d="M7.5,0A7.5,7.5 0 1,1 0,-7.5A7.5,7.5 0 0,1 7.5,0Z" style="opacity: 1; stroke-width: 0px; fill: rgb(38, 16, 96); fill-opacity: 0.25;"/><path class="point" transform="translate(43.45,73.48)" d="M7.5,0A7.5,7.5 0 1,1 0,-7.5A7.5,7.5 0 0,1 7.5,0Z" style="opacity: 1; stroke-width: 0px; fill: rgb(38, 16, 96); fill-opacity: 0.25;"/><path class="point" transform="translate(48.48,69.06)" d="M7.5,0A7.5,7.5 0 1,1 0,-7.5A7.5,7.5 0 0,1 7.5,0Z" style="opacity: 1; stroke-width: 0px; fill: rgb(38, 16, 96); fill-opacity: 0.25;"/><path class="point" transform="translate(47.64,60.21)" d="M7.5,0A7.5,7.5 0 1,1 0,-7.5A7.5,7.5 0 0,1 7.5,0Z" style="opacity: 1; stroke-width: 0px; fill: rgb(38, 16, 96); fill-opacity: 0.25;"/><path class="point" transform="translate(53.37,95.6)" d="M7.5,0A7.5,7.5 0 1,1 0,-7.5A7.5,7.5 0 0,1 7.5,0Z" style="opacity: 1; stroke-width: 0px; fill: rgb(38, 16, 96); fill-opacity: 0.25;"/><path class="point" transform="translate(51.97,51.37)" d="M7.5,0A7.5,7.5 0 1,1 0,-7.5A7.5,7.5 0 0,1 7.5,0Z" style="opacity: 1; stroke-width: 0px; fill: rgb(38, 16, 96); fill-opacity: 0.25;"/></g><g class="text"/></g><g class="trace scatter trace3ed09a" style="stroke-miterlimit: 2; opacity: 1;"><g class="fills"/><g class="errorbars"/><g class="lines"><path class="js-line" d="M0,204.53Q2.79,199.61 4.47,195.04C8.36,184.45 15.12,149.32 19.14,140.59C20.55,137.53 21.54,135.84 23.05,134.88C24.15,134.18 25.66,133.56 26.68,134.29C29.29,136.16 29.18,156.52 30.74,158.12C31.05,158.44 31.41,158.01 31.71,158.31C32.78,159.37 32.98,166.3 34.23,170.35C35.57,174.72 37.77,181.85 39.68,183.57C40.5,184.3 41.41,184.48 42.19,184.3C43.05,184.1 43.9,182.05 44.57,182.13C45.18,182.2 46.27,184.12 46.1,184.34C45.93,184.57 43.44,183.72 43.45,183.42C43.47,183.01 48.27,181.87 48.48,182.2C48.59,182.37 47.66,183.32 47.64,183.3C47.58,183.26 52.8,174.21 53.37,174.44Q53.84,174.63 51.97,181.7" style="vector-effect: non-scaling-stroke; fill: none; stroke: rgb(0, 68, 148); stroke-opacity: 1; stroke-width: 7px; opacity: 1;"/></g><g class="points"/><g class="text"/></g><g class="trace scatter traceb02afa" style="stroke-miterlimit: 2; opacity: 1;"><g class="fills"/><g class="errorbars"/><g class="lines"/><g class="points"><path class="point" transform="translate(0,209.7)" d="M7.5,0A7.5,7.5 0 1,1 0,-7.5A7.5,7.5 0 0,1 7.5,0Z" style="opacity: 1; stroke-width: 0px; fill: rgb(0, 68, 148); fill-opacity: 0.25;"/><path class="point" transform="translate(4.47,192.9)" d="M7.5,0A7.5,7.5 0 1,1 0,-7.5A7.5,7.5 0 0,1 7.5,0Z" style="opacity: 1; stroke-width: 0px; fill: rgb(0, 68, 148); fill-opacity: 0.25;"/><path class="point" transform="translate(19.14,144.25)" d="M7.5,0A7.5,7.5 0 1,1 0,-7.5A7.5,7.5 0 0,1 7.5,0Z" style="opacity: 1; stroke-width: 0px; fill: rgb(0, 68, 148); fill-opacity: 0.25;"/><path class="point" transform="translate(23.05,130.98)" d="M7.5,0A7.5,7.5 0 1,1 0,-7.5A7.5,7.5 0 0,1 7.5,0Z" style="opacity: 1; stroke-width: 0px; fill: rgb(0, 68, 148); fill-opacity: 0.25;"/><path class="point" transform="translate(26.68,100.02)" d="M7.5,0A7.5,7.5 0 1,1 0,-7.5A7.5,7.5 0 0,1 7.5,0Z" style="opacity: 1; stroke-width: 0px; fill: rgb(0, 68, 148); fill-opacity: 0.25;"/><path class="point" transform="translate(30.74,184.05)" d="M7.5,0A7.5,7.5 0 1,1 0,-7.5A7.5,7.5 0 0,1 7.5,0Z" style="opacity: 1; stroke-width: 0px; fill: rgb(0, 68, 148); fill-opacity: 0.25;"/><path class="point" transform="translate(31.71,130.98)" d="M7.5,0A7.5,7.5 0 1,1 0,-7.5A7.5,7.5 0 0,1 7.5,0Z" style="opacity: 1; stroke-width: 0px; fill: rgb(0, 68, 148); fill-opacity: 0.25;"/><path class="point" transform="translate(34.23,187.59)" d="M7.5,0A7.5,7.5 0 1,1 0,-7.5A7.5,7.5 0 0,1 7.5,0Z" style="opacity: 1; stroke-width: 0px; fill: rgb(0, 68, 148); fill-opacity: 0.25;"/><path class="point" transform="translate(39.68,192.9)" d="M7.5,0A7.5,7.5 0 1,1 0,-7.5A7.5,7.5 0 0,1 7.5,0Z" style="opacity: 1; stroke-width: 0px; fill: rgb(0, 68, 148); fill-opacity: 0.25;"/><path class="point" transform="translate(42.19,192.9)" d="M7.5,0A7.5,7.5 0 1,1 0,-7.5A7.5,7.5 0 0,1 7.5,0Z" style="opacity: 1; stroke-width: 0px; fill: rgb(0, 68, 148); fill-opacity: 0.25;"/><path class="point" transform="translate(44.57,157.51)" d="M7.5,0A7.5,7.5 0 1,1 0,-7.5A7.5,7.5 0 0,1 7.5,0Z" style="opacity: 1; stroke-width: 0px; fill: rgb(0, 68, 148); fill-opacity: 0.25;"/><path class="point" transform="translate(46.1,204.39)" d="M7.5,0A7.5,7.5 0 1,1 0,-7.5A7.5,7.5 0 0,1 7.5,0Z" style="opacity: 1; stroke-width: 0px; fill: rgb(0, 68, 148); fill-opacity: 0.25;"/><path class="point" transform="translate(43.45,188.47)" d="M7.5,0A7.5,7.5 0 1,1 0,-7.5A7.5,7.5 0 0,1 7.5,0Z" style="opacity: 1; stroke-width: 0px; fill: rgb(0, 68, 148); fill-opacity: 0.25;"/><path class="point" transform="translate(48.48,170.78)" d="M7.5,0A7.5,7.5 0 1,1 0,-7.5A7.5,7.5 0 0,1 7.5,0Z" style="opacity: 1; stroke-width: 0px; fill: rgb(0, 68, 148); fill-opacity: 0.25;"/><path class="point" transform="translate(47.64,188.47)" d="M7.5,0A7.5,7.5 0 1,1 0,-7.5A7.5,7.5 0 0,1 7.5,0Z" style="opacity: 1; stroke-width: 0px; fill: rgb(0, 68, 148); fill-opacity: 0.25;"/><path class="point" transform="translate(53.37,139.82)" d="M7.5,0A7.5,7.5 0 1,1 0,-7.5A7.5,7.5 0 0,1 7.5,0Z" style="opacity: 1; stroke-width: 0px; fill: rgb(0, 68, 148); fill-opacity: 0.25;"/><path class="point" transform="translate(51.97,210.59)" d="M7.5,0A7.5,7.5 0 1,1 0,-7.5A7.5,7.5 0 0,1 7.5,0Z" style="opacity: 1; stroke-width: 0px; fill: rgb(0, 68, 148); fill-opacity: 0.25;"/></g><g class="text"/></g><g class="trace scatter traced16d74" style="stroke-miterlimit: 2; opacity: 1;"><g class="fills"/><g class="errorbars"/><g class="lines"><path class="js-line" d="M0,245.14Q2.7,245.87 4.47,245.25C8.14,243.96 15.86,232.77 19.14,232.93C20.91,233.01 21.8,236.97 23.05,236.91C24.32,236.85 25.38,233.85 26.68,232.47C27.95,231.12 29.82,229.39 30.74,228.72C31.15,228.42 31.35,228.48 31.71,228.16C32.41,227.52 33.11,225.74 34.23,224.66C35.62,223.33 38.16,221.66 39.68,221.04C40.63,220.65 41.36,220.59 42.19,220.56C42.99,220.53 43.87,220.91 44.57,220.82C45.15,220.75 46.12,220.4 46.1,220.25C46.08,220.05 43.53,219.61 43.45,219.83C43.32,220.15 48.43,223.28 48.48,223.21C48.5,223.18 47.62,222.49 47.64,222.46C47.69,222.39 53.29,226.49 53.37,226.39Q53.41,226.34 51.97,225.07" style="vector-effect: non-scaling-stroke; fill: none; stroke: rgb(234, 35, 41); stroke-opacity: 1; stroke-width: 7px; opacity: 1;"/></g><g class="points"/><g class="text"/></g><g class="trace scatter tracefad369" style="stroke-miterlimit: 2; opacity: 1;"><g class="fills"/><g class="errorbars"/><g class="lines"/><g class="points"><path class="point" transform="translate(0,245.08)" d="M7.5,0A7.5,7.5 0 1,1 0,-7.5A7.5,7.5 0 0,1 7.5,0Z" style="opacity: 1; stroke-width: 0px; fill: rgb(234, 35, 41); fill-opacity: 0.25;"/><path class="point" transform="translate(4.47,245.97)" d="M7.5,0A7.5,7.5 0 1,1 0,-7.5A7.5,7.5 0 0,1 7.5,0Z" style="opacity: 1; stroke-width: 0px; fill: rgb(234, 35, 41); fill-opacity: 0.25;"/><path class="point" transform="translate(19.14,228.28)" d="M7.5,0A7.5,7.5 0 1,1 0,-7.5A7.5,7.5 0 0,1 7.5,0Z" style="opacity: 1; stroke-width: 0px; fill: rgb(234, 35, 41); fill-opacity: 0.25;"/><path class="point" transform="translate(23.05,245.97)" d="M7.5,0A7.5,7.5 0 1,1 0,-7.5A7.5,7.5 0 0,1 7.5,0Z" style="opacity: 1; stroke-width: 0px; fill: rgb(234, 35, 41); fill-opacity: 0.25;"/><path class="point" transform="translate(26.68,232.7)" d="M7.5,0A7.5,7.5 0 1,1 0,-7.5A7.5,7.5 0 0,1 7.5,0Z" style="opacity: 1; stroke-width: 0px; fill: rgb(234, 35, 41); fill-opacity: 0.25;"/><path class="point" transform="translate(30.74,228.28)" d="M7.5,0A7.5,7.5 0 1,1 0,-7.5A7.5,7.5 0 0,1 7.5,0Z" style="opacity: 1; stroke-width: 0px; fill: rgb(234, 35, 41); fill-opacity: 0.25;"/><path class="point" transform="translate(31.71,232.7)" d="M7.5,0A7.5,7.5 0 1,1 0,-7.5A7.5,7.5 0 0,1 7.5,0Z" style="opacity: 1; stroke-width: 0px; fill: rgb(234, 35, 41); fill-opacity: 0.25;"/><path class="point" transform="translate(34.23,219.43)" d="M7.5,0A7.5,7.5 0 1,1 0,-7.5A7.5,7.5 0 0,1 7.5,0Z" style="opacity: 1; stroke-width: 0px; fill: rgb(234, 35, 41); fill-opacity: 0.25;"/><path class="point" transform="translate(39.68,219.43)" d="M7.5,0A7.5,7.5 0 1,1 0,-7.5A7.5,7.5 0 0,1 7.5,0Z" style="opacity: 1; stroke-width: 0px; fill: rgb(234, 35, 41); fill-opacity: 0.25;"/><path class="point" transform="translate(42.19,224.74)" d="M7.5,0A7.5,7.5 0 1,1 0,-7.5A7.5,7.5 0 0,1 7.5,0Z" style="opacity: 1; stroke-width: 0px; fill: rgb(234, 35, 41); fill-opacity: 0.25;"/><path class="point" transform="translate(44.57,232.7)" d="M7.5,0A7.5,7.5 0 1,1 0,-7.5A7.5,7.5 0 0,1 7.5,0Z" style="opacity: 1; stroke-width: 0px; fill: rgb(234, 35, 41); fill-opacity: 0.25;"/><path class="point" transform="translate(46.1,203.51)" d="M7.5,0A7.5,7.5 0 1,1 0,-7.5A7.5,7.5 0 0,1 7.5,0Z" style="opacity: 1; stroke-width: 0px; fill: rgb(234, 35, 41); fill-opacity: 0.25;"/><path class="point" transform="translate(43.45,206.16)" d="M7.5,0A7.5,7.5 0 1,1 0,-7.5A7.5,7.5 0 0,1 7.5,0Z" style="opacity: 1; stroke-width: 0px; fill: rgb(234, 35, 41); fill-opacity: 0.25;"/><path class="point" transform="translate(48.48,228.28)" d="M7.5,0A7.5,7.5 0 1,1 0,-7.5A7.5,7.5 0 0,1 7.5,0Z" style="opacity: 1; stroke-width: 0px; fill: rgb(234, 35, 41); fill-opacity: 0.25;"/><path class="point" transform="translate(47.64,228.28)" d="M7.5,0A7.5,7.5 0 1,1 0,-7.5A7.5,7.5 0 0,1 7.5,0Z" style="opacity: 1; stroke-width: 0px; fill: rgb(234, 35, 41); fill-opacity: 0.25;"/><path class="point" transform="translate(53.37,232.7)" d="M7.5,0A7.5,7.5 0 1,1 0,-7.5A7.5,7.5 0 0,1 7.5,0Z" style="opacity: 1; stroke-width: 0px; fill: rgb(234, 35, 41); fill-opacity: 0.25;"/><path class="point" transform="translate(51.97,223.85)" d="M7.5,0A7.5,7.5 0 1,1 0,-7.5A7.5,7.5 0 0,1 7.5,0Z" style="opacity: 1; stroke-width: 0px; fill: rgb(234, 35, 41); fill-opacity: 0.25;"/></g><g class="text"/></g><g class="trace scatter traced7bced" style="stroke-miterlimit: 2; opacity: 1;"><g class="fills"/><g class="errorbars"/><g class="lines"><path class="js-line" d="M0,249.56Q2.2,254.11 4.47,256.15C7.74,259.09 15.74,262.83 19.14,263.96C20.8,264.51 21.78,264.28 23.05,264.57C24.29,264.85 25.64,266.21 26.68,265.65C28.67,264.58 29.77,254.7 30.74,252.25C31.12,251.29 31.35,251.18 31.71,250.3C32.4,248.64 32.69,244.37 34.23,242.88C35.54,241.61 38.21,241.22 39.68,241.23C40.68,241.24 41.36,241.77 42.19,242.02C42.99,242.26 43.86,242.69 44.57,242.7C45.13,242.71 46.1,242.48 46.1,242.32C46.1,242.11 43.43,241.73 43.45,241.55C43.48,241.31 48.48,241.38 48.48,241.28C48.48,241.24 47.7,241.34 47.64,241.16C47.45,240.59 53.36,235.31 53.37,235.32Q53.37,235.32 51.97,236.79" style="vector-effect: non-scaling-stroke; fill: none; stroke: rgb(0, 0, 0); stroke-opacity: 1; stroke-width: 7px; opacity: 1;"/></g><g class="points"/><g class="text"/></g><g class="trace scatter trace81d3ab" style="stroke-miterlimit: 2; opacity: 1;"><g class="fills"/><g class="errorbars"/><g class="lines"/><g class="points"><path class="point" transform="translate(0,245.97)" d="M7.5,0A7.5,7.5 0 1,1 0,-7.5A7.5,7.5 0 0,1 7.5,0Z" style="opacity: 1; stroke-width: 0px; fill: rgb(0, 0, 0); fill-opacity: 0.25;"/><path class="point" transform="translate(4.47,259.24)" d="M7.5,0A7.5,7.5 0 1,1 0,-7.5A7.5,7.5 0 0,1 7.5,0Z" style="opacity: 1; stroke-width: 0px; fill: rgb(0, 0, 0); fill-opacity: 0.25;"/><path class="point" transform="translate(19.14,263.66)" d="M7.5,0A7.5,7.5 0 1,1 0,-7.5A7.5,7.5 0 0,1 7.5,0Z" style="opacity: 1; stroke-width: 0px; fill: rgb(0, 0, 0); fill-opacity: 0.25;"/><path class="point" transform="translate(23.05,263.66)" d="M7.5,0A7.5,7.5 0 1,1 0,-7.5A7.5,7.5 0 0,1 7.5,0Z" style="opacity: 1; stroke-width: 0px; fill: rgb(0, 0, 0); fill-opacity: 0.25;"/><path class="point" transform="translate(26.68,285.77)" d="M7.5,0A7.5,7.5 0 1,1 0,-7.5A7.5,7.5 0 0,1 7.5,0Z" style="opacity: 1; stroke-width: 0px; fill: rgb(0, 0, 0); fill-opacity: 0.25;"/><path class="point" transform="translate(30.74,250.39)" d="M7.5,0A7.5,7.5 0 1,1 0,-7.5A7.5,7.5 0 0,1 7.5,0Z" style="opacity: 1; stroke-width: 0px; fill: rgb(0, 0, 0); fill-opacity: 0.25;"/><path class="point" transform="translate(31.71,254.81)" d="M7.5,0A7.5,7.5 0 1,1 0,-7.5A7.5,7.5 0 0,1 7.5,0Z" style="opacity: 1; stroke-width: 0px; fill: rgb(0, 0, 0); fill-opacity: 0.25;"/><path class="point" transform="translate(34.23,225.62)" d="M7.5,0A7.5,7.5 0 1,1 0,-7.5A7.5,7.5 0 0,1 7.5,0Z" style="opacity: 1; stroke-width: 0px; fill: rgb(0, 0, 0); fill-opacity: 0.25;"/><path class="point" transform="translate(39.68,237.12)" d="M7.5,0A7.5,7.5 0 1,1 0,-7.5A7.5,7.5 0 0,1 7.5,0Z" style="opacity: 1; stroke-width: 0px; fill: rgb(0, 0, 0); fill-opacity: 0.25;"/><path class="point" transform="translate(42.19,247.74)" d="M7.5,0A7.5,7.5 0 1,1 0,-7.5A7.5,7.5 0 0,1 7.5,0Z" style="opacity: 1; stroke-width: 0px; fill: rgb(0, 0, 0); fill-opacity: 0.25;"/><path class="point" transform="translate(44.57,254.81)" d="M7.5,0A7.5,7.5 0 1,1 0,-7.5A7.5,7.5 0 0,1 7.5,0Z" style="opacity: 1; stroke-width: 0px; fill: rgb(0, 0, 0); fill-opacity: 0.25;"/><path class="point" transform="translate(46.1,246.85)" d="M7.5,0A7.5,7.5 0 1,1 0,-7.5A7.5,7.5 0 0,1 7.5,0Z" style="opacity: 1; stroke-width: 0px; fill: rgb(0, 0, 0); fill-opacity: 0.25;"/><path class="point" transform="translate(43.45,228.28)" d="M7.5,0A7.5,7.5 0 1,1 0,-7.5A7.5,7.5 0 0,1 7.5,0Z" style="opacity: 1; stroke-width: 0px; fill: rgb(0, 0, 0); fill-opacity: 0.25;"/><path class="point" transform="translate(48.48,250.39)" d="M7.5,0A7.5,7.5 0 1,1 0,-7.5A7.5,7.5 0 0,1 7.5,0Z" style="opacity: 1; stroke-width: 0px; fill: rgb(0, 0, 0); fill-opacity: 0.25;"/><path class="point" transform="translate(47.64,232.7)" d="M7.5,0A7.5,7.5 0 1,1 0,-7.5A7.5,7.5 0 0,1 7.5,0Z" style="opacity: 1; stroke-width: 0px; fill: rgb(0, 0, 0); fill-opacity: 0.25;"/><path class="point" transform="translate(53.37,228.28)" d="M7.5,0A7.5,7.5 0 1,1 0,-7.5A7.5,7.5 0 0,1 7.5,0Z" style="opacity: 1; stroke-width: 0px; fill: rgb(0, 0, 0); fill-opacity: 0.25;"/><path class="point" transform="translate(51.97,232.7)" d="M7.5,0A7.5,7.5 0 1,1 0,-7.5A7.5,7.5 0 0,1 7.5,0Z" style="opacity: 1; stroke-width: 0px; fill: rgb(0, 0, 0); fill-opacity: 0.25;"/></g><g class="text"/></g><g class="trace scatter trace446e13" style="stroke-miterlimit: 2; opacity: 1;"><g class="fills"/><g class="errorbars"/><g class="lines"><path class="js-line" d="M0,260.14Q0.11,233.13 4.47,230.95C7.74,229.32 16.01,235.9 19.14,238.82C21.22,240.75 21.8,242.9 23.05,245.01C24.31,247.14 25.55,248.94 26.68,251.52C28.17,254.92 29.87,261.04 30.74,263.87C31.19,265.34 31.29,265.9 31.71,267.23C32.34,269.21 32.9,272.4 34.23,274.54C35.56,276.68 38.12,279 39.68,280.07C40.61,280.7 41.36,281.12 42.19,281.15C42.99,281.18 43.86,280.53 44.57,280.31C45.13,280.14 46.07,279.83 46.1,279.91C46.15,280.02 43.5,281.59 43.45,281.52C43.38,281.42 48.37,277.3 48.48,277.41C48.53,277.46 47.52,278.28 47.64,278.5C47.88,278.95 53.36,278.01 53.37,278.07Q53.37,278.1 51.97,278.31" style="vector-effect: non-scaling-stroke; fill: none; stroke: rgb(93, 140, 0); stroke-opacity: 1; stroke-width: 7px; opacity: 1;"/></g><g class="points"/><g class="text"/></g><g class="trace scatter trace6fe417" style="stroke-miterlimit: 2; opacity: 1;"><g class="fills"/><g class="errorbars"/><g class="lines"/><g class="points"><path class="point" transform="translate(0,276.04)" d="M7.5,0A7.5,7.5 0 1,1 0,-7.5A7.5,7.5 0 0,1 7.5,0Z" style="opacity: 1; stroke-width: 0px; fill: rgb(93, 140, 0); fill-opacity: 0.25;"/><path class="point" transform="translate(4.47,215.01)" d="M7.5,0A7.5,7.5 0 1,1 0,-7.5A7.5,7.5 0 0,1 7.5,0Z" style="opacity: 1; stroke-width: 0px; fill: rgb(93, 140, 0); fill-opacity: 0.25;"/><path class="point" transform="translate(19.14,232.7)" d="M7.5,0A7.5,7.5 0 1,1 0,-7.5A7.5,7.5 0 0,1 7.5,0Z" style="opacity: 1; stroke-width: 0px; fill: rgb(93, 140, 0); fill-opacity: 0.25;"/><path class="point" transform="translate(23.05,241.55)" d="M7.5,0A7.5,7.5 0 1,1 0,-7.5A7.5,7.5 0 0,1 7.5,0Z" style="opacity: 1; stroke-width: 0px; fill: rgb(93, 140, 0); fill-opacity: 0.25;"/><path class="point" transform="translate(26.68,241.55)" d="M7.5,0A7.5,7.5 0 1,1 0,-7.5A7.5,7.5 0 0,1 7.5,0Z" style="opacity: 1; stroke-width: 0px; fill: rgb(93, 140, 0); fill-opacity: 0.25;"/><path class="point" transform="translate(30.74,254.81)" d="M7.5,0A7.5,7.5 0 1,1 0,-7.5A7.5,7.5 0 0,1 7.5,0Z" style="opacity: 1; stroke-width: 0px; fill: rgb(93, 140, 0); fill-opacity: 0.25;"/><path class="point" transform="translate(31.71,272.5)" d="M7.5,0A7.5,7.5 0 1,1 0,-7.5A7.5,7.5 0 0,1 7.5,0Z" style="opacity: 1; stroke-width: 0px; fill: rgb(93, 140, 0); fill-opacity: 0.25;"/><path class="point" transform="translate(34.23,287.54)" d="M7.5,0A7.5,7.5 0 1,1 0,-7.5A7.5,7.5 0 0,1 7.5,0Z" style="opacity: 1; stroke-width: 0px; fill: rgb(93, 140, 0); fill-opacity: 0.25;"/><path class="point" transform="translate(39.68,281.35)" d="M7.5,0A7.5,7.5 0 1,1 0,-7.5A7.5,7.5 0 0,1 7.5,0Z" style="opacity: 1; stroke-width: 0px; fill: rgb(93, 140, 0); fill-opacity: 0.25;"/><path class="point" transform="translate(42.19,281.35)" d="M7.5,0A7.5,7.5 0 1,1 0,-7.5A7.5,7.5 0 0,1 7.5,0Z" style="opacity: 1; stroke-width: 0px; fill: rgb(93, 140, 0); fill-opacity: 0.25;"/><path class="point" transform="translate(44.57,272.5)" d="M7.5,0A7.5,7.5 0 1,1 0,-7.5A7.5,7.5 0 0,1 7.5,0Z" style="opacity: 1; stroke-width: 0px; fill: rgb(93, 140, 0); fill-opacity: 0.25;"/><path class="point" transform="translate(46.1,285.77)" d="M7.5,0A7.5,7.5 0 1,1 0,-7.5A7.5,7.5 0 0,1 7.5,0Z" style="opacity: 1; stroke-width: 0px; fill: rgb(93, 140, 0); fill-opacity: 0.25;"/><path class="point" transform="translate(43.45,294.62)" d="M7.5,0A7.5,7.5 0 1,1 0,-7.5A7.5,7.5 0 0,1 7.5,0Z" style="opacity: 1; stroke-width: 0px; fill: rgb(93, 140, 0); fill-opacity: 0.25;"/><path class="point" transform="translate(48.48,263.66)" d="M7.5,0A7.5,7.5 0 1,1 0,-7.5A7.5,7.5 0 0,1 7.5,0Z" style="opacity: 1; stroke-width: 0px; fill: rgb(93, 140, 0); fill-opacity: 0.25;"/><path class="point" transform="translate(47.64,281.35)" d="M7.5,0A7.5,7.5 0 1,1 0,-7.5A7.5,7.5 0 0,1 7.5,0Z" style="opacity: 1; stroke-width: 0px; fill: rgb(93, 140, 0); fill-opacity: 0.25;"/><path class="point" transform="translate(53.37,276.93)" d="M7.5,0A7.5,7.5 0 1,1 0,-7.5A7.5,7.5 0 0,1 7.5,0Z" style="opacity: 1; stroke-width: 0px; fill: rgb(93, 140, 0); fill-opacity: 0.25;"/><path class="point" transform="translate(51.97,281.35)" d="M7.5,0A7.5,7.5 0 1,1 0,-7.5A7.5,7.5 0 0,1 7.5,0Z" style="opacity: 1; stroke-width: 0px; fill: rgb(93, 140, 0); fill-opacity: 0.25;"/></g><g class="text"/></g><g class="trace scatter traced20f93" style="stroke-miterlimit: 2; opacity: 1;"><g class="fills"/><g class="errorbars"/><g class="lines"><path class="js-line" d="M0,266.94Q2.67,267.2 4.47,268.1C8.1,269.92 16.01,276.05 19.14,279.87C21.24,282.44 21.73,285.07 23.05,287.42C24.25,289.55 25.22,293.02 26.68,293.4C27.87,293.71 29.83,291.47 30.74,291.11C31.16,290.94 31.34,291.06 31.71,290.86C32.39,290.49 33.14,289.14 34.23,288.58C35.63,287.86 38.2,287.49 39.68,287.37C40.67,287.29 41.37,287.4 42.19,287.52C43,287.64 43.88,288.19 44.57,288.09C45.16,288 46.11,287.21 46.1,287.19C46.09,287.16 43.42,288.42 43.45,288.51C43.5,288.62 48.43,287.38 48.48,286.96C48.5,286.78 47.62,286.65 47.64,286.47C47.7,286.03 53.32,284.77 53.37,284.91Q53.4,284.98 51.97,285.65" style="vector-effect: non-scaling-stroke; fill: none; stroke: rgb(114, 55, 105); stroke-opacity: 1; stroke-width: 7px; opacity: 1;"/></g><g class="points"/><g class="text"/></g><g class="trace scatter trace1f2657" style="stroke-miterlimit: 2; opacity: 1;"><g class="fills"/><g class="errorbars"/><g class="lines"/><g class="points"><path class="point" transform="translate(0,266.31)" d="M7.5,0A7.5,7.5 0 1,1 0,-7.5A7.5,7.5 0 0,1 7.5,0Z" style="opacity: 1; stroke-width: 0px; fill: rgb(114, 55, 105); fill-opacity: 0.25;"/><path class="point" transform="translate(4.47,268.08)" d="M7.5,0A7.5,7.5 0 1,1 0,-7.5A7.5,7.5 0 0,1 7.5,0Z" style="opacity: 1; stroke-width: 0px; fill: rgb(114, 55, 105); fill-opacity: 0.25;"/><path class="point" transform="translate(19.14,272.5)" d="M7.5,0A7.5,7.5 0 1,1 0,-7.5A7.5,7.5 0 0,1 7.5,0Z" style="opacity: 1; stroke-width: 0px; fill: rgb(114, 55, 105); fill-opacity: 0.25;"/><path class="point" transform="translate(23.05,285.77)" d="M7.5,0A7.5,7.5 0 1,1 0,-7.5A7.5,7.5 0 0,1 7.5,0Z" style="opacity: 1; stroke-width: 0px; fill: rgb(114, 55, 105); fill-opacity: 0.25;"/><path class="point" transform="translate(26.68,303.46)" d="M7.5,0A7.5,7.5 0 1,1 0,-7.5A7.5,7.5 0 0,1 7.5,0Z" style="opacity: 1; stroke-width: 0px; fill: rgb(114, 55, 105); fill-opacity: 0.25;"/><path class="point" transform="translate(30.74,290.2)" d="M7.5,0A7.5,7.5 0 1,1 0,-7.5A7.5,7.5 0 0,1 7.5,0Z" style="opacity: 1; stroke-width: 0px; fill: rgb(114, 55, 105); fill-opacity: 0.25;"/><path class="point" transform="translate(31.71,294.62)" d="M7.5,0A7.5,7.5 0 1,1 0,-7.5A7.5,7.5 0 0,1 7.5,0Z" style="opacity: 1; stroke-width: 0px; fill: rgb(114, 55, 105); fill-opacity: 0.25;"/><path class="point" transform="translate(34.23,284)" d="M7.5,0A7.5,7.5 0 1,1 0,-7.5A7.5,7.5 0 0,1 7.5,0Z" style="opacity: 1; stroke-width: 0px; fill: rgb(114, 55, 105); fill-opacity: 0.25;"/><path class="point" transform="translate(39.68,285.77)" d="M7.5,0A7.5,7.5 0 1,1 0,-7.5A7.5,7.5 0 0,1 7.5,0Z" style="opacity: 1; stroke-width: 0px; fill: rgb(114, 55, 105); fill-opacity: 0.25;"/><path class="point" transform="translate(42.19,280.47)" d="M7.5,0A7.5,7.5 0 1,1 0,-7.5A7.5,7.5 0 0,1 7.5,0Z" style="opacity: 1; stroke-width: 0px; fill: rgb(114, 55, 105); fill-opacity: 0.25;"/><path class="point" transform="translate(44.57,290.2)" d="M7.5,0A7.5,7.5 0 1,1 0,-7.5A7.5,7.5 0 0,1 7.5,0Z" style="opacity: 1; stroke-width: 0px; fill: rgb(114, 55, 105); fill-opacity: 0.25;"/><path class="point" transform="translate(46.1,285.77)" d="M7.5,0A7.5,7.5 0 1,1 0,-7.5A7.5,7.5 0 0,1 7.5,0Z" style="opacity: 1; stroke-width: 0px; fill: rgb(114, 55, 105); fill-opacity: 0.25;"/><path class="point" transform="translate(43.45,299.04)" d="M7.5,0A7.5,7.5 0 1,1 0,-7.5A7.5,7.5 0 0,1 7.5,0Z" style="opacity: 1; stroke-width: 0px; fill: rgb(114, 55, 105); fill-opacity: 0.25;"/><path class="point" transform="translate(48.48,294.62)" d="M7.5,0A7.5,7.5 0 1,1 0,-7.5A7.5,7.5 0 0,1 7.5,0Z" style="opacity: 1; stroke-width: 0px; fill: rgb(114, 55, 105); fill-opacity: 0.25;"/><path class="point" transform="translate(47.64,276.93)" d="M7.5,0A7.5,7.5 0 1,1 0,-7.5A7.5,7.5 0 0,1 7.5,0Z" style="opacity: 1; stroke-width: 0px; fill: rgb(114, 55, 105); fill-opacity: 0.25;"/><path class="point" transform="translate(53.37,281.35)" d="M7.5,0A7.5,7.5 0 1,1 0,-7.5A7.5,7.5 0 0,1 7.5,0Z" style="opacity: 1; stroke-width: 0px; fill: rgb(114, 55, 105); fill-opacity: 0.25;"/><path class="point" transform="translate(51.97,285.77)" d="M7.5,0A7.5,7.5 0 1,1 0,-7.5A7.5,7.5 0 0,1 7.5,0Z" style="opacity: 1; stroke-width: 0px; fill: rgb(114, 55, 105); fill-opacity: 0.25;"/></g><g class="text"/></g><g class="trace scatter tracedde07f" style="stroke-miterlimit: 2; opacity: 1;"><g class="fills"/><g class="errorbars"/><g class="lines"><path class="js-line" d="M0,276.79Q1.32,289.52 4.47,291.16C7.66,292.82 15.98,285.55 19.14,286.47C21.13,287.05 21.6,290.42 23.05,291.19C24.17,291.78 25.45,291.29 26.68,291.53C28.01,291.79 29.87,292.36 30.74,292.74C31.19,292.94 31.3,293.26 31.71,293.31C32.34,293.38 33.22,292.57 34.23,292.52C35.69,292.45 38.24,293.15 39.68,293.68C40.71,294.06 41.35,294.96 42.19,295.04C42.98,295.11 43.88,294.59 44.57,294.28C45.15,294.02 46.1,293.39 46.1,293.39C46.1,293.38 43.48,294.93 43.45,294.88C43.41,294.81 48.22,291.12 48.48,291.35C48.63,291.48 47.45,292.79 47.64,293C47.99,293.39 53.14,291.71 53.37,290.84Q53.51,290.32 51.97,289.12" style="vector-effect: non-scaling-stroke; fill: none; stroke: rgb(230, 172, 33); stroke-opacity: 1; stroke-width: 7px; opacity: 1;"/></g><g class="points"/><g class="text"/></g><g class="trace scatter tracec216fb" style="stroke-miterlimit: 2; opacity: 1;"><g class="fills"/><g class="errorbars"/><g class="lines"/><g class="points"><path class="point" transform="translate(0,268.97)" d="M7.5,0A7.5,7.5 0 1,1 0,-7.5A7.5,7.5 0 0,1 7.5,0Z" style="opacity: 1; stroke-width: 0px; fill: rgb(230, 172, 33); fill-opacity: 0.25;"/><path class="point" transform="translate(4.47,299.04)" d="M7.5,0A7.5,7.5 0 1,1 0,-7.5A7.5,7.5 0 0,1 7.5,0Z" style="opacity: 1; stroke-width: 0px; fill: rgb(230, 172, 33); fill-opacity: 0.25;"/><path class="point" transform="translate(19.14,281.35)" d="M7.5,0A7.5,7.5 0 1,1 0,-7.5A7.5,7.5 0 0,1 7.5,0Z" style="opacity: 1; stroke-width: 0px; fill: rgb(230, 172, 33); fill-opacity: 0.25;"/><path class="point" transform="translate(23.05,294.62)" d="M7.5,0A7.5,7.5 0 1,1 0,-7.5A7.5,7.5 0 0,1 7.5,0Z" style="opacity: 1; stroke-width: 0px; fill: rgb(230, 172, 33); fill-opacity: 0.25;"/><path class="point" transform="translate(26.68,290.2)" d="M7.5,0A7.5,7.5 0 1,1 0,-7.5A7.5,7.5 0 0,1 7.5,0Z" style="opacity: 1; stroke-width: 0px; fill: rgb(230, 172, 33); fill-opacity: 0.25;"/><path class="point" transform="translate(30.74,290.2)" d="M7.5,0A7.5,7.5 0 1,1 0,-7.5A7.5,7.5 0 0,1 7.5,0Z" style="opacity: 1; stroke-width: 0px; fill: rgb(230, 172, 33); fill-opacity: 0.25;"/><path class="point" transform="translate(31.71,299.04)" d="M7.5,0A7.5,7.5 0 1,1 0,-7.5A7.5,7.5 0 0,1 7.5,0Z" style="opacity: 1; stroke-width: 0px; fill: rgb(230, 172, 33); fill-opacity: 0.25;"/><path class="point" transform="translate(34.23,289.31)" d="M7.5,0A7.5,7.5 0 1,1 0,-7.5A7.5,7.5 0 0,1 7.5,0Z" style="opacity: 1; stroke-width: 0px; fill: rgb(230, 172, 33); fill-opacity: 0.25;"/><path class="point" transform="translate(39.68,290.2)" d="M7.5,0A7.5,7.5 0 1,1 0,-7.5A7.5,7.5 0 0,1 7.5,0Z" style="opacity: 1; stroke-width: 0px; fill: rgb(230, 172, 33); fill-opacity: 0.25;"/><path class="point" transform="translate(42.19,299.93)" d="M7.5,0A7.5,7.5 0 1,1 0,-7.5A7.5,7.5 0 0,1 7.5,0Z" style="opacity: 1; stroke-width: 0px; fill: rgb(230, 172, 33); fill-opacity: 0.25;"/><path class="point" transform="translate(44.57,294.62)" d="M7.5,0A7.5,7.5 0 1,1 0,-7.5A7.5,7.5 0 0,1 7.5,0Z" style="opacity: 1; stroke-width: 0px; fill: rgb(230, 172, 33); fill-opacity: 0.25;"/><path class="point" transform="translate(46.1,290.2)" d="M7.5,0A7.5,7.5 0 1,1 0,-7.5A7.5,7.5 0 0,1 7.5,0Z" style="opacity: 1; stroke-width: 0px; fill: rgb(230, 172, 33); fill-opacity: 0.25;"/><path class="point" transform="translate(43.45,299.04)" d="M7.5,0A7.5,7.5 0 1,1 0,-7.5A7.5,7.5 0 0,1 7.5,0Z" style="opacity: 1; stroke-width: 0px; fill: rgb(230, 172, 33); fill-opacity: 0.25;"/><path class="point" transform="translate(48.48,276.93)" d="M7.5,0A7.5,7.5 0 1,1 0,-7.5A7.5,7.5 0 0,1 7.5,0Z" style="opacity: 1; stroke-width: 0px; fill: rgb(230, 172, 33); fill-opacity: 0.25;"/><path class="point" transform="translate(47.64,307.89)" d="M7.5,0A7.5,7.5 0 1,1 0,-7.5A7.5,7.5 0 0,1 7.5,0Z" style="opacity: 1; stroke-width: 0px; fill: rgb(230, 172, 33); fill-opacity: 0.25;"/><path class="point" transform="translate(53.37,299.04)" d="M7.5,0A7.5,7.5 0 1,1 0,-7.5A7.5,7.5 0 0,1 7.5,0Z" style="opacity: 1; stroke-width: 0px; fill: rgb(230, 172, 33); fill-opacity: 0.25;"/><path class="point" transform="translate(51.97,276.93)" d="M7.5,0A7.5,7.5 0 1,1 0,-7.5A7.5,7.5 0 0,1 7.5,0Z" style="opacity: 1; stroke-width: 0px; fill: rgb(230, 172, 33); fill-opacity: 0.25;"/></g><g class="text"/></g><g class="trace scatter trace7873f4" style="stroke-miterlimit: 2; opacity: 1;"><g class="fills"/><g class="errorbars"/><g class="lines"><path class="js-line" d="M0,290.18Q2.53,292.08 4.47,293.41C7.93,295.78 15.7,301.97 19.14,302.94C20.77,303.4 21.87,303.37 23.05,302.83C24.43,302.2 25.57,300.62 26.68,298.9C28.23,296.5 29.65,290.44 30.74,289.33C31.09,288.97 31.32,289.12 31.71,288.9C32.37,288.53 33.19,287.27 34.23,287.15C35.67,286.99 38.24,288.57 39.68,289.32C40.71,289.85 41.4,290.29 42.19,290.96C43.04,291.69 43.8,293.06 44.57,293.57C45.09,293.91 46.05,294.19 46.1,294.1C46.17,293.97 43.42,292.06 43.45,292.01C43.5,291.95 48.44,295.32 48.48,295.27C48.5,295.25 47.59,294.78 47.64,294.58C47.76,294.11 53.22,294.15 53.37,293.6Q53.45,293.29 51.97,292.46" style="vector-effect: non-scaling-stroke; fill: none; stroke: rgb(240, 125, 0); stroke-opacity: 1; stroke-width: 7px; opacity: 1;"/></g><g class="points"/><g class="text"/></g><g class="trace scatter tracee1023b" style="stroke-miterlimit: 2; opacity: 1;"><g class="fills"/><g class="errorbars"/><g class="lines"/><g class="points"><path class="point" transform="translate(0,288.43)" d="M7.5,0A7.5,7.5 0 1,1 0,-7.5A7.5,7.5 0 0,1 7.5,0Z" style="opacity: 1; stroke-width: 0px; fill: rgb(240, 125, 0); fill-opacity: 0.25;"/><path class="point" transform="translate(4.47,294.62)" d="M7.5,0A7.5,7.5 0 1,1 0,-7.5A7.5,7.5 0 0,1 7.5,0Z" style="opacity: 1; stroke-width: 0px; fill: rgb(240, 125, 0); fill-opacity: 0.25;"/><path class="point" transform="translate(19.14,303.46)" d="M7.5,0A7.5,7.5 0 1,1 0,-7.5A7.5,7.5 0 0,1 7.5,0Z" style="opacity: 1; stroke-width: 0px; fill: rgb(240, 125, 0); fill-opacity: 0.25;"/><path class="point" transform="translate(23.05,307.89)" d="M7.5,0A7.5,7.5 0 1,1 0,-7.5A7.5,7.5 0 0,1 7.5,0Z" style="opacity: 1; stroke-width: 0px; fill: rgb(240, 125, 0); fill-opacity: 0.25;"/><path class="point" transform="translate(26.68,307.89)" d="M7.5,0A7.5,7.5 0 1,1 0,-7.5A7.5,7.5 0 0,1 7.5,0Z" style="opacity: 1; stroke-width: 0px; fill: rgb(240, 125, 0); fill-opacity: 0.25;"/><path class="point" transform="translate(30.74,281.35)" d="M7.5,0A7.5,7.5 0 1,1 0,-7.5A7.5,7.5 0 0,1 7.5,0Z" style="opacity: 1; stroke-width: 0px; fill: rgb(240, 125, 0); fill-opacity: 0.25;"/><path class="point" transform="translate(31.71,290.2)" d="M7.5,0A7.5,7.5 0 1,1 0,-7.5A7.5,7.5 0 0,1 7.5,0Z" style="opacity: 1; stroke-width: 0px; fill: rgb(240, 125, 0); fill-opacity: 0.25;"/><path class="point" transform="translate(34.23,280.47)" d="M7.5,0A7.5,7.5 0 1,1 0,-7.5A7.5,7.5 0 0,1 7.5,0Z" style="opacity: 1; stroke-width: 0px; fill: rgb(240, 125, 0); fill-opacity: 0.25;"/><path class="point" transform="translate(39.68,285.77)" d="M7.5,0A7.5,7.5 0 1,1 0,-7.5A7.5,7.5 0 0,1 7.5,0Z" style="opacity: 1; stroke-width: 0px; fill: rgb(240, 125, 0); fill-opacity: 0.25;"/><path class="point" transform="translate(42.19,287.54)" d="M7.5,0A7.5,7.5 0 1,1 0,-7.5A7.5,7.5 0 0,1 7.5,0Z" style="opacity: 1; stroke-width: 0px; fill: rgb(240, 125, 0); fill-opacity: 0.25;"/><path class="point" transform="translate(44.57,303.46)" d="M7.5,0A7.5,7.5 0 1,1 0,-7.5A7.5,7.5 0 0,1 7.5,0Z" style="opacity: 1; stroke-width: 0px; fill: rgb(240, 125, 0); fill-opacity: 0.25;"/><path class="point" transform="translate(46.1,294.62)" d="M7.5,0A7.5,7.5 0 1,1 0,-7.5A7.5,7.5 0 0,1 7.5,0Z" style="opacity: 1; stroke-width: 0px; fill: rgb(240, 125, 0); fill-opacity: 0.25;"/><path class="point" transform="translate(43.45,285.77)" d="M7.5,0A7.5,7.5 0 1,1 0,-7.5A7.5,7.5 0 0,1 7.5,0Z" style="opacity: 1; stroke-width: 0px; fill: rgb(240, 125, 0); fill-opacity: 0.25;"/><path class="point" transform="translate(48.48,307.89)" d="M7.5,0A7.5,7.5 0 1,1 0,-7.5A7.5,7.5 0 0,1 7.5,0Z" style="opacity: 1; stroke-width: 0px; fill: rgb(240, 125, 0); fill-opacity: 0.25;"/><path class="point" transform="translate(47.64,290.2)" d="M7.5,0A7.5,7.5 0 1,1 0,-7.5A7.5,7.5 0 0,1 7.5,0Z" style="opacity: 1; stroke-width: 0px; fill: rgb(240, 125, 0); fill-opacity: 0.25;"/><path class="point" transform="translate(53.37,299.04)" d="M7.5,0A7.5,7.5 0 1,1 0,-7.5A7.5,7.5 0 0,1 7.5,0Z" style="opacity: 1; stroke-width: 0px; fill: rgb(240, 125, 0); fill-opacity: 0.25;"/><path class="point" transform="translate(51.97,281.35)" d="M7.5,0A7.5,7.5 0 1,1 0,-7.5A7.5,7.5 0 0,1 7.5,0Z" style="opacity: 1; stroke-width: 0px; fill: rgb(240, 125, 0); fill-opacity: 0.25;"/></g><g class="text"/></g><g class="trace scatter trace49f39d" style="stroke-miterlimit: 2; opacity: 1;"><g class="fills"/><g class="errorbars"/><g class="lines"><path class="js-line" d="M0,293.53Q1.78,301.22 4.47,302.9C7.67,304.9 15.82,303.08 19.14,302.8C20.87,302.66 21.81,301.96 23.05,302.17C24.32,302.39 25.43,303.49 26.68,304.15C27.99,304.85 29.87,305.69 30.74,306.25C31.19,306.54 31.28,306.86 31.71,307C32.33,307.2 33.28,307.21 34.23,306.89C35.77,306.36 38.18,303.9 39.68,303.03C40.65,302.47 41.34,302.1 42.19,301.88C42.98,301.67 43.86,301.75 44.57,301.68C45.14,301.62 46.1,301.51 46.1,301.49C46.1,301.46 43.45,301.57 43.45,301.6C43.45,301.64 48.48,301.63 48.48,301.66C48.48,301.67 47.68,301.57 47.64,301.7C47.52,302.08 53.48,305.65 53.37,305.87Q53.32,305.97 51.97,305.44" style="vector-effect: non-scaling-stroke; fill: none; stroke: rgb(0, 51, 255); stroke-opacity: 1; stroke-width: 7px; opacity: 1;"/></g><g class="points"/><g class="text"/></g><g class="trace scatter trace0d570e" style="stroke-miterlimit: 2; opacity: 1;"><g class="fills"/><g class="errorbars"/><g class="lines"/><g class="points"><path class="point" transform="translate(0,288.43)" d="M7.5,0A7.5,7.5 0 1,1 0,-7.5A7.5,7.5 0 0,1 7.5,0Z" style="opacity: 1; stroke-width: 0px; fill: rgb(0, 51, 255); fill-opacity: 0.25;"/><path class="point" transform="translate(4.47,307.89)" d="M7.5,0A7.5,7.5 0 1,1 0,-7.5A7.5,7.5 0 0,1 7.5,0Z" style="opacity: 1; stroke-width: 0px; fill: rgb(0, 51, 255); fill-opacity: 0.25;"/><path class="point" transform="translate(19.14,303.46)" d="M7.5,0A7.5,7.5 0 1,1 0,-7.5A7.5,7.5 0 0,1 7.5,0Z" style="opacity: 1; stroke-width: 0px; fill: rgb(0, 51, 255); fill-opacity: 0.25;"/><path class="point" transform="translate(23.05,299.04)" d="M7.5,0A7.5,7.5 0 1,1 0,-7.5A7.5,7.5 0 0,1 7.5,0Z" style="opacity: 1; stroke-width: 0px; fill: rgb(0, 51, 255); fill-opacity: 0.25;"/><path class="point" transform="translate(26.68,303.46)" d="M7.5,0A7.5,7.5 0 1,1 0,-7.5A7.5,7.5 0 0,1 7.5,0Z" style="opacity: 1; stroke-width: 0px; fill: rgb(0, 51, 255); fill-opacity: 0.25;"/><path class="point" transform="translate(30.74,303.46)" d="M7.5,0A7.5,7.5 0 1,1 0,-7.5A7.5,7.5 0 0,1 7.5,0Z" style="opacity: 1; stroke-width: 0px; fill: rgb(0, 51, 255); fill-opacity: 0.25;"/><path class="point" transform="translate(31.71,312.31)" d="M7.5,0A7.5,7.5 0 1,1 0,-7.5A7.5,7.5 0 0,1 7.5,0Z" style="opacity: 1; stroke-width: 0px; fill: rgb(0, 51, 255); fill-opacity: 0.25;"/><path class="point" transform="translate(34.23,310.54)" d="M7.5,0A7.5,7.5 0 1,1 0,-7.5A7.5,7.5 0 0,1 7.5,0Z" style="opacity: 1; stroke-width: 0px; fill: rgb(0, 51, 255); fill-opacity: 0.25;"/><path class="point" transform="translate(39.68,303.46)" d="M7.5,0A7.5,7.5 0 1,1 0,-7.5A7.5,7.5 0 0,1 7.5,0Z" style="opacity: 1; stroke-width: 0px; fill: rgb(0, 51, 255); fill-opacity: 0.25;"/><path class="point" transform="translate(42.19,300.81)" d="M7.5,0A7.5,7.5 0 1,1 0,-7.5A7.5,7.5 0 0,1 7.5,0Z" style="opacity: 1; stroke-width: 0px; fill: rgb(0, 51, 255); fill-opacity: 0.25;"/><path class="point" transform="translate(44.57,303.46)" d="M7.5,0A7.5,7.5 0 1,1 0,-7.5A7.5,7.5 0 0,1 7.5,0Z" style="opacity: 1; stroke-width: 0px; fill: rgb(0, 51, 255); fill-opacity: 0.25;"/><path class="point" transform="translate(46.1,299.04)" d="M7.5,0A7.5,7.5 0 1,1 0,-7.5A7.5,7.5 0 0,1 7.5,0Z" style="opacity: 1; stroke-width: 0px; fill: rgb(0, 51, 255); fill-opacity: 0.25;"/><path class="point" transform="translate(43.45,299.04)" d="M7.5,0A7.5,7.5 0 1,1 0,-7.5A7.5,7.5 0 0,1 7.5,0Z" style="opacity: 1; stroke-width: 0px; fill: rgb(0, 51, 255); fill-opacity: 0.25;"/><path class="point" transform="translate(48.48,294.62)" d="M7.5,0A7.5,7.5 0 1,1 0,-7.5A7.5,7.5 0 0,1 7.5,0Z" style="opacity: 1; stroke-width: 0px; fill: rgb(0, 51, 255); fill-opacity: 0.25;"/><path class="point" transform="translate(47.64,303.46)" d="M7.5,0A7.5,7.5 0 1,1 0,-7.5A7.5,7.5 0 0,1 7.5,0Z" style="opacity: 1; stroke-width: 0px; fill: rgb(0, 51, 255); fill-opacity: 0.25;"/><path class="point" transform="translate(53.37,307.89)" d="M7.5,0A7.5,7.5 0 1,1 0,-7.5A7.5,7.5 0 0,1 7.5,0Z" style="opacity: 1; stroke-width: 0px; fill: rgb(0, 51, 255); fill-opacity: 0.25;"/><path class="point" transform="translate(51.97,312.31)" d="M7.5,0A7.5,7.5 0 1,1 0,-7.5A7.5,7.5 0 0,1 7.5,0Z" style="opacity: 1; stroke-width: 0px; fill: rgb(0, 51, 255); fill-opacity: 0.25;"/></g><g class="text"/></g><g class="trace scatter trace07c271" style="stroke-miterlimit: 2; opacity: 1;"><g class="fills"/><g class="errorbars"/><g class="lines"><path class="js-line" d="M0,298.54Q2.67,298.49 4.47,299.26C8.1,300.81 15.7,309.85 19.14,310.38C20.77,310.63 21.75,309.22 23.05,308.99C24.26,308.77 25.48,309.29 26.68,308.95C28.05,308.57 29.83,306.77 30.74,306.54C31.15,306.44 31.31,306.61 31.71,306.59C32.35,306.55 33.23,306.27 34.23,306.18C35.7,306.05 38.22,306.27 39.68,306.1C40.68,305.98 41.4,305.37 42.19,305.54C43.04,305.72 43.93,306.56 44.57,307.33C45.25,308.15 46.15,310.34 46.1,310.37C46.04,310.4 43.24,306.26 43.45,306.08C43.69,305.88 48.61,310.17 48.48,310.44C48.43,310.54 47.64,310.32 47.64,310.27C47.65,310.14 53.34,309.85 53.37,310.01Q53.38,310.09 51.97,310.45" style="vector-effect: non-scaling-stroke; fill: none; stroke: rgb(140, 0, 0); stroke-opacity: 1; stroke-width: 7px; opacity: 1;"/></g><g class="points"/><g class="text"/></g><g class="trace scatter trace290686" style="stroke-miterlimit: 2; opacity: 1;"><g class="fills"/><g class="errorbars"/><g class="lines"/><g class="points"><path class="point" transform="translate(0,298.16)" d="M7.5,0A7.5,7.5 0 1,1 0,-7.5A7.5,7.5 0 0,1 7.5,0Z" style="opacity: 1; stroke-width: 0px; fill: rgb(140, 0, 0); fill-opacity: 0.25;"/><path class="point" transform="translate(4.47,299.04)" d="M7.5,0A7.5,7.5 0 1,1 0,-7.5A7.5,7.5 0 0,1 7.5,0Z" style="opacity: 1; stroke-width: 0px; fill: rgb(140, 0, 0); fill-opacity: 0.25;"/><path class="point" transform="translate(19.14,312.31)" d="M7.5,0A7.5,7.5 0 1,1 0,-7.5A7.5,7.5 0 0,1 7.5,0Z" style="opacity: 1; stroke-width: 0px; fill: rgb(140, 0, 0); fill-opacity: 0.25;"/><path class="point" transform="translate(23.05,307.89)" d="M7.5,0A7.5,7.5 0 1,1 0,-7.5A7.5,7.5 0 0,1 7.5,0Z" style="opacity: 1; stroke-width: 0px; fill: rgb(140, 0, 0); fill-opacity: 0.25;"/><path class="point" transform="translate(26.68,312.31)" d="M7.5,0A7.5,7.5 0 1,1 0,-7.5A7.5,7.5 0 0,1 7.5,0Z" style="opacity: 1; stroke-width: 0px; fill: rgb(140, 0, 0); fill-opacity: 0.25;"/><path class="point" transform="translate(30.74,303.46)" d="M7.5,0A7.5,7.5 0 1,1 0,-7.5A7.5,7.5 0 0,1 7.5,0Z" style="opacity: 1; stroke-width: 0px; fill: rgb(140, 0, 0); fill-opacity: 0.25;"/><path class="point" transform="translate(31.71,307.89)" d="M7.5,0A7.5,7.5 0 1,1 0,-7.5A7.5,7.5 0 0,1 7.5,0Z" style="opacity: 1; stroke-width: 0px; fill: rgb(140, 0, 0); fill-opacity: 0.25;"/><path class="point" transform="translate(34.23,305.23)" d="M7.5,0A7.5,7.5 0 1,1 0,-7.5A7.5,7.5 0 0,1 7.5,0Z" style="opacity: 1; stroke-width: 0px; fill: rgb(140, 0, 0); fill-opacity: 0.25;"/><path class="point" transform="translate(39.68,307.89)" d="M7.5,0A7.5,7.5 0 1,1 0,-7.5A7.5,7.5 0 0,1 7.5,0Z" style="opacity: 1; stroke-width: 0px; fill: rgb(140, 0, 0); fill-opacity: 0.25;"/><path class="point" transform="translate(42.19,299.93)" d="M7.5,0A7.5,7.5 0 1,1 0,-7.5A7.5,7.5 0 0,1 7.5,0Z" style="opacity: 1; stroke-width: 0px; fill: rgb(140, 0, 0); fill-opacity: 0.25;"/><path class="point" transform="translate(44.57,299.04)" d="M7.5,0A7.5,7.5 0 1,1 0,-7.5A7.5,7.5 0 0,1 7.5,0Z" style="opacity: 1; stroke-width: 0px; fill: rgb(140, 0, 0); fill-opacity: 0.25;"/><path class="point" transform="translate(43.45,299.04)" d="M7.5,0A7.5,7.5 0 1,1 0,-7.5A7.5,7.5 0 0,1 7.5,0Z" style="opacity: 1; stroke-width: 0px; fill: rgb(140, 0, 0); fill-opacity: 0.25;"/><path class="point" transform="translate(48.48,312.31)" d="M7.5,0A7.5,7.5 0 1,1 0,-7.5A7.5,7.5 0 0,1 7.5,0Z" style="opacity: 1; stroke-width: 0px; fill: rgb(140, 0, 0); fill-opacity: 0.25;"/><path class="point" transform="translate(47.64,307.89)" d="M7.5,0A7.5,7.5 0 1,1 0,-7.5A7.5,7.5 0 0,1 7.5,0Z" style="opacity: 1; stroke-width: 0px; fill: rgb(140, 0, 0); fill-opacity: 0.25;"/><path class="point" transform="translate(53.37,307.89)" d="M7.5,0A7.5,7.5 0 1,1 0,-7.5A7.5,7.5 0 0,1 7.5,0Z" style="opacity: 1; stroke-width: 0px; fill: rgb(140, 0, 0); fill-opacity: 0.25;"/><path class="point" transform="translate(51.97,312.31)" d="M7.5,0A7.5,7.5 0 1,1 0,-7.5A7.5,7.5 0 0,1 7.5,0Z" style="opacity: 1; stroke-width: 0px; fill: rgb(140, 0, 0); fill-opacity: 0.25;"/></g><g class="text"/></g></g></g><g class="overplot"/><path class="xlines-above crisp" d="M0,0" style="fill: none;"/><path class="ylines-above crisp" d="M0,0" style="fill: none;"/><g class="overlines-above"/><g class="xaxislayer-above"><g class="xtick"><text text-anchor="middle" x="0" y="363" transform="translate(61.74,0)" style="font-family: 'Open Sans', verdana, arial, sans-serif; font-size: 12px; fill: rgb(42, 63, 95); fill-opacity: 1; white-space: pre; opacity: 1;">1.1.22</text></g><g class="xtick"><text text-anchor="middle" x="0" y="363" style="font-family: 'Open Sans', verdana, arial, sans-serif; font-size: 12px; fill: rgb(42, 63, 95); fill-opacity: 1; white-space: pre; opacity: 1;" transform="translate(112.72999999999999,0)">1.1.23</text></g><g class="xtick"><text text-anchor="middle" x="0" y="363" style="font-family: 'Open Sans', verdana, arial, sans-serif; font-size: 12px; fill: rgb(42, 63, 95); fill-opacity: 1; white-space: pre; opacity: 1;" transform="translate(163.72,0)">1.1.24</text></g><g class="xtick"><text text-anchor="middle" x="0" y="363" style="font-family: 'Open Sans', verdana, arial, sans-serif; font-size: 12px; fill: rgb(42, 63, 95); fill-opacity: 1; white-space: pre; opacity: 1;" transform="translate(214.86,0)">1.1.25</text></g></g><g class="yaxislayer-above"><g class="ytick"><text text-anchor="end" x="49" y="4.199999999999999" transform="translate(0,350)" style="font-family: 'Open Sans', verdana, arial, sans-serif; font-size: 12px; fill: rgb(42, 63, 95); fill-opacity: 1; white-space: pre; opacity: 1;">0%</text></g><g class="ytick"><text text-anchor="end" x="49" y="4.199999999999999" style="font-family: 'Open Sans', verdana, arial, sans-serif; font-size: 12px; fill: rgb(42, 63, 95); fill-opacity: 1; white-space: pre; opacity: 1;" transform="translate(0,305.77)">5%</text></g><g class="ytick"><text text-anchor="end" x="49" y="4.199999999999999" style="font-family: 'Open Sans', verdana, arial, sans-serif; font-size: 12px; fill: rgb(42, 63, 95); fill-opacity: 1; white-space: pre; opacity: 1;" transform="translate(0,261.55)">10%</text></g><g class="ytick"><text text-anchor="end" x="49" y="4.199999999999999" style="font-family: 'Open Sans', verdana, arial, sans-serif; font-size: 12px; fill: rgb(42, 63, 95); fill-opacity: 1; white-space: pre; opacity: 1;" transform="translate(0,217.32)">15%</text></g><g class="ytick"><text text-anchor="end" x="49" y="4.199999999999999" style="font-family: 'Open Sans', verdana, arial, sans-serif; font-size: 12px; fill: rgb(42, 63, 95); fill-opacity: 1; white-space: pre; opacity: 1;" transform="translate(0,173.09)">20%</text></g><g class="ytick"><text text-anchor="end" x="49" y="4.199999999999999" style="font-family: 'Open Sans', verdana, arial, sans-serif; font-size: 12px; fill: rgb(42, 63, 95); fill-opacity: 1; white-space: pre; opacity: 1;" transform="translate(0,128.86)">25%</text></g><g class="ytick"><text text-anchor="end" x="49" y="4.199999999999999" style="font-family: 'Open Sans', verdana, arial, sans-serif; font-size: 12px; fill: rgb(42, 63, 95); fill-opacity: 1; white-space: pre; opacity: 1;" transform="translate(0,84.64)">30%</text></g><g class="ytick"><text text-anchor="end" x="49" y="4.199999999999999" style="font-family: 'Open Sans', verdana, arial, sans-serif; font-size: 12px; fill: rgb(42, 63, 95); fill-opacity: 1; white-space: pre; opacity: 1;" transform="translate(0,40.41)">35%</text></g></g><g class="overaxes-above"/></g></g><g class="polarlayer"/><g class="smithlayer"/><g class="ternarylayer"/><g class="geolayer"/><g class="funnelarealayer"/><g class="pielayer"/><g class="iciclelayer"/><g class="treemaplayer"/><g class="sunburstlayer"/><g class="glimages"/><defs id="topdefs-48c810"><g class="clips"/><clipPath id="legend48c810"><rect width="131" height="200" x="0" y="0"/></clipPath></defs><g class="layer-above"><g class="imagelayer"/><g class="shapelayer"/></g><g class="infolayer"><g class="legend" pointer-events="all" transform="translate(257.06,20)"><rect class="bg" shape-rendering="crispEdges" width="131" height="200" x="0" y="0" style="stroke: rgb(68, 68, 68); stroke-opacity: 1; fill: rgb(255, 255, 255); fill-opacity: 1; stroke-width: 0px;"/><g class="scrollbox" transform="" clip-path="url(#legend48c810)"><g class="groups"><g class="traces" transform="translate(0,14.5)" style="opacity: 1;"><text class="legendtext" text-anchor="start" x="40" y="4.680000000000001" style="font-family: 'Open Sans', verdana, arial, sans-serif; font-size: 12px; fill: rgb(42, 63, 95); fill-opacity: 1; white-space: pre;">ANO: 30%</text><g class="layers" style="opacity: 1;"><g class="legendfill"/><g class="legendlines"><path class="js-line" d="M5,0h30" style="fill: none; stroke: rgb(38, 16, 96); stroke-opacity: 1; stroke-width: 7px;"/></g><g class="legendsymbols"><g class="legendpoints"/></g></g><rect class="legendtoggle" x="0" y="-9.5" width="125.359375" height="19" style="fill: rgb(0, 0, 0); fill-opacity: 0;"/></g><g class="traces" transform="translate(0,33.5)" style="opacity: 1;"><text class="legendtext" text-anchor="start" x="40" y="4.680000000000001" style="font-family: 'Open Sans', verdana, arial, sans-serif; font-size: 12px; fill: rgb(42, 63, 95); fill-opacity: 1; white-space: pre;">ODS: 17%</text><g class="layers" style="opacity: 1;"><g class="legendfill"/><g class="legendlines"><path class="js-line" d="M5,0h30" style="fill: none; stroke: rgb(0, 68, 148); stroke-opacity: 1; stroke-width: 7px;"/></g><g class="legendsymbols"><g class="legendpoints"/></g></g><rect class="legendtoggle" x="0" y="-9.5" width="125.359375" height="19" style="fill: rgb(0, 0, 0); fill-opacity: 0;"/></g><g class="traces" transform="translate(0,52.5)" style="opacity: 1;"><text class="legendtext" text-anchor="start" x="40" y="4.680000000000001" style="font-family: 'Open Sans', verdana, arial, sans-serif; font-size: 12px; fill: rgb(42, 63, 95); fill-opacity: 1; white-space: pre;">SPD: 12%</text><g class="layers" style="opacity: 1;"><g class="legendfill"/><g class="legendlines"><path class="js-line" d="M5,0h30" style="fill: none; stroke: rgb(234, 35, 41); stroke-opacity: 1; stroke-width: 7px;"/></g><g class="legendsymbols"><g class="legendpoints"/></g></g><rect class="legendtoggle" x="0" y="-9.5" width="125.359375" height="19" style="fill: rgb(0, 0, 0); fill-opacity: 0;"/></g><g class="traces" transform="translate(0,71.5)" style="opacity: 1;"><text class="legendtext" text-anchor="start" x="40" y="4.680000000000001" style="font-family: 'Open Sans', verdana, arial, sans-serif; font-size: 12px; fill: rgb(42, 63, 95); fill-opacity: 1; white-space: pre;">Pirti: 11%</text><g class="layers" style="opacity: 1;"><g class="legendfill"/><g class="legendlines"><path class="js-line" d="M5,0h30" style="fill: none; stroke: rgb(0, 0, 0); stroke-opacity: 1; stroke-width: 7px;"/></g><g class="legendsymbols"><g class="legendpoints"/></g></g><rect class="legendtoggle" x="0" y="-9.5" width="125.359375" height="19" style="fill: rgb(0, 0, 0); fill-opacity: 0;"/></g><g class="traces" transform="translate(0,90.5)" style="opacity: 1;"><text class="legendtext" text-anchor="start" x="40" y="4.680000000000001" style="font-family: 'Open Sans', verdana, arial, sans-serif; font-size: 12px; fill: rgb(42, 63, 95); fill-opacity: 1; white-space: pre;">STAN: 6%</text><g class="layers" style="opacity: 1;"><g class="legendfill"/><g class="legendlines"><path class="js-line" d="M5,0h30" style="fill: none; stroke: rgb(93, 140, 0); stroke-opacity: 1; stroke-width: 7px;"/></g><g class="legendsymbols"><g class="legendpoints"/></g></g><rect class="legendtoggle" x="0" y="-9.5" width="125.359375" height="19" style="fill: rgb(0, 0, 0); fill-opacity: 0;"/></g><g class="traces" transform="translate(0,109.5)" style="opacity: 1;"><text class="legendtext" text-anchor="start" x="40" y="4.680000000000001" style="font-family: 'Open Sans', verdana, arial, sans-serif; font-size: 12px; fill: rgb(42, 63, 95); fill-opacity: 1; white-space: pre;">TOP 09: 5%</text><g class="layers" style="opacity: 1;"><g class="legendfill"/><g class="legendlines"><path class="js-line" d="M5,0h30" style="fill: none; stroke: rgb(114, 55, 105); stroke-opacity: 1; stroke-width: 7px;"/></g><g class="legendsymbols"><g class="legendpoints"/></g></g><rect class="legendtoggle" x="0" y="-9.5" width="125.359375" height="19" style="fill: rgb(0, 0, 0); fill-opacity: 0;"/></g><g class="traces" transform="translate(0,128.5)" style="opacity: 1;"><text class="legendtext" text-anchor="start" x="40" y="4.680000000000001" style="font-family: 'Open Sans', verdana, arial, sans-serif; font-size: 12px; fill: rgb(42, 63, 95); fill-opacity: 1; white-space: pre;">KDU-SL: 5%</text><g class="layers" style="opacity: 1;"><g class="legendfill"/><g class="legendlines"><path class="js-line" d="M5,0h30" style="fill: none; stroke: rgb(230, 172, 33); stroke-opacity: 1; stroke-width: 7px;"/></g><g class="legendsymbols"><g class="legendpoints"/></g></g><rect class="legendtoggle" x="0" y="-9.5" width="125.359375" height="19" style="fill: rgb(0, 0, 0); fill-opacity: 0;"/></g><g class="traces" transform="translate(0,147.5)" style="opacity: 1;"><text class="legendtext" text-anchor="start" x="40" y="4.680000000000001" style="font-family: 'Open Sans', verdana, arial, sans-serif; font-size: 12px; fill: rgb(42, 63, 95); fill-opacity: 1; white-space: pre;">SSD: 4%</text><g class="layers" style="opacity: 1;"><g class="legendfill"/><g class="legendlines"><path class="js-line" d="M5,0h30" style="fill: none; stroke: rgb(240, 125, 0); stroke-opacity: 1; stroke-width: 7px;"/></g><g class="legendsymbols"><g class="legendpoints"/></g></g><rect class="legendtoggle" x="0" y="-9.5" width="125.359375" height="19" style="fill: rgb(0, 0, 0); fill-opacity: 0;"/></g><g class="traces" transform="translate(0,166.5)" style="opacity: 1;"><text class="legendtext" text-anchor="start" x="40" y="4.680000000000001" style="font-family: 'Open Sans', verdana, arial, sans-serif; font-size: 12px; fill: rgb(42, 63, 95); fill-opacity: 1; white-space: pre;">Psaha: 3%</text><g class="layers" style="opacity: 1;"><g class="legendfill"/><g class="legendlines"><path class="js-line" d="M5,0h30" style="fill: none; stroke: rgb(0, 51, 255); stroke-opacity: 1; stroke-width: 7px;"/></g><g class="legendsymbols"><g class="legendpoints"/></g></g><rect class="legendtoggle" x="0" y="-9.5" width="125.359375" height="19" style="fill: rgb(0, 0, 0); fill-opacity: 0;"/></g><g class="traces" transform="translate(0,185.5)" style="opacity: 1;"><text class="legendtext" text-anchor="start" x="40" y="4.680000000000001" style="font-family: 'Open Sans', verdana, arial, sans-serif; font-size: 12px; fill: rgb(42, 63, 95); fill-opacity: 1; white-space: pre;">KSM: 2%</text><g class="layers" style="opacity: 1;"><g class="legendfill"/><g class="legendlines"><path class="js-line" d="M5,0h30" style="fill: none; stroke: rgb(140, 0, 0); stroke-opacity: 1; stroke-width: 7px;"/></g><g class="legendsymbols"><g class="legendpoints"/></g></g><rect class="legendtoggle" x="0" y="-9.5" width="125.359375" height="19" style="fill: rgb(0, 0, 0); fill-opacity: 0;"/></g></g></g><rect class="scrollbar" rx="20" ry="3" width="0" height="0" x="0" y="0" style="fill: rgb(128, 139, 164); fill-opacity: 1;"/></g><g class="g-gtitle"/><g class="g-xtitle"/><g class="g-ytitle"/></g></svg>