<svg class="main-svg" xmlns="http://www.w3.org/2000/svg" xmlns:xlink="http://www.w3.org/1999/xlink" width="300" height="135" style="" viewBox="0 0 300 135"><rect x="0" y="0" width="300" height="135" style="fill: rgb(255, 255, 255); fill-opacity: 1;"/><defs id="defs-414c22"><g class="clips"><clipPath id="clip414c22xyplot" class="plotclip"><rect width="280" height="75"/></clipPath><clipPath class="axesclip" id="clip414c22x"><rect x="10" y="0" width="280" height="135"/></clipPath><clipPath class="axesclip" id="clip414c22y"><rect x="0" y="50" width="300" height="75"/></clipPath><clipPath class="axesclip" id="clip414c22xy"><rect x="10" y="50" width="280" height="75"/></clipPath></g><g class="gradients"/><g class="patterns"/></defs><g class="bglayer"/><g class="layer-below"><g class="imagelayer"/><g class="shapelayer"/></g><g class="cartesianlayer"><g class="subplot xy"><g class="layer-subplot"><g class="shapelayer"/><g class="imagelayer"/></g><g class="minor-gridlayer"><g class="x"/><g class="y"/></g><g class="gridlayer"><g class="x"><path class="xgrid crisp" transform="translate(56.85,0)" d="M0,50v75" style="stroke: rgb(235, 240, 248); stroke-opacity: 1; stroke-width: 1px;"/><path class="xgrid crisp" transform="translate(157.81,0)" d="M0,50v75" style="stroke: rgb(235, 240, 248); stroke-opacity: 1; stroke-width: 1px;"/><path class="xgrid crisp" transform="translate(260.44,0)" d="M0,50v75" style="stroke: rgb(235, 240, 248); stroke-opacity: 1; stroke-width: 1px;"/></g><g class="y"><path class="ygrid crisp" transform="translate(0,101.82)" d="M10,0h280" style="stroke: rgb(235, 240, 248); stroke-opacity: 1; stroke-width: 1px;"/><path class="ygrid crisp" transform="translate(0,78.63)" d="M10,0h280" style="stroke: rgb(235, 240, 248); stroke-opacity: 1; stroke-width: 1px;"/><path class="ygrid crisp" transform="translate(0,55.45)" d="M10,0h280" style="stroke: rgb(235, 240, 248); stroke-opacity: 1; stroke-width: 1px;"/></g></g><g class="zerolinelayer"><path class="yzl zl crisp" transform="translate(0,125)" d="M10,0h280" style="stroke: rgb(235, 240, 248); stroke-opacity: 1; stroke-width: 2px;"/></g><path class="xlines-below"/><path class="ylines-below"/><g class="overlines-below"/><g class="xaxislayer-below"/><g class="yaxislayer-below"/><g class="overaxes-below"/><g class="plot" transform="translate(10,50)" clip-path="url(#clip414c22xyplot)"><g class="scatterlayer mlayer"><g class="trace scatter tracebe732d" style="stroke-miterlimit: 2; opacity: 1;"><g class="fills"/><g class="errorbars"/><g class="lines"><path class="js-line" d="M0,12.26Q10.18,12.26 17.85,12.42C31.74,12.71 63.14,15.18 76.41,14.32C83.31,13.88 86.91,12.4 92.03,11.78C96.94,11.18 101.56,11.03 106.53,10.61C111.78,10.17 119.16,9.45 122.71,9.21C124.45,9.09 125.01,9.14 126.61,9.02C129.18,8.83 132.66,8.43 136.65,8.04C142.52,7.46 152.54,6.29 158.41,5.86C162.39,5.57 165.68,5.43 168.45,5.41C170.41,5.4 171.85,5.57 173.47,5.58C175,5.59 176.33,5.48 177.93,5.46C179.81,5.44 182.02,5.48 184.06,5.49C186.11,5.5 188.46,5.49 190.2,5.53C191.48,5.56 192.05,5.62 193.55,5.67C196.61,5.77 203.9,5.63 207.49,6.01C209.78,6.25 210.61,6.94 213.07,7.06C217.77,7.29 225.47,5.72 233.71,5.23C245.95,4.5 276.4,4.13 279.44,3.84Q279.78,3.81 280,3.75" style="vector-effect: none; fill: none; stroke: rgb(38, 16, 96); stroke-opacity: 1; stroke-width: 5px; opacity: 1;"/></g><g class="points"/><g class="text"/></g><g class="trace scatter trace293adc" style="stroke-miterlimit: 2; opacity: 1;"><g class="fills"/><g class="errorbars"/><g class="lines"><path class="js-line" d="M0,42.11Q10.23,41.08 17.85,39.63C31.79,36.97 63.06,27.6 76.41,25.35C83.22,24.2 86.91,24.13 92.03,23.86C96.95,23.6 101.65,22.83 106.53,23.71C111.87,24.67 119.12,29.26 122.71,29.95C124.41,30.28 125.03,29.75 126.61,30C129.2,30.42 132.62,32.21 136.65,33.16C142.48,34.54 152.53,36.11 158.41,36.64C162.38,37 165.68,36.88 168.45,36.84C170.41,36.81 171.85,36.71 173.47,36.61C175,36.52 176.33,36.27 177.93,36.29C179.81,36.31 182.01,36.82 184.06,36.88C186.1,36.94 188.46,36.74 190.2,36.64C191.49,36.57 192.05,36.44 193.55,36.39C196.61,36.29 203.91,36.97 207.49,36.51C209.79,36.22 210.61,35.12 213.07,35.01C217.76,34.79 225.46,38.31 233.71,38.55C245.94,38.91 276.41,32.99 279.44,33.46Q279.79,33.51 280,33.71" style="vector-effect: none; fill: none; stroke: rgb(0, 68, 148); stroke-opacity: 1; stroke-width: 5px; opacity: 1;"/></g><g class="points"/><g class="text"/></g><g class="trace scatter tracef0ead4" style="stroke-miterlimit: 2; opacity: 1;"><g class="fills"/><g class="errorbars"/><g class="lines"><path class="js-line" d="M0,53.92Q10.17,55.14 17.85,55.64C31.73,56.55 63.11,57.39 76.41,57.69C83.28,57.85 86.92,57.77 92.03,57.85C96.95,57.92 101.59,58.61 106.53,58.13C111.8,57.62 119.15,55.24 122.71,54.62C124.45,54.32 125.01,54.37 126.61,54.11C129.18,53.69 132.64,52.59 136.65,52.17C142.5,51.55 152.54,51.74 158.41,51.74C162.4,51.74 165.68,51.96 168.45,51.95C170.41,51.95 171.85,51.79 173.47,51.82C175,51.85 176.32,52.08 177.93,52.12C179.81,52.17 182.02,52.09 184.06,52.03C186.11,51.97 188.46,51.77 190.2,51.74C191.48,51.72 192.05,51.82 193.55,51.77C196.61,51.67 203.89,50.95 207.49,50.73C209.77,50.59 210.62,50.46 213.07,50.48C217.78,50.53 225.47,51.59 233.71,51.81C245.96,52.14 276.4,51.61 279.44,51.32Q279.78,51.29 280,51.22" style="vector-effect: none; fill: none; stroke: rgb(0, 0, 0); stroke-opacity: 1; stroke-width: 5px; opacity: 1;"/></g><g class="points"/><g class="text"/></g><g class="trace scatter trace072483" style="stroke-miterlimit: 2; opacity: 1;"><g class="fills"/><g class="errorbars"/><g class="lines"><path class="js-line" d="M0,52.76Q10.19,52.99 17.85,52.79C31.74,52.42 63.12,49.48 76.41,49.56C83.28,49.6 86.92,50.63 92.03,50.6C96.95,50.57 101.56,49.79 106.53,49.44C111.77,49.07 119.16,48.62 122.71,48.45C124.45,48.37 125.01,48.41 126.61,48.31C129.18,48.15 132.66,47.66 136.65,47.39C142.51,46.99 152.54,46.6 158.41,46.44C162.39,46.33 165.68,46.39 168.45,46.32C170.41,46.27 171.85,46.11 173.47,46.13C175,46.15 176.32,46.36 177.93,46.39C179.81,46.42 182.02,46.17 184.06,46.24C186.11,46.31 188.46,46.69 190.2,46.82C191.48,46.92 192.05,46.94 193.55,47.01C196.61,47.15 203.89,47.31 207.49,47.47C209.77,47.57 210.62,47.72 213.07,47.77C217.78,47.86 225.5,46.94 233.71,47.44C245.98,48.18 276.4,53.62 279.44,53.75Q279.77,53.76 280,53.72" style="vector-effect: none; fill: none; stroke: rgb(234, 35, 41); stroke-opacity: 1; stroke-width: 5px; opacity: 1;"/></g><g class="points"/><g class="text"/></g><g class="trace scatter tracee8aa2f" style="stroke-miterlimit: 2; opacity: 1;"><g class="fills"/><g class="errorbars"/><g class="lines"><path class="js-line" d="M0,56.69Q9.97,50.51 17.85,49.04C31.54,46.48 63.12,50.18 76.41,51.1C83.29,51.58 86.92,52.15 92.03,52.72C96.96,53.27 101.58,53.64 106.53,54.43C111.79,55.27 119.16,56.91 122.71,57.67C124.46,58.04 125,58.22 126.61,58.55C129.18,59.08 132.65,59.95 136.65,60.46C142.5,61.21 152.54,61.62 158.41,61.9C162.39,62.09 165.68,62.13 168.45,62.19C170.41,62.24 171.85,62.32 173.47,62.28C175,62.24 176.32,62.03 177.93,61.96C179.81,61.88 182.02,61.93 184.06,61.85C186.11,61.77 188.46,61.6 190.2,61.47C191.49,61.38 192.05,61.24 193.55,61.19C196.61,61.08 203.89,61.36 207.49,61.35C209.77,61.34 210.62,61.3 213.07,61.24C217.78,61.12 225.48,60.87 233.71,60.59C245.96,60.17 276.4,58.94 279.44,58.88Q279.78,58.87 280,58.88" style="vector-effect: none; fill: none; stroke: rgb(93, 140, 0); stroke-opacity: 1; stroke-width: 5px; opacity: 1;"/></g><g class="points"/><g class="text"/></g></g></g><g class="overplot"/><path class="xlines-above crisp" d="M0,0" style="fill: none;"/><path class="ylines-above crisp" d="M0,0" style="fill: none;"/><g class="overlines-above"/><g class="xaxislayer-above"/><g class="yaxislayer-above"/><g class="overaxes-above"/></g></g><g class="polarlayer"/><g class="smithlayer"/><g class="ternarylayer"/><g class="geolayer"/><g class="funnelarealayer"/><g class="pielayer"/><g class="iciclelayer"/><g class="treemaplayer"/><g class="sunburstlayer"/><g class="glimages"/><defs id="topdefs-414c22"><g class="clips"/></defs><g class="layer-above"><g class="imagelayer"/><g class="shapelayer"/></g><g class="infolayer"><g class="g-gtitle"><text class="gtitle" x="15" y="25" text-anchor="start" dy="0em" style="font-family: Ubuntu, verdana, arial, sans-serif; font-size: 16px; fill: rgb(233, 84, 32); opacity: 1; font-weight: normal; white-space: pre;">Sněmovna 2021-2025</text></g><g class="g-xtitle"/><g class="g-ytitle"/></g></svg>