<svg class="main-svg" xmlns="http://www.w3.org/2000/svg" xmlns:xlink="http://www.w3.org/1999/xlink" width="300" height="135" style="" viewBox="0 0 300 135"><rect x="0" y="0" width="300" height="135" style="fill: rgb(255, 255, 255); fill-opacity: 1;"/><defs id="defs-2b0efb"><g class="clips"><clipPath id="clip2b0efbxyplot" class="plotclip"><rect width="280" height="75"/></clipPath><clipPath class="axesclip" id="clip2b0efbx"><rect x="10" y="0" width="280" height="135"/></clipPath><clipPath class="axesclip" id="clip2b0efby"><rect x="0" y="50" width="300" height="75"/></clipPath><clipPath class="axesclip" id="clip2b0efbxy"><rect x="10" y="50" width="280" height="75"/></clipPath></g><g class="gradients"/><g class="patterns"/></defs><g class="bglayer"/><g class="layer-below"><g class="imagelayer"/><g class="shapelayer"/></g><g class="cartesianlayer"><g class="subplot xy"><g class="layer-subplot"><g class="shapelayer"/><g class="imagelayer"/></g><g class="minor-gridlayer"><g class="x"/><g class="y"/></g><g class="gridlayer"><g class="x"><path class="xgrid crisp" transform="translate(32.68,0)" d="M0,50v75" style="stroke: rgb(235, 240, 248); stroke-opacity: 1; stroke-width: 1px;"/><path class="xgrid crisp" transform="translate(92.82,0)" d="M0,50v75" style="stroke: rgb(235, 240, 248); stroke-opacity: 1; stroke-width: 1px;"/><path class="xgrid crisp" transform="translate(150.99,0)" d="M0,50v75" style="stroke: rgb(235, 240, 248); stroke-opacity: 1; stroke-width: 1px;"/><path class="xgrid crisp" transform="translate(211.13,0)" d="M0,50v75" style="stroke: rgb(235, 240, 248); stroke-opacity: 1; stroke-width: 1px;"/><path class="xgrid crisp" transform="translate(271.27,0)" d="M0,50v75" style="stroke: rgb(235, 240, 248); stroke-opacity: 1; stroke-width: 1px;"/></g><g class="y"><path class="ygrid crisp" transform="translate(0,100.78)" d="M10,0h280" style="stroke: rgb(235, 240, 248); stroke-opacity: 1; stroke-width: 1px;"/><path class="ygrid crisp" transform="translate(0,76.55)" d="M10,0h280" style="stroke: rgb(235, 240, 248); stroke-opacity: 1; stroke-width: 1px;"/><path class="ygrid crisp" transform="translate(0,52.33)" d="M10,0h280" style="stroke: rgb(235, 240, 248); stroke-opacity: 1; stroke-width: 1px;"/></g></g><g class="zerolinelayer"><path class="yzl zl crisp" transform="translate(0,125)" d="M10,0h280" style="stroke: rgb(235, 240, 248); stroke-opacity: 1; stroke-width: 2px;"/></g><path class="xlines-below"/><path class="ylines-below"/><g class="overlines-below"/><g class="xaxislayer-below"/><g class="yaxislayer-below"/><g class="overaxes-below"/><g class="plot" transform="translate(10,50)" clip-path="url(#clip2b0efbxyplot)"><g class="scatterlayer mlayer"><g class="trace scatter trace39aa1d" style="stroke-miterlimit: 2; opacity: 1;"><g class="fills"/><g class="errorbars"/><g class="lines"><path class="js-line" d="M0,9.44Q18,9.44 31.55,9.61C56.1,9.92 111.58,12.54 135.07,11.67C147.23,11.22 153.64,9.69 162.68,9.06C171.37,8.46 179.53,8.32 188.31,7.92C197.58,7.5 210.62,6.8 216.9,6.59C219.98,6.49 220.97,6.54 223.8,6.45C228.35,6.3 234.5,6 241.55,5.67Q251.92,5.18 280,3.75" style="vector-effect: non-scaling-stroke; fill: none; stroke: rgb(38, 16, 96); stroke-opacity: 1; stroke-width: 5px; opacity: 1;"/></g><g class="points"/><g class="text"/></g><g class="trace scatter trace522d37" style="stroke-miterlimit: 2; opacity: 1;"><g class="fills"/><g class="errorbars"/><g class="lines"><path class="js-line" d="M0,40.64Q18.03,39.58 31.55,38.04C56.13,35.25 111.53,25.45 135.07,23.03C147.17,21.79 153.64,21.7 162.68,21.35C171.38,21.02 179.59,20.04 188.31,20.94C197.64,21.9 210.6,26.73 216.9,27.39C219.96,27.71 220.98,27.07 223.8,27.3C228.36,27.68 234.48,29.48 241.55,30.48Q251.9,31.94 280,34.48" style="vector-effect: non-scaling-stroke; fill: none; stroke: rgb(0, 68, 148); stroke-opacity: 1; stroke-width: 5px; opacity: 1;"/></g><g class="points"/><g class="text"/></g><g class="trace scatter tracecd49fa" style="stroke-miterlimit: 2; opacity: 1;"><g class="fills"/><g class="errorbars"/><g class="lines"><path class="js-line" d="M0,51.76Q18,52 31.55,51.79C56.1,51.4 111.57,48.34 135.07,48.44C147.21,48.49 153.65,49.6 162.68,49.58C171.38,49.56 179.53,48.75 188.31,48.4C197.58,48.03 210.62,47.6 216.9,47.44C219.98,47.36 220.97,47.41 223.8,47.31C228.35,47.15 234.5,46.67 241.55,46.4Q251.92,46 280,45.43" style="vector-effect: non-scaling-stroke; fill: none; stroke: rgb(234, 35, 41); stroke-opacity: 1; stroke-width: 5px; opacity: 1;"/></g><g class="points"/><g class="text"/></g><g class="trace scatter tracef8b0ad" style="stroke-miterlimit: 2; opacity: 1;"><g class="fills"/><g class="errorbars"/><g class="lines"><path class="js-line" d="M0,52.97Q17.99,54.25 31.55,54.78C56.09,55.74 111.57,56.62 135.07,56.96C147.21,57.14 153.65,57.07 162.68,57.18C171.38,57.28 179.55,58.08 188.31,57.59C197.6,57.07 210.62,54.55 216.9,53.9C219.98,53.58 220.97,53.66 223.8,53.37C228.35,52.91 234.49,51.67 241.55,51.15Q251.9,50.38 280,50.24" style="vector-effect: non-scaling-stroke; fill: none; stroke: rgb(0, 0, 0); stroke-opacity: 1; stroke-width: 5px; opacity: 1;"/></g><g class="points"/><g class="text"/></g><g class="trace scatter trace51154c" style="stroke-miterlimit: 2; opacity: 1;"><g class="fills"/><g class="errorbars"/><g class="lines"><path class="js-line" d="M0,55.87Q17.86,49.44 31.55,47.87C55.97,45.07 111.57,49.02 135.07,49.94C147.21,50.42 153.65,51 162.68,51.56C171.38,52.1 179.54,52.44 188.31,53.23C197.59,54.07 210.62,55.74 216.9,56.52C219.99,56.9 220.96,57.09 223.8,57.43C228.34,57.98 234.49,58.89 241.55,59.4Q251.91,60.15 280,60.71" style="vector-effect: non-scaling-stroke; fill: none; stroke: rgb(93, 140, 0); stroke-opacity: 1; stroke-width: 5px; opacity: 1;"/></g><g class="points"/><g class="text"/></g></g></g><g class="overplot"/><path class="xlines-above crisp" d="M0,0" style="fill: none;"/><path class="ylines-above crisp" d="M0,0" style="fill: none;"/><g class="overlines-above"/><g class="xaxislayer-above"/><g class="yaxislayer-above"/><g class="overaxes-above"/></g></g><g class="polarlayer"/><g class="smithlayer"/><g class="ternarylayer"/><g class="geolayer"/><g class="funnelarealayer"/><g class="pielayer"/><g class="iciclelayer"/><g class="treemaplayer"/><g class="sunburstlayer"/><g class="glimages"/><defs id="topdefs-2b0efb"><g class="clips"/></defs><g class="layer-above"><g class="imagelayer"/><g class="shapelayer"/></g><g class="infolayer"><g class="g-gtitle"><text class="gtitle" x="15" y="25" text-anchor="start" dy="0em" style="font-family: Ubuntu, verdana, arial, sans-serif; font-size: 16px; fill: rgb(233, 84, 32); opacity: 1; font-weight: normal; white-space: pre;">Sněmovna 2021-2025</text></g><g class="g-xtitle"/><g class="g-ytitle"/></g></svg>