<svg class="main-svg" xmlns="http://www.w3.org/2000/svg" xmlns:xlink="http://www.w3.org/1999/xlink" width="300" height="135" style="" viewBox="0 0 300 135"><rect x="0" y="0" width="300" height="135" style="fill: rgb(255, 255, 255); fill-opacity: 1;"/><defs id="defs-06b829"><g class="clips"><clipPath id="clip06b829xyplot" class="plotclip"><rect width="280" height="75"/></clipPath><clipPath class="axesclip" id="clip06b829x"><rect x="10" y="0" width="280" height="135"/></clipPath><clipPath class="axesclip" id="clip06b829y"><rect x="0" y="50" width="300" height="75"/></clipPath><clipPath class="axesclip" id="clip06b829xy"><rect x="10" y="50" width="280" height="75"/></clipPath></g><g class="gradients"/><g class="patterns"/></defs><g class="bglayer"/><g class="layer-below"><g class="imagelayer"/><g class="shapelayer"/></g><g class="cartesianlayer"><g class="subplot xy"><g class="layer-subplot"><g class="shapelayer"/><g class="imagelayer"/></g><g class="minor-gridlayer"><g class="x"/><g class="y"/></g><g class="gridlayer"><g class="x"><path class="xgrid crisp" transform="translate(27.67,0)" d="M0,50v75" style="stroke: rgb(235, 240, 248); stroke-opacity: 1; stroke-width: 1px;"/><path class="xgrid crisp" transform="translate(104.46,0)" d="M0,50v75" style="stroke: rgb(235, 240, 248); stroke-opacity: 1; stroke-width: 1px;"/><path class="xgrid crisp" transform="translate(181.24,0)" d="M0,50v75" style="stroke: rgb(235, 240, 248); stroke-opacity: 1; stroke-width: 1px;"/><path class="xgrid crisp" transform="translate(258.23,0)" d="M0,50v75" style="stroke: rgb(235, 240, 248); stroke-opacity: 1; stroke-width: 1px;"/></g><g class="y"><path class="ygrid crisp" transform="translate(0,104.16)" d="M10,0h280" style="stroke: rgb(235, 240, 248); stroke-opacity: 1; stroke-width: 1px;"/><path class="ygrid crisp" transform="translate(0,83.31)" d="M10,0h280" style="stroke: rgb(235, 240, 248); stroke-opacity: 1; stroke-width: 1px;"/><path class="ygrid crisp" transform="translate(0,62.47)" d="M10,0h280" style="stroke: rgb(235, 240, 248); stroke-opacity: 1; stroke-width: 1px;"/></g></g><g class="zerolinelayer"><path class="yzl zl crisp" transform="translate(0,125)" d="M10,0h280" style="stroke: rgb(235, 240, 248); stroke-opacity: 1; stroke-width: 2px;"/></g><path class="xlines-below"/><path class="ylines-below"/><g class="overlines-below"/><g class="xaxislayer-below"/><g class="yaxislayer-below"/><g class="overaxes-below"/><g class="plot" transform="translate(10,50)" clip-path="url(#clip06b829xyplot)"><g class="scatterlayer mlayer"><g class="trace scatter traceeee29e" style="stroke-miterlimit: 2; opacity: 1;"><g class="fills"/><g class="errorbars"/><g class="lines"><path class="js-line" d="M0,18.51Q3.84,18.57 6.73,18.73C11.97,19.02 23.86,21.17 28.82,20.44C31.47,20.05 32.76,18.72 34.71,18.16C36.54,17.63 38.31,17.48 40.18,17.11C42.16,16.72 44.94,16.07 46.28,15.85C46.93,15.74 47.15,15.78 47.75,15.68C48.72,15.51 50.04,15.15 51.54,14.8C53.75,14.28 57.52,13.22 59.74,12.84C61.23,12.58 62.48,12.44 63.53,12.43C64.27,12.42 64.81,12.57 65.42,12.58C66,12.59 66.5,12.5 67.11,12.48C67.82,12.46 68.65,12.49 69.42,12.5C70.19,12.51 71.08,12.5 71.74,12.54C72.22,12.57 72.44,12.62 73,12.66C74.15,12.75 76.92,12.63 78.26,12.95C79.14,13.16 79.42,13.78 80.36,13.87C82.12,14.04 85.02,12.65 88.14,12.09C92.74,11.26 104.25,10.08 105.39,9.79C105.52,9.76 105.48,9.75 105.6,9.71C106.15,9.54 109.16,8.55 110.44,8.56C111.29,8.57 111.73,9.05 112.55,9.11C113.66,9.19 115.42,8.85 116.54,8.66C117.36,8.52 117.84,8.46 118.65,8.17C119.87,7.74 122.03,6.38 123.07,6.03C123.6,5.85 124.09,5.81 124.33,5.77C124.43,5.75 124.42,5.76 124.54,5.74C125.16,5.63 128.44,4.58 130.43,4.52C132.44,4.46 134.18,5.19 136.53,5.43C139.73,5.76 146.01,6.34 147.89,6.1C148.53,6.02 148.84,5.77 149.15,5.69C149.33,5.65 149.35,5.66 149.57,5.62C150.38,5.49 153.91,4.8 155.25,4.73C155.97,4.69 156.29,4.83 156.93,4.81C157.78,4.79 158.94,4.63 159.88,4.5C160.76,4.38 161.91,4.13 162.4,4.07C162.6,4.04 162.68,4.04 162.82,4.03C162.96,4.02 163.03,4.02 163.25,4.01C163.93,3.99 165.82,3.84 167.45,3.93C169.74,4.05 174.9,4.89 175.66,4.96C175.78,4.97 175.8,4.97 175.87,4.97C175.94,4.97 175.96,4.94 176.08,4.93C176.65,4.86 180.16,4.93 181.13,4.72C181.54,4.63 181.56,4.41 181.97,4.38C183.01,4.3 187.04,5.62 187.65,5.71C187.77,5.73 187.76,5.72 187.86,5.72C188.13,5.73 188.72,5.65 189.33,5.71C190.34,5.8 192.05,6.26 193.33,6.48C194.5,6.68 195.55,6.88 196.69,7.01C197.86,7.14 198.98,7.12 200.27,7.24C201.81,7.39 204.35,7.74 205.32,7.89C205.72,7.95 206.16,8.04 206.16,8.04C206.16,8.04 206.16,8.04 206.16,8.04C206.16,8.04 209.8,9.27 211,9.3C211.7,9.32 212,9.02 212.68,8.94C213.72,8.81 215.22,9.11 216.68,8.83C218.57,8.46 221.97,6.77 222.99,6.5C223.3,6.42 223.36,6.45 223.62,6.39C224.08,6.29 224.75,6.08 225.51,5.9C226.63,5.63 229.21,5.01 229.72,4.95C229.83,4.94 229.93,4.95 229.93,4.95C229.93,4.95 229.93,4.95 229.93,4.95C229.93,4.95 231.28,4.68 232.04,4.51C232.94,4.31 234.24,3.88 234.98,3.8C235.41,3.75 235.7,3.83 236.03,3.83C236.33,3.83 236.55,3.81 236.87,3.82C237.29,3.84 237.72,3.91 238.35,3.95C239.43,4.02 241.79,4.12 242.76,4.14C243.23,4.15 243.33,4.15 243.82,4.14C244.91,4.12 248.18,4.01 249.08,3.98C249.39,3.97 249.5,3.96 249.71,3.96C249.92,3.96 250.19,3.97 250.34,3.96C250.43,3.95 250.45,3.94 250.55,3.93C250.82,3.9 252.02,3.86 252.02,3.86C252.02,3.86 252.02,3.86 252.02,3.86C252.02,3.86 252.43,3.84 252.65,3.82C252.91,3.8 253.49,3.75 253.49,3.75C253.49,3.75 253.49,3.75 253.49,3.75C253.49,3.75 254.55,3.84 254.97,3.88C255.29,3.91 255.55,3.93 255.81,3.95C256.04,3.97 256.2,3.98 256.44,4.01C256.75,4.04 257.22,4.11 257.49,4.14C257.66,4.16 257.76,4.17 257.91,4.18C258.1,4.2 258.32,4.19 258.54,4.23C258.8,4.27 259.12,4.36 259.38,4.43C259.61,4.49 259.79,4.55 260.02,4.63C260.28,4.73 260.86,5 260.86,5C260.86,5 260.86,5 260.86,5C260.86,5 261.84,5.35 262.33,5.52C262.82,5.69 263.8,6.01 263.8,6.01C263.8,6.01 263.8,6.01 263.8,6.01C263.8,6.01 264.88,6.27 265.27,6.34C265.53,6.39 265.68,6.38 265.91,6.43C266.17,6.49 266.44,6.6 266.75,6.68C267.13,6.78 267.77,6.95 268.01,6.98C268.11,6.99 268.12,6.99 268.22,6.99C268.49,7 269.35,7.05 269.69,7.06C269.87,7.07 269.94,7.06 270.11,7.07C270.38,7.08 270.85,7.11 271.16,7.12C271.4,7.13 271.57,7.11 271.8,7.12C272.06,7.14 272.36,7.21 272.64,7.23C272.92,7.25 273.22,7.23 273.48,7.25C273.71,7.27 273.87,7.31 274.11,7.34C274.42,7.38 274.89,7.47 275.16,7.49C275.33,7.5 275.4,7.49 275.58,7.5C275.92,7.51 276.66,7.55 277.05,7.55C277.31,7.55 277.46,7.53 277.69,7.54C277.95,7.56 278.25,7.64 278.53,7.66C278.81,7.68 279.11,7.64 279.37,7.65Q279.6,7.66 280,7.73" style="vector-effect: none; fill: none; stroke: rgb(39, 42, 89); stroke-opacity: 1; stroke-width: 5px; opacity: 1;"/></g><g class="points"/><g class="text"/></g><g class="trace scatter trace8fe817" style="stroke-miterlimit: 2; opacity: 1;"><g class="fills"/><g class="errorbars"/><g class="lines"><path class="js-line" d="M0,17.26Q3.9,19.67 6.73,19.45C12.03,19.04 23.73,8.84 28.82,8.3C31.34,8.03 32.78,9.35 34.71,9.84C36.57,10.31 38.42,10.27 40.18,11.19C42.3,12.3 44.87,15.96 46.28,16.56C46.88,16.82 47.17,16.5 47.75,16.68C48.75,16.98 50,18.08 51.54,18.79C53.72,19.81 57.5,21.33 59.74,21.9C61.22,22.28 62.48,22.36 63.53,22.43C64.27,22.48 64.81,22.51 65.42,22.42C66.01,22.33 66.5,21.97 67.11,21.89C67.81,21.8 68.65,22.06 69.42,22C70.2,21.94 71.09,21.72 71.74,21.53C72.23,21.38 72.42,21.18 73,21.03C74.14,20.73 76.93,20.77 78.26,20.35C79.15,20.07 79.43,19.28 80.36,19.24C82.12,19.16 84.97,22.05 88.14,22.49C92.7,23.12 104.25,20.08 105.39,20.41C105.53,20.45 105.47,20.52 105.6,20.58C106.15,20.84 109.15,21.43 110.44,21.53C111.28,21.6 111.74,21.39 112.55,21.45C113.67,21.53 115.42,22.02 116.54,22.19C117.35,22.31 117.83,22.23 118.65,22.43C119.87,22.74 122.04,23.8 123.07,24.19C123.62,24.4 124.08,24.58 124.33,24.65C124.43,24.68 124.42,24.66 124.54,24.69C125.17,24.85 128.42,26.39 130.43,26.63C132.42,26.86 134.19,26 136.53,26.12C139.74,26.29 146,27.89 147.89,28.3C148.52,28.44 148.84,28.52 149.15,28.6C149.33,28.64 149.35,28.68 149.57,28.71C150.38,28.81 153.92,28.6 155.25,28.66C155.98,28.69 156.29,28.75 156.93,28.82C157.78,28.92 158.93,29.2 159.88,29.22C160.75,29.24 161.92,28.95 162.4,29C162.6,29.02 162.68,29.1 162.82,29.12C162.96,29.14 163.03,29.1 163.25,29.11C163.93,29.13 165.82,29.33 167.45,29.41C169.73,29.53 174.91,29.68 175.66,29.66C175.78,29.66 175.8,29.65 175.87,29.64C175.94,29.63 175.96,29.6 176.08,29.59C176.65,29.53 180.15,29.8 181.13,29.79C181.53,29.79 181.57,29.77 181.97,29.74C183.02,29.66 187.04,29.3 187.65,29.21C187.77,29.19 187.76,29.18 187.86,29.17C188.13,29.13 188.72,29.02 189.33,29.02C190.34,29.02 192.06,29.5 193.33,29.45C194.5,29.41 195.55,28.88 196.69,28.84C197.86,28.8 198.97,29.11 200.27,29.25C201.81,29.42 204.34,29.7 205.32,29.8C205.72,29.84 206.16,29.88 206.16,29.88C206.16,29.88 206.16,29.88 206.16,29.88C206.16,29.88 209.8,31.1 211,31.36C211.7,31.51 212,31.51 212.68,31.59C213.73,31.72 215.2,31.78 216.68,32.01C218.55,32.3 221.99,32.91 222.99,33.29C223.33,33.42 223.34,33.57 223.62,33.66C224.07,33.81 224.76,33.85 225.51,33.86C226.64,33.87 229.21,33.49 229.72,33.51C229.83,33.51 229.93,33.54 229.93,33.54C229.93,33.54 229.93,33.54 229.93,33.54C229.93,33.54 231.28,33.73 232.04,33.82C232.94,33.93 234.25,33.98 234.98,34.13C235.42,34.22 235.7,34.34 236.03,34.46C236.33,34.57 236.54,34.73 236.87,34.84C237.29,34.98 237.72,35.04 238.35,35.17C239.43,35.39 241.79,35.83 242.76,35.97C243.23,36.04 243.33,36.05 243.82,36.09C244.91,36.18 248.18,36.29 249.08,36.32C249.39,36.33 249.5,36.34 249.71,36.34C249.92,36.34 250.19,36.34 250.34,36.33C250.43,36.33 250.45,36.32 250.55,36.31C250.82,36.29 252.02,36.18 252.02,36.18C252.02,36.18 252.02,36.18 252.02,36.18C252.02,36.18 252.42,36.11 252.65,36.08C252.91,36.04 253.49,35.97 253.49,35.97C253.49,35.97 253.49,35.97 253.49,35.97C253.49,35.97 254.55,35.96 254.97,35.97C255.29,35.97 255.55,35.98 255.81,35.99C256.04,35.99 256.2,36 256.44,36C256.75,36 257.22,36 257.49,36C257.66,36 257.76,36.01 257.91,36C258.1,35.99 258.32,35.96 258.54,35.93C258.8,35.89 259.12,35.84 259.38,35.79C259.61,35.74 259.79,35.68 260.02,35.63C260.28,35.58 260.86,35.49 260.86,35.49C260.86,35.49 260.86,35.49 260.86,35.49C260.86,35.49 261.84,35.25 262.33,35.12C262.82,34.99 263.8,34.72 263.8,34.72C263.8,34.72 263.8,34.72 263.8,34.72C263.8,34.72 264.88,34.4 265.27,34.29C265.53,34.22 265.68,34.18 265.91,34.12C266.17,34.06 266.44,34 266.75,33.93C267.13,33.85 267.77,33.71 268.01,33.66C268.11,33.64 268.12,33.64 268.22,33.62C268.49,33.57 269.35,33.43 269.69,33.37C269.87,33.34 269.94,33.32 270.11,33.29C270.38,33.24 270.85,33.16 271.16,33.1C271.4,33.05 271.57,33.02 271.8,32.97C272.06,32.91 272.36,32.84 272.64,32.77C272.92,32.7 273.22,32.62 273.48,32.56C273.7,32.51 273.87,32.48 274.11,32.44C274.42,32.38 274.89,32.29 275.16,32.25C275.33,32.22 275.4,32.22 275.58,32.2C275.92,32.16 276.66,32.05 277.05,32.01C277.31,31.99 277.46,31.98 277.69,31.97C277.95,31.95 278.25,31.92 278.53,31.92C278.81,31.92 279.11,31.95 279.37,31.97Q279.6,31.99 280,32.02" style="vector-effect: none; fill: none; stroke: rgb(94, 102, 213); stroke-opacity: 1; stroke-width: 5px; opacity: 1;"/></g><g class="points"/><g class="text"/></g><g class="trace scatter tracec0511d" style="stroke-miterlimit: 2; opacity: 1;"><g class="fills"/><g class="errorbars"/><g class="lines"><path class="js-line" d="M0,54.99Q3.85,55.21 6.73,55.03C11.98,54.7 23.81,52.06 28.82,52.13C31.41,52.16 32.79,53.09 34.71,53.06C36.57,53.03 38.3,52.34 40.18,52.02C42.15,51.69 44.94,51.29 46.28,51.13C46.94,51.05 47.15,51.09 47.75,51C48.72,50.85 50.03,50.42 51.54,50.18C53.74,49.83 57.53,49.48 59.74,49.33C61.24,49.23 62.49,49.28 63.53,49.22C64.27,49.18 64.81,49.04 65.42,49.05C66,49.06 66.5,49.26 67.11,49.28C67.82,49.31 68.65,49.09 69.42,49.15C70.2,49.21 71.08,49.55 71.74,49.67C72.22,49.76 72.43,49.79 73,49.85C74.15,49.98 76.9,50.13 78.26,50.28C79.12,50.37 79.44,50.5 80.36,50.56C82.13,50.67 85.08,50 88.14,50.46C92.81,51.16 104.24,55.9 105.39,56.03C105.51,56.04 105.48,56.01 105.6,56.01C106.16,55.99 109.16,56.01 110.44,56.15C111.29,56.24 111.73,56.45 112.55,56.54C113.67,56.66 115.42,56.67 116.54,56.68C117.35,56.69 117.82,56.64 118.65,56.64C119.85,56.64 122.04,56.71 123.07,56.7C123.62,56.7 124.09,56.67 124.33,56.67C124.43,56.67 124.42,56.68 124.54,56.68C125.16,56.66 128.45,56.05 130.43,55.99C132.44,55.93 134.19,56.5 136.53,56.35C139.74,56.14 145.99,54.3 147.89,54.19C148.52,54.15 148.84,54.27 149.15,54.28C149.33,54.28 149.35,54.28 149.57,54.27C150.38,54.23 153.92,53.9 155.25,53.85C155.97,53.82 156.29,53.83 156.93,53.84C157.78,53.85 158.94,53.8 159.88,53.94C160.76,54.07 161.91,54.53 162.4,54.61C162.6,54.64 162.68,54.63 162.82,54.64C162.96,54.65 163.03,54.67 163.25,54.69C163.93,54.75 165.82,54.94 167.45,54.99C169.73,55.06 174.91,54.91 175.66,54.92C175.78,54.92 175.8,54.92 175.87,54.93C175.94,54.94 175.96,54.94 176.08,54.96C176.65,55.05 180.16,55.62 181.13,55.79C181.53,55.86 181.57,55.87 181.97,55.95C183.02,56.15 187.04,57.01 187.65,57.05C187.77,57.06 187.76,57.04 187.86,57.04C188.13,57.04 188.72,57.1 189.33,57.1C190.34,57.1 192.06,56.85 193.33,56.93C194.5,57 195.56,57.24 196.69,57.49C197.87,57.75 198.97,58.18 200.27,58.47C201.8,58.82 204.34,59.23 205.32,59.37C205.72,59.43 206.16,59.46 206.16,59.46C206.16,59.46 206.16,59.46 206.16,59.46C206.16,59.46 209.8,59.74 211,59.77C211.7,59.79 212,59.73 212.68,59.76C213.73,59.81 215.19,60.16 216.68,60.19C218.54,60.23 221.98,59.86 222.99,59.81C223.31,59.8 223.35,59.79 223.62,59.79C224.08,59.79 224.76,59.83 225.51,59.83C226.64,59.84 229.21,59.8 229.72,59.79C229.83,59.79 229.93,59.78 229.93,59.78C229.93,59.78 229.93,59.78 229.93,59.78C229.93,59.78 231.28,60.04 232.04,60.06C232.94,60.09 234.25,59.92 234.98,59.86C235.42,59.83 235.7,59.77 236.03,59.77C236.33,59.77 236.55,59.81 236.87,59.82C237.29,59.84 237.73,59.87 238.35,59.87C239.43,59.87 241.79,59.72 242.76,59.71C243.23,59.71 243.33,59.77 243.82,59.73C244.91,59.65 248.18,58.94 249.08,58.83C249.39,58.79 249.5,58.8 249.71,58.78C249.92,58.77 250.19,58.75 250.34,58.74C250.43,58.73 250.45,58.73 250.55,58.72C250.82,58.7 252.02,58.64 252.02,58.64C252.02,58.64 252.02,58.64 252.02,58.64C252.02,58.64 252.43,58.65 252.65,58.64C252.91,58.63 253.49,58.59 253.49,58.59C253.49,58.59 253.49,58.59 253.49,58.59C253.49,58.59 254.55,58.42 254.97,58.36C255.29,58.31 255.55,58.28 255.81,58.24C256.04,58.21 256.2,58.18 256.44,58.15C256.75,58.11 257.22,58.04 257.49,58C257.66,57.97 257.76,57.96 257.91,57.93C258.1,57.89 258.32,57.85 258.54,57.8C258.8,57.74 259.12,57.65 259.38,57.58C259.61,57.51 259.79,57.45 260.02,57.38C260.28,57.29 260.86,57.09 260.86,57.09C260.86,57.09 260.86,57.09 260.86,57.09C260.86,57.09 261.84,56.7 262.33,56.48C262.82,56.26 263.8,55.78 263.8,55.78C263.8,55.78 263.8,55.78 263.8,55.78C263.8,55.78 264.88,55.15 265.27,54.93C265.53,54.79 265.68,54.71 265.91,54.59C266.17,54.45 266.44,54.3 266.75,54.13C267.13,53.92 267.76,53.57 268.01,53.45C268.11,53.4 268.12,53.4 268.22,53.36C268.49,53.25 269.35,52.89 269.69,52.76C269.87,52.69 269.94,52.66 270.11,52.6C270.38,52.5 270.85,52.31 271.16,52.21C271.4,52.13 271.57,52.1 271.8,52.03C272.06,51.94 272.36,51.81 272.64,51.72C272.92,51.63 273.22,51.55 273.48,51.47C273.71,51.4 273.87,51.33 274.11,51.25C274.41,51.15 274.89,50.99 275.16,50.92C275.33,50.88 275.4,50.87 275.58,50.83C275.92,50.76 276.66,50.63 277.05,50.57C277.31,50.53 277.46,50.53 277.69,50.49C277.95,50.44 278.25,50.36 278.53,50.3C278.81,50.24 279.11,50.22 279.37,50.15Q279.6,50.09 280,49.93" style="vector-effect: none; fill: none; stroke: rgb(164, 125, 3); stroke-opacity: 1; stroke-width: 5px; opacity: 1;"/></g><g class="points"/><g class="text"/></g><g class="trace scatter trace9b6a44" style="stroke-miterlimit: 2; opacity: 1;"><g class="fills"/><g class="errorbars"/><g class="lines"><path class="js-line" d="M0,62.28Q3.07,53.48 6.73,51.66C11.59,49.24 23.83,52.69 28.82,53.51C31.43,53.94 32.79,54.46 34.71,54.97C36.57,55.46 38.34,55.82 40.18,56.51C42.19,57.27 44.95,58.74 46.28,59.42C46.94,59.76 47.14,59.91 47.75,60.21C48.71,60.69 50,61.47 51.54,61.93C53.72,62.58 57.52,62.98 59.74,63.23C61.24,63.4 62.48,63.42 63.53,63.48C64.27,63.52 64.81,63.6 65.42,63.56C66,63.52 66.5,63.34 67.11,63.27C67.82,63.19 68.65,63.24 69.42,63.17C70.19,63.1 71.09,62.95 71.74,62.84C72.23,62.76 72.43,62.63 73,62.58C74.15,62.48 76.9,62.73 78.26,62.72C79.12,62.71 79.44,62.68 80.36,62.62C82.13,62.51 85.04,62.24 88.14,61.99C92.76,61.62 104.25,60.67 105.39,60.63C105.52,60.63 105.48,60.63 105.6,60.63C106.16,60.64 109.16,60.59 110.44,60.74C111.29,60.84 111.73,61.1 112.55,61.2C113.66,61.33 115.42,61.17 116.54,61.27C117.36,61.34 117.82,61.5 118.65,61.61C119.85,61.76 122.04,61.95 123.07,62.02C123.62,62.06 124.09,62.07 124.33,62.08C124.43,62.08 124.42,62.08 124.54,62.08C125.16,62.1 128.45,62.41 130.43,62.39C132.45,62.37 134.18,62.05 136.53,61.94C139.73,61.79 146,61.9 147.89,61.73C148.52,61.67 148.84,61.57 149.15,61.52C149.33,61.49 149.35,61.47 149.57,61.45C150.38,61.38 153.92,61.51 155.25,61.47C155.98,61.45 156.29,61.38 156.93,61.36C157.78,61.33 158.94,61.38 159.88,61.37C160.75,61.36 161.91,61.36 162.4,61.33C162.6,61.32 162.68,61.3 162.82,61.29C162.96,61.28 163.03,61.29 163.25,61.28C163.93,61.26 165.82,61.21 167.45,61.11C169.73,60.97 174.91,60.52 175.66,60.47C175.78,60.46 175.8,60.46 175.87,60.46C175.94,60.46 175.96,60.46 176.08,60.45C176.65,60.4 180.15,59.83 181.13,59.83C181.53,59.83 181.57,59.89 181.97,59.93C183.02,60.04 187.04,60.44 187.65,60.45C187.77,60.45 187.76,60.45 187.86,60.44C188.13,60.42 188.72,60.39 189.33,60.29C190.34,60.13 192.05,59.67 193.33,59.43C194.5,59.21 195.55,59.1 196.69,58.9C197.87,58.69 198.97,58.39 200.27,58.18C201.8,57.94 204.35,57.78 205.32,57.59C205.72,57.51 206.16,57.35 206.16,57.35C206.16,57.35 206.16,57.35 206.16,57.35C206.16,57.35 209.8,56.35 211,56.14C211.7,56.02 212,56.05 212.68,55.96C213.73,55.83 215.19,55.57 216.68,55.38C218.54,55.15 221.99,54.97 222.99,54.72C223.32,54.64 223.36,54.57 223.62,54.46C224.08,54.26 224.74,53.89 225.51,53.6C226.63,53.18 229.21,52.41 229.72,52.32C229.83,52.3 229.93,52.31 229.93,52.31C229.93,52.31 229.93,52.31 229.93,52.31C229.93,52.31 231.28,52.35 232.04,52.38C232.94,52.42 234.25,52.47 234.98,52.53C235.42,52.56 235.7,52.64 236.03,52.64C236.33,52.64 236.55,52.59 236.87,52.56C237.29,52.52 237.73,52.52 238.35,52.45C239.43,52.33 241.79,51.92 242.76,51.79C243.23,51.73 243.33,51.68 243.82,51.66C244.91,51.61 248.18,51.82 249.08,51.8C249.39,51.79 249.5,51.77 249.71,51.75C249.92,51.73 250.19,51.68 250.34,51.66C250.43,51.65 250.45,51.65 250.55,51.64C250.82,51.62 252.02,51.54 252.02,51.54C252.02,51.54 252.02,51.54 252.02,51.54C252.02,51.54 252.42,51.5 252.65,51.48C252.91,51.46 253.49,51.44 253.49,51.44C253.49,51.44 253.49,51.44 253.49,51.44C253.49,51.44 254.55,51.39 254.97,51.36C255.29,51.34 255.55,51.31 255.81,51.3C256.03,51.29 256.2,51.3 256.44,51.29C256.75,51.28 257.22,51.27 257.49,51.26C257.66,51.25 257.76,51.24 257.91,51.23C258.1,51.22 258.31,51.21 258.54,51.21C258.8,51.21 259.12,51.24 259.38,51.24C259.61,51.24 259.79,51.24 260.02,51.24C260.28,51.24 260.86,51.22 260.86,51.22C260.86,51.22 260.86,51.22 260.86,51.22C260.86,51.22 261.84,51.26 262.33,51.28C262.82,51.3 263.8,51.32 263.8,51.32C263.8,51.32 263.8,51.32 263.8,51.32C263.8,51.32 264.88,51.46 265.27,51.51C265.53,51.54 265.68,51.57 265.91,51.6C266.17,51.63 266.44,51.64 266.75,51.67C267.13,51.71 267.77,51.79 268.01,51.83C268.11,51.85 268.12,51.85 268.22,51.87C268.49,51.92 269.35,52.06 269.69,52.11C269.87,52.14 269.94,52.15 270.11,52.17C270.38,52.2 270.85,52.23 271.16,52.25C271.4,52.26 271.57,52.25 271.8,52.27C272.06,52.29 272.36,52.33 272.64,52.36C272.92,52.38 273.22,52.41 273.48,52.42C273.7,52.43 273.87,52.43 274.11,52.43C274.42,52.43 274.89,52.42 275.16,52.4C275.33,52.39 275.4,52.38 275.58,52.36C275.92,52.33 276.66,52.27 277.05,52.25C277.31,52.23 277.46,52.22 277.69,52.22C277.95,52.22 278.25,52.23 278.53,52.23C278.81,52.23 279.11,52.25 279.37,52.24Q279.6,52.23 280,52.19" style="vector-effect: none; fill: none; stroke: rgb(255, 26, 74); stroke-opacity: 1; stroke-width: 5px; opacity: 1;"/></g><g class="points"/><g class="text"/></g><g class="trace scatter trace8a03f5" style="stroke-miterlimit: 2; opacity: 1;"><g class="fills"/><g class="errorbars"/><g class="lines"><path class="js-line" d="M0,55.2Q3.79,56.96 6.73,57.6C11.92,58.72 23.8,59.17 28.82,59.44C31.41,59.58 32.78,59.51 34.71,59.58C36.57,59.65 38.36,60.24 40.18,59.84C42.22,59.39 44.92,57.24 46.28,56.68C46.92,56.42 47.16,56.45 47.75,56.22C48.73,55.84 49.99,54.85 51.54,54.47C53.71,53.94 57.53,54.09 59.74,54.09C61.24,54.09 62.48,54.28 63.53,54.27C64.27,54.27 64.81,54.13 65.42,54.16C66,54.19 66.5,54.39 67.11,54.43C67.82,54.47 68.65,54.41 69.42,54.35C70.19,54.29 71.08,54.11 71.74,54.08C72.22,54.06 72.44,54.16 73,54.12C74.16,54.04 76.9,53.38 78.26,53.19C79.12,53.07 79.44,52.94 80.36,52.96C82.14,53 85.03,53.94 88.14,54.15C92.75,54.46 104.25,54 105.39,53.86C105.52,53.84 105.48,53.82 105.6,53.81C106.15,53.75 109.16,54.11 110.44,53.98C111.29,53.89 111.73,53.62 112.55,53.47C113.66,53.27 115.42,53.12 116.54,52.99C117.35,52.89 117.82,52.81 118.65,52.74C119.85,52.63 122.04,52.55 123.07,52.47C123.62,52.42 124.09,52.36 124.33,52.34C124.43,52.33 124.42,52.33 124.54,52.32C125.16,52.28 128.45,52.21 130.43,52.13C132.45,52.05 134.19,51.68 136.53,51.84C139.74,52.06 145.99,53.8 147.89,53.97C148.52,54.03 148.84,53.93 149.15,53.96C149.33,53.98 149.35,54.03 149.57,54.05C150.38,54.12 153.92,54.02 155.25,53.88C155.98,53.8 156.29,53.68 156.93,53.58C157.77,53.45 158.94,53.32 159.88,53.19C160.75,53.07 161.91,52.87 162.4,52.81C162.6,52.79 162.68,52.78 162.82,52.77C162.96,52.76 163.03,52.78 163.25,52.78C163.93,52.78 165.82,52.76 167.45,52.7C169.73,52.62 174.91,52.27 175.66,52.25C175.78,52.25 175.8,52.24 175.87,52.25C175.94,52.26 175.96,52.29 176.08,52.31C176.65,52.42 180.16,52.78 181.13,52.92C181.53,52.98 181.56,53.02 181.97,53.06C183.02,53.17 187.04,53.26 187.65,53.27C187.77,53.27 187.76,53.27 187.86,53.27C188.13,53.28 188.72,53.31 189.33,53.35C190.34,53.42 192.05,53.58 193.33,53.67C194.5,53.75 195.56,53.72 196.69,53.86C197.87,54.01 198.97,54.29 200.27,54.55C201.81,54.85 204.34,55.44 205.32,55.57C205.72,55.62 206.16,55.63 206.16,55.63C206.16,55.63 206.16,55.63 206.16,55.63C206.16,55.63 209.81,56.43 211,56.74C211.71,56.92 212,57.05 212.68,57.23C213.73,57.51 215.19,57.85 216.68,58.19C218.54,58.61 221.98,59.32 222.99,59.52C223.31,59.58 223.35,59.59 223.62,59.64C224.08,59.73 224.76,59.85 225.51,60.05C226.64,60.35 229.21,61.25 229.72,61.35C229.83,61.37 229.93,61.37 229.93,61.37C229.93,61.37 229.93,61.37 229.93,61.37C229.93,61.37 231.28,61.45 232.04,61.5C232.94,61.56 234.25,61.62 234.98,61.69C235.42,61.73 235.7,61.78 236.03,61.81C236.33,61.84 236.55,61.86 236.87,61.88C237.29,61.9 237.73,61.89 238.35,61.91C239.43,61.95 241.79,62.08 242.76,62.11C243.23,62.13 243.33,62.13 243.82,62.13C244.91,62.14 248.18,62.12 249.08,62.13C249.39,62.13 249.5,62.14 249.71,62.15C249.92,62.16 250.19,62.19 250.34,62.2C250.43,62.21 250.45,62.21 250.55,62.22C250.82,62.25 252.02,62.38 252.02,62.38C252.02,62.38 252.02,62.38 252.02,62.38C252.02,62.38 252.43,62.37 252.65,62.38C252.91,62.39 253.49,62.45 253.49,62.45C253.49,62.45 253.49,62.45 253.49,62.45C253.49,62.45 254.55,62.46 254.97,62.45C255.29,62.44 255.55,62.44 255.81,62.42C256.04,62.41 256.2,62.38 256.44,62.36C256.75,62.33 257.22,62.29 257.49,62.26C257.66,62.24 257.76,62.23 257.91,62.22C258.1,62.21 258.31,62.19 258.54,62.18C258.8,62.16 259.12,62.14 259.38,62.13C259.61,62.12 259.79,62.14 260.02,62.13C260.28,62.12 260.86,62.09 260.86,62.09C260.86,62.09 260.86,62.09 260.86,62.09C260.86,62.09 261.84,62.04 262.33,62.01C262.82,61.98 263.8,61.93 263.8,61.93C263.8,61.93 263.8,61.93 263.8,61.93C263.8,61.93 264.88,61.92 265.27,61.93C265.53,61.93 265.68,61.95 265.91,61.95C266.17,61.95 266.44,61.95 266.75,61.95C267.13,61.95 267.77,61.97 268.01,61.97C268.11,61.97 268.12,61.97 268.22,61.97C268.49,61.97 269.35,61.98 269.69,61.98C269.87,61.98 269.94,61.98 270.11,61.97C270.38,61.96 270.85,61.93 271.16,61.92C271.4,61.91 271.57,61.91 271.8,61.9C272.06,61.89 272.36,61.87 272.64,61.86C272.92,61.85 273.22,61.86 273.48,61.85C273.71,61.84 273.87,61.83 274.11,61.82C274.42,61.81 274.89,61.82 275.16,61.81C275.33,61.81 275.4,61.79 275.58,61.79C275.92,61.79 276.66,61.82 277.05,61.83C277.31,61.84 277.46,61.84 277.69,61.84C277.95,61.85 278.25,61.85 278.53,61.86C278.81,61.87 279.11,61.87 279.37,61.88Q279.6,61.88 280,61.89" style="vector-effect: none; fill: none; stroke: rgb(17, 17, 17); stroke-opacity: 1; stroke-width: 5px; opacity: 1;"/></g><g class="points"/><g class="text"/></g></g></g><g class="overplot"/><path class="xlines-above crisp" d="M0,0" style="fill: none;"/><path class="ylines-above crisp" d="M0,0" style="fill: none;"/><g class="overlines-above"/><g class="xaxislayer-above"/><g class="yaxislayer-above"/><g class="overaxes-above"/></g></g><g class="polarlayer"/><g class="smithlayer"/><g class="ternarylayer"/><g class="geolayer"/><g class="funnelarealayer"/><g class="pielayer"/><g class="iciclelayer"/><g class="treemaplayer"/><g class="sunburstlayer"/><g class="glimages"/><defs id="topdefs-06b829"><g class="clips"/></defs><g class="layer-above"><g class="imagelayer"/><g class="shapelayer"/></g><g class="infolayer"><g class="g-gtitle"><text class="gtitle" x="15" y="25" text-anchor="start" dy="0em" style="font-family: Ubuntu, verdana, arial, sans-serif; font-size: 16px; fill: rgb(233, 84, 32); opacity: 1; font-weight: normal; white-space: pre;">Sněmovna volby 2025</text></g><g class="g-xtitle"/><g class="g-ytitle"/></g></svg>