<svg class="main-svg" xmlns="http://www.w3.org/2000/svg" xmlns:xlink="http://www.w3.org/1999/xlink" width="400" height="400" style="" viewBox="0 0 400 400"><rect x="0" y="0" width="400" height="400" style="fill: rgb(255, 255, 255); fill-opacity: 1;"/><defs id="defs-c31007"><g class="clips"><clipPath id="clipc31007xyplot" class="plotclip"><rect width="203" height="330"/></clipPath><clipPath class="axesclip" id="clipc31007x"><rect x="50" y="0" width="203" height="400"/></clipPath><clipPath class="axesclip" id="clipc31007y"><rect x="0" y="20" width="400" height="330"/></clipPath><clipPath class="axesclip" id="clipc31007xy"><rect x="50" y="20" width="203" height="330"/></clipPath></g><g class="gradients"/><g class="patterns"/></defs><g class="bglayer"/><g class="layer-below"><g class="imagelayer"/><g class="shapelayer"/></g><g class="cartesianlayer"><g class="subplot xy"><g class="layer-subplot"><g class="shapelayer"/><g class="imagelayer"/></g><g class="gridlayer"><g class="x"><path class="xgrid crisp" transform="translate(61.74,0)" d="M0,20v330" style="stroke: rgb(235, 240, 248); stroke-opacity: 1; stroke-width: 1px;"/><path class="xgrid crisp" transform="translate(112.72999999999999,0)" d="M0,20v330" style="stroke: rgb(235, 240, 248); stroke-opacity: 1; stroke-width: 1px;"/><path class="xgrid crisp" transform="translate(163.72,0)" d="M0,20v330" style="stroke: rgb(235, 240, 248); stroke-opacity: 1; stroke-width: 1px;"/><path class="xgrid crisp" transform="translate(214.86,0)" d="M0,20v330" style="stroke: rgb(235, 240, 248); stroke-opacity: 1; stroke-width: 1px;"/></g><g class="y"><path class="ygrid crisp" transform="translate(0,305.96)" d="M50,0h203" style="stroke: rgb(235, 240, 248); stroke-opacity: 1; stroke-width: 1px;"/><path class="ygrid crisp" transform="translate(0,261.90999999999997)" d="M50,0h203" style="stroke: rgb(235, 240, 248); stroke-opacity: 1; stroke-width: 1px;"/><path class="ygrid crisp" transform="translate(0,217.87)" d="M50,0h203" style="stroke: rgb(235, 240, 248); stroke-opacity: 1; stroke-width: 1px;"/><path class="ygrid crisp" transform="translate(0,173.82)" d="M50,0h203" style="stroke: rgb(235, 240, 248); stroke-opacity: 1; stroke-width: 1px;"/><path class="ygrid crisp" transform="translate(0,129.78)" d="M50,0h203" style="stroke: rgb(235, 240, 248); stroke-opacity: 1; stroke-width: 1px;"/><path class="ygrid crisp" transform="translate(0,85.73)" d="M50,0h203" style="stroke: rgb(235, 240, 248); stroke-opacity: 1; stroke-width: 1px;"/><path class="ygrid crisp" transform="translate(0,41.69)" d="M50,0h203" style="stroke: rgb(235, 240, 248); stroke-opacity: 1; stroke-width: 1px;"/></g></g><g class="zerolinelayer"><path class="yzl zl crisp" transform="translate(0,350)" d="M50,0h203" style="stroke: rgb(235, 240, 248); stroke-opacity: 1; stroke-width: 2px;"/></g><path class="xlines-below"/><path class="ylines-below"/><g class="overlines-below"/><g class="xaxislayer-below"/><g class="yaxislayer-below"/><g class="overaxes-below"/><g class="plot" transform="translate(50,20)" clip-path="url(#clipc31007xyplot)"><g class="scatterlayer mlayer"><g class="trace scatter tracefb14c5" style="stroke-miterlimit: 2; opacity: 1;"><g class="fills"><g><path class="js-fill" d="M0,44.62Q2.56,45.5 4.47,46.27C7.96,47.67 16.06,53.84 19.14,52.66C21.5,51.76 21.62,46.49 23.05,44.15C24.18,42.3 25.47,41.2 26.68,39.53C28.03,37.68 29.86,34.85 30.74,33.5C31.18,32.82 31.29,32.55 31.71,31.96C32.33,31.09 33.3,30.25 34.23,28.88C35.79,26.57 37.91,20.34 39.68,19.02C40.53,18.39 41.51,18.72 42.19,18.48C42.7,18.3 43.04,17.86 43.45,17.84C43.83,17.82 44.16,18.21 44.57,18.27C45.03,18.34 45.59,18.19 46.1,18.15C46.61,18.1 47.25,17.78 47.64,18C48.07,18.24 47.96,19.3 48.48,19.73C49.19,20.32 51.15,20 51.97,20.66C52.73,21.27 52.69,23.33 53.37,23.39C54.5,23.49 57.22,16.06 58.54,16.5C62.95,17.97 62.95,98.52 58.54,111.73C57.22,115.7 54.5,118.72 53.37,118.62C52.69,118.56 52.73,116.5 51.97,115.89C51.15,115.23 49.19,115.56 48.48,114.97C47.96,114.54 48.07,113.47 47.64,113.23C47.25,113.01 46.61,113.34 46.1,113.39C45.59,113.44 45.03,113.58 44.57,113.51C44.16,113.45 43.83,113.05 43.45,113.07C43.04,113.09 42.7,113.53 42.19,113.71C41.51,113.95 40.56,113.68 39.68,114.25C38.01,115.35 35.73,119.9 34.23,121.85C33.25,123.12 32.33,124.05 31.71,124.92C31.29,125.51 31.18,125.79 30.74,126.47C29.86,127.83 28.16,131.05 26.68,132.5C25.54,133.62 24.1,133.53 23.05,134.85C21.33,137.01 21.66,144.71 19.14,145.62C16.06,146.73 8.04,137.69 4.47,136.97Q2.63,136.6 0,137.58Z" style="fill: rgb(38, 16, 96); fill-opacity: 0.05; stroke-width: 0;"/></g></g><g class="errorbars"/><g class="lines"><path class="js-line" d="M0,44.62Q2.56,45.5 4.47,46.27C7.96,47.67 16.06,53.84 19.14,52.66C21.5,51.76 21.62,46.49 23.05,44.15C24.18,42.3 25.47,41.2 26.68,39.53C28.03,37.68 29.86,34.85 30.74,33.5C31.18,32.82 31.29,32.55 31.71,31.96C32.33,31.09 33.3,30.25 34.23,28.88C35.79,26.57 37.91,20.34 39.68,19.02C40.53,18.39 41.51,18.72 42.19,18.48C42.7,18.3 43.04,17.86 43.45,17.84C43.83,17.82 44.16,18.21 44.57,18.27C45.03,18.34 45.59,18.19 46.1,18.15C46.61,18.1 47.25,17.78 47.64,18C48.07,18.24 47.96,19.3 48.48,19.73C49.19,20.32 51.15,20 51.97,20.66C52.73,21.27 52.69,23.33 53.37,23.39C54.5,23.49 57.22,16.06 58.54,16.5C62.95,17.97 62.95,98.52 58.54,111.73C57.22,115.7 54.5,118.72 53.37,118.62C52.69,118.56 52.73,116.5 51.97,115.89C51.15,115.23 49.19,115.56 48.48,114.97C47.96,114.54 48.07,113.47 47.64,113.23C47.25,113.01 46.61,113.34 46.1,113.39C45.59,113.44 45.03,113.58 44.57,113.51C44.16,113.45 43.83,113.05 43.45,113.07C43.04,113.09 42.7,113.53 42.19,113.71C41.51,113.95 40.56,113.68 39.68,114.25C38.01,115.35 35.73,119.9 34.23,121.85C33.25,123.12 32.33,124.05 31.71,124.92C31.29,125.51 31.18,125.79 30.74,126.47C29.86,127.83 28.16,131.05 26.68,132.5C25.54,133.62 24.1,133.53 23.05,134.85C21.33,137.01 21.66,144.71 19.14,145.62C16.06,146.73 8.04,137.69 4.47,136.97Q2.63,136.6 0,137.58" style="vector-effect: non-scaling-stroke; fill: none; stroke: rgb(255, 255, 255); stroke-opacity: 0; stroke-width: 2px; opacity: 1;"/></g><g class="points"/><g class="text"/></g><g class="trace scatter trace475c58" style="stroke-miterlimit: 2; opacity: 1;"><g class="fills"><g><path class="js-fill" d="M0,169.26Q2.78,163.49 4.47,158.3C8.31,146.51 15.31,109.61 19.14,99.15C20.6,95.17 21.4,92.08 23.05,91.23C24.12,90.68 25.66,90.79 26.68,91.81C29.41,94.55 29.12,116.82 30.74,117.96C31.05,118.18 31.41,117.57 31.71,117.77C32.82,118.52 32.97,126.36 34.23,130.7C35.57,135.34 37.81,142.49 39.68,144.71C40.51,145.69 41.53,146.32 42.19,146.22C42.72,146.14 43.03,145.22 43.45,144.79C43.82,144.41 44.19,143.72 44.57,143.76C45.07,143.82 45.55,145.96 46.1,146.03C46.58,146.09 47.23,145.15 47.64,144.67C48,144.25 48.02,143.49 48.48,143.36C49.2,143.16 51.16,145.48 51.97,145.11C52.96,144.65 52.68,139.51 53.37,139.48C54.5,139.43 57.35,147.2 58.54,154.15C61.19,169.63 61.19,230.79 58.54,231.24C57.35,231.44 54.5,216.52 53.37,216.57C52.68,216.6 53.01,221.25 51.97,222.2C51.16,222.94 49.21,222.99 48.48,222.72C48.04,222.56 47.97,221.78 47.64,221.76C47.21,221.73 46.58,223.19 46.1,223.13C45.55,223.06 45.07,220.91 44.57,220.85C44.19,220.81 43.82,221.51 43.45,221.89C43.03,222.32 42.72,223.23 42.19,223.31C41.53,223.41 40.53,222.74 39.68,221.8C37.9,219.82 35.58,213.95 34.23,210.06C32.99,206.48 32.73,200.05 31.71,199.39C31.4,199.19 31.06,199.79 30.74,199.58C29.25,198.57 29.17,180.41 26.68,177.98C25.66,176.99 24.15,176.92 23.05,177.39C21.54,178.03 20.57,180.05 19.14,183.04C15.2,191.29 8.35,223.41 4.47,233.12Q2.79,237.32 0,241.81Z" style="fill: rgb(0, 68, 148); fill-opacity: 0.05; stroke-width: 0;"/></g></g><g class="errorbars"/><g class="lines"><path class="js-line" d="M0,169.26Q2.78,163.49 4.47,158.3C8.31,146.51 15.31,109.61 19.14,99.15C20.6,95.17 21.4,92.08 23.05,91.23C24.12,90.68 25.66,90.79 26.68,91.81C29.41,94.55 29.12,116.82 30.74,117.96C31.05,118.18 31.41,117.57 31.71,117.77C32.82,118.52 32.97,126.36 34.23,130.7C35.57,135.34 37.81,142.49 39.68,144.71C40.51,145.69 41.53,146.32 42.19,146.22C42.72,146.14 43.03,145.22 43.45,144.79C43.82,144.41 44.19,143.72 44.57,143.76C45.07,143.82 45.55,145.96 46.1,146.03C46.58,146.09 47.23,145.15 47.64,144.67C48,144.25 48.02,143.49 48.48,143.36C49.2,143.16 51.16,145.48 51.97,145.11C52.96,144.65 52.68,139.51 53.37,139.48C54.5,139.43 57.35,147.2 58.54,154.15C61.19,169.63 61.19,230.79 58.54,231.24C57.35,231.44 54.5,216.52 53.37,216.57C52.68,216.6 53.01,221.25 51.97,222.2C51.16,222.94 49.21,222.99 48.48,222.72C48.04,222.56 47.97,221.78 47.64,221.76C47.21,221.73 46.58,223.19 46.1,223.13C45.55,223.06 45.07,220.91 44.57,220.85C44.19,220.81 43.82,221.51 43.45,221.89C43.03,222.32 42.72,223.23 42.19,223.31C41.53,223.41 40.53,222.74 39.68,221.8C37.9,219.82 35.58,213.95 34.23,210.06C32.99,206.48 32.73,200.05 31.71,199.39C31.4,199.19 31.06,199.79 30.74,199.58C29.25,198.57 29.17,180.41 26.68,177.98C25.66,176.99 24.15,176.92 23.05,177.39C21.54,178.03 20.57,180.05 19.14,183.04C15.2,191.29 8.35,223.41 4.47,233.12Q2.79,237.32 0,241.81" style="vector-effect: non-scaling-stroke; fill: none; stroke: rgb(255, 255, 255); stroke-opacity: 0; stroke-width: 2px; opacity: 1;"/></g><g class="points"/><g class="text"/></g><g class="trace scatter trace569350" style="stroke-miterlimit: 2; opacity: 1;"><g class="fills"><g><path class="js-fill" d="M0,214.97Q2.74,215.61 4.47,214.86C8.22,213.23 15.88,199.72 19.14,199.92C20.95,200.03 21.77,205.03 23.05,205.04C24.28,205.05 25.44,201.99 26.68,200.38C28,198.67 29.79,195.26 30.74,195.06C31.13,194.98 31.38,195.72 31.71,195.61C32.49,195.35 32.92,191.49 34.23,190.03C35.56,188.55 38.17,187.09 39.68,186.83C40.64,186.66 41.55,187.55 42.19,187.31C42.76,187.1 43.04,185.77 43.45,185.76C43.83,185.75 44.17,187.05 44.57,187.05C45.04,187.05 45.61,185.3 46.1,185.34C46.64,185.38 47.21,187.01 47.64,187.72C47.97,188.28 48.03,188.71 48.48,189.26C49.2,190.14 51.07,191.4 51.97,192.17C52.55,192.66 52.75,193.38 53.37,193.4C54.54,193.43 57.23,188.72 58.54,189.36C62.77,191.42 63.28,250.74 58.54,257.38C57.2,259.26 54.51,259.39 53.37,259.16C52.7,259.03 52.6,258.22 51.97,257.92C51.11,257.5 49.19,257.81 48.48,257.29C47.98,256.93 47.98,256.3 47.64,255.74C47.22,255.03 46.64,253.41 46.1,253.37C45.61,253.33 45.04,255.08 44.57,255.08C44.17,255.08 43.83,253.77 43.45,253.78C43.04,253.79 42.76,255.12 42.19,255.33C41.55,255.57 40.64,254.68 39.68,254.85C38.17,255.11 35.61,256.82 34.23,258.05C33.11,259.05 32.41,261.23 31.71,261.37C31.35,261.44 31.16,260.78 30.74,260.81C29.84,260.87 27.92,262.65 26.68,263.87C25.34,265.19 24.38,268.34 23.05,268.53C21.85,268.7 20.86,265.69 19.14,265.68C15.82,265.66 8.09,274.88 4.47,276.08Q2.66,276.68 0,276.19Z" style="fill: rgb(234, 35, 41); fill-opacity: 0.05; stroke-width: 0;"/></g></g><g class="errorbars"/><g class="lines"><path class="js-line" d="M0,214.97Q2.74,215.61 4.47,214.86C8.22,213.23 15.88,199.72 19.14,199.92C20.95,200.03 21.77,205.03 23.05,205.04C24.28,205.05 25.44,201.99 26.68,200.38C28,198.67 29.79,195.26 30.74,195.06C31.13,194.98 31.38,195.72 31.71,195.61C32.49,195.35 32.92,191.49 34.23,190.03C35.56,188.55 38.17,187.09 39.68,186.83C40.64,186.66 41.55,187.55 42.19,187.31C42.76,187.1 43.04,185.77 43.45,185.76C43.83,185.75 44.17,187.05 44.57,187.05C45.04,187.05 45.61,185.3 46.1,185.34C46.64,185.38 47.21,187.01 47.64,187.72C47.97,188.28 48.03,188.71 48.48,189.26C49.2,190.14 51.07,191.4 51.97,192.17C52.55,192.66 52.75,193.38 53.37,193.4C54.54,193.43 57.23,188.72 58.54,189.36C62.77,191.42 63.28,250.74 58.54,257.38C57.2,259.26 54.51,259.39 53.37,259.16C52.7,259.03 52.6,258.22 51.97,257.92C51.11,257.5 49.19,257.81 48.48,257.29C47.98,256.93 47.98,256.3 47.64,255.74C47.22,255.03 46.64,253.41 46.1,253.37C45.61,253.33 45.04,255.08 44.57,255.08C44.17,255.08 43.83,253.77 43.45,253.78C43.04,253.79 42.76,255.12 42.19,255.33C41.55,255.57 40.64,254.68 39.68,254.85C38.17,255.11 35.61,256.82 34.23,258.05C33.11,259.05 32.41,261.23 31.71,261.37C31.35,261.44 31.16,260.78 30.74,260.81C29.84,260.87 27.92,262.65 26.68,263.87C25.34,265.19 24.38,268.34 23.05,268.53C21.85,268.7 20.86,265.69 19.14,265.68C15.82,265.66 8.09,274.88 4.47,276.08Q2.66,276.68 0,276.19" style="vector-effect: non-scaling-stroke; fill: none; stroke: rgb(255, 255, 255); stroke-opacity: 0; stroke-width: 2px; opacity: 1;"/></g><g class="points"/><g class="text"/></g><g class="trace scatter trace8d8e27" style="stroke-miterlimit: 2; opacity: 1;"><g class="fills"><g><path class="js-fill" d="M0,219.65Q2.23,224.34 4.47,226.69C7.75,230.14 15.69,236.23 19.14,237.04C20.76,237.42 21.78,236.34 23.05,236.44C24.3,236.54 25.65,238.2 26.68,237.63C28.83,236.45 29.43,222.92 30.74,221.5C31.07,221.15 31.4,221.5 31.71,221.17C32.63,220.21 32.66,214.61 34.23,212.69C35.54,211.09 38.22,209.75 39.68,209.78C40.68,209.8 41.54,211.39 42.19,211.25C42.75,211.13 43.02,209.49 43.45,209.45C43.82,209.42 44.13,210.33 44.57,210.58C45.01,210.83 45.61,211.04 46.1,210.94C46.64,210.83 47.18,209.98 47.64,209.78C47.94,209.65 48.16,209.84 48.48,209.64C49.35,209.09 51.01,205.64 51.97,204.54C52.5,203.93 52.78,203.23 53.37,203.27C54.58,203.35 57.27,205.9 58.54,209.37C62.12,219.14 62.65,270.79 58.54,272.86C57.23,273.52 54.55,269.89 53.37,269.03C52.76,268.59 52.49,267.94 51.97,268.03C50.99,268.2 49.35,272.58 48.48,273.13C48.16,273.33 47.95,273.34 47.64,273.27C47.18,273.16 46.58,272.09 46.1,272.16C45.55,272.23 45.05,274.03 44.57,274.06C44.18,274.08 43.87,273.21 43.45,272.94C43.07,272.7 42.68,272.49 42.19,272.48C41.5,272.46 40.69,273.05 39.68,273.27C38.22,273.58 35.54,272.91 34.23,273.91C32.78,275.02 32.54,279.34 31.71,280.12C31.39,280.43 31.08,280.11 30.74,280.45C29.57,281.61 28.56,291.12 26.68,292.05C25.63,292.57 24.3,290.96 23.05,290.86C21.78,290.76 20.83,291.65 19.14,291.46C15.77,291.08 7.72,288.33 4.47,285.64Q2.11,283.69 0,278.6Z" style="fill: rgb(0, 0, 0); fill-opacity: 0.05; stroke-width: 0;"/></g></g><g class="errorbars"/><g class="lines"><path class="js-line" d="M0,219.65Q2.23,224.34 4.47,226.69C7.75,230.14 15.69,236.23 19.14,237.04C20.76,237.42 21.78,236.34 23.05,236.44C24.3,236.54 25.65,238.2 26.68,237.63C28.83,236.45 29.43,222.92 30.74,221.5C31.07,221.15 31.4,221.5 31.71,221.17C32.63,220.21 32.66,214.61 34.23,212.69C35.54,211.09 38.22,209.75 39.68,209.78C40.68,209.8 41.54,211.39 42.19,211.25C42.75,211.13 43.02,209.49 43.45,209.45C43.82,209.42 44.13,210.33 44.57,210.58C45.01,210.83 45.61,211.04 46.1,210.94C46.64,210.83 47.18,209.98 47.64,209.78C47.94,209.65 48.16,209.84 48.48,209.64C49.35,209.09 51.01,205.64 51.97,204.54C52.5,203.93 52.78,203.23 53.37,203.27C54.58,203.35 57.27,205.9 58.54,209.37C62.12,219.14 62.65,270.79 58.54,272.86C57.23,273.52 54.55,269.89 53.37,269.03C52.76,268.59 52.49,267.94 51.97,268.03C50.99,268.2 49.35,272.58 48.48,273.13C48.16,273.33 47.95,273.34 47.64,273.27C47.18,273.16 46.58,272.09 46.1,272.16C45.55,272.23 45.05,274.03 44.57,274.06C44.18,274.08 43.87,273.21 43.45,272.94C43.07,272.7 42.68,272.49 42.19,272.48C41.5,272.46 40.69,273.05 39.68,273.27C38.22,273.58 35.54,272.91 34.23,273.91C32.78,275.02 32.54,279.34 31.71,280.12C31.39,280.43 31.08,280.11 30.74,280.45C29.57,281.61 28.56,291.12 26.68,292.05C25.63,292.57 24.3,290.96 23.05,290.86C21.78,290.76 20.83,291.65 19.14,291.46C15.77,291.08 7.72,288.33 4.47,285.64Q2.11,283.69 0,278.6" style="vector-effect: non-scaling-stroke; fill: none; stroke: rgb(255, 255, 255); stroke-opacity: 0; stroke-width: 2px; opacity: 1;"/></g><g class="points"/><g class="text"/></g><g class="trace scatter tracef66415" style="stroke-miterlimit: 2; opacity: 1;"><g class="fills"><g><path class="js-fill" d="M0,231.79Q-0.11,199.39 4.47,197.37C7.76,195.92 16.02,204.12 19.14,207.67C21.27,210.1 21.78,212.65 23.05,215.11C24.29,217.51 25.57,219.35 26.68,222.23C28.22,226.23 29.85,233.9 30.74,237.13C31.17,238.69 31.31,239.18 31.71,240.59C32.35,242.82 32.83,246.74 34.23,249.19C35.55,251.51 38.11,253.89 39.68,255.04C40.6,255.72 41.55,255.68 42.19,256.24C42.77,256.75 43.01,258.1 43.45,258.15C43.81,258.19 44.18,257.51 44.57,257.1C45.06,256.58 45.54,255.71 46.1,255.25C46.58,254.85 47.23,254.75 47.64,254.39C48.01,254.06 48.02,253.51 48.48,253.21C49.2,252.75 51.07,252.5 51.97,252.53C52.54,252.55 52.77,252.96 53.37,252.91C54.56,252.81 57.25,249.68 58.54,250.5C62.35,252.93 62.35,294.42 58.54,300.39C57.25,302.41 54.56,302.69 53.37,302.79C52.77,302.84 52.53,302.61 51.97,302.41C51.06,302.08 49.2,300.63 48.48,300.83C48.03,300.95 48.01,301.68 47.64,302.01C47.23,302.37 46.58,302.47 46.1,302.87C45.54,303.33 45.06,304.19 44.57,304.71C44.18,305.13 43.81,305.81 43.45,305.77C43.01,305.72 42.77,304.37 42.19,303.86C41.55,303.3 40.65,303.21 39.68,302.66C38.19,301.82 35.55,300.7 34.23,299.07C32.88,297.41 32.44,293.99 31.71,292.74C31.36,292.15 31.11,292.19 30.74,291.55C29.74,289.83 28.2,283.91 26.68,281.18C25.56,279.17 24.28,277.97 23.05,276.33C21.77,274.63 21.11,272.86 19.14,271.16C15.97,268.43 7.71,261.56 4.47,263.12Q0.45,265.05 0,288.47Z" style="fill: rgb(93, 140, 0); fill-opacity: 0.05; stroke-width: 0;"/></g></g><g class="errorbars"/><g class="lines"><path class="js-line" d="M0,231.79Q-0.11,199.39 4.47,197.37C7.76,195.92 16.02,204.12 19.14,207.67C21.27,210.1 21.78,212.65 23.05,215.11C24.29,217.51 25.57,219.35 26.68,222.23C28.22,226.23 29.85,233.9 30.74,237.13C31.17,238.69 31.31,239.18 31.71,240.59C32.35,242.82 32.83,246.74 34.23,249.19C35.55,251.51 38.11,253.89 39.68,255.04C40.6,255.72 41.55,255.68 42.19,256.24C42.77,256.75 43.01,258.1 43.45,258.15C43.81,258.19 44.18,257.51 44.57,257.1C45.06,256.58 45.54,255.71 46.1,255.25C46.58,254.85 47.23,254.75 47.64,254.39C48.01,254.06 48.02,253.51 48.48,253.21C49.2,252.75 51.07,252.5 51.97,252.53C52.54,252.55 52.77,252.96 53.37,252.91C54.56,252.81 57.25,249.68 58.54,250.5C62.35,252.93 62.35,294.42 58.54,300.39C57.25,302.41 54.56,302.69 53.37,302.79C52.77,302.84 52.53,302.61 51.97,302.41C51.06,302.08 49.2,300.63 48.48,300.83C48.03,300.95 48.01,301.68 47.64,302.01C47.23,302.37 46.58,302.47 46.1,302.87C45.54,303.33 45.06,304.19 44.57,304.71C44.18,305.13 43.81,305.81 43.45,305.77C43.01,305.72 42.77,304.37 42.19,303.86C41.55,303.3 40.65,303.21 39.68,302.66C38.19,301.82 35.55,300.7 34.23,299.07C32.88,297.41 32.44,293.99 31.71,292.74C31.36,292.15 31.11,292.19 30.74,291.55C29.74,289.83 28.2,283.91 26.68,281.18C25.56,279.17 24.28,277.97 23.05,276.33C21.77,274.63 21.11,272.86 19.14,271.16C15.97,268.43 7.71,261.56 4.47,263.12Q0.45,265.05 0,288.47" style="vector-effect: non-scaling-stroke; fill: none; stroke: rgb(255, 255, 255); stroke-opacity: 0; stroke-width: 2px; opacity: 1;"/></g><g class="points"/><g class="text"/></g><g class="trace scatter trace9a0c3b" style="stroke-miterlimit: 2; opacity: 1;"><g class="fills"><g><path class="js-fill" d="M0,240.88Q2.7,241.06 4.47,242C8.14,243.96 16.05,250.65 19.14,255.21C21.48,258.66 21.58,262.96 23.05,265.83C24.16,268.01 25.26,270.88 26.68,271.22C27.88,271.51 29.84,269.08 30.74,268.96C31.16,268.91 31.34,269.3 31.71,269.21C32.39,269.04 33.19,267.73 34.23,266.95C35.66,265.88 38.24,263.51 39.68,263.62C40.71,263.7 41.51,265.1 42.19,265.73C42.69,266.2 43.07,267.06 43.45,267.01C43.87,266.96 44.12,265.69 44.57,265.15C45.01,264.62 45.56,263.86 46.1,263.78C46.59,263.7 47.21,264.49 47.64,264.47C47.97,264.45 48.09,264.15 48.48,263.98C49.23,263.64 51.12,263.42 51.97,262.84C52.63,262.39 52.67,261.27 53.37,261.12C54.49,260.87 57.27,261.62 58.54,263.66C62.1,269.38 62.35,305.39 58.54,309.01C57.25,310.23 54.54,308.99 53.37,308.74C52.74,308.6 52.55,308.21 51.97,308.19C51.07,308.16 49.19,309.64 48.48,309.33C47.96,309.11 48.02,307.61 47.64,307.55C47.24,307.48 46.62,308.63 46.1,309.13C45.6,309.61 45.07,310.4 44.57,310.5C44.19,310.57 43.81,310.32 43.45,310.09C43.01,309.81 42.74,309.02 42.19,308.81C41.54,308.56 40.67,308.83 39.68,308.96C38.21,309.15 35.63,309.33 34.23,310.03C33.14,310.58 32.39,312.12 31.71,312.29C31.34,312.38 31.16,311.99 30.74,312.04C29.84,312.16 27.88,314.59 26.68,314.3C25.26,313.96 24.27,310.77 23.05,308.91C21.76,306.95 21.19,304.8 19.14,302.83C16,299.8 8.03,295.61 4.47,294.15Q2.62,293.39 0,293.03Z" style="fill: rgb(114, 55, 105); fill-opacity: 0.05; stroke-width: 0;"/></g></g><g class="errorbars"/><g class="lines"><path class="js-line" d="M0,240.88Q2.7,241.06 4.47,242C8.14,243.96 16.05,250.65 19.14,255.21C21.48,258.66 21.58,262.96 23.05,265.83C24.16,268.01 25.26,270.88 26.68,271.22C27.88,271.51 29.84,269.08 30.74,268.96C31.16,268.91 31.34,269.3 31.71,269.21C32.39,269.04 33.19,267.73 34.23,266.95C35.66,265.88 38.24,263.51 39.68,263.62C40.71,263.7 41.51,265.1 42.19,265.73C42.69,266.2 43.07,267.06 43.45,267.01C43.87,266.96 44.12,265.69 44.57,265.15C45.01,264.62 45.56,263.86 46.1,263.78C46.59,263.7 47.21,264.49 47.64,264.47C47.97,264.45 48.09,264.15 48.48,263.98C49.23,263.64 51.12,263.42 51.97,262.84C52.63,262.39 52.67,261.27 53.37,261.12C54.49,260.87 57.27,261.62 58.54,263.66C62.1,269.38 62.35,305.39 58.54,309.01C57.25,310.23 54.54,308.99 53.37,308.74C52.74,308.6 52.55,308.21 51.97,308.19C51.07,308.16 49.19,309.64 48.48,309.33C47.96,309.11 48.02,307.61 47.64,307.55C47.24,307.48 46.62,308.63 46.1,309.13C45.6,309.61 45.07,310.4 44.57,310.5C44.19,310.57 43.81,310.32 43.45,310.09C43.01,309.81 42.74,309.02 42.19,308.81C41.54,308.56 40.67,308.83 39.68,308.96C38.21,309.15 35.63,309.33 34.23,310.03C33.14,310.58 32.39,312.12 31.71,312.29C31.34,312.38 31.16,311.99 30.74,312.04C29.84,312.16 27.88,314.59 26.68,314.3C25.26,313.96 24.27,310.77 23.05,308.91C21.76,306.95 21.19,304.8 19.14,302.83C16,299.8 8.03,295.61 4.47,294.15Q2.62,293.39 0,293.03" style="vector-effect: non-scaling-stroke; fill: none; stroke: rgb(255, 255, 255); stroke-opacity: 0; stroke-width: 2px; opacity: 1;"/></g><g class="points"/><g class="text"/></g><g class="trace scatter tracee524d8" style="stroke-miterlimit: 2; opacity: 1;"><g class="fills"><g><path class="js-fill" d="M0,251.48Q1,266.96 4.47,268.92C7.67,270.73 15.97,263.63 19.14,264.52C21.1,265.07 21.67,267.8 23.05,268.88C24.21,269.79 25.4,270.32 26.68,270.82C27.97,271.32 29.87,271.99 30.74,271.87C31.19,271.81 31.3,271.36 31.71,271.31C32.34,271.24 33.22,271.84 34.23,272.1C35.69,272.48 38.22,272.8 39.68,273.22C40.69,273.51 41.49,273.98 42.19,274.16C42.67,274.28 43.08,274.49 43.45,274.33C43.91,274.12 44.13,273.17 44.57,272.67C45.01,272.16 45.55,271.43 46.1,271.3C46.58,271.19 47.26,271.93 47.64,271.72C48.17,271.42 47.87,269.64 48.48,268.82C49.19,267.86 51.15,266.32 51.97,266.56C52.71,266.78 52.54,269.33 53.37,269.62C54.46,270 57.28,266.22 58.54,266.99C61.98,269.1 62.23,306.11 58.54,310.07C57.26,311.44 54.52,310.7 53.37,310.44C52.73,310.29 52.54,309.62 51.97,309.64C51.06,309.67 49.24,311.37 48.48,311.9C48.1,312.17 47.94,312.25 47.64,312.54C47.18,312.98 46.66,314.28 46.1,314.38C45.62,314.46 45,313.38 44.57,313.48C44.11,313.58 43.91,314.93 43.45,315.14C43.08,315.3 42.67,315.09 42.19,314.97C41.49,314.79 40.69,314.33 39.68,314.04C38.22,313.62 35.67,312.67 34.23,312.91C33.19,313.08 32.31,314.55 31.71,314.39C31.22,314.26 31.31,313.12 30.74,312.69C29.91,312.05 28,311.74 26.68,311.63C25.45,311.53 24.18,312.4 23.05,311.96C21.62,311.4 21.1,308.15 19.14,307.6C15.97,306.71 7.66,313.51 4.47,312Q1.7,310.69 0,301.36Z" style="fill: rgb(230, 172, 33); fill-opacity: 0.05; stroke-width: 0;"/></g></g><g class="errorbars"/><g class="lines"><path class="js-line" d="M0,251.48Q1,266.96 4.47,268.92C7.67,270.73 15.97,263.63 19.14,264.52C21.1,265.07 21.67,267.8 23.05,268.88C24.21,269.79 25.4,270.32 26.68,270.82C27.97,271.32 29.87,271.99 30.74,271.87C31.19,271.81 31.3,271.36 31.71,271.31C32.34,271.24 33.22,271.84 34.23,272.1C35.69,272.48 38.22,272.8 39.68,273.22C40.69,273.51 41.49,273.98 42.19,274.16C42.67,274.28 43.08,274.49 43.45,274.33C43.91,274.12 44.13,273.17 44.57,272.67C45.01,272.16 45.55,271.43 46.1,271.3C46.58,271.19 47.26,271.93 47.64,271.72C48.17,271.42 47.87,269.64 48.48,268.82C49.19,267.86 51.15,266.32 51.97,266.56C52.71,266.78 52.54,269.33 53.37,269.62C54.46,270 57.28,266.22 58.54,266.99C61.98,269.1 62.23,306.11 58.54,310.07C57.26,311.44 54.52,310.7 53.37,310.44C52.73,310.29 52.54,309.62 51.97,309.64C51.06,309.67 49.24,311.37 48.48,311.9C48.1,312.17 47.94,312.25 47.64,312.54C47.18,312.98 46.66,314.28 46.1,314.38C45.62,314.46 45,313.38 44.57,313.48C44.11,313.58 43.91,314.93 43.45,315.14C43.08,315.3 42.67,315.09 42.19,314.97C41.49,314.79 40.69,314.33 39.68,314.04C38.22,313.62 35.67,312.67 34.23,312.91C33.19,313.08 32.31,314.55 31.71,314.39C31.22,314.26 31.31,313.12 30.74,312.69C29.91,312.05 28,311.74 26.68,311.63C25.45,311.53 24.18,312.4 23.05,311.96C21.62,311.4 21.1,308.15 19.14,307.6C15.97,306.71 7.66,313.51 4.47,312Q1.7,310.69 0,301.36" style="vector-effect: non-scaling-stroke; fill: none; stroke: rgb(255, 255, 255); stroke-opacity: 0; stroke-width: 2px; opacity: 1;"/></g><g class="points"/><g class="text"/></g><g class="trace scatter trace0c95f9" style="stroke-miterlimit: 2; opacity: 1;"><g class="fills"><g><path class="js-fill" d="M0,267.62Q2.58,269.6 4.47,271.21C7.98,274.19 15.61,282.98 19.14,284.39C20.71,285.02 21.9,285.08 23.05,284.5C24.51,283.77 25.59,281.57 26.68,279.35C28.29,276.07 29.53,266.76 30.74,266.2C31.07,266.05 31.34,266.7 31.71,266.62C32.4,266.47 33.12,264.07 34.23,263.83C35.62,263.53 38.29,265.17 39.68,266.19C40.79,267.01 41.48,268.34 42.19,269.09C42.67,269.6 43.09,269.77 43.45,270.32C43.93,271.06 44,273.04 44.57,273.31C44.98,273.5 45.63,272.65 46.1,272.78C46.67,272.93 47.19,274.54 47.64,274.58C47.95,274.61 48.09,274.16 48.48,273.9C49.23,273.4 51.09,271.93 51.97,272.02C52.57,272.08 52.7,272.98 53.37,273.19C54.51,273.55 57.27,271.57 58.54,272.73C62.1,275.99 62.1,309.65 58.54,313.54C57.27,314.93 54.51,314.35 53.37,314C52.7,313.79 52.57,312.9 51.97,312.84C51.09,312.75 49.23,314.22 48.48,314.72C48.09,314.98 47.95,315.42 47.64,315.39C47.18,315.35 46.67,313.74 46.1,313.59C45.63,313.46 45.03,314.18 44.57,314.13C44.15,314.08 43.82,313.7 43.45,313.4C43.03,313.06 42.73,312.47 42.19,312.17C41.53,311.8 40.66,311.87 39.68,311.54C38.19,311.04 35.72,309.33 34.23,309.18C33.25,309.08 32.3,309.26 31.71,309.7C31.18,310.1 31.2,310.76 30.74,311.55C29.87,313.05 28.14,316.27 26.68,317.89C25.53,319.16 24.37,320.34 23.05,320.78C21.84,321.18 20.81,321.04 19.14,320.67C15.76,319.92 7.86,316.34 4.47,314.29Q2.44,313.06 0,310.7Z" style="fill: rgb(240, 125, 0); fill-opacity: 0.05; stroke-width: 0;"/></g></g><g class="errorbars"/><g class="lines"><path class="js-line" d="M0,267.62Q2.58,269.6 4.47,271.21C7.98,274.19 15.61,282.98 19.14,284.39C20.71,285.02 21.9,285.08 23.05,284.5C24.51,283.77 25.59,281.57 26.68,279.35C28.29,276.07 29.53,266.76 30.74,266.2C31.07,266.05 31.34,266.7 31.71,266.62C32.4,266.47 33.12,264.07 34.23,263.83C35.62,263.53 38.29,265.17 39.68,266.19C40.79,267.01 41.48,268.34 42.19,269.09C42.67,269.6 43.09,269.77 43.45,270.32C43.93,271.06 44,273.04 44.57,273.31C44.98,273.5 45.63,272.65 46.1,272.78C46.67,272.93 47.19,274.54 47.64,274.58C47.95,274.61 48.09,274.16 48.48,273.9C49.23,273.4 51.09,271.93 51.97,272.02C52.57,272.08 52.7,272.98 53.37,273.19C54.51,273.55 57.27,271.57 58.54,272.73C62.1,275.99 62.1,309.65 58.54,313.54C57.27,314.93 54.51,314.35 53.37,314C52.7,313.79 52.57,312.9 51.97,312.84C51.09,312.75 49.23,314.22 48.48,314.72C48.09,314.98 47.95,315.42 47.64,315.39C47.18,315.35 46.67,313.74 46.1,313.59C45.63,313.46 45.03,314.18 44.57,314.13C44.15,314.08 43.82,313.7 43.45,313.4C43.03,313.06 42.73,312.47 42.19,312.17C41.53,311.8 40.66,311.87 39.68,311.54C38.19,311.04 35.72,309.33 34.23,309.18C33.25,309.08 32.3,309.26 31.71,309.7C31.18,310.1 31.2,310.76 30.74,311.55C29.87,313.05 28.14,316.27 26.68,317.89C25.53,319.16 24.37,320.34 23.05,320.78C21.84,321.18 20.81,321.04 19.14,320.67C15.76,319.92 7.86,316.34 4.47,314.29Q2.44,313.06 0,310.7" style="vector-effect: non-scaling-stroke; fill: none; stroke: rgb(255, 255, 255); stroke-opacity: 0; stroke-width: 2px; opacity: 1;"/></g><g class="points"/><g class="text"/></g><g class="trace scatter trace32bbef" style="stroke-miterlimit: 2; opacity: 1;"><g class="fills"><g><path class="js-fill" d="M0,279.7Q2.75,278.39 4.47,278.99C8.25,280.32 15.72,294.85 19.14,295.12C20.78,295.25 21.68,292.45 23.05,291.98C24.21,291.58 25.47,292.3 26.68,292.01C28.04,291.68 29.83,290.13 30.74,289.88C31.16,289.77 31.33,289.96 31.71,289.83C32.38,289.59 33.16,288.32 34.23,287.98C35.64,287.53 38.22,287.91 39.68,288.09C40.68,288.21 41.5,288.73 42.19,288.67C42.69,288.63 43.06,288.07 43.45,288.14C43.86,288.21 44.24,288.63 44.57,289.2C45.24,290.35 45.41,295.18 46.1,295.32C46.54,295.41 47.14,293.52 47.64,293.24C47.92,293.08 48.11,293.14 48.48,293.16C49.25,293.2 51.11,294.09 51.97,293.85C52.6,293.67 52.84,293.28 53.37,292.57C54.69,290.83 57.44,281.96 58.54,282.22C60.49,282.68 61.08,311.81 58.54,318.5C57.36,321.6 54.57,323.09 53.37,324.31C52.78,324.91 52.6,325.41 51.97,325.59C51.11,325.83 49.25,324.93 48.48,324.9C48.11,324.88 47.96,324.99 47.64,324.99C47.2,324.99 46.57,325.04 46.1,324.8C45.53,324.52 45.05,323.68 44.57,323.21C44.17,322.82 43.86,322.22 43.45,322.15C43.06,322.08 42.69,322.64 42.19,322.68C41.5,322.74 40.68,322.22 39.68,322.1C38.22,321.92 35.7,322.13 34.23,321.99C33.23,321.9 32.35,321.61 31.71,321.57C31.31,321.55 31.16,321.51 30.74,321.62C29.83,321.87 28.04,323.42 26.68,323.75C25.47,324.04 24.27,323.59 23.05,323.72C21.76,323.86 20.82,324.78 19.14,324.59C15.76,324.2 8.01,318.06 4.47,317.54Q2.6,317.27 0,318.25Z" style="fill: rgb(140, 0, 0); fill-opacity: 0.05; stroke-width: 0;"/></g></g><g class="errorbars"/><g class="lines"><path class="js-line" d="M0,279.7Q2.75,278.39 4.47,278.99C8.25,280.32 15.72,294.85 19.14,295.12C20.78,295.25 21.68,292.45 23.05,291.98C24.21,291.58 25.47,292.3 26.68,292.01C28.04,291.68 29.83,290.13 30.74,289.88C31.16,289.77 31.33,289.96 31.71,289.83C32.38,289.59 33.16,288.32 34.23,287.98C35.64,287.53 38.22,287.91 39.68,288.09C40.68,288.21 41.5,288.73 42.19,288.67C42.69,288.63 43.06,288.07 43.45,288.14C43.86,288.21 44.24,288.63 44.57,289.2C45.24,290.35 45.41,295.18 46.1,295.32C46.54,295.41 47.14,293.52 47.64,293.24C47.92,293.08 48.11,293.14 48.48,293.16C49.25,293.2 51.11,294.09 51.97,293.85C52.6,293.67 52.84,293.28 53.37,292.57C54.69,290.83 57.44,281.96 58.54,282.22C60.49,282.68 61.08,311.81 58.54,318.5C57.36,321.6 54.57,323.09 53.37,324.31C52.78,324.91 52.6,325.41 51.97,325.59C51.11,325.83 49.25,324.93 48.48,324.9C48.11,324.88 47.96,324.99 47.64,324.99C47.2,324.99 46.57,325.04 46.1,324.8C45.53,324.52 45.05,323.68 44.57,323.21C44.17,322.82 43.86,322.22 43.45,322.15C43.06,322.08 42.69,322.64 42.19,322.68C41.5,322.74 40.68,322.22 39.68,322.1C38.22,321.92 35.7,322.13 34.23,321.99C33.23,321.9 32.35,321.61 31.71,321.57C31.31,321.55 31.16,321.51 30.74,321.62C29.83,321.87 28.04,323.42 26.68,323.75C25.47,324.04 24.27,323.59 23.05,323.72C21.76,323.86 20.82,324.78 19.14,324.59C15.76,324.2 8.01,318.06 4.47,317.54Q2.6,317.27 0,318.25" style="vector-effect: non-scaling-stroke; fill: none; stroke: rgb(255, 255, 255); stroke-opacity: 0; stroke-width: 2px; opacity: 1;"/></g><g class="points"/><g class="text"/></g><g class="trace scatter trace5743c0" style="stroke-miterlimit: 2; opacity: 1;"><g class="fills"><g><path class="js-fill" d="M0,273.35Q1.59,282.47 4.47,284.43C7.66,286.6 15.85,285.18 19.14,284.53C20.91,284.18 21.81,282.75 23.05,282.89C24.32,283.03 25.42,284.63 26.68,285.45C27.98,286.3 29.9,287.07 30.74,287.89C31.26,288.39 31.21,289.12 31.71,289.41C32.3,289.75 33.31,289.85 34.23,289.5C35.82,288.89 38.13,285.27 39.68,284.21C40.61,283.57 41.48,283.14 42.19,283.05C42.67,282.99 43.04,283.27 43.45,283.29C43.83,283.31 44.17,283.18 44.57,283.17C45.04,283.16 45.59,283.3 46.1,283.26C46.62,283.22 47.2,282.97 47.64,282.9C47.96,282.85 48.17,282.65 48.48,282.81C49.4,283.3 50.94,288.27 51.97,289.49C52.47,290.08 52.88,289.86 53.37,290.55C54.89,292.7 57.62,300.86 58.54,306.8C59.6,313.65 60.51,328.62 58.54,329.47C57.44,329.94 54.57,325.58 53.37,324.56C52.77,324.05 52.5,324.02 51.97,323.5C51.02,322.57 49.33,319.44 48.48,319.09C48.15,318.95 47.96,319.13 47.64,319.18C47.2,319.25 46.62,319.5 46.1,319.54C45.59,319.58 45.04,319.44 44.57,319.45C44.17,319.46 43.83,319.59 43.45,319.57C43.04,319.55 42.67,319.27 42.19,319.33C41.48,319.42 40.67,319.99 39.68,320.49C38.2,321.24 35.74,323.16 34.23,323.52C33.27,323.75 32.3,323.76 31.71,323.42C31.21,323.13 31.29,322.22 30.74,321.9C29.91,321.42 27.94,322.16 26.68,321.73C25.37,321.28 24.32,319.31 23.05,319.17C21.81,319.03 20.91,320.45 19.14,320.8C15.85,321.45 7.71,322.43 4.47,320.71Q2.09,319.44 0,314.17Z" style="fill: rgb(0, 51, 255); fill-opacity: 0.05; stroke-width: 0;"/></g></g><g class="errorbars"/><g class="lines"><path class="js-line" d="M0,273.35Q1.59,282.47 4.47,284.43C7.66,286.6 15.85,285.18 19.14,284.53C20.91,284.18 21.81,282.75 23.05,282.89C24.32,283.03 25.42,284.63 26.68,285.45C27.98,286.3 29.9,287.07 30.74,287.89C31.26,288.39 31.21,289.12 31.71,289.41C32.3,289.75 33.31,289.85 34.23,289.5C35.82,288.89 38.13,285.27 39.68,284.21C40.61,283.57 41.48,283.14 42.19,283.05C42.67,282.99 43.04,283.27 43.45,283.29C43.83,283.31 44.17,283.18 44.57,283.17C45.04,283.16 45.59,283.3 46.1,283.26C46.62,283.22 47.2,282.97 47.64,282.9C47.96,282.85 48.17,282.65 48.48,282.81C49.4,283.3 50.94,288.27 51.97,289.49C52.47,290.08 52.88,289.86 53.37,290.55C54.89,292.7 57.62,300.86 58.54,306.8C59.6,313.65 60.51,328.62 58.54,329.47C57.44,329.94 54.57,325.58 53.37,324.56C52.77,324.05 52.5,324.02 51.97,323.5C51.02,322.57 49.33,319.44 48.48,319.09C48.15,318.95 47.96,319.13 47.64,319.18C47.2,319.25 46.62,319.5 46.1,319.54C45.59,319.58 45.04,319.44 44.57,319.45C44.17,319.46 43.83,319.59 43.45,319.57C43.04,319.55 42.67,319.27 42.19,319.33C41.48,319.42 40.67,319.99 39.68,320.49C38.2,321.24 35.74,323.16 34.23,323.52C33.27,323.75 32.3,323.76 31.71,323.42C31.21,323.13 31.29,322.22 30.74,321.9C29.91,321.42 27.94,322.16 26.68,321.73C25.37,321.28 24.32,319.31 23.05,319.17C21.81,319.03 20.91,320.45 19.14,320.8C15.85,321.45 7.71,322.43 4.47,320.71Q2.09,319.44 0,314.17" style="vector-effect: non-scaling-stroke; fill: none; stroke: rgb(255, 255, 255); stroke-opacity: 0; stroke-width: 2px; opacity: 1;"/></g><g class="points"/><g class="text"/></g><g class="trace scatter trace4a9ebb" style="stroke-miterlimit: 2; opacity: 1;"><g class="fills"/><g class="errorbars"/><g class="lines"><path class="js-line" d="M0,91.61Q2.61,91.65 4.47,92.22C8.01,93.3 16.06,100.61 19.14,99.44C21.59,98.51 21.56,92.32 23.05,89.81C24.16,87.94 25.45,86.92 26.68,85.36C28.01,83.68 29.8,80.97 30.74,80.05C31.14,79.66 31.35,79.71 31.71,79.33C32.41,78.6 33.24,77.09 34.23,75.6C35.71,73.39 38.06,68.97 39.68,67.32C40.58,66.41 41.48,65.65 42.19,65.6C42.67,65.57 43.04,66.22 43.45,66.24C43.83,66.26 44.16,65.86 44.57,65.8C45.03,65.73 45.59,65.87 46.1,65.92C46.61,65.97 47.22,65.93 47.64,66.08C47.98,66.2 48.09,66.42 48.48,66.61C49.23,66.99 51.16,67.11 51.97,67.95C52.84,68.85 52.59,71.89 53.37,72.02Q54.47,72.2 58.54,65.31" style="vector-effect: non-scaling-stroke; fill: none; stroke: rgb(38, 16, 96); stroke-opacity: 1; stroke-width: 7px; opacity: 1;"/></g><g class="points"/><g class="text"/></g><g class="trace scatter trace6e9715" style="stroke-miterlimit: 2; opacity: 1;"><g class="fills"/><g class="errorbars"/><g class="lines"/><g class="points"><path class="point" transform="translate(0,91.28)" d="M7.5,0A7.5,7.5 0 1,1 0,-7.5A7.5,7.5 0 0,1 7.5,0Z" style="opacity: 1; stroke-width: 0px; fill: rgb(38, 16, 96); fill-opacity: 0.25;"/><path class="point" transform="translate(4.47,92.16)" d="M7.5,0A7.5,7.5 0 1,1 0,-7.5A7.5,7.5 0 0,1 7.5,0Z" style="opacity: 1; stroke-width: 0px; fill: rgb(38, 16, 96); fill-opacity: 0.25;"/><path class="point" transform="translate(19.14,109.78)" d="M7.5,0A7.5,7.5 0 1,1 0,-7.5A7.5,7.5 0 0,1 7.5,0Z" style="opacity: 1; stroke-width: 0px; fill: rgb(38, 16, 96); fill-opacity: 0.25;"/><path class="point" transform="translate(23.05,87.75)" d="M7.5,0A7.5,7.5 0 1,1 0,-7.5A7.5,7.5 0 0,1 7.5,0Z" style="opacity: 1; stroke-width: 0px; fill: rgb(38, 16, 96); fill-opacity: 0.25;"/><path class="point" transform="translate(26.68,87.75)" d="M7.5,0A7.5,7.5 0 1,1 0,-7.5A7.5,7.5 0 0,1 7.5,0Z" style="opacity: 1; stroke-width: 0px; fill: rgb(38, 16, 96); fill-opacity: 0.25;"/><path class="point" transform="translate(30.74,78.95)" d="M7.5,0A7.5,7.5 0 1,1 0,-7.5A7.5,7.5 0 0,1 7.5,0Z" style="opacity: 1; stroke-width: 0px; fill: rgb(38, 16, 96); fill-opacity: 0.25;"/><path class="point" transform="translate(31.71,83.35)" d="M7.5,0A7.5,7.5 0 1,1 0,-7.5A7.5,7.5 0 0,1 7.5,0Z" style="opacity: 1; stroke-width: 0px; fill: rgb(38, 16, 96); fill-opacity: 0.25;"/><path class="point" transform="translate(34.23,74.54)" d="M7.5,0A7.5,7.5 0 1,1 0,-7.5A7.5,7.5 0 0,1 7.5,0Z" style="opacity: 1; stroke-width: 0px; fill: rgb(38, 16, 96); fill-opacity: 0.25;"/><path class="point" transform="translate(39.68,65.73)" d="M7.5,0A7.5,7.5 0 1,1 0,-7.5A7.5,7.5 0 0,1 7.5,0Z" style="opacity: 1; stroke-width: 0px; fill: rgb(38, 16, 96); fill-opacity: 0.25;"/><path class="point" transform="translate(42.19,56.04)" d="M7.5,0A7.5,7.5 0 1,1 0,-7.5A7.5,7.5 0 0,1 7.5,0Z" style="opacity: 1; stroke-width: 0px; fill: rgb(38, 16, 96); fill-opacity: 0.25;"/><path class="point" transform="translate(43.45,74.54)" d="M7.5,0A7.5,7.5 0 1,1 0,-7.5A7.5,7.5 0 0,1 7.5,0Z" style="opacity: 1; stroke-width: 0px; fill: rgb(38, 16, 96); fill-opacity: 0.25;"/><path class="point" transform="translate(44.57,61.33)" d="M7.5,0A7.5,7.5 0 1,1 0,-7.5A7.5,7.5 0 0,1 7.5,0Z" style="opacity: 1; stroke-width: 0px; fill: rgb(38, 16, 96); fill-opacity: 0.25;"/><path class="point" transform="translate(46.1,65.73)" d="M7.5,0A7.5,7.5 0 1,1 0,-7.5A7.5,7.5 0 0,1 7.5,0Z" style="opacity: 1; stroke-width: 0px; fill: rgb(38, 16, 96); fill-opacity: 0.25;"/><path class="point" transform="translate(47.64,61.33)" d="M7.5,0A7.5,7.5 0 1,1 0,-7.5A7.5,7.5 0 0,1 7.5,0Z" style="opacity: 1; stroke-width: 0px; fill: rgb(38, 16, 96); fill-opacity: 0.25;"/><path class="point" transform="translate(48.48,70.14)" d="M7.5,0A7.5,7.5 0 1,1 0,-7.5A7.5,7.5 0 0,1 7.5,0Z" style="opacity: 1; stroke-width: 0px; fill: rgb(38, 16, 96); fill-opacity: 0.25;"/><path class="point" transform="translate(51.97,52.52)" d="M7.5,0A7.5,7.5 0 1,1 0,-7.5A7.5,7.5 0 0,1 7.5,0Z" style="opacity: 1; stroke-width: 0px; fill: rgb(38, 16, 96); fill-opacity: 0.25;"/><path class="point" transform="translate(53.37,96.56)" d="M7.5,0A7.5,7.5 0 1,1 0,-7.5A7.5,7.5 0 0,1 7.5,0Z" style="opacity: 1; stroke-width: 0px; fill: rgb(38, 16, 96); fill-opacity: 0.25;"/><path class="point" transform="translate(58.54,58.69)" d="M7.5,0A7.5,7.5 0 1,1 0,-7.5A7.5,7.5 0 0,1 7.5,0Z" style="opacity: 1; stroke-width: 0px; fill: rgb(38, 16, 96); fill-opacity: 0.25;"/></g><g class="text"/></g><g class="trace scatter traceef1d8f" style="stroke-miterlimit: 2; opacity: 1;"><g class="fills"/><g class="errorbars"/><g class="lines"><path class="js-line" d="M0,205.05Q2.79,200.15 4.47,195.6C8.36,185.05 15.12,150.08 19.14,141.38C20.55,138.33 21.54,136.64 23.05,135.69C24.15,134.99 25.66,134.38 26.68,135.11C29.29,136.98 29.18,157.26 30.74,158.85C31.06,159.17 31.41,158.74 31.71,159.04C32.78,160.1 32.98,167 34.23,171.04C35.57,175.4 37.77,182.52 39.68,184.25C40.5,184.99 41.52,185.11 42.19,185.01C42.7,184.93 43.06,184.5 43.45,184.16C43.86,183.81 44.19,182.9 44.57,182.93C45.06,182.97 45.52,185.06 46.1,185.19C46.57,185.3 47.23,184.63 47.64,184.29C47.99,184 48.04,183.49 48.48,183.33C49.21,183.06 51.16,184.39 51.97,183.84C53.02,183.13 52.68,178.17 53.37,178.14Q54.5,178.09 58.54,192.95" style="vector-effect: non-scaling-stroke; fill: none; stroke: rgb(0, 68, 148); stroke-opacity: 1; stroke-width: 7px; opacity: 1;"/></g><g class="points"/><g class="text"/></g><g class="trace scatter trace27463c" style="stroke-miterlimit: 2; opacity: 1;"><g class="fills"/><g class="errorbars"/><g class="lines"/><g class="points"><path class="point" transform="translate(0,210.2)" d="M7.5,0A7.5,7.5 0 1,1 0,-7.5A7.5,7.5 0 0,1 7.5,0Z" style="opacity: 1; stroke-width: 0px; fill: rgb(0, 68, 148); fill-opacity: 0.25;"/><path class="point" transform="translate(4.47,193.46)" d="M7.5,0A7.5,7.5 0 1,1 0,-7.5A7.5,7.5 0 0,1 7.5,0Z" style="opacity: 1; stroke-width: 0px; fill: rgb(0, 68, 148); fill-opacity: 0.25;"/><path class="point" transform="translate(19.14,145.01)" d="M7.5,0A7.5,7.5 0 1,1 0,-7.5A7.5,7.5 0 0,1 7.5,0Z" style="opacity: 1; stroke-width: 0px; fill: rgb(0, 68, 148); fill-opacity: 0.25;"/><path class="point" transform="translate(23.05,131.8)" d="M7.5,0A7.5,7.5 0 1,1 0,-7.5A7.5,7.5 0 0,1 7.5,0Z" style="opacity: 1; stroke-width: 0px; fill: rgb(0, 68, 148); fill-opacity: 0.25;"/><path class="point" transform="translate(26.68,100.97)" d="M7.5,0A7.5,7.5 0 1,1 0,-7.5A7.5,7.5 0 0,1 7.5,0Z" style="opacity: 1; stroke-width: 0px; fill: rgb(0, 68, 148); fill-opacity: 0.25;"/><path class="point" transform="translate(30.74,184.65)" d="M7.5,0A7.5,7.5 0 1,1 0,-7.5A7.5,7.5 0 0,1 7.5,0Z" style="opacity: 1; stroke-width: 0px; fill: rgb(0, 68, 148); fill-opacity: 0.25;"/><path class="point" transform="translate(31.71,131.8)" d="M7.5,0A7.5,7.5 0 1,1 0,-7.5A7.5,7.5 0 0,1 7.5,0Z" style="opacity: 1; stroke-width: 0px; fill: rgb(0, 68, 148); fill-opacity: 0.25;"/><path class="point" transform="translate(34.23,188.18)" d="M7.5,0A7.5,7.5 0 1,1 0,-7.5A7.5,7.5 0 0,1 7.5,0Z" style="opacity: 1; stroke-width: 0px; fill: rgb(0, 68, 148); fill-opacity: 0.25;"/><path class="point" transform="translate(39.68,193.46)" d="M7.5,0A7.5,7.5 0 1,1 0,-7.5A7.5,7.5 0 0,1 7.5,0Z" style="opacity: 1; stroke-width: 0px; fill: rgb(0, 68, 148); fill-opacity: 0.25;"/><path class="point" transform="translate(42.19,193.46)" d="M7.5,0A7.5,7.5 0 1,1 0,-7.5A7.5,7.5 0 0,1 7.5,0Z" style="opacity: 1; stroke-width: 0px; fill: rgb(0, 68, 148); fill-opacity: 0.25;"/><path class="point" transform="translate(43.45,189.06)" d="M7.5,0A7.5,7.5 0 1,1 0,-7.5A7.5,7.5 0 0,1 7.5,0Z" style="opacity: 1; stroke-width: 0px; fill: rgb(0, 68, 148); fill-opacity: 0.25;"/><path class="point" transform="translate(44.57,158.23)" d="M7.5,0A7.5,7.5 0 1,1 0,-7.5A7.5,7.5 0 0,1 7.5,0Z" style="opacity: 1; stroke-width: 0px; fill: rgb(0, 68, 148); fill-opacity: 0.25;"/><path class="point" transform="translate(46.1,204.91)" d="M7.5,0A7.5,7.5 0 1,1 0,-7.5A7.5,7.5 0 0,1 7.5,0Z" style="opacity: 1; stroke-width: 0px; fill: rgb(0, 68, 148); fill-opacity: 0.25;"/><path class="point" transform="translate(47.64,189.06)" d="M7.5,0A7.5,7.5 0 1,1 0,-7.5A7.5,7.5 0 0,1 7.5,0Z" style="opacity: 1; stroke-width: 0px; fill: rgb(0, 68, 148); fill-opacity: 0.25;"/><path class="point" transform="translate(48.48,171.44)" d="M7.5,0A7.5,7.5 0 1,1 0,-7.5A7.5,7.5 0 0,1 7.5,0Z" style="opacity: 1; stroke-width: 0px; fill: rgb(0, 68, 148); fill-opacity: 0.25;"/><path class="point" transform="translate(51.97,211.08)" d="M7.5,0A7.5,7.5 0 1,1 0,-7.5A7.5,7.5 0 0,1 7.5,0Z" style="opacity: 1; stroke-width: 0px; fill: rgb(0, 68, 148); fill-opacity: 0.25;"/><path class="point" transform="translate(53.37,140.61)" d="M7.5,0A7.5,7.5 0 1,1 0,-7.5A7.5,7.5 0 0,1 7.5,0Z" style="opacity: 1; stroke-width: 0px; fill: rgb(0, 68, 148); fill-opacity: 0.25;"/><path class="point" transform="translate(58.54,207.56)" d="M7.5,0A7.5,7.5 0 1,1 0,-7.5A7.5,7.5 0 0,1 7.5,0Z" style="opacity: 1; stroke-width: 0px; fill: rgb(0, 68, 148); fill-opacity: 0.25;"/></g><g class="text"/></g><g class="trace scatter trace52f168" style="stroke-miterlimit: 2; opacity: 1;"><g class="fills"/><g class="errorbars"/><g class="lines"><path class="js-line" d="M0,245.49Q2.69,246.22 4.47,245.6C8.14,244.32 15.86,233.17 19.14,233.33C20.91,233.41 21.8,237.35 23.05,237.29C24.32,237.23 25.39,234.24 26.68,232.87C27.95,231.52 29.82,229.8 30.74,229.13C31.15,228.83 31.35,228.89 31.71,228.57C32.41,227.94 33.11,226.17 34.23,225.09C35.62,223.76 38.16,222.11 39.68,221.49C40.63,221.1 41.51,221.26 42.19,221.01C42.7,220.82 43.06,220.25 43.45,220.29C43.85,220.33 44.14,221.18 44.57,221.26C45.02,221.34 45.64,220.57 46.1,220.71C46.69,220.89 47.18,222.36 47.64,222.87C47.94,223.2 48.08,223.33 48.48,223.59C49.23,224.07 51.09,224.7 51.97,225.22C52.56,225.57 52.74,226.2 53.37,226.25Q54.53,226.33 58.54,223.49" style="vector-effect: non-scaling-stroke; fill: none; stroke: rgb(234, 35, 41); stroke-opacity: 1; stroke-width: 7px; opacity: 1;"/></g><g class="points"/><g class="text"/></g><g class="trace scatter traceff3832" style="stroke-miterlimit: 2; opacity: 1;"><g class="fills"/><g class="errorbars"/><g class="lines"/><g class="points"><path class="point" transform="translate(0,245.43)" d="M7.5,0A7.5,7.5 0 1,1 0,-7.5A7.5,7.5 0 0,1 7.5,0Z" style="opacity: 1; stroke-width: 0px; fill: rgb(234, 35, 41); fill-opacity: 0.25;"/><path class="point" transform="translate(4.47,246.32)" d="M7.5,0A7.5,7.5 0 1,1 0,-7.5A7.5,7.5 0 0,1 7.5,0Z" style="opacity: 1; stroke-width: 0px; fill: rgb(234, 35, 41); fill-opacity: 0.25;"/><path class="point" transform="translate(19.14,228.7)" d="M7.5,0A7.5,7.5 0 1,1 0,-7.5A7.5,7.5 0 0,1 7.5,0Z" style="opacity: 1; stroke-width: 0px; fill: rgb(234, 35, 41); fill-opacity: 0.25;"/><path class="point" transform="translate(23.05,246.32)" d="M7.5,0A7.5,7.5 0 1,1 0,-7.5A7.5,7.5 0 0,1 7.5,0Z" style="opacity: 1; stroke-width: 0px; fill: rgb(234, 35, 41); fill-opacity: 0.25;"/><path class="point" transform="translate(26.68,233.1)" d="M7.5,0A7.5,7.5 0 1,1 0,-7.5A7.5,7.5 0 0,1 7.5,0Z" style="opacity: 1; stroke-width: 0px; fill: rgb(234, 35, 41); fill-opacity: 0.25;"/><path class="point" transform="translate(30.74,228.7)" d="M7.5,0A7.5,7.5 0 1,1 0,-7.5A7.5,7.5 0 0,1 7.5,0Z" style="opacity: 1; stroke-width: 0px; fill: rgb(234, 35, 41); fill-opacity: 0.25;"/><path class="point" transform="translate(31.71,233.1)" d="M7.5,0A7.5,7.5 0 1,1 0,-7.5A7.5,7.5 0 0,1 7.5,0Z" style="opacity: 1; stroke-width: 0px; fill: rgb(234, 35, 41); fill-opacity: 0.25;"/><path class="point" transform="translate(34.23,219.89)" d="M7.5,0A7.5,7.5 0 1,1 0,-7.5A7.5,7.5 0 0,1 7.5,0Z" style="opacity: 1; stroke-width: 0px; fill: rgb(234, 35, 41); fill-opacity: 0.25;"/><path class="point" transform="translate(39.68,219.89)" d="M7.5,0A7.5,7.5 0 1,1 0,-7.5A7.5,7.5 0 0,1 7.5,0Z" style="opacity: 1; stroke-width: 0px; fill: rgb(234, 35, 41); fill-opacity: 0.25;"/><path class="point" transform="translate(42.19,225.17)" d="M7.5,0A7.5,7.5 0 1,1 0,-7.5A7.5,7.5 0 0,1 7.5,0Z" style="opacity: 1; stroke-width: 0px; fill: rgb(234, 35, 41); fill-opacity: 0.25;"/><path class="point" transform="translate(43.45,206.68)" d="M7.5,0A7.5,7.5 0 1,1 0,-7.5A7.5,7.5 0 0,1 7.5,0Z" style="opacity: 1; stroke-width: 0px; fill: rgb(234, 35, 41); fill-opacity: 0.25;"/><path class="point" transform="translate(44.57,233.1)" d="M7.5,0A7.5,7.5 0 1,1 0,-7.5A7.5,7.5 0 0,1 7.5,0Z" style="opacity: 1; stroke-width: 0px; fill: rgb(234, 35, 41); fill-opacity: 0.25;"/><path class="point" transform="translate(46.1,204.03)" d="M7.5,0A7.5,7.5 0 1,1 0,-7.5A7.5,7.5 0 0,1 7.5,0Z" style="opacity: 1; stroke-width: 0px; fill: rgb(234, 35, 41); fill-opacity: 0.25;"/><path class="point" transform="translate(47.64,228.7)" d="M7.5,0A7.5,7.5 0 1,1 0,-7.5A7.5,7.5 0 0,1 7.5,0Z" style="opacity: 1; stroke-width: 0px; fill: rgb(234, 35, 41); fill-opacity: 0.25;"/><path class="point" transform="translate(48.48,228.7)" d="M7.5,0A7.5,7.5 0 1,1 0,-7.5A7.5,7.5 0 0,1 7.5,0Z" style="opacity: 1; stroke-width: 0px; fill: rgb(234, 35, 41); fill-opacity: 0.25;"/><path class="point" transform="translate(51.97,224.29)" d="M7.5,0A7.5,7.5 0 1,1 0,-7.5A7.5,7.5 0 0,1 7.5,0Z" style="opacity: 1; stroke-width: 0px; fill: rgb(234, 35, 41); fill-opacity: 0.25;"/><path class="point" transform="translate(53.37,233.1)" d="M7.5,0A7.5,7.5 0 1,1 0,-7.5A7.5,7.5 0 0,1 7.5,0Z" style="opacity: 1; stroke-width: 0px; fill: rgb(234, 35, 41); fill-opacity: 0.25;"/><path class="point" transform="translate(58.54,220.77)" d="M7.5,0A7.5,7.5 0 1,1 0,-7.5A7.5,7.5 0 0,1 7.5,0Z" style="opacity: 1; stroke-width: 0px; fill: rgb(234, 35, 41); fill-opacity: 0.25;"/></g><g class="text"/></g><g class="trace scatter trace00e404" style="stroke-miterlimit: 2; opacity: 1;"><g class="fills"/><g class="errorbars"/><g class="lines"><path class="js-line" d="M0,249.89Q2.21,254.42 4.47,256.45C7.74,259.38 15.74,263.11 19.14,264.24C20.8,264.79 21.78,264.56 23.05,264.84C24.29,265.12 25.64,266.48 26.68,265.92C28.67,264.85 29.77,255 30.74,252.57C31.12,251.61 31.35,251.5 31.71,250.63C32.4,248.98 32.69,244.72 34.23,243.24C35.54,241.98 38.21,241.61 39.68,241.62C40.68,241.63 41.5,242.43 42.19,242.41C42.68,242.4 43.07,241.86 43.45,241.95C43.87,242.04 44.13,242.96 44.57,243.09C45.01,243.22 45.61,242.95 46.1,242.73C46.64,242.48 47.18,241.73 47.64,241.62C47.95,241.55 48.15,241.88 48.48,241.76C49.31,241.46 51.03,238.64 51.97,237.79C52.51,237.3 52.78,236.74 53.37,236.79Q54.58,236.89 58.54,242.03" style="vector-effect: non-scaling-stroke; fill: none; stroke: rgb(0, 0, 0); stroke-opacity: 1; stroke-width: 7px; opacity: 1;"/></g><g class="points"/><g class="text"/></g><g class="trace scatter trace4144d2" style="stroke-miterlimit: 2; opacity: 1;"><g class="fills"/><g class="errorbars"/><g class="lines"/><g class="points"><path class="point" transform="translate(0,246.32)" d="M7.5,0A7.5,7.5 0 1,1 0,-7.5A7.5,7.5 0 0,1 7.5,0Z" style="opacity: 1; stroke-width: 0px; fill: rgb(0, 0, 0); fill-opacity: 0.25;"/><path class="point" transform="translate(4.47,259.53)" d="M7.5,0A7.5,7.5 0 1,1 0,-7.5A7.5,7.5 0 0,1 7.5,0Z" style="opacity: 1; stroke-width: 0px; fill: rgb(0, 0, 0); fill-opacity: 0.25;"/><path class="point" transform="translate(19.14,263.93)" d="M7.5,0A7.5,7.5 0 1,1 0,-7.5A7.5,7.5 0 0,1 7.5,0Z" style="opacity: 1; stroke-width: 0px; fill: rgb(0, 0, 0); fill-opacity: 0.25;"/><path class="point" transform="translate(23.05,263.93)" d="M7.5,0A7.5,7.5 0 1,1 0,-7.5A7.5,7.5 0 0,1 7.5,0Z" style="opacity: 1; stroke-width: 0px; fill: rgb(0, 0, 0); fill-opacity: 0.25;"/><path class="point" transform="translate(26.68,285.96)" d="M7.5,0A7.5,7.5 0 1,1 0,-7.5A7.5,7.5 0 0,1 7.5,0Z" style="opacity: 1; stroke-width: 0px; fill: rgb(0, 0, 0); fill-opacity: 0.25;"/><path class="point" transform="translate(30.74,250.72)" d="M7.5,0A7.5,7.5 0 1,1 0,-7.5A7.5,7.5 0 0,1 7.5,0Z" style="opacity: 1; stroke-width: 0px; fill: rgb(0, 0, 0); fill-opacity: 0.25;"/><path class="point" transform="translate(31.71,255.12)" d="M7.5,0A7.5,7.5 0 1,1 0,-7.5A7.5,7.5 0 0,1 7.5,0Z" style="opacity: 1; stroke-width: 0px; fill: rgb(0, 0, 0); fill-opacity: 0.25;"/><path class="point" transform="translate(34.23,226.05)" d="M7.5,0A7.5,7.5 0 1,1 0,-7.5A7.5,7.5 0 0,1 7.5,0Z" style="opacity: 1; stroke-width: 0px; fill: rgb(0, 0, 0); fill-opacity: 0.25;"/><path class="point" transform="translate(39.68,237.51)" d="M7.5,0A7.5,7.5 0 1,1 0,-7.5A7.5,7.5 0 0,1 7.5,0Z" style="opacity: 1; stroke-width: 0px; fill: rgb(0, 0, 0); fill-opacity: 0.25;"/><path class="point" transform="translate(42.19,248.08)" d="M7.5,0A7.5,7.5 0 1,1 0,-7.5A7.5,7.5 0 0,1 7.5,0Z" style="opacity: 1; stroke-width: 0px; fill: rgb(0, 0, 0); fill-opacity: 0.25;"/><path class="point" transform="translate(43.45,228.7)" d="M7.5,0A7.5,7.5 0 1,1 0,-7.5A7.5,7.5 0 0,1 7.5,0Z" style="opacity: 1; stroke-width: 0px; fill: rgb(0, 0, 0); fill-opacity: 0.25;"/><path class="point" transform="translate(44.57,255.12)" d="M7.5,0A7.5,7.5 0 1,1 0,-7.5A7.5,7.5 0 0,1 7.5,0Z" style="opacity: 1; stroke-width: 0px; fill: rgb(0, 0, 0); fill-opacity: 0.25;"/><path class="point" transform="translate(46.1,247.2)" d="M7.5,0A7.5,7.5 0 1,1 0,-7.5A7.5,7.5 0 0,1 7.5,0Z" style="opacity: 1; stroke-width: 0px; fill: rgb(0, 0, 0); fill-opacity: 0.25;"/><path class="point" transform="translate(47.64,233.1)" d="M7.5,0A7.5,7.5 0 1,1 0,-7.5A7.5,7.5 0 0,1 7.5,0Z" style="opacity: 1; stroke-width: 0px; fill: rgb(0, 0, 0); fill-opacity: 0.25;"/><path class="point" transform="translate(48.48,250.72)" d="M7.5,0A7.5,7.5 0 1,1 0,-7.5A7.5,7.5 0 0,1 7.5,0Z" style="opacity: 1; stroke-width: 0px; fill: rgb(0, 0, 0); fill-opacity: 0.25;"/><path class="point" transform="translate(51.97,233.1)" d="M7.5,0A7.5,7.5 0 1,1 0,-7.5A7.5,7.5 0 0,1 7.5,0Z" style="opacity: 1; stroke-width: 0px; fill: rgb(0, 0, 0); fill-opacity: 0.25;"/><path class="point" transform="translate(53.37,228.7)" d="M7.5,0A7.5,7.5 0 1,1 0,-7.5A7.5,7.5 0 0,1 7.5,0Z" style="opacity: 1; stroke-width: 0px; fill: rgb(0, 0, 0); fill-opacity: 0.25;"/><path class="point" transform="translate(58.54,247.2)" d="M7.5,0A7.5,7.5 0 1,1 0,-7.5A7.5,7.5 0 0,1 7.5,0Z" style="opacity: 1; stroke-width: 0px; fill: rgb(0, 0, 0); fill-opacity: 0.25;"/></g><g class="text"/></g><g class="trace scatter tracef28ca4" style="stroke-miterlimit: 2; opacity: 1;"><g class="fills"/><g class="errorbars"/><g class="lines"><path class="js-line" d="M0,260.42Q0.12,233.54 4.47,231.36C7.74,229.72 16.01,236.29 19.14,239.2C21.21,241.12 21.8,243.26 23.05,245.36C24.31,247.48 25.55,249.27 26.68,251.84C28.17,255.23 29.87,261.33 30.74,264.15C31.19,265.61 31.29,266.17 31.71,267.49C32.34,269.46 32.9,272.64 34.23,274.77C35.56,276.9 38.12,279.19 39.68,280.25C40.61,280.88 41.49,281.07 42.19,281.32C42.68,281.49 43.07,281.78 43.45,281.67C43.88,281.55 44.12,280.73 44.57,280.46C45.01,280.19 45.62,280.31 46.1,280.04C46.65,279.74 47.22,279.09 47.64,278.63C47.98,278.26 48.03,277.71 48.48,277.54C49.2,277.27 51.07,278.26 51.97,278.23C52.54,278.21 52.76,278.06 53.37,277.85Q54.56,277.45 58.54,275.72" style="vector-effect: non-scaling-stroke; fill: none; stroke: rgb(93, 140, 0); stroke-opacity: 1; stroke-width: 7px; opacity: 1;"/></g><g class="points"/><g class="text"/></g><g class="trace scatter tracea6b42a" style="stroke-miterlimit: 2; opacity: 1;"><g class="fills"/><g class="errorbars"/><g class="lines"/><g class="points"><path class="point" transform="translate(0,276.27)" d="M7.5,0A7.5,7.5 0 1,1 0,-7.5A7.5,7.5 0 0,1 7.5,0Z" style="opacity: 1; stroke-width: 0px; fill: rgb(93, 140, 0); fill-opacity: 0.25;"/><path class="point" transform="translate(4.47,215.48)" d="M7.5,0A7.5,7.5 0 1,1 0,-7.5A7.5,7.5 0 0,1 7.5,0Z" style="opacity: 1; stroke-width: 0px; fill: rgb(93, 140, 0); fill-opacity: 0.25;"/><path class="point" transform="translate(19.14,233.1)" d="M7.5,0A7.5,7.5 0 1,1 0,-7.5A7.5,7.5 0 0,1 7.5,0Z" style="opacity: 1; stroke-width: 0px; fill: rgb(93, 140, 0); fill-opacity: 0.25;"/><path class="point" transform="translate(23.05,241.91)" d="M7.5,0A7.5,7.5 0 1,1 0,-7.5A7.5,7.5 0 0,1 7.5,0Z" style="opacity: 1; stroke-width: 0px; fill: rgb(93, 140, 0); fill-opacity: 0.25;"/><path class="point" transform="translate(26.68,241.91)" d="M7.5,0A7.5,7.5 0 1,1 0,-7.5A7.5,7.5 0 0,1 7.5,0Z" style="opacity: 1; stroke-width: 0px; fill: rgb(93, 140, 0); fill-opacity: 0.25;"/><path class="point" transform="translate(30.74,255.12)" d="M7.5,0A7.5,7.5 0 1,1 0,-7.5A7.5,7.5 0 0,1 7.5,0Z" style="opacity: 1; stroke-width: 0px; fill: rgb(93, 140, 0); fill-opacity: 0.25;"/><path class="point" transform="translate(31.71,272.74)" d="M7.5,0A7.5,7.5 0 1,1 0,-7.5A7.5,7.5 0 0,1 7.5,0Z" style="opacity: 1; stroke-width: 0px; fill: rgb(93, 140, 0); fill-opacity: 0.25;"/><path class="point" transform="translate(34.23,287.72)" d="M7.5,0A7.5,7.5 0 1,1 0,-7.5A7.5,7.5 0 0,1 7.5,0Z" style="opacity: 1; stroke-width: 0px; fill: rgb(93, 140, 0); fill-opacity: 0.25;"/><path class="point" transform="translate(39.68,281.55)" d="M7.5,0A7.5,7.5 0 1,1 0,-7.5A7.5,7.5 0 0,1 7.5,0Z" style="opacity: 1; stroke-width: 0px; fill: rgb(93, 140, 0); fill-opacity: 0.25;"/><path class="point" transform="translate(42.19,281.55)" d="M7.5,0A7.5,7.5 0 1,1 0,-7.5A7.5,7.5 0 0,1 7.5,0Z" style="opacity: 1; stroke-width: 0px; fill: rgb(93, 140, 0); fill-opacity: 0.25;"/><path class="point" transform="translate(43.45,294.76)" d="M7.5,0A7.5,7.5 0 1,1 0,-7.5A7.5,7.5 0 0,1 7.5,0Z" style="opacity: 1; stroke-width: 0px; fill: rgb(93, 140, 0); fill-opacity: 0.25;"/><path class="point" transform="translate(44.57,272.74)" d="M7.5,0A7.5,7.5 0 1,1 0,-7.5A7.5,7.5 0 0,1 7.5,0Z" style="opacity: 1; stroke-width: 0px; fill: rgb(93, 140, 0); fill-opacity: 0.25;"/><path class="point" transform="translate(46.1,285.96)" d="M7.5,0A7.5,7.5 0 1,1 0,-7.5A7.5,7.5 0 0,1 7.5,0Z" style="opacity: 1; stroke-width: 0px; fill: rgb(93, 140, 0); fill-opacity: 0.25;"/><path class="point" transform="translate(47.64,281.55)" d="M7.5,0A7.5,7.5 0 1,1 0,-7.5A7.5,7.5 0 0,1 7.5,0Z" style="opacity: 1; stroke-width: 0px; fill: rgb(93, 140, 0); fill-opacity: 0.25;"/><path class="point" transform="translate(48.48,263.93)" d="M7.5,0A7.5,7.5 0 1,1 0,-7.5A7.5,7.5 0 0,1 7.5,0Z" style="opacity: 1; stroke-width: 0px; fill: rgb(93, 140, 0); fill-opacity: 0.25;"/><path class="point" transform="translate(51.97,281.55)" d="M7.5,0A7.5,7.5 0 1,1 0,-7.5A7.5,7.5 0 0,1 7.5,0Z" style="opacity: 1; stroke-width: 0px; fill: rgb(93, 140, 0); fill-opacity: 0.25;"/><path class="point" transform="translate(53.37,277.15)" d="M7.5,0A7.5,7.5 0 1,1 0,-7.5A7.5,7.5 0 0,1 7.5,0Z" style="opacity: 1; stroke-width: 0px; fill: rgb(93, 140, 0); fill-opacity: 0.25;"/><path class="point" transform="translate(58.54,273.62)" d="M7.5,0A7.5,7.5 0 1,1 0,-7.5A7.5,7.5 0 0,1 7.5,0Z" style="opacity: 1; stroke-width: 0px; fill: rgb(93, 140, 0); fill-opacity: 0.25;"/></g><g class="text"/></g><g class="trace scatter traced99d80" style="stroke-miterlimit: 2; opacity: 1;"><g class="fills"/><g class="errorbars"/><g class="lines"><path class="js-line" d="M0,267.2Q2.67,267.45 4.47,268.35C8.1,270.16 16.01,276.28 19.14,280.08C21.24,282.63 21.73,285.26 23.05,287.6C24.25,289.72 25.22,293.17 26.68,293.55C27.87,293.86 29.83,291.63 30.74,291.27C31.16,291.1 31.34,291.22 31.71,291.02C32.39,290.65 33.14,289.31 34.23,288.75C35.63,288.03 38.2,287.67 39.68,287.55C40.67,287.47 41.53,287.45 42.19,287.7C42.72,287.9 43.02,288.62 43.45,288.69C43.82,288.75 44.18,288.46 44.57,288.28C45.05,288.05 45.58,287.66 46.1,287.39C46.61,287.13 47.21,286.68 47.64,286.7C47.97,286.72 48.09,287.14 48.48,287.18C49.23,287.26 51.07,286.38 51.97,286.06C52.55,285.85 52.76,285.51 53.37,285.51Q54.55,285.51 58.54,287.51" style="vector-effect: non-scaling-stroke; fill: none; stroke: rgb(114, 55, 105); stroke-opacity: 1; stroke-width: 7px; opacity: 1;"/></g><g class="points"/><g class="text"/></g><g class="trace scatter trace74cd44" style="stroke-miterlimit: 2; opacity: 1;"><g class="fills"/><g class="errorbars"/><g class="lines"/><g class="points"><path class="point" transform="translate(0,266.58)" d="M7.5,0A7.5,7.5 0 1,1 0,-7.5A7.5,7.5 0 0,1 7.5,0Z" style="opacity: 1; stroke-width: 0px; fill: rgb(114, 55, 105); fill-opacity: 0.25;"/><path class="point" transform="translate(4.47,268.34)" d="M7.5,0A7.5,7.5 0 1,1 0,-7.5A7.5,7.5 0 0,1 7.5,0Z" style="opacity: 1; stroke-width: 0px; fill: rgb(114, 55, 105); fill-opacity: 0.25;"/><path class="point" transform="translate(19.14,272.74)" d="M7.5,0A7.5,7.5 0 1,1 0,-7.5A7.5,7.5 0 0,1 7.5,0Z" style="opacity: 1; stroke-width: 0px; fill: rgb(114, 55, 105); fill-opacity: 0.25;"/><path class="point" transform="translate(23.05,285.96)" d="M7.5,0A7.5,7.5 0 1,1 0,-7.5A7.5,7.5 0 0,1 7.5,0Z" style="opacity: 1; stroke-width: 0px; fill: rgb(114, 55, 105); fill-opacity: 0.25;"/><path class="point" transform="translate(26.68,303.57)" d="M7.5,0A7.5,7.5 0 1,1 0,-7.5A7.5,7.5 0 0,1 7.5,0Z" style="opacity: 1; stroke-width: 0px; fill: rgb(114, 55, 105); fill-opacity: 0.25;"/><path class="point" transform="translate(30.74,290.36)" d="M7.5,0A7.5,7.5 0 1,1 0,-7.5A7.5,7.5 0 0,1 7.5,0Z" style="opacity: 1; stroke-width: 0px; fill: rgb(114, 55, 105); fill-opacity: 0.25;"/><path class="point" transform="translate(31.71,294.76)" d="M7.5,0A7.5,7.5 0 1,1 0,-7.5A7.5,7.5 0 0,1 7.5,0Z" style="opacity: 1; stroke-width: 0px; fill: rgb(114, 55, 105); fill-opacity: 0.25;"/><path class="point" transform="translate(34.23,284.19)" d="M7.5,0A7.5,7.5 0 1,1 0,-7.5A7.5,7.5 0 0,1 7.5,0Z" style="opacity: 1; stroke-width: 0px; fill: rgb(114, 55, 105); fill-opacity: 0.25;"/><path class="point" transform="translate(39.68,285.96)" d="M7.5,0A7.5,7.5 0 1,1 0,-7.5A7.5,7.5 0 0,1 7.5,0Z" style="opacity: 1; stroke-width: 0px; fill: rgb(114, 55, 105); fill-opacity: 0.25;"/><path class="point" transform="translate(42.19,280.67)" d="M7.5,0A7.5,7.5 0 1,1 0,-7.5A7.5,7.5 0 0,1 7.5,0Z" style="opacity: 1; stroke-width: 0px; fill: rgb(114, 55, 105); fill-opacity: 0.25;"/><path class="point" transform="translate(43.45,299.17)" d="M7.5,0A7.5,7.5 0 1,1 0,-7.5A7.5,7.5 0 0,1 7.5,0Z" style="opacity: 1; stroke-width: 0px; fill: rgb(114, 55, 105); fill-opacity: 0.25;"/><path class="point" transform="translate(44.57,290.36)" d="M7.5,0A7.5,7.5 0 1,1 0,-7.5A7.5,7.5 0 0,1 7.5,0Z" style="opacity: 1; stroke-width: 0px; fill: rgb(114, 55, 105); fill-opacity: 0.25;"/><path class="point" transform="translate(46.1,285.96)" d="M7.5,0A7.5,7.5 0 1,1 0,-7.5A7.5,7.5 0 0,1 7.5,0Z" style="opacity: 1; stroke-width: 0px; fill: rgb(114, 55, 105); fill-opacity: 0.25;"/><path class="point" transform="translate(47.64,277.15)" d="M7.5,0A7.5,7.5 0 1,1 0,-7.5A7.5,7.5 0 0,1 7.5,0Z" style="opacity: 1; stroke-width: 0px; fill: rgb(114, 55, 105); fill-opacity: 0.25;"/><path class="point" transform="translate(48.48,294.76)" d="M7.5,0A7.5,7.5 0 1,1 0,-7.5A7.5,7.5 0 0,1 7.5,0Z" style="opacity: 1; stroke-width: 0px; fill: rgb(114, 55, 105); fill-opacity: 0.25;"/><path class="point" transform="translate(51.97,285.96)" d="M7.5,0A7.5,7.5 0 1,1 0,-7.5A7.5,7.5 0 0,1 7.5,0Z" style="opacity: 1; stroke-width: 0px; fill: rgb(114, 55, 105); fill-opacity: 0.25;"/><path class="point" transform="translate(53.37,281.55)" d="M7.5,0A7.5,7.5 0 1,1 0,-7.5A7.5,7.5 0 0,1 7.5,0Z" style="opacity: 1; stroke-width: 0px; fill: rgb(114, 55, 105); fill-opacity: 0.25;"/><path class="point" transform="translate(58.54,289.48)" d="M7.5,0A7.5,7.5 0 1,1 0,-7.5A7.5,7.5 0 0,1 7.5,0Z" style="opacity: 1; stroke-width: 0px; fill: rgb(114, 55, 105); fill-opacity: 0.25;"/></g><g class="text"/></g><g class="trace scatter trace03ed23" style="stroke-miterlimit: 2; opacity: 1;"><g class="fills"/><g class="errorbars"/><g class="lines"><path class="js-line" d="M0,277.01Q1.32,289.68 4.47,291.32C7.66,292.98 15.98,285.73 19.14,286.65C21.13,287.23 21.6,290.59 23.05,291.35C24.17,291.94 25.45,291.44 26.68,291.68C28.01,291.94 29.87,292.51 30.74,292.89C31.19,293.09 31.3,293.41 31.71,293.46C32.34,293.53 33.22,292.72 34.23,292.67C35.69,292.6 38.24,293.29 39.68,293.81C40.71,294.18 41.48,295.02 42.19,295.15C42.67,295.24 43.05,295.11 43.45,294.98C43.85,294.85 44.17,294.6 44.57,294.37C45.04,294.1 45.57,293.69 46.1,293.47C46.6,293.26 47.25,293.37 47.64,293.05C48.06,292.71 48,291.94 48.48,291.41C49.2,290.61 51.1,289.04 51.97,289.14C52.58,289.21 52.68,290.45 53.37,290.61Q54.5,290.87 58.54,288.71" style="vector-effect: non-scaling-stroke; fill: none; stroke: rgb(230, 172, 33); stroke-opacity: 1; stroke-width: 7px; opacity: 1;"/></g><g class="points"/><g class="text"/></g><g class="trace scatter trace15f630" style="stroke-miterlimit: 2; opacity: 1;"><g class="fills"/><g class="errorbars"/><g class="lines"/><g class="points"><path class="point" transform="translate(0,269.22)" d="M7.5,0A7.5,7.5 0 1,1 0,-7.5A7.5,7.5 0 0,1 7.5,0Z" style="opacity: 1; stroke-width: 0px; fill: rgb(230, 172, 33); fill-opacity: 0.25;"/><path class="point" transform="translate(4.47,299.17)" d="M7.5,0A7.5,7.5 0 1,1 0,-7.5A7.5,7.5 0 0,1 7.5,0Z" style="opacity: 1; stroke-width: 0px; fill: rgb(230, 172, 33); fill-opacity: 0.25;"/><path class="point" transform="translate(19.14,281.55)" d="M7.5,0A7.5,7.5 0 1,1 0,-7.5A7.5,7.5 0 0,1 7.5,0Z" style="opacity: 1; stroke-width: 0px; fill: rgb(230, 172, 33); fill-opacity: 0.25;"/><path class="point" transform="translate(23.05,294.76)" d="M7.5,0A7.5,7.5 0 1,1 0,-7.5A7.5,7.5 0 0,1 7.5,0Z" style="opacity: 1; stroke-width: 0px; fill: rgb(230, 172, 33); fill-opacity: 0.25;"/><path class="point" transform="translate(26.68,290.36)" d="M7.5,0A7.5,7.5 0 1,1 0,-7.5A7.5,7.5 0 0,1 7.5,0Z" style="opacity: 1; stroke-width: 0px; fill: rgb(230, 172, 33); fill-opacity: 0.25;"/><path class="point" transform="translate(30.74,290.36)" d="M7.5,0A7.5,7.5 0 1,1 0,-7.5A7.5,7.5 0 0,1 7.5,0Z" style="opacity: 1; stroke-width: 0px; fill: rgb(230, 172, 33); fill-opacity: 0.25;"/><path class="point" transform="translate(31.71,299.17)" d="M7.5,0A7.5,7.5 0 1,1 0,-7.5A7.5,7.5 0 0,1 7.5,0Z" style="opacity: 1; stroke-width: 0px; fill: rgb(230, 172, 33); fill-opacity: 0.25;"/><path class="point" transform="translate(34.23,289.48)" d="M7.5,0A7.5,7.5 0 1,1 0,-7.5A7.5,7.5 0 0,1 7.5,0Z" style="opacity: 1; stroke-width: 0px; fill: rgb(230, 172, 33); fill-opacity: 0.25;"/><path class="point" transform="translate(39.68,290.36)" d="M7.5,0A7.5,7.5 0 1,1 0,-7.5A7.5,7.5 0 0,1 7.5,0Z" style="opacity: 1; stroke-width: 0px; fill: rgb(230, 172, 33); fill-opacity: 0.25;"/><path class="point" transform="translate(42.19,300.05)" d="M7.5,0A7.5,7.5 0 1,1 0,-7.5A7.5,7.5 0 0,1 7.5,0Z" style="opacity: 1; stroke-width: 0px; fill: rgb(230, 172, 33); fill-opacity: 0.25;"/><path class="point" transform="translate(43.45,299.17)" d="M7.5,0A7.5,7.5 0 1,1 0,-7.5A7.5,7.5 0 0,1 7.5,0Z" style="opacity: 1; stroke-width: 0px; fill: rgb(230, 172, 33); fill-opacity: 0.25;"/><path class="point" transform="translate(44.57,294.76)" d="M7.5,0A7.5,7.5 0 1,1 0,-7.5A7.5,7.5 0 0,1 7.5,0Z" style="opacity: 1; stroke-width: 0px; fill: rgb(230, 172, 33); fill-opacity: 0.25;"/><path class="point" transform="translate(46.1,290.36)" d="M7.5,0A7.5,7.5 0 1,1 0,-7.5A7.5,7.5 0 0,1 7.5,0Z" style="opacity: 1; stroke-width: 0px; fill: rgb(230, 172, 33); fill-opacity: 0.25;"/><path class="point" transform="translate(47.64,307.98)" d="M7.5,0A7.5,7.5 0 1,1 0,-7.5A7.5,7.5 0 0,1 7.5,0Z" style="opacity: 1; stroke-width: 0px; fill: rgb(230, 172, 33); fill-opacity: 0.25;"/><path class="point" transform="translate(48.48,277.15)" d="M7.5,0A7.5,7.5 0 1,1 0,-7.5A7.5,7.5 0 0,1 7.5,0Z" style="opacity: 1; stroke-width: 0px; fill: rgb(230, 172, 33); fill-opacity: 0.25;"/><path class="point" transform="translate(51.97,277.15)" d="M7.5,0A7.5,7.5 0 1,1 0,-7.5A7.5,7.5 0 0,1 7.5,0Z" style="opacity: 1; stroke-width: 0px; fill: rgb(230, 172, 33); fill-opacity: 0.25;"/><path class="point" transform="translate(53.37,299.17)" d="M7.5,0A7.5,7.5 0 1,1 0,-7.5A7.5,7.5 0 0,1 7.5,0Z" style="opacity: 1; stroke-width: 0px; fill: rgb(230, 172, 33); fill-opacity: 0.25;"/><path class="point" transform="translate(58.54,286.84)" d="M7.5,0A7.5,7.5 0 1,1 0,-7.5A7.5,7.5 0 0,1 7.5,0Z" style="opacity: 1; stroke-width: 0px; fill: rgb(230, 172, 33); fill-opacity: 0.25;"/></g><g class="text"/></g><g class="trace scatter traced6b444" style="stroke-miterlimit: 2; opacity: 1;"><g class="fills"/><g class="errorbars"/><g class="lines"><path class="js-line" d="M0,290.35Q2.53,292.24 4.47,293.56C7.93,295.92 15.7,302.09 19.14,303.05C20.77,303.51 21.87,303.47 23.05,302.94C24.43,302.32 25.57,300.74 26.68,299.03C28.23,296.65 29.65,290.6 30.74,289.5C31.09,289.15 31.32,289.29 31.71,289.08C32.37,288.71 33.19,287.45 34.23,287.33C35.67,287.17 38.24,288.76 39.68,289.51C40.71,290.04 41.51,290.64 42.19,291.14C42.69,291.51 43.07,291.77 43.45,292.18C43.86,292.62 44.1,293.37 44.57,293.72C45,294.04 45.59,294.09 46.1,294.26C46.61,294.43 47.22,294.5 47.64,294.72C47.98,294.9 48.1,295.39 48.48,295.4C49.24,295.41 51.07,292.74 51.97,292.75C52.54,292.75 52.7,293.59 53.37,293.85Q54.51,294.3 58.54,294.31" style="vector-effect: non-scaling-stroke; fill: none; stroke: rgb(240, 125, 0); stroke-opacity: 1; stroke-width: 7px; opacity: 1;"/></g><g class="points"/><g class="text"/></g><g class="trace scatter trace23f72b" style="stroke-miterlimit: 2; opacity: 1;"><g class="fills"/><g class="errorbars"/><g class="lines"/><g class="points"><path class="point" transform="translate(0,288.6)" d="M7.5,0A7.5,7.5 0 1,1 0,-7.5A7.5,7.5 0 0,1 7.5,0Z" style="opacity: 1; stroke-width: 0px; fill: rgb(240, 125, 0); fill-opacity: 0.25;"/><path class="point" transform="translate(4.47,294.76)" d="M7.5,0A7.5,7.5 0 1,1 0,-7.5A7.5,7.5 0 0,1 7.5,0Z" style="opacity: 1; stroke-width: 0px; fill: rgb(240, 125, 0); fill-opacity: 0.25;"/><path class="point" transform="translate(19.14,303.57)" d="M7.5,0A7.5,7.5 0 1,1 0,-7.5A7.5,7.5 0 0,1 7.5,0Z" style="opacity: 1; stroke-width: 0px; fill: rgb(240, 125, 0); fill-opacity: 0.25;"/><path class="point" transform="translate(23.05,307.98)" d="M7.5,0A7.5,7.5 0 1,1 0,-7.5A7.5,7.5 0 0,1 7.5,0Z" style="opacity: 1; stroke-width: 0px; fill: rgb(240, 125, 0); fill-opacity: 0.25;"/><path class="point" transform="translate(26.68,307.98)" d="M7.5,0A7.5,7.5 0 1,1 0,-7.5A7.5,7.5 0 0,1 7.5,0Z" style="opacity: 1; stroke-width: 0px; fill: rgb(240, 125, 0); fill-opacity: 0.25;"/><path class="point" transform="translate(30.74,281.55)" d="M7.5,0A7.5,7.5 0 1,1 0,-7.5A7.5,7.5 0 0,1 7.5,0Z" style="opacity: 1; stroke-width: 0px; fill: rgb(240, 125, 0); fill-opacity: 0.25;"/><path class="point" transform="translate(31.71,290.36)" d="M7.5,0A7.5,7.5 0 1,1 0,-7.5A7.5,7.5 0 0,1 7.5,0Z" style="opacity: 1; stroke-width: 0px; fill: rgb(240, 125, 0); fill-opacity: 0.25;"/><path class="point" transform="translate(34.23,280.67)" d="M7.5,0A7.5,7.5 0 1,1 0,-7.5A7.5,7.5 0 0,1 7.5,0Z" style="opacity: 1; stroke-width: 0px; fill: rgb(240, 125, 0); fill-opacity: 0.25;"/><path class="point" transform="translate(39.68,285.96)" d="M7.5,0A7.5,7.5 0 1,1 0,-7.5A7.5,7.5 0 0,1 7.5,0Z" style="opacity: 1; stroke-width: 0px; fill: rgb(240, 125, 0); fill-opacity: 0.25;"/><path class="point" transform="translate(42.19,287.72)" d="M7.5,0A7.5,7.5 0 1,1 0,-7.5A7.5,7.5 0 0,1 7.5,0Z" style="opacity: 1; stroke-width: 0px; fill: rgb(240, 125, 0); fill-opacity: 0.25;"/><path class="point" transform="translate(43.45,285.96)" d="M7.5,0A7.5,7.5 0 1,1 0,-7.5A7.5,7.5 0 0,1 7.5,0Z" style="opacity: 1; stroke-width: 0px; fill: rgb(240, 125, 0); fill-opacity: 0.25;"/><path class="point" transform="translate(44.57,303.57)" d="M7.5,0A7.5,7.5 0 1,1 0,-7.5A7.5,7.5 0 0,1 7.5,0Z" style="opacity: 1; stroke-width: 0px; fill: rgb(240, 125, 0); fill-opacity: 0.25;"/><path class="point" transform="translate(46.1,294.76)" d="M7.5,0A7.5,7.5 0 1,1 0,-7.5A7.5,7.5 0 0,1 7.5,0Z" style="opacity: 1; stroke-width: 0px; fill: rgb(240, 125, 0); fill-opacity: 0.25;"/><path class="point" transform="translate(47.64,290.36)" d="M7.5,0A7.5,7.5 0 1,1 0,-7.5A7.5,7.5 0 0,1 7.5,0Z" style="opacity: 1; stroke-width: 0px; fill: rgb(240, 125, 0); fill-opacity: 0.25;"/><path class="point" transform="translate(48.48,307.98)" d="M7.5,0A7.5,7.5 0 1,1 0,-7.5A7.5,7.5 0 0,1 7.5,0Z" style="opacity: 1; stroke-width: 0px; fill: rgb(240, 125, 0); fill-opacity: 0.25;"/><path class="point" transform="translate(51.97,281.55)" d="M7.5,0A7.5,7.5 0 1,1 0,-7.5A7.5,7.5 0 0,1 7.5,0Z" style="opacity: 1; stroke-width: 0px; fill: rgb(240, 125, 0); fill-opacity: 0.25;"/><path class="point" transform="translate(53.37,299.17)" d="M7.5,0A7.5,7.5 0 1,1 0,-7.5A7.5,7.5 0 0,1 7.5,0Z" style="opacity: 1; stroke-width: 0px; fill: rgb(240, 125, 0); fill-opacity: 0.25;"/><path class="point" transform="translate(58.54,294.76)" d="M7.5,0A7.5,7.5 0 1,1 0,-7.5A7.5,7.5 0 0,1 7.5,0Z" style="opacity: 1; stroke-width: 0px; fill: rgb(240, 125, 0); fill-opacity: 0.25;"/></g><g class="text"/></g><g class="trace scatter trace43f4fc" style="stroke-miterlimit: 2; opacity: 1;"><g class="fills"/><g class="errorbars"/><g class="lines"><path class="js-line" d="M0,298.67Q2.67,298.61 4.47,299.38C8.1,300.92 15.71,309.93 19.14,310.46C20.77,310.71 21.75,309.3 23.05,309.07C24.26,308.86 25.48,309.37 26.68,309.04C28.05,308.66 29.83,306.87 30.74,306.64C31.15,306.54 31.31,306.7 31.71,306.68C32.35,306.64 33.23,306.36 34.23,306.27C35.7,306.14 38.22,306.33 39.68,306.15C40.68,306.03 41.5,305.52 42.19,305.58C42.69,305.62 43.07,305.83 43.45,306.1C43.87,306.39 44.2,306.79 44.57,307.31C45.09,308.05 45.45,309.92 46.1,310.26C46.55,310.5 47.2,310.07 47.64,310.07C47.96,310.07 48.11,310.18 48.48,310.16C49.25,310.13 51.1,309.84 51.97,309.47C52.58,309.21 52.82,309.04 53.37,308.48Q54.65,307.16 58.54,300.69" style="vector-effect: non-scaling-stroke; fill: none; stroke: rgb(140, 0, 0); stroke-opacity: 1; stroke-width: 7px; opacity: 1;"/></g><g class="points"/><g class="text"/></g><g class="trace scatter trace7812f4" style="stroke-miterlimit: 2; opacity: 1;"><g class="fills"/><g class="errorbars"/><g class="lines"/><g class="points"><path class="point" transform="translate(0,298.29)" d="M7.5,0A7.5,7.5 0 1,1 0,-7.5A7.5,7.5 0 0,1 7.5,0Z" style="opacity: 1; stroke-width: 0px; fill: rgb(140, 0, 0); fill-opacity: 0.25;"/><path class="point" transform="translate(4.47,299.17)" d="M7.5,0A7.5,7.5 0 1,1 0,-7.5A7.5,7.5 0 0,1 7.5,0Z" style="opacity: 1; stroke-width: 0px; fill: rgb(140, 0, 0); fill-opacity: 0.25;"/><path class="point" transform="translate(19.14,312.38)" d="M7.5,0A7.5,7.5 0 1,1 0,-7.5A7.5,7.5 0 0,1 7.5,0Z" style="opacity: 1; stroke-width: 0px; fill: rgb(140, 0, 0); fill-opacity: 0.25;"/><path class="point" transform="translate(23.05,307.98)" d="M7.5,0A7.5,7.5 0 1,1 0,-7.5A7.5,7.5 0 0,1 7.5,0Z" style="opacity: 1; stroke-width: 0px; fill: rgb(140, 0, 0); fill-opacity: 0.25;"/><path class="point" transform="translate(26.68,312.38)" d="M7.5,0A7.5,7.5 0 1,1 0,-7.5A7.5,7.5 0 0,1 7.5,0Z" style="opacity: 1; stroke-width: 0px; fill: rgb(140, 0, 0); fill-opacity: 0.25;"/><path class="point" transform="translate(30.74,303.57)" d="M7.5,0A7.5,7.5 0 1,1 0,-7.5A7.5,7.5 0 0,1 7.5,0Z" style="opacity: 1; stroke-width: 0px; fill: rgb(140, 0, 0); fill-opacity: 0.25;"/><path class="point" transform="translate(31.71,307.98)" d="M7.5,0A7.5,7.5 0 1,1 0,-7.5A7.5,7.5 0 0,1 7.5,0Z" style="opacity: 1; stroke-width: 0px; fill: rgb(140, 0, 0); fill-opacity: 0.25;"/><path class="point" transform="translate(34.23,305.34)" d="M7.5,0A7.5,7.5 0 1,1 0,-7.5A7.5,7.5 0 0,1 7.5,0Z" style="opacity: 1; stroke-width: 0px; fill: rgb(140, 0, 0); fill-opacity: 0.25;"/><path class="point" transform="translate(39.68,307.98)" d="M7.5,0A7.5,7.5 0 1,1 0,-7.5A7.5,7.5 0 0,1 7.5,0Z" style="opacity: 1; stroke-width: 0px; fill: rgb(140, 0, 0); fill-opacity: 0.25;"/><path class="point" transform="translate(42.19,300.05)" d="M7.5,0A7.5,7.5 0 1,1 0,-7.5A7.5,7.5 0 0,1 7.5,0Z" style="opacity: 1; stroke-width: 0px; fill: rgb(140, 0, 0); fill-opacity: 0.25;"/><path class="point" transform="translate(43.45,299.17)" d="M7.5,0A7.5,7.5 0 1,1 0,-7.5A7.5,7.5 0 0,1 7.5,0Z" style="opacity: 1; stroke-width: 0px; fill: rgb(140, 0, 0); fill-opacity: 0.25;"/><path class="point" transform="translate(44.57,299.17)" d="M7.5,0A7.5,7.5 0 1,1 0,-7.5A7.5,7.5 0 0,1 7.5,0Z" style="opacity: 1; stroke-width: 0px; fill: rgb(140, 0, 0); fill-opacity: 0.25;"/><path class="point" transform="translate(47.64,307.98)" d="M7.5,0A7.5,7.5 0 1,1 0,-7.5A7.5,7.5 0 0,1 7.5,0Z" style="opacity: 1; stroke-width: 0px; fill: rgb(140, 0, 0); fill-opacity: 0.25;"/><path class="point" transform="translate(48.48,312.38)" d="M7.5,0A7.5,7.5 0 1,1 0,-7.5A7.5,7.5 0 0,1 7.5,0Z" style="opacity: 1; stroke-width: 0px; fill: rgb(140, 0, 0); fill-opacity: 0.25;"/><path class="point" transform="translate(51.97,312.38)" d="M7.5,0A7.5,7.5 0 1,1 0,-7.5A7.5,7.5 0 0,1 7.5,0Z" style="opacity: 1; stroke-width: 0px; fill: rgb(140, 0, 0); fill-opacity: 0.25;"/><path class="point" transform="translate(53.37,307.98)" d="M7.5,0A7.5,7.5 0 1,1 0,-7.5A7.5,7.5 0 0,1 7.5,0Z" style="opacity: 1; stroke-width: 0px; fill: rgb(140, 0, 0); fill-opacity: 0.25;"/><path class="point" transform="translate(58.54,293)" d="M7.5,0A7.5,7.5 0 1,1 0,-7.5A7.5,7.5 0 0,1 7.5,0Z" style="opacity: 1; stroke-width: 0px; fill: rgb(140, 0, 0); fill-opacity: 0.25;"/></g><g class="text"/></g><g class="trace scatter tracee21637" style="stroke-miterlimit: 2; opacity: 1;"><g class="fills"/><g class="errorbars"/><g class="lines"><path class="js-line" d="M0,293.68Q1.79,301.33 4.47,303.01C7.67,305.01 15.82,303.2 19.14,302.92C20.87,302.77 21.81,302.07 23.05,302.28C24.32,302.5 25.43,303.6 26.68,304.26C27.99,304.96 29.87,305.79 30.74,306.35C31.19,306.64 31.28,306.96 31.71,307.1C32.33,307.3 33.28,307.32 34.23,307.01C35.77,306.5 38.18,304.07 39.68,303.23C40.65,302.69 41.49,302.35 42.19,302.13C42.67,301.98 43.04,301.91 43.45,301.89C43.83,301.87 44.17,301.99 44.57,302C45.04,302.01 45.59,301.87 46.1,301.92C46.62,301.97 47.2,302.21 47.64,302.28C47.96,302.33 48.15,302.19 48.48,302.37C49.33,302.86 51.02,306.02 51.97,307.03C52.5,307.6 52.85,307.54 53.37,308.23Q54.71,309.99 58.54,319.19" style="vector-effect: non-scaling-stroke; fill: none; stroke: rgb(0, 51, 255); stroke-opacity: 1; stroke-width: 7px; opacity: 1;"/></g><g class="points"/><g class="text"/></g><g class="trace scatter trace1a428c" style="stroke-miterlimit: 2; opacity: 1;"><g class="fills"/><g class="errorbars"/><g class="lines"/><g class="points"><path class="point" transform="translate(0,288.6)" d="M7.5,0A7.5,7.5 0 1,1 0,-7.5A7.5,7.5 0 0,1 7.5,0Z" style="opacity: 1; stroke-width: 0px; fill: rgb(0, 51, 255); fill-opacity: 0.25;"/><path class="point" transform="translate(4.47,307.98)" d="M7.5,0A7.5,7.5 0 1,1 0,-7.5A7.5,7.5 0 0,1 7.5,0Z" style="opacity: 1; stroke-width: 0px; fill: rgb(0, 51, 255); fill-opacity: 0.25;"/><path class="point" transform="translate(19.14,303.57)" d="M7.5,0A7.5,7.5 0 1,1 0,-7.5A7.5,7.5 0 0,1 7.5,0Z" style="opacity: 1; stroke-width: 0px; fill: rgb(0, 51, 255); fill-opacity: 0.25;"/><path class="point" transform="translate(23.05,299.17)" d="M7.5,0A7.5,7.5 0 1,1 0,-7.5A7.5,7.5 0 0,1 7.5,0Z" style="opacity: 1; stroke-width: 0px; fill: rgb(0, 51, 255); fill-opacity: 0.25;"/><path class="point" transform="translate(26.68,303.57)" d="M7.5,0A7.5,7.5 0 1,1 0,-7.5A7.5,7.5 0 0,1 7.5,0Z" style="opacity: 1; stroke-width: 0px; fill: rgb(0, 51, 255); fill-opacity: 0.25;"/><path class="point" transform="translate(30.74,303.57)" d="M7.5,0A7.5,7.5 0 1,1 0,-7.5A7.5,7.5 0 0,1 7.5,0Z" style="opacity: 1; stroke-width: 0px; fill: rgb(0, 51, 255); fill-opacity: 0.25;"/><path class="point" transform="translate(31.71,312.38)" d="M7.5,0A7.5,7.5 0 1,1 0,-7.5A7.5,7.5 0 0,1 7.5,0Z" style="opacity: 1; stroke-width: 0px; fill: rgb(0, 51, 255); fill-opacity: 0.25;"/><path class="point" transform="translate(34.23,310.62)" d="M7.5,0A7.5,7.5 0 1,1 0,-7.5A7.5,7.5 0 0,1 7.5,0Z" style="opacity: 1; stroke-width: 0px; fill: rgb(0, 51, 255); fill-opacity: 0.25;"/><path class="point" transform="translate(39.68,303.57)" d="M7.5,0A7.5,7.5 0 1,1 0,-7.5A7.5,7.5 0 0,1 7.5,0Z" style="opacity: 1; stroke-width: 0px; fill: rgb(0, 51, 255); fill-opacity: 0.25;"/><path class="point" transform="translate(42.19,300.93)" d="M7.5,0A7.5,7.5 0 1,1 0,-7.5A7.5,7.5 0 0,1 7.5,0Z" style="opacity: 1; stroke-width: 0px; fill: rgb(0, 51, 255); fill-opacity: 0.25;"/><path class="point" transform="translate(43.45,299.17)" d="M7.5,0A7.5,7.5 0 1,1 0,-7.5A7.5,7.5 0 0,1 7.5,0Z" style="opacity: 1; stroke-width: 0px; fill: rgb(0, 51, 255); fill-opacity: 0.25;"/><path class="point" transform="translate(44.57,303.57)" d="M7.5,0A7.5,7.5 0 1,1 0,-7.5A7.5,7.5 0 0,1 7.5,0Z" style="opacity: 1; stroke-width: 0px; fill: rgb(0, 51, 255); fill-opacity: 0.25;"/><path class="point" transform="translate(46.1,299.17)" d="M7.5,0A7.5,7.5 0 1,1 0,-7.5A7.5,7.5 0 0,1 7.5,0Z" style="opacity: 1; stroke-width: 0px; fill: rgb(0, 51, 255); fill-opacity: 0.25;"/><path class="point" transform="translate(47.64,303.57)" d="M7.5,0A7.5,7.5 0 1,1 0,-7.5A7.5,7.5 0 0,1 7.5,0Z" style="opacity: 1; stroke-width: 0px; fill: rgb(0, 51, 255); fill-opacity: 0.25;"/><path class="point" transform="translate(48.48,294.76)" d="M7.5,0A7.5,7.5 0 1,1 0,-7.5A7.5,7.5 0 0,1 7.5,0Z" style="opacity: 1; stroke-width: 0px; fill: rgb(0, 51, 255); fill-opacity: 0.25;"/><path class="point" transform="translate(51.97,312.38)" d="M7.5,0A7.5,7.5 0 1,1 0,-7.5A7.5,7.5 0 0,1 7.5,0Z" style="opacity: 1; stroke-width: 0px; fill: rgb(0, 51, 255); fill-opacity: 0.25;"/><path class="point" transform="translate(53.37,307.98)" d="M7.5,0A7.5,7.5 0 1,1 0,-7.5A7.5,7.5 0 0,1 7.5,0Z" style="opacity: 1; stroke-width: 0px; fill: rgb(0, 51, 255); fill-opacity: 0.25;"/></g><g class="text"/></g></g></g><g class="overplot"/><path class="xlines-above crisp" d="M0,0" style="fill: none;"/><path class="ylines-above crisp" d="M0,0" style="fill: none;"/><g class="overlines-above"/><g class="xaxislayer-above"><g class="xtick"><text text-anchor="middle" x="0" y="363" transform="translate(61.74,0)" style="font-family: 'Open Sans', verdana, arial, sans-serif; font-size: 12px; fill: rgb(42, 63, 95); fill-opacity: 1; white-space: pre; opacity: 1;">1.1.22</text></g><g class="xtick"><text text-anchor="middle" x="0" y="363" style="font-family: 'Open Sans', verdana, arial, sans-serif; font-size: 12px; fill: rgb(42, 63, 95); fill-opacity: 1; white-space: pre; opacity: 1;" transform="translate(112.72999999999999,0)">1.1.23</text></g><g class="xtick"><text text-anchor="middle" x="0" y="363" style="font-family: 'Open Sans', verdana, arial, sans-serif; font-size: 12px; fill: rgb(42, 63, 95); fill-opacity: 1; white-space: pre; opacity: 1;" transform="translate(163.72,0)">1.1.24</text></g><g class="xtick"><text text-anchor="middle" x="0" y="363" style="font-family: 'Open Sans', verdana, arial, sans-serif; font-size: 12px; fill: rgb(42, 63, 95); fill-opacity: 1; white-space: pre; opacity: 1;" transform="translate(214.86,0)">1.1.25</text></g></g><g class="yaxislayer-above"><g class="ytick"><text text-anchor="end" x="49" y="4.199999999999999" transform="translate(0,350)" style="font-family: 'Open Sans', verdana, arial, sans-serif; font-size: 12px; fill: rgb(42, 63, 95); fill-opacity: 1; white-space: pre; opacity: 1;">0%</text></g><g class="ytick"><text text-anchor="end" x="49" y="4.199999999999999" style="font-family: 'Open Sans', verdana, arial, sans-serif; font-size: 12px; fill: rgb(42, 63, 95); fill-opacity: 1; white-space: pre; opacity: 1;" transform="translate(0,305.96)">5%</text></g><g class="ytick"><text text-anchor="end" x="49" y="4.199999999999999" style="font-family: 'Open Sans', verdana, arial, sans-serif; font-size: 12px; fill: rgb(42, 63, 95); fill-opacity: 1; white-space: pre; opacity: 1;" transform="translate(0,261.90999999999997)">10%</text></g><g class="ytick"><text text-anchor="end" x="49" y="4.199999999999999" style="font-family: 'Open Sans', verdana, arial, sans-serif; font-size: 12px; fill: rgb(42, 63, 95); fill-opacity: 1; white-space: pre; opacity: 1;" transform="translate(0,217.87)">15%</text></g><g class="ytick"><text text-anchor="end" x="49" y="4.199999999999999" style="font-family: 'Open Sans', verdana, arial, sans-serif; font-size: 12px; fill: rgb(42, 63, 95); fill-opacity: 1; white-space: pre; opacity: 1;" transform="translate(0,173.82)">20%</text></g><g class="ytick"><text text-anchor="end" x="49" y="4.199999999999999" style="font-family: 'Open Sans', verdana, arial, sans-serif; font-size: 12px; fill: rgb(42, 63, 95); fill-opacity: 1; white-space: pre; opacity: 1;" transform="translate(0,129.78)">25%</text></g><g class="ytick"><text text-anchor="end" x="49" y="4.199999999999999" style="font-family: 'Open Sans', verdana, arial, sans-serif; font-size: 12px; fill: rgb(42, 63, 95); fill-opacity: 1; white-space: pre; opacity: 1;" transform="translate(0,85.73)">30%</text></g><g class="ytick"><text text-anchor="end" x="49" y="4.199999999999999" style="font-family: 'Open Sans', verdana, arial, sans-serif; font-size: 12px; fill: rgb(42, 63, 95); fill-opacity: 1; white-space: pre; opacity: 1;" transform="translate(0,41.69)">35%</text></g></g><g class="overaxes-above"/></g></g><g class="polarlayer"/><g class="smithlayer"/><g class="ternarylayer"/><g class="geolayer"/><g class="funnelarealayer"/><g class="pielayer"/><g class="iciclelayer"/><g class="treemaplayer"/><g class="sunburstlayer"/><g class="glimages"/><defs id="topdefs-c31007"><g class="clips"/><clipPath id="legendc31007"><rect width="131" height="200" x="0" y="0"/></clipPath></defs><g class="layer-above"><g class="imagelayer"/><g class="shapelayer"/></g><g class="infolayer"><g class="legend" pointer-events="all" transform="translate(257.06,20)"><rect class="bg" shape-rendering="crispEdges" width="131" height="200" x="0" y="0" style="stroke: rgb(68, 68, 68); stroke-opacity: 1; fill: rgb(255, 255, 255); fill-opacity: 1; stroke-width: 0px;"/><g class="scrollbox" transform="" clip-path="url(#legendc31007)"><g class="groups"><g class="traces" transform="translate(0,14.5)" style="opacity: 1;"><text class="legendtext" text-anchor="start" x="40" y="4.680000000000001" style="font-family: 'Open Sans', verdana, arial, sans-serif; font-size: 12px; fill: rgb(42, 63, 95); fill-opacity: 1; white-space: pre;">ANO: 30%</text><g class="layers" style="opacity: 1;"><g class="legendfill"/><g class="legendlines"><path class="js-line" d="M5,0h30" style="fill: none; stroke: rgb(38, 16, 96); stroke-opacity: 1; stroke-width: 7px;"/></g><g class="legendsymbols"><g class="legendpoints"/></g></g><rect class="legendtoggle" x="0" y="-9.5" width="125.359375" height="19" style="fill: rgb(0, 0, 0); fill-opacity: 0;"/></g><g class="traces" transform="translate(0,33.5)" style="opacity: 1;"><text class="legendtext" text-anchor="start" x="40" y="4.680000000000001" style="font-family: 'Open Sans', verdana, arial, sans-serif; font-size: 12px; fill: rgb(42, 63, 95); fill-opacity: 1; white-space: pre;">ODS: 16%</text><g class="layers" style="opacity: 1;"><g class="legendfill"/><g class="legendlines"><path class="js-line" d="M5,0h30" style="fill: none; stroke: rgb(0, 68, 148); stroke-opacity: 1; stroke-width: 7px;"/></g><g class="legendsymbols"><g class="legendpoints"/></g></g><rect class="legendtoggle" x="0" y="-9.5" width="125.359375" height="19" style="fill: rgb(0, 0, 0); fill-opacity: 0;"/></g><g class="traces" transform="translate(0,52.5)" style="opacity: 1;"><text class="legendtext" text-anchor="start" x="40" y="4.680000000000001" style="font-family: 'Open Sans', verdana, arial, sans-serif; font-size: 12px; fill: rgb(42, 63, 95); fill-opacity: 1; white-space: pre;">SPD: 12%</text><g class="layers" style="opacity: 1;"><g class="legendfill"/><g class="legendlines"><path class="js-line" d="M5,0h30" style="fill: none; stroke: rgb(234, 35, 41); stroke-opacity: 1; stroke-width: 7px;"/></g><g class="legendsymbols"><g class="legendpoints"/></g></g><rect class="legendtoggle" x="0" y="-9.5" width="125.359375" height="19" style="fill: rgb(0, 0, 0); fill-opacity: 0;"/></g><g class="traces" transform="translate(0,71.5)" style="opacity: 1;"><text class="legendtext" text-anchor="start" x="40" y="4.680000000000001" style="font-family: 'Open Sans', verdana, arial, sans-serif; font-size: 12px; fill: rgb(42, 63, 95); fill-opacity: 1; white-space: pre;">Pirti: 10%</text><g class="layers" style="opacity: 1;"><g class="legendfill"/><g class="legendlines"><path class="js-line" d="M5,0h30" style="fill: none; stroke: rgb(0, 0, 0); stroke-opacity: 1; stroke-width: 7px;"/></g><g class="legendsymbols"><g class="legendpoints"/></g></g><rect class="legendtoggle" x="0" y="-9.5" width="125.359375" height="19" style="fill: rgb(0, 0, 0); fill-opacity: 0;"/></g><g class="traces" transform="translate(0,90.5)" style="opacity: 1;"><text class="legendtext" text-anchor="start" x="40" y="4.680000000000001" style="font-family: 'Open Sans', verdana, arial, sans-serif; font-size: 12px; fill: rgb(42, 63, 95); fill-opacity: 1; white-space: pre;">STAN: 6%</text><g class="layers" style="opacity: 1;"><g class="legendfill"/><g class="legendlines"><path class="js-line" d="M5,0h30" style="fill: none; stroke: rgb(93, 140, 0); stroke-opacity: 1; stroke-width: 7px;"/></g><g class="legendsymbols"><g class="legendpoints"/></g></g><rect class="legendtoggle" x="0" y="-9.5" width="125.359375" height="19" style="fill: rgb(0, 0, 0); fill-opacity: 0;"/></g><g class="traces" transform="translate(0,109.5)" style="opacity: 1;"><text class="legendtext" text-anchor="start" x="40" y="4.680000000000001" style="font-family: 'Open Sans', verdana, arial, sans-serif; font-size: 12px; fill: rgb(42, 63, 95); fill-opacity: 1; white-space: pre;">TOP 09: 5%</text><g class="layers" style="opacity: 1;"><g class="legendfill"/><g class="legendlines"><path class="js-line" d="M5,0h30" style="fill: none; stroke: rgb(114, 55, 105); stroke-opacity: 1; stroke-width: 7px;"/></g><g class="legendsymbols"><g class="legendpoints"/></g></g><rect class="legendtoggle" x="0" y="-9.5" width="125.359375" height="19" style="fill: rgb(0, 0, 0); fill-opacity: 0;"/></g><g class="traces" transform="translate(0,128.5)" style="opacity: 1;"><text class="legendtext" text-anchor="start" x="40" y="4.680000000000001" style="font-family: 'Open Sans', verdana, arial, sans-serif; font-size: 12px; fill: rgb(42, 63, 95); fill-opacity: 1; white-space: pre;">KDU-SL: 5%</text><g class="layers" style="opacity: 1;"><g class="legendfill"/><g class="legendlines"><path class="js-line" d="M5,0h30" style="fill: none; stroke: rgb(230, 172, 33); stroke-opacity: 1; stroke-width: 7px;"/></g><g class="legendsymbols"><g class="legendpoints"/></g></g><rect class="legendtoggle" x="0" y="-9.5" width="125.359375" height="19" style="fill: rgb(0, 0, 0); fill-opacity: 0;"/></g><g class="traces" transform="translate(0,147.5)" style="opacity: 1;"><text class="legendtext" text-anchor="start" x="40" y="4.680000000000001" style="font-family: 'Open Sans', verdana, arial, sans-serif; font-size: 12px; fill: rgb(42, 63, 95); fill-opacity: 1; white-space: pre;">SSD: 4%</text><g class="layers" style="opacity: 1;"><g class="legendfill"/><g class="legendlines"><path class="js-line" d="M5,0h30" style="fill: none; stroke: rgb(240, 125, 0); stroke-opacity: 1; stroke-width: 7px;"/></g><g class="legendsymbols"><g class="legendpoints"/></g></g><rect class="legendtoggle" x="0" y="-9.5" width="125.359375" height="19" style="fill: rgb(0, 0, 0); fill-opacity: 0;"/></g><g class="traces" transform="translate(0,166.5)" style="opacity: 1;"><text class="legendtext" text-anchor="start" x="40" y="4.680000000000001" style="font-family: 'Open Sans', verdana, arial, sans-serif; font-size: 12px; fill: rgb(42, 63, 95); fill-opacity: 1; white-space: pre;">KSM: 3%</text><g class="layers" style="opacity: 1;"><g class="legendfill"/><g class="legendlines"><path class="js-line" d="M5,0h30" style="fill: none; stroke: rgb(140, 0, 0); stroke-opacity: 1; stroke-width: 7px;"/></g><g class="legendsymbols"><g class="legendpoints"/></g></g><rect class="legendtoggle" x="0" y="-9.5" width="125.359375" height="19" style="fill: rgb(0, 0, 0); fill-opacity: 0;"/></g><g class="traces" transform="translate(0,185.5)" style="opacity: 1;"><text class="legendtext" text-anchor="start" x="40" y="4.680000000000001" style="font-family: 'Open Sans', verdana, arial, sans-serif; font-size: 12px; fill: rgb(42, 63, 95); fill-opacity: 1; white-space: pre;">Psaha: 1%</text><g class="layers" style="opacity: 1;"><g class="legendfill"/><g class="legendlines"><path class="js-line" d="M5,0h30" style="fill: none; stroke: rgb(0, 51, 255); stroke-opacity: 1; stroke-width: 7px;"/></g><g class="legendsymbols"><g class="legendpoints"/></g></g><rect class="legendtoggle" x="0" y="-9.5" width="125.359375" height="19" style="fill: rgb(0, 0, 0); fill-opacity: 0;"/></g></g></g><rect class="scrollbar" rx="20" ry="3" width="0" height="0" x="0" y="0" style="fill: rgb(128, 139, 164); fill-opacity: 1;"/></g><g class="g-gtitle"/><g class="g-xtitle"/><g class="g-ytitle"/></g></svg>