<svg class="main-svg" xmlns="http://www.w3.org/2000/svg" xmlns:xlink="http://www.w3.org/1999/xlink" width="300" height="135" style="" viewBox="0 0 300 135"><rect x="0" y="0" width="300" height="135" style="fill: rgb(255, 255, 255); fill-opacity: 1;"/><defs id="defs-ea5318"><g class="clips"><clipPath id="clipea5318xyplot" class="plotclip"><rect width="280" height="75"/></clipPath><clipPath class="axesclip" id="clipea5318x"><rect x="10" y="0" width="280" height="135"/></clipPath><clipPath class="axesclip" id="clipea5318y"><rect x="0" y="50" width="300" height="75"/></clipPath><clipPath class="axesclip" id="clipea5318xy"><rect x="10" y="50" width="280" height="75"/></clipPath></g><g class="gradients"/><g class="patterns"/></defs><g class="bglayer"/><g class="layer-below"><g class="imagelayer"/><g class="shapelayer"/></g><g class="cartesianlayer"><g class="subplot xy"><g class="layer-subplot"><g class="shapelayer"/><g class="imagelayer"/></g><g class="minor-gridlayer"><g class="x"/><g class="y"/></g><g class="gridlayer"><g class="x"><path class="xgrid crisp" transform="translate(41.53,0)" d="M0,50v75" style="stroke: rgb(235, 240, 248); stroke-opacity: 1; stroke-width: 1px;"/><path class="xgrid crisp" transform="translate(109.46,0)" d="M0,50v75" style="stroke: rgb(235, 240, 248); stroke-opacity: 1; stroke-width: 1px;"/><path class="xgrid crisp" transform="translate(178.53,0)" d="M0,50v75" style="stroke: rgb(235, 240, 248); stroke-opacity: 1; stroke-width: 1px;"/><path class="xgrid crisp" transform="translate(246.46,0)" d="M0,50v75" style="stroke: rgb(235, 240, 248); stroke-opacity: 1; stroke-width: 1px;"/></g><g class="y"><path class="ygrid crisp" transform="translate(0,103.92)" d="M10,0h280" style="stroke: rgb(235, 240, 248); stroke-opacity: 1; stroke-width: 1px;"/><path class="ygrid crisp" transform="translate(0,82.84)" d="M10,0h280" style="stroke: rgb(235, 240, 248); stroke-opacity: 1; stroke-width: 1px;"/><path class="ygrid crisp" transform="translate(0,61.76)" d="M10,0h280" style="stroke: rgb(235, 240, 248); stroke-opacity: 1; stroke-width: 1px;"/></g></g><g class="zerolinelayer"><path class="yzl zl crisp" transform="translate(0,125)" d="M10,0h280" style="stroke: rgb(235, 240, 248); stroke-opacity: 1; stroke-width: 2px;"/></g><path class="xlines-below"/><path class="ylines-below"/><g class="overlines-below"/><g class="xaxislayer-below"/><g class="yaxislayer-below"/><g class="overaxes-below"/><g class="plot" transform="translate(10,50)" clip-path="url(#clipea5318xyplot)"><g class="scatterlayer mlayer"><g class="trace scatter trace5ff838" style="stroke-miterlimit: 2; opacity: 1;"><g class="fills"/><g class="errorbars"/><g class="lines"><path class="js-line" d="M0,17.87Q6.85,17.94 12.01,18.1C21.36,18.39 42.51,20.6 51.42,19.83C56.08,19.43 58.48,18.09 61.93,17.52C65.23,16.98 68.35,16.84 71.69,16.46C75.22,16.06 80.18,15.41 82.57,15.19C83.74,15.08 84.12,15.12 85.2,15.01C86.93,14.84 89.28,14.48 91.96,14.12C95.91,13.59 102.65,12.53 106.6,12.14C109.27,11.88 111.48,11.75 113.35,11.73C114.67,11.72 115.64,11.88 116.73,11.88C117.76,11.88 118.65,11.79 119.73,11.77C121,11.75 122.48,11.79 123.86,11.8C125.24,11.81 126.82,11.79 127.99,11.83C128.85,11.86 129.23,11.92 130.24,11.96C132.3,12.05 137.21,11.92 139.62,12.25C141.17,12.46 141.72,13.09 143.38,13.18C146.54,13.36 151.72,11.95 157.27,11.38C165.5,10.54 185.99,9.38 188.04,9.06C188.27,9.02 188.21,9.01 188.42,8.97C189.42,8.79 194.77,7.79 197.05,7.81C198.56,7.82 199.35,8.31 200.8,8.37C202.8,8.46 205.94,8.12 207.94,7.92C209.39,7.78 210.22,7.72 211.69,7.42C213.85,6.98 217.73,5.63 219.57,5.27C220.54,5.08 221.38,5.04 221.82,5C222,4.98 221.99,4.99 222.2,4.97C223.32,4.86 229.17,3.79 232.71,3.75C236.3,3.71 239.4,4.43 243.59,4.76C249.3,5.21 260.49,6.28 263.86,6.08C264.99,6.01 265.56,5.73 266.11,5.66C266.43,5.62 266.46,5.62 266.86,5.62Q268.55,5.6 280,6.03" style="vector-effect: none; fill: none; stroke: rgb(38, 16, 96); stroke-opacity: 1; stroke-width: 5px; opacity: 1;"/></g><g class="points"/><g class="text"/></g><g class="trace scatter trace787ebd" style="stroke-miterlimit: 2; opacity: 1;"><g class="fills"/><g class="errorbars"/><g class="lines"><path class="js-line" d="M0,46.33Q6.87,44.43 12.01,42.84C21.37,39.94 42.4,31.91 51.42,29.86C55.98,28.82 58.48,28.75 61.93,28.5C65.24,28.26 68.45,27.59 71.69,28.36C75.33,29.22 80.13,33.42 82.57,34.04C83.7,34.33 84.15,33.87 85.2,34.09C86.96,34.47 89.23,36.09 91.96,36.96C95.86,38.2 102.63,39.64 106.6,40.12C109.26,40.44 111.49,40.33 113.35,40.3C114.67,40.28 115.64,40.19 116.73,40.1C117.76,40.02 118.65,39.78 119.73,39.8C121,39.82 122.48,40.29 123.86,40.34C125.23,40.39 126.82,40.21 127.99,40.12C128.85,40.05 129.23,39.94 130.24,39.89C132.29,39.8 137.22,40.4 139.62,40C141.18,39.74 141.71,38.75 143.38,38.65C146.53,38.45 151.7,41.48 157.27,41.77C165.48,42.2 185.99,37.9 188.04,38.19C188.28,38.22 188.2,38.3 188.42,38.35C189.41,38.6 194.76,39.16 197.05,39.19C198.56,39.21 199.36,38.83 200.8,38.94C202.81,39.09 205.93,40.21 207.94,40.5C209.38,40.71 210.21,40.61 211.69,40.76C213.84,40.98 217.74,41.67 219.57,41.85C220.55,41.95 221.38,41.97 221.82,41.98C222,41.98 221.99,41.96 222.2,41.97C223.32,42.03 229.17,43.02 232.71,43.37C236.3,43.73 239.42,43.62 243.59,44.08C249.32,44.71 260.48,46.84 263.86,47.2C264.98,47.32 265.56,47.3 266.11,47.33C266.43,47.35 266.46,47.39 266.86,47.36Q268.55,47.24 280,44.99" style="vector-effect: none; fill: none; stroke: rgb(0, 68, 148); stroke-opacity: 1; stroke-width: 5px; opacity: 1;"/></g><g class="points"/><g class="text"/></g><g class="trace scatter trace062e29" style="stroke-miterlimit: 2; opacity: 1;"><g class="fills"/><g class="errorbars"/><g class="lines"><path class="js-line" d="M0,54.97Q6.82,56.76 12.01,57.4C21.32,58.56 42.47,58.99 51.42,59.26C56.04,59.4 58.49,59.34 61.93,59.41C65.24,59.48 68.38,60.09 71.69,59.66C75.25,59.19 80.17,57.03 82.57,56.47C83.74,56.2 84.13,56.24 85.2,56.01C86.94,55.63 89.25,54.63 91.96,54.24C95.88,53.68 102.65,53.85 106.6,53.85C109.28,53.85 111.49,54.04 113.35,54.04C114.67,54.04 115.64,53.9 116.73,53.93C117.76,53.96 118.65,54.16 119.73,54.2C121,54.24 122.48,54.17 123.86,54.11C125.24,54.05 126.82,53.88 127.99,53.85C128.85,53.83 129.23,53.92 130.24,53.88C132.3,53.79 137.19,53.14 139.62,52.94C141.15,52.82 141.73,52.69 143.38,52.71C146.55,52.75 151.73,53.7 157.27,53.91C165.51,54.23 185.99,53.76 188.04,53.62C188.27,53.6 188.21,53.58 188.42,53.57C189.42,53.51 194.77,53.87 197.05,53.74C198.56,53.65 199.35,53.37 200.8,53.22C202.8,53.01 205.94,52.87 207.94,52.74C209.39,52.64 210.21,52.57 211.69,52.49C213.83,52.38 217.74,52.3 219.57,52.21C220.55,52.16 221.38,52.11 221.82,52.08C222,52.07 221.99,52.06 222.2,52.05C223.32,51.99 229.18,51.94 232.71,51.84C236.31,51.74 239.41,51.29 243.59,51.45C249.31,51.67 260.48,53.56 263.86,53.74C264.98,53.8 265.56,53.69 266.11,53.73C266.43,53.75 266.45,53.83 266.86,53.85Q268.55,53.95 280,53.38" style="vector-effect: none; fill: none; stroke: rgb(0, 0, 0); stroke-opacity: 1; stroke-width: 5px; opacity: 1;"/></g><g class="points"/><g class="text"/></g><g class="trace scatter trace3d67ba" style="stroke-miterlimit: 2; opacity: 1;"><g class="fills"/><g class="errorbars"/><g class="lines"><path class="js-line" d="M0,54.76Q6.86,54.98 12.01,54.8C21.36,54.47 42.47,51.8 51.42,51.87C56.04,51.9 58.49,52.84 61.93,52.81C65.25,52.78 68.35,52.08 71.69,51.76C75.22,51.42 80.18,51.02 82.57,50.86C83.74,50.78 84.12,50.82 85.2,50.73C86.93,50.58 89.27,50.14 91.96,49.9C95.9,49.54 102.65,49.19 106.6,49.04C109.28,48.94 111.49,48.99 113.35,48.93C114.67,48.88 115.64,48.74 116.73,48.75C117.76,48.76 118.65,48.96 119.73,48.99C121,49.02 122.49,48.79 123.86,48.86C125.24,48.93 126.82,49.27 127.99,49.39C128.85,49.48 129.23,49.5 130.24,49.56C132.3,49.69 137.2,49.85 139.62,50C141.16,50.1 141.73,50.23 143.38,50.29C146.55,50.4 151.76,49.71 157.27,50.19C165.54,50.91 185.99,55.65 188.04,55.81C188.27,55.83 188.21,55.8 188.42,55.8C189.42,55.79 194.77,55.8 197.05,55.94C198.56,56.03 199.35,56.25 200.8,56.34C202.8,56.46 205.94,56.46 207.94,56.47C209.39,56.48 210.21,56.44 211.69,56.44C213.83,56.44 217.74,56.52 219.57,56.51C220.55,56.51 221.38,56.47 221.82,56.47C222,56.47 221.99,56.48 222.2,56.48C223.32,56.46 229.18,55.84 232.71,55.81C236.3,55.77 239.41,56.43 243.59,56.29C249.31,56.1 260.48,54.15 263.86,54.07C264.98,54.04 265.56,54.19 266.11,54.21C266.43,54.22 266.46,54.23 266.86,54.23Q268.55,54.21 280,53.59" style="vector-effect: none; fill: none; stroke: rgb(234, 35, 41); stroke-opacity: 1; stroke-width: 5px; opacity: 1;"/></g><g class="points"/><g class="text"/></g><g class="trace scatter trace8f85be" style="stroke-miterlimit: 2; opacity: 1;"><g class="fills"/><g class="errorbars"/><g class="lines"><path class="js-line" d="M0,62.14Q6.29,53.42 12.01,51.39C20.95,48.21 42.49,52.43 51.42,53.27C56.05,53.71 58.49,54.24 61.93,54.75C65.25,55.25 68.37,55.59 71.69,56.3C75.24,57.06 80.18,58.55 82.57,59.24C83.75,59.58 84.12,59.74 85.2,60.04C86.93,60.52 89.25,61.31 91.96,61.78C95.89,62.46 102.65,62.84 106.6,63.09C109.28,63.26 111.49,63.29 113.35,63.35C114.67,63.39 115.64,63.47 116.73,63.43C117.76,63.39 118.65,63.21 119.73,63.14C121,63.06 122.48,63.11 123.86,63.04C125.24,62.97 126.82,62.82 127.99,62.7C128.85,62.61 129.23,62.49 130.24,62.44C132.29,62.34 137.2,62.59 139.62,62.58C141.15,62.57 141.73,62.54 143.38,62.48C146.55,62.37 151.73,62.1 157.27,61.85C165.51,61.48 185.99,60.51 188.04,60.46C188.27,60.45 188.21,60.46 188.42,60.46C189.42,60.47 194.77,60.42 197.05,60.58C198.56,60.68 199.35,60.95 200.8,61.05C202.8,61.18 205.94,61.02 207.94,61.12C209.39,61.19 210.21,61.35 211.69,61.46C213.83,61.61 217.74,61.81 219.57,61.88C220.55,61.92 221.38,61.94 221.82,61.94C222,61.94 221.99,61.93 222.2,61.93C223.32,61.93 229.18,62.28 232.71,62.26C236.31,62.24 239.4,61.91 243.59,61.8C249.3,61.65 260.49,61.81 263.86,61.57C264.99,61.49 265.56,61.35 266.11,61.28C266.43,61.24 266.46,61.22 266.86,61.19Q268.55,61.06 280,60.74" style="vector-effect: none; fill: none; stroke: rgb(93, 140, 0); stroke-opacity: 1; stroke-width: 5px; opacity: 1;"/></g><g class="points"/><g class="text"/></g></g></g><g class="overplot"/><path class="xlines-above crisp" d="M0,0" style="fill: none;"/><path class="ylines-above crisp" d="M0,0" style="fill: none;"/><g class="overlines-above"/><g class="xaxislayer-above"/><g class="yaxislayer-above"/><g class="overaxes-above"/></g></g><g class="polarlayer"/><g class="smithlayer"/><g class="ternarylayer"/><g class="geolayer"/><g class="funnelarealayer"/><g class="pielayer"/><g class="iciclelayer"/><g class="treemaplayer"/><g class="sunburstlayer"/><g class="glimages"/><defs id="topdefs-ea5318"><g class="clips"/></defs><g class="layer-above"><g class="imagelayer"/><g class="shapelayer"/></g><g class="infolayer"><g class="g-gtitle"><text class="gtitle" x="15" y="25" text-anchor="start" dy="0em" style="font-family: Ubuntu, verdana, arial, sans-serif; font-size: 16px; fill: rgb(233, 84, 32); opacity: 1; font-weight: normal; white-space: pre;">Sněmovna 2021-2025</text></g><g class="g-xtitle"/><g class="g-ytitle"/></g></svg>