<svg class="main-svg" xmlns="http://www.w3.org/2000/svg" xmlns:xlink="http://www.w3.org/1999/xlink" width="400" height="400" style="" viewBox="0 0 400 400"><rect x="0" y="0" width="400" height="400" style="fill: rgb(255, 255, 255); fill-opacity: 1;"/><defs id="defs-d4ab56"><g class="clips"><clipPath id="clipd4ab56xyplot" class="plotclip"><rect width="203" height="330"/></clipPath><clipPath class="axesclip" id="clipd4ab56x"><rect x="50" y="0" width="203" height="400"/></clipPath><clipPath class="axesclip" id="clipd4ab56y"><rect x="0" y="20" width="400" height="330"/></clipPath><clipPath class="axesclip" id="clipd4ab56xy"><rect x="50" y="20" width="203" height="330"/></clipPath></g><g class="gradients"/><g class="patterns"/></defs><g class="bglayer"/><g class="layer-below"><g class="imagelayer"/><g class="shapelayer"/></g><g class="cartesianlayer"><g class="subplot xy"><g class="layer-subplot"><g class="shapelayer"/><g class="imagelayer"/></g><g class="gridlayer"><g class="x"><path class="xgrid crisp" transform="translate(61.74,0)" d="M0,20v330" style="stroke: rgb(235, 240, 248); stroke-opacity: 1; stroke-width: 1px;"/><path class="xgrid crisp" transform="translate(112.72999999999999,0)" d="M0,20v330" style="stroke: rgb(235, 240, 248); stroke-opacity: 1; stroke-width: 1px;"/><path class="xgrid crisp" transform="translate(163.72,0)" d="M0,20v330" style="stroke: rgb(235, 240, 248); stroke-opacity: 1; stroke-width: 1px;"/><path class="xgrid crisp" transform="translate(214.86,0)" d="M0,20v330" style="stroke: rgb(235, 240, 248); stroke-opacity: 1; stroke-width: 1px;"/></g><g class="y"><path class="ygrid crisp" transform="translate(0,305.8)" d="M50,0h203" style="stroke: rgb(235, 240, 248); stroke-opacity: 1; stroke-width: 1px;"/><path class="ygrid crisp" transform="translate(0,261.6)" d="M50,0h203" style="stroke: rgb(235, 240, 248); stroke-opacity: 1; stroke-width: 1px;"/><path class="ygrid crisp" transform="translate(0,217.4)" d="M50,0h203" style="stroke: rgb(235, 240, 248); stroke-opacity: 1; stroke-width: 1px;"/><path class="ygrid crisp" transform="translate(0,173.2)" d="M50,0h203" style="stroke: rgb(235, 240, 248); stroke-opacity: 1; stroke-width: 1px;"/><path class="ygrid crisp" transform="translate(0,129)" d="M50,0h203" style="stroke: rgb(235, 240, 248); stroke-opacity: 1; stroke-width: 1px;"/><path class="ygrid crisp" transform="translate(0,84.8)" d="M50,0h203" style="stroke: rgb(235, 240, 248); stroke-opacity: 1; stroke-width: 1px;"/><path class="ygrid crisp" transform="translate(0,40.6)" d="M50,0h203" style="stroke: rgb(235, 240, 248); stroke-opacity: 1; stroke-width: 1px;"/></g></g><g class="zerolinelayer"><path class="yzl zl crisp" transform="translate(0,350)" d="M50,0h203" style="stroke: rgb(235, 240, 248); stroke-opacity: 1; stroke-width: 2px;"/></g><path class="xlines-below"/><path class="ylines-below"/><g class="overlines-below"/><g class="xaxislayer-below"/><g class="yaxislayer-below"/><g class="overaxes-below"/><g class="plot" transform="translate(50,20)" clip-path="url(#clipd4ab56xyplot)"><g class="scatterlayer mlayer"><g class="trace scatter traceed1dd7" style="stroke-miterlimit: 2; opacity: 1;"><g class="fills"><g><path class="js-fill" d="M0,43.61Q2.56,44.51 4.47,45.28C7.96,46.69 16.06,52.83 19.14,51.65C21.51,50.74 21.62,45.45 23.05,43.09C24.18,41.22 25.47,40.11 26.68,38.42C28.03,36.54 29.86,33.69 30.74,32.31C31.18,31.62 31.29,31.33 31.71,30.73C32.33,29.84 33.3,28.97 34.23,27.57C35.79,25.24 37.9,18.99 39.68,17.72C40.53,17.11 41.36,17.4 42.19,17.27C42.99,17.14 43.87,17.07 44.57,16.95C45.14,16.86 46.11,16.72 46.1,16.65C46.09,16.55 43.47,16.39 43.45,16.5C43.42,16.66 47.12,16.15 48.48,17.96C54.28,25.69 54.28,109.15 48.48,113.52C47.12,114.54 43.42,112.23 43.45,112.07C43.47,111.95 46.09,112.12 46.1,112.21C46.11,112.28 45.14,112.42 44.57,112.51C43.87,112.63 42.99,112.71 42.19,112.84C41.36,112.97 40.56,112.74 39.68,113.29C38.01,114.34 35.62,118.48 34.23,120.86C33.12,122.77 32.47,126.1 31.71,126.3C31.37,126.39 31.13,125.54 30.74,125.61C29.78,125.79 28.16,130.24 26.68,131.71C25.54,132.84 24.1,132.77 23.05,134.11C21.33,136.29 21.67,144.03 19.14,144.94C16.06,146.05 8.04,137.01 4.47,136.29Q2.63,135.92 0,136.9Z" style="fill: rgb(38, 16, 96); fill-opacity: 0.05; stroke-width: 0;"/></g></g><g class="errorbars"/><g class="lines"><path class="js-line" d="M0,43.61Q2.56,44.51 4.47,45.28C7.96,46.69 16.06,52.83 19.14,51.65C21.51,50.74 21.62,45.45 23.05,43.09C24.18,41.22 25.47,40.11 26.68,38.42C28.03,36.54 29.86,33.69 30.74,32.31C31.18,31.62 31.29,31.33 31.71,30.73C32.33,29.84 33.3,28.97 34.23,27.57C35.79,25.24 37.9,18.99 39.68,17.72C40.53,17.11 41.36,17.4 42.19,17.27C42.99,17.14 43.87,17.07 44.57,16.95C45.14,16.86 46.11,16.72 46.1,16.65C46.09,16.55 43.47,16.39 43.45,16.5C43.42,16.66 47.12,16.15 48.48,17.96C54.28,25.69 54.28,109.15 48.48,113.52C47.12,114.54 43.42,112.23 43.45,112.07C43.47,111.95 46.09,112.12 46.1,112.21C46.11,112.28 45.14,112.42 44.57,112.51C43.87,112.63 42.99,112.71 42.19,112.84C41.36,112.97 40.56,112.74 39.68,113.29C38.01,114.34 35.62,118.48 34.23,120.86C33.12,122.77 32.47,126.1 31.71,126.3C31.37,126.39 31.13,125.54 30.74,125.61C29.78,125.79 28.16,130.24 26.68,131.71C25.54,132.84 24.1,132.77 23.05,134.11C21.33,136.29 21.67,144.03 19.14,144.94C16.06,146.05 8.04,137.01 4.47,136.29Q2.63,135.92 0,136.9" style="vector-effect: non-scaling-stroke; fill: none; stroke: rgb(255, 255, 255); stroke-opacity: 0; stroke-width: 2px; opacity: 1;"/></g><g class="points"/><g class="text"/></g><g class="trace scatter tracee14892" style="stroke-miterlimit: 2; opacity: 1;"><g class="fills"><g><path class="js-fill" d="M0,168.69Q2.78,162.9 4.47,157.69C8.31,145.87 15.31,108.85 19.14,98.39C20.6,94.42 21.4,91.31 23.05,90.5C24.12,89.97 25.66,90.17 26.68,91.21C29.29,93.89 29.63,111.55 30.74,115.2C31.09,116.34 31.38,116.3 31.71,117.35C32.5,119.83 32.97,126.02 34.23,130.38C35.57,135 37.82,142.06 39.68,144.29C40.51,145.28 41.45,146.03 42.19,145.84C43.13,145.6 43.83,141.75 44.57,141.71C45.11,141.68 46.26,143.3 46.1,143.78C45.94,144.28 43.56,144.82 43.45,144.62C43.28,144.31 47.18,139.68 48.48,140.27C52.98,142.33 53.57,212.32 48.48,219.91C47.15,221.89 43.48,221.32 43.45,221.98C43.42,222.47 45.8,223.67 46.1,223.41C46.47,223.09 45.21,219.14 44.57,219.08C43.91,219.02 43.13,222.96 42.19,223.2C41.45,223.39 40.53,222.6 39.68,221.65C37.91,219.67 35.57,213.89 34.23,210.02C32.98,206.43 32.74,199.99 31.71,199.27C31.4,199.06 31.06,199.62 30.74,199.39C29.23,198.29 29.17,180.18 26.68,177.67C25.66,176.64 24.15,176.52 23.05,176.97C21.55,177.58 20.57,179.6 19.14,182.58C15.19,190.82 8.35,223.04 4.47,232.78Q2.79,237 0,241.5Z" style="fill: rgb(0, 68, 148); fill-opacity: 0.05; stroke-width: 0;"/></g></g><g class="errorbars"/><g class="lines"><path class="js-line" d="M0,168.69Q2.78,162.9 4.47,157.69C8.31,145.87 15.31,108.85 19.14,98.39C20.6,94.42 21.4,91.31 23.05,90.5C24.12,89.97 25.66,90.17 26.68,91.21C29.29,93.89 29.63,111.55 30.74,115.2C31.09,116.34 31.38,116.3 31.71,117.35C32.5,119.83 32.97,126.02 34.23,130.38C35.57,135 37.82,142.06 39.68,144.29C40.51,145.28 41.45,146.03 42.19,145.84C43.13,145.6 43.83,141.75 44.57,141.71C45.11,141.68 46.26,143.3 46.1,143.78C45.94,144.28 43.56,144.82 43.45,144.62C43.28,144.31 47.18,139.68 48.48,140.27C52.98,142.33 53.57,212.32 48.48,219.91C47.15,221.89 43.48,221.32 43.45,221.98C43.42,222.47 45.8,223.67 46.1,223.41C46.47,223.09 45.21,219.14 44.57,219.08C43.91,219.02 43.13,222.96 42.19,223.2C41.45,223.39 40.53,222.6 39.68,221.65C37.91,219.67 35.57,213.89 34.23,210.02C32.98,206.43 32.74,199.99 31.71,199.27C31.4,199.06 31.06,199.62 30.74,199.39C29.23,198.29 29.17,180.18 26.68,177.67C25.66,176.64 24.15,176.52 23.05,176.97C21.55,177.58 20.57,179.6 19.14,182.58C15.19,190.82 8.35,223.04 4.47,232.78Q2.79,237 0,241.5" style="vector-effect: non-scaling-stroke; fill: none; stroke: rgb(255, 255, 255); stroke-opacity: 0; stroke-width: 2px; opacity: 1;"/></g><g class="points"/><g class="text"/></g><g class="trace scatter tracef47eef" style="stroke-miterlimit: 2; opacity: 1;"><g class="fills"><g><path class="js-fill" d="M0,214.57Q2.74,215.21 4.47,214.46C8.22,212.83 15.88,199.26 19.14,199.46C20.94,199.57 21.77,204.57 23.05,204.58C24.28,204.59 25.44,201.52 26.68,199.91C28,198.19 29.79,194.76 30.74,194.57C31.13,194.49 31.38,195.25 31.71,195.14C32.49,194.89 32.9,190.98 34.23,189.6C35.56,188.21 38.22,187.63 39.68,186.84C40.69,186.3 41.39,185.95 42.19,185.39C43.02,184.81 43.83,183.87 44.57,183.41C45.11,183.07 46.09,182.71 46.1,182.73C46.12,182.76 43.38,183.87 43.45,184.19C43.54,184.61 47.16,183.19 48.48,184.64C53.42,190.05 53.06,252.44 48.48,255.17C47.17,255.95 43.45,253.22 43.45,252.45C43.45,251.89 45.88,250.78 46.1,250.99C46.33,251.21 45.31,253.56 44.57,253.95C43.94,254.28 42.97,253.49 42.19,253.65C41.33,253.82 40.69,254.55 39.68,255.1C38.22,255.89 35.61,256.73 34.23,257.87C33.1,258.81 32.41,260.98 31.71,261.12C31.35,261.19 31.16,260.53 30.74,260.56C29.84,260.62 27.92,262.4 26.68,263.62C25.34,264.94 24.38,268.1 23.05,268.29C21.85,268.46 20.86,265.46 19.14,265.45C15.81,265.43 8.09,274.68 4.47,275.89Q2.67,276.49 0,276Z" style="fill: rgb(234, 35, 41); fill-opacity: 0.05; stroke-width: 0;"/></g></g><g class="errorbars"/><g class="lines"><path class="js-line" d="M0,214.57Q2.74,215.21 4.47,214.46C8.22,212.83 15.88,199.26 19.14,199.46C20.94,199.57 21.77,204.57 23.05,204.58C24.28,204.59 25.44,201.52 26.68,199.91C28,198.19 29.79,194.76 30.74,194.57C31.13,194.49 31.38,195.25 31.71,195.14C32.49,194.89 32.9,190.98 34.23,189.6C35.56,188.21 38.22,187.63 39.68,186.84C40.69,186.3 41.39,185.95 42.19,185.39C43.02,184.81 43.83,183.87 44.57,183.41C45.11,183.07 46.09,182.71 46.1,182.73C46.12,182.76 43.38,183.87 43.45,184.19C43.54,184.61 47.16,183.19 48.48,184.64C53.42,190.05 53.06,252.44 48.48,255.17C47.17,255.95 43.45,253.22 43.45,252.45C43.45,251.89 45.88,250.78 46.1,250.99C46.33,251.21 45.31,253.56 44.57,253.95C43.94,254.28 42.97,253.49 42.19,253.65C41.33,253.82 40.69,254.55 39.68,255.1C38.22,255.89 35.61,256.73 34.23,257.87C33.1,258.81 32.41,260.98 31.71,261.12C31.35,261.19 31.16,260.53 30.74,260.56C29.84,260.62 27.92,262.4 26.68,263.62C25.34,264.94 24.38,268.1 23.05,268.29C21.85,268.46 20.86,265.46 19.14,265.45C15.81,265.43 8.09,274.68 4.47,275.89Q2.67,276.49 0,276" style="vector-effect: non-scaling-stroke; fill: none; stroke: rgb(255, 255, 255); stroke-opacity: 0; stroke-width: 2px; opacity: 1;"/></g><g class="points"/><g class="text"/></g><g class="trace scatter trace34fd5c" style="stroke-miterlimit: 2; opacity: 1;"><g class="fills"><g><path class="js-fill" d="M0,219.26Q2.23,223.97 4.47,226.32C7.75,229.77 15.69,235.89 19.14,236.68C20.76,237.05 21.78,235.95 23.05,236.04C24.29,236.13 25.65,237.72 26.68,237.16C28.7,236.07 29.82,226.02 30.74,223.21C31.15,221.98 31.33,221.72 31.71,220.58C32.38,218.56 32.57,213.55 34.23,212.04C35.54,210.85 38.23,210.82 39.68,210.96C40.69,211.06 41.36,211.7 42.19,211.98C42.99,212.25 43.9,212.25 44.57,212.63C45.19,212.99 46.14,214.1 46.1,214.14C46.05,214.19 43.42,212.24 43.45,212.19C43.49,212.12 47.2,212.94 48.48,215.2C52.63,222.51 52.63,274.27 48.48,276.63C47.2,277.36 43.49,273.56 43.45,273.63C43.42,273.68 46.05,275.62 46.1,275.57C46.14,275.53 45.19,274.42 44.57,274.06C43.9,273.68 42.99,273.69 42.19,273.42C41.36,273.14 40.69,272.5 39.68,272.4C38.23,272.26 35.55,272.39 34.23,273.48C32.78,274.68 32.34,278.1 31.71,279.74C31.3,280.8 31.2,281.23 30.74,282.37C29.87,284.55 28.43,290.96 26.68,291.77C25.62,292.26 24.29,290.74 23.05,290.65C21.78,290.56 20.83,291.47 19.14,291.29C15.77,290.93 7.71,288.17 4.47,285.48Q2.11,283.52 0,278.42Z" style="fill: rgb(0, 0, 0); fill-opacity: 0.05; stroke-width: 0;"/></g></g><g class="errorbars"/><g class="lines"><path class="js-line" d="M0,219.26Q2.23,223.97 4.47,226.32C7.75,229.77 15.69,235.89 19.14,236.68C20.76,237.05 21.78,235.95 23.05,236.04C24.29,236.13 25.65,237.72 26.68,237.16C28.7,236.07 29.82,226.02 30.74,223.21C31.15,221.98 31.33,221.72 31.71,220.58C32.38,218.56 32.57,213.55 34.23,212.04C35.54,210.85 38.23,210.82 39.68,210.96C40.69,211.06 41.36,211.7 42.19,211.98C42.99,212.25 43.9,212.25 44.57,212.63C45.19,212.99 46.14,214.1 46.1,214.14C46.05,214.19 43.42,212.24 43.45,212.19C43.49,212.12 47.2,212.94 48.48,215.2C52.63,222.51 52.63,274.27 48.48,276.63C47.2,277.36 43.49,273.56 43.45,273.63C43.42,273.68 46.05,275.62 46.1,275.57C46.14,275.53 45.19,274.42 44.57,274.06C43.9,273.68 42.99,273.69 42.19,273.42C41.36,273.14 40.69,272.5 39.68,272.4C38.23,272.26 35.55,272.39 34.23,273.48C32.78,274.68 32.34,278.1 31.71,279.74C31.3,280.8 31.2,281.23 30.74,282.37C29.87,284.55 28.43,290.96 26.68,291.77C25.62,292.26 24.29,290.74 23.05,290.65C21.78,290.56 20.83,291.47 19.14,291.29C15.77,290.93 7.71,288.17 4.47,285.48Q2.11,283.52 0,278.42" style="vector-effect: non-scaling-stroke; fill: none; stroke: rgb(255, 255, 255); stroke-opacity: 0; stroke-width: 2px; opacity: 1;"/></g><g class="points"/><g class="text"/></g><g class="trace scatter trace9fe380" style="stroke-miterlimit: 2; opacity: 1;"><g class="fills"><g><path class="js-fill" d="M0,231.44Q-0.11,198.91 4.47,196.9C7.76,195.46 16.02,203.71 19.14,207.28C21.28,209.73 21.78,212.3 23.05,214.78C24.29,217.2 25.54,219.19 26.68,221.98C28.15,225.57 29.91,231.26 30.74,234.69C31.29,236.96 31.23,238.34 31.71,240.43C32.31,243.03 32.83,246.6 34.23,249.04C35.55,251.34 38.11,253.7 39.68,254.8C40.6,255.45 41.37,255.93 42.19,255.89C43,255.85 43.85,254.63 44.57,254.58C45.13,254.54 46.03,254.81 46.1,255.15C46.21,255.67 43.58,257.83 43.45,257.73C43.25,257.57 47.31,249.74 48.48,250.09C51.23,250.91 51.64,292.16 48.48,300.15C47.27,303.21 43.42,305.48 43.45,305.51C43.47,305.53 46.07,302.9 46.1,302.93C46.12,302.95 45.2,304.5 44.57,304.64C43.91,304.79 42.99,304.01 42.19,303.67C41.36,303.32 40.65,303.1 39.68,302.58C38.18,301.78 35.55,300.7 34.23,299.1C32.87,297.45 32.44,294.01 31.71,292.76C31.36,292.17 31.11,292.21 30.74,291.57C29.74,289.85 28.2,283.9 26.68,281.14C25.56,279.1 24.29,277.87 23.05,276.21C21.77,274.49 21.11,272.71 19.14,270.99C15.97,268.24 7.71,261.34 4.47,262.89Q0.44,264.82 0,288.33Z" style="fill: rgb(93, 140, 0); fill-opacity: 0.05; stroke-width: 0;"/></g></g><g class="errorbars"/><g class="lines"><path class="js-line" d="M0,231.44Q-0.11,198.91 4.47,196.9C7.76,195.46 16.02,203.71 19.14,207.28C21.28,209.73 21.78,212.3 23.05,214.78C24.29,217.2 25.54,219.19 26.68,221.98C28.15,225.57 29.91,231.26 30.74,234.69C31.29,236.96 31.23,238.34 31.71,240.43C32.31,243.03 32.83,246.6 34.23,249.04C35.55,251.34 38.11,253.7 39.68,254.8C40.6,255.45 41.37,255.93 42.19,255.89C43,255.85 43.85,254.63 44.57,254.58C45.13,254.54 46.03,254.81 46.1,255.15C46.21,255.67 43.58,257.83 43.45,257.73C43.25,257.57 47.31,249.74 48.48,250.09C51.23,250.91 51.64,292.16 48.48,300.15C47.27,303.21 43.42,305.48 43.45,305.51C43.47,305.53 46.07,302.9 46.1,302.93C46.12,302.95 45.2,304.5 44.57,304.64C43.91,304.79 42.99,304.01 42.19,303.67C41.36,303.32 40.65,303.1 39.68,302.58C38.18,301.78 35.55,300.7 34.23,299.1C32.87,297.45 32.44,294.01 31.71,292.76C31.36,292.17 31.11,292.21 30.74,291.57C29.74,289.85 28.2,283.9 26.68,281.14C25.56,279.1 24.29,277.87 23.05,276.21C21.77,274.49 21.11,272.71 19.14,270.99C15.97,268.24 7.71,261.34 4.47,262.89Q0.44,264.82 0,288.33" style="vector-effect: non-scaling-stroke; fill: none; stroke: rgb(255, 255, 255); stroke-opacity: 0; stroke-width: 2px; opacity: 1;"/></g><g class="points"/><g class="text"/></g><g class="trace scatter traceb702ea" style="stroke-miterlimit: 2; opacity: 1;"><g class="fills"><g><path class="js-fill" d="M0,251.2Q0.99,266.73 4.47,268.7C7.67,270.51 15.97,263.4 19.14,264.3C21.1,264.86 21.67,267.6 23.05,268.69C24.21,269.6 25.41,270.13 26.68,270.64C27.97,271.15 29.87,271.84 30.74,271.73C31.19,271.67 31.31,271.4 31.71,271.17C32.35,270.81 33.2,269.9 34.23,269.77C35.67,269.58 38.32,270.27 39.68,271.17C40.85,271.94 41.37,274.46 42.19,274.45C43,274.44 43.89,272.26 44.57,271.2C45.17,270.26 46.14,268.47 46.1,268.45C46.06,268.42 43.43,272.49 43.45,272.51C43.48,272.53 47.32,264.92 48.48,265.28C51.04,266.08 51.43,301.45 48.48,308.51C47.29,311.36 43.34,313.34 43.45,313.47C43.52,313.56 45.92,311.51 46.1,311.68C46.28,311.85 45.27,313.81 44.57,314.43C43.93,315 42.99,315.41 42.19,315.41C41.37,315.41 40.69,314.73 39.68,314.4C38.22,313.92 35.67,312.83 34.23,313.01C33.2,313.14 32.3,314.57 31.71,314.4C31.22,314.26 31.31,313.13 30.74,312.69C29.91,312.05 28.01,311.72 26.68,311.6C25.45,311.49 24.18,312.37 23.05,311.92C21.62,311.35 21.1,308.09 19.14,307.53C15.97,306.63 7.66,313.45 4.47,311.94Q1.7,310.63 0,301.26Z" style="fill: rgb(230, 172, 33); fill-opacity: 0.05; stroke-width: 0;"/></g></g><g class="errorbars"/><g class="lines"><path class="js-line" d="M0,251.2Q0.99,266.73 4.47,268.7C7.67,270.51 15.97,263.4 19.14,264.3C21.1,264.86 21.67,267.6 23.05,268.69C24.21,269.6 25.41,270.13 26.68,270.64C27.97,271.15 29.87,271.84 30.74,271.73C31.19,271.67 31.31,271.4 31.71,271.17C32.35,270.81 33.2,269.9 34.23,269.77C35.67,269.58 38.32,270.27 39.68,271.17C40.85,271.94 41.37,274.46 42.19,274.45C43,274.44 43.89,272.26 44.57,271.2C45.17,270.26 46.14,268.47 46.1,268.45C46.06,268.42 43.43,272.49 43.45,272.51C43.48,272.53 47.32,264.92 48.48,265.28C51.04,266.08 51.43,301.45 48.48,308.51C47.29,311.36 43.34,313.34 43.45,313.47C43.52,313.56 45.92,311.51 46.1,311.68C46.28,311.85 45.27,313.81 44.57,314.43C43.93,315 42.99,315.41 42.19,315.41C41.37,315.41 40.69,314.73 39.68,314.4C38.22,313.92 35.67,312.83 34.23,313.01C33.2,313.14 32.3,314.57 31.71,314.4C31.22,314.26 31.31,313.13 30.74,312.69C29.91,312.05 28.01,311.72 26.68,311.6C25.45,311.49 24.18,312.37 23.05,311.92C21.62,311.35 21.1,308.09 19.14,307.53C15.97,306.63 7.66,313.45 4.47,311.94Q1.7,310.63 0,301.26" style="vector-effect: non-scaling-stroke; fill: none; stroke: rgb(255, 255, 255); stroke-opacity: 0; stroke-width: 2px; opacity: 1;"/></g><g class="points"/><g class="text"/></g><g class="trace scatter trace88eb16" style="stroke-miterlimit: 2; opacity: 1;"><g class="fills"><g><path class="js-fill" d="M0,240.57Q2.7,240.74 4.47,241.69C8.14,243.65 16.05,250.38 19.14,254.95C21.48,258.41 21.69,262.36 23.05,265.59C24.22,268.38 25.26,273.03 26.68,273.23C27.88,273.4 29.78,268.94 30.74,268.64C31.13,268.52 31.34,268.97 31.71,268.87C32.39,268.69 33.14,267.12 34.23,266.52C35.63,265.75 38.26,264.82 39.68,265.08C40.73,265.27 41.34,266.41 42.19,266.87C42.97,267.29 43.85,267.63 44.57,267.81C45.13,267.95 46.1,267.98 46.1,267.99C46.1,268 43.46,267.67 43.45,267.75C43.43,267.86 47.23,267.41 48.48,269C52.08,273.6 52.08,309.42 48.48,312.23C47.23,313.2 43.43,311.09 43.45,310.98C43.46,310.9 46.1,311.23 46.1,311.22C46.1,311.21 45.13,311.18 44.57,311.04C43.85,310.86 43,310.19 42.19,310.11C41.37,310.03 40.68,310.57 39.68,310.59C38.21,310.62 35.63,309.33 34.23,309.76C33.13,310.1 32.39,311.92 31.71,312.1C31.34,312.2 31.16,311.82 30.74,311.88C29.83,312.01 27.88,314.46 26.68,314.18C25.26,313.85 24.27,310.67 23.05,308.82C21.76,306.86 21.19,304.71 19.14,302.73C16,299.7 8.03,295.49 4.47,294.02Q2.62,293.26 0,292.9Z" style="fill: rgb(114, 55, 105); fill-opacity: 0.05; stroke-width: 0;"/></g></g><g class="errorbars"/><g class="lines"><path class="js-line" d="M0,240.57Q2.7,240.74 4.47,241.69C8.14,243.65 16.05,250.38 19.14,254.95C21.48,258.41 21.69,262.36 23.05,265.59C24.22,268.38 25.26,273.03 26.68,273.23C27.88,273.4 29.78,268.94 30.74,268.64C31.13,268.52 31.34,268.97 31.71,268.87C32.39,268.69 33.14,267.12 34.23,266.52C35.63,265.75 38.26,264.82 39.68,265.08C40.73,265.27 41.34,266.41 42.19,266.87C42.97,267.29 43.85,267.63 44.57,267.81C45.13,267.95 46.1,267.98 46.1,267.99C46.1,268 43.46,267.67 43.45,267.75C43.43,267.86 47.23,267.41 48.48,269C52.08,273.6 52.08,309.42 48.48,312.23C47.23,313.2 43.43,311.09 43.45,310.98C43.46,310.9 46.1,311.23 46.1,311.22C46.1,311.21 45.13,311.18 44.57,311.04C43.85,310.86 43,310.19 42.19,310.11C41.37,310.03 40.68,310.57 39.68,310.59C38.21,310.62 35.63,309.33 34.23,309.76C33.13,310.1 32.39,311.92 31.71,312.1C31.34,312.2 31.16,311.82 30.74,311.88C29.83,312.01 27.88,314.46 26.68,314.18C25.26,313.85 24.27,310.67 23.05,308.82C21.76,306.86 21.19,304.71 19.14,302.73C16,299.7 8.03,295.49 4.47,294.02Q2.62,293.26 0,292.9" style="vector-effect: non-scaling-stroke; fill: none; stroke: rgb(255, 255, 255); stroke-opacity: 0; stroke-width: 2px; opacity: 1;"/></g><g class="points"/><g class="text"/></g><g class="trace scatter trace67437b" style="stroke-miterlimit: 2; opacity: 1;"><g class="fills"><g><path class="js-fill" d="M0,267.4Q2.58,269.39 4.47,271C7.98,273.99 15.61,282.8 19.14,284.21C20.71,284.84 21.9,284.9 23.05,284.32C24.51,283.58 25.59,281.36 26.68,279.13C28.29,275.84 29.53,266.53 30.74,265.98C31.07,265.83 31.34,266.49 31.71,266.41C32.4,266.27 33.12,263.9 34.23,263.66C35.62,263.36 38.29,265.02 39.68,266.01C40.78,266.79 41.4,267.73 42.19,268.74C43.04,269.83 43.9,271.14 44.57,272.35C45.19,273.47 46.1,275.73 46.1,275.73C46.11,275.73 43.38,269.8 43.45,269.77C43.54,269.73 47.38,274.95 48.48,279.43C50.54,287.86 51.2,316.99 48.48,318.11C47.31,318.59 43.28,313.24 43.45,313.01C43.56,312.86 46.07,314.46 46.1,314.41C46.13,314.37 45.15,313.67 44.57,313.3C43.88,312.86 43.02,312.28 42.19,311.98C41.39,311.69 40.66,311.82 39.68,311.52C38.19,311.07 35.72,309.34 34.23,309.17C33.25,309.06 32.3,309.21 31.71,309.64C31.18,310.03 31.2,310.7 30.74,311.49C29.87,312.98 28.14,316.19 26.68,317.81C25.53,319.08 24.37,320.27 23.05,320.72C21.84,321.13 20.81,320.99 19.14,320.62C15.76,319.87 7.86,316.28 4.47,314.23Q2.44,313 0,310.63Z" style="fill: rgb(240, 125, 0); fill-opacity: 0.05; stroke-width: 0;"/></g></g><g class="errorbars"/><g class="lines"><path class="js-line" d="M0,267.4Q2.58,269.39 4.47,271C7.98,273.99 15.61,282.8 19.14,284.21C20.71,284.84 21.9,284.9 23.05,284.32C24.51,283.58 25.59,281.36 26.68,279.13C28.29,275.84 29.53,266.53 30.74,265.98C31.07,265.83 31.34,266.49 31.71,266.41C32.4,266.27 33.12,263.9 34.23,263.66C35.62,263.36 38.29,265.02 39.68,266.01C40.78,266.79 41.4,267.73 42.19,268.74C43.04,269.83 43.9,271.14 44.57,272.35C45.19,273.47 46.1,275.73 46.1,275.73C46.11,275.73 43.38,269.8 43.45,269.77C43.54,269.73 47.38,274.95 48.48,279.43C50.54,287.86 51.2,316.99 48.48,318.11C47.31,318.59 43.28,313.24 43.45,313.01C43.56,312.86 46.07,314.46 46.1,314.41C46.13,314.37 45.15,313.67 44.57,313.3C43.88,312.86 43.02,312.28 42.19,311.98C41.39,311.69 40.66,311.82 39.68,311.52C38.19,311.07 35.72,309.34 34.23,309.17C33.25,309.06 32.3,309.21 31.71,309.64C31.18,310.03 31.2,310.7 30.74,311.49C29.87,312.98 28.14,316.19 26.68,317.81C25.53,319.08 24.37,320.27 23.05,320.72C21.84,321.13 20.81,320.99 19.14,320.62C15.76,319.87 7.86,316.28 4.47,314.23Q2.44,313 0,310.63" style="vector-effect: non-scaling-stroke; fill: none; stroke: rgb(255, 255, 255); stroke-opacity: 0; stroke-width: 2px; opacity: 1;"/></g><g class="points"/><g class="text"/></g><g class="trace scatter trace35bfa1" style="stroke-miterlimit: 2; opacity: 1;"><g class="fills"><g><path class="js-fill" d="M0,273.15Q1.59,282.31 4.47,284.27C7.66,286.44 15.85,285.02 19.14,284.37C20.91,284.02 21.81,282.6 23.05,282.74C24.32,282.88 25.42,284.49 26.68,285.31C27.98,286.16 29.9,286.93 30.74,287.75C31.26,288.25 31.21,288.98 31.71,289.27C32.3,289.61 33.31,289.71 34.23,289.37C35.81,288.79 38.13,285.29 39.68,284.37C40.61,283.82 41.39,283.92 42.19,283.51C43.03,283.08 43.88,282.39 44.57,281.82C45.16,281.33 46.17,280.41 46.1,280.32C46.02,280.21 43.44,281.66 43.45,281.69C43.47,281.73 47.26,278.63 48.48,279.41C51.7,281.49 51.9,314.67 48.48,318.09C47.25,319.32 43.49,317.86 43.45,318.09C43.42,318.26 46.08,319.05 46.1,319C46.12,318.96 45.12,318.19 44.57,318.23C43.85,318.28 43.03,319.48 42.19,319.91C41.39,320.32 40.66,320.36 39.68,320.77C38.19,321.39 35.74,323.18 34.23,323.5C33.26,323.71 32.3,323.74 31.71,323.4C31.21,323.11 31.29,322.2 30.74,321.88C29.91,321.4 27.94,322.14 26.68,321.71C25.36,321.26 24.32,319.28 23.05,319.14C21.81,319 20.91,320.43 19.14,320.78C15.85,321.43 7.71,322.41 4.47,320.68Q2.09,319.41 0,314.11Z" style="fill: rgb(0, 51, 255); fill-opacity: 0.05; stroke-width: 0;"/></g></g><g class="errorbars"/><g class="lines"><path class="js-line" d="M0,273.15Q1.59,282.31 4.47,284.27C7.66,286.44 15.85,285.02 19.14,284.37C20.91,284.02 21.81,282.6 23.05,282.74C24.32,282.88 25.42,284.49 26.68,285.31C27.98,286.16 29.9,286.93 30.74,287.75C31.26,288.25 31.21,288.98 31.71,289.27C32.3,289.61 33.31,289.71 34.23,289.37C35.81,288.79 38.13,285.29 39.68,284.37C40.61,283.82 41.39,283.92 42.19,283.51C43.03,283.08 43.88,282.39 44.57,281.82C45.16,281.33 46.17,280.41 46.1,280.32C46.02,280.21 43.44,281.66 43.45,281.69C43.47,281.73 47.26,278.63 48.48,279.41C51.7,281.49 51.9,314.67 48.48,318.09C47.25,319.32 43.49,317.86 43.45,318.09C43.42,318.26 46.08,319.05 46.1,319C46.12,318.96 45.12,318.19 44.57,318.23C43.85,318.28 43.03,319.48 42.19,319.91C41.39,320.32 40.66,320.36 39.68,320.77C38.19,321.39 35.74,323.18 34.23,323.5C33.26,323.71 32.3,323.74 31.71,323.4C31.21,323.11 31.29,322.2 30.74,321.88C29.91,321.4 27.94,322.14 26.68,321.71C25.36,321.26 24.32,319.28 23.05,319.14C21.81,319 20.91,320.43 19.14,320.78C15.85,321.43 7.71,322.41 4.47,320.68Q2.09,319.41 0,314.11" style="vector-effect: non-scaling-stroke; fill: none; stroke: rgb(255, 255, 255); stroke-opacity: 0; stroke-width: 2px; opacity: 1;"/></g><g class="points"/><g class="text"/></g><g class="trace scatter trace2f0814" style="stroke-miterlimit: 2; opacity: 1;"><g class="fills"><g><path class="js-fill" d="M0,279.52Q2.75,278.2 4.47,278.81C8.25,280.14 15.72,294.72 19.14,294.99C20.78,295.12 21.68,292.32 23.05,291.84C24.21,291.44 25.47,292.16 26.68,291.87C28.04,291.54 29.83,289.99 30.74,289.75C31.16,289.64 31.33,289.84 31.71,289.71C32.38,289.48 33.16,288.19 34.23,287.87C35.64,287.44 38.25,288.48 39.68,288.11C40.73,287.84 41.41,286.45 42.19,286.57C43.05,286.7 43.95,288.12 44.57,289.25C45.34,290.65 46.21,294.49 46.1,294.53C45.98,294.57 43.29,288.42 43.45,288.33C43.64,288.23 47.41,292.69 48.48,296.44C50.36,303.05 51,324.72 48.48,326.02C47.33,326.62 43.7,322.22 43.45,322.46C43.23,322.67 46.02,326.44 46.1,326.39C46.16,326.35 45.21,324.32 44.57,323.38C43.91,322.42 43.05,320.83 42.19,320.7C41.41,320.58 40.73,321.97 39.68,322.24C38.25,322.61 35.7,322.16 34.23,322C33.23,321.89 32.35,321.6 31.71,321.56C31.31,321.54 31.16,321.5 30.74,321.61C29.83,321.86 28.04,323.4 26.68,323.73C25.47,324.02 24.27,323.57 23.05,323.7C21.76,323.84 20.82,324.76 19.14,324.57C15.76,324.18 8.01,318.01 4.47,317.49Q2.6,317.22 0,318.2Z" style="fill: rgb(140, 0, 0); fill-opacity: 0.05; stroke-width: 0;"/></g></g><g class="errorbars"/><g class="lines"><path class="js-line" d="M0,279.52Q2.75,278.2 4.47,278.81C8.25,280.14 15.72,294.72 19.14,294.99C20.78,295.12 21.68,292.32 23.05,291.84C24.21,291.44 25.47,292.16 26.68,291.87C28.04,291.54 29.83,289.99 30.74,289.75C31.16,289.64 31.33,289.84 31.71,289.71C32.38,289.48 33.16,288.19 34.23,287.87C35.64,287.44 38.25,288.48 39.68,288.11C40.73,287.84 41.41,286.45 42.19,286.57C43.05,286.7 43.95,288.12 44.57,289.25C45.34,290.65 46.21,294.49 46.1,294.53C45.98,294.57 43.29,288.42 43.45,288.33C43.64,288.23 47.41,292.69 48.48,296.44C50.36,303.05 51,324.72 48.48,326.02C47.33,326.62 43.7,322.22 43.45,322.46C43.23,322.67 46.02,326.44 46.1,326.39C46.16,326.35 45.21,324.32 44.57,323.38C43.91,322.42 43.05,320.83 42.19,320.7C41.41,320.58 40.73,321.97 39.68,322.24C38.25,322.61 35.7,322.16 34.23,322C33.23,321.89 32.35,321.6 31.71,321.56C31.31,321.54 31.16,321.5 30.74,321.61C29.83,321.86 28.04,323.4 26.68,323.73C25.47,324.02 24.27,323.57 23.05,323.7C21.76,323.84 20.82,324.76 19.14,324.57C15.76,324.18 8.01,318.01 4.47,317.49Q2.6,317.22 0,318.2" style="vector-effect: non-scaling-stroke; fill: none; stroke: rgb(255, 255, 255); stroke-opacity: 0; stroke-width: 2px; opacity: 1;"/></g><g class="points"/><g class="text"/></g><g class="trace scatter traced93b2e" style="stroke-miterlimit: 2; opacity: 1;"><g class="fills"/><g class="errorbars"/><g class="lines"><path class="js-line" d="M0,90.77Q2.61,90.81 4.47,91.38C8.02,92.47 16.06,99.84 19.14,98.67C21.59,97.74 21.56,91.53 23.05,89.02C24.16,87.16 25.45,86.14 26.68,84.59C28.01,82.92 29.8,80.23 30.74,79.32C31.14,78.93 31.35,78.99 31.71,78.62C32.41,77.91 33.24,76.44 34.23,74.96C35.71,72.75 38.07,68.31 39.68,66.61C40.58,65.66 41.32,65 42.19,64.78C42.96,64.59 43.87,64.98 44.57,65.1C45.14,65.19 46.11,65.33 46.1,65.4C46.09,65.5 43.46,65.44 43.45,65.55Q43.44,65.7 48.48,66.37" style="vector-effect: non-scaling-stroke; fill: none; stroke: rgb(38, 16, 96); stroke-opacity: 1; stroke-width: 7px; opacity: 1;"/></g><g class="points"/><g class="text"/></g><g class="trace scatter trace608d4a" style="stroke-miterlimit: 2; opacity: 1;"><g class="fills"/><g class="errorbars"/><g class="lines"/><g class="points"><path class="point" transform="translate(0,90.44)" d="M7.5,0A7.5,7.5 0 1,1 0,-7.5A7.5,7.5 0 0,1 7.5,0Z" style="opacity: 1; stroke-width: 0px; fill: rgb(38, 16, 96); fill-opacity: 0.25;"/><path class="point" transform="translate(4.47,91.32)" d="M7.5,0A7.5,7.5 0 1,1 0,-7.5A7.5,7.5 0 0,1 7.5,0Z" style="opacity: 1; stroke-width: 0px; fill: rgb(38, 16, 96); fill-opacity: 0.25;"/><path class="point" transform="translate(19.14,109)" d="M7.5,0A7.5,7.5 0 1,1 0,-7.5A7.5,7.5 0 0,1 7.5,0Z" style="opacity: 1; stroke-width: 0px; fill: rgb(38, 16, 96); fill-opacity: 0.25;"/><path class="point" transform="translate(23.05,86.9)" d="M7.5,0A7.5,7.5 0 1,1 0,-7.5A7.5,7.5 0 0,1 7.5,0Z" style="opacity: 1; stroke-width: 0px; fill: rgb(38, 16, 96); fill-opacity: 0.25;"/><path class="point" transform="translate(26.68,86.9)" d="M7.5,0A7.5,7.5 0 1,1 0,-7.5A7.5,7.5 0 0,1 7.5,0Z" style="opacity: 1; stroke-width: 0px; fill: rgb(38, 16, 96); fill-opacity: 0.25;"/><path class="point" transform="translate(30.74,78.06)" d="M7.5,0A7.5,7.5 0 1,1 0,-7.5A7.5,7.5 0 0,1 7.5,0Z" style="opacity: 1; stroke-width: 0px; fill: rgb(38, 16, 96); fill-opacity: 0.25;"/><path class="point" transform="translate(31.71,82.48)" d="M7.5,0A7.5,7.5 0 1,1 0,-7.5A7.5,7.5 0 0,1 7.5,0Z" style="opacity: 1; stroke-width: 0px; fill: rgb(38, 16, 96); fill-opacity: 0.25;"/><path class="point" transform="translate(34.23,73.64)" d="M7.5,0A7.5,7.5 0 1,1 0,-7.5A7.5,7.5 0 0,1 7.5,0Z" style="opacity: 1; stroke-width: 0px; fill: rgb(38, 16, 96); fill-opacity: 0.25;"/><path class="point" transform="translate(39.68,64.8)" d="M7.5,0A7.5,7.5 0 1,1 0,-7.5A7.5,7.5 0 0,1 7.5,0Z" style="opacity: 1; stroke-width: 0px; fill: rgb(38, 16, 96); fill-opacity: 0.25;"/><path class="point" transform="translate(42.19,55.08)" d="M7.5,0A7.5,7.5 0 1,1 0,-7.5A7.5,7.5 0 0,1 7.5,0Z" style="opacity: 1; stroke-width: 0px; fill: rgb(38, 16, 96); fill-opacity: 0.25;"/><path class="point" transform="translate(44.57,60.38)" d="M7.5,0A7.5,7.5 0 1,1 0,-7.5A7.5,7.5 0 0,1 7.5,0Z" style="opacity: 1; stroke-width: 0px; fill: rgb(38, 16, 96); fill-opacity: 0.25;"/><path class="point" transform="translate(46.1,64.8)" d="M7.5,0A7.5,7.5 0 1,1 0,-7.5A7.5,7.5 0 0,1 7.5,0Z" style="opacity: 1; stroke-width: 0px; fill: rgb(38, 16, 96); fill-opacity: 0.25;"/><path class="point" transform="translate(43.45,73.64)" d="M7.5,0A7.5,7.5 0 1,1 0,-7.5A7.5,7.5 0 0,1 7.5,0Z" style="opacity: 1; stroke-width: 0px; fill: rgb(38, 16, 96); fill-opacity: 0.25;"/><path class="point" transform="translate(48.48,69.22)" d="M7.5,0A7.5,7.5 0 1,1 0,-7.5A7.5,7.5 0 0,1 7.5,0Z" style="opacity: 1; stroke-width: 0px; fill: rgb(38, 16, 96); fill-opacity: 0.25;"/></g><g class="text"/></g><g class="trace scatter traceca187b" style="stroke-miterlimit: 2; opacity: 1;"><g class="fills"/><g class="errorbars"/><g class="lines"><path class="js-line" d="M0,204.61Q2.79,199.7 4.47,195.13C8.36,184.54 15.12,149.44 19.14,140.67C20.55,137.59 21.54,135.9 23.05,134.9C24.15,134.17 25.66,133.49 26.68,134.19C29.28,135.99 29.18,156.47 30.74,157.98C31.05,158.28 31.41,157.83 31.71,158.11C32.79,159.11 32.99,166.06 34.23,170.11C35.58,174.51 37.76,181.77 39.68,183.5C40.5,184.24 41.43,184.45 42.19,184.23C43.09,183.97 43.9,181.47 44.57,181.53C45.18,181.58 46.31,183.76 46.1,184.02C45.9,184.28 43.48,183.58 43.45,183.18Q43.41,182.61 48.48,180.7" style="vector-effect: non-scaling-stroke; fill: none; stroke: rgb(0, 68, 148); stroke-opacity: 1; stroke-width: 7px; opacity: 1;"/></g><g class="points"/><g class="text"/></g><g class="trace scatter trace42fc44" style="stroke-miterlimit: 2; opacity: 1;"><g class="fills"/><g class="errorbars"/><g class="lines"/><g class="points"><path class="point" transform="translate(0,209.78)" d="M7.5,0A7.5,7.5 0 1,1 0,-7.5A7.5,7.5 0 0,1 7.5,0Z" style="opacity: 1; stroke-width: 0px; fill: rgb(0, 68, 148); fill-opacity: 0.25;"/><path class="point" transform="translate(4.47,192.98)" d="M7.5,0A7.5,7.5 0 1,1 0,-7.5A7.5,7.5 0 0,1 7.5,0Z" style="opacity: 1; stroke-width: 0px; fill: rgb(0, 68, 148); fill-opacity: 0.25;"/><path class="point" transform="translate(19.14,144.36)" d="M7.5,0A7.5,7.5 0 1,1 0,-7.5A7.5,7.5 0 0,1 7.5,0Z" style="opacity: 1; stroke-width: 0px; fill: rgb(0, 68, 148); fill-opacity: 0.25;"/><path class="point" transform="translate(23.05,131.1)" d="M7.5,0A7.5,7.5 0 1,1 0,-7.5A7.5,7.5 0 0,1 7.5,0Z" style="opacity: 1; stroke-width: 0px; fill: rgb(0, 68, 148); fill-opacity: 0.25;"/><path class="point" transform="translate(26.68,100.16)" d="M7.5,0A7.5,7.5 0 1,1 0,-7.5A7.5,7.5 0 0,1 7.5,0Z" style="opacity: 1; stroke-width: 0px; fill: rgb(0, 68, 148); fill-opacity: 0.25;"/><path class="point" transform="translate(30.74,184.14)" d="M7.5,0A7.5,7.5 0 1,1 0,-7.5A7.5,7.5 0 0,1 7.5,0Z" style="opacity: 1; stroke-width: 0px; fill: rgb(0, 68, 148); fill-opacity: 0.25;"/><path class="point" transform="translate(31.71,131.1)" d="M7.5,0A7.5,7.5 0 1,1 0,-7.5A7.5,7.5 0 0,1 7.5,0Z" style="opacity: 1; stroke-width: 0px; fill: rgb(0, 68, 148); fill-opacity: 0.25;"/><path class="point" transform="translate(34.23,187.68)" d="M7.5,0A7.5,7.5 0 1,1 0,-7.5A7.5,7.5 0 0,1 7.5,0Z" style="opacity: 1; stroke-width: 0px; fill: rgb(0, 68, 148); fill-opacity: 0.25;"/><path class="point" transform="translate(39.68,192.98)" d="M7.5,0A7.5,7.5 0 1,1 0,-7.5A7.5,7.5 0 0,1 7.5,0Z" style="opacity: 1; stroke-width: 0px; fill: rgb(0, 68, 148); fill-opacity: 0.25;"/><path class="point" transform="translate(42.19,192.98)" d="M7.5,0A7.5,7.5 0 1,1 0,-7.5A7.5,7.5 0 0,1 7.5,0Z" style="opacity: 1; stroke-width: 0px; fill: rgb(0, 68, 148); fill-opacity: 0.25;"/><path class="point" transform="translate(44.57,157.62)" d="M7.5,0A7.5,7.5 0 1,1 0,-7.5A7.5,7.5 0 0,1 7.5,0Z" style="opacity: 1; stroke-width: 0px; fill: rgb(0, 68, 148); fill-opacity: 0.25;"/><path class="point" transform="translate(46.1,204.47)" d="M7.5,0A7.5,7.5 0 1,1 0,-7.5A7.5,7.5 0 0,1 7.5,0Z" style="opacity: 1; stroke-width: 0px; fill: rgb(0, 68, 148); fill-opacity: 0.25;"/><path class="point" transform="translate(43.45,188.56)" d="M7.5,0A7.5,7.5 0 1,1 0,-7.5A7.5,7.5 0 0,1 7.5,0Z" style="opacity: 1; stroke-width: 0px; fill: rgb(0, 68, 148); fill-opacity: 0.25;"/><path class="point" transform="translate(48.48,170.88)" d="M7.5,0A7.5,7.5 0 1,1 0,-7.5A7.5,7.5 0 0,1 7.5,0Z" style="opacity: 1; stroke-width: 0px; fill: rgb(0, 68, 148); fill-opacity: 0.25;"/></g><g class="text"/></g><g class="trace scatter trace861798" style="stroke-miterlimit: 2; opacity: 1;"><g class="fills"/><g class="errorbars"/><g class="lines"><path class="js-line" d="M0,245.2Q2.7,245.93 4.47,245.31C8.14,244.02 15.86,232.84 19.14,233C20.91,233.09 21.8,237.04 23.05,236.98C24.32,236.92 25.39,233.93 26.68,232.55C27.95,231.2 29.83,229.47 30.74,228.79C31.15,228.48 31.35,228.55 31.71,228.22C32.42,227.57 33.12,225.79 34.23,224.65C35.62,223.22 38.16,221.38 39.68,220.59C40.63,220.1 41.36,219.96 42.19,219.77C42.99,219.59 43.91,219.8 44.57,219.47C45.2,219.15 46.2,218.04 46.1,217.87C45.98,217.68 43.46,218.35 43.45,218.69Q43.44,219.17 48.48,220.52" style="vector-effect: non-scaling-stroke; fill: none; stroke: rgb(234, 35, 41); stroke-opacity: 1; stroke-width: 7px; opacity: 1;"/></g><g class="points"/><g class="text"/></g><g class="trace scatter trace60bb1d" style="stroke-miterlimit: 2; opacity: 1;"><g class="fills"/><g class="errorbars"/><g class="lines"/><g class="points"><path class="point" transform="translate(0,245.14)" d="M7.5,0A7.5,7.5 0 1,1 0,-7.5A7.5,7.5 0 0,1 7.5,0Z" style="opacity: 1; stroke-width: 0px; fill: rgb(234, 35, 41); fill-opacity: 0.25;"/><path class="point" transform="translate(4.47,246.02)" d="M7.5,0A7.5,7.5 0 1,1 0,-7.5A7.5,7.5 0 0,1 7.5,0Z" style="opacity: 1; stroke-width: 0px; fill: rgb(234, 35, 41); fill-opacity: 0.25;"/><path class="point" transform="translate(19.14,228.34)" d="M7.5,0A7.5,7.5 0 1,1 0,-7.5A7.5,7.5 0 0,1 7.5,0Z" style="opacity: 1; stroke-width: 0px; fill: rgb(234, 35, 41); fill-opacity: 0.25;"/><path class="point" transform="translate(23.05,246.02)" d="M7.5,0A7.5,7.5 0 1,1 0,-7.5A7.5,7.5 0 0,1 7.5,0Z" style="opacity: 1; stroke-width: 0px; fill: rgb(234, 35, 41); fill-opacity: 0.25;"/><path class="point" transform="translate(26.68,232.76)" d="M7.5,0A7.5,7.5 0 1,1 0,-7.5A7.5,7.5 0 0,1 7.5,0Z" style="opacity: 1; stroke-width: 0px; fill: rgb(234, 35, 41); fill-opacity: 0.25;"/><path class="point" transform="translate(30.74,228.34)" d="M7.5,0A7.5,7.5 0 1,1 0,-7.5A7.5,7.5 0 0,1 7.5,0Z" style="opacity: 1; stroke-width: 0px; fill: rgb(234, 35, 41); fill-opacity: 0.25;"/><path class="point" transform="translate(31.71,232.76)" d="M7.5,0A7.5,7.5 0 1,1 0,-7.5A7.5,7.5 0 0,1 7.5,0Z" style="opacity: 1; stroke-width: 0px; fill: rgb(234, 35, 41); fill-opacity: 0.25;"/><path class="point" transform="translate(34.23,219.5)" d="M7.5,0A7.5,7.5 0 1,1 0,-7.5A7.5,7.5 0 0,1 7.5,0Z" style="opacity: 1; stroke-width: 0px; fill: rgb(234, 35, 41); fill-opacity: 0.25;"/><path class="point" transform="translate(39.68,219.5)" d="M7.5,0A7.5,7.5 0 1,1 0,-7.5A7.5,7.5 0 0,1 7.5,0Z" style="opacity: 1; stroke-width: 0px; fill: rgb(234, 35, 41); fill-opacity: 0.25;"/><path class="point" transform="translate(42.19,224.81)" d="M7.5,0A7.5,7.5 0 1,1 0,-7.5A7.5,7.5 0 0,1 7.5,0Z" style="opacity: 1; stroke-width: 0px; fill: rgb(234, 35, 41); fill-opacity: 0.25;"/><path class="point" transform="translate(44.57,232.76)" d="M7.5,0A7.5,7.5 0 1,1 0,-7.5A7.5,7.5 0 0,1 7.5,0Z" style="opacity: 1; stroke-width: 0px; fill: rgb(234, 35, 41); fill-opacity: 0.25;"/><path class="point" transform="translate(46.1,203.59)" d="M7.5,0A7.5,7.5 0 1,1 0,-7.5A7.5,7.5 0 0,1 7.5,0Z" style="opacity: 1; stroke-width: 0px; fill: rgb(234, 35, 41); fill-opacity: 0.25;"/><path class="point" transform="translate(43.45,206.24)" d="M7.5,0A7.5,7.5 0 1,1 0,-7.5A7.5,7.5 0 0,1 7.5,0Z" style="opacity: 1; stroke-width: 0px; fill: rgb(234, 35, 41); fill-opacity: 0.25;"/><path class="point" transform="translate(48.48,228.34)" d="M7.5,0A7.5,7.5 0 1,1 0,-7.5A7.5,7.5 0 0,1 7.5,0Z" style="opacity: 1; stroke-width: 0px; fill: rgb(234, 35, 41); fill-opacity: 0.25;"/></g><g class="text"/></g><g class="trace scatter trace4d68c2" style="stroke-miterlimit: 2; opacity: 1;"><g class="fills"/><g class="errorbars"/><g class="lines"><path class="js-line" d="M0,249.61Q2.21,254.16 4.47,256.2C7.74,259.15 15.74,262.89 19.14,264.04C20.8,264.6 21.78,264.38 23.05,264.68C24.29,264.98 25.64,266.38 26.68,265.84C28.67,264.8 29.77,254.92 30.74,252.49C31.12,251.53 31.35,251.43 31.71,250.56C32.4,248.91 32.68,244.55 34.23,243.17C35.54,242 38.24,241.8 39.68,241.98C40.7,242.11 41.38,242.75 42.19,243.23C43.01,243.71 43.85,244.44 44.57,244.86C45.12,245.19 46.04,245.72 46.1,245.63C46.19,245.5 43.39,243.09 43.45,243.02Q43.53,242.93 48.48,246.84" style="vector-effect: non-scaling-stroke; fill: none; stroke: rgb(0, 0, 0); stroke-opacity: 1; stroke-width: 7px; opacity: 1;"/></g><g class="points"/><g class="text"/></g><g class="trace scatter trace838f16" style="stroke-miterlimit: 2; opacity: 1;"><g class="fills"/><g class="errorbars"/><g class="lines"/><g class="points"><path class="point" transform="translate(0,246.02)" d="M7.5,0A7.5,7.5 0 1,1 0,-7.5A7.5,7.5 0 0,1 7.5,0Z" style="opacity: 1; stroke-width: 0px; fill: rgb(0, 0, 0); fill-opacity: 0.25;"/><path class="point" transform="translate(4.47,259.28)" d="M7.5,0A7.5,7.5 0 1,1 0,-7.5A7.5,7.5 0 0,1 7.5,0Z" style="opacity: 1; stroke-width: 0px; fill: rgb(0, 0, 0); fill-opacity: 0.25;"/><path class="point" transform="translate(19.14,263.7)" d="M7.5,0A7.5,7.5 0 1,1 0,-7.5A7.5,7.5 0 0,1 7.5,0Z" style="opacity: 1; stroke-width: 0px; fill: rgb(0, 0, 0); fill-opacity: 0.25;"/><path class="point" transform="translate(23.05,263.7)" d="M7.5,0A7.5,7.5 0 1,1 0,-7.5A7.5,7.5 0 0,1 7.5,0Z" style="opacity: 1; stroke-width: 0px; fill: rgb(0, 0, 0); fill-opacity: 0.25;"/><path class="point" transform="translate(26.68,285.8)" d="M7.5,0A7.5,7.5 0 1,1 0,-7.5A7.5,7.5 0 0,1 7.5,0Z" style="opacity: 1; stroke-width: 0px; fill: rgb(0, 0, 0); fill-opacity: 0.25;"/><path class="point" transform="translate(30.74,250.44)" d="M7.5,0A7.5,7.5 0 1,1 0,-7.5A7.5,7.5 0 0,1 7.5,0Z" style="opacity: 1; stroke-width: 0px; fill: rgb(0, 0, 0); fill-opacity: 0.25;"/><path class="point" transform="translate(31.71,254.86)" d="M7.5,0A7.5,7.5 0 1,1 0,-7.5A7.5,7.5 0 0,1 7.5,0Z" style="opacity: 1; stroke-width: 0px; fill: rgb(0, 0, 0); fill-opacity: 0.25;"/><path class="point" transform="translate(34.23,225.69)" d="M7.5,0A7.5,7.5 0 1,1 0,-7.5A7.5,7.5 0 0,1 7.5,0Z" style="opacity: 1; stroke-width: 0px; fill: rgb(0, 0, 0); fill-opacity: 0.25;"/><path class="point" transform="translate(39.68,237.18)" d="M7.5,0A7.5,7.5 0 1,1 0,-7.5A7.5,7.5 0 0,1 7.5,0Z" style="opacity: 1; stroke-width: 0px; fill: rgb(0, 0, 0); fill-opacity: 0.25;"/><path class="point" transform="translate(42.19,247.79)" d="M7.5,0A7.5,7.5 0 1,1 0,-7.5A7.5,7.5 0 0,1 7.5,0Z" style="opacity: 1; stroke-width: 0px; fill: rgb(0, 0, 0); fill-opacity: 0.25;"/><path class="point" transform="translate(44.57,254.86)" d="M7.5,0A7.5,7.5 0 1,1 0,-7.5A7.5,7.5 0 0,1 7.5,0Z" style="opacity: 1; stroke-width: 0px; fill: rgb(0, 0, 0); fill-opacity: 0.25;"/><path class="point" transform="translate(46.1,246.91)" d="M7.5,0A7.5,7.5 0 1,1 0,-7.5A7.5,7.5 0 0,1 7.5,0Z" style="opacity: 1; stroke-width: 0px; fill: rgb(0, 0, 0); fill-opacity: 0.25;"/><path class="point" transform="translate(43.45,228.34)" d="M7.5,0A7.5,7.5 0 1,1 0,-7.5A7.5,7.5 0 0,1 7.5,0Z" style="opacity: 1; stroke-width: 0px; fill: rgb(0, 0, 0); fill-opacity: 0.25;"/><path class="point" transform="translate(48.48,250.44)" d="M7.5,0A7.5,7.5 0 1,1 0,-7.5A7.5,7.5 0 0,1 7.5,0Z" style="opacity: 1; stroke-width: 0px; fill: rgb(0, 0, 0); fill-opacity: 0.25;"/></g><g class="text"/></g><g class="trace scatter trace4bed5a" style="stroke-miterlimit: 2; opacity: 1;"><g class="fills"/><g class="errorbars"/><g class="lines"><path class="js-line" d="M0,260.18Q0.11,233.19 4.47,231.01C7.74,229.37 16.01,235.93 19.14,238.83C21.21,240.75 21.8,242.9 23.05,244.99C24.31,247.1 25.55,248.88 26.68,251.44C28.17,254.83 29.87,260.94 30.74,263.76C31.19,265.23 31.29,265.79 31.71,267.12C32.34,269.1 32.91,272.29 34.23,274.44C35.56,276.6 38.12,278.93 39.68,280.05C40.61,280.71 41.36,281.22 42.19,281.24C42.99,281.26 43.86,280.55 44.57,280.27C45.13,280.05 46.06,279.62 46.1,279.7C46.16,279.81 43.56,281.79 43.45,281.68Q43.29,281.51 48.48,275.66" style="vector-effect: non-scaling-stroke; fill: none; stroke: rgb(93, 140, 0); stroke-opacity: 1; stroke-width: 7px; opacity: 1;"/></g><g class="points"/><g class="text"/></g><g class="trace scatter trace5060a9" style="stroke-miterlimit: 2; opacity: 1;"><g class="fills"/><g class="errorbars"/><g class="lines"/><g class="points"><path class="point" transform="translate(0,276.08)" d="M7.5,0A7.5,7.5 0 1,1 0,-7.5A7.5,7.5 0 0,1 7.5,0Z" style="opacity: 1; stroke-width: 0px; fill: rgb(93, 140, 0); fill-opacity: 0.25;"/><path class="point" transform="translate(4.47,215.08)" d="M7.5,0A7.5,7.5 0 1,1 0,-7.5A7.5,7.5 0 0,1 7.5,0Z" style="opacity: 1; stroke-width: 0px; fill: rgb(93, 140, 0); fill-opacity: 0.25;"/><path class="point" transform="translate(19.14,232.76)" d="M7.5,0A7.5,7.5 0 1,1 0,-7.5A7.5,7.5 0 0,1 7.5,0Z" style="opacity: 1; stroke-width: 0px; fill: rgb(93, 140, 0); fill-opacity: 0.25;"/><path class="point" transform="translate(23.05,241.6)" d="M7.5,0A7.5,7.5 0 1,1 0,-7.5A7.5,7.5 0 0,1 7.5,0Z" style="opacity: 1; stroke-width: 0px; fill: rgb(93, 140, 0); fill-opacity: 0.25;"/><path class="point" transform="translate(26.68,241.6)" d="M7.5,0A7.5,7.5 0 1,1 0,-7.5A7.5,7.5 0 0,1 7.5,0Z" style="opacity: 1; stroke-width: 0px; fill: rgb(93, 140, 0); fill-opacity: 0.25;"/><path class="point" transform="translate(30.74,254.86)" d="M7.5,0A7.5,7.5 0 1,1 0,-7.5A7.5,7.5 0 0,1 7.5,0Z" style="opacity: 1; stroke-width: 0px; fill: rgb(93, 140, 0); fill-opacity: 0.25;"/><path class="point" transform="translate(31.71,272.54)" d="M7.5,0A7.5,7.5 0 1,1 0,-7.5A7.5,7.5 0 0,1 7.5,0Z" style="opacity: 1; stroke-width: 0px; fill: rgb(93, 140, 0); fill-opacity: 0.25;"/><path class="point" transform="translate(34.23,287.57)" d="M7.5,0A7.5,7.5 0 1,1 0,-7.5A7.5,7.5 0 0,1 7.5,0Z" style="opacity: 1; stroke-width: 0px; fill: rgb(93, 140, 0); fill-opacity: 0.25;"/><path class="point" transform="translate(39.68,281.38)" d="M7.5,0A7.5,7.5 0 1,1 0,-7.5A7.5,7.5 0 0,1 7.5,0Z" style="opacity: 1; stroke-width: 0px; fill: rgb(93, 140, 0); fill-opacity: 0.25;"/><path class="point" transform="translate(42.19,281.38)" d="M7.5,0A7.5,7.5 0 1,1 0,-7.5A7.5,7.5 0 0,1 7.5,0Z" style="opacity: 1; stroke-width: 0px; fill: rgb(93, 140, 0); fill-opacity: 0.25;"/><path class="point" transform="translate(44.57,272.54)" d="M7.5,0A7.5,7.5 0 1,1 0,-7.5A7.5,7.5 0 0,1 7.5,0Z" style="opacity: 1; stroke-width: 0px; fill: rgb(93, 140, 0); fill-opacity: 0.25;"/><path class="point" transform="translate(46.1,285.8)" d="M7.5,0A7.5,7.5 0 1,1 0,-7.5A7.5,7.5 0 0,1 7.5,0Z" style="opacity: 1; stroke-width: 0px; fill: rgb(93, 140, 0); fill-opacity: 0.25;"/><path class="point" transform="translate(43.45,294.64)" d="M7.5,0A7.5,7.5 0 1,1 0,-7.5A7.5,7.5 0 0,1 7.5,0Z" style="opacity: 1; stroke-width: 0px; fill: rgb(93, 140, 0); fill-opacity: 0.25;"/><path class="point" transform="translate(48.48,263.7)" d="M7.5,0A7.5,7.5 0 1,1 0,-7.5A7.5,7.5 0 0,1 7.5,0Z" style="opacity: 1; stroke-width: 0px; fill: rgb(93, 140, 0); fill-opacity: 0.25;"/></g><g class="text"/></g><g class="trace scatter trace1cdab9" style="stroke-miterlimit: 2; opacity: 1;"><g class="fills"/><g class="errorbars"/><g class="lines"><path class="js-line" d="M0,276.83Q1.32,289.54 4.47,291.18C7.66,292.84 15.98,285.56 19.14,286.48C21.13,287.06 21.6,290.44 23.05,291.2C24.17,291.79 25.45,291.29 26.68,291.52C28.01,291.77 29.87,292.32 30.74,292.7C31.19,292.89 31.3,293.23 31.71,293.27C32.34,293.33 33.22,292.48 34.23,292.39C35.69,292.26 38.24,292.79 39.68,293.26C40.71,293.59 41.37,294.54 42.19,294.53C43,294.52 43.9,293.78 44.57,293.24C45.19,292.74 46.12,291.46 46.1,291.44C46.07,291.42 43.51,294.25 43.45,294.2Q43.37,294.13 48.48,287.78" style="vector-effect: non-scaling-stroke; fill: none; stroke: rgb(230, 172, 33); stroke-opacity: 1; stroke-width: 7px; opacity: 1;"/></g><g class="points"/><g class="text"/></g><g class="trace scatter tracebeee04" style="stroke-miterlimit: 2; opacity: 1;"><g class="fills"/><g class="errorbars"/><g class="lines"/><g class="points"><path class="point" transform="translate(0,269)" d="M7.5,0A7.5,7.5 0 1,1 0,-7.5A7.5,7.5 0 0,1 7.5,0Z" style="opacity: 1; stroke-width: 0px; fill: rgb(230, 172, 33); fill-opacity: 0.25;"/><path class="point" transform="translate(4.47,299.06)" d="M7.5,0A7.5,7.5 0 1,1 0,-7.5A7.5,7.5 0 0,1 7.5,0Z" style="opacity: 1; stroke-width: 0px; fill: rgb(230, 172, 33); fill-opacity: 0.25;"/><path class="point" transform="translate(19.14,281.38)" d="M7.5,0A7.5,7.5 0 1,1 0,-7.5A7.5,7.5 0 0,1 7.5,0Z" style="opacity: 1; stroke-width: 0px; fill: rgb(230, 172, 33); fill-opacity: 0.25;"/><path class="point" transform="translate(23.05,294.64)" d="M7.5,0A7.5,7.5 0 1,1 0,-7.5A7.5,7.5 0 0,1 7.5,0Z" style="opacity: 1; stroke-width: 0px; fill: rgb(230, 172, 33); fill-opacity: 0.25;"/><path class="point" transform="translate(26.68,290.22)" d="M7.5,0A7.5,7.5 0 1,1 0,-7.5A7.5,7.5 0 0,1 7.5,0Z" style="opacity: 1; stroke-width: 0px; fill: rgb(230, 172, 33); fill-opacity: 0.25;"/><path class="point" transform="translate(30.74,290.22)" d="M7.5,0A7.5,7.5 0 1,1 0,-7.5A7.5,7.5 0 0,1 7.5,0Z" style="opacity: 1; stroke-width: 0px; fill: rgb(230, 172, 33); fill-opacity: 0.25;"/><path class="point" transform="translate(31.71,299.06)" d="M7.5,0A7.5,7.5 0 1,1 0,-7.5A7.5,7.5 0 0,1 7.5,0Z" style="opacity: 1; stroke-width: 0px; fill: rgb(230, 172, 33); fill-opacity: 0.25;"/><path class="point" transform="translate(34.23,289.34)" d="M7.5,0A7.5,7.5 0 1,1 0,-7.5A7.5,7.5 0 0,1 7.5,0Z" style="opacity: 1; stroke-width: 0px; fill: rgb(230, 172, 33); fill-opacity: 0.25;"/><path class="point" transform="translate(39.68,290.22)" d="M7.5,0A7.5,7.5 0 1,1 0,-7.5A7.5,7.5 0 0,1 7.5,0Z" style="opacity: 1; stroke-width: 0px; fill: rgb(230, 172, 33); fill-opacity: 0.25;"/><path class="point" transform="translate(42.19,299.94)" d="M7.5,0A7.5,7.5 0 1,1 0,-7.5A7.5,7.5 0 0,1 7.5,0Z" style="opacity: 1; stroke-width: 0px; fill: rgb(230, 172, 33); fill-opacity: 0.25;"/><path class="point" transform="translate(44.57,294.64)" d="M7.5,0A7.5,7.5 0 1,1 0,-7.5A7.5,7.5 0 0,1 7.5,0Z" style="opacity: 1; stroke-width: 0px; fill: rgb(230, 172, 33); fill-opacity: 0.25;"/><path class="point" transform="translate(46.1,290.22)" d="M7.5,0A7.5,7.5 0 1,1 0,-7.5A7.5,7.5 0 0,1 7.5,0Z" style="opacity: 1; stroke-width: 0px; fill: rgb(230, 172, 33); fill-opacity: 0.25;"/><path class="point" transform="translate(43.45,299.06)" d="M7.5,0A7.5,7.5 0 1,1 0,-7.5A7.5,7.5 0 0,1 7.5,0Z" style="opacity: 1; stroke-width: 0px; fill: rgb(230, 172, 33); fill-opacity: 0.25;"/><path class="point" transform="translate(48.48,276.96)" d="M7.5,0A7.5,7.5 0 1,1 0,-7.5A7.5,7.5 0 0,1 7.5,0Z" style="opacity: 1; stroke-width: 0px; fill: rgb(230, 172, 33); fill-opacity: 0.25;"/></g><g class="text"/></g><g class="trace scatter trace491e6c" style="stroke-miterlimit: 2; opacity: 1;"><g class="fills"/><g class="errorbars"/><g class="lines"><path class="js-line" d="M0,266.98Q2.67,267.23 4.47,268.13C8.1,269.95 16.02,276.09 19.14,279.91C21.24,282.48 21.73,285.11 23.05,287.47C24.25,289.61 25.22,293.09 26.68,293.48C27.87,293.8 29.83,291.59 30.74,291.24C31.16,291.08 31.34,291.2 31.71,291.01C32.39,290.66 33.14,289.32 34.23,288.81C35.63,288.16 38.21,287.94 39.68,287.97C40.68,287.99 41.39,288.16 42.19,288.46C43.02,288.77 43.84,289.65 44.57,289.8C45.12,289.91 46.1,289.63 46.1,289.62C46.1,289.61 43.46,289.71 43.45,289.86Q43.44,290.07 48.48,290.89" style="vector-effect: non-scaling-stroke; fill: none; stroke: rgb(114, 55, 105); stroke-opacity: 1; stroke-width: 7px; opacity: 1;"/></g><g class="points"/><g class="text"/></g><g class="trace scatter tracec74f24" style="stroke-miterlimit: 2; opacity: 1;"><g class="fills"/><g class="errorbars"/><g class="lines"/><g class="points"><path class="point" transform="translate(0,266.35)" d="M7.5,0A7.5,7.5 0 1,1 0,-7.5A7.5,7.5 0 0,1 7.5,0Z" style="opacity: 1; stroke-width: 0px; fill: rgb(114, 55, 105); fill-opacity: 0.25;"/><path class="point" transform="translate(4.47,268.12)" d="M7.5,0A7.5,7.5 0 1,1 0,-7.5A7.5,7.5 0 0,1 7.5,0Z" style="opacity: 1; stroke-width: 0px; fill: rgb(114, 55, 105); fill-opacity: 0.25;"/><path class="point" transform="translate(19.14,272.54)" d="M7.5,0A7.5,7.5 0 1,1 0,-7.5A7.5,7.5 0 0,1 7.5,0Z" style="opacity: 1; stroke-width: 0px; fill: rgb(114, 55, 105); fill-opacity: 0.25;"/><path class="point" transform="translate(23.05,285.8)" d="M7.5,0A7.5,7.5 0 1,1 0,-7.5A7.5,7.5 0 0,1 7.5,0Z" style="opacity: 1; stroke-width: 0px; fill: rgb(114, 55, 105); fill-opacity: 0.25;"/><path class="point" transform="translate(26.68,303.48)" d="M7.5,0A7.5,7.5 0 1,1 0,-7.5A7.5,7.5 0 0,1 7.5,0Z" style="opacity: 1; stroke-width: 0px; fill: rgb(114, 55, 105); fill-opacity: 0.25;"/><path class="point" transform="translate(30.74,290.22)" d="M7.5,0A7.5,7.5 0 1,1 0,-7.5A7.5,7.5 0 0,1 7.5,0Z" style="opacity: 1; stroke-width: 0px; fill: rgb(114, 55, 105); fill-opacity: 0.25;"/><path class="point" transform="translate(31.71,294.64)" d="M7.5,0A7.5,7.5 0 1,1 0,-7.5A7.5,7.5 0 0,1 7.5,0Z" style="opacity: 1; stroke-width: 0px; fill: rgb(114, 55, 105); fill-opacity: 0.25;"/><path class="point" transform="translate(34.23,284.03)" d="M7.5,0A7.5,7.5 0 1,1 0,-7.5A7.5,7.5 0 0,1 7.5,0Z" style="opacity: 1; stroke-width: 0px; fill: rgb(114, 55, 105); fill-opacity: 0.25;"/><path class="point" transform="translate(39.68,285.8)" d="M7.5,0A7.5,7.5 0 1,1 0,-7.5A7.5,7.5 0 0,1 7.5,0Z" style="opacity: 1; stroke-width: 0px; fill: rgb(114, 55, 105); fill-opacity: 0.25;"/><path class="point" transform="translate(42.19,280.5)" d="M7.5,0A7.5,7.5 0 1,1 0,-7.5A7.5,7.5 0 0,1 7.5,0Z" style="opacity: 1; stroke-width: 0px; fill: rgb(114, 55, 105); fill-opacity: 0.25;"/><path class="point" transform="translate(44.57,290.22)" d="M7.5,0A7.5,7.5 0 1,1 0,-7.5A7.5,7.5 0 0,1 7.5,0Z" style="opacity: 1; stroke-width: 0px; fill: rgb(114, 55, 105); fill-opacity: 0.25;"/><path class="point" transform="translate(46.1,285.8)" d="M7.5,0A7.5,7.5 0 1,1 0,-7.5A7.5,7.5 0 0,1 7.5,0Z" style="opacity: 1; stroke-width: 0px; fill: rgb(114, 55, 105); fill-opacity: 0.25;"/><path class="point" transform="translate(43.45,299.06)" d="M7.5,0A7.5,7.5 0 1,1 0,-7.5A7.5,7.5 0 0,1 7.5,0Z" style="opacity: 1; stroke-width: 0px; fill: rgb(114, 55, 105); fill-opacity: 0.25;"/><path class="point" transform="translate(48.48,294.64)" d="M7.5,0A7.5,7.5 0 1,1 0,-7.5A7.5,7.5 0 0,1 7.5,0Z" style="opacity: 1; stroke-width: 0px; fill: rgb(114, 55, 105); fill-opacity: 0.25;"/></g><g class="text"/></g><g class="trace scatter trace10f8a7" style="stroke-miterlimit: 2; opacity: 1;"><g class="fills"/><g class="errorbars"/><g class="lines"><path class="js-line" d="M0,290.21Q2.53,292.1 4.47,293.43C7.93,295.8 15.7,302 19.14,302.97C20.77,303.43 21.87,303.4 23.05,302.87C24.43,302.25 25.57,300.68 26.68,298.96C28.23,296.56 29.64,290.47 30.74,289.35C31.09,288.99 31.32,289.14 31.71,288.92C32.37,288.54 33.19,287.24 34.23,287.12C35.66,286.95 38.25,288.53 39.68,289.32C40.72,289.9 41.42,290.38 42.19,291.14C43.07,292.01 43.81,293.59 44.57,294.36C45.1,294.9 46.04,295.59 46.1,295.53C46.18,295.44 43.46,292.37 43.45,292.38Q43.43,292.4 48.48,298.66" style="vector-effect: non-scaling-stroke; fill: none; stroke: rgb(240, 125, 0); stroke-opacity: 1; stroke-width: 7px; opacity: 1;"/></g><g class="points"/><g class="text"/></g><g class="trace scatter tracec9b4ff" style="stroke-miterlimit: 2; opacity: 1;"><g class="fills"/><g class="errorbars"/><g class="lines"/><g class="points"><path class="point" transform="translate(0,288.45)" d="M7.5,0A7.5,7.5 0 1,1 0,-7.5A7.5,7.5 0 0,1 7.5,0Z" style="opacity: 1; stroke-width: 0px; fill: rgb(240, 125, 0); fill-opacity: 0.25;"/><path class="point" transform="translate(4.47,294.64)" d="M7.5,0A7.5,7.5 0 1,1 0,-7.5A7.5,7.5 0 0,1 7.5,0Z" style="opacity: 1; stroke-width: 0px; fill: rgb(240, 125, 0); fill-opacity: 0.25;"/><path class="point" transform="translate(19.14,303.48)" d="M7.5,0A7.5,7.5 0 1,1 0,-7.5A7.5,7.5 0 0,1 7.5,0Z" style="opacity: 1; stroke-width: 0px; fill: rgb(240, 125, 0); fill-opacity: 0.25;"/><path class="point" transform="translate(23.05,307.9)" d="M7.5,0A7.5,7.5 0 1,1 0,-7.5A7.5,7.5 0 0,1 7.5,0Z" style="opacity: 1; stroke-width: 0px; fill: rgb(240, 125, 0); fill-opacity: 0.25;"/><path class="point" transform="translate(26.68,307.9)" d="M7.5,0A7.5,7.5 0 1,1 0,-7.5A7.5,7.5 0 0,1 7.5,0Z" style="opacity: 1; stroke-width: 0px; fill: rgb(240, 125, 0); fill-opacity: 0.25;"/><path class="point" transform="translate(30.74,281.38)" d="M7.5,0A7.5,7.5 0 1,1 0,-7.5A7.5,7.5 0 0,1 7.5,0Z" style="opacity: 1; stroke-width: 0px; fill: rgb(240, 125, 0); fill-opacity: 0.25;"/><path class="point" transform="translate(31.71,290.22)" d="M7.5,0A7.5,7.5 0 1,1 0,-7.5A7.5,7.5 0 0,1 7.5,0Z" style="opacity: 1; stroke-width: 0px; fill: rgb(240, 125, 0); fill-opacity: 0.25;"/><path class="point" transform="translate(34.23,280.5)" d="M7.5,0A7.5,7.5 0 1,1 0,-7.5A7.5,7.5 0 0,1 7.5,0Z" style="opacity: 1; stroke-width: 0px; fill: rgb(240, 125, 0); fill-opacity: 0.25;"/><path class="point" transform="translate(39.68,285.8)" d="M7.5,0A7.5,7.5 0 1,1 0,-7.5A7.5,7.5 0 0,1 7.5,0Z" style="opacity: 1; stroke-width: 0px; fill: rgb(240, 125, 0); fill-opacity: 0.25;"/><path class="point" transform="translate(42.19,287.57)" d="M7.5,0A7.5,7.5 0 1,1 0,-7.5A7.5,7.5 0 0,1 7.5,0Z" style="opacity: 1; stroke-width: 0px; fill: rgb(240, 125, 0); fill-opacity: 0.25;"/><path class="point" transform="translate(44.57,303.48)" d="M7.5,0A7.5,7.5 0 1,1 0,-7.5A7.5,7.5 0 0,1 7.5,0Z" style="opacity: 1; stroke-width: 0px; fill: rgb(240, 125, 0); fill-opacity: 0.25;"/><path class="point" transform="translate(46.1,294.64)" d="M7.5,0A7.5,7.5 0 1,1 0,-7.5A7.5,7.5 0 0,1 7.5,0Z" style="opacity: 1; stroke-width: 0px; fill: rgb(240, 125, 0); fill-opacity: 0.25;"/><path class="point" transform="translate(43.45,285.8)" d="M7.5,0A7.5,7.5 0 1,1 0,-7.5A7.5,7.5 0 0,1 7.5,0Z" style="opacity: 1; stroke-width: 0px; fill: rgb(240, 125, 0); fill-opacity: 0.25;"/><path class="point" transform="translate(48.48,307.9)" d="M7.5,0A7.5,7.5 0 1,1 0,-7.5A7.5,7.5 0 0,1 7.5,0Z" style="opacity: 1; stroke-width: 0px; fill: rgb(240, 125, 0); fill-opacity: 0.25;"/></g><g class="text"/></g><g class="trace scatter trace5d8463" style="stroke-miterlimit: 2; opacity: 1;"><g class="fills"/><g class="errorbars"/><g class="lines"><path class="js-line" d="M0,293.55Q1.78,301.24 4.47,302.92C7.67,304.92 15.82,303.11 19.14,302.82C20.87,302.67 21.81,301.96 23.05,302.17C24.32,302.39 25.43,303.5 26.68,304.16C27.99,304.86 29.87,305.7 30.74,306.26C31.19,306.55 31.28,306.88 31.71,307.02C32.33,307.22 33.29,307.26 34.23,306.92C35.78,306.37 38.18,303.8 39.68,302.82C40.65,302.19 41.34,301.75 42.19,301.41C42.97,301.1 43.88,301.08 44.57,300.82C45.15,300.6 46.12,300.08 46.1,300.04C46.08,299.99 43.47,301 43.45,300.95Q43.42,300.88 48.48,298.68" style="vector-effect: non-scaling-stroke; fill: none; stroke: rgb(0, 51, 255); stroke-opacity: 1; stroke-width: 7px; opacity: 1;"/></g><g class="points"/><g class="text"/></g><g class="trace scatter trace8024e7" style="stroke-miterlimit: 2; opacity: 1;"><g class="fills"/><g class="errorbars"/><g class="lines"/><g class="points"><path class="point" transform="translate(0,288.45)" d="M7.5,0A7.5,7.5 0 1,1 0,-7.5A7.5,7.5 0 0,1 7.5,0Z" style="opacity: 1; stroke-width: 0px; fill: rgb(0, 51, 255); fill-opacity: 0.25;"/><path class="point" transform="translate(4.47,307.9)" d="M7.5,0A7.5,7.5 0 1,1 0,-7.5A7.5,7.5 0 0,1 7.5,0Z" style="opacity: 1; stroke-width: 0px; fill: rgb(0, 51, 255); fill-opacity: 0.25;"/><path class="point" transform="translate(19.14,303.48)" d="M7.5,0A7.5,7.5 0 1,1 0,-7.5A7.5,7.5 0 0,1 7.5,0Z" style="opacity: 1; stroke-width: 0px; fill: rgb(0, 51, 255); fill-opacity: 0.25;"/><path class="point" transform="translate(23.05,299.06)" d="M7.5,0A7.5,7.5 0 1,1 0,-7.5A7.5,7.5 0 0,1 7.5,0Z" style="opacity: 1; stroke-width: 0px; fill: rgb(0, 51, 255); fill-opacity: 0.25;"/><path class="point" transform="translate(26.68,303.48)" d="M7.5,0A7.5,7.5 0 1,1 0,-7.5A7.5,7.5 0 0,1 7.5,0Z" style="opacity: 1; stroke-width: 0px; fill: rgb(0, 51, 255); fill-opacity: 0.25;"/><path class="point" transform="translate(30.74,303.48)" d="M7.5,0A7.5,7.5 0 1,1 0,-7.5A7.5,7.5 0 0,1 7.5,0Z" style="opacity: 1; stroke-width: 0px; fill: rgb(0, 51, 255); fill-opacity: 0.25;"/><path class="point" transform="translate(31.71,312.32)" d="M7.5,0A7.5,7.5 0 1,1 0,-7.5A7.5,7.5 0 0,1 7.5,0Z" style="opacity: 1; stroke-width: 0px; fill: rgb(0, 51, 255); fill-opacity: 0.25;"/><path class="point" transform="translate(34.23,310.55)" d="M7.5,0A7.5,7.5 0 1,1 0,-7.5A7.5,7.5 0 0,1 7.5,0Z" style="opacity: 1; stroke-width: 0px; fill: rgb(0, 51, 255); fill-opacity: 0.25;"/><path class="point" transform="translate(39.68,303.48)" d="M7.5,0A7.5,7.5 0 1,1 0,-7.5A7.5,7.5 0 0,1 7.5,0Z" style="opacity: 1; stroke-width: 0px; fill: rgb(0, 51, 255); fill-opacity: 0.25;"/><path class="point" transform="translate(42.19,300.83)" d="M7.5,0A7.5,7.5 0 1,1 0,-7.5A7.5,7.5 0 0,1 7.5,0Z" style="opacity: 1; stroke-width: 0px; fill: rgb(0, 51, 255); fill-opacity: 0.25;"/><path class="point" transform="translate(44.57,303.48)" d="M7.5,0A7.5,7.5 0 1,1 0,-7.5A7.5,7.5 0 0,1 7.5,0Z" style="opacity: 1; stroke-width: 0px; fill: rgb(0, 51, 255); fill-opacity: 0.25;"/><path class="point" transform="translate(46.1,299.06)" d="M7.5,0A7.5,7.5 0 1,1 0,-7.5A7.5,7.5 0 0,1 7.5,0Z" style="opacity: 1; stroke-width: 0px; fill: rgb(0, 51, 255); fill-opacity: 0.25;"/><path class="point" transform="translate(43.45,299.06)" d="M7.5,0A7.5,7.5 0 1,1 0,-7.5A7.5,7.5 0 0,1 7.5,0Z" style="opacity: 1; stroke-width: 0px; fill: rgb(0, 51, 255); fill-opacity: 0.25;"/><path class="point" transform="translate(48.48,294.64)" d="M7.5,0A7.5,7.5 0 1,1 0,-7.5A7.5,7.5 0 0,1 7.5,0Z" style="opacity: 1; stroke-width: 0px; fill: rgb(0, 51, 255); fill-opacity: 0.25;"/></g><g class="text"/></g><g class="trace scatter trace62dd3e" style="stroke-miterlimit: 2; opacity: 1;"><g class="fills"/><g class="errorbars"/><g class="lines"><path class="js-line" d="M0,298.56Q2.67,298.5 4.47,299.27C8.1,300.82 15.7,309.87 19.14,310.4C20.77,310.65 21.75,309.23 23.05,309C24.26,308.78 25.48,309.31 26.68,308.97C28.05,308.59 29.83,306.77 30.74,306.54C31.15,306.43 31.31,306.61 31.71,306.58C32.35,306.54 33.23,306.25 34.23,306.14C35.7,305.98 38.22,306.15 39.68,305.91C40.69,305.74 41.4,305.02 42.19,305.17C43.04,305.33 43.94,306.2 44.57,307.04C45.3,308.02 46.16,310.83 46.1,310.86C46.03,310.89 43.23,305.83 43.45,305.68Q43.7,305.51 48.48,311.23" style="vector-effect: non-scaling-stroke; fill: none; stroke: rgb(140, 0, 0); stroke-opacity: 1; stroke-width: 7px; opacity: 1;"/></g><g class="points"/><g class="text"/></g><g class="trace scatter traceb446fe" style="stroke-miterlimit: 2; opacity: 1;"><g class="fills"/><g class="errorbars"/><g class="lines"/><g class="points"><path class="point" transform="translate(0,298.18)" d="M7.5,0A7.5,7.5 0 1,1 0,-7.5A7.5,7.5 0 0,1 7.5,0Z" style="opacity: 1; stroke-width: 0px; fill: rgb(140, 0, 0); fill-opacity: 0.25;"/><path class="point" transform="translate(4.47,299.06)" d="M7.5,0A7.5,7.5 0 1,1 0,-7.5A7.5,7.5 0 0,1 7.5,0Z" style="opacity: 1; stroke-width: 0px; fill: rgb(140, 0, 0); fill-opacity: 0.25;"/><path class="point" transform="translate(19.14,312.32)" d="M7.5,0A7.5,7.5 0 1,1 0,-7.5A7.5,7.5 0 0,1 7.5,0Z" style="opacity: 1; stroke-width: 0px; fill: rgb(140, 0, 0); fill-opacity: 0.25;"/><path class="point" transform="translate(23.05,307.9)" d="M7.5,0A7.5,7.5 0 1,1 0,-7.5A7.5,7.5 0 0,1 7.5,0Z" style="opacity: 1; stroke-width: 0px; fill: rgb(140, 0, 0); fill-opacity: 0.25;"/><path class="point" transform="translate(26.68,312.32)" d="M7.5,0A7.5,7.5 0 1,1 0,-7.5A7.5,7.5 0 0,1 7.5,0Z" style="opacity: 1; stroke-width: 0px; fill: rgb(140, 0, 0); fill-opacity: 0.25;"/><path class="point" transform="translate(30.74,303.48)" d="M7.5,0A7.5,7.5 0 1,1 0,-7.5A7.5,7.5 0 0,1 7.5,0Z" style="opacity: 1; stroke-width: 0px; fill: rgb(140, 0, 0); fill-opacity: 0.25;"/><path class="point" transform="translate(31.71,307.9)" d="M7.5,0A7.5,7.5 0 1,1 0,-7.5A7.5,7.5 0 0,1 7.5,0Z" style="opacity: 1; stroke-width: 0px; fill: rgb(140, 0, 0); fill-opacity: 0.25;"/><path class="point" transform="translate(34.23,305.25)" d="M7.5,0A7.5,7.5 0 1,1 0,-7.5A7.5,7.5 0 0,1 7.5,0Z" style="opacity: 1; stroke-width: 0px; fill: rgb(140, 0, 0); fill-opacity: 0.25;"/><path class="point" transform="translate(39.68,307.9)" d="M7.5,0A7.5,7.5 0 1,1 0,-7.5A7.5,7.5 0 0,1 7.5,0Z" style="opacity: 1; stroke-width: 0px; fill: rgb(140, 0, 0); fill-opacity: 0.25;"/><path class="point" transform="translate(42.19,299.94)" d="M7.5,0A7.5,7.5 0 1,1 0,-7.5A7.5,7.5 0 0,1 7.5,0Z" style="opacity: 1; stroke-width: 0px; fill: rgb(140, 0, 0); fill-opacity: 0.25;"/><path class="point" transform="translate(44.57,299.06)" d="M7.5,0A7.5,7.5 0 1,1 0,-7.5A7.5,7.5 0 0,1 7.5,0Z" style="opacity: 1; stroke-width: 0px; fill: rgb(140, 0, 0); fill-opacity: 0.25;"/><path class="point" transform="translate(43.45,299.06)" d="M7.5,0A7.5,7.5 0 1,1 0,-7.5A7.5,7.5 0 0,1 7.5,0Z" style="opacity: 1; stroke-width: 0px; fill: rgb(140, 0, 0); fill-opacity: 0.25;"/><path class="point" transform="translate(48.48,312.32)" d="M7.5,0A7.5,7.5 0 1,1 0,-7.5A7.5,7.5 0 0,1 7.5,0Z" style="opacity: 1; stroke-width: 0px; fill: rgb(140, 0, 0); fill-opacity: 0.25;"/></g><g class="text"/></g></g></g><g class="overplot"/><path class="xlines-above crisp" d="M0,0" style="fill: none;"/><path class="ylines-above crisp" d="M0,0" style="fill: none;"/><g class="overlines-above"/><g class="xaxislayer-above"><g class="xtick"><text text-anchor="middle" x="0" y="363" transform="translate(61.74,0)" style="font-family: 'Open Sans', verdana, arial, sans-serif; font-size: 12px; fill: rgb(42, 63, 95); fill-opacity: 1; white-space: pre; opacity: 1;">1.1.22</text></g><g class="xtick"><text text-anchor="middle" x="0" y="363" style="font-family: 'Open Sans', verdana, arial, sans-serif; font-size: 12px; fill: rgb(42, 63, 95); fill-opacity: 1; white-space: pre; opacity: 1;" transform="translate(112.72999999999999,0)">1.1.23</text></g><g class="xtick"><text text-anchor="middle" x="0" y="363" style="font-family: 'Open Sans', verdana, arial, sans-serif; font-size: 12px; fill: rgb(42, 63, 95); fill-opacity: 1; white-space: pre; opacity: 1;" transform="translate(163.72,0)">1.1.24</text></g><g class="xtick"><text text-anchor="middle" x="0" y="363" style="font-family: 'Open Sans', verdana, arial, sans-serif; font-size: 12px; fill: rgb(42, 63, 95); fill-opacity: 1; white-space: pre; opacity: 1;" transform="translate(214.86,0)">1.1.25</text></g></g><g class="yaxislayer-above"><g class="ytick"><text text-anchor="end" x="49" y="4.199999999999999" transform="translate(0,350)" style="font-family: 'Open Sans', verdana, arial, sans-serif; font-size: 12px; fill: rgb(42, 63, 95); fill-opacity: 1; white-space: pre; opacity: 1;">0%</text></g><g class="ytick"><text text-anchor="end" x="49" y="4.199999999999999" style="font-family: 'Open Sans', verdana, arial, sans-serif; font-size: 12px; fill: rgb(42, 63, 95); fill-opacity: 1; white-space: pre; opacity: 1;" transform="translate(0,305.8)">5%</text></g><g class="ytick"><text text-anchor="end" x="49" y="4.199999999999999" style="font-family: 'Open Sans', verdana, arial, sans-serif; font-size: 12px; fill: rgb(42, 63, 95); fill-opacity: 1; white-space: pre; opacity: 1;" transform="translate(0,261.6)">10%</text></g><g class="ytick"><text text-anchor="end" x="49" y="4.199999999999999" style="font-family: 'Open Sans', verdana, arial, sans-serif; font-size: 12px; fill: rgb(42, 63, 95); fill-opacity: 1; white-space: pre; opacity: 1;" transform="translate(0,217.4)">15%</text></g><g class="ytick"><text text-anchor="end" x="49" y="4.199999999999999" style="font-family: 'Open Sans', verdana, arial, sans-serif; font-size: 12px; fill: rgb(42, 63, 95); fill-opacity: 1; white-space: pre; opacity: 1;" transform="translate(0,173.2)">20%</text></g><g class="ytick"><text text-anchor="end" x="49" y="4.199999999999999" style="font-family: 'Open Sans', verdana, arial, sans-serif; font-size: 12px; fill: rgb(42, 63, 95); fill-opacity: 1; white-space: pre; opacity: 1;" transform="translate(0,129)">25%</text></g><g class="ytick"><text text-anchor="end" x="49" y="4.199999999999999" style="font-family: 'Open Sans', verdana, arial, sans-serif; font-size: 12px; fill: rgb(42, 63, 95); fill-opacity: 1; white-space: pre; opacity: 1;" transform="translate(0,84.8)">30%</text></g><g class="ytick"><text text-anchor="end" x="49" y="4.199999999999999" style="font-family: 'Open Sans', verdana, arial, sans-serif; font-size: 12px; fill: rgb(42, 63, 95); fill-opacity: 1; white-space: pre; opacity: 1;" transform="translate(0,40.6)">35%</text></g></g><g class="overaxes-above"/></g></g><g class="polarlayer"/><g class="smithlayer"/><g class="ternarylayer"/><g class="geolayer"/><g class="funnelarealayer"/><g class="pielayer"/><g class="iciclelayer"/><g class="treemaplayer"/><g class="sunburstlayer"/><g class="glimages"/><defs id="topdefs-d4ab56"><g class="clips"/><clipPath id="legendd4ab56"><rect width="131" height="200" x="0" y="0"/></clipPath></defs><g class="layer-above"><g class="imagelayer"/><g class="shapelayer"/></g><g class="infolayer"><g class="legend" pointer-events="all" transform="translate(257.06,20)"><rect class="bg" shape-rendering="crispEdges" width="131" height="200" x="0" y="0" style="stroke: rgb(68, 68, 68); stroke-opacity: 1; fill: rgb(255, 255, 255); fill-opacity: 1; stroke-width: 0px;"/><g class="scrollbox" transform="" clip-path="url(#legendd4ab56)"><g class="groups"><g class="traces" transform="translate(0,14.5)" style="opacity: 1;"><text class="legendtext" text-anchor="start" x="40" y="4.680000000000001" style="font-family: 'Open Sans', verdana, arial, sans-serif; font-size: 12px; fill: rgb(42, 63, 95); fill-opacity: 1; white-space: pre;">ANO: 30%</text><g class="layers" style="opacity: 1;"><g class="legendfill"/><g class="legendlines"><path class="js-line" d="M5,0h30" style="fill: none; stroke: rgb(38, 16, 96); stroke-opacity: 1; stroke-width: 7px;"/></g><g class="legendsymbols"><g class="legendpoints"/></g></g><rect class="legendtoggle" x="0" y="-9.5" width="125.359375" height="19" style="fill: rgb(0, 0, 0); fill-opacity: 0;"/></g><g class="traces" transform="translate(0,33.5)" style="opacity: 1;"><text class="legendtext" text-anchor="start" x="40" y="4.680000000000001" style="font-family: 'Open Sans', verdana, arial, sans-serif; font-size: 12px; fill: rgb(42, 63, 95); fill-opacity: 1; white-space: pre;">ODS: 17%</text><g class="layers" style="opacity: 1;"><g class="legendfill"/><g class="legendlines"><path class="js-line" d="M5,0h30" style="fill: none; stroke: rgb(0, 68, 148); stroke-opacity: 1; stroke-width: 7px;"/></g><g class="legendsymbols"><g class="legendpoints"/></g></g><rect class="legendtoggle" x="0" y="-9.5" width="125.359375" height="19" style="fill: rgb(0, 0, 0); fill-opacity: 0;"/></g><g class="traces" transform="translate(0,52.5)" style="opacity: 1;"><text class="legendtext" text-anchor="start" x="40" y="4.680000000000001" style="font-family: 'Open Sans', verdana, arial, sans-serif; font-size: 12px; fill: rgb(42, 63, 95); fill-opacity: 1; white-space: pre;">SPD: 12%</text><g class="layers" style="opacity: 1;"><g class="legendfill"/><g class="legendlines"><path class="js-line" d="M5,0h30" style="fill: none; stroke: rgb(234, 35, 41); stroke-opacity: 1; stroke-width: 7px;"/></g><g class="legendsymbols"><g class="legendpoints"/></g></g><rect class="legendtoggle" x="0" y="-9.5" width="125.359375" height="19" style="fill: rgb(0, 0, 0); fill-opacity: 0;"/></g><g class="traces" transform="translate(0,71.5)" style="opacity: 1;"><text class="legendtext" text-anchor="start" x="40" y="4.680000000000001" style="font-family: 'Open Sans', verdana, arial, sans-serif; font-size: 12px; fill: rgb(42, 63, 95); fill-opacity: 1; white-space: pre;">Pirti: 9%</text><g class="layers" style="opacity: 1;"><g class="legendfill"/><g class="legendlines"><path class="js-line" d="M5,0h30" style="fill: none; stroke: rgb(0, 0, 0); stroke-opacity: 1; stroke-width: 7px;"/></g><g class="legendsymbols"><g class="legendpoints"/></g></g><rect class="legendtoggle" x="0" y="-9.5" width="125.359375" height="19" style="fill: rgb(0, 0, 0); fill-opacity: 0;"/></g><g class="traces" transform="translate(0,90.5)" style="opacity: 1;"><text class="legendtext" text-anchor="start" x="40" y="4.680000000000001" style="font-family: 'Open Sans', verdana, arial, sans-serif; font-size: 12px; fill: rgb(42, 63, 95); fill-opacity: 1; white-space: pre;">STAN: 6%</text><g class="layers" style="opacity: 1;"><g class="legendfill"/><g class="legendlines"><path class="js-line" d="M5,0h30" style="fill: none; stroke: rgb(93, 140, 0); stroke-opacity: 1; stroke-width: 7px;"/></g><g class="legendsymbols"><g class="legendpoints"/></g></g><rect class="legendtoggle" x="0" y="-9.5" width="125.359375" height="19" style="fill: rgb(0, 0, 0); fill-opacity: 0;"/></g><g class="traces" transform="translate(0,109.5)" style="opacity: 1;"><text class="legendtext" text-anchor="start" x="40" y="4.680000000000001" style="font-family: 'Open Sans', verdana, arial, sans-serif; font-size: 12px; fill: rgb(42, 63, 95); fill-opacity: 1; white-space: pre;">KDU-SL: 5%</text><g class="layers" style="opacity: 1;"><g class="legendfill"/><g class="legendlines"><path class="js-line" d="M5,0h30" style="fill: none; stroke: rgb(230, 172, 33); stroke-opacity: 1; stroke-width: 7px;"/></g><g class="legendsymbols"><g class="legendpoints"/></g></g><rect class="legendtoggle" x="0" y="-9.5" width="125.359375" height="19" style="fill: rgb(0, 0, 0); fill-opacity: 0;"/></g><g class="traces" transform="translate(0,128.5)" style="opacity: 1;"><text class="legendtext" text-anchor="start" x="40" y="4.680000000000001" style="font-family: 'Open Sans', verdana, arial, sans-serif; font-size: 12px; fill: rgb(42, 63, 95); fill-opacity: 1; white-space: pre;">TOP 09: 4%</text><g class="layers" style="opacity: 1;"><g class="legendfill"/><g class="legendlines"><path class="js-line" d="M5,0h30" style="fill: none; stroke: rgb(114, 55, 105); stroke-opacity: 1; stroke-width: 7px;"/></g><g class="legendsymbols"><g class="legendpoints"/></g></g><rect class="legendtoggle" x="0" y="-9.5" width="125.359375" height="19" style="fill: rgb(0, 0, 0); fill-opacity: 0;"/></g><g class="traces" transform="translate(0,147.5)" style="opacity: 1;"><text class="legendtext" text-anchor="start" x="40" y="4.680000000000001" style="font-family: 'Open Sans', verdana, arial, sans-serif; font-size: 12px; fill: rgb(42, 63, 95); fill-opacity: 1; white-space: pre;">SSD: 4%</text><g class="layers" style="opacity: 1;"><g class="legendfill"/><g class="legendlines"><path class="js-line" d="M5,0h30" style="fill: none; stroke: rgb(240, 125, 0); stroke-opacity: 1; stroke-width: 7px;"/></g><g class="legendsymbols"><g class="legendpoints"/></g></g><rect class="legendtoggle" x="0" y="-9.5" width="125.359375" height="19" style="fill: rgb(0, 0, 0); fill-opacity: 0;"/></g><g class="traces" transform="translate(0,166.5)" style="opacity: 1;"><text class="legendtext" text-anchor="start" x="40" y="4.680000000000001" style="font-family: 'Open Sans', verdana, arial, sans-serif; font-size: 12px; fill: rgb(42, 63, 95); fill-opacity: 1; white-space: pre;">Psaha: 4%</text><g class="layers" style="opacity: 1;"><g class="legendfill"/><g class="legendlines"><path class="js-line" d="M5,0h30" style="fill: none; stroke: rgb(0, 51, 255); stroke-opacity: 1; stroke-width: 7px;"/></g><g class="legendsymbols"><g class="legendpoints"/></g></g><rect class="legendtoggle" x="0" y="-9.5" width="125.359375" height="19" style="fill: rgb(0, 0, 0); fill-opacity: 0;"/></g><g class="traces" transform="translate(0,185.5)" style="opacity: 1;"><text class="legendtext" text-anchor="start" x="40" y="4.680000000000001" style="font-family: 'Open Sans', verdana, arial, sans-serif; font-size: 12px; fill: rgb(42, 63, 95); fill-opacity: 1; white-space: pre;">KSM: 2%</text><g class="layers" style="opacity: 1;"><g class="legendfill"/><g class="legendlines"><path class="js-line" d="M5,0h30" style="fill: none; stroke: rgb(140, 0, 0); stroke-opacity: 1; stroke-width: 7px;"/></g><g class="legendsymbols"><g class="legendpoints"/></g></g><rect class="legendtoggle" x="0" y="-9.5" width="125.359375" height="19" style="fill: rgb(0, 0, 0); fill-opacity: 0;"/></g></g></g><rect class="scrollbar" rx="20" ry="3" width="0" height="0" x="0" y="0" style="fill: rgb(128, 139, 164); fill-opacity: 1;"/></g><g class="g-gtitle"/><g class="g-xtitle"/><g class="g-ytitle"/></g></svg>