<svg class="main-svg" xmlns="http://www.w3.org/2000/svg" xmlns:xlink="http://www.w3.org/1999/xlink" width="300" height="135" style="" viewBox="0 0 300 135"><rect x="0" y="0" width="300" height="135" style="fill: rgb(255, 255, 255); fill-opacity: 1;"/><defs id="defs-1cabb7"><g class="clips"><clipPath id="clip1cabb7xyplot" class="plotclip"><rect width="280" height="75"/></clipPath><clipPath class="axesclip" id="clip1cabb7x"><rect x="10" y="0" width="280" height="135"/></clipPath><clipPath class="axesclip" id="clip1cabb7y"><rect x="0" y="50" width="300" height="75"/></clipPath><clipPath class="axesclip" id="clip1cabb7xy"><rect x="10" y="50" width="280" height="75"/></clipPath></g><g class="gradients"/><g class="patterns"/></defs><g class="bglayer"/><g class="layer-below"><g class="imagelayer"/><g class="shapelayer"/></g><g class="cartesianlayer"><g class="subplot xy"><g class="layer-subplot"><g class="shapelayer"/><g class="imagelayer"/></g><g class="minor-gridlayer"><g class="x"/><g class="y"/></g><g class="gridlayer"><g class="x"><path class="xgrid crisp" transform="translate(29.75,0)" d="M0,50v75" style="stroke: rgb(235, 240, 248); stroke-opacity: 1; stroke-width: 1px;"/><path class="xgrid crisp" transform="translate(115.56,0)" d="M0,50v75" style="stroke: rgb(235, 240, 248); stroke-opacity: 1; stroke-width: 1px;"/><path class="xgrid crisp" transform="translate(201.37,0)" d="M0,50v75" style="stroke: rgb(235, 240, 248); stroke-opacity: 1; stroke-width: 1px;"/><path class="xgrid crisp" transform="translate(287.41,0)" d="M0,50v75" style="stroke: rgb(235, 240, 248); stroke-opacity: 1; stroke-width: 1px;"/></g><g class="y"><path class="ygrid crisp" transform="translate(0,104.14)" d="M10,0h280" style="stroke: rgb(235, 240, 248); stroke-opacity: 1; stroke-width: 1px;"/><path class="ygrid crisp" transform="translate(0,83.27000000000001)" d="M10,0h280" style="stroke: rgb(235, 240, 248); stroke-opacity: 1; stroke-width: 1px;"/><path class="ygrid crisp" transform="translate(0,62.41)" d="M10,0h280" style="stroke: rgb(235, 240, 248); stroke-opacity: 1; stroke-width: 1px;"/></g></g><g class="zerolinelayer"><path class="yzl zl crisp" transform="translate(0,125)" d="M10,0h280" style="stroke: rgb(235, 240, 248); stroke-opacity: 1; stroke-width: 2px;"/></g><path class="xlines-below"/><path class="ylines-below"/><g class="overlines-below"/><g class="xaxislayer-below"/><g class="yaxislayer-below"/><g class="overaxes-below"/><g class="plot" transform="translate(10,50)" clip-path="url(#clip1cabb7xyplot)"><g class="scatterlayer mlayer"><g class="trace scatter tracede309d" style="stroke-miterlimit: 2; opacity: 1;"><g class="fills"/><g class="errorbars"/><g class="lines"><path class="js-line" d="M0,18.46Q4.29,18.52 7.52,18.68C13.38,18.97 26.66,21.13 32.21,20.39C35.16,20 36.61,18.67 38.79,18.11C40.84,17.58 42.81,17.43 44.9,17.06C47.11,16.67 50.22,16.02 51.72,15.8C52.45,15.69 52.7,15.73 53.37,15.63C54.46,15.46 55.92,15.1 57.6,14.75C60.07,14.23 64.29,13.17 66.77,12.79C68.44,12.53 69.83,12.4 71,12.38C71.83,12.37 72.43,12.53 73.12,12.53C73.77,12.53 74.32,12.44 75,12.42C75.79,12.4 76.72,12.44 77.58,12.45C78.44,12.46 79.44,12.44 80.17,12.48C80.71,12.51 80.95,12.57 81.58,12.61C82.87,12.7 85.96,12.58 87.46,12.9C88.44,13.11 88.76,13.73 89.81,13.82C91.78,13.99 95.03,12.6 98.51,12.03C103.66,11.19 116.49,10.02 117.78,9.73C117.93,9.7 117.89,9.69 118.02,9.65C118.65,9.48 122,8.49 123.43,8.5C124.38,8.51 124.87,8.99 125.78,9.05C127.02,9.13 128.99,8.79 130.24,8.6C131.15,8.46 131.68,8.4 132.59,8.11C133.95,7.68 136.37,6.32 137.53,5.97C138.13,5.79 138.67,5.75 138.94,5.71C139.05,5.69 139.05,5.7 139.18,5.68C139.88,5.57 143.54,4.52 145.76,4.46C148.01,4.4 149.95,5.12 152.58,5.36C156.15,5.69 163.16,6.28 165.27,6.04C165.99,5.96 166.33,5.71 166.68,5.63C166.88,5.59 166.9,5.6 167.15,5.56C168.06,5.43 172.01,4.73 173.5,4.66C174.31,4.62 174.67,4.77 175.38,4.75C176.32,4.73 177.62,4.57 178.67,4.44C179.65,4.32 180.94,4.07 181.49,4.01C181.71,3.98 181.8,3.98 181.96,3.97C182.12,3.96 182.19,3.96 182.43,3.95C183.18,3.93 185.31,3.78 187.14,3.87C189.7,3.99 195.47,4.83 196.31,4.9C196.44,4.91 196.46,4.91 196.54,4.91C196.62,4.91 196.65,4.88 196.78,4.87C197.42,4.8 201.34,4.88 202.42,4.66C202.88,4.57 202.9,4.34 203.36,4.31C204.53,4.22 209.03,5.56 209.71,5.65C209.84,5.67 209.83,5.66 209.94,5.66C210.24,5.67 210.91,5.59 211.59,5.65C212.72,5.74 214.62,6.2 216.05,6.42C217.36,6.62 218.54,6.82 219.82,6.95C221.13,7.08 222.37,7.06 223.81,7.18C225.53,7.33 228.36,7.67 229.45,7.83C229.9,7.89 230.39,7.99 230.39,7.99C230.39,7.99 230.39,7.99 230.39,7.99C230.39,7.99 234.46,9.23 235.8,9.26C236.59,9.28 236.92,8.99 237.68,8.91C238.85,8.79 240.51,9.1 242.15,8.82C244.26,8.46 248.06,6.76 249.2,6.49C249.55,6.4 249.61,6.44 249.91,6.38C250.43,6.28 251.18,6.08 252.02,5.9C253.28,5.63 256.16,5 256.73,4.94C256.85,4.93 256.96,4.94 256.96,4.94C256.96,4.94 256.96,4.94 256.96,4.94C256.96,4.94 258.46,4.68 259.31,4.5C260.32,4.29 261.77,3.83 262.6,3.75C263.09,3.7 263.41,3.78 263.78,3.78C264.11,3.78 264.36,3.76 264.72,3.78C265.19,3.8 265.67,3.89 266.36,3.95C267.56,4.05 270.22,4.22 271.3,4.28C271.83,4.31 271.94,4.32 272.48,4.33C273.69,4.35 277.34,4.32 278.35,4.32C278.7,4.32 278.82,4.31 279.06,4.32C279.29,4.33 279.59,4.36 279.76,4.36Q279.86,4.36 280,4.34" style="vector-effect: none; fill: none; stroke: rgb(38, 16, 96); stroke-opacity: 1; stroke-width: 5px; opacity: 1;"/></g><g class="points"/><g class="text"/></g><g class="trace scatter trace082abf" style="stroke-miterlimit: 2; opacity: 1;"><g class="fills"/><g class="errorbars"/><g class="lines"><path class="js-line" d="M263.78,64.03Q264.36,64.03 264.72,64.03C265.19,64.03 265.77,64.35 266.36,64.03C267.76,63.26 270.06,56.95 271.3,56.27C271.75,56.03 272.04,56.53 272.48,56.27C273.91,55.43 277.28,47.13 278.35,45.66C278.66,45.23 278.81,45.11 279.06,44.9C279.28,44.71 279.58,44.52 279.76,44.43Q279.86,44.38 280,44.33" style="vector-effect: none; fill: none; stroke: rgb(0, 68, 148); stroke-opacity: 1; stroke-width: 5px; opacity: 1;"/></g><g class="points"/><g class="text"/></g><g class="trace scatter trace756e4a" style="stroke-miterlimit: 2; opacity: 1;"><g class="fills"/><g class="errorbars"/><g class="lines"><path class="js-line" d="M0,62.27Q3.56,53.51 7.52,51.64C12.98,49.07 26.63,52.67 32.21,53.49C35.12,53.92 36.64,54.44 38.79,54.95C40.87,55.44 42.84,55.79 44.9,56.49C47.14,57.25 50.23,58.72 51.72,59.4C52.46,59.74 52.69,59.9 53.37,60.2C54.45,60.68 55.89,61.46 57.6,61.92C60.04,62.58 64.29,62.97 66.77,63.22C68.45,63.39 69.83,63.41 71,63.47C71.83,63.51 72.44,63.59 73.12,63.55C73.77,63.51 74.32,63.33 75,63.26C75.79,63.18 76.72,63.23 77.58,63.16C78.44,63.09 79.44,62.94 80.17,62.83C80.71,62.75 80.95,62.62 81.58,62.57C82.87,62.47 85.94,62.72 87.46,62.71C88.42,62.7 88.78,62.67 89.81,62.61C91.79,62.5 95.04,62.23 98.51,61.98C103.67,61.61 116.49,60.66 117.78,60.61C117.92,60.6 117.89,60.61 118.02,60.61C118.65,60.62 122,60.58 123.43,60.73C124.38,60.83 124.87,61.09 125.78,61.19C127.03,61.32 128.99,61.16 130.24,61.26C131.15,61.33 131.66,61.49 132.59,61.6C133.93,61.75 136.38,61.94 137.53,62.01C138.14,62.05 138.67,62.06 138.94,62.07C139.05,62.07 139.05,62.07 139.18,62.07C139.88,62.09 143.55,62.4 145.76,62.38C148.01,62.36 149.95,62.03 152.58,61.92C156.16,61.77 163.16,61.89 165.27,61.72C165.98,61.66 166.34,61.56 166.68,61.51C166.88,61.48 166.9,61.46 167.15,61.44C168.05,61.37 172.01,61.5 173.5,61.46C174.31,61.44 174.67,61.37 175.38,61.35C176.32,61.32 177.62,61.36 178.67,61.35C179.65,61.34 180.95,61.33 181.49,61.31C181.71,61.3 181.8,61.29 181.96,61.28C182.12,61.27 182.19,61.28 182.43,61.27C183.18,61.25 185.31,61.2 187.14,61.1C189.69,60.96 195.47,60.51 196.31,60.46C196.44,60.45 196.46,60.45 196.54,60.45C196.62,60.45 196.65,60.45 196.78,60.44C197.42,60.39 201.33,59.82 202.42,59.82C202.86,59.82 202.91,59.88 203.36,59.92C204.54,60.03 209.03,60.43 209.71,60.44C209.84,60.44 209.83,60.44 209.94,60.43C210.24,60.41 210.91,60.38 211.59,60.28C212.72,60.12 214.62,59.66 216.05,59.42C217.36,59.2 218.55,59.08 219.82,58.88C221.13,58.67 222.36,58.37 223.81,58.17C225.52,57.93 228.36,57.77 229.45,57.58C229.9,57.5 230.39,57.34 230.39,57.34C230.39,57.34 230.39,57.34 230.39,57.34C230.39,57.34 234.46,56.35 235.8,56.14C236.58,56.02 236.92,56.04 237.68,55.96C238.85,55.83 240.49,55.58 242.15,55.4C244.23,55.18 248.07,55.01 249.2,54.76C249.57,54.68 249.61,54.62 249.91,54.51C250.43,54.31 251.17,53.93 252.02,53.64C253.27,53.21 256.16,52.43 256.73,52.34C256.85,52.32 256.96,52.33 256.96,52.33C256.96,52.33 256.96,52.33 256.96,52.33C256.96,52.33 258.46,52.39 259.31,52.43C260.31,52.48 261.78,52.55 262.6,52.63C263.09,52.68 263.41,52.77 263.78,52.78C264.11,52.79 264.36,52.73 264.72,52.71C265.19,52.68 265.67,52.71 266.36,52.65C267.57,52.55 270.22,52.13 271.3,51.99C271.83,51.92 271.94,51.85 272.48,51.84C273.69,51.82 277.34,52.4 278.35,52.41C278.7,52.41 278.82,52.38 279.06,52.35C279.29,52.32 279.59,52.24 279.76,52.22Q279.86,52.21 280,52.21" style="vector-effect: none; fill: none; stroke: rgb(206, 15, 104); stroke-opacity: 1; stroke-width: 5px; opacity: 1;"/></g><g class="points"/><g class="text"/></g><g class="trace scatter trace8c39cd" style="stroke-miterlimit: 2; opacity: 1;"><g class="fills"/><g class="errorbars"/><g class="lines"><path class="js-line" d="M0,54.97Q4.3,55.19 7.52,55.01C13.38,54.68 26.61,52.04 32.21,52.11C35.11,52.14 36.64,53.07 38.79,53.04C40.87,53.01 42.8,52.31 44.9,52C47.11,51.67 50.22,51.27 51.72,51.11C52.46,51.03 52.7,51.07 53.37,50.98C54.46,50.83 55.91,50.39 57.6,50.15C60.07,49.8 64.3,49.46 66.77,49.31C68.45,49.21 69.83,49.25 71,49.19C71.83,49.15 72.44,49 73.12,49.02C73.77,49.04 74.32,49.23 75,49.26C75.79,49.29 76.72,49.07 77.58,49.13C78.45,49.19 79.44,49.53 80.17,49.65C80.71,49.74 80.95,49.77 81.58,49.83C82.87,49.96 85.94,50.11 87.46,50.26C88.42,50.35 88.78,50.48 89.81,50.54C91.79,50.65 95.08,49.97 98.51,50.44C103.72,51.15 116.49,55.85 117.78,56.01C117.92,56.03 117.89,56 118.02,56C118.65,55.99 122,55.99 123.43,56.13C124.38,56.22 124.87,56.44 125.78,56.53C127.03,56.65 128.99,56.65 130.24,56.66C131.15,56.67 131.66,56.62 132.59,56.62C133.93,56.62 136.38,56.7 137.53,56.69C138.14,56.69 138.67,56.65 138.94,56.65C139.05,56.65 139.05,56.66 139.18,56.66C139.88,56.64 143.54,56.03 145.76,55.97C148.01,55.91 149.97,56.49 152.58,56.34C156.17,56.13 163.15,54.28 165.27,54.17C165.97,54.13 166.34,54.25 166.68,54.26C166.88,54.27 166.9,54.27 167.15,54.26C168.06,54.23 172.01,53.88 173.5,53.83C174.31,53.8 174.67,53.81 175.38,53.82C176.32,53.83 177.62,53.79 178.67,53.93C179.65,54.06 180.94,54.51 181.49,54.59C181.71,54.62 181.8,54.61 181.96,54.62C182.12,54.63 182.19,54.65 182.43,54.67C183.18,54.73 185.31,54.92 187.14,54.97C189.69,55.04 195.47,54.91 196.31,54.91C196.44,54.91 196.46,54.9 196.54,54.91C196.62,54.92 196.65,54.93 196.78,54.95C197.42,55.05 201.33,55.59 202.42,55.77C202.87,55.84 202.91,55.86 203.36,55.94C204.54,56.15 209.03,56.99 209.71,57.03C209.84,57.04 209.83,57.02 209.94,57.02C210.24,57.02 210.91,57.08 211.59,57.08C212.71,57.08 214.63,56.83 216.05,56.91C217.36,56.98 218.55,57.23 219.82,57.48C221.14,57.74 222.36,58.16 223.81,58.45C225.52,58.8 228.36,59.22 229.45,59.36C229.89,59.42 230.39,59.45 230.39,59.45C230.39,59.45 230.39,59.45 230.39,59.45C230.39,59.45 234.46,59.72 235.8,59.76C236.59,59.78 236.92,59.72 237.68,59.76C238.85,59.82 240.49,60.15 242.15,60.19C244.23,60.24 248.07,59.86 249.2,59.82C249.56,59.81 249.61,59.81 249.91,59.81C250.43,59.81 251.18,59.84 252.02,59.85C253.28,59.86 256.16,59.87 256.73,59.84C256.86,59.83 256.96,59.82 256.96,59.82C256.96,59.82 256.96,59.82 256.96,59.82C256.96,59.82 258.46,60.1 259.31,60.14C260.31,60.19 261.78,60.03 262.6,59.99C263.09,59.96 263.41,59.92 263.78,59.92C264.11,59.92 264.36,59.97 264.72,60C265.19,60.04 265.67,60.09 266.36,60.12C267.56,60.18 270.22,60.16 271.3,60.24C271.83,60.28 271.94,60.4 272.48,60.38C273.69,60.34 277.34,59.45 278.35,59.31C278.7,59.26 278.82,59.25 279.06,59.24C279.29,59.23 279.59,59.23 279.76,59.22Q279.86,59.21 280,59.19" style="vector-effect: none; fill: none; stroke: rgb(234, 35, 41); stroke-opacity: 1; stroke-width: 5px; opacity: 1;"/></g><g class="points"/><g class="text"/></g><g class="trace scatter trace807062" style="stroke-miterlimit: 2; opacity: 1;"><g class="fills"/><g class="errorbars"/><g class="lines"><path class="js-line" d="M0,55.18Q4.24,56.94 7.52,57.58C13.33,58.71 26.6,59.15 32.21,59.42C35.1,59.56 36.64,59.5 38.79,59.57C40.86,59.64 42.86,60.23 44.9,59.82C47.17,59.37 50.21,57.22 51.72,56.66C52.44,56.39 52.7,56.43 53.37,56.2C54.46,55.82 55.88,54.83 57.6,54.45C60.04,53.91 64.3,54.07 66.77,54.07C68.45,54.07 69.83,54.25 71,54.25C71.83,54.25 72.44,54.12 73.12,54.15C73.77,54.18 74.32,54.38 75,54.42C75.79,54.46 76.72,54.39 77.58,54.33C78.44,54.27 79.44,54.1 80.17,54.07C80.71,54.05 80.95,54.14 81.58,54.1C82.87,54.01 85.94,53.36 87.46,53.17C88.42,53.05 88.78,52.92 89.81,52.94C91.8,52.98 95.03,53.92 98.51,54.13C103.66,54.44 116.49,53.98 117.78,53.84C117.93,53.82 117.89,53.8 118.02,53.79C118.65,53.74 122,54.09 123.43,53.96C124.38,53.87 124.87,53.6 125.78,53.45C127.03,53.25 128.99,53.1 130.24,52.97C131.15,52.87 131.66,52.79 132.59,52.72C133.93,52.61 136.38,52.53 137.53,52.45C138.14,52.4 138.67,52.34 138.94,52.32C139.05,52.31 139.05,52.31 139.18,52.3C139.88,52.26 143.55,52.19 145.76,52.11C148.01,52.03 149.97,51.66 152.58,51.82C156.17,52.04 163.15,53.77 165.27,53.95C165.97,54.01 166.34,53.92 166.68,53.95C166.88,53.97 166.9,54.01 167.15,54.03C168.05,54.09 172.01,54 173.5,53.86C174.31,53.78 174.67,53.66 175.38,53.56C176.32,53.43 177.62,53.3 178.67,53.17C179.65,53.05 180.94,52.85 181.49,52.79C181.71,52.77 181.8,52.75 181.96,52.75C182.12,52.75 182.19,52.76 182.43,52.76C183.18,52.76 185.31,52.74 187.14,52.68C189.69,52.6 195.47,52.25 196.31,52.23C196.44,52.23 196.46,52.22 196.54,52.23C196.62,52.24 196.65,52.27 196.78,52.29C197.42,52.4 201.33,52.76 202.42,52.9C202.87,52.96 202.91,53 203.36,53.04C204.53,53.15 209.03,53.24 209.71,53.25C209.84,53.25 209.83,53.25 209.94,53.25C210.24,53.26 210.91,53.29 211.59,53.33C212.71,53.4 214.63,53.56 216.05,53.65C217.36,53.73 218.55,53.69 219.82,53.83C221.14,53.98 222.37,54.27 223.81,54.53C225.53,54.84 228.36,55.42 229.45,55.55C229.89,55.6 230.39,55.61 230.39,55.61C230.39,55.61 230.39,55.61 230.39,55.61C230.39,55.61 234.47,56.39 235.8,56.7C236.59,56.88 236.92,57.01 237.68,57.19C238.85,57.47 240.49,57.81 242.15,58.14C244.23,58.55 248.07,59.26 249.2,59.45C249.56,59.51 249.61,59.51 249.91,59.56C250.43,59.65 251.18,59.76 252.02,59.96C253.28,60.26 256.16,61.18 256.73,61.28C256.85,61.3 256.96,61.3 256.96,61.3C256.96,61.3 256.96,61.3 256.96,61.3C256.96,61.3 258.46,61.37 259.31,61.41C260.31,61.46 261.78,61.51 262.6,61.57C263.09,61.61 263.41,61.66 263.78,61.69C264.11,61.72 264.36,61.73 264.72,61.74C265.19,61.75 265.67,61.74 266.36,61.74C267.56,61.75 270.22,61.82 271.3,61.81C271.83,61.81 271.94,61.81 272.48,61.78C273.69,61.72 277.34,61.37 278.35,61.31C278.7,61.29 278.82,61.28 279.06,61.28C279.29,61.28 279.59,61.3 279.76,61.3Q279.86,61.3 280,61.3" style="vector-effect: none; fill: none; stroke: rgb(0, 0, 0); stroke-opacity: 1; stroke-width: 5px; opacity: 1;"/></g><g class="points"/><g class="text"/></g></g></g><g class="overplot"/><path class="xlines-above crisp" d="M0,0" style="fill: none;"/><path class="ylines-above crisp" d="M0,0" style="fill: none;"/><g class="overlines-above"/><g class="xaxislayer-above"/><g class="yaxislayer-above"/><g class="overaxes-above"/></g></g><g class="polarlayer"/><g class="smithlayer"/><g class="ternarylayer"/><g class="geolayer"/><g class="funnelarealayer"/><g class="pielayer"/><g class="iciclelayer"/><g class="treemaplayer"/><g class="sunburstlayer"/><g class="glimages"/><defs id="topdefs-1cabb7"><g class="clips"/></defs><g class="layer-above"><g class="imagelayer"/><g class="shapelayer"/></g><g class="infolayer"><g class="g-gtitle"><text class="gtitle" x="15" y="25" text-anchor="start" dy="0em" style="font-family: Ubuntu, verdana, arial, sans-serif; font-size: 16px; fill: rgb(233, 84, 32); opacity: 1; font-weight: normal; white-space: pre;">Sněmovna 2021-2025</text></g><g class="g-xtitle"/><g class="g-ytitle"/></g></svg>