<svg class="main-svg" xmlns="http://www.w3.org/2000/svg" xmlns:xlink="http://www.w3.org/1999/xlink" width="300" height="135" style="" viewBox="0 0 300 135"><rect x="0" y="0" width="300" height="135" style="fill: rgb(255, 255, 255); fill-opacity: 1;"/><defs id="defs-03cc75"><g class="clips"><clipPath id="clip03cc75xyplot" class="plotclip"><rect width="280" height="75"/></clipPath><clipPath class="axesclip" id="clip03cc75x"><rect x="10" y="0" width="280" height="135"/></clipPath><clipPath class="axesclip" id="clip03cc75y"><rect x="0" y="50" width="300" height="75"/></clipPath><clipPath class="axesclip" id="clip03cc75xy"><rect x="10" y="50" width="280" height="75"/></clipPath></g><g class="gradients"/><g class="patterns"/></defs><g class="bglayer"/><g class="layer-below"><g class="imagelayer"/><g class="shapelayer"/></g><g class="cartesianlayer"><g class="subplot xy"><g class="layer-subplot"><g class="shapelayer"/><g class="imagelayer"/></g><g class="minor-gridlayer"><g class="x"/><g class="y"/></g><g class="gridlayer"><g class="x"><path class="xgrid crisp" transform="translate(30.38,0)" d="M0,50v75" style="stroke: rgb(235, 240, 248); stroke-opacity: 1; stroke-width: 1px;"/><path class="xgrid crisp" transform="translate(118.94,0)" d="M0,50v75" style="stroke: rgb(235, 240, 248); stroke-opacity: 1; stroke-width: 1px;"/><path class="xgrid crisp" transform="translate(207.5,0)" d="M0,50v75" style="stroke: rgb(235, 240, 248); stroke-opacity: 1; stroke-width: 1px;"/></g><g class="y"><path class="ygrid crisp" transform="translate(0,104.22)" d="M10,0h280" style="stroke: rgb(235, 240, 248); stroke-opacity: 1; stroke-width: 1px;"/><path class="ygrid crisp" transform="translate(0,83.44)" d="M10,0h280" style="stroke: rgb(235, 240, 248); stroke-opacity: 1; stroke-width: 1px;"/><path class="ygrid crisp" transform="translate(0,62.66)" d="M10,0h280" style="stroke: rgb(235, 240, 248); stroke-opacity: 1; stroke-width: 1px;"/></g></g><g class="zerolinelayer"><path class="yzl zl crisp" transform="translate(0,125)" d="M10,0h280" style="stroke: rgb(235, 240, 248); stroke-opacity: 1; stroke-width: 2px;"/></g><path class="xlines-below"/><path class="ylines-below"/><g class="overlines-below"/><g class="xaxislayer-below"/><g class="yaxislayer-below"/><g class="overaxes-below"/><g class="plot" transform="translate(10,50)" clip-path="url(#clip03cc75xyplot)"><g class="scatterlayer mlayer"><g class="trace scatter trace34a270" style="stroke-miterlimit: 2; opacity: 1;"><g class="fills"/><g class="errorbars"/><g class="lines"><path class="js-line" d="M0,18.69Q4.43,18.75 7.76,18.91C13.8,19.2 27.5,21.35 33.24,20.61C36.28,20.22 37.79,18.9 40.03,18.34C42.15,17.81 44.18,17.66 46.34,17.29C48.62,16.9 51.83,16.25 53.38,16.04C54.14,15.94 54.39,15.97 55.08,15.87C56.2,15.7 57.72,15.34 59.45,14.99C62,14.47 66.35,13.41 68.91,13.03C70.64,12.77 72.07,12.63 73.28,12.62C74.13,12.61 74.75,12.76 75.46,12.77C76.13,12.78 76.7,12.68 77.4,12.67C78.22,12.65 79.18,12.69 80.07,12.7C80.96,12.71 81.99,12.69 82.74,12.73C83.3,12.76 83.54,12.81 84.19,12.85C85.52,12.94 88.71,12.82 90.26,13.14C91.27,13.35 91.61,13.97 92.69,14.06C94.72,14.23 98.07,12.84 101.66,12.28C106.98,11.45 120.25,10.28 121.56,9.99C121.71,9.96 121.67,9.95 121.8,9.91C122.44,9.74 125.9,8.75 127.38,8.76C128.36,8.77 128.87,9.25 129.81,9.31C131.1,9.39 133.13,9.05 134.42,8.86C135.36,8.72 135.91,8.67 136.85,8.38C138.25,7.95 140.74,6.6 141.94,6.25C142.56,6.07 143.12,6.04 143.4,5.99C143.51,5.97 143.51,5.97 143.64,5.95C144.36,5.83 148.14,4.8 150.43,4.74C152.75,4.68 154.76,5.4 157.47,5.64C161.16,5.97 168.39,6.55 170.57,6.31C171.31,6.23 171.67,5.99 172.03,5.91C172.23,5.87 172.26,5.87 172.51,5.83C173.44,5.69 177.52,5.01 179.06,4.94C179.9,4.9 180.27,5.05 181.01,5.03C181.99,5.01 183.31,4.85 184.4,4.72C185.41,4.6 186.74,4.35 187.31,4.29C187.54,4.26 187.64,4.26 187.8,4.25C187.96,4.24 188.04,4.24 188.28,4.23C189.05,4.21 191.26,4.06 193.14,4.15C195.78,4.27 201.73,5.11 202.6,5.18C202.74,5.19 202.76,5.19 202.84,5.19C202.92,5.19 202.95,5.16 203.08,5.15C203.73,5.08 207.79,5.16 208.91,4.94C209.38,4.85 209.41,4.62 209.88,4.59C211.09,4.5 215.73,5.84 216.43,5.93C216.56,5.95 216.55,5.94 216.67,5.94C216.98,5.95 217.67,5.87 218.37,5.93C219.53,6.02 221.51,6.47 222.98,6.69C224.33,6.89 225.54,7.1 226.86,7.23C228.21,7.36 229.5,7.34 230.99,7.46C232.77,7.61 235.69,7.96 236.81,8.11C237.27,8.17 237.78,8.26 237.78,8.26C237.78,8.26 237.78,8.26 237.78,8.26C237.78,8.26 241.98,9.53 243.36,9.56C244.17,9.58 244.51,9.28 245.3,9.21C246.51,9.1 248.22,9.43 249.91,9.16C252.08,8.81 256.02,7.11 257.19,6.84C257.55,6.76 257.61,6.79 257.92,6.73C258.45,6.63 259.23,6.44 260.1,6.25C261.4,5.97 264.37,5.31 264.96,5.25C265.09,5.24 265.2,5.25 265.2,5.25C265.2,5.25 265.2,5.25 265.2,5.25C265.2,5.25 266.76,4.96 267.63,4.75C268.67,4.49 270,3.93 271.02,3.78C271.82,3.66 272.53,3.71 273.21,3.75C273.81,3.78 274.18,3.89 274.9,3.95Q276.14,4.06 280,4.26" style="vector-effect: none; fill: none; stroke: rgb(38, 16, 96); stroke-opacity: 1; stroke-width: 5px; opacity: 1;"/></g><g class="points"/><g class="text"/></g><g class="trace scatter traceb5096c" style="stroke-miterlimit: 2; opacity: 1;"><g class="fills"/><g class="errorbars"/><g class="lines"><path class="js-line" d="M0,62.32Q3.71,53.6 7.76,51.73C13.41,49.12 27.48,52.76 33.24,53.58C36.25,54.01 37.81,54.52 40.03,55.03C42.18,55.52 44.21,55.86 46.34,56.56C48.65,57.31 51.84,58.79 53.38,59.47C54.14,59.81 54.38,59.96 55.08,60.26C56.19,60.74 57.68,61.51 59.45,61.97C61.97,62.63 66.35,63.01 68.91,63.26C70.64,63.43 72.07,63.45 73.28,63.51C74.13,63.55 74.76,63.64 75.46,63.6C76.13,63.56 76.7,63.38 77.4,63.31C78.22,63.23 79.18,63.28 80.07,63.21C80.96,63.14 81.99,62.98 82.74,62.87C83.3,62.79 83.54,62.67 84.19,62.62C85.52,62.52 88.69,62.77 90.26,62.76C91.25,62.75 91.63,62.72 92.69,62.66C94.74,62.55 98.08,62.28 101.66,62.03C106.99,61.66 120.25,60.71 121.56,60.67C121.7,60.67 121.67,60.67 121.8,60.67C122.44,60.68 125.91,60.64 127.38,60.79C128.36,60.89 128.87,61.15 129.81,61.24C131.1,61.37 133.13,61.21 134.42,61.31C135.36,61.38 135.89,61.55 136.85,61.66C138.23,61.81 140.76,61.99 141.94,62.06C142.57,62.1 143.12,62.11 143.4,62.12C143.51,62.12 143.51,62.12 143.64,62.12C144.36,62.14 148.15,62.45 150.43,62.43C152.76,62.41 154.76,62.09 157.47,61.98C161.16,61.83 168.39,61.94 170.57,61.77C171.3,61.71 171.68,61.61 172.03,61.56C172.23,61.53 172.26,61.52 172.51,61.5C173.44,61.44 177.52,61.55 179.06,61.51C179.9,61.49 180.27,61.43 181.01,61.41C181.98,61.39 183.31,61.42 184.4,61.41C185.41,61.4 186.75,61.39 187.31,61.37C187.54,61.36 187.64,61.35 187.8,61.34C187.96,61.33 188.04,61.33 188.28,61.32C189.05,61.29 191.25,61.25 193.14,61.16C195.77,61.03 201.73,60.57 202.6,60.52C202.74,60.51 202.76,60.51 202.84,60.51C202.92,60.51 202.95,60.51 203.08,60.5C203.74,60.45 207.78,59.88 208.91,59.88C209.37,59.88 209.41,59.94 209.88,59.98C211.09,60.09 215.73,60.49 216.43,60.5C216.56,60.5 216.55,60.5 216.67,60.49C216.98,60.47 217.67,60.44 218.37,60.34C219.53,60.18 221.51,59.72 222.98,59.48C224.33,59.26 225.55,59.15 226.86,58.95C228.22,58.74 229.49,58.44 230.99,58.24C232.76,58 235.69,57.85 236.81,57.66C237.27,57.58 237.78,57.42 237.78,57.42C237.78,57.42 237.78,57.42 237.78,57.42C237.78,57.42 241.98,56.43 243.36,56.22C244.17,56.1 244.52,56.13 245.3,56.05C246.51,55.92 248.2,55.67 249.91,55.49C252.06,55.27 256.03,55.11 257.19,54.85C257.57,54.77 257.61,54.7 257.92,54.58C258.45,54.37 259.22,53.98 260.1,53.66C261.39,53.19 264.37,52.29 264.96,52.19C265.09,52.17 265.2,52.18 265.2,52.18C265.2,52.18 265.2,52.18 265.2,52.18C265.2,52.18 266.75,52.17 267.63,52.17C268.67,52.16 270.01,52.13 271.02,52.15C271.83,52.17 272.53,52.21 273.21,52.26C273.81,52.3 274.18,52.39 274.9,52.41Q276.14,52.44 280,52.23" style="vector-effect: none; fill: none; stroke: rgb(206, 15, 104); stroke-opacity: 1; stroke-width: 5px; opacity: 1;"/></g><g class="points"/><g class="text"/></g><g class="trace scatter tracef1d3dc" style="stroke-miterlimit: 2; opacity: 1;"><g class="fills"/><g class="errorbars"/><g class="lines"><path class="js-line" d="M0,55.05Q4.43,55.27 7.76,55.09C13.81,54.76 27.46,52.13 33.24,52.2C36.23,52.23 37.81,53.16 40.03,53.13C42.17,53.1 44.18,52.4 46.34,52.09C48.62,51.76 51.83,51.37 53.38,51.21C54.14,51.13 54.38,51.16 55.08,51.07C56.2,50.92 57.71,50.49 59.45,50.25C62,49.9 66.36,49.56 68.91,49.41C70.64,49.31 72.07,49.36 73.28,49.3C74.13,49.26 74.76,49.12 75.46,49.13C76.13,49.14 76.7,49.34 77.4,49.36C78.22,49.39 79.18,49.17 80.07,49.23C80.96,49.29 81.98,49.63 82.74,49.75C83.29,49.84 83.54,49.87 84.19,49.93C85.52,50.06 88.69,50.21 90.26,50.36C91.25,50.45 91.62,50.58 92.69,50.64C94.73,50.75 98.12,50.08 101.66,50.54C107.03,51.24 120.24,55.93 121.56,56.08C121.7,56.1 121.67,56.07 121.8,56.07C122.44,56.06 125.9,56.07 127.38,56.21C128.36,56.3 128.87,56.51 129.81,56.6C131.1,56.72 133.13,56.72 134.42,56.73C135.36,56.74 135.89,56.7 136.85,56.7C138.24,56.7 140.76,56.77 141.94,56.76C142.57,56.76 143.12,56.72 143.4,56.72C143.51,56.72 143.51,56.73 143.64,56.73C144.36,56.71 148.14,56.11 150.43,56.05C152.75,55.99 154.77,56.56 157.47,56.41C161.17,56.2 168.38,54.36 170.57,54.25C171.3,54.21 171.68,54.33 172.03,54.34C172.23,54.35 172.26,54.35 172.51,54.34C173.44,54.31 177.52,53.98 179.06,53.92C179.9,53.89 180.27,53.89 181.01,53.9C181.98,53.91 183.32,53.87 184.4,54.01C185.41,54.14 186.74,54.58 187.31,54.67C187.54,54.71 187.64,54.7 187.8,54.71C187.96,54.72 188.04,54.73 188.28,54.75C189.05,54.81 191.25,55 193.14,55.05C195.77,55.12 201.73,54.99 202.6,54.99C202.74,54.99 202.76,54.98 202.84,54.99C202.92,55 202.95,55.01 203.08,55.03C203.74,55.13 207.78,55.68 208.91,55.85C209.37,55.92 209.41,55.93 209.88,56.01C211.09,56.21 215.73,57.06 216.43,57.1C216.56,57.11 216.55,57.09 216.67,57.09C216.98,57.09 217.66,57.15 218.37,57.15C219.53,57.15 221.51,56.9 222.98,56.98C224.33,57.05 225.55,57.3 226.86,57.55C228.22,57.81 229.49,58.23 230.99,58.52C232.76,58.86 235.68,59.28 236.81,59.42C237.27,59.48 237.78,59.51 237.78,59.51C237.78,59.51 237.78,59.51 237.78,59.51C237.78,59.51 241.98,59.79 243.36,59.83C244.17,59.85 244.52,59.79 245.3,59.83C246.51,59.89 248.2,60.24 249.91,60.28C252.06,60.33 256.02,59.98 257.19,59.94C257.56,59.93 257.61,59.93 257.92,59.93C258.45,59.93 259.23,59.98 260.1,60C261.4,60.02 264.37,60.04 264.96,60.03C265.09,60.03 265.2,60.02 265.2,60.02C265.2,60.02 265.2,60.02 265.2,60.02C265.2,60.02 266.75,60.38 267.63,60.46C268.66,60.55 270.01,60.47 271.02,60.47C271.83,60.47 272.53,60.47 273.21,60.47C273.81,60.47 274.19,60.51 274.9,60.48Q276.14,60.43 280,60" style="vector-effect: none; fill: none; stroke: rgb(234, 35, 41); stroke-opacity: 1; stroke-width: 5px; opacity: 1;"/></g><g class="points"/><g class="text"/></g><g class="trace scatter tracef768d3" style="stroke-miterlimit: 2; opacity: 1;"><g class="fills"/><g class="errorbars"/><g class="lines"><path class="js-line" d="M0,55.26Q4.38,57.02 7.76,57.65C13.76,58.77 27.45,59.22 33.24,59.49C36.22,59.63 37.81,59.56 40.03,59.63C42.17,59.69 44.23,60.29 46.34,59.88C48.68,59.43 51.82,57.28 53.38,56.73C54.13,56.47 54.39,56.51 55.08,56.28C56.21,55.91 57.68,54.91 59.45,54.53C61.97,53.99 66.36,54.15 68.91,54.15C70.64,54.15 72.07,54.34 73.28,54.34C74.13,54.34 74.76,54.2 75.46,54.23C76.13,54.26 76.7,54.46 77.4,54.5C78.22,54.54 79.18,54.47 80.07,54.41C80.96,54.35 81.98,54.18 82.74,54.15C83.3,54.13 83.54,54.22 84.19,54.18C85.52,54.09 88.69,53.45 90.26,53.26C91.25,53.14 91.63,53.01 92.69,53.03C94.74,53.07 98.07,54 101.66,54.21C106.98,54.52 120.25,54.06 121.56,53.92C121.71,53.9 121.67,53.88 121.8,53.87C122.44,53.81 125.91,54.17 127.38,54.04C128.36,53.95 128.87,53.68 129.81,53.53C131.1,53.33 133.13,53.19 134.42,53.06C135.36,52.96 135.89,52.88 136.85,52.81C138.24,52.7 140.76,52.62 141.94,52.54C142.57,52.49 143.12,52.43 143.4,52.41C143.51,52.4 143.51,52.4 143.64,52.39C144.36,52.35 148.15,52.28 150.43,52.2C152.76,52.12 154.77,51.75 157.47,51.91C161.17,52.13 168.38,53.87 170.57,54.04C171.3,54.1 171.68,54 172.03,54.03C172.23,54.05 172.26,54.1 172.51,54.12C173.44,54.19 177.52,54.09 179.06,53.95C179.9,53.87 180.27,53.75 181.01,53.65C181.98,53.52 183.31,53.38 184.4,53.25C185.41,53.13 186.75,52.94 187.31,52.88C187.54,52.86 187.64,52.85 187.8,52.84C187.96,52.83 188.04,52.84 188.28,52.84C189.05,52.83 191.25,52.83 193.14,52.77C195.77,52.69 201.73,52.34 202.6,52.32C202.74,52.32 202.76,52.31 202.84,52.32C202.92,52.33 202.95,52.36 203.08,52.38C203.73,52.5 207.78,52.85 208.91,52.99C209.37,53.05 209.41,53.09 209.88,53.13C211.09,53.24 215.73,53.3 216.43,53.33C216.56,53.33 216.55,53.34 216.67,53.34C216.98,53.35 217.67,53.37 218.37,53.41C219.53,53.47 221.51,53.64 222.98,53.73C224.33,53.81 225.55,53.77 226.86,53.91C228.22,54.05 229.5,54.35 230.99,54.6C232.76,54.9 235.68,55.48 236.81,55.61C237.27,55.66 237.78,55.66 237.78,55.66C237.78,55.66 237.78,55.66 237.78,55.66C237.78,55.66 241.98,56.44 243.36,56.74C244.18,56.92 244.51,57.04 245.3,57.21C246.51,57.48 248.2,57.81 249.91,58.13C252.06,58.53 256.02,59.2 257.19,59.39C257.56,59.45 257.61,59.45 257.92,59.5C258.45,59.59 259.24,59.69 260.1,59.89C261.41,60.19 264.37,61.13 264.96,61.24C265.09,61.26 265.2,61.26 265.2,61.26C265.2,61.26 265.2,61.26 265.2,61.26C265.2,61.26 266.75,61.31 267.63,61.34C268.67,61.37 270.01,61.39 271.02,61.45C271.83,61.5 272.53,61.62 273.21,61.66C273.81,61.69 274.19,61.66 274.9,61.69Q276.14,61.73 280,61.96" style="vector-effect: none; fill: none; stroke: rgb(0, 0, 0); stroke-opacity: 1; stroke-width: 5px; opacity: 1;"/></g><g class="points"/><g class="text"/></g><g class="trace scatter trace3acb19" style="stroke-miterlimit: 2; opacity: 1;"><g class="fills"/><g class="errorbars"/><g class="lines"><path class="js-line" d="M280,62.12" style="vector-effect: none; fill: none; stroke: rgb(0, 68, 148); stroke-opacity: 1; stroke-width: 5px; opacity: 1;"/></g><g class="points"/><g class="text"/></g></g></g><g class="overplot"/><path class="xlines-above crisp" d="M0,0" style="fill: none;"/><path class="ylines-above crisp" d="M0,0" style="fill: none;"/><g class="overlines-above"/><g class="xaxislayer-above"/><g class="yaxislayer-above"/><g class="overaxes-above"/></g></g><g class="polarlayer"/><g class="smithlayer"/><g class="ternarylayer"/><g class="geolayer"/><g class="funnelarealayer"/><g class="pielayer"/><g class="iciclelayer"/><g class="treemaplayer"/><g class="sunburstlayer"/><g class="glimages"/><defs id="topdefs-03cc75"><g class="clips"/></defs><g class="layer-above"><g class="imagelayer"/><g class="shapelayer"/></g><g class="infolayer"><g class="g-gtitle"><text class="gtitle" x="15" y="25" text-anchor="start" dy="0em" style="font-family: Ubuntu, verdana, arial, sans-serif; font-size: 16px; fill: rgb(233, 84, 32); opacity: 1; font-weight: normal; white-space: pre;">Sněmovna 2021-2025</text></g><g class="g-xtitle"/><g class="g-ytitle"/></g></svg>