<svg class="main-svg" xmlns="http://www.w3.org/2000/svg" xmlns:xlink="http://www.w3.org/1999/xlink" width="300" height="135" style="" viewBox="0 0 300 135"><rect x="0" y="0" width="300" height="135" style="fill: rgb(255, 255, 255); fill-opacity: 1;"/><defs id="defs-22474f"><g class="clips"><clipPath id="clip22474fxyplot" class="plotclip"><rect width="280" height="75"/></clipPath><clipPath class="axesclip" id="clip22474fx"><rect x="10" y="0" width="280" height="135"/></clipPath><clipPath class="axesclip" id="clip22474fy"><rect x="0" y="50" width="300" height="75"/></clipPath><clipPath class="axesclip" id="clip22474fxy"><rect x="10" y="50" width="280" height="75"/></clipPath></g><g class="gradients"/><g class="patterns"/></defs><g class="bglayer"/><g class="layer-below"><g class="imagelayer"/><g class="shapelayer"/></g><g class="cartesianlayer"><g class="subplot xy"><g class="layer-subplot"><g class="shapelayer"/><g class="imagelayer"/></g><g class="minor-gridlayer"><g class="x"/><g class="y"/></g><g class="gridlayer"><g class="x"><path class="xgrid crisp" transform="translate(74.44,0)" d="M0,50v75" style="stroke: rgb(235, 240, 248); stroke-opacity: 1; stroke-width: 1px;"/><path class="xgrid crisp" transform="translate(143.48,0)" d="M0,50v75" style="stroke: rgb(235, 240, 248); stroke-opacity: 1; stroke-width: 1px;"/><path class="xgrid crisp" transform="translate(213.29,0)" d="M0,50v75" style="stroke: rgb(235, 240, 248); stroke-opacity: 1; stroke-width: 1px;"/><path class="xgrid crisp" transform="translate(283.86,0)" d="M0,50v75" style="stroke: rgb(235, 240, 248); stroke-opacity: 1; stroke-width: 1px;"/></g><g class="y"><path class="ygrid crisp" transform="translate(0,101.25999999999999)" d="M10,0h280" style="stroke: rgb(235, 240, 248); stroke-opacity: 1; stroke-width: 1px;"/><path class="ygrid crisp" transform="translate(0,77.53)" d="M10,0h280" style="stroke: rgb(235, 240, 248); stroke-opacity: 1; stroke-width: 1px;"/><path class="ygrid crisp" transform="translate(0,53.79)" d="M10,0h280" style="stroke: rgb(235, 240, 248); stroke-opacity: 1; stroke-width: 1px;"/></g></g><g class="zerolinelayer"><path class="yzl zl crisp" transform="translate(0,125)" d="M10,0h280" style="stroke: rgb(235, 240, 248); stroke-opacity: 1; stroke-width: 2px;"/></g><path class="xlines-below"/><path class="ylines-below"/><g class="overlines-below"/><g class="xaxislayer-below"/><g class="yaxislayer-below"/><g class="overaxes-below"/><g class="plot" transform="translate(10,50)" clip-path="url(#clip22474fxyplot)"><g class="scatterlayer mlayer"><g class="trace scatter trace1b92b5" style="stroke-miterlimit: 2; opacity: 1;"><g class="fills"/><g class="errorbars"/><g class="lines"><path class="js-line" d="M0,10.76Q14.01,10.77 24.55,10.93C43.65,11.23 86.83,13.76 105.1,12.88C114.57,12.43 119.54,10.92 126.58,10.29C133.34,9.68 139.69,9.53 146.52,9.11C153.73,8.67 163.88,7.93 168.77,7.69C171.17,7.57 171.94,7.63 174.14,7.51C177.68,7.32 182.47,6.92 187.95,6.52C196.02,5.93 209.79,4.71 217.86,4.26C223.34,3.95 227.13,3.82 231.67,3.75C236.08,3.68 240.83,3.8 244.71,3.82C247.83,3.84 253.15,3.85 253.15,3.87C253.15,3.9 238.58,3.91 238.58,3.96Q238.58,4.05 280,4.39" style="vector-effect: non-scaling-stroke; fill: none; stroke: rgb(38, 16, 96); stroke-opacity: 1; stroke-width: 5px; opacity: 1;"/></g><g class="points"/><g class="text"/></g><g class="trace scatter tracef8d3c0" style="stroke-miterlimit: 2; opacity: 1;"><g class="fills"/><g class="errorbars"/><g class="lines"><path class="js-line" d="M0,41.33Q14.04,40.28 24.55,38.78C43.69,36.05 86.77,26.48 105.1,24.16C114.5,22.97 119.55,22.9 126.58,22.61C133.35,22.33 139.76,21.49 146.52,22.41C153.8,23.4 163.85,28.09 168.77,28.8C171.14,29.14 171.95,28.57 174.14,28.83C177.69,29.25 182.44,31.09 187.95,32.07C195.99,33.5 209.78,35.16 217.86,35.72C223.33,36.1 227.13,36.04 231.67,35.96C236.08,35.88 240.84,35.19 244.71,35.27C247.83,35.34 253.16,35.97 253.15,36.08C253.14,36.22 238.58,35.87 238.58,35.69Q238.58,35.38 280,34.29" style="vector-effect: non-scaling-stroke; fill: none; stroke: rgb(0, 68, 148); stroke-opacity: 1; stroke-width: 5px; opacity: 1;"/></g><g class="points"/><g class="text"/></g><g class="trace scatter tracecf471f" style="stroke-miterlimit: 2; opacity: 1;"><g class="fills"/><g class="errorbars"/><g class="lines"><path class="js-line" d="M0,52.23Q14.01,52.47 24.55,52.26C43.65,51.88 86.81,48.87 105.1,48.95C114.54,48.99 119.55,50.05 126.58,50.02C133.35,49.99 139.69,49.19 146.52,48.83C153.73,48.45 163.88,48 168.77,47.82C171.17,47.73 171.94,47.78 174.14,47.67C177.68,47.5 182.47,47 187.95,46.71C196.01,46.28 209.79,45.8 217.86,45.58C223.34,45.43 227.13,45.4 231.67,45.34C236.08,45.28 240.84,45.35 244.71,45.21C247.83,45.09 253.15,44.73 253.15,44.67C253.15,44.59 238.58,44.87 238.58,45.02Q238.58,45.28 280,46.09" style="vector-effect: non-scaling-stroke; fill: none; stroke: rgb(234, 35, 41); stroke-opacity: 1; stroke-width: 5px; opacity: 1;"/></g><g class="points"/><g class="text"/></g><g class="trace scatter traced3e0b4" style="stroke-miterlimit: 2; opacity: 1;"><g class="fills"/><g class="errorbars"/><g class="lines"><path class="js-line" d="M0,53.41Q14,54.66 24.55,55.18C43.64,56.12 86.81,56.98 105.1,57.29C114.54,57.45 119.55,57.38 126.58,57.46C133.35,57.54 139.71,58.27 146.52,57.78C153.76,57.26 163.88,54.82 168.77,54.19C171.16,53.88 171.94,53.94 174.14,53.67C177.68,53.24 182.45,52.11 187.95,51.68C196,51.05 209.79,51.27 217.86,51.32C223.34,51.35 227.13,51.52 231.67,51.65C236.08,51.77 240.83,51.97 244.71,52.07C247.83,52.15 253.15,52.28 253.15,52.24C253.15,52.19 238.58,51.61 238.58,51.57Q238.58,51.5 280,52.9" style="vector-effect: non-scaling-stroke; fill: none; stroke: rgb(0, 0, 0); stroke-opacity: 1; stroke-width: 5px; opacity: 1;"/></g><g class="points"/><g class="text"/></g><g class="trace scatter trace852cf2" style="stroke-miterlimit: 2; opacity: 1;"><g class="fills"/><g class="errorbars"/><g class="lines"><path class="js-line" d="M0,56.25Q13.84,49.94 24.55,48.42C43.49,45.72 86.82,49.58 105.1,50.52C114.55,51.01 119.55,51.6 126.58,52.17C133.35,52.72 139.7,53.1 146.52,53.9C153.75,54.75 163.89,56.43 168.77,57.21C171.17,57.59 171.93,57.77 174.14,58.12C177.67,58.67 182.45,59.56 187.95,60.1C196,60.89 209.79,61.34 217.86,61.66C223.34,61.88 227.13,62.01 231.67,62.04C236.08,62.07 240.83,61.89 244.71,61.86C247.83,61.83 253.15,61.8 253.15,61.83C253.15,61.87 238.58,62.3 238.58,62.19Q238.57,62 280,59.65" style="vector-effect: non-scaling-stroke; fill: none; stroke: rgb(93, 140, 0); stroke-opacity: 1; stroke-width: 5px; opacity: 1;"/></g><g class="points"/><g class="text"/></g></g></g><g class="overplot"/><path class="xlines-above crisp" d="M0,0" style="fill: none;"/><path class="ylines-above crisp" d="M0,0" style="fill: none;"/><g class="overlines-above"/><g class="xaxislayer-above"/><g class="yaxislayer-above"/><g class="overaxes-above"/></g></g><g class="polarlayer"/><g class="smithlayer"/><g class="ternarylayer"/><g class="geolayer"/><g class="funnelarealayer"/><g class="pielayer"/><g class="iciclelayer"/><g class="treemaplayer"/><g class="sunburstlayer"/><g class="glimages"/><defs id="topdefs-22474f"><g class="clips"/></defs><g class="layer-above"><g class="imagelayer"/><g class="shapelayer"/></g><g class="infolayer"><g class="g-gtitle"><text class="gtitle" x="15" y="25" text-anchor="start" dy="0em" style="font-family: Ubuntu, verdana, arial, sans-serif; font-size: 16px; fill: rgb(233, 84, 32); opacity: 1; font-weight: normal; white-space: pre;">Sněmovna 2021-2025</text></g><g class="g-xtitle"/><g class="g-ytitle"/></g></svg>