<svg class="main-svg" xmlns="http://www.w3.org/2000/svg" xmlns:xlink="http://www.w3.org/1999/xlink" width="300" height="135" style="" viewBox="0 0 300 135"><rect x="0" y="0" width="300" height="135" style="fill: rgb(255, 255, 255); fill-opacity: 1;"/><defs id="defs-0baf78"><g class="clips"><clipPath id="clip0baf78xyplot" class="plotclip"><rect width="280" height="75"/></clipPath><clipPath class="axesclip" id="clip0baf78x"><rect x="10" y="0" width="280" height="135"/></clipPath><clipPath class="axesclip" id="clip0baf78y"><rect x="0" y="50" width="300" height="75"/></clipPath><clipPath class="axesclip" id="clip0baf78xy"><rect x="10" y="50" width="280" height="75"/></clipPath></g><g class="gradients"/><g class="patterns"/></defs><g class="bglayer"/><g class="layer-below"><g class="imagelayer"/><g class="shapelayer"/></g><g class="cartesianlayer"><g class="subplot xy"><g class="layer-subplot"><g class="shapelayer"/><g class="imagelayer"/></g><g class="minor-gridlayer"><g class="x"/><g class="y"/></g><g class="gridlayer"><g class="x"><path class="xgrid crisp" transform="translate(38.1,0)" d="M0,50v75" style="stroke: rgb(235, 240, 248); stroke-opacity: 1; stroke-width: 1px;"/><path class="xgrid crisp" transform="translate(98.65,0)" d="M0,50v75" style="stroke: rgb(235, 240, 248); stroke-opacity: 1; stroke-width: 1px;"/><path class="xgrid crisp" transform="translate(160.2,0)" d="M0,50v75" style="stroke: rgb(235, 240, 248); stroke-opacity: 1; stroke-width: 1px;"/><path class="xgrid crisp" transform="translate(220.75,0)" d="M0,50v75" style="stroke: rgb(235, 240, 248); stroke-opacity: 1; stroke-width: 1px;"/><path class="xgrid crisp" transform="translate(282.31,0)" d="M0,50v75" style="stroke: rgb(235, 240, 248); stroke-opacity: 1; stroke-width: 1px;"/></g><g class="y"><path class="ygrid crisp" transform="translate(0,104.12)" d="M10,0h280" style="stroke: rgb(235, 240, 248); stroke-opacity: 1; stroke-width: 1px;"/><path class="ygrid crisp" transform="translate(0,83.24000000000001)" d="M10,0h280" style="stroke: rgb(235, 240, 248); stroke-opacity: 1; stroke-width: 1px;"/><path class="ygrid crisp" transform="translate(0,62.36)" d="M10,0h280" style="stroke: rgb(235, 240, 248); stroke-opacity: 1; stroke-width: 1px;"/></g></g><g class="zerolinelayer"><path class="yzl zl crisp" transform="translate(0,125)" d="M10,0h280" style="stroke: rgb(235, 240, 248); stroke-opacity: 1; stroke-width: 2px;"/></g><path class="xlines-below"/><path class="ylines-below"/><g class="overlines-below"/><g class="xaxislayer-below"/><g class="yaxislayer-below"/><g class="overaxes-below"/><g class="plot" transform="translate(10,50)" clip-path="url(#clip0baf78xyplot)"><g class="scatterlayer mlayer"><g class="trace scatter trace61910a" style="stroke-miterlimit: 2; opacity: 1;"><g class="fills"/><g class="errorbars"/><g class="lines"><path class="js-line" d="M0,18.41Q6.1,18.47 10.7,18.63C19.03,18.92 37.89,21.11 45.83,20.35C49.99,19.95 52.12,18.62 55.2,18.06C58.14,17.53 60.91,17.38 63.89,17.01C67.04,16.62 71.47,15.97 73.6,15.75C74.64,15.64 74.98,15.69 75.94,15.58C77.48,15.41 79.57,15.05 81.96,14.69C85.48,14.17 91.48,13.11 95.01,12.73C97.39,12.47 99.37,12.34 101.03,12.32C102.21,12.31 103.07,12.46 104.04,12.47C104.96,12.48 105.75,12.39 106.71,12.37C107.84,12.35 109.16,12.38 110.39,12.39C111.62,12.4 113.03,12.39 114.07,12.43C114.84,12.46 115.18,12.51 116.08,12.55C117.91,12.64 122.29,12.51 124.44,12.84C125.82,13.05 126.31,13.67 127.79,13.76C130.6,13.94 135.22,12.54 140.17,11.98C147.51,11.14 165.79,9.96 167.6,9.67C167.8,9.64 167.75,9.63 167.93,9.59C168.81,9.42 173.59,8.42 175.63,8.44C176.97,8.45 177.67,8.93 178.97,8.99C180.75,9.07 183.55,8.73 185.33,8.54C186.62,8.4 187.36,8.34 188.67,8.05C190.6,7.62 194.06,6.26 195.7,5.91C196.56,5.72 197.32,5.7 197.71,5.65C197.87,5.63 197.85,5.63 198.04,5.61C199.03,5.49 204.26,4.46 207.41,4.4C210.61,4.34 213.37,5.06 217.11,5.3C222.2,5.63 232.17,6.24 235.17,5.99C236.18,5.91 236.69,5.66 237.18,5.58C237.46,5.53 237.5,5.54 237.85,5.5C239.14,5.36 244.76,4.67 246.88,4.6C248.03,4.56 248.54,4.71 249.56,4.69C250.9,4.67 252.74,4.5 254.24,4.37C255.63,4.25 257.49,4.01 258.26,3.94C258.57,3.91 258.7,3.9 258.92,3.89C259.14,3.88 259.25,3.88 259.59,3.87C260.66,3.84 263.68,3.65 266.28,3.75C269.91,3.89 278.12,4.9 279.33,4.99C279.52,5 279.56,5.02 279.67,5.01Q279.78,5 280,4.96" style="vector-effect: none; fill: none; stroke: rgb(38, 16, 96); stroke-opacity: 1; stroke-width: 5px; opacity: 1;"/></g><g class="points"/><g class="text"/></g><g class="trace scatter trace6a7ca4" style="stroke-miterlimit: 2; opacity: 1;"><g class="fills"/><g class="errorbars"/><g class="lines"><path class="js-line" d="M0,46.6Q6.12,44.72 10.7,43.14C19.05,40.26 37.78,32.32 45.83,30.29C49.88,29.27 52.13,29.19 55.2,28.94C58.14,28.71 61.02,28.05 63.89,28.8C67.16,29.65 71.41,33.82 73.6,34.43C74.6,34.71 75.01,34.25 75.94,34.47C77.51,34.84 79.52,36.46 81.96,37.32C85.43,38.54 91.47,39.98 95.01,40.45C97.38,40.77 99.37,40.66 101.03,40.63C102.21,40.61 103.07,40.52 104.04,40.43C104.96,40.35 105.75,40.11 106.71,40.13C107.84,40.15 109.16,40.62 110.39,40.67C111.61,40.72 113.03,40.54 114.07,40.45C114.84,40.38 115.18,40.27 116.08,40.22C117.91,40.13 122.31,40.73 124.44,40.33C125.84,40.07 126.3,39.09 127.79,38.99C130.59,38.8 135.2,41.8 140.17,42.09C147.49,42.52 165.8,38.25 167.6,38.54C167.81,38.57 167.74,38.65 167.93,38.7C168.8,38.95 173.59,39.51 175.63,39.54C176.97,39.56 177.69,39.19 178.97,39.29C180.76,39.44 183.54,40.55 185.33,40.83C186.61,41.03 187.36,40.94 188.67,41.09C190.59,41.31 194.06,42 195.7,42.18C196.57,42.28 197.32,42.3 197.71,42.31C197.87,42.31 197.86,42.29 198.04,42.3C199.03,42.36 204.25,43.36 207.41,43.73C210.61,44.11 213.39,44.08 217.11,44.53C222.21,45.15 232.15,47.13 235.17,47.44C236.17,47.54 236.69,47.51 237.18,47.53C237.46,47.54 237.5,47.56 237.85,47.55C239.14,47.51 244.76,46.95 246.88,46.78C248.04,46.69 248.54,46.58 249.56,46.59C250.9,46.61 252.74,47.01 254.24,47.04C255.63,47.07 257.49,46.79 258.26,46.81C258.57,46.82 258.7,46.86 258.92,46.88C259.14,46.9 259.25,46.89 259.59,46.9C260.66,46.93 263.68,47.04 266.28,47.05C269.91,47.06 278.12,46.87 279.33,46.82C279.53,46.81 279.56,46.82 279.67,46.8Q279.78,46.78 280,46.73" style="vector-effect: none; fill: none; stroke: rgb(0, 68, 148); stroke-opacity: 1; stroke-width: 5px; opacity: 1;"/></g><g class="points"/><g class="text"/></g><g class="trace scatter tracedc33fc" style="stroke-miterlimit: 2; opacity: 1;"><g class="fills"/><g class="errorbars"/><g class="lines"><path class="js-line" d="M0,55.16Q6.07,56.93 10.7,57.57C18.99,58.71 37.85,59.14 45.83,59.41C49.95,59.55 52.14,59.48 55.2,59.55C58.15,59.62 60.95,60.23 63.89,59.81C67.08,59.35 71.46,57.21 73.6,56.65C74.64,56.38 74.99,56.42 75.94,56.19C77.49,55.81 79.54,54.81 81.96,54.43C85.45,53.88 91.49,54.05 95.01,54.05C97.4,54.05 99.37,54.24 101.03,54.24C102.21,54.24 103.07,54.1 104.04,54.13C104.96,54.16 105.75,54.36 106.71,54.4C107.84,54.44 109.16,54.37 110.39,54.31C111.62,54.25 113.03,54.08 114.07,54.05C114.84,54.03 115.18,54.12 116.08,54.08C117.92,53.99 122.28,53.34 124.44,53.15C125.81,53.03 126.32,52.9 127.79,52.92C130.62,52.96 135.23,53.9 140.17,54.11C147.51,54.42 165.79,53.97 167.6,53.82C167.8,53.8 167.75,53.78 167.93,53.77C168.81,53.71 173.6,54.07 175.63,53.94C176.98,53.85 177.68,53.58 178.97,53.43C180.75,53.23 183.55,53.08 185.33,52.95C186.62,52.85 187.35,52.77 188.67,52.7C190.58,52.59 194.07,52.51 195.7,52.43C196.57,52.38 197.32,52.32 197.71,52.3C197.87,52.29 197.85,52.29 198.04,52.28C199.03,52.24 204.26,52.17 207.41,52.09C210.62,52.01 213.39,51.63 217.11,51.79C222.21,52.01 232.16,53.77 235.17,53.94C236.17,54 236.69,53.9 237.18,53.93C237.46,53.95 237.5,54 237.85,54.02C239.14,54.09 244.76,53.99 246.88,53.85C248.04,53.77 248.54,53.64 249.56,53.54C250.9,53.4 252.74,53.28 254.24,53.14C255.63,53.01 257.49,52.81 258.26,52.75C258.57,52.73 258.7,52.72 258.92,52.71C259.14,52.7 259.25,52.71 259.59,52.71C260.66,52.7 263.68,52.69 266.28,52.59C269.91,52.44 278.12,51.83 279.33,51.77C279.53,51.76 279.56,51.75 279.67,51.76Q279.78,51.77 280,51.82" style="vector-effect: none; fill: none; stroke: rgb(0, 0, 0); stroke-opacity: 1; stroke-width: 5px; opacity: 1;"/></g><g class="points"/><g class="text"/></g><g class="trace scatter tracea12956" style="stroke-miterlimit: 2; opacity: 1;"><g class="fills"/><g class="errorbars"/><g class="lines"><path class="js-line" d="M0,54.95Q6.11,55.17 10.7,54.99C19.03,54.66 37.86,52.02 45.83,52.09C49.95,52.12 52.14,53.05 55.2,53.02C58.15,52.99 60.91,52.29 63.89,51.98C67.03,51.65 71.47,51.25 73.6,51.09C74.65,51.01 74.98,51.05 75.94,50.96C77.48,50.81 79.56,50.37 81.96,50.13C85.47,49.77 91.49,49.43 95.01,49.28C97.4,49.18 99.37,49.23 101.03,49.17C102.21,49.13 103.07,48.98 104.04,49C104.96,49.02 105.75,49.21 106.71,49.24C107.84,49.27 109.17,49.05 110.39,49.11C111.62,49.17 113.03,49.51 114.07,49.63C114.84,49.72 115.18,49.74 116.08,49.8C117.91,49.93 122.28,50.09 124.44,50.24C125.81,50.33 126.32,50.46 127.79,50.52C130.61,50.63 135.26,49.95 140.17,50.42C147.55,51.13 165.79,55.84 167.6,55.99C167.8,56.01 167.75,55.98 167.93,55.98C168.81,55.97 173.59,55.98 175.63,56.12C176.98,56.21 177.68,56.42 178.97,56.51C180.75,56.63 183.55,56.63 185.33,56.64C186.62,56.65 187.35,56.61 188.67,56.61C190.58,56.61 194.07,56.68 195.7,56.67C196.57,56.67 197.32,56.63 197.71,56.63C197.87,56.63 197.85,56.64 198.04,56.64C199.03,56.62 204.26,56.01 207.41,55.95C210.61,55.89 213.39,56.47 217.11,56.32C222.21,56.11 232.16,54.25 235.17,54.14C236.17,54.1 236.69,54.22 237.18,54.23C237.46,54.24 237.5,54.24 237.85,54.23C239.14,54.2 244.76,53.85 246.88,53.79C248.04,53.76 248.54,53.76 249.56,53.76C250.9,53.77 252.74,53.71 254.24,53.85C255.64,53.98 257.49,54.42 258.26,54.51C258.57,54.54 258.7,54.54 258.92,54.55C259.14,54.56 259.25,54.57 259.59,54.59C260.66,54.64 263.68,54.83 266.28,54.82C269.91,54.81 278.12,54.33 279.33,54.31C279.53,54.31 279.56,54.31 279.67,54.31Q279.78,54.31 280,54.32" style="vector-effect: none; fill: none; stroke: rgb(234, 35, 41); stroke-opacity: 1; stroke-width: 5px; opacity: 1;"/></g><g class="points"/><g class="text"/></g><g class="trace scatter trace80c5c9" style="stroke-miterlimit: 2; opacity: 1;"><g class="fills"/><g class="errorbars"/><g class="lines"><path class="js-line" d="M0,62.26Q5.51,53.6 10.7,51.62C18.62,48.59 37.87,52.65 45.83,53.48C49.96,53.91 52.14,54.43 55.2,54.94C58.15,55.43 60.93,55.77 63.89,56.47C67.06,57.22 71.47,58.71 73.6,59.39C74.65,59.73 74.97,59.88 75.94,60.18C77.48,60.66 79.54,61.45 81.96,61.91C85.45,62.58 91.49,62.96 95.01,63.21C97.4,63.38 99.37,63.4 101.03,63.46C102.21,63.5 103.07,63.58 104.04,63.54C104.96,63.5 105.75,63.32 106.71,63.25C107.84,63.17 109.16,63.22 110.39,63.15C111.62,63.08 113.03,62.93 114.07,62.82C114.84,62.74 115.18,62.61 116.08,62.56C117.91,62.46 122.28,62.71 124.44,62.7C125.81,62.69 126.32,62.66 127.79,62.6C130.61,62.49 135.23,62.22 140.17,61.97C147.52,61.6 165.79,60.65 167.6,60.6C167.8,60.6 167.75,60.6 167.93,60.6C168.81,60.61 173.6,60.56 175.63,60.72C176.98,60.82 177.68,61.08 178.97,61.18C180.75,61.31 183.55,61.15 185.33,61.25C186.62,61.32 187.35,61.48 188.67,61.59C190.58,61.74 194.07,61.93 195.7,62C196.57,62.04 197.32,62.05 197.71,62.06C197.87,62.06 197.85,62.06 198.04,62.06C199.03,62.08 204.26,62.39 207.41,62.37C210.62,62.35 213.38,62.03 217.11,61.92C222.2,61.77 232.16,61.9 235.17,61.72C236.18,61.66 236.69,61.55 237.18,61.5C237.46,61.47 237.5,61.46 237.85,61.44C239.14,61.38 244.76,61.51 246.88,61.47C248.04,61.45 248.54,61.39 249.56,61.37C250.9,61.35 252.74,61.39 254.24,61.39C255.63,61.39 257.49,61.4 258.26,61.37C258.57,61.36 258.7,61.34 258.92,61.33C259.14,61.32 259.25,61.33 259.59,61.33C260.66,61.32 263.68,61.31 266.28,61.26C269.91,61.19 278.12,60.9 279.33,60.88C279.53,60.88 279.56,60.88 279.67,60.88Q279.78,60.88 280,60.89" style="vector-effect: none; fill: none; stroke: rgb(93, 140, 0); stroke-opacity: 1; stroke-width: 5px; opacity: 1;"/></g><g class="points"/><g class="text"/></g></g></g><g class="overplot"/><path class="xlines-above crisp" d="M0,0" style="fill: none;"/><path class="ylines-above crisp" d="M0,0" style="fill: none;"/><g class="overlines-above"/><g class="xaxislayer-above"/><g class="yaxislayer-above"/><g class="overaxes-above"/></g></g><g class="polarlayer"/><g class="smithlayer"/><g class="ternarylayer"/><g class="geolayer"/><g class="funnelarealayer"/><g class="pielayer"/><g class="iciclelayer"/><g class="treemaplayer"/><g class="sunburstlayer"/><g class="glimages"/><defs id="topdefs-0baf78"><g class="clips"/></defs><g class="layer-above"><g class="imagelayer"/><g class="shapelayer"/></g><g class="infolayer"><g class="g-gtitle"><text class="gtitle" x="15" y="25" text-anchor="start" dy="0em" style="font-family: Ubuntu, verdana, arial, sans-serif; font-size: 16px; fill: rgb(233, 84, 32); opacity: 1; font-weight: normal; white-space: pre;">Sněmovna 2021-2025</text></g><g class="g-xtitle"/><g class="g-ytitle"/></g></svg>