<svg class="main-svg" xmlns="http://www.w3.org/2000/svg" xmlns:xlink="http://www.w3.org/1999/xlink" width="300" height="135" style="" viewBox="0 0 300 135"><rect x="0" y="0" width="300" height="135" style="fill: rgb(255, 255, 255); fill-opacity: 1;"/><defs id="defs-709350"><g class="clips"><clipPath id="clip709350xyplot" class="plotclip"><rect width="280" height="75"/></clipPath><clipPath class="axesclip" id="clip709350x"><rect x="10" y="0" width="280" height="135"/></clipPath><clipPath class="axesclip" id="clip709350y"><rect x="0" y="50" width="300" height="75"/></clipPath><clipPath class="axesclip" id="clip709350xy"><rect x="10" y="50" width="280" height="75"/></clipPath></g><g class="gradients"/><g class="patterns"/></defs><g class="bglayer"/><g class="layer-below"><g class="imagelayer"/><g class="shapelayer"/></g><g class="cartesianlayer"><g class="subplot xy"><g class="layer-subplot"><g class="shapelayer"/><g class="imagelayer"/></g><g class="minor-gridlayer"><g class="x"/><g class="y"/></g><g class="gridlayer"><g class="x"><path class="xgrid crisp" transform="translate(40.95,0)" d="M0,50v75" style="stroke: rgb(235, 240, 248); stroke-opacity: 1; stroke-width: 1px;"/><path class="xgrid crisp" transform="translate(107.63,0)" d="M0,50v75" style="stroke: rgb(235, 240, 248); stroke-opacity: 1; stroke-width: 1px;"/><path class="xgrid crisp" transform="translate(175.42,0)" d="M0,50v75" style="stroke: rgb(235, 240, 248); stroke-opacity: 1; stroke-width: 1px;"/><path class="xgrid crisp" transform="translate(242.11,0)" d="M0,50v75" style="stroke: rgb(235, 240, 248); stroke-opacity: 1; stroke-width: 1px;"/></g><g class="y"><path class="ygrid crisp" transform="translate(0,103.92)" d="M10,0h280" style="stroke: rgb(235, 240, 248); stroke-opacity: 1; stroke-width: 1px;"/><path class="ygrid crisp" transform="translate(0,82.84)" d="M10,0h280" style="stroke: rgb(235, 240, 248); stroke-opacity: 1; stroke-width: 1px;"/><path class="ygrid crisp" transform="translate(0,61.76)" d="M10,0h280" style="stroke: rgb(235, 240, 248); stroke-opacity: 1; stroke-width: 1px;"/></g></g><g class="zerolinelayer"><path class="yzl zl crisp" transform="translate(0,125)" d="M10,0h280" style="stroke: rgb(235, 240, 248); stroke-opacity: 1; stroke-width: 2px;"/></g><path class="xlines-below"/><path class="ylines-below"/><g class="overlines-below"/><g class="xaxislayer-below"/><g class="yaxislayer-below"/><g class="overaxes-below"/><g class="plot" transform="translate(10,50)" clip-path="url(#clip709350xyplot)"><g class="scatterlayer mlayer"><g class="trace scatter trace84d1c1" style="stroke-miterlimit: 2; opacity: 1;"><g class="fills"/><g class="errorbars"/><g class="lines"><path class="js-line" d="M0,17.87Q6.73,17.94 11.79,18.1C20.96,18.39 41.72,20.59 50.47,19.82C55.04,19.42 57.4,18.09 60.79,17.52C64.03,16.98 67.09,16.83 70.37,16.45C73.83,16.05 78.7,15.4 81.05,15.18C82.2,15.07 82.57,15.12 83.63,15.01C85.33,14.84 87.63,14.48 90.26,14.12C94.14,13.59 100.75,12.53 104.63,12.14C107.26,11.88 109.43,11.74 111.26,11.72C112.56,11.71 113.51,11.86 114.58,11.87C115.59,11.88 116.47,11.78 117.53,11.77C118.77,11.75 120.23,11.79 121.58,11.8C122.93,11.81 124.48,11.79 125.63,11.83C126.48,11.86 126.85,11.91 127.84,11.95C129.86,12.04 134.68,11.92 137.05,12.25C138.57,12.46 139.11,13.09 140.74,13.18C143.84,13.36 148.93,11.95 154.37,11.38C162.45,10.54 182.58,9.34 184.58,9.05C184.8,9.02 184.74,9.01 184.95,8.97C185.93,8.8 191.18,7.8 193.42,7.81C194.9,7.82 195.68,8.3 197.11,8.36C199.07,8.44 202.15,8.1 204.11,7.91C205.53,7.77 206.35,7.72 207.79,7.42C209.91,6.99 213.72,5.62 215.53,5.26C216.48,5.07 217.31,5.05 217.74,5C217.91,4.98 217.9,4.98 218.11,4.96C219.2,4.84 224.95,3.79 228.42,3.75C231.95,3.71 235,4.43 239.11,4.76C244.72,5.2 255.69,6.23 259,6.03C260.11,5.96 260.67,5.68 261.21,5.62C261.52,5.58 261.55,5.59 261.95,5.58C263.61,5.55 271.51,5.82 274.84,5.78Q276.95,5.75 280,5.57" style="vector-effect: none; fill: none; stroke: rgb(38, 16, 96); stroke-opacity: 1; stroke-width: 5px; opacity: 1;"/></g><g class="points"/><g class="text"/></g><g class="trace scatter trace5bbaa9" style="stroke-miterlimit: 2; opacity: 1;"><g class="fills"/><g class="errorbars"/><g class="lines"><path class="js-line" d="M0,46.33Q6.74,44.43 11.79,42.84C20.98,39.94 41.62,31.91 50.47,29.86C54.94,28.83 57.41,28.75 60.79,28.5C64.04,28.26 67.19,27.59 70.37,28.36C73.94,29.22 78.65,33.42 81.05,34.04C82.16,34.33 82.6,33.87 83.63,34.09C85.36,34.47 87.58,36.09 90.26,36.96C94.09,38.2 100.74,39.64 104.63,40.12C107.24,40.44 109.43,40.33 111.26,40.3C112.56,40.28 113.51,40.19 114.58,40.1C115.59,40.02 116.47,39.78 117.53,39.8C118.77,39.82 120.23,40.29 121.58,40.34C122.93,40.39 124.48,40.21 125.63,40.12C126.48,40.05 126.85,39.94 127.84,39.89C129.86,39.8 134.7,40.4 137.05,40C138.59,39.74 139.1,38.75 140.74,38.65C143.83,38.46 148.9,41.48 154.37,41.77C162.43,42.2 182.58,37.9 184.58,38.19C184.81,38.22 184.74,38.3 184.95,38.35C185.92,38.6 191.17,39.15 193.42,39.19C194.9,39.21 195.69,38.83 197.11,38.94C199.08,39.09 202.14,40.21 204.11,40.5C205.52,40.71 206.34,40.61 207.79,40.76C209.9,40.98 213.73,41.67 215.53,41.85C216.49,41.95 217.31,41.97 217.74,41.98C217.91,41.98 217.9,41.96 218.11,41.97C219.21,42.03 224.95,43.03 228.42,43.39C231.95,43.76 235.01,43.68 239.11,44.15C244.73,44.8 255.68,46.98 259,47.35C260.1,47.47 260.67,47.45 261.21,47.49C261.52,47.51 261.55,47.54 261.95,47.54C263.61,47.52 271.52,46.15 274.84,46.36Q276.96,46.5 280,47.51" style="vector-effect: none; fill: none; stroke: rgb(0, 68, 148); stroke-opacity: 1; stroke-width: 5px; opacity: 1;"/></g><g class="points"/><g class="text"/></g><g class="trace scatter tracecb8ff6" style="stroke-miterlimit: 2; opacity: 1;"><g class="fills"/><g class="errorbars"/><g class="lines"><path class="js-line" d="M0,54.76Q6.73,54.98 11.79,54.8C20.97,54.47 41.69,51.8 50.47,51.87C55.01,51.9 57.42,52.84 60.79,52.81C64.04,52.78 67.09,52.08 70.37,51.76C73.83,51.42 78.7,51.02 81.05,50.86C82.2,50.78 82.57,50.82 83.63,50.73C85.33,50.58 87.62,50.14 90.26,49.9C94.13,49.54 100.75,49.19 104.63,49.04C107.26,48.94 109.43,48.98 111.26,48.92C112.56,48.88 113.51,48.73 114.58,48.75C115.59,48.77 116.47,48.96 117.53,48.99C118.77,49.02 120.23,48.8 121.58,48.86C122.93,48.92 124.48,49.26 125.63,49.38C126.48,49.47 126.85,49.5 127.84,49.56C129.86,49.69 134.67,49.85 137.05,50C138.56,50.1 139.12,50.23 140.74,50.29C143.85,50.4 148.96,49.71 154.37,50.19C162.49,50.91 182.57,55.65 184.58,55.81C184.8,55.83 184.75,55.8 184.95,55.8C185.93,55.79 191.18,55.8 193.42,55.94C194.9,56.03 195.68,56.25 197.11,56.34C199.07,56.46 202.15,56.46 204.11,56.47C205.53,56.48 206.34,56.44 207.79,56.44C209.9,56.44 213.73,56.51 215.53,56.5C216.49,56.5 217.31,56.47 217.74,56.47C217.92,56.47 217.9,56.48 218.11,56.48C219.2,56.46 224.95,55.83 228.42,55.79C231.95,55.74 235.01,56.39 239.11,56.23C244.73,56.01 255.68,53.98 259,53.87C260.1,53.83 260.67,53.97 261.21,53.98C261.52,53.99 261.55,53.99 261.95,53.97C263.61,53.87 271.51,53.06 274.84,52.63Q276.95,52.35 280,51.82" style="vector-effect: none; fill: none; stroke: rgb(234, 35, 41); stroke-opacity: 1; stroke-width: 5px; opacity: 1;"/></g><g class="points"/><g class="text"/></g><g class="trace scatter trace5d420a" style="stroke-miterlimit: 2; opacity: 1;"><g class="fills"/><g class="errorbars"/><g class="lines"><path class="js-line" d="M0,54.97Q6.69,56.76 11.79,57.4C20.93,58.55 41.69,58.99 50.47,59.26C55.01,59.4 57.41,59.34 60.79,59.41C64.04,59.48 67.12,60.09 70.37,59.66C73.87,59.2 78.69,57.03 81.05,56.47C82.19,56.2 82.58,56.24 83.63,56.01C85.33,55.63 87.6,54.63 90.26,54.24C94.11,53.68 100.75,53.85 104.63,53.85C107.26,53.85 109.43,54.04 111.26,54.04C112.56,54.04 113.51,53.9 114.58,53.93C115.59,53.96 116.47,54.16 117.53,54.2C118.77,54.24 120.23,54.17 121.58,54.11C122.93,54.05 124.48,53.88 125.63,53.85C126.48,53.83 126.85,53.92 127.84,53.88C129.86,53.79 134.67,53.14 137.05,52.94C138.55,52.82 139.12,52.69 140.74,52.71C143.85,52.75 148.93,53.7 154.37,53.91C162.46,54.23 182.57,53.76 184.58,53.62C184.8,53.6 184.75,53.58 184.95,53.57C185.93,53.51 191.18,53.87 193.42,53.74C194.91,53.65 195.68,53.37 197.11,53.22C199.07,53.01 202.15,52.87 204.11,52.74C205.53,52.64 206.34,52.57 207.79,52.49C209.9,52.38 213.73,52.3 215.53,52.21C216.49,52.16 217.31,52.11 217.74,52.08C217.92,52.07 217.9,52.06 218.11,52.05C219.2,51.99 224.95,51.94 228.42,51.84C231.95,51.74 235,51.31 239.11,51.47C244.73,51.69 255.68,53.56 259,53.73C260.1,53.79 260.67,53.67 261.21,53.71C261.52,53.73 261.55,53.8 261.95,53.83C263.61,53.94 271.51,53.45 274.84,53.41Q276.95,53.38 280,53.44" style="vector-effect: none; fill: none; stroke: rgb(0, 0, 0); stroke-opacity: 1; stroke-width: 5px; opacity: 1;"/></g><g class="points"/><g class="text"/></g><g class="trace scatter trace65292d" style="stroke-miterlimit: 2; opacity: 1;"><g class="fills"/><g class="errorbars"/><g class="lines"><path class="js-line" d="M0,62.14Q6.16,53.42 11.79,51.39C20.56,48.23 41.7,52.43 50.47,53.27C55.02,53.7 57.42,54.23 60.79,54.74C64.05,55.24 67.11,55.59 70.37,56.3C73.85,57.06 78.71,58.55 81.05,59.24C82.21,59.58 82.57,59.74 83.63,60.04C85.32,60.52 87.6,61.31 90.26,61.78C94.11,62.46 100.75,62.84 104.63,63.09C107.26,63.26 109.43,63.29 111.26,63.35C112.56,63.39 113.51,63.47 114.58,63.43C115.59,63.39 116.47,63.21 117.53,63.14C118.77,63.06 120.23,63.11 121.58,63.04C122.93,62.97 124.48,62.82 125.63,62.7C126.48,62.61 126.85,62.49 127.84,62.44C129.86,62.34 134.67,62.59 137.05,62.58C138.56,62.57 139.12,62.54 140.74,62.48C143.85,62.36 148.93,62.09 154.37,61.84C162.46,61.47 182.57,60.51 184.58,60.46C184.8,60.45 184.75,60.46 184.95,60.46C185.93,60.47 191.18,60.42 193.42,60.58C194.91,60.68 195.68,60.95 197.11,61.05C199.07,61.18 202.15,61.02 204.11,61.12C205.53,61.19 206.34,61.35 207.79,61.46C209.89,61.61 213.73,61.81 215.53,61.88C216.49,61.92 217.31,61.94 217.74,61.94C217.92,61.94 217.9,61.93 218.11,61.93C219.2,61.93 224.95,62.27 228.42,62.25C231.95,62.23 235,61.9 239.11,61.79C244.72,61.64 255.69,61.78 259,61.56C260.11,61.49 260.67,61.35 261.21,61.29C261.52,61.25 261.55,61.24 261.95,61.21C263.61,61.1 271.51,60.91 274.84,60.93Q276.95,60.94 280,61.09" style="vector-effect: none; fill: none; stroke: rgb(93, 140, 0); stroke-opacity: 1; stroke-width: 5px; opacity: 1;"/></g><g class="points"/><g class="text"/></g></g></g><g class="overplot"/><path class="xlines-above crisp" d="M0,0" style="fill: none;"/><path class="ylines-above crisp" d="M0,0" style="fill: none;"/><g class="overlines-above"/><g class="xaxislayer-above"/><g class="yaxislayer-above"/><g class="overaxes-above"/></g></g><g class="polarlayer"/><g class="smithlayer"/><g class="ternarylayer"/><g class="geolayer"/><g class="funnelarealayer"/><g class="pielayer"/><g class="iciclelayer"/><g class="treemaplayer"/><g class="sunburstlayer"/><g class="glimages"/><defs id="topdefs-709350"><g class="clips"/></defs><g class="layer-above"><g class="imagelayer"/><g class="shapelayer"/></g><g class="infolayer"><g class="g-gtitle"><text class="gtitle" x="15" y="25" text-anchor="start" dy="0em" style="font-family: Ubuntu, verdana, arial, sans-serif; font-size: 16px; fill: rgb(233, 84, 32); opacity: 1; font-weight: normal; white-space: pre;">Sněmovna 2021-2025</text></g><g class="g-xtitle"/><g class="g-ytitle"/></g></svg>