<svg class="main-svg" xmlns="http://www.w3.org/2000/svg" xmlns:xlink="http://www.w3.org/1999/xlink" width="300" height="135" style="" viewBox="0 0 300 135"><rect x="0" y="0" width="300" height="135" style="fill: rgb(255, 255, 255); fill-opacity: 1;"/><defs id="defs-8296cb"><g class="clips"><clipPath id="clip8296cbxyplot" class="plotclip"><rect width="280" height="75"/></clipPath><clipPath class="axesclip" id="clip8296cbx"><rect x="10" y="0" width="280" height="135"/></clipPath><clipPath class="axesclip" id="clip8296cby"><rect x="0" y="50" width="300" height="75"/></clipPath><clipPath class="axesclip" id="clip8296cbxy"><rect x="10" y="50" width="280" height="75"/></clipPath></g><g class="gradients"/><g class="patterns"/></defs><g class="bglayer"/><g class="layer-below"><g class="imagelayer"/><g class="shapelayer"/></g><g class="cartesianlayer"><g class="subplot xy"><g class="layer-subplot"><g class="shapelayer"/><g class="imagelayer"/></g><g class="minor-gridlayer"><g class="x"/><g class="y"/></g><g class="gridlayer"><g class="x"><path class="xgrid crisp" transform="translate(29.52,0)" d="M0,50v75" style="stroke: rgb(235, 240, 248); stroke-opacity: 1; stroke-width: 1px;"/><path class="xgrid crisp" transform="translate(114.33,0)" d="M0,50v75" style="stroke: rgb(235, 240, 248); stroke-opacity: 1; stroke-width: 1px;"/><path class="xgrid crisp" transform="translate(199.15,0)" d="M0,50v75" style="stroke: rgb(235, 240, 248); stroke-opacity: 1; stroke-width: 1px;"/><path class="xgrid crisp" transform="translate(284.19,0)" d="M0,50v75" style="stroke: rgb(235, 240, 248); stroke-opacity: 1; stroke-width: 1px;"/></g><g class="y"><path class="ygrid crisp" transform="translate(0,104.44)" d="M10,0h280" style="stroke: rgb(235, 240, 248); stroke-opacity: 1; stroke-width: 1px;"/><path class="ygrid crisp" transform="translate(0,83.87)" d="M10,0h280" style="stroke: rgb(235, 240, 248); stroke-opacity: 1; stroke-width: 1px;"/><path class="ygrid crisp" transform="translate(0,63.31)" d="M10,0h280" style="stroke: rgb(235, 240, 248); stroke-opacity: 1; stroke-width: 1px;"/></g></g><g class="zerolinelayer"><path class="yzl zl crisp" transform="translate(0,125)" d="M10,0h280" style="stroke: rgb(235, 240, 248); stroke-opacity: 1; stroke-width: 2px;"/></g><path class="xlines-below"/><path class="ylines-below"/><g class="overlines-below"/><g class="xaxislayer-below"/><g class="yaxislayer-below"/><g class="overaxes-below"/><g class="plot" transform="translate(10,50)" clip-path="url(#clip8296cbxyplot)"><g class="scatterlayer mlayer"><g class="trace scatter tracef6c2cb" style="stroke-miterlimit: 2; opacity: 1;"><g class="fills"/><g class="errorbars"/><g class="lines"><path class="js-line" d="M0,19.27Q4.25,19.33 7.44,19.49C13.23,19.78 26.34,21.91 31.83,21.18C34.74,20.79 36.19,19.48 38.34,18.93C40.37,18.41 42.31,18.26 44.38,17.89C46.57,17.5 49.64,16.86 51.12,16.65C51.85,16.55 52.08,16.58 52.75,16.48C53.82,16.31 55.27,15.96 56.93,15.61C59.37,15.1 63.54,14.06 65.99,13.68C67.64,13.42 69.01,13.29 70.17,13.27C70.99,13.26 71.59,13.41 72.27,13.42C72.91,13.43 73.45,13.33 74.12,13.32C74.9,13.3 75.83,13.34 76.68,13.35C77.53,13.36 78.52,13.34 79.24,13.38C79.77,13.41 80.01,13.46 80.63,13.5C81.9,13.59 84.96,13.47 86.44,13.79C87.41,14 87.72,14.61 88.76,14.7C90.7,14.87 93.92,13.5 97.36,12.94C102.45,12.12 115.13,10.96 116.41,10.67C116.56,10.64 116.52,10.63 116.65,10.59C117.27,10.42 120.58,9.43 121.99,9.45C122.93,9.46 123.41,9.94 124.32,10C125.55,10.08 127.5,9.74 128.73,9.55C129.63,9.41 130.15,9.35 131.05,9.07C132.4,8.64 134.78,7.31 135.93,6.96C136.52,6.78 137.06,6.74 137.33,6.7C137.44,6.68 137.43,6.69 137.56,6.67C138.25,6.56 141.88,5.53 144.07,5.47C146.29,5.41 148.2,6.12 150.8,6.36C154.33,6.69 161.26,7.27 163.35,7.03C164.06,6.95 164.41,6.71 164.75,6.63C164.94,6.59 164.97,6.59 165.21,6.55C166.1,6.41 170.01,5.74 171.49,5.67C172.29,5.63 172.64,5.78 173.34,5.76C174.27,5.74 175.56,5.58 176.6,5.45C177.57,5.33 178.85,5.09 179.39,5.03C179.61,5 179.7,5 179.85,4.99C180.01,4.98 180.08,4.98 180.32,4.97C181.07,4.95 183.16,4.8 184.96,4.89C187.48,5.01 193.17,5.84 194.02,5.91C194.16,5.92 194.18,5.93 194.26,5.92C194.34,5.91 194.36,5.89 194.49,5.87C195.12,5.79 199,5.88 200.07,5.67C200.52,5.58 200.55,5.36 201,5.33C202.16,5.25 206.6,6.57 207.27,6.65C207.4,6.67 207.39,6.66 207.5,6.66C207.8,6.67 208.46,6.59 209.13,6.65C210.24,6.74 212.13,7.19 213.54,7.41C214.83,7.61 216,7.81 217.26,7.93C218.55,8.06 219.78,8.03 221.21,8.15C222.91,8.29 225.71,8.64 226.79,8.79C227.23,8.85 227.72,8.95 227.72,8.95C227.72,8.95 227.72,8.95 227.72,8.95C227.72,8.95 231.74,10.17 233.06,10.2C233.84,10.22 234.16,9.93 234.92,9.85C236.08,9.73 237.72,10.03 239.34,9.75C241.42,9.39 245.19,7.73 246.31,7.46C246.65,7.38 246.71,7.41 247,7.35C247.51,7.25 248.26,7.05 249.1,6.87C250.34,6.6 253.17,5.97 253.74,5.91C253.87,5.9 253.98,5.91 253.98,5.91C253.98,5.91 253.98,5.91 253.98,5.91C253.98,5.91 255.46,5.64 256.3,5.46C257.29,5.25 258.74,4.79 259.55,4.71C260.03,4.66 260.34,4.74 260.71,4.74C261.04,4.74 261.29,4.71 261.64,4.72C262.11,4.73 262.58,4.81 263.27,4.85C264.46,4.92 267.08,5.01 268.15,5.02C268.67,5.03 268.78,5.03 269.31,5.01C270.51,4.96 274.12,4.69 275.12,4.62C275.47,4.6 275.59,4.59 275.82,4.57C276.05,4.55 276.34,4.55 276.51,4.52C276.61,4.5 276.63,4.49 276.75,4.46C277.05,4.39 277.83,4.22 278.37,4.1Q278.91,3.98 280,3.75" style="vector-effect: none; fill: none; stroke: rgb(38, 16, 96); stroke-opacity: 1; stroke-width: 5px; opacity: 1;"/></g><g class="points"/><g class="text"/></g><g class="trace scatter trace337ec9" style="stroke-miterlimit: 2; opacity: 1;"><g class="fills"/><g class="errorbars"/><g class="lines"><path class="js-line" d="M260.71,63.58Q261.29,63.58 261.64,63.58C262.11,63.58 262.69,63.92 263.27,63.58C264.69,62.75 266.89,55.73 268.15,55C268.58,54.75 268.88,55.26 269.31,55C270.73,54.15 274.06,45.58 275.12,44.07C275.43,43.63 275.58,43.52 275.82,43.29C276.04,43.07 276.34,42.84 276.51,42.71C276.61,42.63 276.63,42.61 276.75,42.54C277.05,42.35 277.82,41.9 278.37,41.64Q278.91,41.38 280,40.97" style="vector-effect: none; fill: none; stroke: rgb(0, 68, 148); stroke-opacity: 1; stroke-width: 5px; opacity: 1;"/></g><g class="points"/><g class="text"/></g><g class="trace scatter tracede0efa" style="stroke-miterlimit: 2; opacity: 1;"><g class="fills"/><g class="errorbars"/><g class="lines"><path class="js-line" d="M0,62.46Q3.52,53.81 7.44,51.97C12.84,49.43 26.31,52.99 31.83,53.8C34.71,54.22 36.21,54.74 38.34,55.24C40.39,55.73 42.34,56.07 44.38,56.76C46.59,57.5 49.64,58.96 51.12,59.63C51.85,59.96 52.08,60.11 52.75,60.41C53.82,60.88 55.24,61.65 56.93,62.11C59.34,62.76 63.54,63.14 65.99,63.38C67.65,63.55 69.01,63.57 70.17,63.63C70.99,63.67 71.59,63.75 72.27,63.71C72.91,63.67 73.45,63.49 74.12,63.43C74.9,63.36 75.83,63.4 76.68,63.33C77.53,63.26 78.52,63.11 79.24,63C79.77,62.92 80,62.8 80.63,62.75C81.9,62.65 84.94,62.9 86.44,62.89C87.39,62.88 87.74,62.85 88.76,62.79C90.72,62.68 93.93,62.42 97.36,62.17C102.46,61.81 115.13,60.87 116.41,60.82C116.55,60.81 116.52,60.82 116.65,60.82C117.27,60.83 120.58,60.78 121.99,60.93C122.93,61.03 123.42,61.29 124.32,61.39C125.55,61.52 127.5,61.36 128.73,61.46C129.63,61.53 130.13,61.69 131.05,61.79C132.38,61.94 134.79,62.13 135.93,62.2C136.54,62.24 137.06,62.26 137.33,62.26C137.44,62.26 137.43,62.25 137.56,62.25C138.25,62.25 141.88,62.58 144.07,62.56C146.3,62.54 148.21,62.22 150.8,62.11C154.34,61.96 161.26,62.08 163.35,61.91C164.05,61.85 164.41,61.75 164.75,61.7C164.94,61.67 164.97,61.66 165.21,61.64C166.1,61.58 170.02,61.69 171.49,61.65C172.29,61.63 172.64,61.57 173.34,61.55C174.27,61.52 175.56,61.56 176.6,61.55C177.57,61.54 178.85,61.53 179.39,61.51C179.61,61.5 179.7,61.49 179.85,61.48C180.01,61.47 180.08,61.47 180.32,61.46C181.07,61.43 183.16,61.39 184.96,61.3C187.48,61.17 193.17,60.72 194.02,60.67C194.16,60.66 194.18,60.66 194.26,60.66C194.34,60.66 194.36,60.66 194.49,60.65C195.12,60.6 198.99,60.05 200.07,60.04C200.51,60.04 200.55,60.09 201,60.13C202.16,60.23 206.6,60.64 207.27,60.65C207.4,60.65 207.39,60.65 207.5,60.64C207.8,60.62 208.46,60.59 209.13,60.49C210.24,60.33 212.13,59.88 213.54,59.64C214.83,59.42 216,59.31 217.26,59.11C218.56,58.9 219.78,58.61 221.21,58.41C222.91,58.17 225.72,58.02 226.79,57.83C227.23,57.75 227.72,57.6 227.72,57.6C227.72,57.6 227.72,57.6 227.72,57.6C227.72,57.6 231.73,56.62 233.06,56.41C233.84,56.29 234.17,56.31 234.92,56.23C236.08,56.1 237.7,55.85 239.34,55.67C241.4,55.45 245.21,55.29 246.31,55.04C246.67,54.96 246.71,54.9 247,54.79C247.51,54.59 248.25,54.23 249.1,53.94C250.33,53.52 253.16,52.75 253.74,52.66C253.87,52.64 253.98,52.65 253.98,52.65C253.98,52.65 253.98,52.65 253.98,52.65C253.98,52.65 255.46,52.7 256.3,52.74C257.29,52.79 258.74,52.85 259.55,52.93C260.04,52.98 260.34,53.07 260.71,53.08C261.04,53.09 261.29,53.03 261.64,53.01C262.11,52.98 262.58,53 263.27,52.94C264.46,52.84 267.08,52.43 268.15,52.29C268.67,52.22 268.77,52.16 269.31,52.15C270.51,52.12 274.12,52.59 275.12,52.59C275.47,52.59 275.59,52.56 275.82,52.53C276.05,52.5 276.34,52.43 276.51,52.41C276.61,52.4 276.63,52.4 276.75,52.4C277.05,52.39 277.83,52.38 278.37,52.35Q278.91,52.32 280,52.19" style="vector-effect: none; fill: none; stroke: rgb(206, 15, 104); stroke-opacity: 1; stroke-width: 5px; opacity: 1;"/></g><g class="points"/><g class="text"/></g><g class="trace scatter trace019499" style="stroke-miterlimit: 2; opacity: 1;"><g class="fills"/><g class="errorbars"/><g class="lines"><path class="js-line" d="M0,55.26Q4.25,55.48 7.44,55.3C13.23,54.98 26.29,52.36 31.83,52.43C34.69,52.47 36.21,53.39 38.34,53.36C40.39,53.33 42.31,52.64 44.38,52.33C46.56,52 49.64,51.61 51.12,51.45C51.85,51.37 52.08,51.41 52.75,51.32C53.82,51.17 55.26,50.75 56.93,50.51C59.37,50.16 63.54,49.82 65.99,49.67C67.65,49.57 69.01,49.62 70.17,49.56C70.99,49.52 71.59,49.38 72.27,49.4C72.91,49.42 73.45,49.61 74.12,49.63C74.9,49.66 75.83,49.44 76.68,49.5C77.54,49.56 78.51,49.89 79.24,50.01C79.77,50.1 80.01,50.13 80.63,50.19C81.9,50.32 84.94,50.47 86.44,50.61C87.39,50.7 87.74,50.83 88.76,50.89C90.72,51 93.97,50.33 97.36,50.79C102.51,51.49 115.13,56.13 116.41,56.28C116.55,56.3 116.52,56.27 116.65,56.27C117.27,56.26 120.58,56.27 121.99,56.4C122.93,56.49 123.42,56.7 124.32,56.79C125.55,56.91 127.49,56.91 128.73,56.92C129.63,56.93 130.13,56.89 131.05,56.89C132.38,56.89 134.8,56.96 135.93,56.95C136.54,56.95 137.06,56.91 137.33,56.91C137.44,56.91 137.43,56.92 137.56,56.92C138.25,56.9 141.88,56.3 144.07,56.24C146.29,56.18 148.22,56.75 150.8,56.6C154.35,56.4 161.25,54.59 163.35,54.47C164.05,54.43 164.41,54.54 164.75,54.55C164.94,54.56 164.97,54.56 165.21,54.55C166.1,54.52 170.02,54.2 171.49,54.14C172.29,54.11 172.64,54.11 173.34,54.12C174.27,54.13 175.56,54.09 176.6,54.23C177.57,54.36 178.85,54.79 179.39,54.88C179.61,54.91 179.7,54.91 179.85,54.92C180.01,54.94 180.08,54.95 180.32,54.97C181.07,55.03 183.16,55.21 184.96,55.26C187.48,55.33 193.17,55.18 194.02,55.19C194.16,55.19 194.18,55.19 194.26,55.2C194.34,55.21 194.36,55.21 194.49,55.23C195.12,55.32 198.99,55.88 200.07,56.05C200.51,56.12 200.55,56.13 201,56.21C202.16,56.41 206.6,57.25 207.27,57.29C207.4,57.3 207.39,57.28 207.5,57.28C207.8,57.28 208.45,57.34 209.13,57.34C210.24,57.34 212.14,57.09 213.54,57.17C214.84,57.24 216.01,57.48 217.26,57.73C218.56,57.99 219.77,58.4 221.21,58.69C222.9,59.03 225.71,59.44 226.79,59.58C227.23,59.64 227.72,59.67 227.72,59.67C227.72,59.67 227.72,59.67 227.72,59.67C227.72,59.67 231.74,59.95 233.06,59.98C233.84,60 234.17,59.94 234.92,59.97C236.08,60.02 237.7,60.36 239.34,60.4C241.4,60.45 245.2,60.08 246.31,60.04C246.66,60.03 246.71,60.02 247,60.02C247.51,60.02 248.26,60.06 249.1,60.07C250.34,60.08 253.17,60.06 253.74,60.05C253.87,60.05 253.98,60.04 253.98,60.04C253.98,60.04 253.98,60.04 253.98,60.04C253.98,60.04 255.46,60.31 256.3,60.35C257.29,60.39 258.74,60.24 259.55,60.2C260.03,60.17 260.34,60.13 260.71,60.13C261.04,60.13 261.29,60.17 261.64,60.2C262.11,60.23 262.58,60.29 263.27,60.32C264.46,60.37 267.08,60.35 268.15,60.41C268.67,60.44 268.78,60.55 269.31,60.53C270.51,60.5 274.12,59.71 275.12,59.59C275.47,59.55 275.59,59.55 275.82,59.54C276.05,59.53 276.34,59.54 276.51,59.53C276.61,59.53 276.63,59.51 276.75,59.51C277.05,59.5 277.83,59.5 278.37,59.55Q278.91,59.6 280,59.84" style="vector-effect: none; fill: none; stroke: rgb(234, 35, 41); stroke-opacity: 1; stroke-width: 5px; opacity: 1;"/></g><g class="points"/><g class="text"/></g><g class="trace scatter trace3c8fbc" style="stroke-miterlimit: 2; opacity: 1;"><g class="fills"/><g class="errorbars"/><g class="lines"><path class="js-line" d="M0,55.46Q4.2,57.2 7.44,57.83C13.18,58.94 26.29,59.38 31.83,59.65C34.69,59.79 36.21,59.72 38.34,59.79C40.39,59.85 42.36,60.44 44.38,60.04C46.62,59.6 49.62,57.47 51.12,56.92C51.83,56.66 52.09,56.7 52.75,56.47C53.83,56.1 55.23,55.12 56.93,54.75C59.34,54.22 63.55,54.37 65.99,54.37C67.65,54.37 69.01,54.56 70.17,54.55C70.99,54.55 71.59,54.41 72.27,54.44C72.91,54.47 73.45,54.67 74.12,54.71C74.9,54.75 75.83,54.69 76.68,54.63C77.53,54.57 78.52,54.4 79.24,54.37C79.77,54.35 80.01,54.44 80.63,54.4C81.9,54.31 84.94,53.67 86.44,53.48C87.39,53.36 87.74,53.24 88.76,53.26C90.72,53.3 93.92,54.22 97.36,54.43C102.45,54.74 115.13,54.28 116.41,54.14C116.56,54.12 116.52,54.1 116.65,54.09C117.27,54.04 120.58,54.39 121.99,54.26C122.93,54.18 123.42,53.91 124.32,53.76C125.55,53.56 127.49,53.41 128.73,53.28C129.63,53.18 130.13,53.11 131.05,53.04C132.38,52.93 134.8,52.85 135.93,52.77C136.54,52.72 137.06,52.66 137.33,52.64C137.44,52.63 137.43,52.63 137.56,52.62C138.25,52.58 141.88,52.52 144.07,52.44C146.29,52.36 148.22,51.99 150.8,52.15C154.35,52.37 161.25,54.09 163.35,54.26C164.05,54.32 164.41,54.22 164.75,54.25C164.95,54.27 164.97,54.31 165.21,54.33C166.1,54.4 170.02,54.31 171.49,54.17C172.29,54.1 172.64,53.97 173.34,53.87C174.27,53.74 175.56,53.61 176.6,53.48C177.57,53.36 178.85,53.17 179.39,53.11C179.61,53.09 179.7,53.08 179.85,53.07C180.01,53.06 180.08,53.08 180.32,53.08C181.07,53.08 183.16,53.06 184.96,53C187.48,52.92 193.17,52.55 194.02,52.55C194.16,52.55 194.18,52.55 194.26,52.56C194.34,52.57 194.36,52.59 194.49,52.61C195.12,52.71 198.99,53.08 200.07,53.22C200.51,53.28 200.55,53.32 201,53.36C202.16,53.47 206.6,53.53 207.27,53.56C207.4,53.56 207.39,53.57 207.5,53.57C207.8,53.58 208.45,53.6 209.13,53.64C210.24,53.7 212.13,53.87 213.54,53.96C214.83,54.04 216.01,54 217.26,54.14C218.56,54.28 219.78,54.58 221.21,54.83C222.91,55.13 225.71,55.7 226.79,55.83C227.23,55.88 227.72,55.89 227.72,55.89C227.72,55.89 227.72,55.89 227.72,55.89C227.72,55.89 231.74,56.67 233.06,56.97C233.84,57.15 234.17,57.27 234.92,57.45C236.08,57.72 237.7,58.06 239.34,58.39C241.4,58.8 245.2,59.49 246.31,59.68C246.66,59.74 246.71,59.74 247,59.79C247.51,59.88 248.27,60 249.1,60.19C250.35,60.48 253.16,61.38 253.74,61.48C253.87,61.5 253.98,61.5 253.98,61.5C253.98,61.5 253.98,61.5 253.98,61.5C253.98,61.5 255.46,61.58 256.3,61.62C257.29,61.67 258.74,61.73 259.55,61.79C260.03,61.83 260.34,61.87 260.71,61.9C261.04,61.93 261.29,61.95 261.64,61.96C262.11,61.98 262.58,61.96 263.27,61.97C264.46,61.99 267.08,62.08 268.15,62.08C268.67,62.08 268.78,62.08 269.31,62.06C270.51,62.02 274.12,61.81 275.12,61.79C275.47,61.78 275.59,61.78 275.82,61.79C276.05,61.8 276.34,61.84 276.51,61.85C276.61,61.86 276.63,61.85 276.75,61.86C277.05,61.88 277.83,61.94 278.37,62Q278.91,62.06 280,62.21" style="vector-effect: none; fill: none; stroke: rgb(0, 0, 0); stroke-opacity: 1; stroke-width: 5px; opacity: 1;"/></g><g class="points"/><g class="text"/></g></g></g><g class="overplot"/><path class="xlines-above crisp" d="M0,0" style="fill: none;"/><path class="ylines-above crisp" d="M0,0" style="fill: none;"/><g class="overlines-above"/><g class="xaxislayer-above"/><g class="yaxislayer-above"/><g class="overaxes-above"/></g></g><g class="polarlayer"/><g class="smithlayer"/><g class="ternarylayer"/><g class="geolayer"/><g class="funnelarealayer"/><g class="pielayer"/><g class="iciclelayer"/><g class="treemaplayer"/><g class="sunburstlayer"/><g class="glimages"/><defs id="topdefs-8296cb"><g class="clips"/></defs><g class="layer-above"><g class="imagelayer"/><g class="shapelayer"/></g><g class="infolayer"><g class="g-gtitle"><text class="gtitle" x="15" y="25" text-anchor="start" dy="0em" style="font-family: Ubuntu, verdana, arial, sans-serif; font-size: 16px; fill: rgb(233, 84, 32); opacity: 1; font-weight: normal; white-space: pre;">Sněmovna 2021-2025</text></g><g class="g-xtitle"/><g class="g-ytitle"/></g></svg>