<svg class="main-svg" xmlns="http://www.w3.org/2000/svg" xmlns:xlink="http://www.w3.org/1999/xlink" width="300" height="135" style="" viewBox="0 0 300 135"><rect x="0" y="0" width="300" height="135" style="fill: rgb(255, 255, 255); fill-opacity: 1;"/><defs id="defs-d9eb82"><g class="clips"><clipPath id="clipd9eb82xyplot" class="plotclip"><rect width="280" height="75"/></clipPath><clipPath class="axesclip" id="clipd9eb82x"><rect x="10" y="0" width="280" height="135"/></clipPath><clipPath class="axesclip" id="clipd9eb82y"><rect x="0" y="50" width="300" height="75"/></clipPath><clipPath class="axesclip" id="clipd9eb82xy"><rect x="10" y="50" width="280" height="75"/></clipPath></g><g class="gradients"/><g class="patterns"/></defs><g class="bglayer"/><g class="layer-below"><g class="imagelayer"/><g class="shapelayer"/></g><g class="cartesianlayer"><g class="subplot xy"><g class="layer-subplot"><g class="shapelayer"/><g class="imagelayer"/></g><g class="minor-gridlayer"><g class="x"/><g class="y"/></g><g class="gridlayer"><g class="x"><path class="xgrid crisp" transform="translate(27.17,0)" d="M0,50v75" style="stroke: rgb(235, 240, 248); stroke-opacity: 1; stroke-width: 1px;"/><path class="xgrid crisp" transform="translate(101.77,0)" d="M0,50v75" style="stroke: rgb(235, 240, 248); stroke-opacity: 1; stroke-width: 1px;"/><path class="xgrid crisp" transform="translate(176.36,0)" d="M0,50v75" style="stroke: rgb(235, 240, 248); stroke-opacity: 1; stroke-width: 1px;"/><path class="xgrid crisp" transform="translate(251.17,0)" d="M0,50v75" style="stroke: rgb(235, 240, 248); stroke-opacity: 1; stroke-width: 1px;"/></g><g class="y"><path class="ygrid crisp" transform="translate(0,104.14)" d="M10,0h280" style="stroke: rgb(235, 240, 248); stroke-opacity: 1; stroke-width: 1px;"/><path class="ygrid crisp" transform="translate(0,83.28)" d="M10,0h280" style="stroke: rgb(235, 240, 248); stroke-opacity: 1; stroke-width: 1px;"/><path class="ygrid crisp" transform="translate(0,62.42)" d="M10,0h280" style="stroke: rgb(235, 240, 248); stroke-opacity: 1; stroke-width: 1px;"/></g></g><g class="zerolinelayer"><path class="yzl zl crisp" transform="translate(0,125)" d="M10,0h280" style="stroke: rgb(235, 240, 248); stroke-opacity: 1; stroke-width: 2px;"/></g><path class="xlines-below"/><path class="ylines-below"/><g class="overlines-below"/><g class="xaxislayer-below"/><g class="yaxislayer-below"/><g class="overaxes-below"/><g class="plot" transform="translate(10,50)" clip-path="url(#clipd9eb82xyplot)"><g class="scatterlayer mlayer"><g class="trace scatter traceeb3264" style="stroke-miterlimit: 2; opacity: 1;"><g class="fills"/><g class="errorbars"/><g class="lines"><path class="js-line" d="M0,18.47Q3.73,18.53 6.54,18.69C11.63,18.98 23.18,21.13 28,20.4C30.58,20.01 31.82,18.68 33.72,18.12C35.5,17.59 37.22,17.44 39.04,17.07C40.96,16.68 43.66,16.03 44.96,15.81C45.6,15.7 45.81,15.74 46.39,15.64C47.34,15.47 48.61,15.11 50.07,14.75C52.22,14.23 55.88,13.17 58.04,12.79C59.49,12.53 60.7,12.4 61.72,12.38C62.44,12.37 62.96,12.52 63.56,12.53C64.12,12.54 64.61,12.44 65.2,12.43C65.89,12.41 66.7,12.45 67.45,12.46C68.2,12.47 69.06,12.45 69.69,12.49C70.16,12.52 70.37,12.57 70.92,12.61C72.04,12.7 74.73,12.58 76.03,12.9C76.89,13.11 77.15,13.74 78.07,13.83C79.78,14 82.61,12.61 85.64,12.04C90.11,11.21 101.27,10.03 102.39,9.74C102.52,9.71 102.48,9.7 102.6,9.66C103.14,9.49 106.06,8.5 107.3,8.51C108.12,8.52 108.54,9 109.34,9.06C110.42,9.14 112.15,8.8 113.23,8.61C114.02,8.47 114.48,8.41 115.27,8.12C116.46,7.69 118.55,6.33 119.56,5.98C120.08,5.8 120.55,5.77 120.79,5.72C120.88,5.7 120.88,5.7 120.99,5.68C121.59,5.56 124.79,4.53 126.72,4.47C128.67,4.41 130.36,5.13 132.64,5.37C135.75,5.7 141.85,6.29 143.68,6.05C144.31,5.97 144.61,5.72 144.91,5.64C145.08,5.6 145.1,5.6 145.31,5.56C146.09,5.42 149.53,4.74 150.83,4.67C151.54,4.63 151.85,4.78 152.47,4.76C153.29,4.74 154.42,4.57 155.33,4.44C156.18,4.32 157.31,4.08 157.78,4.02C157.97,3.99 158.05,3.99 158.19,3.98C158.33,3.97 158.39,3.97 158.6,3.96C159.26,3.94 161.11,3.79 162.69,3.88C164.91,4 169.93,4.84 170.66,4.91C170.77,4.92 170.79,4.92 170.86,4.92C170.93,4.92 170.95,4.89 171.07,4.88C171.63,4.82 175.03,4.88 175.97,4.67C176.37,4.58 176.39,4.35 176.79,4.32C177.81,4.24 181.72,5.57 182.31,5.66C182.42,5.68 182.41,5.67 182.51,5.67C182.77,5.68 183.35,5.6 183.94,5.66C184.92,5.75 186.58,6.21 187.82,6.43C188.95,6.63 189.98,6.83 191.09,6.96C192.23,7.09 193.31,7.07 194.57,7.19C196.07,7.34 198.52,7.69 199.47,7.84C199.86,7.9 200.29,7.99 200.29,7.99C200.29,7.99 200.29,7.99 200.29,7.99C200.29,7.99 203.82,9.22 204.99,9.25C205.67,9.27 205.96,8.97 206.63,8.89C207.64,8.77 209.1,9.06 210.51,8.78C212.35,8.42 215.65,6.72 216.64,6.45C216.95,6.37 217,6.4 217.26,6.34C217.71,6.24 218.36,6.03 219.09,5.85C220.18,5.58 222.68,4.96 223.18,4.9C223.29,4.89 223.39,4.9 223.39,4.9C223.39,4.9 223.39,4.9 223.39,4.9C223.39,4.9 224.69,4.63 225.43,4.46C226.3,4.26 227.57,3.83 228.29,3.75C228.71,3.7 228.99,3.78 229.31,3.78C229.6,3.78 229.82,3.76 230.13,3.77C230.54,3.79 230.95,3.87 231.56,3.91C232.61,3.98 234.91,4.07 235.85,4.1C236.31,4.11 236.41,4.11 236.88,4.11C237.94,4.1 241.12,4 241.99,3.97C242.29,3.96 242.4,3.95 242.6,3.95C242.8,3.95 243.06,3.96 243.21,3.95C243.3,3.95 243.32,3.94 243.42,3.93C243.68,3.91 244.85,3.86 244.85,3.86C244.85,3.86 244.85,3.86 244.85,3.86C244.85,3.86 245.24,3.84 245.46,3.83C245.71,3.81 246.28,3.76 246.28,3.76C246.28,3.76 246.28,3.76 246.28,3.76C246.28,3.76 247.3,3.87 247.71,3.91C248.02,3.94 248.28,3.95 248.53,3.98C248.75,4 248.91,4.03 249.14,4.06C249.44,4.1 249.82,4.16 250.16,4.2C250.5,4.24 250.92,4.27 251.18,4.32C251.35,4.35 251.45,4.39 251.59,4.43C251.73,4.47 251.85,4.5 252,4.54C252.18,4.59 252.39,4.66 252.61,4.74C252.87,4.84 253.43,5.11 253.43,5.11C253.43,5.11 253.43,5.11 253.43,5.11C253.43,5.11 254.86,5.65 254.86,5.65C254.86,5.65 254.86,5.65 254.86,5.65C254.86,5.65 256.29,6.04 256.29,6.04C256.29,6.04 256.29,6.04 256.29,6.04C256.29,6.04 257.72,6.26 258.34,6.41C258.86,6.54 259.77,6.86 259.77,6.86C259.77,6.86 259.77,6.86 259.77,6.86C259.77,6.86 260.13,6.99 260.38,7.03C260.75,7.09 261.43,7.1 261.81,7.13C262.06,7.15 262.17,7.15 262.42,7.17C262.8,7.2 263.85,7.28 263.85,7.28C263.85,7.28 263.85,7.28 263.85,7.28C263.85,7.28 263.96,7.27 264.06,7.27C264.32,7.27 265.23,7.35 265.49,7.37C265.59,7.38 265.59,7.38 265.69,7.39C265.97,7.43 266.8,7.6 267.33,7.66C267.82,7.72 268.76,7.76 268.76,7.76C268.76,7.76 268.76,7.76 268.76,7.76C268.76,7.76 269.52,7.8 269.78,7.83C269.95,7.85 270.19,7.9 270.19,7.9C270.19,7.9 270.19,7.9 270.19,7.9C270.19,7.9 271.08,7.92 271.42,7.96C271.66,7.99 271.81,8.03 272.03,8.06C272.28,8.09 272.54,8.1 272.85,8.12C273.26,8.14 273.95,8.16 274.28,8.17C274.46,8.17 274.58,8.16 274.69,8.17C274.77,8.17 274.8,8.18 274.89,8.19C275.07,8.21 275.4,8.23 275.71,8.25C276.12,8.28 277.14,8.37 277.14,8.37C277.14,8.37 277.14,8.37 277.14,8.37C277.14,8.37 278.31,8.66 278.57,8.72C278.67,8.74 278.67,8.75 278.77,8.76Q279,8.79 280,8.79" style="vector-effect: none; fill: none; stroke: rgb(39, 42, 89); stroke-opacity: 1; stroke-width: 5px; opacity: 1;"/></g><g class="points"/><g class="text"/></g><g class="trace scatter trace2cb2ca" style="stroke-miterlimit: 2; opacity: 1;"><g class="fills"/><g class="errorbars"/><g class="lines"><path class="js-line" d="M0,17.22Q3.79,19.63 6.54,19.41C11.69,19.01 23.05,8.77 28,8.24C30.45,7.98 31.85,9.3 33.72,9.79C35.52,10.26 37.33,10.22 39.04,11.14C41.1,12.25 43.58,15.91 44.96,16.51C45.54,16.76 45.83,16.45 46.39,16.63C47.36,16.93 48.58,18.03 50.07,18.75C52.19,19.77 55.86,21.29 58.04,21.86C59.48,22.24 60.7,22.32 61.72,22.39C62.44,22.44 62.97,22.47 63.56,22.38C64.13,22.29 64.6,21.93 65.2,21.85C65.88,21.76 66.7,22.02 67.45,21.96C68.2,21.9 69.06,21.67 69.69,21.48C70.17,21.33 70.36,21.14 70.92,20.99C72.03,20.7 74.74,20.73 76.03,20.31C76.9,20.03 77.16,19.23 78.07,19.19C79.78,19.11 82.55,22.01 85.64,22.45C90.06,23.08 101.27,20.02 102.39,20.36C102.53,20.4 102.47,20.48 102.6,20.54C103.14,20.8 106.05,21.39 107.3,21.49C108.12,21.56 108.56,21.35 109.34,21.41C110.43,21.49 112.14,21.98 113.23,22.15C114.02,22.27 114.48,22.19 115.27,22.39C116.45,22.7 118.56,23.75 119.56,24.15C120.09,24.36 120.55,24.56 120.79,24.62C120.88,24.64 120.88,24.62 120.99,24.65C121.59,24.8 124.77,26.36 126.72,26.6C128.65,26.83 130.37,25.96 132.64,26.08C135.76,26.25 141.84,27.85 143.68,28.26C144.3,28.4 144.61,28.48 144.91,28.56C145.08,28.6 145.1,28.64 145.31,28.67C146.09,28.77 149.53,28.56 150.83,28.62C151.54,28.65 151.85,28.72 152.47,28.79C153.29,28.89 154.41,29.16 155.33,29.18C156.18,29.2 157.31,28.93 157.78,28.97C157.98,28.99 158.05,29.06 158.19,29.08C158.33,29.1 158.39,29.06 158.6,29.07C159.26,29.09 161.1,29.29 162.69,29.37C164.91,29.49 169.93,29.65 170.66,29.63C170.78,29.63 170.79,29.62 170.86,29.61C170.93,29.6 170.95,29.56 171.07,29.55C171.63,29.48 175.02,29.76 175.97,29.75C176.36,29.75 176.4,29.73 176.79,29.7C177.81,29.62 181.72,29.28 182.31,29.18C182.42,29.16 182.41,29.15 182.51,29.13C182.77,29.09 183.35,28.99 183.94,28.99C184.92,29 186.59,29.46 187.82,29.41C188.96,29.37 189.98,28.84 191.09,28.8C192.23,28.76 193.31,29.06 194.57,29.21C196.06,29.38 198.52,29.67 199.47,29.77C199.86,29.81 200.29,29.85 200.29,29.85C200.29,29.85 200.29,29.85 200.29,29.85C200.29,29.85 203.82,31.07 204.99,31.33C205.67,31.48 205.97,31.48 206.63,31.56C207.65,31.69 209.08,31.75 210.51,31.97C212.33,32.25 215.67,32.86 216.64,33.25C216.97,33.38 216.99,33.54 217.26,33.63C217.7,33.78 218.36,33.82 219.09,33.83C220.18,33.84 222.68,33.44 223.18,33.47C223.29,33.48 223.39,33.51 223.39,33.51C223.39,33.51 223.39,33.51 223.39,33.51C223.39,33.51 224.69,33.69 225.43,33.78C226.3,33.89 227.58,33.95 228.29,34.1C228.72,34.19 228.99,34.3 229.31,34.42C229.6,34.53 229.81,34.69 230.13,34.8C230.53,34.94 230.95,35.01 231.56,35.13C232.6,35.35 234.91,35.77 235.85,35.91C236.31,35.98 236.41,35.99 236.88,36.03C237.93,36.11 241.12,36.23 241.99,36.25C242.29,36.26 242.4,36.25 242.6,36.25C242.8,36.25 243.06,36.26 243.21,36.25C243.3,36.25 243.32,36.24 243.42,36.23C243.68,36.2 244.85,36.08 244.85,36.08C244.85,36.08 244.85,36.08 244.85,36.08C244.85,36.08 245.24,36.01 245.46,35.98C245.71,35.94 246.28,35.86 246.28,35.86C246.28,35.86 246.28,35.86 246.28,35.86C246.28,35.86 247.3,35.85 247.71,35.85C248.02,35.85 248.28,35.85 248.53,35.85C248.75,35.85 248.91,35.85 249.14,35.85C249.44,35.85 249.82,35.85 250.16,35.84C250.5,35.83 250.92,35.82 251.18,35.81C251.35,35.8 251.45,35.8 251.59,35.78C251.73,35.76 251.85,35.73 252,35.7C252.18,35.66 252.39,35.59 252.61,35.54C252.86,35.48 253.43,35.38 253.43,35.38C253.43,35.38 253.43,35.38 253.43,35.38C253.43,35.38 254.86,34.99 254.86,34.99C254.86,34.99 254.86,34.99 254.86,34.99C254.86,34.99 256.29,34.61 256.29,34.61C256.29,34.61 256.29,34.61 256.29,34.61C256.29,34.61 257.72,34.18 258.34,34.01C258.86,33.87 259.77,33.66 259.77,33.66C259.77,33.66 259.77,33.66 259.77,33.66C259.77,33.66 260.13,33.57 260.38,33.52C260.76,33.44 261.43,33.32 261.81,33.24C262.06,33.19 262.17,33.16 262.42,33.11C262.8,33.03 263.85,32.84 263.85,32.84C263.85,32.84 263.85,32.84 263.85,32.84C263.85,32.84 263.96,32.82 264.06,32.8C264.32,32.74 265.23,32.51 265.49,32.45C265.59,32.43 265.59,32.42 265.69,32.4C265.97,32.34 266.8,32.2 267.33,32.13C267.82,32.06 268.76,31.96 268.76,31.96C268.76,31.96 268.76,31.96 268.76,31.96C268.76,31.96 269.52,31.88 269.78,31.86C269.95,31.85 270.19,31.83 270.19,31.83C270.19,31.83 270.19,31.83 270.19,31.83C270.19,31.83 271.08,31.86 271.42,31.88C271.66,31.89 271.81,31.9 272.03,31.91C272.28,31.92 272.54,31.9 272.85,31.91C273.26,31.92 273.95,31.95 274.28,31.97C274.46,31.98 274.58,31.98 274.69,31.99C274.77,31.99 274.8,32 274.89,32C275.07,32 275.4,31.99 275.71,31.98C276.12,31.97 277.14,31.94 277.14,31.94C277.14,31.94 277.14,31.94 277.14,31.94C277.14,31.94 278.31,31.97 278.57,31.97C278.67,31.97 278.68,31.97 278.77,31.97Q279.01,31.98 280,32.07" style="vector-effect: none; fill: none; stroke: rgb(94, 102, 213); stroke-opacity: 1; stroke-width: 5px; opacity: 1;"/></g><g class="points"/><g class="text"/></g><g class="trace scatter traceacc155" style="stroke-miterlimit: 2; opacity: 1;"><g class="fills"/><g class="errorbars"/><g class="lines"><path class="js-line" d="M0,54.97Q3.74,55.19 6.54,55.01C11.64,54.68 23.13,52.04 28,52.11C30.52,52.14 31.85,53.07 33.72,53.04C35.53,53.01 37.22,52.32 39.04,52C40.96,51.67 43.66,51.27 44.96,51.11C45.6,51.03 45.81,51.07 46.39,50.98C47.34,50.83 48.6,50.4 50.07,50.16C52.21,49.81 55.89,49.46 58.04,49.31C59.5,49.21 60.7,49.26 61.72,49.2C62.44,49.16 62.97,49.02 63.56,49.03C64.12,49.04 64.61,49.24 65.2,49.26C65.89,49.29 66.71,49.07 67.45,49.13C68.2,49.19 69.05,49.53 69.69,49.65C70.16,49.74 70.37,49.77 70.92,49.83C72.04,49.96 74.71,50.11 76.03,50.26C76.86,50.35 77.17,50.48 78.07,50.54C79.79,50.65 82.67,49.99 85.64,50.45C90.18,51.16 101.26,55.86 102.39,56.01C102.51,56.03 102.48,56 102.6,56C103.15,56 106.06,56 107.3,56.14C108.12,56.23 108.55,56.44 109.34,56.53C110.43,56.65 112.14,56.65 113.23,56.66C114.02,56.67 114.47,56.63 115.27,56.63C116.44,56.63 118.56,56.7 119.56,56.69C120.09,56.69 120.55,56.65 120.79,56.65C120.89,56.65 120.88,56.66 120.99,56.66C121.59,56.64 124.79,56.03 126.72,55.97C128.67,55.91 130.37,56.49 132.64,56.34C135.76,56.13 141.83,54.28 143.68,54.17C144.29,54.13 144.61,54.25 144.91,54.26C145.08,54.27 145.1,54.27 145.31,54.26C146.09,54.23 149.53,53.9 150.83,53.84C151.54,53.81 151.85,53.81 152.47,53.82C153.29,53.83 154.42,53.79 155.33,53.93C156.19,54.06 157.3,54.5 157.78,54.59C157.97,54.62 158.05,54.62 158.19,54.63C158.33,54.65 158.39,54.66 158.6,54.68C159.26,54.74 161.1,54.93 162.69,54.98C164.91,55.05 169.93,54.9 170.66,54.91C170.78,54.91 170.79,54.91 170.86,54.92C170.93,54.93 170.95,54.93 171.07,54.95C171.63,55.04 175.02,55.59 175.97,55.77C176.36,55.84 176.4,55.86 176.79,55.94C177.81,56.15 181.72,56.99 182.31,57.03C182.42,57.04 182.41,57.02 182.51,57.02C182.77,57.02 183.35,57.08 183.94,57.08C184.92,57.08 186.59,56.84 187.82,56.92C188.96,56.99 189.99,57.23 191.09,57.48C192.24,57.74 193.3,58.16 194.57,58.45C196.06,58.79 198.52,59.22 199.47,59.36C199.86,59.42 200.29,59.45 200.29,59.45C200.29,59.45 200.29,59.45 200.29,59.45C200.29,59.45 203.83,59.73 204.99,59.76C205.68,59.78 205.97,59.72 206.63,59.75C207.65,59.8 209.07,60.14 210.51,60.17C212.32,60.21 215.65,59.83 216.64,59.79C216.95,59.78 217,59.78 217.26,59.78C217.71,59.78 218.36,59.82 219.09,59.82C220.18,59.83 222.68,59.79 223.18,59.77C223.29,59.77 223.39,59.76 223.39,59.76C223.39,59.76 223.39,59.76 223.39,59.76C223.39,59.76 224.69,60.02 225.43,60.04C226.3,60.07 227.58,59.9 228.29,59.84C228.72,59.81 228.99,59.76 229.31,59.75C229.6,59.74 229.82,59.78 230.13,59.79C230.54,59.81 230.96,59.84 231.56,59.84C232.61,59.84 234.91,59.67 235.85,59.66C236.31,59.65 236.41,59.72 236.88,59.68C237.94,59.59 241.11,58.87 241.99,58.75C242.29,58.71 242.4,58.72 242.6,58.7C242.8,58.69 243.06,58.67 243.21,58.66C243.3,58.65 243.32,58.65 243.42,58.64C243.68,58.62 244.85,58.54 244.85,58.54C244.85,58.54 244.85,58.54 244.85,58.54C244.85,58.54 245.24,58.54 245.46,58.53C245.71,58.52 246.28,58.47 246.28,58.47C246.28,58.47 246.28,58.47 246.28,58.47C246.28,58.47 247.3,58.29 247.71,58.22C248.02,58.17 248.28,58.13 248.53,58.09C248.75,58.05 248.91,58.03 249.14,57.99C249.44,57.94 249.82,57.88 250.16,57.81C250.5,57.74 250.92,57.66 251.18,57.59C251.35,57.55 251.45,57.51 251.59,57.47C251.73,57.43 251.85,57.4 252,57.35C252.18,57.29 252.39,57.22 252.61,57.14C252.86,57.05 253.43,56.83 253.43,56.83C253.43,56.83 253.43,56.83 253.43,56.83C253.43,56.83 254.86,56.18 254.86,56.18C254.86,56.18 254.86,56.18 254.86,56.18C254.86,56.18 256.29,55.43 256.29,55.43C256.29,55.43 256.29,55.43 256.29,55.43C256.29,55.43 257.72,54.59 258.34,54.22C258.86,53.91 259.77,53.37 259.77,53.37C259.77,53.37 259.77,53.37 259.77,53.37C259.77,53.37 260.13,53.16 260.38,53.03C260.75,52.84 261.43,52.54 261.81,52.37C262.06,52.26 262.17,52.21 262.42,52.11C262.8,51.95 263.85,51.5 263.85,51.5C263.85,51.5 263.85,51.5 263.85,51.5C263.85,51.5 263.96,51.47 264.06,51.44C264.32,51.36 265.23,51.02 265.49,50.93C265.59,50.9 265.59,50.9 265.69,50.87C265.97,50.77 266.8,50.44 267.33,50.26C267.82,50.1 268.76,49.84 268.76,49.84C268.76,49.84 268.76,49.84 268.76,49.84C268.76,49.84 269.52,49.71 269.78,49.65C269.95,49.61 270.19,49.54 270.19,49.54C270.19,49.54 270.19,49.54 270.19,49.54C270.19,49.54 271.08,49.37 271.42,49.28C271.66,49.22 271.81,49.13 272.03,49.08C272.28,49.02 272.54,49.01 272.85,48.97C273.26,48.92 273.95,48.85 274.28,48.82C274.46,48.8 274.58,48.8 274.69,48.79C274.77,48.78 274.8,48.77 274.89,48.76C275.07,48.74 275.4,48.73 275.71,48.72C276.12,48.7 277.14,48.66 277.14,48.66C277.14,48.66 277.14,48.66 277.14,48.66C277.14,48.66 278.31,48.52 278.57,48.5C278.67,48.49 278.67,48.49 278.77,48.49Q279.01,48.48 280,48.48" style="vector-effect: none; fill: none; stroke: rgb(164, 125, 3); stroke-opacity: 1; stroke-width: 5px; opacity: 1;"/></g><g class="points"/><g class="text"/></g><g class="trace scatter trace8b8163" style="stroke-miterlimit: 2; opacity: 1;"><g class="fills"/><g class="errorbars"/><g class="lines"><path class="js-line" d="M0,62.28Q2.95,53.45 6.54,51.64C11.26,49.26 23.15,52.68 28,53.5C30.54,53.93 31.85,54.45 33.72,54.96C35.53,55.45 37.25,55.8 39.04,56.49C40.99,57.25 43.66,58.73 44.96,59.41C45.6,59.75 45.8,59.9 46.39,60.2C47.33,60.68 48.57,61.46 50.07,61.92C52.18,62.57 55.89,62.97 58.04,63.22C59.5,63.39 60.7,63.41 61.72,63.47C62.44,63.51 62.97,63.59 63.56,63.55C64.12,63.51 64.61,63.33 65.2,63.26C65.89,63.18 66.7,63.23 67.45,63.16C68.2,63.09 69.06,62.94 69.69,62.83C70.16,62.75 70.37,62.62 70.92,62.57C72.04,62.47 74.71,62.72 76.03,62.71C76.86,62.7 77.18,62.67 78.07,62.61C79.8,62.5 82.62,62.23 85.64,61.98C90.13,61.61 101.27,60.67 102.39,60.62C102.52,60.61 102.48,60.62 102.6,60.62C103.15,60.63 106.06,60.58 107.3,60.73C108.13,60.83 108.55,61.09 109.34,61.19C110.42,61.32 112.14,61.16 113.23,61.26C114.02,61.33 114.46,61.49 115.27,61.6C116.44,61.75 118.56,61.94 119.56,62.01C120.09,62.05 120.55,62.06 120.79,62.07C120.88,62.07 120.88,62.07 120.99,62.07C121.59,62.09 124.8,62.4 126.72,62.38C128.68,62.36 130.36,62.04 132.64,61.93C135.75,61.78 141.84,61.89 143.68,61.72C144.3,61.66 144.61,61.56 144.91,61.51C145.08,61.48 145.1,61.46 145.31,61.44C146.09,61.37 149.53,61.5 150.83,61.46C151.54,61.44 151.85,61.37 152.47,61.35C153.29,61.32 154.41,61.37 155.33,61.36C156.18,61.35 157.31,61.35 157.78,61.32C157.97,61.31 158.05,61.29 158.19,61.28C158.33,61.27 158.39,61.28 158.6,61.27C159.26,61.25 161.1,61.2 162.69,61.1C164.91,60.96 169.93,60.51 170.66,60.46C170.78,60.45 170.79,60.45 170.86,60.45C170.93,60.45 170.95,60.45 171.07,60.44C171.63,60.39 175.02,59.82 175.97,59.82C176.36,59.82 176.39,59.88 176.79,59.92C177.81,60.03 181.72,60.43 182.31,60.44C182.42,60.44 182.41,60.44 182.51,60.43C182.77,60.41 183.35,60.38 183.94,60.28C184.92,60.12 186.58,59.66 187.82,59.42C188.95,59.2 189.98,59.08 191.09,58.88C192.23,58.67 193.31,58.37 194.57,58.17C196.06,57.93 198.53,57.77 199.47,57.58C199.86,57.5 200.29,57.34 200.29,57.34C200.29,57.34 200.29,57.34 200.29,57.34C200.29,57.34 203.82,56.35 204.99,56.13C205.67,56 205.97,56.03 206.63,55.94C207.65,55.81 209.07,55.55 210.51,55.37C212.32,55.14 215.66,54.95 216.64,54.7C216.96,54.62 217,54.56 217.26,54.45C217.71,54.25 218.35,53.88 219.09,53.59C220.17,53.17 222.67,52.39 223.18,52.3C223.29,52.28 223.39,52.29 223.39,52.29C223.39,52.29 223.39,52.29 223.39,52.29C223.39,52.29 224.69,52.34 225.43,52.37C226.3,52.41 227.58,52.45 228.29,52.51C228.72,52.55 228.99,52.63 229.31,52.63C229.6,52.63 229.82,52.57 230.13,52.54C230.54,52.5 230.96,52.51 231.56,52.44C232.61,52.32 234.91,51.91 235.85,51.78C236.31,51.72 236.4,51.67 236.88,51.65C237.93,51.6 241.12,51.81 241.99,51.79C242.29,51.78 242.4,51.76 242.6,51.74C242.8,51.72 243.06,51.68 243.21,51.66C243.3,51.65 243.32,51.65 243.42,51.64C243.68,51.62 244.85,51.55 244.85,51.55C244.85,51.55 244.85,51.55 244.85,51.55C244.85,51.55 245.24,51.5 245.46,51.48C245.71,51.46 246.28,51.45 246.28,51.45C246.28,51.45 246.28,51.45 246.28,51.45C246.28,51.45 247.3,51.4 247.71,51.38C248.02,51.36 248.28,51.34 248.53,51.33C248.75,51.32 248.91,51.32 249.14,51.31C249.44,51.3 249.82,51.31 250.16,51.29C250.5,51.27 250.92,51.22 251.18,51.21C251.35,51.2 251.45,51.2 251.59,51.2C251.73,51.2 251.85,51.22 252,51.22C252.18,51.23 252.39,51.23 252.61,51.23C252.86,51.23 253.43,51.21 253.43,51.21C253.43,51.21 253.43,51.21 253.43,51.21C253.43,51.21 254.86,51.29 254.86,51.29C254.86,51.29 254.86,51.29 254.86,51.29C254.86,51.29 256.29,51.37 256.29,51.37C256.29,51.37 256.29,51.37 256.29,51.37C256.29,51.37 257.72,51.58 258.34,51.66C258.86,51.72 259.77,51.81 259.77,51.81C259.77,51.81 259.77,51.81 259.77,51.81C259.77,51.81 260.13,51.84 260.38,51.88C260.76,51.93 261.43,52.07 261.81,52.13C262.06,52.17 262.17,52.18 262.42,52.21C262.8,52.25 263.85,52.34 263.85,52.34C263.85,52.34 263.85,52.34 263.85,52.34C263.85,52.34 263.96,52.34 264.06,52.34C264.32,52.35 265.23,52.43 265.49,52.44C265.59,52.44 265.59,52.44 265.69,52.44C265.97,52.44 266.8,52.45 267.33,52.43C267.82,52.41 268.76,52.35 268.76,52.35C268.76,52.35 268.76,52.35 268.76,52.35C268.76,52.35 269.52,52.3 269.78,52.29C269.95,52.29 270.19,52.29 270.19,52.29C270.19,52.29 270.19,52.29 270.19,52.29C270.19,52.29 271.08,52.31 271.42,52.31C271.66,52.31 271.81,52.3 272.03,52.3C272.28,52.3 272.54,52.31 272.85,52.31C273.26,52.31 273.95,52.33 274.28,52.32C274.46,52.32 274.58,52.31 274.69,52.3C274.77,52.3 274.8,52.3 274.89,52.29C275.07,52.27 275.4,52.22 275.71,52.17C276.12,52.1 277.14,51.9 277.14,51.9C277.14,51.9 277.14,51.9 277.14,51.9C277.14,51.9 278.31,51.7 278.57,51.67C278.67,51.66 278.67,51.66 278.77,51.65Q279.01,51.63 280,51.56" style="vector-effect: none; fill: none; stroke: rgb(255, 26, 74); stroke-opacity: 1; stroke-width: 5px; opacity: 1;"/></g><g class="points"/><g class="text"/></g><g class="trace scatter trace6a1ec8" style="stroke-miterlimit: 2; opacity: 1;"><g class="fills"/><g class="errorbars"/><g class="lines"><path class="js-line" d="M0,53.1Q3.58,56.1 6.54,57.05C11.5,58.65 23.13,58.79 28,58.8C30.51,58.8 31.86,58.61 33.72,58.35C35.53,58.1 37.26,57.91 39.04,57.29C41.01,56.6 43.66,54.93 44.96,54.23C45.6,53.88 45.8,53.76 46.39,53.43C47.33,52.9 48.55,51.8 50.07,51.32C52.16,50.66 55.89,50.63 58.04,50.63C59.5,50.63 60.7,50.86 61.72,50.96C62.44,51.03 62.97,51.01 63.56,51.15C64.13,51.29 64.6,51.68 65.2,51.8C65.88,51.93 66.71,51.9 67.45,51.81C68.2,51.72 69.05,51.32 69.69,51.23C70.16,51.17 70.37,51.25 70.92,51.21C72.04,51.14 74.71,50.6 76.03,50.61C76.86,50.62 77.18,50.71 78.07,50.89C79.8,51.25 82.59,52.69 85.64,52.97C90.1,53.37 101.27,51.77 102.39,51.49C102.52,51.46 102.48,51.43 102.6,51.4C103.14,51.28 106.06,51.39 107.3,51.26C108.12,51.17 108.56,51.07 109.34,50.89C110.43,50.64 112.14,50.07 113.23,49.83C114.01,49.66 114.46,49.57 115.27,49.48C116.43,49.36 118.57,49.47 119.56,49.3C120.1,49.2 120.55,48.97 120.79,48.91C120.88,48.89 120.88,48.89 120.99,48.87C121.59,48.77 124.79,48.31 126.72,48.18C128.67,48.05 130.37,47.95 132.64,48.12C135.76,48.35 141.84,49.64 143.68,49.88C144.29,49.96 144.61,49.94 144.91,50C145.08,50.04 145.1,50.08 145.31,50.13C146.09,50.3 149.53,50.72 150.83,50.74C151.54,50.75 151.85,50.71 152.47,50.62C153.3,50.5 154.41,50.19 155.33,49.98C156.18,49.79 157.31,49.52 157.78,49.43C157.97,49.39 158.05,49.36 158.19,49.36C158.33,49.36 158.39,49.39 158.6,49.4C159.26,49.44 161.1,49.46 162.69,49.44C164.91,49.41 169.93,49.11 170.66,49.17C170.78,49.18 170.79,49.19 170.86,49.21C170.93,49.23 170.95,49.27 171.07,49.3C171.63,49.44 175.02,49.58 175.97,49.72C176.36,49.78 176.39,49.88 176.79,49.89C177.81,49.91 181.72,49.07 182.31,49.02C182.42,49.01 182.41,49.02 182.51,49.02C182.77,49.02 183.35,49.03 183.94,49.05C184.92,49.08 186.58,49.15 187.82,49.22C188.96,49.29 189.99,49.27 191.09,49.46C192.24,49.66 193.31,50.13 194.57,50.44C196.06,50.81 198.52,51.35 199.47,51.49C199.86,51.55 200.29,51.56 200.29,51.56C200.29,51.56 200.29,51.56 200.29,51.56C200.29,51.56 203.82,52.89 204.99,53.18C205.67,53.35 205.97,53.31 206.63,53.43C207.65,53.61 209.07,53.9 210.51,54.22C212.32,54.62 215.66,55.4 216.64,55.66C216.96,55.74 217,55.75 217.26,55.84C217.71,55.99 218.37,56.22 219.09,56.53C220.19,57 222.67,58.33 223.18,58.47C223.29,58.5 223.39,58.49 223.39,58.49C223.39,58.49 223.39,58.49 223.39,58.49C223.39,58.49 224.69,58.65 225.43,58.67C226.3,58.69 227.58,58.55 228.29,58.56C228.72,58.57 228.99,58.6 229.31,58.63C229.6,58.66 229.82,58.72 230.13,58.72C230.54,58.73 230.95,58.62 231.56,58.6C232.61,58.57 234.91,58.67 235.85,58.68C236.31,58.68 236.41,58.68 236.88,58.68C237.94,58.69 241.12,58.7 241.99,58.73C242.29,58.74 242.4,58.74 242.6,58.76C242.8,58.78 243.06,58.82 243.21,58.84C243.3,58.85 243.32,58.85 243.42,58.87C243.68,58.91 244.85,59.12 244.85,59.12C244.85,59.12 244.85,59.12 244.85,59.12C244.85,59.12 245.24,59.17 245.46,59.2C245.71,59.23 246.28,59.29 246.28,59.29C246.28,59.29 246.28,59.29 246.28,59.29C246.28,59.29 247.3,59.37 247.71,59.4C248.02,59.43 248.28,59.46 248.53,59.47C248.75,59.48 248.91,59.46 249.14,59.45C249.44,59.44 249.82,59.45 250.16,59.43C250.5,59.41 250.92,59.35 251.18,59.34C251.35,59.33 251.45,59.33 251.59,59.33C251.73,59.33 251.85,59.34 252,59.34C252.18,59.34 252.39,59.35 252.61,59.35C252.86,59.35 253.43,59.32 253.43,59.32C253.43,59.32 253.43,59.32 253.43,59.32C253.43,59.32 254.86,59.2 254.86,59.2C254.86,59.2 254.86,59.2 254.86,59.2C254.86,59.2 256.29,59.09 256.29,59.09C256.29,59.09 256.29,59.09 256.29,59.09C256.29,59.09 257.72,59.11 258.34,59.1C258.86,59.09 259.77,59.05 259.77,59.05C259.77,59.05 259.77,59.05 259.77,59.05C259.77,59.05 260.13,59.06 260.38,59.07C260.76,59.09 261.43,59.14 261.81,59.14C262.06,59.14 262.17,59.14 262.42,59.12C262.8,59.09 263.85,58.95 263.85,58.95C263.85,58.95 263.85,58.95 263.85,58.95C263.85,58.95 263.96,58.94 264.06,58.93C264.32,58.91 265.23,58.81 265.49,58.8C265.59,58.8 265.59,58.8 265.69,58.8C265.97,58.8 266.8,58.78 267.33,58.77C267.82,58.76 268.76,58.76 268.76,58.76C268.76,58.76 268.76,58.76 268.76,58.76C268.76,58.76 269.52,58.73 269.78,58.71C269.95,58.7 270.19,58.67 270.19,58.67C270.19,58.67 270.19,58.67 270.19,58.67C270.19,58.67 271.08,58.55 271.42,58.52C271.66,58.5 271.81,58.49 272.03,58.47C272.28,58.45 272.54,58.41 272.85,58.38C273.26,58.34 273.95,58.28 274.28,58.27C274.46,58.26 274.58,58.27 274.69,58.27C274.77,58.27 274.8,58.27 274.89,58.28C275.07,58.29 275.4,58.32 275.71,58.34C276.12,58.37 277.14,58.44 277.14,58.44C277.14,58.44 277.14,58.44 277.14,58.44C277.14,58.44 278.31,58.43 278.57,58.43C278.67,58.43 278.67,58.43 278.77,58.43Q279.01,58.43 280,58.42" style="vector-effect: none; fill: none; stroke: rgb(17, 17, 17); stroke-opacity: 1; stroke-width: 5px; opacity: 1;"/></g><g class="points"/><g class="text"/></g></g></g><g class="overplot"/><path class="xlines-above crisp" d="M0,0" style="fill: none;"/><path class="ylines-above crisp" d="M0,0" style="fill: none;"/><g class="overlines-above"/><g class="xaxislayer-above"/><g class="yaxislayer-above"/><g class="overaxes-above"/></g></g><g class="polarlayer"/><g class="smithlayer"/><g class="ternarylayer"/><g class="geolayer"/><g class="funnelarealayer"/><g class="pielayer"/><g class="iciclelayer"/><g class="treemaplayer"/><g class="sunburstlayer"/><g class="glimages"/><defs id="topdefs-d9eb82"><g class="clips"/></defs><g class="layer-above"><g class="imagelayer"/><g class="shapelayer"/></g><g class="infolayer"><g class="g-gtitle"><text class="gtitle" x="15" y="25" text-anchor="start" dy="0em" style="font-family: Ubuntu, verdana, arial, sans-serif; font-size: 16px; fill: rgb(233, 84, 32); opacity: 1; font-weight: normal; white-space: pre;">Sněmovna volby 2025</text></g><g class="g-xtitle"/><g class="g-ytitle"/></g></svg>