<svg class="main-svg" xmlns="http://www.w3.org/2000/svg" xmlns:xlink="http://www.w3.org/1999/xlink" width="300" height="135" style="" viewBox="0 0 300 135"><rect x="0" y="0" width="300" height="135" style="fill: rgb(255, 255, 255); fill-opacity: 1;"/><defs id="defs-6d2721"><g class="clips"><clipPath id="clip6d2721xyplot" class="plotclip"><rect width="280" height="75"/></clipPath><clipPath class="axesclip" id="clip6d2721x"><rect x="10" y="0" width="280" height="135"/></clipPath><clipPath class="axesclip" id="clip6d2721y"><rect x="0" y="50" width="300" height="75"/></clipPath><clipPath class="axesclip" id="clip6d2721xy"><rect x="10" y="50" width="280" height="75"/></clipPath></g><g class="gradients"/><g class="patterns"/></defs><g class="bglayer"/><g class="layer-below"><g class="imagelayer"/><g class="shapelayer"/></g><g class="cartesianlayer"><g class="subplot xy"><g class="layer-subplot"><g class="shapelayer"/><g class="imagelayer"/></g><g class="minor-gridlayer"><g class="x"/><g class="y"/></g><g class="gridlayer"><g class="x"><path class="xgrid crisp" transform="translate(36.129999999999995,0)" d="M0,50v75" style="stroke: rgb(235, 240, 248); stroke-opacity: 1; stroke-width: 1px;"/><path class="xgrid crisp" transform="translate(92.44,0)" d="M0,50v75" style="stroke: rgb(235, 240, 248); stroke-opacity: 1; stroke-width: 1px;"/><path class="xgrid crisp" transform="translate(149.69,0)" d="M0,50v75" style="stroke: rgb(235, 240, 248); stroke-opacity: 1; stroke-width: 1px;"/><path class="xgrid crisp" transform="translate(206,0)" d="M0,50v75" style="stroke: rgb(235, 240, 248); stroke-opacity: 1; stroke-width: 1px;"/><path class="xgrid crisp" transform="translate(263.24,0)" d="M0,50v75" style="stroke: rgb(235, 240, 248); stroke-opacity: 1; stroke-width: 1px;"/></g><g class="y"><path class="ygrid crisp" transform="translate(0,104.11)" d="M10,0h280" style="stroke: rgb(235, 240, 248); stroke-opacity: 1; stroke-width: 1px;"/><path class="ygrid crisp" transform="translate(0,83.22999999999999)" d="M10,0h280" style="stroke: rgb(235, 240, 248); stroke-opacity: 1; stroke-width: 1px;"/><path class="ygrid crisp" transform="translate(0,62.34)" d="M10,0h280" style="stroke: rgb(235, 240, 248); stroke-opacity: 1; stroke-width: 1px;"/></g></g><g class="zerolinelayer"><path class="yzl zl crisp" transform="translate(0,125)" d="M10,0h280" style="stroke: rgb(235, 240, 248); stroke-opacity: 1; stroke-width: 2px;"/></g><path class="xlines-below"/><path class="ylines-below"/><g class="overlines-below"/><g class="xaxislayer-below"/><g class="yaxislayer-below"/><g class="overaxes-below"/><g class="plot" transform="translate(10,50)" clip-path="url(#clip6d2721xyplot)"><g class="scatterlayer mlayer"><g class="trace scatter tracef8a56f" style="stroke-miterlimit: 2; opacity: 1;"><g class="fills"/><g class="errorbars"/><g class="lines"><path class="js-line" d="M0,18.4Q5.68,18.46 9.96,18.62C17.71,18.91 35.24,21.08 42.62,20.33C46.49,19.93 48.46,18.61 51.33,18.05C54.06,17.52 56.65,17.36 59.42,16.99C62.35,16.59 66.46,15.95 68.44,15.73C69.41,15.62 69.73,15.66 70.62,15.56C72.06,15.39 74,15.03 76.22,14.68C79.49,14.16 85.08,13.1 88.36,12.71C90.58,12.45 92.41,12.32 93.96,12.3C95.05,12.29 95.85,12.44 96.76,12.45C97.61,12.46 98.35,12.36 99.24,12.35C100.29,12.33 101.53,12.37 102.67,12.38C103.81,12.39 105.12,12.37 106.09,12.41C106.81,12.44 107.12,12.49 107.96,12.53C109.66,12.62 113.74,12.49 115.73,12.82C117.02,13.03 117.46,13.66 118.84,13.75C121.45,13.93 125.76,12.52 130.36,11.96C137.18,11.12 154.18,9.95 155.87,9.66C156.06,9.63 156.01,9.62 156.18,9.58C157,9.41 161.44,8.41 163.33,8.42C164.58,8.43 165.23,8.91 166.44,8.97C168.09,9.05 170.7,8.71 172.36,8.52C173.57,8.38 174.26,8.32 175.47,8.03C177.26,7.6 180.47,6.24 182,5.89C182.8,5.7 183.51,5.67 183.87,5.63C184.02,5.61 184.01,5.62 184.18,5.6C185.1,5.49 189.96,4.44 192.89,4.38C195.87,4.32 198.44,5.04 201.91,5.28C206.64,5.61 215.92,6.21 218.71,5.96C219.65,5.88 220.12,5.63 220.58,5.55C220.84,5.5 220.87,5.51 221.2,5.47C222.4,5.33 227.62,4.65 229.6,4.58C230.67,4.54 231.15,4.68 232.09,4.66C233.34,4.64 235.05,4.48 236.44,4.35C237.74,4.23 239.46,3.98 240.18,3.92C240.47,3.89 240.59,3.89 240.8,3.88C241.01,3.87 241.11,3.87 241.42,3.86C242.41,3.84 245.23,3.67 247.64,3.75C251.02,3.86 258.66,4.68 259.78,4.74C259.96,4.75 259.99,4.76 260.09,4.75C260.19,4.74 260.23,4.72 260.4,4.7C261.24,4.61 266.44,4.62 267.87,4.35C268.47,4.24 268.5,3.99 269.11,3.93C270.66,3.78 276.61,5.05 277.51,5.1C277.68,5.11 277.67,5.1 277.82,5.09Q278.22,5.06 280,4.87" style="vector-effect: none; fill: none; stroke: rgb(38, 16, 96); stroke-opacity: 1; stroke-width: 5px; opacity: 1;"/></g><g class="points"/><g class="text"/></g><g class="trace scatter trace147abb" style="stroke-miterlimit: 2; opacity: 1;"><g class="fills"/><g class="errorbars"/><g class="lines"><path class="js-line" d="M0,17.14Q5.73,19.58 9.96,19.34C17.75,18.9 35.15,8.73 42.62,8.16C46.4,7.87 48.48,9.22 51.33,9.71C54.08,10.18 56.74,10.08 59.42,11.06C62.45,12.17 66.4,15.82 68.44,16.44C69.37,16.72 69.74,16.37 70.62,16.56C72.07,16.87 73.97,17.97 76.22,18.68C79.47,19.71 85.07,21.22 88.36,21.79C90.57,22.17 92.41,22.25 93.96,22.32C95.05,22.37 95.86,22.42 96.76,22.32C97.62,22.23 98.34,21.86 99.24,21.78C100.29,21.68 101.53,21.95 102.67,21.89C103.81,21.83 105.13,21.61 106.09,21.42C106.81,21.27 107.11,21.07 107.96,20.92C109.66,20.62 113.74,20.68 115.73,20.24C117.02,19.96 117.47,19.17 118.84,19.12C121.46,19.03 125.72,21.94 130.36,22.39C137.15,23.05 154.19,19.91 155.87,20.29C156.07,20.33 156,20.41 156.18,20.47C156.99,20.75 161.43,21.32 163.33,21.42C164.58,21.49 165.24,21.28 166.44,21.34C168.1,21.42 170.7,21.91 172.36,22.08C173.56,22.2 174.25,22.11 175.47,22.32C177.26,22.63 180.48,23.7 182,24.09C182.81,24.3 183.51,24.49 183.87,24.55C184.02,24.57 184.01,24.55 184.18,24.58C185.1,24.73 189.94,26.29 192.89,26.53C195.85,26.77 198.45,25.89 201.91,26.02C206.65,26.19 215.91,27.79 218.71,28.2C219.65,28.34 220.12,28.42 220.58,28.5C220.84,28.54 220.87,28.58 221.2,28.61C222.39,28.71 227.63,28.5 229.6,28.56C230.68,28.59 231.15,28.65 232.09,28.72C233.34,28.82 235.04,29.1 236.44,29.12C237.73,29.14 239.46,28.87 240.18,28.91C240.48,28.93 240.59,29 240.8,29.02C241.01,29.04 241.11,29 241.42,29.01C242.42,29.03 245.22,29.23 247.64,29.31C251.02,29.43 258.67,29.58 259.78,29.56C259.96,29.56 259.99,29.55 260.09,29.54C260.19,29.53 260.23,29.49 260.4,29.48C261.24,29.41 266.43,29.68 267.87,29.67C268.46,29.67 268.51,29.66 269.11,29.62C270.66,29.52 276.61,29.03 277.51,28.91C277.68,28.89 277.67,28.88 277.82,28.85Q278.22,28.78 280,28.54" style="vector-effect: none; fill: none; stroke: rgb(0, 68, 148); stroke-opacity: 1; stroke-width: 5px; opacity: 1;"/></g><g class="points"/><g class="text"/></g><g class="trace scatter trace436513" style="stroke-miterlimit: 2; opacity: 1;"><g class="fills"/><g class="errorbars"/><g class="lines"><path class="js-line" d="M0,55.16Q5.65,56.92 9.96,57.56C17.67,58.7 35.2,59.14 42.62,59.41C46.45,59.55 48.48,59.48 51.33,59.55C54.08,59.61 56.69,60.22 59.42,59.8C62.39,59.34 66.45,57.2 68.44,56.64C69.4,56.37 69.73,56.41 70.62,56.18C72.06,55.8 73.97,54.81 76.22,54.43C79.46,53.88 85.09,54.04 88.36,54.04C90.58,54.04 92.41,54.23 93.96,54.23C95.05,54.23 95.86,54.09 96.76,54.12C97.61,54.15 98.35,54.35 99.24,54.39C100.29,54.43 101.53,54.37 102.67,54.31C103.81,54.25 105.12,54.07 106.09,54.04C106.81,54.02 107.13,54.12 107.96,54.08C109.67,54 113.72,53.33 115.73,53.14C117,53.02 117.48,52.9 118.84,52.92C121.47,52.96 125.76,53.9 130.36,54.11C137.19,54.42 154.18,53.96 155.87,53.81C156.06,53.79 156.01,53.77 156.18,53.76C157,53.7 161.44,54.07 163.33,53.94C164.58,53.85 165.23,53.57 166.44,53.42C168.09,53.21 170.7,53.07 172.36,52.94C173.56,52.84 174.24,52.77 175.47,52.7C177.25,52.59 180.48,52.51 182,52.42C182.81,52.37 183.51,52.31 183.87,52.29C184.02,52.28 184.01,52.28 184.18,52.27C185.1,52.23 189.96,52.16 192.89,52.08C195.87,52 198.45,51.63 201.91,51.79C206.65,52.01 215.91,53.76 218.71,53.93C219.64,53.99 220.13,53.89 220.58,53.92C220.84,53.94 220.87,53.99 221.2,54.01C222.4,54.08 227.63,53.98 229.6,53.84C230.68,53.76 231.14,53.64 232.09,53.54C233.34,53.41 235.05,53.27 236.44,53.14C237.73,53.01 239.46,52.82 240.18,52.76C240.47,52.74 240.59,52.72 240.8,52.72C241.01,52.72 241.11,52.73 241.42,52.73C242.42,52.73 245.22,52.71 247.64,52.64C251.02,52.55 258.66,52.16 259.78,52.14C259.96,52.14 259.99,52.13 260.09,52.14C260.19,52.15 260.23,52.18 260.4,52.2C261.24,52.31 266.43,52.64 267.87,52.78C268.46,52.84 268.51,52.88 269.11,52.92C270.66,53.01 276.61,53 277.51,53C277.68,53 277.67,53 277.82,53Q278.22,53 280,53.01" style="vector-effect: none; fill: none; stroke: rgb(0, 0, 0); stroke-opacity: 1; stroke-width: 5px; opacity: 1;"/></g><g class="points"/><g class="text"/></g><g class="trace scatter trace3dc324" style="stroke-miterlimit: 2; opacity: 1;"><g class="fills"/><g class="errorbars"/><g class="lines"><path class="js-line" d="M0,54.95Q5.69,55.17 9.96,54.99C17.71,54.66 35.21,52.01 42.62,52.08C46.45,52.12 48.48,53.05 51.33,53.02C54.08,52.99 56.65,52.29 59.42,51.97C62.34,51.64 66.46,51.24 68.44,51.08C69.41,51 69.73,51.04 70.62,50.95C72.06,50.8 73.99,50.37 76.22,50.13C79.49,49.78 85.09,49.43 88.36,49.28C90.58,49.18 92.41,49.22 93.96,49.16C95.05,49.12 95.86,48.97 96.76,48.99C97.61,49.01 98.35,49.2 99.24,49.23C100.29,49.26 101.53,49.04 102.67,49.1C103.81,49.16 105.12,49.5 106.09,49.62C106.81,49.71 107.12,49.74 107.96,49.8C109.66,49.93 113.72,50.08 115.73,50.23C117,50.32 117.47,50.45 118.84,50.51C121.46,50.62 125.8,49.94 130.36,50.41C137.23,51.12 154.18,55.83 155.87,55.99C156.05,56.01 156.01,55.98 156.18,55.98C157,55.97 161.44,55.97 163.33,56.11C164.58,56.2 165.24,56.42 166.44,56.51C168.1,56.63 170.7,56.63 172.36,56.64C173.56,56.65 174.24,56.6 175.47,56.6C177.25,56.6 180.48,56.68 182,56.67C182.81,56.67 183.51,56.63 183.87,56.63C184.02,56.63 184.01,56.64 184.18,56.64C185.1,56.62 189.96,56.01 192.89,55.95C195.87,55.89 198.45,56.46 201.91,56.31C206.65,56.1 215.91,54.25 218.71,54.14C219.64,54.1 220.12,54.22 220.58,54.23C220.84,54.24 220.88,54.24 221.2,54.23C222.4,54.2 227.63,53.87 229.6,53.81C230.67,53.78 231.15,53.78 232.09,53.79C233.34,53.8 235.05,53.75 236.44,53.89C237.74,54.02 239.46,54.48 240.18,54.56C240.47,54.59 240.59,54.58 240.8,54.59C241.01,54.6 241.11,54.62 241.42,54.64C242.41,54.7 245.22,54.88 247.64,54.93C251.02,54.99 258.66,54.82 259.78,54.83C259.96,54.83 259.99,54.83 260.09,54.84C260.19,54.85 260.23,54.85 260.4,54.87C261.24,54.96 266.43,55.5 267.87,55.68C268.46,55.75 268.51,55.76 269.11,55.85C270.66,56.07 276.61,57.05 277.51,57.1C277.68,57.11 277.67,57.09 277.82,57.09Q278.22,57.09 280,57.21" style="vector-effect: none; fill: none; stroke: rgb(234, 35, 41); stroke-opacity: 1; stroke-width: 5px; opacity: 1;"/></g><g class="points"/><g class="text"/></g><g class="trace scatter trace12c7ca" style="stroke-miterlimit: 2; opacity: 1;"><g class="fills"/><g class="errorbars"/><g class="lines"><path class="js-line" d="M0,62.26Q5.06,53.57 9.96,51.61C17.3,48.67 35.22,52.64 42.62,53.47C46.46,53.9 48.48,54.42 51.33,54.93C54.08,55.42 56.67,55.77 59.42,56.47C62.37,57.22 66.46,58.71 68.44,59.39C69.42,59.73 69.72,59.88 70.62,60.18C72.05,60.66 73.97,61.44 76.22,61.9C79.47,62.57 85.08,62.95 88.36,63.2C90.58,63.37 92.41,63.39 93.96,63.45C95.05,63.49 95.86,63.58 96.76,63.54C97.61,63.5 98.34,63.32 99.24,63.25C100.29,63.17 101.53,63.22 102.67,63.15C103.81,63.08 105.12,62.93 106.09,62.81C106.81,62.72 107.12,62.6 107.96,62.55C109.66,62.45 113.72,62.72 115.73,62.7C117,62.69 117.48,62.65 118.84,62.59C121.47,62.47 125.77,62.22 130.36,61.97C137.2,61.6 154.18,60.65 155.87,60.6C156.06,60.6 156.01,60.6 156.18,60.6C157,60.61 161.44,60.56 163.33,60.71C164.58,60.81 165.23,61.07 166.44,61.17C168.09,61.3 170.7,61.14 172.36,61.24C173.56,61.31 174.24,61.48 175.47,61.59C177.25,61.75 180.48,61.93 182,62C182.81,62.04 183.51,62.06 183.87,62.06C184.02,62.06 184.01,62.05 184.18,62.05C185.1,62.05 189.96,62.38 192.89,62.36C195.87,62.34 198.44,62.02 201.91,61.91C206.65,61.76 215.91,61.89 218.71,61.71C219.65,61.65 220.12,61.54 220.58,61.49C220.84,61.46 220.87,61.45 221.2,61.43C222.4,61.37 227.63,61.49 229.6,61.45C230.68,61.43 231.14,61.36 232.09,61.34C233.34,61.31 235.04,61.36 236.44,61.35C237.73,61.34 239.46,61.33 240.18,61.31C240.47,61.3 240.59,61.29 240.8,61.28C241.01,61.27 241.11,61.27 241.42,61.26C242.42,61.23 245.22,61.2 247.64,61.11C251.02,60.99 258.66,60.56 259.78,60.51C259.96,60.5 259.99,60.5 260.09,60.5C260.19,60.5 260.23,60.51 260.4,60.5C261.24,60.47 266.43,59.91 267.87,59.93C268.46,59.94 268.51,60 269.11,60.06C270.66,60.23 276.61,60.93 277.51,60.99C277.68,61 277.67,61 277.82,61Q278.22,61.01 280,61.05" style="vector-effect: none; fill: none; stroke: rgb(206, 15, 104); stroke-opacity: 1; stroke-width: 5px; opacity: 1;"/></g><g class="points"/><g class="text"/></g></g></g><g class="overplot"/><path class="xlines-above crisp" d="M0,0" style="fill: none;"/><path class="ylines-above crisp" d="M0,0" style="fill: none;"/><g class="overlines-above"/><g class="xaxislayer-above"/><g class="yaxislayer-above"/><g class="overaxes-above"/></g></g><g class="polarlayer"/><g class="smithlayer"/><g class="ternarylayer"/><g class="geolayer"/><g class="funnelarealayer"/><g class="pielayer"/><g class="iciclelayer"/><g class="treemaplayer"/><g class="sunburstlayer"/><g class="glimages"/><defs id="topdefs-6d2721"><g class="clips"/></defs><g class="layer-above"><g class="imagelayer"/><g class="shapelayer"/></g><g class="infolayer"><g class="g-gtitle"><text class="gtitle" x="15" y="25" text-anchor="start" dy="0em" style="font-family: Ubuntu, verdana, arial, sans-serif; font-size: 16px; fill: rgb(233, 84, 32); opacity: 1; font-weight: normal; white-space: pre;">Sněmovna 2021-2025</text></g><g class="g-xtitle"/><g class="g-ytitle"/></g></svg>