<svg class="main-svg" xmlns="http://www.w3.org/2000/svg" xmlns:xlink="http://www.w3.org/1999/xlink" width="300" height="135" style="" viewBox="0 0 300 135"><rect x="0" y="0" width="300" height="135" style="fill: rgb(255, 255, 255); fill-opacity: 1;"/><defs id="defs-555865"><g class="clips"><clipPath id="clip555865xyplot" class="plotclip"><rect width="280" height="75"/></clipPath><clipPath class="axesclip" id="clip555865x"><rect x="10" y="0" width="280" height="135"/></clipPath><clipPath class="axesclip" id="clip555865y"><rect x="0" y="50" width="300" height="75"/></clipPath><clipPath class="axesclip" id="clip555865xy"><rect x="10" y="50" width="280" height="75"/></clipPath></g><g class="gradients"/><g class="patterns"/></defs><g class="bglayer"/><g class="layer-below"><g class="imagelayer"/><g class="shapelayer"/></g><g class="cartesianlayer"><g class="subplot xy"><g class="layer-subplot"><g class="shapelayer"/><g class="imagelayer"/></g><g class="minor-gridlayer"><g class="x"/><g class="y"/></g><g class="gridlayer"><g class="x"><path class="xgrid crisp" transform="translate(28.45,0)" d="M0,50v75" style="stroke: rgb(235, 240, 248); stroke-opacity: 1; stroke-width: 1px;"/><path class="xgrid crisp" transform="translate(108.6,0)" d="M0,50v75" style="stroke: rgb(235, 240, 248); stroke-opacity: 1; stroke-width: 1px;"/><path class="xgrid crisp" transform="translate(188.76,0)" d="M0,50v75" style="stroke: rgb(235, 240, 248); stroke-opacity: 1; stroke-width: 1px;"/><path class="xgrid crisp" transform="translate(269.14,0)" d="M0,50v75" style="stroke: rgb(235, 240, 248); stroke-opacity: 1; stroke-width: 1px;"/></g><g class="y"><path class="ygrid crisp" transform="translate(0,104.2)" d="M10,0h280" style="stroke: rgb(235, 240, 248); stroke-opacity: 1; stroke-width: 1px;"/><path class="ygrid crisp" transform="translate(0,83.39)" d="M10,0h280" style="stroke: rgb(235, 240, 248); stroke-opacity: 1; stroke-width: 1px;"/><path class="ygrid crisp" transform="translate(0,62.59)" d="M10,0h280" style="stroke: rgb(235, 240, 248); stroke-opacity: 1; stroke-width: 1px;"/></g></g><g class="zerolinelayer"><path class="yzl zl crisp" transform="translate(0,125)" d="M10,0h280" style="stroke: rgb(235, 240, 248); stroke-opacity: 1; stroke-width: 2px;"/></g><path class="xlines-below"/><path class="ylines-below"/><g class="overlines-below"/><g class="xaxislayer-below"/><g class="yaxislayer-below"/><g class="overaxes-below"/><g class="plot" transform="translate(10,50)" clip-path="url(#clip555865xyplot)"><g class="scatterlayer mlayer"><g class="trace scatter trace76e1f1" style="stroke-miterlimit: 2; opacity: 1;"><g class="fills"/><g class="errorbars"/><g class="lines"><path class="js-line" d="M0,18.63Q4.01,18.69 7.03,18.85C12.5,19.14 24.91,21.28 30.09,20.55C32.85,20.16 34.2,18.84 36.24,18.28C38.16,17.75 40,17.6 41.95,17.23C44.01,16.84 46.91,16.19 48.31,15.97C49,15.86 49.22,15.9 49.85,15.8C50.87,15.63 52.23,15.27 53.8,14.92C56.11,14.4 60.05,13.35 62.37,12.97C63.93,12.71 65.23,12.58 66.32,12.56C67.09,12.55 67.66,12.71 68.3,12.71C68.9,12.71 69.42,12.62 70.05,12.6C70.79,12.58 71.66,12.62 72.47,12.63C73.28,12.64 74.21,12.62 74.89,12.66C75.39,12.69 75.61,12.75 76.2,12.79C77.4,12.88 80.29,12.76 81.69,13.08C82.61,13.29 82.91,13.91 83.89,14C85.73,14.17 88.76,12.78 92.02,12.22C96.83,11.39 108.83,10.21 110.02,9.92C110.16,9.89 110.12,9.88 110.24,9.84C110.82,9.67 113.95,8.68 115.29,8.69C116.17,8.7 116.63,9.18 117.49,9.24C118.65,9.32 120.49,8.98 121.66,8.79C122.51,8.65 123.01,8.59 123.86,8.3C125.14,7.87 127.38,6.52 128.47,6.17C129.03,5.99 129.53,5.95 129.79,5.91C129.89,5.89 129.89,5.9 130.01,5.88C130.66,5.77 134.09,4.73 136.16,4.67C138.26,4.61 140.07,5.33 142.53,5.57C145.87,5.9 152.41,6.48 154.38,6.24C155.05,6.16 155.38,5.91 155.7,5.83C155.88,5.79 155.91,5.8 156.14,5.76C156.99,5.63 160.67,4.94 162.07,4.87C162.83,4.83 163.16,4.97 163.83,4.95C164.71,4.93 165.92,4.77 166.9,4.64C167.81,4.52 169.03,4.28 169.54,4.22C169.75,4.19 169.83,4.19 169.98,4.18C170.13,4.17 170.2,4.17 170.42,4.16C171.12,4.14 173.11,3.99 174.81,4.07C177.19,4.19 182.58,5.03 183.37,5.1C183.5,5.11 183.52,5.11 183.59,5.11C183.66,5.11 183.69,5.08 183.81,5.07C184.41,5 188.07,5.07 189.08,4.86C189.51,4.77 189.53,4.55 189.96,4.52C191.05,4.44 195.25,5.76 195.89,5.85C196.01,5.87 196,5.86 196.11,5.86C196.39,5.87 197.01,5.79 197.65,5.85C198.7,5.94 200.49,6.4 201.82,6.62C203.04,6.82 204.14,7.02 205.33,7.15C206.55,7.28 207.72,7.26 209.07,7.38C210.68,7.53 213.32,7.87 214.34,8.02C214.76,8.08 215.22,8.18 215.22,8.18C215.22,8.18 215.22,8.18 215.22,8.18C215.22,8.18 219.02,9.41 220.27,9.44C221,9.46 221.31,9.16 222.02,9.08C223.11,8.95 224.67,9.25 226.2,8.97C228.17,8.6 231.72,6.91 232.78,6.64C233.11,6.56 233.16,6.59 233.44,6.53C233.92,6.43 234.63,6.22 235.42,6.04C236.59,5.77 239.27,5.14 239.81,5.08C239.93,5.07 240.03,5.08 240.03,5.08C240.03,5.08 240.03,5.08 240.03,5.08C240.03,5.08 241.44,4.81 242.23,4.64C243.17,4.44 244.53,4.01 245.3,3.93C245.76,3.88 246.05,3.95 246.4,3.95C246.71,3.95 246.95,3.93 247.28,3.94C247.72,3.96 248.17,4.03 248.82,4.07C249.95,4.14 252.42,4.23 253.43,4.24C253.92,4.25 254.02,4.24 254.53,4.23C255.66,4.21 259.08,4.07 260.02,4.04C260.34,4.03 260.45,4.02 260.67,4.02C260.89,4.01 261.17,4.02 261.33,4.01C261.42,4 261.44,3.99 261.55,3.98C261.83,3.95 263.09,3.88 263.09,3.88C263.09,3.88 263.09,3.88 263.09,3.88C263.09,3.88 263.51,3.86 263.75,3.84C264.02,3.82 264.63,3.75 264.63,3.75C264.63,3.75 264.63,3.75 264.63,3.75C264.63,3.75 265.72,3.83 266.16,3.85C266.49,3.87 266.77,3.87 267.04,3.89C267.28,3.9 267.45,3.92 267.7,3.94C268.02,3.97 268.52,4.02 268.8,4.04C268.98,4.05 269.08,4.06 269.24,4.07C269.44,4.08 269.67,4.07 269.9,4.1C270.17,4.13 270.51,4.21 270.78,4.28C271.02,4.34 271.21,4.39 271.44,4.47C271.71,4.57 272.31,4.83 272.31,4.83C272.31,4.83 272.31,4.83 272.31,4.83C272.31,4.83 273.34,5.16 273.85,5.33C274.36,5.5 275.39,5.83 275.39,5.83C275.39,5.83 275.39,5.83 275.39,5.83C275.39,5.83 276.52,6.07 276.93,6.14C277.19,6.18 277.35,6.18 277.58,6.23C277.85,6.29 278.14,6.41 278.46,6.51C278.85,6.63 279.52,6.86 279.78,6.89Q279.88,6.9 280,6.88" style="vector-effect: none; fill: none; stroke: rgb(39, 42, 89); stroke-opacity: 1; stroke-width: 5px; opacity: 1;"/></g><g class="points"/><g class="text"/></g><g class="trace scatter trace45304e" style="stroke-miterlimit: 2; opacity: 1;"><g class="fills"/><g class="errorbars"/><g class="lines"><path class="js-line" d="M0,17.38Q4.07,19.79 7.03,19.57C12.56,19.16 24.78,8.97 30.09,8.43C32.73,8.16 34.23,9.48 36.24,9.97C38.18,10.44 40.1,10.39 41.95,11.32C44.15,12.43 46.84,16.07 48.31,16.67C48.94,16.93 49.24,16.61 49.85,16.79C50.89,17.09 52.2,18.2 53.8,18.91C56.08,19.93 60.03,21.44 62.37,22.01C63.91,22.39 65.23,22.47 66.32,22.54C67.09,22.59 67.67,22.63 68.3,22.53C68.91,22.44 69.41,22.08 70.05,22C70.78,21.91 71.67,22.17 72.47,22.11C73.28,22.05 74.21,21.82 74.89,21.63C75.4,21.49 75.6,21.29 76.2,21.14C77.39,20.85 80.3,20.88 81.69,20.46C82.62,20.18 82.91,19.39 83.89,19.35C85.73,19.27 88.71,22.16 92.02,22.6C96.78,23.24 108.83,20.19 110.02,20.52C110.17,20.56 110.11,20.63 110.24,20.69C110.81,20.95 113.95,21.54 115.29,21.64C116.17,21.71 116.64,21.5 117.49,21.56C118.66,21.64 120.49,22.13 121.66,22.3C122.51,22.42 123.01,22.33 123.86,22.54C125.13,22.85 127.4,23.91 128.47,24.3C129.04,24.51 129.53,24.7 129.79,24.76C129.89,24.78 129.89,24.76 130.01,24.79C130.66,24.94 134.07,26.49 136.16,26.73C138.24,26.97 140.09,26.1 142.53,26.22C145.88,26.39 152.41,27.98 154.38,28.39C155.04,28.53 155.38,28.61 155.7,28.69C155.89,28.73 155.91,28.77 156.14,28.8C156.98,28.9 160.68,28.69 162.07,28.75C162.83,28.78 163.16,28.84 163.83,28.91C164.71,29.01 165.91,29.29 166.9,29.31C167.81,29.33 169.03,29.06 169.54,29.1C169.75,29.12 169.83,29.19 169.98,29.21C170.13,29.23 170.2,29.19 170.42,29.2C171.12,29.22 173.1,29.42 174.81,29.5C177.19,29.62 182.58,29.77 183.37,29.75C183.5,29.75 183.52,29.74 183.59,29.73C183.66,29.72 183.69,29.69 183.81,29.68C184.4,29.62 188.06,29.89 189.08,29.88C189.5,29.88 189.54,29.86 189.96,29.83C191.06,29.75 195.25,29.39 195.89,29.3C196.01,29.28 196,29.27 196.11,29.26C196.39,29.22 197.01,29.11 197.65,29.11C198.7,29.11 200.49,29.59 201.82,29.54C203.04,29.5 204.14,28.97 205.33,28.93C206.55,28.89 207.72,29.2 209.07,29.34C210.68,29.51 213.32,29.78 214.34,29.89C214.76,29.93 215.22,29.98 215.22,29.98C215.22,29.98 215.22,29.98 215.22,29.98C215.22,29.98 219.01,31.19 220.27,31.45C221,31.6 221.31,31.6 222.02,31.68C223.11,31.81 224.66,31.86 226.2,32.09C228.15,32.37 231.74,32.98 232.78,33.37C233.13,33.5 233.15,33.66 233.44,33.75C233.91,33.9 234.63,33.93 235.42,33.94C236.6,33.95 239.28,33.56 239.81,33.59C239.93,33.6 240.03,33.63 240.03,33.63C240.03,33.63 240.03,33.63 240.03,33.63C240.03,33.63 241.44,33.81 242.23,33.9C243.17,34.01 244.54,34.07 245.3,34.22C245.76,34.31 246.06,34.42 246.4,34.55C246.71,34.67 246.94,34.83 247.28,34.94C247.72,35.08 248.17,35.14 248.82,35.27C249.94,35.49 252.42,35.94 253.43,36.09C253.92,36.16 254.02,36.18 254.53,36.22C255.66,36.32 259.08,36.46 260.02,36.5C260.34,36.51 260.45,36.52 260.67,36.52C260.89,36.52 261.17,36.53 261.33,36.52C261.42,36.52 261.44,36.51 261.55,36.5C261.83,36.48 263.09,36.38 263.09,36.38C263.09,36.38 263.09,36.38 263.09,36.38C263.09,36.38 263.51,36.32 263.75,36.29C264.02,36.26 264.63,36.19 264.63,36.19C264.63,36.19 264.63,36.19 264.63,36.19C264.63,36.19 265.72,36.22 266.16,36.24C266.49,36.25 266.77,36.27 267.04,36.28C267.28,36.29 267.45,36.3 267.7,36.31C268.02,36.32 268.52,36.34 268.8,36.35C268.98,36.36 269.08,36.37 269.24,36.37C269.44,36.37 269.66,36.35 269.9,36.33C270.17,36.3 270.51,36.26 270.78,36.22C271.02,36.18 271.2,36.13 271.44,36.09C271.71,36.05 272.31,35.99 272.31,35.99C272.31,35.99 272.31,35.99 272.31,35.99C272.31,35.99 273.34,35.81 273.85,35.71C274.36,35.61 275.39,35.37 275.39,35.37C275.39,35.37 275.39,35.37 275.39,35.37C275.39,35.37 276.53,35.11 276.93,35.02C277.19,34.96 277.35,34.92 277.58,34.88C277.85,34.83 278.14,34.8 278.46,34.76C278.86,34.71 279.52,34.62 279.78,34.6Q279.88,34.59 280,34.6" style="vector-effect: none; fill: none; stroke: rgb(94, 102, 213); stroke-opacity: 1; stroke-width: 5px; opacity: 1;"/></g><g class="points"/><g class="text"/></g><g class="trace scatter tracef7b228" style="stroke-miterlimit: 2; opacity: 1;"><g class="fills"/><g class="errorbars"/><g class="lines"><path class="js-line" d="M0,62.31Q3.26,53.54 7.03,51.71C12.12,49.24 24.88,52.74 30.09,53.56C32.82,53.99 34.23,54.5 36.24,55.01C38.18,55.5 40.02,55.85 41.95,56.54C44.04,57.29 46.92,58.77 48.31,59.45C49,59.79 49.21,59.94 49.85,60.24C50.86,60.72 52.19,61.5 53.8,61.96C56.08,62.61 60.06,63 62.37,63.25C63.93,63.42 65.23,63.44 66.32,63.5C67.09,63.54 67.66,63.62 68.3,63.58C68.9,63.54 69.42,63.36 70.05,63.3C70.79,63.23 71.67,63.27 72.47,63.2C73.28,63.13 74.21,62.98 74.89,62.86C75.39,62.77 75.61,62.65 76.2,62.6C77.4,62.5 80.27,62.77 81.69,62.75C82.59,62.74 82.93,62.7 83.89,62.64C85.75,62.52 88.78,62.27 92.02,62.02C96.84,61.65 108.83,60.71 110.02,60.66C110.15,60.66 110.12,60.66 110.24,60.66C110.82,60.67 113.96,60.62 115.29,60.77C116.18,60.87 116.64,61.13 117.49,61.23C118.65,61.36 120.49,61.2 121.66,61.3C122.51,61.37 122.99,61.53 123.86,61.64C125.11,61.79 127.4,61.98 128.47,62.05C129.04,62.09 129.53,62.1 129.79,62.11C129.89,62.11 129.89,62.11 130.01,62.11C130.66,62.13 134.09,62.43 136.16,62.41C138.27,62.39 140.08,62.07 142.53,61.96C145.87,61.81 152.41,61.94 154.38,61.76C155.04,61.7 155.38,61.59 155.7,61.54C155.89,61.51 155.91,61.5 156.14,61.48C156.99,61.42 160.68,61.54 162.07,61.5C162.83,61.48 163.16,61.41 163.83,61.39C164.71,61.36 165.92,61.4 166.9,61.39C167.81,61.38 169.03,61.37 169.54,61.35C169.75,61.34 169.83,61.33 169.98,61.32C170.13,61.31 170.2,61.32 170.42,61.31C171.12,61.29 173.11,61.24 174.81,61.14C177.19,61 182.58,60.55 183.37,60.5C183.5,60.49 183.52,60.49 183.59,60.49C183.66,60.49 183.69,60.49 183.81,60.48C184.41,60.43 188.06,59.86 189.08,59.86C189.5,59.86 189.54,59.92 189.96,59.96C191.06,60.07 195.25,60.47 195.89,60.48C196.01,60.48 196,60.48 196.11,60.47C196.39,60.45 197.01,60.42 197.65,60.32C198.7,60.16 200.49,59.7 201.82,59.46C203.04,59.24 204.14,59.13 205.33,58.93C206.56,58.72 207.71,58.42 209.07,58.21C210.67,57.97 213.33,57.82 214.34,57.63C214.76,57.55 215.22,57.39 215.22,57.39C215.22,57.39 215.22,57.39 215.22,57.39C215.22,57.39 219.02,56.39 220.27,56.18C221,56.06 221.31,56.09 222.02,56C223.12,55.87 224.65,55.61 226.2,55.42C228.14,55.19 231.73,55.01 232.78,54.76C233.12,54.68 233.16,54.61 233.44,54.5C233.92,54.3 234.62,53.94 235.42,53.65C236.59,53.23 239.27,52.45 239.81,52.36C239.93,52.34 240.03,52.35 240.03,52.35C240.03,52.35 240.03,52.35 240.03,52.35C240.03,52.35 241.44,52.4 242.23,52.43C243.17,52.47 244.53,52.51 245.3,52.57C245.76,52.6 246.05,52.68 246.4,52.68C246.71,52.68 246.95,52.63 247.28,52.6C247.72,52.56 248.17,52.56 248.82,52.49C249.95,52.37 252.42,51.95 253.43,51.82C253.92,51.76 254.02,51.71 254.53,51.69C255.66,51.64 259.08,51.84 260.02,51.81C260.34,51.8 260.45,51.78 260.67,51.76C260.89,51.74 261.17,51.69 261.33,51.67C261.42,51.66 261.44,51.66 261.55,51.65C261.83,51.63 263.09,51.54 263.09,51.54C263.09,51.54 263.09,51.54 263.09,51.54C263.09,51.54 263.51,51.49 263.75,51.47C264.02,51.45 264.63,51.42 264.63,51.42C264.63,51.42 264.63,51.42 264.63,51.42C264.63,51.42 265.72,51.35 266.16,51.32C266.49,51.3 266.77,51.27 267.04,51.25C267.28,51.24 267.45,51.23 267.7,51.22C268.02,51.21 268.52,51.19 268.8,51.17C268.98,51.16 269.08,51.13 269.24,51.12C269.44,51.1 269.66,51.1 269.9,51.09C270.17,51.08 270.51,51.09 270.78,51.09C271.02,51.09 271.2,51.08 271.44,51.07C271.71,51.06 272.31,51.01 272.31,51.01C272.31,51.01 272.31,51.01 272.31,51.01C272.31,51.01 273.34,51 273.85,50.99C274.36,50.98 275.39,50.94 275.39,50.94C275.39,50.94 275.39,50.94 275.39,50.94C275.39,50.94 276.53,51.01 276.93,51.03C277.19,51.04 277.35,51.06 277.58,51.06C277.85,51.06 278.14,51.04 278.46,51.04C278.86,51.04 279.52,51.03 279.78,51.04Q279.88,51.04 280,51.05" style="vector-effect: none; fill: none; stroke: rgb(255, 26, 74); stroke-opacity: 1; stroke-width: 5px; opacity: 1;"/></g><g class="points"/><g class="text"/></g><g class="trace scatter trace1964bc" style="stroke-miterlimit: 2; opacity: 1;"><g class="fills"/><g class="errorbars"/><g class="lines"><path class="js-line" d="M0,55.03Q4.02,55.25 7.03,55.07C12.51,54.74 24.86,52.1 30.09,52.17C32.8,52.21 34.23,53.14 36.24,53.11C38.18,53.08 39.99,52.38 41.95,52.06C44.01,51.73 46.91,51.34 48.31,51.18C49,51.1 49.22,51.14 49.85,51.05C50.87,50.9 52.22,50.47 53.8,50.23C56.1,49.88 60.06,49.53 62.37,49.38C63.94,49.28 65.23,49.33 66.32,49.27C67.09,49.23 67.66,49.09 68.3,49.1C68.9,49.11 69.42,49.3 70.05,49.33C70.79,49.36 71.67,49.15 72.47,49.21C73.28,49.27 74.2,49.6 74.89,49.72C75.39,49.81 75.61,49.84 76.2,49.9C77.4,50.03 80.27,50.18 81.69,50.33C82.59,50.42 82.92,50.55 83.89,50.61C85.74,50.72 88.82,50.05 92.02,50.51C96.89,51.21 108.82,55.91 110.02,56.06C110.15,56.08 110.12,56.05 110.24,56.05C110.82,56.04 113.96,56.05 115.29,56.19C116.18,56.28 116.64,56.49 117.49,56.58C118.66,56.7 120.49,56.7 121.66,56.71C122.51,56.72 122.99,56.68 123.86,56.68C125.12,56.68 127.4,56.75 128.47,56.74C129.04,56.74 129.53,56.7 129.79,56.7C129.89,56.7 129.89,56.71 130.01,56.71C130.66,56.69 134.09,56.09 136.16,56.03C138.26,55.97 140.09,56.54 142.53,56.39C145.88,56.18 152.4,54.34 154.38,54.23C155.04,54.19 155.38,54.31 155.7,54.32C155.89,54.33 155.91,54.33 156.14,54.32C156.99,54.29 160.68,53.96 162.07,53.9C162.83,53.87 163.16,53.87 163.83,53.88C164.71,53.89 165.92,53.85 166.9,53.99C167.82,54.12 169.03,54.57 169.54,54.65C169.75,54.68 169.83,54.67 169.98,54.68C170.13,54.69 170.2,54.71 170.42,54.73C171.12,54.79 173.1,54.98 174.81,55.03C177.19,55.1 182.58,54.95 183.37,54.96C183.5,54.96 183.52,54.96 183.59,54.97C183.66,54.98 183.69,54.99 183.81,55.01C184.41,55.11 188.06,55.66 189.08,55.83C189.5,55.9 189.54,55.91 189.96,55.99C191.06,56.19 195.25,57.04 195.89,57.08C196.01,57.09 196,57.07 196.11,57.07C196.39,57.07 197.01,57.13 197.65,57.13C198.7,57.13 200.49,56.89 201.82,56.97C203.04,57.04 204.15,57.28 205.33,57.53C206.56,57.79 207.71,58.21 209.07,58.5C210.67,58.84 213.32,59.26 214.34,59.4C214.76,59.46 215.22,59.49 215.22,59.49C215.22,59.49 215.22,59.49 215.22,59.49C215.22,59.49 219.02,59.77 220.27,59.81C221,59.83 221.31,59.77 222.02,59.8C223.12,59.85 224.65,60.19 226.2,60.22C228.14,60.26 231.72,59.9 232.78,59.85C233.11,59.84 233.16,59.83 233.44,59.83C233.92,59.83 234.63,59.86 235.42,59.87C236.6,59.88 239.27,59.87 239.81,59.84C239.93,59.83 240.03,59.82 240.03,59.82C240.03,59.82 240.03,59.82 240.03,59.82C240.03,59.82 241.43,60.08 242.23,60.11C243.17,60.14 244.53,59.98 245.3,59.93C245.76,59.9 246.05,59.85 246.4,59.85C246.71,59.85 246.95,59.88 247.28,59.9C247.72,59.92 248.17,59.96 248.82,59.97C249.95,59.98 252.42,59.86 253.43,59.87C253.92,59.87 254.03,59.94 254.53,59.91C255.66,59.84 259.08,59.17 260.02,59.07C260.34,59.04 260.45,59.04 260.67,59.03C260.89,59.02 261.17,59.02 261.33,59.01C261.42,59 261.44,59 261.55,58.99C261.83,58.97 263.09,58.95 263.09,58.95C263.09,58.95 263.09,58.95 263.09,58.95C263.09,58.95 263.51,58.97 263.75,58.97C264.02,58.97 264.63,58.95 264.63,58.95C264.63,58.95 264.63,58.95 264.63,58.95C264.63,58.95 265.72,58.84 266.16,58.8C266.49,58.77 266.77,58.75 267.04,58.73C267.28,58.71 267.45,58.7 267.7,58.68C268.02,58.66 268.52,58.63 268.8,58.61C268.98,58.6 269.08,58.59 269.24,58.57C269.44,58.55 269.66,58.53 269.9,58.5C270.17,58.46 270.51,58.41 270.78,58.36C271.02,58.32 271.21,58.28 271.44,58.23C271.71,58.17 272.31,58.04 272.31,58.04C272.31,58.04 272.31,58.04 272.31,58.04C272.31,58.04 273.34,57.79 273.85,57.64C274.37,57.49 275.39,57.15 275.39,57.15C275.39,57.15 275.39,57.15 275.39,57.15C275.39,57.15 276.52,56.67 276.93,56.51C277.19,56.41 277.35,56.36 277.58,56.28C277.85,56.18 278.14,56.08 278.46,55.97C278.85,55.84 279.52,55.61 279.78,55.55Q279.88,55.53 280,55.52" style="vector-effect: none; fill: none; stroke: rgb(164, 125, 3); stroke-opacity: 1; stroke-width: 5px; opacity: 1;"/></g><g class="points"/><g class="text"/></g><g class="trace scatter tracea58ff2" style="stroke-miterlimit: 2; opacity: 1;"><g class="fills"/><g class="errorbars"/><g class="lines"><path class="js-line" d="M0,55.24Q3.96,57 7.03,57.63C12.45,58.75 24.85,59.2 30.09,59.47C32.79,59.61 34.23,59.54 36.24,59.61C38.18,59.68 40.05,60.27 41.95,59.87C44.07,59.42 46.9,57.28 48.31,56.72C48.98,56.45 49.23,56.49 49.85,56.26C50.87,55.88 52.19,54.89 53.8,54.51C56.07,53.98 60.06,54.13 62.37,54.13C63.94,54.13 65.23,54.31 66.32,54.31C67.09,54.31 67.66,54.18 68.3,54.21C68.9,54.24 69.42,54.43 70.05,54.47C70.79,54.51 71.66,54.45 72.47,54.39C73.28,54.33 74.21,54.16 74.89,54.13C75.39,54.11 75.62,54.2 76.2,54.16C77.4,54.07 80.27,53.42 81.69,53.23C82.59,53.11 82.93,52.99 83.89,53.01C85.75,53.05 88.77,53.98 92.02,54.19C96.83,54.5 108.83,54.04 110.02,53.9C110.15,53.88 110.12,53.86 110.24,53.85C110.82,53.79 113.96,54.15 115.29,54.02C116.18,53.93 116.64,53.66 117.49,53.51C118.65,53.31 120.49,53.16 121.66,53.03C122.51,52.93 122.99,52.86 123.86,52.79C125.11,52.68 127.4,52.6 128.47,52.51C129.04,52.46 129.53,52.4 129.79,52.38C129.89,52.37 129.89,52.37 130.01,52.36C130.66,52.32 134.09,52.25 136.16,52.17C138.26,52.09 140.09,51.72 142.53,51.88C145.88,52.1 152.4,53.85 154.38,54.02C155.04,54.08 155.38,53.98 155.7,54.01C155.89,54.03 155.91,54.07 156.14,54.09C156.98,54.15 160.68,54.06 162.07,53.92C162.83,53.84 163.16,53.72 163.83,53.62C164.71,53.49 165.92,53.36 166.9,53.23C167.81,53.11 169.03,52.92 169.54,52.86C169.75,52.84 169.83,52.83 169.98,52.82C170.13,52.81 170.2,52.82 170.42,52.82C171.12,52.81 173.11,52.81 174.81,52.75C177.19,52.67 182.58,52.29 183.37,52.29C183.5,52.29 183.52,52.29 183.59,52.3C183.66,52.31 183.69,52.33 183.81,52.35C184.41,52.45 188.06,52.81 189.08,52.96C189.5,53.02 189.53,53.07 189.96,53.11C191.06,53.22 195.25,53.28 195.89,53.31C196.01,53.31 196,53.32 196.11,53.32C196.39,53.33 197.01,53.35 197.65,53.39C198.7,53.46 200.49,53.63 201.82,53.72C203.04,53.8 204.15,53.76 205.33,53.9C206.56,54.05 207.72,54.34 209.07,54.6C210.68,54.9 213.32,55.48 214.34,55.61C214.75,55.66 215.22,55.67 215.22,55.67C215.22,55.67 215.22,55.67 215.22,55.67C215.22,55.67 219.03,56.47 220.27,56.78C221.01,56.96 221.31,57.08 222.02,57.26C223.11,57.54 224.65,57.88 226.2,58.22C228.14,58.64 231.72,59.35 232.78,59.55C233.11,59.61 233.16,59.62 233.44,59.67C233.92,59.76 234.64,59.88 235.42,60.07C236.6,60.36 239.27,61.27 239.81,61.37C239.93,61.39 240.03,61.39 240.03,61.39C240.03,61.39 240.03,61.39 240.03,61.39C240.03,61.39 241.44,61.48 242.23,61.53C243.17,61.59 244.53,61.65 245.3,61.72C245.76,61.76 246.05,61.81 246.4,61.84C246.71,61.87 246.95,61.88 247.28,61.9C247.72,61.92 248.17,61.92 248.82,61.94C249.95,61.98 252.42,62.11 253.43,62.14C253.92,62.15 254.02,62.15 254.53,62.15C255.66,62.16 259.08,62.13 260.02,62.15C260.34,62.16 260.45,62.17 260.67,62.18C260.89,62.2 261.17,62.23 261.33,62.24C261.42,62.25 261.44,62.24 261.55,62.25C261.83,62.27 263.09,62.41 263.09,62.41C263.09,62.41 263.09,62.41 263.09,62.41C263.09,62.41 263.51,62.41 263.75,62.42C264.02,62.43 264.63,62.49 264.63,62.49C264.63,62.49 264.63,62.49 264.63,62.49C264.63,62.49 265.72,62.49 266.16,62.49C266.49,62.49 266.77,62.49 267.04,62.47C267.28,62.46 267.45,62.43 267.7,62.41C268.02,62.38 268.52,62.34 268.8,62.31C268.98,62.29 269.08,62.27 269.24,62.26C269.44,62.24 269.66,62.23 269.9,62.22C270.17,62.2 270.51,62.18 270.78,62.17C271.02,62.16 271.2,62.18 271.44,62.17C271.71,62.16 272.31,62.13 272.31,62.13C272.31,62.13 272.31,62.13 272.31,62.13C272.31,62.13 273.34,62.06 273.85,62.03C274.36,62 275.39,61.93 275.39,61.93C275.39,61.93 275.39,61.93 275.39,61.93C275.39,61.93 276.53,61.93 276.93,61.93C277.19,61.93 277.35,61.94 277.58,61.94C277.85,61.94 278.14,61.94 278.46,61.94C278.86,61.94 279.52,61.96 279.78,61.96Q279.88,61.96 280,61.95" style="vector-effect: none; fill: none; stroke: rgb(17, 17, 17); stroke-opacity: 1; stroke-width: 5px; opacity: 1;"/></g><g class="points"/><g class="text"/></g></g></g><g class="overplot"/><path class="xlines-above crisp" d="M0,0" style="fill: none;"/><path class="ylines-above crisp" d="M0,0" style="fill: none;"/><g class="overlines-above"/><g class="xaxislayer-above"/><g class="yaxislayer-above"/><g class="overaxes-above"/></g></g><g class="polarlayer"/><g class="smithlayer"/><g class="ternarylayer"/><g class="geolayer"/><g class="funnelarealayer"/><g class="pielayer"/><g class="iciclelayer"/><g class="treemaplayer"/><g class="sunburstlayer"/><g class="glimages"/><defs id="topdefs-555865"><g class="clips"/></defs><g class="layer-above"><g class="imagelayer"/><g class="shapelayer"/></g><g class="infolayer"><g class="g-gtitle"><text class="gtitle" x="15" y="25" text-anchor="start" dy="0em" style="font-family: Ubuntu, verdana, arial, sans-serif; font-size: 16px; fill: rgb(233, 84, 32); opacity: 1; font-weight: normal; white-space: pre;">Sněmovna volby 2025</text></g><g class="g-xtitle"/><g class="g-ytitle"/></g></svg>