<svg class="main-svg" xmlns="http://www.w3.org/2000/svg" xmlns:xlink="http://www.w3.org/1999/xlink" width="400" height="400" style="" viewBox="0 0 400 400"><rect x="0" y="0" width="400" height="400" style="fill: rgb(255, 255, 255); fill-opacity: 1;"/><defs id="defs-f1655e"><g class="clips"><clipPath id="clipf1655exyplot" class="plotclip"><rect width="203" height="330"/></clipPath><clipPath class="axesclip" id="clipf1655ex"><rect x="50" y="0" width="203" height="400"/></clipPath><clipPath class="axesclip" id="clipf1655ey"><rect x="0" y="20" width="400" height="330"/></clipPath><clipPath class="axesclip" id="clipf1655exy"><rect x="50" y="20" width="203" height="330"/></clipPath></g><g class="gradients"/><g class="patterns"/></defs><g class="bglayer"/><g class="layer-below"><g class="imagelayer"/><g class="shapelayer"/></g><g class="cartesianlayer"><g class="subplot xy"><g class="layer-subplot"><g class="shapelayer"/><g class="imagelayer"/></g><g class="gridlayer"><g class="x"><path class="xgrid crisp" transform="translate(61.74,0)" d="M0,20v330" style="stroke: rgb(235, 240, 248); stroke-opacity: 1; stroke-width: 1px;"/><path class="xgrid crisp" transform="translate(112.72999999999999,0)" d="M0,20v330" style="stroke: rgb(235, 240, 248); stroke-opacity: 1; stroke-width: 1px;"/><path class="xgrid crisp" transform="translate(163.72,0)" d="M0,20v330" style="stroke: rgb(235, 240, 248); stroke-opacity: 1; stroke-width: 1px;"/><path class="xgrid crisp" transform="translate(214.86,0)" d="M0,20v330" style="stroke: rgb(235, 240, 248); stroke-opacity: 1; stroke-width: 1px;"/></g><g class="y"><path class="ygrid crisp" transform="translate(0,305.78)" d="M50,0h203" style="stroke: rgb(235, 240, 248); stroke-opacity: 1; stroke-width: 1px;"/><path class="ygrid crisp" transform="translate(0,261.56)" d="M50,0h203" style="stroke: rgb(235, 240, 248); stroke-opacity: 1; stroke-width: 1px;"/><path class="ygrid crisp" transform="translate(0,217.35)" d="M50,0h203" style="stroke: rgb(235, 240, 248); stroke-opacity: 1; stroke-width: 1px;"/><path class="ygrid crisp" transform="translate(0,173.13)" d="M50,0h203" style="stroke: rgb(235, 240, 248); stroke-opacity: 1; stroke-width: 1px;"/><path class="ygrid crisp" transform="translate(0,128.91)" d="M50,0h203" style="stroke: rgb(235, 240, 248); stroke-opacity: 1; stroke-width: 1px;"/><path class="ygrid crisp" transform="translate(0,84.69)" d="M50,0h203" style="stroke: rgb(235, 240, 248); stroke-opacity: 1; stroke-width: 1px;"/><path class="ygrid crisp" transform="translate(0,40.480000000000004)" d="M50,0h203" style="stroke: rgb(235, 240, 248); stroke-opacity: 1; stroke-width: 1px;"/></g></g><g class="zerolinelayer"><path class="yzl zl crisp" transform="translate(0,350)" d="M50,0h203" style="stroke: rgb(235, 240, 248); stroke-opacity: 1; stroke-width: 2px;"/></g><path class="xlines-below"/><path class="ylines-below"/><g class="overlines-below"/><g class="xaxislayer-below"/><g class="yaxislayer-below"/><g class="overaxes-below"/><g class="plot" transform="translate(50,20)" clip-path="url(#clipf1655exyplot)"><g class="scatterlayer mlayer"><g class="trace scatter trace103bb9" style="stroke-miterlimit: 2; opacity: 1;"><g class="fills"><g><path class="js-fill" d="M0,43.49Q2.56,44.39 4.47,45.16C7.96,46.57 16.06,52.71 19.14,51.53C21.51,50.62 21.62,45.33 23.05,42.97C24.18,41.1 25.47,39.97 26.68,38.28C28.03,36.4 29.86,33.55 30.74,32.17C31.18,31.48 31.29,31.19 31.71,30.59C32.33,29.7 33.3,28.82 34.23,27.42C35.78,25.1 37.9,18.87 39.68,17.64C40.53,17.06 41.36,17.38 42.19,17.27C42.99,17.17 43.86,17.09 44.57,17.01C45.14,16.94 46.1,16.89 46.1,16.82C46.1,16.73 43.48,16.36 43.45,16.5C43.39,16.74 49.04,16.59 50.99,19.44C57.68,29.23 57.68,110.46 50.99,115.04C49.04,116.37 43.39,112.35 43.45,112.11C43.48,111.97 46.1,112.33 46.1,112.42C46.1,112.49 45.14,112.55 44.57,112.62C43.86,112.7 42.99,112.77 42.19,112.87C41.36,112.97 40.56,112.71 39.68,113.24C38.01,114.25 35.62,118.38 34.23,120.75C33.11,122.65 32.47,125.99 31.71,126.19C31.37,126.28 31.13,125.43 30.74,125.5C29.78,125.68 28.16,130.13 26.68,131.61C25.54,132.75 24.1,132.68 23.05,134.02C21.34,136.2 21.67,143.95 19.14,144.86C16.06,145.97 8.04,136.93 4.47,136.21Q2.63,135.84 0,136.82Z" style="fill: rgb(38, 16, 96); fill-opacity: 0.05; stroke-width: 0;"/></g></g><g class="errorbars"/><g class="lines"><path class="js-line" d="M0,43.49Q2.56,44.39 4.47,45.16C7.96,46.57 16.06,52.71 19.14,51.53C21.51,50.62 21.62,45.33 23.05,42.97C24.18,41.1 25.47,39.97 26.68,38.28C28.03,36.4 29.86,33.55 30.74,32.17C31.18,31.48 31.29,31.19 31.71,30.59C32.33,29.7 33.3,28.82 34.23,27.42C35.78,25.1 37.9,18.87 39.68,17.64C40.53,17.06 41.36,17.38 42.19,17.27C42.99,17.17 43.86,17.09 44.57,17.01C45.14,16.94 46.1,16.89 46.1,16.82C46.1,16.73 43.48,16.36 43.45,16.5C43.39,16.74 49.04,16.59 50.99,19.44C57.68,29.23 57.68,110.46 50.99,115.04C49.04,116.37 43.39,112.35 43.45,112.11C43.48,111.97 46.1,112.33 46.1,112.42C46.1,112.49 45.14,112.55 44.57,112.62C43.86,112.7 42.99,112.77 42.19,112.87C41.36,112.97 40.56,112.71 39.68,113.24C38.01,114.25 35.62,118.38 34.23,120.75C33.11,122.65 32.47,125.99 31.71,126.19C31.37,126.28 31.13,125.43 30.74,125.5C29.78,125.68 28.16,130.13 26.68,131.61C25.54,132.75 24.1,132.68 23.05,134.02C21.34,136.2 21.67,143.95 19.14,144.86C16.06,145.97 8.04,136.93 4.47,136.21Q2.63,135.84 0,136.82" style="vector-effect: non-scaling-stroke; fill: none; stroke: rgb(255, 255, 255); stroke-opacity: 0; stroke-width: 2px; opacity: 1;"/></g><g class="points"/><g class="text"/></g><g class="trace scatter trace4eac5b" style="stroke-miterlimit: 2; opacity: 1;"><g class="fills"><g><path class="js-fill" d="M0,168.62Q2.78,162.83 4.47,157.62C8.31,145.8 15.3,108.76 19.14,98.3C20.6,94.33 21.41,91.23 23.05,90.42C24.12,89.9 25.66,90.1 26.68,91.15C29.29,93.84 29.63,111.48 30.74,115.14C31.09,116.28 31.38,116.25 31.71,117.3C32.5,119.78 32.96,125.97 34.23,130.3C35.57,134.87 37.81,141.85 39.68,143.99C40.51,144.93 41.39,145.47 42.19,145.4C43.02,145.32 43.88,143.38 44.57,143.41C45.15,143.44 46.2,144.79 46.1,144.95C45.99,145.13 43.56,144.68 43.45,144.11C43.25,143.05 49.13,137.06 50.99,137.94C56.32,140.46 56.8,208.08 50.99,217.61C49.1,220.72 43.38,220.72 43.45,221.5C43.49,221.95 45.99,222.52 46.1,222.34C46.2,222.18 45.15,220.83 44.57,220.8C43.88,220.77 43.02,222.71 42.19,222.79C41.39,222.87 40.53,222.29 39.68,221.39C37.9,219.5 35.57,213.79 34.23,209.97C32.98,206.4 32.74,199.95 31.71,199.24C31.4,199.03 31.06,199.6 30.74,199.37C29.24,198.28 29.17,180.17 26.68,177.65C25.66,176.62 24.15,176.48 23.05,176.92C21.55,177.52 20.57,179.54 19.14,182.52C15.19,190.76 8.35,222.99 4.47,232.74Q2.79,236.96 0,241.47Z" style="fill: rgb(0, 68, 148); fill-opacity: 0.05; stroke-width: 0;"/></g></g><g class="errorbars"/><g class="lines"><path class="js-line" d="M0,168.62Q2.78,162.83 4.47,157.62C8.31,145.8 15.3,108.76 19.14,98.3C20.6,94.33 21.41,91.23 23.05,90.42C24.12,89.9 25.66,90.1 26.68,91.15C29.29,93.84 29.63,111.48 30.74,115.14C31.09,116.28 31.38,116.25 31.71,117.3C32.5,119.78 32.96,125.97 34.23,130.3C35.57,134.87 37.81,141.85 39.68,143.99C40.51,144.93 41.39,145.47 42.19,145.4C43.02,145.32 43.88,143.38 44.57,143.41C45.15,143.44 46.2,144.79 46.1,144.95C45.99,145.13 43.56,144.68 43.45,144.11C43.25,143.05 49.13,137.06 50.99,137.94C56.32,140.46 56.8,208.08 50.99,217.61C49.1,220.72 43.38,220.72 43.45,221.5C43.49,221.95 45.99,222.52 46.1,222.34C46.2,222.18 45.15,220.83 44.57,220.8C43.88,220.77 43.02,222.71 42.19,222.79C41.39,222.87 40.53,222.29 39.68,221.39C37.9,219.5 35.57,213.79 34.23,209.97C32.98,206.4 32.74,199.95 31.71,199.24C31.4,199.03 31.06,199.6 30.74,199.37C29.24,198.28 29.17,180.17 26.68,177.65C25.66,176.62 24.15,176.48 23.05,176.92C21.55,177.52 20.57,179.54 19.14,182.52C15.19,190.76 8.35,222.99 4.47,232.74Q2.79,236.96 0,241.47" style="vector-effect: non-scaling-stroke; fill: none; stroke: rgb(255, 255, 255); stroke-opacity: 0; stroke-width: 2px; opacity: 1;"/></g><g class="points"/><g class="text"/></g><g class="trace scatter trace44de95" style="stroke-miterlimit: 2; opacity: 1;"><g class="fills"><g><path class="js-fill" d="M0,214.52Q2.74,215.16 4.47,214.41C8.22,212.78 15.88,199.21 19.14,199.41C20.94,199.52 21.77,204.52 23.05,204.52C24.28,204.52 25.44,201.46 26.68,199.85C28,198.14 29.79,194.71 30.74,194.52C31.13,194.44 31.38,195.19 31.71,195.08C32.49,194.83 33,191.24 34.23,189.57C35.58,187.73 38.13,184.94 39.68,184.64C40.61,184.46 41.39,185.68 42.19,185.56C43.03,185.44 43.92,184.49 44.57,183.77C45.22,183.04 46.31,181.46 46.1,181.21C45.9,180.97 43.52,181.65 43.45,182.2C43.33,183.19 49.15,183.83 50.99,187.29C56.03,196.78 56.44,251.8 50.99,255.58C49.12,256.88 43.45,253.46 43.45,252.76C43.45,252.35 46.12,251.85 46.1,251.78C46.09,251.73 45.11,251.82 44.57,252.06C43.83,252.39 43.01,253.32 42.19,253.85C41.38,254.37 40.68,254.69 39.68,255.21C38.22,255.96 35.61,256.74 34.23,257.86C33.1,258.78 32.4,260.95 31.71,261.09C31.35,261.16 31.16,260.5 30.74,260.53C29.84,260.59 27.92,262.37 26.68,263.59C25.34,264.91 24.38,268.07 23.05,268.26C21.85,268.43 20.86,265.43 19.14,265.42C15.81,265.4 8.09,274.66 4.47,275.87Q2.67,276.47 0,275.98Z" style="fill: rgb(234, 35, 41); fill-opacity: 0.05; stroke-width: 0;"/></g></g><g class="errorbars"/><g class="lines"><path class="js-line" d="M0,214.52Q2.74,215.16 4.47,214.41C8.22,212.78 15.88,199.21 19.14,199.41C20.94,199.52 21.77,204.52 23.05,204.52C24.28,204.52 25.44,201.46 26.68,199.85C28,198.14 29.79,194.71 30.74,194.52C31.13,194.44 31.38,195.19 31.71,195.08C32.49,194.83 33,191.24 34.23,189.57C35.58,187.73 38.13,184.94 39.68,184.64C40.61,184.46 41.39,185.68 42.19,185.56C43.03,185.44 43.92,184.49 44.57,183.77C45.22,183.04 46.31,181.46 46.1,181.21C45.9,180.97 43.52,181.65 43.45,182.2C43.33,183.19 49.15,183.83 50.99,187.29C56.03,196.78 56.44,251.8 50.99,255.58C49.12,256.88 43.45,253.46 43.45,252.76C43.45,252.35 46.12,251.85 46.1,251.78C46.09,251.73 45.11,251.82 44.57,252.06C43.83,252.39 43.01,253.32 42.19,253.85C41.38,254.37 40.68,254.69 39.68,255.21C38.22,255.96 35.61,256.74 34.23,257.86C33.1,258.78 32.4,260.95 31.71,261.09C31.35,261.16 31.16,260.5 30.74,260.53C29.84,260.59 27.92,262.37 26.68,263.59C25.34,264.91 24.38,268.07 23.05,268.26C21.85,268.43 20.86,265.43 19.14,265.42C15.81,265.4 8.09,274.66 4.47,275.87Q2.67,276.47 0,275.98" style="vector-effect: non-scaling-stroke; fill: none; stroke: rgb(255, 255, 255); stroke-opacity: 0; stroke-width: 2px; opacity: 1;"/></g><g class="points"/><g class="text"/></g><g class="trace scatter trace9df1f6" style="stroke-miterlimit: 2; opacity: 1;"><g class="fills"><g><path class="js-fill" d="M0,219.21Q2.23,223.92 4.47,226.28C7.75,229.73 15.69,235.85 19.14,236.64C20.76,237.01 21.78,235.91 23.05,236C24.29,236.08 25.65,237.67 26.68,237.11C28.7,236.02 29.81,225.96 30.74,223.16C31.15,221.93 31.33,221.67 31.71,220.54C32.38,218.52 32.57,213.51 34.23,212.03C35.54,210.86 38.23,210.89 39.68,211.06C40.7,211.18 41.36,211.83 42.19,212.13C42.99,212.42 43.91,212.43 44.57,212.84C45.2,213.23 46.03,214.53 46.1,214.47C46.21,214.39 43.21,210.33 43.45,210.13C43.78,209.85 49.2,212.69 50.99,216.58C55.45,226.27 55.87,275.16 50.99,278.04C49.16,279.12 43.54,273.73 43.45,273.87C43.39,273.96 46.05,275.99 46.1,275.93C46.14,275.88 45.2,274.7 44.57,274.31C43.91,273.9 42.99,273.88 42.19,273.59C41.36,273.29 40.7,272.64 39.68,272.52C38.23,272.35 35.55,272.42 34.23,273.49C32.78,274.66 32.34,278.08 31.71,279.72C31.3,280.78 31.19,281.2 30.74,282.34C29.87,284.51 28.43,290.93 26.68,291.74C25.62,292.23 24.29,290.71 23.05,290.63C21.78,290.54 20.83,291.45 19.14,291.27C15.78,290.91 7.71,288.16 4.47,285.47Q2.11,283.51 0,278.4Z" style="fill: rgb(0, 0, 0); fill-opacity: 0.05; stroke-width: 0;"/></g></g><g class="errorbars"/><g class="lines"><path class="js-line" d="M0,219.21Q2.23,223.92 4.47,226.28C7.75,229.73 15.69,235.85 19.14,236.64C20.76,237.01 21.78,235.91 23.05,236C24.29,236.08 25.65,237.67 26.68,237.11C28.7,236.02 29.81,225.96 30.74,223.16C31.15,221.93 31.33,221.67 31.71,220.54C32.38,218.52 32.57,213.51 34.23,212.03C35.54,210.86 38.23,210.89 39.68,211.06C40.7,211.18 41.36,211.83 42.19,212.13C42.99,212.42 43.91,212.43 44.57,212.84C45.2,213.23 46.03,214.53 46.1,214.47C46.21,214.39 43.21,210.33 43.45,210.13C43.78,209.85 49.2,212.69 50.99,216.58C55.45,226.27 55.87,275.16 50.99,278.04C49.16,279.12 43.54,273.73 43.45,273.87C43.39,273.96 46.05,275.99 46.1,275.93C46.14,275.88 45.2,274.7 44.57,274.31C43.91,273.9 42.99,273.88 42.19,273.59C41.36,273.29 40.7,272.64 39.68,272.52C38.23,272.35 35.55,272.42 34.23,273.49C32.78,274.66 32.34,278.08 31.71,279.72C31.3,280.78 31.19,281.2 30.74,282.34C29.87,284.51 28.43,290.93 26.68,291.74C25.62,292.23 24.29,290.71 23.05,290.63C21.78,290.54 20.83,291.45 19.14,291.27C15.78,290.91 7.71,288.16 4.47,285.47Q2.11,283.51 0,278.4" style="vector-effect: non-scaling-stroke; fill: none; stroke: rgb(255, 255, 255); stroke-opacity: 0; stroke-width: 2px; opacity: 1;"/></g><g class="points"/><g class="text"/></g><g class="trace scatter trace325119" style="stroke-miterlimit: 2; opacity: 1;"><g class="fills"><g><path class="js-fill" d="M0,231.4Q-0.11,198.86 4.47,196.85C7.76,195.41 16.02,203.67 19.14,207.24C21.28,209.69 21.78,212.26 23.05,214.74C24.29,217.16 25.54,219.15 26.68,221.94C28.15,225.53 29.91,231.22 30.74,234.65C31.29,236.91 31.23,238.29 31.71,240.38C32.31,242.97 32.94,246.26 34.23,248.95C35.56,251.73 38.02,255.49 39.68,256.76C40.56,257.43 41.39,257.76 42.19,257.66C43.02,257.55 43.83,256.24 44.57,256.04C45.11,255.89 46.08,256.03 46.1,256.15C46.12,256.31 43.69,257.38 43.45,257.06C42.92,256.36 49.32,245.52 50.99,246.04C54.3,247.06 55.01,289.65 50.99,298.39C49.24,302.2 43.24,304.49 43.45,304.86C43.56,305.06 46.12,304.11 46.1,303.95C46.08,303.83 45.11,303.69 44.57,303.84C43.83,304.04 43.02,305.35 42.19,305.46C41.39,305.56 40.6,305.15 39.68,304.56C38.11,303.56 35.57,301.08 34.23,299.03C32.98,297.11 32.44,293.98 31.71,292.74C31.36,292.15 31.11,292.19 30.74,291.56C29.74,289.84 28.2,283.89 26.68,281.13C25.56,279.09 24.29,277.87 23.05,276.2C21.77,274.48 21.12,272.69 19.14,270.97C15.98,268.21 7.71,261.31 4.47,262.86Q0.44,264.79 0,288.31Z" style="fill: rgb(93, 140, 0); fill-opacity: 0.05; stroke-width: 0;"/></g></g><g class="errorbars"/><g class="lines"><path class="js-line" d="M0,231.4Q-0.11,198.86 4.47,196.85C7.76,195.41 16.02,203.67 19.14,207.24C21.28,209.69 21.78,212.26 23.05,214.74C24.29,217.16 25.54,219.15 26.68,221.94C28.15,225.53 29.91,231.22 30.74,234.65C31.29,236.91 31.23,238.29 31.71,240.38C32.31,242.97 32.94,246.26 34.23,248.95C35.56,251.73 38.02,255.49 39.68,256.76C40.56,257.43 41.39,257.76 42.19,257.66C43.02,257.55 43.83,256.24 44.57,256.04C45.11,255.89 46.08,256.03 46.1,256.15C46.12,256.31 43.69,257.38 43.45,257.06C42.92,256.36 49.32,245.52 50.99,246.04C54.3,247.06 55.01,289.65 50.99,298.39C49.24,302.2 43.24,304.49 43.45,304.86C43.56,305.06 46.12,304.11 46.1,303.95C46.08,303.83 45.11,303.69 44.57,303.84C43.83,304.04 43.02,305.35 42.19,305.46C41.39,305.56 40.6,305.15 39.68,304.56C38.11,303.56 35.57,301.08 34.23,299.03C32.98,297.11 32.44,293.98 31.71,292.74C31.36,292.15 31.11,292.19 30.74,291.56C29.74,289.84 28.2,283.89 26.68,281.13C25.56,279.09 24.29,277.87 23.05,276.2C21.77,274.48 21.12,272.69 19.14,270.97C15.98,268.21 7.71,261.31 4.47,262.86Q0.44,264.79 0,288.31" style="vector-effect: non-scaling-stroke; fill: none; stroke: rgb(255, 255, 255); stroke-opacity: 0; stroke-width: 2px; opacity: 1;"/></g><g class="points"/><g class="text"/></g><g class="trace scatter trace26ba36" style="stroke-miterlimit: 2; opacity: 1;"><g class="fills"><g><path class="js-fill" d="M0,251.17Q0.99,266.71 4.47,268.68C7.67,270.49 15.97,263.38 19.14,264.27C21.1,264.82 21.67,267.56 23.05,268.65C24.21,269.56 25.4,270.1 26.68,270.6C27.97,271.11 29.87,271.79 30.74,271.67C31.19,271.61 31.3,271.14 31.71,271.1C32.34,271.03 33.22,271.67 34.23,271.95C35.69,272.35 38.22,272.75 39.68,273.14C40.68,273.41 41.38,274.02 42.19,273.95C43.01,273.88 43.86,273.06 44.57,272.68C45.14,272.37 46.06,271.78 46.1,271.84C46.16,271.93 43.65,274.33 43.45,274.16C43.03,273.81 49.4,260.54 50.99,260.96C53.75,261.69 54.32,297.6 50.99,306.49C49.32,310.95 43.32,315 43.45,315.13C43.52,315.2 46.16,312.91 46.1,312.82C46.06,312.76 45.14,313.34 44.57,313.65C43.86,314.03 43.01,314.86 42.19,314.93C41.38,315 40.69,314.38 39.68,314.11C38.22,313.71 35.67,312.7 34.23,312.92C33.19,313.08 32.3,314.51 31.71,314.35C31.22,314.22 31.31,313.09 30.74,312.65C29.91,312.01 28.01,311.69 26.68,311.58C25.45,311.47 24.18,312.35 23.05,311.9C21.62,311.33 21.1,308.07 19.14,307.52C15.97,306.63 7.66,313.44 4.47,311.93Q1.7,310.62 0,301.25Z" style="fill: rgb(230, 172, 33); fill-opacity: 0.05; stroke-width: 0;"/></g></g><g class="errorbars"/><g class="lines"><path class="js-line" d="M0,251.17Q0.99,266.71 4.47,268.68C7.67,270.49 15.97,263.38 19.14,264.27C21.1,264.82 21.67,267.56 23.05,268.65C24.21,269.56 25.4,270.1 26.68,270.6C27.97,271.11 29.87,271.79 30.74,271.67C31.19,271.61 31.3,271.14 31.71,271.1C32.34,271.03 33.22,271.67 34.23,271.95C35.69,272.35 38.22,272.75 39.68,273.14C40.68,273.41 41.38,274.02 42.19,273.95C43.01,273.88 43.86,273.06 44.57,272.68C45.14,272.37 46.06,271.78 46.1,271.84C46.16,271.93 43.65,274.33 43.45,274.16C43.03,273.81 49.4,260.54 50.99,260.96C53.75,261.69 54.32,297.6 50.99,306.49C49.32,310.95 43.32,315 43.45,315.13C43.52,315.2 46.16,312.91 46.1,312.82C46.06,312.76 45.14,313.34 44.57,313.65C43.86,314.03 43.01,314.86 42.19,314.93C41.38,315 40.69,314.38 39.68,314.11C38.22,313.71 35.67,312.7 34.23,312.92C33.19,313.08 32.3,314.51 31.71,314.35C31.22,314.22 31.31,313.09 30.74,312.65C29.91,312.01 28.01,311.69 26.68,311.58C25.45,311.47 24.18,312.35 23.05,311.9C21.62,311.33 21.1,308.07 19.14,307.52C15.97,306.63 7.66,313.44 4.47,311.93Q1.7,310.62 0,301.25" style="vector-effect: non-scaling-stroke; fill: none; stroke: rgb(255, 255, 255); stroke-opacity: 0; stroke-width: 2px; opacity: 1;"/></g><g class="points"/><g class="text"/></g><g class="trace scatter traceabd426" style="stroke-miterlimit: 2; opacity: 1;"><g class="fills"><g><path class="js-fill" d="M0,240.53Q2.7,240.7 4.47,241.65C8.14,243.61 16.05,250.35 19.14,254.92C21.48,258.38 21.69,262.34 23.05,265.57C24.22,268.35 25.26,273 26.68,273.2C27.88,273.37 29.78,268.94 30.74,268.63C31.13,268.51 31.34,268.95 31.71,268.85C32.39,268.67 33.14,267.12 34.23,266.53C35.63,265.78 38.21,265.48 39.68,265.17C40.67,264.96 41.44,264.44 42.19,264.74C43.13,265.12 43.86,268 44.57,268.01C45.13,268.02 46.19,266.18 46.1,266.08C46,265.97 43.37,267.32 43.45,267.89C43.58,268.79 49.24,267.96 50.99,270.37C54.95,275.85 55.09,307.35 50.99,311.34C49.23,313.05 43.62,311.73 43.45,311.14C43.34,310.76 46,309.22 46.1,309.33C46.19,309.43 45.21,311.1 44.57,311.26C43.91,311.43 42.97,310.7 42.19,310.26C41.34,309.78 40.74,308.63 39.68,308.42C38.26,308.14 35.63,309.03 34.23,309.78C33.14,310.37 32.39,311.92 31.71,312.1C31.34,312.2 31.16,311.82 30.74,311.88C29.83,312.01 27.88,314.46 26.68,314.18C25.26,313.85 24.27,310.67 23.05,308.82C21.76,306.86 21.19,304.7 19.14,302.72C16,299.69 8.03,295.48 4.47,294.01Q2.62,293.25 0,292.89Z" style="fill: rgb(114, 55, 105); fill-opacity: 0.05; stroke-width: 0;"/></g></g><g class="errorbars"/><g class="lines"><path class="js-line" d="M0,240.53Q2.7,240.7 4.47,241.65C8.14,243.61 16.05,250.35 19.14,254.92C21.48,258.38 21.69,262.34 23.05,265.57C24.22,268.35 25.26,273 26.68,273.2C27.88,273.37 29.78,268.94 30.74,268.63C31.13,268.51 31.34,268.95 31.71,268.85C32.39,268.67 33.14,267.12 34.23,266.53C35.63,265.78 38.21,265.48 39.68,265.17C40.67,264.96 41.44,264.44 42.19,264.74C43.13,265.12 43.86,268 44.57,268.01C45.13,268.02 46.19,266.18 46.1,266.08C46,265.97 43.37,267.32 43.45,267.89C43.58,268.79 49.24,267.96 50.99,270.37C54.95,275.85 55.09,307.35 50.99,311.34C49.23,313.05 43.62,311.73 43.45,311.14C43.34,310.76 46,309.22 46.1,309.33C46.19,309.43 45.21,311.1 44.57,311.26C43.91,311.43 42.97,310.7 42.19,310.26C41.34,309.78 40.74,308.63 39.68,308.42C38.26,308.14 35.63,309.03 34.23,309.78C33.14,310.37 32.39,311.92 31.71,312.1C31.34,312.2 31.16,311.82 30.74,311.88C29.83,312.01 27.88,314.46 26.68,314.18C25.26,313.85 24.27,310.67 23.05,308.82C21.76,306.86 21.19,304.7 19.14,302.72C16,299.69 8.03,295.48 4.47,294.01Q2.62,293.25 0,292.89" style="vector-effect: non-scaling-stroke; fill: none; stroke: rgb(255, 255, 255); stroke-opacity: 0; stroke-width: 2px; opacity: 1;"/></g><g class="points"/><g class="text"/></g><g class="trace scatter tracee56eb0" style="stroke-miterlimit: 2; opacity: 1;"><g class="fills"><g><path class="js-fill" d="M0,273.13Q1.59,282.29 4.47,284.25C7.66,286.42 15.85,285 19.14,284.35C20.91,284 21.81,282.57 23.05,282.71C24.32,282.85 25.5,284.21 26.68,285.28C28.08,286.55 29.82,289.9 30.74,289.99C31.15,290.03 31.28,289.36 31.71,289.22C32.33,289.01 33.31,289.64 34.23,289.29C35.81,288.69 38.13,285.16 39.68,284.21C40.61,283.64 41.39,283.73 42.19,283.3C43.03,282.85 43.84,281.6 44.57,281.51C45.12,281.44 46.11,282.11 46.1,282.15C46.08,282.2 43.48,281.83 43.45,281.44C43.4,280.77 49.27,276.95 50.99,278.06C54.71,280.47 54.71,311.02 50.99,316.76C49.27,319.41 43.5,320.25 43.45,320.14C43.42,320.08 46.13,318.96 46.1,318.57C46.08,318.28 45.12,317.86 44.57,317.93C43.84,318.02 43.03,319.27 42.19,319.72C41.39,320.15 40.66,320.2 39.68,320.63C38.19,321.28 35.74,323.09 34.23,323.43C33.26,323.65 32.3,323.69 31.71,323.36C31.21,323.08 31.29,322.17 30.74,321.85C29.91,321.38 27.94,322.12 26.68,321.7C25.37,321.26 24.32,319.28 23.05,319.14C21.81,319 20.91,320.42 19.14,320.77C15.85,321.42 7.71,322.4 4.47,320.67Q2.09,319.4 0,314.1Z" style="fill: rgb(0, 51, 255); fill-opacity: 0.05; stroke-width: 0;"/></g></g><g class="errorbars"/><g class="lines"><path class="js-line" d="M0,273.13Q1.59,282.29 4.47,284.25C7.66,286.42 15.85,285 19.14,284.35C20.91,284 21.81,282.57 23.05,282.71C24.32,282.85 25.5,284.21 26.68,285.28C28.08,286.55 29.82,289.9 30.74,289.99C31.15,290.03 31.28,289.36 31.71,289.22C32.33,289.01 33.31,289.64 34.23,289.29C35.81,288.69 38.13,285.16 39.68,284.21C40.61,283.64 41.39,283.73 42.19,283.3C43.03,282.85 43.84,281.6 44.57,281.51C45.12,281.44 46.11,282.11 46.1,282.15C46.08,282.2 43.48,281.83 43.45,281.44C43.4,280.77 49.27,276.95 50.99,278.06C54.71,280.47 54.71,311.02 50.99,316.76C49.27,319.41 43.5,320.25 43.45,320.14C43.42,320.08 46.13,318.96 46.1,318.57C46.08,318.28 45.12,317.86 44.57,317.93C43.84,318.02 43.03,319.27 42.19,319.72C41.39,320.15 40.66,320.2 39.68,320.63C38.19,321.28 35.74,323.09 34.23,323.43C33.26,323.65 32.3,323.69 31.71,323.36C31.21,323.08 31.29,322.17 30.74,321.85C29.91,321.38 27.94,322.12 26.68,321.7C25.37,321.26 24.32,319.28 23.05,319.14C21.81,319 20.91,320.42 19.14,320.77C15.85,321.42 7.71,322.4 4.47,320.67Q2.09,319.4 0,314.1" style="vector-effect: non-scaling-stroke; fill: none; stroke: rgb(255, 255, 255); stroke-opacity: 0; stroke-width: 2px; opacity: 1;"/></g><g class="points"/><g class="text"/></g><g class="trace scatter tracee77ca9" style="stroke-miterlimit: 2; opacity: 1;"><g class="fills"><g><path class="js-fill" d="M0,267.37Q2.58,269.37 4.47,270.98C7.98,273.97 15.61,282.79 19.14,284.2C20.71,284.83 21.9,284.88 23.05,284.3C24.51,283.56 25.59,281.35 26.68,279.12C28.29,275.83 29.54,266.53 30.74,265.99C31.07,265.84 31.34,266.5 31.71,266.43C32.39,266.29 33.14,263.95 34.23,263.74C35.63,263.47 38.29,265.26 39.68,266.31C40.79,267.14 41.4,268.11 42.19,269.17C43.04,270.32 43.8,272.04 44.57,272.97C45.09,273.6 46.02,274.46 46.1,274.39C46.22,274.29 43.45,270.3 43.45,270.3C43.46,270.29 49.43,276.58 50.99,281.79C53.52,290.27 54.09,316.85 50.99,318.21C49.35,318.93 43.72,311.04 43.45,311.27C43.26,311.43 46.22,315.27 46.1,315.37C46.02,315.44 45.16,314.4 44.57,313.94C43.88,313.41 42.95,313.07 42.19,312.42C41.31,311.66 40.83,310.12 39.68,309.56C38.31,308.89 35.7,309.19 34.23,309.27C33.23,309.32 32.3,309.26 31.71,309.68C31.18,310.06 31.2,310.74 30.74,311.52C29.87,313.01 28.13,316.2 26.68,317.81C25.53,319.08 24.37,320.27 23.05,320.72C21.84,321.13 20.81,320.99 19.14,320.62C15.76,319.87 7.86,316.28 4.47,314.23Q2.44,313 0,310.62Z" style="fill: rgb(240, 125, 0); fill-opacity: 0.05; stroke-width: 0;"/></g></g><g class="errorbars"/><g class="lines"><path class="js-line" d="M0,267.37Q2.58,269.37 4.47,270.98C7.98,273.97 15.61,282.79 19.14,284.2C20.71,284.83 21.9,284.88 23.05,284.3C24.51,283.56 25.59,281.35 26.68,279.12C28.29,275.83 29.54,266.53 30.74,265.99C31.07,265.84 31.34,266.5 31.71,266.43C32.39,266.29 33.14,263.95 34.23,263.74C35.63,263.47 38.29,265.26 39.68,266.31C40.79,267.14 41.4,268.11 42.19,269.17C43.04,270.32 43.8,272.04 44.57,272.97C45.09,273.6 46.02,274.46 46.1,274.39C46.22,274.29 43.45,270.3 43.45,270.3C43.46,270.29 49.43,276.58 50.99,281.79C53.52,290.27 54.09,316.85 50.99,318.21C49.35,318.93 43.72,311.04 43.45,311.27C43.26,311.43 46.22,315.27 46.1,315.37C46.02,315.44 45.16,314.4 44.57,313.94C43.88,313.41 42.95,313.07 42.19,312.42C41.31,311.66 40.83,310.12 39.68,309.56C38.31,308.89 35.7,309.19 34.23,309.27C33.23,309.32 32.3,309.26 31.71,309.68C31.18,310.06 31.2,310.74 30.74,311.52C29.87,313.01 28.13,316.2 26.68,317.81C25.53,319.08 24.37,320.27 23.05,320.72C21.84,321.13 20.81,320.99 19.14,320.62C15.76,319.87 7.86,316.28 4.47,314.23Q2.44,313 0,310.62" style="vector-effect: non-scaling-stroke; fill: none; stroke: rgb(255, 255, 255); stroke-opacity: 0; stroke-width: 2px; opacity: 1;"/></g><g class="points"/><g class="text"/></g><g class="trace scatter trace7853d9" style="stroke-miterlimit: 2; opacity: 1;"><g class="fills"><g><path class="js-fill" d="M0,279.5Q2.75,278.18 4.47,278.79C8.25,280.12 15.72,294.71 19.14,294.98C20.78,295.11 21.68,292.31 23.05,291.83C24.21,291.43 25.47,292.15 26.68,291.86C28.04,291.53 29.83,290 30.74,289.75C31.16,289.64 31.33,289.83 31.71,289.7C32.38,289.46 33.16,288.2 34.23,287.89C35.65,287.48 38.25,288.54 39.68,288.2C40.72,287.95 41.41,286.61 42.19,286.74C43.06,286.88 43.95,288.35 44.57,289.49C45.33,290.87 46.21,294.59 46.1,294.63C45.98,294.67 43.07,288.8 43.45,288.55C43.93,288.23 49.42,292.35 50.99,296.17C53.6,302.51 54.13,323.65 50.99,325.76C49.34,326.87 43.51,322.56 43.45,322.69C43.41,322.77 46.13,324.17 46.1,324.23C46.08,324.27 45.09,324 44.57,323.63C43.8,323.08 43.06,321.03 42.19,320.89C41.41,320.76 40.72,322.1 39.68,322.35C38.25,322.69 35.7,322.21 34.23,322.03C33.23,321.91 32.36,321.62 31.71,321.57C31.31,321.54 31.16,321.5 30.74,321.61C29.83,321.85 28.04,323.41 26.68,323.73C25.47,324.02 24.27,323.56 23.05,323.69C21.76,323.83 20.82,324.76 19.14,324.57C15.76,324.18 8.01,318.01 4.47,317.49Q2.6,317.22 0,318.2Z" style="fill: rgb(140, 0, 0); fill-opacity: 0.05; stroke-width: 0;"/></g></g><g class="errorbars"/><g class="lines"><path class="js-line" d="M0,279.5Q2.75,278.18 4.47,278.79C8.25,280.12 15.72,294.71 19.14,294.98C20.78,295.11 21.68,292.31 23.05,291.83C24.21,291.43 25.47,292.15 26.68,291.86C28.04,291.53 29.83,290 30.74,289.75C31.16,289.64 31.33,289.83 31.71,289.7C32.38,289.46 33.16,288.2 34.23,287.89C35.65,287.48 38.25,288.54 39.68,288.2C40.72,287.95 41.41,286.61 42.19,286.74C43.06,286.88 43.95,288.35 44.57,289.49C45.33,290.87 46.21,294.59 46.1,294.63C45.98,294.67 43.07,288.8 43.45,288.55C43.93,288.23 49.42,292.35 50.99,296.17C53.6,302.51 54.13,323.65 50.99,325.76C49.34,326.87 43.51,322.56 43.45,322.69C43.41,322.77 46.13,324.17 46.1,324.23C46.08,324.27 45.09,324 44.57,323.63C43.8,323.08 43.06,321.03 42.19,320.89C41.41,320.76 40.72,322.1 39.68,322.35C38.25,322.69 35.7,322.21 34.23,322.03C33.23,321.91 32.36,321.62 31.71,321.57C31.31,321.54 31.16,321.5 30.74,321.61C29.83,321.85 28.04,323.41 26.68,323.73C25.47,324.02 24.27,323.56 23.05,323.69C21.76,323.83 20.82,324.76 19.14,324.57C15.76,324.18 8.01,318.01 4.47,317.49Q2.6,317.22 0,318.2" style="vector-effect: non-scaling-stroke; fill: none; stroke: rgb(255, 255, 255); stroke-opacity: 0; stroke-width: 2px; opacity: 1;"/></g><g class="points"/><g class="text"/></g><g class="trace scatter tracec7e30f" style="stroke-miterlimit: 2; opacity: 1;"><g class="fills"/><g class="errorbars"/><g class="lines"><path class="js-line" d="M0,90.67Q2.61,90.72 4.47,91.29C8.01,92.38 16.06,99.75 19.14,98.58C21.59,97.65 21.56,91.44 23.05,88.93C24.16,87.07 25.45,86.05 26.68,84.5C28.01,82.83 29.8,80.13 30.74,79.23C31.14,78.85 31.35,78.91 31.71,78.54C32.41,77.83 33.24,76.36 34.23,74.88C35.71,72.66 38.07,68.18 39.68,66.45C40.58,65.48 41.31,64.79 42.19,64.55C42.95,64.34 43.86,64.72 44.57,64.8C45.14,64.87 46.1,64.93 46.1,65C46.1,65.09 43.46,65.13 43.45,65.31Q43.44,65.62 50.99,66.93" style="vector-effect: non-scaling-stroke; fill: none; stroke: rgb(38, 16, 96); stroke-opacity: 1; stroke-width: 7px; opacity: 1;"/></g><g class="points"/><g class="text"/></g><g class="trace scatter trace5f45ad" style="stroke-miterlimit: 2; opacity: 1;"><g class="fills"/><g class="errorbars"/><g class="lines"/><g class="points"><path class="point" transform="translate(0,90.34)" d="M7.5,0A7.5,7.5 0 1,1 0,-7.5A7.5,7.5 0 0,1 7.5,0Z" style="opacity: 1; stroke-width: 0px; fill: rgb(38, 16, 96); fill-opacity: 0.25;"/><path class="point" transform="translate(4.47,91.22)" d="M7.5,0A7.5,7.5 0 1,1 0,-7.5A7.5,7.5 0 0,1 7.5,0Z" style="opacity: 1; stroke-width: 0px; fill: rgb(38, 16, 96); fill-opacity: 0.25;"/><path class="point" transform="translate(19.14,108.91)" d="M7.5,0A7.5,7.5 0 1,1 0,-7.5A7.5,7.5 0 0,1 7.5,0Z" style="opacity: 1; stroke-width: 0px; fill: rgb(38, 16, 96); fill-opacity: 0.25;"/><path class="point" transform="translate(23.05,86.8)" d="M7.5,0A7.5,7.5 0 1,1 0,-7.5A7.5,7.5 0 0,1 7.5,0Z" style="opacity: 1; stroke-width: 0px; fill: rgb(38, 16, 96); fill-opacity: 0.25;"/><path class="point" transform="translate(26.68,86.8)" d="M7.5,0A7.5,7.5 0 1,1 0,-7.5A7.5,7.5 0 0,1 7.5,0Z" style="opacity: 1; stroke-width: 0px; fill: rgb(38, 16, 96); fill-opacity: 0.25;"/><path class="point" transform="translate(30.74,77.96)" d="M7.5,0A7.5,7.5 0 1,1 0,-7.5A7.5,7.5 0 0,1 7.5,0Z" style="opacity: 1; stroke-width: 0px; fill: rgb(38, 16, 96); fill-opacity: 0.25;"/><path class="point" transform="translate(31.71,82.38)" d="M7.5,0A7.5,7.5 0 1,1 0,-7.5A7.5,7.5 0 0,1 7.5,0Z" style="opacity: 1; stroke-width: 0px; fill: rgb(38, 16, 96); fill-opacity: 0.25;"/><path class="point" transform="translate(34.23,73.54)" d="M7.5,0A7.5,7.5 0 1,1 0,-7.5A7.5,7.5 0 0,1 7.5,0Z" style="opacity: 1; stroke-width: 0px; fill: rgb(38, 16, 96); fill-opacity: 0.25;"/><path class="point" transform="translate(39.68,64.69)" d="M7.5,0A7.5,7.5 0 1,1 0,-7.5A7.5,7.5 0 0,1 7.5,0Z" style="opacity: 1; stroke-width: 0px; fill: rgb(38, 16, 96); fill-opacity: 0.25;"/><path class="point" transform="translate(42.19,54.97)" d="M7.5,0A7.5,7.5 0 1,1 0,-7.5A7.5,7.5 0 0,1 7.5,0Z" style="opacity: 1; stroke-width: 0px; fill: rgb(38, 16, 96); fill-opacity: 0.25;"/><path class="point" transform="translate(44.57,60.27)" d="M7.5,0A7.5,7.5 0 1,1 0,-7.5A7.5,7.5 0 0,1 7.5,0Z" style="opacity: 1; stroke-width: 0px; fill: rgb(38, 16, 96); fill-opacity: 0.25;"/><path class="point" transform="translate(46.1,64.69)" d="M7.5,0A7.5,7.5 0 1,1 0,-7.5A7.5,7.5 0 0,1 7.5,0Z" style="opacity: 1; stroke-width: 0px; fill: rgb(38, 16, 96); fill-opacity: 0.25;"/><path class="point" transform="translate(43.45,73.54)" d="M7.5,0A7.5,7.5 0 1,1 0,-7.5A7.5,7.5 0 0,1 7.5,0Z" style="opacity: 1; stroke-width: 0px; fill: rgb(38, 16, 96); fill-opacity: 0.25;"/><path class="point" transform="translate(50.99,69.12)" d="M7.5,0A7.5,7.5 0 1,1 0,-7.5A7.5,7.5 0 0,1 7.5,0Z" style="opacity: 1; stroke-width: 0px; fill: rgb(38, 16, 96); fill-opacity: 0.25;"/></g><g class="text"/></g><g class="trace scatter tracee858e1" style="stroke-miterlimit: 2; opacity: 1;"><g class="fills"/><g class="errorbars"/><g class="lines"><path class="js-line" d="M0,204.56Q2.79,199.64 4.47,195.07C8.36,184.47 15.13,149.36 19.14,140.58C20.55,137.49 21.54,135.81 23.05,134.8C24.15,134.07 25.66,133.37 26.68,134.07C29.28,135.86 29.18,156.39 30.74,157.88C31.05,158.18 31.41,157.72 31.71,158C32.79,158.99 33,165.96 34.23,170.04C35.58,174.5 37.76,181.83 39.68,183.66C40.5,184.44 41.42,184.72 42.19,184.53C43.07,184.31 43.92,181.88 44.57,181.97C45.21,182.06 46.33,184.75 46.1,184.98C45.88,185.2 43.49,184.22 43.45,183.55Q43.39,182.39 50.99,178.33" style="vector-effect: non-scaling-stroke; fill: none; stroke: rgb(0, 68, 148); stroke-opacity: 1; stroke-width: 7px; opacity: 1;"/></g><g class="points"/><g class="text"/></g><g class="trace scatter traceb74ed4" style="stroke-miterlimit: 2; opacity: 1;"><g class="fills"/><g class="errorbars"/><g class="lines"/><g class="points"><path class="point" transform="translate(0,209.73)" d="M7.5,0A7.5,7.5 0 1,1 0,-7.5A7.5,7.5 0 0,1 7.5,0Z" style="opacity: 1; stroke-width: 0px; fill: rgb(0, 68, 148); fill-opacity: 0.25;"/><path class="point" transform="translate(4.47,192.93)" d="M7.5,0A7.5,7.5 0 1,1 0,-7.5A7.5,7.5 0 0,1 7.5,0Z" style="opacity: 1; stroke-width: 0px; fill: rgb(0, 68, 148); fill-opacity: 0.25;"/><path class="point" transform="translate(19.14,144.29)" d="M7.5,0A7.5,7.5 0 1,1 0,-7.5A7.5,7.5 0 0,1 7.5,0Z" style="opacity: 1; stroke-width: 0px; fill: rgb(0, 68, 148); fill-opacity: 0.25;"/><path class="point" transform="translate(23.05,131.02)" d="M7.5,0A7.5,7.5 0 1,1 0,-7.5A7.5,7.5 0 0,1 7.5,0Z" style="opacity: 1; stroke-width: 0px; fill: rgb(0, 68, 148); fill-opacity: 0.25;"/><path class="point" transform="translate(26.68,100.07)" d="M7.5,0A7.5,7.5 0 1,1 0,-7.5A7.5,7.5 0 0,1 7.5,0Z" style="opacity: 1; stroke-width: 0px; fill: rgb(0, 68, 148); fill-opacity: 0.25;"/><path class="point" transform="translate(30.74,184.08)" d="M7.5,0A7.5,7.5 0 1,1 0,-7.5A7.5,7.5 0 0,1 7.5,0Z" style="opacity: 1; stroke-width: 0px; fill: rgb(0, 68, 148); fill-opacity: 0.25;"/><path class="point" transform="translate(31.71,131.02)" d="M7.5,0A7.5,7.5 0 1,1 0,-7.5A7.5,7.5 0 0,1 7.5,0Z" style="opacity: 1; stroke-width: 0px; fill: rgb(0, 68, 148); fill-opacity: 0.25;"/><path class="point" transform="translate(34.23,187.62)" d="M7.5,0A7.5,7.5 0 1,1 0,-7.5A7.5,7.5 0 0,1 7.5,0Z" style="opacity: 1; stroke-width: 0px; fill: rgb(0, 68, 148); fill-opacity: 0.25;"/><path class="point" transform="translate(39.68,192.93)" d="M7.5,0A7.5,7.5 0 1,1 0,-7.5A7.5,7.5 0 0,1 7.5,0Z" style="opacity: 1; stroke-width: 0px; fill: rgb(0, 68, 148); fill-opacity: 0.25;"/><path class="point" transform="translate(42.19,192.93)" d="M7.5,0A7.5,7.5 0 1,1 0,-7.5A7.5,7.5 0 0,1 7.5,0Z" style="opacity: 1; stroke-width: 0px; fill: rgb(0, 68, 148); fill-opacity: 0.25;"/><path class="point" transform="translate(44.57,157.55)" d="M7.5,0A7.5,7.5 0 1,1 0,-7.5A7.5,7.5 0 0,1 7.5,0Z" style="opacity: 1; stroke-width: 0px; fill: rgb(0, 68, 148); fill-opacity: 0.25;"/><path class="point" transform="translate(46.1,204.42)" d="M7.5,0A7.5,7.5 0 1,1 0,-7.5A7.5,7.5 0 0,1 7.5,0Z" style="opacity: 1; stroke-width: 0px; fill: rgb(0, 68, 148); fill-opacity: 0.25;"/><path class="point" transform="translate(43.45,188.5)" d="M7.5,0A7.5,7.5 0 1,1 0,-7.5A7.5,7.5 0 0,1 7.5,0Z" style="opacity: 1; stroke-width: 0px; fill: rgb(0, 68, 148); fill-opacity: 0.25;"/><path class="point" transform="translate(50.99,170.82)" d="M7.5,0A7.5,7.5 0 1,1 0,-7.5A7.5,7.5 0 0,1 7.5,0Z" style="opacity: 1; stroke-width: 0px; fill: rgb(0, 68, 148); fill-opacity: 0.25;"/></g><g class="text"/></g><g class="trace scatter trace913da2" style="stroke-miterlimit: 2; opacity: 1;"><g class="fills"/><g class="errorbars"/><g class="lines"><path class="js-line" d="M0,245.16Q2.7,245.89 4.47,245.27C8.14,243.98 15.86,232.8 19.14,232.96C20.91,233.05 21.8,237.01 23.05,236.95C24.32,236.89 25.39,233.9 26.68,232.52C27.95,231.17 29.82,229.43 30.74,228.75C31.15,228.44 31.35,228.51 31.71,228.18C32.42,227.53 33.12,225.75 34.23,224.59C35.62,223.14 38.16,221.25 39.68,220.41C40.63,219.89 41.36,219.73 42.19,219.49C42.99,219.26 43.92,219.41 44.57,219C45.23,218.59 46.23,217.16 46.1,217.01C45.96,216.84 43.46,217.74 43.45,218.3Q43.43,219.26 50.99,222.31" style="vector-effect: non-scaling-stroke; fill: none; stroke: rgb(234, 35, 41); stroke-opacity: 1; stroke-width: 7px; opacity: 1;"/></g><g class="points"/><g class="text"/></g><g class="trace scatter trace77dbde" style="stroke-miterlimit: 2; opacity: 1;"><g class="fills"/><g class="errorbars"/><g class="lines"/><g class="points"><path class="point" transform="translate(0,245.1)" d="M7.5,0A7.5,7.5 0 1,1 0,-7.5A7.5,7.5 0 0,1 7.5,0Z" style="opacity: 1; stroke-width: 0px; fill: rgb(234, 35, 41); fill-opacity: 0.25;"/><path class="point" transform="translate(4.47,245.99)" d="M7.5,0A7.5,7.5 0 1,1 0,-7.5A7.5,7.5 0 0,1 7.5,0Z" style="opacity: 1; stroke-width: 0px; fill: rgb(234, 35, 41); fill-opacity: 0.25;"/><path class="point" transform="translate(19.14,228.3)" d="M7.5,0A7.5,7.5 0 1,1 0,-7.5A7.5,7.5 0 0,1 7.5,0Z" style="opacity: 1; stroke-width: 0px; fill: rgb(234, 35, 41); fill-opacity: 0.25;"/><path class="point" transform="translate(23.05,245.99)" d="M7.5,0A7.5,7.5 0 1,1 0,-7.5A7.5,7.5 0 0,1 7.5,0Z" style="opacity: 1; stroke-width: 0px; fill: rgb(234, 35, 41); fill-opacity: 0.25;"/><path class="point" transform="translate(26.68,232.72)" d="M7.5,0A7.5,7.5 0 1,1 0,-7.5A7.5,7.5 0 0,1 7.5,0Z" style="opacity: 1; stroke-width: 0px; fill: rgb(234, 35, 41); fill-opacity: 0.25;"/><path class="point" transform="translate(30.74,228.3)" d="M7.5,0A7.5,7.5 0 1,1 0,-7.5A7.5,7.5 0 0,1 7.5,0Z" style="opacity: 1; stroke-width: 0px; fill: rgb(234, 35, 41); fill-opacity: 0.25;"/><path class="point" transform="translate(31.71,232.72)" d="M7.5,0A7.5,7.5 0 1,1 0,-7.5A7.5,7.5 0 0,1 7.5,0Z" style="opacity: 1; stroke-width: 0px; fill: rgb(234, 35, 41); fill-opacity: 0.25;"/><path class="point" transform="translate(34.23,219.46)" d="M7.5,0A7.5,7.5 0 1,1 0,-7.5A7.5,7.5 0 0,1 7.5,0Z" style="opacity: 1; stroke-width: 0px; fill: rgb(234, 35, 41); fill-opacity: 0.25;"/><path class="point" transform="translate(39.68,219.46)" d="M7.5,0A7.5,7.5 0 1,1 0,-7.5A7.5,7.5 0 0,1 7.5,0Z" style="opacity: 1; stroke-width: 0px; fill: rgb(234, 35, 41); fill-opacity: 0.25;"/><path class="point" transform="translate(42.19,224.76)" d="M7.5,0A7.5,7.5 0 1,1 0,-7.5A7.5,7.5 0 0,1 7.5,0Z" style="opacity: 1; stroke-width: 0px; fill: rgb(234, 35, 41); fill-opacity: 0.25;"/><path class="point" transform="translate(44.57,232.72)" d="M7.5,0A7.5,7.5 0 1,1 0,-7.5A7.5,7.5 0 0,1 7.5,0Z" style="opacity: 1; stroke-width: 0px; fill: rgb(234, 35, 41); fill-opacity: 0.25;"/><path class="point" transform="translate(46.1,203.54)" d="M7.5,0A7.5,7.5 0 1,1 0,-7.5A7.5,7.5 0 0,1 7.5,0Z" style="opacity: 1; stroke-width: 0px; fill: rgb(234, 35, 41); fill-opacity: 0.25;"/><path class="point" transform="translate(43.45,206.19)" d="M7.5,0A7.5,7.5 0 1,1 0,-7.5A7.5,7.5 0 0,1 7.5,0Z" style="opacity: 1; stroke-width: 0px; fill: rgb(234, 35, 41); fill-opacity: 0.25;"/><path class="point" transform="translate(50.99,228.3)" d="M7.5,0A7.5,7.5 0 1,1 0,-7.5A7.5,7.5 0 0,1 7.5,0Z" style="opacity: 1; stroke-width: 0px; fill: rgb(234, 35, 41); fill-opacity: 0.25;"/></g><g class="text"/></g><g class="trace scatter traceffa57f" style="stroke-miterlimit: 2; opacity: 1;"><g class="fills"/><g class="errorbars"/><g class="lines"><path class="js-line" d="M0,249.58Q2.21,254.13 4.47,256.17C7.74,259.12 15.74,262.85 19.14,264.01C20.8,264.57 21.78,264.35 23.05,264.66C24.29,264.96 25.64,266.37 26.68,265.83C28.67,264.79 29.77,254.89 30.74,252.46C31.12,251.5 31.35,251.4 31.71,250.53C32.4,248.87 32.68,244.51 34.23,243.1C35.54,241.9 38.23,241.64 39.68,241.79C40.7,241.9 41.38,242.54 42.19,243C43.01,243.46 43.85,244.17 44.57,244.56C45.12,244.86 46.04,245.32 46.1,245.22C46.19,245.08 43.37,242.83 43.45,242.73Q43.58,242.57 50.99,247.65" style="vector-effect: non-scaling-stroke; fill: none; stroke: rgb(0, 0, 0); stroke-opacity: 1; stroke-width: 7px; opacity: 1;"/></g><g class="points"/><g class="text"/></g><g class="trace scatter trace508387" style="stroke-miterlimit: 2; opacity: 1;"><g class="fills"/><g class="errorbars"/><g class="lines"/><g class="points"><path class="point" transform="translate(0,245.99)" d="M7.5,0A7.5,7.5 0 1,1 0,-7.5A7.5,7.5 0 0,1 7.5,0Z" style="opacity: 1; stroke-width: 0px; fill: rgb(0, 0, 0); fill-opacity: 0.25;"/><path class="point" transform="translate(4.47,259.25)" d="M7.5,0A7.5,7.5 0 1,1 0,-7.5A7.5,7.5 0 0,1 7.5,0Z" style="opacity: 1; stroke-width: 0px; fill: rgb(0, 0, 0); fill-opacity: 0.25;"/><path class="point" transform="translate(19.14,263.67)" d="M7.5,0A7.5,7.5 0 1,1 0,-7.5A7.5,7.5 0 0,1 7.5,0Z" style="opacity: 1; stroke-width: 0px; fill: rgb(0, 0, 0); fill-opacity: 0.25;"/><path class="point" transform="translate(23.05,263.67)" d="M7.5,0A7.5,7.5 0 1,1 0,-7.5A7.5,7.5 0 0,1 7.5,0Z" style="opacity: 1; stroke-width: 0px; fill: rgb(0, 0, 0); fill-opacity: 0.25;"/><path class="point" transform="translate(26.68,285.78)" d="M7.5,0A7.5,7.5 0 1,1 0,-7.5A7.5,7.5 0 0,1 7.5,0Z" style="opacity: 1; stroke-width: 0px; fill: rgb(0, 0, 0); fill-opacity: 0.25;"/><path class="point" transform="translate(30.74,250.41)" d="M7.5,0A7.5,7.5 0 1,1 0,-7.5A7.5,7.5 0 0,1 7.5,0Z" style="opacity: 1; stroke-width: 0px; fill: rgb(0, 0, 0); fill-opacity: 0.25;"/><path class="point" transform="translate(31.71,254.83)" d="M7.5,0A7.5,7.5 0 1,1 0,-7.5A7.5,7.5 0 0,1 7.5,0Z" style="opacity: 1; stroke-width: 0px; fill: rgb(0, 0, 0); fill-opacity: 0.25;"/><path class="point" transform="translate(34.23,225.65)" d="M7.5,0A7.5,7.5 0 1,1 0,-7.5A7.5,7.5 0 0,1 7.5,0Z" style="opacity: 1; stroke-width: 0px; fill: rgb(0, 0, 0); fill-opacity: 0.25;"/><path class="point" transform="translate(39.68,237.14)" d="M7.5,0A7.5,7.5 0 1,1 0,-7.5A7.5,7.5 0 0,1 7.5,0Z" style="opacity: 1; stroke-width: 0px; fill: rgb(0, 0, 0); fill-opacity: 0.25;"/><path class="point" transform="translate(42.19,247.76)" d="M7.5,0A7.5,7.5 0 1,1 0,-7.5A7.5,7.5 0 0,1 7.5,0Z" style="opacity: 1; stroke-width: 0px; fill: rgb(0, 0, 0); fill-opacity: 0.25;"/><path class="point" transform="translate(44.57,254.83)" d="M7.5,0A7.5,7.5 0 1,1 0,-7.5A7.5,7.5 0 0,1 7.5,0Z" style="opacity: 1; stroke-width: 0px; fill: rgb(0, 0, 0); fill-opacity: 0.25;"/><path class="point" transform="translate(46.1,246.87)" d="M7.5,0A7.5,7.5 0 1,1 0,-7.5A7.5,7.5 0 0,1 7.5,0Z" style="opacity: 1; stroke-width: 0px; fill: rgb(0, 0, 0); fill-opacity: 0.25;"/><path class="point" transform="translate(43.45,228.3)" d="M7.5,0A7.5,7.5 0 1,1 0,-7.5A7.5,7.5 0 0,1 7.5,0Z" style="opacity: 1; stroke-width: 0px; fill: rgb(0, 0, 0); fill-opacity: 0.25;"/><path class="point" transform="translate(50.99,250.41)" d="M7.5,0A7.5,7.5 0 1,1 0,-7.5A7.5,7.5 0 0,1 7.5,0Z" style="opacity: 1; stroke-width: 0px; fill: rgb(0, 0, 0); fill-opacity: 0.25;"/></g><g class="text"/></g><g class="trace scatter trace5ae7f3" style="stroke-miterlimit: 2; opacity: 1;"><g class="fills"/><g class="errorbars"/><g class="lines"><path class="js-line" d="M0,260.15Q0.11,233.16 4.47,230.97C7.74,229.33 16.01,235.89 19.14,238.79C21.21,240.71 21.8,242.85 23.05,244.94C24.31,247.05 25.55,248.84 26.68,251.4C28.17,254.79 29.87,260.9 30.74,263.73C31.19,265.2 31.29,265.77 31.71,267.1C32.34,269.09 32.92,272.28 34.23,274.47C35.56,276.69 38.13,279.11 39.68,280.32C40.61,281.04 41.34,281.6 42.19,281.7C42.98,281.79 43.86,281.16 44.57,281.04C45.13,280.94 46.07,280.82 46.1,280.93C46.14,281.09 43.63,282.51 43.45,282.29Q43.09,281.85 50.99,272.83" style="vector-effect: non-scaling-stroke; fill: none; stroke: rgb(93, 140, 0); stroke-opacity: 1; stroke-width: 7px; opacity: 1;"/></g><g class="points"/><g class="text"/></g><g class="trace scatter trace6c41c5" style="stroke-miterlimit: 2; opacity: 1;"><g class="fills"/><g class="errorbars"/><g class="lines"/><g class="points"><path class="point" transform="translate(0,276.05)" d="M7.5,0A7.5,7.5 0 1,1 0,-7.5A7.5,7.5 0 0,1 7.5,0Z" style="opacity: 1; stroke-width: 0px; fill: rgb(93, 140, 0); fill-opacity: 0.25;"/><path class="point" transform="translate(4.47,215.03)" d="M7.5,0A7.5,7.5 0 1,1 0,-7.5A7.5,7.5 0 0,1 7.5,0Z" style="opacity: 1; stroke-width: 0px; fill: rgb(93, 140, 0); fill-opacity: 0.25;"/><path class="point" transform="translate(19.14,232.72)" d="M7.5,0A7.5,7.5 0 1,1 0,-7.5A7.5,7.5 0 0,1 7.5,0Z" style="opacity: 1; stroke-width: 0px; fill: rgb(93, 140, 0); fill-opacity: 0.25;"/><path class="point" transform="translate(23.05,241.56)" d="M7.5,0A7.5,7.5 0 1,1 0,-7.5A7.5,7.5 0 0,1 7.5,0Z" style="opacity: 1; stroke-width: 0px; fill: rgb(93, 140, 0); fill-opacity: 0.25;"/><path class="point" transform="translate(26.68,241.56)" d="M7.5,0A7.5,7.5 0 1,1 0,-7.5A7.5,7.5 0 0,1 7.5,0Z" style="opacity: 1; stroke-width: 0px; fill: rgb(93, 140, 0); fill-opacity: 0.25;"/><path class="point" transform="translate(30.74,254.83)" d="M7.5,0A7.5,7.5 0 1,1 0,-7.5A7.5,7.5 0 0,1 7.5,0Z" style="opacity: 1; stroke-width: 0px; fill: rgb(93, 140, 0); fill-opacity: 0.25;"/><path class="point" transform="translate(31.71,272.52)" d="M7.5,0A7.5,7.5 0 1,1 0,-7.5A7.5,7.5 0 0,1 7.5,0Z" style="opacity: 1; stroke-width: 0px; fill: rgb(93, 140, 0); fill-opacity: 0.25;"/><path class="point" transform="translate(34.23,287.55)" d="M7.5,0A7.5,7.5 0 1,1 0,-7.5A7.5,7.5 0 0,1 7.5,0Z" style="opacity: 1; stroke-width: 0px; fill: rgb(93, 140, 0); fill-opacity: 0.25;"/><path class="point" transform="translate(39.68,281.36)" d="M7.5,0A7.5,7.5 0 1,1 0,-7.5A7.5,7.5 0 0,1 7.5,0Z" style="opacity: 1; stroke-width: 0px; fill: rgb(93, 140, 0); fill-opacity: 0.25;"/><path class="point" transform="translate(42.19,281.36)" d="M7.5,0A7.5,7.5 0 1,1 0,-7.5A7.5,7.5 0 0,1 7.5,0Z" style="opacity: 1; stroke-width: 0px; fill: rgb(93, 140, 0); fill-opacity: 0.25;"/><path class="point" transform="translate(44.57,272.52)" d="M7.5,0A7.5,7.5 0 1,1 0,-7.5A7.5,7.5 0 0,1 7.5,0Z" style="opacity: 1; stroke-width: 0px; fill: rgb(93, 140, 0); fill-opacity: 0.25;"/><path class="point" transform="translate(46.1,285.78)" d="M7.5,0A7.5,7.5 0 1,1 0,-7.5A7.5,7.5 0 0,1 7.5,0Z" style="opacity: 1; stroke-width: 0px; fill: rgb(93, 140, 0); fill-opacity: 0.25;"/><path class="point" transform="translate(43.45,294.63)" d="M7.5,0A7.5,7.5 0 1,1 0,-7.5A7.5,7.5 0 0,1 7.5,0Z" style="opacity: 1; stroke-width: 0px; fill: rgb(93, 140, 0); fill-opacity: 0.25;"/><path class="point" transform="translate(50.99,263.67)" d="M7.5,0A7.5,7.5 0 1,1 0,-7.5A7.5,7.5 0 0,1 7.5,0Z" style="opacity: 1; stroke-width: 0px; fill: rgb(93, 140, 0); fill-opacity: 0.25;"/></g><g class="text"/></g><g class="trace scatter trace0fa9ef" style="stroke-miterlimit: 2; opacity: 1;"><g class="fills"/><g class="errorbars"/><g class="lines"><path class="js-line" d="M0,276.8Q1.32,289.52 4.47,291.16C7.66,292.82 15.98,285.55 19.14,286.47C21.13,287.05 21.6,290.43 23.05,291.19C24.17,291.78 25.45,291.27 26.68,291.51C28.01,291.76 29.87,292.34 30.74,292.72C31.19,292.92 31.3,293.25 31.71,293.29C32.34,293.36 33.22,292.51 34.23,292.45C35.69,292.36 38.25,292.99 39.68,293.53C40.72,293.92 41.35,294.93 42.19,294.99C42.98,295.04 43.9,294.44 44.57,294C45.18,293.6 46.11,292.57 46.1,292.55C46.08,292.53 43.56,294.9 43.45,294.79Q43.25,294.59 50.99,285.22" style="vector-effect: non-scaling-stroke; fill: none; stroke: rgb(230, 172, 33); stroke-opacity: 1; stroke-width: 7px; opacity: 1;"/></g><g class="points"/><g class="text"/></g><g class="trace scatter traced0ce1f" style="stroke-miterlimit: 2; opacity: 1;"><g class="fills"/><g class="errorbars"/><g class="lines"/><g class="points"><path class="point" transform="translate(0,268.98)" d="M7.5,0A7.5,7.5 0 1,1 0,-7.5A7.5,7.5 0 0,1 7.5,0Z" style="opacity: 1; stroke-width: 0px; fill: rgb(230, 172, 33); fill-opacity: 0.25;"/><path class="point" transform="translate(4.47,299.05)" d="M7.5,0A7.5,7.5 0 1,1 0,-7.5A7.5,7.5 0 0,1 7.5,0Z" style="opacity: 1; stroke-width: 0px; fill: rgb(230, 172, 33); fill-opacity: 0.25;"/><path class="point" transform="translate(19.14,281.36)" d="M7.5,0A7.5,7.5 0 1,1 0,-7.5A7.5,7.5 0 0,1 7.5,0Z" style="opacity: 1; stroke-width: 0px; fill: rgb(230, 172, 33); fill-opacity: 0.25;"/><path class="point" transform="translate(23.05,294.63)" d="M7.5,0A7.5,7.5 0 1,1 0,-7.5A7.5,7.5 0 0,1 7.5,0Z" style="opacity: 1; stroke-width: 0px; fill: rgb(230, 172, 33); fill-opacity: 0.25;"/><path class="point" transform="translate(26.68,290.2)" d="M7.5,0A7.5,7.5 0 1,1 0,-7.5A7.5,7.5 0 0,1 7.5,0Z" style="opacity: 1; stroke-width: 0px; fill: rgb(230, 172, 33); fill-opacity: 0.25;"/><path class="point" transform="translate(30.74,290.2)" d="M7.5,0A7.5,7.5 0 1,1 0,-7.5A7.5,7.5 0 0,1 7.5,0Z" style="opacity: 1; stroke-width: 0px; fill: rgb(230, 172, 33); fill-opacity: 0.25;"/><path class="point" transform="translate(31.71,299.05)" d="M7.5,0A7.5,7.5 0 1,1 0,-7.5A7.5,7.5 0 0,1 7.5,0Z" style="opacity: 1; stroke-width: 0px; fill: rgb(230, 172, 33); fill-opacity: 0.25;"/><path class="point" transform="translate(34.23,289.32)" d="M7.5,0A7.5,7.5 0 1,1 0,-7.5A7.5,7.5 0 0,1 7.5,0Z" style="opacity: 1; stroke-width: 0px; fill: rgb(230, 172, 33); fill-opacity: 0.25;"/><path class="point" transform="translate(39.68,290.2)" d="M7.5,0A7.5,7.5 0 1,1 0,-7.5A7.5,7.5 0 0,1 7.5,0Z" style="opacity: 1; stroke-width: 0px; fill: rgb(230, 172, 33); fill-opacity: 0.25;"/><path class="point" transform="translate(42.19,299.93)" d="M7.5,0A7.5,7.5 0 1,1 0,-7.5A7.5,7.5 0 0,1 7.5,0Z" style="opacity: 1; stroke-width: 0px; fill: rgb(230, 172, 33); fill-opacity: 0.25;"/><path class="point" transform="translate(44.57,294.63)" d="M7.5,0A7.5,7.5 0 1,1 0,-7.5A7.5,7.5 0 0,1 7.5,0Z" style="opacity: 1; stroke-width: 0px; fill: rgb(230, 172, 33); fill-opacity: 0.25;"/><path class="point" transform="translate(46.1,290.2)" d="M7.5,0A7.5,7.5 0 1,1 0,-7.5A7.5,7.5 0 0,1 7.5,0Z" style="opacity: 1; stroke-width: 0px; fill: rgb(230, 172, 33); fill-opacity: 0.25;"/><path class="point" transform="translate(43.45,299.05)" d="M7.5,0A7.5,7.5 0 1,1 0,-7.5A7.5,7.5 0 0,1 7.5,0Z" style="opacity: 1; stroke-width: 0px; fill: rgb(230, 172, 33); fill-opacity: 0.25;"/><path class="point" transform="translate(50.99,276.94)" d="M7.5,0A7.5,7.5 0 1,1 0,-7.5A7.5,7.5 0 0,1 7.5,0Z" style="opacity: 1; stroke-width: 0px; fill: rgb(230, 172, 33); fill-opacity: 0.25;"/></g><g class="text"/></g><g class="trace scatter tracee32ee5" style="stroke-miterlimit: 2; opacity: 1;"><g class="fills"/><g class="errorbars"/><g class="lines"><path class="js-line" d="M0,266.95Q2.67,267.21 4.47,268.11C8.1,269.93 16.02,276.06 19.14,279.88C21.24,282.45 21.73,285.09 23.05,287.45C24.25,289.59 25.22,293.08 26.68,293.47C27.87,293.79 29.83,291.57 30.74,291.22C31.16,291.06 31.34,291.18 31.71,290.99C32.39,290.64 33.14,289.28 34.23,288.76C35.63,288.09 38.21,287.84 39.68,287.84C40.68,287.84 41.39,287.99 42.19,288.27C43.02,288.56 43.85,289.45 44.57,289.55C45.12,289.63 46.1,289.22 46.1,289.21C46.1,289.19 43.46,289.42 43.45,289.67Q43.43,290.09 50.99,291.75" style="vector-effect: non-scaling-stroke; fill: none; stroke: rgb(114, 55, 105); stroke-opacity: 1; stroke-width: 7px; opacity: 1;"/></g><g class="points"/><g class="text"/></g><g class="trace scatter tracec34285" style="stroke-miterlimit: 2; opacity: 1;"><g class="fills"/><g class="errorbars"/><g class="lines"/><g class="points"><path class="point" transform="translate(0,266.33)" d="M7.5,0A7.5,7.5 0 1,1 0,-7.5A7.5,7.5 0 0,1 7.5,0Z" style="opacity: 1; stroke-width: 0px; fill: rgb(114, 55, 105); fill-opacity: 0.25;"/><path class="point" transform="translate(4.47,268.1)" d="M7.5,0A7.5,7.5 0 1,1 0,-7.5A7.5,7.5 0 0,1 7.5,0Z" style="opacity: 1; stroke-width: 0px; fill: rgb(114, 55, 105); fill-opacity: 0.25;"/><path class="point" transform="translate(19.14,272.52)" d="M7.5,0A7.5,7.5 0 1,1 0,-7.5A7.5,7.5 0 0,1 7.5,0Z" style="opacity: 1; stroke-width: 0px; fill: rgb(114, 55, 105); fill-opacity: 0.25;"/><path class="point" transform="translate(23.05,285.78)" d="M7.5,0A7.5,7.5 0 1,1 0,-7.5A7.5,7.5 0 0,1 7.5,0Z" style="opacity: 1; stroke-width: 0px; fill: rgb(114, 55, 105); fill-opacity: 0.25;"/><path class="point" transform="translate(26.68,303.47)" d="M7.5,0A7.5,7.5 0 1,1 0,-7.5A7.5,7.5 0 0,1 7.5,0Z" style="opacity: 1; stroke-width: 0px; fill: rgb(114, 55, 105); fill-opacity: 0.25;"/><path class="point" transform="translate(30.74,290.2)" d="M7.5,0A7.5,7.5 0 1,1 0,-7.5A7.5,7.5 0 0,1 7.5,0Z" style="opacity: 1; stroke-width: 0px; fill: rgb(114, 55, 105); fill-opacity: 0.25;"/><path class="point" transform="translate(31.71,294.63)" d="M7.5,0A7.5,7.5 0 1,1 0,-7.5A7.5,7.5 0 0,1 7.5,0Z" style="opacity: 1; stroke-width: 0px; fill: rgb(114, 55, 105); fill-opacity: 0.25;"/><path class="point" transform="translate(34.23,284.01)" d="M7.5,0A7.5,7.5 0 1,1 0,-7.5A7.5,7.5 0 0,1 7.5,0Z" style="opacity: 1; stroke-width: 0px; fill: rgb(114, 55, 105); fill-opacity: 0.25;"/><path class="point" transform="translate(39.68,285.78)" d="M7.5,0A7.5,7.5 0 1,1 0,-7.5A7.5,7.5 0 0,1 7.5,0Z" style="opacity: 1; stroke-width: 0px; fill: rgb(114, 55, 105); fill-opacity: 0.25;"/><path class="point" transform="translate(42.19,280.48)" d="M7.5,0A7.5,7.5 0 1,1 0,-7.5A7.5,7.5 0 0,1 7.5,0Z" style="opacity: 1; stroke-width: 0px; fill: rgb(114, 55, 105); fill-opacity: 0.25;"/><path class="point" transform="translate(44.57,290.2)" d="M7.5,0A7.5,7.5 0 1,1 0,-7.5A7.5,7.5 0 0,1 7.5,0Z" style="opacity: 1; stroke-width: 0px; fill: rgb(114, 55, 105); fill-opacity: 0.25;"/><path class="point" transform="translate(46.1,285.78)" d="M7.5,0A7.5,7.5 0 1,1 0,-7.5A7.5,7.5 0 0,1 7.5,0Z" style="opacity: 1; stroke-width: 0px; fill: rgb(114, 55, 105); fill-opacity: 0.25;"/><path class="point" transform="translate(43.45,299.05)" d="M7.5,0A7.5,7.5 0 1,1 0,-7.5A7.5,7.5 0 0,1 7.5,0Z" style="opacity: 1; stroke-width: 0px; fill: rgb(114, 55, 105); fill-opacity: 0.25;"/><path class="point" transform="translate(50.99,294.63)" d="M7.5,0A7.5,7.5 0 1,1 0,-7.5A7.5,7.5 0 0,1 7.5,0Z" style="opacity: 1; stroke-width: 0px; fill: rgb(114, 55, 105); fill-opacity: 0.25;"/></g><g class="text"/></g><g class="trace scatter tracefcfe12" style="stroke-miterlimit: 2; opacity: 1;"><g class="fills"/><g class="errorbars"/><g class="lines"><path class="js-line" d="M0,293.54Q1.78,301.23 4.47,302.91C7.67,304.91 15.82,303.09 19.14,302.81C20.87,302.66 21.81,301.96 23.05,302.17C24.32,302.39 25.43,303.49 26.68,304.16C27.99,304.86 29.87,305.72 30.74,306.28C31.19,306.57 31.28,306.9 31.71,307.04C32.33,307.24 33.29,307.29 34.23,306.97C35.77,306.44 38.18,303.9 39.68,302.95C40.65,302.33 41.34,301.89 42.19,301.58C42.97,301.29 43.87,301.32 44.57,301.1C45.15,300.92 46.11,300.49 46.1,300.45C46.08,300.4 43.48,301.25 43.45,301.16Q43.39,301 50.99,297.72" style="vector-effect: non-scaling-stroke; fill: none; stroke: rgb(0, 51, 255); stroke-opacity: 1; stroke-width: 7px; opacity: 1;"/></g><g class="points"/><g class="text"/></g><g class="trace scatter traceb7878a" style="stroke-miterlimit: 2; opacity: 1;"><g class="fills"/><g class="errorbars"/><g class="lines"/><g class="points"><path class="point" transform="translate(0,288.44)" d="M7.5,0A7.5,7.5 0 1,1 0,-7.5A7.5,7.5 0 0,1 7.5,0Z" style="opacity: 1; stroke-width: 0px; fill: rgb(0, 51, 255); fill-opacity: 0.25;"/><path class="point" transform="translate(4.47,307.89)" d="M7.5,0A7.5,7.5 0 1,1 0,-7.5A7.5,7.5 0 0,1 7.5,0Z" style="opacity: 1; stroke-width: 0px; fill: rgb(0, 51, 255); fill-opacity: 0.25;"/><path class="point" transform="translate(19.14,303.47)" d="M7.5,0A7.5,7.5 0 1,1 0,-7.5A7.5,7.5 0 0,1 7.5,0Z" style="opacity: 1; stroke-width: 0px; fill: rgb(0, 51, 255); fill-opacity: 0.25;"/><path class="point" transform="translate(23.05,299.05)" d="M7.5,0A7.5,7.5 0 1,1 0,-7.5A7.5,7.5 0 0,1 7.5,0Z" style="opacity: 1; stroke-width: 0px; fill: rgb(0, 51, 255); fill-opacity: 0.25;"/><path class="point" transform="translate(26.68,303.47)" d="M7.5,0A7.5,7.5 0 1,1 0,-7.5A7.5,7.5 0 0,1 7.5,0Z" style="opacity: 1; stroke-width: 0px; fill: rgb(0, 51, 255); fill-opacity: 0.25;"/><path class="point" transform="translate(30.74,303.47)" d="M7.5,0A7.5,7.5 0 1,1 0,-7.5A7.5,7.5 0 0,1 7.5,0Z" style="opacity: 1; stroke-width: 0px; fill: rgb(0, 51, 255); fill-opacity: 0.25;"/><path class="point" transform="translate(31.71,312.31)" d="M7.5,0A7.5,7.5 0 1,1 0,-7.5A7.5,7.5 0 0,1 7.5,0Z" style="opacity: 1; stroke-width: 0px; fill: rgb(0, 51, 255); fill-opacity: 0.25;"/><path class="point" transform="translate(34.23,310.54)" d="M7.5,0A7.5,7.5 0 1,1 0,-7.5A7.5,7.5 0 0,1 7.5,0Z" style="opacity: 1; stroke-width: 0px; fill: rgb(0, 51, 255); fill-opacity: 0.25;"/><path class="point" transform="translate(39.68,303.47)" d="M7.5,0A7.5,7.5 0 1,1 0,-7.5A7.5,7.5 0 0,1 7.5,0Z" style="opacity: 1; stroke-width: 0px; fill: rgb(0, 51, 255); fill-opacity: 0.25;"/><path class="point" transform="translate(42.19,300.82)" d="M7.5,0A7.5,7.5 0 1,1 0,-7.5A7.5,7.5 0 0,1 7.5,0Z" style="opacity: 1; stroke-width: 0px; fill: rgb(0, 51, 255); fill-opacity: 0.25;"/><path class="point" transform="translate(44.57,303.47)" d="M7.5,0A7.5,7.5 0 1,1 0,-7.5A7.5,7.5 0 0,1 7.5,0Z" style="opacity: 1; stroke-width: 0px; fill: rgb(0, 51, 255); fill-opacity: 0.25;"/><path class="point" transform="translate(46.1,299.05)" d="M7.5,0A7.5,7.5 0 1,1 0,-7.5A7.5,7.5 0 0,1 7.5,0Z" style="opacity: 1; stroke-width: 0px; fill: rgb(0, 51, 255); fill-opacity: 0.25;"/><path class="point" transform="translate(43.45,299.05)" d="M7.5,0A7.5,7.5 0 1,1 0,-7.5A7.5,7.5 0 0,1 7.5,0Z" style="opacity: 1; stroke-width: 0px; fill: rgb(0, 51, 255); fill-opacity: 0.25;"/><path class="point" transform="translate(50.99,294.63)" d="M7.5,0A7.5,7.5 0 1,1 0,-7.5A7.5,7.5 0 0,1 7.5,0Z" style="opacity: 1; stroke-width: 0px; fill: rgb(0, 51, 255); fill-opacity: 0.25;"/></g><g class="text"/></g><g class="trace scatter tracefda31e" style="stroke-miterlimit: 2; opacity: 1;"><g class="fills"/><g class="errorbars"/><g class="lines"><path class="js-line" d="M0,290.19Q2.53,292.09 4.47,293.42C7.93,295.79 15.7,301.99 19.14,302.96C20.77,303.42 21.87,303.39 23.05,302.86C24.43,302.24 25.57,300.65 26.68,298.93C28.23,296.52 29.64,290.43 30.74,289.3C31.09,288.94 31.33,289.09 31.71,288.86C32.37,288.47 33.18,287.15 34.23,287C35.66,286.79 38.25,288.25 39.68,288.98C40.72,289.51 41.42,289.95 42.19,290.67C43.06,291.48 43.8,293.05 44.57,293.71C45.09,294.15 46.04,294.63 46.1,294.55C46.19,294.43 43.49,291.78 43.45,291.82Q43.37,291.89 50.99,300.81" style="vector-effect: non-scaling-stroke; fill: none; stroke: rgb(240, 125, 0); stroke-opacity: 1; stroke-width: 7px; opacity: 1;"/></g><g class="points"/><g class="text"/></g><g class="trace scatter trace468ec2" style="stroke-miterlimit: 2; opacity: 1;"><g class="fills"/><g class="errorbars"/><g class="lines"/><g class="points"><path class="point" transform="translate(0,288.44)" d="M7.5,0A7.5,7.5 0 1,1 0,-7.5A7.5,7.5 0 0,1 7.5,0Z" style="opacity: 1; stroke-width: 0px; fill: rgb(240, 125, 0); fill-opacity: 0.25;"/><path class="point" transform="translate(4.47,294.63)" d="M7.5,0A7.5,7.5 0 1,1 0,-7.5A7.5,7.5 0 0,1 7.5,0Z" style="opacity: 1; stroke-width: 0px; fill: rgb(240, 125, 0); fill-opacity: 0.25;"/><path class="point" transform="translate(19.14,303.47)" d="M7.5,0A7.5,7.5 0 1,1 0,-7.5A7.5,7.5 0 0,1 7.5,0Z" style="opacity: 1; stroke-width: 0px; fill: rgb(240, 125, 0); fill-opacity: 0.25;"/><path class="point" transform="translate(23.05,307.89)" d="M7.5,0A7.5,7.5 0 1,1 0,-7.5A7.5,7.5 0 0,1 7.5,0Z" style="opacity: 1; stroke-width: 0px; fill: rgb(240, 125, 0); fill-opacity: 0.25;"/><path class="point" transform="translate(26.68,307.89)" d="M7.5,0A7.5,7.5 0 1,1 0,-7.5A7.5,7.5 0 0,1 7.5,0Z" style="opacity: 1; stroke-width: 0px; fill: rgb(240, 125, 0); fill-opacity: 0.25;"/><path class="point" transform="translate(30.74,281.36)" d="M7.5,0A7.5,7.5 0 1,1 0,-7.5A7.5,7.5 0 0,1 7.5,0Z" style="opacity: 1; stroke-width: 0px; fill: rgb(240, 125, 0); fill-opacity: 0.25;"/><path class="point" transform="translate(31.71,290.2)" d="M7.5,0A7.5,7.5 0 1,1 0,-7.5A7.5,7.5 0 0,1 7.5,0Z" style="opacity: 1; stroke-width: 0px; fill: rgb(240, 125, 0); fill-opacity: 0.25;"/><path class="point" transform="translate(34.23,280.48)" d="M7.5,0A7.5,7.5 0 1,1 0,-7.5A7.5,7.5 0 0,1 7.5,0Z" style="opacity: 1; stroke-width: 0px; fill: rgb(240, 125, 0); fill-opacity: 0.25;"/><path class="point" transform="translate(39.68,285.78)" d="M7.5,0A7.5,7.5 0 1,1 0,-7.5A7.5,7.5 0 0,1 7.5,0Z" style="opacity: 1; stroke-width: 0px; fill: rgb(240, 125, 0); fill-opacity: 0.25;"/><path class="point" transform="translate(42.19,287.55)" d="M7.5,0A7.5,7.5 0 1,1 0,-7.5A7.5,7.5 0 0,1 7.5,0Z" style="opacity: 1; stroke-width: 0px; fill: rgb(240, 125, 0); fill-opacity: 0.25;"/><path class="point" transform="translate(44.57,303.47)" d="M7.5,0A7.5,7.5 0 1,1 0,-7.5A7.5,7.5 0 0,1 7.5,0Z" style="opacity: 1; stroke-width: 0px; fill: rgb(240, 125, 0); fill-opacity: 0.25;"/><path class="point" transform="translate(46.1,294.63)" d="M7.5,0A7.5,7.5 0 1,1 0,-7.5A7.5,7.5 0 0,1 7.5,0Z" style="opacity: 1; stroke-width: 0px; fill: rgb(240, 125, 0); fill-opacity: 0.25;"/><path class="point" transform="translate(43.45,285.78)" d="M7.5,0A7.5,7.5 0 1,1 0,-7.5A7.5,7.5 0 0,1 7.5,0Z" style="opacity: 1; stroke-width: 0px; fill: rgb(240, 125, 0); fill-opacity: 0.25;"/><path class="point" transform="translate(50.99,307.89)" d="M7.5,0A7.5,7.5 0 1,1 0,-7.5A7.5,7.5 0 0,1 7.5,0Z" style="opacity: 1; stroke-width: 0px; fill: rgb(240, 125, 0); fill-opacity: 0.25;"/></g><g class="text"/></g><g class="trace scatter tracebc23b3" style="stroke-miterlimit: 2; opacity: 1;"><g class="fills"/><g class="errorbars"/><g class="lines"><path class="js-line" d="M0,298.55Q2.67,298.49 4.47,299.26C8.1,300.81 15.7,309.86 19.14,310.39C20.77,310.64 21.75,309.22 23.05,308.99C24.26,308.77 25.48,309.29 26.68,308.95C28.05,308.56 29.83,306.75 30.74,306.52C31.15,306.41 31.31,306.59 31.71,306.56C32.36,306.51 33.23,306.22 34.23,306.1C35.7,305.92 38.22,306.05 39.68,305.78C40.69,305.59 41.4,304.83 42.19,304.97C43.03,305.11 43.94,305.95 44.57,306.78C45.32,307.77 46.17,310.7 46.1,310.73C46.02,310.76 43.08,305.74 43.45,305.44Q43.92,305.06 50.99,311.48" style="vector-effect: non-scaling-stroke; fill: none; stroke: rgb(140, 0, 0); stroke-opacity: 1; stroke-width: 7px; opacity: 1;"/></g><g class="points"/><g class="text"/></g><g class="trace scatter trace10ecfd" style="stroke-miterlimit: 2; opacity: 1;"><g class="fills"/><g class="errorbars"/><g class="lines"/><g class="points"><path class="point" transform="translate(0,298.16)" d="M7.5,0A7.5,7.5 0 1,1 0,-7.5A7.5,7.5 0 0,1 7.5,0Z" style="opacity: 1; stroke-width: 0px; fill: rgb(140, 0, 0); fill-opacity: 0.25;"/><path class="point" transform="translate(4.47,299.05)" d="M7.5,0A7.5,7.5 0 1,1 0,-7.5A7.5,7.5 0 0,1 7.5,0Z" style="opacity: 1; stroke-width: 0px; fill: rgb(140, 0, 0); fill-opacity: 0.25;"/><path class="point" transform="translate(19.14,312.31)" d="M7.5,0A7.5,7.5 0 1,1 0,-7.5A7.5,7.5 0 0,1 7.5,0Z" style="opacity: 1; stroke-width: 0px; fill: rgb(140, 0, 0); fill-opacity: 0.25;"/><path class="point" transform="translate(23.05,307.89)" d="M7.5,0A7.5,7.5 0 1,1 0,-7.5A7.5,7.5 0 0,1 7.5,0Z" style="opacity: 1; stroke-width: 0px; fill: rgb(140, 0, 0); fill-opacity: 0.25;"/><path class="point" transform="translate(26.68,312.31)" d="M7.5,0A7.5,7.5 0 1,1 0,-7.5A7.5,7.5 0 0,1 7.5,0Z" style="opacity: 1; stroke-width: 0px; fill: rgb(140, 0, 0); fill-opacity: 0.25;"/><path class="point" transform="translate(30.74,303.47)" d="M7.5,0A7.5,7.5 0 1,1 0,-7.5A7.5,7.5 0 0,1 7.5,0Z" style="opacity: 1; stroke-width: 0px; fill: rgb(140, 0, 0); fill-opacity: 0.25;"/><path class="point" transform="translate(31.71,307.89)" d="M7.5,0A7.5,7.5 0 1,1 0,-7.5A7.5,7.5 0 0,1 7.5,0Z" style="opacity: 1; stroke-width: 0px; fill: rgb(140, 0, 0); fill-opacity: 0.25;"/><path class="point" transform="translate(34.23,305.24)" d="M7.5,0A7.5,7.5 0 1,1 0,-7.5A7.5,7.5 0 0,1 7.5,0Z" style="opacity: 1; stroke-width: 0px; fill: rgb(140, 0, 0); fill-opacity: 0.25;"/><path class="point" transform="translate(39.68,307.89)" d="M7.5,0A7.5,7.5 0 1,1 0,-7.5A7.5,7.5 0 0,1 7.5,0Z" style="opacity: 1; stroke-width: 0px; fill: rgb(140, 0, 0); fill-opacity: 0.25;"/><path class="point" transform="translate(42.19,299.93)" d="M7.5,0A7.5,7.5 0 1,1 0,-7.5A7.5,7.5 0 0,1 7.5,0Z" style="opacity: 1; stroke-width: 0px; fill: rgb(140, 0, 0); fill-opacity: 0.25;"/><path class="point" transform="translate(44.57,299.05)" d="M7.5,0A7.5,7.5 0 1,1 0,-7.5A7.5,7.5 0 0,1 7.5,0Z" style="opacity: 1; stroke-width: 0px; fill: rgb(140, 0, 0); fill-opacity: 0.25;"/><path class="point" transform="translate(43.45,299.05)" d="M7.5,0A7.5,7.5 0 1,1 0,-7.5A7.5,7.5 0 0,1 7.5,0Z" style="opacity: 1; stroke-width: 0px; fill: rgb(140, 0, 0); fill-opacity: 0.25;"/><path class="point" transform="translate(50.99,312.31)" d="M7.5,0A7.5,7.5 0 1,1 0,-7.5A7.5,7.5 0 0,1 7.5,0Z" style="opacity: 1; stroke-width: 0px; fill: rgb(140, 0, 0); fill-opacity: 0.25;"/></g><g class="text"/></g></g></g><g class="overplot"/><path class="xlines-above crisp" d="M0,0" style="fill: none;"/><path class="ylines-above crisp" d="M0,0" style="fill: none;"/><g class="overlines-above"/><g class="xaxislayer-above"><g class="xtick"><text text-anchor="middle" x="0" y="363" transform="translate(61.74,0)" style="font-family: 'Open Sans', verdana, arial, sans-serif; font-size: 12px; fill: rgb(42, 63, 95); fill-opacity: 1; white-space: pre; opacity: 1;">1.1.22</text></g><g class="xtick"><text text-anchor="middle" x="0" y="363" style="font-family: 'Open Sans', verdana, arial, sans-serif; font-size: 12px; fill: rgb(42, 63, 95); fill-opacity: 1; white-space: pre; opacity: 1;" transform="translate(112.72999999999999,0)">1.1.23</text></g><g class="xtick"><text text-anchor="middle" x="0" y="363" style="font-family: 'Open Sans', verdana, arial, sans-serif; font-size: 12px; fill: rgb(42, 63, 95); fill-opacity: 1; white-space: pre; opacity: 1;" transform="translate(163.72,0)">1.1.24</text></g><g class="xtick"><text text-anchor="middle" x="0" y="363" style="font-family: 'Open Sans', verdana, arial, sans-serif; font-size: 12px; fill: rgb(42, 63, 95); fill-opacity: 1; white-space: pre; opacity: 1;" transform="translate(214.86,0)">1.1.25</text></g></g><g class="yaxislayer-above"><g class="ytick"><text text-anchor="end" x="49" y="4.199999999999999" transform="translate(0,350)" style="font-family: 'Open Sans', verdana, arial, sans-serif; font-size: 12px; fill: rgb(42, 63, 95); fill-opacity: 1; white-space: pre; opacity: 1;">0%</text></g><g class="ytick"><text text-anchor="end" x="49" y="4.199999999999999" style="font-family: 'Open Sans', verdana, arial, sans-serif; font-size: 12px; fill: rgb(42, 63, 95); fill-opacity: 1; white-space: pre; opacity: 1;" transform="translate(0,305.78)">5%</text></g><g class="ytick"><text text-anchor="end" x="49" y="4.199999999999999" style="font-family: 'Open Sans', verdana, arial, sans-serif; font-size: 12px; fill: rgb(42, 63, 95); fill-opacity: 1; white-space: pre; opacity: 1;" transform="translate(0,261.56)">10%</text></g><g class="ytick"><text text-anchor="end" x="49" y="4.199999999999999" style="font-family: 'Open Sans', verdana, arial, sans-serif; font-size: 12px; fill: rgb(42, 63, 95); fill-opacity: 1; white-space: pre; opacity: 1;" transform="translate(0,217.35)">15%</text></g><g class="ytick"><text text-anchor="end" x="49" y="4.199999999999999" style="font-family: 'Open Sans', verdana, arial, sans-serif; font-size: 12px; fill: rgb(42, 63, 95); fill-opacity: 1; white-space: pre; opacity: 1;" transform="translate(0,173.13)">20%</text></g><g class="ytick"><text text-anchor="end" x="49" y="4.199999999999999" style="font-family: 'Open Sans', verdana, arial, sans-serif; font-size: 12px; fill: rgb(42, 63, 95); fill-opacity: 1; white-space: pre; opacity: 1;" transform="translate(0,128.91)">25%</text></g><g class="ytick"><text text-anchor="end" x="49" y="4.199999999999999" style="font-family: 'Open Sans', verdana, arial, sans-serif; font-size: 12px; fill: rgb(42, 63, 95); fill-opacity: 1; white-space: pre; opacity: 1;" transform="translate(0,84.69)">30%</text></g><g class="ytick"><text text-anchor="end" x="49" y="4.199999999999999" style="font-family: 'Open Sans', verdana, arial, sans-serif; font-size: 12px; fill: rgb(42, 63, 95); fill-opacity: 1; white-space: pre; opacity: 1;" transform="translate(0,40.480000000000004)">35%</text></g></g><g class="overaxes-above"/></g></g><g class="polarlayer"/><g class="smithlayer"/><g class="ternarylayer"/><g class="geolayer"/><g class="funnelarealayer"/><g class="pielayer"/><g class="iciclelayer"/><g class="treemaplayer"/><g class="sunburstlayer"/><g class="glimages"/><defs id="topdefs-f1655e"><g class="clips"/><clipPath id="legendf1655e"><rect width="131" height="200" x="0" y="0"/></clipPath></defs><g class="layer-above"><g class="imagelayer"/><g class="shapelayer"/></g><g class="infolayer"><g class="legend" pointer-events="all" transform="translate(257.06,20)"><rect class="bg" shape-rendering="crispEdges" width="131" height="200" x="0" y="0" style="stroke: rgb(68, 68, 68); stroke-opacity: 1; fill: rgb(255, 255, 255); fill-opacity: 1; stroke-width: 0px;"/><g class="scrollbox" transform="" clip-path="url(#legendf1655e)"><g class="groups"><g class="traces" transform="translate(0,14.5)" style="opacity: 1;"><text class="legendtext" text-anchor="start" x="40" y="4.680000000000001" style="font-family: 'Open Sans', verdana, arial, sans-serif; font-size: 12px; fill: rgb(42, 63, 95); fill-opacity: 1; white-space: pre;">ANO: 30%</text><g class="layers" style="opacity: 1;"><g class="legendfill"/><g class="legendlines"><path class="js-line" d="M5,0h30" style="fill: none; stroke: rgb(38, 16, 96); stroke-opacity: 1; stroke-width: 7px;"/></g><g class="legendsymbols"><g class="legendpoints"/></g></g><rect class="legendtoggle" x="0" y="-9.5" width="125.359375" height="19" style="fill: rgb(0, 0, 0); fill-opacity: 0;"/></g><g class="traces" transform="translate(0,33.5)" style="opacity: 1;"><text class="legendtext" text-anchor="start" x="40" y="4.680000000000001" style="font-family: 'Open Sans', verdana, arial, sans-serif; font-size: 12px; fill: rgb(42, 63, 95); fill-opacity: 1; white-space: pre;">ODS: 17%</text><g class="layers" style="opacity: 1;"><g class="legendfill"/><g class="legendlines"><path class="js-line" d="M5,0h30" style="fill: none; stroke: rgb(0, 68, 148); stroke-opacity: 1; stroke-width: 7px;"/></g><g class="legendsymbols"><g class="legendpoints"/></g></g><rect class="legendtoggle" x="0" y="-9.5" width="125.359375" height="19" style="fill: rgb(0, 0, 0); fill-opacity: 0;"/></g><g class="traces" transform="translate(0,52.5)" style="opacity: 1;"><text class="legendtext" text-anchor="start" x="40" y="4.680000000000001" style="font-family: 'Open Sans', verdana, arial, sans-serif; font-size: 12px; fill: rgb(42, 63, 95); fill-opacity: 1; white-space: pre;">SPD: 12%</text><g class="layers" style="opacity: 1;"><g class="legendfill"/><g class="legendlines"><path class="js-line" d="M5,0h30" style="fill: none; stroke: rgb(234, 35, 41); stroke-opacity: 1; stroke-width: 7px;"/></g><g class="legendsymbols"><g class="legendpoints"/></g></g><rect class="legendtoggle" x="0" y="-9.5" width="125.359375" height="19" style="fill: rgb(0, 0, 0); fill-opacity: 0;"/></g><g class="traces" transform="translate(0,71.5)" style="opacity: 1;"><text class="legendtext" text-anchor="start" x="40" y="4.680000000000001" style="font-family: 'Open Sans', verdana, arial, sans-serif; font-size: 12px; fill: rgb(42, 63, 95); fill-opacity: 1; white-space: pre;">Pirti: 9%</text><g class="layers" style="opacity: 1;"><g class="legendfill"/><g class="legendlines"><path class="js-line" d="M5,0h30" style="fill: none; stroke: rgb(0, 0, 0); stroke-opacity: 1; stroke-width: 7px;"/></g><g class="legendsymbols"><g class="legendpoints"/></g></g><rect class="legendtoggle" x="0" y="-9.5" width="125.359375" height="19" style="fill: rgb(0, 0, 0); fill-opacity: 0;"/></g><g class="traces" transform="translate(0,90.5)" style="opacity: 1;"><text class="legendtext" text-anchor="start" x="40" y="4.680000000000001" style="font-family: 'Open Sans', verdana, arial, sans-serif; font-size: 12px; fill: rgb(42, 63, 95); fill-opacity: 1; white-space: pre;">STAN: 6%</text><g class="layers" style="opacity: 1;"><g class="legendfill"/><g class="legendlines"><path class="js-line" d="M5,0h30" style="fill: none; stroke: rgb(93, 140, 0); stroke-opacity: 1; stroke-width: 7px;"/></g><g class="legendsymbols"><g class="legendpoints"/></g></g><rect class="legendtoggle" x="0" y="-9.5" width="125.359375" height="19" style="fill: rgb(0, 0, 0); fill-opacity: 0;"/></g><g class="traces" transform="translate(0,109.5)" style="opacity: 1;"><text class="legendtext" text-anchor="start" x="40" y="4.680000000000001" style="font-family: 'Open Sans', verdana, arial, sans-serif; font-size: 12px; fill: rgb(42, 63, 95); fill-opacity: 1; white-space: pre;">KDU-SL: 5%</text><g class="layers" style="opacity: 1;"><g class="legendfill"/><g class="legendlines"><path class="js-line" d="M5,0h30" style="fill: none; stroke: rgb(230, 172, 33); stroke-opacity: 1; stroke-width: 7px;"/></g><g class="legendsymbols"><g class="legendpoints"/></g></g><rect class="legendtoggle" x="0" y="-9.5" width="125.359375" height="19" style="fill: rgb(0, 0, 0); fill-opacity: 0;"/></g><g class="traces" transform="translate(0,128.5)" style="opacity: 1;"><text class="legendtext" text-anchor="start" x="40" y="4.680000000000001" style="font-family: 'Open Sans', verdana, arial, sans-serif; font-size: 12px; fill: rgb(42, 63, 95); fill-opacity: 1; white-space: pre;">TOP 09: 4%</text><g class="layers" style="opacity: 1;"><g class="legendfill"/><g class="legendlines"><path class="js-line" d="M5,0h30" style="fill: none; stroke: rgb(114, 55, 105); stroke-opacity: 1; stroke-width: 7px;"/></g><g class="legendsymbols"><g class="legendpoints"/></g></g><rect class="legendtoggle" x="0" y="-9.5" width="125.359375" height="19" style="fill: rgb(0, 0, 0); fill-opacity: 0;"/></g><g class="traces" transform="translate(0,147.5)" style="opacity: 1;"><text class="legendtext" text-anchor="start" x="40" y="4.680000000000001" style="font-family: 'Open Sans', verdana, arial, sans-serif; font-size: 12px; fill: rgb(42, 63, 95); fill-opacity: 1; white-space: pre;">Psaha: 4%</text><g class="layers" style="opacity: 1;"><g class="legendfill"/><g class="legendlines"><path class="js-line" d="M5,0h30" style="fill: none; stroke: rgb(0, 51, 255); stroke-opacity: 1; stroke-width: 7px;"/></g><g class="legendsymbols"><g class="legendpoints"/></g></g><rect class="legendtoggle" x="0" y="-9.5" width="125.359375" height="19" style="fill: rgb(0, 0, 0); fill-opacity: 0;"/></g><g class="traces" transform="translate(0,166.5)" style="opacity: 1;"><text class="legendtext" text-anchor="start" x="40" y="4.680000000000001" style="font-family: 'Open Sans', verdana, arial, sans-serif; font-size: 12px; fill: rgb(42, 63, 95); fill-opacity: 1; white-space: pre;">SSD: 3%</text><g class="layers" style="opacity: 1;"><g class="legendfill"/><g class="legendlines"><path class="js-line" d="M5,0h30" style="fill: none; stroke: rgb(240, 125, 0); stroke-opacity: 1; stroke-width: 7px;"/></g><g class="legendsymbols"><g class="legendpoints"/></g></g><rect class="legendtoggle" x="0" y="-9.5" width="125.359375" height="19" style="fill: rgb(0, 0, 0); fill-opacity: 0;"/></g><g class="traces" transform="translate(0,185.5)" style="opacity: 1;"><text class="legendtext" text-anchor="start" x="40" y="4.680000000000001" style="font-family: 'Open Sans', verdana, arial, sans-serif; font-size: 12px; fill: rgb(42, 63, 95); fill-opacity: 1; white-space: pre;">KSM: 2%</text><g class="layers" style="opacity: 1;"><g class="legendfill"/><g class="legendlines"><path class="js-line" d="M5,0h30" style="fill: none; stroke: rgb(140, 0, 0); stroke-opacity: 1; stroke-width: 7px;"/></g><g class="legendsymbols"><g class="legendpoints"/></g></g><rect class="legendtoggle" x="0" y="-9.5" width="125.359375" height="19" style="fill: rgb(0, 0, 0); fill-opacity: 0;"/></g></g></g><rect class="scrollbar" rx="20" ry="3" width="0" height="0" x="0" y="0" style="fill: rgb(128, 139, 164); fill-opacity: 1;"/></g><g class="g-gtitle"/><g class="g-xtitle"/><g class="g-ytitle"/></g></svg>