<svg class="main-svg" xmlns="http://www.w3.org/2000/svg" xmlns:xlink="http://www.w3.org/1999/xlink" width="300" height="135" style="" viewBox="0 0 300 135"><rect x="0" y="0" width="300" height="135" style="fill: rgb(255, 255, 255); fill-opacity: 1;"/><defs id="defs-5c219b"><g class="clips"><clipPath id="clip5c219bxyplot" class="plotclip"><rect width="280" height="75"/></clipPath><clipPath class="axesclip" id="clip5c219bx"><rect x="10" y="0" width="280" height="135"/></clipPath><clipPath class="axesclip" id="clip5c219by"><rect x="0" y="50" width="300" height="75"/></clipPath><clipPath class="axesclip" id="clip5c219bxy"><rect x="10" y="50" width="280" height="75"/></clipPath></g><g class="gradients"/><g class="patterns"/></defs><g class="bglayer"/><g class="layer-below"><g class="imagelayer"/><g class="shapelayer"/></g><g class="cartesianlayer"><g class="subplot xy"><g class="layer-subplot"><g class="shapelayer"/><g class="imagelayer"/></g><g class="minor-gridlayer"><g class="x"/><g class="y"/></g><g class="gridlayer"><g class="x"><path class="xgrid crisp" transform="translate(26.74,0)" d="M0,50v75" style="stroke: rgb(235, 240, 248); stroke-opacity: 1; stroke-width: 1px;"/><path class="xgrid crisp" transform="translate(99.48,0)" d="M0,50v75" style="stroke: rgb(235, 240, 248); stroke-opacity: 1; stroke-width: 1px;"/><path class="xgrid crisp" transform="translate(172.22,0)" d="M0,50v75" style="stroke: rgb(235, 240, 248); stroke-opacity: 1; stroke-width: 1px;"/><path class="xgrid crisp" transform="translate(245.16,0)" d="M0,50v75" style="stroke: rgb(235, 240, 248); stroke-opacity: 1; stroke-width: 1px;"/></g><g class="y"><path class="ygrid crisp" transform="translate(0,104.14)" d="M10,0h280" style="stroke: rgb(235, 240, 248); stroke-opacity: 1; stroke-width: 1px;"/><path class="ygrid crisp" transform="translate(0,83.28)" d="M10,0h280" style="stroke: rgb(235, 240, 248); stroke-opacity: 1; stroke-width: 1px;"/><path class="ygrid crisp" transform="translate(0,62.42)" d="M10,0h280" style="stroke: rgb(235, 240, 248); stroke-opacity: 1; stroke-width: 1px;"/></g></g><g class="zerolinelayer"><path class="yzl zl crisp" transform="translate(0,125)" d="M10,0h280" style="stroke: rgb(235, 240, 248); stroke-opacity: 1; stroke-width: 2px;"/></g><path class="xlines-below"/><path class="ylines-below"/><g class="overlines-below"/><g class="xaxislayer-below"/><g class="yaxislayer-below"/><g class="overaxes-below"/><g class="plot" transform="translate(10,50)" clip-path="url(#clip5c219bxyplot)"><g class="scatterlayer mlayer"><g class="trace scatter trace215ed0" style="stroke-miterlimit: 2; opacity: 1;"><g class="fills"/><g class="errorbars"/><g class="lines"><path class="js-line" d="M0,18.47Q3.64,18.53 6.38,18.69C11.34,18.98 22.61,21.12 27.3,20.4C29.81,20.01 31.03,18.68 32.88,18.12C34.61,17.6 36.29,17.44 38.06,17.07C39.94,16.68 42.57,16.03 43.84,15.81C44.46,15.7 44.67,15.74 45.24,15.64C46.16,15.47 47.41,15.11 48.83,14.75C50.93,14.23 54.49,13.17 56.6,12.79C58.01,12.53 59.2,12.39 60.19,12.38C60.89,12.37 61.4,12.52 61.98,12.53C62.53,12.54 63,12.44 63.57,12.43C64.24,12.41 65.04,12.45 65.77,12.46C66.5,12.47 67.34,12.45 67.96,12.49C68.42,12.52 68.62,12.57 69.15,12.61C70.24,12.7 72.88,12.58 74.14,12.9C74.98,13.11 75.24,13.74 76.13,13.83C77.79,14 80.54,12.61 83.5,12.04C87.86,11.21 98.76,10.03 99.84,9.74C99.96,9.71 99.93,9.7 100.04,9.66C100.57,9.49 103.42,8.5 104.63,8.51C105.43,8.52 105.84,9 106.62,9.06C107.68,9.14 109.35,8.8 110.41,8.61C111.18,8.47 111.63,8.41 112.4,8.12C113.56,7.69 115.59,6.33 116.58,5.98C117.09,5.8 117.55,5.77 117.78,5.72C117.87,5.7 117.87,5.7 117.98,5.68C118.57,5.56 121.68,4.53 123.56,4.47C125.46,4.41 127.11,5.13 129.34,5.37C132.37,5.7 138.32,6.29 140.1,6.05C140.71,5.97 141.01,5.72 141.3,5.64C141.46,5.6 141.48,5.6 141.69,5.56C142.45,5.42 145.8,4.74 147.07,4.67C147.76,4.63 148.06,4.78 148.67,4.76C149.47,4.74 150.57,4.57 151.46,4.44C152.29,4.32 153.39,4.08 153.85,4.02C154.04,3.99 154.12,3.99 154.25,3.98C154.38,3.97 154.45,3.97 154.65,3.96C155.29,3.94 157.09,3.78 158.63,3.87C160.8,3.99 165.71,4.84 166.41,4.91C166.52,4.92 166.54,4.93 166.6,4.92C166.67,4.91 166.69,4.89 166.8,4.87C167.34,4.79 170.68,4.88 171.59,4.67C171.98,4.58 171.99,4.35 172.38,4.32C173.37,4.23 177.2,5.58 177.77,5.66C177.88,5.68 177.87,5.67 177.96,5.67C178.21,5.68 178.78,5.6 179.36,5.66C180.32,5.75 181.94,6.21 183.15,6.43C184.25,6.63 185.25,6.83 186.33,6.96C187.44,7.09 188.49,7.07 189.72,7.19C191.18,7.34 193.59,7.68 194.51,7.83C194.89,7.89 195.3,7.99 195.3,7.99C195.3,7.99 195.3,7.99 195.3,7.99C195.3,7.99 198.75,9.22 199.89,9.25C200.55,9.27 200.83,8.97 201.48,8.89C202.47,8.76 203.89,9.06 205.27,8.78C207.07,8.42 210.29,6.72 211.25,6.45C211.54,6.37 211.59,6.4 211.84,6.34C212.28,6.24 212.92,6.03 213.64,5.85C214.71,5.58 217.13,4.96 217.62,4.9C217.73,4.89 217.82,4.9 217.82,4.9C217.82,4.9 217.82,4.9 217.82,4.9C217.82,4.9 219.09,4.63 219.81,4.46C220.66,4.26 221.9,3.83 222.6,3.75C223.01,3.7 223.29,3.78 223.6,3.78C223.88,3.78 224.1,3.76 224.4,3.77C224.8,3.79 225.2,3.87 225.79,3.91C226.81,3.98 229.06,4.07 229.98,4.1C230.43,4.11 230.52,4.11 230.98,4.11C232.01,4.1 235.1,4 235.96,3.97C236.26,3.96 236.36,3.95 236.56,3.95C236.76,3.95 237.01,3.96 237.15,3.95C237.23,3.95 237.25,3.94 237.35,3.93C237.61,3.91 238.75,3.86 238.75,3.86C238.75,3.86 238.75,3.86 238.75,3.86C238.75,3.86 239.14,3.84 239.35,3.83C239.6,3.81 240.14,3.77 240.14,3.77C240.14,3.77 240.14,3.77 240.14,3.77C240.14,3.77 241.14,3.87 241.54,3.91C241.84,3.94 242.08,3.96 242.33,3.99C242.54,4.01 242.7,4.03 242.93,4.06C243.22,4.1 243.6,4.16 243.93,4.21C244.26,4.25 244.68,4.28 244.93,4.33C245.09,4.36 245.19,4.4 245.32,4.44C245.45,4.48 245.57,4.51 245.72,4.55C245.9,4.6 246.11,4.67 246.32,4.75C246.57,4.85 247.12,5.12 247.12,5.12C247.12,5.12 247.12,5.12 247.12,5.12C247.12,5.12 248.51,5.66 248.51,5.66C248.51,5.66 248.51,5.66 248.51,5.66C248.51,5.66 249.91,6.04 249.91,6.04C249.91,6.04 249.91,6.04 249.91,6.04C249.91,6.04 251.3,6.27 251.9,6.42C252.41,6.55 253.3,6.86 253.3,6.86C253.3,6.86 253.3,6.86 253.3,6.86C253.3,6.86 253.65,6.99 253.89,7.03C254.25,7.1 254.92,7.12 255.29,7.14C255.53,7.16 255.65,7.15 255.89,7.17C256.26,7.19 257.28,7.28 257.28,7.28C257.28,7.28 257.28,7.28 257.28,7.28C257.28,7.28 257.38,7.27 257.48,7.27C257.74,7.27 258.63,7.35 258.88,7.37C258.97,7.38 258.98,7.38 259.07,7.39C259.34,7.43 260.15,7.59 260.67,7.65C261.15,7.71 262.06,7.75 262.06,7.75C262.06,7.75 262.06,7.75 262.06,7.75C262.06,7.75 262.8,7.78 263.06,7.81C263.22,7.83 263.46,7.87 263.46,7.87C263.46,7.87 263.46,7.87 263.46,7.87C263.46,7.87 264.32,7.9 264.65,7.93C264.88,7.95 265.04,7.99 265.25,8.01C265.5,8.03 265.75,8.05 266.05,8.06C266.45,8.08 267.12,8.09 267.44,8.09C267.61,8.09 267.73,8.08 267.84,8.08C267.92,8.08 267.95,8.09 268.04,8.09C268.22,8.1 268.54,8.12 268.84,8.13C269.24,8.15 270.23,8.19 270.23,8.19C270.23,8.19 270.23,8.19 270.23,8.19C270.23,8.19 271.37,8.36 271.63,8.39C271.73,8.4 271.74,8.41 271.83,8.41C272.06,8.41 272.62,8.35 273.02,8.32C273.42,8.28 273.99,8.22 274.22,8.2C274.31,8.19 274.32,8.18 274.42,8.18C274.67,8.17 275.36,8.19 275.81,8.18C276.22,8.17 276.78,8.12 277.01,8.13C277.11,8.14 277.13,8.15 277.21,8.16C277.36,8.18 277.6,8.21 277.81,8.21C278.06,8.21 278.3,8.17 278.6,8.15Q279,8.13 280,8.09" style="vector-effect: none; fill: none; stroke: rgb(39, 42, 89); stroke-opacity: 1; stroke-width: 5px; opacity: 1;"/></g><g class="points"/><g class="text"/></g><g class="trace scatter trace24d794" style="stroke-miterlimit: 2; opacity: 1;"><g class="fills"/><g class="errorbars"/><g class="lines"><path class="js-line" d="M0,17.22Q3.7,19.62 6.38,19.41C11.41,19.01 22.47,8.77 27.3,8.24C29.68,7.98 31.05,9.3 32.88,9.79C34.64,10.26 36.4,10.23 38.06,11.14C40.08,12.25 42.49,15.91 43.84,16.51C44.41,16.76 44.69,16.45 45.24,16.63C46.19,16.93 47.37,18.03 48.83,18.75C50.9,19.77 54.48,21.29 56.6,21.86C58,22.24 59.2,22.32 60.19,22.39C60.89,22.44 61.41,22.47 61.98,22.38C62.53,22.29 62.99,21.93 63.57,21.85C64.24,21.76 65.04,22.02 65.77,21.96C66.5,21.9 67.35,21.67 67.96,21.48C68.42,21.33 68.6,21.14 69.15,20.99C70.23,20.7 72.88,20.73 74.14,20.31C74.99,20.03 75.24,19.23 76.13,19.19C77.8,19.11 80.49,22.01 83.5,22.45C87.81,23.08 98.76,20.02 99.84,20.36C99.98,20.4 99.92,20.48 100.04,20.54C100.56,20.8 103.41,21.39 104.63,21.49C105.43,21.56 105.85,21.35 106.62,21.41C107.69,21.49 109.35,21.98 110.41,22.15C111.18,22.27 111.63,22.19 112.4,22.39C113.56,22.7 115.61,23.75 116.58,24.15C117.1,24.36 117.55,24.56 117.78,24.62C117.87,24.64 117.87,24.62 117.98,24.65C118.57,24.8 121.66,26.35 123.56,26.59C125.45,26.82 127.13,25.96 129.34,26.08C132.38,26.25 138.31,27.85 140.1,28.26C140.7,28.4 141.01,28.48 141.3,28.56C141.47,28.6 141.48,28.64 141.69,28.67C142.45,28.77 145.81,28.56 147.07,28.62C147.76,28.65 148.06,28.72 148.67,28.79C149.47,28.89 150.56,29.16 151.46,29.18C152.29,29.2 153.39,28.93 153.85,28.97C154.04,28.99 154.12,29.06 154.25,29.08C154.38,29.1 154.45,29.06 154.65,29.07C155.29,29.09 157.08,29.29 158.63,29.37C160.79,29.49 165.71,29.63 166.41,29.62C166.52,29.62 166.54,29.62 166.6,29.61C166.67,29.6 166.69,29.56 166.8,29.55C167.34,29.48 170.67,29.76 171.59,29.75C171.96,29.75 172,29.73 172.38,29.7C173.38,29.62 177.2,29.28 177.77,29.18C177.88,29.16 177.87,29.15 177.96,29.13C178.21,29.08 178.78,28.99 179.36,28.99C180.32,29 181.95,29.46 183.15,29.41C184.26,29.37 185.25,28.84 186.33,28.8C187.44,28.76 188.49,29.06 189.72,29.21C191.18,29.38 193.59,29.67 194.51,29.77C194.88,29.81 195.3,29.85 195.3,29.85C195.3,29.85 195.3,29.85 195.3,29.85C195.3,29.85 198.75,31.07 199.89,31.33C200.55,31.48 200.84,31.48 201.48,31.56C202.47,31.69 203.87,31.75 205.27,31.97C207.04,32.25 210.31,32.86 211.25,33.25C211.57,33.38 211.58,33.54 211.84,33.63C212.26,33.78 212.92,33.82 213.64,33.83C214.71,33.84 217.13,33.44 217.62,33.47C217.73,33.48 217.82,33.51 217.82,33.51C217.82,33.51 217.82,33.51 217.82,33.51C217.82,33.51 219.09,33.69 219.81,33.78C220.66,33.89 221.91,33.95 222.6,34.1C223.02,34.19 223.29,34.3 223.6,34.42C223.89,34.53 224.09,34.69 224.4,34.8C224.79,34.94 225.2,35.01 225.79,35.13C226.81,35.35 229.06,35.77 229.98,35.91C230.43,35.98 230.52,35.99 230.98,36.03C232.01,36.11 235.1,36.21 235.96,36.24C236.26,36.25 236.36,36.25 236.56,36.25C236.76,36.25 237.01,36.25 237.15,36.24C237.23,36.24 237.25,36.23 237.35,36.22C237.61,36.19 238.75,36.08 238.75,36.08C238.75,36.08 238.75,36.08 238.75,36.08C238.75,36.08 239.14,36.01 239.35,35.98C239.6,35.94 240.14,35.86 240.14,35.86C240.14,35.86 240.14,35.86 240.14,35.86C240.14,35.86 241.14,35.85 241.54,35.85C241.84,35.85 242.08,35.85 242.33,35.85C242.54,35.85 242.7,35.84 242.93,35.84C243.22,35.84 243.6,35.84 243.93,35.83C244.26,35.82 244.67,35.81 244.93,35.8C245.09,35.79 245.19,35.79 245.32,35.77C245.45,35.75 245.57,35.72 245.72,35.69C245.9,35.65 246.1,35.58 246.32,35.53C246.57,35.47 247.12,35.37 247.12,35.37C247.12,35.37 247.12,35.37 247.12,35.37C247.12,35.37 248.51,34.98 248.51,34.98C248.51,34.98 248.51,34.98 248.51,34.98C248.51,34.98 249.91,34.6 249.91,34.6C249.91,34.6 249.91,34.6 249.91,34.6C249.91,34.6 251.29,34.16 251.9,33.99C252.41,33.85 253.3,33.64 253.3,33.64C253.3,33.64 253.3,33.64 253.3,33.64C253.3,33.64 253.65,33.55 253.89,33.5C254.26,33.42 254.92,33.31 255.29,33.23C255.53,33.18 255.65,33.15 255.89,33.1C256.26,33.02 257.28,32.83 257.28,32.83C257.28,32.83 257.28,32.83 257.28,32.83C257.28,32.83 257.38,32.81 257.48,32.79C257.74,32.73 258.63,32.5 258.88,32.44C258.97,32.42 258.98,32.42 259.07,32.4C259.34,32.35 260.15,32.19 260.67,32.12C261.15,32.05 262.06,31.96 262.06,31.96C262.06,31.96 262.06,31.96 262.06,31.96C262.06,31.96 262.8,31.89 263.06,31.87C263.22,31.86 263.46,31.84 263.46,31.84C263.46,31.84 263.46,31.84 263.46,31.84C263.46,31.84 264.32,31.89 264.65,31.9C264.88,31.91 265.04,31.92 265.25,31.92C265.5,31.92 265.75,31.91 266.05,31.92C266.45,31.93 267.12,31.98 267.44,31.99C267.61,32 267.73,32 267.84,32C267.92,32 267.95,32.01 268.04,32.01C268.22,32.01 268.54,32 268.84,32C269.24,31.99 270.23,31.98 270.23,31.98C270.23,31.98 270.23,31.98 270.23,31.98C270.23,31.98 271.37,31.99 271.63,32C271.73,32 271.74,32 271.83,32.01C272.06,32.02 272.62,32.07 273.02,32.08C273.42,32.09 273.99,32.1 274.22,32.09C274.31,32.09 274.32,32.08 274.42,32.07C274.67,32.05 275.36,32.05 275.81,32.04C276.22,32.03 276.78,32.02 277.01,32.02C277.1,32.02 277.13,32.02 277.21,32.03C277.36,32.04 277.6,32.09 277.81,32.1C278.05,32.11 278.3,32.11 278.6,32.1Q279,32.09 280,32.02" style="vector-effect: none; fill: none; stroke: rgb(94, 102, 213); stroke-opacity: 1; stroke-width: 5px; opacity: 1;"/></g><g class="points"/><g class="text"/></g><g class="trace scatter trace1b825c" style="stroke-miterlimit: 2; opacity: 1;"><g class="fills"/><g class="errorbars"/><g class="lines"><path class="js-line" d="M0,54.97Q3.65,55.19 6.38,55.01C11.35,54.68 22.55,52.04 27.3,52.11C29.76,52.14 31.06,53.07 32.88,53.04C34.64,53.01 36.28,52.32 38.06,52C39.93,51.67 42.57,51.27 43.84,51.11C44.46,51.03 44.67,51.07 45.24,50.98C46.16,50.83 47.4,50.4 48.83,50.16C50.92,49.81 54.5,49.46 56.6,49.31C58.02,49.21 59.2,49.26 60.19,49.2C60.89,49.16 61.4,49.02 61.98,49.03C62.53,49.04 63,49.24 63.57,49.26C64.24,49.29 65.04,49.07 65.77,49.13C66.51,49.19 67.34,49.53 67.96,49.65C68.41,49.74 68.62,49.77 69.15,49.83C70.24,49.96 72.85,50.11 74.14,50.26C74.95,50.35 75.25,50.48 76.13,50.54C77.81,50.65 80.61,49.98 83.5,50.44C87.93,51.14 98.75,55.86 99.84,56.01C99.96,56.03 99.93,56 100.04,56C100.57,55.99 103.42,56 104.63,56.14C105.43,56.23 105.85,56.44 106.62,56.53C107.68,56.65 109.35,56.65 110.41,56.66C111.18,56.67 111.61,56.63 112.4,56.63C113.54,56.63 115.61,56.7 116.58,56.69C117.1,56.69 117.55,56.65 117.78,56.65C117.87,56.65 117.87,56.66 117.98,56.66C118.57,56.64 121.68,56.03 123.56,55.97C125.47,55.91 127.13,56.49 129.34,56.34C132.39,56.13 138.3,54.28 140.1,54.17C140.7,54.13 141.01,54.25 141.3,54.26C141.47,54.27 141.49,54.27 141.69,54.26C142.45,54.23 145.8,53.9 147.07,53.84C147.76,53.81 148.06,53.81 148.67,53.82C149.47,53.83 150.57,53.79 151.46,53.93C152.3,54.06 153.39,54.5 153.85,54.59C154.04,54.62 154.12,54.62 154.25,54.63C154.38,54.65 154.45,54.66 154.65,54.68C155.29,54.74 157.08,54.93 158.63,54.98C160.79,55.05 165.71,54.89 166.41,54.91C166.52,54.91 166.54,54.91 166.6,54.92C166.67,54.93 166.69,54.93 166.8,54.95C167.34,55.04 170.67,55.59 171.59,55.77C171.97,55.84 172,55.86 172.38,55.94C173.37,56.15 177.2,56.99 177.77,57.03C177.88,57.04 177.87,57.02 177.96,57.02C178.21,57.02 178.78,57.08 179.36,57.08C180.32,57.08 181.95,56.84 183.15,56.92C184.26,56.99 185.26,57.23 186.33,57.48C187.45,57.74 188.49,58.16 189.72,58.45C191.17,58.79 193.59,59.22 194.51,59.36C194.88,59.42 195.3,59.45 195.3,59.45C195.3,59.45 195.3,59.45 195.3,59.45C195.3,59.45 198.76,59.73 199.89,59.76C200.56,59.78 200.84,59.72 201.48,59.75C202.47,59.8 203.86,60.14 205.27,60.17C207.04,60.21 210.3,59.83 211.25,59.79C211.55,59.78 211.59,59.78 211.84,59.78C212.28,59.78 212.92,59.82 213.64,59.82C214.71,59.83 217.13,59.79 217.62,59.77C217.73,59.77 217.82,59.76 217.82,59.76C217.82,59.76 217.82,59.76 217.82,59.76C217.82,59.76 219.09,60.02 219.81,60.04C220.66,60.07 221.9,59.9 222.6,59.84C223.02,59.8 223.29,59.75 223.6,59.74C223.88,59.73 224.1,59.78 224.4,59.79C224.8,59.81 225.2,59.83 225.79,59.83C226.81,59.82 229.06,59.67 229.98,59.66C230.43,59.65 230.52,59.71 230.98,59.67C232.01,59.58 235.1,58.86 235.96,58.74C236.26,58.7 236.36,58.71 236.56,58.69C236.76,58.68 237.01,58.66 237.15,58.65C237.23,58.64 237.25,58.64 237.35,58.63C237.61,58.61 238.75,58.53 238.75,58.53C238.75,58.53 238.75,58.53 238.75,58.53C238.75,58.53 239.14,58.53 239.35,58.52C239.6,58.51 240.14,58.45 240.14,58.45C240.14,58.45 240.14,58.45 240.14,58.45C240.14,58.45 241.14,58.27 241.54,58.2C241.84,58.15 242.08,58.11 242.33,58.07C242.54,58.03 242.7,58.01 242.93,57.97C243.22,57.92 243.6,57.86 243.93,57.79C244.26,57.72 244.67,57.64 244.93,57.57C245.09,57.53 245.19,57.49 245.32,57.45C245.45,57.41 245.57,57.38 245.72,57.33C245.9,57.27 246.11,57.2 246.32,57.12C246.57,57.03 247.12,56.8 247.12,56.8C247.12,56.8 247.12,56.8 247.12,56.8C247.12,56.8 248.51,56.15 248.51,56.15C248.51,56.15 248.51,56.15 248.51,56.15C248.51,56.15 249.91,55.38 249.91,55.38C249.91,55.38 249.91,55.38 249.91,55.38C249.91,55.38 251.3,54.54 251.9,54.17C252.41,53.86 253.3,53.31 253.3,53.31C253.3,53.31 253.3,53.31 253.3,53.31C253.3,53.31 253.65,53.1 253.89,52.97C254.25,52.78 254.92,52.47 255.29,52.3C255.53,52.19 255.65,52.15 255.89,52.04C256.26,51.88 257.28,51.43 257.28,51.43C257.28,51.43 257.28,51.43 257.28,51.43C257.28,51.43 257.38,51.4 257.48,51.37C257.74,51.28 258.63,50.94 258.88,50.85C258.97,50.82 258.98,50.82 259.07,50.78C259.34,50.68 260.15,50.34 260.67,50.17C261.15,50.01 262.06,49.76 262.06,49.76C262.06,49.76 262.06,49.76 262.06,49.76C262.06,49.76 262.8,49.61 263.06,49.55C263.22,49.51 263.46,49.44 263.46,49.44C263.46,49.44 263.46,49.44 263.46,49.44C263.46,49.44 264.32,49.27 264.65,49.18C264.89,49.12 265.03,49.04 265.25,48.99C265.5,48.93 265.75,48.92 266.05,48.88C266.45,48.83 267.12,48.74 267.44,48.71C267.61,48.69 267.73,48.69 267.84,48.68C267.92,48.67 267.95,48.66 268.04,48.65C268.22,48.63 268.54,48.61 268.84,48.59C269.24,48.56 270.23,48.51 270.23,48.51C270.23,48.51 270.23,48.51 270.23,48.51C270.23,48.51 271.37,48.36 271.63,48.34C271.73,48.33 271.74,48.33 271.83,48.33C272.06,48.32 272.62,48.3 273.02,48.28C273.42,48.26 273.99,48.23 274.22,48.23C274.31,48.23 274.32,48.23 274.42,48.23C274.67,48.23 275.36,48.22 275.81,48.23C276.22,48.24 276.78,48.3 277.01,48.31C277.1,48.31 277.13,48.31 277.21,48.31C277.36,48.31 277.6,48.3 277.81,48.31C278.06,48.33 278.3,48.38 278.6,48.42Q279,48.47 280,48.6" style="vector-effect: none; fill: none; stroke: rgb(164, 125, 3); stroke-opacity: 1; stroke-width: 5px; opacity: 1;"/></g><g class="points"/><g class="text"/></g><g class="trace scatter tracef8650c" style="stroke-miterlimit: 2; opacity: 1;"><g class="fills"/><g class="errorbars"/><g class="lines"><path class="js-line" d="M0,62.27Q2.85,53.44 6.38,51.64C10.98,49.3 22.57,52.68 27.3,53.5C29.78,53.93 31.06,54.45 32.88,54.96C34.64,55.45 36.32,55.8 38.06,56.49C39.97,57.25 42.57,58.73 43.84,59.41C44.47,59.75 44.66,59.9 45.24,60.2C46.15,60.68 47.37,61.46 48.83,61.92C50.89,62.57 54.5,62.97 56.6,63.22C58.02,63.39 59.2,63.41 60.19,63.47C60.89,63.51 61.4,63.59 61.98,63.55C62.53,63.51 62.99,63.33 63.57,63.26C64.24,63.18 65.04,63.23 65.77,63.16C66.5,63.09 67.34,62.94 67.96,62.83C68.42,62.75 68.61,62.62 69.15,62.57C70.24,62.47 72.85,62.72 74.14,62.71C74.95,62.7 75.26,62.67 76.13,62.61C77.81,62.5 80.56,62.23 83.5,61.98C87.88,61.61 98.75,60.67 99.84,60.62C99.96,60.62 99.93,60.62 100.04,60.62C100.57,60.63 103.42,60.58 104.63,60.73C105.44,60.83 105.84,61.09 106.62,61.19C107.68,61.32 109.35,61.16 110.41,61.26C111.18,61.33 111.61,61.49 112.4,61.6C113.54,61.75 115.61,61.94 116.58,62.01C117.1,62.05 117.55,62.06 117.78,62.07C117.87,62.07 117.87,62.07 117.98,62.07C118.57,62.09 121.68,62.4 123.56,62.38C125.47,62.36 127.11,62.04 129.34,61.93C132.37,61.78 138.31,61.89 140.1,61.72C140.7,61.66 141.01,61.56 141.3,61.51C141.47,61.48 141.48,61.46 141.69,61.44C142.45,61.37 145.8,61.5 147.07,61.46C147.76,61.44 148.06,61.37 148.67,61.35C149.47,61.32 150.57,61.37 151.46,61.36C152.29,61.35 153.39,61.35 153.85,61.32C154.04,61.31 154.12,61.29 154.25,61.28C154.38,61.27 154.45,61.28 154.65,61.27C155.29,61.25 157.08,61.2 158.63,61.1C160.79,60.96 165.71,60.51 166.41,60.46C166.52,60.45 166.54,60.45 166.6,60.45C166.67,60.45 166.69,60.45 166.8,60.44C167.34,60.39 170.67,59.82 171.59,59.82C171.96,59.82 172,59.88 172.38,59.92C173.37,60.03 177.2,60.43 177.77,60.44C177.88,60.44 177.87,60.44 177.96,60.43C178.21,60.41 178.78,60.38 179.36,60.28C180.32,60.12 181.94,59.66 183.15,59.42C184.25,59.2 185.26,59.08 186.33,58.88C187.44,58.67 188.49,58.37 189.72,58.17C191.17,57.93 193.59,57.77 194.51,57.58C194.89,57.5 195.3,57.34 195.3,57.34C195.3,57.34 195.3,57.34 195.3,57.34C195.3,57.34 198.75,56.35 199.89,56.13C200.55,56 200.84,56.03 201.48,55.94C202.47,55.81 203.86,55.55 205.27,55.37C207.04,55.14 210.31,54.95 211.25,54.7C211.56,54.62 211.59,54.56 211.84,54.45C212.28,54.25 212.91,53.88 213.64,53.59C214.7,53.17 217.13,52.39 217.62,52.3C217.73,52.28 217.82,52.29 217.82,52.29C217.82,52.29 217.82,52.29 217.82,52.29C217.82,52.29 219.09,52.34 219.81,52.37C220.66,52.41 221.9,52.45 222.6,52.51C223.02,52.55 223.29,52.63 223.6,52.63C223.88,52.63 224.1,52.57 224.4,52.54C224.8,52.5 225.2,52.51 225.79,52.44C226.81,52.32 229.06,51.91 229.98,51.78C230.43,51.72 230.52,51.67 230.98,51.65C232.01,51.6 235.1,51.81 235.96,51.79C236.26,51.78 236.36,51.76 236.56,51.74C236.76,51.72 237.01,51.68 237.15,51.66C237.23,51.65 237.25,51.65 237.35,51.64C237.61,51.62 238.75,51.55 238.75,51.55C238.75,51.55 238.75,51.55 238.75,51.55C238.75,51.55 239.14,51.51 239.35,51.49C239.6,51.47 240.14,51.45 240.14,51.45C240.14,51.45 240.14,51.45 240.14,51.45C240.14,51.45 241.14,51.4 241.54,51.38C241.84,51.36 242.08,51.34 242.33,51.33C242.54,51.32 242.7,51.31 242.93,51.31C243.22,51.3 243.6,51.31 243.93,51.3C244.26,51.29 244.67,51.23 244.93,51.22C245.09,51.21 245.19,51.21 245.32,51.21C245.45,51.21 245.57,51.22 245.72,51.22C245.9,51.22 246.11,51.23 246.32,51.23C246.57,51.23 247.12,51.22 247.12,51.22C247.12,51.22 247.12,51.22 247.12,51.22C247.12,51.22 248.51,51.29 248.51,51.29C248.51,51.29 248.51,51.29 248.51,51.29C248.51,51.29 249.91,51.38 249.91,51.38C249.91,51.38 249.91,51.38 249.91,51.38C249.91,51.38 251.29,51.6 251.9,51.67C252.41,51.73 253.3,51.81 253.3,51.81C253.3,51.81 253.3,51.81 253.3,51.81C253.3,51.81 253.65,51.85 253.89,51.89C254.26,51.95 254.92,52.07 255.29,52.13C255.53,52.17 255.65,52.18 255.89,52.21C256.26,52.25 257.28,52.34 257.28,52.34C257.28,52.34 257.28,52.34 257.28,52.34C257.28,52.34 257.38,52.34 257.48,52.34C257.74,52.35 258.63,52.43 258.88,52.44C258.97,52.44 258.98,52.44 259.07,52.44C259.34,52.44 260.16,52.44 260.67,52.42C261.15,52.4 262.06,52.35 262.06,52.35C262.06,52.35 262.06,52.35 262.06,52.35C262.06,52.35 262.8,52.31 263.06,52.3C263.22,52.3 263.46,52.3 263.46,52.3C263.46,52.3 263.46,52.3 263.46,52.3C263.46,52.3 264.32,52.32 264.65,52.32C264.88,52.32 265.04,52.3 265.25,52.3C265.5,52.3 265.75,52.32 266.05,52.32C266.45,52.33 267.12,52.34 267.44,52.33C267.61,52.32 267.73,52.3 267.84,52.3C267.92,52.3 267.95,52.31 268.04,52.3C268.22,52.29 268.54,52.24 268.84,52.2C269.24,52.14 270.23,51.99 270.23,51.99C270.23,51.99 270.23,51.99 270.23,51.99C270.23,51.99 271.37,51.87 271.63,51.85C271.73,51.84 271.74,51.84 271.83,51.84C272.06,51.83 272.62,51.83 273.02,51.84C273.42,51.85 273.99,51.91 274.22,51.92C274.31,51.93 274.32,51.92 274.42,51.93C274.68,51.95 275.36,52.06 275.81,52.11C276.22,52.16 276.78,52.21 277.01,52.23C277.1,52.24 277.13,52.24 277.21,52.24C277.36,52.24 277.6,52.25 277.81,52.25C278.06,52.25 278.3,52.25 278.6,52.25Q279,52.25 280,52.25" style="vector-effect: none; fill: none; stroke: rgb(255, 26, 74); stroke-opacity: 1; stroke-width: 5px; opacity: 1;"/></g><g class="points"/><g class="text"/></g><g class="trace scatter tracea2f6ca" style="stroke-miterlimit: 2; opacity: 1;"><g class="fills"/><g class="errorbars"/><g class="lines"><path class="js-line" d="M0,53.1Q3.49,56.1 6.38,57.05C11.22,58.65 22.55,58.79 27.3,58.8C29.75,58.8 31.06,58.61 32.88,58.35C34.65,58.1 36.33,57.91 38.06,57.29C39.98,56.6 42.57,54.93 43.84,54.23C44.47,53.88 44.67,53.76 45.24,53.43C46.16,52.9 47.34,51.8 48.83,51.32C50.87,50.67 54.5,50.63 56.6,50.63C58.02,50.63 59.2,50.86 60.19,50.96C60.89,51.03 61.41,51.01 61.98,51.15C62.54,51.29 62.98,51.68 63.57,51.8C64.23,51.93 65.04,51.9 65.77,51.81C66.51,51.72 67.34,51.32 67.96,51.23C68.41,51.17 68.62,51.25 69.15,51.21C70.24,51.14 72.85,50.6 74.14,50.61C74.95,50.62 75.27,50.71 76.13,50.89C77.82,51.25 80.53,52.69 83.5,52.97C87.85,53.37 98.76,51.77 99.84,51.49C99.97,51.46 99.93,51.43 100.04,51.4C100.56,51.28 103.42,51.38 104.63,51.25C105.43,51.16 105.86,51.07 106.62,50.89C107.69,50.64 109.34,50.07 110.41,49.83C111.17,49.66 111.61,49.57 112.4,49.48C113.53,49.36 115.62,49.47 116.58,49.3C117.11,49.2 117.55,48.97 117.78,48.91C117.87,48.89 117.87,48.89 117.98,48.87C118.57,48.77 121.68,48.31 123.56,48.18C125.47,48.05 127.12,47.95 129.34,48.12C132.38,48.35 138.3,49.64 140.1,49.88C140.7,49.96 141.01,49.94 141.3,50C141.47,50.04 141.48,50.08 141.69,50.13C142.45,50.3 145.8,50.72 147.07,50.74C147.76,50.75 148.07,50.71 148.67,50.62C149.48,50.5 150.57,50.19 151.46,49.98C152.29,49.79 153.39,49.52 153.85,49.43C154.04,49.39 154.12,49.36 154.25,49.36C154.38,49.36 154.45,49.39 154.65,49.4C155.29,49.44 157.08,49.46 158.63,49.44C160.79,49.41 165.71,49.11 166.41,49.17C166.52,49.18 166.54,49.19 166.6,49.21C166.67,49.23 166.69,49.27 166.8,49.3C167.34,49.44 170.67,49.58 171.59,49.72C171.97,49.78 172,49.88 172.38,49.89C173.37,49.92 177.2,49.07 177.77,49.02C177.88,49.01 177.87,49.02 177.96,49.02C178.21,49.02 178.78,49.03 179.36,49.05C180.32,49.08 181.94,49.15 183.15,49.22C184.26,49.29 185.26,49.27 186.33,49.46C187.45,49.66 188.49,50.13 189.72,50.44C191.17,50.81 193.59,51.35 194.51,51.49C194.88,51.55 195.3,51.56 195.3,51.56C195.3,51.56 195.3,51.56 195.3,51.56C195.3,51.56 198.75,52.89 199.89,53.18C200.55,53.35 200.84,53.31 201.48,53.43C202.48,53.61 203.87,53.9 205.27,54.22C207.04,54.62 210.3,55.4 211.25,55.66C211.55,55.74 211.59,55.75 211.84,55.84C212.28,55.99 212.93,56.22 213.64,56.53C214.72,57 217.13,58.33 217.62,58.47C217.72,58.5 217.82,58.49 217.82,58.49C217.82,58.49 217.82,58.49 217.82,58.49C217.82,58.49 219.09,58.65 219.81,58.67C220.66,58.69 221.9,58.55 222.6,58.56C223.02,58.57 223.29,58.6 223.6,58.63C223.88,58.66 224.1,58.72 224.4,58.72C224.8,58.73 225.2,58.62 225.79,58.6C226.81,58.57 229.06,58.67 229.98,58.68C230.43,58.68 230.52,58.68 230.98,58.68C232.01,58.69 235.1,58.7 235.96,58.73C236.26,58.74 236.36,58.74 236.56,58.76C236.76,58.78 237.01,58.82 237.15,58.84C237.23,58.85 237.25,58.85 237.35,58.87C237.61,58.91 238.75,59.12 238.75,59.12C238.75,59.12 238.75,59.12 238.75,59.12C238.75,59.12 239.14,59.16 239.35,59.19C239.6,59.22 240.14,59.29 240.14,59.29C240.14,59.29 240.14,59.29 240.14,59.29C240.14,59.29 241.14,59.37 241.54,59.4C241.84,59.43 242.08,59.47 242.33,59.47C242.54,59.47 242.7,59.45 242.93,59.44C243.22,59.43 243.6,59.44 243.93,59.42C244.26,59.4 244.67,59.36 244.93,59.34C245.09,59.33 245.19,59.32 245.32,59.32C245.45,59.32 245.57,59.33 245.72,59.33C245.9,59.33 246.11,59.34 246.32,59.34C246.57,59.34 247.12,59.32 247.12,59.32C247.12,59.32 247.12,59.32 247.12,59.32C247.12,59.32 248.51,59.2 248.51,59.2C248.51,59.2 248.51,59.2 248.51,59.2C248.51,59.2 249.91,59.09 249.91,59.09C249.91,59.09 249.91,59.09 249.91,59.09C249.91,59.09 251.29,59.1 251.9,59.09C252.41,59.08 253.3,59.03 253.3,59.03C253.3,59.03 253.3,59.03 253.3,59.03C253.3,59.03 253.65,59.05 253.89,59.06C254.26,59.08 254.92,59.12 255.29,59.12C255.53,59.12 255.65,59.12 255.89,59.1C256.26,59.07 257.28,58.93 257.28,58.93C257.28,58.93 257.28,58.93 257.28,58.93C257.28,58.93 257.38,58.91 257.48,58.9C257.74,58.87 258.63,58.8 258.88,58.78C258.97,58.77 258.98,58.77 259.07,58.77C259.34,58.76 260.16,58.75 260.67,58.74C261.15,58.73 262.06,58.72 262.06,58.72C262.06,58.72 262.06,58.72 262.06,58.72C262.06,58.72 262.8,58.69 263.06,58.67C263.22,58.66 263.46,58.63 263.46,58.63C263.46,58.63 263.46,58.63 263.46,58.63C263.46,58.63 264.32,58.52 264.65,58.48C264.88,58.45 265.04,58.44 265.25,58.42C265.5,58.4 265.75,58.37 266.05,58.34C266.45,58.3 267.12,58.25 267.44,58.23C267.61,58.22 267.73,58.22 267.84,58.22C267.92,58.22 267.95,58.23 268.04,58.23C268.22,58.24 268.54,58.26 268.84,58.28C269.24,58.3 270.23,58.34 270.23,58.34C270.23,58.34 270.23,58.34 270.23,58.34C270.23,58.34 271.37,58.3 271.63,58.3C271.73,58.3 271.74,58.3 271.83,58.3C272.06,58.3 272.62,58.27 273.02,58.25C273.42,58.23 273.99,58.21 274.22,58.2C274.31,58.2 274.32,58.2 274.42,58.19C274.67,58.17 275.36,58.09 275.81,58.04C276.22,57.99 276.78,57.93 277.01,57.9C277.1,57.89 277.13,57.89 277.21,57.88C277.36,57.87 277.6,57.84 277.81,57.82C278.06,57.8 278.3,57.77 278.6,57.76Q279,57.74 280,57.73" style="vector-effect: none; fill: none; stroke: rgb(17, 17, 17); stroke-opacity: 1; stroke-width: 5px; opacity: 1;"/></g><g class="points"/><g class="text"/></g></g></g><g class="overplot"/><path class="xlines-above crisp" d="M0,0" style="fill: none;"/><path class="ylines-above crisp" d="M0,0" style="fill: none;"/><g class="overlines-above"/><g class="xaxislayer-above"/><g class="yaxislayer-above"/><g class="overaxes-above"/></g></g><g class="polarlayer"/><g class="smithlayer"/><g class="ternarylayer"/><g class="geolayer"/><g class="funnelarealayer"/><g class="pielayer"/><g class="iciclelayer"/><g class="treemaplayer"/><g class="sunburstlayer"/><g class="glimages"/><defs id="topdefs-5c219b"><g class="clips"/></defs><g class="layer-above"><g class="imagelayer"/><g class="shapelayer"/></g><g class="infolayer"><g class="g-gtitle"><text class="gtitle" x="15" y="25" text-anchor="start" dy="0em" style="font-family: Ubuntu, verdana, arial, sans-serif; font-size: 16px; fill: rgb(233, 84, 32); opacity: 1; font-weight: normal; white-space: pre;">Sněmovna volby 2025</text></g><g class="g-xtitle"/><g class="g-ytitle"/></g></svg>