<svg class="main-svg" xmlns="http://www.w3.org/2000/svg" xmlns:xlink="http://www.w3.org/1999/xlink" width="400" height="400" style="" viewBox="0 0 400 400"><rect x="0" y="0" width="400" height="400" style="fill: rgb(255, 255, 255); fill-opacity: 1;"/><defs id="defs-2d3c1b"><g class="clips"><clipPath id="clip2d3c1bxyplot" class="plotclip"><rect width="203" height="330"/></clipPath><clipPath class="axesclip" id="clip2d3c1bx"><rect x="50" y="0" width="203" height="400"/></clipPath><clipPath class="axesclip" id="clip2d3c1by"><rect x="0" y="20" width="400" height="330"/></clipPath><clipPath class="axesclip" id="clip2d3c1bxy"><rect x="50" y="20" width="203" height="330"/></clipPath></g><g class="gradients"/><g class="patterns"/></defs><g class="bglayer"/><g class="layer-below"><g class="imagelayer"/><g class="shapelayer"/></g><g class="cartesianlayer"><g class="subplot xy"><g class="layer-subplot"><g class="shapelayer"/><g class="imagelayer"/></g><g class="gridlayer"><g class="x"><path class="xgrid crisp" transform="translate(61.74,0)" d="M0,20v330" style="stroke: rgb(235, 240, 248); stroke-opacity: 1; stroke-width: 1px;"/><path class="xgrid crisp" transform="translate(112.72999999999999,0)" d="M0,20v330" style="stroke: rgb(235, 240, 248); stroke-opacity: 1; stroke-width: 1px;"/><path class="xgrid crisp" transform="translate(163.72,0)" d="M0,20v330" style="stroke: rgb(235, 240, 248); stroke-opacity: 1; stroke-width: 1px;"/><path class="xgrid crisp" transform="translate(214.86,0)" d="M0,20v330" style="stroke: rgb(235, 240, 248); stroke-opacity: 1; stroke-width: 1px;"/></g><g class="y"><path class="ygrid crisp" transform="translate(0,305.77)" d="M50,0h203" style="stroke: rgb(235, 240, 248); stroke-opacity: 1; stroke-width: 1px;"/><path class="ygrid crisp" transform="translate(0,261.53)" d="M50,0h203" style="stroke: rgb(235, 240, 248); stroke-opacity: 1; stroke-width: 1px;"/><path class="ygrid crisp" transform="translate(0,217.3)" d="M50,0h203" style="stroke: rgb(235, 240, 248); stroke-opacity: 1; stroke-width: 1px;"/><path class="ygrid crisp" transform="translate(0,173.07)" d="M50,0h203" style="stroke: rgb(235, 240, 248); stroke-opacity: 1; stroke-width: 1px;"/><path class="ygrid crisp" transform="translate(0,128.82999999999998)" d="M50,0h203" style="stroke: rgb(235, 240, 248); stroke-opacity: 1; stroke-width: 1px;"/><path class="ygrid crisp" transform="translate(0,84.6)" d="M50,0h203" style="stroke: rgb(235, 240, 248); stroke-opacity: 1; stroke-width: 1px;"/><path class="ygrid crisp" transform="translate(0,40.370000000000005)" d="M50,0h203" style="stroke: rgb(235, 240, 248); stroke-opacity: 1; stroke-width: 1px;"/></g></g><g class="zerolinelayer"><path class="yzl zl crisp" transform="translate(0,350)" d="M50,0h203" style="stroke: rgb(235, 240, 248); stroke-opacity: 1; stroke-width: 2px;"/></g><path class="xlines-below"/><path class="ylines-below"/><g class="overlines-below"/><g class="xaxislayer-below"/><g class="yaxislayer-below"/><g class="overaxes-below"/><g class="plot" transform="translate(50,20)" clip-path="url(#clip2d3c1bxyplot)"><g class="scatterlayer mlayer"><g class="trace scatter trace1fd9ee" style="stroke-miterlimit: 2; opacity: 1;"><g class="fills"><g><path class="js-fill" d="M0,43.39Q2.56,44.29 4.47,45.06C7.96,46.47 16.06,52.65 19.14,51.47C21.5,50.57 21.62,45.28 23.05,42.93C24.18,41.07 25.47,39.96 26.68,38.29C28.03,36.43 29.86,33.59 30.74,32.23C31.18,31.55 31.29,31.27 31.71,30.68C32.33,29.81 33.3,28.97 34.23,27.59C35.79,25.27 37.91,19.02 39.68,17.69C40.53,17.06 41.51,17.38 42.19,17.14C42.7,16.96 43.04,16.52 43.45,16.5C43.83,16.48 44.16,16.88 44.57,16.94C45.03,17.01 45.59,16.87 46.1,16.82C46.61,16.77 47.25,16.44 47.64,16.66C48.07,16.9 47.96,17.97 48.48,18.4C49.19,18.99 51.15,18.66 51.97,19.32C52.73,19.94 52.63,21.96 53.37,22.09C54.48,22.29 56.28,17.88 58.54,17.27C61.46,16.49 67.17,16.37 70,19.93C78.06,30.08 78.06,109.16 70,115.57C67.17,117.82 61.46,112.13 58.54,112.91C56.28,113.52 54.48,117.93 53.37,117.73C52.63,117.6 52.73,115.58 51.97,114.96C51.15,114.3 49.19,114.63 48.48,114.04C47.96,113.61 48.07,112.54 47.64,112.3C47.25,112.08 46.61,112.4 46.1,112.45C45.59,112.5 45.03,112.65 44.57,112.58C44.16,112.52 43.83,112.12 43.45,112.14C43.04,112.16 42.7,112.6 42.19,112.78C41.51,113.02 40.56,112.75 39.68,113.33C38.01,114.43 35.73,119 34.23,120.96C33.25,122.24 32.33,123.17 31.71,124.04C31.29,124.63 31.18,124.92 30.74,125.6C29.86,126.96 28.16,130.2 26.68,131.65C25.54,132.77 24.1,132.68 23.05,134.01C21.33,136.18 21.67,143.92 19.14,144.83C16.06,145.93 8.04,136.86 4.47,136.14Q2.63,135.77 0,136.76Z" style="fill: rgb(38, 16, 96); fill-opacity: 0.05; stroke-width: 0;"/></g></g><g class="errorbars"/><g class="lines"><path class="js-line" d="M0,43.39Q2.56,44.29 4.47,45.06C7.96,46.47 16.06,52.65 19.14,51.47C21.5,50.57 21.62,45.28 23.05,42.93C24.18,41.07 25.47,39.96 26.68,38.29C28.03,36.43 29.86,33.59 30.74,32.23C31.18,31.55 31.29,31.27 31.71,30.68C32.33,29.81 33.3,28.97 34.23,27.59C35.79,25.27 37.91,19.02 39.68,17.69C40.53,17.06 41.51,17.38 42.19,17.14C42.7,16.96 43.04,16.52 43.45,16.5C43.83,16.48 44.16,16.88 44.57,16.94C45.03,17.01 45.59,16.87 46.1,16.82C46.61,16.77 47.25,16.44 47.64,16.66C48.07,16.9 47.96,17.97 48.48,18.4C49.19,18.99 51.15,18.66 51.97,19.32C52.73,19.94 52.63,21.96 53.37,22.09C54.48,22.29 56.28,17.88 58.54,17.27C61.46,16.49 67.17,16.37 70,19.93C78.06,30.08 78.06,109.16 70,115.57C67.17,117.82 61.46,112.13 58.54,112.91C56.28,113.52 54.48,117.93 53.37,117.73C52.63,117.6 52.73,115.58 51.97,114.96C51.15,114.3 49.19,114.63 48.48,114.04C47.96,113.61 48.07,112.54 47.64,112.3C47.25,112.08 46.61,112.4 46.1,112.45C45.59,112.5 45.03,112.65 44.57,112.58C44.16,112.52 43.83,112.12 43.45,112.14C43.04,112.16 42.7,112.6 42.19,112.78C41.51,113.02 40.56,112.75 39.68,113.33C38.01,114.43 35.73,119 34.23,120.96C33.25,122.24 32.33,123.17 31.71,124.04C31.29,124.63 31.18,124.92 30.74,125.6C29.86,126.96 28.16,130.2 26.68,131.65C25.54,132.77 24.1,132.68 23.05,134.01C21.33,136.18 21.67,143.92 19.14,144.83C16.06,145.93 8.04,136.86 4.47,136.14Q2.63,135.77 0,136.76" style="vector-effect: non-scaling-stroke; fill: none; stroke: rgb(255, 255, 255); stroke-opacity: 0; stroke-width: 2px; opacity: 1;"/></g><g class="points"/><g class="text"/></g><g class="trace scatter trace5d142b" style="stroke-miterlimit: 2; opacity: 1;"><g class="fills"><g><path class="js-fill" d="M0,168.57Q2.78,162.78 4.47,157.56C8.31,145.72 15.31,108.66 19.14,98.16C20.6,94.16 21.4,91.07 23.05,90.21C24.11,89.66 25.66,89.77 26.68,90.79C29.42,93.54 29.12,115.91 30.74,117.05C31.05,117.27 31.41,116.66 31.71,116.86C32.82,117.61 32.97,125.49 34.23,129.85C35.57,134.51 37.81,141.69 39.68,143.92C40.51,144.9 41.53,145.54 42.19,145.44C42.72,145.36 43.03,144.45 43.45,144.02C43.82,143.64 44.19,142.94 44.57,142.98C45.08,143.04 45.54,145.21 46.1,145.28C46.58,145.34 47.23,144.4 47.64,143.92C48,143.51 48.03,142.74 48.48,142.62C49.2,142.43 51.15,144.89 51.97,144.49C53.13,143.93 52.61,136.67 53.37,136.62C54.48,136.55 56.64,153.01 58.54,152.93C61.84,152.79 67.86,102.25 70,102.49C72.73,102.8 73.12,163.78 70,186.74C67.77,203.13 61.93,227.84 58.54,228.08C56.69,228.21 54.48,216.23 53.37,216.32C52.63,216.38 52.95,221.48 51.97,221.91C51.16,222.27 49.2,219.85 48.48,220.04C48.03,220.16 48,220.93 47.64,221.34C47.23,221.82 46.58,222.76 46.1,222.7C45.54,222.63 45.08,220.46 44.57,220.4C44.19,220.36 43.82,221.06 43.45,221.44C43.03,221.87 42.72,222.79 42.19,222.87C41.53,222.97 40.53,222.3 39.68,221.35C37.9,219.36 35.58,213.46 34.23,209.55C32.99,205.95 32.73,199.49 31.71,198.83C31.4,198.63 31.06,199.24 30.74,199.02C29.24,198 29.18,179.77 26.68,177.33C25.66,176.33 24.15,176.27 23.05,176.74C21.54,177.38 20.57,179.41 19.14,182.42C15.2,190.71 8.35,222.95 4.47,232.71Q2.79,236.93 0,241.44Z" style="fill: rgb(0, 68, 148); fill-opacity: 0.05; stroke-width: 0;"/></g></g><g class="errorbars"/><g class="lines"><path class="js-line" d="M0,168.57Q2.78,162.78 4.47,157.56C8.31,145.72 15.31,108.66 19.14,98.16C20.6,94.16 21.4,91.07 23.05,90.21C24.11,89.66 25.66,89.77 26.68,90.79C29.42,93.54 29.12,115.91 30.74,117.05C31.05,117.27 31.41,116.66 31.71,116.86C32.82,117.61 32.97,125.49 34.23,129.85C35.57,134.51 37.81,141.69 39.68,143.92C40.51,144.9 41.53,145.54 42.19,145.44C42.72,145.36 43.03,144.45 43.45,144.02C43.82,143.64 44.19,142.94 44.57,142.98C45.08,143.04 45.54,145.21 46.1,145.28C46.58,145.34 47.23,144.4 47.64,143.92C48,143.51 48.03,142.74 48.48,142.62C49.2,142.43 51.15,144.89 51.97,144.49C53.13,143.93 52.61,136.67 53.37,136.62C54.48,136.55 56.64,153.01 58.54,152.93C61.84,152.79 67.86,102.25 70,102.49C72.73,102.8 73.12,163.78 70,186.74C67.77,203.13 61.93,227.84 58.54,228.08C56.69,228.21 54.48,216.23 53.37,216.32C52.63,216.38 52.95,221.48 51.97,221.91C51.16,222.27 49.2,219.85 48.48,220.04C48.03,220.16 48,220.93 47.64,221.34C47.23,221.82 46.58,222.76 46.1,222.7C45.54,222.63 45.08,220.46 44.57,220.4C44.19,220.36 43.82,221.06 43.45,221.44C43.03,221.87 42.72,222.79 42.19,222.87C41.53,222.97 40.53,222.3 39.68,221.35C37.9,219.36 35.58,213.46 34.23,209.55C32.99,205.95 32.73,199.49 31.71,198.83C31.4,198.63 31.06,199.24 30.74,199.02C29.24,198 29.18,179.77 26.68,177.33C25.66,176.33 24.15,176.27 23.05,176.74C21.54,177.38 20.57,179.41 19.14,182.42C15.2,190.71 8.35,222.95 4.47,232.71Q2.79,236.93 0,241.44" style="vector-effect: non-scaling-stroke; fill: none; stroke: rgb(255, 255, 255); stroke-opacity: 0; stroke-width: 2px; opacity: 1;"/></g><g class="points"/><g class="text"/></g><g class="trace scatter traceaa6154" style="stroke-miterlimit: 2; opacity: 1;"><g class="fills"><g><path class="js-fill" d="M0,219.17Q2.23,223.89 4.47,226.25C7.75,229.71 15.69,235.84 19.14,236.65C20.76,237.03 21.78,235.94 23.05,236.04C24.3,236.14 25.65,237.81 26.68,237.24C28.83,236.06 29.42,222.45 30.74,221.03C31.07,220.68 31.4,221.03 31.71,220.71C32.63,219.76 32.66,214.12 34.23,212.19C35.54,210.58 38.22,209.23 39.68,209.26C40.68,209.28 41.54,210.88 42.19,210.74C42.75,210.62 43.02,208.97 43.45,208.93C43.82,208.9 44.13,209.81 44.57,210.06C45.01,210.31 45.61,210.52 46.1,210.42C46.64,210.31 47.18,209.46 47.64,209.26C47.94,209.13 48.16,209.32 48.48,209.11C49.35,208.55 50.98,204.13 51.97,203.95C52.49,203.85 52.8,204.41 53.37,204.92C54.6,206.02 56.34,208.81 58.54,210.83C61.5,213.55 67.44,214.19 70,219.26C75.23,229.6 75.55,275.15 70,278.47C67.4,280.02 61.57,274.18 58.54,272.31C56.43,271.01 54.53,268.6 53.37,268.68C52.73,268.72 52.55,269.48 51.97,269.99C51.08,270.77 49.28,272.5 48.48,272.87C48.13,273.03 47.95,273.09 47.64,273.02C47.18,272.92 46.58,271.83 46.1,271.9C45.55,271.97 45.05,273.79 44.57,273.82C44.18,273.84 43.87,272.96 43.45,272.69C43.07,272.44 42.68,272.24 42.19,272.23C41.5,272.21 40.69,272.8 39.68,273.02C38.22,273.33 35.54,272.66 34.23,273.67C32.77,274.78 32.54,279.12 31.71,279.91C31.39,280.22 31.08,279.9 30.74,280.24C29.57,281.41 28.56,290.96 26.68,291.89C25.63,292.41 24.3,290.79 23.05,290.69C21.78,290.59 20.83,291.49 19.14,291.3C15.77,290.92 7.71,288.15 4.47,285.45Q2.11,283.49 0,278.38Z" style="fill: rgb(0, 0, 0); fill-opacity: 0.05; stroke-width: 0;"/></g></g><g class="errorbars"/><g class="lines"><path class="js-line" d="M0,219.17Q2.23,223.89 4.47,226.25C7.75,229.71 15.69,235.84 19.14,236.65C20.76,237.03 21.78,235.94 23.05,236.04C24.3,236.14 25.65,237.81 26.68,237.24C28.83,236.06 29.42,222.45 30.74,221.03C31.07,220.68 31.4,221.03 31.71,220.71C32.63,219.76 32.66,214.12 34.23,212.19C35.54,210.58 38.22,209.23 39.68,209.26C40.68,209.28 41.54,210.88 42.19,210.74C42.75,210.62 43.02,208.97 43.45,208.93C43.82,208.9 44.13,209.81 44.57,210.06C45.01,210.31 45.61,210.52 46.1,210.42C46.64,210.31 47.18,209.46 47.64,209.26C47.94,209.13 48.16,209.32 48.48,209.11C49.35,208.55 50.98,204.13 51.97,203.95C52.49,203.85 52.8,204.41 53.37,204.92C54.6,206.02 56.34,208.81 58.54,210.83C61.5,213.55 67.44,214.19 70,219.26C75.23,229.6 75.55,275.15 70,278.47C67.4,280.02 61.57,274.18 58.54,272.31C56.43,271.01 54.53,268.6 53.37,268.68C52.73,268.72 52.55,269.48 51.97,269.99C51.08,270.77 49.28,272.5 48.48,272.87C48.13,273.03 47.95,273.09 47.64,273.02C47.18,272.92 46.58,271.83 46.1,271.9C45.55,271.97 45.05,273.79 44.57,273.82C44.18,273.84 43.87,272.96 43.45,272.69C43.07,272.44 42.68,272.24 42.19,272.23C41.5,272.21 40.69,272.8 39.68,273.02C38.22,273.33 35.54,272.66 34.23,273.67C32.77,274.78 32.54,279.12 31.71,279.91C31.39,280.22 31.08,279.9 30.74,280.24C29.57,281.41 28.56,290.96 26.68,291.89C25.63,292.41 24.3,290.79 23.05,290.69C21.78,290.59 20.83,291.49 19.14,291.3C15.77,290.92 7.71,288.15 4.47,285.45Q2.11,283.49 0,278.38" style="vector-effect: non-scaling-stroke; fill: none; stroke: rgb(255, 255, 255); stroke-opacity: 0; stroke-width: 2px; opacity: 1;"/></g><g class="points"/><g class="text"/></g><g class="trace scatter trace659131" style="stroke-miterlimit: 2; opacity: 1;"><g class="fills"><g><path class="js-fill" d="M0,214.48Q2.74,215.12 4.47,214.37C8.22,212.74 15.88,199.17 19.14,199.37C20.95,199.48 21.77,204.49 23.05,204.5C24.28,204.51 25.44,201.44 26.68,199.83C28,198.11 29.79,194.67 30.74,194.48C31.13,194.4 31.38,195.15 31.71,195.04C32.49,194.79 32.92,190.89 34.23,189.42C35.56,187.93 38.17,186.47 39.68,186.21C40.64,186.04 41.55,186.92 42.19,186.68C42.76,186.47 43.04,185.14 43.45,185.13C43.83,185.12 44.17,186.42 44.57,186.42C45.04,186.42 45.61,184.66 46.1,184.7C46.64,184.74 47.22,186.36 47.64,187.07C47.98,187.63 48.03,188.07 48.48,188.62C49.2,189.49 51.07,190.71 51.97,191.46C52.54,191.94 52.72,192.57 53.37,192.64C54.52,192.77 56.86,189.28 58.54,189.94C62.6,191.52 67.83,209.35 70,221.83C72.87,238.33 73.51,280.2 70,281.03C67.69,281.58 62.36,260.39 58.54,258.25C56.82,257.28 54.51,259.04 53.37,258.68C52.7,258.46 52.59,257.79 51.97,257.5C51.11,257.1 49.19,257.44 48.48,256.93C47.98,256.57 48.06,255.66 47.64,255.39C47.25,255.14 46.61,255.4 46.1,255.29C45.58,255.18 45.01,255.04 44.57,254.74C44.12,254.43 43.83,253.43 43.45,253.44C43.04,253.45 42.76,254.79 42.19,255C41.55,255.24 40.64,254.35 39.68,254.52C38.17,254.78 35.61,256.5 34.23,257.74C33.11,258.74 32.41,260.93 31.71,261.07C31.35,261.14 31.16,260.48 30.74,260.51C29.84,260.57 27.92,262.36 26.68,263.59C25.34,264.91 24.38,268.07 23.05,268.26C21.85,268.43 20.86,265.41 19.14,265.4C15.82,265.38 8.09,274.64 4.47,275.85Q2.67,276.45 0,275.96Z" style="fill: rgb(234, 35, 41); fill-opacity: 0.05; stroke-width: 0;"/></g></g><g class="errorbars"/><g class="lines"><path class="js-line" d="M0,214.48Q2.74,215.12 4.47,214.37C8.22,212.74 15.88,199.17 19.14,199.37C20.95,199.48 21.77,204.49 23.05,204.5C24.28,204.51 25.44,201.44 26.68,199.83C28,198.11 29.79,194.67 30.74,194.48C31.13,194.4 31.38,195.15 31.71,195.04C32.49,194.79 32.92,190.89 34.23,189.42C35.56,187.93 38.17,186.47 39.68,186.21C40.64,186.04 41.55,186.92 42.19,186.68C42.76,186.47 43.04,185.14 43.45,185.13C43.83,185.12 44.17,186.42 44.57,186.42C45.04,186.42 45.61,184.66 46.1,184.7C46.64,184.74 47.22,186.36 47.64,187.07C47.98,187.63 48.03,188.07 48.48,188.62C49.2,189.49 51.07,190.71 51.97,191.46C52.54,191.94 52.72,192.57 53.37,192.64C54.52,192.77 56.86,189.28 58.54,189.94C62.6,191.52 67.83,209.35 70,221.83C72.87,238.33 73.51,280.2 70,281.03C67.69,281.58 62.36,260.39 58.54,258.25C56.82,257.28 54.51,259.04 53.37,258.68C52.7,258.46 52.59,257.79 51.97,257.5C51.11,257.1 49.19,257.44 48.48,256.93C47.98,256.57 48.06,255.66 47.64,255.39C47.25,255.14 46.61,255.4 46.1,255.29C45.58,255.18 45.01,255.04 44.57,254.74C44.12,254.43 43.83,253.43 43.45,253.44C43.04,253.45 42.76,254.79 42.19,255C41.55,255.24 40.64,254.35 39.68,254.52C38.17,254.78 35.61,256.5 34.23,257.74C33.11,258.74 32.41,260.93 31.71,261.07C31.35,261.14 31.16,260.48 30.74,260.51C29.84,260.57 27.92,262.36 26.68,263.59C25.34,264.91 24.38,268.07 23.05,268.26C21.85,268.43 20.86,265.41 19.14,265.4C15.82,265.38 8.09,274.64 4.47,275.85Q2.67,276.45 0,275.96" style="vector-effect: non-scaling-stroke; fill: none; stroke: rgb(255, 255, 255); stroke-opacity: 0; stroke-width: 2px; opacity: 1;"/></g><g class="points"/><g class="text"/></g><g class="trace scatter trace2b7bb4" style="stroke-miterlimit: 2; opacity: 1;"><g class="fills"><g><path class="js-fill" d="M0,231.37Q-0.12,198.82 4.47,196.8C7.76,195.35 16.02,203.58 19.14,207.14C21.28,209.58 21.78,212.14 23.05,214.61C24.29,217.02 25.57,218.87 26.68,221.76C28.23,225.78 29.85,233.48 30.74,236.73C31.17,238.3 31.31,238.79 31.71,240.21C32.35,242.45 32.83,246.38 34.23,248.84C35.55,251.17 38.11,253.56 39.68,254.72C40.6,255.4 41.55,255.37 42.19,255.93C42.77,256.44 43.08,257.9 43.45,257.85C43.9,257.79 43.97,254.83 44.57,254.51C44.98,254.3 45.6,255 46.1,254.94C46.63,254.88 47.23,254.44 47.64,254.08C48.01,253.75 48.02,253.19 48.48,252.9C49.2,252.44 51.07,252.2 51.97,252.24C52.55,252.27 52.77,252.68 53.37,252.64C54.56,252.56 56.58,251.62 58.54,250.42C61.73,248.46 67.49,239.68 70,240.85C74.8,243.1 75.4,287.24 70,295.5C67.42,299.45 61.61,299.18 58.54,300.51C56.48,301.4 54.56,302.67 53.37,302.74C52.76,302.78 52.53,302.54 51.97,302.33C51.06,301.99 49.21,300.53 48.48,300.72C48.03,300.84 48.01,301.57 47.64,301.9C47.23,302.26 46.58,302.36 46.1,302.76C45.54,303.22 45.06,304.09 44.57,304.61C44.18,305.03 43.81,305.71 43.45,305.67C43.01,305.62 42.77,304.26 42.19,303.75C41.55,303.19 40.65,303.09 39.68,302.54C38.19,301.69 35.55,300.57 34.23,298.94C32.87,297.27 32.44,293.83 31.71,292.58C31.36,291.99 31.11,292.03 30.74,291.39C29.74,289.67 28.2,283.71 26.68,280.97C25.56,278.95 24.28,277.75 23.05,276.1C21.77,274.39 21.11,272.61 19.14,270.9C15.97,268.16 7.71,261.28 4.47,262.84Q0.44,264.77 0,288.3Z" style="fill: rgb(93, 140, 0); fill-opacity: 0.05; stroke-width: 0;"/></g></g><g class="errorbars"/><g class="lines"><path class="js-line" d="M0,231.37Q-0.12,198.82 4.47,196.8C7.76,195.35 16.02,203.58 19.14,207.14C21.28,209.58 21.78,212.14 23.05,214.61C24.29,217.02 25.57,218.87 26.68,221.76C28.23,225.78 29.85,233.48 30.74,236.73C31.17,238.3 31.31,238.79 31.71,240.21C32.35,242.45 32.83,246.38 34.23,248.84C35.55,251.17 38.11,253.56 39.68,254.72C40.6,255.4 41.55,255.37 42.19,255.93C42.77,256.44 43.08,257.9 43.45,257.85C43.9,257.79 43.97,254.83 44.57,254.51C44.98,254.3 45.6,255 46.1,254.94C46.63,254.88 47.23,254.44 47.64,254.08C48.01,253.75 48.02,253.19 48.48,252.9C49.2,252.44 51.07,252.2 51.97,252.24C52.55,252.27 52.77,252.68 53.37,252.64C54.56,252.56 56.58,251.62 58.54,250.42C61.73,248.46 67.49,239.68 70,240.85C74.8,243.1 75.4,287.24 70,295.5C67.42,299.45 61.61,299.18 58.54,300.51C56.48,301.4 54.56,302.67 53.37,302.74C52.76,302.78 52.53,302.54 51.97,302.33C51.06,301.99 49.21,300.53 48.48,300.72C48.03,300.84 48.01,301.57 47.64,301.9C47.23,302.26 46.58,302.36 46.1,302.76C45.54,303.22 45.06,304.09 44.57,304.61C44.18,305.03 43.81,305.71 43.45,305.67C43.01,305.62 42.77,304.26 42.19,303.75C41.55,303.19 40.65,303.09 39.68,302.54C38.19,301.69 35.55,300.57 34.23,298.94C32.87,297.27 32.44,293.83 31.71,292.58C31.36,291.99 31.11,292.03 30.74,291.39C29.74,289.67 28.2,283.71 26.68,280.97C25.56,278.95 24.28,277.75 23.05,276.1C21.77,274.39 21.11,272.61 19.14,270.9C15.97,268.16 7.71,261.28 4.47,262.84Q0.44,264.77 0,288.3" style="vector-effect: non-scaling-stroke; fill: none; stroke: rgb(255, 255, 255); stroke-opacity: 0; stroke-width: 2px; opacity: 1;"/></g><g class="points"/><g class="text"/></g><g class="trace scatter trace0b27b9" style="stroke-miterlimit: 2; opacity: 1;"><g class="fills"><g><path class="js-fill" d="M0,240.5Q2.7,240.67 4.47,241.62C8.14,243.58 16.05,250.31 19.14,254.89C21.48,258.36 21.58,262.67 23.05,265.56C24.16,267.75 25.26,270.63 26.68,270.97C27.88,271.26 29.84,268.82 30.74,268.7C31.16,268.65 31.34,269.04 31.71,268.95C32.39,268.78 33.19,267.46 34.23,266.68C35.66,265.61 38.24,263.22 39.68,263.33C40.71,263.41 41.51,264.82 42.19,265.45C42.7,265.92 43.07,266.78 43.45,266.74C43.87,266.69 44.12,265.43 44.57,264.88C45.01,264.35 45.56,263.57 46.1,263.49C46.59,263.41 47.21,264.21 47.64,264.19C47.97,264.17 48.09,263.87 48.48,263.7C49.23,263.36 51.12,263.13 51.97,262.55C52.63,262.1 52.67,260.97 53.37,260.82C54.49,260.58 56.41,263.01 58.54,263.43C61.55,264.02 67.46,260.15 70,262.49C75.06,267.15 75.06,302.54 70,308.03C67.46,310.79 61.61,308.94 58.54,308.97C56.48,308.99 54.54,308.9 53.37,308.64C52.74,308.5 52.54,308.11 51.97,308.09C51.07,308.06 49.19,309.55 48.48,309.24C47.96,309.01 48.02,307.51 47.64,307.45C47.24,307.38 46.62,308.54 46.1,309.04C45.6,309.53 45.07,310.32 44.57,310.42C44.19,310.49 43.81,310.24 43.45,310.01C43.01,309.72 42.74,308.93 42.19,308.72C41.54,308.47 40.67,308.74 39.68,308.87C38.21,309.06 35.63,309.24 34.23,309.94C33.14,310.49 32.39,312.04 31.71,312.21C31.34,312.3 31.16,311.91 30.74,311.97C29.83,312.09 27.88,314.52 26.68,314.23C25.26,313.89 24.27,310.69 23.05,308.82C21.76,306.85 21.19,304.69 19.14,302.71C16,299.67 8.03,295.47 4.47,294Q2.62,293.24 0,292.87Z" style="fill: rgb(114, 55, 105); fill-opacity: 0.05; stroke-width: 0;"/></g></g><g class="errorbars"/><g class="lines"><path class="js-line" d="M0,240.5Q2.7,240.67 4.47,241.62C8.14,243.58 16.05,250.31 19.14,254.89C21.48,258.36 21.58,262.67 23.05,265.56C24.16,267.75 25.26,270.63 26.68,270.97C27.88,271.26 29.84,268.82 30.74,268.7C31.16,268.65 31.34,269.04 31.71,268.95C32.39,268.78 33.19,267.46 34.23,266.68C35.66,265.61 38.24,263.22 39.68,263.33C40.71,263.41 41.51,264.82 42.19,265.45C42.7,265.92 43.07,266.78 43.45,266.74C43.87,266.69 44.12,265.43 44.57,264.88C45.01,264.35 45.56,263.57 46.1,263.49C46.59,263.41 47.21,264.21 47.64,264.19C47.97,264.17 48.09,263.87 48.48,263.7C49.23,263.36 51.12,263.13 51.97,262.55C52.63,262.1 52.67,260.97 53.37,260.82C54.49,260.58 56.41,263.01 58.54,263.43C61.55,264.02 67.46,260.15 70,262.49C75.06,267.15 75.06,302.54 70,308.03C67.46,310.79 61.61,308.94 58.54,308.97C56.48,308.99 54.54,308.9 53.37,308.64C52.74,308.5 52.54,308.11 51.97,308.09C51.07,308.06 49.19,309.55 48.48,309.24C47.96,309.01 48.02,307.51 47.64,307.45C47.24,307.38 46.62,308.54 46.1,309.04C45.6,309.53 45.07,310.32 44.57,310.42C44.19,310.49 43.81,310.24 43.45,310.01C43.01,309.72 42.74,308.93 42.19,308.72C41.54,308.47 40.67,308.74 39.68,308.87C38.21,309.06 35.63,309.24 34.23,309.94C33.14,310.49 32.39,312.04 31.71,312.21C31.34,312.3 31.16,311.91 30.74,311.97C29.83,312.09 27.88,314.52 26.68,314.23C25.26,313.89 24.27,310.69 23.05,308.82C21.76,306.85 21.19,304.69 19.14,302.71C16,299.67 8.03,295.47 4.47,294Q2.62,293.24 0,292.87" style="vector-effect: non-scaling-stroke; fill: none; stroke: rgb(255, 255, 255); stroke-opacity: 0; stroke-width: 2px; opacity: 1;"/></g><g class="points"/><g class="text"/></g><g class="trace scatter traceb784fc" style="stroke-miterlimit: 2; opacity: 1;"><g class="fills"><g><path class="js-fill" d="M0,267.35Q2.58,269.34 4.47,270.96C7.98,273.95 15.61,282.77 19.14,284.19C20.71,284.82 21.9,284.89 23.05,284.31C24.51,283.58 25.59,281.36 26.68,279.13C28.29,275.83 29.53,266.47 30.74,265.92C31.07,265.77 31.34,266.43 31.71,266.35C32.4,266.2 33.12,263.79 34.23,263.55C35.62,263.25 38.29,264.9 39.68,265.92C40.79,266.74 41.48,268.08 42.19,268.83C42.67,269.34 43.09,269.51 43.45,270.06C43.93,270.81 43.99,272.8 44.57,273.07C44.98,273.26 45.63,272.41 46.1,272.54C46.67,272.7 47.19,274.31 47.64,274.35C47.95,274.38 48.09,273.93 48.48,273.67C49.23,273.17 51.09,271.69 51.97,271.78C52.57,271.84 52.69,272.75 53.37,272.97C54.5,273.34 56.5,272.99 58.54,272.62C61.64,272.06 67.5,267.33 70,269.2C74.76,272.75 74.88,307.06 70,312.46C67.48,315.25 61.61,313.35 58.54,313.61C56.48,313.78 54.5,314.32 53.37,313.95C52.7,313.73 52.57,312.83 51.97,312.77C51.09,312.68 49.23,314.16 48.48,314.66C48.09,314.92 47.95,315.36 47.64,315.33C47.18,315.29 46.67,313.68 46.1,313.53C45.63,313.4 45.03,314.12 44.57,314.06C44.15,314.01 43.82,313.63 43.45,313.33C43.03,312.99 42.73,312.4 42.19,312.1C41.53,311.73 40.66,311.8 39.68,311.46C38.19,310.95 35.72,309.24 34.23,309.09C33.25,308.99 32.3,309.18 31.71,309.62C31.18,310.02 31.2,310.68 30.74,311.47C29.87,312.97 28.14,316.22 26.68,317.84C25.54,319.11 24.37,320.3 23.05,320.74C21.84,321.15 20.81,321 19.14,320.63C15.76,319.87 7.86,316.27 4.47,314.22Q2.44,312.99 0,310.62Z" style="fill: rgb(240, 125, 0); fill-opacity: 0.05; stroke-width: 0;"/></g></g><g class="errorbars"/><g class="lines"><path class="js-line" d="M0,267.35Q2.58,269.34 4.47,270.96C7.98,273.95 15.61,282.77 19.14,284.19C20.71,284.82 21.9,284.89 23.05,284.31C24.51,283.58 25.59,281.36 26.68,279.13C28.29,275.83 29.53,266.47 30.74,265.92C31.07,265.77 31.34,266.43 31.71,266.35C32.4,266.2 33.12,263.79 34.23,263.55C35.62,263.25 38.29,264.9 39.68,265.92C40.79,266.74 41.48,268.08 42.19,268.83C42.67,269.34 43.09,269.51 43.45,270.06C43.93,270.81 43.99,272.8 44.57,273.07C44.98,273.26 45.63,272.41 46.1,272.54C46.67,272.7 47.19,274.31 47.64,274.35C47.95,274.38 48.09,273.93 48.48,273.67C49.23,273.17 51.09,271.69 51.97,271.78C52.57,271.84 52.69,272.75 53.37,272.97C54.5,273.34 56.5,272.99 58.54,272.62C61.64,272.06 67.5,267.33 70,269.2C74.76,272.75 74.88,307.06 70,312.46C67.48,315.25 61.61,313.35 58.54,313.61C56.48,313.78 54.5,314.32 53.37,313.95C52.7,313.73 52.57,312.83 51.97,312.77C51.09,312.68 49.23,314.16 48.48,314.66C48.09,314.92 47.95,315.36 47.64,315.33C47.18,315.29 46.67,313.68 46.1,313.53C45.63,313.4 45.03,314.12 44.57,314.06C44.15,314.01 43.82,313.63 43.45,313.33C43.03,312.99 42.73,312.4 42.19,312.1C41.53,311.73 40.66,311.8 39.68,311.46C38.19,310.95 35.72,309.24 34.23,309.09C33.25,308.99 32.3,309.18 31.71,309.62C31.18,310.02 31.2,310.68 30.74,311.47C29.87,312.97 28.14,316.22 26.68,317.84C25.54,319.11 24.37,320.3 23.05,320.74C21.84,321.15 20.81,321 19.14,320.63C15.76,319.87 7.86,316.27 4.47,314.22Q2.44,312.99 0,310.62" style="vector-effect: non-scaling-stroke; fill: none; stroke: rgb(255, 255, 255); stroke-opacity: 0; stroke-width: 2px; opacity: 1;"/></g><g class="points"/><g class="text"/></g><g class="trace scatter tracede1f62" style="stroke-miterlimit: 2; opacity: 1;"><g class="fills"><g><path class="js-fill" d="M0,251.14Q0.99,266.69 4.47,268.66C7.67,270.47 15.97,263.35 19.14,264.24C21.1,264.79 21.67,267.53 23.05,268.62C24.21,269.53 25.41,270.06 26.68,270.56C27.97,271.07 29.87,271.75 30.74,271.63C31.19,271.57 31.3,271.1 31.71,271.05C32.34,270.98 33.22,271.59 34.23,271.85C35.69,272.23 38.22,272.56 39.68,272.98C40.69,273.27 41.49,273.74 42.19,273.92C42.67,274.04 43.08,274.25 43.45,274.09C43.91,273.88 44.13,272.92 44.57,272.42C45.01,271.91 45.55,271.18 46.1,271.05C46.58,270.94 47.26,271.69 47.64,271.47C48.17,271.17 47.87,269.37 48.48,268.55C49.19,267.58 51.15,266.03 51.97,266.27C52.71,266.48 52.54,269.06 53.37,269.34C54.46,269.7 56.48,266.52 58.54,266.51C61.61,266.5 67.56,268.58 70,272.67C74.34,279.92 74.56,310.4 70,313.66C67.52,315.43 61.64,310.11 58.54,309.77C56.51,309.55 54.52,310.57 53.37,310.33C52.73,310.2 52.53,309.51 51.97,309.53C51.06,309.56 49.24,311.28 48.48,311.82C48.1,312.09 47.94,312.17 47.64,312.46C47.18,312.9 46.66,314.21 46.1,314.31C45.62,314.39 45,313.31 44.57,313.41C44.11,313.52 43.91,314.87 43.45,315.08C43.08,315.24 42.67,315.03 42.19,314.91C41.49,314.73 40.69,314.26 39.68,313.97C38.22,313.55 35.67,312.6 34.23,312.84C33.19,313.01 32.31,314.48 31.71,314.32C31.22,314.19 31.31,313.05 30.74,312.61C29.91,311.97 28,311.66 26.68,311.55C25.45,311.45 24.18,312.33 23.05,311.89C21.62,311.33 21.1,308.05 19.14,307.5C15.97,306.6 7.66,313.43 4.47,311.92Q1.7,310.61 0,301.24Z" style="fill: rgb(230, 172, 33); fill-opacity: 0.05; stroke-width: 0;"/></g></g><g class="errorbars"/><g class="lines"><path class="js-line" d="M0,251.14Q0.99,266.69 4.47,268.66C7.67,270.47 15.97,263.35 19.14,264.24C21.1,264.79 21.67,267.53 23.05,268.62C24.21,269.53 25.41,270.06 26.68,270.56C27.97,271.07 29.87,271.75 30.74,271.63C31.19,271.57 31.3,271.1 31.71,271.05C32.34,270.98 33.22,271.59 34.23,271.85C35.69,272.23 38.22,272.56 39.68,272.98C40.69,273.27 41.49,273.74 42.19,273.92C42.67,274.04 43.08,274.25 43.45,274.09C43.91,273.88 44.13,272.92 44.57,272.42C45.01,271.91 45.55,271.18 46.1,271.05C46.58,270.94 47.26,271.69 47.64,271.47C48.17,271.17 47.87,269.37 48.48,268.55C49.19,267.58 51.15,266.03 51.97,266.27C52.71,266.48 52.54,269.06 53.37,269.34C54.46,269.7 56.48,266.52 58.54,266.51C61.61,266.5 67.56,268.58 70,272.67C74.34,279.92 74.56,310.4 70,313.66C67.52,315.43 61.64,310.11 58.54,309.77C56.51,309.55 54.52,310.57 53.37,310.33C52.73,310.2 52.53,309.51 51.97,309.53C51.06,309.56 49.24,311.28 48.48,311.82C48.1,312.09 47.94,312.17 47.64,312.46C47.18,312.9 46.66,314.21 46.1,314.31C45.62,314.39 45,313.31 44.57,313.41C44.11,313.52 43.91,314.87 43.45,315.08C43.08,315.24 42.67,315.03 42.19,314.91C41.49,314.73 40.69,314.26 39.68,313.97C38.22,313.55 35.67,312.6 34.23,312.84C33.19,313.01 32.31,314.48 31.71,314.32C31.22,314.19 31.31,313.05 30.74,312.61C29.91,311.97 28,311.66 26.68,311.55C25.45,311.45 24.18,312.33 23.05,311.89C21.62,311.33 21.1,308.05 19.14,307.5C15.97,306.6 7.66,313.43 4.47,311.92Q1.7,310.61 0,301.24" style="vector-effect: non-scaling-stroke; fill: none; stroke: rgb(255, 255, 255); stroke-opacity: 0; stroke-width: 2px; opacity: 1;"/></g><g class="points"/><g class="text"/></g><g class="trace scatter tracec545bb" style="stroke-miterlimit: 2; opacity: 1;"><g class="fills"><g><path class="js-fill" d="M0,273.11Q1.59,282.28 4.47,284.24C7.66,286.41 15.85,284.98 19.14,284.33C20.91,283.98 21.81,282.55 23.05,282.69C24.32,282.83 25.42,284.44 26.68,285.26C27.98,286.11 29.9,286.89 30.74,287.71C31.26,288.22 31.21,288.94 31.71,289.23C32.3,289.57 33.31,289.68 34.23,289.33C35.82,288.72 38.13,285.08 39.68,284.01C40.61,283.37 41.48,282.94 42.19,282.85C42.67,282.79 43.04,283.07 43.45,283.09C43.83,283.11 44.17,282.98 44.57,282.97C45.04,282.96 45.59,283.1 46.1,283.05C46.62,283 47.2,282.76 47.64,282.69C47.96,282.64 48.17,282.44 48.48,282.6C49.4,283.09 50.94,288.08 51.97,289.31C52.47,289.91 52.88,289.69 53.37,290.39C54.9,292.59 55.88,306.63 58.54,307.09C61.33,307.57 67.85,291.01 70,291.72C72.77,292.64 73.64,317.46 70,323.6C67.67,327.53 61.49,330.3 58.54,329.86C56.32,329.52 54.58,325.61 53.37,324.54C52.78,324.02 52.5,324 51.97,323.47C51.02,322.53 49.33,319.38 48.48,319.03C48.15,318.89 47.96,319.07 47.64,319.13C47.2,319.21 46.62,319.45 46.1,319.49C45.59,319.53 45.04,319.39 44.57,319.4C44.17,319.41 43.83,319.54 43.45,319.52C43.04,319.5 42.67,319.22 42.19,319.28C41.48,319.37 40.67,319.95 39.68,320.45C38.2,321.21 35.74,323.13 34.23,323.49C33.27,323.72 32.3,323.73 31.71,323.39C31.21,323.1 31.29,322.19 30.74,321.87C29.91,321.39 27.94,322.12 26.68,321.69C25.36,321.24 24.32,319.26 23.05,319.12C21.81,318.98 20.91,320.42 19.14,320.77C15.85,321.42 7.71,322.4 4.47,320.67Q2.09,319.4 0,314.1Z" style="fill: rgb(0, 51, 255); fill-opacity: 0.05; stroke-width: 0;"/></g></g><g class="errorbars"/><g class="lines"><path class="js-line" d="M0,273.11Q1.59,282.28 4.47,284.24C7.66,286.41 15.85,284.98 19.14,284.33C20.91,283.98 21.81,282.55 23.05,282.69C24.32,282.83 25.42,284.44 26.68,285.26C27.98,286.11 29.9,286.89 30.74,287.71C31.26,288.22 31.21,288.94 31.71,289.23C32.3,289.57 33.31,289.68 34.23,289.33C35.82,288.72 38.13,285.08 39.68,284.01C40.61,283.37 41.48,282.94 42.19,282.85C42.67,282.79 43.04,283.07 43.45,283.09C43.83,283.11 44.17,282.98 44.57,282.97C45.04,282.96 45.59,283.1 46.1,283.05C46.62,283 47.2,282.76 47.64,282.69C47.96,282.64 48.17,282.44 48.48,282.6C49.4,283.09 50.94,288.08 51.97,289.31C52.47,289.91 52.88,289.69 53.37,290.39C54.9,292.59 55.88,306.63 58.54,307.09C61.33,307.57 67.85,291.01 70,291.72C72.77,292.64 73.64,317.46 70,323.6C67.67,327.53 61.49,330.3 58.54,329.86C56.32,329.52 54.58,325.61 53.37,324.54C52.78,324.02 52.5,324 51.97,323.47C51.02,322.53 49.33,319.38 48.48,319.03C48.15,318.89 47.96,319.07 47.64,319.13C47.2,319.21 46.62,319.45 46.1,319.49C45.59,319.53 45.04,319.39 44.57,319.4C44.17,319.41 43.83,319.54 43.45,319.52C43.04,319.5 42.67,319.22 42.19,319.28C41.48,319.37 40.67,319.95 39.68,320.45C38.2,321.21 35.74,323.13 34.23,323.49C33.27,323.72 32.3,323.73 31.71,323.39C31.21,323.1 31.29,322.19 30.74,321.87C29.91,321.39 27.94,322.12 26.68,321.69C25.36,321.24 24.32,319.26 23.05,319.12C21.81,318.98 20.91,320.42 19.14,320.77C15.85,321.42 7.71,322.4 4.47,320.67Q2.09,319.4 0,314.1" style="vector-effect: non-scaling-stroke; fill: none; stroke: rgb(255, 255, 255); stroke-opacity: 0; stroke-width: 2px; opacity: 1;"/></g><g class="points"/><g class="text"/></g><g class="trace scatter trace36f023" style="stroke-miterlimit: 2; opacity: 1;"><g class="fills"><g><path class="js-fill" d="M0,279.48Q2.75,278.16 4.47,278.77C8.25,280.1 15.72,294.7 19.14,294.97C20.78,295.1 21.68,292.29 23.05,291.81C24.21,291.41 25.47,292.14 26.68,291.85C28.04,291.52 29.83,289.95 30.74,289.7C31.16,289.59 31.34,289.79 31.71,289.66C32.38,289.42 33.16,288.13 34.23,287.79C35.64,287.34 38.22,287.73 39.68,287.91C40.68,288.04 41.5,288.55 42.19,288.49C42.69,288.45 43.06,287.89 43.45,287.96C43.86,288.03 44.24,288.45 44.57,289.02C45.25,290.18 45.41,295.03 46.1,295.17C46.54,295.26 47.14,293.36 47.64,293.08C47.92,292.92 48.11,292.98 48.48,293C49.25,293.04 51.11,293.93 51.97,293.68C52.6,293.5 52.84,293.1 53.37,292.38C54.7,290.58 56.15,281.96 58.54,281.61C61.4,281.2 67.79,288.55 70,294.28C73.01,302.1 73.46,324.37 70,326.16C67.7,327.35 61.48,317.65 58.54,318.04C56.31,318.33 54.58,322.98 53.37,324.26C52.78,324.88 52.6,325.38 51.97,325.56C51.11,325.81 49.25,324.92 48.48,324.88C48.11,324.86 47.96,324.96 47.64,324.96C47.2,324.96 46.57,325.02 46.1,324.78C45.53,324.5 45.05,323.65 44.57,323.18C44.17,322.78 43.86,322.2 43.45,322.12C43.06,322.05 42.69,322.6 42.19,322.64C41.5,322.7 40.68,322.19 39.68,322.07C38.22,321.89 35.7,322.08 34.23,321.95C33.23,321.86 32.35,321.58 31.71,321.54C31.31,321.52 31.16,321.47 30.74,321.58C29.83,321.83 28.04,323.4 26.68,323.73C25.47,324.02 24.27,323.56 23.05,323.69C21.76,323.83 20.82,324.76 19.14,324.57C15.76,324.18 8.01,318 4.47,317.48Q2.6,317.21 0,318.19Z" style="fill: rgb(140, 0, 0); fill-opacity: 0.05; stroke-width: 0;"/></g></g><g class="errorbars"/><g class="lines"><path class="js-line" d="M0,279.48Q2.75,278.16 4.47,278.77C8.25,280.1 15.72,294.7 19.14,294.97C20.78,295.1 21.68,292.29 23.05,291.81C24.21,291.41 25.47,292.14 26.68,291.85C28.04,291.52 29.83,289.95 30.74,289.7C31.16,289.59 31.34,289.79 31.71,289.66C32.38,289.42 33.16,288.13 34.23,287.79C35.64,287.34 38.22,287.73 39.68,287.91C40.68,288.04 41.5,288.55 42.19,288.49C42.69,288.45 43.06,287.89 43.45,287.96C43.86,288.03 44.24,288.45 44.57,289.02C45.25,290.18 45.41,295.03 46.1,295.17C46.54,295.26 47.14,293.36 47.64,293.08C47.92,292.92 48.11,292.98 48.48,293C49.25,293.04 51.11,293.93 51.97,293.68C52.6,293.5 52.84,293.1 53.37,292.38C54.7,290.58 56.15,281.96 58.54,281.61C61.4,281.2 67.79,288.55 70,294.28C73.01,302.1 73.46,324.37 70,326.16C67.7,327.35 61.48,317.65 58.54,318.04C56.31,318.33 54.58,322.98 53.37,324.26C52.78,324.88 52.6,325.38 51.97,325.56C51.11,325.81 49.25,324.92 48.48,324.88C48.11,324.86 47.96,324.96 47.64,324.96C47.2,324.96 46.57,325.02 46.1,324.78C45.53,324.5 45.05,323.65 44.57,323.18C44.17,322.78 43.86,322.2 43.45,322.12C43.06,322.05 42.69,322.6 42.19,322.64C41.5,322.7 40.68,322.19 39.68,322.07C38.22,321.89 35.7,322.08 34.23,321.95C33.23,321.86 32.35,321.58 31.71,321.54C31.31,321.52 31.16,321.47 30.74,321.58C29.83,321.83 28.04,323.4 26.68,323.73C25.47,324.02 24.27,323.56 23.05,323.69C21.76,323.83 20.82,324.76 19.14,324.57C15.76,324.18 8.01,318 4.47,317.48Q2.6,317.21 0,318.19" style="vector-effect: non-scaling-stroke; fill: none; stroke: rgb(255, 255, 255); stroke-opacity: 0; stroke-width: 2px; opacity: 1;"/></g><g class="points"/><g class="text"/></g><g class="trace scatter tracec6f88c" style="stroke-miterlimit: 2; opacity: 1;"><g class="fills"/><g class="errorbars"/><g class="lines"><path class="js-line" d="M0,90.59Q2.61,90.63 4.47,91.2C8.01,92.29 16.06,99.62 19.14,98.45C21.6,97.51 21.56,91.3 23.05,88.78C24.16,86.9 25.45,85.88 26.68,84.31C28.01,82.62 29.8,79.91 30.74,78.98C31.14,78.59 31.35,78.64 31.71,78.26C32.41,77.53 33.23,76.01 34.23,74.51C35.71,72.29 38.06,67.86 39.68,66.2C40.58,65.28 41.48,64.51 42.19,64.46C42.67,64.43 43.04,65.09 43.45,65.11C43.83,65.13 44.16,64.73 44.57,64.67C45.03,64.6 45.59,64.74 46.1,64.79C46.61,64.84 47.22,64.8 47.64,64.95C47.98,65.07 48.09,65.28 48.48,65.48C49.23,65.86 51.16,65.99 51.97,66.84C52.84,67.75 52.58,70.78 53.37,70.91C54.47,71.1 56.16,65.02 58.54,64.34Q61.41,63.52 70,68.51" style="vector-effect: non-scaling-stroke; fill: none; stroke: rgb(38, 16, 96); stroke-opacity: 1; stroke-width: 7px; opacity: 1;"/></g><g class="points"/><g class="text"/></g><g class="trace scatter trace64c523" style="stroke-miterlimit: 2; opacity: 1;"><g class="fills"/><g class="errorbars"/><g class="lines"/><g class="points"><path class="point" transform="translate(0,90.26)" d="M7.5,0A7.5,7.5 0 1,1 0,-7.5A7.5,7.5 0 0,1 7.5,0Z" style="opacity: 1; stroke-width: 0px; fill: rgb(38, 16, 96); fill-opacity: 0.25;"/><path class="point" transform="translate(4.47,91.14)" d="M7.5,0A7.5,7.5 0 1,1 0,-7.5A7.5,7.5 0 0,1 7.5,0Z" style="opacity: 1; stroke-width: 0px; fill: rgb(38, 16, 96); fill-opacity: 0.25;"/><path class="point" transform="translate(19.14,108.83)" d="M7.5,0A7.5,7.5 0 1,1 0,-7.5A7.5,7.5 0 0,1 7.5,0Z" style="opacity: 1; stroke-width: 0px; fill: rgb(38, 16, 96); fill-opacity: 0.25;"/><path class="point" transform="translate(23.05,86.72)" d="M7.5,0A7.5,7.5 0 1,1 0,-7.5A7.5,7.5 0 0,1 7.5,0Z" style="opacity: 1; stroke-width: 0px; fill: rgb(38, 16, 96); fill-opacity: 0.25;"/><path class="point" transform="translate(26.68,86.72)" d="M7.5,0A7.5,7.5 0 1,1 0,-7.5A7.5,7.5 0 0,1 7.5,0Z" style="opacity: 1; stroke-width: 0px; fill: rgb(38, 16, 96); fill-opacity: 0.25;"/><path class="point" transform="translate(30.74,77.87)" d="M7.5,0A7.5,7.5 0 1,1 0,-7.5A7.5,7.5 0 0,1 7.5,0Z" style="opacity: 1; stroke-width: 0px; fill: rgb(38, 16, 96); fill-opacity: 0.25;"/><path class="point" transform="translate(31.71,82.29)" d="M7.5,0A7.5,7.5 0 1,1 0,-7.5A7.5,7.5 0 0,1 7.5,0Z" style="opacity: 1; stroke-width: 0px; fill: rgb(38, 16, 96); fill-opacity: 0.25;"/><path class="point" transform="translate(34.23,73.45)" d="M7.5,0A7.5,7.5 0 1,1 0,-7.5A7.5,7.5 0 0,1 7.5,0Z" style="opacity: 1; stroke-width: 0px; fill: rgb(38, 16, 96); fill-opacity: 0.25;"/><path class="point" transform="translate(39.68,64.6)" d="M7.5,0A7.5,7.5 0 1,1 0,-7.5A7.5,7.5 0 0,1 7.5,0Z" style="opacity: 1; stroke-width: 0px; fill: rgb(38, 16, 96); fill-opacity: 0.25;"/><path class="point" transform="translate(42.19,54.87)" d="M7.5,0A7.5,7.5 0 1,1 0,-7.5A7.5,7.5 0 0,1 7.5,0Z" style="opacity: 1; stroke-width: 0px; fill: rgb(38, 16, 96); fill-opacity: 0.25;"/><path class="point" transform="translate(43.45,73.45)" d="M7.5,0A7.5,7.5 0 1,1 0,-7.5A7.5,7.5 0 0,1 7.5,0Z" style="opacity: 1; stroke-width: 0px; fill: rgb(38, 16, 96); fill-opacity: 0.25;"/><path class="point" transform="translate(44.57,60.18)" d="M7.5,0A7.5,7.5 0 1,1 0,-7.5A7.5,7.5 0 0,1 7.5,0Z" style="opacity: 1; stroke-width: 0px; fill: rgb(38, 16, 96); fill-opacity: 0.25;"/><path class="point" transform="translate(46.1,64.6)" d="M7.5,0A7.5,7.5 0 1,1 0,-7.5A7.5,7.5 0 0,1 7.5,0Z" style="opacity: 1; stroke-width: 0px; fill: rgb(38, 16, 96); fill-opacity: 0.25;"/><path class="point" transform="translate(47.64,60.18)" d="M7.5,0A7.5,7.5 0 1,1 0,-7.5A7.5,7.5 0 0,1 7.5,0Z" style="opacity: 1; stroke-width: 0px; fill: rgb(38, 16, 96); fill-opacity: 0.25;"/><path class="point" transform="translate(48.48,69.02)" d="M7.5,0A7.5,7.5 0 1,1 0,-7.5A7.5,7.5 0 0,1 7.5,0Z" style="opacity: 1; stroke-width: 0px; fill: rgb(38, 16, 96); fill-opacity: 0.25;"/><path class="point" transform="translate(51.97,51.33)" d="M7.5,0A7.5,7.5 0 1,1 0,-7.5A7.5,7.5 0 0,1 7.5,0Z" style="opacity: 1; stroke-width: 0px; fill: rgb(38, 16, 96); fill-opacity: 0.25;"/><path class="point" transform="translate(53.37,95.56)" d="M7.5,0A7.5,7.5 0 1,1 0,-7.5A7.5,7.5 0 0,1 7.5,0Z" style="opacity: 1; stroke-width: 0px; fill: rgb(38, 16, 96); fill-opacity: 0.25;"/><path class="point" transform="translate(58.54,57.52)" d="M7.5,0A7.5,7.5 0 1,1 0,-7.5A7.5,7.5 0 0,1 7.5,0Z" style="opacity: 1; stroke-width: 0px; fill: rgb(38, 16, 96); fill-opacity: 0.25;"/><path class="point" transform="translate(70,69.02)" d="M7.5,0A7.5,7.5 0 1,1 0,-7.5A7.5,7.5 0 0,1 7.5,0Z" style="opacity: 1; stroke-width: 0px; fill: rgb(38, 16, 96); fill-opacity: 0.25;"/></g><g class="text"/></g><g class="trace scatter traceb59a61" style="stroke-miterlimit: 2; opacity: 1;"><g class="fills"/><g class="errorbars"/><g class="lines"><path class="js-line" d="M0,204.51Q2.79,199.59 4.47,195.02C8.36,184.43 15.12,149.3 19.14,140.57C20.55,137.51 21.54,135.82 23.05,134.86C24.15,134.16 25.66,133.54 26.68,134.27C29.29,136.14 29.18,156.52 30.74,158.12C31.05,158.44 31.41,158.01 31.71,158.31C32.78,159.37 32.98,166.31 34.23,170.36C35.57,174.73 37.77,181.87 39.68,183.61C40.5,184.35 41.52,184.47 42.19,184.37C42.7,184.29 43.06,183.86 43.45,183.52C43.86,183.17 44.19,182.25 44.57,182.28C45.06,182.31 45.52,184.41 46.1,184.54C46.57,184.64 47.23,183.97 47.64,183.62C47.99,183.32 48.04,182.81 48.48,182.64C49.21,182.36 51.16,183.62 51.97,183.05C53.03,182.31 52.65,177.31 53.37,177.26C54.49,177.19 56.68,190.66 58.54,190.55Q61.91,190.34 70,145.35" style="vector-effect: non-scaling-stroke; fill: none; stroke: rgb(0, 68, 148); stroke-opacity: 1; stroke-width: 7px; opacity: 1;"/></g><g class="points"/><g class="text"/></g><g class="trace scatter traceba9b43" style="stroke-miterlimit: 2; opacity: 1;"><g class="fills"/><g class="errorbars"/><g class="lines"/><g class="points"><path class="point" transform="translate(0,209.69)" d="M7.5,0A7.5,7.5 0 1,1 0,-7.5A7.5,7.5 0 0,1 7.5,0Z" style="opacity: 1; stroke-width: 0px; fill: rgb(0, 68, 148); fill-opacity: 0.25;"/><path class="point" transform="translate(4.47,192.88)" d="M7.5,0A7.5,7.5 0 1,1 0,-7.5A7.5,7.5 0 0,1 7.5,0Z" style="opacity: 1; stroke-width: 0px; fill: rgb(0, 68, 148); fill-opacity: 0.25;"/><path class="point" transform="translate(19.14,144.22)" d="M7.5,0A7.5,7.5 0 1,1 0,-7.5A7.5,7.5 0 0,1 7.5,0Z" style="opacity: 1; stroke-width: 0px; fill: rgb(0, 68, 148); fill-opacity: 0.25;"/><path class="point" transform="translate(23.05,130.95)" d="M7.5,0A7.5,7.5 0 1,1 0,-7.5A7.5,7.5 0 0,1 7.5,0Z" style="opacity: 1; stroke-width: 0px; fill: rgb(0, 68, 148); fill-opacity: 0.25;"/><path class="point" transform="translate(26.68,99.99)" d="M7.5,0A7.5,7.5 0 1,1 0,-7.5A7.5,7.5 0 0,1 7.5,0Z" style="opacity: 1; stroke-width: 0px; fill: rgb(0, 68, 148); fill-opacity: 0.25;"/><path class="point" transform="translate(30.74,184.03)" d="M7.5,0A7.5,7.5 0 1,1 0,-7.5A7.5,7.5 0 0,1 7.5,0Z" style="opacity: 1; stroke-width: 0px; fill: rgb(0, 68, 148); fill-opacity: 0.25;"/><path class="point" transform="translate(31.71,130.95)" d="M7.5,0A7.5,7.5 0 1,1 0,-7.5A7.5,7.5 0 0,1 7.5,0Z" style="opacity: 1; stroke-width: 0px; fill: rgb(0, 68, 148); fill-opacity: 0.25;"/><path class="point" transform="translate(34.23,187.57)" d="M7.5,0A7.5,7.5 0 1,1 0,-7.5A7.5,7.5 0 0,1 7.5,0Z" style="opacity: 1; stroke-width: 0px; fill: rgb(0, 68, 148); fill-opacity: 0.25;"/><path class="point" transform="translate(39.68,192.88)" d="M7.5,0A7.5,7.5 0 1,1 0,-7.5A7.5,7.5 0 0,1 7.5,0Z" style="opacity: 1; stroke-width: 0px; fill: rgb(0, 68, 148); fill-opacity: 0.25;"/><path class="point" transform="translate(42.19,192.88)" d="M7.5,0A7.5,7.5 0 1,1 0,-7.5A7.5,7.5 0 0,1 7.5,0Z" style="opacity: 1; stroke-width: 0px; fill: rgb(0, 68, 148); fill-opacity: 0.25;"/><path class="point" transform="translate(43.45,188.45)" d="M7.5,0A7.5,7.5 0 1,1 0,-7.5A7.5,7.5 0 0,1 7.5,0Z" style="opacity: 1; stroke-width: 0px; fill: rgb(0, 68, 148); fill-opacity: 0.25;"/><path class="point" transform="translate(44.57,157.49)" d="M7.5,0A7.5,7.5 0 1,1 0,-7.5A7.5,7.5 0 0,1 7.5,0Z" style="opacity: 1; stroke-width: 0px; fill: rgb(0, 68, 148); fill-opacity: 0.25;"/><path class="point" transform="translate(46.1,204.38)" d="M7.5,0A7.5,7.5 0 1,1 0,-7.5A7.5,7.5 0 0,1 7.5,0Z" style="opacity: 1; stroke-width: 0px; fill: rgb(0, 68, 148); fill-opacity: 0.25;"/><path class="point" transform="translate(47.64,188.45)" d="M7.5,0A7.5,7.5 0 1,1 0,-7.5A7.5,7.5 0 0,1 7.5,0Z" style="opacity: 1; stroke-width: 0px; fill: rgb(0, 68, 148); fill-opacity: 0.25;"/><path class="point" transform="translate(48.48,170.76)" d="M7.5,0A7.5,7.5 0 1,1 0,-7.5A7.5,7.5 0 0,1 7.5,0Z" style="opacity: 1; stroke-width: 0px; fill: rgb(0, 68, 148); fill-opacity: 0.25;"/><path class="point" transform="translate(51.97,210.57)" d="M7.5,0A7.5,7.5 0 1,1 0,-7.5A7.5,7.5 0 0,1 7.5,0Z" style="opacity: 1; stroke-width: 0px; fill: rgb(0, 68, 148); fill-opacity: 0.25;"/><path class="point" transform="translate(53.37,139.8)" d="M7.5,0A7.5,7.5 0 1,1 0,-7.5A7.5,7.5 0 0,1 7.5,0Z" style="opacity: 1; stroke-width: 0px; fill: rgb(0, 68, 148); fill-opacity: 0.25;"/><path class="point" transform="translate(58.54,207.03)" d="M7.5,0A7.5,7.5 0 1,1 0,-7.5A7.5,7.5 0 0,1 7.5,0Z" style="opacity: 1; stroke-width: 0px; fill: rgb(0, 68, 148); fill-opacity: 0.25;"/><path class="point" transform="translate(70,139.8)" d="M7.5,0A7.5,7.5 0 1,1 0,-7.5A7.5,7.5 0 0,1 7.5,0Z" style="opacity: 1; stroke-width: 0px; fill: rgb(0, 68, 148); fill-opacity: 0.25;"/></g><g class="text"/></g><g class="trace scatter tracecaaa2d" style="stroke-miterlimit: 2; opacity: 1;"><g class="fills"/><g class="errorbars"/><g class="lines"><path class="js-line" d="M0,249.55Q2.2,254.1 4.47,256.14C7.74,259.08 15.74,262.82 19.14,263.95C20.8,264.5 21.78,264.27 23.05,264.56C24.29,264.84 25.64,266.2 26.68,265.64C28.67,264.57 29.77,254.69 30.74,252.24C31.12,251.28 31.35,251.17 31.71,250.29C32.4,248.63 32.69,244.35 34.23,242.87C35.54,241.61 38.21,241.23 39.68,241.24C40.68,241.25 41.5,242.06 42.19,242.04C42.68,242.03 43.07,241.48 43.45,241.57C43.87,241.66 44.13,242.59 44.57,242.72C45.01,242.85 45.61,242.58 46.1,242.36C46.64,242.11 47.18,241.36 47.64,241.25C47.95,241.18 48.15,241.51 48.48,241.39C49.31,241.1 51.02,238.28 51.97,237.44C52.51,236.96 52.79,236.41 53.37,236.47C54.59,236.6 56.34,240.11 58.54,241.95Q61.5,244.43 70,249.46" style="vector-effect: non-scaling-stroke; fill: none; stroke: rgb(0, 0, 0); stroke-opacity: 1; stroke-width: 7px; opacity: 1;"/></g><g class="points"/><g class="text"/></g><g class="trace scatter trace6df962" style="stroke-miterlimit: 2; opacity: 1;"><g class="fills"/><g class="errorbars"/><g class="lines"/><g class="points"><path class="point" transform="translate(0,245.96)" d="M7.5,0A7.5,7.5 0 1,1 0,-7.5A7.5,7.5 0 0,1 7.5,0Z" style="opacity: 1; stroke-width: 0px; fill: rgb(0, 0, 0); fill-opacity: 0.25;"/><path class="point" transform="translate(4.47,259.23)" d="M7.5,0A7.5,7.5 0 1,1 0,-7.5A7.5,7.5 0 0,1 7.5,0Z" style="opacity: 1; stroke-width: 0px; fill: rgb(0, 0, 0); fill-opacity: 0.25;"/><path class="point" transform="translate(19.14,263.65)" d="M7.5,0A7.5,7.5 0 1,1 0,-7.5A7.5,7.5 0 0,1 7.5,0Z" style="opacity: 1; stroke-width: 0px; fill: rgb(0, 0, 0); fill-opacity: 0.25;"/><path class="point" transform="translate(23.05,263.65)" d="M7.5,0A7.5,7.5 0 1,1 0,-7.5A7.5,7.5 0 0,1 7.5,0Z" style="opacity: 1; stroke-width: 0px; fill: rgb(0, 0, 0); fill-opacity: 0.25;"/><path class="point" transform="translate(26.68,285.77)" d="M7.5,0A7.5,7.5 0 1,1 0,-7.5A7.5,7.5 0 0,1 7.5,0Z" style="opacity: 1; stroke-width: 0px; fill: rgb(0, 0, 0); fill-opacity: 0.25;"/><path class="point" transform="translate(30.74,250.38)" d="M7.5,0A7.5,7.5 0 1,1 0,-7.5A7.5,7.5 0 0,1 7.5,0Z" style="opacity: 1; stroke-width: 0px; fill: rgb(0, 0, 0); fill-opacity: 0.25;"/><path class="point" transform="translate(31.71,254.8)" d="M7.5,0A7.5,7.5 0 1,1 0,-7.5A7.5,7.5 0 0,1 7.5,0Z" style="opacity: 1; stroke-width: 0px; fill: rgb(0, 0, 0); fill-opacity: 0.25;"/><path class="point" transform="translate(34.23,225.61)" d="M7.5,0A7.5,7.5 0 1,1 0,-7.5A7.5,7.5 0 0,1 7.5,0Z" style="opacity: 1; stroke-width: 0px; fill: rgb(0, 0, 0); fill-opacity: 0.25;"/><path class="point" transform="translate(39.68,237.11)" d="M7.5,0A7.5,7.5 0 1,1 0,-7.5A7.5,7.5 0 0,1 7.5,0Z" style="opacity: 1; stroke-width: 0px; fill: rgb(0, 0, 0); fill-opacity: 0.25;"/><path class="point" transform="translate(42.19,247.73)" d="M7.5,0A7.5,7.5 0 1,1 0,-7.5A7.5,7.5 0 0,1 7.5,0Z" style="opacity: 1; stroke-width: 0px; fill: rgb(0, 0, 0); fill-opacity: 0.25;"/><path class="point" transform="translate(43.45,228.26)" d="M7.5,0A7.5,7.5 0 1,1 0,-7.5A7.5,7.5 0 0,1 7.5,0Z" style="opacity: 1; stroke-width: 0px; fill: rgb(0, 0, 0); fill-opacity: 0.25;"/><path class="point" transform="translate(44.57,254.8)" d="M7.5,0A7.5,7.5 0 1,1 0,-7.5A7.5,7.5 0 0,1 7.5,0Z" style="opacity: 1; stroke-width: 0px; fill: rgb(0, 0, 0); fill-opacity: 0.25;"/><path class="point" transform="translate(46.1,246.84)" d="M7.5,0A7.5,7.5 0 1,1 0,-7.5A7.5,7.5 0 0,1 7.5,0Z" style="opacity: 1; stroke-width: 0px; fill: rgb(0, 0, 0); fill-opacity: 0.25;"/><path class="point" transform="translate(47.64,232.69)" d="M7.5,0A7.5,7.5 0 1,1 0,-7.5A7.5,7.5 0 0,1 7.5,0Z" style="opacity: 1; stroke-width: 0px; fill: rgb(0, 0, 0); fill-opacity: 0.25;"/><path class="point" transform="translate(48.48,250.38)" d="M7.5,0A7.5,7.5 0 1,1 0,-7.5A7.5,7.5 0 0,1 7.5,0Z" style="opacity: 1; stroke-width: 0px; fill: rgb(0, 0, 0); fill-opacity: 0.25;"/><path class="point" transform="translate(51.97,232.69)" d="M7.5,0A7.5,7.5 0 1,1 0,-7.5A7.5,7.5 0 0,1 7.5,0Z" style="opacity: 1; stroke-width: 0px; fill: rgb(0, 0, 0); fill-opacity: 0.25;"/><path class="point" transform="translate(53.37,228.26)" d="M7.5,0A7.5,7.5 0 1,1 0,-7.5A7.5,7.5 0 0,1 7.5,0Z" style="opacity: 1; stroke-width: 0px; fill: rgb(0, 0, 0); fill-opacity: 0.25;"/><path class="point" transform="translate(58.54,246.84)" d="M7.5,0A7.5,7.5 0 1,1 0,-7.5A7.5,7.5 0 0,1 7.5,0Z" style="opacity: 1; stroke-width: 0px; fill: rgb(0, 0, 0); fill-opacity: 0.25;"/><path class="point" transform="translate(70,250.38)" d="M7.5,0A7.5,7.5 0 1,1 0,-7.5A7.5,7.5 0 0,1 7.5,0Z" style="opacity: 1; stroke-width: 0px; fill: rgb(0, 0, 0); fill-opacity: 0.25;"/></g><g class="text"/></g><g class="trace scatter tracec7cd64" style="stroke-miterlimit: 2; opacity: 1;"><g class="fills"/><g class="errorbars"/><g class="lines"><path class="js-line" d="M0,245.13Q2.7,245.86 4.47,245.24C8.14,243.95 15.86,232.76 19.14,232.92C20.91,233 21.8,236.95 23.05,236.89C24.32,236.83 25.39,233.84 26.68,232.46C27.95,231.11 29.82,229.38 30.74,228.7C31.15,228.4 31.35,228.46 31.71,228.14C32.41,227.5 33.11,225.72 34.23,224.64C35.61,223.31 38.16,221.65 39.68,221.03C40.63,220.64 41.51,220.8 42.19,220.55C42.7,220.36 43.06,219.79 43.45,219.83C43.85,219.87 44.14,220.73 44.57,220.81C45.02,220.89 45.64,220.11 46.1,220.26C46.69,220.45 47.18,221.93 47.64,222.44C47.94,222.77 48.08,222.9 48.48,223.17C49.23,223.67 51.09,224.34 51.97,224.89C52.57,225.26 52.72,225.88 53.37,225.98C54.52,226.16 56.84,223.38 58.54,224.13Q62.49,225.87 70,251.45" style="vector-effect: non-scaling-stroke; fill: none; stroke: rgb(234, 35, 41); stroke-opacity: 1; stroke-width: 7px; opacity: 1;"/></g><g class="points"/><g class="text"/></g><g class="trace scatter trace8c5ee7" style="stroke-miterlimit: 2; opacity: 1;"><g class="fills"/><g class="errorbars"/><g class="lines"/><g class="points"><path class="point" transform="translate(0,245.07)" d="M7.5,0A7.5,7.5 0 1,1 0,-7.5A7.5,7.5 0 0,1 7.5,0Z" style="opacity: 1; stroke-width: 0px; fill: rgb(234, 35, 41); fill-opacity: 0.25;"/><path class="point" transform="translate(4.47,245.96)" d="M7.5,0A7.5,7.5 0 1,1 0,-7.5A7.5,7.5 0 0,1 7.5,0Z" style="opacity: 1; stroke-width: 0px; fill: rgb(234, 35, 41); fill-opacity: 0.25;"/><path class="point" transform="translate(19.14,228.26)" d="M7.5,0A7.5,7.5 0 1,1 0,-7.5A7.5,7.5 0 0,1 7.5,0Z" style="opacity: 1; stroke-width: 0px; fill: rgb(234, 35, 41); fill-opacity: 0.25;"/><path class="point" transform="translate(23.05,245.96)" d="M7.5,0A7.5,7.5 0 1,1 0,-7.5A7.5,7.5 0 0,1 7.5,0Z" style="opacity: 1; stroke-width: 0px; fill: rgb(234, 35, 41); fill-opacity: 0.25;"/><path class="point" transform="translate(26.68,232.69)" d="M7.5,0A7.5,7.5 0 1,1 0,-7.5A7.5,7.5 0 0,1 7.5,0Z" style="opacity: 1; stroke-width: 0px; fill: rgb(234, 35, 41); fill-opacity: 0.25;"/><path class="point" transform="translate(30.74,228.26)" d="M7.5,0A7.5,7.5 0 1,1 0,-7.5A7.5,7.5 0 0,1 7.5,0Z" style="opacity: 1; stroke-width: 0px; fill: rgb(234, 35, 41); fill-opacity: 0.25;"/><path class="point" transform="translate(31.71,232.69)" d="M7.5,0A7.5,7.5 0 1,1 0,-7.5A7.5,7.5 0 0,1 7.5,0Z" style="opacity: 1; stroke-width: 0px; fill: rgb(234, 35, 41); fill-opacity: 0.25;"/><path class="point" transform="translate(34.23,219.42)" d="M7.5,0A7.5,7.5 0 1,1 0,-7.5A7.5,7.5 0 0,1 7.5,0Z" style="opacity: 1; stroke-width: 0px; fill: rgb(234, 35, 41); fill-opacity: 0.25;"/><path class="point" transform="translate(39.68,219.42)" d="M7.5,0A7.5,7.5 0 1,1 0,-7.5A7.5,7.5 0 0,1 7.5,0Z" style="opacity: 1; stroke-width: 0px; fill: rgb(234, 35, 41); fill-opacity: 0.25;"/><path class="point" transform="translate(42.19,224.72)" d="M7.5,0A7.5,7.5 0 1,1 0,-7.5A7.5,7.5 0 0,1 7.5,0Z" style="opacity: 1; stroke-width: 0px; fill: rgb(234, 35, 41); fill-opacity: 0.25;"/><path class="point" transform="translate(43.45,206.15)" d="M7.5,0A7.5,7.5 0 1,1 0,-7.5A7.5,7.5 0 0,1 7.5,0Z" style="opacity: 1; stroke-width: 0px; fill: rgb(234, 35, 41); fill-opacity: 0.25;"/><path class="point" transform="translate(44.57,232.69)" d="M7.5,0A7.5,7.5 0 1,1 0,-7.5A7.5,7.5 0 0,1 7.5,0Z" style="opacity: 1; stroke-width: 0px; fill: rgb(234, 35, 41); fill-opacity: 0.25;"/><path class="point" transform="translate(46.1,203.49)" d="M7.5,0A7.5,7.5 0 1,1 0,-7.5A7.5,7.5 0 0,1 7.5,0Z" style="opacity: 1; stroke-width: 0px; fill: rgb(234, 35, 41); fill-opacity: 0.25;"/><path class="point" transform="translate(47.64,228.26)" d="M7.5,0A7.5,7.5 0 1,1 0,-7.5A7.5,7.5 0 0,1 7.5,0Z" style="opacity: 1; stroke-width: 0px; fill: rgb(234, 35, 41); fill-opacity: 0.25;"/><path class="point" transform="translate(48.48,228.26)" d="M7.5,0A7.5,7.5 0 1,1 0,-7.5A7.5,7.5 0 0,1 7.5,0Z" style="opacity: 1; stroke-width: 0px; fill: rgb(234, 35, 41); fill-opacity: 0.25;"/><path class="point" transform="translate(51.97,223.84)" d="M7.5,0A7.5,7.5 0 1,1 0,-7.5A7.5,7.5 0 0,1 7.5,0Z" style="opacity: 1; stroke-width: 0px; fill: rgb(234, 35, 41); fill-opacity: 0.25;"/><path class="point" transform="translate(53.37,232.69)" d="M7.5,0A7.5,7.5 0 1,1 0,-7.5A7.5,7.5 0 0,1 7.5,0Z" style="opacity: 1; stroke-width: 0px; fill: rgb(234, 35, 41); fill-opacity: 0.25;"/><path class="point" transform="translate(58.54,220.3)" d="M7.5,0A7.5,7.5 0 1,1 0,-7.5A7.5,7.5 0 0,1 7.5,0Z" style="opacity: 1; stroke-width: 0px; fill: rgb(234, 35, 41); fill-opacity: 0.25;"/><path class="point" transform="translate(70,254.8)" d="M7.5,0A7.5,7.5 0 1,1 0,-7.5A7.5,7.5 0 0,1 7.5,0Z" style="opacity: 1; stroke-width: 0px; fill: rgb(234, 35, 41); fill-opacity: 0.25;"/></g><g class="text"/></g><g class="trace scatter trace631a14" style="stroke-miterlimit: 2; opacity: 1;"><g class="fills"/><g class="errorbars"/><g class="lines"><path class="js-line" d="M0,260.13Q0.11,233.11 4.47,230.93C7.74,229.3 16.01,235.89 19.14,238.81C21.22,240.75 21.8,242.89 23.05,245C24.31,247.13 25.55,248.93 26.68,251.51C28.17,254.92 29.87,261.04 30.74,263.87C31.19,265.34 31.29,265.9 31.71,267.23C32.34,269.2 32.9,272.4 34.23,274.53C35.56,276.67 38.12,278.97 39.68,280.03C40.61,280.66 41.49,280.86 42.19,281.11C42.67,281.28 43.07,281.57 43.45,281.46C43.88,281.34 44.12,280.51 44.57,280.24C45.01,279.97 45.62,280.09 46.1,279.82C46.65,279.51 47.22,278.86 47.64,278.4C47.98,278.03 48.03,277.47 48.48,277.3C49.2,277.02 51.07,278.01 51.97,277.97C52.55,277.94 52.77,277.78 53.37,277.56C54.56,277.12 56.5,276.25 58.54,275.23Q61.64,273.68 70,268.86" style="vector-effect: non-scaling-stroke; fill: none; stroke: rgb(93, 140, 0); stroke-opacity: 1; stroke-width: 7px; opacity: 1;"/></g><g class="points"/><g class="text"/></g><g class="trace scatter trace561563" style="stroke-miterlimit: 2; opacity: 1;"><g class="fills"/><g class="errorbars"/><g class="lines"/><g class="points"><path class="point" transform="translate(0,276.04)" d="M7.5,0A7.5,7.5 0 1,1 0,-7.5A7.5,7.5 0 0,1 7.5,0Z" style="opacity: 1; stroke-width: 0px; fill: rgb(93, 140, 0); fill-opacity: 0.25;"/><path class="point" transform="translate(4.47,214.99)" d="M7.5,0A7.5,7.5 0 1,1 0,-7.5A7.5,7.5 0 0,1 7.5,0Z" style="opacity: 1; stroke-width: 0px; fill: rgb(93, 140, 0); fill-opacity: 0.25;"/><path class="point" transform="translate(19.14,232.69)" d="M7.5,0A7.5,7.5 0 1,1 0,-7.5A7.5,7.5 0 0,1 7.5,0Z" style="opacity: 1; stroke-width: 0px; fill: rgb(93, 140, 0); fill-opacity: 0.25;"/><path class="point" transform="translate(23.05,241.53)" d="M7.5,0A7.5,7.5 0 1,1 0,-7.5A7.5,7.5 0 0,1 7.5,0Z" style="opacity: 1; stroke-width: 0px; fill: rgb(93, 140, 0); fill-opacity: 0.25;"/><path class="point" transform="translate(26.68,241.53)" d="M7.5,0A7.5,7.5 0 1,1 0,-7.5A7.5,7.5 0 0,1 7.5,0Z" style="opacity: 1; stroke-width: 0px; fill: rgb(93, 140, 0); fill-opacity: 0.25;"/><path class="point" transform="translate(30.74,254.8)" d="M7.5,0A7.5,7.5 0 1,1 0,-7.5A7.5,7.5 0 0,1 7.5,0Z" style="opacity: 1; stroke-width: 0px; fill: rgb(93, 140, 0); fill-opacity: 0.25;"/><path class="point" transform="translate(31.71,272.5)" d="M7.5,0A7.5,7.5 0 1,1 0,-7.5A7.5,7.5 0 0,1 7.5,0Z" style="opacity: 1; stroke-width: 0px; fill: rgb(93, 140, 0); fill-opacity: 0.25;"/><path class="point" transform="translate(34.23,287.54)" d="M7.5,0A7.5,7.5 0 1,1 0,-7.5A7.5,7.5 0 0,1 7.5,0Z" style="opacity: 1; stroke-width: 0px; fill: rgb(93, 140, 0); fill-opacity: 0.25;"/><path class="point" transform="translate(39.68,281.34)" d="M7.5,0A7.5,7.5 0 1,1 0,-7.5A7.5,7.5 0 0,1 7.5,0Z" style="opacity: 1; stroke-width: 0px; fill: rgb(93, 140, 0); fill-opacity: 0.25;"/><path class="point" transform="translate(42.19,281.34)" d="M7.5,0A7.5,7.5 0 1,1 0,-7.5A7.5,7.5 0 0,1 7.5,0Z" style="opacity: 1; stroke-width: 0px; fill: rgb(93, 140, 0); fill-opacity: 0.25;"/><path class="point" transform="translate(43.45,294.61)" d="M7.5,0A7.5,7.5 0 1,1 0,-7.5A7.5,7.5 0 0,1 7.5,0Z" style="opacity: 1; stroke-width: 0px; fill: rgb(93, 140, 0); fill-opacity: 0.25;"/><path class="point" transform="translate(44.57,272.5)" d="M7.5,0A7.5,7.5 0 1,1 0,-7.5A7.5,7.5 0 0,1 7.5,0Z" style="opacity: 1; stroke-width: 0px; fill: rgb(93, 140, 0); fill-opacity: 0.25;"/><path class="point" transform="translate(46.1,285.77)" d="M7.5,0A7.5,7.5 0 1,1 0,-7.5A7.5,7.5 0 0,1 7.5,0Z" style="opacity: 1; stroke-width: 0px; fill: rgb(93, 140, 0); fill-opacity: 0.25;"/><path class="point" transform="translate(47.64,281.34)" d="M7.5,0A7.5,7.5 0 1,1 0,-7.5A7.5,7.5 0 0,1 7.5,0Z" style="opacity: 1; stroke-width: 0px; fill: rgb(93, 140, 0); fill-opacity: 0.25;"/><path class="point" transform="translate(48.48,263.65)" d="M7.5,0A7.5,7.5 0 1,1 0,-7.5A7.5,7.5 0 0,1 7.5,0Z" style="opacity: 1; stroke-width: 0px; fill: rgb(93, 140, 0); fill-opacity: 0.25;"/><path class="point" transform="translate(51.97,281.34)" d="M7.5,0A7.5,7.5 0 1,1 0,-7.5A7.5,7.5 0 0,1 7.5,0Z" style="opacity: 1; stroke-width: 0px; fill: rgb(93, 140, 0); fill-opacity: 0.25;"/><path class="point" transform="translate(53.37,276.92)" d="M7.5,0A7.5,7.5 0 1,1 0,-7.5A7.5,7.5 0 0,1 7.5,0Z" style="opacity: 1; stroke-width: 0px; fill: rgb(93, 140, 0); fill-opacity: 0.25;"/><path class="point" transform="translate(58.54,273.38)" d="M7.5,0A7.5,7.5 0 1,1 0,-7.5A7.5,7.5 0 0,1 7.5,0Z" style="opacity: 1; stroke-width: 0px; fill: rgb(93, 140, 0); fill-opacity: 0.25;"/><path class="point" transform="translate(70,268.07)" d="M7.5,0A7.5,7.5 0 1,1 0,-7.5A7.5,7.5 0 0,1 7.5,0Z" style="opacity: 1; stroke-width: 0px; fill: rgb(93, 140, 0); fill-opacity: 0.25;"/></g><g class="text"/></g><g class="trace scatter traceb92928" style="stroke-miterlimit: 2; opacity: 1;"><g class="fills"/><g class="errorbars"/><g class="lines"><path class="js-line" d="M0,266.93Q2.67,267.19 4.47,268.09C8.1,269.91 16.01,276.05 19.14,279.87C21.24,282.44 21.73,285.07 23.05,287.42C24.25,289.55 25.22,293.02 26.68,293.4C27.87,293.71 29.83,291.46 30.74,291.1C31.16,290.93 31.34,291.06 31.71,290.86C32.39,290.5 33.14,289.14 34.23,288.58C35.63,287.86 38.2,287.49 39.68,287.37C40.67,287.29 41.53,287.27 42.19,287.52C42.72,287.72 43.02,288.44 43.45,288.51C43.82,288.57 44.18,288.29 44.57,288.1C45.05,287.87 45.58,287.47 46.1,287.2C46.61,286.94 47.21,286.49 47.64,286.51C47.97,286.53 48.09,286.96 48.48,287C49.23,287.08 51.07,286.19 51.97,285.87C52.55,285.66 52.76,285.32 53.37,285.32C54.55,285.31 56.44,287.01 58.54,287.27Q61.57,287.64 70,285.93" style="vector-effect: non-scaling-stroke; fill: none; stroke: rgb(114, 55, 105); stroke-opacity: 1; stroke-width: 7px; opacity: 1;"/></g><g class="points"/><g class="text"/></g><g class="trace scatter traceacf621" style="stroke-miterlimit: 2; opacity: 1;"><g class="fills"/><g class="errorbars"/><g class="lines"/><g class="points"><path class="point" transform="translate(0,266.3)" d="M7.5,0A7.5,7.5 0 1,1 0,-7.5A7.5,7.5 0 0,1 7.5,0Z" style="opacity: 1; stroke-width: 0px; fill: rgb(114, 55, 105); fill-opacity: 0.25;"/><path class="point" transform="translate(4.47,268.07)" d="M7.5,0A7.5,7.5 0 1,1 0,-7.5A7.5,7.5 0 0,1 7.5,0Z" style="opacity: 1; stroke-width: 0px; fill: rgb(114, 55, 105); fill-opacity: 0.25;"/><path class="point" transform="translate(19.14,272.5)" d="M7.5,0A7.5,7.5 0 1,1 0,-7.5A7.5,7.5 0 0,1 7.5,0Z" style="opacity: 1; stroke-width: 0px; fill: rgb(114, 55, 105); fill-opacity: 0.25;"/><path class="point" transform="translate(23.05,285.77)" d="M7.5,0A7.5,7.5 0 1,1 0,-7.5A7.5,7.5 0 0,1 7.5,0Z" style="opacity: 1; stroke-width: 0px; fill: rgb(114, 55, 105); fill-opacity: 0.25;"/><path class="point" transform="translate(26.68,303.46)" d="M7.5,0A7.5,7.5 0 1,1 0,-7.5A7.5,7.5 0 0,1 7.5,0Z" style="opacity: 1; stroke-width: 0px; fill: rgb(114, 55, 105); fill-opacity: 0.25;"/><path class="point" transform="translate(30.74,290.19)" d="M7.5,0A7.5,7.5 0 1,1 0,-7.5A7.5,7.5 0 0,1 7.5,0Z" style="opacity: 1; stroke-width: 0px; fill: rgb(114, 55, 105); fill-opacity: 0.25;"/><path class="point" transform="translate(31.71,294.61)" d="M7.5,0A7.5,7.5 0 1,1 0,-7.5A7.5,7.5 0 0,1 7.5,0Z" style="opacity: 1; stroke-width: 0px; fill: rgb(114, 55, 105); fill-opacity: 0.25;"/><path class="point" transform="translate(34.23,284)" d="M7.5,0A7.5,7.5 0 1,1 0,-7.5A7.5,7.5 0 0,1 7.5,0Z" style="opacity: 1; stroke-width: 0px; fill: rgb(114, 55, 105); fill-opacity: 0.25;"/><path class="point" transform="translate(39.68,285.77)" d="M7.5,0A7.5,7.5 0 1,1 0,-7.5A7.5,7.5 0 0,1 7.5,0Z" style="opacity: 1; stroke-width: 0px; fill: rgb(114, 55, 105); fill-opacity: 0.25;"/><path class="point" transform="translate(42.19,280.46)" d="M7.5,0A7.5,7.5 0 1,1 0,-7.5A7.5,7.5 0 0,1 7.5,0Z" style="opacity: 1; stroke-width: 0px; fill: rgb(114, 55, 105); fill-opacity: 0.25;"/><path class="point" transform="translate(43.45,299.04)" d="M7.5,0A7.5,7.5 0 1,1 0,-7.5A7.5,7.5 0 0,1 7.5,0Z" style="opacity: 1; stroke-width: 0px; fill: rgb(114, 55, 105); fill-opacity: 0.25;"/><path class="point" transform="translate(44.57,290.19)" d="M7.5,0A7.5,7.5 0 1,1 0,-7.5A7.5,7.5 0 0,1 7.5,0Z" style="opacity: 1; stroke-width: 0px; fill: rgb(114, 55, 105); fill-opacity: 0.25;"/><path class="point" transform="translate(46.1,285.77)" d="M7.5,0A7.5,7.5 0 1,1 0,-7.5A7.5,7.5 0 0,1 7.5,0Z" style="opacity: 1; stroke-width: 0px; fill: rgb(114, 55, 105); fill-opacity: 0.25;"/><path class="point" transform="translate(47.64,276.92)" d="M7.5,0A7.5,7.5 0 1,1 0,-7.5A7.5,7.5 0 0,1 7.5,0Z" style="opacity: 1; stroke-width: 0px; fill: rgb(114, 55, 105); fill-opacity: 0.25;"/><path class="point" transform="translate(48.48,294.61)" d="M7.5,0A7.5,7.5 0 1,1 0,-7.5A7.5,7.5 0 0,1 7.5,0Z" style="opacity: 1; stroke-width: 0px; fill: rgb(114, 55, 105); fill-opacity: 0.25;"/><path class="point" transform="translate(51.97,285.77)" d="M7.5,0A7.5,7.5 0 1,1 0,-7.5A7.5,7.5 0 0,1 7.5,0Z" style="opacity: 1; stroke-width: 0px; fill: rgb(114, 55, 105); fill-opacity: 0.25;"/><path class="point" transform="translate(53.37,281.34)" d="M7.5,0A7.5,7.5 0 1,1 0,-7.5A7.5,7.5 0 0,1 7.5,0Z" style="opacity: 1; stroke-width: 0px; fill: rgb(114, 55, 105); fill-opacity: 0.25;"/><path class="point" transform="translate(58.54,289.31)" d="M7.5,0A7.5,7.5 0 1,1 0,-7.5A7.5,7.5 0 0,1 7.5,0Z" style="opacity: 1; stroke-width: 0px; fill: rgb(114, 55, 105); fill-opacity: 0.25;"/><path class="point" transform="translate(70,285.77)" d="M7.5,0A7.5,7.5 0 1,1 0,-7.5A7.5,7.5 0 0,1 7.5,0Z" style="opacity: 1; stroke-width: 0px; fill: rgb(114, 55, 105); fill-opacity: 0.25;"/></g><g class="text"/></g><g class="trace scatter trace886e19" style="stroke-miterlimit: 2; opacity: 1;"><g class="fills"/><g class="errorbars"/><g class="lines"><path class="js-line" d="M0,290.18Q2.53,292.08 4.47,293.41C7.93,295.78 15.7,301.98 19.14,302.94C20.77,303.4 21.87,303.36 23.05,302.82C24.43,302.19 25.57,300.61 26.68,298.89C28.23,296.5 29.65,290.44 30.74,289.33C31.09,288.97 31.32,289.12 31.71,288.9C32.37,288.53 33.19,287.27 34.23,287.15C35.67,286.99 38.24,288.58 39.68,289.33C40.71,289.87 41.51,290.47 42.19,290.97C42.69,291.34 43.07,291.61 43.45,292.02C43.86,292.46 44.1,293.22 44.57,293.57C45,293.89 45.59,293.93 46.1,294.1C46.61,294.27 47.22,294.35 47.64,294.57C47.98,294.75 48.1,295.24 48.48,295.25C49.24,295.26 51.07,292.58 51.97,292.58C52.54,292.58 52.7,293.42 53.37,293.67C54.51,294.1 56.5,294.25 58.54,294.02Q61.64,293.68 70,290.61" style="vector-effect: non-scaling-stroke; fill: none; stroke: rgb(240, 125, 0); stroke-opacity: 1; stroke-width: 7px; opacity: 1;"/></g><g class="points"/><g class="text"/></g><g class="trace scatter tracef2a7ed" style="stroke-miterlimit: 2; opacity: 1;"><g class="fills"/><g class="errorbars"/><g class="lines"/><g class="points"><path class="point" transform="translate(0,288.42)" d="M7.5,0A7.5,7.5 0 1,1 0,-7.5A7.5,7.5 0 0,1 7.5,0Z" style="opacity: 1; stroke-width: 0px; fill: rgb(240, 125, 0); fill-opacity: 0.25;"/><path class="point" transform="translate(4.47,294.61)" d="M7.5,0A7.5,7.5 0 1,1 0,-7.5A7.5,7.5 0 0,1 7.5,0Z" style="opacity: 1; stroke-width: 0px; fill: rgb(240, 125, 0); fill-opacity: 0.25;"/><path class="point" transform="translate(19.14,303.46)" d="M7.5,0A7.5,7.5 0 1,1 0,-7.5A7.5,7.5 0 0,1 7.5,0Z" style="opacity: 1; stroke-width: 0px; fill: rgb(240, 125, 0); fill-opacity: 0.25;"/><path class="point" transform="translate(23.05,307.88)" d="M7.5,0A7.5,7.5 0 1,1 0,-7.5A7.5,7.5 0 0,1 7.5,0Z" style="opacity: 1; stroke-width: 0px; fill: rgb(240, 125, 0); fill-opacity: 0.25;"/><path class="point" transform="translate(26.68,307.88)" d="M7.5,0A7.5,7.5 0 1,1 0,-7.5A7.5,7.5 0 0,1 7.5,0Z" style="opacity: 1; stroke-width: 0px; fill: rgb(240, 125, 0); fill-opacity: 0.25;"/><path class="point" transform="translate(30.74,281.34)" d="M7.5,0A7.5,7.5 0 1,1 0,-7.5A7.5,7.5 0 0,1 7.5,0Z" style="opacity: 1; stroke-width: 0px; fill: rgb(240, 125, 0); fill-opacity: 0.25;"/><path class="point" transform="translate(31.71,290.19)" d="M7.5,0A7.5,7.5 0 1,1 0,-7.5A7.5,7.5 0 0,1 7.5,0Z" style="opacity: 1; stroke-width: 0px; fill: rgb(240, 125, 0); fill-opacity: 0.25;"/><path class="point" transform="translate(34.23,280.46)" d="M7.5,0A7.5,7.5 0 1,1 0,-7.5A7.5,7.5 0 0,1 7.5,0Z" style="opacity: 1; stroke-width: 0px; fill: rgb(240, 125, 0); fill-opacity: 0.25;"/><path class="point" transform="translate(39.68,285.77)" d="M7.5,0A7.5,7.5 0 1,1 0,-7.5A7.5,7.5 0 0,1 7.5,0Z" style="opacity: 1; stroke-width: 0px; fill: rgb(240, 125, 0); fill-opacity: 0.25;"/><path class="point" transform="translate(42.19,287.54)" d="M7.5,0A7.5,7.5 0 1,1 0,-7.5A7.5,7.5 0 0,1 7.5,0Z" style="opacity: 1; stroke-width: 0px; fill: rgb(240, 125, 0); fill-opacity: 0.25;"/><path class="point" transform="translate(43.45,285.77)" d="M7.5,0A7.5,7.5 0 1,1 0,-7.5A7.5,7.5 0 0,1 7.5,0Z" style="opacity: 1; stroke-width: 0px; fill: rgb(240, 125, 0); fill-opacity: 0.25;"/><path class="point" transform="translate(44.57,303.46)" d="M7.5,0A7.5,7.5 0 1,1 0,-7.5A7.5,7.5 0 0,1 7.5,0Z" style="opacity: 1; stroke-width: 0px; fill: rgb(240, 125, 0); fill-opacity: 0.25;"/><path class="point" transform="translate(46.1,294.61)" d="M7.5,0A7.5,7.5 0 1,1 0,-7.5A7.5,7.5 0 0,1 7.5,0Z" style="opacity: 1; stroke-width: 0px; fill: rgb(240, 125, 0); fill-opacity: 0.25;"/><path class="point" transform="translate(47.64,290.19)" d="M7.5,0A7.5,7.5 0 1,1 0,-7.5A7.5,7.5 0 0,1 7.5,0Z" style="opacity: 1; stroke-width: 0px; fill: rgb(240, 125, 0); fill-opacity: 0.25;"/><path class="point" transform="translate(48.48,307.88)" d="M7.5,0A7.5,7.5 0 1,1 0,-7.5A7.5,7.5 0 0,1 7.5,0Z" style="opacity: 1; stroke-width: 0px; fill: rgb(240, 125, 0); fill-opacity: 0.25;"/><path class="point" transform="translate(51.97,281.34)" d="M7.5,0A7.5,7.5 0 1,1 0,-7.5A7.5,7.5 0 0,1 7.5,0Z" style="opacity: 1; stroke-width: 0px; fill: rgb(240, 125, 0); fill-opacity: 0.25;"/><path class="point" transform="translate(53.37,299.04)" d="M7.5,0A7.5,7.5 0 1,1 0,-7.5A7.5,7.5 0 0,1 7.5,0Z" style="opacity: 1; stroke-width: 0px; fill: rgb(240, 125, 0); fill-opacity: 0.25;"/><path class="point" transform="translate(58.54,294.61)" d="M7.5,0A7.5,7.5 0 1,1 0,-7.5A7.5,7.5 0 0,1 7.5,0Z" style="opacity: 1; stroke-width: 0px; fill: rgb(240, 125, 0); fill-opacity: 0.25;"/><path class="point" transform="translate(70,290.19)" d="M7.5,0A7.5,7.5 0 1,1 0,-7.5A7.5,7.5 0 0,1 7.5,0Z" style="opacity: 1; stroke-width: 0px; fill: rgb(240, 125, 0); fill-opacity: 0.25;"/></g><g class="text"/></g><g class="trace scatter trace693851" style="stroke-miterlimit: 2; opacity: 1;"><g class="fills"/><g class="errorbars"/><g class="lines"><path class="js-line" d="M0,276.79Q1.32,289.51 4.47,291.15C7.66,292.81 15.98,285.54 19.14,286.46C21.13,287.04 21.6,290.41 23.05,291.18C24.17,291.77 25.45,291.28 26.68,291.52C28.01,291.78 29.87,292.36 30.74,292.74C31.19,292.94 31.3,293.26 31.71,293.31C32.34,293.38 33.22,292.56 34.23,292.51C35.69,292.44 38.24,293.14 39.68,293.66C40.71,294.03 41.48,294.87 42.19,295C42.67,295.09 43.05,294.96 43.45,294.83C43.85,294.7 44.17,294.44 44.57,294.21C45.04,293.94 45.57,293.53 46.1,293.31C46.6,293.1 47.25,293.21 47.64,292.89C48.06,292.55 48,291.78 48.48,291.25C49.2,290.46 51.1,288.89 51.97,288.99C52.58,289.06 52.68,290.3 53.37,290.47C54.5,290.75 56.5,288.63 58.54,288.74Q61.64,288.9 70,293.97" style="vector-effect: non-scaling-stroke; fill: none; stroke: rgb(230, 172, 33); stroke-opacity: 1; stroke-width: 7px; opacity: 1;"/></g><g class="points"/><g class="text"/></g><g class="trace scatter trace349c1c" style="stroke-miterlimit: 2; opacity: 1;"><g class="fills"/><g class="errorbars"/><g class="lines"/><g class="points"><path class="point" transform="translate(0,268.96)" d="M7.5,0A7.5,7.5 0 1,1 0,-7.5A7.5,7.5 0 0,1 7.5,0Z" style="opacity: 1; stroke-width: 0px; fill: rgb(230, 172, 33); fill-opacity: 0.25;"/><path class="point" transform="translate(4.47,299.04)" d="M7.5,0A7.5,7.5 0 1,1 0,-7.5A7.5,7.5 0 0,1 7.5,0Z" style="opacity: 1; stroke-width: 0px; fill: rgb(230, 172, 33); fill-opacity: 0.25;"/><path class="point" transform="translate(19.14,281.34)" d="M7.5,0A7.5,7.5 0 1,1 0,-7.5A7.5,7.5 0 0,1 7.5,0Z" style="opacity: 1; stroke-width: 0px; fill: rgb(230, 172, 33); fill-opacity: 0.25;"/><path class="point" transform="translate(23.05,294.61)" d="M7.5,0A7.5,7.5 0 1,1 0,-7.5A7.5,7.5 0 0,1 7.5,0Z" style="opacity: 1; stroke-width: 0px; fill: rgb(230, 172, 33); fill-opacity: 0.25;"/><path class="point" transform="translate(26.68,290.19)" d="M7.5,0A7.5,7.5 0 1,1 0,-7.5A7.5,7.5 0 0,1 7.5,0Z" style="opacity: 1; stroke-width: 0px; fill: rgb(230, 172, 33); fill-opacity: 0.25;"/><path class="point" transform="translate(30.74,290.19)" d="M7.5,0A7.5,7.5 0 1,1 0,-7.5A7.5,7.5 0 0,1 7.5,0Z" style="opacity: 1; stroke-width: 0px; fill: rgb(230, 172, 33); fill-opacity: 0.25;"/><path class="point" transform="translate(31.71,299.04)" d="M7.5,0A7.5,7.5 0 1,1 0,-7.5A7.5,7.5 0 0,1 7.5,0Z" style="opacity: 1; stroke-width: 0px; fill: rgb(230, 172, 33); fill-opacity: 0.25;"/><path class="point" transform="translate(34.23,289.31)" d="M7.5,0A7.5,7.5 0 1,1 0,-7.5A7.5,7.5 0 0,1 7.5,0Z" style="opacity: 1; stroke-width: 0px; fill: rgb(230, 172, 33); fill-opacity: 0.25;"/><path class="point" transform="translate(39.68,290.19)" d="M7.5,0A7.5,7.5 0 1,1 0,-7.5A7.5,7.5 0 0,1 7.5,0Z" style="opacity: 1; stroke-width: 0px; fill: rgb(230, 172, 33); fill-opacity: 0.25;"/><path class="point" transform="translate(42.19,299.92)" d="M7.5,0A7.5,7.5 0 1,1 0,-7.5A7.5,7.5 0 0,1 7.5,0Z" style="opacity: 1; stroke-width: 0px; fill: rgb(230, 172, 33); fill-opacity: 0.25;"/><path class="point" transform="translate(43.45,299.04)" d="M7.5,0A7.5,7.5 0 1,1 0,-7.5A7.5,7.5 0 0,1 7.5,0Z" style="opacity: 1; stroke-width: 0px; fill: rgb(230, 172, 33); fill-opacity: 0.25;"/><path class="point" transform="translate(44.57,294.61)" d="M7.5,0A7.5,7.5 0 1,1 0,-7.5A7.5,7.5 0 0,1 7.5,0Z" style="opacity: 1; stroke-width: 0px; fill: rgb(230, 172, 33); fill-opacity: 0.25;"/><path class="point" transform="translate(46.1,290.19)" d="M7.5,0A7.5,7.5 0 1,1 0,-7.5A7.5,7.5 0 0,1 7.5,0Z" style="opacity: 1; stroke-width: 0px; fill: rgb(230, 172, 33); fill-opacity: 0.25;"/><path class="point" transform="translate(47.64,307.88)" d="M7.5,0A7.5,7.5 0 1,1 0,-7.5A7.5,7.5 0 0,1 7.5,0Z" style="opacity: 1; stroke-width: 0px; fill: rgb(230, 172, 33); fill-opacity: 0.25;"/><path class="point" transform="translate(48.48,276.92)" d="M7.5,0A7.5,7.5 0 1,1 0,-7.5A7.5,7.5 0 0,1 7.5,0Z" style="opacity: 1; stroke-width: 0px; fill: rgb(230, 172, 33); fill-opacity: 0.25;"/><path class="point" transform="translate(51.97,276.92)" d="M7.5,0A7.5,7.5 0 1,1 0,-7.5A7.5,7.5 0 0,1 7.5,0Z" style="opacity: 1; stroke-width: 0px; fill: rgb(230, 172, 33); fill-opacity: 0.25;"/><path class="point" transform="translate(53.37,299.04)" d="M7.5,0A7.5,7.5 0 1,1 0,-7.5A7.5,7.5 0 0,1 7.5,0Z" style="opacity: 1; stroke-width: 0px; fill: rgb(230, 172, 33); fill-opacity: 0.25;"/><path class="point" transform="translate(58.54,286.65)" d="M7.5,0A7.5,7.5 0 1,1 0,-7.5A7.5,7.5 0 0,1 7.5,0Z" style="opacity: 1; stroke-width: 0px; fill: rgb(230, 172, 33); fill-opacity: 0.25;"/><path class="point" transform="translate(70,294.61)" d="M7.5,0A7.5,7.5 0 1,1 0,-7.5A7.5,7.5 0 0,1 7.5,0Z" style="opacity: 1; stroke-width: 0px; fill: rgb(230, 172, 33); fill-opacity: 0.25;"/></g><g class="text"/></g><g class="trace scatter tracef435eb" style="stroke-miterlimit: 2; opacity: 1;"><g class="fills"/><g class="errorbars"/><g class="lines"><path class="js-line" d="M0,293.53Q1.78,301.22 4.47,302.9C7.67,304.9 15.82,303.08 19.14,302.8C20.87,302.65 21.81,301.95 23.05,302.16C24.32,302.38 25.43,303.49 26.68,304.15C27.99,304.85 29.87,305.69 30.74,306.25C31.19,306.54 31.28,306.87 31.71,307.01C32.33,307.21 33.28,307.23 34.23,306.91C35.77,306.39 38.18,303.96 39.68,303.12C40.65,302.58 41.49,302.23 42.19,302.01C42.67,301.86 43.04,301.79 43.45,301.77C43.83,301.75 44.17,301.88 44.57,301.89C45.04,301.9 45.59,301.76 46.1,301.8C46.62,301.84 47.2,302.09 47.64,302.16C47.96,302.21 48.16,302.06 48.48,302.25C49.33,302.74 51.02,305.91 51.97,306.93C52.5,307.5 52.84,307.45 53.37,308.13C54.7,309.86 56.03,318.22 58.54,318.75Q61.37,319.35 70,309.07" style="vector-effect: non-scaling-stroke; fill: none; stroke: rgb(0, 51, 255); stroke-opacity: 1; stroke-width: 7px; opacity: 1;"/></g><g class="points"/><g class="text"/></g><g class="trace scatter trace3f35d0" style="stroke-miterlimit: 2; opacity: 1;"><g class="fills"/><g class="errorbars"/><g class="lines"/><g class="points"><path class="point" transform="translate(0,288.42)" d="M7.5,0A7.5,7.5 0 1,1 0,-7.5A7.5,7.5 0 0,1 7.5,0Z" style="opacity: 1; stroke-width: 0px; fill: rgb(0, 51, 255); fill-opacity: 0.25;"/><path class="point" transform="translate(4.47,307.88)" d="M7.5,0A7.5,7.5 0 1,1 0,-7.5A7.5,7.5 0 0,1 7.5,0Z" style="opacity: 1; stroke-width: 0px; fill: rgb(0, 51, 255); fill-opacity: 0.25;"/><path class="point" transform="translate(19.14,303.46)" d="M7.5,0A7.5,7.5 0 1,1 0,-7.5A7.5,7.5 0 0,1 7.5,0Z" style="opacity: 1; stroke-width: 0px; fill: rgb(0, 51, 255); fill-opacity: 0.25;"/><path class="point" transform="translate(23.05,299.04)" d="M7.5,0A7.5,7.5 0 1,1 0,-7.5A7.5,7.5 0 0,1 7.5,0Z" style="opacity: 1; stroke-width: 0px; fill: rgb(0, 51, 255); fill-opacity: 0.25;"/><path class="point" transform="translate(26.68,303.46)" d="M7.5,0A7.5,7.5 0 1,1 0,-7.5A7.5,7.5 0 0,1 7.5,0Z" style="opacity: 1; stroke-width: 0px; fill: rgb(0, 51, 255); fill-opacity: 0.25;"/><path class="point" transform="translate(30.74,303.46)" d="M7.5,0A7.5,7.5 0 1,1 0,-7.5A7.5,7.5 0 0,1 7.5,0Z" style="opacity: 1; stroke-width: 0px; fill: rgb(0, 51, 255); fill-opacity: 0.25;"/><path class="point" transform="translate(31.71,312.31)" d="M7.5,0A7.5,7.5 0 1,1 0,-7.5A7.5,7.5 0 0,1 7.5,0Z" style="opacity: 1; stroke-width: 0px; fill: rgb(0, 51, 255); fill-opacity: 0.25;"/><path class="point" transform="translate(34.23,310.54)" d="M7.5,0A7.5,7.5 0 1,1 0,-7.5A7.5,7.5 0 0,1 7.5,0Z" style="opacity: 1; stroke-width: 0px; fill: rgb(0, 51, 255); fill-opacity: 0.25;"/><path class="point" transform="translate(39.68,303.46)" d="M7.5,0A7.5,7.5 0 1,1 0,-7.5A7.5,7.5 0 0,1 7.5,0Z" style="opacity: 1; stroke-width: 0px; fill: rgb(0, 51, 255); fill-opacity: 0.25;"/><path class="point" transform="translate(42.19,300.81)" d="M7.5,0A7.5,7.5 0 1,1 0,-7.5A7.5,7.5 0 0,1 7.5,0Z" style="opacity: 1; stroke-width: 0px; fill: rgb(0, 51, 255); fill-opacity: 0.25;"/><path class="point" transform="translate(43.45,299.04)" d="M7.5,0A7.5,7.5 0 1,1 0,-7.5A7.5,7.5 0 0,1 7.5,0Z" style="opacity: 1; stroke-width: 0px; fill: rgb(0, 51, 255); fill-opacity: 0.25;"/><path class="point" transform="translate(44.57,303.46)" d="M7.5,0A7.5,7.5 0 1,1 0,-7.5A7.5,7.5 0 0,1 7.5,0Z" style="opacity: 1; stroke-width: 0px; fill: rgb(0, 51, 255); fill-opacity: 0.25;"/><path class="point" transform="translate(46.1,299.04)" d="M7.5,0A7.5,7.5 0 1,1 0,-7.5A7.5,7.5 0 0,1 7.5,0Z" style="opacity: 1; stroke-width: 0px; fill: rgb(0, 51, 255); fill-opacity: 0.25;"/><path class="point" transform="translate(47.64,303.46)" d="M7.5,0A7.5,7.5 0 1,1 0,-7.5A7.5,7.5 0 0,1 7.5,0Z" style="opacity: 1; stroke-width: 0px; fill: rgb(0, 51, 255); fill-opacity: 0.25;"/><path class="point" transform="translate(48.48,294.61)" d="M7.5,0A7.5,7.5 0 1,1 0,-7.5A7.5,7.5 0 0,1 7.5,0Z" style="opacity: 1; stroke-width: 0px; fill: rgb(0, 51, 255); fill-opacity: 0.25;"/><path class="point" transform="translate(51.97,312.31)" d="M7.5,0A7.5,7.5 0 1,1 0,-7.5A7.5,7.5 0 0,1 7.5,0Z" style="opacity: 1; stroke-width: 0px; fill: rgb(0, 51, 255); fill-opacity: 0.25;"/><path class="point" transform="translate(53.37,307.88)" d="M7.5,0A7.5,7.5 0 1,1 0,-7.5A7.5,7.5 0 0,1 7.5,0Z" style="opacity: 1; stroke-width: 0px; fill: rgb(0, 51, 255); fill-opacity: 0.25;"/><path class="point" transform="translate(70,307.88)" d="M7.5,0A7.5,7.5 0 1,1 0,-7.5A7.5,7.5 0 0,1 7.5,0Z" style="opacity: 1; stroke-width: 0px; fill: rgb(0, 51, 255); fill-opacity: 0.25;"/></g><g class="text"/></g><g class="trace scatter tracee47757" style="stroke-miterlimit: 2; opacity: 1;"><g class="fills"/><g class="errorbars"/><g class="lines"><path class="js-line" d="M0,298.54Q2.67,298.48 4.47,299.25C8.1,300.8 15.7,309.85 19.14,310.38C20.77,310.63 21.75,309.21 23.05,308.98C24.26,308.76 25.48,309.28 26.68,308.95C28.05,308.57 29.83,306.77 30.74,306.54C31.15,306.44 31.31,306.6 31.71,306.58C32.35,306.54 33.23,306.26 34.23,306.17C35.7,306.04 38.22,306.23 39.68,306.05C40.68,305.93 41.5,305.42 42.19,305.48C42.69,305.52 43.07,305.73 43.45,306C43.87,306.29 44.2,306.69 44.57,307.22C45.09,307.97 45.45,309.83 46.1,310.18C46.55,310.42 47.2,310 47.64,309.99C47.96,309.99 48.11,310.09 48.48,310.07C49.25,310.03 51.1,309.76 51.97,309.39C52.58,309.13 52.82,308.96 53.37,308.41C54.64,307.13 56.29,301.24 58.54,300.97Q61.47,300.62 70,311.07" style="vector-effect: non-scaling-stroke; fill: none; stroke: rgb(140, 0, 0); stroke-opacity: 1; stroke-width: 7px; opacity: 1;"/></g><g class="points"/><g class="text"/></g><g class="trace scatter trace58055c" style="stroke-miterlimit: 2; opacity: 1;"><g class="fills"/><g class="errorbars"/><g class="lines"/><g class="points"><path class="point" transform="translate(0,298.15)" d="M7.5,0A7.5,7.5 0 1,1 0,-7.5A7.5,7.5 0 0,1 7.5,0Z" style="opacity: 1; stroke-width: 0px; fill: rgb(140, 0, 0); fill-opacity: 0.25;"/><path class="point" transform="translate(4.47,299.04)" d="M7.5,0A7.5,7.5 0 1,1 0,-7.5A7.5,7.5 0 0,1 7.5,0Z" style="opacity: 1; stroke-width: 0px; fill: rgb(140, 0, 0); fill-opacity: 0.25;"/><path class="point" transform="translate(19.14,312.31)" d="M7.5,0A7.5,7.5 0 1,1 0,-7.5A7.5,7.5 0 0,1 7.5,0Z" style="opacity: 1; stroke-width: 0px; fill: rgb(140, 0, 0); fill-opacity: 0.25;"/><path class="point" transform="translate(23.05,307.88)" d="M7.5,0A7.5,7.5 0 1,1 0,-7.5A7.5,7.5 0 0,1 7.5,0Z" style="opacity: 1; stroke-width: 0px; fill: rgb(140, 0, 0); fill-opacity: 0.25;"/><path class="point" transform="translate(26.68,312.31)" d="M7.5,0A7.5,7.5 0 1,1 0,-7.5A7.5,7.5 0 0,1 7.5,0Z" style="opacity: 1; stroke-width: 0px; fill: rgb(140, 0, 0); fill-opacity: 0.25;"/><path class="point" transform="translate(30.74,303.46)" d="M7.5,0A7.5,7.5 0 1,1 0,-7.5A7.5,7.5 0 0,1 7.5,0Z" style="opacity: 1; stroke-width: 0px; fill: rgb(140, 0, 0); fill-opacity: 0.25;"/><path class="point" transform="translate(31.71,307.88)" d="M7.5,0A7.5,7.5 0 1,1 0,-7.5A7.5,7.5 0 0,1 7.5,0Z" style="opacity: 1; stroke-width: 0px; fill: rgb(140, 0, 0); fill-opacity: 0.25;"/><path class="point" transform="translate(34.23,305.23)" d="M7.5,0A7.5,7.5 0 1,1 0,-7.5A7.5,7.5 0 0,1 7.5,0Z" style="opacity: 1; stroke-width: 0px; fill: rgb(140, 0, 0); fill-opacity: 0.25;"/><path class="point" transform="translate(39.68,307.88)" d="M7.5,0A7.5,7.5 0 1,1 0,-7.5A7.5,7.5 0 0,1 7.5,0Z" style="opacity: 1; stroke-width: 0px; fill: rgb(140, 0, 0); fill-opacity: 0.25;"/><path class="point" transform="translate(42.19,299.92)" d="M7.5,0A7.5,7.5 0 1,1 0,-7.5A7.5,7.5 0 0,1 7.5,0Z" style="opacity: 1; stroke-width: 0px; fill: rgb(140, 0, 0); fill-opacity: 0.25;"/><path class="point" transform="translate(43.45,299.04)" d="M7.5,0A7.5,7.5 0 1,1 0,-7.5A7.5,7.5 0 0,1 7.5,0Z" style="opacity: 1; stroke-width: 0px; fill: rgb(140, 0, 0); fill-opacity: 0.25;"/><path class="point" transform="translate(44.57,299.04)" d="M7.5,0A7.5,7.5 0 1,1 0,-7.5A7.5,7.5 0 0,1 7.5,0Z" style="opacity: 1; stroke-width: 0px; fill: rgb(140, 0, 0); fill-opacity: 0.25;"/><path class="point" transform="translate(47.64,307.88)" d="M7.5,0A7.5,7.5 0 1,1 0,-7.5A7.5,7.5 0 0,1 7.5,0Z" style="opacity: 1; stroke-width: 0px; fill: rgb(140, 0, 0); fill-opacity: 0.25;"/><path class="point" transform="translate(48.48,312.31)" d="M7.5,0A7.5,7.5 0 1,1 0,-7.5A7.5,7.5 0 0,1 7.5,0Z" style="opacity: 1; stroke-width: 0px; fill: rgb(140, 0, 0); fill-opacity: 0.25;"/><path class="point" transform="translate(51.97,312.31)" d="M7.5,0A7.5,7.5 0 1,1 0,-7.5A7.5,7.5 0 0,1 7.5,0Z" style="opacity: 1; stroke-width: 0px; fill: rgb(140, 0, 0); fill-opacity: 0.25;"/><path class="point" transform="translate(53.37,307.88)" d="M7.5,0A7.5,7.5 0 1,1 0,-7.5A7.5,7.5 0 0,1 7.5,0Z" style="opacity: 1; stroke-width: 0px; fill: rgb(140, 0, 0); fill-opacity: 0.25;"/><path class="point" transform="translate(58.54,292.84)" d="M7.5,0A7.5,7.5 0 1,1 0,-7.5A7.5,7.5 0 0,1 7.5,0Z" style="opacity: 1; stroke-width: 0px; fill: rgb(140, 0, 0); fill-opacity: 0.25;"/><path class="point" transform="translate(70,312.31)" d="M7.5,0A7.5,7.5 0 1,1 0,-7.5A7.5,7.5 0 0,1 7.5,0Z" style="opacity: 1; stroke-width: 0px; fill: rgb(140, 0, 0); fill-opacity: 0.25;"/></g><g class="text"/></g></g></g><g class="overplot"/><path class="xlines-above crisp" d="M0,0" style="fill: none;"/><path class="ylines-above crisp" d="M0,0" style="fill: none;"/><g class="overlines-above"/><g class="xaxislayer-above"><g class="xtick"><text text-anchor="middle" x="0" y="363" transform="translate(61.74,0)" style="font-family: 'Open Sans', verdana, arial, sans-serif; font-size: 12px; fill: rgb(42, 63, 95); fill-opacity: 1; white-space: pre; opacity: 1;">1.1.22</text></g><g class="xtick"><text text-anchor="middle" x="0" y="363" style="font-family: 'Open Sans', verdana, arial, sans-serif; font-size: 12px; fill: rgb(42, 63, 95); fill-opacity: 1; white-space: pre; opacity: 1;" transform="translate(112.72999999999999,0)">1.1.23</text></g><g class="xtick"><text text-anchor="middle" x="0" y="363" style="font-family: 'Open Sans', verdana, arial, sans-serif; font-size: 12px; fill: rgb(42, 63, 95); fill-opacity: 1; white-space: pre; opacity: 1;" transform="translate(163.72,0)">1.1.24</text></g><g class="xtick"><text text-anchor="middle" x="0" y="363" style="font-family: 'Open Sans', verdana, arial, sans-serif; font-size: 12px; fill: rgb(42, 63, 95); fill-opacity: 1; white-space: pre; opacity: 1;" transform="translate(214.86,0)">1.1.25</text></g></g><g class="yaxislayer-above"><g class="ytick"><text text-anchor="end" x="49" y="4.199999999999999" transform="translate(0,350)" style="font-family: 'Open Sans', verdana, arial, sans-serif; font-size: 12px; fill: rgb(42, 63, 95); fill-opacity: 1; white-space: pre; opacity: 1;">0%</text></g><g class="ytick"><text text-anchor="end" x="49" y="4.199999999999999" style="font-family: 'Open Sans', verdana, arial, sans-serif; font-size: 12px; fill: rgb(42, 63, 95); fill-opacity: 1; white-space: pre; opacity: 1;" transform="translate(0,305.77)">5%</text></g><g class="ytick"><text text-anchor="end" x="49" y="4.199999999999999" style="font-family: 'Open Sans', verdana, arial, sans-serif; font-size: 12px; fill: rgb(42, 63, 95); fill-opacity: 1; white-space: pre; opacity: 1;" transform="translate(0,261.53)">10%</text></g><g class="ytick"><text text-anchor="end" x="49" y="4.199999999999999" style="font-family: 'Open Sans', verdana, arial, sans-serif; font-size: 12px; fill: rgb(42, 63, 95); fill-opacity: 1; white-space: pre; opacity: 1;" transform="translate(0,217.3)">15%</text></g><g class="ytick"><text text-anchor="end" x="49" y="4.199999999999999" style="font-family: 'Open Sans', verdana, arial, sans-serif; font-size: 12px; fill: rgb(42, 63, 95); fill-opacity: 1; white-space: pre; opacity: 1;" transform="translate(0,173.07)">20%</text></g><g class="ytick"><text text-anchor="end" x="49" y="4.199999999999999" style="font-family: 'Open Sans', verdana, arial, sans-serif; font-size: 12px; fill: rgb(42, 63, 95); fill-opacity: 1; white-space: pre; opacity: 1;" transform="translate(0,128.82999999999998)">25%</text></g><g class="ytick"><text text-anchor="end" x="49" y="4.199999999999999" style="font-family: 'Open Sans', verdana, arial, sans-serif; font-size: 12px; fill: rgb(42, 63, 95); fill-opacity: 1; white-space: pre; opacity: 1;" transform="translate(0,84.6)">30%</text></g><g class="ytick"><text text-anchor="end" x="49" y="4.199999999999999" style="font-family: 'Open Sans', verdana, arial, sans-serif; font-size: 12px; fill: rgb(42, 63, 95); fill-opacity: 1; white-space: pre; opacity: 1;" transform="translate(0,40.370000000000005)">35%</text></g></g><g class="overaxes-above"/></g></g><g class="polarlayer"/><g class="smithlayer"/><g class="ternarylayer"/><g class="geolayer"/><g class="funnelarealayer"/><g class="pielayer"/><g class="iciclelayer"/><g class="treemaplayer"/><g class="sunburstlayer"/><g class="glimages"/><defs id="topdefs-2d3c1b"><g class="clips"/><clipPath id="legend2d3c1b"><rect width="131" height="200" x="0" y="0"/></clipPath></defs><g class="layer-above"><g class="imagelayer"/><g class="shapelayer"/></g><g class="infolayer"><g class="legend" pointer-events="all" transform="translate(257.06,20)"><rect class="bg" shape-rendering="crispEdges" width="131" height="200" x="0" y="0" style="stroke: rgb(68, 68, 68); stroke-opacity: 1; fill: rgb(255, 255, 255); fill-opacity: 1; stroke-width: 0px;"/><g class="scrollbox" transform="" clip-path="url(#legend2d3c1b)"><g class="groups"><g class="traces" transform="translate(0,14.5)" style="opacity: 1;"><text class="legendtext" text-anchor="start" x="40" y="4.680000000000001" style="font-family: 'Open Sans', verdana, arial, sans-serif; font-size: 12px; fill: rgb(42, 63, 95); fill-opacity: 1; white-space: pre;">ANO: 30%</text><g class="layers" style="opacity: 1;"><g class="legendfill"/><g class="legendlines"><path class="js-line" d="M5,0h30" style="fill: none; stroke: rgb(38, 16, 96); stroke-opacity: 1; stroke-width: 7px;"/></g><g class="legendsymbols"><g class="legendpoints"/></g></g><rect class="legendtoggle" x="0" y="-9.5" width="125.359375" height="19" style="fill: rgb(0, 0, 0); fill-opacity: 0;"/></g><g class="traces" transform="translate(0,33.5)" style="opacity: 1;"><text class="legendtext" text-anchor="start" x="40" y="4.680000000000001" style="font-family: 'Open Sans', verdana, arial, sans-serif; font-size: 12px; fill: rgb(42, 63, 95); fill-opacity: 1; white-space: pre;">ODS: 21%</text><g class="layers" style="opacity: 1;"><g class="legendfill"/><g class="legendlines"><path class="js-line" d="M5,0h30" style="fill: none; stroke: rgb(0, 68, 148); stroke-opacity: 1; stroke-width: 7px;"/></g><g class="legendsymbols"><g class="legendpoints"/></g></g><rect class="legendtoggle" x="0" y="-9.5" width="125.359375" height="19" style="fill: rgb(0, 0, 0); fill-opacity: 0;"/></g><g class="traces" transform="translate(0,52.5)" style="opacity: 1;"><text class="legendtext" text-anchor="start" x="40" y="4.680000000000001" style="font-family: 'Open Sans', verdana, arial, sans-serif; font-size: 12px; fill: rgb(42, 63, 95); fill-opacity: 1; white-space: pre;">Pirti: 9%</text><g class="layers" style="opacity: 1;"><g class="legendfill"/><g class="legendlines"><path class="js-line" d="M5,0h30" style="fill: none; stroke: rgb(0, 0, 0); stroke-opacity: 1; stroke-width: 7px;"/></g><g class="legendsymbols"><g class="legendpoints"/></g></g><rect class="legendtoggle" x="0" y="-9.5" width="125.359375" height="19" style="fill: rgb(0, 0, 0); fill-opacity: 0;"/></g><g class="traces" transform="translate(0,71.5)" style="opacity: 1;"><text class="legendtext" text-anchor="start" x="40" y="4.680000000000001" style="font-family: 'Open Sans', verdana, arial, sans-serif; font-size: 12px; fill: rgb(42, 63, 95); fill-opacity: 1; white-space: pre;">SPD: 9%</text><g class="layers" style="opacity: 1;"><g class="legendfill"/><g class="legendlines"><path class="js-line" d="M5,0h30" style="fill: none; stroke: rgb(234, 35, 41); stroke-opacity: 1; stroke-width: 7px;"/></g><g class="legendsymbols"><g class="legendpoints"/></g></g><rect class="legendtoggle" x="0" y="-9.5" width="125.359375" height="19" style="fill: rgb(0, 0, 0); fill-opacity: 0;"/></g><g class="traces" transform="translate(0,90.5)" style="opacity: 1;"><text class="legendtext" text-anchor="start" x="40" y="4.680000000000001" style="font-family: 'Open Sans', verdana, arial, sans-serif; font-size: 12px; fill: rgb(42, 63, 95); fill-opacity: 1; white-space: pre;">STAN: 7%</text><g class="layers" style="opacity: 1;"><g class="legendfill"/><g class="legendlines"><path class="js-line" d="M5,0h30" style="fill: none; stroke: rgb(93, 140, 0); stroke-opacity: 1; stroke-width: 7px;"/></g><g class="legendsymbols"><g class="legendpoints"/></g></g><rect class="legendtoggle" x="0" y="-9.5" width="125.359375" height="19" style="fill: rgb(0, 0, 0); fill-opacity: 0;"/></g><g class="traces" transform="translate(0,109.5)" style="opacity: 1;"><text class="legendtext" text-anchor="start" x="40" y="4.680000000000001" style="font-family: 'Open Sans', verdana, arial, sans-serif; font-size: 12px; fill: rgb(42, 63, 95); fill-opacity: 1; white-space: pre;">TOP 09: 5%</text><g class="layers" style="opacity: 1;"><g class="legendfill"/><g class="legendlines"><path class="js-line" d="M5,0h30" style="fill: none; stroke: rgb(114, 55, 105); stroke-opacity: 1; stroke-width: 7px;"/></g><g class="legendsymbols"><g class="legendpoints"/></g></g><rect class="legendtoggle" x="0" y="-9.5" width="125.359375" height="19" style="fill: rgb(0, 0, 0); fill-opacity: 0;"/></g><g class="traces" transform="translate(0,128.5)" style="opacity: 1;"><text class="legendtext" text-anchor="start" x="40" y="4.680000000000001" style="font-family: 'Open Sans', verdana, arial, sans-serif; font-size: 12px; fill: rgb(42, 63, 95); fill-opacity: 1; white-space: pre;">SSD: 4%</text><g class="layers" style="opacity: 1;"><g class="legendfill"/><g class="legendlines"><path class="js-line" d="M5,0h30" style="fill: none; stroke: rgb(240, 125, 0); stroke-opacity: 1; stroke-width: 7px;"/></g><g class="legendsymbols"><g class="legendpoints"/></g></g><rect class="legendtoggle" x="0" y="-9.5" width="125.359375" height="19" style="fill: rgb(0, 0, 0); fill-opacity: 0;"/></g><g class="traces" transform="translate(0,147.5)" style="opacity: 1;"><text class="legendtext" text-anchor="start" x="40" y="4.680000000000001" style="font-family: 'Open Sans', verdana, arial, sans-serif; font-size: 12px; fill: rgb(42, 63, 95); fill-opacity: 1; white-space: pre;">KDU-SL: 4%</text><g class="layers" style="opacity: 1;"><g class="legendfill"/><g class="legendlines"><path class="js-line" d="M5,0h30" style="fill: none; stroke: rgb(230, 172, 33); stroke-opacity: 1; stroke-width: 7px;"/></g><g class="legendsymbols"><g class="legendpoints"/></g></g><rect class="legendtoggle" x="0" y="-9.5" width="125.359375" height="19" style="fill: rgb(0, 0, 0); fill-opacity: 0;"/></g><g class="traces" transform="translate(0,166.5)" style="opacity: 1;"><text class="legendtext" text-anchor="start" x="40" y="4.680000000000001" style="font-family: 'Open Sans', verdana, arial, sans-serif; font-size: 12px; fill: rgb(42, 63, 95); fill-opacity: 1; white-space: pre;">Psaha: 2%</text><g class="layers" style="opacity: 1;"><g class="legendfill"/><g class="legendlines"><path class="js-line" d="M5,0h30" style="fill: none; stroke: rgb(0, 51, 255); stroke-opacity: 1; stroke-width: 7px;"/></g><g class="legendsymbols"><g class="legendpoints"/></g></g><rect class="legendtoggle" x="0" y="-9.5" width="125.359375" height="19" style="fill: rgb(0, 0, 0); fill-opacity: 0;"/></g><g class="traces" transform="translate(0,185.5)" style="opacity: 1;"><text class="legendtext" text-anchor="start" x="40" y="4.680000000000001" style="font-family: 'Open Sans', verdana, arial, sans-serif; font-size: 12px; fill: rgb(42, 63, 95); fill-opacity: 1; white-space: pre;">KSM: 2%</text><g class="layers" style="opacity: 1;"><g class="legendfill"/><g class="legendlines"><path class="js-line" d="M5,0h30" style="fill: none; stroke: rgb(140, 0, 0); stroke-opacity: 1; stroke-width: 7px;"/></g><g class="legendsymbols"><g class="legendpoints"/></g></g><rect class="legendtoggle" x="0" y="-9.5" width="125.359375" height="19" style="fill: rgb(0, 0, 0); fill-opacity: 0;"/></g></g></g><rect class="scrollbar" rx="20" ry="3" width="0" height="0" x="0" y="0" style="fill: rgb(128, 139, 164); fill-opacity: 1;"/></g><g class="g-gtitle"/><g class="g-xtitle"/><g class="g-ytitle"/></g></svg>