<svg class="main-svg" xmlns="http://www.w3.org/2000/svg" xmlns:xlink="http://www.w3.org/1999/xlink" width="300" height="135" style="" viewBox="0 0 300 135"><rect x="0" y="0" width="300" height="135" style="fill: rgb(255, 255, 255); fill-opacity: 1;"/><defs id="defs-9e3b4b"><g class="clips"><clipPath id="clip9e3b4bxyplot" class="plotclip"><rect width="280" height="75"/></clipPath><clipPath class="axesclip" id="clip9e3b4bx"><rect x="10" y="0" width="280" height="135"/></clipPath><clipPath class="axesclip" id="clip9e3b4by"><rect x="0" y="50" width="300" height="75"/></clipPath><clipPath class="axesclip" id="clip9e3b4bxy"><rect x="10" y="50" width="280" height="75"/></clipPath></g><g class="gradients"/><g class="patterns"/></defs><g class="bglayer"/><g class="layer-below"><g class="imagelayer"/><g class="shapelayer"/></g><g class="cartesianlayer"><g class="subplot xy"><g class="layer-subplot"><g class="shapelayer"/><g class="imagelayer"/></g><g class="minor-gridlayer"><g class="x"/><g class="y"/></g><g class="gridlayer"><g class="x"><path class="xgrid crisp" transform="translate(29.81,0)" d="M0,50v75" style="stroke: rgb(235, 240, 248); stroke-opacity: 1; stroke-width: 1px;"/><path class="xgrid crisp" transform="translate(115.91,0)" d="M0,50v75" style="stroke: rgb(235, 240, 248); stroke-opacity: 1; stroke-width: 1px;"/><path class="xgrid crisp" transform="translate(202.01,0)" d="M0,50v75" style="stroke: rgb(235, 240, 248); stroke-opacity: 1; stroke-width: 1px;"/><path class="xgrid crisp" transform="translate(288.35,0)" d="M0,50v75" style="stroke: rgb(235, 240, 248); stroke-opacity: 1; stroke-width: 1px;"/></g><g class="y"><path class="ygrid crisp" transform="translate(0,104.19)" d="M10,0h280" style="stroke: rgb(235, 240, 248); stroke-opacity: 1; stroke-width: 1px;"/><path class="ygrid crisp" transform="translate(0,83.38)" d="M10,0h280" style="stroke: rgb(235, 240, 248); stroke-opacity: 1; stroke-width: 1px;"/><path class="ygrid crisp" transform="translate(0,62.56)" d="M10,0h280" style="stroke: rgb(235, 240, 248); stroke-opacity: 1; stroke-width: 1px;"/></g></g><g class="zerolinelayer"><path class="yzl zl crisp" transform="translate(0,125)" d="M10,0h280" style="stroke: rgb(235, 240, 248); stroke-opacity: 1; stroke-width: 2px;"/></g><path class="xlines-below"/><path class="ylines-below"/><g class="overlines-below"/><g class="xaxislayer-below"/><g class="yaxislayer-below"/><g class="overaxes-below"/><g class="plot" transform="translate(10,50)" clip-path="url(#clip9e3b4bxyplot)"><g class="scatterlayer mlayer"><g class="trace scatter tracea7a8bf" style="stroke-miterlimit: 2; opacity: 1;"><g class="fills"/><g class="errorbars"/><g class="lines"><path class="js-line" d="M0,18.6Q4.31,18.66 7.55,18.82C13.43,19.11 26.75,21.27 32.32,20.53C35.27,20.14 36.74,18.81 38.92,18.25C40.98,17.72 42.95,17.57 45.05,17.2C47.27,16.81 50.39,16.16 51.9,15.95C52.64,15.85 52.88,15.89 53.55,15.78C54.64,15.61 56.11,15.25 57.79,14.89C60.27,14.37 64.5,13.32 66.99,12.94C68.67,12.68 70.07,12.54 71.24,12.53C72.07,12.52 72.67,12.67 73.36,12.68C74.01,12.69 74.57,12.6 75.25,12.58C76.05,12.56 76.98,12.59 77.84,12.6C78.71,12.61 79.71,12.6 80.44,12.64C80.98,12.67 81.22,12.72 81.85,12.76C83.14,12.85 86.25,12.73 87.75,13.05C88.73,13.26 89.06,13.88 90.11,13.97C92.08,14.14 95.34,12.75 98.84,12.19C104.01,11.36 116.89,10.18 118.18,9.89C118.33,9.86 118.29,9.85 118.42,9.81C119.05,9.64 122.4,8.65 123.84,8.66C124.79,8.67 125.28,9.15 126.2,9.21C127.45,9.29 129.43,8.95 130.68,8.76C131.6,8.62 132.13,8.56 133.04,8.27C134.41,7.84 136.82,6.49 137.99,6.14C138.59,5.96 139.13,5.92 139.41,5.88C139.52,5.86 139.52,5.87 139.65,5.85C140.36,5.74 144.03,4.69 146.25,4.63C148.51,4.57 150.45,5.3 153.09,5.54C156.68,5.87 163.71,6.45 165.83,6.21C166.55,6.13 166.9,5.88 167.25,5.8C167.45,5.76 167.47,5.77 167.72,5.73C168.63,5.6 172.59,4.91 174.09,4.84C174.9,4.8 175.26,4.94 175.97,4.92C176.92,4.9 178.22,4.74 179.28,4.61C180.26,4.49 181.56,4.25 182.11,4.19C182.33,4.16 182.42,4.16 182.58,4.15C182.74,4.14 182.81,4.14 183.05,4.13C183.8,4.11 185.94,3.96 187.77,4.04C190.33,4.16 196.13,5 196.97,5.07C197.1,5.08 197.12,5.08 197.2,5.08C197.28,5.08 197.31,5.05 197.44,5.04C198.08,4.97 202.02,5.04 203.1,4.83C203.56,4.74 203.58,4.52 204.04,4.49C205.21,4.41 209.72,5.73 210.41,5.82C210.54,5.84 210.53,5.83 210.65,5.83C210.95,5.84 211.62,5.76 212.3,5.82C213.43,5.91 215.35,6.37 216.78,6.59C218.09,6.79 219.28,6.99 220.56,7.12C221.87,7.25 223.12,7.23 224.57,7.35C226.3,7.5 229.14,7.84 230.23,8C230.68,8.06 231.17,8.16 231.17,8.16C231.17,8.16 231.17,8.16 231.17,8.16C231.17,8.16 235.26,9.42 236.6,9.45C237.39,9.47 237.72,9.18 238.48,9.1C239.65,8.98 241.33,9.31 242.97,9.03C245.08,8.67 248.9,6.98 250.04,6.71C250.39,6.63 250.45,6.66 250.75,6.6C251.27,6.5 252.02,6.3 252.87,6.12C254.13,5.84 257.01,5.19 257.59,5.13C257.72,5.12 257.83,5.13 257.83,5.13C257.83,5.13 257.83,5.13 257.83,5.13C257.83,5.13 259.34,4.85 260.19,4.65C261.2,4.41 262.5,3.88 263.49,3.75C264.27,3.65 264.95,3.72 265.61,3.76C266.2,3.8 266.56,3.89 267.26,3.96C268.47,4.08 271.14,4.28 272.22,4.34C272.75,4.37 272.86,4.38 273.4,4.38C274.61,4.38 278.28,4.24 279.29,4.19Q279.64,4.17 280,4.14" style="vector-effect: none; fill: none; stroke: rgb(38, 16, 96); stroke-opacity: 1; stroke-width: 5px; opacity: 1;"/></g><g class="points"/><g class="text"/></g><g class="trace scatter trace946ace" style="stroke-miterlimit: 2; opacity: 1;"><g class="fills"/><g class="errorbars"/><g class="lines"><path class="js-line" d="M272.22,60.62Q272.96,60.88 273.4,60.62C274.84,59.77 278.21,51.21 279.29,49.78Q279.6,49.37 280,49.09" style="vector-effect: none; fill: none; stroke: rgb(0, 68, 148); stroke-opacity: 1; stroke-width: 5px; opacity: 1;"/></g><g class="points"/><g class="text"/></g><g class="trace scatter tracedeaf29" style="stroke-miterlimit: 2; opacity: 1;"><g class="fills"/><g class="errorbars"/><g class="lines"><path class="js-line" d="M0,62.3Q3.58,53.55 7.55,51.69C13.03,49.12 26.72,52.73 32.32,53.55C35.24,53.98 36.76,54.49 38.92,55C41,55.49 42.98,55.85 45.05,56.54C47.3,57.29 50.4,58.76 51.9,59.44C52.64,59.77 52.87,59.93 53.55,60.23C54.63,60.71 56.07,61.49 57.79,61.95C60.24,62.61 64.5,62.99 66.99,63.24C68.67,63.41 70.07,63.44 71.24,63.5C72.07,63.54 72.68,63.62 73.36,63.58C74.01,63.54 74.57,63.36 75.25,63.29C76.04,63.21 76.98,63.26 77.84,63.19C78.71,63.12 79.71,62.97 80.44,62.86C80.98,62.78 81.22,62.65 81.85,62.6C83.14,62.5 86.23,62.75 87.75,62.74C88.71,62.73 89.08,62.7 90.11,62.64C92.1,62.53 95.36,62.26 98.84,62.01C104.02,61.64 116.89,60.7 118.18,60.65C118.32,60.64 118.29,60.65 118.42,60.65C119.05,60.66 122.41,60.61 123.84,60.76C124.79,60.86 125.28,61.12 126.2,61.22C127.45,61.35 129.43,61.19 130.68,61.29C131.59,61.36 132.11,61.53 133.04,61.64C134.39,61.79 136.84,61.97 137.99,62.04C138.61,62.08 139.13,62.09 139.41,62.1C139.52,62.1 139.52,62.1 139.65,62.1C140.35,62.12 144.03,62.43 146.25,62.41C148.51,62.39 150.46,62.07 153.09,61.96C156.68,61.81 163.71,61.92 165.83,61.75C166.54,61.69 166.9,61.59 167.25,61.54C167.45,61.51 167.47,61.5 167.72,61.48C168.63,61.42 172.6,61.53 174.09,61.49C174.9,61.47 175.26,61.41 175.97,61.39C176.92,61.36 178.22,61.4 179.28,61.39C180.26,61.38 181.56,61.38 182.11,61.35C182.33,61.34 182.42,61.32 182.58,61.31C182.74,61.3 182.81,61.31 183.05,61.3C183.8,61.28 185.94,61.24 187.77,61.14C190.33,61.01 196.13,60.54 196.97,60.49C197.1,60.48 197.12,60.48 197.2,60.48C197.28,60.48 197.31,60.49 197.44,60.48C198.08,60.44 202.01,59.87 203.1,59.86C203.55,59.86 203.59,59.91 204.04,59.95C205.22,60.06 209.72,60.47 210.41,60.48C210.54,60.48 210.53,60.48 210.65,60.47C210.95,60.45 211.62,60.42 212.3,60.32C213.43,60.16 215.35,59.7 216.78,59.46C218.09,59.24 219.28,59.13 220.56,58.93C221.88,58.72 223.11,58.41 224.57,58.21C226.29,57.97 229.14,57.82 230.23,57.63C230.68,57.55 231.17,57.39 231.17,57.39C231.17,57.39 231.17,57.39 231.17,57.39C231.17,57.39 235.25,56.39 236.6,56.18C237.38,56.06 237.72,56.09 238.48,56.01C239.66,55.88 241.3,55.62 242.97,55.43C245.06,55.2 248.91,55.03 250.04,54.77C250.41,54.68 250.45,54.62 250.75,54.5C251.27,54.29 252.01,53.91 252.87,53.59C254.12,53.13 257.01,52.24 257.59,52.13C257.72,52.11 257.83,52.11 257.83,52.11C257.83,52.11 257.83,52.11 257.83,52.11C257.83,52.11 259.34,52.09 260.19,52.08C261.2,52.07 262.51,52.02 263.49,52.03C264.27,52.04 264.95,52.08 265.61,52.11C266.19,52.14 266.56,52.2 267.26,52.19C268.47,52.18 271.14,51.91 272.22,51.83C272.75,51.79 272.86,51.7 273.4,51.74C274.62,51.84 278.27,53.01 279.29,53.18Q279.64,53.24 280,53.25" style="vector-effect: none; fill: none; stroke: rgb(206, 15, 104); stroke-opacity: 1; stroke-width: 5px; opacity: 1;"/></g><g class="points"/><g class="text"/></g><g class="trace scatter trace83d0d5" style="stroke-miterlimit: 2; opacity: 1;"><g class="fills"/><g class="errorbars"/><g class="lines"><path class="js-line" d="M0,55.02Q4.31,55.24 7.55,55.06C13.43,54.73 26.7,52.09 32.32,52.16C35.23,52.2 36.76,53.13 38.92,53.1C41,53.07 42.95,52.37 45.05,52.05C47.27,51.72 50.4,51.33 51.9,51.17C52.64,51.09 52.88,51.13 53.55,51.04C54.64,50.89 56.1,50.46 57.79,50.22C60.26,49.87 64.51,49.52 66.99,49.37C68.67,49.27 70.07,49.32 71.24,49.26C72.07,49.22 72.67,49.08 73.36,49.09C74.01,49.1 74.57,49.3 75.25,49.32C76.04,49.35 76.98,49.13 77.84,49.19C78.71,49.25 79.7,49.59 80.44,49.71C80.98,49.8 81.22,49.83 81.85,49.89C83.14,50.02 86.23,50.17 87.75,50.32C88.72,50.41 89.07,50.54 90.11,50.6C92.1,50.71 95.4,50.04 98.84,50.5C104.06,51.21 116.89,55.93 118.18,56.06C118.32,56.07 118.29,56.04 118.42,56.04C119.05,56.02 122.41,56.04 123.84,56.18C124.79,56.27 125.28,56.48 126.2,56.57C127.45,56.69 129.42,56.7 130.68,56.71C131.59,56.72 132.11,56.67 133.04,56.67C134.39,56.67 136.84,56.74 137.99,56.73C138.61,56.73 139.13,56.7 139.41,56.7C139.52,56.7 139.52,56.71 139.65,56.7C140.35,56.66 144.03,56.08 146.25,56.02C148.51,55.96 150.47,56.53 153.09,56.38C156.69,56.17 163.7,54.33 165.83,54.22C166.54,54.18 166.9,54.3 167.25,54.31C167.45,54.32 167.47,54.32 167.72,54.31C168.63,54.28 172.59,53.95 174.09,53.89C174.9,53.86 175.26,53.86 175.97,53.87C176.92,53.88 178.23,53.84 179.28,53.98C180.27,54.11 181.56,54.56 182.11,54.64C182.33,54.67 182.42,54.66 182.58,54.67C182.74,54.68 182.81,54.7 183.05,54.72C183.8,54.78 185.94,54.97 187.77,55.02C190.33,55.09 196.13,54.96 196.97,54.96C197.1,54.96 197.12,54.95 197.2,54.96C197.28,54.97 197.31,54.98 197.44,55C198.08,55.1 202.01,55.65 203.1,55.82C203.55,55.89 203.59,55.9 204.04,55.98C205.22,56.18 209.72,57.03 210.41,57.07C210.54,57.08 210.53,57.06 210.65,57.06C210.95,57.06 211.62,57.13 212.3,57.13C213.43,57.13 215.35,56.88 216.78,56.96C218.1,57.03 219.29,57.27 220.56,57.52C221.88,57.78 223.11,58.2 224.57,58.49C226.29,58.84 229.14,59.26 230.23,59.4C230.67,59.46 231.17,59.49 231.17,59.49C231.17,59.49 231.17,59.49 231.17,59.49C231.17,59.49 235.26,59.78 236.6,59.82C237.39,59.84 237.72,59.77 238.48,59.81C239.66,59.87 241.3,60.22 242.97,60.27C245.06,60.33 248.91,59.97 250.04,59.94C250.4,59.93 250.45,59.93 250.75,59.93C251.27,59.94 252.02,59.99 252.87,60.01C254.13,60.04 257.01,60.08 257.59,60.07C257.72,60.07 257.83,60.06 257.83,60.06C257.83,60.06 257.83,60.06 257.83,60.06C257.83,60.06 259.33,60.43 260.19,60.52C261.19,60.63 262.51,60.56 263.49,60.58C264.27,60.6 264.95,60.62 265.61,60.64C266.19,60.66 266.56,60.69 267.26,60.71C268.47,60.74 271.14,60.66 272.22,60.74C272.75,60.78 272.86,60.93 273.4,60.91C274.62,60.87 278.28,59.79 279.29,59.62Q279.64,59.56 280,59.53" style="vector-effect: none; fill: none; stroke: rgb(234, 35, 41); stroke-opacity: 1; stroke-width: 5px; opacity: 1;"/></g><g class="points"/><g class="text"/></g><g class="trace scatter trace95e3e2" style="stroke-miterlimit: 2; opacity: 1;"><g class="fills"/><g class="errorbars"/><g class="lines"><path class="js-line" d="M0,55.23Q4.26,56.99 7.55,57.62C13.38,58.74 26.7,59.19 32.32,59.46C35.22,59.6 36.76,59.54 38.92,59.61C41,59.68 43,60.27 45.05,59.86C47.32,59.41 50.38,57.27 51.9,56.71C52.62,56.44 52.88,56.48 53.55,56.25C54.64,55.87 56.07,54.88 57.79,54.5C60.23,53.96 64.51,54.12 66.99,54.12C68.68,54.12 70.07,54.31 71.24,54.31C72.07,54.31 72.68,54.17 73.36,54.2C74.01,54.23 74.57,54.43 75.25,54.47C76.04,54.51 76.98,54.44 77.84,54.38C78.71,54.32 79.7,54.15 80.44,54.12C80.98,54.1 81.22,54.19 81.85,54.15C83.14,54.06 86.22,53.41 87.75,53.22C88.71,53.1 89.08,52.98 90.11,53C92.1,53.04 95.35,53.97 98.84,54.18C104.01,54.49 116.89,54.03 118.18,53.89C118.33,53.87 118.29,53.85 118.42,53.84C119.05,53.79 122.41,54.14 123.84,54.01C124.79,53.92 125.28,53.65 126.2,53.5C127.45,53.3 129.42,53.15 130.68,53.02C131.59,52.92 132.11,52.85 133.04,52.78C134.39,52.67 136.84,52.59 137.99,52.5C138.61,52.45 139.13,52.39 139.41,52.37C139.52,52.36 139.52,52.36 139.65,52.35C140.35,52.31 144.03,52.24 146.25,52.16C148.51,52.08 150.47,51.71 153.09,51.87C156.69,52.09 163.7,53.84 165.83,54.01C166.54,54.07 166.91,53.97 167.25,54C167.45,54.02 167.47,54.07 167.72,54.09C168.63,54.16 172.6,54.05 174.09,53.91C174.91,53.83 175.25,53.71 175.97,53.61C176.92,53.48 178.22,53.35 179.28,53.22C180.26,53.1 181.56,52.91 182.11,52.85C182.33,52.83 182.42,52.82 182.58,52.81C182.74,52.8 182.81,52.81 183.05,52.81C183.8,52.8 185.94,52.8 187.77,52.74C190.33,52.66 196.13,52.28 196.97,52.28C197.1,52.28 197.12,52.28 197.2,52.29C197.28,52.3 197.31,52.32 197.44,52.34C198.08,52.44 202.01,52.8 203.1,52.95C203.55,53.01 203.59,53.06 204.04,53.1C205.22,53.21 209.72,53.27 210.41,53.3C210.54,53.3 210.53,53.31 210.65,53.31C210.95,53.32 211.62,53.34 212.3,53.38C213.43,53.44 215.35,53.61 216.78,53.7C218.09,53.78 219.29,53.74 220.56,53.88C221.88,54.02 223.12,54.32 224.57,54.57C226.29,54.87 229.14,55.45 230.23,55.58C230.67,55.63 231.17,55.64 231.17,55.64C231.17,55.64 231.17,55.64 231.17,55.64C231.17,55.64 235.26,56.42 236.6,56.72C237.39,56.9 237.72,57.02 238.48,57.2C239.65,57.47 241.3,57.8 242.97,58.12C245.06,58.52 248.91,59.21 250.04,59.4C250.4,59.46 250.45,59.46 250.75,59.51C251.27,59.6 252.03,59.7 252.87,59.9C254.14,60.19 257.01,61.14 257.59,61.23C257.72,61.25 257.83,61.24 257.83,61.24C257.83,61.24 257.83,61.24 257.83,61.24C257.83,61.24 259.34,61.3 260.19,61.33C261.2,61.37 262.51,61.38 263.49,61.44C264.28,61.49 264.95,61.59 265.61,61.62C266.19,61.65 266.56,61.63 267.26,61.65C268.47,61.68 271.14,61.8 272.22,61.8C272.75,61.8 272.86,61.81 273.4,61.77C274.62,61.69 278.28,61.23 279.29,61.13Q279.64,61.09 280,61.06" style="vector-effect: none; fill: none; stroke: rgb(0, 0, 0); stroke-opacity: 1; stroke-width: 5px; opacity: 1;"/></g><g class="points"/><g class="text"/></g></g></g><g class="overplot"/><path class="xlines-above crisp" d="M0,0" style="fill: none;"/><path class="ylines-above crisp" d="M0,0" style="fill: none;"/><g class="overlines-above"/><g class="xaxislayer-above"/><g class="yaxislayer-above"/><g class="overaxes-above"/></g></g><g class="polarlayer"/><g class="smithlayer"/><g class="ternarylayer"/><g class="geolayer"/><g class="funnelarealayer"/><g class="pielayer"/><g class="iciclelayer"/><g class="treemaplayer"/><g class="sunburstlayer"/><g class="glimages"/><defs id="topdefs-9e3b4b"><g class="clips"/></defs><g class="layer-above"><g class="imagelayer"/><g class="shapelayer"/></g><g class="infolayer"><g class="g-gtitle"><text class="gtitle" x="15" y="25" text-anchor="start" dy="0em" style="font-family: Ubuntu, verdana, arial, sans-serif; font-size: 16px; fill: rgb(233, 84, 32); opacity: 1; font-weight: normal; white-space: pre;">Sněmovna 2021-2025</text></g><g class="g-xtitle"/><g class="g-ytitle"/></g></svg>