<svg class="main-svg" xmlns="http://www.w3.org/2000/svg" xmlns:xlink="http://www.w3.org/1999/xlink" width="1200" height="600" style="" viewBox="0 0 1200 600"><rect x="0" y="0" width="1200" height="600" style="fill: rgb(255, 255, 255); fill-opacity: 1;"/><defs id="defs-aa542f"><g class="clips"><clipPath id="clipaa542fxyplot" class="plotclip"><rect width="987" height="530"/></clipPath><clipPath class="axesclip" id="clipaa542fx"><rect x="50" y="0" width="987" height="600"/></clipPath><clipPath class="axesclip" id="clipaa542fy"><rect x="0" y="20" width="1200" height="530"/></clipPath><clipPath class="axesclip" id="clipaa542fxy"><rect x="50" y="20" width="987" height="530"/></clipPath></g><g class="gradients"/><g class="patterns"/></defs><g class="bglayer"/><g class="layer-below"><g class="imagelayer"/><g class="shapelayer"/></g><g class="cartesianlayer"><g class="subplot xy"><g class="layer-subplot"><g class="shapelayer"/><g class="imagelayer"/></g><g class="gridlayer"><g class="x"><path class="xgrid crisp" transform="translate(107.06,0)" d="M0,20v530" style="stroke: rgb(235, 240, 248); stroke-opacity: 1; stroke-width: 1px;"/><path class="xgrid crisp" transform="translate(230.01,0)" d="M0,20v530" style="stroke: rgb(235, 240, 248); stroke-opacity: 1; stroke-width: 1px;"/><path class="xgrid crisp" transform="translate(355,0)" d="M0,20v530" style="stroke: rgb(235, 240, 248); stroke-opacity: 1; stroke-width: 1px;"/><path class="xgrid crisp" transform="translate(477.95,0)" d="M0,20v530" style="stroke: rgb(235, 240, 248); stroke-opacity: 1; stroke-width: 1px;"/><path class="xgrid crisp" transform="translate(602.94,0)" d="M0,20v530" style="stroke: rgb(235, 240, 248); stroke-opacity: 1; stroke-width: 1px;"/><path class="xgrid crisp" transform="translate(726.57,0)" d="M0,20v530" style="stroke: rgb(235, 240, 248); stroke-opacity: 1; stroke-width: 1px;"/><path class="xgrid crisp" transform="translate(851.56,0)" d="M0,20v530" style="stroke: rgb(235, 240, 248); stroke-opacity: 1; stroke-width: 1px;"/><path class="xgrid crisp" transform="translate(974.51,0)" d="M0,20v530" style="stroke: rgb(235, 240, 248); stroke-opacity: 1; stroke-width: 1px;"/></g><g class="y"><path class="ygrid crisp" transform="translate(0,478.96)" d="M50,0h987" style="stroke: rgb(235, 240, 248); stroke-opacity: 1; stroke-width: 1px;"/><path class="ygrid crisp" transform="translate(0,407.92)" d="M50,0h987" style="stroke: rgb(235, 240, 248); stroke-opacity: 1; stroke-width: 1px;"/><path class="ygrid crisp" transform="translate(0,336.88)" d="M50,0h987" style="stroke: rgb(235, 240, 248); stroke-opacity: 1; stroke-width: 1px;"/><path class="ygrid crisp" transform="translate(0,265.83000000000004)" d="M50,0h987" style="stroke: rgb(235, 240, 248); stroke-opacity: 1; stroke-width: 1px;"/><path class="ygrid crisp" transform="translate(0,194.79)" d="M50,0h987" style="stroke: rgb(235, 240, 248); stroke-opacity: 1; stroke-width: 1px;"/><path class="ygrid crisp" transform="translate(0,123.75)" d="M50,0h987" style="stroke: rgb(235, 240, 248); stroke-opacity: 1; stroke-width: 1px;"/><path class="ygrid crisp" transform="translate(0,52.71)" d="M50,0h987" style="stroke: rgb(235, 240, 248); stroke-opacity: 1; stroke-width: 1px;"/></g></g><g class="zerolinelayer"><path class="yzl zl crisp" transform="translate(0,550)" d="M50,0h987" style="stroke: rgb(235, 240, 248); stroke-opacity: 1; stroke-width: 2px;"/></g><path class="xlines-below"/><path class="ylines-below"/><g class="overlines-below"/><g class="xaxislayer-below"/><g class="yaxislayer-below"/><g class="overaxes-below"/><g class="plot" transform="translate(50,20)" clip-path="url(#clipaa542fxyplot)"><g class="scatterlayer mlayer"><g class="trace scatter tracef28d1e" style="stroke-miterlimit: 2; opacity: 1;"><g class="fills"><g><path class="js-fill" d="M0,69.69Q12.41,71.12 21.74,72.37C38.66,74.63 77.35,86.53 93.06,82.67C102.02,80.47 105.65,72.56 112.08,68.94C117.89,65.67 123.73,64.24 129.74,61.49C136.17,58.55 145.12,53.97 149.44,51.77C151.58,50.68 152.22,50.19 154.2,49.27C157.3,47.83 161.68,46.69 166.42,44.32C173.68,40.7 185.54,30.74 192.92,28.41C197.57,26.94 201.77,27.93 205.14,27.53C207.54,27.24 209.28,26.54 211.26,26.5C213.12,26.46 214.73,27.1 216.69,27.2C218.98,27.32 221.67,27.08 224.16,27.01C226.65,26.93 229.6,26.15 231.64,26.75C233.3,27.23 233.76,28.85 235.71,29.55C239.33,30.85 248.44,29.56 252.69,31.03C255.63,32.04 256.37,35.03 259.49,35.47C265.1,36.26 274.47,28.86 284.62,27.73C299.42,26.08 328.74,19.5 340.32,32.01C359.52,52.75 359.52,167.82 340.32,185.61C328.74,196.34 299.42,179.68 284.62,181.33C274.47,182.46 265.1,189.87 259.49,189.08C256.37,188.64 255.63,185.65 252.69,184.64C248.44,183.17 239.33,184.46 235.71,183.16C233.76,182.46 233.3,180.84 231.64,180.36C229.6,179.76 226.65,180.54 224.16,180.61C221.67,180.68 218.98,180.92 216.69,180.8C214.73,180.7 213.12,180.06 211.26,180.1C209.28,180.14 207.54,180.85 205.14,181.14C201.77,181.55 197.64,180.79 192.92,182.01C185.63,183.89 173.6,191.15 166.42,194.26C161.6,196.35 157.3,197.78 154.2,199.22C152.22,200.14 151.58,200.62 149.44,201.71C145.12,203.91 136.27,209.17 129.74,211.44C123.82,213.5 117.7,212.33 112.08,215.23C105.36,218.69 102.32,230.01 93.06,232.61C77.51,236.97 38.71,219.92 21.74,218.66Q12.46,217.97 0,219.64Z" style="fill: rgb(38, 16, 96); fill-opacity: 0.05; stroke-width: 0;"/></g></g><g class="errorbars"/><g class="lines"><path class="js-line" d="M0,69.69Q12.41,71.12 21.74,72.37C38.66,74.63 77.35,86.53 93.06,82.67C102.02,80.47 105.65,72.56 112.08,68.94C117.89,65.67 123.73,64.24 129.74,61.49C136.17,58.55 145.12,53.97 149.44,51.77C151.58,50.68 152.22,50.19 154.2,49.27C157.3,47.83 161.68,46.69 166.42,44.32C173.68,40.7 185.54,30.74 192.92,28.41C197.57,26.94 201.77,27.93 205.14,27.53C207.54,27.24 209.28,26.54 211.26,26.5C213.12,26.46 214.73,27.1 216.69,27.2C218.98,27.32 221.67,27.08 224.16,27.01C226.65,26.93 229.6,26.15 231.64,26.75C233.3,27.23 233.76,28.85 235.71,29.55C239.33,30.85 248.44,29.56 252.69,31.03C255.63,32.04 256.37,35.03 259.49,35.47C265.1,36.26 274.47,28.86 284.62,27.73C299.42,26.08 328.74,19.5 340.32,32.01C359.52,52.75 359.52,167.82 340.32,185.61C328.74,196.34 299.42,179.68 284.62,181.33C274.47,182.46 265.1,189.87 259.49,189.08C256.37,188.64 255.63,185.65 252.69,184.64C248.44,183.17 239.33,184.46 235.71,183.16C233.76,182.46 233.3,180.84 231.64,180.36C229.6,179.76 226.65,180.54 224.16,180.61C221.67,180.68 218.98,180.92 216.69,180.8C214.73,180.7 213.12,180.06 211.26,180.1C209.28,180.14 207.54,180.85 205.14,181.14C201.77,181.55 197.64,180.79 192.92,182.01C185.63,183.89 173.6,191.15 166.42,194.26C161.6,196.35 157.3,197.78 154.2,199.22C152.22,200.14 151.58,200.62 149.44,201.71C145.12,203.91 136.27,209.17 129.74,211.44C123.82,213.5 117.7,212.33 112.08,215.23C105.36,218.69 102.32,230.01 93.06,232.61C77.51,236.97 38.71,219.92 21.74,218.66Q12.46,217.97 0,219.64" style="vector-effect: non-scaling-stroke; fill: none; stroke: rgb(255, 255, 255); stroke-opacity: 0; stroke-width: 2px; opacity: 1;"/></g><g class="points"/><g class="text"/></g><g class="trace scatter traceff0b9c" style="stroke-miterlimit: 2; opacity: 1;"><g class="fills"><g><path class="js-fill" d="M0,270.73Q13.09,262.06 21.74,253.05C39.57,234.48 75.76,174.09 93.06,157.65C100.65,150.44 105.55,146.68 112.08,144.88C117.82,143.3 124.55,142.32 129.74,145.82C138.15,151.49 144.09,184.81 149.44,187.98C151.15,189 152.54,186.8 154.2,187.68C157.93,189.66 160.85,201.9 166.42,208.55C173.1,216.53 185.35,227.48 192.92,231.15C197.45,233.35 201.8,233.86 205.14,233.59C207.56,233.39 209.27,231.98 211.26,231.3C213.11,230.67 214.77,229.48 216.69,229.64C219.02,229.83 221.63,233.1 224.16,233.32C226.61,233.53 229.56,231.97 231.64,231.14C233.24,230.51 233.82,229.34 235.71,229.06C239.37,228.51 248.69,234 252.69,232.06C256.34,230.29 256.06,219.88 259.49,219.41C264.94,218.67 275.14,246.39 284.62,245.62C300.21,244.35 330.3,161.49 340.32,164.6C352.08,168.25 353.21,264.51 340.32,299.92C330.01,328.26 300.28,364.5 284.62,366.3C275.19,367.38 264.99,346.65 259.49,347.42C256.19,347.88 255.99,355.12 252.69,356.41C248.61,358.01 239.37,352.85 235.71,353.4C233.82,353.68 233.24,354.85 231.64,355.49C229.56,356.32 226.61,357.89 224.16,357.67C221.63,357.45 219.02,354.17 216.69,353.98C214.77,353.83 213.11,355.02 211.26,355.65C209.27,356.33 207.56,357.74 205.14,357.94C201.8,358.21 197.52,357.5 192.92,355.5C185.48,352.27 173.16,343.32 166.42,336.55C160.99,331.1 157.77,321.05 154.2,319.34C152.5,318.53 151.2,320.59 149.44,319.64C144.34,316.87 137.68,289.71 129.74,284.79C124.46,281.52 117.93,282.68 112.08,283.85C105.69,285.12 100.68,287.21 93.06,292.97C75.83,305.99 39.48,358.48 21.74,373.74Q13.05,381.21 0,387.76Z" style="fill: rgb(0, 68, 148); fill-opacity: 0.05; stroke-width: 0;"/></g></g><g class="errorbars"/><g class="lines"><path class="js-line" d="M0,270.73Q13.09,262.06 21.74,253.05C39.57,234.48 75.76,174.09 93.06,157.65C100.65,150.44 105.55,146.68 112.08,144.88C117.82,143.3 124.55,142.32 129.74,145.82C138.15,151.49 144.09,184.81 149.44,187.98C151.15,189 152.54,186.8 154.2,187.68C157.93,189.66 160.85,201.9 166.42,208.55C173.1,216.53 185.35,227.48 192.92,231.15C197.45,233.35 201.8,233.86 205.14,233.59C207.56,233.39 209.27,231.98 211.26,231.3C213.11,230.67 214.77,229.48 216.69,229.64C219.02,229.83 221.63,233.1 224.16,233.32C226.61,233.53 229.56,231.97 231.64,231.14C233.24,230.51 233.82,229.34 235.71,229.06C239.37,228.51 248.69,234 252.69,232.06C256.34,230.29 256.06,219.88 259.49,219.41C264.94,218.67 275.14,246.39 284.62,245.62C300.21,244.35 330.3,161.49 340.32,164.6C352.08,168.25 353.21,264.51 340.32,299.92C330.01,328.26 300.28,364.5 284.62,366.3C275.19,367.38 264.99,346.65 259.49,347.42C256.19,347.88 255.99,355.12 252.69,356.41C248.61,358.01 239.37,352.85 235.71,353.4C233.82,353.68 233.24,354.85 231.64,355.49C229.56,356.32 226.61,357.89 224.16,357.67C221.63,357.45 219.02,354.17 216.69,353.98C214.77,353.83 213.11,355.02 211.26,355.65C209.27,356.33 207.56,357.74 205.14,357.94C201.8,358.21 197.52,357.5 192.92,355.5C185.48,352.27 173.16,343.32 166.42,336.55C160.99,331.1 157.77,321.05 154.2,319.34C152.5,318.53 151.2,320.59 149.44,319.64C144.34,316.87 137.68,289.71 129.74,284.79C124.46,281.52 117.93,282.68 112.08,283.85C105.69,285.12 100.68,287.21 93.06,292.97C75.83,305.99 39.48,358.48 21.74,373.74Q13.05,381.21 0,387.76" style="vector-effect: non-scaling-stroke; fill: none; stroke: rgb(255, 255, 255); stroke-opacity: 0; stroke-width: 2px; opacity: 1;"/></g><g class="points"/><g class="text"/></g><g class="trace scatter tracef3ede9" style="stroke-miterlimit: 2; opacity: 1;"><g class="fills"><g><path class="js-fill" d="M0,352Q12.11,359.78 21.74,363.36C38.39,369.55 76.8,378.61 93.06,380.07C101.35,380.81 105.86,378.91 112.08,379.09C118.08,379.26 124.3,383.37 129.74,381.02C137.12,377.84 144.63,357.72 149.44,354.99C151.28,353.94 152.45,355.37 154.2,354.47C157.63,352.7 160.89,343.86 166.42,340.78C173.12,337.05 185.78,336.03 192.92,336.09C197.78,336.13 201.82,338.89 205.14,338.47C207.59,338.16 209.26,335.67 211.26,335.55C213.1,335.44 214.71,336.97 216.69,337.37C218.96,337.83 221.69,338.16 224.16,337.95C226.67,337.74 229.51,336.41 231.64,336.08C233.19,335.84 233.95,336.3 235.71,335.84C239.5,334.85 248.23,328.07 252.69,327.56C255.4,327.25 256.55,328.22 259.49,329.11C265.26,330.85 274.48,335.47 284.62,338.6C299.43,343.18 329.87,338.85 340.32,352.15C353.78,369.28 353.91,435.85 340.32,447.24C329.84,456.02 299.51,440.4 284.62,437.35C274.57,435.29 265.2,431.32 259.49,431.52C256.49,431.63 255.47,432.81 252.69,433.62C248.31,434.89 239.45,437.64 235.71,438.25C233.91,438.54 233.19,438.62 231.64,438.48C229.51,438.29 226.62,436.51 224.16,436.7C221.64,436.9 219,439.69 216.69,439.77C214.75,439.84 213.15,438.39 211.26,437.96C209.3,437.52 207.53,437.23 205.14,437.21C201.77,437.18 197.78,438.14 192.92,438.49C185.78,439 173.25,436.94 166.42,439.53C161.15,441.53 157.51,448.16 154.2,449.55C152.38,450.32 151.37,449.18 149.44,450.08C144.84,452.22 136.7,466.44 129.74,468.79C124.11,470.69 118.08,467.03 112.08,466.86C105.86,466.68 101.4,468.17 93.06,467.84C76.85,467.2 38.34,463.7 21.74,458.45Q12.05,455.39 0,447.09Z" style="fill: rgb(0, 0, 0); fill-opacity: 0.05; stroke-width: 0;"/></g></g><g class="errorbars"/><g class="lines"><path class="js-line" d="M0,352Q12.11,359.78 21.74,363.36C38.39,369.55 76.8,378.61 93.06,380.07C101.35,380.81 105.86,378.91 112.08,379.09C118.08,379.26 124.3,383.37 129.74,381.02C137.12,377.84 144.63,357.72 149.44,354.99C151.28,353.94 152.45,355.37 154.2,354.47C157.63,352.7 160.89,343.86 166.42,340.78C173.12,337.05 185.78,336.03 192.92,336.09C197.78,336.13 201.82,338.89 205.14,338.47C207.59,338.16 209.26,335.67 211.26,335.55C213.1,335.44 214.71,336.97 216.69,337.37C218.96,337.83 221.69,338.16 224.16,337.95C226.67,337.74 229.51,336.41 231.64,336.08C233.19,335.84 233.95,336.3 235.71,335.84C239.5,334.85 248.23,328.07 252.69,327.56C255.4,327.25 256.55,328.22 259.49,329.11C265.26,330.85 274.48,335.47 284.62,338.6C299.43,343.18 329.87,338.85 340.32,352.15C353.78,369.28 353.91,435.85 340.32,447.24C329.84,456.02 299.51,440.4 284.62,437.35C274.57,435.29 265.2,431.32 259.49,431.52C256.49,431.63 255.47,432.81 252.69,433.62C248.31,434.89 239.45,437.64 235.71,438.25C233.91,438.54 233.19,438.62 231.64,438.48C229.51,438.29 226.62,436.51 224.16,436.7C221.64,436.9 219,439.69 216.69,439.77C214.75,439.84 213.15,438.39 211.26,437.96C209.3,437.52 207.53,437.23 205.14,437.21C201.77,437.18 197.78,438.14 192.92,438.49C185.78,439 173.25,436.94 166.42,439.53C161.15,441.53 157.51,448.16 154.2,449.55C152.38,450.32 151.37,449.18 149.44,450.08C144.84,452.22 136.7,466.44 129.74,468.79C124.11,470.69 118.08,467.03 112.08,466.86C105.86,466.68 101.4,468.17 93.06,467.84C76.85,467.2 38.34,463.7 21.74,458.45Q12.05,455.39 0,447.09" style="vector-effect: non-scaling-stroke; fill: none; stroke: rgb(255, 255, 255); stroke-opacity: 0; stroke-width: 2px; opacity: 1;"/></g><g class="points"/><g class="text"/></g><g class="trace scatter trace7de107" style="stroke-miterlimit: 2; opacity: 1;"><g class="fills"><g><path class="js-fill" d="M0,344.47Q12.56,345.84 21.74,344.29C38.82,341.41 76.95,319.52 93.06,320.19C101.51,320.54 105.85,328.42 112.08,328.44C118.07,328.46 123.7,323.54 129.74,320.94C136.13,318.19 145.06,312.83 149.44,312.34C151.52,312.11 152.36,313.66 154.2,313.24C157.47,312.5 161.25,306.5 166.42,304.23C173.31,301.2 185.75,299.53 192.92,299.06C197.75,298.75 201.81,300.38 205.14,299.83C207.58,299.43 209.28,297.35 211.26,297.33C213.12,297.31 214.73,299.4 216.69,299.41C218.98,299.42 221.7,296.5 224.16,296.64C226.69,296.79 229.54,299.28 231.64,300.45C233.22,301.33 233.81,302.12 235.71,302.93C239.36,304.49 248.31,306.29 252.69,307.49C255.47,308.25 256.49,309.24 259.49,309.39C265.2,309.68 275.36,302.32 284.62,305.05C300.57,309.74 330.51,333.92 340.32,356.27C351.32,381.33 352.39,444.85 340.32,451.36C330.21,456.81 300.13,419.18 284.62,414.77C275.09,412.06 265.19,416.15 259.49,415.45C256.47,415.08 255.5,414.01 252.69,413.55C248.33,412.83 239.34,413.78 235.71,412.65C233.78,412.05 233.28,410.64 231.64,410.16C229.59,409.56 226.65,410.18 224.16,410.01C221.66,409.84 218.95,409.68 216.69,409.12C214.7,408.63 213.12,407.03 211.26,407.05C209.28,407.07 207.58,409.14 205.14,409.54C201.81,410.08 197.75,408.47 192.92,408.78C185.75,409.25 173.47,411.74 166.42,413.94C161.46,415.49 157.37,418.94 154.2,419.3C152.29,419.52 151.56,418.34 149.44,418.4C145.1,418.53 136.05,421.22 129.74,423.34C123.61,425.4 118.16,430.35 112.08,430.85C105.94,431.36 101.43,426.28 93.06,426.25C76.87,426.2 38.74,441 21.74,443.04Q12.48,444.15 0,443.21Z" style="fill: rgb(234, 35, 41); fill-opacity: 0.05; stroke-width: 0;"/></g></g><g class="errorbars"/><g class="lines"><path class="js-line" d="M0,344.47Q12.56,345.84 21.74,344.29C38.82,341.41 76.95,319.52 93.06,320.19C101.51,320.54 105.85,328.42 112.08,328.44C118.07,328.46 123.7,323.54 129.74,320.94C136.13,318.19 145.06,312.83 149.44,312.34C151.52,312.11 152.36,313.66 154.2,313.24C157.47,312.5 161.25,306.5 166.42,304.23C173.31,301.2 185.75,299.53 192.92,299.06C197.75,298.75 201.81,300.38 205.14,299.83C207.58,299.43 209.28,297.35 211.26,297.33C213.12,297.31 214.73,299.4 216.69,299.41C218.98,299.42 221.7,296.5 224.16,296.64C226.69,296.79 229.54,299.28 231.64,300.45C233.22,301.33 233.81,302.12 235.71,302.93C239.36,304.49 248.31,306.29 252.69,307.49C255.47,308.25 256.49,309.24 259.49,309.39C265.2,309.68 275.36,302.32 284.62,305.05C300.57,309.74 330.51,333.92 340.32,356.27C351.32,381.33 352.39,444.85 340.32,451.36C330.21,456.81 300.13,419.18 284.62,414.77C275.09,412.06 265.19,416.15 259.49,415.45C256.47,415.08 255.5,414.01 252.69,413.55C248.33,412.83 239.34,413.78 235.71,412.65C233.78,412.05 233.28,410.64 231.64,410.16C229.59,409.56 226.65,410.18 224.16,410.01C221.66,409.84 218.95,409.68 216.69,409.12C214.7,408.63 213.12,407.03 211.26,407.05C209.28,407.07 207.58,409.14 205.14,409.54C201.81,410.08 197.75,408.47 192.92,408.78C185.75,409.25 173.47,411.74 166.42,413.94C161.46,415.49 157.37,418.94 154.2,419.3C152.29,419.52 151.56,418.34 149.44,418.4C145.1,418.53 136.05,421.22 129.74,423.34C123.61,425.4 118.16,430.35 112.08,430.85C105.94,431.36 101.43,426.28 93.06,426.25C76.87,426.2 38.74,441 21.74,443.04Q12.48,444.15 0,443.21" style="vector-effect: non-scaling-stroke; fill: none; stroke: rgb(255, 255, 255); stroke-opacity: 0; stroke-width: 2px; opacity: 1;"/></g><g class="points"/><g class="text"/></g><g class="trace scatter tracecb4c0a" style="stroke-miterlimit: 2; opacity: 1;"><g class="fills"><g><path class="js-fill" d="M0,371.59Q7.76,323.43 21.74,316.07C37.24,307.92 77.22,326.06 93.06,332.68C101.84,336.35 105.87,340.7 112.08,344.68C118.09,348.53 124.07,351.09 129.74,356.17C136.63,362.34 145.09,375.02 149.44,380.21C151.55,382.73 152.24,383.52 154.2,385.78C157.32,389.38 160.96,395.95 166.42,399.65C173.15,404.21 185.7,407.26 192.92,409.1C197.7,410.32 201.83,409.97 205.14,411.04C207.6,411.84 209.38,414.43 211.26,414.13C213.25,413.82 214.53,409.54 216.69,408.77C218.83,408 221.68,409.56 224.16,409.45C226.66,409.34 229.56,408.74 231.64,408.07C233.24,407.56 233.83,406.65 235.71,406.17C239.38,405.24 248.3,405.04 252.69,405.11C255.47,405.15 256.51,405.82 259.49,405.75C265.23,405.62 274.68,404.26 284.62,402.19C299.62,399.07 330.07,379.02 340.32,386.82C352.95,396.44 353.2,459.73 340.32,474.6C330.01,486.51 299.54,480.5 284.62,482.64C274.6,484.08 265.23,486.07 259.49,486.21C256.51,486.28 255.46,485.91 252.69,485.57C248.3,485.03 239.38,482.44 235.71,482.97C233.83,483.24 233.24,484.36 231.64,484.87C229.56,485.54 226.62,485.54 224.16,486.25C221.63,486.98 219,488.4 216.69,489.22C214.75,489.91 213.09,491.08 211.26,490.93C209.25,490.77 207.6,488.64 205.14,487.84C201.83,486.77 197.76,486.81 192.92,485.9C185.76,484.55 173.26,483.46 166.42,480.11C161.18,477.54 157.46,471.85 154.2,469.9C152.35,468.79 151.44,469.19 149.44,467.98C144.95,465.27 136.44,455.46 129.74,451.26C123.95,447.63 118.08,446.07 112.08,443.43C105.86,440.69 101.63,437.71 93.06,435.09C77.06,430.2 37.34,414.57 21.74,422.13Q9.27,428.17 0,463.02Z" style="fill: rgb(93, 140, 0); fill-opacity: 0.05; stroke-width: 0;"/></g></g><g class="errorbars"/><g class="lines"><path class="js-line" d="M0,371.59Q7.76,323.43 21.74,316.07C37.24,307.92 77.22,326.06 93.06,332.68C101.84,336.35 105.87,340.7 112.08,344.68C118.09,348.53 124.07,351.09 129.74,356.17C136.63,362.34 145.09,375.02 149.44,380.21C151.55,382.73 152.24,383.52 154.2,385.78C157.32,389.38 160.96,395.95 166.42,399.65C173.15,404.21 185.7,407.26 192.92,409.1C197.7,410.32 201.83,409.97 205.14,411.04C207.6,411.84 209.38,414.43 211.26,414.13C213.25,413.82 214.53,409.54 216.69,408.77C218.83,408 221.68,409.56 224.16,409.45C226.66,409.34 229.56,408.74 231.64,408.07C233.24,407.56 233.83,406.65 235.71,406.17C239.38,405.24 248.3,405.04 252.69,405.11C255.47,405.15 256.51,405.82 259.49,405.75C265.23,405.62 274.68,404.26 284.62,402.19C299.62,399.07 330.07,379.02 340.32,386.82C352.95,396.44 353.2,459.73 340.32,474.6C330.01,486.51 299.54,480.5 284.62,482.64C274.6,484.08 265.23,486.07 259.49,486.21C256.51,486.28 255.46,485.91 252.69,485.57C248.3,485.03 239.38,482.44 235.71,482.97C233.83,483.24 233.24,484.36 231.64,484.87C229.56,485.54 226.62,485.54 224.16,486.25C221.63,486.98 219,488.4 216.69,489.22C214.75,489.91 213.09,491.08 211.26,490.93C209.25,490.77 207.6,488.64 205.14,487.84C201.83,486.77 197.76,486.81 192.92,485.9C185.76,484.55 173.26,483.46 166.42,480.11C161.18,477.54 157.46,471.85 154.2,469.9C152.35,468.79 151.44,469.19 149.44,467.98C144.95,465.27 136.44,455.46 129.74,451.26C123.95,447.63 118.08,446.07 112.08,443.43C105.86,440.69 101.63,437.71 93.06,435.09C77.06,430.2 37.34,414.57 21.74,422.13Q9.27,428.17 0,463.02" style="vector-effect: non-scaling-stroke; fill: none; stroke: rgb(255, 255, 255); stroke-opacity: 0; stroke-width: 2px; opacity: 1;"/></g><g class="points"/><g class="text"/></g><g class="trace scatter tracebcccc8" style="stroke-miterlimit: 2; opacity: 1;"><g class="fills"><g><path class="js-fill" d="M0,386.26Q12.52,386.32 21.74,388.06C38.77,391.27 77.46,400.61 93.06,409.37C102.21,414.51 105.54,422.07 112.08,426.5C117.81,430.38 123.54,434.33 129.74,435.19C135.99,436.05 145.1,431.76 149.44,431.55C151.56,431.45 152.27,432.15 154.2,431.95C157.35,431.62 161.54,429.52 166.42,428.3C173.53,426.52 185.8,422.67 192.92,422.93C197.8,423.11 201.78,425.3 205.14,426.34C207.54,427.08 209.32,428.58 211.26,428.41C213.16,428.24 214.69,426.25 216.69,425.41C218.94,424.47 221.65,423.37 224.16,423.19C226.63,423.01 229.53,424.34 231.64,424.3C233.2,424.27 233.88,423.79 235.71,423.52C239.42,422.96 248.36,422.76 252.69,421.67C255.53,420.95 256.44,419.24 259.49,418.9C265.16,418.27 274.56,422.39 284.62,423.08C299.5,424.11 330.41,411.92 340.32,421.57C351.68,432.63 351.68,483.05 340.32,494.72C330.41,504.9 299.54,496.17 284.62,496.22C274.6,496.25 265.21,496.13 259.49,495.7C256.5,495.48 255.47,494.85 252.69,494.82C248.3,494.77 239.33,497.6 235.71,496.66C233.76,496.15 233.27,494.03 231.64,493.79C229.58,493.49 226.66,495.53 224.16,496.33C221.68,497.12 219,498.36 216.69,498.55C214.75,498.71 213.1,498.31 211.26,497.89C209.26,497.43 207.57,496.19 205.14,495.82C201.8,495.31 197.77,495.86 192.92,496.07C185.77,496.37 173.51,496.51 166.42,497.78C161.51,498.66 157.35,501.11 154.2,501.44C152.27,501.64 151.56,500.94 149.44,501.04C145.1,501.25 135.99,505.53 129.74,504.67C123.54,503.81 118.06,499 112.08,495.99C105.84,492.85 101.71,489.18 93.06,486.17C77.12,480.62 38.7,474.54 21.74,472.18Q12.45,470.89 0,470.37Z" style="fill: rgb(114, 55, 105); fill-opacity: 0.05; stroke-width: 0;"/></g></g><g class="errorbars"/><g class="lines"><path class="js-line" d="M0,386.26Q12.52,386.32 21.74,388.06C38.77,391.27 77.46,400.61 93.06,409.37C102.21,414.51 105.54,422.07 112.08,426.5C117.81,430.38 123.54,434.33 129.74,435.19C135.99,436.05 145.1,431.76 149.44,431.55C151.56,431.45 152.27,432.15 154.2,431.95C157.35,431.62 161.54,429.52 166.42,428.3C173.53,426.52 185.8,422.67 192.92,422.93C197.8,423.11 201.78,425.3 205.14,426.34C207.54,427.08 209.32,428.58 211.26,428.41C213.16,428.24 214.69,426.25 216.69,425.41C218.94,424.47 221.65,423.37 224.16,423.19C226.63,423.01 229.53,424.34 231.64,424.3C233.2,424.27 233.88,423.79 235.71,423.52C239.42,422.96 248.36,422.76 252.69,421.67C255.53,420.95 256.44,419.24 259.49,418.9C265.16,418.27 274.56,422.39 284.62,423.08C299.5,424.11 330.41,411.92 340.32,421.57C351.68,432.63 351.68,483.05 340.32,494.72C330.41,504.9 299.54,496.17 284.62,496.22C274.6,496.25 265.21,496.13 259.49,495.7C256.5,495.48 255.47,494.85 252.69,494.82C248.3,494.77 239.33,497.6 235.71,496.66C233.76,496.15 233.27,494.03 231.64,493.79C229.58,493.49 226.66,495.53 224.16,496.33C221.68,497.12 219,498.36 216.69,498.55C214.75,498.71 213.1,498.31 211.26,497.89C209.26,497.43 207.57,496.19 205.14,495.82C201.8,495.31 197.77,495.86 192.92,496.07C185.77,496.37 173.51,496.51 166.42,497.78C161.51,498.66 157.35,501.11 154.2,501.44C152.27,501.64 151.56,500.94 149.44,501.04C145.1,501.25 135.99,505.53 129.74,504.67C123.54,503.81 118.06,499 112.08,495.99C105.84,492.85 101.71,489.18 93.06,486.17C77.12,480.62 38.7,474.54 21.74,472.18Q12.45,470.89 0,470.37" style="vector-effect: non-scaling-stroke; fill: none; stroke: rgb(255, 255, 255); stroke-opacity: 0; stroke-width: 2px; opacity: 1;"/></g><g class="points"/><g class="text"/></g><g class="trace scatter trace6ac730" style="stroke-miterlimit: 2; opacity: 1;"><g class="fills"><g><path class="js-fill" d="M0,429.38Q12.43,432.54 21.74,435.17C38.68,439.95 76.75,453.97 93.06,456.43C101.31,457.68 106,457.95 112.08,456.62C118.24,455.27 124.08,452.44 129.74,448.3C136.64,443.26 144.77,428.74 149.44,427.09C151.34,426.42 152.28,427.98 154.2,427.78C157.36,427.45 161.49,423.79 166.42,423.27C173.49,422.52 185.86,425.24 192.92,427.08C197.86,428.36 201.75,430.56 205.14,431.76C207.52,432.6 209.38,432.67 211.26,433.74C213.25,434.88 214.56,437.9 216.69,438.57C218.85,439.25 221.71,437.39 224.16,437.71C226.69,438.04 229.51,440.5 231.64,440.62C233.19,440.7 233.88,439.94 235.71,439.53C239.42,438.7 248.32,436.29 252.69,436.5C255.49,436.63 256.47,438.02 259.49,438.4C265.19,439.12 274.61,438.44 284.62,437.84C299.55,436.94 330.54,423.48 340.32,432.35C351.22,442.23 351.26,490.53 340.32,501.83C330.53,511.95 299.54,503.26 284.62,503.67C274.6,503.95 265.19,504.95 259.49,504.23C256.47,503.85 255.49,502.46 252.69,502.33C248.32,502.12 239.42,504.53 235.71,505.36C233.88,505.77 233.19,506.53 231.64,506.45C229.51,506.33 226.69,503.87 224.16,503.54C221.71,503.22 218.97,504.51 216.69,504.4C214.73,504.3 213.11,503.73 211.26,503.23C209.27,502.69 207.56,501.74 205.14,501.25C201.8,500.58 197.76,500.78 192.92,500.23C185.77,499.42 173.58,496.69 166.42,496.42C161.58,496.24 157.24,496.27 154.2,497.26C152.14,497.93 151.6,499.01 149.44,500.24C145.14,502.7 136.27,507.95 129.74,510.47C123.82,512.76 118.13,514.37 112.08,515.13C105.91,515.9 101.39,515.59 93.06,514.95C76.84,513.71 38.58,508.11 21.74,504.66Q12.33,502.73 0,498.87Z" style="fill: rgb(240, 125, 0); fill-opacity: 0.05; stroke-width: 0;"/></g></g><g class="errorbars"/><g class="lines"><path class="js-line" d="M0,429.38Q12.43,432.54 21.74,435.17C38.68,439.95 76.75,453.97 93.06,456.43C101.31,457.68 106,457.95 112.08,456.62C118.24,455.27 124.08,452.44 129.74,448.3C136.64,443.26 144.77,428.74 149.44,427.09C151.34,426.42 152.28,427.98 154.2,427.78C157.36,427.45 161.49,423.79 166.42,423.27C173.49,422.52 185.86,425.24 192.92,427.08C197.86,428.36 201.75,430.56 205.14,431.76C207.52,432.6 209.38,432.67 211.26,433.74C213.25,434.88 214.56,437.9 216.69,438.57C218.85,439.25 221.71,437.39 224.16,437.71C226.69,438.04 229.51,440.5 231.64,440.62C233.19,440.7 233.88,439.94 235.71,439.53C239.42,438.7 248.32,436.29 252.69,436.5C255.49,436.63 256.47,438.02 259.49,438.4C265.19,439.12 274.61,438.44 284.62,437.84C299.55,436.94 330.54,423.48 340.32,432.35C351.22,442.23 351.26,490.53 340.32,501.83C330.53,511.95 299.54,503.26 284.62,503.67C274.6,503.95 265.19,504.95 259.49,504.23C256.47,503.85 255.49,502.46 252.69,502.33C248.32,502.12 239.42,504.53 235.71,505.36C233.88,505.77 233.19,506.53 231.64,506.45C229.51,506.33 226.69,503.87 224.16,503.54C221.71,503.22 218.97,504.51 216.69,504.4C214.73,504.3 213.11,503.73 211.26,503.23C209.27,502.69 207.56,501.74 205.14,501.25C201.8,500.58 197.76,500.78 192.92,500.23C185.77,499.42 173.58,496.69 166.42,496.42C161.58,496.24 157.24,496.27 154.2,497.26C152.14,497.93 151.6,499.01 149.44,500.24C145.14,502.7 136.27,507.95 129.74,510.47C123.82,512.76 118.13,514.37 112.08,515.13C105.91,515.9 101.39,515.59 93.06,514.95C76.84,513.71 38.58,508.11 21.74,504.66Q12.33,502.73 0,498.87" style="vector-effect: non-scaling-stroke; fill: none; stroke: rgb(255, 255, 255); stroke-opacity: 0; stroke-width: 2px; opacity: 1;"/></g><g class="points"/><g class="text"/></g><g class="trace scatter trace254352" style="stroke-miterlimit: 2; opacity: 1;"><g class="fills"><g><path class="js-fill" d="M0,403.35Q10.57,426.67 21.74,431.48C37.6,438.31 77.03,422.32 93.06,424.38C101.59,425.47 105.78,429.71 112.08,431.42C118,433.03 123.67,433.74 129.74,434.54C136.11,435.38 145.12,436.48 149.44,436.25C151.58,436.14 152.24,435.41 154.2,435.33C157.32,435.19 161.56,436.19 166.42,436.61C173.56,437.23 185.78,437.74 192.92,438.42C197.78,438.89 201.76,439.65 205.14,439.93C207.52,440.13 209.33,440.6 211.26,440.2C213.18,439.8 214.7,438.31 216.69,437.53C218.95,436.65 221.65,435.57 224.16,435.32C226.63,435.08 229.67,436.79 231.64,436C233.43,435.28 233.59,432.56 235.71,431.31C239.25,429.22 248.45,426.75 252.69,427.64C255.64,428.26 256.3,431.85 259.49,432.58C265.05,433.85 274.6,428.05 284.62,428.03C299.54,428 330.69,426.42 340.32,437.92C350.71,450.32 350.79,494.39 340.32,503.75C330.66,512.39 299.56,498.09 284.62,497.52C274.61,497.14 265.21,498.84 259.49,498.41C256.49,498.18 255.46,497.09 252.69,497.13C248.3,497.19 239.43,499.93 235.71,500.8C233.88,501.23 233.18,501.33 231.64,501.83C229.5,502.52 226.69,504.57 224.16,504.81C221.7,505.04 218.94,503.06 216.69,503.36C214.69,503.63 213.18,505.63 211.26,506.03C209.33,506.43 207.52,505.96 205.14,505.76C201.76,505.48 197.78,504.72 192.92,504.25C185.78,503.57 173.54,502 166.42,502.44C161.54,502.74 157.26,505.33 154.2,504.82C152.17,504.48 151.67,502.78 149.44,502.08C145.2,500.75 136.13,500.55 129.74,500.37C123.7,500.2 117.98,501.87 112.08,500.91C105.76,499.88 101.59,494.96 93.06,493.87C77.03,491.81 38.04,505.74 21.74,500.97Q11.61,498 0,483.8Z" style="fill: rgb(230, 172, 33); fill-opacity: 0.05; stroke-width: 0;"/></g></g><g class="errorbars"/><g class="lines"><path class="js-line" d="M0,403.35Q10.57,426.67 21.74,431.48C37.6,438.31 77.03,422.32 93.06,424.38C101.59,425.47 105.78,429.71 112.08,431.42C118,433.03 123.67,433.74 129.74,434.54C136.11,435.38 145.12,436.48 149.44,436.25C151.58,436.14 152.24,435.41 154.2,435.33C157.32,435.19 161.56,436.19 166.42,436.61C173.56,437.23 185.78,437.74 192.92,438.42C197.78,438.89 201.76,439.65 205.14,439.93C207.52,440.13 209.33,440.6 211.26,440.2C213.18,439.8 214.7,438.31 216.69,437.53C218.95,436.65 221.65,435.57 224.16,435.32C226.63,435.08 229.67,436.79 231.64,436C233.43,435.28 233.59,432.56 235.71,431.31C239.25,429.22 248.45,426.75 252.69,427.64C255.64,428.26 256.3,431.85 259.49,432.58C265.05,433.85 274.6,428.05 284.62,428.03C299.54,428 330.69,426.42 340.32,437.92C350.71,450.32 350.79,494.39 340.32,503.75C330.66,512.39 299.56,498.09 284.62,497.52C274.61,497.14 265.21,498.84 259.49,498.41C256.49,498.18 255.46,497.09 252.69,497.13C248.3,497.19 239.43,499.93 235.71,500.8C233.88,501.23 233.18,501.33 231.64,501.83C229.5,502.52 226.69,504.57 224.16,504.81C221.7,505.04 218.94,503.06 216.69,503.36C214.69,503.63 213.18,505.63 211.26,506.03C209.33,506.43 207.52,505.96 205.14,505.76C201.76,505.48 197.78,504.72 192.92,504.25C185.78,503.57 173.54,502 166.42,502.44C161.54,502.74 157.26,505.33 154.2,504.82C152.17,504.48 151.67,502.78 149.44,502.08C145.2,500.75 136.13,500.55 129.74,500.37C123.7,500.2 117.98,501.87 112.08,500.91C105.76,499.88 101.59,494.96 93.06,493.87C77.03,491.81 38.04,505.74 21.74,500.97Q11.61,498 0,483.8" style="vector-effect: non-scaling-stroke; fill: none; stroke: rgb(255, 255, 255); stroke-opacity: 0; stroke-width: 2px; opacity: 1;"/></g><g class="points"/><g class="text"/></g><g class="trace scatter trace5855a8" style="stroke-miterlimit: 2; opacity: 1;"><g class="fills"><g><path class="js-fill" d="M0,438.63Q11.53,452.83 21.74,456.5C38,462.34 76.89,457.75 93.06,456.65C101.45,456.08 105.88,453.74 112.08,454.02C118.1,454.3 123.68,456.83 129.74,458.14C136.12,459.52 145.18,460.59 149.44,462.08C151.64,462.85 152.17,464.03 154.2,464.53C157.26,465.29 161.64,465.4 166.42,464.68C173.64,463.59 185.72,457.84 192.92,456.14C197.72,455.01 201.76,454.42 205.14,454.27C207.52,454.16 209.28,454.62 211.26,454.65C213.12,454.68 214.74,454.48 216.69,454.46C218.98,454.44 221.67,454.67 224.16,454.6C226.65,454.53 229.52,454.14 231.64,454.02C233.2,453.93 233.98,453.4 235.71,453.87C239.55,454.91 248.18,462.7 252.69,464.65C255.36,465.8 256.8,464.79 259.49,466.38C265.65,470.02 273.6,490.96 284.62,493.2C298.81,496.08 331.44,462.74 340.32,468.52C348.46,473.82 348.93,509.42 340.32,519.72C331.27,530.55 299.43,530.89 284.62,529.78C274.48,529.02 265.25,522.93 259.49,521.23C256.53,520.35 255.42,520.42 252.69,519.51C248.26,518.03 239.48,513.08 235.71,512.39C233.94,512.06 233.2,512.44 231.64,512.53C229.52,512.65 226.65,513.05 224.16,513.12C221.67,513.19 218.98,512.96 216.69,512.98C214.74,513 213.12,513.2 211.26,513.17C209.28,513.14 207.52,512.67 205.14,512.78C201.76,512.93 197.76,513.84 192.92,514.66C185.77,515.87 173.59,518.93 166.42,519.54C161.59,519.95 157.26,520.15 154.2,519.39C152.17,518.89 151.66,517.49 149.44,516.94C145.19,515.88 136.09,517.44 129.74,516.66C123.65,515.91 118.1,512.81 112.08,512.53C105.88,512.25 101.45,514.6 93.06,515.17C76.89,516.27 38.36,518.85 21.74,515.01Q12.07,512.78 0,504.46Z" style="fill: rgb(0, 51, 255); fill-opacity: 0.05; stroke-width: 0;"/></g></g><g class="errorbars"/><g class="lines"><path class="js-line" d="M0,438.63Q11.53,452.83 21.74,456.5C38,462.34 76.89,457.75 93.06,456.65C101.45,456.08 105.88,453.74 112.08,454.02C118.1,454.3 123.68,456.83 129.74,458.14C136.12,459.52 145.18,460.59 149.44,462.08C151.64,462.85 152.17,464.03 154.2,464.53C157.26,465.29 161.64,465.4 166.42,464.68C173.64,463.59 185.72,457.84 192.92,456.14C197.72,455.01 201.76,454.42 205.14,454.27C207.52,454.16 209.28,454.62 211.26,454.65C213.12,454.68 214.74,454.48 216.69,454.46C218.98,454.44 221.67,454.67 224.16,454.6C226.65,454.53 229.52,454.14 231.64,454.02C233.2,453.93 233.98,453.4 235.71,453.87C239.55,454.91 248.18,462.7 252.69,464.65C255.36,465.8 256.8,464.79 259.49,466.38C265.65,470.02 273.6,490.96 284.62,493.2C298.81,496.08 331.44,462.74 340.32,468.52C348.46,473.82 348.93,509.42 340.32,519.72C331.27,530.55 299.43,530.89 284.62,529.78C274.48,529.02 265.25,522.93 259.49,521.23C256.53,520.35 255.42,520.42 252.69,519.51C248.26,518.03 239.48,513.08 235.71,512.39C233.94,512.06 233.2,512.44 231.64,512.53C229.52,512.65 226.65,513.05 224.16,513.12C221.67,513.19 218.98,512.96 216.69,512.98C214.74,513 213.12,513.2 211.26,513.17C209.28,513.14 207.52,512.67 205.14,512.78C201.76,512.93 197.76,513.84 192.92,514.66C185.77,515.87 173.59,518.93 166.42,519.54C161.59,519.95 157.26,520.15 154.2,519.39C152.17,518.89 151.66,517.49 149.44,516.94C145.19,515.88 136.09,517.44 129.74,516.66C123.65,515.91 118.1,512.81 112.08,512.53C105.88,512.25 101.45,514.6 93.06,515.17C76.89,516.27 38.36,518.85 21.74,515.01Q12.07,512.78 0,504.46" style="vector-effect: non-scaling-stroke; fill: none; stroke: rgb(255, 255, 255); stroke-opacity: 0; stroke-width: 2px; opacity: 1;"/></g><g class="points"/><g class="text"/></g><g class="trace scatter trace12da0b" style="stroke-miterlimit: 2; opacity: 1;"><g class="fills"><g><path class="js-fill" d="M0,448.87Q12.58,446.36 21.74,447.73C38.84,450.29 76.79,473.01 93.06,473.74C101.35,474.11 105.8,469.48 112.08,468.67C118.02,467.9 123.72,469.23 129.74,468.72C136.15,468.17 145.1,465.69 149.44,465.28C151.56,465.08 152.26,465.46 154.2,465.21C157.35,464.81 161.53,462.79 166.42,462.22C173.52,461.39 185.78,462.1 192.92,462.4C197.78,462.6 201.77,463.43 205.14,463.33C207.53,463.26 209.3,462.32 211.26,462.48C213.14,462.64 214.93,462.95 216.69,464.19C219.29,466.02 221.35,473.35 224.16,474.07C226.44,474.65 229.48,471.21 231.64,470.71C233.16,470.36 233.89,470.54 235.71,470.57C239.43,470.63 248.34,472.18 252.69,471.67C255.5,471.34 256.64,470.96 259.49,469.58C265.38,466.73 274.18,453.6 284.62,452.28C299.18,450.43 331.38,459.85 340.32,472.64C348.63,484.52 348.86,517.07 340.32,523.84C331.29,531 299.4,509.7 284.62,510.8C274.46,511.55 265.25,518.75 259.49,520.78C256.54,521.82 255.5,522.54 252.69,522.87C248.34,523.38 239.43,521.83 235.71,521.77C233.89,521.74 233.2,521.91 231.64,521.91C229.52,521.9 226.62,522.07 224.16,521.61C221.63,521.14 218.99,519.8 216.69,519.05C214.74,518.41 213.14,517.5 211.26,517.34C209.3,517.18 207.53,518.12 205.14,518.19C201.77,518.29 197.78,517.46 192.92,517.26C185.78,516.96 173.56,517.29 166.42,517.07C161.57,516.92 157.33,516.47 154.2,516.41C152.25,516.37 151.56,516.28 149.44,516.48C145.1,516.89 136.15,519.38 129.74,519.93C123.72,520.44 118.07,519.66 112.08,519.87C105.85,520.09 101.39,521.63 93.06,521.28C76.84,520.6 38.69,510.8 21.74,509.9Q12.44,509.41 0,511.04Z" style="fill: rgb(140, 0, 0); fill-opacity: 0.05; stroke-width: 0;"/></g></g><g class="errorbars"/><g class="lines"><path class="js-line" d="M0,448.87Q12.58,446.36 21.74,447.73C38.84,450.29 76.79,473.01 93.06,473.74C101.35,474.11 105.8,469.48 112.08,468.67C118.02,467.9 123.72,469.23 129.74,468.72C136.15,468.17 145.1,465.69 149.44,465.28C151.56,465.08 152.26,465.46 154.2,465.21C157.35,464.81 161.53,462.79 166.42,462.22C173.52,461.39 185.78,462.1 192.92,462.4C197.78,462.6 201.77,463.43 205.14,463.33C207.53,463.26 209.3,462.32 211.26,462.48C213.14,462.64 214.93,462.95 216.69,464.19C219.29,466.02 221.35,473.35 224.16,474.07C226.44,474.65 229.48,471.21 231.64,470.71C233.16,470.36 233.89,470.54 235.71,470.57C239.43,470.63 248.34,472.18 252.69,471.67C255.5,471.34 256.64,470.96 259.49,469.58C265.38,466.73 274.18,453.6 284.62,452.28C299.18,450.43 331.38,459.85 340.32,472.64C348.63,484.52 348.86,517.07 340.32,523.84C331.29,531 299.4,509.7 284.62,510.8C274.46,511.55 265.25,518.75 259.49,520.78C256.54,521.82 255.5,522.54 252.69,522.87C248.34,523.38 239.43,521.83 235.71,521.77C233.89,521.74 233.2,521.91 231.64,521.91C229.52,521.9 226.62,522.07 224.16,521.61C221.63,521.14 218.99,519.8 216.69,519.05C214.74,518.41 213.14,517.5 211.26,517.34C209.3,517.18 207.53,518.12 205.14,518.19C201.77,518.29 197.78,517.46 192.92,517.26C185.78,516.96 173.56,517.29 166.42,517.07C161.57,516.92 157.33,516.47 154.2,516.41C152.25,516.37 151.56,516.28 149.44,516.48C145.1,516.89 136.15,519.38 129.74,519.93C123.72,520.44 118.07,519.66 112.08,519.87C105.85,520.09 101.39,521.63 93.06,521.28C76.84,520.6 38.69,510.8 21.74,509.9Q12.44,509.41 0,511.04" style="vector-effect: non-scaling-stroke; fill: none; stroke: rgb(255, 255, 255); stroke-opacity: 0; stroke-width: 2px; opacity: 1;"/></g><g class="points"/><g class="text"/></g><g class="trace scatter trace8795b4" style="stroke-miterlimit: 2; opacity: 1;"><g class="fills"/><g class="errorbars"/><g class="lines"><path class="js-line" d="M0,145.49Q12.44,145.5 21.74,146.47C38.69,148.23 77.43,162.3 93.06,158.12C102.17,155.68 105.56,146.45 112.08,142.58C117.83,139.17 123.71,137.95 129.74,135.41C136.14,132.72 145.07,128.31 149.44,126.84C151.53,126.14 152.29,126.37 154.2,125.68C157.38,124.53 161.57,122.08 166.42,119.67C173.57,116.11 185.64,108.94 192.92,106.32C197.65,104.62 201.76,103.63 205.14,103.53C207.52,103.46 209.28,104.53 211.26,104.57C213.12,104.61 214.73,103.97 216.69,103.87C218.98,103.75 221.67,103.99 224.16,104.06C226.65,104.13 229.53,104.05 231.64,104.31C233.21,104.5 233.88,104.86 235.71,105.17C239.42,105.8 248.53,105.36 252.69,107.35C255.78,108.83 256.24,113.27 259.49,113.88C265.02,114.91 274.37,104.77 284.62,103.34Q299.33,101.29 340.32,110.03" style="vector-effect: non-scaling-stroke; fill: none; stroke: rgb(38, 16, 96); stroke-opacity: 1; stroke-width: 7px; opacity: 1;"/></g><g class="points"/><g class="text"/></g><g class="trace scatter trace197d89" style="stroke-miterlimit: 2; opacity: 1;"><g class="fills"/><g class="errorbars"/><g class="lines"/><g class="points"><path class="point" transform="translate(0,144.96)" d="M7.5,0A7.5,7.5 0 1,1 0,-7.5A7.5,7.5 0 0,1 7.5,0Z" style="opacity: 1; stroke-width: 0px; fill: rgb(38, 16, 96); fill-opacity: 0.25;"/><path class="point" transform="translate(21.74,146.38)" d="M7.5,0A7.5,7.5 0 1,1 0,-7.5A7.5,7.5 0 0,1 7.5,0Z" style="opacity: 1; stroke-width: 0px; fill: rgb(38, 16, 96); fill-opacity: 0.25;"/><path class="point" transform="translate(93.06,174.79)" d="M7.5,0A7.5,7.5 0 1,1 0,-7.5A7.5,7.5 0 0,1 7.5,0Z" style="opacity: 1; stroke-width: 0px; fill: rgb(38, 16, 96); fill-opacity: 0.25;"/><path class="point" transform="translate(112.08,139.27)" d="M7.5,0A7.5,7.5 0 1,1 0,-7.5A7.5,7.5 0 0,1 7.5,0Z" style="opacity: 1; stroke-width: 0px; fill: rgb(38, 16, 96); fill-opacity: 0.25;"/><path class="point" transform="translate(129.74,139.27)" d="M7.5,0A7.5,7.5 0 1,1 0,-7.5A7.5,7.5 0 0,1 7.5,0Z" style="opacity: 1; stroke-width: 0px; fill: rgb(38, 16, 96); fill-opacity: 0.25;"/><path class="point" transform="translate(149.44,125.06)" d="M7.5,0A7.5,7.5 0 1,1 0,-7.5A7.5,7.5 0 0,1 7.5,0Z" style="opacity: 1; stroke-width: 0px; fill: rgb(38, 16, 96); fill-opacity: 0.25;"/><path class="point" transform="translate(154.2,132.17)" d="M7.5,0A7.5,7.5 0 1,1 0,-7.5A7.5,7.5 0 0,1 7.5,0Z" style="opacity: 1; stroke-width: 0px; fill: rgb(38, 16, 96); fill-opacity: 0.25;"/><path class="point" transform="translate(166.42,117.96)" d="M7.5,0A7.5,7.5 0 1,1 0,-7.5A7.5,7.5 0 0,1 7.5,0Z" style="opacity: 1; stroke-width: 0px; fill: rgb(38, 16, 96); fill-opacity: 0.25;"/><path class="point" transform="translate(192.92,103.75)" d="M7.5,0A7.5,7.5 0 1,1 0,-7.5A7.5,7.5 0 0,1 7.5,0Z" style="opacity: 1; stroke-width: 0px; fill: rgb(38, 16, 96); fill-opacity: 0.25;"/><path class="point" transform="translate(205.14,88.12)" d="M7.5,0A7.5,7.5 0 1,1 0,-7.5A7.5,7.5 0 0,1 7.5,0Z" style="opacity: 1; stroke-width: 0px; fill: rgb(38, 16, 96); fill-opacity: 0.25;"/><path class="point" transform="translate(211.26,117.96)" d="M7.5,0A7.5,7.5 0 1,1 0,-7.5A7.5,7.5 0 0,1 7.5,0Z" style="opacity: 1; stroke-width: 0px; fill: rgb(38, 16, 96); fill-opacity: 0.25;"/><path class="point" transform="translate(216.69,96.65)" d="M7.5,0A7.5,7.5 0 1,1 0,-7.5A7.5,7.5 0 0,1 7.5,0Z" style="opacity: 1; stroke-width: 0px; fill: rgb(38, 16, 96); fill-opacity: 0.25;"/><path class="point" transform="translate(224.16,103.75)" d="M7.5,0A7.5,7.5 0 1,1 0,-7.5A7.5,7.5 0 0,1 7.5,0Z" style="opacity: 1; stroke-width: 0px; fill: rgb(38, 16, 96); fill-opacity: 0.25;"/><path class="point" transform="translate(231.64,96.65)" d="M7.5,0A7.5,7.5 0 1,1 0,-7.5A7.5,7.5 0 0,1 7.5,0Z" style="opacity: 1; stroke-width: 0px; fill: rgb(38, 16, 96); fill-opacity: 0.25;"/><path class="point" transform="translate(235.71,110.86)" d="M7.5,0A7.5,7.5 0 1,1 0,-7.5A7.5,7.5 0 0,1 7.5,0Z" style="opacity: 1; stroke-width: 0px; fill: rgb(38, 16, 96); fill-opacity: 0.25;"/><path class="point" transform="translate(252.69,82.44)" d="M7.5,0A7.5,7.5 0 1,1 0,-7.5A7.5,7.5 0 0,1 7.5,0Z" style="opacity: 1; stroke-width: 0px; fill: rgb(38, 16, 96); fill-opacity: 0.25;"/><path class="point" transform="translate(259.49,153.48)" d="M7.5,0A7.5,7.5 0 1,1 0,-7.5A7.5,7.5 0 0,1 7.5,0Z" style="opacity: 1; stroke-width: 0px; fill: rgb(38, 16, 96); fill-opacity: 0.25;"/><path class="point" transform="translate(284.62,92.38)" d="M7.5,0A7.5,7.5 0 1,1 0,-7.5A7.5,7.5 0 0,1 7.5,0Z" style="opacity: 1; stroke-width: 0px; fill: rgb(38, 16, 96); fill-opacity: 0.25;"/><path class="point" transform="translate(340.32,110.86)" d="M7.5,0A7.5,7.5 0 1,1 0,-7.5A7.5,7.5 0 0,1 7.5,0Z" style="opacity: 1; stroke-width: 0px; fill: rgb(38, 16, 96); fill-opacity: 0.25;"/></g><g class="text"/></g><g class="trace scatter trace681965" style="stroke-miterlimit: 2; opacity: 1;"><g class="fills"/><g class="errorbars"/><g class="lines"><path class="js-line" d="M0,328.46Q13.09,321.26 21.74,313.22C39.57,296.65 75.65,239.5 93.06,225.76C100.59,219.82 105.69,218.23 112.08,216.59C117.93,215.09 124.51,212.65 129.74,215.65C137.9,220.34 144.22,250.54 149.44,253.95C151.18,255.09 152.53,253.26 154.2,254.25C157.86,256.42 160.91,267.44 166.42,273.61C173.13,281.13 185.37,291.8 192.92,294.89C197.46,296.74 201.78,296.31 205.14,296.11C207.54,295.97 209.3,295.33 211.26,294.75C213.14,294.2 214.76,292.65 216.69,292.75C219,292.87 221.61,296.05 224.16,296.38C226.6,296.7 229.55,295.52 231.64,294.91C233.23,294.45 233.84,293.64 235.71,293.33C239.39,292.71 248.62,295.96 252.69,293.99C256.04,292.37 256.23,285.08 259.49,284.69C265.01,284.04 275.2,307.03 284.62,306.03Q300.3,304.36 340.32,233.44" style="vector-effect: non-scaling-stroke; fill: none; stroke: rgb(0, 68, 148); stroke-opacity: 1; stroke-width: 7px; opacity: 1;"/></g><g class="points"/><g class="text"/></g><g class="trace scatter traceec7a21" style="stroke-miterlimit: 2; opacity: 1;"><g class="fills"/><g class="errorbars"/><g class="lines"/><g class="points"><path class="point" transform="translate(0,336.77)" d="M7.5,0A7.5,7.5 0 1,1 0,-7.5A7.5,7.5 0 0,1 7.5,0Z" style="opacity: 1; stroke-width: 0px; fill: rgb(0, 68, 148); fill-opacity: 0.25;"/><path class="point" transform="translate(21.74,309.77)" d="M7.5,0A7.5,7.5 0 1,1 0,-7.5A7.5,7.5 0 0,1 7.5,0Z" style="opacity: 1; stroke-width: 0px; fill: rgb(0, 68, 148); fill-opacity: 0.25;"/><path class="point" transform="translate(93.06,231.63)" d="M7.5,0A7.5,7.5 0 1,1 0,-7.5A7.5,7.5 0 0,1 7.5,0Z" style="opacity: 1; stroke-width: 0px; fill: rgb(0, 68, 148); fill-opacity: 0.25;"/><path class="point" transform="translate(112.08,210.31)" d="M7.5,0A7.5,7.5 0 1,1 0,-7.5A7.5,7.5 0 0,1 7.5,0Z" style="opacity: 1; stroke-width: 0px; fill: rgb(0, 68, 148); fill-opacity: 0.25;"/><path class="point" transform="translate(129.74,160.58)" d="M7.5,0A7.5,7.5 0 1,1 0,-7.5A7.5,7.5 0 0,1 7.5,0Z" style="opacity: 1; stroke-width: 0px; fill: rgb(0, 68, 148); fill-opacity: 0.25;"/><path class="point" transform="translate(149.44,295.56)" d="M7.5,0A7.5,7.5 0 1,1 0,-7.5A7.5,7.5 0 0,1 7.5,0Z" style="opacity: 1; stroke-width: 0px; fill: rgb(0, 68, 148); fill-opacity: 0.25;"/><path class="point" transform="translate(154.2,210.31)" d="M7.5,0A7.5,7.5 0 1,1 0,-7.5A7.5,7.5 0 0,1 7.5,0Z" style="opacity: 1; stroke-width: 0px; fill: rgb(0, 68, 148); fill-opacity: 0.25;"/><path class="point" transform="translate(166.42,301.25)" d="M7.5,0A7.5,7.5 0 1,1 0,-7.5A7.5,7.5 0 0,1 7.5,0Z" style="opacity: 1; stroke-width: 0px; fill: rgb(0, 68, 148); fill-opacity: 0.25;"/><path class="point" transform="translate(192.92,309.77)" d="M7.5,0A7.5,7.5 0 1,1 0,-7.5A7.5,7.5 0 0,1 7.5,0Z" style="opacity: 1; stroke-width: 0px; fill: rgb(0, 68, 148); fill-opacity: 0.25;"/><path class="point" transform="translate(205.14,309.77)" d="M7.5,0A7.5,7.5 0 1,1 0,-7.5A7.5,7.5 0 0,1 7.5,0Z" style="opacity: 1; stroke-width: 0px; fill: rgb(0, 68, 148); fill-opacity: 0.25;"/><path class="point" transform="translate(211.26,302.67)" d="M7.5,0A7.5,7.5 0 1,1 0,-7.5A7.5,7.5 0 0,1 7.5,0Z" style="opacity: 1; stroke-width: 0px; fill: rgb(0, 68, 148); fill-opacity: 0.25;"/><path class="point" transform="translate(216.69,252.94)" d="M7.5,0A7.5,7.5 0 1,1 0,-7.5A7.5,7.5 0 0,1 7.5,0Z" style="opacity: 1; stroke-width: 0px; fill: rgb(0, 68, 148); fill-opacity: 0.25;"/><path class="point" transform="translate(224.16,328.24)" d="M7.5,0A7.5,7.5 0 1,1 0,-7.5A7.5,7.5 0 0,1 7.5,0Z" style="opacity: 1; stroke-width: 0px; fill: rgb(0, 68, 148); fill-opacity: 0.25;"/><path class="point" transform="translate(231.64,302.67)" d="M7.5,0A7.5,7.5 0 1,1 0,-7.5A7.5,7.5 0 0,1 7.5,0Z" style="opacity: 1; stroke-width: 0px; fill: rgb(0, 68, 148); fill-opacity: 0.25;"/><path class="point" transform="translate(235.71,274.25)" d="M7.5,0A7.5,7.5 0 1,1 0,-7.5A7.5,7.5 0 0,1 7.5,0Z" style="opacity: 1; stroke-width: 0px; fill: rgb(0, 68, 148); fill-opacity: 0.25;"/><path class="point" transform="translate(252.69,338.19)" d="M7.5,0A7.5,7.5 0 1,1 0,-7.5A7.5,7.5 0 0,1 7.5,0Z" style="opacity: 1; stroke-width: 0px; fill: rgb(0, 68, 148); fill-opacity: 0.25;"/><path class="point" transform="translate(259.49,224.52)" d="M7.5,0A7.5,7.5 0 1,1 0,-7.5A7.5,7.5 0 0,1 7.5,0Z" style="opacity: 1; stroke-width: 0px; fill: rgb(0, 68, 148); fill-opacity: 0.25;"/><path class="point" transform="translate(284.62,332.5)" d="M7.5,0A7.5,7.5 0 1,1 0,-7.5A7.5,7.5 0 0,1 7.5,0Z" style="opacity: 1; stroke-width: 0px; fill: rgb(0, 68, 148); fill-opacity: 0.25;"/><path class="point" transform="translate(340.32,224.52)" d="M7.5,0A7.5,7.5 0 1,1 0,-7.5A7.5,7.5 0 0,1 7.5,0Z" style="opacity: 1; stroke-width: 0px; fill: rgb(0, 68, 148); fill-opacity: 0.25;"/></g><g class="text"/></g><g class="trace scatter traceba01b2" style="stroke-miterlimit: 2; opacity: 1;"><g class="fills"/><g class="errorbars"/><g class="lines"><path class="js-line" d="M0,400.79Q12.12,408.25 21.74,411.37C38.39,416.77 76.83,422.09 93.06,423.93C101.38,424.87 105.86,424.45 112.08,424.91C118.08,425.36 124.19,428.77 129.74,426.64C136.86,423.91 144.94,408.95 149.44,405.11C151.43,403.41 152.33,403.48 154.2,401.98C157.43,399.38 161.01,392.59 166.42,390.07C173.17,386.93 185.78,387.42 192.92,387.44C197.77,387.46 201.77,388.76 205.14,388.73C207.53,388.71 209.3,387.78 211.26,387.98C213.15,388.17 214.71,389.57 216.69,389.82C218.96,390.1 221.68,389.63 224.16,389.24C226.67,388.85 229.51,387.65 231.64,387.46C233.19,387.32 233.93,387.96 235.71,387.69C239.47,387.12 248.27,382.68 252.69,381.35C255.43,380.53 256.54,379.63 259.49,379.79C265.25,380.11 274.49,385.73 284.62,388.59Q299.44,392.77 340.32,400.64" style="vector-effect: non-scaling-stroke; fill: none; stroke: rgb(0, 0, 0); stroke-opacity: 1; stroke-width: 7px; opacity: 1;"/></g><g class="points"/><g class="text"/></g><g class="trace scatter trace449baa" style="stroke-miterlimit: 2; opacity: 1;"><g class="fills"/><g class="errorbars"/><g class="lines"/><g class="points"><path class="point" transform="translate(0,395.02)" d="M7.5,0A7.5,7.5 0 1,1 0,-7.5A7.5,7.5 0 0,1 7.5,0Z" style="opacity: 1; stroke-width: 0px; fill: rgb(0, 0, 0); fill-opacity: 0.25;"/><path class="point" transform="translate(21.74,416.33)" d="M7.5,0A7.5,7.5 0 1,1 0,-7.5A7.5,7.5 0 0,1 7.5,0Z" style="opacity: 1; stroke-width: 0px; fill: rgb(0, 0, 0); fill-opacity: 0.25;"/><path class="point" transform="translate(93.06,423.44)" d="M7.5,0A7.5,7.5 0 1,1 0,-7.5A7.5,7.5 0 0,1 7.5,0Z" style="opacity: 1; stroke-width: 0px; fill: rgb(0, 0, 0); fill-opacity: 0.25;"/><path class="point" transform="translate(112.08,423.44)" d="M7.5,0A7.5,7.5 0 1,1 0,-7.5A7.5,7.5 0 0,1 7.5,0Z" style="opacity: 1; stroke-width: 0px; fill: rgb(0, 0, 0); fill-opacity: 0.25;"/><path class="point" transform="translate(129.74,458.96)" d="M7.5,0A7.5,7.5 0 1,1 0,-7.5A7.5,7.5 0 0,1 7.5,0Z" style="opacity: 1; stroke-width: 0px; fill: rgb(0, 0, 0); fill-opacity: 0.25;"/><path class="point" transform="translate(149.44,402.13)" d="M7.5,0A7.5,7.5 0 1,1 0,-7.5A7.5,7.5 0 0,1 7.5,0Z" style="opacity: 1; stroke-width: 0px; fill: rgb(0, 0, 0); fill-opacity: 0.25;"/><path class="point" transform="translate(154.2,409.23)" d="M7.5,0A7.5,7.5 0 1,1 0,-7.5A7.5,7.5 0 0,1 7.5,0Z" style="opacity: 1; stroke-width: 0px; fill: rgb(0, 0, 0); fill-opacity: 0.25;"/><path class="point" transform="translate(166.42,362.34)" d="M7.5,0A7.5,7.5 0 1,1 0,-7.5A7.5,7.5 0 0,1 7.5,0Z" style="opacity: 1; stroke-width: 0px; fill: rgb(0, 0, 0); fill-opacity: 0.25;"/><path class="point" transform="translate(192.92,380.81)" d="M7.5,0A7.5,7.5 0 1,1 0,-7.5A7.5,7.5 0 0,1 7.5,0Z" style="opacity: 1; stroke-width: 0px; fill: rgb(0, 0, 0); fill-opacity: 0.25;"/><path class="point" transform="translate(205.14,397.86)" d="M7.5,0A7.5,7.5 0 1,1 0,-7.5A7.5,7.5 0 0,1 7.5,0Z" style="opacity: 1; stroke-width: 0px; fill: rgb(0, 0, 0); fill-opacity: 0.25;"/><path class="point" transform="translate(211.26,366.6)" d="M7.5,0A7.5,7.5 0 1,1 0,-7.5A7.5,7.5 0 0,1 7.5,0Z" style="opacity: 1; stroke-width: 0px; fill: rgb(0, 0, 0); fill-opacity: 0.25;"/><path class="point" transform="translate(216.69,409.23)" d="M7.5,0A7.5,7.5 0 1,1 0,-7.5A7.5,7.5 0 0,1 7.5,0Z" style="opacity: 1; stroke-width: 0px; fill: rgb(0, 0, 0); fill-opacity: 0.25;"/><path class="point" transform="translate(224.16,396.44)" d="M7.5,0A7.5,7.5 0 1,1 0,-7.5A7.5,7.5 0 0,1 7.5,0Z" style="opacity: 1; stroke-width: 0px; fill: rgb(0, 0, 0); fill-opacity: 0.25;"/><path class="point" transform="translate(231.64,373.71)" d="M7.5,0A7.5,7.5 0 1,1 0,-7.5A7.5,7.5 0 0,1 7.5,0Z" style="opacity: 1; stroke-width: 0px; fill: rgb(0, 0, 0); fill-opacity: 0.25;"/><path class="point" transform="translate(235.71,402.13)" d="M7.5,0A7.5,7.5 0 1,1 0,-7.5A7.5,7.5 0 0,1 7.5,0Z" style="opacity: 1; stroke-width: 0px; fill: rgb(0, 0, 0); fill-opacity: 0.25;"/><path class="point" transform="translate(252.69,373.71)" d="M7.5,0A7.5,7.5 0 1,1 0,-7.5A7.5,7.5 0 0,1 7.5,0Z" style="opacity: 1; stroke-width: 0px; fill: rgb(0, 0, 0); fill-opacity: 0.25;"/><path class="point" transform="translate(259.49,366.6)" d="M7.5,0A7.5,7.5 0 1,1 0,-7.5A7.5,7.5 0 0,1 7.5,0Z" style="opacity: 1; stroke-width: 0px; fill: rgb(0, 0, 0); fill-opacity: 0.25;"/><path class="point" transform="translate(284.62,396.44)" d="M7.5,0A7.5,7.5 0 1,1 0,-7.5A7.5,7.5 0 0,1 7.5,0Z" style="opacity: 1; stroke-width: 0px; fill: rgb(0, 0, 0); fill-opacity: 0.25;"/><path class="point" transform="translate(340.32,402.13)" d="M7.5,0A7.5,7.5 0 1,1 0,-7.5A7.5,7.5 0 0,1 7.5,0Z" style="opacity: 1; stroke-width: 0px; fill: rgb(0, 0, 0); fill-opacity: 0.25;"/></g><g class="text"/></g><g class="trace scatter trace82062f" style="stroke-miterlimit: 2; opacity: 1;"><g class="fills"/><g class="errorbars"/><g class="lines"><path class="js-line" d="M0,393.7Q12.51,395.09 21.74,393.87C38.77,391.62 76.91,373.65 93.06,374.08C101.47,374.3 105.89,380.64 112.08,380.46C118.11,380.28 123.64,375.5 129.74,373.34C136.08,371.1 145.09,368.38 149.44,367.31C151.55,366.79 152.29,367.02 154.2,366.41C157.38,365.39 161.46,362.45 166.42,360.79C173.46,358.43 185.74,356 192.92,354.99C197.74,354.31 201.77,354.64 205.14,354.22C207.54,353.92 209.29,352.97 211.26,353.06C213.14,353.15 214.72,354.48 216.69,354.64C218.96,354.83 221.72,353.36 224.16,353.75C226.71,354.16 229.5,356.45 231.64,357.26C233.18,357.84 233.87,358.02 235.71,358.43C239.41,359.26 248.32,360.26 252.69,361.18C255.48,361.77 256.48,362.74 259.49,362.95C265.2,363.34 275.23,357.32 284.62,359.97Q300.34,364.4 340.32,403.84" style="vector-effect: non-scaling-stroke; fill: none; stroke: rgb(234, 35, 41); stroke-opacity: 1; stroke-width: 7px; opacity: 1;"/></g><g class="points"/><g class="text"/></g><g class="trace scatter traceeae210" style="stroke-miterlimit: 2; opacity: 1;"><g class="fills"/><g class="errorbars"/><g class="lines"/><g class="points"><path class="point" transform="translate(0,393.6)" d="M7.5,0A7.5,7.5 0 1,1 0,-7.5A7.5,7.5 0 0,1 7.5,0Z" style="opacity: 1; stroke-width: 0px; fill: rgb(234, 35, 41); fill-opacity: 0.25;"/><path class="point" transform="translate(21.74,395.02)" d="M7.5,0A7.5,7.5 0 1,1 0,-7.5A7.5,7.5 0 0,1 7.5,0Z" style="opacity: 1; stroke-width: 0px; fill: rgb(234, 35, 41); fill-opacity: 0.25;"/><path class="point" transform="translate(93.06,366.6)" d="M7.5,0A7.5,7.5 0 1,1 0,-7.5A7.5,7.5 0 0,1 7.5,0Z" style="opacity: 1; stroke-width: 0px; fill: rgb(234, 35, 41); fill-opacity: 0.25;"/><path class="point" transform="translate(112.08,395.02)" d="M7.5,0A7.5,7.5 0 1,1 0,-7.5A7.5,7.5 0 0,1 7.5,0Z" style="opacity: 1; stroke-width: 0px; fill: rgb(234, 35, 41); fill-opacity: 0.25;"/><path class="point" transform="translate(129.74,373.71)" d="M7.5,0A7.5,7.5 0 1,1 0,-7.5A7.5,7.5 0 0,1 7.5,0Z" style="opacity: 1; stroke-width: 0px; fill: rgb(234, 35, 41); fill-opacity: 0.25;"/><path class="point" transform="translate(149.44,366.6)" d="M7.5,0A7.5,7.5 0 1,1 0,-7.5A7.5,7.5 0 0,1 7.5,0Z" style="opacity: 1; stroke-width: 0px; fill: rgb(234, 35, 41); fill-opacity: 0.25;"/><path class="point" transform="translate(154.2,373.71)" d="M7.5,0A7.5,7.5 0 1,1 0,-7.5A7.5,7.5 0 0,1 7.5,0Z" style="opacity: 1; stroke-width: 0px; fill: rgb(234, 35, 41); fill-opacity: 0.25;"/><path class="point" transform="translate(166.42,352.4)" d="M7.5,0A7.5,7.5 0 1,1 0,-7.5A7.5,7.5 0 0,1 7.5,0Z" style="opacity: 1; stroke-width: 0px; fill: rgb(234, 35, 41); fill-opacity: 0.25;"/><path class="point" transform="translate(192.92,352.4)" d="M7.5,0A7.5,7.5 0 1,1 0,-7.5A7.5,7.5 0 0,1 7.5,0Z" style="opacity: 1; stroke-width: 0px; fill: rgb(234, 35, 41); fill-opacity: 0.25;"/><path class="point" transform="translate(205.14,360.92)" d="M7.5,0A7.5,7.5 0 1,1 0,-7.5A7.5,7.5 0 0,1 7.5,0Z" style="opacity: 1; stroke-width: 0px; fill: rgb(234, 35, 41); fill-opacity: 0.25;"/><path class="point" transform="translate(211.26,331.08)" d="M7.5,0A7.5,7.5 0 1,1 0,-7.5A7.5,7.5 0 0,1 7.5,0Z" style="opacity: 1; stroke-width: 0px; fill: rgb(234, 35, 41); fill-opacity: 0.25;"/><path class="point" transform="translate(216.69,373.71)" d="M7.5,0A7.5,7.5 0 1,1 0,-7.5A7.5,7.5 0 0,1 7.5,0Z" style="opacity: 1; stroke-width: 0px; fill: rgb(234, 35, 41); fill-opacity: 0.25;"/><path class="point" transform="translate(224.16,326.82)" d="M7.5,0A7.5,7.5 0 1,1 0,-7.5A7.5,7.5 0 0,1 7.5,0Z" style="opacity: 1; stroke-width: 0px; fill: rgb(234, 35, 41); fill-opacity: 0.25;"/><path class="point" transform="translate(231.64,366.6)" d="M7.5,0A7.5,7.5 0 1,1 0,-7.5A7.5,7.5 0 0,1 7.5,0Z" style="opacity: 1; stroke-width: 0px; fill: rgb(234, 35, 41); fill-opacity: 0.25;"/><path class="point" transform="translate(235.71,366.6)" d="M7.5,0A7.5,7.5 0 1,1 0,-7.5A7.5,7.5 0 0,1 7.5,0Z" style="opacity: 1; stroke-width: 0px; fill: rgb(234, 35, 41); fill-opacity: 0.25;"/><path class="point" transform="translate(252.69,359.5)" d="M7.5,0A7.5,7.5 0 1,1 0,-7.5A7.5,7.5 0 0,1 7.5,0Z" style="opacity: 1; stroke-width: 0px; fill: rgb(234, 35, 41); fill-opacity: 0.25;"/><path class="point" transform="translate(259.49,373.71)" d="M7.5,0A7.5,7.5 0 1,1 0,-7.5A7.5,7.5 0 0,1 7.5,0Z" style="opacity: 1; stroke-width: 0px; fill: rgb(234, 35, 41); fill-opacity: 0.25;"/><path class="point" transform="translate(284.62,353.82)" d="M7.5,0A7.5,7.5 0 1,1 0,-7.5A7.5,7.5 0 0,1 7.5,0Z" style="opacity: 1; stroke-width: 0px; fill: rgb(234, 35, 41); fill-opacity: 0.25;"/><path class="point" transform="translate(340.32,409.23)" d="M7.5,0A7.5,7.5 0 1,1 0,-7.5A7.5,7.5 0 0,1 7.5,0Z" style="opacity: 1; stroke-width: 0px; fill: rgb(234, 35, 41); fill-opacity: 0.25;"/></g><g class="text"/></g><g class="trace scatter trace48381a" style="stroke-miterlimit: 2; opacity: 1;"><g class="fills"/><g class="errorbars"/><g class="lines"><path class="js-line" d="M0,417.78Q8.62,377.73 21.74,370.89C37.28,362.79 77.14,378.11 93.06,383.54C101.73,386.49 105.9,390.04 112.08,393.48C118.12,396.84 123.97,399.45 129.74,403.94C136.47,409.18 145.15,419.21 149.44,423.79C151.61,426.11 152.19,427.09 154.2,429.18C157.28,432.39 161.12,437.71 166.42,440.91C173.23,445.02 185.71,448.06 192.92,449.75C197.71,450.88 201.76,451.07 205.14,451.47C207.53,451.75 209.31,452.29 211.26,452.04C213.15,451.8 214.71,450.53 216.69,450.09C218.95,449.59 221.69,449.89 224.16,449.41C226.68,448.92 229.54,447.9 231.64,447.13C233.22,446.55 233.84,445.7 235.71,445.37C239.38,444.73 248.3,446.5 252.69,446.43C255.47,446.39 256.51,446.15 259.49,445.79C265.23,445.09 274.61,443.71 284.62,442.04Q299.56,439.55 340.32,431.8" style="vector-effect: non-scaling-stroke; fill: none; stroke: rgb(93, 140, 0); stroke-opacity: 1; stroke-width: 7px; opacity: 1;"/></g><g class="points"/><g class="text"/></g><g class="trace scatter tracec19483" style="stroke-miterlimit: 2; opacity: 1;"><g class="fills"/><g class="errorbars"/><g class="lines"/><g class="points"><path class="point" transform="translate(0,443.33)" d="M7.5,0A7.5,7.5 0 1,1 0,-7.5A7.5,7.5 0 0,1 7.5,0Z" style="opacity: 1; stroke-width: 0px; fill: rgb(93, 140, 0); fill-opacity: 0.25;"/><path class="point" transform="translate(21.74,345.29)" d="M7.5,0A7.5,7.5 0 1,1 0,-7.5A7.5,7.5 0 0,1 7.5,0Z" style="opacity: 1; stroke-width: 0px; fill: rgb(93, 140, 0); fill-opacity: 0.25;"/><path class="point" transform="translate(93.06,373.71)" d="M7.5,0A7.5,7.5 0 1,1 0,-7.5A7.5,7.5 0 0,1 7.5,0Z" style="opacity: 1; stroke-width: 0px; fill: rgb(93, 140, 0); fill-opacity: 0.25;"/><path class="point" transform="translate(112.08,387.92)" d="M7.5,0A7.5,7.5 0 1,1 0,-7.5A7.5,7.5 0 0,1 7.5,0Z" style="opacity: 1; stroke-width: 0px; fill: rgb(93, 140, 0); fill-opacity: 0.25;"/><path class="point" transform="translate(129.74,387.92)" d="M7.5,0A7.5,7.5 0 1,1 0,-7.5A7.5,7.5 0 0,1 7.5,0Z" style="opacity: 1; stroke-width: 0px; fill: rgb(93, 140, 0); fill-opacity: 0.25;"/><path class="point" transform="translate(149.44,409.23)" d="M7.5,0A7.5,7.5 0 1,1 0,-7.5A7.5,7.5 0 0,1 7.5,0Z" style="opacity: 1; stroke-width: 0px; fill: rgb(93, 140, 0); fill-opacity: 0.25;"/><path class="point" transform="translate(154.2,437.65)" d="M7.5,0A7.5,7.5 0 1,1 0,-7.5A7.5,7.5 0 0,1 7.5,0Z" style="opacity: 1; stroke-width: 0px; fill: rgb(93, 140, 0); fill-opacity: 0.25;"/><path class="point" transform="translate(166.42,461.8)" d="M7.5,0A7.5,7.5 0 1,1 0,-7.5A7.5,7.5 0 0,1 7.5,0Z" style="opacity: 1; stroke-width: 0px; fill: rgb(93, 140, 0); fill-opacity: 0.25;"/><path class="point" transform="translate(192.92,451.85)" d="M7.5,0A7.5,7.5 0 1,1 0,-7.5A7.5,7.5 0 0,1 7.5,0Z" style="opacity: 1; stroke-width: 0px; fill: rgb(93, 140, 0); fill-opacity: 0.25;"/><path class="point" transform="translate(205.14,451.85)" d="M7.5,0A7.5,7.5 0 1,1 0,-7.5A7.5,7.5 0 0,1 7.5,0Z" style="opacity: 1; stroke-width: 0px; fill: rgb(93, 140, 0); fill-opacity: 0.25;"/><path class="point" transform="translate(211.26,473.17)" d="M7.5,0A7.5,7.5 0 1,1 0,-7.5A7.5,7.5 0 0,1 7.5,0Z" style="opacity: 1; stroke-width: 0px; fill: rgb(93, 140, 0); fill-opacity: 0.25;"/><path class="point" transform="translate(216.69,437.65)" d="M7.5,0A7.5,7.5 0 1,1 0,-7.5A7.5,7.5 0 0,1 7.5,0Z" style="opacity: 1; stroke-width: 0px; fill: rgb(93, 140, 0); fill-opacity: 0.25;"/><path class="point" transform="translate(224.16,458.96)" d="M7.5,0A7.5,7.5 0 1,1 0,-7.5A7.5,7.5 0 0,1 7.5,0Z" style="opacity: 1; stroke-width: 0px; fill: rgb(93, 140, 0); fill-opacity: 0.25;"/><path class="point" transform="translate(231.64,451.85)" d="M7.5,0A7.5,7.5 0 1,1 0,-7.5A7.5,7.5 0 0,1 7.5,0Z" style="opacity: 1; stroke-width: 0px; fill: rgb(93, 140, 0); fill-opacity: 0.25;"/><path class="point" transform="translate(235.71,423.44)" d="M7.5,0A7.5,7.5 0 1,1 0,-7.5A7.5,7.5 0 0,1 7.5,0Z" style="opacity: 1; stroke-width: 0px; fill: rgb(93, 140, 0); fill-opacity: 0.25;"/><path class="point" transform="translate(252.69,451.85)" d="M7.5,0A7.5,7.5 0 1,1 0,-7.5A7.5,7.5 0 0,1 7.5,0Z" style="opacity: 1; stroke-width: 0px; fill: rgb(93, 140, 0); fill-opacity: 0.25;"/><path class="point" transform="translate(259.49,444.75)" d="M7.5,0A7.5,7.5 0 1,1 0,-7.5A7.5,7.5 0 0,1 7.5,0Z" style="opacity: 1; stroke-width: 0px; fill: rgb(93, 140, 0); fill-opacity: 0.25;"/><path class="point" transform="translate(284.62,439.07)" d="M7.5,0A7.5,7.5 0 1,1 0,-7.5A7.5,7.5 0 0,1 7.5,0Z" style="opacity: 1; stroke-width: 0px; fill: rgb(93, 140, 0); fill-opacity: 0.25;"/><path class="point" transform="translate(340.32,430.54)" d="M7.5,0A7.5,7.5 0 1,1 0,-7.5A7.5,7.5 0 0,1 7.5,0Z" style="opacity: 1; stroke-width: 0px; fill: rgb(93, 140, 0); fill-opacity: 0.25;"/></g><g class="text"/></g><g class="trace scatter trace694cff" style="stroke-miterlimit: 2; opacity: 1;"><g class="fills"/><g class="errorbars"/><g class="lines"><path class="js-line" d="M0,428.71Q12.49,428.95 21.74,430.56C38.75,433.52 77.21,442.53 93.06,449.48C101.82,453.33 105.79,457.9 112.08,461.61C118.01,465.11 123.51,470.23 129.74,471.21C135.96,472.19 145.1,468.12 149.44,467.53C151.56,467.24 152.27,467.5 154.2,467.13C157.35,466.53 161.51,464.37 166.42,463.47C173.51,462.17 185.77,461.72 192.92,461.53C197.77,461.4 201.79,461.32 205.14,461.78C207.55,462.11 209.27,463.23 211.26,463.36C213.11,463.48 214.74,463 216.69,462.7C218.99,462.34 221.66,461.7 224.16,461.27C226.65,460.85 229.53,460.1 231.64,460.15C233.2,460.18 233.88,460.86 235.71,460.94C239.42,461.1 248.3,459.64 252.69,459.12C255.47,458.79 256.51,458.25 259.49,458.24C265.22,458.23 274.58,460.94 284.62,461.37Q299.52,462.01 340.32,459.22" style="vector-effect: non-scaling-stroke; fill: none; stroke: rgb(114, 55, 105); stroke-opacity: 1; stroke-width: 7px; opacity: 1;"/></g><g class="points"/><g class="text"/></g><g class="trace scatter trace7e882a" style="stroke-miterlimit: 2; opacity: 1;"><g class="fills"/><g class="errorbars"/><g class="lines"/><g class="points"><path class="point" transform="translate(0,427.7)" d="M7.5,0A7.5,7.5 0 1,1 0,-7.5A7.5,7.5 0 0,1 7.5,0Z" style="opacity: 1; stroke-width: 0px; fill: rgb(114, 55, 105); fill-opacity: 0.25;"/><path class="point" transform="translate(21.74,430.54)" d="M7.5,0A7.5,7.5 0 1,1 0,-7.5A7.5,7.5 0 0,1 7.5,0Z" style="opacity: 1; stroke-width: 0px; fill: rgb(114, 55, 105); fill-opacity: 0.25;"/><path class="point" transform="translate(93.06,437.65)" d="M7.5,0A7.5,7.5 0 1,1 0,-7.5A7.5,7.5 0 0,1 7.5,0Z" style="opacity: 1; stroke-width: 0px; fill: rgb(114, 55, 105); fill-opacity: 0.25;"/><path class="point" transform="translate(112.08,458.96)" d="M7.5,0A7.5,7.5 0 1,1 0,-7.5A7.5,7.5 0 0,1 7.5,0Z" style="opacity: 1; stroke-width: 0px; fill: rgb(114, 55, 105); fill-opacity: 0.25;"/><path class="point" transform="translate(129.74,487.38)" d="M7.5,0A7.5,7.5 0 1,1 0,-7.5A7.5,7.5 0 0,1 7.5,0Z" style="opacity: 1; stroke-width: 0px; fill: rgb(114, 55, 105); fill-opacity: 0.25;"/><path class="point" transform="translate(149.44,466.06)" d="M7.5,0A7.5,7.5 0 1,1 0,-7.5A7.5,7.5 0 0,1 7.5,0Z" style="opacity: 1; stroke-width: 0px; fill: rgb(114, 55, 105); fill-opacity: 0.25;"/><path class="point" transform="translate(154.2,473.17)" d="M7.5,0A7.5,7.5 0 1,1 0,-7.5A7.5,7.5 0 0,1 7.5,0Z" style="opacity: 1; stroke-width: 0px; fill: rgb(114, 55, 105); fill-opacity: 0.25;"/><path class="point" transform="translate(166.42,456.12)" d="M7.5,0A7.5,7.5 0 1,1 0,-7.5A7.5,7.5 0 0,1 7.5,0Z" style="opacity: 1; stroke-width: 0px; fill: rgb(114, 55, 105); fill-opacity: 0.25;"/><path class="point" transform="translate(192.92,458.96)" d="M7.5,0A7.5,7.5 0 1,1 0,-7.5A7.5,7.5 0 0,1 7.5,0Z" style="opacity: 1; stroke-width: 0px; fill: rgb(114, 55, 105); fill-opacity: 0.25;"/><path class="point" transform="translate(205.14,450.43)" d="M7.5,0A7.5,7.5 0 1,1 0,-7.5A7.5,7.5 0 0,1 7.5,0Z" style="opacity: 1; stroke-width: 0px; fill: rgb(114, 55, 105); fill-opacity: 0.25;"/><path class="point" transform="translate(211.26,480.27)" d="M7.5,0A7.5,7.5 0 1,1 0,-7.5A7.5,7.5 0 0,1 7.5,0Z" style="opacity: 1; stroke-width: 0px; fill: rgb(114, 55, 105); fill-opacity: 0.25;"/><path class="point" transform="translate(216.69,466.06)" d="M7.5,0A7.5,7.5 0 1,1 0,-7.5A7.5,7.5 0 0,1 7.5,0Z" style="opacity: 1; stroke-width: 0px; fill: rgb(114, 55, 105); fill-opacity: 0.25;"/><path class="point" transform="translate(224.16,458.96)" d="M7.5,0A7.5,7.5 0 1,1 0,-7.5A7.5,7.5 0 0,1 7.5,0Z" style="opacity: 1; stroke-width: 0px; fill: rgb(114, 55, 105); fill-opacity: 0.25;"/><path class="point" transform="translate(231.64,444.75)" d="M7.5,0A7.5,7.5 0 1,1 0,-7.5A7.5,7.5 0 0,1 7.5,0Z" style="opacity: 1; stroke-width: 0px; fill: rgb(114, 55, 105); fill-opacity: 0.25;"/><path class="point" transform="translate(235.71,473.17)" d="M7.5,0A7.5,7.5 0 1,1 0,-7.5A7.5,7.5 0 0,1 7.5,0Z" style="opacity: 1; stroke-width: 0px; fill: rgb(114, 55, 105); fill-opacity: 0.25;"/><path class="point" transform="translate(252.69,458.96)" d="M7.5,0A7.5,7.5 0 1,1 0,-7.5A7.5,7.5 0 0,1 7.5,0Z" style="opacity: 1; stroke-width: 0px; fill: rgb(114, 55, 105); fill-opacity: 0.25;"/><path class="point" transform="translate(259.49,451.85)" d="M7.5,0A7.5,7.5 0 1,1 0,-7.5A7.5,7.5 0 0,1 7.5,0Z" style="opacity: 1; stroke-width: 0px; fill: rgb(114, 55, 105); fill-opacity: 0.25;"/><path class="point" transform="translate(284.62,464.64)" d="M7.5,0A7.5,7.5 0 1,1 0,-7.5A7.5,7.5 0 0,1 7.5,0Z" style="opacity: 1; stroke-width: 0px; fill: rgb(114, 55, 105); fill-opacity: 0.25;"/><path class="point" transform="translate(340.32,458.96)" d="M7.5,0A7.5,7.5 0 1,1 0,-7.5A7.5,7.5 0 0,1 7.5,0Z" style="opacity: 1; stroke-width: 0px; fill: rgb(114, 55, 105); fill-opacity: 0.25;"/></g><g class="text"/></g><g class="trace scatter trace329b81" style="stroke-miterlimit: 2; opacity: 1;"><g class="fills"/><g class="errorbars"/><g class="lines"><path class="js-line" d="M0,466.05Q12.39,469.11 21.74,471.23C38.64,475.06 76.81,484.9 93.06,486.54C101.36,487.38 105.95,487.44 112.08,486.35C118.17,485.26 123.94,483.23 129.74,480.04C136.43,476.36 144.92,466.61 149.44,464.68C151.42,463.83 152.26,464.35 154.2,463.99C157.34,463.4 161.54,461.41 166.42,461.18C173.54,460.84 185.8,463.44 192.92,464.68C197.79,465.53 201.77,466.49 205.14,467.32C207.54,467.91 209.31,468.29 211.26,469C213.15,469.69 214.69,470.93 216.69,471.49C218.94,472.12 221.67,472.07 224.16,472.34C226.65,472.61 229.54,472.71 231.64,473.09C233.22,473.38 233.89,474.17 235.71,474.18C239.43,474.21 248.3,469.89 252.69,469.9C255.47,469.91 256.48,471.23 259.49,471.65C265.19,472.44 274.61,472.59 284.62,472.21Q299.55,471.65 340.32,466.74" style="vector-effect: non-scaling-stroke; fill: none; stroke: rgb(240, 125, 0); stroke-opacity: 1; stroke-width: 7px; opacity: 1;"/></g><g class="points"/><g class="text"/></g><g class="trace scatter traceb1b3aa" style="stroke-miterlimit: 2; opacity: 1;"><g class="fills"/><g class="errorbars"/><g class="lines"/><g class="points"><path class="point" transform="translate(0,463.22)" d="M7.5,0A7.5,7.5 0 1,1 0,-7.5A7.5,7.5 0 0,1 7.5,0Z" style="opacity: 1; stroke-width: 0px; fill: rgb(240, 125, 0); fill-opacity: 0.25;"/><path class="point" transform="translate(21.74,473.17)" d="M7.5,0A7.5,7.5 0 1,1 0,-7.5A7.5,7.5 0 0,1 7.5,0Z" style="opacity: 1; stroke-width: 0px; fill: rgb(240, 125, 0); fill-opacity: 0.25;"/><path class="point" transform="translate(93.06,487.38)" d="M7.5,0A7.5,7.5 0 1,1 0,-7.5A7.5,7.5 0 0,1 7.5,0Z" style="opacity: 1; stroke-width: 0px; fill: rgb(240, 125, 0); fill-opacity: 0.25;"/><path class="point" transform="translate(112.08,494.48)" d="M7.5,0A7.5,7.5 0 1,1 0,-7.5A7.5,7.5 0 0,1 7.5,0Z" style="opacity: 1; stroke-width: 0px; fill: rgb(240, 125, 0); fill-opacity: 0.25;"/><path class="point" transform="translate(129.74,494.48)" d="M7.5,0A7.5,7.5 0 1,1 0,-7.5A7.5,7.5 0 0,1 7.5,0Z" style="opacity: 1; stroke-width: 0px; fill: rgb(240, 125, 0); fill-opacity: 0.25;"/><path class="point" transform="translate(149.44,451.85)" d="M7.5,0A7.5,7.5 0 1,1 0,-7.5A7.5,7.5 0 0,1 7.5,0Z" style="opacity: 1; stroke-width: 0px; fill: rgb(240, 125, 0); fill-opacity: 0.25;"/><path class="point" transform="translate(154.2,466.06)" d="M7.5,0A7.5,7.5 0 1,1 0,-7.5A7.5,7.5 0 0,1 7.5,0Z" style="opacity: 1; stroke-width: 0px; fill: rgb(240, 125, 0); fill-opacity: 0.25;"/><path class="point" transform="translate(166.42,450.43)" d="M7.5,0A7.5,7.5 0 1,1 0,-7.5A7.5,7.5 0 0,1 7.5,0Z" style="opacity: 1; stroke-width: 0px; fill: rgb(240, 125, 0); fill-opacity: 0.25;"/><path class="point" transform="translate(192.92,458.96)" d="M7.5,0A7.5,7.5 0 1,1 0,-7.5A7.5,7.5 0 0,1 7.5,0Z" style="opacity: 1; stroke-width: 0px; fill: rgb(240, 125, 0); fill-opacity: 0.25;"/><path class="point" transform="translate(205.14,461.8)" d="M7.5,0A7.5,7.5 0 1,1 0,-7.5A7.5,7.5 0 0,1 7.5,0Z" style="opacity: 1; stroke-width: 0px; fill: rgb(240, 125, 0); fill-opacity: 0.25;"/><path class="point" transform="translate(211.26,458.96)" d="M7.5,0A7.5,7.5 0 1,1 0,-7.5A7.5,7.5 0 0,1 7.5,0Z" style="opacity: 1; stroke-width: 0px; fill: rgb(240, 125, 0); fill-opacity: 0.25;"/><path class="point" transform="translate(216.69,487.38)" d="M7.5,0A7.5,7.5 0 1,1 0,-7.5A7.5,7.5 0 0,1 7.5,0Z" style="opacity: 1; stroke-width: 0px; fill: rgb(240, 125, 0); fill-opacity: 0.25;"/><path class="point" transform="translate(224.16,473.17)" d="M7.5,0A7.5,7.5 0 1,1 0,-7.5A7.5,7.5 0 0,1 7.5,0Z" style="opacity: 1; stroke-width: 0px; fill: rgb(240, 125, 0); fill-opacity: 0.25;"/><path class="point" transform="translate(231.64,466.06)" d="M7.5,0A7.5,7.5 0 1,1 0,-7.5A7.5,7.5 0 0,1 7.5,0Z" style="opacity: 1; stroke-width: 0px; fill: rgb(240, 125, 0); fill-opacity: 0.25;"/><path class="point" transform="translate(235.71,494.48)" d="M7.5,0A7.5,7.5 0 1,1 0,-7.5A7.5,7.5 0 0,1 7.5,0Z" style="opacity: 1; stroke-width: 0px; fill: rgb(240, 125, 0); fill-opacity: 0.25;"/><path class="point" transform="translate(252.69,451.85)" d="M7.5,0A7.5,7.5 0 1,1 0,-7.5A7.5,7.5 0 0,1 7.5,0Z" style="opacity: 1; stroke-width: 0px; fill: rgb(240, 125, 0); fill-opacity: 0.25;"/><path class="point" transform="translate(259.49,480.27)" d="M7.5,0A7.5,7.5 0 1,1 0,-7.5A7.5,7.5 0 0,1 7.5,0Z" style="opacity: 1; stroke-width: 0px; fill: rgb(240, 125, 0); fill-opacity: 0.25;"/><path class="point" transform="translate(284.62,473.17)" d="M7.5,0A7.5,7.5 0 1,1 0,-7.5A7.5,7.5 0 0,1 7.5,0Z" style="opacity: 1; stroke-width: 0px; fill: rgb(240, 125, 0); fill-opacity: 0.25;"/><path class="point" transform="translate(340.32,466.06)" d="M7.5,0A7.5,7.5 0 1,1 0,-7.5A7.5,7.5 0 0,1 7.5,0Z" style="opacity: 1; stroke-width: 0px; fill: rgb(240, 125, 0); fill-opacity: 0.25;"/></g><g class="text"/></g><g class="trace scatter trace073502" style="stroke-miterlimit: 2; opacity: 1;"><g class="fills"/><g class="errorbars"/><g class="lines"><path class="js-line" d="M0,444.54Q11.08,463.65 21.74,467.6C37.78,473.54 77.05,457.87 93.06,460.08C101.62,461.26 105.74,466.34 112.08,467.66C117.97,468.88 123.7,467.81 129.74,468.2C136.13,468.61 145.12,469.52 149.44,470.15C151.58,470.46 152.24,470.99 154.2,471.07C157.32,471.21 161.56,469.88 166.42,469.79C173.56,469.66 185.79,470.76 192.92,471.63C197.79,472.23 201.75,473.56 205.14,473.78C207.52,473.93 209.29,473.73 211.26,473.51C213.13,473.3 214.74,472.89 216.69,472.52C218.98,472.09 221.66,471.43 224.16,471.08C226.64,470.73 229.59,471.11 231.64,470.4C233.28,469.83 233.79,468.57 235.71,467.77C239.35,466.26 248.33,463.86 252.69,464.13C255.5,464.31 256.46,466.16 259.49,466.51C265.17,467.16 274.61,463.54 284.62,463.74Q299.56,464.04 340.32,472.13" style="vector-effect: non-scaling-stroke; fill: none; stroke: rgb(230, 172, 33); stroke-opacity: 1; stroke-width: 7px; opacity: 1;"/></g><g class="points"/><g class="text"/></g><g class="trace scatter trace8c7b7e" style="stroke-miterlimit: 2; opacity: 1;"><g class="fills"/><g class="errorbars"/><g class="lines"/><g class="points"><path class="point" transform="translate(0,431.96)" d="M7.5,0A7.5,7.5 0 1,1 0,-7.5A7.5,7.5 0 0,1 7.5,0Z" style="opacity: 1; stroke-width: 0px; fill: rgb(230, 172, 33); fill-opacity: 0.25;"/><path class="point" transform="translate(21.74,480.27)" d="M7.5,0A7.5,7.5 0 1,1 0,-7.5A7.5,7.5 0 0,1 7.5,0Z" style="opacity: 1; stroke-width: 0px; fill: rgb(230, 172, 33); fill-opacity: 0.25;"/><path class="point" transform="translate(93.06,451.85)" d="M7.5,0A7.5,7.5 0 1,1 0,-7.5A7.5,7.5 0 0,1 7.5,0Z" style="opacity: 1; stroke-width: 0px; fill: rgb(230, 172, 33); fill-opacity: 0.25;"/><path class="point" transform="translate(112.08,473.17)" d="M7.5,0A7.5,7.5 0 1,1 0,-7.5A7.5,7.5 0 0,1 7.5,0Z" style="opacity: 1; stroke-width: 0px; fill: rgb(230, 172, 33); fill-opacity: 0.25;"/><path class="point" transform="translate(129.74,466.06)" d="M7.5,0A7.5,7.5 0 1,1 0,-7.5A7.5,7.5 0 0,1 7.5,0Z" style="opacity: 1; stroke-width: 0px; fill: rgb(230, 172, 33); fill-opacity: 0.25;"/><path class="point" transform="translate(149.44,466.06)" d="M7.5,0A7.5,7.5 0 1,1 0,-7.5A7.5,7.5 0 0,1 7.5,0Z" style="opacity: 1; stroke-width: 0px; fill: rgb(230, 172, 33); fill-opacity: 0.25;"/><path class="point" transform="translate(154.2,480.27)" d="M7.5,0A7.5,7.5 0 1,1 0,-7.5A7.5,7.5 0 0,1 7.5,0Z" style="opacity: 1; stroke-width: 0px; fill: rgb(230, 172, 33); fill-opacity: 0.25;"/><path class="point" transform="translate(166.42,464.64)" d="M7.5,0A7.5,7.5 0 1,1 0,-7.5A7.5,7.5 0 0,1 7.5,0Z" style="opacity: 1; stroke-width: 0px; fill: rgb(230, 172, 33); fill-opacity: 0.25;"/><path class="point" transform="translate(192.92,466.06)" d="M7.5,0A7.5,7.5 0 1,1 0,-7.5A7.5,7.5 0 0,1 7.5,0Z" style="opacity: 1; stroke-width: 0px; fill: rgb(230, 172, 33); fill-opacity: 0.25;"/><path class="point" transform="translate(205.14,481.69)" d="M7.5,0A7.5,7.5 0 1,1 0,-7.5A7.5,7.5 0 0,1 7.5,0Z" style="opacity: 1; stroke-width: 0px; fill: rgb(230, 172, 33); fill-opacity: 0.25;"/><path class="point" transform="translate(211.26,480.27)" d="M7.5,0A7.5,7.5 0 1,1 0,-7.5A7.5,7.5 0 0,1 7.5,0Z" style="opacity: 1; stroke-width: 0px; fill: rgb(230, 172, 33); fill-opacity: 0.25;"/><path class="point" transform="translate(216.69,473.17)" d="M7.5,0A7.5,7.5 0 1,1 0,-7.5A7.5,7.5 0 0,1 7.5,0Z" style="opacity: 1; stroke-width: 0px; fill: rgb(230, 172, 33); fill-opacity: 0.25;"/><path class="point" transform="translate(224.16,466.06)" d="M7.5,0A7.5,7.5 0 1,1 0,-7.5A7.5,7.5 0 0,1 7.5,0Z" style="opacity: 1; stroke-width: 0px; fill: rgb(230, 172, 33); fill-opacity: 0.25;"/><path class="point" transform="translate(231.64,494.48)" d="M7.5,0A7.5,7.5 0 1,1 0,-7.5A7.5,7.5 0 0,1 7.5,0Z" style="opacity: 1; stroke-width: 0px; fill: rgb(230, 172, 33); fill-opacity: 0.25;"/><path class="point" transform="translate(235.71,444.75)" d="M7.5,0A7.5,7.5 0 1,1 0,-7.5A7.5,7.5 0 0,1 7.5,0Z" style="opacity: 1; stroke-width: 0px; fill: rgb(230, 172, 33); fill-opacity: 0.25;"/><path class="point" transform="translate(252.69,444.75)" d="M7.5,0A7.5,7.5 0 1,1 0,-7.5A7.5,7.5 0 0,1 7.5,0Z" style="opacity: 1; stroke-width: 0px; fill: rgb(230, 172, 33); fill-opacity: 0.25;"/><path class="point" transform="translate(259.49,480.27)" d="M7.5,0A7.5,7.5 0 1,1 0,-7.5A7.5,7.5 0 0,1 7.5,0Z" style="opacity: 1; stroke-width: 0px; fill: rgb(230, 172, 33); fill-opacity: 0.25;"/><path class="point" transform="translate(284.62,460.38)" d="M7.5,0A7.5,7.5 0 1,1 0,-7.5A7.5,7.5 0 0,1 7.5,0Z" style="opacity: 1; stroke-width: 0px; fill: rgb(230, 172, 33); fill-opacity: 0.25;"/><path class="point" transform="translate(340.32,473.17)" d="M7.5,0A7.5,7.5 0 1,1 0,-7.5A7.5,7.5 0 0,1 7.5,0Z" style="opacity: 1; stroke-width: 0px; fill: rgb(230, 172, 33); fill-opacity: 0.25;"/></g><g class="text"/></g><g class="trace scatter trace9f3f23" style="stroke-miterlimit: 2; opacity: 1;"><g class="fills"/><g class="errorbars"/><g class="lines"><path class="js-line" d="M0,471.42Q11.76,483.36 21.74,486.47C38.13,491.57 76.87,486.78 93.06,486.32C101.43,486.08 105.88,484.9 112.08,485.29C118.1,485.67 123.69,487.42 129.74,488.49C136.12,489.61 145.12,490.94 149.44,491.86C151.58,492.31 152.23,492.84 154.2,493.07C157.31,493.44 161.6,493.5 166.42,492.92C173.6,492.06 185.75,488.18 192.92,486.83C197.75,485.92 201.76,485.39 205.14,485.04C207.52,484.79 209.28,484.69 211.26,484.66C213.12,484.63 214.74,484.83 216.69,484.85C218.98,484.87 221.67,484.64 224.16,484.71C226.65,484.78 229.52,485.17 231.64,485.29C233.2,485.38 233.94,485.03 235.71,485.44C239.49,486.31 248.26,491.35 252.69,492.95C255.42,493.94 256.65,493.55 259.49,494.88C265.39,497.63 274.11,510.22 284.62,511.94Q299.12,514.31 340.32,496.39" style="vector-effect: non-scaling-stroke; fill: none; stroke: rgb(0, 51, 255); stroke-opacity: 1; stroke-width: 7px; opacity: 1;"/></g><g class="points"/><g class="text"/></g><g class="trace scatter trace36ab58" style="stroke-miterlimit: 2; opacity: 1;"><g class="fills"/><g class="errorbars"/><g class="lines"/><g class="points"><path class="point" transform="translate(0,463.22)" d="M7.5,0A7.5,7.5 0 1,1 0,-7.5A7.5,7.5 0 0,1 7.5,0Z" style="opacity: 1; stroke-width: 0px; fill: rgb(0, 51, 255); fill-opacity: 0.25;"/><path class="point" transform="translate(21.74,494.48)" d="M7.5,0A7.5,7.5 0 1,1 0,-7.5A7.5,7.5 0 0,1 7.5,0Z" style="opacity: 1; stroke-width: 0px; fill: rgb(0, 51, 255); fill-opacity: 0.25;"/><path class="point" transform="translate(93.06,487.38)" d="M7.5,0A7.5,7.5 0 1,1 0,-7.5A7.5,7.5 0 0,1 7.5,0Z" style="opacity: 1; stroke-width: 0px; fill: rgb(0, 51, 255); fill-opacity: 0.25;"/><path class="point" transform="translate(112.08,480.27)" d="M7.5,0A7.5,7.5 0 1,1 0,-7.5A7.5,7.5 0 0,1 7.5,0Z" style="opacity: 1; stroke-width: 0px; fill: rgb(0, 51, 255); fill-opacity: 0.25;"/><path class="point" transform="translate(129.74,487.38)" d="M7.5,0A7.5,7.5 0 1,1 0,-7.5A7.5,7.5 0 0,1 7.5,0Z" style="opacity: 1; stroke-width: 0px; fill: rgb(0, 51, 255); fill-opacity: 0.25;"/><path class="point" transform="translate(149.44,487.38)" d="M7.5,0A7.5,7.5 0 1,1 0,-7.5A7.5,7.5 0 0,1 7.5,0Z" style="opacity: 1; stroke-width: 0px; fill: rgb(0, 51, 255); fill-opacity: 0.25;"/><path class="point" transform="translate(154.2,501.58)" d="M7.5,0A7.5,7.5 0 1,1 0,-7.5A7.5,7.5 0 0,1 7.5,0Z" style="opacity: 1; stroke-width: 0px; fill: rgb(0, 51, 255); fill-opacity: 0.25;"/><path class="point" transform="translate(166.42,498.74)" d="M7.5,0A7.5,7.5 0 1,1 0,-7.5A7.5,7.5 0 0,1 7.5,0Z" style="opacity: 1; stroke-width: 0px; fill: rgb(0, 51, 255); fill-opacity: 0.25;"/><path class="point" transform="translate(192.92,487.38)" d="M7.5,0A7.5,7.5 0 1,1 0,-7.5A7.5,7.5 0 0,1 7.5,0Z" style="opacity: 1; stroke-width: 0px; fill: rgb(0, 51, 255); fill-opacity: 0.25;"/><path class="point" transform="translate(205.14,483.11)" d="M7.5,0A7.5,7.5 0 1,1 0,-7.5A7.5,7.5 0 0,1 7.5,0Z" style="opacity: 1; stroke-width: 0px; fill: rgb(0, 51, 255); fill-opacity: 0.25;"/><path class="point" transform="translate(211.26,480.27)" d="M7.5,0A7.5,7.5 0 1,1 0,-7.5A7.5,7.5 0 0,1 7.5,0Z" style="opacity: 1; stroke-width: 0px; fill: rgb(0, 51, 255); fill-opacity: 0.25;"/><path class="point" transform="translate(216.69,487.38)" d="M7.5,0A7.5,7.5 0 1,1 0,-7.5A7.5,7.5 0 0,1 7.5,0Z" style="opacity: 1; stroke-width: 0px; fill: rgb(0, 51, 255); fill-opacity: 0.25;"/><path class="point" transform="translate(224.16,480.27)" d="M7.5,0A7.5,7.5 0 1,1 0,-7.5A7.5,7.5 0 0,1 7.5,0Z" style="opacity: 1; stroke-width: 0px; fill: rgb(0, 51, 255); fill-opacity: 0.25;"/><path class="point" transform="translate(231.64,487.38)" d="M7.5,0A7.5,7.5 0 1,1 0,-7.5A7.5,7.5 0 0,1 7.5,0Z" style="opacity: 1; stroke-width: 0px; fill: rgb(0, 51, 255); fill-opacity: 0.25;"/><path class="point" transform="translate(235.71,473.17)" d="M7.5,0A7.5,7.5 0 1,1 0,-7.5A7.5,7.5 0 0,1 7.5,0Z" style="opacity: 1; stroke-width: 0px; fill: rgb(0, 51, 255); fill-opacity: 0.25;"/><path class="point" transform="translate(252.69,501.58)" d="M7.5,0A7.5,7.5 0 1,1 0,-7.5A7.5,7.5 0 0,1 7.5,0Z" style="opacity: 1; stroke-width: 0px; fill: rgb(0, 51, 255); fill-opacity: 0.25;"/><path class="point" transform="translate(259.49,494.48)" d="M7.5,0A7.5,7.5 0 1,1 0,-7.5A7.5,7.5 0 0,1 7.5,0Z" style="opacity: 1; stroke-width: 0px; fill: rgb(0, 51, 255); fill-opacity: 0.25;"/><path class="point" transform="translate(340.32,494.48)" d="M7.5,0A7.5,7.5 0 1,1 0,-7.5A7.5,7.5 0 0,1 7.5,0Z" style="opacity: 1; stroke-width: 0px; fill: rgb(0, 51, 255); fill-opacity: 0.25;"/></g><g class="text"/></g><g class="trace scatter trace979485" style="stroke-miterlimit: 2; opacity: 1;"><g class="fills"/><g class="errorbars"/><g class="lines"><path class="js-line" d="M0,479.47Q12.49,479.22 21.74,480.61C38.74,483.16 76.8,497.45 93.06,498.49C101.36,499.02 105.85,496.62 112.08,496.24C118.07,495.88 123.72,496.78 129.74,496.19C136.16,495.56 145.1,492.71 149.44,492.32C151.55,492.13 152.25,492.43 154.2,492.39C157.33,492.33 161.57,491.88 166.42,491.73C173.56,491.51 185.78,491.84 192.92,491.54C197.78,491.34 201.77,490.51 205.14,490.61C207.53,490.68 209.3,490.98 211.26,491.46C213.15,491.93 214.79,492.48 216.69,493.41C219.04,494.56 221.55,497.46 224.16,498.16C226.56,498.81 229.52,497.87 231.64,497.86C233.2,497.86 233.89,498.03 235.71,498C239.43,497.94 248.32,497.54 252.69,496.9C255.49,496.49 256.58,496.34 259.49,495.33C265.3,493.3 274.41,484.19 284.62,483.37Q299.36,482.18 340.32,499.59" style="vector-effect: non-scaling-stroke; fill: none; stroke: rgb(140, 0, 0); stroke-opacity: 1; stroke-width: 7px; opacity: 1;"/></g><g class="points"/><g class="text"/></g><g class="trace scatter tracede86bc" style="stroke-miterlimit: 2; opacity: 1;"><g class="fills"/><g class="errorbars"/><g class="lines"/><g class="points"><path class="point" transform="translate(0,478.85)" d="M7.5,0A7.5,7.5 0 1,1 0,-7.5A7.5,7.5 0 0,1 7.5,0Z" style="opacity: 1; stroke-width: 0px; fill: rgb(140, 0, 0); fill-opacity: 0.25;"/><path class="point" transform="translate(21.74,480.27)" d="M7.5,0A7.5,7.5 0 1,1 0,-7.5A7.5,7.5 0 0,1 7.5,0Z" style="opacity: 1; stroke-width: 0px; fill: rgb(140, 0, 0); fill-opacity: 0.25;"/><path class="point" transform="translate(93.06,501.58)" d="M7.5,0A7.5,7.5 0 1,1 0,-7.5A7.5,7.5 0 0,1 7.5,0Z" style="opacity: 1; stroke-width: 0px; fill: rgb(140, 0, 0); fill-opacity: 0.25;"/><path class="point" transform="translate(112.08,494.48)" d="M7.5,0A7.5,7.5 0 1,1 0,-7.5A7.5,7.5 0 0,1 7.5,0Z" style="opacity: 1; stroke-width: 0px; fill: rgb(140, 0, 0); fill-opacity: 0.25;"/><path class="point" transform="translate(129.74,501.58)" d="M7.5,0A7.5,7.5 0 1,1 0,-7.5A7.5,7.5 0 0,1 7.5,0Z" style="opacity: 1; stroke-width: 0px; fill: rgb(140, 0, 0); fill-opacity: 0.25;"/><path class="point" transform="translate(149.44,487.38)" d="M7.5,0A7.5,7.5 0 1,1 0,-7.5A7.5,7.5 0 0,1 7.5,0Z" style="opacity: 1; stroke-width: 0px; fill: rgb(140, 0, 0); fill-opacity: 0.25;"/><path class="point" transform="translate(154.2,494.48)" d="M7.5,0A7.5,7.5 0 1,1 0,-7.5A7.5,7.5 0 0,1 7.5,0Z" style="opacity: 1; stroke-width: 0px; fill: rgb(140, 0, 0); fill-opacity: 0.25;"/><path class="point" transform="translate(166.42,490.22)" d="M7.5,0A7.5,7.5 0 1,1 0,-7.5A7.5,7.5 0 0,1 7.5,0Z" style="opacity: 1; stroke-width: 0px; fill: rgb(140, 0, 0); fill-opacity: 0.25;"/><path class="point" transform="translate(192.92,494.48)" d="M7.5,0A7.5,7.5 0 1,1 0,-7.5A7.5,7.5 0 0,1 7.5,0Z" style="opacity: 1; stroke-width: 0px; fill: rgb(140, 0, 0); fill-opacity: 0.25;"/><path class="point" transform="translate(205.14,481.69)" d="M7.5,0A7.5,7.5 0 1,1 0,-7.5A7.5,7.5 0 0,1 7.5,0Z" style="opacity: 1; stroke-width: 0px; fill: rgb(140, 0, 0); fill-opacity: 0.25;"/><path class="point" transform="translate(211.26,480.27)" d="M7.5,0A7.5,7.5 0 1,1 0,-7.5A7.5,7.5 0 0,1 7.5,0Z" style="opacity: 1; stroke-width: 0px; fill: rgb(140, 0, 0); fill-opacity: 0.25;"/><path class="point" transform="translate(216.69,480.27)" d="M7.5,0A7.5,7.5 0 1,1 0,-7.5A7.5,7.5 0 0,1 7.5,0Z" style="opacity: 1; stroke-width: 0px; fill: rgb(140, 0, 0); fill-opacity: 0.25;"/><path class="point" transform="translate(231.64,494.48)" d="M7.5,0A7.5,7.5 0 1,1 0,-7.5A7.5,7.5 0 0,1 7.5,0Z" style="opacity: 1; stroke-width: 0px; fill: rgb(140, 0, 0); fill-opacity: 0.25;"/><path class="point" transform="translate(235.71,501.58)" d="M7.5,0A7.5,7.5 0 1,1 0,-7.5A7.5,7.5 0 0,1 7.5,0Z" style="opacity: 1; stroke-width: 0px; fill: rgb(140, 0, 0); fill-opacity: 0.25;"/><path class="point" transform="translate(252.69,501.58)" d="M7.5,0A7.5,7.5 0 1,1 0,-7.5A7.5,7.5 0 0,1 7.5,0Z" style="opacity: 1; stroke-width: 0px; fill: rgb(140, 0, 0); fill-opacity: 0.25;"/><path class="point" transform="translate(259.49,494.48)" d="M7.5,0A7.5,7.5 0 1,1 0,-7.5A7.5,7.5 0 0,1 7.5,0Z" style="opacity: 1; stroke-width: 0px; fill: rgb(140, 0, 0); fill-opacity: 0.25;"/><path class="point" transform="translate(284.62,470.33)" d="M7.5,0A7.5,7.5 0 1,1 0,-7.5A7.5,7.5 0 0,1 7.5,0Z" style="opacity: 1; stroke-width: 0px; fill: rgb(140, 0, 0); fill-opacity: 0.25;"/><path class="point" transform="translate(340.32,501.58)" d="M7.5,0A7.5,7.5 0 1,1 0,-7.5A7.5,7.5 0 0,1 7.5,0Z" style="opacity: 1; stroke-width: 0px; fill: rgb(140, 0, 0); fill-opacity: 0.25;"/></g><g class="text"/></g></g></g><g class="overplot"/><path class="xlines-above crisp" d="M0,0" style="fill: none;"/><path class="ylines-above crisp" d="M0,0" style="fill: none;"/><g class="overlines-above"/><g class="xaxislayer-above"><g class="xtick"><text text-anchor="middle" x="0" y="563" transform="translate(107.06,0)" style="font-family: 'Open Sans', verdana, arial, sans-serif; font-size: 12px; fill: rgb(42, 63, 95); fill-opacity: 1; white-space: pre; opacity: 1;">1.1.22</text></g><g class="xtick"><text text-anchor="middle" x="0" y="563" style="font-family: 'Open Sans', verdana, arial, sans-serif; font-size: 12px; fill: rgb(42, 63, 95); fill-opacity: 1; white-space: pre; opacity: 1;" transform="translate(230.01,0)">1.7.22</text></g><g class="xtick"><text text-anchor="middle" x="0" y="563" style="font-family: 'Open Sans', verdana, arial, sans-serif; font-size: 12px; fill: rgb(42, 63, 95); fill-opacity: 1; white-space: pre; opacity: 1;" transform="translate(355,0)">1.1.23</text></g><g class="xtick"><text text-anchor="middle" x="0" y="563" style="font-family: 'Open Sans', verdana, arial, sans-serif; font-size: 12px; fill: rgb(42, 63, 95); fill-opacity: 1; white-space: pre; opacity: 1;" transform="translate(477.95,0)">1.7.23</text></g><g class="xtick"><text text-anchor="middle" x="0" y="563" style="font-family: 'Open Sans', verdana, arial, sans-serif; font-size: 12px; fill: rgb(42, 63, 95); fill-opacity: 1; white-space: pre; opacity: 1;" transform="translate(602.94,0)">1.1.24</text></g><g class="xtick"><text text-anchor="middle" x="0" y="563" style="font-family: 'Open Sans', verdana, arial, sans-serif; font-size: 12px; fill: rgb(42, 63, 95); fill-opacity: 1; white-space: pre; opacity: 1;" transform="translate(726.57,0)">1.7.24</text></g><g class="xtick"><text text-anchor="middle" x="0" y="563" style="font-family: 'Open Sans', verdana, arial, sans-serif; font-size: 12px; fill: rgb(42, 63, 95); fill-opacity: 1; white-space: pre; opacity: 1;" transform="translate(851.56,0)">1.1.25</text></g><g class="xtick"><text text-anchor="middle" x="0" y="563" style="font-family: 'Open Sans', verdana, arial, sans-serif; font-size: 12px; fill: rgb(42, 63, 95); fill-opacity: 1; white-space: pre; opacity: 1;" transform="translate(974.51,0)">1.7.25</text></g></g><g class="yaxislayer-above"><g class="ytick"><text text-anchor="end" x="49" y="4.199999999999999" transform="translate(0,550)" style="font-family: 'Open Sans', verdana, arial, sans-serif; font-size: 12px; fill: rgb(42, 63, 95); fill-opacity: 1; white-space: pre; opacity: 1;">0%</text></g><g class="ytick"><text text-anchor="end" x="49" y="4.199999999999999" style="font-family: 'Open Sans', verdana, arial, sans-serif; font-size: 12px; fill: rgb(42, 63, 95); fill-opacity: 1; white-space: pre; opacity: 1;" transform="translate(0,478.96)">5%</text></g><g class="ytick"><text text-anchor="end" x="49" y="4.199999999999999" style="font-family: 'Open Sans', verdana, arial, sans-serif; font-size: 12px; fill: rgb(42, 63, 95); fill-opacity: 1; white-space: pre; opacity: 1;" transform="translate(0,407.92)">10%</text></g><g class="ytick"><text text-anchor="end" x="49" y="4.199999999999999" style="font-family: 'Open Sans', verdana, arial, sans-serif; font-size: 12px; fill: rgb(42, 63, 95); fill-opacity: 1; white-space: pre; opacity: 1;" transform="translate(0,336.88)">15%</text></g><g class="ytick"><text text-anchor="end" x="49" y="4.199999999999999" style="font-family: 'Open Sans', verdana, arial, sans-serif; font-size: 12px; fill: rgb(42, 63, 95); fill-opacity: 1; white-space: pre; opacity: 1;" transform="translate(0,265.83000000000004)">20%</text></g><g class="ytick"><text text-anchor="end" x="49" y="4.199999999999999" style="font-family: 'Open Sans', verdana, arial, sans-serif; font-size: 12px; fill: rgb(42, 63, 95); fill-opacity: 1; white-space: pre; opacity: 1;" transform="translate(0,194.79)">25%</text></g><g class="ytick"><text text-anchor="end" x="49" y="4.199999999999999" style="font-family: 'Open Sans', verdana, arial, sans-serif; font-size: 12px; fill: rgb(42, 63, 95); fill-opacity: 1; white-space: pre; opacity: 1;" transform="translate(0,123.75)">30%</text></g><g class="ytick"><text text-anchor="end" x="49" y="4.199999999999999" style="font-family: 'Open Sans', verdana, arial, sans-serif; font-size: 12px; fill: rgb(42, 63, 95); fill-opacity: 1; white-space: pre; opacity: 1;" transform="translate(0,52.71)">35%</text></g></g><g class="overaxes-above"/></g></g><g class="polarlayer"/><g class="smithlayer"/><g class="ternarylayer"/><g class="geolayer"/><g class="funnelarealayer"/><g class="pielayer"/><g class="iciclelayer"/><g class="treemaplayer"/><g class="sunburstlayer"/><g class="glimages"/><defs id="topdefs-aa542f"><g class="clips"/><clipPath id="legendaa542f"><rect width="131" height="200" x="0" y="0"/></clipPath></defs><g class="layer-above"><g class="imagelayer"/><g class="shapelayer"/></g><g class="infolayer"><g class="legend" pointer-events="all" transform="translate(1056.74,20)"><rect class="bg" shape-rendering="crispEdges" style="stroke: rgb(68, 68, 68); stroke-opacity: 1; fill: rgb(255, 255, 255); fill-opacity: 1; stroke-width: 0px;" width="131" height="200" x="0" y="0"/><g class="scrollbox" transform="" clip-path="url(#legendaa542f)"><g class="groups"><g class="traces" transform="translate(0,14.5)" style="opacity: 1;"><text class="legendtext" text-anchor="start" x="40" y="4.680000000000001" style="font-family: 'Open Sans', verdana, arial, sans-serif; font-size: 12px; fill: rgb(42, 63, 95); fill-opacity: 1; white-space: pre;">ANO: 30%</text><g class="layers" style="opacity: 1;"><g class="legendfill"/><g class="legendlines"><path class="js-line" d="M5,0h30" style="fill: none; stroke: rgb(38, 16, 96); stroke-opacity: 1; stroke-width: 7px;"/></g><g class="legendsymbols"><g class="legendpoints"/></g></g><rect class="legendtoggle" x="0" y="-9.5" width="125.359375" height="19" style="fill: rgb(0, 0, 0); fill-opacity: 0;"/></g><g class="traces" transform="translate(0,33.5)" style="opacity: 1;"><text class="legendtext" text-anchor="start" x="40" y="4.680000000000001" style="font-family: 'Open Sans', verdana, arial, sans-serif; font-size: 12px; fill: rgb(42, 63, 95); fill-opacity: 1; white-space: pre;">ODS: 21%</text><g class="layers" style="opacity: 1;"><g class="legendfill"/><g class="legendlines"><path class="js-line" d="M5,0h30" style="fill: none; stroke: rgb(0, 68, 148); stroke-opacity: 1; stroke-width: 7px;"/></g><g class="legendsymbols"><g class="legendpoints"/></g></g><rect class="legendtoggle" x="0" y="-9.5" width="125.359375" height="19" style="fill: rgb(0, 0, 0); fill-opacity: 0;"/></g><g class="traces" transform="translate(0,52.5)" style="opacity: 1;"><text class="legendtext" text-anchor="start" x="40" y="4.680000000000001" style="font-family: 'Open Sans', verdana, arial, sans-serif; font-size: 12px; fill: rgb(42, 63, 95); fill-opacity: 1; white-space: pre;">Pirti: 9%</text><g class="layers" style="opacity: 1;"><g class="legendfill"/><g class="legendlines"><path class="js-line" d="M5,0h30" style="fill: none; stroke: rgb(0, 0, 0); stroke-opacity: 1; stroke-width: 7px;"/></g><g class="legendsymbols"><g class="legendpoints"/></g></g><rect class="legendtoggle" x="0" y="-9.5" width="125.359375" height="19" style="fill: rgb(0, 0, 0); fill-opacity: 0;"/></g><g class="traces" transform="translate(0,71.5)" style="opacity: 1;"><text class="legendtext" text-anchor="start" x="40" y="4.680000000000001" style="font-family: 'Open Sans', verdana, arial, sans-serif; font-size: 12px; fill: rgb(42, 63, 95); fill-opacity: 1; white-space: pre;">SPD: 9%</text><g class="layers" style="opacity: 1;"><g class="legendfill"/><g class="legendlines"><path class="js-line" d="M5,0h30" style="fill: none; stroke: rgb(234, 35, 41); stroke-opacity: 1; stroke-width: 7px;"/></g><g class="legendsymbols"><g class="legendpoints"/></g></g><rect class="legendtoggle" x="0" y="-9.5" width="125.359375" height="19" style="fill: rgb(0, 0, 0); fill-opacity: 0;"/></g><g class="traces" transform="translate(0,90.5)" style="opacity: 1;"><text class="legendtext" text-anchor="start" x="40" y="4.680000000000001" style="font-family: 'Open Sans', verdana, arial, sans-serif; font-size: 12px; fill: rgb(42, 63, 95); fill-opacity: 1; white-space: pre;">STAN: 7%</text><g class="layers" style="opacity: 1;"><g class="legendfill"/><g class="legendlines"><path class="js-line" d="M5,0h30" style="fill: none; stroke: rgb(93, 140, 0); stroke-opacity: 1; stroke-width: 7px;"/></g><g class="legendsymbols"><g class="legendpoints"/></g></g><rect class="legendtoggle" x="0" y="-9.5" width="125.359375" height="19" style="fill: rgb(0, 0, 0); fill-opacity: 0;"/></g><g class="traces" transform="translate(0,109.5)" style="opacity: 1;"><text class="legendtext" text-anchor="start" x="40" y="4.680000000000001" style="font-family: 'Open Sans', verdana, arial, sans-serif; font-size: 12px; fill: rgb(42, 63, 95); fill-opacity: 1; white-space: pre;">TOP 09: 5%</text><g class="layers" style="opacity: 1;"><g class="legendfill"/><g class="legendlines"><path class="js-line" d="M5,0h30" style="fill: none; stroke: rgb(114, 55, 105); stroke-opacity: 1; stroke-width: 7px;"/></g><g class="legendsymbols"><g class="legendpoints"/></g></g><rect class="legendtoggle" x="0" y="-9.5" width="125.359375" height="19" style="fill: rgb(0, 0, 0); fill-opacity: 0;"/></g><g class="traces" transform="translate(0,128.5)" style="opacity: 1;"><text class="legendtext" text-anchor="start" x="40" y="4.680000000000001" style="font-family: 'Open Sans', verdana, arial, sans-serif; font-size: 12px; fill: rgb(42, 63, 95); fill-opacity: 1; white-space: pre;">SSD: 4%</text><g class="layers" style="opacity: 1;"><g class="legendfill"/><g class="legendlines"><path class="js-line" d="M5,0h30" style="fill: none; stroke: rgb(240, 125, 0); stroke-opacity: 1; stroke-width: 7px;"/></g><g class="legendsymbols"><g class="legendpoints"/></g></g><rect class="legendtoggle" x="0" y="-9.5" width="125.359375" height="19" style="fill: rgb(0, 0, 0); fill-opacity: 0;"/></g><g class="traces" transform="translate(0,147.5)" style="opacity: 1;"><text class="legendtext" text-anchor="start" x="40" y="4.680000000000001" style="font-family: 'Open Sans', verdana, arial, sans-serif; font-size: 12px; fill: rgb(42, 63, 95); fill-opacity: 1; white-space: pre;">KDU-SL: 4%</text><g class="layers" style="opacity: 1;"><g class="legendfill"/><g class="legendlines"><path class="js-line" d="M5,0h30" style="fill: none; stroke: rgb(230, 172, 33); stroke-opacity: 1; stroke-width: 7px;"/></g><g class="legendsymbols"><g class="legendpoints"/></g></g><rect class="legendtoggle" x="0" y="-9.5" width="125.359375" height="19" style="fill: rgb(0, 0, 0); fill-opacity: 0;"/></g><g class="traces" transform="translate(0,166.5)" style="opacity: 1;"><text class="legendtext" text-anchor="start" x="40" y="4.680000000000001" style="font-family: 'Open Sans', verdana, arial, sans-serif; font-size: 12px; fill: rgb(42, 63, 95); fill-opacity: 1; white-space: pre;">Psaha: 2%</text><g class="layers" style="opacity: 1;"><g class="legendfill"/><g class="legendlines"><path class="js-line" d="M5,0h30" style="fill: none; stroke: rgb(0, 51, 255); stroke-opacity: 1; stroke-width: 7px;"/></g><g class="legendsymbols"><g class="legendpoints"/></g></g><rect class="legendtoggle" x="0" y="-9.5" width="125.359375" height="19" style="fill: rgb(0, 0, 0); fill-opacity: 0;"/></g><g class="traces" transform="translate(0,185.5)" style="opacity: 1;"><text class="legendtext" text-anchor="start" x="40" y="4.680000000000001" style="font-family: 'Open Sans', verdana, arial, sans-serif; font-size: 12px; fill: rgb(42, 63, 95); fill-opacity: 1; white-space: pre;">KSM: 2%</text><g class="layers" style="opacity: 1;"><g class="legendfill"/><g class="legendlines"><path class="js-line" d="M5,0h30" style="fill: none; stroke: rgb(140, 0, 0); stroke-opacity: 1; stroke-width: 7px;"/></g><g class="legendsymbols"><g class="legendpoints"/></g></g><rect class="legendtoggle" x="0" y="-9.5" width="125.359375" height="19" style="fill: rgb(0, 0, 0); fill-opacity: 0;"/></g></g></g><rect class="scrollbar" rx="20" ry="3" width="0" height="0" style="fill: rgb(128, 139, 164); fill-opacity: 1;" x="0" y="0"/></g><g class="g-gtitle"/><g class="g-xtitle"/><g class="g-ytitle"/></g></svg>