<svg class="main-svg" xmlns="http://www.w3.org/2000/svg" xmlns:xlink="http://www.w3.org/1999/xlink" width="300" height="135" style="" viewBox="0 0 300 135"><rect x="0" y="0" width="300" height="135" style="fill: rgb(255, 255, 255); fill-opacity: 1;"/><defs id="defs-89f824"><g class="clips"><clipPath id="clip89f824xyplot" class="plotclip"><rect width="280" height="75"/></clipPath><clipPath class="axesclip" id="clip89f824x"><rect x="10" y="0" width="280" height="135"/></clipPath><clipPath class="axesclip" id="clip89f824y"><rect x="0" y="50" width="300" height="75"/></clipPath><clipPath class="axesclip" id="clip89f824xy"><rect x="10" y="50" width="280" height="75"/></clipPath></g><g class="gradients"/><g class="patterns"/></defs><g class="bglayer"/><g class="layer-below"><g class="imagelayer"/><g class="shapelayer"/></g><g class="cartesianlayer"><g class="subplot xy"><g class="layer-subplot"><g class="shapelayer"/><g class="imagelayer"/></g><g class="minor-gridlayer"><g class="x"/><g class="y"/></g><g class="gridlayer"><g class="x"><path class="xgrid crisp" transform="translate(28.25,0)" d="M0,50v75" style="stroke: rgb(235, 240, 248); stroke-opacity: 1; stroke-width: 1px;"/><path class="xgrid crisp" transform="translate(107.53,0)" d="M0,50v75" style="stroke: rgb(235, 240, 248); stroke-opacity: 1; stroke-width: 1px;"/><path class="xgrid crisp" transform="translate(186.82,0)" d="M0,50v75" style="stroke: rgb(235, 240, 248); stroke-opacity: 1; stroke-width: 1px;"/><path class="xgrid crisp" transform="translate(266.32,0)" d="M0,50v75" style="stroke: rgb(235, 240, 248); stroke-opacity: 1; stroke-width: 1px;"/></g><g class="y"><path class="ygrid crisp" transform="translate(0,104.18)" d="M10,0h280" style="stroke: rgb(235, 240, 248); stroke-opacity: 1; stroke-width: 1px;"/><path class="ygrid crisp" transform="translate(0,83.37)" d="M10,0h280" style="stroke: rgb(235, 240, 248); stroke-opacity: 1; stroke-width: 1px;"/><path class="ygrid crisp" transform="translate(0,62.55)" d="M10,0h280" style="stroke: rgb(235, 240, 248); stroke-opacity: 1; stroke-width: 1px;"/></g></g><g class="zerolinelayer"><path class="yzl zl crisp" transform="translate(0,125)" d="M10,0h280" style="stroke: rgb(235, 240, 248); stroke-opacity: 1; stroke-width: 2px;"/></g><path class="xlines-below"/><path class="ylines-below"/><g class="overlines-below"/><g class="xaxislayer-below"/><g class="yaxislayer-below"/><g class="overaxes-below"/><g class="plot" transform="translate(10,50)" clip-path="url(#clip89f824xyplot)"><g class="scatterlayer mlayer"><g class="trace scatter trace7f4313" style="stroke-miterlimit: 2; opacity: 1;"><g class="fills"/><g class="errorbars"/><g class="lines"><path class="js-line" d="M0,18.59Q3.97,18.65 6.95,18.81C12.36,19.1 24.64,21.24 29.76,20.51C32.49,20.12 33.83,18.8 35.84,18.24C37.73,17.71 39.56,17.56 41.49,17.19C43.53,16.8 46.4,16.15 47.79,15.93C48.47,15.82 48.69,15.86 49.31,15.76C50.31,15.59 51.67,15.23 53.22,14.88C55.51,14.36 59.4,13.3 61.69,12.92C63.23,12.66 64.52,12.52 65.6,12.51C66.36,12.5 66.93,12.66 67.56,12.67C68.15,12.68 68.67,12.58 69.29,12.56C70.02,12.54 70.88,12.58 71.68,12.59C72.48,12.6 73.39,12.58 74.07,12.62C74.57,12.65 74.79,12.7 75.38,12.74C76.57,12.83 79.43,12.71 80.81,13.03C81.72,13.24 82.01,13.86 82.98,13.95C84.79,14.12 87.8,12.73 91.02,12.17C95.78,11.34 107.65,10.17 108.83,9.88C108.97,9.85 108.93,9.84 109.05,9.8C109.63,9.63 112.72,8.64 114.04,8.65C114.91,8.66 115.37,9.14 116.21,9.2C117.36,9.28 119.19,8.94 120.34,8.75C121.18,8.61 121.67,8.55 122.51,8.26C123.77,7.83 126.01,6.49 127.08,6.13C127.63,5.95 128.13,5.9 128.38,5.86C128.48,5.84 128.48,5.85 128.6,5.83C129.25,5.72 132.63,4.68 134.68,4.62C136.76,4.56 138.55,5.28 140.98,5.52C144.28,5.85 150.77,6.43 152.71,6.19C153.37,6.11 153.69,5.87 154.01,5.79C154.19,5.75 154.22,5.75 154.45,5.71C155.29,5.57 158.93,4.89 160.31,4.82C161.06,4.78 161.39,4.93 162.05,4.91C162.92,4.89 164.12,4.72 165.09,4.59C165.99,4.47 167.2,4.23 167.7,4.17C167.9,4.14 167.99,4.14 168.13,4.13C168.27,4.12 168.34,4.12 168.56,4.11C169.25,4.09 171.22,3.93 172.91,4.02C175.27,4.14 180.6,4.99 181.38,5.06C181.51,5.07 181.53,5.08 181.6,5.07C181.67,5.06 181.7,5.04 181.82,5.02C182.41,4.94 186.03,5.02 187.03,4.81C187.45,4.72 187.47,4.5 187.9,4.47C188.98,4.39 193.12,5.74 193.76,5.81C193.88,5.82 193.87,5.81 193.98,5.81C194.26,5.81 194.87,5.74 195.5,5.8C196.54,5.89 198.31,6.35 199.63,6.57C200.84,6.77 201.92,6.97 203.1,7.1C204.31,7.23 205.46,7.21 206.8,7.33C208.39,7.48 211,7.83 212.01,7.98C212.42,8.04 212.88,8.13 212.88,8.13C212.88,8.13 212.88,8.13 212.88,8.13C212.88,8.13 216.63,9.36 217.87,9.39C218.6,9.41 218.9,9.11 219.61,9.03C220.69,8.9 222.23,9.2 223.74,8.92C225.69,8.55 229.21,6.86 230.26,6.59C230.58,6.51 230.64,6.54 230.91,6.48C231.39,6.38 232.08,6.18 232.86,6C234.02,5.73 236.69,5.1 237.21,5.04C237.32,5.03 237.42,5.04 237.42,5.04C237.42,5.04 237.42,5.04 237.42,5.04C237.42,5.04 238.81,4.77 239.6,4.6C240.53,4.4 241.88,3.96 242.64,3.88C243.09,3.83 243.38,3.91 243.72,3.91C244.03,3.91 244.26,3.89 244.59,3.9C245.03,3.92 245.47,3.99 246.11,4.03C247.22,4.1 249.67,4.18 250.67,4.2C251.16,4.21 251.26,4.21 251.76,4.2C252.88,4.18 256.26,4.05 257.19,4.02C257.51,4.01 257.62,4.01 257.84,4C258.06,4 258.33,4 258.49,3.99C258.58,3.99 258.6,3.98 258.71,3.97C258.99,3.95 260.23,3.88 260.23,3.88C260.23,3.88 260.23,3.88 260.23,3.88C260.23,3.88 260.65,3.85 260.88,3.83C261.15,3.81 261.75,3.75 261.75,3.75C261.75,3.75 261.75,3.75 261.75,3.75C261.75,3.75 262.83,3.83 263.27,3.86C263.6,3.88 263.87,3.89 264.14,3.91C264.37,3.93 264.55,3.95 264.79,3.97C265.11,4 265.6,4.06 265.88,4.08C266.06,4.1 266.15,4.1 266.31,4.11C266.51,4.12 266.74,4.12 266.97,4.15C267.24,4.19 267.57,4.27 267.84,4.34C268.07,4.4 268.26,4.45 268.49,4.53C268.76,4.63 269.36,4.9 269.36,4.9C269.36,4.9 269.36,4.9 269.36,4.9C269.36,4.9 270.37,5.26 270.88,5.43C271.39,5.6 272.4,5.94 272.4,5.94C272.4,5.94 272.4,5.94 272.4,5.94C272.4,5.94 273.52,6.21 273.92,6.29C274.18,6.34 274.34,6.33 274.57,6.39C274.84,6.46 275.12,6.58 275.44,6.68C275.83,6.8 276.49,7.04 276.74,7.08C276.84,7.1 276.85,7.08 276.96,7.09C277.24,7.11 277.97,7.17 278.48,7.21Q278.99,7.25 280,7.33" style="vector-effect: none; fill: none; stroke: rgb(39, 42, 89); stroke-opacity: 1; stroke-width: 5px; opacity: 1;"/></g><g class="points"/><g class="text"/></g><g class="trace scatter trace02f76d" style="stroke-miterlimit: 2; opacity: 1;"><g class="fills"/><g class="errorbars"/><g class="lines"><path class="js-line" d="M0,17.34Q4.02,19.75 6.95,19.53C12.42,19.12 24.51,8.92 29.76,8.38C32.37,8.11 33.85,9.44 35.84,9.93C37.76,10.4 39.66,10.35 41.49,11.28C43.67,12.39 46.33,16.02 47.79,16.63C48.42,16.89 48.71,16.58 49.31,16.76C50.34,17.07 51.64,18.16 53.22,18.87C55.48,19.88 59.38,21.4 61.69,21.97C63.22,22.35 64.52,22.43 65.6,22.5C66.36,22.55 66.93,22.59 67.56,22.49C68.16,22.4 68.66,22.04 69.29,21.96C70.02,21.87 70.89,22.13 71.68,22.07C72.48,22.01 73.4,21.79 74.07,21.6C74.58,21.45 74.78,21.25 75.38,21.1C76.56,20.81 79.44,20.84 80.81,20.42C81.73,20.14 82.02,19.35 82.98,19.31C84.8,19.23 87.75,22.12 91.02,22.56C95.73,23.19 107.65,20.15 108.83,20.48C108.98,20.52 108.92,20.59 109.05,20.65C109.62,20.91 112.71,21.5 114.04,21.6C114.91,21.67 115.37,21.46 116.21,21.52C117.37,21.6 119.18,22.09 120.34,22.26C121.18,22.38 121.67,22.3 122.51,22.5C123.77,22.81 126.02,23.87 127.08,24.26C127.64,24.47 128.13,24.66 128.38,24.72C128.48,24.74 128.48,24.72 128.6,24.75C129.25,24.9 132.61,26.46 134.68,26.7C136.74,26.94 138.57,26.06 140.98,26.18C144.3,26.35 150.76,27.95 152.71,28.36C153.36,28.5 153.69,28.58 154.01,28.66C154.2,28.7 154.22,28.74 154.45,28.77C155.29,28.87 158.93,28.66 160.31,28.72C161.06,28.75 161.39,28.81 162.05,28.88C162.92,28.98 164.11,29.26 165.09,29.28C165.99,29.3 167.2,29.03 167.7,29.07C167.91,29.09 167.99,29.16 168.13,29.18C168.27,29.2 168.34,29.17 168.56,29.17C169.25,29.19 171.22,29.39 172.91,29.47C175.27,29.59 180.6,29.74 181.38,29.72C181.51,29.72 181.53,29.71 181.6,29.7C181.67,29.69 181.7,29.66 181.82,29.65C182.41,29.6 186.02,29.86 187.03,29.85C187.44,29.85 187.48,29.83 187.9,29.8C188.99,29.72 193.13,29.36 193.76,29.27C193.88,29.25 193.87,29.24 193.98,29.23C194.26,29.19 194.87,29.08 195.5,29.08C196.54,29.08 198.32,29.56 199.63,29.51C200.84,29.47 201.92,28.94 203.1,28.9C204.31,28.86 205.46,29.17 206.8,29.31C208.39,29.48 211,29.76 212.01,29.86C212.42,29.9 212.88,29.94 212.88,29.94C212.88,29.94 212.88,29.94 212.88,29.94C212.88,29.94 216.63,31.16 217.87,31.42C218.59,31.57 218.91,31.57 219.61,31.65C220.69,31.78 222.21,31.83 223.74,32.06C225.67,32.34 229.23,32.95 230.26,33.34C230.61,33.47 230.62,33.63 230.91,33.72C231.37,33.87 232.08,33.91 232.86,33.92C234.02,33.93 236.69,33.53 237.21,33.56C237.33,33.57 237.42,33.6 237.42,33.6C237.42,33.6 237.42,33.6 237.42,33.6C237.42,33.6 238.81,33.79 239.6,33.88C240.53,33.99 241.89,34.05 242.64,34.2C243.1,34.29 243.38,34.41 243.72,34.53C244.03,34.64 244.25,34.8 244.59,34.91C245.02,35.05 245.47,35.12 246.11,35.25C247.22,35.47 249.67,35.91 250.67,36.06C251.16,36.13 251.26,36.15 251.76,36.19C252.88,36.28 256.26,36.42 257.19,36.46C257.51,36.47 257.62,36.48 257.84,36.48C258.06,36.48 258.33,36.49 258.49,36.48C258.58,36.48 258.6,36.47 258.71,36.46C258.99,36.44 260.23,36.34 260.23,36.34C260.23,36.34 260.23,36.34 260.23,36.34C260.23,36.34 260.65,36.28 260.88,36.25C261.15,36.22 261.75,36.15 261.75,36.15C261.75,36.15 261.75,36.15 261.75,36.15C261.75,36.15 262.83,36.18 263.27,36.19C263.6,36.2 263.87,36.21 264.14,36.22C264.37,36.23 264.55,36.24 264.79,36.25C265.11,36.26 265.6,36.28 265.88,36.29C266.06,36.3 266.15,36.3 266.31,36.3C266.51,36.29 266.74,36.27 266.97,36.25C267.24,36.22 267.57,36.18 267.84,36.14C268.07,36.1 268.26,36.05 268.49,36.01C268.76,35.97 269.36,35.91 269.36,35.91C269.36,35.91 269.36,35.91 269.36,35.91C269.36,35.91 270.37,35.72 270.88,35.62C271.39,35.51 272.4,35.28 272.4,35.28C272.4,35.28 272.4,35.28 272.4,35.28C272.4,35.28 273.52,35.02 273.92,34.93C274.18,34.87 274.34,34.83 274.57,34.79C274.84,34.74 275.12,34.71 275.44,34.67C275.83,34.62 276.49,34.53 276.74,34.51C276.84,34.5 276.85,34.51 276.96,34.51C277.24,34.51 277.97,34.49 278.48,34.48Q278.99,34.47 280,34.44" style="vector-effect: none; fill: none; stroke: rgb(94, 102, 213); stroke-opacity: 1; stroke-width: 5px; opacity: 1;"/></g><g class="points"/><g class="text"/></g><g class="trace scatter tracec62dd9" style="stroke-miterlimit: 2; opacity: 1;"><g class="fills"/><g class="errorbars"/><g class="lines"><path class="js-line" d="M0,62.3Q3.21,53.52 6.95,51.69C11.98,49.23 24.6,52.72 29.76,53.54C32.46,53.97 33.85,54.49 35.84,55C37.76,55.49 39.58,55.84 41.49,56.53C43.56,57.28 46.41,58.76 47.79,59.44C48.47,59.78 48.68,59.93 49.31,60.23C50.31,60.71 51.63,61.49 53.22,61.95C55.47,62.6 59.4,62.99 61.69,63.24C63.24,63.41 64.52,63.43 65.6,63.49C66.36,63.53 66.93,63.62 67.56,63.58C68.16,63.54 68.66,63.36 69.29,63.29C70.02,63.21 70.89,63.26 71.68,63.19C72.48,63.12 73.39,62.97 74.07,62.85C74.57,62.76 74.79,62.64 75.38,62.59C76.57,62.49 79.41,62.75 80.81,62.74C81.7,62.73 82.03,62.7 82.98,62.64C84.81,62.53 87.81,62.26 91.02,62.01C95.79,61.64 107.64,60.7 108.83,60.65C108.96,60.64 108.93,60.65 109.05,60.65C109.63,60.66 112.72,60.61 114.04,60.76C114.92,60.86 115.37,61.12 116.21,61.22C117.36,61.35 119.19,61.19 120.34,61.29C121.18,61.36 121.65,61.52 122.51,61.63C123.75,61.78 126.02,61.97 127.08,62.04C127.64,62.08 128.13,62.09 128.38,62.1C128.48,62.1 128.48,62.1 128.6,62.1C129.25,62.12 132.64,62.42 134.68,62.4C136.76,62.38 138.55,62.06 140.98,61.95C144.29,61.8 150.76,61.92 152.71,61.75C153.36,61.69 153.69,61.59 154.01,61.54C154.2,61.51 154.22,61.49 154.45,61.47C155.29,61.41 158.93,61.53 160.31,61.49C161.06,61.47 161.39,61.4 162.05,61.38C162.92,61.35 164.12,61.4 165.09,61.39C165.99,61.38 167.2,61.36 167.7,61.34C167.9,61.33 167.99,61.32 168.13,61.31C168.27,61.3 168.34,61.31 168.56,61.3C169.25,61.28 171.22,61.23 172.91,61.13C175.27,60.99 180.6,60.54 181.38,60.49C181.51,60.48 181.53,60.48 181.6,60.48C181.67,60.48 181.7,60.48 181.82,60.47C182.41,60.42 186.02,59.85 187.03,59.85C187.44,59.85 187.48,59.91 187.9,59.95C188.99,60.06 193.13,60.46 193.76,60.47C193.88,60.47 193.87,60.47 193.98,60.46C194.26,60.44 194.87,60.41 195.5,60.31C196.54,60.15 198.31,59.69 199.63,59.45C200.83,59.23 201.93,59.12 203.1,58.92C204.32,58.71 205.46,58.41 206.8,58.2C208.38,57.96 211.01,57.8 212.01,57.61C212.43,57.53 212.88,57.38 212.88,57.38C212.88,57.38 212.88,57.38 212.88,57.38C212.88,57.38 216.63,56.39 217.87,56.17C218.59,56.04 218.91,56.07 219.61,55.98C220.69,55.85 222.21,55.59 223.74,55.41C225.66,55.18 229.23,55 230.26,54.75C230.6,54.67 230.64,54.6 230.91,54.49C231.39,54.29 232.07,53.92 232.86,53.63C234.01,53.21 236.69,52.44 237.21,52.35C237.32,52.33 237.42,52.34 237.42,52.34C237.42,52.34 237.42,52.34 237.42,52.34C237.42,52.34 238.81,52.38 239.6,52.41C240.53,52.45 241.88,52.5 242.64,52.56C243.09,52.59 243.38,52.67 243.72,52.67C244.03,52.67 244.26,52.62 244.59,52.59C245.03,52.55 245.47,52.55 246.11,52.48C247.22,52.36 249.67,51.94 250.67,51.81C251.16,51.75 251.26,51.7 251.76,51.68C252.88,51.63 256.26,51.83 257.19,51.81C257.51,51.8 257.62,51.78 257.84,51.76C258.06,51.74 258.33,51.69 258.49,51.67C258.58,51.66 258.6,51.66 258.71,51.65C258.99,51.63 260.23,51.55 260.23,51.55C260.23,51.55 260.23,51.55 260.23,51.55C260.23,51.55 260.65,51.5 260.88,51.48C261.15,51.46 261.75,51.44 261.75,51.44C261.75,51.44 261.75,51.44 261.75,51.44C261.75,51.44 262.83,51.37 263.27,51.34C263.6,51.32 263.87,51.3 264.14,51.28C264.37,51.27 264.55,51.26 264.79,51.25C265.11,51.24 265.6,51.23 265.88,51.21C266.06,51.2 266.15,51.18 266.31,51.17C266.51,51.16 266.73,51.15 266.97,51.15C267.24,51.15 267.57,51.16 267.84,51.16C268.07,51.16 268.26,51.16 268.49,51.15C268.76,51.14 269.36,51.1 269.36,51.1C269.36,51.1 269.36,51.1 269.36,51.1C269.36,51.1 270.37,51.12 270.88,51.12C271.39,51.12 272.4,51.12 272.4,51.12C272.4,51.12 272.4,51.12 272.4,51.12C272.4,51.12 273.52,51.22 273.92,51.26C274.18,51.29 274.34,51.31 274.57,51.33C274.84,51.35 275.12,51.35 275.44,51.37C275.83,51.4 276.49,51.45 276.74,51.48C276.84,51.49 276.85,51.5 276.96,51.52C277.24,51.57 277.97,51.68 278.48,51.74Q278.99,51.8 280,51.9" style="vector-effect: none; fill: none; stroke: rgb(255, 26, 74); stroke-opacity: 1; stroke-width: 5px; opacity: 1;"/></g><g class="points"/><g class="text"/></g><g class="trace scatter tracec8e32d" style="stroke-miterlimit: 2; opacity: 1;"><g class="fills"/><g class="errorbars"/><g class="lines"><path class="js-line" d="M0,55.02Q3.97,55.24 6.95,55.06C12.37,54.73 24.59,52.09 29.76,52.16C32.44,52.19 33.85,53.12 35.84,53.09C37.76,53.06 39.55,52.37 41.49,52.05C43.53,51.72 46.41,51.32 47.79,51.16C48.47,51.08 48.69,51.12 49.31,51.03C50.31,50.88 51.66,50.45 53.22,50.21C55.5,49.86 59.4,49.51 61.69,49.36C63.24,49.26 64.52,49.31 65.6,49.25C66.37,49.21 66.93,49.07 67.56,49.08C68.16,49.09 68.67,49.28 69.29,49.31C70.02,49.34 70.89,49.12 71.68,49.19C72.48,49.26 73.39,49.59 74.07,49.71C74.57,49.8 74.79,49.82 75.38,49.88C76.57,50 79.41,50.16 80.81,50.31C81.7,50.4 82.03,50.54 82.98,50.6C84.81,50.71 87.86,50.04 91.02,50.5C95.84,51.2 107.64,55.9 108.83,56.05C108.96,56.07 108.93,56.04 109.05,56.04C109.63,56.03 112.72,56.04 114.04,56.18C114.92,56.27 115.37,56.48 116.21,56.57C117.36,56.69 119.18,56.69 120.34,56.7C121.18,56.71 121.65,56.67 122.51,56.67C123.75,56.67 126.02,56.74 127.08,56.73C127.65,56.73 128.13,56.69 128.38,56.69C128.48,56.69 128.48,56.7 128.6,56.7C129.25,56.68 132.63,56.07 134.68,56.01C136.76,55.95 138.57,56.53 140.98,56.38C144.3,56.17 150.75,54.32 152.71,54.21C153.36,54.17 153.69,54.29 154.01,54.3C154.2,54.31 154.22,54.31 154.45,54.3C155.29,54.27 158.93,53.94 160.31,53.88C161.06,53.85 161.39,53.85 162.05,53.86C162.92,53.87 164.12,53.83 165.09,53.97C166,54.1 167.2,54.54 167.7,54.63C167.9,54.66 167.99,54.66 168.13,54.67C168.27,54.69 168.34,54.7 168.56,54.72C169.25,54.78 171.22,54.97 172.91,55.02C175.27,55.09 180.6,54.94 181.38,54.95C181.51,54.95 181.53,54.95 181.6,54.96C181.67,54.97 181.7,54.97 181.82,54.99C182.41,55.08 186.02,55.63 187.03,55.81C187.44,55.88 187.48,55.9 187.9,55.98C188.99,56.19 193.13,57.03 193.76,57.07C193.88,57.08 193.87,57.06 193.98,57.06C194.26,57.06 194.87,57.12 195.5,57.12C196.54,57.12 198.32,56.87 199.63,56.95C200.84,57.02 201.93,57.27 203.1,57.52C204.32,57.78 205.45,58.2 206.8,58.49C208.38,58.83 211,59.25 212.01,59.39C212.42,59.45 212.88,59.48 212.88,59.48C212.88,59.48 212.88,59.48 212.88,59.48C212.88,59.48 216.63,59.76 217.87,59.8C218.6,59.82 218.91,59.76 219.61,59.79C220.69,59.84 222.21,60.18 223.74,60.21C225.66,60.25 229.22,59.87 230.26,59.83C230.59,59.82 230.64,59.82 230.91,59.82C231.39,59.82 232.08,59.86 232.86,59.86C234.02,59.87 236.69,59.83 237.21,59.82C237.32,59.82 237.42,59.81 237.42,59.81C237.42,59.81 237.42,59.81 237.42,59.81C237.42,59.81 238.81,60.06 239.6,60.09C240.53,60.12 241.88,59.96 242.64,59.91C243.09,59.88 243.38,59.82 243.72,59.82C244.03,59.82 244.26,59.86 244.59,59.88C245.03,59.9 245.47,59.94 246.11,59.94C247.22,59.95 249.67,59.83 250.67,59.83C251.16,59.83 251.26,59.89 251.76,59.86C252.88,59.79 256.26,59.12 257.19,59.01C257.51,58.97 257.62,58.97 257.84,58.96C258.06,58.95 258.33,58.95 258.49,58.94C258.58,58.93 258.6,58.93 258.71,58.92C258.99,58.9 260.23,58.87 260.23,58.87C260.23,58.87 260.23,58.87 260.23,58.87C260.23,58.87 260.65,58.88 260.88,58.88C261.15,58.88 261.75,58.85 261.75,58.85C261.75,58.85 261.75,58.85 261.75,58.85C261.75,58.85 262.83,58.72 263.27,58.68C263.6,58.65 263.87,58.62 264.14,58.6C264.37,58.58 264.55,58.56 264.79,58.54C265.11,58.51 265.6,58.47 265.88,58.44C266.06,58.42 266.15,58.41 266.31,58.39C266.51,58.37 266.74,58.35 266.97,58.31C267.24,58.27 267.57,58.2 267.84,58.14C268.07,58.09 268.26,58.05 268.49,57.99C268.76,57.92 269.36,57.76 269.36,57.76C269.36,57.76 269.36,57.76 269.36,57.76C269.36,57.76 270.38,57.47 270.88,57.3C271.39,57.13 272.4,56.73 272.4,56.73C272.4,56.73 272.4,56.73 272.4,56.73C272.4,56.73 273.52,56.19 273.92,56C274.18,55.88 274.34,55.81 274.57,55.71C274.84,55.59 275.12,55.47 275.44,55.33C275.83,55.16 276.49,54.86 276.74,54.77C276.84,54.73 276.85,54.73 276.96,54.7C277.24,54.62 277.97,54.43 278.48,54.32Q278.99,54.21 280,54.03" style="vector-effect: none; fill: none; stroke: rgb(164, 125, 3); stroke-opacity: 1; stroke-width: 5px; opacity: 1;"/></g><g class="points"/><g class="text"/></g><g class="trace scatter traceb6d6a4" style="stroke-miterlimit: 2; opacity: 1;"><g class="fills"/><g class="errorbars"/><g class="lines"><path class="js-line" d="M0,55.22Q3.91,56.98 6.95,57.62C12.31,58.74 24.58,59.19 29.76,59.46C32.43,59.6 33.85,59.53 35.84,59.6C37.76,59.67 39.61,60.26 41.49,59.86C43.59,59.41 46.39,57.26 47.79,56.7C48.45,56.44 48.69,56.47 49.31,56.24C50.32,55.86 51.62,54.88 53.22,54.5C55.47,53.97 59.41,54.11 61.69,54.11C63.24,54.11 64.52,54.3 65.6,54.3C66.37,54.3 66.93,54.16 67.56,54.19C68.16,54.22 68.66,54.42 69.29,54.46C70.02,54.5 70.88,54.43 71.68,54.37C72.48,54.31 73.39,54.14 74.07,54.11C74.57,54.09 74.8,54.19 75.38,54.15C76.58,54.07 79.41,53.41 80.81,53.22C81.69,53.1 82.03,52.97 82.98,52.99C84.81,53.03 87.8,53.97 91.02,54.18C95.78,54.49 107.64,54 108.83,53.88C108.96,53.87 108.93,53.85 109.05,53.84C109.63,53.8 112.73,54.14 114.04,54.01C114.92,53.92 115.37,53.64 116.21,53.49C117.36,53.29 119.18,53.15 120.34,53.02C121.18,52.92 121.65,52.84 122.51,52.77C123.75,52.66 126.02,52.58 127.08,52.5C127.65,52.46 128.13,52.39 128.38,52.37C128.48,52.36 128.48,52.36 128.6,52.35C129.25,52.31 132.64,52.24 134.68,52.16C136.76,52.08 138.57,51.71 140.98,51.87C144.3,52.09 150.75,53.83 152.71,54C153.36,54.06 153.69,53.96 154.01,53.99C154.2,54.01 154.22,54.06 154.45,54.08C155.29,54.15 158.94,54.05 160.31,53.91C161.06,53.83 161.39,53.71 162.05,53.61C162.92,53.48 164.12,53.35 165.09,53.22C165.99,53.1 167.2,52.9 167.7,52.84C167.9,52.82 167.99,52.8 168.13,52.8C168.27,52.8 168.34,52.81 168.56,52.81C169.25,52.81 171.22,52.79 172.91,52.73C175.27,52.65 180.6,52.3 181.38,52.28C181.51,52.28 181.53,52.27 181.6,52.28C181.67,52.29 181.7,52.32 181.82,52.34C182.41,52.45 186.02,52.81 187.03,52.95C187.44,53.01 187.48,53.05 187.9,53.09C188.98,53.2 193.13,53.26 193.76,53.29C193.88,53.29 193.87,53.29 193.98,53.3C194.26,53.31 194.87,53.34 195.5,53.38C196.54,53.45 198.31,53.61 199.63,53.7C200.84,53.78 201.93,53.74 203.1,53.88C204.32,54.03 205.46,54.32 206.8,54.58C208.39,54.89 211,55.47 212.01,55.6C212.42,55.65 212.88,55.66 212.88,55.66C212.88,55.66 212.88,55.66 212.88,55.66C212.88,55.66 216.64,56.45 217.87,56.76C218.6,56.94 218.9,57.07 219.61,57.25C220.69,57.53 222.2,57.87 223.74,58.21C225.66,58.63 229.22,59.34 230.26,59.54C230.59,59.6 230.64,59.61 230.91,59.66C231.39,59.75 232.09,59.86 232.86,60.06C234.03,60.36 236.69,61.27 237.21,61.37C237.32,61.39 237.42,61.39 237.42,61.39C237.42,61.39 237.42,61.39 237.42,61.39C237.42,61.39 238.81,61.47 239.6,61.52C240.53,61.58 241.88,61.64 242.64,61.71C243.09,61.75 243.38,61.8 243.72,61.83C244.03,61.86 244.26,61.87 244.59,61.89C245.03,61.91 245.47,61.91 246.11,61.93C247.22,61.97 249.67,62.1 250.67,62.13C251.16,62.15 251.26,62.15 251.76,62.15C252.88,62.16 256.26,62.14 257.19,62.15C257.51,62.15 257.62,62.16 257.84,62.17C258.06,62.18 258.33,62.22 258.49,62.23C258.58,62.24 258.6,62.24 258.71,62.25C258.99,62.28 260.23,62.4 260.23,62.4C260.23,62.4 260.23,62.4 260.23,62.4C260.23,62.4 260.65,62.4 260.88,62.41C261.15,62.42 261.75,62.48 261.75,62.48C261.75,62.48 261.75,62.48 261.75,62.48C261.75,62.48 262.83,62.49 263.27,62.48C263.6,62.48 263.87,62.48 264.14,62.46C264.37,62.45 264.55,62.42 264.79,62.4C265.11,62.37 265.6,62.33 265.88,62.3C266.06,62.28 266.15,62.27 266.31,62.26C266.51,62.24 266.73,62.22 266.97,62.21C267.24,62.19 267.57,62.18 267.84,62.17C268.07,62.16 268.26,62.18 268.49,62.17C268.76,62.16 269.36,62.12 269.36,62.12C269.36,62.12 269.36,62.12 269.36,62.12C269.36,62.12 270.37,62.07 270.88,62.04C271.39,62.01 272.4,61.95 272.4,61.95C272.4,61.95 272.4,61.95 272.4,61.95C272.4,61.95 273.52,61.94 273.92,61.95C274.18,61.95 274.34,61.97 274.57,61.97C274.84,61.98 275.12,61.98 275.44,61.98C275.83,61.99 276.49,62 276.74,62C276.84,62 276.85,62 276.96,62C277.24,62 277.97,62.03 278.48,62.03Q278.99,62.03 280,62.02" style="vector-effect: none; fill: none; stroke: rgb(17, 17, 17); stroke-opacity: 1; stroke-width: 5px; opacity: 1;"/></g><g class="points"/><g class="text"/></g></g></g><g class="overplot"/><path class="xlines-above crisp" d="M0,0" style="fill: none;"/><path class="ylines-above crisp" d="M0,0" style="fill: none;"/><g class="overlines-above"/><g class="xaxislayer-above"/><g class="yaxislayer-above"/><g class="overaxes-above"/></g></g><g class="polarlayer"/><g class="smithlayer"/><g class="ternarylayer"/><g class="geolayer"/><g class="funnelarealayer"/><g class="pielayer"/><g class="iciclelayer"/><g class="treemaplayer"/><g class="sunburstlayer"/><g class="glimages"/><defs id="topdefs-89f824"><g class="clips"/></defs><g class="layer-above"><g class="imagelayer"/><g class="shapelayer"/></g><g class="infolayer"><g class="g-gtitle"><text class="gtitle" x="15" y="25" text-anchor="start" dy="0em" style="font-family: Ubuntu, verdana, arial, sans-serif; font-size: 16px; fill: rgb(233, 84, 32); opacity: 1; font-weight: normal; white-space: pre;">Sněmovna volby 2025</text></g><g class="g-xtitle"/><g class="g-ytitle"/></g></svg>