<svg class="main-svg" xmlns="http://www.w3.org/2000/svg" xmlns:xlink="http://www.w3.org/1999/xlink" width="1200" height="600" style="" viewBox="0 0 1200 600"><rect x="0" y="0" width="1200" height="600" style="fill: rgb(255, 255, 255); fill-opacity: 1;"/><defs id="defs-22debc"><g class="clips"><clipPath id="clip22debcxyplot" class="plotclip"><rect width="987" height="530"/></clipPath><clipPath class="axesclip" id="clip22debcx"><rect x="50" y="0" width="987" height="600"/></clipPath><clipPath class="axesclip" id="clip22debcy"><rect x="0" y="20" width="1200" height="530"/></clipPath><clipPath class="axesclip" id="clip22debcxy"><rect x="50" y="20" width="987" height="530"/></clipPath></g><g class="gradients"/><g class="patterns"/></defs><g class="bglayer"/><g class="layer-below"><g class="imagelayer"/><g class="shapelayer"/></g><g class="cartesianlayer"><g class="subplot xy"><g class="layer-subplot"><g class="shapelayer"/><g class="imagelayer"/></g><g class="gridlayer"><g class="x"><path class="xgrid crisp" transform="translate(107.06,0)" d="M0,20v530" style="stroke: rgb(235, 240, 248); stroke-opacity: 1; stroke-width: 1px;"/><path class="xgrid crisp" transform="translate(230.01,0)" d="M0,20v530" style="stroke: rgb(235, 240, 248); stroke-opacity: 1; stroke-width: 1px;"/><path class="xgrid crisp" transform="translate(355,0)" d="M0,20v530" style="stroke: rgb(235, 240, 248); stroke-opacity: 1; stroke-width: 1px;"/><path class="xgrid crisp" transform="translate(477.95,0)" d="M0,20v530" style="stroke: rgb(235, 240, 248); stroke-opacity: 1; stroke-width: 1px;"/><path class="xgrid crisp" transform="translate(602.94,0)" d="M0,20v530" style="stroke: rgb(235, 240, 248); stroke-opacity: 1; stroke-width: 1px;"/><path class="xgrid crisp" transform="translate(726.57,0)" d="M0,20v530" style="stroke: rgb(235, 240, 248); stroke-opacity: 1; stroke-width: 1px;"/><path class="xgrid crisp" transform="translate(851.56,0)" d="M0,20v530" style="stroke: rgb(235, 240, 248); stroke-opacity: 1; stroke-width: 1px;"/><path class="xgrid crisp" transform="translate(974.51,0)" d="M0,20v530" style="stroke: rgb(235, 240, 248); stroke-opacity: 1; stroke-width: 1px;"/></g><g class="y"><path class="ygrid crisp" transform="translate(0,478.99)" d="M50,0h987" style="stroke: rgb(235, 240, 248); stroke-opacity: 1; stroke-width: 1px;"/><path class="ygrid crisp" transform="translate(0,407.97)" d="M50,0h987" style="stroke: rgb(235, 240, 248); stroke-opacity: 1; stroke-width: 1px;"/><path class="ygrid crisp" transform="translate(0,336.96)" d="M50,0h987" style="stroke: rgb(235, 240, 248); stroke-opacity: 1; stroke-width: 1px;"/><path class="ygrid crisp" transform="translate(0,265.94)" d="M50,0h987" style="stroke: rgb(235, 240, 248); stroke-opacity: 1; stroke-width: 1px;"/><path class="ygrid crisp" transform="translate(0,194.93)" d="M50,0h987" style="stroke: rgb(235, 240, 248); stroke-opacity: 1; stroke-width: 1px;"/><path class="ygrid crisp" transform="translate(0,123.92)" d="M50,0h987" style="stroke: rgb(235, 240, 248); stroke-opacity: 1; stroke-width: 1px;"/><path class="ygrid crisp" transform="translate(0,52.9)" d="M50,0h987" style="stroke: rgb(235, 240, 248); stroke-opacity: 1; stroke-width: 1px;"/></g></g><g class="zerolinelayer"><path class="yzl zl crisp" transform="translate(0,550)" d="M50,0h987" style="stroke: rgb(235, 240, 248); stroke-opacity: 1; stroke-width: 2px;"/></g><path class="xlines-below"/><path class="ylines-below"/><g class="overlines-below"/><g class="xaxislayer-below"/><g class="yaxislayer-below"/><g class="overaxes-below"/><g class="plot" transform="translate(50,20)" clip-path="url(#clip22debcxyplot)"><g class="scatterlayer mlayer"><g class="trace scatter trace1b7c90" style="stroke-miterlimit: 2; opacity: 1;"><g class="fills"><g><path class="js-fill" d="M0,69.87Q12.41,71.29 21.74,72.54C38.66,74.8 77.35,86.68 93.06,82.82C102.02,80.62 105.65,72.71 112.08,69.09C117.89,65.82 123.73,64.37 129.74,61.61C136.17,58.66 145.12,54.06 149.44,51.85C151.58,50.75 152.22,50.26 154.2,49.33C157.3,47.87 161.68,46.7 166.42,44.3C173.68,40.63 185.53,30.59 192.92,28.19C197.57,26.68 201.12,27.46 205.14,27.18C209.04,26.9 213.31,25.95 216.69,26.5C219.51,26.96 224.27,28.94 224.16,29.51C224.02,30.24 211.26,29.52 211.26,29.63C211.26,29.79 235.46,31.52 235.71,30.52C235.82,30.09 231.77,28.3 231.64,28.51C231.26,29.1 253.23,37.98 259.49,51.12C272.44,78.31 272.44,198.49 259.49,204.66C253.23,207.64 231.26,182.65 231.64,182.06C231.77,181.85 235.82,183.63 235.71,184.06C235.46,185.05 211.26,183.32 211.26,183.17C211.26,183.06 224.02,183.79 224.16,183.06C224.27,182.48 219.51,180.5 216.69,180.04C213.31,179.49 209.04,180.45 205.14,180.73C201.12,181.01 197.64,180.47 192.92,181.73C185.63,183.67 173.42,190.09 166.42,194.18C161.41,197.11 157.45,202.25 154.2,202.88C152.34,203.24 151.51,201.51 149.44,201.74C145.05,202.24 136.27,209.22 129.74,211.5C123.82,213.57 117.7,212.42 112.08,215.32C105.36,218.79 102.32,230.11 93.06,232.71C77.51,237.08 38.71,220.04 21.74,218.78Q12.45,218.09 0,219.76Z" style="fill: rgb(38, 16, 96); fill-opacity: 0.05; stroke-width: 0;"/></g></g><g class="errorbars"/><g class="lines"><path class="js-line" d="M0,69.87Q12.41,71.29 21.74,72.54C38.66,74.8 77.35,86.68 93.06,82.82C102.02,80.62 105.65,72.71 112.08,69.09C117.89,65.82 123.73,64.37 129.74,61.61C136.17,58.66 145.12,54.06 149.44,51.85C151.58,50.75 152.22,50.26 154.2,49.33C157.3,47.87 161.68,46.7 166.42,44.3C173.68,40.63 185.53,30.59 192.92,28.19C197.57,26.68 201.12,27.46 205.14,27.18C209.04,26.9 213.31,25.95 216.69,26.5C219.51,26.96 224.27,28.94 224.16,29.51C224.02,30.24 211.26,29.52 211.26,29.63C211.26,29.79 235.46,31.52 235.71,30.52C235.82,30.09 231.77,28.3 231.64,28.51C231.26,29.1 253.23,37.98 259.49,51.12C272.44,78.31 272.44,198.49 259.49,204.66C253.23,207.64 231.26,182.65 231.64,182.06C231.77,181.85 235.82,183.63 235.71,184.06C235.46,185.05 211.26,183.32 211.26,183.17C211.26,183.06 224.02,183.79 224.16,183.06C224.27,182.48 219.51,180.5 216.69,180.04C213.31,179.49 209.04,180.45 205.14,180.73C201.12,181.01 197.64,180.47 192.92,181.73C185.63,183.67 173.42,190.09 166.42,194.18C161.41,197.11 157.45,202.25 154.2,202.88C152.34,203.24 151.51,201.51 149.44,201.74C145.05,202.24 136.27,209.22 129.74,211.5C123.82,213.57 117.7,212.42 112.08,215.32C105.36,218.79 102.32,230.11 93.06,232.71C77.51,237.08 38.71,220.04 21.74,218.78Q12.45,218.09 0,219.76" style="vector-effect: non-scaling-stroke; fill: none; stroke: rgb(255, 255, 255); stroke-opacity: 0; stroke-width: 2px; opacity: 1;"/></g><g class="points"/><g class="text"/></g><g class="trace scatter trace0c65fc" style="stroke-miterlimit: 2; opacity: 1;"><g class="fills"><g><path class="js-fill" d="M0,270.83Q13.09,262.16 21.74,253.16C39.56,234.6 75.76,174.24 93.06,157.83C100.64,150.63 105.55,146.88 112.08,145.1C117.82,143.53 124.55,142.6 129.74,146.11C138.15,151.81 144.09,185.12 149.44,188.32C151.15,189.35 152.55,187.17 154.2,188.06C157.93,190.07 160.86,202.33 166.42,209.04C173.1,217.11 185.31,229.51 192.92,232.05C197.42,233.55 201.16,231.86 205.14,231.19C209.08,230.53 213.34,227.63 216.69,228.09C219.54,228.48 224.33,232.07 224.16,232.49C223.95,233.01 211.24,230.39 211.26,229.24C211.29,227.67 234.96,222.78 235.71,224.15C236.07,224.81 231.76,228.38 231.64,228.27C231.3,227.97 253.63,190.78 259.49,192.8C269.49,196.26 270.42,297.82 259.49,324.41C253.5,338.99 231.64,352.56 231.64,352.56C231.64,352.56 236.07,349.1 235.71,348.44C234.96,347.07 211.29,351.96 211.26,353.54C211.24,354.69 223.95,357.31 224.16,356.79C224.33,356.37 219.54,352.78 216.69,352.39C213.34,351.93 209.08,354.83 205.14,355.49C201.16,356.16 197.5,357.67 192.92,356.35C185.43,354.19 173.17,343.85 166.42,336.99C161,331.48 157.78,321.4 154.2,319.67C152.5,318.85 151.2,320.89 149.44,319.93C144.34,317.13 137.68,289.98 129.74,285.03C124.46,281.74 117.93,282.87 112.08,284.02C105.7,285.27 100.68,287.34 93.06,293.09C75.83,306.08 39.48,358.55 21.74,373.8Q13.04,381.27 0,387.82Z" style="fill: rgb(0, 68, 148); fill-opacity: 0.05; stroke-width: 0;"/></g></g><g class="errorbars"/><g class="lines"><path class="js-line" d="M0,270.83Q13.09,262.16 21.74,253.16C39.56,234.6 75.76,174.24 93.06,157.83C100.64,150.63 105.55,146.88 112.08,145.1C117.82,143.53 124.55,142.6 129.74,146.11C138.15,151.81 144.09,185.12 149.44,188.32C151.15,189.35 152.55,187.17 154.2,188.06C157.93,190.07 160.86,202.33 166.42,209.04C173.1,217.11 185.31,229.51 192.92,232.05C197.42,233.55 201.16,231.86 205.14,231.19C209.08,230.53 213.34,227.63 216.69,228.09C219.54,228.48 224.33,232.07 224.16,232.49C223.95,233.01 211.24,230.39 211.26,229.24C211.29,227.67 234.96,222.78 235.71,224.15C236.07,224.81 231.76,228.38 231.64,228.27C231.3,227.97 253.63,190.78 259.49,192.8C269.49,196.26 270.42,297.82 259.49,324.41C253.5,338.99 231.64,352.56 231.64,352.56C231.64,352.56 236.07,349.1 235.71,348.44C234.96,347.07 211.29,351.96 211.26,353.54C211.24,354.69 223.95,357.31 224.16,356.79C224.33,356.37 219.54,352.78 216.69,352.39C213.34,351.93 209.08,354.83 205.14,355.49C201.16,356.16 197.5,357.67 192.92,356.35C185.43,354.19 173.17,343.85 166.42,336.99C161,331.48 157.78,321.4 154.2,319.67C152.5,318.85 151.2,320.89 149.44,319.93C144.34,317.13 137.68,289.98 129.74,285.03C124.46,281.74 117.93,282.87 112.08,284.02C105.7,285.27 100.68,287.34 93.06,293.09C75.83,306.08 39.48,358.55 21.74,373.8Q13.04,381.27 0,387.82" style="vector-effect: non-scaling-stroke; fill: none; stroke: rgb(255, 255, 255); stroke-opacity: 0; stroke-width: 2px; opacity: 1;"/></g><g class="points"/><g class="text"/></g><g class="trace scatter trace9a94f8" style="stroke-miterlimit: 2; opacity: 1;"><g class="fills"><g><path class="js-fill" d="M0,344.54Q12.56,345.91 21.74,344.36C38.82,341.48 76.95,319.6 93.06,320.27C101.51,320.62 105.85,328.49 112.08,328.51C118.07,328.53 123.7,323.6 129.74,321C136.13,318.25 145.06,312.91 149.44,312.41C151.52,312.17 152.36,313.72 154.2,313.3C157.47,312.55 161.25,306.57 166.42,304.31C173.31,301.3 185.79,300.74 192.92,299.23C197.78,298.2 201.14,296.3 205.14,296.4C209.06,296.5 213.27,299.8 216.69,299.7C219.46,299.62 224.24,297.51 224.16,297.09C224.06,296.55 211.32,296.99 211.26,297.64C211.18,298.55 235.43,303.83 235.71,303.11C235.83,302.8 231.56,300.91 231.64,300.73C231.85,300.29 253.42,302.36 259.49,311.1C270.95,327.6 271.24,407.87 259.49,417.12C253.38,421.93 231.94,409.65 231.64,410.4C231.52,410.7 235.83,412.47 235.71,412.79C235.42,413.52 211.18,408.22 211.26,407.31C211.32,406.66 224.06,406.23 224.16,406.77C224.24,407.2 219.5,408.86 216.69,409.38C213.3,410.01 209.04,409.8 205.14,409.73C201.12,409.65 197.75,408.61 192.92,408.9C185.75,409.34 173.47,411.79 166.42,413.98C161.46,415.52 157.37,418.96 154.2,419.32C152.29,419.54 151.56,418.37 149.44,418.43C145.1,418.56 136.05,421.24 129.74,423.36C123.61,425.42 118.16,430.36 112.08,430.87C105.94,431.38 101.43,426.31 93.06,426.29C76.87,426.25 38.74,441.03 21.74,443.07Q12.48,444.18 0,443.25Z" style="fill: rgb(234, 35, 41); fill-opacity: 0.05; stroke-width: 0;"/></g></g><g class="errorbars"/><g class="lines"><path class="js-line" d="M0,344.54Q12.56,345.91 21.74,344.36C38.82,341.48 76.95,319.6 93.06,320.27C101.51,320.62 105.85,328.49 112.08,328.51C118.07,328.53 123.7,323.6 129.74,321C136.13,318.25 145.06,312.91 149.44,312.41C151.52,312.17 152.36,313.72 154.2,313.3C157.47,312.55 161.25,306.57 166.42,304.31C173.31,301.3 185.79,300.74 192.92,299.23C197.78,298.2 201.14,296.3 205.14,296.4C209.06,296.5 213.27,299.8 216.69,299.7C219.46,299.62 224.24,297.51 224.16,297.09C224.06,296.55 211.32,296.99 211.26,297.64C211.18,298.55 235.43,303.83 235.71,303.11C235.83,302.8 231.56,300.91 231.64,300.73C231.85,300.29 253.42,302.36 259.49,311.1C270.95,327.6 271.24,407.87 259.49,417.12C253.38,421.93 231.94,409.65 231.64,410.4C231.52,410.7 235.83,412.47 235.71,412.79C235.42,413.52 211.18,408.22 211.26,407.31C211.32,406.66 224.06,406.23 224.16,406.77C224.24,407.2 219.5,408.86 216.69,409.38C213.3,410.01 209.04,409.8 205.14,409.73C201.12,409.65 197.75,408.61 192.92,408.9C185.75,409.34 173.47,411.79 166.42,413.98C161.46,415.52 157.37,418.96 154.2,419.32C152.29,419.54 151.56,418.37 149.44,418.43C145.1,418.56 136.05,421.24 129.74,423.36C123.61,425.42 118.16,430.36 112.08,430.87C105.94,431.38 101.43,426.31 93.06,426.29C76.87,426.25 38.74,441.03 21.74,443.07Q12.48,444.18 0,443.25" style="vector-effect: non-scaling-stroke; fill: none; stroke: rgb(255, 255, 255); stroke-opacity: 0; stroke-width: 2px; opacity: 1;"/></g><g class="points"/><g class="text"/></g><g class="trace scatter trace8dfd06" style="stroke-miterlimit: 2; opacity: 1;"><g class="fills"><g><path class="js-fill" d="M0,352.07Q12.11,359.85 21.74,363.43C38.39,369.61 76.8,378.66 93.06,380.11C101.35,380.85 105.86,378.95 112.08,379.12C118.08,379.29 124.21,383.17 129.74,381.02C136.9,378.23 145.01,363.08 149.44,358.65C151.48,356.61 152.31,356.33 154.2,354.46C157.41,351.28 160.89,343.88 166.42,340.79C173.12,337.04 185.78,335.97 192.92,335.98C197.77,335.99 201.13,337.46 205.14,338.23C209.05,338.98 213.24,340.12 216.69,340.55C219.44,340.89 224.15,341.06 224.16,340.91C224.18,340.71 211.23,339.38 211.26,338.92C211.3,338.3 235.69,337.93 235.71,338.21C235.72,338.32 231.72,339.08 231.64,338.81C231.42,338.06 253.49,322.13 259.49,325.97C270.45,332.99 270.79,412.72 259.49,428.34C253.44,436.7 231.53,437.06 231.64,437.51C231.68,437.68 235.72,437.03 235.71,436.92C235.69,436.65 211.3,437.01 211.26,437.63C211.23,438.08 224.18,439.41 224.16,439.61C224.15,439.76 219.44,439.6 216.69,439.26C213.24,438.84 209.06,437.1 205.14,436.94C201.14,436.77 197.78,437.97 192.92,438.35C185.78,438.91 173.25,436.88 166.42,439.49C161.15,441.5 157.5,448.11 154.2,449.51C152.38,450.28 151.37,449.15 149.44,450.05C144.84,452.2 136.7,466.4 129.74,468.76C124.11,470.66 118.08,467.03 112.08,466.86C105.86,466.69 101.4,468.18 93.06,467.85C76.85,467.21 38.34,463.73 21.74,458.48Q12.05,455.42 0,447.12Z" style="fill: rgb(0, 0, 0); fill-opacity: 0.05; stroke-width: 0;"/></g></g><g class="errorbars"/><g class="lines"><path class="js-line" d="M0,352.07Q12.11,359.85 21.74,363.43C38.39,369.61 76.8,378.66 93.06,380.11C101.35,380.85 105.86,378.95 112.08,379.12C118.08,379.29 124.21,383.17 129.74,381.02C136.9,378.23 145.01,363.08 149.44,358.65C151.48,356.61 152.31,356.33 154.2,354.46C157.41,351.28 160.89,343.88 166.42,340.79C173.12,337.04 185.78,335.97 192.92,335.98C197.77,335.99 201.13,337.46 205.14,338.23C209.05,338.98 213.24,340.12 216.69,340.55C219.44,340.89 224.15,341.06 224.16,340.91C224.18,340.71 211.23,339.38 211.26,338.92C211.3,338.3 235.69,337.93 235.71,338.21C235.72,338.32 231.72,339.08 231.64,338.81C231.42,338.06 253.49,322.13 259.49,325.97C270.45,332.99 270.79,412.72 259.49,428.34C253.44,436.7 231.53,437.06 231.64,437.51C231.68,437.68 235.72,437.03 235.71,436.92C235.69,436.65 211.3,437.01 211.26,437.63C211.23,438.08 224.18,439.41 224.16,439.61C224.15,439.76 219.44,439.6 216.69,439.26C213.24,438.84 209.06,437.1 205.14,436.94C201.14,436.77 197.78,437.97 192.92,438.35C185.78,438.91 173.25,436.88 166.42,439.49C161.15,441.5 157.5,448.11 154.2,449.51C152.38,450.28 151.37,449.15 149.44,450.05C144.84,452.2 136.7,466.4 129.74,468.76C124.11,470.66 118.08,467.03 112.08,466.86C105.86,466.69 101.4,468.18 93.06,467.85C76.85,467.21 38.34,463.73 21.74,458.48Q12.05,455.42 0,447.12" style="vector-effect: non-scaling-stroke; fill: none; stroke: rgb(255, 255, 255); stroke-opacity: 0; stroke-width: 2px; opacity: 1;"/></g><g class="points"/><g class="text"/></g><g class="trace scatter tracef36939" style="stroke-miterlimit: 2; opacity: 1;"><g class="fills"><g><path class="js-fill" d="M0,371.65Q7.76,323.5 21.74,316.15C37.24,308 77.22,326.16 93.06,332.78C101.84,336.45 105.87,340.8 112.08,344.78C118.09,348.63 124.07,351.21 129.74,356.29C136.63,362.46 145.09,375.14 149.44,380.33C151.55,382.85 152.24,383.64 154.2,385.9C157.32,389.49 160.96,396.07 166.42,399.76C173.15,404.31 185.71,407.32 192.92,409.14C197.71,410.35 201.12,410.47 205.14,411.03C209.04,411.57 213.31,412.87 216.69,412.44C219.5,412.08 224.18,409.55 224.16,409.5C224.14,409.44 211.34,414.28 211.26,414.08C211.15,413.8 234.82,402 235.71,403.13C236.15,403.69 231.09,407.46 231.64,408.36C232.78,410.22 253.66,398.31 259.49,403.15C269.31,411.3 269.41,473.09 259.49,483.58C253.65,489.76 231.81,485.93 231.64,485.13C231.57,484.81 235.74,483.64 235.71,483.56C235.65,483.38 211.32,491.03 211.26,490.85C211.22,490.72 224.14,486.21 224.16,486.27C224.18,486.32 219.5,488.85 216.69,489.21C213.31,489.64 209.04,488.34 205.14,487.8C201.12,487.24 197.76,486.81 192.92,485.91C185.76,484.58 173.26,483.52 166.42,480.18C161.18,477.62 157.46,471.93 154.2,469.98C152.35,468.88 151.44,469.28 149.44,468.07C144.95,465.36 136.44,455.55 129.74,451.34C123.95,447.7 118.08,446.14 112.08,443.49C105.86,440.74 101.63,437.76 93.06,435.14C77.06,430.25 37.34,414.61 21.74,422.17Q9.27,428.21 0,463.05Z" style="fill: rgb(93, 140, 0); fill-opacity: 0.05; stroke-width: 0;"/></g></g><g class="errorbars"/><g class="lines"><path class="js-line" d="M0,371.65Q7.76,323.5 21.74,316.15C37.24,308 77.22,326.16 93.06,332.78C101.84,336.45 105.87,340.8 112.08,344.78C118.09,348.63 124.07,351.21 129.74,356.29C136.63,362.46 145.09,375.14 149.44,380.33C151.55,382.85 152.24,383.64 154.2,385.9C157.32,389.49 160.96,396.07 166.42,399.76C173.15,404.31 185.71,407.32 192.92,409.14C197.71,410.35 201.12,410.47 205.14,411.03C209.04,411.57 213.31,412.87 216.69,412.44C219.5,412.08 224.18,409.55 224.16,409.5C224.14,409.44 211.34,414.28 211.26,414.08C211.15,413.8 234.82,402 235.71,403.13C236.15,403.69 231.09,407.46 231.64,408.36C232.78,410.22 253.66,398.31 259.49,403.15C269.31,411.3 269.41,473.09 259.49,483.58C253.65,489.76 231.81,485.93 231.64,485.13C231.57,484.81 235.74,483.64 235.71,483.56C235.65,483.38 211.32,491.03 211.26,490.85C211.22,490.72 224.14,486.21 224.16,486.27C224.18,486.32 219.5,488.85 216.69,489.21C213.31,489.64 209.04,488.34 205.14,487.8C201.12,487.24 197.76,486.81 192.92,485.91C185.76,484.58 173.26,483.52 166.42,480.18C161.18,477.62 157.46,471.93 154.2,469.98C152.35,468.88 151.44,469.28 149.44,468.07C144.95,465.36 136.44,455.55 129.74,451.34C123.95,447.7 118.08,446.14 112.08,443.49C105.86,440.74 101.63,437.76 93.06,435.14C77.06,430.25 37.34,414.61 21.74,422.17Q9.27,428.21 0,463.05" style="vector-effect: non-scaling-stroke; fill: none; stroke: rgb(255, 255, 255); stroke-opacity: 0; stroke-width: 2px; opacity: 1;"/></g><g class="points"/><g class="text"/></g><g class="trace scatter trace2982f4" style="stroke-miterlimit: 2; opacity: 1;"><g class="fills"><g><path class="js-fill" d="M0,386.31Q12.52,386.38 21.74,388.12C38.77,391.34 77.46,400.66 93.06,409.42C102.21,414.56 105.54,422.12 112.08,426.54C117.81,430.42 123.54,434.36 129.74,435.21C135.99,436.07 145.1,431.79 149.44,431.57C151.56,431.46 152.27,432.16 154.2,431.96C157.35,431.63 161.51,429.2 166.42,428.32C173.51,427.05 185.77,426.9 192.92,426.59C197.77,426.38 201.13,426.54 205.14,426.32C209.05,426.11 213.29,425.96 216.69,425.32C219.48,424.8 224.11,423 224.16,423.14C224.22,423.32 211.12,427.85 211.26,428.32C211.45,428.95 235.7,423.37 235.71,423.42C235.71,423.44 231.63,424.25 231.64,424.32C231.67,424.49 253.76,415.17 259.49,420.09C268.72,428.02 268.79,483.7 259.49,493.2C253.75,499.06 232.11,492.19 231.64,493.78C231.44,494.45 235.9,495.84 235.71,496.53C235.28,498.07 211.28,498.01 211.26,497.78C211.25,497.61 224.1,495.94 224.16,496.25C224.21,496.49 219.46,498.36 216.69,498.44C213.27,498.54 209.07,496.18 205.14,495.78C201.15,495.37 197.77,495.84 192.92,496.05C185.77,496.36 173.51,496.51 166.42,497.78C161.51,498.66 157.35,501.09 154.2,501.42C152.27,501.62 151.56,500.92 149.44,501.03C145.1,501.25 135.99,505.53 129.74,504.67C123.54,503.82 118.06,499.01 112.08,496C105.84,492.86 101.71,489.2 93.06,486.19C77.12,480.64 38.7,474.56 21.74,472.2Q12.45,470.91 0,470.4Z" style="fill: rgb(114, 55, 105); fill-opacity: 0.05; stroke-width: 0;"/></g></g><g class="errorbars"/><g class="lines"><path class="js-line" d="M0,386.31Q12.52,386.38 21.74,388.12C38.77,391.34 77.46,400.66 93.06,409.42C102.21,414.56 105.54,422.12 112.08,426.54C117.81,430.42 123.54,434.36 129.74,435.21C135.99,436.07 145.1,431.79 149.44,431.57C151.56,431.46 152.27,432.16 154.2,431.96C157.35,431.63 161.51,429.2 166.42,428.32C173.51,427.05 185.77,426.9 192.92,426.59C197.77,426.38 201.13,426.54 205.14,426.32C209.05,426.11 213.29,425.96 216.69,425.32C219.48,424.8 224.11,423 224.16,423.14C224.22,423.32 211.12,427.85 211.26,428.32C211.45,428.95 235.7,423.37 235.71,423.42C235.71,423.44 231.63,424.25 231.64,424.32C231.67,424.49 253.76,415.17 259.49,420.09C268.72,428.02 268.79,483.7 259.49,493.2C253.75,499.06 232.11,492.19 231.64,493.78C231.44,494.45 235.9,495.84 235.71,496.53C235.28,498.07 211.28,498.01 211.26,497.78C211.25,497.61 224.1,495.94 224.16,496.25C224.21,496.49 219.46,498.36 216.69,498.44C213.27,498.54 209.07,496.18 205.14,495.78C201.15,495.37 197.77,495.84 192.92,496.05C185.77,496.36 173.51,496.51 166.42,497.78C161.51,498.66 157.35,501.09 154.2,501.42C152.27,501.62 151.56,500.92 149.44,501.03C145.1,501.25 135.99,505.53 129.74,504.67C123.54,503.82 118.06,499.01 112.08,496C105.84,492.86 101.71,489.2 93.06,486.19C77.12,480.64 38.7,474.56 21.74,472.2Q12.45,470.91 0,470.4" style="vector-effect: non-scaling-stroke; fill: none; stroke: rgb(255, 255, 255); stroke-opacity: 0; stroke-width: 2px; opacity: 1;"/></g><g class="points"/><g class="text"/></g><g class="trace scatter trace19230e" style="stroke-miterlimit: 2; opacity: 1;"><g class="fills"><g><path class="js-fill" d="M0,403.39Q10.57,426.71 21.74,431.52C37.6,438.35 77.02,422.37 93.06,424.42C101.59,425.51 105.78,429.75 112.08,431.45C118,433.05 123.67,433.76 129.74,434.55C136.11,435.38 145.12,436.46 149.44,436.23C151.58,436.11 152.24,435.39 154.2,435.3C157.32,435.15 161.56,436.14 166.42,436.52C173.56,437.08 185.88,436.44 192.92,438C197.88,439.1 201.08,442.59 205.14,442.88C209,443.15 213.28,441.1 216.69,440.08C219.47,439.25 224.23,437.7 224.16,437.42C224.07,437.06 211.26,439.3 211.26,439.31C211.26,439.33 235.59,435.4 235.71,435.87C235.76,436.07 231.6,436.77 231.64,437.31C231.74,438.69 253.95,435.95 259.49,442.65C267.69,452.57 267.79,496.98 259.49,504.79C253.93,510.02 231.78,504.14 231.64,503.11C231.58,502.71 235.76,501.88 235.71,501.68C235.6,501.21 211.26,505.13 211.26,505.11C211.26,505.09 224.07,502.86 224.16,503.22C224.23,503.5 219.5,505.5 216.69,505.88C213.3,506.34 209.04,505.37 205.14,505.03C201.12,504.68 197.78,504.19 192.92,503.81C185.78,503.25 173.54,501.82 166.42,502.32C161.54,502.66 157.26,505.26 154.2,504.76C152.17,504.43 151.67,502.73 149.44,502.03C145.2,500.71 136.13,500.53 129.74,500.36C123.7,500.2 117.98,501.87 112.08,500.91C105.76,499.88 101.59,494.97 93.06,493.88C77.02,491.83 38.04,505.75 21.74,500.98Q11.61,498.02 0,483.82Z" style="fill: rgb(230, 172, 33); fill-opacity: 0.05; stroke-width: 0;"/></g></g><g class="errorbars"/><g class="lines"><path class="js-line" d="M0,403.39Q10.57,426.71 21.74,431.52C37.6,438.35 77.02,422.37 93.06,424.42C101.59,425.51 105.78,429.75 112.08,431.45C118,433.05 123.67,433.76 129.74,434.55C136.11,435.38 145.12,436.46 149.44,436.23C151.58,436.11 152.24,435.39 154.2,435.3C157.32,435.15 161.56,436.14 166.42,436.52C173.56,437.08 185.88,436.44 192.92,438C197.88,439.1 201.08,442.59 205.14,442.88C209,443.15 213.28,441.1 216.69,440.08C219.47,439.25 224.23,437.7 224.16,437.42C224.07,437.06 211.26,439.3 211.26,439.31C211.26,439.33 235.59,435.4 235.71,435.87C235.76,436.07 231.6,436.77 231.64,437.31C231.74,438.69 253.95,435.95 259.49,442.65C267.69,452.57 267.79,496.98 259.49,504.79C253.93,510.02 231.78,504.14 231.64,503.11C231.58,502.71 235.76,501.88 235.71,501.68C235.6,501.21 211.26,505.13 211.26,505.11C211.26,505.09 224.07,502.86 224.16,503.22C224.23,503.5 219.5,505.5 216.69,505.88C213.3,506.34 209.04,505.37 205.14,505.03C201.12,504.68 197.78,504.19 192.92,503.81C185.78,503.25 173.54,501.82 166.42,502.32C161.54,502.66 157.26,505.26 154.2,504.76C152.17,504.43 151.67,502.73 149.44,502.03C145.2,500.71 136.13,500.53 129.74,500.36C123.7,500.2 117.98,501.87 112.08,500.91C105.76,499.88 101.59,494.97 93.06,493.88C77.02,491.83 38.04,505.75 21.74,500.98Q11.61,498.02 0,483.82" style="vector-effect: non-scaling-stroke; fill: none; stroke: rgb(255, 255, 255); stroke-opacity: 0; stroke-width: 2px; opacity: 1;"/></g><g class="points"/><g class="text"/></g><g class="trace scatter trace586e3a" style="stroke-miterlimit: 2; opacity: 1;"><g class="fills"><g><path class="js-fill" d="M0,429.42Q12.43,432.58 21.74,435.21C38.68,439.99 76.75,453.99 93.06,456.45C101.31,457.69 106,457.96 112.08,456.63C118.24,455.28 124.08,452.44 129.74,448.3C136.64,443.26 144.77,428.76 149.44,427.11C151.34,426.44 152.28,427.99 154.2,427.79C157.36,427.45 161.53,423.48 166.42,423.28C173.53,422.98 185.72,429.38 192.92,430.61C197.72,431.43 201.25,430.31 205.14,431.46C209.18,432.66 213.19,436.36 216.69,437.87C219.39,439.04 224.05,440.52 224.16,440.26C224.31,439.91 211.17,433.48 211.26,433.3C211.38,433.05 235.71,444.29 235.71,444.29C235.71,444.29 231.56,442.75 231.64,442.47C231.85,441.76 253.94,440.04 259.49,446.44C267.74,455.95 267.74,501.42 259.49,508.58C253.94,513.4 231.85,503.91 231.64,504.62C231.56,504.9 235.79,506.17 235.71,506.44C235.52,507.08 211.33,502.41 211.26,502.76C211.21,503.02 224.13,506.18 224.16,506.07C224.18,505.99 219.47,504.45 216.69,503.68C213.27,502.73 209.07,501.52 205.14,500.92C201.15,500.31 197.76,500.57 192.92,500.07C185.76,499.33 173.58,496.64 166.42,496.4C161.58,496.23 157.24,496.26 154.2,497.25C152.14,497.92 151.6,499 149.44,500.23C145.14,502.68 136.27,507.93 129.74,510.45C123.82,512.74 118.13,514.36 112.08,515.12C105.91,515.89 101.39,515.58 93.06,514.94C76.84,513.7 38.58,508.11 21.74,504.67Q12.33,502.75 0,498.88Z" style="fill: rgb(240, 125, 0); fill-opacity: 0.05; stroke-width: 0;"/></g></g><g class="errorbars"/><g class="lines"><path class="js-line" d="M0,429.42Q12.43,432.58 21.74,435.21C38.68,439.99 76.75,453.99 93.06,456.45C101.31,457.69 106,457.96 112.08,456.63C118.24,455.28 124.08,452.44 129.74,448.3C136.64,443.26 144.77,428.76 149.44,427.11C151.34,426.44 152.28,427.99 154.2,427.79C157.36,427.45 161.53,423.48 166.42,423.28C173.53,422.98 185.72,429.38 192.92,430.61C197.72,431.43 201.25,430.31 205.14,431.46C209.18,432.66 213.19,436.36 216.69,437.87C219.39,439.04 224.05,440.52 224.16,440.26C224.31,439.91 211.17,433.48 211.26,433.3C211.38,433.05 235.71,444.29 235.71,444.29C235.71,444.29 231.56,442.75 231.64,442.47C231.85,441.76 253.94,440.04 259.49,446.44C267.74,455.95 267.74,501.42 259.49,508.58C253.94,513.4 231.85,503.91 231.64,504.62C231.56,504.9 235.79,506.17 235.71,506.44C235.52,507.08 211.33,502.41 211.26,502.76C211.21,503.02 224.13,506.18 224.16,506.07C224.18,505.99 219.47,504.45 216.69,503.68C213.27,502.73 209.07,501.52 205.14,500.92C201.15,500.31 197.76,500.57 192.92,500.07C185.76,499.33 173.58,496.64 166.42,496.4C161.58,496.23 157.24,496.26 154.2,497.25C152.14,497.92 151.6,499 149.44,500.23C145.14,502.68 136.27,507.93 129.74,510.45C123.82,512.74 118.13,514.36 112.08,515.12C105.91,515.89 101.39,515.58 93.06,514.94C76.84,513.7 38.58,508.11 21.74,504.67Q12.33,502.75 0,498.88" style="vector-effect: non-scaling-stroke; fill: none; stroke: rgb(255, 255, 255); stroke-opacity: 0; stroke-width: 2px; opacity: 1;"/></g><g class="points"/><g class="text"/></g><g class="trace scatter tracee3d481" style="stroke-miterlimit: 2; opacity: 1;"><g class="fills"><g><path class="js-fill" d="M0,438.67Q11.53,452.86 21.74,456.53C38,462.37 76.89,457.78 93.06,456.69C101.45,456.12 105.88,453.77 112.08,454.06C118.1,454.34 123.68,456.87 129.74,458.19C136.12,459.57 145.18,460.65 149.44,462.14C151.64,462.91 152.17,464.08 154.2,464.59C157.26,465.36 161.63,465.48 166.42,464.79C173.63,463.75 185.72,458.14 192.92,456.55C197.72,455.49 201.15,455.71 205.14,454.91C209.07,454.13 213.23,452.14 216.69,451.83C219.43,451.59 224.16,452.41 224.16,452.46C224.16,452.52 211.26,451.8 211.26,451.81C211.26,451.83 235.69,453.35 235.71,453.16C235.72,453.08 231.66,452.52 231.64,452.61C231.6,452.84 254.1,452.2 259.49,458.96C266.96,468.33 267.07,506.92 259.49,513.8C254.07,518.72 231.65,511 231.64,511.1C231.64,511.14 235.71,511.43 235.71,511.65C235.7,512.19 211.33,514.41 211.26,513.95C211.21,513.61 224.07,510.66 224.16,510.95C224.23,511.18 219.51,513.5 216.69,513.98C213.31,514.55 209.04,513.24 205.14,513.4C201.12,513.57 197.76,514.3 192.92,515.04C185.77,516.14 173.59,519.06 166.42,519.62C161.59,520 157.26,520.2 154.2,519.43C152.17,518.92 151.66,517.53 149.44,516.98C145.19,515.92 136.09,517.46 129.74,516.68C123.65,515.93 118.1,512.83 112.08,512.55C105.88,512.26 101.45,514.61 93.06,515.18C76.89,516.27 38.36,518.86 21.74,515.02Q12.07,512.79 0,504.47Z" style="fill: rgb(0, 51, 255); fill-opacity: 0.05; stroke-width: 0;"/></g></g><g class="errorbars"/><g class="lines"><path class="js-line" d="M0,438.67Q11.53,452.86 21.74,456.53C38,462.37 76.89,457.78 93.06,456.69C101.45,456.12 105.88,453.77 112.08,454.06C118.1,454.34 123.68,456.87 129.74,458.19C136.12,459.57 145.18,460.65 149.44,462.14C151.64,462.91 152.17,464.08 154.2,464.59C157.26,465.36 161.63,465.48 166.42,464.79C173.63,463.75 185.72,458.14 192.92,456.55C197.72,455.49 201.15,455.71 205.14,454.91C209.07,454.13 213.23,452.14 216.69,451.83C219.43,451.59 224.16,452.41 224.16,452.46C224.16,452.52 211.26,451.8 211.26,451.81C211.26,451.83 235.69,453.35 235.71,453.16C235.72,453.08 231.66,452.52 231.64,452.61C231.6,452.84 254.1,452.2 259.49,458.96C266.96,468.33 267.07,506.92 259.49,513.8C254.07,518.72 231.65,511 231.64,511.1C231.64,511.14 235.71,511.43 235.71,511.65C235.7,512.19 211.33,514.41 211.26,513.95C211.21,513.61 224.07,510.66 224.16,510.95C224.23,511.18 219.51,513.5 216.69,513.98C213.31,514.55 209.04,513.24 205.14,513.4C201.12,513.57 197.76,514.3 192.92,515.04C185.77,516.14 173.59,519.06 166.42,519.62C161.59,520 157.26,520.2 154.2,519.43C152.17,518.92 151.66,517.53 149.44,516.98C145.19,515.92 136.09,517.46 129.74,516.68C123.65,515.93 118.1,512.83 112.08,512.55C105.88,512.26 101.45,514.61 93.06,515.18C76.89,516.27 38.36,518.86 21.74,515.02Q12.07,512.79 0,504.47" style="vector-effect: non-scaling-stroke; fill: none; stroke: rgb(255, 255, 255); stroke-opacity: 0; stroke-width: 2px; opacity: 1;"/></g><g class="points"/><g class="text"/></g><g class="trace scatter trace5a1589" style="stroke-miterlimit: 2; opacity: 1;"><g class="fills"><g><path class="js-fill" d="M0,448.9Q12.58,446.39 21.74,447.76C38.84,450.32 76.79,473.03 93.06,473.76C101.35,474.13 105.8,469.5 112.08,468.69C118.02,467.92 123.72,469.26 129.74,468.75C136.15,468.21 145.1,465.73 149.44,465.32C151.56,465.12 152.26,465.49 154.2,465.24C157.35,464.84 161.53,462.83 166.42,462.27C173.52,461.45 185.78,462.2 192.92,462.52C197.78,462.74 201.12,463.2 205.14,463.51C209.04,463.81 213.54,462.67 216.69,464.35C219.92,466.08 224.47,473.67 224.16,473.96C223.8,474.3 210.77,463.44 211.26,462.68C211.88,461.73 235.31,474.64 235.71,474.01C235.89,473.73 231.35,471.3 231.64,470.56C232.31,468.87 254.23,466.45 259.49,471.98C266.35,479.2 266.34,512.07 259.49,519.5C254.24,525.2 231.64,521.68 231.64,521.75C231.64,521.78 235.7,521.74 235.71,521.53C235.74,521.02 211.37,517.06 211.26,517.52C211.18,517.86 224.16,521.48 224.16,521.48C224.16,521.48 219.48,519.7 216.69,519.18C213.29,518.54 209.04,518.65 205.14,518.35C201.12,518.04 197.78,517.57 192.92,517.35C185.78,517.03 173.56,517.34 166.42,517.11C161.57,516.95 157.33,516.48 154.2,516.42C152.25,516.38 151.56,516.3 149.44,516.5C145.1,516.91 136.15,519.39 129.74,519.93C123.72,520.44 118.07,519.66 112.08,519.87C105.85,520.09 101.39,521.63 93.06,521.28C76.84,520.6 38.69,510.81 21.74,509.91Q12.44,509.42 0,511.05Z" style="fill: rgb(140, 0, 0); fill-opacity: 0.05; stroke-width: 0;"/></g></g><g class="errorbars"/><g class="lines"><path class="js-line" d="M0,448.9Q12.58,446.39 21.74,447.76C38.84,450.32 76.79,473.03 93.06,473.76C101.35,474.13 105.8,469.5 112.08,468.69C118.02,467.92 123.72,469.26 129.74,468.75C136.15,468.21 145.1,465.73 149.44,465.32C151.56,465.12 152.26,465.49 154.2,465.24C157.35,464.84 161.53,462.83 166.42,462.27C173.52,461.45 185.78,462.2 192.92,462.52C197.78,462.74 201.12,463.2 205.14,463.51C209.04,463.81 213.54,462.67 216.69,464.35C219.92,466.08 224.47,473.67 224.16,473.96C223.8,474.3 210.77,463.44 211.26,462.68C211.88,461.73 235.31,474.64 235.71,474.01C235.89,473.73 231.35,471.3 231.64,470.56C232.31,468.87 254.23,466.45 259.49,471.98C266.35,479.2 266.34,512.07 259.49,519.5C254.24,525.2 231.64,521.68 231.64,521.75C231.64,521.78 235.7,521.74 235.71,521.53C235.74,521.02 211.37,517.06 211.26,517.52C211.18,517.86 224.16,521.48 224.16,521.48C224.16,521.48 219.48,519.7 216.69,519.18C213.29,518.54 209.04,518.65 205.14,518.35C201.12,518.04 197.78,517.57 192.92,517.35C185.78,517.03 173.56,517.34 166.42,517.11C161.57,516.95 157.33,516.48 154.2,516.42C152.25,516.38 151.56,516.3 149.44,516.5C145.1,516.91 136.15,519.39 129.74,519.93C123.72,520.44 118.07,519.66 112.08,519.87C105.85,520.09 101.39,521.63 93.06,521.28C76.84,520.6 38.69,510.81 21.74,509.91Q12.44,509.42 0,511.05" style="vector-effect: non-scaling-stroke; fill: none; stroke: rgb(255, 255, 255); stroke-opacity: 0; stroke-width: 2px; opacity: 1;"/></g><g class="points"/><g class="text"/></g><g class="trace scatter trace3477b7" style="stroke-miterlimit: 2; opacity: 1;"><g class="fills"/><g class="errorbars"/><g class="lines"><path class="js-line" d="M0,145.64Q12.44,145.65 21.74,146.62C38.69,148.38 77.43,162.45 93.06,158.28C102.17,155.85 105.56,146.63 112.08,142.77C117.83,139.37 123.71,138.15 129.74,135.62C136.14,132.94 145.07,128.56 149.44,127.1C151.53,126.4 152.29,126.64 154.2,125.96C157.38,124.82 161.57,122.41 166.42,120.03C173.57,116.52 185.64,109.45 192.92,106.9C197.65,105.24 201.1,104.55 205.14,104.24C209.02,103.94 213.26,104.68 216.69,104.93C219.45,105.13 224.17,105.46 224.16,105.57C224.15,105.71 211.28,105.19 211.26,105.45C211.24,105.81 235.55,108.86 235.71,108.22C235.78,107.95 231.78,106.32 231.64,106.57Q231.24,107.28 259.49,127.84" style="vector-effect: non-scaling-stroke; fill: none; stroke: rgb(38, 16, 96); stroke-opacity: 1; stroke-width: 7px; opacity: 1;"/></g><g class="points"/><g class="text"/></g><g class="trace scatter tracee989e7" style="stroke-miterlimit: 2; opacity: 1;"><g class="fills"/><g class="errorbars"/><g class="lines"/><g class="points"><path class="point" transform="translate(0,145.1)" d="M7.5,0A7.5,7.5 0 1,1 0,-7.5A7.5,7.5 0 0,1 7.5,0Z" style="opacity: 1; stroke-width: 0px; fill: rgb(38, 16, 96); fill-opacity: 0.25;"/><path class="point" transform="translate(21.74,146.52)" d="M7.5,0A7.5,7.5 0 1,1 0,-7.5A7.5,7.5 0 0,1 7.5,0Z" style="opacity: 1; stroke-width: 0px; fill: rgb(38, 16, 96); fill-opacity: 0.25;"/><path class="point" transform="translate(93.06,174.93)" d="M7.5,0A7.5,7.5 0 1,1 0,-7.5A7.5,7.5 0 0,1 7.5,0Z" style="opacity: 1; stroke-width: 0px; fill: rgb(38, 16, 96); fill-opacity: 0.25;"/><path class="point" transform="translate(112.08,139.42)" d="M7.5,0A7.5,7.5 0 1,1 0,-7.5A7.5,7.5 0 0,1 7.5,0Z" style="opacity: 1; stroke-width: 0px; fill: rgb(38, 16, 96); fill-opacity: 0.25;"/><path class="point" transform="translate(129.74,139.42)" d="M7.5,0A7.5,7.5 0 1,1 0,-7.5A7.5,7.5 0 0,1 7.5,0Z" style="opacity: 1; stroke-width: 0px; fill: rgb(38, 16, 96); fill-opacity: 0.25;"/><path class="point" transform="translate(149.44,125.22)" d="M7.5,0A7.5,7.5 0 1,1 0,-7.5A7.5,7.5 0 0,1 7.5,0Z" style="opacity: 1; stroke-width: 0px; fill: rgb(38, 16, 96); fill-opacity: 0.25;"/><path class="point" transform="translate(154.2,132.32)" d="M7.5,0A7.5,7.5 0 1,1 0,-7.5A7.5,7.5 0 0,1 7.5,0Z" style="opacity: 1; stroke-width: 0px; fill: rgb(38, 16, 96); fill-opacity: 0.25;"/><path class="point" transform="translate(166.42,118.12)" d="M7.5,0A7.5,7.5 0 1,1 0,-7.5A7.5,7.5 0 0,1 7.5,0Z" style="opacity: 1; stroke-width: 0px; fill: rgb(38, 16, 96); fill-opacity: 0.25;"/><path class="point" transform="translate(192.92,103.92)" d="M7.5,0A7.5,7.5 0 1,1 0,-7.5A7.5,7.5 0 0,1 7.5,0Z" style="opacity: 1; stroke-width: 0px; fill: rgb(38, 16, 96); fill-opacity: 0.25;"/><path class="point" transform="translate(205.14,88.29)" d="M7.5,0A7.5,7.5 0 1,1 0,-7.5A7.5,7.5 0 0,1 7.5,0Z" style="opacity: 1; stroke-width: 0px; fill: rgb(38, 16, 96); fill-opacity: 0.25;"/><path class="point" transform="translate(216.69,96.82)" d="M7.5,0A7.5,7.5 0 1,1 0,-7.5A7.5,7.5 0 0,1 7.5,0Z" style="opacity: 1; stroke-width: 0px; fill: rgb(38, 16, 96); fill-opacity: 0.25;"/><path class="point" transform="translate(224.16,103.92)" d="M7.5,0A7.5,7.5 0 1,1 0,-7.5A7.5,7.5 0 0,1 7.5,0Z" style="opacity: 1; stroke-width: 0px; fill: rgb(38, 16, 96); fill-opacity: 0.25;"/><path class="point" transform="translate(211.26,118.12)" d="M7.5,0A7.5,7.5 0 1,1 0,-7.5A7.5,7.5 0 0,1 7.5,0Z" style="opacity: 1; stroke-width: 0px; fill: rgb(38, 16, 96); fill-opacity: 0.25;"/><path class="point" transform="translate(235.71,111.02)" d="M7.5,0A7.5,7.5 0 1,1 0,-7.5A7.5,7.5 0 0,1 7.5,0Z" style="opacity: 1; stroke-width: 0px; fill: rgb(38, 16, 96); fill-opacity: 0.25;"/><path class="point" transform="translate(231.64,96.82)" d="M7.5,0A7.5,7.5 0 1,1 0,-7.5A7.5,7.5 0 0,1 7.5,0Z" style="opacity: 1; stroke-width: 0px; fill: rgb(38, 16, 96); fill-opacity: 0.25;"/><path class="point" transform="translate(259.49,153.63)" d="M7.5,0A7.5,7.5 0 1,1 0,-7.5A7.5,7.5 0 0,1 7.5,0Z" style="opacity: 1; stroke-width: 0px; fill: rgb(38, 16, 96); fill-opacity: 0.25;"/></g><g class="text"/></g><g class="trace scatter trace4f0eb0" style="stroke-miterlimit: 2; opacity: 1;"><g class="fills"/><g class="errorbars"/><g class="lines"><path class="js-line" d="M0,328.54Q13.09,321.35 21.74,313.31C39.57,296.74 75.65,239.6 93.06,225.85C100.59,219.9 105.69,218.31 112.08,216.65C117.93,215.13 124.51,212.65 129.74,215.64C137.9,220.3 144.23,250.47 149.44,253.85C151.18,254.97 152.53,253.13 154.2,254.11C157.86,256.25 160.91,267.24 166.42,273.34C173.13,280.76 185.38,291.29 192.92,294.2C197.46,295.95 201.18,295.62 205.14,295.06C209.11,294.5 213.26,290.81 216.69,290.85C219.46,290.88 224.26,293.26 224.16,293.76C224.03,294.39 211.33,294.02 211.26,293.36C211.16,292.43 235.23,286.48 235.71,287.48C235.93,287.93 231.78,290.82 231.64,290.67Q231.24,290.24 259.49,260.33" style="vector-effect: non-scaling-stroke; fill: none; stroke: rgb(0, 68, 148); stroke-opacity: 1; stroke-width: 7px; opacity: 1;"/></g><g class="points"/><g class="text"/></g><g class="trace scatter trace8fd009" style="stroke-miterlimit: 2; opacity: 1;"><g class="fills"/><g class="errorbars"/><g class="lines"/><g class="points"><path class="point" transform="translate(0,336.84)" d="M7.5,0A7.5,7.5 0 1,1 0,-7.5A7.5,7.5 0 0,1 7.5,0Z" style="opacity: 1; stroke-width: 0px; fill: rgb(0, 68, 148); fill-opacity: 0.25;"/><path class="point" transform="translate(21.74,309.86)" d="M7.5,0A7.5,7.5 0 1,1 0,-7.5A7.5,7.5 0 0,1 7.5,0Z" style="opacity: 1; stroke-width: 0px; fill: rgb(0, 68, 148); fill-opacity: 0.25;"/><path class="point" transform="translate(93.06,231.74)" d="M7.5,0A7.5,7.5 0 1,1 0,-7.5A7.5,7.5 0 0,1 7.5,0Z" style="opacity: 1; stroke-width: 0px; fill: rgb(0, 68, 148); fill-opacity: 0.25;"/><path class="point" transform="translate(112.08,210.44)" d="M7.5,0A7.5,7.5 0 1,1 0,-7.5A7.5,7.5 0 0,1 7.5,0Z" style="opacity: 1; stroke-width: 0px; fill: rgb(0, 68, 148); fill-opacity: 0.25;"/><path class="point" transform="translate(129.74,160.73)" d="M7.5,0A7.5,7.5 0 1,1 0,-7.5A7.5,7.5 0 0,1 7.5,0Z" style="opacity: 1; stroke-width: 0px; fill: rgb(0, 68, 148); fill-opacity: 0.25;"/><path class="point" transform="translate(149.44,295.65)" d="M7.5,0A7.5,7.5 0 1,1 0,-7.5A7.5,7.5 0 0,1 7.5,0Z" style="opacity: 1; stroke-width: 0px; fill: rgb(0, 68, 148); fill-opacity: 0.25;"/><path class="point" transform="translate(154.2,210.44)" d="M7.5,0A7.5,7.5 0 1,1 0,-7.5A7.5,7.5 0 0,1 7.5,0Z" style="opacity: 1; stroke-width: 0px; fill: rgb(0, 68, 148); fill-opacity: 0.25;"/><path class="point" transform="translate(166.42,301.34)" d="M7.5,0A7.5,7.5 0 1,1 0,-7.5A7.5,7.5 0 0,1 7.5,0Z" style="opacity: 1; stroke-width: 0px; fill: rgb(0, 68, 148); fill-opacity: 0.25;"/><path class="point" transform="translate(192.92,309.86)" d="M7.5,0A7.5,7.5 0 1,1 0,-7.5A7.5,7.5 0 0,1 7.5,0Z" style="opacity: 1; stroke-width: 0px; fill: rgb(0, 68, 148); fill-opacity: 0.25;"/><path class="point" transform="translate(205.14,309.86)" d="M7.5,0A7.5,7.5 0 1,1 0,-7.5A7.5,7.5 0 0,1 7.5,0Z" style="opacity: 1; stroke-width: 0px; fill: rgb(0, 68, 148); fill-opacity: 0.25;"/><path class="point" transform="translate(216.69,253.05)" d="M7.5,0A7.5,7.5 0 1,1 0,-7.5A7.5,7.5 0 0,1 7.5,0Z" style="opacity: 1; stroke-width: 0px; fill: rgb(0, 68, 148); fill-opacity: 0.25;"/><path class="point" transform="translate(224.16,328.32)" d="M7.5,0A7.5,7.5 0 1,1 0,-7.5A7.5,7.5 0 0,1 7.5,0Z" style="opacity: 1; stroke-width: 0px; fill: rgb(0, 68, 148); fill-opacity: 0.25;"/><path class="point" transform="translate(211.26,302.76)" d="M7.5,0A7.5,7.5 0 1,1 0,-7.5A7.5,7.5 0 0,1 7.5,0Z" style="opacity: 1; stroke-width: 0px; fill: rgb(0, 68, 148); fill-opacity: 0.25;"/><path class="point" transform="translate(235.71,274.35)" d="M7.5,0A7.5,7.5 0 1,1 0,-7.5A7.5,7.5 0 0,1 7.5,0Z" style="opacity: 1; stroke-width: 0px; fill: rgb(0, 68, 148); fill-opacity: 0.25;"/><path class="point" transform="translate(231.64,302.76)" d="M7.5,0A7.5,7.5 0 1,1 0,-7.5A7.5,7.5 0 0,1 7.5,0Z" style="opacity: 1; stroke-width: 0px; fill: rgb(0, 68, 148); fill-opacity: 0.25;"/><path class="point" transform="translate(259.49,224.64)" d="M7.5,0A7.5,7.5 0 1,1 0,-7.5A7.5,7.5 0 0,1 7.5,0Z" style="opacity: 1; stroke-width: 0px; fill: rgb(0, 68, 148); fill-opacity: 0.25;"/></g><g class="text"/></g><g class="trace scatter tracea67141" style="stroke-miterlimit: 2; opacity: 1;"><g class="fills"/><g class="errorbars"/><g class="lines"><path class="js-line" d="M0,393.75Q12.51,395.15 21.74,393.93C38.77,391.68 76.91,373.72 93.06,374.15C101.47,374.37 105.89,380.71 112.08,380.53C118.11,380.35 123.64,375.58 129.74,373.42C136.08,371.18 145.09,368.46 149.44,367.39C151.55,366.87 152.29,367.1 154.2,366.49C157.38,365.47 161.46,362.54 166.42,360.87C173.47,358.5 185.74,356.02 192.92,354.98C197.74,354.28 201.12,354.23 205.14,354.15C209.04,354.08 213.26,354.69 216.69,354.5C219.46,354.35 224.17,353.72 224.16,353.46C224.14,353.12 211.32,352.47 211.26,352.91C211.18,353.53 235.66,358.61 235.71,358.41C235.73,358.33 231.63,357.16 231.64,357.13Q231.66,357.06 259.49,365.04" style="vector-effect: non-scaling-stroke; fill: none; stroke: rgb(234, 35, 41); stroke-opacity: 1; stroke-width: 7px; opacity: 1;"/></g><g class="points"/><g class="text"/></g><g class="trace scatter trace676c2a" style="stroke-miterlimit: 2; opacity: 1;"><g class="fills"/><g class="errorbars"/><g class="lines"/><g class="points"><path class="point" transform="translate(0,393.65)" d="M7.5,0A7.5,7.5 0 1,1 0,-7.5A7.5,7.5 0 0,1 7.5,0Z" style="opacity: 1; stroke-width: 0px; fill: rgb(234, 35, 41); fill-opacity: 0.25;"/><path class="point" transform="translate(21.74,395.07)" d="M7.5,0A7.5,7.5 0 1,1 0,-7.5A7.5,7.5 0 0,1 7.5,0Z" style="opacity: 1; stroke-width: 0px; fill: rgb(234, 35, 41); fill-opacity: 0.25;"/><path class="point" transform="translate(93.06,366.67)" d="M7.5,0A7.5,7.5 0 1,1 0,-7.5A7.5,7.5 0 0,1 7.5,0Z" style="opacity: 1; stroke-width: 0px; fill: rgb(234, 35, 41); fill-opacity: 0.25;"/><path class="point" transform="translate(112.08,395.07)" d="M7.5,0A7.5,7.5 0 1,1 0,-7.5A7.5,7.5 0 0,1 7.5,0Z" style="opacity: 1; stroke-width: 0px; fill: rgb(234, 35, 41); fill-opacity: 0.25;"/><path class="point" transform="translate(129.74,373.77)" d="M7.5,0A7.5,7.5 0 1,1 0,-7.5A7.5,7.5 0 0,1 7.5,0Z" style="opacity: 1; stroke-width: 0px; fill: rgb(234, 35, 41); fill-opacity: 0.25;"/><path class="point" transform="translate(149.44,366.67)" d="M7.5,0A7.5,7.5 0 1,1 0,-7.5A7.5,7.5 0 0,1 7.5,0Z" style="opacity: 1; stroke-width: 0px; fill: rgb(234, 35, 41); fill-opacity: 0.25;"/><path class="point" transform="translate(154.2,373.77)" d="M7.5,0A7.5,7.5 0 1,1 0,-7.5A7.5,7.5 0 0,1 7.5,0Z" style="opacity: 1; stroke-width: 0px; fill: rgb(234, 35, 41); fill-opacity: 0.25;"/><path class="point" transform="translate(166.42,352.47)" d="M7.5,0A7.5,7.5 0 1,1 0,-7.5A7.5,7.5 0 0,1 7.5,0Z" style="opacity: 1; stroke-width: 0px; fill: rgb(234, 35, 41); fill-opacity: 0.25;"/><path class="point" transform="translate(192.92,352.47)" d="M7.5,0A7.5,7.5 0 1,1 0,-7.5A7.5,7.5 0 0,1 7.5,0Z" style="opacity: 1; stroke-width: 0px; fill: rgb(234, 35, 41); fill-opacity: 0.25;"/><path class="point" transform="translate(205.14,360.99)" d="M7.5,0A7.5,7.5 0 1,1 0,-7.5A7.5,7.5 0 0,1 7.5,0Z" style="opacity: 1; stroke-width: 0px; fill: rgb(234, 35, 41); fill-opacity: 0.25;"/><path class="point" transform="translate(216.69,373.77)" d="M7.5,0A7.5,7.5 0 1,1 0,-7.5A7.5,7.5 0 0,1 7.5,0Z" style="opacity: 1; stroke-width: 0px; fill: rgb(234, 35, 41); fill-opacity: 0.25;"/><path class="point" transform="translate(224.16,326.9)" d="M7.5,0A7.5,7.5 0 1,1 0,-7.5A7.5,7.5 0 0,1 7.5,0Z" style="opacity: 1; stroke-width: 0px; fill: rgb(234, 35, 41); fill-opacity: 0.25;"/><path class="point" transform="translate(211.26,331.16)" d="M7.5,0A7.5,7.5 0 1,1 0,-7.5A7.5,7.5 0 0,1 7.5,0Z" style="opacity: 1; stroke-width: 0px; fill: rgb(234, 35, 41); fill-opacity: 0.25;"/><path class="point" transform="translate(235.71,366.67)" d="M7.5,0A7.5,7.5 0 1,1 0,-7.5A7.5,7.5 0 0,1 7.5,0Z" style="opacity: 1; stroke-width: 0px; fill: rgb(234, 35, 41); fill-opacity: 0.25;"/><path class="point" transform="translate(231.64,366.67)" d="M7.5,0A7.5,7.5 0 1,1 0,-7.5A7.5,7.5 0 0,1 7.5,0Z" style="opacity: 1; stroke-width: 0px; fill: rgb(234, 35, 41); fill-opacity: 0.25;"/><path class="point" transform="translate(259.49,373.77)" d="M7.5,0A7.5,7.5 0 1,1 0,-7.5A7.5,7.5 0 0,1 7.5,0Z" style="opacity: 1; stroke-width: 0px; fill: rgb(234, 35, 41); fill-opacity: 0.25;"/></g><g class="text"/></g><g class="trace scatter trace9ed2e6" style="stroke-miterlimit: 2; opacity: 1;"><g class="fills"/><g class="errorbars"/><g class="lines"><path class="js-line" d="M0,400.84Q12.12,408.3 21.74,411.42C38.39,416.82 76.83,422.14 93.06,423.98C101.38,424.93 105.86,424.5 112.08,424.97C118.08,425.42 124.19,428.85 129.74,426.73C136.86,424.01 144.94,409.06 149.44,405.23C151.43,403.54 152.33,403.61 154.2,402.11C157.43,399.51 161.01,392.69 166.42,390.19C173.17,387.06 185.78,387.61 192.92,387.68C197.78,387.73 201.12,388.63 205.14,389.09C209.04,389.54 213.25,390.31 216.69,390.43C219.45,390.52 224.15,390.32 224.16,390.07C224.17,389.74 211.24,388.65 211.26,388.4C211.29,388.06 235.69,389.38 235.71,389.11C235.72,389 231.68,388.97 231.64,388.52Q231.54,387.31 259.49,379.41" style="vector-effect: non-scaling-stroke; fill: none; stroke: rgb(0, 0, 0); stroke-opacity: 1; stroke-width: 7px; opacity: 1;"/></g><g class="points"/><g class="text"/></g><g class="trace scatter trace68d941" style="stroke-miterlimit: 2; opacity: 1;"><g class="fills"/><g class="errorbars"/><g class="lines"/><g class="points"><path class="point" transform="translate(0,395.07)" d="M7.5,0A7.5,7.5 0 1,1 0,-7.5A7.5,7.5 0 0,1 7.5,0Z" style="opacity: 1; stroke-width: 0px; fill: rgb(0, 0, 0); fill-opacity: 0.25;"/><path class="point" transform="translate(21.74,416.38)" d="M7.5,0A7.5,7.5 0 1,1 0,-7.5A7.5,7.5 0 0,1 7.5,0Z" style="opacity: 1; stroke-width: 0px; fill: rgb(0, 0, 0); fill-opacity: 0.25;"/><path class="point" transform="translate(93.06,423.48)" d="M7.5,0A7.5,7.5 0 1,1 0,-7.5A7.5,7.5 0 0,1 7.5,0Z" style="opacity: 1; stroke-width: 0px; fill: rgb(0, 0, 0); fill-opacity: 0.25;"/><path class="point" transform="translate(112.08,423.48)" d="M7.5,0A7.5,7.5 0 1,1 0,-7.5A7.5,7.5 0 0,1 7.5,0Z" style="opacity: 1; stroke-width: 0px; fill: rgb(0, 0, 0); fill-opacity: 0.25;"/><path class="point" transform="translate(129.74,458.99)" d="M7.5,0A7.5,7.5 0 1,1 0,-7.5A7.5,7.5 0 0,1 7.5,0Z" style="opacity: 1; stroke-width: 0px; fill: rgb(0, 0, 0); fill-opacity: 0.25;"/><path class="point" transform="translate(149.44,402.17)" d="M7.5,0A7.5,7.5 0 1,1 0,-7.5A7.5,7.5 0 0,1 7.5,0Z" style="opacity: 1; stroke-width: 0px; fill: rgb(0, 0, 0); fill-opacity: 0.25;"/><path class="point" transform="translate(154.2,409.28)" d="M7.5,0A7.5,7.5 0 1,1 0,-7.5A7.5,7.5 0 0,1 7.5,0Z" style="opacity: 1; stroke-width: 0px; fill: rgb(0, 0, 0); fill-opacity: 0.25;"/><path class="point" transform="translate(166.42,362.41)" d="M7.5,0A7.5,7.5 0 1,1 0,-7.5A7.5,7.5 0 0,1 7.5,0Z" style="opacity: 1; stroke-width: 0px; fill: rgb(0, 0, 0); fill-opacity: 0.25;"/><path class="point" transform="translate(192.92,380.87)" d="M7.5,0A7.5,7.5 0 1,1 0,-7.5A7.5,7.5 0 0,1 7.5,0Z" style="opacity: 1; stroke-width: 0px; fill: rgb(0, 0, 0); fill-opacity: 0.25;"/><path class="point" transform="translate(205.14,397.91)" d="M7.5,0A7.5,7.5 0 1,1 0,-7.5A7.5,7.5 0 0,1 7.5,0Z" style="opacity: 1; stroke-width: 0px; fill: rgb(0, 0, 0); fill-opacity: 0.25;"/><path class="point" transform="translate(216.69,409.28)" d="M7.5,0A7.5,7.5 0 1,1 0,-7.5A7.5,7.5 0 0,1 7.5,0Z" style="opacity: 1; stroke-width: 0px; fill: rgb(0, 0, 0); fill-opacity: 0.25;"/><path class="point" transform="translate(224.16,396.49)" d="M7.5,0A7.5,7.5 0 1,1 0,-7.5A7.5,7.5 0 0,1 7.5,0Z" style="opacity: 1; stroke-width: 0px; fill: rgb(0, 0, 0); fill-opacity: 0.25;"/><path class="point" transform="translate(211.26,366.67)" d="M7.5,0A7.5,7.5 0 1,1 0,-7.5A7.5,7.5 0 0,1 7.5,0Z" style="opacity: 1; stroke-width: 0px; fill: rgb(0, 0, 0); fill-opacity: 0.25;"/><path class="point" transform="translate(235.71,402.17)" d="M7.5,0A7.5,7.5 0 1,1 0,-7.5A7.5,7.5 0 0,1 7.5,0Z" style="opacity: 1; stroke-width: 0px; fill: rgb(0, 0, 0); fill-opacity: 0.25;"/><path class="point" transform="translate(231.64,373.77)" d="M7.5,0A7.5,7.5 0 1,1 0,-7.5A7.5,7.5 0 0,1 7.5,0Z" style="opacity: 1; stroke-width: 0px; fill: rgb(0, 0, 0); fill-opacity: 0.25;"/><path class="point" transform="translate(259.49,366.67)" d="M7.5,0A7.5,7.5 0 1,1 0,-7.5A7.5,7.5 0 0,1 7.5,0Z" style="opacity: 1; stroke-width: 0px; fill: rgb(0, 0, 0); fill-opacity: 0.25;"/></g><g class="text"/></g><g class="trace scatter trace3c0a87" style="stroke-miterlimit: 2; opacity: 1;"><g class="fills"/><g class="errorbars"/><g class="lines"><path class="js-line" d="M0,417.82Q8.62,377.79 21.74,370.95C37.28,362.85 77.14,378.16 93.06,383.58C101.73,386.53 105.9,390.08 112.08,393.51C118.12,396.87 123.97,399.46 129.74,403.94C136.47,409.17 145.16,419.18 149.44,423.76C151.61,426.08 152.19,427.06 154.2,429.16C157.28,432.38 161.12,437.69 166.42,440.9C173.23,445.02 185.71,448.07 192.92,449.79C197.71,450.93 201.12,451.52 205.14,451.56C209.04,451.6 213.26,450.52 216.69,450.15C219.45,449.85 224.14,449.28 224.16,449.44C224.19,449.65 211.31,452.37 211.26,452.17C211.19,451.88 235.54,444.42 235.71,444.84C235.78,445.02 231.52,446.51 231.64,446.92Q231.93,447.94 259.49,444.81" style="vector-effect: non-scaling-stroke; fill: none; stroke: rgb(93, 140, 0); stroke-opacity: 1; stroke-width: 7px; opacity: 1;"/></g><g class="points"/><g class="text"/></g><g class="trace scatter traced96195" style="stroke-miterlimit: 2; opacity: 1;"><g class="fills"/><g class="errorbars"/><g class="lines"/><g class="points"><path class="point" transform="translate(0,443.36)" d="M7.5,0A7.5,7.5 0 1,1 0,-7.5A7.5,7.5 0 0,1 7.5,0Z" style="opacity: 1; stroke-width: 0px; fill: rgb(93, 140, 0); fill-opacity: 0.25;"/><path class="point" transform="translate(21.74,345.36)" d="M7.5,0A7.5,7.5 0 1,1 0,-7.5A7.5,7.5 0 0,1 7.5,0Z" style="opacity: 1; stroke-width: 0px; fill: rgb(93, 140, 0); fill-opacity: 0.25;"/><path class="point" transform="translate(93.06,373.77)" d="M7.5,0A7.5,7.5 0 1,1 0,-7.5A7.5,7.5 0 0,1 7.5,0Z" style="opacity: 1; stroke-width: 0px; fill: rgb(93, 140, 0); fill-opacity: 0.25;"/><path class="point" transform="translate(112.08,387.97)" d="M7.5,0A7.5,7.5 0 1,1 0,-7.5A7.5,7.5 0 0,1 7.5,0Z" style="opacity: 1; stroke-width: 0px; fill: rgb(93, 140, 0); fill-opacity: 0.25;"/><path class="point" transform="translate(129.74,387.97)" d="M7.5,0A7.5,7.5 0 1,1 0,-7.5A7.5,7.5 0 0,1 7.5,0Z" style="opacity: 1; stroke-width: 0px; fill: rgb(93, 140, 0); fill-opacity: 0.25;"/><path class="point" transform="translate(149.44,409.28)" d="M7.5,0A7.5,7.5 0 1,1 0,-7.5A7.5,7.5 0 0,1 7.5,0Z" style="opacity: 1; stroke-width: 0px; fill: rgb(93, 140, 0); fill-opacity: 0.25;"/><path class="point" transform="translate(154.2,437.68)" d="M7.5,0A7.5,7.5 0 1,1 0,-7.5A7.5,7.5 0 0,1 7.5,0Z" style="opacity: 1; stroke-width: 0px; fill: rgb(93, 140, 0); fill-opacity: 0.25;"/><path class="point" transform="translate(166.42,461.83)" d="M7.5,0A7.5,7.5 0 1,1 0,-7.5A7.5,7.5 0 0,1 7.5,0Z" style="opacity: 1; stroke-width: 0px; fill: rgb(93, 140, 0); fill-opacity: 0.25;"/><path class="point" transform="translate(192.92,451.88)" d="M7.5,0A7.5,7.5 0 1,1 0,-7.5A7.5,7.5 0 0,1 7.5,0Z" style="opacity: 1; stroke-width: 0px; fill: rgb(93, 140, 0); fill-opacity: 0.25;"/><path class="point" transform="translate(205.14,451.88)" d="M7.5,0A7.5,7.5 0 1,1 0,-7.5A7.5,7.5 0 0,1 7.5,0Z" style="opacity: 1; stroke-width: 0px; fill: rgb(93, 140, 0); fill-opacity: 0.25;"/><path class="point" transform="translate(216.69,437.68)" d="M7.5,0A7.5,7.5 0 1,1 0,-7.5A7.5,7.5 0 0,1 7.5,0Z" style="opacity: 1; stroke-width: 0px; fill: rgb(93, 140, 0); fill-opacity: 0.25;"/><path class="point" transform="translate(224.16,458.99)" d="M7.5,0A7.5,7.5 0 1,1 0,-7.5A7.5,7.5 0 0,1 7.5,0Z" style="opacity: 1; stroke-width: 0px; fill: rgb(93, 140, 0); fill-opacity: 0.25;"/><path class="point" transform="translate(211.26,473.19)" d="M7.5,0A7.5,7.5 0 1,1 0,-7.5A7.5,7.5 0 0,1 7.5,0Z" style="opacity: 1; stroke-width: 0px; fill: rgb(93, 140, 0); fill-opacity: 0.25;"/><path class="point" transform="translate(235.71,423.48)" d="M7.5,0A7.5,7.5 0 1,1 0,-7.5A7.5,7.5 0 0,1 7.5,0Z" style="opacity: 1; stroke-width: 0px; fill: rgb(93, 140, 0); fill-opacity: 0.25;"/><path class="point" transform="translate(231.64,451.88)" d="M7.5,0A7.5,7.5 0 1,1 0,-7.5A7.5,7.5 0 0,1 7.5,0Z" style="opacity: 1; stroke-width: 0px; fill: rgb(93, 140, 0); fill-opacity: 0.25;"/><path class="point" transform="translate(259.49,444.78)" d="M7.5,0A7.5,7.5 0 1,1 0,-7.5A7.5,7.5 0 0,1 7.5,0Z" style="opacity: 1; stroke-width: 0px; fill: rgb(93, 140, 0); fill-opacity: 0.25;"/></g><g class="text"/></g><g class="trace scatter trace9a1fe2" style="stroke-miterlimit: 2; opacity: 1;"><g class="fills"/><g class="errorbars"/><g class="lines"><path class="js-line" d="M0,428.75Q12.49,428.99 21.74,430.6C38.75,433.55 77.21,442.56 93.06,449.51C101.82,453.35 105.79,457.93 112.08,461.64C118.01,465.14 123.51,470.26 129.74,471.25C135.96,472.23 145.1,468.15 149.44,467.57C151.56,467.29 152.27,467.54 154.2,467.18C157.36,466.59 161.51,464.42 166.42,463.52C173.51,462.22 185.77,461.76 192.92,461.58C197.77,461.46 201.13,461.63 205.14,461.85C209.05,462.06 213.27,463.05 216.69,462.86C219.46,462.71 224.17,461.43 224.16,461.38C224.15,461.32 211.24,463.35 211.26,463.51C211.29,463.73 235.67,461.84 235.71,461.1C235.73,460.79 231.62,460.53 231.64,460.21Q231.68,459.37 259.49,457.12" style="vector-effect: non-scaling-stroke; fill: none; stroke: rgb(114, 55, 105); stroke-opacity: 1; stroke-width: 7px; opacity: 1;"/></g><g class="points"/><g class="text"/></g><g class="trace scatter trace6be651" style="stroke-miterlimit: 2; opacity: 1;"><g class="fills"/><g class="errorbars"/><g class="lines"/><g class="points"><path class="point" transform="translate(0,427.74)" d="M7.5,0A7.5,7.5 0 1,1 0,-7.5A7.5,7.5 0 0,1 7.5,0Z" style="opacity: 1; stroke-width: 0px; fill: rgb(114, 55, 105); fill-opacity: 0.25;"/><path class="point" transform="translate(21.74,430.58)" d="M7.5,0A7.5,7.5 0 1,1 0,-7.5A7.5,7.5 0 0,1 7.5,0Z" style="opacity: 1; stroke-width: 0px; fill: rgb(114, 55, 105); fill-opacity: 0.25;"/><path class="point" transform="translate(93.06,437.68)" d="M7.5,0A7.5,7.5 0 1,1 0,-7.5A7.5,7.5 0 0,1 7.5,0Z" style="opacity: 1; stroke-width: 0px; fill: rgb(114, 55, 105); fill-opacity: 0.25;"/><path class="point" transform="translate(112.08,458.99)" d="M7.5,0A7.5,7.5 0 1,1 0,-7.5A7.5,7.5 0 0,1 7.5,0Z" style="opacity: 1; stroke-width: 0px; fill: rgb(114, 55, 105); fill-opacity: 0.25;"/><path class="point" transform="translate(129.74,487.39)" d="M7.5,0A7.5,7.5 0 1,1 0,-7.5A7.5,7.5 0 0,1 7.5,0Z" style="opacity: 1; stroke-width: 0px; fill: rgb(114, 55, 105); fill-opacity: 0.25;"/><path class="point" transform="translate(149.44,466.09)" d="M7.5,0A7.5,7.5 0 1,1 0,-7.5A7.5,7.5 0 0,1 7.5,0Z" style="opacity: 1; stroke-width: 0px; fill: rgb(114, 55, 105); fill-opacity: 0.25;"/><path class="point" transform="translate(154.2,473.19)" d="M7.5,0A7.5,7.5 0 1,1 0,-7.5A7.5,7.5 0 0,1 7.5,0Z" style="opacity: 1; stroke-width: 0px; fill: rgb(114, 55, 105); fill-opacity: 0.25;"/><path class="point" transform="translate(166.42,456.15)" d="M7.5,0A7.5,7.5 0 1,1 0,-7.5A7.5,7.5 0 0,1 7.5,0Z" style="opacity: 1; stroke-width: 0px; fill: rgb(114, 55, 105); fill-opacity: 0.25;"/><path class="point" transform="translate(192.92,458.99)" d="M7.5,0A7.5,7.5 0 1,1 0,-7.5A7.5,7.5 0 0,1 7.5,0Z" style="opacity: 1; stroke-width: 0px; fill: rgb(114, 55, 105); fill-opacity: 0.25;"/><path class="point" transform="translate(205.14,450.46)" d="M7.5,0A7.5,7.5 0 1,1 0,-7.5A7.5,7.5 0 0,1 7.5,0Z" style="opacity: 1; stroke-width: 0px; fill: rgb(114, 55, 105); fill-opacity: 0.25;"/><path class="point" transform="translate(216.69,466.09)" d="M7.5,0A7.5,7.5 0 1,1 0,-7.5A7.5,7.5 0 0,1 7.5,0Z" style="opacity: 1; stroke-width: 0px; fill: rgb(114, 55, 105); fill-opacity: 0.25;"/><path class="point" transform="translate(224.16,458.99)" d="M7.5,0A7.5,7.5 0 1,1 0,-7.5A7.5,7.5 0 0,1 7.5,0Z" style="opacity: 1; stroke-width: 0px; fill: rgb(114, 55, 105); fill-opacity: 0.25;"/><path class="point" transform="translate(211.26,480.29)" d="M7.5,0A7.5,7.5 0 1,1 0,-7.5A7.5,7.5 0 0,1 7.5,0Z" style="opacity: 1; stroke-width: 0px; fill: rgb(114, 55, 105); fill-opacity: 0.25;"/><path class="point" transform="translate(235.71,473.19)" d="M7.5,0A7.5,7.5 0 1,1 0,-7.5A7.5,7.5 0 0,1 7.5,0Z" style="opacity: 1; stroke-width: 0px; fill: rgb(114, 55, 105); fill-opacity: 0.25;"/><path class="point" transform="translate(231.64,444.78)" d="M7.5,0A7.5,7.5 0 1,1 0,-7.5A7.5,7.5 0 0,1 7.5,0Z" style="opacity: 1; stroke-width: 0px; fill: rgb(114, 55, 105); fill-opacity: 0.25;"/><path class="point" transform="translate(259.49,451.88)" d="M7.5,0A7.5,7.5 0 1,1 0,-7.5A7.5,7.5 0 0,1 7.5,0Z" style="opacity: 1; stroke-width: 0px; fill: rgb(114, 55, 105); fill-opacity: 0.25;"/></g><g class="text"/></g><g class="trace scatter trace455f91" style="stroke-miterlimit: 2; opacity: 1;"><g class="fills"/><g class="errorbars"/><g class="lines"><path class="js-line" d="M0,444.57Q11.08,463.68 21.74,467.63C37.78,473.57 77.05,457.9 93.06,460.11C101.62,461.29 105.74,466.38 112.08,467.7C117.97,468.93 123.7,467.85 129.74,468.25C136.13,468.67 145.12,469.59 149.44,470.23C151.58,470.55 152.24,471.07 154.2,471.16C157.32,471.31 161.57,469.98 166.42,469.94C173.56,469.88 185.8,471.11 192.92,472.11C197.8,472.79 201.11,474.3 205.14,474.55C209.03,474.79 213.26,474.04 216.69,473.69C219.45,473.4 224.16,472.69 224.16,472.7C224.16,472.71 211.27,474.51 211.26,474.46C211.25,474.39 235.44,469.79 235.71,470.59C235.83,470.94 231.51,472.21 231.64,472.81Q231.96,474.29 259.49,474.78" style="vector-effect: non-scaling-stroke; fill: none; stroke: rgb(230, 172, 33); stroke-opacity: 1; stroke-width: 7px; opacity: 1;"/></g><g class="points"/><g class="text"/></g><g class="trace scatter trace44317e" style="stroke-miterlimit: 2; opacity: 1;"><g class="fills"/><g class="errorbars"/><g class="lines"/><g class="points"><path class="point" transform="translate(0,432)" d="M7.5,0A7.5,7.5 0 1,1 0,-7.5A7.5,7.5 0 0,1 7.5,0Z" style="opacity: 1; stroke-width: 0px; fill: rgb(230, 172, 33); fill-opacity: 0.25;"/><path class="point" transform="translate(21.74,480.29)" d="M7.5,0A7.5,7.5 0 1,1 0,-7.5A7.5,7.5 0 0,1 7.5,0Z" style="opacity: 1; stroke-width: 0px; fill: rgb(230, 172, 33); fill-opacity: 0.25;"/><path class="point" transform="translate(93.06,451.88)" d="M7.5,0A7.5,7.5 0 1,1 0,-7.5A7.5,7.5 0 0,1 7.5,0Z" style="opacity: 1; stroke-width: 0px; fill: rgb(230, 172, 33); fill-opacity: 0.25;"/><path class="point" transform="translate(112.08,473.19)" d="M7.5,0A7.5,7.5 0 1,1 0,-7.5A7.5,7.5 0 0,1 7.5,0Z" style="opacity: 1; stroke-width: 0px; fill: rgb(230, 172, 33); fill-opacity: 0.25;"/><path class="point" transform="translate(129.74,466.09)" d="M7.5,0A7.5,7.5 0 1,1 0,-7.5A7.5,7.5 0 0,1 7.5,0Z" style="opacity: 1; stroke-width: 0px; fill: rgb(230, 172, 33); fill-opacity: 0.25;"/><path class="point" transform="translate(149.44,466.09)" d="M7.5,0A7.5,7.5 0 1,1 0,-7.5A7.5,7.5 0 0,1 7.5,0Z" style="opacity: 1; stroke-width: 0px; fill: rgb(230, 172, 33); fill-opacity: 0.25;"/><path class="point" transform="translate(154.2,480.29)" d="M7.5,0A7.5,7.5 0 1,1 0,-7.5A7.5,7.5 0 0,1 7.5,0Z" style="opacity: 1; stroke-width: 0px; fill: rgb(230, 172, 33); fill-opacity: 0.25;"/><path class="point" transform="translate(166.42,464.67)" d="M7.5,0A7.5,7.5 0 1,1 0,-7.5A7.5,7.5 0 0,1 7.5,0Z" style="opacity: 1; stroke-width: 0px; fill: rgb(230, 172, 33); fill-opacity: 0.25;"/><path class="point" transform="translate(192.92,466.09)" d="M7.5,0A7.5,7.5 0 1,1 0,-7.5A7.5,7.5 0 0,1 7.5,0Z" style="opacity: 1; stroke-width: 0px; fill: rgb(230, 172, 33); fill-opacity: 0.25;"/><path class="point" transform="translate(205.14,481.71)" d="M7.5,0A7.5,7.5 0 1,1 0,-7.5A7.5,7.5 0 0,1 7.5,0Z" style="opacity: 1; stroke-width: 0px; fill: rgb(230, 172, 33); fill-opacity: 0.25;"/><path class="point" transform="translate(216.69,473.19)" d="M7.5,0A7.5,7.5 0 1,1 0,-7.5A7.5,7.5 0 0,1 7.5,0Z" style="opacity: 1; stroke-width: 0px; fill: rgb(230, 172, 33); fill-opacity: 0.25;"/><path class="point" transform="translate(224.16,466.09)" d="M7.5,0A7.5,7.5 0 1,1 0,-7.5A7.5,7.5 0 0,1 7.5,0Z" style="opacity: 1; stroke-width: 0px; fill: rgb(230, 172, 33); fill-opacity: 0.25;"/><path class="point" transform="translate(211.26,480.29)" d="M7.5,0A7.5,7.5 0 1,1 0,-7.5A7.5,7.5 0 0,1 7.5,0Z" style="opacity: 1; stroke-width: 0px; fill: rgb(230, 172, 33); fill-opacity: 0.25;"/><path class="point" transform="translate(235.71,444.78)" d="M7.5,0A7.5,7.5 0 1,1 0,-7.5A7.5,7.5 0 0,1 7.5,0Z" style="opacity: 1; stroke-width: 0px; fill: rgb(230, 172, 33); fill-opacity: 0.25;"/><path class="point" transform="translate(231.64,494.49)" d="M7.5,0A7.5,7.5 0 1,1 0,-7.5A7.5,7.5 0 0,1 7.5,0Z" style="opacity: 1; stroke-width: 0px; fill: rgb(230, 172, 33); fill-opacity: 0.25;"/><path class="point" transform="translate(259.49,480.29)" d="M7.5,0A7.5,7.5 0 1,1 0,-7.5A7.5,7.5 0 0,1 7.5,0Z" style="opacity: 1; stroke-width: 0px; fill: rgb(230, 172, 33); fill-opacity: 0.25;"/></g><g class="text"/></g><g class="trace scatter tracef47d13" style="stroke-miterlimit: 2; opacity: 1;"><g class="fills"/><g class="errorbars"/><g class="lines"><path class="js-line" d="M0,466.07Q12.39,469.13 21.74,471.25C38.64,475.08 76.81,484.91 93.06,486.56C101.36,487.4 105.95,487.48 112.08,486.39C118.17,485.31 123.95,483.28 129.74,480.09C136.43,476.41 144.92,466.64 149.44,464.72C151.42,463.88 152.26,464.4 154.2,464.04C157.34,463.46 161.54,461.46 166.42,461.24C173.54,460.92 185.8,463.58 192.92,464.88C197.8,465.77 201.17,466.45 205.14,467.68C209.09,468.91 213.21,471.27 216.69,472.24C219.41,473 224.12,473.7 224.16,473.51C224.22,473.26 211.25,469.53 211.26,469.5C211.27,469.46 235.59,477.11 235.71,476.79C235.76,476.66 231.55,475.26 231.64,474.95Q231.86,474.17 259.49,478.3" style="vector-effect: non-scaling-stroke; fill: none; stroke: rgb(240, 125, 0); stroke-opacity: 1; stroke-width: 7px; opacity: 1;"/></g><g class="points"/><g class="text"/></g><g class="trace scatter trace112fbc" style="stroke-miterlimit: 2; opacity: 1;"><g class="fills"/><g class="errorbars"/><g class="lines"/><g class="points"><path class="point" transform="translate(0,463.25)" d="M7.5,0A7.5,7.5 0 1,1 0,-7.5A7.5,7.5 0 0,1 7.5,0Z" style="opacity: 1; stroke-width: 0px; fill: rgb(240, 125, 0); fill-opacity: 0.25;"/><path class="point" transform="translate(21.74,473.19)" d="M7.5,0A7.5,7.5 0 1,1 0,-7.5A7.5,7.5 0 0,1 7.5,0Z" style="opacity: 1; stroke-width: 0px; fill: rgb(240, 125, 0); fill-opacity: 0.25;"/><path class="point" transform="translate(93.06,487.39)" d="M7.5,0A7.5,7.5 0 1,1 0,-7.5A7.5,7.5 0 0,1 7.5,0Z" style="opacity: 1; stroke-width: 0px; fill: rgb(240, 125, 0); fill-opacity: 0.25;"/><path class="point" transform="translate(112.08,494.49)" d="M7.5,0A7.5,7.5 0 1,1 0,-7.5A7.5,7.5 0 0,1 7.5,0Z" style="opacity: 1; stroke-width: 0px; fill: rgb(240, 125, 0); fill-opacity: 0.25;"/><path class="point" transform="translate(129.74,494.49)" d="M7.5,0A7.5,7.5 0 1,1 0,-7.5A7.5,7.5 0 0,1 7.5,0Z" style="opacity: 1; stroke-width: 0px; fill: rgb(240, 125, 0); fill-opacity: 0.25;"/><path class="point" transform="translate(149.44,451.88)" d="M7.5,0A7.5,7.5 0 1,1 0,-7.5A7.5,7.5 0 0,1 7.5,0Z" style="opacity: 1; stroke-width: 0px; fill: rgb(240, 125, 0); fill-opacity: 0.25;"/><path class="point" transform="translate(154.2,466.09)" d="M7.5,0A7.5,7.5 0 1,1 0,-7.5A7.5,7.5 0 0,1 7.5,0Z" style="opacity: 1; stroke-width: 0px; fill: rgb(240, 125, 0); fill-opacity: 0.25;"/><path class="point" transform="translate(166.42,450.46)" d="M7.5,0A7.5,7.5 0 1,1 0,-7.5A7.5,7.5 0 0,1 7.5,0Z" style="opacity: 1; stroke-width: 0px; fill: rgb(240, 125, 0); fill-opacity: 0.25;"/><path class="point" transform="translate(192.92,458.99)" d="M7.5,0A7.5,7.5 0 1,1 0,-7.5A7.5,7.5 0 0,1 7.5,0Z" style="opacity: 1; stroke-width: 0px; fill: rgb(240, 125, 0); fill-opacity: 0.25;"/><path class="point" transform="translate(205.14,461.83)" d="M7.5,0A7.5,7.5 0 1,1 0,-7.5A7.5,7.5 0 0,1 7.5,0Z" style="opacity: 1; stroke-width: 0px; fill: rgb(240, 125, 0); fill-opacity: 0.25;"/><path class="point" transform="translate(216.69,487.39)" d="M7.5,0A7.5,7.5 0 1,1 0,-7.5A7.5,7.5 0 0,1 7.5,0Z" style="opacity: 1; stroke-width: 0px; fill: rgb(240, 125, 0); fill-opacity: 0.25;"/><path class="point" transform="translate(224.16,473.19)" d="M7.5,0A7.5,7.5 0 1,1 0,-7.5A7.5,7.5 0 0,1 7.5,0Z" style="opacity: 1; stroke-width: 0px; fill: rgb(240, 125, 0); fill-opacity: 0.25;"/><path class="point" transform="translate(211.26,458.99)" d="M7.5,0A7.5,7.5 0 1,1 0,-7.5A7.5,7.5 0 0,1 7.5,0Z" style="opacity: 1; stroke-width: 0px; fill: rgb(240, 125, 0); fill-opacity: 0.25;"/><path class="point" transform="translate(235.71,494.49)" d="M7.5,0A7.5,7.5 0 1,1 0,-7.5A7.5,7.5 0 0,1 7.5,0Z" style="opacity: 1; stroke-width: 0px; fill: rgb(240, 125, 0); fill-opacity: 0.25;"/><path class="point" transform="translate(231.64,466.09)" d="M7.5,0A7.5,7.5 0 1,1 0,-7.5A7.5,7.5 0 0,1 7.5,0Z" style="opacity: 1; stroke-width: 0px; fill: rgb(240, 125, 0); fill-opacity: 0.25;"/><path class="point" transform="translate(259.49,480.29)" d="M7.5,0A7.5,7.5 0 1,1 0,-7.5A7.5,7.5 0 0,1 7.5,0Z" style="opacity: 1; stroke-width: 0px; fill: rgb(240, 125, 0); fill-opacity: 0.25;"/></g><g class="text"/></g><g class="trace scatter traceb9fec9" style="stroke-miterlimit: 2; opacity: 1;"><g class="fills"/><g class="errorbars"/><g class="lines"><path class="js-line" d="M0,471.44Q11.76,483.38 21.74,486.49C38.13,491.59 76.87,486.79 93.06,486.33C101.43,486.09 105.88,484.91 112.08,485.3C118.1,485.67 123.69,487.42 129.74,488.48C136.12,489.6 145.12,490.92 149.44,491.84C151.58,492.29 152.23,492.82 154.2,493.05C157.31,493.41 161.61,493.46 166.42,492.85C173.61,491.94 185.75,487.92 192.92,486.47C197.75,485.49 201.11,484.88 205.14,484.45C209.03,484.03 213.26,484.11 216.69,483.88C219.45,483.7 224.16,483.3 224.16,483.25C224.16,483.19 211.26,483.91 211.26,483.9C211.26,483.88 235.69,482.35 235.71,482.54C235.72,482.62 231.64,482.8 231.64,483.09Q231.63,483.86 259.49,487.71" style="vector-effect: non-scaling-stroke; fill: none; stroke: rgb(0, 51, 255); stroke-opacity: 1; stroke-width: 7px; opacity: 1;"/></g><g class="points"/><g class="text"/></g><g class="trace scatter trace3503b5" style="stroke-miterlimit: 2; opacity: 1;"><g class="fills"/><g class="errorbars"/><g class="lines"/><g class="points"><path class="point" transform="translate(0,463.25)" d="M7.5,0A7.5,7.5 0 1,1 0,-7.5A7.5,7.5 0 0,1 7.5,0Z" style="opacity: 1; stroke-width: 0px; fill: rgb(0, 51, 255); fill-opacity: 0.25;"/><path class="point" transform="translate(21.74,494.49)" d="M7.5,0A7.5,7.5 0 1,1 0,-7.5A7.5,7.5 0 0,1 7.5,0Z" style="opacity: 1; stroke-width: 0px; fill: rgb(0, 51, 255); fill-opacity: 0.25;"/><path class="point" transform="translate(93.06,487.39)" d="M7.5,0A7.5,7.5 0 1,1 0,-7.5A7.5,7.5 0 0,1 7.5,0Z" style="opacity: 1; stroke-width: 0px; fill: rgb(0, 51, 255); fill-opacity: 0.25;"/><path class="point" transform="translate(112.08,480.29)" d="M7.5,0A7.5,7.5 0 1,1 0,-7.5A7.5,7.5 0 0,1 7.5,0Z" style="opacity: 1; stroke-width: 0px; fill: rgb(0, 51, 255); fill-opacity: 0.25;"/><path class="point" transform="translate(129.74,487.39)" d="M7.5,0A7.5,7.5 0 1,1 0,-7.5A7.5,7.5 0 0,1 7.5,0Z" style="opacity: 1; stroke-width: 0px; fill: rgb(0, 51, 255); fill-opacity: 0.25;"/><path class="point" transform="translate(149.44,487.39)" d="M7.5,0A7.5,7.5 0 1,1 0,-7.5A7.5,7.5 0 0,1 7.5,0Z" style="opacity: 1; stroke-width: 0px; fill: rgb(0, 51, 255); fill-opacity: 0.25;"/><path class="point" transform="translate(154.2,501.59)" d="M7.5,0A7.5,7.5 0 1,1 0,-7.5A7.5,7.5 0 0,1 7.5,0Z" style="opacity: 1; stroke-width: 0px; fill: rgb(0, 51, 255); fill-opacity: 0.25;"/><path class="point" transform="translate(166.42,498.75)" d="M7.5,0A7.5,7.5 0 1,1 0,-7.5A7.5,7.5 0 0,1 7.5,0Z" style="opacity: 1; stroke-width: 0px; fill: rgb(0, 51, 255); fill-opacity: 0.25;"/><path class="point" transform="translate(192.92,487.39)" d="M7.5,0A7.5,7.5 0 1,1 0,-7.5A7.5,7.5 0 0,1 7.5,0Z" style="opacity: 1; stroke-width: 0px; fill: rgb(0, 51, 255); fill-opacity: 0.25;"/><path class="point" transform="translate(205.14,483.13)" d="M7.5,0A7.5,7.5 0 1,1 0,-7.5A7.5,7.5 0 0,1 7.5,0Z" style="opacity: 1; stroke-width: 0px; fill: rgb(0, 51, 255); fill-opacity: 0.25;"/><path class="point" transform="translate(216.69,487.39)" d="M7.5,0A7.5,7.5 0 1,1 0,-7.5A7.5,7.5 0 0,1 7.5,0Z" style="opacity: 1; stroke-width: 0px; fill: rgb(0, 51, 255); fill-opacity: 0.25;"/><path class="point" transform="translate(224.16,480.29)" d="M7.5,0A7.5,7.5 0 1,1 0,-7.5A7.5,7.5 0 0,1 7.5,0Z" style="opacity: 1; stroke-width: 0px; fill: rgb(0, 51, 255); fill-opacity: 0.25;"/><path class="point" transform="translate(211.26,480.29)" d="M7.5,0A7.5,7.5 0 1,1 0,-7.5A7.5,7.5 0 0,1 7.5,0Z" style="opacity: 1; stroke-width: 0px; fill: rgb(0, 51, 255); fill-opacity: 0.25;"/><path class="point" transform="translate(235.71,473.19)" d="M7.5,0A7.5,7.5 0 1,1 0,-7.5A7.5,7.5 0 0,1 7.5,0Z" style="opacity: 1; stroke-width: 0px; fill: rgb(0, 51, 255); fill-opacity: 0.25;"/><path class="point" transform="translate(231.64,487.39)" d="M7.5,0A7.5,7.5 0 1,1 0,-7.5A7.5,7.5 0 0,1 7.5,0Z" style="opacity: 1; stroke-width: 0px; fill: rgb(0, 51, 255); fill-opacity: 0.25;"/><path class="point" transform="translate(259.49,494.49)" d="M7.5,0A7.5,7.5 0 1,1 0,-7.5A7.5,7.5 0 0,1 7.5,0Z" style="opacity: 1; stroke-width: 0px; fill: rgb(0, 51, 255); fill-opacity: 0.25;"/></g><g class="text"/></g><g class="trace scatter trace30a468" style="stroke-miterlimit: 2; opacity: 1;"><g class="fills"/><g class="errorbars"/><g class="lines"><path class="js-line" d="M0,479.49Q12.49,479.24 21.74,480.63C38.74,483.18 76.8,497.46 93.06,498.5C101.36,499.03 105.85,496.64 112.08,496.26C118.07,495.9 123.72,496.8 129.74,496.2C136.16,495.56 145.1,492.71 149.44,492.32C151.55,492.13 152.25,492.43 154.2,492.39C157.33,492.33 161.57,491.87 166.42,491.71C173.56,491.48 185.78,491.78 192.92,491.46C197.78,491.24 201.15,490.15 205.14,490.47C209.07,490.78 213.37,491.83 216.69,493.29C219.58,494.56 224.24,498.17 224.16,498.3C224.06,498.47 211.03,491.87 211.26,491.3C211.56,490.56 235.8,497.71 235.71,498.25C235.67,498.47 231.64,498.14 231.64,498.04Q231.64,497.78 259.49,496.63" style="vector-effect: non-scaling-stroke; fill: none; stroke: rgb(140, 0, 0); stroke-opacity: 1; stroke-width: 7px; opacity: 1;"/></g><g class="points"/><g class="text"/></g><g class="trace scatter trace4bb1a3" style="stroke-miterlimit: 2; opacity: 1;"><g class="fills"/><g class="errorbars"/><g class="lines"/><g class="points"><path class="point" transform="translate(0,478.87)" d="M7.5,0A7.5,7.5 0 1,1 0,-7.5A7.5,7.5 0 0,1 7.5,0Z" style="opacity: 1; stroke-width: 0px; fill: rgb(140, 0, 0); fill-opacity: 0.25;"/><path class="point" transform="translate(21.74,480.29)" d="M7.5,0A7.5,7.5 0 1,1 0,-7.5A7.5,7.5 0 0,1 7.5,0Z" style="opacity: 1; stroke-width: 0px; fill: rgb(140, 0, 0); fill-opacity: 0.25;"/><path class="point" transform="translate(93.06,501.59)" d="M7.5,0A7.5,7.5 0 1,1 0,-7.5A7.5,7.5 0 0,1 7.5,0Z" style="opacity: 1; stroke-width: 0px; fill: rgb(140, 0, 0); fill-opacity: 0.25;"/><path class="point" transform="translate(112.08,494.49)" d="M7.5,0A7.5,7.5 0 1,1 0,-7.5A7.5,7.5 0 0,1 7.5,0Z" style="opacity: 1; stroke-width: 0px; fill: rgb(140, 0, 0); fill-opacity: 0.25;"/><path class="point" transform="translate(129.74,501.59)" d="M7.5,0A7.5,7.5 0 1,1 0,-7.5A7.5,7.5 0 0,1 7.5,0Z" style="opacity: 1; stroke-width: 0px; fill: rgb(140, 0, 0); fill-opacity: 0.25;"/><path class="point" transform="translate(149.44,487.39)" d="M7.5,0A7.5,7.5 0 1,1 0,-7.5A7.5,7.5 0 0,1 7.5,0Z" style="opacity: 1; stroke-width: 0px; fill: rgb(140, 0, 0); fill-opacity: 0.25;"/><path class="point" transform="translate(154.2,494.49)" d="M7.5,0A7.5,7.5 0 1,1 0,-7.5A7.5,7.5 0 0,1 7.5,0Z" style="opacity: 1; stroke-width: 0px; fill: rgb(140, 0, 0); fill-opacity: 0.25;"/><path class="point" transform="translate(166.42,490.23)" d="M7.5,0A7.5,7.5 0 1,1 0,-7.5A7.5,7.5 0 0,1 7.5,0Z" style="opacity: 1; stroke-width: 0px; fill: rgb(140, 0, 0); fill-opacity: 0.25;"/><path class="point" transform="translate(192.92,494.49)" d="M7.5,0A7.5,7.5 0 1,1 0,-7.5A7.5,7.5 0 0,1 7.5,0Z" style="opacity: 1; stroke-width: 0px; fill: rgb(140, 0, 0); fill-opacity: 0.25;"/><path class="point" transform="translate(205.14,481.71)" d="M7.5,0A7.5,7.5 0 1,1 0,-7.5A7.5,7.5 0 0,1 7.5,0Z" style="opacity: 1; stroke-width: 0px; fill: rgb(140, 0, 0); fill-opacity: 0.25;"/><path class="point" transform="translate(216.69,480.29)" d="M7.5,0A7.5,7.5 0 1,1 0,-7.5A7.5,7.5 0 0,1 7.5,0Z" style="opacity: 1; stroke-width: 0px; fill: rgb(140, 0, 0); fill-opacity: 0.25;"/><path class="point" transform="translate(211.26,480.29)" d="M7.5,0A7.5,7.5 0 1,1 0,-7.5A7.5,7.5 0 0,1 7.5,0Z" style="opacity: 1; stroke-width: 0px; fill: rgb(140, 0, 0); fill-opacity: 0.25;"/><path class="point" transform="translate(235.71,501.59)" d="M7.5,0A7.5,7.5 0 1,1 0,-7.5A7.5,7.5 0 0,1 7.5,0Z" style="opacity: 1; stroke-width: 0px; fill: rgb(140, 0, 0); fill-opacity: 0.25;"/><path class="point" transform="translate(231.64,494.49)" d="M7.5,0A7.5,7.5 0 1,1 0,-7.5A7.5,7.5 0 0,1 7.5,0Z" style="opacity: 1; stroke-width: 0px; fill: rgb(140, 0, 0); fill-opacity: 0.25;"/><path class="point" transform="translate(259.49,494.49)" d="M7.5,0A7.5,7.5 0 1,1 0,-7.5A7.5,7.5 0 0,1 7.5,0Z" style="opacity: 1; stroke-width: 0px; fill: rgb(140, 0, 0); fill-opacity: 0.25;"/></g><g class="text"/></g></g></g><g class="overplot"/><path class="xlines-above crisp" d="M0,0" style="fill: none;"/><path class="ylines-above crisp" d="M0,0" style="fill: none;"/><g class="overlines-above"/><g class="xaxislayer-above"><g class="xtick"><text text-anchor="middle" x="0" y="563" transform="translate(107.06,0)" style="font-family: 'Open Sans', verdana, arial, sans-serif; font-size: 12px; fill: rgb(42, 63, 95); fill-opacity: 1; white-space: pre; opacity: 1;">1.1.22</text></g><g class="xtick"><text text-anchor="middle" x="0" y="563" style="font-family: 'Open Sans', verdana, arial, sans-serif; font-size: 12px; fill: rgb(42, 63, 95); fill-opacity: 1; white-space: pre; opacity: 1;" transform="translate(230.01,0)">1.7.22</text></g><g class="xtick"><text text-anchor="middle" x="0" y="563" style="font-family: 'Open Sans', verdana, arial, sans-serif; font-size: 12px; fill: rgb(42, 63, 95); fill-opacity: 1; white-space: pre; opacity: 1;" transform="translate(355,0)">1.1.23</text></g><g class="xtick"><text text-anchor="middle" x="0" y="563" style="font-family: 'Open Sans', verdana, arial, sans-serif; font-size: 12px; fill: rgb(42, 63, 95); fill-opacity: 1; white-space: pre; opacity: 1;" transform="translate(477.95,0)">1.7.23</text></g><g class="xtick"><text text-anchor="middle" x="0" y="563" style="font-family: 'Open Sans', verdana, arial, sans-serif; font-size: 12px; fill: rgb(42, 63, 95); fill-opacity: 1; white-space: pre; opacity: 1;" transform="translate(602.94,0)">1.1.24</text></g><g class="xtick"><text text-anchor="middle" x="0" y="563" style="font-family: 'Open Sans', verdana, arial, sans-serif; font-size: 12px; fill: rgb(42, 63, 95); fill-opacity: 1; white-space: pre; opacity: 1;" transform="translate(726.57,0)">1.7.24</text></g><g class="xtick"><text text-anchor="middle" x="0" y="563" style="font-family: 'Open Sans', verdana, arial, sans-serif; font-size: 12px; fill: rgb(42, 63, 95); fill-opacity: 1; white-space: pre; opacity: 1;" transform="translate(851.56,0)">1.1.25</text></g><g class="xtick"><text text-anchor="middle" x="0" y="563" style="font-family: 'Open Sans', verdana, arial, sans-serif; font-size: 12px; fill: rgb(42, 63, 95); fill-opacity: 1; white-space: pre; opacity: 1;" transform="translate(974.51,0)">1.7.25</text></g></g><g class="yaxislayer-above"><g class="ytick"><text text-anchor="end" x="49" y="4.199999999999999" transform="translate(0,550)" style="font-family: 'Open Sans', verdana, arial, sans-serif; font-size: 12px; fill: rgb(42, 63, 95); fill-opacity: 1; white-space: pre; opacity: 1;">0%</text></g><g class="ytick"><text text-anchor="end" x="49" y="4.199999999999999" style="font-family: 'Open Sans', verdana, arial, sans-serif; font-size: 12px; fill: rgb(42, 63, 95); fill-opacity: 1; white-space: pre; opacity: 1;" transform="translate(0,478.99)">5%</text></g><g class="ytick"><text text-anchor="end" x="49" y="4.199999999999999" style="font-family: 'Open Sans', verdana, arial, sans-serif; font-size: 12px; fill: rgb(42, 63, 95); fill-opacity: 1; white-space: pre; opacity: 1;" transform="translate(0,407.97)">10%</text></g><g class="ytick"><text text-anchor="end" x="49" y="4.199999999999999" style="font-family: 'Open Sans', verdana, arial, sans-serif; font-size: 12px; fill: rgb(42, 63, 95); fill-opacity: 1; white-space: pre; opacity: 1;" transform="translate(0,336.96)">15%</text></g><g class="ytick"><text text-anchor="end" x="49" y="4.199999999999999" style="font-family: 'Open Sans', verdana, arial, sans-serif; font-size: 12px; fill: rgb(42, 63, 95); fill-opacity: 1; white-space: pre; opacity: 1;" transform="translate(0,265.94)">20%</text></g><g class="ytick"><text text-anchor="end" x="49" y="4.199999999999999" style="font-family: 'Open Sans', verdana, arial, sans-serif; font-size: 12px; fill: rgb(42, 63, 95); fill-opacity: 1; white-space: pre; opacity: 1;" transform="translate(0,194.93)">25%</text></g><g class="ytick"><text text-anchor="end" x="49" y="4.199999999999999" style="font-family: 'Open Sans', verdana, arial, sans-serif; font-size: 12px; fill: rgb(42, 63, 95); fill-opacity: 1; white-space: pre; opacity: 1;" transform="translate(0,123.92)">30%</text></g><g class="ytick"><text text-anchor="end" x="49" y="4.199999999999999" style="font-family: 'Open Sans', verdana, arial, sans-serif; font-size: 12px; fill: rgb(42, 63, 95); fill-opacity: 1; white-space: pre; opacity: 1;" transform="translate(0,52.9)">35%</text></g></g><g class="overaxes-above"/></g></g><g class="polarlayer"/><g class="smithlayer"/><g class="ternarylayer"/><g class="geolayer"/><g class="funnelarealayer"/><g class="pielayer"/><g class="iciclelayer"/><g class="treemaplayer"/><g class="sunburstlayer"/><g class="glimages"/><defs id="topdefs-22debc"><g class="clips"/><clipPath id="legend22debc"><rect width="131" height="200" x="0" y="0"/></clipPath></defs><g class="layer-above"><g class="imagelayer"/><g class="shapelayer"/></g><g class="infolayer"><g class="legend" pointer-events="all" transform="translate(1056.74,20)"><rect class="bg" shape-rendering="crispEdges" style="stroke: rgb(68, 68, 68); stroke-opacity: 1; fill: rgb(255, 255, 255); fill-opacity: 1; stroke-width: 0px;" width="131" height="200" x="0" y="0"/><g class="scrollbox" transform="" clip-path="url(#legend22debc)"><g class="groups"><g class="traces" transform="translate(0,14.5)" style="opacity: 1;"><text class="legendtext" text-anchor="start" x="40" y="4.680000000000001" style="font-family: 'Open Sans', verdana, arial, sans-serif; font-size: 12px; fill: rgb(42, 63, 95); fill-opacity: 1; white-space: pre;">ANO: 28%</text><g class="layers" style="opacity: 1;"><g class="legendfill"/><g class="legendlines"><path class="js-line" d="M5,0h30" style="fill: none; stroke: rgb(38, 16, 96); stroke-opacity: 1; stroke-width: 7px;"/></g><g class="legendsymbols"><g class="legendpoints"/></g></g><rect class="legendtoggle" x="0" y="-9.5" width="125.359375" height="19" style="fill: rgb(0, 0, 0); fill-opacity: 0;"/></g><g class="traces" transform="translate(0,33.5)" style="opacity: 1;"><text class="legendtext" text-anchor="start" x="40" y="4.680000000000001" style="font-family: 'Open Sans', verdana, arial, sans-serif; font-size: 12px; fill: rgb(42, 63, 95); fill-opacity: 1; white-space: pre;">ODS: 19%</text><g class="layers" style="opacity: 1;"><g class="legendfill"/><g class="legendlines"><path class="js-line" d="M5,0h30" style="fill: none; stroke: rgb(0, 68, 148); stroke-opacity: 1; stroke-width: 7px;"/></g><g class="legendsymbols"><g class="legendpoints"/></g></g><rect class="legendtoggle" x="0" y="-9.5" width="125.359375" height="19" style="fill: rgb(0, 0, 0); fill-opacity: 0;"/></g><g class="traces" transform="translate(0,52.5)" style="opacity: 1;"><text class="legendtext" text-anchor="start" x="40" y="4.680000000000001" style="font-family: 'Open Sans', verdana, arial, sans-serif; font-size: 12px; fill: rgb(42, 63, 95); fill-opacity: 1; white-space: pre;">SPD: 12%</text><g class="layers" style="opacity: 1;"><g class="legendfill"/><g class="legendlines"><path class="js-line" d="M5,0h30" style="fill: none; stroke: rgb(234, 35, 41); stroke-opacity: 1; stroke-width: 7px;"/></g><g class="legendsymbols"><g class="legendpoints"/></g></g><rect class="legendtoggle" x="0" y="-9.5" width="125.359375" height="19" style="fill: rgb(0, 0, 0); fill-opacity: 0;"/></g><g class="traces" transform="translate(0,71.5)" style="opacity: 1;"><text class="legendtext" text-anchor="start" x="40" y="4.680000000000001" style="font-family: 'Open Sans', verdana, arial, sans-serif; font-size: 12px; fill: rgb(42, 63, 95); fill-opacity: 1; white-space: pre;">Pirti: 11%</text><g class="layers" style="opacity: 1;"><g class="legendfill"/><g class="legendlines"><path class="js-line" d="M5,0h30" style="fill: none; stroke: rgb(0, 0, 0); stroke-opacity: 1; stroke-width: 7px;"/></g><g class="legendsymbols"><g class="legendpoints"/></g></g><rect class="legendtoggle" x="0" y="-9.5" width="125.359375" height="19" style="fill: rgb(0, 0, 0); fill-opacity: 0;"/></g><g class="traces" transform="translate(0,90.5)" style="opacity: 1;"><text class="legendtext" text-anchor="start" x="40" y="4.680000000000001" style="font-family: 'Open Sans', verdana, arial, sans-serif; font-size: 12px; fill: rgb(42, 63, 95); fill-opacity: 1; white-space: pre;">STAN: 6%</text><g class="layers" style="opacity: 1;"><g class="legendfill"/><g class="legendlines"><path class="js-line" d="M5,0h30" style="fill: none; stroke: rgb(93, 140, 0); stroke-opacity: 1; stroke-width: 7px;"/></g><g class="legendsymbols"><g class="legendpoints"/></g></g><rect class="legendtoggle" x="0" y="-9.5" width="125.359375" height="19" style="fill: rgb(0, 0, 0); fill-opacity: 0;"/></g><g class="traces" transform="translate(0,109.5)" style="opacity: 1;"><text class="legendtext" text-anchor="start" x="40" y="4.680000000000001" style="font-family: 'Open Sans', verdana, arial, sans-serif; font-size: 12px; fill: rgb(42, 63, 95); fill-opacity: 1; white-space: pre;">TOP 09: 5%</text><g class="layers" style="opacity: 1;"><g class="legendfill"/><g class="legendlines"><path class="js-line" d="M5,0h30" style="fill: none; stroke: rgb(114, 55, 105); stroke-opacity: 1; stroke-width: 7px;"/></g><g class="legendsymbols"><g class="legendpoints"/></g></g><rect class="legendtoggle" x="0" y="-9.5" width="125.359375" height="19" style="fill: rgb(0, 0, 0); fill-opacity: 0;"/></g><g class="traces" transform="translate(0,128.5)" style="opacity: 1;"><text class="legendtext" text-anchor="start" x="40" y="4.680000000000001" style="font-family: 'Open Sans', verdana, arial, sans-serif; font-size: 12px; fill: rgb(42, 63, 95); fill-opacity: 1; white-space: pre;">KDU-SL: 4%</text><g class="layers" style="opacity: 1;"><g class="legendfill"/><g class="legendlines"><path class="js-line" d="M5,0h30" style="fill: none; stroke: rgb(230, 172, 33); stroke-opacity: 1; stroke-width: 7px;"/></g><g class="legendsymbols"><g class="legendpoints"/></g></g><rect class="legendtoggle" x="0" y="-9.5" width="125.359375" height="19" style="fill: rgb(0, 0, 0); fill-opacity: 0;"/></g><g class="traces" transform="translate(0,147.5)" style="opacity: 1;"><text class="legendtext" text-anchor="start" x="40" y="4.680000000000001" style="font-family: 'Open Sans', verdana, arial, sans-serif; font-size: 12px; fill: rgb(42, 63, 95); fill-opacity: 1; white-space: pre;">SSD: 4%</text><g class="layers" style="opacity: 1;"><g class="legendfill"/><g class="legendlines"><path class="js-line" d="M5,0h30" style="fill: none; stroke: rgb(240, 125, 0); stroke-opacity: 1; stroke-width: 7px;"/></g><g class="legendsymbols"><g class="legendpoints"/></g></g><rect class="legendtoggle" x="0" y="-9.5" width="125.359375" height="19" style="fill: rgb(0, 0, 0); fill-opacity: 0;"/></g><g class="traces" transform="translate(0,166.5)" style="opacity: 1;"><text class="legendtext" text-anchor="start" x="40" y="4.680000000000001" style="font-family: 'Open Sans', verdana, arial, sans-serif; font-size: 12px; fill: rgb(42, 63, 95); fill-opacity: 1; white-space: pre;">Psaha: 3%</text><g class="layers" style="opacity: 1;"><g class="legendfill"/><g class="legendlines"><path class="js-line" d="M5,0h30" style="fill: none; stroke: rgb(0, 51, 255); stroke-opacity: 1; stroke-width: 7px;"/></g><g class="legendsymbols"><g class="legendpoints"/></g></g><rect class="legendtoggle" x="0" y="-9.5" width="125.359375" height="19" style="fill: rgb(0, 0, 0); fill-opacity: 0;"/></g><g class="traces" transform="translate(0,185.5)" style="opacity: 1;"><text class="legendtext" text-anchor="start" x="40" y="4.680000000000001" style="font-family: 'Open Sans', verdana, arial, sans-serif; font-size: 12px; fill: rgb(42, 63, 95); fill-opacity: 1; white-space: pre;">KSM: 2%</text><g class="layers" style="opacity: 1;"><g class="legendfill"/><g class="legendlines"><path class="js-line" d="M5,0h30" style="fill: none; stroke: rgb(140, 0, 0); stroke-opacity: 1; stroke-width: 7px;"/></g><g class="legendsymbols"><g class="legendpoints"/></g></g><rect class="legendtoggle" x="0" y="-9.5" width="125.359375" height="19" style="fill: rgb(0, 0, 0); fill-opacity: 0;"/></g></g></g><rect class="scrollbar" rx="20" ry="3" width="0" height="0" style="fill: rgb(128, 139, 164); fill-opacity: 1;" x="0" y="0"/></g><g class="g-gtitle"/><g class="g-xtitle"/><g class="g-ytitle"/></g></svg>