<svg class="main-svg" xmlns="http://www.w3.org/2000/svg" xmlns:xlink="http://www.w3.org/1999/xlink" width="300" height="135" style="" viewBox="0 0 300 135"><rect x="0" y="0" width="300" height="135" style="fill: rgb(255, 255, 255); fill-opacity: 1;"/><defs id="defs-15b68d"><g class="clips"><clipPath id="clip15b68dxyplot" class="plotclip"><rect width="280" height="75"/></clipPath><clipPath class="axesclip" id="clip15b68dx"><rect x="10" y="0" width="280" height="135"/></clipPath><clipPath class="axesclip" id="clip15b68dy"><rect x="0" y="50" width="300" height="75"/></clipPath><clipPath class="axesclip" id="clip15b68dxy"><rect x="10" y="50" width="280" height="75"/></clipPath></g><g class="gradients"/><g class="patterns"/></defs><g class="bglayer"/><g class="layer-below"><g class="imagelayer"/><g class="shapelayer"/></g><g class="cartesianlayer"><g class="subplot xy"><g class="layer-subplot"><g class="shapelayer"/><g class="imagelayer"/></g><g class="minor-gridlayer"><g class="x"/><g class="y"/></g><g class="gridlayer"><g class="x"><path class="xgrid crisp" transform="translate(27.08,0)" d="M0,50v75" style="stroke: rgb(235, 240, 248); stroke-opacity: 1; stroke-width: 1px;"/><path class="xgrid crisp" transform="translate(101.3,0)" d="M0,50v75" style="stroke: rgb(235, 240, 248); stroke-opacity: 1; stroke-width: 1px;"/><path class="xgrid crisp" transform="translate(175.52,0)" d="M0,50v75" style="stroke: rgb(235, 240, 248); stroke-opacity: 1; stroke-width: 1px;"/><path class="xgrid crisp" transform="translate(249.94,0)" d="M0,50v75" style="stroke: rgb(235, 240, 248); stroke-opacity: 1; stroke-width: 1px;"/></g><g class="y"><path class="ygrid crisp" transform="translate(0,104.14)" d="M10,0h280" style="stroke: rgb(235, 240, 248); stroke-opacity: 1; stroke-width: 1px;"/><path class="ygrid crisp" transform="translate(0,83.28)" d="M10,0h280" style="stroke: rgb(235, 240, 248); stroke-opacity: 1; stroke-width: 1px;"/><path class="ygrid crisp" transform="translate(0,62.42)" d="M10,0h280" style="stroke: rgb(235, 240, 248); stroke-opacity: 1; stroke-width: 1px;"/></g></g><g class="zerolinelayer"><path class="yzl zl crisp" transform="translate(0,125)" d="M10,0h280" style="stroke: rgb(235, 240, 248); stroke-opacity: 1; stroke-width: 2px;"/></g><path class="xlines-below"/><path class="ylines-below"/><g class="overlines-below"/><g class="xaxislayer-below"/><g class="yaxislayer-below"/><g class="overaxes-below"/><g class="plot" transform="translate(10,50)" clip-path="url(#clip15b68dxyplot)"><g class="scatterlayer mlayer"><g class="trace scatter tracef5af40" style="stroke-miterlimit: 2; opacity: 1;"><g class="fills"/><g class="errorbars"/><g class="lines"><path class="js-line" d="M0,18.47Q3.72,18.53 6.51,18.69C11.58,18.98 23.07,21.13 27.86,20.4C30.42,20.01 31.66,18.68 33.55,18.12C35.32,17.59 37.03,17.44 38.84,17.07C40.75,16.68 43.43,16.03 44.73,15.81C45.37,15.7 45.58,15.75 46.16,15.64C47.1,15.47 48.37,15.11 49.82,14.75C51.96,14.23 55.6,13.17 57.75,12.79C59.19,12.53 60.4,12.4 61.41,12.38C62.12,12.37 62.65,12.52 63.24,12.53C63.8,12.54 64.28,12.44 64.87,12.43C65.55,12.41 66.36,12.45 67.1,12.46C67.85,12.47 68.71,12.45 69.34,12.49C69.81,12.52 70.01,12.57 70.56,12.61C71.67,12.7 74.35,12.58 75.64,12.9C76.5,13.11 76.77,13.74 77.68,13.83C79.38,14 82.18,12.61 85.2,12.04C89.65,11.21 100.75,10.03 101.87,9.74C102,9.71 101.96,9.7 102.08,9.66C102.62,9.49 105.51,8.5 106.75,8.51C107.57,8.52 108,9 108.79,9.06C109.87,9.14 111.57,8.8 112.65,8.61C113.44,8.47 113.9,8.41 114.68,8.12C115.86,7.69 117.94,6.33 118.95,5.98C119.47,5.8 119.93,5.77 120.17,5.72C120.27,5.7 120.26,5.7 120.38,5.68C120.99,5.56 124.15,4.53 126.07,4.47C128.01,4.41 129.69,5.13 131.97,5.37C135.06,5.7 141.13,6.29 142.95,6.05C143.57,5.97 143.87,5.72 144.17,5.64C144.34,5.59 144.36,5.6 144.58,5.56C145.37,5.42 148.78,4.74 150.07,4.67C150.77,4.63 151.08,4.78 151.69,4.76C152.51,4.74 153.63,4.57 154.54,4.44C155.39,4.32 156.51,4.08 156.98,4.02C157.17,3.99 157.25,3.99 157.39,3.98C157.52,3.97 157.59,3.97 157.79,3.96C158.44,3.94 160.28,3.79 161.86,3.88C164.07,4 169.07,4.84 169.79,4.91C169.9,4.92 169.92,4.92 169.99,4.92C170.06,4.92 170.08,4.89 170.2,4.88C170.76,4.82 174.15,4.88 175.08,4.67C175.48,4.58 175.49,4.35 175.89,4.32C176.9,4.23 180.79,5.57 181.38,5.66C181.49,5.68 181.48,5.67 181.58,5.67C181.84,5.68 182.42,5.6 183.01,5.66C183.99,5.75 185.64,6.21 186.87,6.43C188,6.63 189.02,6.83 190.12,6.96C191.25,7.09 192.33,7.07 193.58,7.19C195.07,7.34 197.52,7.69 198.46,7.84C198.84,7.9 199.27,7.99 199.27,7.99C199.27,7.99 199.27,7.99 199.27,7.99C199.27,7.99 202.79,9.22 203.95,9.25C204.63,9.27 204.92,8.97 205.58,8.89C206.59,8.77 208.03,9.06 209.44,8.78C211.27,8.42 214.56,6.72 215.54,6.45C215.84,6.37 215.89,6.4 216.15,6.34C216.6,6.24 217.25,6.03 217.98,5.85C219.07,5.58 221.56,4.96 222.05,4.9C222.16,4.89 222.25,4.9 222.25,4.9C222.25,4.9 222.25,4.9 222.25,4.9C222.25,4.9 223.55,4.63 224.28,4.46C225.15,4.26 226.41,3.83 227.13,3.75C227.55,3.7 227.83,3.78 228.15,3.78C228.44,3.78 228.65,3.76 228.96,3.77C229.37,3.79 229.78,3.87 230.38,3.91C231.42,3.98 233.73,4.07 234.66,4.1C235.11,4.11 235.2,4.11 235.67,4.11C236.72,4.1 239.89,4 240.76,3.97C241.06,3.96 241.17,3.95 241.37,3.95C241.57,3.95 241.83,3.96 241.98,3.95C242.06,3.95 242.08,3.94 242.18,3.93C242.44,3.91 243.6,3.86 243.6,3.86C243.6,3.86 243.6,3.86 243.6,3.86C243.6,3.86 243.99,3.84 244.21,3.83C244.46,3.81 245.03,3.77 245.03,3.77C245.03,3.77 245.03,3.77 245.03,3.77C245.03,3.77 246.04,3.87 246.45,3.91C246.76,3.94 247.01,3.96 247.26,3.99C247.48,4.01 247.64,4.03 247.87,4.06C248.17,4.1 248.55,4.16 248.89,4.2C249.23,4.24 249.65,4.27 249.91,4.32C250.08,4.35 250.18,4.39 250.31,4.43C250.45,4.47 250.57,4.49 250.72,4.54C250.9,4.6 251.11,4.66 251.33,4.75C251.58,4.85 252.14,5.12 252.14,5.12C252.14,5.12 252.14,5.12 252.14,5.12C252.14,5.12 253.57,5.65 253.57,5.65C253.57,5.65 253.57,5.65 253.57,5.65C253.57,5.65 254.99,6.04 254.99,6.04C254.99,6.04 254.99,6.04 254.99,6.04C254.99,6.04 256.41,6.26 257.02,6.41C257.54,6.54 258.45,6.86 258.45,6.86C258.45,6.86 258.45,6.86 258.45,6.86C258.45,6.86 258.81,6.99 259.06,7.03C259.43,7.09 260.11,7.1 260.48,7.13C260.73,7.15 260.84,7.15 261.09,7.17C261.46,7.2 262.51,7.28 262.51,7.28C262.51,7.28 262.51,7.28 262.51,7.28C262.51,7.28 262.62,7.27 262.72,7.27C262.98,7.27 263.88,7.35 264.14,7.37C264.24,7.38 264.24,7.37 264.34,7.38C264.62,7.41 265.44,7.59 265.97,7.65C266.46,7.71 267.39,7.75 267.39,7.75C267.39,7.75 267.39,7.75 267.39,7.75C267.39,7.75 268.15,7.78 268.41,7.81C268.58,7.83 268.82,7.88 268.82,7.88C268.82,7.88 268.82,7.88 268.82,7.88C268.82,7.88 269.7,7.91 270.04,7.94C270.28,7.96 270.43,8.01 270.65,8.03C270.9,8.06 271.15,8.07 271.46,8.09C271.87,8.11 272.55,8.13 272.88,8.13C273.06,8.13 273.18,8.13 273.29,8.13C273.37,8.13 273.4,8.14 273.49,8.14C273.67,8.15 274,8.17 274.31,8.19C274.72,8.22 275.73,8.28 275.73,8.28C275.73,8.28 275.73,8.28 275.73,8.28C275.73,8.28 276.89,8.53 277.15,8.58C277.25,8.6 277.26,8.61 277.36,8.62C277.6,8.64 278.16,8.6 278.58,8.58Q279.04,8.55 280,8.47" style="vector-effect: none; fill: none; stroke: rgb(39, 42, 89); stroke-opacity: 1; stroke-width: 5px; opacity: 1;"/></g><g class="points"/><g class="text"/></g><g class="trace scatter trace8412bd" style="stroke-miterlimit: 2; opacity: 1;"><g class="fills"/><g class="errorbars"/><g class="lines"><path class="js-line" d="M0,17.22Q3.77,19.63 6.51,19.41C11.64,19.01 22.94,8.77 27.86,8.24C30.29,7.98 31.69,9.3 33.55,9.79C35.34,10.26 37.14,10.22 38.84,11.14C40.89,12.25 43.36,15.91 44.73,16.51C45.31,16.76 45.6,16.45 46.16,16.63C47.13,16.93 48.33,18.03 49.82,18.75C51.93,19.77 55.58,21.29 57.75,21.86C59.18,22.24 60.4,22.32 61.41,22.39C62.12,22.44 62.65,22.47 63.24,22.38C63.81,22.29 64.28,21.93 64.87,21.85C65.55,21.76 66.36,22.02 67.1,21.96C67.85,21.9 68.71,21.67 69.34,21.48C69.82,21.33 70,21.14 70.56,20.99C71.66,20.7 74.36,20.73 75.64,20.31C76.51,20.03 76.77,19.23 77.68,19.19C79.38,19.11 82.13,22.01 85.2,22.45C89.6,23.08 100.75,20.02 101.87,20.36C102.01,20.4 101.95,20.48 102.08,20.54C102.62,20.8 105.51,21.39 106.75,21.49C107.56,21.56 108.01,21.35 108.79,21.41C109.88,21.49 111.57,21.98 112.65,22.15C113.43,22.27 113.9,22.19 114.68,22.39C115.86,22.7 117.96,23.75 118.95,24.15C119.48,24.36 119.93,24.56 120.17,24.62C120.27,24.65 120.26,24.62 120.38,24.65C120.99,24.8 124.13,26.36 126.07,26.6C127.99,26.83 129.71,25.96 131.97,26.08C135.08,26.25 141.12,27.85 142.95,28.26C143.56,28.4 143.87,28.48 144.17,28.56C144.34,28.6 144.36,28.64 144.58,28.67C145.36,28.77 148.78,28.56 150.07,28.62C150.77,28.65 151.07,28.72 151.69,28.79C152.51,28.89 153.63,29.16 154.54,29.18C155.38,29.2 156.51,28.93 156.98,28.97C157.18,28.99 157.25,29.06 157.39,29.08C157.52,29.1 157.59,29.07 157.79,29.07C158.44,29.09 160.28,29.29 161.86,29.37C164.07,29.49 169.07,29.65 169.79,29.63C169.91,29.63 169.92,29.62 169.99,29.61C170.06,29.6 170.08,29.56 170.2,29.55C170.76,29.48 174.14,29.76 175.08,29.75C175.46,29.75 175.5,29.73 175.89,29.7C176.91,29.62 180.79,29.28 181.38,29.18C181.49,29.16 181.48,29.15 181.58,29.13C181.84,29.09 182.42,28.99 183.01,28.99C183.98,29 185.64,29.46 186.87,29.41C188,29.37 189.02,28.84 190.12,28.8C191.25,28.76 192.33,29.06 193.58,29.21C195.07,29.38 197.52,29.67 198.46,29.77C198.84,29.81 199.27,29.85 199.27,29.85C199.27,29.85 199.27,29.85 199.27,29.85C199.27,29.85 202.78,31.07 203.95,31.33C204.63,31.48 204.92,31.48 205.58,31.56C206.59,31.69 208.01,31.75 209.44,31.97C211.25,32.25 214.58,32.86 215.54,33.25C215.87,33.38 215.88,33.54 216.15,33.63C216.58,33.78 217.25,33.82 217.98,33.83C219.07,33.84 221.56,33.44 222.05,33.47C222.16,33.48 222.25,33.51 222.25,33.51C222.25,33.51 222.25,33.51 222.25,33.51C222.25,33.51 223.55,33.69 224.28,33.78C225.15,33.89 226.42,33.95 227.13,34.1C227.56,34.19 227.83,34.3 228.15,34.42C228.44,34.53 228.65,34.69 228.96,34.8C229.36,34.94 229.78,35.01 230.38,35.13C231.42,35.35 233.73,35.77 234.66,35.91C235.11,35.98 235.2,35.99 235.67,36.03C236.71,36.11 239.89,36.21 240.76,36.24C241.06,36.25 241.17,36.25 241.37,36.25C241.57,36.25 241.83,36.26 241.98,36.25C242.06,36.25 242.08,36.24 242.18,36.23C242.44,36.2 243.6,36.08 243.6,36.08C243.6,36.08 243.6,36.08 243.6,36.08C243.6,36.08 243.99,36.01 244.21,35.98C244.46,35.94 245.03,35.86 245.03,35.86C245.03,35.86 245.03,35.86 245.03,35.86C245.03,35.86 246.04,35.85 246.45,35.85C246.76,35.85 247.01,35.85 247.26,35.85C247.48,35.85 247.64,35.85 247.87,35.85C248.17,35.85 248.55,35.85 248.89,35.84C249.23,35.83 249.65,35.82 249.91,35.81C250.07,35.8 250.18,35.8 250.31,35.78C250.45,35.76 250.57,35.73 250.72,35.7C250.9,35.66 251.11,35.59 251.33,35.54C251.58,35.48 252.14,35.38 252.14,35.38C252.14,35.38 252.14,35.38 252.14,35.38C252.14,35.38 253.57,34.99 253.57,34.99C253.57,34.99 253.57,34.99 253.57,34.99C253.57,34.99 254.99,34.61 254.99,34.61C254.99,34.61 254.99,34.61 254.99,34.61C254.99,34.61 256.4,34.17 257.02,34C257.54,33.86 258.45,33.65 258.45,33.65C258.45,33.65 258.45,33.65 258.45,33.65C258.45,33.65 258.81,33.56 259.06,33.51C259.43,33.43 260.11,33.32 260.48,33.24C260.73,33.19 260.84,33.16 261.09,33.11C261.46,33.03 262.51,32.83 262.51,32.83C262.51,32.83 262.51,32.83 262.51,32.83C262.51,32.83 262.62,32.81 262.72,32.79C262.98,32.73 263.88,32.5 264.14,32.44C264.24,32.42 264.24,32.42 264.34,32.4C264.62,32.35 265.44,32.2 265.97,32.12C266.46,32.05 267.39,31.95 267.39,31.95C267.39,31.95 267.39,31.95 267.39,31.95C267.39,31.95 268.15,31.88 268.41,31.85C268.58,31.83 268.82,31.81 268.82,31.81C268.82,31.81 268.82,31.81 268.82,31.81C268.82,31.81 269.7,31.86 270.04,31.87C270.28,31.88 270.43,31.89 270.65,31.89C270.9,31.89 271.15,31.88 271.46,31.89C271.87,31.9 272.55,31.93 272.88,31.94C273.06,31.95 273.18,31.95 273.29,31.96C273.37,31.96 273.4,31.97 273.49,31.97C273.67,31.97 274,31.95 274.31,31.94C274.72,31.93 275.73,31.9 275.73,31.9C275.73,31.9 275.73,31.9 275.73,31.9C275.73,31.9 276.89,31.91 277.15,31.9C277.25,31.9 277.26,31.89 277.36,31.89C277.6,31.89 278.16,31.96 278.58,31.96Q279.04,31.96 280,31.9" style="vector-effect: none; fill: none; stroke: rgb(94, 102, 213); stroke-opacity: 1; stroke-width: 5px; opacity: 1;"/></g><g class="points"/><g class="text"/></g><g class="trace scatter trace8768e8" style="stroke-miterlimit: 2; opacity: 1;"><g class="fills"/><g class="errorbars"/><g class="lines"><path class="js-line" d="M0,54.97Q3.72,55.19 6.51,55.01C11.58,54.68 23.02,52.04 27.86,52.11C30.37,52.14 31.69,53.07 33.55,53.04C35.35,53.01 37.03,52.32 38.84,52C40.75,51.67 43.43,51.27 44.73,51.11C45.37,51.03 45.58,51.07 46.16,50.98C47.1,50.83 48.36,50.4 49.82,50.16C51.95,49.81 55.61,49.46 57.75,49.31C59.2,49.21 60.4,49.26 61.41,49.2C62.13,49.16 62.65,49.02 63.24,49.03C63.8,49.04 64.28,49.24 64.87,49.26C65.55,49.29 66.36,49.07 67.1,49.13C67.85,49.19 68.7,49.53 69.34,49.65C69.81,49.74 70.01,49.77 70.56,49.83C71.67,49.96 74.33,50.11 75.64,50.26C76.47,50.35 76.78,50.48 77.68,50.54C79.39,50.65 82.25,49.99 85.2,50.45C89.71,51.16 100.75,55.85 101.87,56.01C101.99,56.03 101.96,56 102.08,56C102.62,56 105.52,56 106.75,56.14C107.57,56.23 108,56.44 108.79,56.53C109.87,56.65 111.57,56.65 112.65,56.66C113.43,56.67 113.88,56.63 114.68,56.63C115.84,56.63 117.96,56.7 118.95,56.69C119.48,56.69 119.93,56.65 120.17,56.65C120.27,56.65 120.26,56.66 120.38,56.66C120.99,56.64 124.15,56.03 126.07,55.97C128.02,55.91 129.71,56.49 131.97,56.34C135.08,56.13 141.12,54.28 142.95,54.17C143.56,54.13 143.87,54.25 144.17,54.26C144.34,54.27 144.37,54.27 144.58,54.26C145.37,54.23 148.78,53.9 150.07,53.84C150.77,53.81 151.07,53.81 151.69,53.82C152.51,53.83 153.63,53.79 154.54,53.93C155.39,54.06 156.5,54.5 156.98,54.59C157.17,54.63 157.25,54.61 157.39,54.63C157.52,54.64 157.59,54.66 157.79,54.68C158.44,54.74 160.28,54.93 161.86,54.98C164.07,55.05 169.07,54.9 169.79,54.91C169.91,54.91 169.92,54.91 169.99,54.92C170.06,54.93 170.08,54.93 170.2,54.95C170.76,55.04 174.14,55.59 175.08,55.77C175.46,55.84 175.5,55.86 175.89,55.94C176.91,56.15 180.79,56.99 181.38,57.03C181.49,57.04 181.48,57.02 181.58,57.02C181.84,57.02 182.42,57.08 183.01,57.08C183.98,57.08 185.64,56.84 186.87,56.92C188,56.99 189.03,57.23 190.12,57.48C191.26,57.74 192.32,58.16 193.58,58.45C195.06,58.79 197.52,59.22 198.46,59.36C198.84,59.42 199.27,59.45 199.27,59.45C199.27,59.45 199.27,59.45 199.27,59.45C199.27,59.45 202.79,59.73 203.95,59.76C204.63,59.78 204.92,59.72 205.58,59.75C206.59,59.8 208.01,60.14 209.44,60.17C211.24,60.21 214.56,59.83 215.54,59.79C215.85,59.78 215.89,59.78 216.15,59.78C216.6,59.78 217.25,59.82 217.98,59.82C219.07,59.83 221.56,59.79 222.05,59.77C222.16,59.77 222.25,59.76 222.25,59.76C222.25,59.76 222.25,59.76 222.25,59.76C222.25,59.76 223.54,60.02 224.28,60.04C225.15,60.07 226.42,59.9 227.13,59.84C227.56,59.81 227.83,59.76 228.15,59.75C228.44,59.74 228.65,59.78 228.96,59.79C229.37,59.81 229.78,59.84 230.38,59.84C231.42,59.84 233.73,59.67 234.66,59.66C235.11,59.65 235.21,59.71 235.67,59.67C236.72,59.58 239.89,58.87 240.76,58.75C241.06,58.71 241.17,58.71 241.37,58.69C241.57,58.68 241.83,58.67 241.98,58.66C242.07,58.65 242.08,58.64 242.18,58.63C242.44,58.6 243.6,58.54 243.6,58.54C243.6,58.54 243.6,58.54 243.6,58.54C243.6,58.54 243.99,58.54 244.21,58.53C244.46,58.52 245.03,58.47 245.03,58.47C245.03,58.47 245.03,58.47 245.03,58.47C245.03,58.47 246.04,58.29 246.45,58.22C246.76,58.17 247.01,58.13 247.26,58.09C247.48,58.05 247.64,58.02 247.87,57.98C248.17,57.93 248.55,57.87 248.89,57.81C249.23,57.74 249.65,57.66 249.91,57.59C250.08,57.55 250.18,57.51 250.31,57.47C250.45,57.43 250.57,57.4 250.72,57.35C250.9,57.29 251.11,57.22 251.33,57.14C251.58,57.05 252.14,56.82 252.14,56.82C252.14,56.82 252.14,56.82 252.14,56.82C252.14,56.82 253.57,56.18 253.57,56.18C253.57,56.18 253.57,56.18 253.57,56.18C253.57,56.18 254.99,55.42 254.99,55.42C254.99,55.42 254.99,55.42 254.99,55.42C254.99,55.42 256.4,54.58 257.02,54.21C257.54,53.9 258.45,53.36 258.45,53.36C258.45,53.36 258.45,53.36 258.45,53.36C258.45,53.36 258.81,53.15 259.06,53.02C259.43,52.83 260.1,52.53 260.48,52.36C260.72,52.25 260.84,52.21 261.09,52.1C261.46,51.94 262.51,51.49 262.51,51.49C262.51,51.49 262.51,51.49 262.51,51.49C262.51,51.49 262.62,51.46 262.72,51.43C262.98,51.35 263.88,51.01 264.14,50.92C264.24,50.89 264.24,50.89 264.34,50.86C264.62,50.76 265.44,50.42 265.97,50.25C266.46,50.09 267.39,49.84 267.39,49.84C267.39,49.84 267.39,49.84 267.39,49.84C267.39,49.84 268.15,49.7 268.41,49.64C268.58,49.6 268.82,49.53 268.82,49.53C268.82,49.53 268.82,49.53 268.82,49.53C268.82,49.53 269.7,49.36 270.04,49.27C270.28,49.21 270.43,49.13 270.65,49.08C270.9,49.02 271.15,49.01 271.46,48.97C271.87,48.92 272.55,48.85 272.88,48.82C273.06,48.8 273.18,48.8 273.29,48.79C273.37,48.78 273.4,48.78 273.49,48.77C273.67,48.76 274,48.73 274.31,48.72C274.72,48.7 275.73,48.67 275.73,48.67C275.73,48.67 275.73,48.67 275.73,48.67C275.73,48.67 276.89,48.54 277.15,48.52C277.25,48.51 277.26,48.51 277.36,48.51C277.6,48.51 278.16,48.52 278.58,48.52Q279.04,48.53 280,48.54" style="vector-effect: none; fill: none; stroke: rgb(164, 125, 3); stroke-opacity: 1; stroke-width: 5px; opacity: 1;"/></g><g class="points"/><g class="text"/></g><g class="trace scatter trace5dd5aa" style="stroke-miterlimit: 2; opacity: 1;"><g class="fills"/><g class="errorbars"/><g class="lines"><path class="js-line" d="M0,62.28Q2.93,53.45 6.51,51.64C11.2,49.27 23.04,52.68 27.86,53.5C30.39,53.93 31.69,54.45 33.55,54.96C35.35,55.45 37.06,55.8 38.84,56.49C40.78,57.25 43.44,58.73 44.73,59.41C45.37,59.75 45.57,59.9 46.16,60.2C47.09,60.68 48.33,61.46 49.82,61.92C51.92,62.57 55.61,62.97 57.75,63.22C59.2,63.39 60.4,63.41 61.41,63.47C62.12,63.51 62.65,63.59 63.24,63.55C63.8,63.51 64.28,63.33 64.87,63.26C65.55,63.18 66.36,63.23 67.1,63.16C67.85,63.09 68.71,62.94 69.34,62.83C69.81,62.75 70.01,62.62 70.56,62.57C71.67,62.47 74.33,62.72 75.64,62.71C76.47,62.7 76.79,62.67 77.68,62.61C79.4,62.5 82.2,62.23 85.2,61.98C89.67,61.61 100.75,60.67 101.87,60.62C102,60.61 101.96,60.62 102.08,60.62C102.62,60.63 105.52,60.58 106.75,60.73C107.57,60.83 108,61.09 108.79,61.19C109.87,61.32 111.57,61.16 112.65,61.26C113.44,61.33 113.88,61.49 114.68,61.6C115.84,61.75 117.96,61.94 118.95,62.01C119.48,62.05 119.93,62.06 120.17,62.07C120.27,62.07 120.26,62.07 120.38,62.07C120.99,62.09 124.16,62.4 126.07,62.38C128.02,62.36 129.7,62.04 131.97,61.93C135.06,61.78 141.12,61.89 142.95,61.72C143.56,61.66 143.87,61.56 144.17,61.51C144.34,61.48 144.36,61.46 144.58,61.44C145.36,61.37 148.78,61.5 150.07,61.46C150.77,61.44 151.07,61.37 151.69,61.35C152.51,61.32 153.63,61.37 154.54,61.36C155.38,61.35 156.51,61.35 156.98,61.32C157.17,61.31 157.25,61.29 157.39,61.28C157.52,61.27 157.59,61.28 157.79,61.27C158.44,61.25 160.28,61.2 161.86,61.1C164.07,60.96 169.07,60.51 169.79,60.46C169.9,60.45 169.92,60.45 169.99,60.45C170.06,60.45 170.08,60.45 170.2,60.44C170.76,60.39 174.14,59.82 175.08,59.82C175.46,59.82 175.5,59.88 175.89,59.92C176.91,60.03 180.79,60.43 181.38,60.44C181.49,60.44 181.48,60.44 181.58,60.43C181.84,60.41 182.42,60.38 183.01,60.28C183.99,60.12 185.64,59.66 186.87,59.42C188,59.2 189.02,59.08 190.12,58.88C191.26,58.67 192.32,58.37 193.58,58.17C195.06,57.93 197.52,57.77 198.46,57.58C198.85,57.5 199.27,57.34 199.27,57.34C199.27,57.34 199.27,57.34 199.27,57.34C199.27,57.34 202.79,56.35 203.95,56.13C204.63,56 204.92,56.03 205.58,55.94C206.59,55.81 208,55.55 209.44,55.37C211.24,55.14 214.57,54.95 215.54,54.7C215.86,54.62 215.89,54.56 216.15,54.45C216.6,54.25 217.24,53.88 217.98,53.59C219.06,53.17 221.56,52.39 222.05,52.3C222.16,52.28 222.25,52.29 222.25,52.29C222.25,52.29 222.25,52.29 222.25,52.29C222.25,52.29 223.55,52.34 224.28,52.37C225.15,52.41 226.42,52.45 227.13,52.51C227.56,52.55 227.83,52.63 228.15,52.63C228.44,52.63 228.65,52.57 228.96,52.54C229.37,52.5 229.78,52.51 230.38,52.44C231.42,52.32 233.73,51.91 234.66,51.78C235.11,51.72 235.2,51.67 235.67,51.65C236.71,51.6 239.89,51.81 240.76,51.79C241.06,51.78 241.17,51.76 241.37,51.74C241.57,51.72 241.83,51.68 241.98,51.66C242.06,51.65 242.08,51.65 242.18,51.64C242.44,51.62 243.6,51.55 243.6,51.55C243.6,51.55 243.6,51.55 243.6,51.55C243.6,51.55 243.99,51.5 244.21,51.48C244.46,51.46 245.03,51.45 245.03,51.45C245.03,51.45 245.03,51.45 245.03,51.45C245.03,51.45 246.04,51.4 246.45,51.38C246.76,51.36 247.01,51.34 247.26,51.33C247.48,51.32 247.64,51.32 247.87,51.31C248.17,51.3 248.55,51.31 248.89,51.29C249.23,51.27 249.65,51.22 249.91,51.21C250.07,51.2 250.18,51.2 250.31,51.2C250.45,51.2 250.57,51.22 250.72,51.22C250.9,51.23 251.11,51.23 251.33,51.23C251.58,51.23 252.14,51.21 252.14,51.21C252.14,51.21 252.14,51.21 252.14,51.21C252.14,51.21 253.57,51.28 253.57,51.28C253.57,51.28 253.57,51.28 253.57,51.28C253.57,51.28 254.99,51.37 254.99,51.37C254.99,51.37 254.99,51.37 254.99,51.37C254.99,51.37 256.4,51.59 257.02,51.66C257.54,51.72 258.45,51.8 258.45,51.8C258.45,51.8 258.45,51.8 258.45,51.8C258.45,51.8 258.81,51.84 259.06,51.88C259.44,51.94 260.1,52.06 260.48,52.12C260.73,52.16 260.84,52.17 261.09,52.2C261.46,52.24 262.51,52.33 262.51,52.33C262.51,52.33 262.51,52.33 262.51,52.33C262.51,52.33 262.62,52.33 262.72,52.33C262.98,52.34 263.88,52.42 264.14,52.43C264.24,52.43 264.24,52.43 264.34,52.43C264.62,52.43 265.45,52.43 265.97,52.41C266.46,52.39 267.39,52.33 267.39,52.33C267.39,52.33 267.39,52.33 267.39,52.33C267.39,52.33 268.15,52.28 268.41,52.27C268.58,52.27 268.82,52.27 268.82,52.27C268.82,52.27 268.82,52.27 268.82,52.27C268.82,52.27 269.7,52.28 270.04,52.28C270.28,52.28 270.43,52.26 270.65,52.26C270.9,52.26 271.15,52.27 271.46,52.27C271.87,52.27 272.55,52.28 272.88,52.27C273.06,52.26 273.18,52.25 273.29,52.24C273.37,52.24 273.4,52.24 273.49,52.23C273.67,52.21 274,52.16 274.31,52.1C274.72,52.03 275.73,51.82 275.73,51.82C275.73,51.82 275.73,51.82 275.73,51.82C275.73,51.82 276.89,51.61 277.15,51.57C277.25,51.55 277.26,51.55 277.36,51.54C277.6,51.51 278.16,51.46 278.58,51.43Q279.04,51.4 280,51.35" style="vector-effect: none; fill: none; stroke: rgb(255, 26, 74); stroke-opacity: 1; stroke-width: 5px; opacity: 1;"/></g><g class="points"/><g class="text"/></g><g class="trace scatter tracebfde78" style="stroke-miterlimit: 2; opacity: 1;"><g class="fills"/><g class="errorbars"/><g class="lines"><path class="js-line" d="M0,53.1Q3.57,56.1 6.51,57.05C11.45,58.65 23.01,58.79 27.86,58.8C30.36,58.8 31.7,58.61 33.55,58.35C35.35,58.1 37.07,57.91 38.84,57.29C40.8,56.6 43.44,54.93 44.73,54.23C45.37,53.88 45.57,53.76 46.16,53.43C47.1,52.9 48.3,51.8 49.82,51.32C51.9,50.66 55.61,50.63 57.75,50.63C59.2,50.63 60.4,50.86 61.41,50.96C62.12,51.03 62.66,51.01 63.24,51.15C63.81,51.29 64.27,51.68 64.87,51.8C65.54,51.93 66.36,51.9 67.1,51.81C67.85,51.72 68.7,51.32 69.34,51.23C69.8,51.17 70.02,51.25 70.56,51.21C71.68,51.14 74.33,50.6 75.64,50.61C76.47,50.62 76.79,50.71 77.68,50.89C79.41,51.25 82.17,52.69 85.2,52.97C89.64,53.37 100.75,51.77 101.87,51.49C102,51.46 101.96,51.43 102.08,51.4C102.62,51.28 105.51,51.39 106.75,51.26C107.57,51.17 108.01,51.07 108.79,50.89C109.88,50.64 111.56,50.07 112.65,49.83C113.43,49.66 113.88,49.57 114.68,49.48C115.84,49.36 117.97,49.47 118.95,49.3C119.49,49.2 119.93,48.97 120.17,48.91C120.27,48.89 120.26,48.89 120.38,48.87C120.99,48.77 124.15,48.31 126.07,48.18C128.02,48.05 129.71,47.95 131.97,48.12C135.07,48.35 141.12,49.64 142.95,49.88C143.56,49.96 143.87,49.94 144.17,50C144.35,50.04 144.36,50.08 144.58,50.13C145.36,50.3 148.78,50.72 150.07,50.74C150.77,50.75 151.08,50.71 151.69,50.62C152.51,50.5 153.63,50.19 154.54,49.98C155.38,49.79 156.51,49.52 156.98,49.43C157.17,49.39 157.25,49.36 157.39,49.36C157.52,49.36 157.59,49.39 157.79,49.4C158.44,49.44 160.28,49.46 161.86,49.44C164.07,49.41 169.07,49.11 169.79,49.17C169.91,49.18 169.92,49.19 169.99,49.21C170.06,49.23 170.08,49.27 170.2,49.3C170.76,49.44 174.14,49.58 175.08,49.72C175.47,49.78 175.5,49.88 175.89,49.89C176.9,49.92 180.79,49.07 181.38,49.02C181.49,49.01 181.48,49.02 181.58,49.02C181.84,49.02 182.42,49.03 183.01,49.05C183.98,49.08 185.64,49.15 186.87,49.22C188,49.29 189.03,49.27 190.12,49.46C191.27,49.66 192.32,50.13 193.58,50.44C195.06,50.81 197.52,51.35 198.46,51.49C198.84,51.55 199.27,51.56 199.27,51.56C199.27,51.56 199.27,51.56 199.27,51.56C199.27,51.56 202.78,52.89 203.95,53.18C204.62,53.35 204.92,53.31 205.58,53.43C206.6,53.61 208.01,53.9 209.44,54.22C211.24,54.62 214.56,55.4 215.54,55.66C215.85,55.74 215.89,55.75 216.15,55.84C216.6,55.99 217.26,56.22 217.98,56.53C219.08,57 221.55,58.33 222.05,58.47C222.15,58.5 222.25,58.49 222.25,58.49C222.25,58.49 222.25,58.49 222.25,58.49C222.25,58.49 223.55,58.65 224.28,58.67C225.15,58.69 226.42,58.55 227.13,58.56C227.56,58.57 227.83,58.6 228.15,58.63C228.44,58.66 228.65,58.72 228.96,58.72C229.37,58.73 229.78,58.62 230.38,58.6C231.42,58.57 233.73,58.67 234.66,58.68C235.11,58.68 235.2,58.68 235.67,58.68C236.72,58.69 239.89,58.7 240.76,58.73C241.06,58.74 241.17,58.74 241.37,58.76C241.57,58.78 241.83,58.82 241.98,58.84C242.06,58.85 242.08,58.85 242.18,58.87C242.44,58.91 243.6,59.12 243.6,59.12C243.6,59.12 243.6,59.12 243.6,59.12C243.6,59.12 243.99,59.17 244.21,59.2C244.46,59.23 245.03,59.29 245.03,59.29C245.03,59.29 245.03,59.29 245.03,59.29C245.03,59.29 246.04,59.37 246.45,59.4C246.76,59.43 247.01,59.46 247.26,59.47C247.48,59.48 247.64,59.46 247.87,59.45C248.17,59.44 248.55,59.45 248.89,59.43C249.23,59.41 249.65,59.35 249.91,59.34C250.07,59.33 250.18,59.33 250.31,59.33C250.45,59.33 250.57,59.34 250.72,59.34C250.9,59.34 251.11,59.35 251.33,59.35C251.58,59.35 252.14,59.32 252.14,59.32C252.14,59.32 252.14,59.32 252.14,59.32C252.14,59.32 253.57,59.2 253.57,59.2C253.57,59.2 253.57,59.2 253.57,59.2C253.57,59.2 254.99,59.09 254.99,59.09C254.99,59.09 254.99,59.09 254.99,59.09C254.99,59.09 256.4,59.11 257.02,59.1C257.54,59.09 258.45,59.05 258.45,59.05C258.45,59.05 258.45,59.05 258.45,59.05C258.45,59.05 258.81,59.06 259.06,59.07C259.43,59.09 260.11,59.14 260.48,59.14C260.73,59.14 260.84,59.14 261.09,59.12C261.47,59.09 262.51,58.95 262.51,58.95C262.51,58.95 262.51,58.95 262.51,58.95C262.51,58.95 262.62,58.94 262.72,58.93C262.98,58.91 263.88,58.81 264.14,58.8C264.24,58.8 264.24,58.8 264.34,58.8C264.62,58.8 265.45,58.78 265.97,58.77C266.46,58.76 267.39,58.76 267.39,58.76C267.39,58.76 267.39,58.76 267.39,58.76C267.39,58.76 268.15,58.74 268.41,58.72C268.58,58.71 268.82,58.68 268.82,58.68C268.82,58.68 268.82,58.68 268.82,58.68C268.82,58.68 269.7,58.56 270.04,58.53C270.28,58.51 270.43,58.5 270.65,58.48C270.9,58.46 271.15,58.43 271.46,58.4C271.87,58.36 272.55,58.3 272.88,58.29C273.06,58.28 273.18,58.29 273.29,58.29C273.37,58.29 273.4,58.29 273.49,58.3C273.67,58.31 274,58.34 274.31,58.36C274.72,58.39 275.73,58.47 275.73,58.47C275.73,58.47 275.73,58.47 275.73,58.47C275.73,58.47 276.89,58.48 277.15,58.48C277.25,58.48 277.26,58.48 277.36,58.48C277.6,58.48 278.16,58.48 278.58,58.48Q279.04,58.48 280,58.51" style="vector-effect: none; fill: none; stroke: rgb(17, 17, 17); stroke-opacity: 1; stroke-width: 5px; opacity: 1;"/></g><g class="points"/><g class="text"/></g></g></g><g class="overplot"/><path class="xlines-above crisp" d="M0,0" style="fill: none;"/><path class="ylines-above crisp" d="M0,0" style="fill: none;"/><g class="overlines-above"/><g class="xaxislayer-above"/><g class="yaxislayer-above"/><g class="overaxes-above"/></g></g><g class="polarlayer"/><g class="smithlayer"/><g class="ternarylayer"/><g class="geolayer"/><g class="funnelarealayer"/><g class="pielayer"/><g class="iciclelayer"/><g class="treemaplayer"/><g class="sunburstlayer"/><g class="glimages"/><defs id="topdefs-15b68d"><g class="clips"/></defs><g class="layer-above"><g class="imagelayer"/><g class="shapelayer"/></g><g class="infolayer"><g class="g-gtitle"><text class="gtitle" x="15" y="25" text-anchor="start" dy="0em" style="font-family: Ubuntu, verdana, arial, sans-serif; font-size: 16px; fill: rgb(233, 84, 32); opacity: 1; font-weight: normal; white-space: pre;">Sněmovna volby 2025</text></g><g class="g-xtitle"/><g class="g-ytitle"/></g></svg>