<svg class="main-svg" xmlns="http://www.w3.org/2000/svg" xmlns:xlink="http://www.w3.org/1999/xlink" width="300" height="135" style="" viewBox="0 0 300 135"><rect x="0" y="0" width="300" height="135" style="fill: rgb(255, 255, 255); fill-opacity: 1;"/><defs id="defs-457bf6"><g class="clips"><clipPath id="clip457bf6xyplot" class="plotclip"><rect width="280" height="75"/></clipPath><clipPath class="axesclip" id="clip457bf6x"><rect x="10" y="0" width="280" height="135"/></clipPath><clipPath class="axesclip" id="clip457bf6y"><rect x="0" y="50" width="300" height="75"/></clipPath><clipPath class="axesclip" id="clip457bf6xy"><rect x="10" y="50" width="280" height="75"/></clipPath></g><g class="gradients"/><g class="patterns"/></defs><g class="bglayer"/><g class="layer-below"><g class="imagelayer"/><g class="shapelayer"/></g><g class="cartesianlayer"><g class="subplot xy"><g class="layer-subplot"><g class="shapelayer"/><g class="imagelayer"/></g><g class="minor-gridlayer"><g class="x"/><g class="y"/></g><g class="gridlayer"><g class="x"><path class="xgrid crisp" transform="translate(37.19,0)" d="M0,50v75" style="stroke: rgb(235, 240, 248); stroke-opacity: 1; stroke-width: 1px;"/><path class="xgrid crisp" transform="translate(95.78,0)" d="M0,50v75" style="stroke: rgb(235, 240, 248); stroke-opacity: 1; stroke-width: 1px;"/><path class="xgrid crisp" transform="translate(155.34,0)" d="M0,50v75" style="stroke: rgb(235, 240, 248); stroke-opacity: 1; stroke-width: 1px;"/><path class="xgrid crisp" transform="translate(213.93,0)" d="M0,50v75" style="stroke: rgb(235, 240, 248); stroke-opacity: 1; stroke-width: 1px;"/><path class="xgrid crisp" transform="translate(273.49,0)" d="M0,50v75" style="stroke: rgb(235, 240, 248); stroke-opacity: 1; stroke-width: 1px;"/></g><g class="y"><path class="ygrid crisp" transform="translate(0,104.25999999999999)" d="M10,0h280" style="stroke: rgb(235, 240, 248); stroke-opacity: 1; stroke-width: 1px;"/><path class="ygrid crisp" transform="translate(0,83.53)" d="M10,0h280" style="stroke: rgb(235, 240, 248); stroke-opacity: 1; stroke-width: 1px;"/><path class="ygrid crisp" transform="translate(0,62.79)" d="M10,0h280" style="stroke: rgb(235, 240, 248); stroke-opacity: 1; stroke-width: 1px;"/></g></g><g class="zerolinelayer"><path class="yzl zl crisp" transform="translate(0,125)" d="M10,0h280" style="stroke: rgb(235, 240, 248); stroke-opacity: 1; stroke-width: 2px;"/></g><path class="xlines-below"/><path class="ylines-below"/><g class="overlines-below"/><g class="xaxislayer-below"/><g class="yaxislayer-below"/><g class="overaxes-below"/><g class="plot" transform="translate(10,50)" clip-path="url(#clip457bf6xyplot)"><g class="scatterlayer mlayer"><g class="trace scatter tracee1db78" style="stroke-miterlimit: 2; opacity: 1;"><g class="fills"/><g class="errorbars"/><g class="lines"><path class="js-line" d="M0,18.8Q5.91,18.87 10.36,19.03C18.42,19.32 36.67,21.47 44.35,20.72C48.37,20.33 50.43,19.02 53.41,18.46C56.25,17.93 58.95,17.78 61.83,17.41C64.87,17.02 69.15,16.37 71.21,16.16C72.22,16.05 72.55,16.09 73.48,15.99C74.98,15.82 77,15.46 79.31,15.11C82.71,14.59 88.52,13.54 91.93,13.16C94.24,12.9 96.15,12.77 97.76,12.76C98.9,12.75 99.73,12.91 100.67,12.91C101.56,12.91 102.33,12.82 103.26,12.8C104.35,12.78 105.63,12.82 106.82,12.83C108.01,12.84 109.37,12.82 110.38,12.86C111.12,12.89 111.45,12.94 112.32,12.98C114.09,13.07 118.35,12.94 120.42,13.27C121.76,13.48 122.22,14.1 123.65,14.19C126.37,14.37 130.84,12.98 135.63,12.42C142.73,11.59 160.4,10.42 162.17,10.13C162.37,10.1 162.32,10.09 162.5,10.05C163.36,9.88 167.97,8.89 169.94,8.9C171.24,8.91 171.92,9.39 173.18,9.45C174.9,9.53 177.61,9.19 179.33,9C180.58,8.86 181.31,8.81 182.57,8.52C184.43,8.09 187.77,6.74 189.36,6.39C190.2,6.2 190.93,6.17 191.31,6.13C191.46,6.11 191.45,6.12 191.63,6.1C192.59,5.99 197.64,4.95 200.69,4.89C203.79,4.83 206.46,5.55 210.08,5.79C215,6.12 224.66,6.71 227.56,6.46C228.54,6.38 229.02,6.13 229.5,6.05C229.77,6 229.81,6.01 230.15,5.97C231.4,5.83 236.83,5.15 238.89,5.08C240.01,5.04 240.5,5.19 241.48,5.17C242.78,5.15 244.56,4.98 246.01,4.85C247.36,4.73 249.15,4.48 249.9,4.41C250.2,4.38 250.33,4.38 250.54,4.37C250.76,4.36 250.86,4.36 251.19,4.35C252.23,4.32 255.15,4.14 257.66,4.2C261.17,4.29 269.13,5.07 270.29,5.13C270.47,5.14 270.5,5.15 270.61,5.14C270.72,5.13 270.76,5.1 270.94,5.08C271.82,4.96 277.23,4.82 278.71,4.4Q279.35,4.22 280,3.75" style="vector-effect: none; fill: none; stroke: rgb(38, 16, 96); stroke-opacity: 1; stroke-width: 5px; opacity: 1;"/></g><g class="points"/><g class="text"/></g><g class="trace scatter trace5d22f5" style="stroke-miterlimit: 2; opacity: 1;"><g class="fills"/><g class="errorbars"/><g class="lines"><path class="js-line" d="M0,46.8Q5.93,44.93 10.36,43.36C18.44,40.5 36.56,32.61 44.35,30.6C48.26,29.59 50.44,29.5 53.41,29.26C56.26,29.03 59.05,28.38 61.83,29.12C64.99,29.96 69.09,34.1 71.21,34.71C72.18,34.99 72.58,34.54 73.48,34.76C75.01,35.13 76.94,36.73 79.31,37.58C82.66,38.79 88.51,40.22 91.93,40.69C94.22,41 96.15,40.9 97.76,40.87C98.9,40.85 99.73,40.75 100.67,40.67C101.56,40.59 102.33,40.36 103.26,40.38C104.35,40.4 105.63,40.86 106.82,40.91C108,40.96 109.37,40.78 110.38,40.69C111.13,40.62 111.45,40.51 112.32,40.46C114.09,40.37 118.36,40.96 120.42,40.57C121.77,40.31 122.21,39.34 123.65,39.24C126.36,39.05 130.82,42.03 135.63,42.32C142.71,42.74 160.4,38.54 162.17,38.8C162.38,38.83 162.31,38.9 162.5,38.95C163.36,39.19 167.97,39.75 169.94,39.78C171.24,39.8 171.94,39.43 173.18,39.53C174.91,39.68 177.6,40.79 179.33,41.07C180.57,41.27 181.3,41.18 182.57,41.33C184.42,41.55 187.78,42.22 189.36,42.4C190.2,42.5 190.94,42.53 191.31,42.54C191.46,42.54 191.45,42.52 191.63,42.53C192.59,42.59 197.64,43.58 200.69,43.95C203.79,44.32 206.48,44.29 210.08,44.74C215.02,45.36 224.64,47.32 227.56,47.63C228.53,47.73 229.03,47.7 229.5,47.72C229.77,47.73 229.81,47.75 230.15,47.74C231.4,47.7 236.84,47.13 238.89,46.97C240.01,46.88 240.5,46.78 241.48,46.79C242.78,46.81 244.56,47.2 246.01,47.23C247.35,47.26 249.15,47 249.9,47.01C250.2,47.02 250.33,47.06 250.54,47.07C250.76,47.08 250.86,47.08 251.19,47.09C252.23,47.12 255.15,47.23 257.66,47.24C261.17,47.25 269.13,47.09 270.29,47.04C270.47,47.03 270.5,47.03 270.61,47.02C270.72,47.01 270.76,46.98 270.94,46.97C271.82,46.91 277.21,47.12 278.71,47.04Q279.32,47.01 280,46.89" style="vector-effect: none; fill: none; stroke: rgb(0, 68, 148); stroke-opacity: 1; stroke-width: 5px; opacity: 1;"/></g><g class="points"/><g class="text"/></g><g class="trace scatter trace7ae3cb" style="stroke-miterlimit: 2; opacity: 1;"><g class="fills"/><g class="errorbars"/><g class="lines"><path class="js-line" d="M0,55.3Q5.87,57.06 10.36,57.69C18.39,58.82 36.63,59.25 44.35,59.52C48.33,59.66 50.45,59.59 53.41,59.66C56.27,59.72 58.99,60.33 61.83,59.91C64.91,59.45 69.14,57.32 71.21,56.77C72.21,56.5 72.55,56.55 73.48,56.32C74.98,55.95 76.97,54.96 79.31,54.58C82.69,54.03 88.53,54.19 91.93,54.19C94.24,54.19 96.15,54.38 97.76,54.38C98.9,54.38 99.73,54.24 100.67,54.27C101.56,54.3 102.33,54.5 103.26,54.54C104.35,54.58 105.63,54.51 106.82,54.45C108.01,54.39 109.37,54.22 110.38,54.19C111.12,54.17 111.45,54.27 112.32,54.23C114.1,54.15 118.33,53.49 120.42,53.3C121.74,53.18 122.23,53.06 123.65,53.08C126.38,53.12 130.85,54.05 135.63,54.26C142.73,54.57 160.4,54.08 162.17,53.96C162.37,53.95 162.32,53.93 162.5,53.92C163.36,53.88 167.97,54.22 169.94,54.09C171.25,54 171.93,53.73 173.18,53.58C174.9,53.38 177.61,53.23 179.33,53.1C180.58,53 181.29,52.93 182.57,52.86C184.42,52.75 187.78,52.66 189.36,52.58C190.21,52.54 190.94,52.49 191.31,52.46C191.46,52.45 191.45,52.44 191.63,52.43C192.59,52.38 197.64,52.33 200.69,52.25C203.79,52.17 206.47,51.8 210.08,51.96C215.02,52.18 224.65,53.91 227.56,54.08C228.53,54.14 229.03,54.04 229.5,54.07C229.78,54.09 229.81,54.14 230.15,54.16C231.4,54.23 236.84,54.13 238.89,53.99C240.01,53.91 240.5,53.79 241.48,53.69C242.78,53.56 244.56,53.43 246.01,53.3C247.36,53.18 249.15,52.98 249.9,52.92C250.2,52.9 250.33,52.89 250.54,52.88C250.76,52.87 250.86,52.88 251.19,52.88C252.23,52.87 255.15,52.86 257.66,52.79C261.17,52.69 269.13,52.26 270.29,52.23C270.47,52.23 270.5,52.22 270.61,52.23C270.72,52.24 270.76,52.27 270.94,52.29C271.82,52.4 277.21,52.71 278.71,52.86Q279.32,52.92 280,53.03" style="vector-effect: none; fill: none; stroke: rgb(0, 0, 0); stroke-opacity: 1; stroke-width: 5px; opacity: 1;"/></g><g class="points"/><g class="text"/></g><g class="trace scatter trace057897" style="stroke-miterlimit: 2; opacity: 1;"><g class="fills"/><g class="errorbars"/><g class="lines"><path class="js-line" d="M0,55.09Q5.92,55.31 10.36,55.13C18.43,54.8 36.64,52.17 44.35,52.24C48.34,52.28 50.45,53.21 53.41,53.18C56.27,53.15 58.95,52.45 61.83,52.14C64.87,51.81 69.15,51.42 71.21,51.26C72.22,51.18 72.55,51.21 73.48,51.12C74.98,50.97 76.99,50.55 79.31,50.31C82.71,49.96 88.52,49.61 91.93,49.46C94.24,49.36 96.15,49.41 97.76,49.35C98.9,49.31 99.73,49.17 100.67,49.18C101.56,49.19 102.33,49.38 103.26,49.41C104.35,49.44 105.64,49.23 106.82,49.29C108.01,49.35 109.37,49.68 110.38,49.8C111.12,49.89 111.45,49.92 112.32,49.98C114.09,50.11 118.33,50.26 120.42,50.41C121.74,50.5 122.23,50.63 123.65,50.69C126.38,50.8 130.88,50.12 135.63,50.59C142.77,51.3 160.39,55.96 162.17,56.12C162.37,56.14 162.32,56.11 162.5,56.11C163.36,56.11 167.97,56.11 169.94,56.25C171.24,56.34 171.93,56.55 173.18,56.64C174.9,56.76 177.61,56.76 179.33,56.77C180.58,56.78 181.29,56.74 182.57,56.74C184.42,56.74 187.78,56.81 189.36,56.8C190.21,56.8 190.94,56.76 191.31,56.76C191.46,56.76 191.45,56.77 191.63,56.77C192.59,56.75 197.64,56.15 200.69,56.09C203.79,56.03 206.47,56.6 210.08,56.45C215.02,56.24 224.65,54.4 227.56,54.29C228.53,54.25 229.03,54.37 229.5,54.38C229.77,54.39 229.81,54.39 230.15,54.38C231.4,54.35 236.84,54 238.89,53.94C240.01,53.91 240.5,53.91 241.48,53.92C242.78,53.93 244.56,53.88 246.01,54.02C247.36,54.15 249.15,54.58 249.9,54.67C250.2,54.7 250.33,54.7 250.54,54.71C250.76,54.72 250.86,54.73 251.19,54.75C252.23,54.8 255.15,54.98 257.66,55C261.17,55.02 269.13,54.7 270.29,54.69C270.47,54.69 270.5,54.69 270.61,54.69C270.72,54.69 270.76,54.7 270.94,54.71C271.83,54.76 277.21,55.07 278.71,55.16Q279.32,55.2 280,55.24" style="vector-effect: none; fill: none; stroke: rgb(234, 35, 41); stroke-opacity: 1; stroke-width: 5px; opacity: 1;"/></g><g class="points"/><g class="text"/></g><g class="trace scatter trace20590b" style="stroke-miterlimit: 2; opacity: 1;"><g class="fills"/><g class="errorbars"/><g class="lines"><path class="js-line" d="M0,62.35Q5.31,53.74 10.36,51.78C18.02,48.8 36.65,52.79 44.35,53.62C48.35,54.05 50.45,54.57 53.41,55.08C56.27,55.57 58.97,55.9 61.83,56.6C64.89,57.35 69.15,58.82 71.21,59.5C72.23,59.83 72.54,59.99 73.48,60.29C74.97,60.77 76.97,61.54 79.31,62C82.69,62.66 88.52,63.04 91.93,63.29C94.24,63.46 96.15,63.48 97.76,63.54C98.9,63.58 99.73,63.66 100.67,63.62C101.56,63.58 102.33,63.4 103.26,63.33C104.35,63.25 105.63,63.3 106.82,63.23C108.01,63.16 109.37,63.01 110.38,62.9C111.13,62.82 111.45,62.69 112.32,62.64C114.09,62.54 118.33,62.81 120.42,62.79C121.74,62.78 122.23,62.74 123.65,62.68C126.38,62.56 130.85,62.31 135.63,62.06C142.74,61.69 160.39,60.75 162.17,60.7C162.37,60.69 162.32,60.7 162.5,60.7C163.36,60.71 167.97,60.67 169.94,60.82C171.24,60.92 171.92,61.18 173.18,61.27C174.9,61.4 177.61,61.24 179.33,61.34C180.58,61.41 181.29,61.57 182.57,61.68C184.42,61.83 187.78,62.02 189.36,62.09C190.21,62.13 190.94,62.14 191.31,62.15C191.46,62.15 191.45,62.15 191.63,62.15C192.59,62.17 197.64,62.47 200.69,62.45C203.79,62.43 206.47,62.11 210.08,62C215.01,61.85 224.65,61.97 227.56,61.8C228.53,61.74 229.03,61.64 229.5,61.59C229.77,61.56 229.81,61.55 230.15,61.53C231.4,61.47 236.84,61.59 238.89,61.55C240.01,61.53 240.5,61.46 241.48,61.44C242.78,61.41 244.56,61.45 246.01,61.44C247.36,61.43 249.15,61.42 249.9,61.4C250.2,61.39 250.33,61.38 250.54,61.37C250.76,61.36 250.86,61.37 251.19,61.36C252.23,61.34 255.15,61.3 257.66,61.2C261.17,61.06 269.13,60.56 270.29,60.51C270.47,60.5 270.5,60.5 270.61,60.5C270.72,60.49 270.76,60.5 270.94,60.48C271.83,60.4 277.21,59.6 278.71,59.55Q279.32,59.53 280,59.62" style="vector-effect: none; fill: none; stroke: rgb(93, 140, 0); stroke-opacity: 1; stroke-width: 5px; opacity: 1;"/></g><g class="points"/><g class="text"/></g></g></g><g class="overplot"/><path class="xlines-above crisp" d="M0,0" style="fill: none;"/><path class="ylines-above crisp" d="M0,0" style="fill: none;"/><g class="overlines-above"/><g class="xaxislayer-above"/><g class="yaxislayer-above"/><g class="overaxes-above"/></g></g><g class="polarlayer"/><g class="smithlayer"/><g class="ternarylayer"/><g class="geolayer"/><g class="funnelarealayer"/><g class="pielayer"/><g class="iciclelayer"/><g class="treemaplayer"/><g class="sunburstlayer"/><g class="glimages"/><defs id="topdefs-457bf6"><g class="clips"/></defs><g class="layer-above"><g class="imagelayer"/><g class="shapelayer"/></g><g class="infolayer"><g class="g-gtitle"><text class="gtitle" x="15" y="25" text-anchor="start" dy="0em" style="font-family: Ubuntu, verdana, arial, sans-serif; font-size: 16px; fill: rgb(233, 84, 32); opacity: 1; font-weight: normal; white-space: pre;">Sněmovna 2021-2025</text></g><g class="g-xtitle"/><g class="g-ytitle"/></g></svg>